<svg width="107" height="109" viewBox="0 0 107 109" fill="none" xmlns="http://www.w3.org/2000/svg">
<g filter="url(#filter0_d_5846_13527)">
<rect x="8" y="6" width="91" height="93" rx="12" fill="#151B23"/>
<rect x="9" y="7" width="89" height="91" rx="11" stroke="#1F2937" stroke-width="2"/>
<path d="M53.5065 53.5002L41.8022 46.7435V33.2443L53.4967 26.492L65.201 33.2487V46.7479L53.5054 53.4991L53.5065 53.5002ZM66.6837 32.3934L53.4967 24.7793L40.3184 32.3891V47.5998L53.5065 55.214L66.6837 47.6053V32.3945V32.3934Z" fill="#33363B"/>
<path d="M43.7497 34.3701C43.3355 35.0866 42.654 35.6095 41.8548 35.824C41.0555 36.0386 40.2038 35.9273 39.4865 35.5145C38.77 35.1004 38.2472 34.4189 38.0326 33.6196C37.8181 32.8203 37.9294 31.9686 38.3421 31.2513C38.7565 30.5351 39.4381 30.0124 40.2373 29.7981C41.0365 29.5837 41.8882 29.6952 42.6053 30.1081C43.3211 30.5226 43.8433 31.2039 44.0578 32.0027C44.2723 32.8016 44.1615 33.6528 43.7497 34.3701ZM63.251 34.3701C62.8389 33.6527 62.7279 32.8012 62.9424 32.0021C63.1569 31.203 63.6794 30.5215 64.3954 30.107C65.1128 29.6948 65.9643 29.5838 66.7634 29.7983C67.5625 30.0128 68.244 30.5353 68.6586 31.2513C69.0707 31.9687 69.1817 32.8203 68.9672 33.6194C68.7527 34.4185 68.2302 35.0999 67.5142 35.5145C66.7971 35.9274 65.9454 36.0389 65.1462 35.8245C64.3469 35.6102 63.6654 35.0875 63.251 34.3712V34.3701ZM53.5004 57.5006C53.0907 57.5009 52.685 57.4204 52.3065 57.2638C51.928 57.1072 51.584 56.8774 51.2944 56.5878C51.0047 56.2981 50.775 55.9542 50.6184 55.5757C50.4617 55.1971 50.3813 54.7914 50.3815 54.3818C50.3813 53.9722 50.4617 53.5665 50.6184 53.1879C50.775 52.8094 51.0047 52.4655 51.2944 52.1758C51.584 51.8862 51.928 51.6564 52.3065 51.4998C52.685 51.3432 53.0907 51.2627 53.5004 51.263C53.91 51.2627 54.3157 51.3432 54.6942 51.4998C55.0727 51.6564 55.4167 51.8862 55.7063 52.1758C55.996 52.4655 56.2257 52.8094 56.3824 53.1879C56.539 53.5665 56.6195 53.9722 56.6192 54.3818C56.6186 55.2088 56.2898 56.0017 55.7051 56.5865C55.1203 57.1713 54.3273 57.5 53.5004 57.5006Z" fill="#7EBC59"/>
<path d="M52.6311 28.615C53.1994 28.7799 53.8029 28.7799 54.3712 28.615L63.7911 44.9307C63.358 45.3429 63.0534 45.8715 62.9139 46.4529H44.0861C44.0142 46.1652 43.9037 45.8885 43.7576 45.6305C43.6072 45.375 43.4231 45.1411 43.21 44.9351L52.6311 28.615ZM67.5057 44.4861C67.1418 44.2767 66.7394 44.1429 66.3226 44.0927C65.9059 44.0424 65.4832 44.0768 65.08 44.1937L55.6568 27.8736C56.2503 27.3063 56.6205 26.5069 56.6205 25.6188C56.6208 25.209 56.5402 24.8031 56.3834 24.4245C56.2267 24.0458 55.9968 23.7018 55.7069 23.4121C55.417 23.1224 55.0728 22.8927 54.694 22.7362C54.3152 22.5797 53.9093 22.4994 53.4995 22.5C53.0898 22.4997 52.6841 22.5802 52.3056 22.7368C51.9271 22.8935 51.5832 23.1232 51.2935 23.4128C51.0038 23.7025 50.7741 24.0464 50.6175 24.425C50.4608 24.8035 50.3804 25.2092 50.3807 25.6188C50.3807 26.508 50.7508 27.3074 51.3443 27.8747L41.9244 44.1959C41.5209 44.0777 41.0976 44.0426 40.6801 44.0927C40.2626 44.1428 39.8596 44.277 39.4955 44.4872C38.7795 44.9018 38.257 45.5832 38.0425 46.3823C37.8279 47.1814 37.9389 48.033 38.3511 48.7504C38.5559 49.1055 38.8286 49.4167 39.1536 49.6664C39.4787 49.9161 39.8498 50.0993 40.2457 50.2056C40.6416 50.3118 41.0545 50.3391 41.4609 50.2858C41.8673 50.2324 42.2592 50.0996 42.6143 49.8947C42.9783 49.6843 43.2959 49.4025 43.5483 49.0662C43.8007 48.7299 43.9825 48.3461 44.0828 47.9378H62.9183C63.0174 48.3465 63.1985 48.7307 63.4508 49.0672C63.7031 49.4036 64.0212 49.6852 64.3857 49.8947C65.1031 50.3078 65.9551 50.4194 66.7546 50.2048C67.5542 49.9902 68.2359 49.4671 68.65 48.7504C68.8563 48.3957 68.9903 48.0037 69.0444 47.597C69.0986 47.1902 69.0716 46.7768 68.9653 46.3806C68.8589 45.9843 68.6752 45.613 68.4247 45.288C68.1741 44.9631 67.8618 44.6898 67.5057 44.4861Z" fill="#368CBF"/>
<path d="M37.6419 82H35.6731L39.2576 71.8182H41.5346L45.1241 82H43.1554L40.4359 73.9062H40.3564L37.6419 82ZM37.7065 78.0078H43.0758V79.4893H37.7065V78.0078ZM48.1854 71.8182V82H46.3857V71.8182H48.1854ZM53.8493 74.3636V75.7557H49.4593V74.3636H53.8493ZM50.5431 72.5341H52.3429V79.7031C52.3429 79.9451 52.3793 80.1307 52.4522 80.2599C52.5285 80.3859 52.6279 80.4721 52.7505 80.5185C52.8732 80.5649 53.0091 80.5881 53.1582 80.5881C53.2709 80.5881 53.3736 80.5798 53.4664 80.5632C53.5626 80.5466 53.6355 80.5317 53.6852 80.5185L53.9885 81.9254C53.8923 81.9586 53.7548 81.995 53.5758 82.0348C53.4002 82.0746 53.1847 82.0978 52.9295 82.1044C52.4788 82.1177 52.0727 82.0497 51.7115 81.9006C51.3502 81.7481 51.0635 81.5128 50.8514 81.1946C50.6426 80.8764 50.5398 80.4787 50.5431 80.0014V72.5341ZM57.5518 82.1541C57.0679 82.1541 56.6321 82.0679 56.2443 81.8956C55.8598 81.7199 55.5549 81.4614 55.3295 81.12C55.1075 80.7786 54.9964 80.3577 54.9964 79.8572C54.9964 79.4264 55.076 79.0701 55.2351 78.7884C55.3942 78.5066 55.6113 78.2812 55.8864 78.1122C56.1615 77.9432 56.4714 77.8156 56.8161 77.7294C57.1641 77.6399 57.5237 77.5753 57.8949 77.5355C58.3423 77.4891 58.7053 77.4477 58.9837 77.4112C59.2621 77.3714 59.4643 77.3118 59.5902 77.2322C59.7195 77.1494 59.7841 77.0218 59.7841 76.8494V76.8196C59.7841 76.4451 59.6731 76.1551 59.451 75.9496C59.2289 75.7441 58.9091 75.6413 58.4915 75.6413C58.0507 75.6413 57.701 75.7375 57.4425 75.9297C57.1873 76.1219 57.0149 76.349 56.9254 76.6108L55.245 76.3722C55.3776 75.9081 55.5964 75.5204 55.9013 75.2088C56.2062 74.8939 56.5791 74.6586 57.0199 74.5028C57.4607 74.3438 57.9479 74.2642 58.4815 74.2642C58.8494 74.2642 59.2157 74.3073 59.5803 74.3935C59.9448 74.4796 60.2779 74.6222 60.5795 74.821C60.8812 75.0166 61.1231 75.2834 61.3054 75.6214C61.491 75.9595 61.5838 76.3821 61.5838 76.8892V82H59.8537V80.951H59.794C59.6847 81.1631 59.5305 81.362 59.3317 81.5476C59.1361 81.7299 58.8892 81.8774 58.5909 81.9901C58.2959 82.0994 57.9496 82.1541 57.5518 82.1541ZM58.0192 80.8317C58.3804 80.8317 58.6937 80.7604 58.9588 80.6179C59.224 80.4721 59.4278 80.2798 59.5703 80.0412C59.7161 79.8026 59.7891 79.5424 59.7891 79.2607V78.3608C59.7327 78.4072 59.6366 78.4503 59.5007 78.4901C59.3681 78.5298 59.219 78.5646 59.0533 78.5945C58.8875 78.6243 58.7235 78.6508 58.5611 78.674C58.3987 78.6972 58.2578 78.7171 58.1385 78.7337C57.87 78.7701 57.6297 78.8298 57.4176 78.9126C57.2055 78.9955 57.0381 79.1115 56.9155 79.2607C56.7929 79.4065 56.7315 79.5954 56.7315 79.8274C56.7315 80.1589 56.8525 80.4091 57.0945 80.5781C57.3364 80.7472 57.6446 80.8317 58.0192 80.8317ZM63.3935 82V74.3636H65.1932V82H63.3935ZM64.2983 73.2798C64.0133 73.2798 63.768 73.1854 63.5625 72.9964C63.357 72.8042 63.2543 72.5739 63.2543 72.3054C63.2543 72.0336 63.357 71.8033 63.5625 71.6143C63.768 71.4221 64.0133 71.326 64.2983 71.326C64.5866 71.326 64.8319 71.4221 65.0341 71.6143C65.2396 71.8033 65.3423 72.0336 65.3423 72.3054C65.3423 72.5739 65.2396 72.8042 65.0341 72.9964C64.8319 73.1854 64.5866 73.2798 64.2983 73.2798ZM67.0439 82V74.3636H68.7889V75.6364H68.8684C69.0076 75.1955 69.2463 74.8558 69.5843 74.6172C69.9257 74.3752 70.3152 74.2543 70.7527 74.2543C70.8521 74.2543 70.9631 74.2592 71.0858 74.2692C71.2117 74.2758 71.3161 74.2874 71.399 74.304V75.9595C71.3227 75.933 71.2018 75.9098 71.036 75.8899C70.8736 75.8667 70.7162 75.8551 70.5637 75.8551C70.2356 75.8551 69.9406 75.9264 69.6788 76.0689C69.4203 76.2081 69.2164 76.402 69.0673 76.6506C68.9181 76.8991 68.8436 77.1858 68.8436 77.5107V82H67.0439Z" fill="white"/>
</g>
<defs>
<filter id="filter0_d_5846_13527" x="0" y="0" width="107" height="109" filterUnits="userSpaceOnUse" color-interpolation-filters="sRGB">
<feFlood flood-opacity="0" result="BackgroundImageFix"/>
<feColorMatrix in="SourceAlpha" type="matrix" values="0 0 0 0 0 0 0 0 0 0 0 0 0 0 0 0 0 0 127 0" result="hardAlpha"/>
<feOffset dy="2"/>
<feGaussianBlur stdDeviation="4"/>
<feColorMatrix type="matrix" values="0 0 0 0 0 0 0 0 0 0 0 0 0 0 0 0 0 0 0.25 0"/>
<feBlend mode="normal" in2="BackgroundImageFix" result="effect1_dropShadow_5846_13527"/>
<feBlend mode="normal" in="SourceGraphic" in2="effect1_dropShadow_5846_13527" result="shape"/>
</filter>
</defs>
</svg>
