<svg width="107" height="109" viewBox="0 0 107 109" fill="none" xmlns="http://www.w3.org/2000/svg">
<g filter="url(#filter0_d_5834_13408)">
<rect x="8" y="6" width="91" height="93" rx="12" fill="#151B23"/>
<rect x="9" y="7" width="89" height="91" rx="11" stroke="#1F2937" stroke-width="2"/>
<g clip-path="url(#clip0_5834_13408)">
<g clip-path="url(#clip1_5834_13408)">
<path d="M42.1447 49.8916H53.4703L56.3713 54.9975H56.2896H33.3945L41.4622 41.0174L44.8431 35.1632L47.7458 40.1929L42.1447 49.8916ZM46.3686 32.5157L49.1556 27.6865L64.9284 54.9974H59.3427L46.3686 32.5157ZM50.7068 25H56.2852L73.604 54.9975H68.0186L50.7068 25Z" fill="url(#paint0_linear_5834_13408)"/>
</g>
</g>
<path d="M29.3118 82H27.343L30.9276 71.8182H33.2045L36.794 82H34.8253L32.1058 73.9062H32.0263L29.3118 82ZM29.3764 78.0078H34.7457V79.4893H29.3764V78.0078ZM38.0556 82V74.3636H39.7757V75.6612H39.8652C40.0243 75.2237 40.2878 74.8823 40.6557 74.6371C41.0236 74.3885 41.4628 74.2642 41.9732 74.2642C42.4902 74.2642 42.9261 74.3902 43.2807 74.642C43.6387 74.8906 43.8906 75.2304 44.0364 75.6612H44.1159C44.285 75.237 44.57 74.8989 44.9711 74.647C45.3754 74.3918 45.8543 74.2642 46.4078 74.2642C47.1105 74.2642 47.6839 74.4863 48.128 74.9304C48.5721 75.3745 48.7942 76.0225 48.7942 76.8743V82H46.9895V77.1527C46.9895 76.6787 46.8636 76.3324 46.6117 76.1136C46.3598 75.8916 46.0516 75.7805 45.687 75.7805C45.2528 75.7805 44.9131 75.9164 44.6678 76.1882C44.4258 76.4567 44.3049 76.8063 44.3049 77.2372V82H42.54V77.0781C42.54 76.6837 42.4206 76.3688 42.182 76.1335C41.9467 75.8982 41.6384 75.7805 41.2573 75.7805C40.9988 75.7805 40.7634 75.8468 40.5513 75.9794C40.3392 76.1087 40.1702 76.2926 40.0442 76.5312C39.9183 76.7666 39.8553 77.0417 39.8553 77.3565V82H38.0556ZM50.62 84.8636V74.3636H52.3899V75.6264H52.4943C52.5871 75.4408 52.718 75.2436 52.8871 75.0348C53.0561 74.8227 53.2848 74.642 53.5732 74.4929C53.8615 74.3404 54.2294 74.2642 54.6768 74.2642C55.2668 74.2642 55.7988 74.415 56.2727 74.7166C56.75 75.0149 57.1278 75.4574 57.4062 76.044C57.688 76.6274 57.8288 77.3433 57.8288 78.1918C57.8288 79.0303 57.6913 79.7429 57.4162 80.3295C57.1411 80.9162 56.7666 81.3636 56.2926 81.6719C55.8187 81.9801 55.2817 82.1342 54.6818 82.1342C54.2443 82.1342 53.8814 82.0613 53.593 81.9155C53.3047 81.7696 53.0727 81.594 52.897 81.3885C52.7247 81.1797 52.5904 80.9825 52.4943 80.7969H52.4197V84.8636H50.62ZM52.3849 78.1818C52.3849 78.6757 52.4545 79.1082 52.5938 79.4794C52.7363 79.8506 52.9401 80.1406 53.2053 80.3494C53.4737 80.5549 53.7985 80.6577 54.1797 80.6577C54.5774 80.6577 54.9105 80.5516 55.179 80.3395C55.4474 80.1241 55.6496 79.8307 55.7855 79.4595C55.9247 79.085 55.9943 78.6591 55.9943 78.1818C55.9943 77.7079 55.9264 77.2869 55.7905 76.919C55.6546 76.5511 55.4524 76.2628 55.1839 76.054C54.9155 75.8452 54.5807 75.7408 54.1797 75.7408C53.7952 75.7408 53.4688 75.8419 53.2003 76.044C52.9318 76.2462 52.728 76.5296 52.5888 76.8942C52.4529 77.2588 52.3849 77.688 52.3849 78.1818ZM61.1697 71.8182V82H59.37V71.8182H61.1697ZM63.0204 82V74.3636H64.8201V82H63.0204ZM63.9252 73.2798C63.6402 73.2798 63.3949 73.1854 63.1895 72.9964C62.984 72.8042 62.8812 72.5739 62.8812 72.3054C62.8812 72.0336 62.984 71.8033 63.1895 71.6143C63.3949 71.4221 63.6402 71.326 63.9252 71.326C64.2136 71.326 64.4589 71.4221 64.661 71.6143C64.8665 71.8033 64.9693 72.0336 64.9693 72.3054C64.9693 72.5739 64.8665 72.8042 64.661 72.9964C64.4589 73.1854 64.2136 73.2798 63.9252 73.2798ZM70.5387 74.3636V75.7557H66.0245V74.3636H70.5387ZM67.1531 82V73.6428C67.1531 73.129 67.2591 72.7015 67.4712 72.3601C67.6867 72.0187 67.975 71.7635 68.3363 71.5945C68.6976 71.4254 69.0986 71.3409 69.5394 71.3409C69.851 71.3409 70.1277 71.3658 70.3697 71.4155C70.6116 71.4652 70.7906 71.5099 70.9066 71.5497L70.5487 72.9418C70.4724 72.9186 70.3763 72.8954 70.2603 72.8722C70.1443 72.8456 70.015 72.8324 69.8725 72.8324C69.5378 72.8324 69.3008 72.9136 69.1616 73.076C69.0257 73.2351 68.9577 73.4638 68.9577 73.7621V82H67.1531ZM73.0668 84.8636C72.8215 84.8636 72.5945 84.8438 72.3857 84.804C72.1802 84.7675 72.0161 84.7244 71.8935 84.6747L72.3111 83.2727C72.5729 83.349 72.8066 83.3854 73.0121 83.3821C73.2176 83.3788 73.3982 83.3142 73.554 83.1882C73.7131 83.0656 73.8473 82.8601 73.9567 82.5717L74.1108 82.1591L71.3416 74.3636H73.2507L75.0107 80.1307H75.0902L76.8551 74.3636H78.7692L75.7116 82.9247C75.5691 83.3291 75.3802 83.6754 75.1449 83.9638C74.9096 84.2554 74.6212 84.4775 74.2798 84.63C73.9418 84.7857 73.5374 84.8636 73.0668 84.8636Z" fill="white"/>
</g>
<defs>
<filter id="filter0_d_5834_13408" x="0" y="0" width="107" height="109" filterUnits="userSpaceOnUse" color-interpolation-filters="sRGB">
<feFlood flood-opacity="0" result="BackgroundImageFix"/>
<feColorMatrix in="SourceAlpha" type="matrix" values="0 0 0 0 0 0 0 0 0 0 0 0 0 0 0 0 0 0 127 0" result="hardAlpha"/>
<feOffset dy="2"/>
<feGaussianBlur stdDeviation="4"/>
<feColorMatrix type="matrix" values="0 0 0 0 0 0 0 0 0 0 0 0 0 0 0 0 0 0 0.25 0"/>
<feBlend mode="normal" in2="BackgroundImageFix" result="effect1_dropShadow_5834_13408"/>
<feBlend mode="normal" in="SourceGraphic" in2="effect1_dropShadow_5834_13408" result="shape"/>
</filter>
<linearGradient id="paint0_linear_5834_13408" x1="4054.34" y1="690.1" x2="670.934" y2="3214.23" gradientUnits="userSpaceOnUse">
<stop stop-color="#FF9900"/>
<stop offset="1" stop-color="#FFC300"/>
</linearGradient>
<clipPath id="clip0_5834_13408">
<rect width="40" height="40" fill="white" transform="translate(33.5 20)"/>
</clipPath>
<clipPath id="clip1_5834_13408">
<rect width="40.2094" height="30" fill="white" transform="translate(33.3945 25)"/>
</clipPath>
</defs>
</svg>
