<svg width="107" height="109" viewBox="0 0 107 109" fill="none" xmlns="http://www.w3.org/2000/svg">
<g filter="url(#filter0_d_5846_13481)">
<rect x="8" y="6" width="91" height="93" rx="12" fill="#151B23"/>
<rect x="9" y="7" width="89" height="91" rx="11" stroke="#1F2937" stroke-width="2"/>
<path d="M53.5 22.5C43.8345 22.5 36 30.3356 36 40C36 49.6644 43.8345 57.5 53.5 57.5C63.1655 57.5 71 49.6655 71 40C71.0012 38.3507 70.7692 36.7095 70.3109 35.1252C70.2256 34.9158 70.0624 34.7476 69.8558 34.6559C69.6491 34.5641 69.415 34.5559 69.2024 34.633C68.9899 34.7101 68.8154 34.8664 68.7156 35.0693C68.6158 35.2722 68.5984 35.5058 68.667 35.7213H68.6637C69.0498 37.0961 69.25 38.5322 69.25 40C69.2562 42.0693 68.8517 44.1192 68.06 46.0311C67.2682 47.9429 66.105 49.6786 64.6377 51.1377C63.1786 52.605 61.4429 53.7682 59.531 54.56C57.6192 55.3517 55.5693 55.7562 53.5 55.75C51.4307 55.7562 49.3808 55.3517 47.469 54.56C45.5571 53.7682 43.8214 52.605 42.3623 51.1377C40.895 49.6786 39.7318 47.9429 38.94 46.0311C38.1483 44.1192 37.7438 42.0693 37.75 40C37.7438 37.9307 38.1483 35.8808 38.94 33.969C39.7318 32.0571 40.895 30.3214 42.3623 28.8624C43.8214 27.395 45.5571 26.2318 47.469 25.44C49.3808 24.6483 51.4307 24.2438 53.5 24.25C57.2148 24.2407 60.8117 25.5539 63.6467 27.9545C63.4675 28.4094 63.4497 28.9118 63.5961 29.3782C63.7426 29.8446 64.0445 30.2467 64.4515 30.5174C64.8585 30.7882 65.346 30.9112 65.8328 30.866C66.3195 30.8208 66.7761 30.6101 67.1263 30.269C67.4764 29.928 67.6991 29.4772 67.7572 28.9918C67.8153 28.5064 67.7052 28.0158 67.4453 27.6018C67.1854 27.1877 66.7914 26.8753 66.3291 26.7166C65.8667 26.5579 65.3639 26.5624 64.9045 26.7295C61.734 23.9963 57.686 22.495 53.5 22.5ZM51.4 31.075L45.275 46.9738H49.1108L50.1127 44.2788H55.9008L54.8519 41.3005H51.0412L53.5208 34.4602L57.9308 46.9727H61.7677L55.6437 31.075H51.4Z" fill="#F3F4F6"/>
<path d="M34.2034 82H32.2346L35.8192 71.8182H38.0961L41.6856 82H39.7169L36.9974 73.9062H36.9179L34.2034 82ZM34.268 78.0078H39.6373V79.4893H34.268V78.0078ZM42.9472 84.8636V74.3636H44.7171V75.6264H44.8215C44.9143 75.4408 45.0452 75.2436 45.2142 75.0348C45.3833 74.8227 45.6119 74.642 45.9003 74.4929C46.1887 74.3404 46.5566 74.2642 47.004 74.2642C47.594 74.2642 48.1259 74.415 48.5999 74.7166C49.0771 75.0149 49.455 75.4574 49.7334 76.044C50.0151 76.6274 50.156 77.3433 50.156 78.1918C50.156 79.0303 50.0184 79.7429 49.7433 80.3295C49.4682 80.9162 49.0937 81.3636 48.6198 81.6719C48.1458 81.9801 47.6089 82.1342 47.009 82.1342C46.5715 82.1342 46.2085 82.0613 45.9202 81.9155C45.6318 81.7696 45.3998 81.594 45.2242 81.3885C45.0518 81.1797 44.9176 80.9825 44.8215 80.7969H44.7469V84.8636H42.9472ZM44.7121 78.1818C44.7121 78.6757 44.7817 79.1082 44.9209 79.4794C45.0634 79.8506 45.2673 80.1406 45.5324 80.3494C45.8009 80.5549 46.1257 80.6577 46.5068 80.6577C46.9046 80.6577 47.2377 80.5516 47.5061 80.3395C47.7746 80.1241 47.9768 79.8307 48.1127 79.4595C48.2519 79.085 48.3215 78.6591 48.3215 78.1818C48.3215 77.7079 48.2535 77.2869 48.1176 76.919C47.9817 76.5511 47.7796 76.2628 47.5111 76.054C47.2426 75.8452 46.9079 75.7408 46.5068 75.7408C46.1224 75.7408 45.7959 75.8419 45.5274 76.044C45.259 76.2462 45.0551 76.5296 44.9159 76.8942C44.78 77.2588 44.7121 77.688 44.7121 78.1818ZM55.0281 82.1491C54.2824 82.1491 53.6361 81.9851 53.0892 81.657C52.5423 81.3288 52.1181 80.8698 51.8165 80.2798C51.5182 79.6899 51.3691 79.0005 51.3691 78.2116C51.3691 77.4228 51.5182 76.7318 51.8165 76.1385C52.1181 75.5452 52.5423 75.0845 53.0892 74.7564C53.6361 74.4283 54.2824 74.2642 55.0281 74.2642C55.7739 74.2642 56.4202 74.4283 56.9671 74.7564C57.5139 75.0845 57.9365 75.5452 58.2348 76.1385C58.5364 76.7318 58.6872 77.4228 58.6872 78.2116C58.6872 79.0005 58.5364 79.6899 58.2348 80.2798C57.9365 80.8698 57.5139 81.3288 56.9671 81.657C56.4202 81.9851 55.7739 82.1491 55.0281 82.1491ZM55.0381 80.7074C55.4424 80.7074 55.7805 80.5964 56.0523 80.3743C56.3241 80.1489 56.5262 79.8473 56.6588 79.4695C56.7947 79.0916 56.8627 78.6707 56.8627 78.2067C56.8627 77.7393 56.7947 77.3168 56.6588 76.9389C56.5262 76.5578 56.3241 76.2545 56.0523 76.0291C55.7805 75.8037 55.4424 75.6911 55.0381 75.6911C54.6238 75.6911 54.2791 75.8037 54.004 76.0291C53.7322 76.2545 53.5284 76.5578 53.3925 76.9389C53.2599 77.3168 53.1936 77.7393 53.1936 78.2067C53.1936 78.6707 53.2599 79.0916 53.3925 79.4695C53.5284 79.8473 53.7322 80.1489 54.004 80.3743C54.2791 80.5964 54.6238 80.7074 55.0381 80.7074ZM62.0145 71.8182V82H60.2148V71.8182H62.0145ZM65.6649 71.8182V82H63.8651V71.8182H65.6649ZM70.8465 82.1491C70.1008 82.1491 69.4545 81.9851 68.9076 81.657C68.3607 81.3288 67.9365 80.8698 67.6349 80.2798C67.3366 79.6899 67.1874 79.0005 67.1874 78.2116C67.1874 77.4228 67.3366 76.7318 67.6349 76.1385C67.9365 75.5452 68.3607 75.0845 68.9076 74.7564C69.4545 74.4283 70.1008 74.2642 70.8465 74.2642C71.5922 74.2642 72.2385 74.4283 72.7854 74.7564C73.3323 75.0845 73.7549 75.5452 74.0532 76.1385C74.3548 76.7318 74.5056 77.4228 74.5056 78.2116C74.5056 79.0005 74.3548 79.6899 74.0532 80.2798C73.7549 80.8698 73.3323 81.3288 72.7854 81.657C72.2385 81.9851 71.5922 82.1491 70.8465 82.1491ZM70.8564 80.7074C71.2608 80.7074 71.5989 80.5964 71.8706 80.3743C72.1424 80.1489 72.3446 79.8473 72.4772 79.4695C72.6131 79.0916 72.681 78.6707 72.681 78.2067C72.681 77.7393 72.6131 77.3168 72.4772 76.9389C72.3446 76.5578 72.1424 76.2545 71.8706 76.0291C71.5989 75.8037 71.2608 75.6911 70.8564 75.6911C70.4421 75.6911 70.0974 75.8037 69.8224 76.0291C69.5506 76.2545 69.3467 76.5578 69.2108 76.9389C69.0783 77.3168 69.012 77.7393 69.012 78.2067C69.012 78.6707 69.0783 79.0916 69.2108 79.4695C69.3467 79.8473 69.5506 80.1489 69.8224 80.3743C70.0974 80.5964 70.4421 80.7074 70.8564 80.7074Z" fill="white"/>
</g>
<defs>
<filter id="filter0_d_5846_13481" x="0" y="0" width="107" height="109" filterUnits="userSpaceOnUse" color-interpolation-filters="sRGB">
<feFlood flood-opacity="0" result="BackgroundImageFix"/>
<feColorMatrix in="SourceAlpha" type="matrix" values="0 0 0 0 0 0 0 0 0 0 0 0 0 0 0 0 0 0 127 0" result="hardAlpha"/>
<feOffset dy="2"/>
<feGaussianBlur stdDeviation="4"/>
<feColorMatrix type="matrix" values="0 0 0 0 0 0 0 0 0 0 0 0 0 0 0 0 0 0 0.25 0"/>
<feBlend mode="normal" in2="BackgroundImageFix" result="effect1_dropShadow_5846_13481"/>
<feBlend mode="normal" in="SourceGraphic" in2="effect1_dropShadow_5846_13481" result="shape"/>
</filter>
</defs>
</svg>
