<svg width="107" height="109" viewBox="0 0 107 109" fill="none" xmlns="http://www.w3.org/2000/svg">
<g filter="url(#filter0_d_5828_13441)">
<rect x="8" y="6" width="91" height="93" rx="12" fill="#151B23"/>
<rect x="9" y="7" width="89" height="91" rx="11" stroke="#1F2937" stroke-width="2"/>
<path d="M48.7741 52.3114C47.193 50.866 46.7314 47.8291 47.3901 45.6289C48.5324 47.0161 50.1151 47.4555 51.7544 47.7036C54.2852 48.0863 56.7707 47.9432 59.1216 46.7864C59.3906 46.654 59.6391 46.4779 59.933 46.2995C60.1536 46.9395 60.211 47.5856 60.134 48.2432C59.9466 49.8448 59.1496 51.0819 57.8819 52.0197C57.375 52.3948 56.8386 52.7301 56.3151 53.0838C54.7067 54.1709 54.2716 55.4455 54.876 57.2995C54.8903 57.345 54.9032 57.3902 54.9356 57.5004C54.1145 57.1327 53.5146 56.5976 53.0576 55.894C52.5748 55.1516 52.3452 54.3301 52.3331 53.4413C52.327 53.0088 52.327 52.5724 52.2689 52.146C52.1268 51.1064 51.6388 50.6409 50.7194 50.6142C49.7759 50.5866 49.0295 51.1699 48.8315 52.0886C48.8164 52.159 48.7945 52.2287 48.7726 52.3106L48.7741 52.3114Z" fill="#F3F4F6"/>
<path d="M48.7741 52.3114C47.193 50.866 46.7314 47.8291 47.3901 45.6289C48.5324 47.0161 50.1151 47.4555 51.7544 47.7036C54.2852 48.0863 56.7707 47.9432 59.1216 46.7864C59.3906 46.654 59.6391 46.4779 59.933 46.2995C60.1536 46.9395 60.211 47.5856 60.134 48.2432C59.9466 49.8448 59.1496 51.0819 57.8819 52.0197C57.375 52.3948 56.8386 52.7301 56.3151 53.0838C54.7067 54.1709 54.2716 55.4455 54.876 57.2995C54.8903 57.345 54.9032 57.3902 54.9356 57.5004C54.1145 57.1327 53.5146 56.5976 53.0576 55.894C52.5748 55.1516 52.3452 54.3301 52.3331 53.4413C52.327 53.0088 52.327 52.5724 52.2689 52.146C52.1268 51.1064 51.6388 50.6409 50.7194 50.6142C49.7759 50.5866 49.0295 51.1699 48.8315 52.0886C48.8164 52.159 48.7945 52.2287 48.7726 52.3106L48.7741 52.3114Z" fill="url(#paint0_linear_5828_13441)"/>
<path d="M39.75 45.262C39.75 45.262 44.4321 42.9811 49.1273 42.9811L52.6673 32.0254C52.7999 31.4956 53.1868 31.1355 53.6237 31.1355C54.0606 31.1355 54.4475 31.4956 54.5801 32.0254L58.1201 42.9811C63.6809 42.9811 67.4974 45.262 67.4974 45.262C67.4974 45.262 59.5445 23.5966 59.5289 23.5531C59.3007 22.9125 58.9153 22.5 58.3958 22.5H48.8524C48.3329 22.5 47.9631 22.9125 47.7193 23.5531C47.7021 23.5957 39.75 45.262 39.75 45.262Z" fill="#F3F4F6"/>
<path d="M37.3118 82H35.343L38.9276 71.8182H41.2045L44.794 82H42.8253L40.1058 73.9062H40.0263L37.3118 82ZM37.3764 78.0078H42.7457V79.4893H37.3764V78.0078ZM51.968 76.3821L50.3274 76.5611C50.281 76.3954 50.1998 76.2396 50.0838 76.0938C49.9711 75.9479 49.8187 75.8303 49.6264 75.7408C49.4342 75.6513 49.1989 75.6065 48.9205 75.6065C48.5459 75.6065 48.2311 75.6877 47.9759 75.8501C47.724 76.0125 47.5997 76.223 47.603 76.4815C47.5997 76.7036 47.6809 76.8842 47.8466 77.0234C48.0156 77.1626 48.294 77.277 48.6818 77.3665L49.9844 77.6449C50.7069 77.8007 51.2438 78.0476 51.5952 78.3857C51.9498 78.7237 52.1288 79.1662 52.1321 79.7131C52.1288 80.1937 51.9879 80.6179 51.7095 80.9858C51.4344 81.3504 51.0516 81.6354 50.5611 81.8409C50.0705 82.0464 49.5071 82.1491 48.8707 82.1491C47.9361 82.1491 47.1837 81.9536 46.6136 81.5625C46.0436 81.1681 45.7038 80.6196 45.5945 79.9169L47.3494 79.7479C47.429 80.0926 47.598 80.3527 47.8565 80.5284C48.1151 80.7041 48.4515 80.7919 48.8658 80.7919C49.2933 80.7919 49.6364 80.7041 49.8949 80.5284C50.1567 80.3527 50.2876 80.1357 50.2876 79.8771C50.2876 79.6584 50.2031 79.4777 50.0341 79.3352C49.8684 79.1927 49.6098 79.0833 49.2585 79.0071L47.956 78.7337C47.2235 78.5812 46.6816 78.3243 46.3303 77.9631C45.9789 77.5985 45.8049 77.1378 45.8082 76.581C45.8049 76.1103 45.9325 75.7027 46.1911 75.358C46.4529 75.0099 46.8158 74.7415 47.2798 74.5526C47.7472 74.3603 48.2857 74.2642 48.8956 74.2642C49.7905 74.2642 50.4948 74.4548 51.0085 74.8359C51.5256 75.2171 51.8454 75.7325 51.968 76.3821ZM57.4293 74.3636V75.7557H53.0394V74.3636H57.4293ZM54.1232 72.5341H55.9229V79.7031C55.9229 79.9451 55.9594 80.1307 56.0323 80.2599C56.1085 80.3859 56.208 80.4721 56.3306 80.5185C56.4532 80.5649 56.5891 80.5881 56.7383 80.5881C56.851 80.5881 56.9537 80.5798 57.0465 80.5632C57.1426 80.5466 57.2156 80.5317 57.2653 80.5185L57.5685 81.9254C57.4724 81.9586 57.3349 81.995 57.1559 82.0348C56.9802 82.0746 56.7648 82.0978 56.5096 82.1044C56.0588 82.1177 55.6528 82.0497 55.2915 81.9006C54.9303 81.7481 54.6436 81.5128 54.4315 81.1946C54.2227 80.8764 54.1199 80.4787 54.1232 80.0014V72.5341ZM58.9345 82V74.3636H60.6795V75.6364H60.7591C60.8983 75.1955 61.1369 74.8558 61.475 74.6172C61.8163 74.3752 62.2058 74.2543 62.6433 74.2543C62.7427 74.2543 62.8538 74.2592 62.9764 74.2692C63.1023 74.2758 63.2067 74.2874 63.2896 74.304V75.9595C63.2134 75.933 63.0924 75.9098 62.9267 75.8899C62.7643 75.8667 62.6068 75.8551 62.4544 75.8551C62.1262 75.8551 61.8313 75.9264 61.5694 76.0689C61.3109 76.2081 61.1071 76.402 60.9579 76.6506C60.8088 76.8991 60.7342 77.1858 60.7342 77.5107V82H58.9345ZM67.5018 82.1491C66.756 82.1491 66.1097 81.9851 65.5629 81.657C65.016 81.3288 64.5917 80.8698 64.2901 80.2798C63.9918 79.6899 63.8427 79.0005 63.8427 78.2116C63.8427 77.4228 63.9918 76.7318 64.2901 76.1385C64.5917 75.5452 65.016 75.0845 65.5629 74.7564C66.1097 74.4283 66.756 74.2642 67.5018 74.2642C68.2475 74.2642 68.8938 74.4283 69.4407 74.7564C69.9876 75.0845 70.4102 75.5452 70.7085 76.1385C71.0101 76.7318 71.1609 77.4228 71.1609 78.2116C71.1609 79.0005 71.0101 79.6899 70.7085 80.2798C70.4102 80.8698 69.9876 81.3288 69.4407 81.657C68.8938 81.9851 68.2475 82.1491 67.5018 82.1491ZM67.5117 80.7074C67.9161 80.7074 68.2541 80.5964 68.5259 80.3743C68.7977 80.1489 68.9999 79.8473 69.1325 79.4695C69.2683 79.0916 69.3363 78.6707 69.3363 78.2067C69.3363 77.7393 69.2683 77.3168 69.1325 76.9389C68.9999 76.5578 68.7977 76.2545 68.5259 76.0291C68.2541 75.8037 67.9161 75.6911 67.5117 75.6911C67.0974 75.6911 66.7527 75.8037 66.4776 76.0291C66.2058 76.2545 66.002 76.5578 65.8661 76.9389C65.7335 77.3168 65.6673 77.7393 65.6673 78.2067C65.6673 78.6707 65.7335 79.0916 65.8661 79.4695C66.002 79.8473 66.2058 80.1489 66.4776 80.3743C66.7527 80.5964 67.0974 80.7074 67.5117 80.7074Z" fill="white"/>
</g>
<defs>
<filter id="filter0_d_5828_13441" x="0" y="0" width="107" height="109" filterUnits="userSpaceOnUse" color-interpolation-filters="sRGB">
<feFlood flood-opacity="0" result="BackgroundImageFix"/>
<feColorMatrix in="SourceAlpha" type="matrix" values="0 0 0 0 0 0 0 0 0 0 0 0 0 0 0 0 0 0 127 0" result="hardAlpha"/>
<feOffset dy="2"/>
<feGaussianBlur stdDeviation="4"/>
<feColorMatrix type="matrix" values="0 0 0 0 0 0 0 0 0 0 0 0 0 0 0 0 0 0 0.25 0"/>
<feBlend mode="normal" in2="BackgroundImageFix" result="effect1_dropShadow_5828_13441"/>
<feBlend mode="normal" in="SourceGraphic" in2="effect1_dropShadow_5828_13441" result="shape"/>
</filter>
<linearGradient id="paint0_linear_5828_13441" x1="47.0996" y1="57.5004" x2="62.3671" y2="50.2867" gradientUnits="userSpaceOnUse">
<stop stop-color="#D83333"/>
<stop offset="1" stop-color="#F041FF"/>
</linearGradient>
</defs>
</svg>
