<svg width="107" height="109" viewBox="0 0 107 109" fill="none" xmlns="http://www.w3.org/2000/svg">
<g filter="url(#filter0_d_5829_9541)">
<rect x="8" y="6" width="91" height="93" rx="12" fill="#151B23"/>
<rect x="9" y="7" width="89" height="91" rx="11" stroke="#1F2937" stroke-width="2"/>
<g clip-path="url(#clip0_5829_9541)">
<g clip-path="url(#clip1_5829_9541)">
<path d="M43.228 55.9581H48.0566L49.5477 50.8455H57.0035L58.4947 55.9581H63.6072L53.5241 25.9219L43.228 55.9581ZM53.5241 38.9873L56.0804 47.2241H50.9679L53.5241 38.9873ZM73.4773 50.0644L72.9802 48.0052L62.4711 46.9401L63.8202 50.5615L73.4773 50.0644ZM44.5062 47.2241L33.9971 48.2893L33.5 50.3485L43.228 50.8455L44.5062 47.2241Z" fill="#DD3835"/>
</g>
</g>
<path d="M18.9815 81H17.294L20.3665 72.2727H22.3182L25.3949 81H23.7074L21.3764 74.0625H21.3082L18.9815 81ZM19.0369 77.5781H23.6392V78.848H19.0369V77.5781ZM30.6481 78.2472V74.4545H32.1907V81H30.695V79.8366H30.6268C30.479 80.2031 30.2362 80.5028 29.8981 80.7358C29.5629 80.9687 29.1495 81.0852 28.658 81.0852C28.229 81.0852 27.8498 80.9901 27.5202 80.7997C27.1935 80.6065 26.9379 80.3267 26.7532 79.9602C26.5685 79.5909 26.4762 79.1449 26.4762 78.6222V74.4545H28.0188V78.3835C28.0188 78.7983 28.1325 79.1278 28.3597 79.3722C28.587 79.6165 28.8853 79.7386 29.2546 79.7386C29.4819 79.7386 29.7021 79.6832 29.9151 79.5724C30.1282 79.4616 30.3029 79.2969 30.4393 79.0781C30.5785 78.8565 30.6481 78.5795 30.6481 78.2472ZM37.0455 74.4545V75.6477H33.2827V74.4545H37.0455ZM34.2116 72.8864H35.7543V79.0312C35.7543 79.2386 35.7855 79.3977 35.848 79.5085C35.9134 79.6165 35.9986 79.6903 36.1037 79.7301C36.2088 79.7699 36.3253 79.7898 36.4531 79.7898C36.5497 79.7898 36.6378 79.7827 36.7173 79.7685C36.7997 79.7543 36.8622 79.7415 36.9048 79.7301L37.1648 80.9361C37.0824 80.9645 36.9645 80.9957 36.8111 81.0298C36.6605 81.0639 36.4759 81.0838 36.2571 81.0895C35.8707 81.1009 35.5227 81.0426 35.2131 80.9148C34.9034 80.7841 34.6577 80.5824 34.4759 80.3097C34.2969 80.0369 34.2088 79.696 34.2116 79.2869V72.8864ZM41.1204 81.1278C40.4812 81.1278 39.9272 80.9872 39.4585 80.706C38.9897 80.4247 38.6261 80.0312 38.3675 79.5256C38.1119 79.0199 37.984 78.429 37.984 77.7528C37.984 77.0767 38.1119 76.4844 38.3675 75.9759C38.6261 75.4673 38.9897 75.0724 39.4585 74.7912C39.9272 74.5099 40.4812 74.3693 41.1204 74.3693C41.7596 74.3693 42.3136 74.5099 42.7823 74.7912C43.2511 75.0724 43.6133 75.4673 43.869 75.9759C44.1275 76.4844 44.2567 77.0767 44.2567 77.7528C44.2567 78.429 44.1275 79.0199 43.869 79.5256C43.6133 80.0312 43.2511 80.4247 42.7823 80.706C42.3136 80.9872 41.7596 81.1278 41.1204 81.1278ZM41.1289 79.892C41.4755 79.892 41.7653 79.7969 41.9982 79.6065C42.2312 79.4134 42.4045 79.1548 42.5181 78.831C42.6346 78.5071 42.6928 78.1463 42.6928 77.7486C42.6928 77.348 42.6346 76.9858 42.5181 76.6619C42.4045 76.3352 42.2312 76.0753 41.9982 75.8821C41.7653 75.6889 41.4755 75.5923 41.1289 75.5923C40.7738 75.5923 40.4783 75.6889 40.2425 75.8821C40.0096 76.0753 39.8349 76.3352 39.7184 76.6619C39.6048 76.9858 39.5479 77.348 39.5479 77.7486C39.5479 78.1463 39.6048 78.5071 39.7184 78.831C39.8349 79.1548 40.0096 79.4134 40.2425 79.6065C40.4783 79.7969 40.7738 79.892 41.1289 79.892ZM45.5661 83.4545V74.4545H47.0831V75.5369H47.1726C47.2521 75.3778 47.3643 75.2088 47.5092 75.0298C47.6541 74.848 47.8501 74.6932 48.0973 74.5653C48.3445 74.4347 48.6598 74.3693 49.0433 74.3693C49.549 74.3693 50.005 74.4986 50.4112 74.7571C50.8203 75.0128 51.1442 75.392 51.3828 75.8949C51.6243 76.3949 51.745 77.0085 51.745 77.7358C51.745 78.4545 51.6271 79.0653 51.3913 79.5682C51.1555 80.071 50.8345 80.4545 50.4283 80.7188C50.022 80.983 49.5618 81.1151 49.0476 81.1151C48.6726 81.1151 48.3615 81.0526 48.1143 80.9276C47.8672 80.8026 47.6683 80.652 47.5178 80.4759C47.37 80.2969 47.255 80.1278 47.1726 79.9688H47.1087V83.4545H45.5661ZM47.0788 77.7273C47.0788 78.1506 47.1385 78.5213 47.2578 78.8395C47.38 79.1577 47.5547 79.4062 47.782 79.5852C48.0121 79.7614 48.2905 79.8494 48.6172 79.8494C48.9581 79.8494 49.2436 79.7585 49.4737 79.5767C49.7038 79.392 49.8771 79.1406 49.9936 78.8224C50.1129 78.5014 50.1726 78.1364 50.1726 77.7273C50.1726 77.321 50.1143 76.9602 49.9979 76.6449C49.8814 76.3295 49.7081 76.0824 49.478 75.9034C49.2479 75.7244 48.9609 75.6349 48.6172 75.6349C48.2876 75.6349 48.0078 75.7216 47.7777 75.8949C47.5476 76.0682 47.3729 76.3111 47.2536 76.6236C47.1371 76.9361 47.0788 77.304 47.0788 77.7273ZM53.0661 81V74.4545H54.5618V75.5455H54.63C54.7493 75.1676 54.9538 74.8764 55.2436 74.6719C55.5362 74.4645 55.87 74.3608 56.245 74.3608C56.3303 74.3608 56.4254 74.3651 56.5305 74.3736C56.6385 74.3793 56.728 74.3892 56.799 74.4034V75.8224C56.7337 75.7997 56.63 75.7798 56.4879 75.7628C56.3487 75.7429 56.2138 75.733 56.0831 75.733C55.8018 75.733 55.549 75.794 55.3246 75.9162C55.103 76.0355 54.9283 76.2017 54.8004 76.4148C54.6726 76.6278 54.6087 76.8736 54.6087 77.152V81H53.0661ZM60.4521 81.1278C59.7958 81.1278 59.229 80.9915 58.7518 80.7188C58.2773 80.4432 57.9123 80.054 57.6566 79.5511C57.4009 79.0455 57.2731 78.4503 57.2731 77.7656C57.2731 77.0923 57.4009 76.5014 57.6566 75.9929C57.9151 75.4815 58.2759 75.0838 58.739 74.7997C59.2021 74.5128 59.7461 74.3693 60.3711 74.3693C60.7745 74.3693 61.1552 74.4347 61.5131 74.5653C61.8739 74.6932 62.1921 74.892 62.4677 75.1619C62.7461 75.4318 62.9648 75.7756 63.1239 76.1932C63.283 76.608 63.3626 77.1023 63.3626 77.6761V78.1491H57.9975V77.1094H61.8839C61.881 76.8139 61.8171 76.5511 61.6921 76.321C61.5671 76.0881 61.3924 75.9048 61.168 75.7713C60.9464 75.6378 60.6879 75.571 60.3924 75.571C60.0771 75.571 59.8001 75.6477 59.5614 75.8011C59.3228 75.9517 59.1367 76.1506 59.0032 76.3977C58.8725 76.642 58.8058 76.9105 58.8029 77.2031V78.1108C58.8029 78.4915 58.8725 78.8182 59.0117 79.0909C59.1509 79.3608 59.3455 79.5682 59.5955 79.7131C59.8455 79.8551 60.1381 79.9261 60.4734 79.9261C60.6978 79.9261 60.9009 79.8949 61.0827 79.8324C61.2646 79.767 61.4222 79.6719 61.5558 79.5469C61.6893 79.4219 61.7901 79.267 61.8583 79.0824L63.2987 79.2443C63.2077 79.625 63.0344 79.9574 62.7788 80.2415C62.5259 80.5227 62.2021 80.7415 61.8072 80.8977C61.4123 81.0511 60.9606 81.1278 60.4521 81.1278ZM67.983 74.4545V75.6477H64.1136V74.4545H67.983ZM65.081 81V73.8366C65.081 73.3963 65.1719 73.0298 65.3537 72.7372C65.5384 72.4446 65.7855 72.2259 66.0952 72.081C66.4048 71.9361 66.7486 71.8636 67.1264 71.8636C67.3935 71.8636 67.6307 71.8849 67.8381 71.9276C68.0455 71.9702 68.1989 72.0085 68.2983 72.0426L67.9915 73.2358C67.9261 73.2159 67.8438 73.196 67.7443 73.1761C67.6449 73.1534 67.5341 73.142 67.4119 73.142C67.125 73.142 66.9219 73.2116 66.8026 73.3509C66.6861 73.4872 66.6278 73.6832 66.6278 73.9389V81H65.081ZM69.1911 81V74.4545H70.7337V81H69.1911ZM69.9666 73.5256C69.7223 73.5256 69.5121 73.4446 69.3359 73.2827C69.1598 73.1179 69.0717 72.9205 69.0717 72.6903C69.0717 72.4574 69.1598 72.2599 69.3359 72.098C69.5121 71.9332 69.7223 71.8509 69.9666 71.8509C70.2138 71.8509 70.424 71.9332 70.5973 72.098C70.7734 72.2599 70.8615 72.4574 70.8615 72.6903C70.8615 72.9205 70.7734 73.1179 70.5973 73.2827C70.424 73.4446 70.2138 73.5256 69.9666 73.5256ZM73.5813 74.4545L74.9023 76.8707L76.2447 74.4545H77.8768L75.9038 77.7273L77.9109 81H76.2873L74.9023 78.6435L73.5302 81H71.8938L73.8881 77.7273L71.945 74.4545H73.5813ZM81.7216 81.1278C81.0653 81.1278 80.4986 80.9915 80.0213 80.7188C79.5469 80.4432 79.1818 80.054 78.9261 79.5511C78.6705 79.0455 78.5426 78.4503 78.5426 77.7656C78.5426 77.0923 78.6705 76.5014 78.9261 75.9929C79.1847 75.4815 79.5455 75.0838 80.0085 74.7997C80.4716 74.5128 81.0156 74.3693 81.6406 74.3693C82.044 74.3693 82.4247 74.4347 82.7827 74.5653C83.1435 74.6932 83.4616 74.892 83.7372 75.1619C84.0156 75.4318 84.2344 75.7756 84.3935 76.1932C84.5526 76.608 84.6321 77.1023 84.6321 77.6761V78.1491H79.267V77.1094H83.1534C83.1506 76.8139 83.0866 76.5511 82.9616 76.321C82.8366 76.0881 82.6619 75.9048 82.4375 75.7713C82.2159 75.6378 81.9574 75.571 81.6619 75.571C81.3466 75.571 81.0696 75.6477 80.831 75.8011C80.5923 75.9517 80.4063 76.1506 80.2727 76.3977C80.142 76.642 80.0753 76.9105 80.0724 77.2031V78.1108C80.0724 78.4915 80.142 78.8182 80.2812 79.0909C80.4205 79.3608 80.6151 79.5682 80.8651 79.7131C81.1151 79.8551 81.4077 79.9261 81.7429 79.9261C81.9673 79.9261 82.1705 79.8949 82.3523 79.8324C82.5341 79.767 82.6918 79.6719 82.8253 79.5469C82.9588 79.4219 83.0597 79.267 83.1278 79.0824L84.5682 79.2443C84.4773 79.625 84.304 79.9574 84.0483 80.2415C83.7955 80.5227 83.4716 80.7415 83.0767 80.8977C82.6818 81.0511 82.2301 81.1278 81.7216 81.1278ZM85.9371 81V74.4545H87.4329V75.5455H87.5011C87.6204 75.1676 87.8249 74.8764 88.1147 74.6719C88.4073 74.4645 88.7411 74.3608 89.1161 74.3608C89.2013 74.3608 89.2965 74.3651 89.4016 74.3736C89.5096 74.3793 89.5991 74.3892 89.6701 74.4034V75.8224C89.6048 75.7997 89.5011 75.7798 89.359 75.7628C89.2198 75.7429 89.0849 75.733 88.9542 75.733C88.6729 75.733 88.4201 75.794 88.1957 75.9162C87.9741 76.0355 87.7994 76.2017 87.6715 76.4148C87.5437 76.6278 87.4798 76.8736 87.4798 77.152V81H85.9371Z" fill="white"/>
</g>
<defs>
<filter id="filter0_d_5829_9541" x="0" y="0" width="107" height="109" filterUnits="userSpaceOnUse" color-interpolation-filters="sRGB">
<feFlood flood-opacity="0" result="BackgroundImageFix"/>
<feColorMatrix in="SourceAlpha" type="matrix" values="0 0 0 0 0 0 0 0 0 0 0 0 0 0 0 0 0 0 127 0" result="hardAlpha"/>
<feOffset dy="2"/>
<feGaussianBlur stdDeviation="4"/>
<feColorMatrix type="matrix" values="0 0 0 0 0 0 0 0 0 0 0 0 0 0 0 0 0 0 0.25 0"/>
<feBlend mode="normal" in2="BackgroundImageFix" result="effect1_dropShadow_5829_9541"/>
<feBlend mode="normal" in="SourceGraphic" in2="effect1_dropShadow_5829_9541" result="shape"/>
</filter>
<clipPath id="clip0_5829_9541">
<rect width="40" height="40" fill="white" transform="translate(33.5 21)"/>
</clipPath>
<clipPath id="clip1_5829_9541">
<rect width="40" height="30.1562" fill="white" transform="translate(33.5 25.9219)"/>
</clipPath>
</defs>
</svg>
