<svg width="107" height="109" viewBox="0 0 107 109" fill="none" xmlns="http://www.w3.org/2000/svg">
<g filter="url(#filter0_d_5834_13384)">
<rect x="8" y="6" width="91" height="93" rx="12" fill="#151B23"/>
<rect x="9" y="7" width="89" height="91" rx="11" stroke="#1F2937" stroke-width="2"/>
<g clip-path="url(#clip0_5834_13384)">
<path d="M66.2243 44.7202C67.6323 44.5487 70.7373 44.1796 71.2901 44.8916C71.8427 45.5906 70.6717 48.5314 70.1453 49.8367C69.9875 50.2324 70.3296 50.3906 70.6848 50.0874C73.0005 48.1356 73.6059 44.0607 73.1323 43.4674C72.6584 42.8874 68.5928 42.386 66.1189 44.1268C65.7373 44.4036 65.8032 44.773 66.2243 44.7202Z" fill="#FF9900"/>
<path d="M53.4598 51.8547C58.8678 51.8547 65.1571 50.1533 69.4862 46.9491C70.1966 46.4216 69.5782 45.6173 68.8545 45.9469C63.9993 48.004 58.723 49.0064 53.9203 49.0064C46.8019 49.0064 39.9203 47.0416 34.3417 43.7976C33.8545 43.5075 33.4862 44.0085 33.8939 44.3779C39.0521 49.0459 45.8809 51.8547 53.4598 51.8547Z" fill="#FF9900"/>
<path d="M44.8688 36.7555C44.8688 37.2435 44.9213 37.6389 45.0133 37.9291C45.1303 38.2554 45.2711 38.5727 45.4347 38.8784C45.5003 38.984 45.5267 39.0896 45.5267 39.1819C45.5267 39.3139 45.4477 39.4459 45.2765 39.5776L44.4477 40.1315C44.3293 40.2104 44.2107 40.2501 44.1056 40.2501C43.9739 40.2501 43.8424 40.184 43.7109 40.0653C43.5335 39.8744 43.3749 39.6668 43.2371 39.4456C43.09 39.1922 42.9538 38.9326 42.8291 38.6675C41.8029 39.8808 40.5133 40.4875 38.9608 40.4875C37.8555 40.4875 36.9741 40.1709 36.3293 39.5381C35.6845 38.9051 35.3555 38.0608 35.3555 37.0061C35.3555 35.8851 35.7501 34.9752 36.5528 34.2896C37.3555 33.6037 38.4213 33.2611 39.7768 33.2611C40.224 33.2611 40.6845 33.3005 41.1715 33.3664C41.6581 33.4325 42.1581 33.5379 42.6845 33.6565V32.6939C42.6845 31.6917 42.4739 30.9928 42.0659 30.584C41.6451 30.1752 40.9344 29.9776 39.9213 29.9776C39.4608 29.9776 38.9872 30.0301 38.5003 30.1488C38.0165 30.2644 37.5416 30.4142 37.0792 30.5973C36.9296 30.6644 36.7757 30.7217 36.6187 30.7688C36.5267 30.7949 36.4608 30.8083 36.408 30.8083C36.224 30.8083 36.1317 30.6765 36.1317 30.3995V29.7533C36.1317 29.5424 36.1584 29.384 36.224 29.292C36.2896 29.1995 36.408 29.1072 36.5923 29.0147C37.0528 28.7773 37.6056 28.5797 38.2501 28.4213C38.8949 28.2501 39.5795 28.1707 40.3029 28.1707C41.8688 28.1707 43.0133 28.5269 43.7501 29.2389C44.4739 29.9509 44.8424 31.0325 44.8424 32.4829V36.7555H44.8688ZM39.5267 38.76C39.9608 38.76 40.4083 38.6808 40.8819 38.5227C41.3555 38.3643 41.7765 38.0741 42.1317 37.6787C42.3424 37.428 42.5003 37.1512 42.5792 36.8347C42.6581 36.5181 42.7107 36.1357 42.7107 35.6875V35.1336C42.3117 35.0363 41.9076 34.9616 41.5003 34.9096C41.0901 34.8573 40.677 34.8307 40.2635 34.8301C39.3819 34.8301 38.7371 35.0016 38.3029 35.3576C37.8688 35.7139 37.6581 36.2149 37.6581 36.8741C37.6581 37.4939 37.816 37.9555 38.1451 38.272C38.4608 38.6016 38.9213 38.76 39.5264 38.76H39.5267ZM50.0923 40.184C49.8555 40.184 49.6976 40.1445 49.5923 40.0523C49.4872 39.9731 49.3949 39.7883 49.316 39.5379L46.224 29.3445C46.1451 29.0805 46.1056 28.9093 46.1056 28.8171C46.1056 28.6061 46.2107 28.4875 46.4213 28.4875H47.7107C47.9608 28.4875 48.132 28.5269 48.224 28.6192C48.3293 28.6984 48.408 28.8832 48.4872 29.1336L50.6979 37.8632L52.7504 29.1336C52.816 28.8696 52.8949 28.6984 53.0003 28.6192C53.1056 28.54 53.2896 28.4875 53.5267 28.4875H54.5792C54.8293 28.4875 55.0003 28.5269 55.1056 28.6192C55.2109 28.6984 55.3029 28.8832 55.3555 29.1336L57.4344 37.9688L59.7109 29.1336C59.7896 28.8696 59.8816 28.6984 59.9739 28.6192C60.0792 28.54 60.2501 28.4875 60.4872 28.4875H61.7107C61.9213 28.4875 62.0397 28.5928 62.0397 28.8171C62.0397 28.8829 62.0267 28.9488 62.0133 29.028C61.9928 29.1404 61.962 29.2508 61.9213 29.3576L58.7504 39.5515C58.6712 39.8152 58.5792 39.9864 58.4739 40.0656C58.3688 40.1448 58.1976 40.1976 57.9739 40.1976H56.8424C56.5923 40.1976 56.4211 40.1579 56.316 40.0656C56.2109 39.9733 56.1187 39.8019 56.0661 39.5381L54.0267 31.0328L52.0003 39.5251C51.9344 39.7888 51.8555 39.9603 51.7501 40.0525C51.6451 40.1448 51.4608 40.1843 51.224 40.1843L50.0923 40.184ZM67.0003 40.5403C66.316 40.5403 65.6317 40.4611 64.9739 40.3029C64.316 40.1445 63.8029 39.9731 63.4608 39.7752C63.2501 39.6565 63.1056 39.5245 63.0528 39.4061C63.0016 39.2897 62.9748 39.164 62.9739 39.0368V38.3643C62.9739 38.0875 63.0792 37.9555 63.2765 37.9555C63.3555 37.9555 63.4344 37.9688 63.5133 37.9949C63.5923 38.0216 63.7107 38.0741 63.8424 38.1269C64.3071 38.3317 64.7924 38.4864 65.2899 38.5883C65.816 38.6939 66.3293 38.7467 66.8555 38.7467C67.6845 38.7467 68.3293 38.6016 68.7765 38.3115C69.224 38.0213 69.4608 37.5995 69.4608 37.0587C69.4608 36.6896 69.3424 36.3864 69.1056 36.1357C68.8688 35.8851 68.4213 35.6611 67.7765 35.4501L65.8688 34.8565C64.9083 34.5533 64.1976 34.1051 63.7635 33.5115C63.3293 32.9312 63.1056 32.2851 63.1056 31.5995C63.1056 31.0456 63.224 30.5576 63.4608 30.1357C63.6976 29.7139 64.0133 29.3445 64.4083 29.0544C64.8029 28.7512 65.2501 28.5269 65.7765 28.3688C66.3029 28.2104 66.8555 28.1445 67.4344 28.1445C67.724 28.1445 68.0267 28.1579 68.316 28.1973C68.6187 28.2368 68.8949 28.2896 69.1712 28.3424C69.4344 28.4083 69.6845 28.4741 69.9213 28.5531C70.1581 28.6325 70.3424 28.7115 70.4739 28.7907C70.6581 28.8963 70.7899 29.0016 70.8688 29.1203C70.9477 29.2259 70.9872 29.3709 70.9872 29.5555V30.1755C70.9872 30.4525 70.8819 30.5976 70.6845 30.5976C70.5792 30.5976 70.4083 30.5448 70.1845 30.4392C69.4344 30.0965 68.5923 29.9251 67.6581 29.9251C66.9083 29.9251 66.316 30.0437 65.9083 30.2941C65.5003 30.5448 65.2899 30.9272 65.2899 31.468C65.2899 31.8371 65.4213 32.1533 65.6845 32.404C65.9477 32.6547 66.4344 32.9053 67.1317 33.1293L69.0003 33.7229C69.9477 34.0261 70.6317 34.4483 71.0397 34.9888C71.4477 35.5293 71.6451 36.1491 71.6451 36.8349C71.6451 37.4019 71.5267 37.9163 71.3029 38.3645C71.0661 38.8128 70.7504 39.2085 70.3424 39.5251C69.9344 39.8547 69.4477 40.092 68.8819 40.2635C68.2899 40.448 67.6712 40.5403 67.0003 40.5403Z" fill="#F3F4F6"/>
</g>
<path d="M41.3118 82H39.343L42.9276 71.8182H45.2045L48.794 82H46.8253L44.1058 73.9062H44.0263L41.3118 82ZM41.3764 78.0078H46.7457V79.4893H41.3764V78.0078ZM50.6745 82L48.5169 74.3636H50.3514L51.6937 79.733H51.7633L53.1355 74.3636H54.9501L56.3223 79.7031H56.3968L57.7193 74.3636H59.5588L57.3961 82H55.5218L54.09 76.8395H53.9856L52.5538 82H50.6745ZM66.8509 76.3821L65.2102 76.5611C65.1638 76.3954 65.0826 76.2396 64.9666 76.0938C64.8539 75.9479 64.7015 75.8303 64.5092 75.7408C64.317 75.6513 64.0817 75.6065 63.8033 75.6065C63.4287 75.6065 63.1139 75.6877 62.8587 75.8501C62.6068 76.0125 62.4825 76.223 62.4858 76.4815C62.4825 76.7036 62.5637 76.8842 62.7294 77.0234C62.8984 77.1626 63.1768 77.277 63.5646 77.3665L64.8672 77.6449C65.5897 77.8007 66.1267 78.0476 66.478 78.3857C66.8326 78.7237 67.0116 79.1662 67.0149 79.7131C67.0116 80.1937 66.8707 80.6179 66.5923 80.9858C66.3172 81.3504 65.9344 81.6354 65.4439 81.8409C64.9534 82.0464 64.3899 82.1491 63.7536 82.1491C62.8189 82.1491 62.0665 81.9536 61.4964 81.5625C60.9264 81.1681 60.5866 80.6196 60.4773 79.9169L62.2322 79.7479C62.3118 80.0926 62.4808 80.3527 62.7393 80.5284C62.9979 80.7041 63.3343 80.7919 63.7486 80.7919C64.1761 80.7919 64.5192 80.7041 64.7777 80.5284C65.0395 80.3527 65.1705 80.1357 65.1705 79.8771C65.1705 79.6584 65.0859 79.4777 64.9169 79.3352C64.7512 79.1927 64.4927 79.0833 64.1413 79.0071L62.8388 78.7337C62.1063 78.5812 61.5644 78.3243 61.2131 77.9631C60.8617 77.5985 60.6877 77.1378 60.6911 76.581C60.6877 76.1103 60.8153 75.7027 61.0739 75.358C61.3357 75.0099 61.6986 74.7415 62.1626 74.5526C62.63 74.3603 63.1686 74.2642 63.7784 74.2642C64.6733 74.2642 65.3776 74.4548 65.8913 74.8359C66.4084 75.2171 66.7282 75.7325 66.8509 76.3821Z" fill="white"/>
</g>
<defs>
<filter id="filter0_d_5834_13384" x="0" y="0" width="107" height="109" filterUnits="userSpaceOnUse" color-interpolation-filters="sRGB">
<feFlood flood-opacity="0" result="BackgroundImageFix"/>
<feColorMatrix in="SourceAlpha" type="matrix" values="0 0 0 0 0 0 0 0 0 0 0 0 0 0 0 0 0 0 127 0" result="hardAlpha"/>
<feOffset dy="2"/>
<feGaussianBlur stdDeviation="4"/>
<feColorMatrix type="matrix" values="0 0 0 0 0 0 0 0 0 0 0 0 0 0 0 0 0 0 0.25 0"/>
<feBlend mode="normal" in2="BackgroundImageFix" result="effect1_dropShadow_5834_13384"/>
<feBlend mode="normal" in="SourceGraphic" in2="effect1_dropShadow_5834_13384" result="shape"/>
</filter>
<clipPath id="clip0_5834_13384">
<rect width="40" height="40" fill="white" transform="translate(33.5 20)"/>
</clipPath>
</defs>
</svg>
