<svg width="107" height="109" viewBox="0 0 107 109" fill="none" xmlns="http://www.w3.org/2000/svg">
<g filter="url(#filter0_d_5829_13177)">
<rect x="8" y="6" width="91" height="93" rx="12" fill="#151B23"/>
<rect x="9" y="7" width="89" height="91" rx="11" stroke="#1F2937" stroke-width="2"/>
<path d="M49.7656 25.0631C48.6319 25.8852 47.4462 26.6331 46.2158 27.302V27.5265C46.3403 27.5034 46.4593 27.4568 46.5663 27.3893C46.7197 27.3893 46.8158 27.4354 46.8158 27.5864L47.0652 27.4492H47.19V27.5564C46.436 28.2973 45.5989 28.9485 44.6954 29.4972L44.8326 29.7105H44.7079L44.4459 29.6207C44.4459 29.698 44.3387 29.7454 44.0967 29.7579V29.8826L44.3686 30.1857C44.2446 30.1821 44.1224 30.1555 44.0081 30.1071C43.6752 30.1777 43.3614 30.3192 43.0881 30.522C42.8147 30.7247 42.5883 30.984 42.4241 31.2821L42.5613 31.4954C42.7895 31.2484 43.0565 31.0376 43.3508 30.8717L43.3807 31.2047C43.2575 31.2306 43.1394 31.2769 43.0315 31.3419L43.3209 31.7685C43.8511 31.1841 44.4602 30.6766 45.1307 30.2605C45.4637 30.3503 45.6296 30.4439 45.6296 30.5636H45.8791C47.4852 29.3361 49.2739 28.3681 51.18 27.6949V27.9256C50.847 28.4133 50.6325 28.6565 50.5127 28.674C50.5294 28.8327 50.587 28.9844 50.6799 29.1143C50.0484 31.1751 49.256 33.1832 48.31 35.12C45.6507 41.6833 42.5831 48.0736 39.125 54.2534C39.1471 54.3727 39.1938 54.4861 39.2622 54.5864C39.6788 54.5191 40.0792 54.3694 40.4371 54.1461H40.5743V54.3769H40.8051L41.062 54.1997C41.062 54.2771 41.1518 54.307 41.3115 54.2896V54.5203C41.28 54.9009 41.1426 55.2652 40.9149 55.5718C40.5407 56.1131 40.2675 56.7155 40.1079 57.3529V57.4614H40.3386C41.2416 56.4782 42.0054 55.3757 42.6087 54.1848C44.9104 53.568 47.1456 52.7254 49.2817 51.669C50.5498 51.6346 51.7772 51.2143 52.8003 50.4641V50.3394L52.2203 50.5065H52.0831V50.3818C52.9103 50.3149 53.7102 50.0543 54.418 49.621C56.627 47.9159 58.2846 46.7123 59.4221 45.9938C62.9145 43.4344 64.5572 40.9673 64.3614 38.6224C63.7266 37.5631 62.9517 36.5943 62.0576 35.7424C62.0277 35.4093 62.5566 34.9653 63.6255 34.3541L66.6576 31.6849C67.4533 30.4274 67.8754 28.9697 67.875 27.4816L67.8126 27.0276C67.6879 25.673 66.715 24.5754 64.8566 23.7385C63.0325 22.8309 60.9996 22.4254 58.9669 22.5635C55.8078 22.9866 52.7186 23.8254 49.7793 25.0581L49.7656 25.0631ZM52.4348 34.6448C52.6656 33.3975 52.9225 32.6803 53.2119 32.5131L55.7414 26.8405C55.7114 26.4912 56.2403 26.2168 57.3566 26.0335L57.7233 26.0035L57.7533 26.3366C58.8509 26.1694 59.5219 26.0759 59.7788 26.046C61.7745 25.8788 62.8247 26.2767 62.9183 27.2633H63.149L63.1029 26.6833H63.3523C63.5998 26.7814 63.8173 26.9426 63.983 27.151C64.1486 27.3593 64.2568 27.6075 64.2965 27.8707C64.2789 28.3174 64.0942 28.7412 63.7789 29.0582C63.6255 29.0582 63.5294 28.9684 63.5182 28.7251H63.2688L63.2089 29.4124C62.1886 30.9366 61.4627 31.7149 61.0012 31.7473C60.5888 32.3103 60.3293 32.6013 60.2229 32.6204C59.4291 33.3713 58.55 34.0264 57.6036 34.5724C55.7975 35.1069 54.0386 35.7899 52.345 36.6142C52.1936 36.5423 52.0248 36.5155 51.8586 36.5369V36.3199C51.871 35.7149 52.0793 35.13 52.451 34.6522L52.4348 34.6448ZM44.2027 30.3503V30.4576C44.0794 30.4834 43.9614 30.5298 43.8535 30.5948H43.7287V30.3803L44.2027 30.3503ZM51.5368 30.1807L51.5655 30.5137C51.4582 30.5137 51.3048 30.6809 51.1252 31.0014V30.7694C51.2949 30.6108 51.4113 30.4033 51.4582 30.1757L51.5368 30.1807ZM50.4142 32.5506L50.4591 33.0071H50.3344L50.2982 32.5531L50.4142 32.5506ZM50.1223 33.375C50.0924 33.7492 49.9976 33.955 49.7893 33.9687H49.6646C49.7811 33.7966 49.8491 33.5962 49.8617 33.3887L50.1223 33.375ZM49.6234 34.5624V34.6697L49.4114 35.0364H49.1794V34.9366C49.2277 34.9426 49.2768 34.9369 49.3224 34.92C49.368 34.903 49.4089 34.8753 49.4416 34.8392C49.4743 34.8032 49.4977 34.7597 49.5101 34.7126C49.5224 34.6655 49.5232 34.6162 49.5124 34.5687H49.6222L49.6234 34.5624ZM49.1058 35.6301L49.0459 36.1939H48.9212L48.8751 35.6301H49.1058ZM51.775 37.3352V37.5484L51.301 37.5946V37.3826L51.775 37.3352ZM49.5087 40.5993C51.7387 40.2352 53.9137 39.5906 55.9821 38.681L56.6993 38.6211C57.2842 38.5166 57.8847 38.5388 58.4603 38.6862C59.0359 38.8336 59.5731 39.1027 60.0358 39.4755L60.0819 39.932C59.5344 41.5173 58.9245 42.4266 58.2709 42.721L55.225 45.1432C54.0576 45.982 52.8312 46.7357 51.5555 47.3983C49.4606 48.7292 47.1948 49.7698 44.8201 50.4916H44.6829C44.8076 50.065 46.4042 46.7746 49.5137 40.5856L49.5087 40.5993ZM52.7978 39.3046V39.4119L52.3113 39.458V39.3508L52.7978 39.3046ZM45.2105 46.6636C45.0571 47.4407 44.8775 47.8386 44.7241 47.851V47.7438C44.7148 47.5368 44.7553 47.3306 44.8421 47.1424C44.9289 46.9543 45.0595 46.7897 45.223 46.6624L45.2105 46.6636ZM48.2564 50.9605C50.8118 49.9503 53.2534 48.673 55.5406 47.1501V47.3634C55.5406 47.4532 55.2063 47.7375 54.519 48.2489C53.2593 48.789 52.0631 49.4688 50.953 50.2733C48.7578 51.0341 47.6764 51.5081 47.6939 51.6915C46.3817 52.1821 45.1016 52.7458 43.8535 53.3828C43.6353 53.3775 43.4215 53.3202 43.2298 53.2156C43.2125 53.0188 43.254 52.8213 43.349 52.6481C43.4441 52.4749 43.5884 52.3339 43.7637 52.2428C44.0967 52.2078 44.4322 52.2602 44.7378 52.3949C45.344 52.1255 45.9776 51.921 46.6262 51.785V51.5543L45.909 51.6141C46.5661 51.2122 47.2666 50.8859 47.997 50.6412L48.3637 50.6101V50.7261C47.7537 50.7722 47.4033 50.9755 47.3259 51.2898C47.3253 51.3206 47.3319 51.3511 47.345 51.3789C47.3582 51.4068 47.3776 51.4312 47.4017 51.4503C47.4259 51.4694 47.4541 51.4826 47.4843 51.4889C47.5144 51.4953 47.5456 51.4946 47.5754 51.4869C47.8212 51.3468 48.0458 51.1725 48.2427 50.9693L48.2564 50.9605ZM44.5145 48.1916V48.2988C44.5259 48.3466 44.5203 48.3969 44.4987 48.4411C44.477 48.4852 44.4408 48.5205 44.396 48.5408C44.366 48.5532 44.3338 48.5595 44.3012 48.5595V48.4522C44.2965 48.4227 44.2977 48.3925 44.3047 48.3635C44.3118 48.3344 44.3246 48.3071 44.3423 48.283C44.3601 48.2589 44.3825 48.2387 44.4082 48.2234C44.4339 48.2081 44.4625 48.1982 44.4921 48.1941L44.5145 48.1916ZM50.2146 49.7457C49.6342 49.892 49.0823 50.1344 48.5819 50.4629H48.4572V50.2321C49.0235 50.1947 49.5561 49.9502 49.954 49.5461C49.9851 49.5414 50.0169 49.5432 50.0473 49.5513C50.0778 49.5595 50.1062 49.5739 50.1308 49.5935C50.1554 49.6132 50.1757 49.6378 50.1903 49.6657C50.205 49.6936 50.2137 49.7242 50.2159 49.7557L50.2146 49.7457ZM44.2875 51.4058L44.6542 51.3759V51.5006C44.5302 51.5239 44.4117 51.5704 44.305 51.6378H44.0742C44.0798 51.5812 44.1036 51.528 44.1421 51.4862C44.1806 51.4443 44.2316 51.4161 44.2875 51.4058Z" fill="#F4D44B"/>
<path d="M35.0043 82V71.8182H38.902C39.6378 71.8182 40.2493 71.9342 40.7365 72.1662C41.227 72.3949 41.5933 72.7081 41.8352 73.1058C42.0805 73.5036 42.2031 73.9543 42.2031 74.4581C42.2031 74.8724 42.1236 75.227 41.9645 75.522C41.8054 75.8137 41.5916 76.0507 41.3232 76.233C41.0547 76.4152 40.7547 76.5462 40.4233 76.6257V76.7251C40.7846 76.745 41.1309 76.8561 41.4624 77.0582C41.7971 77.2571 42.0705 77.5388 42.2827 77.9034C42.4948 78.268 42.6009 78.7088 42.6009 79.2259C42.6009 79.7528 42.4732 80.2268 42.218 80.6477C41.9628 81.0653 41.5784 81.3951 41.0646 81.6371C40.5509 81.879 39.9046 82 39.1257 82H35.0043ZM36.8487 80.4588H38.8324C39.5019 80.4588 39.9841 80.3312 40.2791 80.076C40.5774 79.8175 40.7266 79.486 40.7266 79.0817C40.7266 78.7801 40.652 78.5083 40.5028 78.2663C40.3537 78.0211 40.1416 77.8288 39.8665 77.6896C39.5914 77.5471 39.2633 77.4759 38.8821 77.4759H36.8487V80.4588ZM36.8487 76.1484H38.6733C38.9915 76.1484 39.2782 76.0904 39.5334 75.9744C39.7886 75.8551 39.9891 75.6877 40.1349 75.4723C40.2841 75.2536 40.3587 74.995 40.3587 74.6967C40.3587 74.3023 40.2195 73.9775 39.9411 73.7223C39.666 73.4671 39.2566 73.3395 38.7131 73.3395H36.8487V76.1484ZM46.3233 82.1541C45.8394 82.1541 45.4036 82.0679 45.0158 81.8956C44.6313 81.7199 44.3264 81.4614 44.101 81.12C43.879 80.7786 43.7679 80.3577 43.7679 79.8572C43.7679 79.4264 43.8475 79.0701 44.0066 78.7884C44.1657 78.5066 44.3828 78.2812 44.6578 78.1122C44.9329 77.9432 45.2428 77.8156 45.5875 77.7294C45.9355 77.6399 46.2952 77.5753 46.6664 77.5355C47.1138 77.4891 47.4767 77.4477 47.7551 77.4112C48.0336 77.3714 48.2357 77.3118 48.3617 77.2322C48.4909 77.1494 48.5556 77.0218 48.5556 76.8494V76.8196C48.5556 76.4451 48.4445 76.1551 48.2225 75.9496C48.0004 75.7441 47.6806 75.6413 47.263 75.6413C46.8221 75.6413 46.4725 75.7375 46.214 75.9297C45.9587 76.1219 45.7864 76.349 45.6969 76.6108L44.0165 76.3722C44.1491 75.9081 44.3678 75.5204 44.6728 75.2088C44.9777 74.8939 45.3506 74.6586 45.7914 74.5028C46.2322 74.3438 46.7194 74.2642 47.253 74.2642C47.6209 74.2642 47.9872 74.3073 48.3517 74.3935C48.7163 74.4796 49.0494 74.6222 49.351 74.821C49.6526 75.0166 49.8946 75.2834 50.0769 75.6214C50.2625 75.9595 50.3553 76.3821 50.3553 76.8892V82H48.6252V80.951H48.5655C48.4561 81.1631 48.302 81.362 48.1032 81.5476C47.9076 81.7299 47.6607 81.8774 47.3624 81.9901C47.0674 82.0994 46.7211 82.1541 46.3233 82.1541ZM46.7907 80.8317C47.1519 80.8317 47.4651 80.7604 47.7303 80.6179C47.9954 80.4721 48.1993 80.2798 48.3418 80.0412C48.4876 79.8026 48.5605 79.5424 48.5605 79.2607V78.3608C48.5042 78.4072 48.4081 78.4503 48.2722 78.4901C48.1396 78.5298 47.9905 78.5646 47.8248 78.5945C47.659 78.6243 47.495 78.6508 47.3326 78.674C47.1702 78.6972 47.0293 78.7171 46.91 78.7337C46.6415 78.7701 46.4012 78.8298 46.1891 78.9126C45.977 78.9955 45.8096 79.1115 45.687 79.2607C45.5643 79.4065 45.503 79.5954 45.503 79.8274C45.503 80.1589 45.624 80.4091 45.8659 80.5781C46.1079 80.7472 46.4161 80.8317 46.7907 80.8317ZM52.2445 82V71.8182H54.0442V75.6264H54.1188C54.2116 75.4408 54.3425 75.2436 54.5115 75.0348C54.6806 74.8227 54.9093 74.642 55.1976 74.4929C55.486 74.3404 55.8539 74.2642 56.3013 74.2642C56.8913 74.2642 57.4232 74.415 57.8972 74.7166C58.3745 75.0149 58.7523 75.4574 59.0307 76.044C59.3124 76.6274 59.4533 77.3433 59.4533 78.1918C59.4533 79.0303 59.3158 79.7429 59.0407 80.3295C58.7656 80.9162 58.391 81.3636 57.9171 81.6719C57.4431 81.9801 56.9062 82.1342 56.3063 82.1342C55.8688 82.1342 55.5059 82.0613 55.2175 81.9155C54.9292 81.7696 54.6971 81.594 54.5215 81.3885C54.3491 81.1797 54.2149 80.9825 54.1188 80.7969H54.0144V82H52.2445ZM54.0094 78.1818C54.0094 78.6757 54.079 79.1082 54.2182 79.4794C54.3607 79.8506 54.5646 80.1406 54.8297 80.3494C55.0982 80.5549 55.423 80.6577 55.8042 80.6577C56.2019 80.6577 56.535 80.5516 56.8034 80.3395C57.0719 80.1241 57.2741 79.8307 57.41 79.4595C57.5492 79.085 57.6188 78.6591 57.6188 78.1818C57.6188 77.7079 57.5508 77.2869 57.415 76.919C57.2791 76.5511 57.0769 76.2628 56.8084 76.054C56.54 75.8452 56.2052 75.7408 55.8042 75.7408C55.4197 75.7408 55.0932 75.8419 54.8248 76.044C54.5563 76.2462 54.3525 76.5296 54.2132 76.8942C54.0774 77.2588 54.0094 77.688 54.0094 78.1818ZM64.364 82.1491C63.5984 82.1491 62.9371 81.9901 62.3803 81.6719C61.8268 81.3504 61.4009 80.8963 61.1026 80.3097C60.8043 79.7197 60.6552 79.0253 60.6552 78.2266C60.6552 77.4411 60.8043 76.7517 61.1026 76.1584C61.4042 75.5618 61.8252 75.0978 62.3654 74.7663C62.9057 74.4316 63.5404 74.2642 64.2695 74.2642C64.7402 74.2642 65.1843 74.3404 65.6019 74.4929C66.0228 74.642 66.3941 74.8741 66.7156 75.1889C67.0404 75.5038 67.2956 75.9048 67.4812 76.392C67.6668 76.8759 67.7596 77.4527 67.7596 78.1222V78.674H61.5004V77.4609H66.0344C66.0311 77.1162 65.9566 76.8097 65.8107 76.5412C65.6649 76.2694 65.4611 76.0556 65.1992 75.8999C64.9407 75.7441 64.6391 75.6662 64.2944 75.6662C63.9265 75.6662 63.6033 75.7557 63.3249 75.9347C63.0465 76.1103 62.8294 76.3423 62.6737 76.6307C62.5212 76.9157 62.4433 77.2289 62.44 77.5703V78.6293C62.44 79.0734 62.5212 79.4545 62.6836 79.7727C62.846 80.0876 63.073 80.3295 63.3647 80.4986C63.6564 80.6643 63.9978 80.7472 64.3888 80.7472C64.6507 80.7472 64.8877 80.7107 65.0998 80.6378C65.3119 80.5616 65.4959 80.4505 65.6516 80.3047C65.8074 80.1589 65.9251 79.9782 66.0046 79.7628L67.685 79.9517C67.579 80.3958 67.3768 80.7836 67.0785 81.1151C66.7835 81.4432 66.4057 81.6984 65.945 81.8807C65.4843 82.0597 64.9573 82.1491 64.364 82.1491ZM71.0819 71.8182V82H69.2821V71.8182H71.0819Z" fill="white"/>
</g>
<defs>
<filter id="filter0_d_5829_13177" x="0" y="0" width="107" height="109" filterUnits="userSpaceOnUse" color-interpolation-filters="sRGB">
<feFlood flood-opacity="0" result="BackgroundImageFix"/>
<feColorMatrix in="SourceAlpha" type="matrix" values="0 0 0 0 0 0 0 0 0 0 0 0 0 0 0 0 0 0 127 0" result="hardAlpha"/>
<feOffset dy="2"/>
<feGaussianBlur stdDeviation="4"/>
<feColorMatrix type="matrix" values="0 0 0 0 0 0 0 0 0 0 0 0 0 0 0 0 0 0 0.25 0"/>
<feBlend mode="normal" in2="BackgroundImageFix" result="effect1_dropShadow_5829_13177"/>
<feBlend mode="normal" in="SourceGraphic" in2="effect1_dropShadow_5829_13177" result="shape"/>
</filter>
</defs>
</svg>
