<svg width="107" height="109" viewBox="0 0 107 109" fill="none" xmlns="http://www.w3.org/2000/svg">
<g filter="url(#filter0_d_5829_13264)">
<rect x="8" y="6" width="91" height="93" rx="12" fill="#151B23"/>
<rect x="9" y="7" width="89" height="91" rx="11" stroke="#1F2937" stroke-width="2"/>
<g clip-path="url(#clip0_5829_13264)">
<path d="M53.4261 60.8444C64.4288 60.8444 73.3483 51.9249 73.3483 40.9222C73.3483 29.9195 64.4288 21 53.4261 21C42.4234 21 33.5039 29.9195 33.5039 40.9222C33.5039 51.9249 42.4234 60.8444 53.4261 60.8444Z" fill="#FFD539"/>
<path d="M65.7689 40.6665C62.7951 43.1445 56.8948 43.9703 54.1143 44.1751C53.5344 39.8562 53.2206 34.4221 59.3476 31.8516C60.1362 36.287 64.0362 38.3087 65.8916 38.6987L65.7689 40.6665Z" fill="white"/>
<path fill-rule="evenodd" clip-rule="evenodd" d="M55.0746 38.8866C55.0746 40.7466 55.5073 42.2661 56.222 43.4759C59.0922 43.1072 62.0442 42.3772 64.7272 40.7806C65.5831 40.2862 65.3312 39.1494 64.5107 38.7632C62.5046 37.9252 59.8081 35.9557 58.9758 32.4473C56.7246 33.7266 55.0746 35.9381 55.0746 38.8866ZM66.8134 31.7128C64.6463 30.903 62.0618 31.0491 59.8704 32.0007C60.5586 35.3083 63.1132 37.1498 64.9459 37.8952C65.4523 37.4543 66.2402 37.131 66.939 37.5299C68.4469 38.7632 67.0484 40.4938 66.0797 41.0406C63.0793 42.7339 60.0951 43.8104 56.8249 44.3462C59.3312 47.4532 63.9546 47.9282 66.8134 46.5495C66.3448 48.4045 64.6794 49.9733 61.9814 50.4925C61.9308 51.3045 62.8509 53.1245 63.6797 53.8463C61.8173 54.5439 59.669 53.5962 58.4835 52.8521C58.0299 53.4939 57.8315 55.4525 57.8315 56.6778C56.4323 56.6778 54.5918 54.6462 54.1412 53.8701C53.4847 54.2538 52.3572 56.2429 52.1533 57.3982C50.3865 56.4468 49.7862 54.2656 49.8469 53.293C49.0614 53.8462 46.7846 55.2236 45.732 55.6992C45.2215 54.51 45.4379 53.0182 45.732 51.4899C45.2897 51.7237 42.0277 52.0255 40.7242 51.7237C41.382 50.9761 42.2752 49.296 42.6698 48.5153C41.2839 48.4289 38.8301 47.548 37.6498 46.3464C38.6542 45.8992 39.6365 45.2549 40.7242 44.1668L40.6579 44.1315C39.2763 43.395 37.2235 42.3006 36.7305 40.4122C38.0256 40.3199 39.6056 40.1397 40.4312 39.7666C39.379 39.1578 37.6498 37.2345 38 34.9238C38.8597 35.3383 40.6861 35.6771 41.572 35.5075C40.8027 33.8097 40.2888 32.1699 41.046 29.907C41.8632 30.8376 43.4436 31.7131 44.1137 31.9542C43.939 30.2834 44.7155 27.2121 45.7487 26.3853C46.1756 27.3389 47.2656 28.8818 47.9915 29.2575C48.1716 28.0043 49.7923 25.0594 51.2173 24.6641C51.2173 25.6829 51.7867 27.5188 52.2438 28.0792C53.3099 26.971 56.9138 25.1313 59.759 25.7635C58.8011 26.4561 58.2534 27.1156 57.9999 27.7531C60.1583 27.7531 63.7157 28.4519 66.8134 31.7128ZM58.8414 36.5713C58.1463 36.7002 57.8039 35.7464 58.1421 35.2452C57.109 35.4395 56.4695 36.5808 56.8894 37.5638C57.2539 38.4172 58.2463 38.8113 59.106 38.444C59.9658 38.0768 60.3674 37.0873 60.0028 36.2339C59.862 35.9031 59.6179 35.6268 59.307 35.4463C59.483 35.8603 59.342 36.4782 58.8414 36.5713Z" fill="#1E1E1E"/>
</g>
<path d="M21.3608 81V72.2727H24.7017C25.3324 72.2727 25.8565 72.3722 26.2741 72.571C26.6946 72.767 27.0085 73.0355 27.2159 73.3764C27.4261 73.7173 27.5312 74.1037 27.5312 74.5355C27.5312 74.8906 27.4631 75.1946 27.3267 75.4474C27.1903 75.6974 27.0071 75.9006 26.777 76.0568C26.5469 76.2131 26.2898 76.3253 26.0057 76.3935V76.4787C26.3153 76.4957 26.6122 76.5909 26.8963 76.7642C27.1832 76.9347 27.4176 77.1761 27.5994 77.4886C27.7813 77.8011 27.8722 78.179 27.8722 78.6222C27.8722 79.0739 27.7628 79.4801 27.544 79.8409C27.3253 80.1989 26.9957 80.4815 26.5554 80.6889C26.1151 80.8963 25.5611 81 24.8935 81H21.3608ZM22.9418 79.679H24.642C25.2159 79.679 25.6293 79.5696 25.8821 79.3509C26.1378 79.1293 26.2656 78.8452 26.2656 78.4986C26.2656 78.2401 26.2017 78.0071 26.0739 77.7997C25.946 77.5895 25.7642 77.4247 25.5284 77.3054C25.2926 77.1832 25.0114 77.1222 24.6847 77.1222H22.9418V79.679ZM22.9418 75.9844H24.5057C24.7784 75.9844 25.0241 75.9347 25.2429 75.8352C25.4616 75.733 25.6335 75.5895 25.7585 75.4048C25.8864 75.2173 25.9503 74.9957 25.9503 74.7401C25.9503 74.402 25.831 74.1236 25.5923 73.9048C25.3565 73.6861 25.0057 73.5767 24.5398 73.5767H22.9418V75.9844ZM29.1793 81V74.4545H30.6751V75.5455H30.7433C30.8626 75.1676 31.0671 74.8764 31.3569 74.6719C31.6495 74.4645 31.9833 74.3608 32.3583 74.3608C32.4435 74.3608 32.5387 74.3651 32.6438 74.3736C32.7518 74.3793 32.8413 74.3892 32.9123 74.4034V75.8224C32.8469 75.7997 32.7433 75.7798 32.6012 75.7628C32.462 75.7429 32.3271 75.733 32.1964 75.733C31.9151 75.733 31.6623 75.794 31.4379 75.9162C31.2163 76.0355 31.0415 76.2017 30.9137 76.4148C30.7859 76.6278 30.7219 76.8736 30.7219 77.152V81H29.1793ZM36.5227 81.1278C35.8835 81.1278 35.3295 80.9872 34.8608 80.706C34.392 80.4247 34.0284 80.0312 33.7699 79.5256C33.5142 79.0199 33.3864 78.429 33.3864 77.7528C33.3864 77.0767 33.5142 76.4844 33.7699 75.9759C34.0284 75.4673 34.392 75.0724 34.8608 74.7912C35.3295 74.5099 35.8835 74.3693 36.5227 74.3693C37.1619 74.3693 37.7159 74.5099 38.1847 74.7912C38.6534 75.0724 39.0156 75.4673 39.2713 75.9759C39.5298 76.4844 39.6591 77.0767 39.6591 77.7528C39.6591 78.429 39.5298 79.0199 39.2713 79.5256C39.0156 80.0312 38.6534 80.4247 38.1847 80.706C37.7159 80.9872 37.1619 81.1278 36.5227 81.1278ZM36.5312 79.892C36.8778 79.892 37.1676 79.7969 37.4006 79.6065C37.6335 79.4134 37.8068 79.1548 37.9205 78.831C38.0369 78.5071 38.0952 78.1463 38.0952 77.7486C38.0952 77.348 38.0369 76.9858 37.9205 76.6619C37.8068 76.3352 37.6335 76.0753 37.4006 75.8821C37.1676 75.6889 36.8778 75.5923 36.5312 75.5923C36.1761 75.5923 35.8807 75.6889 35.6449 75.8821C35.4119 76.0753 35.2372 76.3352 35.1207 76.6619C35.0071 76.9858 34.9503 77.348 34.9503 77.7486C34.9503 78.1463 35.0071 78.5071 35.1207 78.831C35.2372 79.1548 35.4119 79.4134 35.6449 79.6065C35.8807 79.7969 36.1761 79.892 36.5312 79.892ZM42.1317 81L40.2823 74.4545H41.8548L43.0053 79.0568H43.065L44.2411 74.4545H45.7965L46.9727 79.0312H47.0366L48.1701 74.4545H49.7468L47.8931 81H46.2866L45.0593 76.5767H44.9698L43.7425 81H42.1317ZM55.9972 76.1847L54.5909 76.3381C54.5511 76.196 54.4815 76.0625 54.3821 75.9375C54.2855 75.8125 54.1548 75.7116 53.9901 75.6349C53.8253 75.5582 53.6236 75.5199 53.3849 75.5199C53.0639 75.5199 52.794 75.5895 52.5753 75.7287C52.3594 75.8679 52.2528 76.0483 52.2557 76.2699C52.2528 76.4602 52.3224 76.6151 52.4645 76.7344C52.6094 76.8537 52.848 76.9517 53.1804 77.0284L54.2969 77.267C54.9162 77.4006 55.3764 77.6122 55.6776 77.902C55.9815 78.1918 56.1349 78.571 56.1378 79.0398C56.1349 79.4517 56.0142 79.8153 55.7756 80.1307C55.5398 80.4432 55.2116 80.6875 54.7912 80.8636C54.3707 81.0398 53.8878 81.1278 53.3423 81.1278C52.5412 81.1278 51.8963 80.9602 51.4077 80.625C50.919 80.2869 50.6278 79.8168 50.5341 79.2145L52.0384 79.0696C52.1065 79.3651 52.2514 79.5881 52.473 79.7386C52.6946 79.8892 52.983 79.9645 53.3381 79.9645C53.7045 79.9645 53.9986 79.8892 54.2202 79.7386C54.4446 79.5881 54.5568 79.402 54.5568 79.1804C54.5568 78.9929 54.4844 78.8381 54.3395 78.7159C54.1974 78.5937 53.9759 78.5 53.6747 78.4347L52.5582 78.2003C51.9304 78.0696 51.4659 77.8494 51.1648 77.5398C50.8636 77.2273 50.7145 76.8324 50.7173 76.3551C50.7145 75.9517 50.8239 75.6023 51.0455 75.3068C51.2699 75.0085 51.581 74.7784 51.9787 74.6165C52.3793 74.4517 52.8409 74.3693 53.3636 74.3693C54.1307 74.3693 54.7344 74.5327 55.1747 74.8594C55.6179 75.1861 55.892 75.6278 55.9972 76.1847ZM60.3075 81.1278C59.6513 81.1278 59.0845 80.9915 58.6072 80.7188C58.1328 80.4432 57.7678 80.054 57.5121 79.5511C57.2564 79.0455 57.1286 78.4503 57.1286 77.7656C57.1286 77.0923 57.2564 76.5014 57.5121 75.9929C57.7706 75.4815 58.1314 75.0838 58.5945 74.7997C59.0575 74.5128 59.6016 74.3693 60.2266 74.3693C60.63 74.3693 61.0107 74.4347 61.3686 74.5653C61.7294 74.6932 62.0476 74.892 62.3232 75.1619C62.6016 75.4318 62.8203 75.7756 62.9794 76.1932C63.1385 76.608 63.218 77.1023 63.218 77.6761V78.1491H57.853V77.1094H61.7393C61.7365 76.8139 61.6726 76.5511 61.5476 76.321C61.4226 76.0881 61.2479 75.9048 61.0234 75.7713C60.8018 75.6378 60.5433 75.571 60.2479 75.571C59.9325 75.571 59.6555 75.6477 59.4169 75.8011C59.1783 75.9517 58.9922 76.1506 58.8587 76.3977C58.728 76.642 58.6612 76.9105 58.6584 77.2031V78.1108C58.6584 78.4915 58.728 78.8182 58.8672 79.0909C59.0064 79.3608 59.201 79.5682 59.451 79.7131C59.701 79.8551 59.9936 79.9261 60.3288 79.9261C60.5533 79.9261 60.7564 79.8949 60.9382 79.8324C61.12 79.767 61.2777 79.6719 61.4112 79.5469C61.5447 79.4219 61.6456 79.267 61.7138 79.0824L63.1541 79.2443C63.0632 79.625 62.8899 79.9574 62.6342 80.2415C62.3814 80.5227 62.0575 80.7415 61.6626 80.8977C61.2678 81.0511 60.8161 81.1278 60.3075 81.1278ZM64.5231 81V74.4545H66.0188V75.5455H66.087C66.2063 75.1676 66.4109 74.8764 66.7006 74.6719C66.9933 74.4645 67.3271 74.3608 67.7021 74.3608C67.7873 74.3608 67.8825 74.3651 67.9876 74.3736C68.0955 74.3793 68.185 74.3892 68.256 74.4034V75.8224C68.1907 75.7997 68.087 75.7798 67.945 75.7628C67.8058 75.7429 67.6708 75.733 67.5401 75.733C67.2589 75.733 67.006 75.794 66.7816 75.9162C66.56 76.0355 66.3853 76.2017 66.2575 76.4148C66.1296 76.6278 66.0657 76.8736 66.0657 77.152V81H64.5231ZM70.8235 72.2727V81H69.2809V72.2727H70.8235ZM72.4098 81V74.4545H73.9524V81H72.4098ZM73.1854 73.5256C72.9411 73.5256 72.7308 73.4446 72.5547 73.2827C72.3786 73.1179 72.2905 72.9205 72.2905 72.6903C72.2905 72.4574 72.3786 72.2599 72.5547 72.098C72.7308 71.9332 72.9411 71.8509 73.1854 71.8509C73.4325 71.8509 73.6428 71.9332 73.8161 72.098C73.9922 72.2599 74.0803 72.4574 74.0803 72.6903C74.0803 72.9205 73.9922 73.1179 73.8161 73.2827C73.6428 73.4446 73.4325 73.5256 73.1854 73.5256ZM80.712 76.1847L79.3058 76.3381C79.266 76.196 79.1964 76.0625 79.0969 75.9375C79.0004 75.8125 78.8697 75.7116 78.7049 75.6349C78.5401 75.5582 78.3384 75.5199 78.0998 75.5199C77.7788 75.5199 77.5089 75.5895 77.2901 75.7287C77.0742 75.8679 76.9677 76.0483 76.9705 76.2699C76.9677 76.4602 77.0373 76.6151 77.1793 76.7344C77.3242 76.8537 77.5629 76.9517 77.8952 77.0284L79.0117 77.267C79.631 77.4006 80.0913 77.6122 80.3924 77.902C80.6964 78.1918 80.8498 78.571 80.8526 79.0398C80.8498 79.4517 80.729 79.8153 80.4904 80.1307C80.2546 80.4432 79.9265 80.6875 79.506 80.8636C79.0856 81.0398 78.6026 81.1278 78.0572 81.1278C77.256 81.1278 76.6112 80.9602 76.1225 80.625C75.6339 80.2869 75.3427 79.8168 75.2489 79.2145L76.7532 79.0696C76.8214 79.3651 76.9663 79.5881 77.1879 79.7386C77.4094 79.8892 77.6978 79.9645 78.0529 79.9645C78.4194 79.9645 78.7134 79.8892 78.935 79.7386C79.1594 79.5881 79.2717 79.402 79.2717 79.1804C79.2717 78.9929 79.1992 78.8381 79.0543 78.7159C78.9123 78.5937 78.6907 78.5 78.3896 78.4347L77.2731 78.2003C76.6452 78.0696 76.1808 77.8494 75.8796 77.5398C75.5785 77.2273 75.4293 76.8324 75.4322 76.3551C75.4293 75.9517 75.5387 75.6023 75.7603 75.3068C75.9847 75.0085 76.2958 74.7784 76.6935 74.6165C77.0941 74.4517 77.5558 74.3693 78.0785 74.3693C78.8455 74.3693 79.4492 74.5327 79.8896 74.8594C80.3327 75.1861 80.6069 75.6278 80.712 76.1847ZM85.3931 74.4545V75.6477H81.6303V74.4545H85.3931ZM82.5593 72.8864H84.1019V79.0312C84.1019 79.2386 84.1332 79.3977 84.1957 79.5085C84.261 79.6165 84.3462 79.6903 84.4513 79.7301C84.5565 79.7699 84.6729 79.7898 84.8008 79.7898C84.8974 79.7898 84.9854 79.7827 85.065 79.7685C85.1474 79.7543 85.2099 79.7415 85.2525 79.7301L85.5124 80.9361C85.43 80.9645 85.3121 80.9957 85.1587 81.0298C85.0082 81.0639 84.8235 81.0838 84.6048 81.0895C84.2184 81.1009 83.8704 81.0426 83.5607 80.9148C83.2511 80.7841 83.0053 80.5824 82.8235 80.3097C82.6445 80.0369 82.5565 79.696 82.5593 79.2869V72.8864Z" fill="white"/>
</g>
<defs>
<filter id="filter0_d_5829_13264" x="0" y="0" width="107" height="109" filterUnits="userSpaceOnUse" color-interpolation-filters="sRGB">
<feFlood flood-opacity="0" result="BackgroundImageFix"/>
<feColorMatrix in="SourceAlpha" type="matrix" values="0 0 0 0 0 0 0 0 0 0 0 0 0 0 0 0 0 0 127 0" result="hardAlpha"/>
<feOffset dy="2"/>
<feGaussianBlur stdDeviation="4"/>
<feColorMatrix type="matrix" values="0 0 0 0 0 0 0 0 0 0 0 0 0 0 0 0 0 0 0.25 0"/>
<feBlend mode="normal" in2="BackgroundImageFix" result="effect1_dropShadow_5829_13264"/>
<feBlend mode="normal" in="SourceGraphic" in2="effect1_dropShadow_5829_13264" result="shape"/>
</filter>
<clipPath id="clip0_5829_13264">
<rect width="40" height="40" fill="white" transform="translate(33.5 21)"/>
</clipPath>
</defs>
</svg>
