<svg width="107" height="109" viewBox="0 0 107 109" fill="none" xmlns="http://www.w3.org/2000/svg">
<g filter="url(#filter0_d_5829_13812)">
<rect x="8" y="6" width="91" height="93" rx="12" fill="#151B23"/>
<rect x="9" y="7" width="89" height="91" rx="11" stroke="#1F2937" stroke-width="2"/>
<path d="M67.1017 34.0742C67.0317 33.9998 66.9573 33.9255 66.883 33.8555C66.8086 33.7855 66.7386 33.7067 66.6642 33.6367C66.5898 33.5667 66.5198 33.488 66.4455 33.418C66.3711 33.348 66.3011 33.2692 66.2267 33.1992C66.1523 33.1292 66.0823 33.0505 66.008 32.9805C65.9336 32.9105 65.8636 32.8317 65.7892 32.7617C65.7148 32.6917 65.6448 32.613 65.5705 32.543C67.7405 34.6757 68.9837 37.577 69.0311 40.6192C69.0311 47.8686 61.6723 53.7661 52.6248 53.7661C47.5586 53.7661 43.0261 51.9155 40.0117 49.0148L40.2305 49.2336L40.4492 49.4523L40.668 49.6711L40.8867 49.8898L41.1055 50.1086L41.3242 50.3273L41.543 50.5461C44.553 53.5692 49.1861 55.5161 54.3748 55.5161C63.4223 55.5161 70.7811 49.6186 70.7811 42.3911C70.7811 39.3023 69.4511 36.3755 67.1017 34.0742Z" fill="black"/>
<path d="M67.9375 40.6188C67.9375 47.2731 61.0819 52.6675 52.625 52.6675C44.1681 52.6675 37.3125 47.2731 37.3125 40.6188C37.3125 36.4931 39.9375 32.8488 43.9712 30.6875C48.005 28.5263 50.5162 26.3125 52.625 26.3125C54.7337 26.3125 56.5362 28.1194 61.2787 30.6875C65.3125 32.8488 67.9375 36.4931 67.9375 40.6188Z" fill="#FBF0DF"/>
<path d="M67.9373 40.6186C67.9351 39.7638 67.8174 38.9131 67.5873 38.0898C66.3929 52.6586 48.6216 53.3586 41.6348 49.0011C44.7756 51.4355 48.6514 52.7285 52.6248 52.6673C61.0685 52.6673 67.9373 47.2642 67.9373 40.6186Z" fill="#F6DECE"/>
<path d="M46.7319 29.8869C48.6875 28.7144 51.2862 26.5138 53.8412 26.5094C53.4482 26.3823 53.0381 26.3159 52.625 26.3125C51.5662 26.3125 50.4375 26.8594 49.0156 27.6819C48.5212 27.9706 48.0094 28.29 47.4669 28.6225C46.4475 29.2525 45.2794 29.9656 43.9669 30.6787C39.8019 32.9319 37.3125 36.6462 37.3125 40.6187C37.3125 40.7937 37.3125 40.9687 37.3125 41.1394C39.9637 31.7725 44.7806 31.0594 46.7319 29.8869Z" fill="#FFFEFC"/>
<path fill-rule="evenodd" clip-rule="evenodd" d="M51.3659 27.4188C51.3721 28.4519 51.1552 29.4741 50.7301 30.4156C50.305 31.3571 49.6817 32.1959 48.9028 32.8745C48.7803 32.9838 48.8766 33.1938 49.0341 33.1326C50.5084 32.5595 52.4991 30.8445 51.6591 27.3838C51.6241 27.187 51.3659 27.2395 51.3659 27.4188ZM52.3591 27.4188C52.8944 28.2923 53.2345 29.2711 53.3561 30.2883C53.4776 31.3055 53.3778 32.337 53.0634 33.312C53.0109 33.4651 53.1991 33.5963 53.3041 33.4695C54.2622 32.2445 55.0978 29.812 52.5953 27.187C52.4684 27.0732 52.2716 27.2482 52.3591 27.4013V27.4188ZM53.5666 27.3445C54.4049 27.938 55.1062 28.7043 55.6231 29.5919C56.1401 30.4794 56.4608 31.4675 56.5634 32.4895C56.559 32.5263 56.5689 32.5634 56.5911 32.5931C56.6133 32.6228 56.6461 32.6429 56.6827 32.6491C56.7193 32.6553 56.7568 32.6471 56.7876 32.6264C56.8183 32.6056 56.8399 32.5738 56.8478 32.5376C57.2503 31.0107 57.0228 28.4076 53.7109 27.0557C53.5359 26.9857 53.4222 27.222 53.5666 27.327V27.3445ZM45.4903 31.8945C46.4875 31.5966 47.4107 31.092 48.2 30.4136C48.9892 29.7351 49.6267 28.8981 50.0709 27.957C50.1497 27.7995 50.3991 27.8607 50.3597 28.0357C49.6028 31.5357 47.0697 32.2663 45.4947 32.1701C45.3284 32.1745 45.3328 31.9426 45.4903 31.8945Z" fill="#CCBEA7"/>
<path d="M52.625 53.7656C43.5775 53.7656 36.2188 47.8681 36.2188 40.6188C36.2188 36.2438 38.9225 32.1619 43.4506 29.7162C44.7631 29.0162 45.8875 28.3119 46.8894 27.695C47.4406 27.3537 47.9613 27.0344 48.4644 26.7369C50 25.8269 51.3125 25.2188 52.625 25.2188C53.9375 25.2188 55.0837 25.7438 56.5188 26.5925C56.9563 26.8419 57.3938 27.1131 57.8619 27.4106C58.9513 28.0844 60.1806 28.8456 61.7994 29.7162C66.3275 32.1619 69.0312 36.2394 69.0312 40.6188C69.0312 47.8681 61.6725 53.7656 52.625 53.7656ZM52.625 26.3125C51.5662 26.3125 50.4375 26.8594 49.0156 27.6819C48.5212 27.9706 48.0094 28.29 47.4669 28.6225C46.4475 29.2525 45.2794 29.9656 43.9669 30.6788C39.8019 32.9319 37.3125 36.6463 37.3125 40.6188C37.3125 47.2644 44.1813 52.6719 52.625 52.6719C61.0688 52.6719 67.9375 47.2644 67.9375 40.6188C67.9375 36.6463 65.4481 32.9319 61.2787 30.6875C59.625 29.8125 58.3344 28.99 57.2887 28.3425C56.8119 28.0494 56.3744 27.7781 55.9762 27.5375C54.6506 26.75 53.6838 26.3125 52.625 26.3125Z" fill="black"/>
<path d="M55.7104 43.8117C55.5139 44.6167 55.0665 45.3383 54.4329 45.8724C53.9573 46.3335 53.3415 46.6229 52.6829 46.6949C52.0046 46.6343 51.3672 46.3441 50.876 45.8724C50.2489 45.3358 49.8079 44.6144 49.616 43.8117C49.6097 43.7641 49.6143 43.7156 49.6296 43.67C49.6449 43.6244 49.6704 43.5829 49.7042 43.5487C49.7379 43.5145 49.7791 43.4885 49.8245 43.4727C49.8699 43.4568 49.9183 43.4516 49.966 43.4573H55.3648C55.4122 43.4523 55.4601 43.4581 55.5049 43.4742C55.5498 43.4904 55.5904 43.5165 55.6236 43.5506C55.6569 43.5848 55.682 43.626 55.697 43.6712C55.7121 43.7164 55.7166 43.7645 55.7104 43.8117Z" fill="#B71422"/>
<path d="M50.8752 45.9084C51.3653 46.3805 52.0004 46.6734 52.6777 46.7397C53.3534 46.6724 53.9868 46.3796 54.4758 45.9084C54.6322 45.7626 54.7784 45.6062 54.9133 45.4403C54.6438 45.1346 54.3146 44.8872 53.9459 44.7134C53.5772 44.5396 53.1769 44.443 52.7695 44.4297C52.3337 44.44 51.9068 44.5561 51.5257 44.768C51.1447 44.9798 50.8208 45.2811 50.582 45.6459C50.6827 45.7378 50.7702 45.8253 50.8752 45.9084Z" fill="#FF6164"/>
<path d="M50.9453 45.5628C51.1622 45.2824 51.4399 45.0549 51.7574 44.8973C52.0749 44.7397 52.424 44.6561 52.7784 44.6528C53.4336 44.6721 54.0579 44.9359 54.5284 45.3922C54.6291 45.2828 54.7253 45.1691 54.8172 45.0553C54.2606 44.5252 53.5251 44.2238 52.7566 44.2109C52.3459 44.2145 51.941 44.3089 51.5712 44.4874C51.2013 44.6659 50.8755 44.9241 50.6172 45.2434C50.7206 45.3558 50.8302 45.4624 50.9453 45.5628Z" fill="black"/>
<path d="M52.6647 46.9582C51.9356 46.8943 51.2496 46.586 50.7178 46.0832C50.0406 45.5104 49.5639 44.7364 49.3572 43.8738C49.3423 43.797 49.3449 43.7179 49.3645 43.6422C49.3842 43.5665 49.4206 43.4962 49.4709 43.4363C49.5309 43.3639 49.6066 43.3062 49.6923 43.2675C49.778 43.2288 49.8713 43.2103 49.9653 43.2132H55.364C55.4579 43.2112 55.5509 43.2302 55.6365 43.2688C55.722 43.3074 55.7978 43.3647 55.8584 43.4363C55.9083 43.4964 55.944 43.5669 55.9629 43.6426C55.9819 43.7183 55.9835 43.7974 55.9678 43.8738C55.7611 44.7364 55.2844 45.5104 54.6072 46.0832C54.0765 46.5851 53.3922 46.8934 52.6647 46.9582ZM49.9653 43.7207C49.8953 43.7207 49.8778 43.7513 49.8734 43.7601C50.0584 44.508 50.4767 45.1777 51.0678 45.6719C51.5 46.0978 52.062 46.3672 52.6647 46.4376C53.2658 46.368 53.8271 46.102 54.2615 45.6807C54.8508 45.1856 55.2675 44.5161 55.4515 43.7688C55.442 43.7548 55.4288 43.7437 55.4133 43.7368C55.3979 43.7298 55.3808 43.7273 55.364 43.7294L49.9653 43.7207Z" fill="black"/>
<path d="M59.282 44.0842C60.6955 44.0842 61.8414 43.4104 61.8414 42.5792C61.8414 41.748 60.6955 41.0742 59.282 41.0742C57.8685 41.0742 56.7227 41.748 56.7227 42.5792C56.7227 43.4104 57.8685 44.0842 59.282 44.0842Z" fill="#FEBBD0"/>
<path d="M46.0398 44.0842C47.4533 44.0842 48.5992 43.4104 48.5992 42.5792C48.5992 41.748 47.4533 41.0742 46.0398 41.0742C44.6263 41.0742 43.4805 41.748 43.4805 42.5792C43.4805 43.4104 44.6263 44.0842 46.0398 44.0842Z" fill="#FEBBD0"/>
<path fill-rule="evenodd" clip-rule="evenodd" d="M47.2422 41.9755C47.7191 41.9764 48.1856 41.8358 48.5826 41.5714C48.9796 41.3071 49.2893 40.9309 49.4724 40.4905C49.6556 40.0501 49.7039 39.5652 49.6114 39.0973C49.5189 38.6294 49.2896 38.1995 48.9527 37.8619C48.6157 37.5243 48.1862 37.2943 47.7185 37.2009C47.2507 37.1076 46.7658 37.1551 46.3251 37.3374C45.8843 37.5197 45.5076 37.8287 45.2425 38.2252C44.9774 38.6217 44.8359 39.088 44.8359 39.5649C44.8359 40.2035 45.0893 40.816 45.5404 41.2679C45.9916 41.7199 46.6036 41.9744 47.2422 41.9755ZM58.0791 41.9755C58.5566 41.979 59.0243 41.8406 59.4231 41.5778C59.8218 41.315 60.1335 40.9398 60.3186 40.4996C60.5038 40.0594 60.554 39.5742 60.463 39.1054C60.372 38.6367 60.1438 38.2055 59.8073 37.8666C59.4709 37.5277 59.0414 37.2964 58.5733 37.202C58.1052 37.1075 57.6196 37.1542 57.1781 37.3362C56.7366 37.5181 56.3591 37.8271 56.0934 38.2238C55.8278 38.6206 55.6859 39.0874 55.6859 39.5649C55.6848 40.2016 55.936 40.8128 56.3845 41.2646C56.8331 41.7164 57.4424 41.9721 58.0791 41.9755Z" fill="black"/>
<path fill-rule="evenodd" clip-rule="evenodd" d="M46.4989 39.7175C46.6782 39.7184 46.8537 39.666 47.0032 39.567C47.1527 39.468 47.2695 39.3269 47.3387 39.1615C47.4079 38.9961 47.4265 38.8138 47.392 38.6379C47.3576 38.4619 47.2717 38.3001 47.1452 38.1731C47.0187 38.046 46.8574 37.9593 46.6816 37.924C46.5058 37.8887 46.3235 37.9064 46.1577 37.9748C45.992 38.0432 45.8503 38.1593 45.7506 38.3083C45.6509 38.4573 45.5977 38.6326 45.5977 38.8119C45.5977 39.0513 45.6925 39.281 45.8614 39.4507C46.0303 39.6204 46.2595 39.7163 46.4989 39.7175ZM57.3358 39.7175C57.5151 39.7184 57.6906 39.666 57.8401 39.567C57.9896 39.468 58.1064 39.3269 58.1756 39.1615C58.2448 38.9961 58.2634 38.8138 58.2289 38.6379C58.1945 38.4619 58.1086 38.3001 57.9821 38.1731C57.8556 38.046 57.6942 37.9593 57.5185 37.924C57.3427 37.8887 57.1603 37.9064 56.9946 37.9748C56.8289 38.0432 56.6872 38.1593 56.5875 38.3083C56.4878 38.4573 56.4345 38.6326 56.4345 38.8119C56.4345 39.0498 56.5281 39.2782 56.6951 39.4476C56.8621 39.6171 57.0891 39.714 57.327 39.7175H57.3358Z" fill="white"/>
<path d="M41.0043 82V71.8182H44.902C45.6378 71.8182 46.2493 71.9342 46.7365 72.1662C47.227 72.3949 47.5933 72.7081 47.8352 73.1058C48.0805 73.5036 48.2031 73.9543 48.2031 74.4581C48.2031 74.8724 48.1236 75.227 47.9645 75.522C47.8054 75.8137 47.5916 76.0507 47.3232 76.233C47.0547 76.4152 46.7547 76.5462 46.4233 76.6257V76.7251C46.7846 76.745 47.1309 76.8561 47.4624 77.0582C47.7971 77.2571 48.0705 77.5388 48.2827 77.9034C48.4948 78.268 48.6009 78.7088 48.6009 79.2259C48.6009 79.7528 48.4732 80.2268 48.218 80.6477C47.9628 81.0653 47.5784 81.3951 47.0646 81.6371C46.5509 81.879 45.9046 82 45.1257 82H41.0043ZM42.8487 80.4588H44.8324C45.5019 80.4588 45.9841 80.3312 46.2791 80.076C46.5774 79.8175 46.7266 79.486 46.7266 79.0817C46.7266 78.7801 46.652 78.5083 46.5028 78.2663C46.3537 78.0211 46.1416 77.8288 45.8665 77.6896C45.5914 77.5471 45.2633 77.4759 44.8821 77.4759H42.8487V80.4588ZM42.8487 76.1484H44.6733C44.9915 76.1484 45.2782 76.0904 45.5334 75.9744C45.7886 75.8551 45.9891 75.6877 46.1349 75.4723C46.2841 75.2536 46.3587 74.995 46.3587 74.6967C46.3587 74.3023 46.2195 73.9775 45.9411 73.7223C45.666 73.4671 45.2566 73.3395 44.7131 73.3395H42.8487V76.1484ZM54.9931 78.7884V74.3636H56.7928V82H55.0478V80.6428H54.9682C54.7959 81.0703 54.5125 81.42 54.1181 81.6918C53.727 81.9635 53.2447 82.0994 52.6713 82.0994C52.1709 82.0994 51.7284 81.9884 51.3439 81.7663C50.9628 81.541 50.6645 81.2145 50.449 80.7869C50.2336 80.3561 50.1259 79.8357 50.1259 79.2259V74.3636H51.9256V78.9474C51.9256 79.4313 52.0582 79.8158 52.3233 80.1009C52.5885 80.3859 52.9365 80.5284 53.3674 80.5284C53.6325 80.5284 53.8894 80.4638 54.138 80.3345C54.3865 80.2053 54.5904 80.013 54.7495 79.7578C54.9119 79.4993 54.9931 79.1761 54.9931 78.7884ZM60.4432 77.5256V82H58.6435V74.3636H60.3636V75.6612H60.4531C60.6288 75.2337 60.9089 74.8939 61.2933 74.642C61.6811 74.3902 62.16 74.2642 62.7301 74.2642C63.2571 74.2642 63.7161 74.3769 64.1072 74.6023C64.5017 74.8277 64.8066 75.1541 65.022 75.5817C65.2408 76.0092 65.3485 76.5279 65.3452 77.1378V82H63.5455V77.4162C63.5455 76.9058 63.4129 76.5064 63.1477 76.218C62.8859 75.9297 62.523 75.7855 62.0589 75.7855C61.7441 75.7855 61.464 75.8551 61.2188 75.9943C60.9768 76.1302 60.7862 76.3274 60.647 76.5859C60.5111 76.8445 60.4432 77.1577 60.4432 77.5256Z" fill="white"/>
</g>
<defs>
<filter id="filter0_d_5829_13812" x="0" y="0" width="107" height="109" filterUnits="userSpaceOnUse" color-interpolation-filters="sRGB">
<feFlood flood-opacity="0" result="BackgroundImageFix"/>
<feColorMatrix in="SourceAlpha" type="matrix" values="0 0 0 0 0 0 0 0 0 0 0 0 0 0 0 0 0 0 127 0" result="hardAlpha"/>
<feOffset dy="2"/>
<feGaussianBlur stdDeviation="4"/>
<feColorMatrix type="matrix" values="0 0 0 0 0 0 0 0 0 0 0 0 0 0 0 0 0 0 0.25 0"/>
<feBlend mode="normal" in2="BackgroundImageFix" result="effect1_dropShadow_5829_13812"/>
<feBlend mode="normal" in="SourceGraphic" in2="effect1_dropShadow_5829_13812" result="shape"/>
</filter>
</defs>
</svg>
