<svg width="177" height="177" viewBox="0 0 177 177" fill="none" xmlns="http://www.w3.org/2000/svg">
<g filter="url(#filter0_d_5820_13370)">
<rect x="38" y="13" width="101" height="101" rx="12" fill="#151B23"/>
<rect x="39" y="14" width="99" height="99" rx="11" stroke="#1F2937" stroke-width="2"/>
<mask id="mask0_5820_13370" style="mask-type:luminance" maskUnits="userSpaceOnUse" x="71" y="29" width="35" height="40">
<path d="M71 29H106V68.3756H71V29Z" fill="white"/>
</mask>
<g mask="url(#mask0_5820_13370)">
<path d="M105.942 40.5469C105.942 39.8857 105.799 39.3041 105.514 38.802C105.234 38.3082 104.813 37.8976 104.25 37.5703C99.599 34.8878 94.9416 32.214 90.2916 29.5291C89.0377 28.8043 87.822 28.8314 86.578 29.566C84.7261 30.6574 75.4556 35.9682 72.6932 37.5691C71.5562 38.2274 71.0025 39.2352 71.0012 40.5456L71 56.7278C71 57.375 71.1362 57.9455 71.4085 58.4394C71.6874 58.948 72.1152 59.3696 72.6919 59.7043C75.4544 61.304 84.7261 66.616 86.5767 67.7074C87.822 68.442 89.0377 68.4691 90.2928 67.7443C94.9428 65.0594 99.599 62.3856 104.251 59.7031C104.827 59.3684 105.255 58.9468 105.535 58.4381C105.808 57.9443 105.944 57.3738 105.943 56.7265L105.942 40.5469Z" fill="#A179DC"/>
<path d="M88.5243 48.584L71.4082 58.4402C71.6871 58.9472 72.1149 59.3684 72.6916 59.7039C75.454 61.3035 84.7258 66.6156 86.5764 67.707C87.8217 68.4416 89.0374 68.4687 90.2925 67.7439C94.9425 65.059 99.5987 62.3851 104.251 59.7027C104.827 59.368 105.255 58.9463 105.535 58.4377L88.5243 48.584Z" fill="#280068"/>
<path d="M105.943 40.5476C105.943 39.8864 105.8 39.3048 105.515 38.8027L88.5254 48.5851L105.536 58.4389C105.808 57.945 105.944 57.3749 105.944 56.7285C105.944 56.7285 105.945 45.942 105.943 40.5476Z" fill="#390091"/>
<path d="M98.6023 44.9004V46.7424H100.444V44.9004H101.366V46.7424H103.208V47.6628H101.366V49.5049H103.208V50.4265H101.366V52.2686H100.446V50.4265H98.6023V52.2686H97.6819V50.4265H95.8398V49.5049H97.6819V47.6628H95.8398V46.7424H97.6819V44.9004H98.6023ZM100.444 47.6628H98.6023V49.5049H100.444V47.6628Z" fill="white"/>
<path d="M88.5633 35.6484C90.8425 35.6474 93.0818 36.2466 95.056 37.3855C97.0303 38.5245 98.6699 40.1632 99.8099 42.1368L99.7878 42.0999L94.1349 45.3545C93.5705 44.395 92.7678 43.5976 91.8045 43.0397C90.8413 42.4817 89.7502 42.1822 88.6371 42.17H88.5633C87.4249 42.1698 86.3066 42.4701 85.3214 43.0405C84.3363 43.611 83.5191 44.4313 82.9526 45.4187C82.386 46.4061 82.0901 47.5255 82.0948 48.6639C82.0994 49.8022 82.4044 50.9192 82.979 51.9019C83.5536 52.8847 84.3775 53.6983 85.3672 54.2607C86.357 54.823 87.4777 55.1142 88.616 55.1047C89.7544 55.0952 90.8701 54.7854 91.8503 54.2066C92.8306 53.6279 93.6407 52.8006 94.1989 51.8084L94.1718 51.8552L99.8173 55.1246C98.6904 57.0802 97.0731 58.7082 95.125 59.8479C93.1769 60.9877 90.9653 61.5999 88.7084 61.624H88.5633C86.8573 61.625 85.168 61.2897 83.5917 60.6374C82.0154 59.9851 80.5832 59.0284 79.3769 57.8222C78.1706 56.616 77.2138 55.1839 76.5613 53.6077C75.9088 52.0315 75.5734 50.3422 75.5742 48.6362C75.5742 41.4625 81.3895 35.6484 88.5633 35.6484Z" fill="white"/>
</g>
<path d="M88.3303 86.4825H86.2584C86.1993 86.1428 86.0903 85.8418 85.9315 85.5795C85.7727 85.3136 85.5751 85.0884 85.3388 84.9037C85.1024 84.719 84.8328 84.5805 84.53 84.4882C84.2308 84.3922 83.9077 84.3442 83.5605 84.3442C82.9438 84.3442 82.3972 84.4993 81.9207 84.8095C81.4443 85.1161 81.0713 85.5666 80.8017 86.1612C80.5321 86.7521 80.3973 87.4741 80.3973 88.3273C80.3973 89.1952 80.5321 89.9264 80.8017 90.521C81.075 91.1119 81.448 91.5588 81.9207 91.8616C82.3972 92.1608 82.9419 92.3104 83.555 92.3104C83.8947 92.3104 84.2124 92.2661 84.5078 92.1774C84.807 92.0851 85.0747 91.9503 85.3111 91.773C85.5511 91.5957 85.7524 91.3778 85.9149 91.1193C86.0811 90.8608 86.1956 90.5653 86.2584 90.233L88.3303 90.244C88.2527 90.7832 88.0847 91.2892 87.8261 91.7619C87.5713 92.2347 87.2371 92.652 86.8234 93.0139C86.4098 93.3722 85.926 93.6528 85.372 93.856C84.818 94.0554 84.2031 94.1551 83.5273 94.1551C82.5301 94.1551 81.6401 93.9243 80.8571 93.4626C80.0741 93.001 79.4574 92.3344 79.0068 91.4628C78.5563 90.5912 78.331 89.546 78.331 88.3273C78.331 87.1048 78.5581 86.0597 79.0124 85.1918C79.4666 84.3202 80.0852 83.6536 80.8682 83.1919C81.6511 82.7303 82.5375 82.4994 83.5273 82.4994C84.1588 82.4994 84.746 82.5881 85.2889 82.7653C85.8318 82.9426 86.3156 83.203 86.7403 83.5464C87.1651 83.8862 87.5141 84.3036 87.7874 84.7984C88.0643 85.2896 88.2453 85.851 88.3303 86.4825ZM94.4005 94L96.2618 82.6545H97.813L95.9516 94H94.4005ZM89.2873 91.075L89.5476 89.5239H98.2783L98.0179 91.075H89.2873ZM90.4118 94L92.2732 82.6545H93.8243L91.963 94H90.4118ZM89.9465 87.1307L90.2013 85.5795H98.932L98.6772 87.1307H89.9465Z" fill="white"/>
</g>
<defs>
<filter id="filter0_d_5820_13370" x="0" y="0" width="177" height="177" filterUnits="userSpaceOnUse" color-interpolation-filters="sRGB">
<feFlood flood-opacity="0" result="BackgroundImageFix"/>
<feColorMatrix in="SourceAlpha" type="matrix" values="0 0 0 0 0 0 0 0 0 0 0 0 0 0 0 0 0 0 127 0" result="hardAlpha"/>
<feMorphology radius="12" operator="erode" in="SourceAlpha" result="effect1_dropShadow_5820_13370"/>
<feOffset dy="25"/>
<feGaussianBlur stdDeviation="25"/>
<feColorMatrix type="matrix" values="0 0 0 0 0 0 0 0 0 0 0 0 0 0 0 0 0 0 0.25 0"/>
<feBlend mode="normal" in2="BackgroundImageFix" result="effect1_dropShadow_5820_13370"/>
<feBlend mode="normal" in="SourceGraphic" in2="effect1_dropShadow_5820_13370" result="shape"/>
</filter>
</defs>
</svg>
