<svg xmlns="http://www.w3.org/2000/svg" width="91" height="91" fill="none" viewBox="0 0 91 91"><rect width="89" height="89" x="1" y="1" fill="#151b23" rx="11"/><rect width="89" height="89" x="1" y="1" stroke="#1f2937" stroke-width="2" rx="11"/><mask id="a" width="35" height="40" x="28" y="12" maskUnits="userSpaceOnUse" style="mask-type:luminance"><path fill="#fff" d="M28 12h35v39.376H28z"/></mask><g mask="url(#a)"><path fill="#a179dc" d="M62.942 23.547q0-.992-.428-1.745-.42-.74-1.264-1.232c-4.651-2.682-9.308-5.356-13.958-8.04-1.254-.726-2.47-.699-3.714.036-1.852 1.091-11.122 6.402-13.885 8.003-1.137.658-1.69 1.666-1.692 2.977L28 39.728q0 .971.409 1.711.417.763 1.283 1.265c2.762 1.6 12.034 6.912 13.885 8.003 1.245.735 2.46.762 3.716.037 4.65-2.685 9.306-5.358 13.959-8.04q.863-.503 1.283-1.266.41-.74.408-1.712z"/><path fill="#280068" d="M45.524 31.584 28.408 41.44q.42.76 1.284 1.264c2.762 1.6 12.034 6.912 13.884 8.003 1.246.735 2.461.762 3.716.037 4.65-2.685 9.307-5.359 13.96-8.041q.863-.503 1.283-1.265z"/><path fill="#390091" d="M62.943 23.548q0-.992-.428-1.745l-16.99 9.782 17.01 9.854q.41-.741.41-1.71s0-10.787-.002-16.181"/><path fill="#fff" d="M55.602 27.9v1.842h1.842V27.9h.922v1.842h1.842v.92h-1.842v1.843h1.842v.921h-1.842v1.843h-.92v-1.843h-1.844v1.843h-.92v-1.843H52.84v-.921h1.842v-1.842H52.84v-.92h1.842V27.9zm1.842 2.763h-1.842v1.842h1.842z"/><path fill="#fff" d="M45.563 18.648a12.98 12.98 0 0 1 11.247 6.489l-.022-.037-5.653 3.255a6.46 6.46 0 0 0-5.498-3.185h-.074a6.468 6.468 0 1 0 5.636 9.638l-.027.047 5.645 3.27a12.98 12.98 0 0 1-11.109 6.499h-.145a12.98 12.98 0 0 1-12.989-12.988c0-7.174 5.816-12.988 12.99-12.988"/></g><path fill="#fff" d="M45.33 67.483h-2.072a2.6 2.6 0 0 0-.327-.904 2.43 2.43 0 0 0-1.401-1.09 3.2 3.2 0 0 0-.97-.145q-.924 0-1.64.466-.714.46-1.118 1.351-.405.886-.405 2.166 0 1.302.405 2.194.41.886 1.119 1.34.714.45 1.634.45.51 0 .953-.134.449-.138.803-.404.36-.266.604-.654.249-.387.343-.886l2.072.011a4.5 4.5 0 0 1-.504 1.518q-.382.71-1.003 1.252a4.6 4.6 0 0 1-1.451.842q-.831.3-1.845.3-1.495 0-2.67-.693t-1.85-2-.676-3.136q0-1.833.681-3.135.682-1.307 1.856-2 1.175-.693 2.66-.693.946.001 1.76.266a4.5 4.5 0 0 1 1.452.781q.638.51 1.047 1.252.416.737.543 1.685M51.4 75l1.862-11.346h1.551L52.952 75zm-5.113-2.925.26-1.551h8.731l-.26 1.551zM47.412 75l1.861-11.346h1.551L48.963 75zm-.465-6.87.254-1.55h8.731l-.255 1.55z"/></svg>