<svg width="107" height="107" viewBox="0 0 107 107" fill="none" xmlns="http://www.w3.org/2000/svg">
<g filter="url(#filter0_d_5820_13370)">
<rect x="8" y="6" width="91" height="91" rx="12" fill="#151B23"/>
<rect x="9" y="7" width="89" height="89" rx="11" stroke="#1F2937" stroke-width="2"/>
<mask id="mask0_5820_13370" style="mask-type:luminance" maskUnits="userSpaceOnUse" x="36" y="18" width="35" height="40">
<path d="M36 18H71V57.3756H36V18Z" fill="white"/>
</mask>
<g mask="url(#mask0_5820_13370)">
<path d="M70.9422 29.5469C70.9422 28.8857 70.7994 28.3041 70.514 27.802C70.2342 27.3082 69.813 26.8976 69.2502 26.5703C64.599 23.8878 59.9416 21.214 55.2916 18.5291C54.0377 17.8043 52.822 17.8314 51.578 18.566C49.7261 19.6574 40.4556 24.9682 37.6932 26.5691C36.5562 27.2274 36.0025 28.2352 36.0012 29.5456L36 45.7278C36 46.375 36.1362 46.9455 36.4085 47.4394C36.6874 47.948 37.1152 48.3696 37.6919 48.7043C40.4544 50.304 49.7261 55.616 51.5767 56.7074C52.822 57.442 54.0377 57.4691 55.2928 56.7443C59.9428 54.0594 64.599 51.3856 69.2515 48.7031C69.8273 48.3684 70.2551 47.9468 70.5349 47.4381C70.808 46.9443 70.9442 46.3738 70.9434 45.7265L70.9422 29.5469Z" fill="#A179DC"/>
<path d="M53.5243 37.584L36.4082 47.4402C36.6871 47.9472 37.1149 48.3684 37.6916 48.7039C40.454 50.3035 49.7258 55.6156 51.5764 56.707C52.8217 57.4416 54.0374 57.4687 55.2925 56.7439C59.9425 54.059 64.5987 51.3851 69.2512 48.7027C69.827 48.368 70.2548 47.9463 70.5346 47.4377L53.5243 37.584Z" fill="#280068"/>
<path d="M70.9429 29.5476C70.9429 28.8864 70.8002 28.3048 70.5147 27.8027L53.5254 37.5851L70.5357 47.4389C70.808 46.945 70.9442 46.3749 70.9442 45.7285C70.9442 45.7285 70.9454 34.942 70.9429 29.5476Z" fill="#390091"/>
<path d="M63.6023 33.9004V35.7424H65.4443V33.9004H66.366V35.7424H68.208V36.6628H66.366V38.5049H68.208V39.4265H66.366V41.2686H65.4456V39.4265H63.6023V41.2686H62.6819V39.4265H60.8398V38.5049H62.6819V36.6628H60.8398V35.7424H62.6819V33.9004H63.6023ZM65.4443 36.6628H63.6023V38.5049H65.4443V36.6628Z" fill="white"/>
<path d="M53.5633 24.6484C55.8425 24.6474 58.0818 25.2466 60.056 26.3855C62.0303 27.5245 63.6699 29.1632 64.8099 31.1368L64.7878 31.0999L59.1349 34.3545C58.5705 33.395 57.7678 32.5976 56.8045 32.0397C55.8413 31.4817 54.7502 31.1822 53.6371 31.17H53.5633C52.4249 31.1698 51.3066 31.4701 50.3214 32.0405C49.3363 32.611 48.5191 33.4313 47.9526 34.4187C47.386 35.4061 47.0901 36.5255 47.0948 37.6639C47.0994 38.8022 47.4044 39.9192 47.979 40.9019C48.5536 41.8847 49.3775 42.6983 50.3672 43.2607C51.357 43.823 52.4777 44.1142 53.616 44.1047C54.7544 44.0952 55.8701 43.7854 56.8503 43.2066C57.8306 42.6279 58.6407 41.8006 59.1989 40.8084L59.1718 40.8552L64.8173 44.1246C63.6904 46.0802 62.0731 47.7082 60.125 48.8479C58.1769 49.9877 55.9653 50.5999 53.7084 50.624H53.5633C51.8573 50.625 50.168 50.2897 48.5917 49.6374C47.0154 48.9851 45.5832 48.0284 44.3769 46.8222C43.1706 45.616 42.2138 44.1839 41.5613 42.6077C40.9088 41.0315 40.5734 39.3422 40.5742 37.6362C40.5742 30.4625 46.3895 24.6484 53.5633 24.6484Z" fill="white"/>
</g>
<path d="M53.3303 73.4825H51.2584C51.1993 73.1428 51.0903 72.8418 50.9315 72.5795C50.7727 72.3136 50.5751 72.0884 50.3388 71.9037C50.1024 71.719 49.8328 71.5805 49.53 71.4882C49.2308 71.3922 48.9077 71.3442 48.5605 71.3442C47.9438 71.3442 47.3972 71.4993 46.9207 71.8095C46.4443 72.1161 46.0713 72.5666 45.8017 73.1612C45.5321 73.7521 45.3973 74.4741 45.3973 75.3273C45.3973 76.1952 45.5321 76.9264 45.8017 77.521C46.075 78.1119 46.448 78.5588 46.9207 78.8616C47.3972 79.1608 47.9419 79.3104 48.555 79.3104C48.8947 79.3104 49.2124 79.2661 49.5078 79.1774C49.807 79.0851 50.0747 78.9503 50.3111 78.773C50.5511 78.5957 50.7524 78.3778 50.9149 78.1193C51.0811 77.8608 51.1956 77.5653 51.2584 77.233L53.3303 77.244C53.2527 77.7832 53.0847 78.2892 52.8261 78.7619C52.5713 79.2347 52.2371 79.652 51.8234 80.0139C51.4098 80.3722 50.926 80.6528 50.372 80.856C49.818 81.0554 49.2031 81.1551 48.5273 81.1551C47.5301 81.1551 46.6401 80.9243 45.8571 80.4626C45.0741 80.001 44.4574 79.3344 44.0068 78.4628C43.5563 77.5912 43.331 76.546 43.331 75.3273C43.331 74.1048 43.5581 73.0597 44.0124 72.1918C44.4666 71.3202 45.0852 70.6536 45.8682 70.1919C46.6511 69.7303 47.5375 69.4994 48.5273 69.4994C49.1588 69.4994 49.746 69.5881 50.2889 69.7653C50.8318 69.9426 51.3156 70.203 51.7403 70.5464C52.1651 70.8862 52.5141 71.3036 52.7874 71.7984C53.0643 72.2896 53.2453 72.851 53.3303 73.4825ZM59.4005 81L61.2618 69.6545H62.813L60.9516 81H59.4005ZM54.2873 78.075L54.5476 76.5239H63.2783L63.0179 78.075H54.2873ZM55.4118 81L57.2732 69.6545H58.8243L56.963 81H55.4118ZM54.9465 74.1307L55.2013 72.5795H63.932L63.6772 74.1307H54.9465Z" fill="white"/>
</g>
<defs>
<filter id="filter0_d_5820_13370" x="0" y="0" width="107" height="107" filterUnits="userSpaceOnUse" color-interpolation-filters="sRGB">
<feFlood flood-opacity="0" result="BackgroundImageFix"/>
<feColorMatrix in="SourceAlpha" type="matrix" values="0 0 0 0 0 0 0 0 0 0 0 0 0 0 0 0 0 0 127 0" result="hardAlpha"/>
<feOffset dy="2"/>
<feGaussianBlur stdDeviation="4"/>
<feColorMatrix type="matrix" values="0 0 0 0 0 0 0 0 0 0 0 0 0 0 0 0 0 0 0.75 0"/>
<feBlend mode="normal" in2="BackgroundImageFix" result="effect1_dropShadow_5820_13370"/>
<feBlend mode="normal" in="SourceGraphic" in2="effect1_dropShadow_5820_13370" result="shape"/>
</filter>
</defs>
</svg>
