<svg xmlns="http://www.w3.org/2000/svg" width="177" height="177" fill="none" viewBox="0 0 177 177"><g filter="url(#a)"><rect width="101" height="101" x="38" y="13" fill="#151b23" rx="12"/><rect width="99" height="99" x="39" y="14" stroke="#1f2937" stroke-width="2" rx="11"/><mask id="b" width="35" height="40" x="71" y="29" maskUnits="userSpaceOnUse" style="mask-type:luminance"><path fill="#fff" d="M71 29h35v39.387H71z"/></mask><g mask="url(#b)"><path fill="#00599c" d="M105.552 58.54c.276-.477.446-1.013.446-1.494V40.339c0-.482-.17-1.017-.446-1.493l-17.054 9.846z"/><path fill="#004482" d="m90.016 68.026 14.469-8.354c.417-.24.795-.657 1.07-1.132L88.5 48.693 71.445 58.54c.275.475.653.891 1.071 1.132l14.469 8.354c.833.48 2.198.48 3.031 0"/><path fill="#659ad2" d="M105.555 38.846c-.276-.476-.655-.891-1.071-1.132l-14.47-8.354c-.833-.48-2.197-.48-3.03 0l-14.47 8.354c-.834.48-1.516 1.663-1.516 2.625v16.707c0 .482.171 1.018.446 1.493l17.054-9.846 17.054-9.847z"/><path fill="#fff" d="M88.5 60.36c-6.434 0-11.668-5.234-11.668-11.667 0-6.434 5.234-11.668 11.667-11.668a11.7 11.7 0 0 1 10.103 5.83l-5.05 2.922a5.86 5.86 0 0 0-5.053-2.918 5.84 5.84 0 0 0-5.834 5.834 5.84 5.84 0 0 0 5.834 5.834 5.86 5.86 0 0 0 5.055-2.92l5.049 2.922a11.7 11.7 0 0 1-10.104 5.83"/><path fill="#fff" d="M100.166 48.044H98.87v-1.296h-1.297v1.296h-1.298v1.296h1.298v1.297h1.296v-1.296h1.296zm4.861 0h-1.296v-1.296h-1.297v1.296h-1.296v1.296h1.296v1.297h1.297v-1.296h1.296z"/></g><path fill="#fff" d="M82.83 86.483h-2.072a2.6 2.6 0 0 0-.326-.904 2.43 2.43 0 0 0-1.402-1.09 3.2 3.2 0 0 0-.97-.145q-.924 0-1.64.466-.714.46-1.118 1.351-.405.886-.405 2.166 0 1.302.405 2.194.41.886 1.119 1.34.713.45 1.634.45.51 0 .953-.134.449-.138.803-.404.36-.266.604-.654.249-.388.343-.886l2.072.011a4.5 4.5 0 0 1-.504 1.518q-.382.71-1.003 1.252a4.6 4.6 0 0 1-1.451.842q-.831.3-1.845.3-1.495 0-2.67-.693t-1.85-2-.676-3.136q0-1.833.681-3.135.682-1.307 1.856-2 1.175-.693 2.66-.693.946.001 1.76.266a4.5 4.5 0 0 1 1.452.781q.638.51 1.047 1.252.415.737.543 1.685m5.14 5.7v-7.667h1.74v7.667zm-2.964-2.964v-1.74h7.667v1.74zm13.46 2.964v-7.667h1.74v7.667zm-2.963-2.964v-1.74h7.667v1.74z"/></g><defs><filter id="a" width="177" height="177" x="0" y="0" color-interpolation-filters="sRGB" filterUnits="userSpaceOnUse"><feFlood flood-opacity="0" result="BackgroundImageFix"/><feColorMatrix in="SourceAlpha" result="hardAlpha" values="0 0 0 0 0 0 0 0 0 0 0 0 0 0 0 0 0 0 127 0"/><feMorphology in="SourceAlpha" radius="12" result="effect1_dropShadow_5820_13354"/><feOffset dy="25"/><feGaussianBlur stdDeviation="25"/><feColorMatrix values="0 0 0 0 0 0 0 0 0 0 0 0 0 0 0 0 0 0 0.25 0"/><feBlend in2="BackgroundImageFix" result="effect1_dropShadow_5820_13354"/><feBlend in="SourceGraphic" in2="effect1_dropShadow_5820_13354" result="shape"/></filter></defs></svg>