<svg width="177" height="177" viewBox="0 0 177 177" fill="none" xmlns="http://www.w3.org/2000/svg">
<g filter="url(#filter0_d_5820_13354)">
<rect x="38" y="13" width="101" height="101" rx="12" fill="#151B23"/>
<rect x="39" y="14" width="99" height="99" rx="11" stroke="#1F2937" stroke-width="2"/>
<mask id="mask0_5820_13354" style="mask-type:luminance" maskUnits="userSpaceOnUse" x="71" y="29" width="35" height="40">
<path d="M71 29H106V68.3867H71V29Z" fill="white"/>
</mask>
<g mask="url(#mask0_5820_13354)">
<path d="M105.552 58.5391C105.828 58.0627 105.998 57.5273 105.998 57.046V40.3387C105.998 39.8574 105.828 39.322 105.552 38.8457L88.498 48.6924L105.552 58.5391Z" fill="#00599C"/>
<path d="M90.0161 68.0261L104.485 59.6724C104.902 59.4312 105.28 59.0151 105.555 58.54L88.4997 48.6934L71.4453 58.54C71.7198 59.0151 72.0977 59.4312 72.5161 59.6724L86.9846 68.0261C87.8179 68.5061 89.1829 68.5061 90.0161 68.0261Z" fill="#004482"/>
<path d="M105.555 38.8461C105.279 38.3697 104.9 37.9549 104.484 37.7137L90.0144 29.36C89.1812 28.88 87.8174 28.88 86.9841 29.36L72.5132 37.7137C71.6799 38.1949 70.998 39.3765 70.998 40.3391V57.0464C70.998 57.5277 71.1691 58.0643 71.4436 58.5394L88.498 48.6927L105.552 38.8461H105.555Z" fill="#659AD2"/>
<path d="M88.4991 60.3595C82.0655 60.3595 76.832 55.126 76.832 48.6925C76.832 42.2589 82.0655 37.0254 88.4991 37.0254C90.5458 37.0292 92.5558 37.5695 94.3284 38.5926C96.1011 39.6156 97.5746 41.0856 98.6018 42.8559L93.5529 45.7766C93.0389 44.8912 92.3017 44.156 91.415 43.6441C90.5283 43.1323 89.5229 42.8618 88.4991 42.8595C86.9525 42.8612 85.4697 43.4762 84.376 44.5697C83.2822 45.6632 82.6669 47.1459 82.665 48.6925C82.6666 50.2393 83.2818 51.7223 84.3755 52.816C85.4693 53.9098 86.9523 54.525 88.4991 54.5266C89.5234 54.5243 90.5292 54.2535 91.4161 53.7413C92.3031 53.229 93.0403 52.4931 93.5541 51.6071L98.603 54.5291C97.5757 56.2995 96.1021 57.7696 94.3291 58.7927C92.5562 59.8157 90.546 60.356 88.4991 60.3595Z" fill="white"/>
<path d="M100.166 48.0441H98.87V46.748H97.5727V48.0441H96.2754V49.3402H97.5727V50.6375H98.8688V49.3414H100.165L100.166 48.0441ZM105.027 48.0441H103.731V46.748H102.434V48.0441H101.138V49.3402H102.434V50.6375H103.731V49.3414H105.027V48.0441Z" fill="white"/>
</g>
<path d="M82.8303 86.4825H80.7584C80.6993 86.1428 80.5903 85.8418 80.4315 85.5795C80.2727 85.3136 80.0751 85.0884 79.8388 84.9037C79.6024 84.719 79.3328 84.5805 79.03 84.4882C78.7308 84.3922 78.4077 84.3442 78.0605 84.3442C77.4438 84.3442 76.8972 84.4993 76.4207 84.8095C75.9443 85.1161 75.5713 85.5666 75.3017 86.1612C75.0321 86.7521 74.8973 87.4741 74.8973 88.3273C74.8973 89.1952 75.0321 89.9264 75.3017 90.521C75.575 91.1119 75.948 91.5588 76.4207 91.8616C76.8972 92.1608 77.4419 92.3104 78.055 92.3104C78.3947 92.3104 78.7124 92.2661 79.0078 92.1774C79.307 92.0851 79.5747 91.9503 79.8111 91.773C80.0511 91.5957 80.2524 91.3778 80.4149 91.1193C80.5811 90.8608 80.6956 90.5653 80.7584 90.233L82.8303 90.244C82.7527 90.7832 82.5847 91.2892 82.3261 91.7619C82.0713 92.2347 81.7371 92.652 81.3234 93.0139C80.9098 93.3722 80.426 93.6528 79.872 93.856C79.318 94.0554 78.7031 94.1551 78.0273 94.1551C77.0301 94.1551 76.1401 93.9243 75.3571 93.4626C74.5741 93.001 73.9574 92.3344 73.5068 91.4628C73.0563 90.5912 72.831 89.546 72.831 88.3273C72.831 87.1048 73.0581 86.0597 73.5124 85.1918C73.9666 84.3202 74.5852 83.6536 75.3682 83.1919C76.1511 82.7303 77.0375 82.4994 78.0273 82.4994C78.6588 82.4994 79.246 82.5881 79.7889 82.7653C80.3318 82.9426 80.8156 83.203 81.2403 83.5464C81.6651 83.8862 82.0141 84.3036 82.2874 84.7984C82.5643 85.2896 82.7453 85.851 82.8303 86.4825ZM87.9698 92.183V84.5159H89.7093V92.183H87.9698ZM85.006 89.2192V87.4797H92.673V89.2192H85.006ZM98.4663 92.183V84.5159H100.206V92.183H98.4663ZM95.5025 89.2192V87.4797H103.17V89.2192H95.5025Z" fill="white"/>
</g>
<defs>
<filter id="filter0_d_5820_13354" x="0" y="0" width="177" height="177" filterUnits="userSpaceOnUse" color-interpolation-filters="sRGB">
<feFlood flood-opacity="0" result="BackgroundImageFix"/>
<feColorMatrix in="SourceAlpha" type="matrix" values="0 0 0 0 0 0 0 0 0 0 0 0 0 0 0 0 0 0 127 0" result="hardAlpha"/>
<feMorphology radius="12" operator="erode" in="SourceAlpha" result="effect1_dropShadow_5820_13354"/>
<feOffset dy="25"/>
<feGaussianBlur stdDeviation="25"/>
<feColorMatrix type="matrix" values="0 0 0 0 0 0 0 0 0 0 0 0 0 0 0 0 0 0 0.25 0"/>
<feBlend mode="normal" in2="BackgroundImageFix" result="effect1_dropShadow_5820_13354"/>
<feBlend mode="normal" in="SourceGraphic" in2="effect1_dropShadow_5820_13354" result="shape"/>
</filter>
</defs>
</svg>
