<svg width="107" height="107" viewBox="0 0 107 107" fill="none" xmlns="http://www.w3.org/2000/svg">
<g filter="url(#filter0_d_5820_13354)">
<rect x="8" y="6" width="91" height="91" rx="12" fill="#151B23"/>
<rect x="9" y="7" width="89" height="89" rx="11" stroke="#1F2937" stroke-width="2"/>
<mask id="mask0_5820_13354" style="mask-type:luminance" maskUnits="userSpaceOnUse" x="36" y="18" width="35" height="40">
<path d="M36 18H71V57.3867H36V18Z" fill="white"/>
</mask>
<g mask="url(#mask0_5820_13354)">
<path d="M70.5525 47.5391C70.8282 47.0627 70.998 46.5273 70.998 46.046V29.3387C70.998 28.8574 70.8282 28.322 70.5525 27.8457L53.498 37.6924L70.5525 47.5391Z" fill="#00599C"/>
<path d="M55.0161 57.0261L69.4846 48.6724C69.9018 48.4312 70.2797 48.0151 70.5554 47.54L53.4997 37.6934L36.4453 47.54C36.7198 48.0151 37.0977 48.4312 37.5161 48.6724L51.9846 57.0261C52.8179 57.5061 54.1829 57.5061 55.0161 57.0261Z" fill="#004482"/>
<path d="M70.5549 27.8461C70.2792 27.3697 69.9001 26.9549 69.4841 26.7137L55.0144 18.36C54.1812 17.88 52.8174 17.88 51.9841 18.36L37.5132 26.7137C36.6799 27.1949 35.998 28.3765 35.998 29.3391V46.0464C35.998 46.5277 36.1691 47.0643 36.4436 47.5394L53.498 37.6927L70.5525 27.8461H70.5549Z" fill="#659AD2"/>
<path d="M53.4991 49.3595C47.0655 49.3595 41.832 44.126 41.832 37.6925C41.832 31.2589 47.0655 26.0254 53.4991 26.0254C55.5458 26.0292 57.5558 26.5695 59.3284 27.5926C61.1011 28.6156 62.5746 30.0856 63.6018 31.8559L58.5529 34.7766C58.0389 33.8912 57.3017 33.156 56.415 32.6441C55.5283 32.1323 54.5229 31.8618 53.4991 31.8595C51.9525 31.8612 50.4697 32.4762 49.376 33.5697C48.2822 34.6632 47.6669 36.1459 47.665 37.6925C47.6666 39.2393 48.2818 40.7223 49.3755 41.816C50.4693 42.9098 51.9523 43.525 53.4991 43.5266C54.5234 43.5243 55.5292 43.2535 56.4161 42.7413C57.3031 42.229 58.0403 41.4931 58.5541 40.6071L63.603 43.5291C62.5757 45.2995 61.1021 46.7696 59.3291 47.7927C57.5562 48.8157 55.546 49.356 53.4991 49.3595Z" fill="white"/>
<path d="M65.1661 37.0441H63.87V35.748H62.5727V37.0441H61.2754V38.3402H62.5727V39.6375H63.8688V38.3414H65.1648L65.1661 37.0441ZM70.0266 37.0441H68.7306V35.748H67.4345V37.0441H66.1384V38.3402H67.4345V39.6375H68.7306V38.3414H70.0266V37.0441Z" fill="white"/>
</g>
<path d="M47.8303 73.4825H45.7584C45.6993 73.1428 45.5903 72.8418 45.4315 72.5795C45.2727 72.3136 45.0751 72.0884 44.8388 71.9037C44.6024 71.719 44.3328 71.5805 44.03 71.4882C43.7308 71.3922 43.4077 71.3442 43.0605 71.3442C42.4438 71.3442 41.8972 71.4993 41.4207 71.8095C40.9443 72.1161 40.5713 72.5666 40.3017 73.1612C40.0321 73.7521 39.8973 74.4741 39.8973 75.3273C39.8973 76.1952 40.0321 76.9264 40.3017 77.521C40.575 78.1119 40.948 78.5588 41.4207 78.8616C41.8972 79.1608 42.4419 79.3104 43.055 79.3104C43.3947 79.3104 43.7124 79.2661 44.0078 79.1774C44.307 79.0851 44.5747 78.9503 44.8111 78.773C45.0511 78.5957 45.2524 78.3778 45.4149 78.1193C45.5811 77.8608 45.6956 77.5653 45.7584 77.233L47.8303 77.244C47.7527 77.7832 47.5847 78.2892 47.3261 78.7619C47.0713 79.2347 46.7371 79.652 46.3234 80.0139C45.9098 80.3722 45.426 80.6528 44.872 80.856C44.318 81.0554 43.7031 81.1551 43.0273 81.1551C42.0301 81.1551 41.1401 80.9243 40.3571 80.4626C39.5741 80.001 38.9574 79.3344 38.5068 78.4628C38.0563 77.5912 37.831 76.546 37.831 75.3273C37.831 74.1048 38.0581 73.0597 38.5124 72.1918C38.9666 71.3202 39.5852 70.6536 40.3682 70.1919C41.1511 69.7303 42.0375 69.4994 43.0273 69.4994C43.6588 69.4994 44.246 69.5881 44.7889 69.7653C45.3318 69.9426 45.8156 70.203 46.2403 70.5464C46.6651 70.8862 47.0141 71.3036 47.2874 71.7984C47.5643 72.2896 47.7453 72.851 47.8303 73.4825ZM52.9698 79.183V71.5159H54.7093V79.183H52.9698ZM50.006 76.2192V74.4797H57.673V76.2192H50.006ZM63.4663 79.183V71.5159H65.2058V79.183H63.4663ZM60.5025 76.2192V74.4797H68.1695V76.2192H60.5025Z" fill="white"/>
</g>
<defs>
<filter id="filter0_d_5820_13354" x="0" y="0" width="107" height="107" filterUnits="userSpaceOnUse" color-interpolation-filters="sRGB">
<feFlood flood-opacity="0" result="BackgroundImageFix"/>
<feColorMatrix in="SourceAlpha" type="matrix" values="0 0 0 0 0 0 0 0 0 0 0 0 0 0 0 0 0 0 127 0" result="hardAlpha"/>
<feOffset dy="2"/>
<feGaussianBlur stdDeviation="4"/>
<feColorMatrix type="matrix" values="0 0 0 0 0 0 0 0 0 0 0 0 0 0 0 0 0 0 0.25 0"/>
<feBlend mode="normal" in2="BackgroundImageFix" result="effect1_dropShadow_5820_13354"/>
<feBlend mode="normal" in="SourceGraphic" in2="effect1_dropShadow_5820_13354" result="shape"/>
</filter>
</defs>
</svg>
