<svg width="107" height="109" viewBox="0 0 107 109" fill="none" xmlns="http://www.w3.org/2000/svg">
<g filter="url(#filter0_d_5834_13436)">
<rect x="8" y="6" width="91" height="93" rx="12" fill="#151B23"/>
<rect x="9" y="7" width="89" height="91" rx="11" stroke="#1F2937" stroke-width="2"/>
<g clip-path="url(#clip0_5834_13436)">
<path fill-rule="evenodd" clip-rule="evenodd" d="M64.3015 49.6594C64.3015 48.4779 63.34 47.5165 62.1585 47.5165C60.9771 47.5165 60.0156 48.4779 60.0156 49.6594C60.0156 50.8406 60.9771 51.8021 62.1585 51.8021C63.34 51.8021 64.3015 50.8406 64.3015 49.6594ZM65.73 49.6594C65.73 51.6285 64.1279 53.2306 62.1585 53.2306C60.1894 53.2306 58.5871 51.6285 58.5871 49.6594C58.5871 47.69 60.1894 46.0879 62.1585 46.0879C64.1279 46.0879 65.73 47.69 65.73 49.6594ZM46.6371 39.3514C46.6371 38.17 45.6757 37.2086 44.4943 37.2086C43.3121 37.2086 42.3514 38.17 42.3514 39.3514C42.3514 40.5329 43.3121 41.4943 44.4943 41.4943C45.6757 41.4943 46.6371 40.5329 46.6371 39.3514ZM48.0657 39.3514C48.0657 41.3207 46.4629 42.9229 44.4943 42.9229C42.525 42.9229 40.9229 41.3207 40.9229 39.3514C40.9229 37.3821 42.525 35.78 44.4943 35.78C46.4629 35.78 48.0657 37.3821 48.0657 39.3514ZM53.3071 28.1479C53.3071 29.3293 54.2686 30.2907 55.45 30.2907C56.6321 30.2907 57.5929 29.3293 57.5929 28.1479C57.5929 26.9657 56.6321 26.005 55.45 26.005C54.2686 26.005 53.3071 26.9657 53.3071 28.1479ZM51.8786 28.1479C51.8786 26.1786 53.4814 24.5764 55.45 24.5764C57.4194 24.5764 59.0215 26.1786 59.0215 28.1479C59.0215 30.1171 57.4194 31.7193 55.45 31.7193C53.4814 31.7193 51.8786 30.1171 51.8786 28.1479ZM72.0715 41C72.0715 34.3764 68.52 28.2486 62.7944 24.935C61.7679 25.1421 60.775 25.4257 59.5365 25.8736L59.0506 24.53C59.6971 24.2971 60.2756 24.1086 60.8329 23.9471C58.5329 22.955 56.0344 22.4286 53.5 22.4286C52.2936 22.4286 51.1064 22.5536 49.9464 22.78C50.7864 23.2714 51.5314 23.7614 52.255 24.31L51.3914 25.4479C50.3714 24.675 49.3143 24.02 47.9264 23.2929C40.9129 25.4986 35.8614 31.6843 35.0593 38.9486C36.53 38.6507 37.9421 38.4886 39.51 38.45L39.545 39.8779C37.9021 39.9186 36.4907 40.0929 34.9479 40.4321C34.9414 40.6214 34.9286 40.8129 34.9286 41C34.9286 47.1844 37.9879 52.8829 43.0193 56.3194C42.1243 53.6544 41.6786 51.1356 41.6786 48.6756C41.6786 47.2729 41.92 46.1206 42.175 44.9015C42.2343 44.6194 42.2943 44.3321 42.3529 44.0344L43.755 44.3106C43.695 44.6135 43.6336 44.9071 43.5736 45.195C43.3236 46.3894 43.1071 47.4206 43.1071 48.6756C43.1071 51.4671 43.72 54.3535 44.9671 57.4879C47.6236 58.8671 50.4921 59.5715 53.5 59.5715C55.4685 59.5715 57.39 59.2571 59.2229 58.6529C59.9421 57.2335 60.4756 55.8944 60.9215 54.3565L62.2935 54.7544C61.9679 55.8756 61.5944 56.895 61.1494 57.9121C62.3021 57.3935 63.3929 56.7521 64.4165 56.0035C64.17 55.3994 63.9056 54.7985 63.6135 54.2135L64.8915 53.5744C65.14 54.0715 65.3679 54.58 65.5856 55.0915C69.7179 51.5535 72.0715 46.4715 72.0715 41ZM73.5 41C73.5 47.2335 70.6671 52.9994 65.7294 56.8206C64.5065 57.7706 63.18 58.5594 61.7779 59.1944C61.1829 59.4644 60.5771 59.7144 59.9544 59.9244C57.8971 60.6379 55.7235 61 53.5 61C50.2143 61 46.9514 60.1815 44.0629 58.6329C37.5479 55.1471 33.5 48.3906 33.5 41C33.5 40.51 33.5129 40.1371 33.5421 39.7921C34.0286 31.4464 39.7543 24.2229 47.7864 21.8329C49.6157 21.2807 51.5393 21 53.5 21C56.9344 21 60.3135 21.8843 63.2744 23.5564C69.5806 27.0893 73.5 33.7743 73.5 41ZM51.5814 30.6164L50.6429 29.54C49.0414 30.9371 47.7957 32.4207 46.3407 34.6614L47.5393 35.4393C48.9164 33.3171 50.0879 31.92 51.5814 30.6164ZM49.4107 39.8764L48.9464 41.2271C52.2271 42.3535 55.0894 44.1506 57.9529 46.8829L58.9394 45.8494C55.9206 42.97 52.8929 41.0721 49.4107 39.8764ZM58.9615 31.4771C61.6415 35.5643 63.1506 40.0507 63.4465 44.8129L62.0206 44.9015C61.74 40.39 60.3094 36.1371 57.7679 32.2607L58.9615 31.4771Z" fill="#7847D6"/>
</g>
<path d="M30.331 75.2173H28.7372C28.6918 74.956 28.608 74.7244 28.4858 74.5227C28.3636 74.3182 28.2116 74.1449 28.0298 74.0028C27.848 73.8608 27.6406 73.7543 27.4077 73.6832C27.1776 73.6094 26.929 73.5724 26.6619 73.5724C26.1875 73.5724 25.767 73.6918 25.4006 73.9304C25.0341 74.1662 24.7472 74.5128 24.5398 74.9702C24.3324 75.4247 24.2287 75.9801 24.2287 76.6364C24.2287 77.304 24.3324 77.8665 24.5398 78.3239C24.75 78.7784 25.0369 79.1222 25.4006 79.3551C25.767 79.5852 26.1861 79.7003 26.6577 79.7003C26.919 79.7003 27.1634 79.6662 27.3906 79.598C27.6207 79.527 27.8267 79.4233 28.0085 79.2869C28.1932 79.1506 28.348 78.983 28.473 78.7841C28.6009 78.5852 28.6889 78.358 28.7372 78.1023L30.331 78.1108C30.2713 78.5256 30.142 78.9148 29.9432 79.2784C29.7472 79.642 29.4901 79.9631 29.1719 80.2415C28.8537 80.517 28.4815 80.733 28.0554 80.8892C27.6293 81.0426 27.1563 81.1193 26.6364 81.1193C25.8693 81.1193 25.1847 80.9418 24.5824 80.5866C23.9801 80.2315 23.5057 79.7188 23.1591 79.0483C22.8125 78.3778 22.6392 77.5739 22.6392 76.6364C22.6392 75.696 22.8139 74.892 23.1634 74.2244C23.5128 73.554 23.9886 73.0412 24.5909 72.6861C25.1932 72.331 25.875 72.1534 26.6364 72.1534C27.1222 72.1534 27.5739 72.2216 27.9915 72.358C28.4091 72.4943 28.7813 72.6946 29.108 72.9588C29.4347 73.2202 29.7031 73.5412 29.9134 73.9219C30.1264 74.2997 30.2656 74.7315 30.331 75.2173ZM33.2532 72.2727V81H31.7106V72.2727H33.2532ZM37.6946 81.1278C37.0554 81.1278 36.5014 80.9872 36.0327 80.706C35.5639 80.4247 35.2003 80.0312 34.9418 79.5256C34.6861 79.0199 34.5582 78.429 34.5582 77.7528C34.5582 77.0767 34.6861 76.4844 34.9418 75.9759C35.2003 75.4673 35.5639 75.0724 36.0327 74.7912C36.5014 74.5099 37.0554 74.3693 37.6946 74.3693C38.3338 74.3693 38.8878 74.5099 39.3565 74.7912C39.8253 75.0724 40.1875 75.4673 40.4432 75.9759C40.7017 76.4844 40.831 77.0767 40.831 77.7528C40.831 78.429 40.7017 79.0199 40.4432 79.5256C40.1875 80.0312 39.8253 80.4247 39.3565 80.706C38.8878 80.9872 38.3338 81.1278 37.6946 81.1278ZM37.7031 79.892C38.0497 79.892 38.3395 79.7969 38.5724 79.6065C38.8054 79.4134 38.9787 79.1548 39.0923 78.831C39.2088 78.5071 39.267 78.1463 39.267 77.7486C39.267 77.348 39.2088 76.9858 39.0923 76.6619C38.9787 76.3352 38.8054 76.0753 38.5724 75.8821C38.3395 75.6889 38.0497 75.5923 37.7031 75.5923C37.348 75.5923 37.0526 75.6889 36.8168 75.8821C36.5838 76.0753 36.4091 76.3352 36.2926 76.6619C36.179 76.9858 36.1222 77.348 36.1222 77.7486C36.1222 78.1463 36.179 78.5071 36.2926 78.831C36.4091 79.1548 36.5838 79.4134 36.8168 79.6065C37.0526 79.7969 37.348 79.892 37.7031 79.892ZM46.3121 78.2472V74.4545H47.8548V81H46.359V79.8366H46.2908C46.1431 80.2031 45.9002 80.5028 45.5621 80.7358C45.2269 80.9687 44.8136 81.0852 44.3221 81.0852C43.8931 81.0852 43.5138 80.9901 43.1843 80.7997C42.8576 80.6065 42.6019 80.3267 42.4173 79.9602C42.2326 79.5909 42.1403 79.1449 42.1403 78.6222V74.4545H43.6829V78.3835C43.6829 78.7983 43.7965 79.1278 44.0238 79.3722C44.2511 79.6165 44.5494 79.7386 44.9187 79.7386C45.146 79.7386 45.3661 79.6832 45.5792 79.5724C45.7923 79.4616 45.967 79.2969 46.1033 79.0781C46.2425 78.8565 46.3121 78.5795 46.3121 78.2472ZM51.87 81.1151C51.3558 81.1151 50.8956 80.983 50.4893 80.7188C50.0831 80.4545 49.7621 80.071 49.5263 79.5682C49.2905 79.0653 49.1726 78.4545 49.1726 77.7358C49.1726 77.0085 49.2919 76.3949 49.5305 75.8949C49.772 75.392 50.0973 75.0128 50.5064 74.7571C50.9155 74.4986 51.3714 74.3693 51.8743 74.3693C52.2578 74.3693 52.5732 74.4347 52.8203 74.5653C53.0675 74.6932 53.2635 74.848 53.4084 75.0298C53.5533 75.2088 53.6655 75.3778 53.745 75.5369H53.8089V72.2727H55.3558V81H53.8388V79.9688H53.745C53.6655 80.1278 53.5504 80.2969 53.3999 80.4759C53.2493 80.652 53.0504 80.8026 52.8033 80.9276C52.5561 81.0526 52.245 81.1151 51.87 81.1151ZM52.3004 79.8494C52.6271 79.8494 52.9055 79.7614 53.1357 79.5852C53.3658 79.4062 53.5405 79.1577 53.6598 78.8395C53.7791 78.5213 53.8388 78.1506 53.8388 77.7273C53.8388 77.304 53.7791 76.9361 53.6598 76.6236C53.5433 76.3111 53.37 76.0682 53.1399 75.8949C52.9126 75.7216 52.6328 75.6349 52.3004 75.6349C51.9567 75.6349 51.6697 75.7244 51.4396 75.9034C51.2095 76.0824 51.0362 76.3295 50.9197 76.6449C50.8033 76.9602 50.745 77.321 50.745 77.7273C50.745 78.1364 50.8033 78.5014 50.9197 78.8224C51.0391 79.1406 51.2138 79.392 51.4439 79.5767C51.6768 79.7585 51.9624 79.8494 52.3004 79.8494ZM60.315 74.4545V75.6477H56.4457V74.4545H60.315ZM57.413 81V73.8366C57.413 73.3963 57.5039 73.0298 57.6857 72.7372C57.8704 72.4446 58.1175 72.2259 58.4272 72.081C58.7369 71.9361 59.0806 71.8636 59.4585 71.8636C59.7255 71.8636 59.9627 71.8849 60.1701 71.9276C60.3775 71.9702 60.5309 72.0085 60.6303 72.0426L60.3235 73.2358C60.2582 73.2159 60.1758 73.196 60.0763 73.1761C59.9769 73.1534 59.8661 73.142 59.744 73.142C59.457 73.142 59.2539 73.2116 59.1346 73.3509C59.0181 73.4872 58.9599 73.6832 58.9599 73.9389V81H57.413ZM61.5231 81V74.4545H63.0188V75.5455H63.087C63.2063 75.1676 63.4109 74.8764 63.7006 74.6719C63.9933 74.4645 64.3271 74.3608 64.7021 74.3608C64.7873 74.3608 64.8825 74.3651 64.9876 74.3736C65.0955 74.3793 65.185 74.3892 65.256 74.4034V75.8224C65.1907 75.7997 65.087 75.7798 64.945 75.7628C64.8058 75.7429 64.6708 75.733 64.5401 75.733C64.2589 75.733 64.006 75.794 63.7816 75.9162C63.56 76.0355 63.3853 76.2017 63.2575 76.4148C63.1296 76.6278 63.0657 76.8736 63.0657 77.152V81H61.5231ZM68.8665 81.1278C68.2273 81.1278 67.6733 80.9872 67.2045 80.706C66.7358 80.4247 66.3722 80.0312 66.1136 79.5256C65.858 79.0199 65.7301 78.429 65.7301 77.7528C65.7301 77.0767 65.858 76.4844 66.1136 75.9759C66.3722 75.4673 66.7358 75.0724 67.2045 74.7912C67.6733 74.5099 68.2273 74.3693 68.8665 74.3693C69.5057 74.3693 70.0597 74.5099 70.5284 74.7912C70.9972 75.0724 71.3594 75.4673 71.6151 75.9759C71.8736 76.4844 72.0028 77.0767 72.0028 77.7528C72.0028 78.429 71.8736 79.0199 71.6151 79.5256C71.3594 80.0312 70.9972 80.4247 70.5284 80.706C70.0597 80.9872 69.5057 81.1278 68.8665 81.1278ZM68.875 79.892C69.2216 79.892 69.5114 79.7969 69.7443 79.6065C69.9773 79.4134 70.1506 79.1548 70.2642 78.831C70.3807 78.5071 70.4389 78.1463 70.4389 77.7486C70.4389 77.348 70.3807 76.9858 70.2642 76.6619C70.1506 76.3352 69.9773 76.0753 69.7443 75.8821C69.5114 75.6889 69.2216 75.5923 68.875 75.5923C68.5199 75.5923 68.2244 75.6889 67.9886 75.8821C67.7557 76.0753 67.581 76.3352 67.4645 76.6619C67.3509 76.9858 67.294 77.348 67.294 77.7486C67.294 78.1463 67.3509 78.5071 67.4645 78.831C67.581 79.1548 67.7557 79.4134 67.9886 79.6065C68.2244 79.7969 68.5199 79.892 68.875 79.892ZM74.8548 77.1648V81H73.3121V74.4545H74.7866V75.5668H74.8633C75.0138 75.2003 75.2539 74.9091 75.5835 74.6932C75.9158 74.4773 76.3263 74.3693 76.815 74.3693C77.2667 74.3693 77.6602 74.4659 77.9954 74.6591C78.3335 74.8523 78.5948 75.1321 78.7795 75.4986C78.967 75.8651 79.0593 76.3097 79.0565 76.8324V81H77.5138V77.071C77.5138 76.6335 77.4002 76.2912 77.1729 76.044C76.9485 75.7969 76.6374 75.6733 76.2397 75.6733C75.9698 75.6733 75.7298 75.733 75.5195 75.8523C75.3121 75.9687 75.1488 76.1378 75.0295 76.3594C74.913 76.581 74.8548 76.8494 74.8548 77.1648ZM83.8931 74.4545V75.6477H80.1303V74.4545H83.8931ZM81.0593 72.8864H82.6019V79.0312C82.6019 79.2386 82.6332 79.3977 82.6957 79.5085C82.761 79.6165 82.8462 79.6903 82.9513 79.7301C83.0565 79.7699 83.1729 79.7898 83.3008 79.7898C83.3974 79.7898 83.4854 79.7827 83.565 79.7685C83.6474 79.7543 83.7099 79.7415 83.7525 79.7301L84.0124 80.9361C83.93 80.9645 83.8121 80.9957 83.6587 81.0298C83.5082 81.0639 83.3235 81.0838 83.1048 81.0895C82.7184 81.1009 82.3704 81.0426 82.0607 80.9148C81.7511 80.7841 81.5053 80.5824 81.3235 80.3097C81.1445 80.0369 81.0565 79.696 81.0593 79.2869V72.8864Z" fill="white"/>
</g>
<defs>
<filter id="filter0_d_5834_13436" x="0" y="0" width="107" height="109" filterUnits="userSpaceOnUse" color-interpolation-filters="sRGB">
<feFlood flood-opacity="0" result="BackgroundImageFix"/>
<feColorMatrix in="SourceAlpha" type="matrix" values="0 0 0 0 0 0 0 0 0 0 0 0 0 0 0 0 0 0 127 0" result="hardAlpha"/>
<feOffset dy="2"/>
<feGaussianBlur stdDeviation="4"/>
<feColorMatrix type="matrix" values="0 0 0 0 0 0 0 0 0 0 0 0 0 0 0 0 0 0 0.25 0"/>
<feBlend mode="normal" in2="BackgroundImageFix" result="effect1_dropShadow_5834_13436"/>
<feBlend mode="normal" in="SourceGraphic" in2="effect1_dropShadow_5834_13436" result="shape"/>
</filter>
<clipPath id="clip0_5834_13436">
<rect width="40" height="40" fill="white" transform="translate(33.5 21)"/>
</clipPath>
</defs>
</svg>
