<svg width="107" height="109" viewBox="0 0 107 109" fill="none" xmlns="http://www.w3.org/2000/svg">
<g filter="url(#filter0_d_5828_16495)">
<rect x="8" y="6" width="91" height="93" rx="12" fill="#151B23"/>
<rect x="9" y="7" width="89" height="91" rx="11" stroke="#1F2937" stroke-width="2"/>
<g clip-path="url(#clip0_5828_16495)">
<path d="M41.8879 21.875C40.452 21.875 39.2175 22.8925 38.9432 24.3019L38.803 25.0222C38.4426 26.8743 39.861 28.5953 41.7478 28.5953H62.7914C64.1658 28.5953 65.195 29.8553 64.9207 31.2021C64.7145 32.2143 63.8243 32.9414 62.7914 32.9414H39.7062C38.2742 32.9414 37.0419 33.9535 36.7635 35.3581L36.6247 36.0584C36.257 37.9133 37.6764 39.6416 39.5674 39.6416H59.601C61.4935 39.6416 62.9133 41.3725 62.5431 43.2285L62.0712 45.5939C61.8599 46.6531 61.0956 47.5169 60.0701 47.8557L51.7158 50.615C51.0608 50.8313 50.3513 50.8153 49.7067 50.5697L42.4338 47.7984C41.6905 47.5151 41.2609 46.7362 41.4178 45.9564C41.6205 44.9488 40.85 44.0078 39.8222 44.0078H37.555C36.1222 44.0078 34.8894 45.0209 34.6118 46.4265L33.99 49.5752C33.7069 51.0085 34.4975 52.4373 35.8622 52.9588L48.2954 57.7104C48.9417 57.9574 49.6535 57.9734 50.3103 57.7557L65.8465 52.6055C66.8711 52.2659 67.6342 51.4021 67.8448 50.3435L69.9185 39.9233L70.4014 37.4887L72.7887 25.459C73.1569 23.6038 71.7375 21.875 69.8461 21.875H41.8879Z" fill="#3B82F6"/>
</g>
<path d="M50.2195 75.2536H48.3601C48.3071 74.9486 48.2093 74.6785 48.0668 74.4432C47.9242 74.2045 47.7469 74.0024 47.5348 73.8366C47.3227 73.6709 47.0807 73.5466 46.8089 73.4638C46.5405 73.3776 46.2505 73.3345 45.9389 73.3345C45.3854 73.3345 44.8949 73.4737 44.4673 73.7521C44.0398 74.0272 43.705 74.4316 43.4631 74.9652C43.2211 75.4955 43.1001 76.1435 43.1001 76.9091C43.1001 77.688 43.2211 78.3442 43.4631 78.8778C43.7083 79.4081 44.0431 79.8092 44.4673 80.081C44.8949 80.3494 45.3838 80.4837 45.9339 80.4837C46.2389 80.4837 46.5239 80.4439 46.7891 80.3643C47.0575 80.2815 47.2978 80.1605 47.5099 80.0014C47.7254 79.8423 47.906 79.6468 48.0518 79.4148C48.201 79.1828 48.3037 78.9176 48.3601 78.6193L50.2195 78.6293C50.1499 79.1132 49.9991 79.5672 49.767 79.9915C49.5384 80.4157 49.2384 80.7902 48.8672 81.1151C48.496 81.4366 48.0618 81.6884 47.5646 81.8707C47.0675 82.0497 46.5156 82.1392 45.9091 82.1392C45.0142 82.1392 44.2154 81.9321 43.5128 81.5178C42.8101 81.1035 42.2566 80.5052 41.8523 79.723C41.4479 78.9408 41.2457 78.0028 41.2457 76.9091C41.2457 75.812 41.4496 74.8741 41.8572 74.0952C42.2649 73.313 42.8201 72.7147 43.5227 72.3004C44.2254 71.8861 45.0208 71.679 45.9091 71.679C46.4759 71.679 47.0028 71.7585 47.4901 71.9176C47.9773 72.0767 48.4115 72.3104 48.7926 72.6186C49.1738 72.9235 49.487 73.2981 49.7322 73.7422C49.9808 74.183 50.1432 74.6868 50.2195 75.2536ZM57.8645 76.3821L56.2239 76.5611C56.1775 76.3954 56.0963 76.2396 55.9803 76.0938C55.8676 75.9479 55.7151 75.8303 55.5229 75.7408C55.3307 75.6513 55.0953 75.6065 54.8169 75.6065C54.4424 75.6065 54.1275 75.6877 53.8723 75.8501C53.6204 76.0125 53.4962 76.223 53.4995 76.4815C53.4962 76.7036 53.5774 76.8842 53.7431 77.0234C53.9121 77.1626 54.1905 77.277 54.5783 77.3665L55.8809 77.6449C56.6034 77.8007 57.1403 78.0476 57.4917 78.3857C57.8463 78.7237 58.0253 79.1662 58.0286 79.7131C58.0253 80.1937 57.8844 80.6179 57.606 80.9858C57.3309 81.3504 56.9481 81.6354 56.4576 81.8409C55.967 82.0464 55.4036 82.1491 54.7672 82.1491C53.8326 82.1491 53.0802 81.9536 52.5101 81.5625C51.94 81.1681 51.6003 80.6196 51.4909 79.9169L53.2459 79.7479C53.3255 80.0926 53.4945 80.3527 53.753 80.5284C54.0115 80.7041 54.348 80.7919 54.7623 80.7919C55.1898 80.7919 55.5328 80.7041 55.7914 80.5284C56.0532 80.3527 56.1841 80.1357 56.1841 79.8771C56.1841 79.6584 56.0996 79.4777 55.9306 79.3352C55.7649 79.1927 55.5063 79.0833 55.155 79.0071L53.8525 78.7337C53.12 78.5812 52.5781 78.3243 52.2267 77.9631C51.8754 77.5985 51.7014 77.1378 51.7047 76.581C51.7014 76.1103 51.829 75.7027 52.0875 75.358C52.3494 75.0099 52.7123 74.7415 53.1763 74.5526C53.6436 74.3603 54.1822 74.2642 54.7921 74.2642C55.687 74.2642 56.3913 74.4548 56.905 74.8359C57.4221 75.2171 57.7419 75.7325 57.8645 76.3821ZM65.5481 76.3821L63.9075 76.5611C63.8611 76.3954 63.7799 76.2396 63.6639 76.0938C63.5512 75.9479 63.3987 75.8303 63.2065 75.7408C63.0143 75.6513 62.7789 75.6065 62.5005 75.6065C62.126 75.6065 61.8111 75.6877 61.5559 75.8501C61.304 76.0125 61.1797 76.223 61.1831 76.4815C61.1797 76.7036 61.2609 76.8842 61.4267 77.0234C61.5957 77.1626 61.8741 77.277 62.2619 77.3665L63.5645 77.6449C64.287 77.8007 64.8239 78.0476 65.1752 78.3857C65.5299 78.7237 65.7089 79.1662 65.7122 79.7131C65.7089 80.1937 65.568 80.6179 65.2896 80.9858C65.0145 81.3504 64.6317 81.6354 64.1412 81.8409C63.6506 82.0464 63.0872 82.1491 62.4508 82.1491C61.5162 82.1491 60.7638 81.9536 60.1937 81.5625C59.6236 81.1681 59.2839 80.6196 59.1745 79.9169L60.9295 79.7479C61.0091 80.0926 61.1781 80.3527 61.4366 80.5284C61.6951 80.7041 62.0315 80.7919 62.4458 80.7919C62.8734 80.7919 63.2164 80.7041 63.475 80.5284C63.7368 80.3527 63.8677 80.1357 63.8677 79.8771C63.8677 79.6584 63.7832 79.4777 63.6142 79.3352C63.4484 79.1927 63.1899 79.0833 62.8386 79.0071L61.536 78.7337C60.8036 78.5812 60.2617 78.3243 59.9103 77.9631C59.559 77.5985 59.385 77.1378 59.3883 76.581C59.385 76.1103 59.5126 75.7027 59.7711 75.358C60.033 75.0099 60.3959 74.7415 60.8599 74.5526C61.3272 74.3603 61.8658 74.2642 62.4757 74.2642C63.3706 74.2642 64.0749 74.4548 64.5886 74.8359C65.1056 75.2171 65.4255 75.7325 65.5481 76.3821Z" fill="white"/>
</g>
<defs>
<filter id="filter0_d_5828_16495" x="0" y="0" width="107" height="109" filterUnits="userSpaceOnUse" color-interpolation-filters="sRGB">
<feFlood flood-opacity="0" result="BackgroundImageFix"/>
<feColorMatrix in="SourceAlpha" type="matrix" values="0 0 0 0 0 0 0 0 0 0 0 0 0 0 0 0 0 0 127 0" result="hardAlpha"/>
<feOffset dy="2"/>
<feGaussianBlur stdDeviation="4"/>
<feColorMatrix type="matrix" values="0 0 0 0 0 0 0 0 0 0 0 0 0 0 0 0 0 0 0.25 0"/>
<feBlend mode="normal" in2="BackgroundImageFix" result="effect1_dropShadow_5828_16495"/>
<feBlend mode="normal" in="SourceGraphic" in2="effect1_dropShadow_5828_16495" result="shape"/>
</filter>
<clipPath id="clip0_5828_16495">
<rect width="40" height="40" fill="white" transform="translate(33.5 20)"/>
</clipPath>
</defs>
</svg>
