<svg xmlns="http://www.w3.org/2000/svg" width="91" height="91" fill="none" viewBox="0 0 91 91"><rect width="89" height="89" x="1" y="1" fill="#151b23" rx="11"/><rect width="89" height="89" x="1" y="1" stroke="#1f2937" stroke-width="2" rx="11"/><path fill="#66c3fa" d="M46.538 14.486c-.428.002-.84.172-1.145.472l-.017.012-10.722 6.198L45.35 31.864v.006l12.853 12.856 2.452-4.415-8.836-21.217-4.124-4.124a1.64 1.64 0 0 0-1.157-.484"/><path fill="#215896" d="m34.679 21.142-6.194 10.714-.013.017a1.627 1.627 0 0 0 .012 2.302l5.132 5.138 20.08 7.9 4.541-2.522-.122-.122-.031.002-12.59-12.61h-.015z"/><path fill="#235997" d="M34.653 21.147 45.593 32.1h.017L58.2 44.706l4.795-.913L63 29.61l-5.06-4.96c-1.109-1.086-2.812-1.786-4.524-2.017l.004-.055z"/><path fill="#58b6f0" d="m34.665 21.161 10.948 10.947v.015l12.6 12.6-.917 4.792H43.114l-4.96-5.065c-1.084-1.108-1.783-2.812-2.014-4.524l-.055.005z"/><path fill="#fff" d="M33.964 75h-3.845V63.654h3.922q1.69 0 2.903.682a4.56 4.56 0 0 1 1.872 1.944q.654 1.269.654 3.036 0 1.773-.66 3.047a4.56 4.56 0 0 1-1.888 1.956q-1.23.681-2.958.681m-1.79-1.778h1.69q1.186 0 1.978-.432a2.76 2.76 0 0 0 1.19-1.302q.4-.87.4-2.172t-.4-2.16q-.398-.865-1.18-1.291-.775-.432-1.927-.432h-1.75zm11.609 1.95q-.81 0-1.457-.288a2.4 2.4 0 0 1-1.02-.865q-.37-.57-.37-1.407 0-.72.265-1.19.267-.472.726-.754a3.7 3.7 0 0 1 1.036-.427q.581-.15 1.202-.216.748-.077 1.213-.138.466-.066.676-.2.216-.138.216-.426v-.033q0-.626-.37-.97-.372-.343-1.07-.343-.736 0-1.169.32a1.6 1.6 0 0 0-.576.76l-1.873-.266a3 3 0 0 1 .732-1.296 3.2 3.2 0 0 1 1.246-.787 4.8 4.8 0 0 1 1.629-.266q.615 0 1.224.144.61.144 1.114.477.504.327.808.891.31.566.31 1.413V75h-1.927v-1.169h-.067a2.5 2.5 0 0 1-.515.665 2.5 2.5 0 0 1-.825.493 3.3 3.3 0 0 1-1.158.183m.52-1.474q.604 0 1.048-.238a1.76 1.76 0 0 0 .681-.643q.244-.398.244-.87v-1.002a1 1 0 0 1-.322.144 5 5 0 0 1-.498.116q-.278.05-.549.089l-.47.066q-.45.062-.804.2a1.33 1.33 0 0 0-.56.388q-.204.244-.204.631 0 .554.404.837.405.282 1.03.282M50.294 75v-8.51h1.944v1.42h.088q.233-.737.798-1.137.57-.404 1.302-.404.165 0 .371.017.21.01.349.038v1.845a2 2 0 0 0-.404-.077 4 4 0 0 0-.527-.04q-.548 0-.986.24a1.74 1.74 0 0 0-.681.647q-.25.416-.25.959V75zm10.89-8.51v1.552h-4.891v-1.551zM57.5 64.453h2.006v7.989q0 .404.122.62.127.21.332.288t.454.078q.188 0 .344-.028a3 3 0 0 0 .244-.05l.337 1.568q-.16.056-.46.122-.293.066-.72.077a3.3 3.3 0 0 1-1.357-.227 2.1 2.1 0 0 1-.958-.786q-.349-.532-.344-1.33z"/></svg>