<svg width="177" height="177" viewBox="0 0 177 177" fill="none" xmlns="http://www.w3.org/2000/svg">
<g filter="url(#filter0_d_5820_9810)">
<rect x="38" y="13" width="101" height="101" rx="12" fill="#151B23"/>
<rect x="39" y="14" width="99" height="99" rx="11" stroke="#1F2937" stroke-width="2"/>
<path d="M89.5381 31.4863C89.1101 31.4876 88.6984 31.6575 88.3925 31.9584L88.3761 31.9698L77.6537 38.1675L88.3497 48.8635V48.8698L101.203 61.726L103.655 57.3109L94.8194 36.094L90.6951 31.9698C90.5433 31.8169 90.3629 31.6956 90.1642 31.6126C89.9654 31.5297 89.7535 31.4867 89.5381 31.4863Z" fill="#66C3FA"/>
<path d="M77.6789 38.1423L71.4849 48.8559L71.4723 48.8735C71.3216 49.0252 71.2023 49.2051 71.1212 49.4029C71.0401 49.6008 70.999 49.8127 71 50.0266C71.0011 50.2404 71.0443 50.4519 71.1273 50.6489C71.2103 50.846 71.3314 51.0247 71.4837 51.1749L76.6164 56.3126L96.6964 64.2124L101.237 61.6908L101.115 61.5687L101.084 61.5712L88.4945 48.9617H88.4793L77.6789 38.1423Z" fill="#215896"/>
<path d="M77.6525 38.1474L88.5927 49.1001H88.6103L101.2 61.7059L105.995 60.7932L106 46.6087L100.939 41.6485C99.8312 40.5633 98.1279 39.8633 96.4157 39.6317L96.4195 39.5775L77.6525 38.1474Z" fill="#235997"/>
<path d="M77.6651 38.1612L88.6128 49.1077V49.1228L101.212 61.7223L100.296 66.515H86.1138L81.1548 61.4503C80.0696 60.3425 79.3709 58.6379 79.1405 56.9257L79.0851 56.9307L77.6651 38.1612Z" fill="#58B6F0"/>
<path d="M76.9636 94H73.119V82.6545H77.0412C78.1676 82.6545 79.1352 82.8817 79.944 83.3359C80.7565 83.7865 81.3807 84.4347 81.8165 85.2804C82.2523 86.1261 82.4702 87.1381 82.4702 88.3162C82.4702 89.498 82.2504 90.5136 81.8109 91.3631C81.3751 92.2125 80.7455 92.8643 79.9219 93.3186C79.102 93.7729 78.1159 94 76.9636 94ZM75.1743 92.2217H76.8639C77.6543 92.2217 78.3135 92.0777 78.8416 91.7896C79.3697 91.4979 79.7668 91.0639 80.0327 90.4878C80.2986 89.908 80.4315 89.1841 80.4315 88.3162C80.4315 87.4483 80.2986 86.7281 80.0327 86.1557C79.7668 85.5795 79.3734 85.1493 78.8527 84.8649C78.3357 84.5768 77.693 84.4328 76.9249 84.4328H75.1743V92.2217ZM86.7829 94.1717C86.2437 94.1717 85.758 94.0757 85.3259 93.8837C84.8975 93.6879 84.5577 93.3999 84.3066 93.0195C84.0592 92.6391 83.9354 92.17 83.9354 91.6124C83.9354 91.1322 84.0241 90.7352 84.2013 90.4213C84.3786 90.1074 84.6205 89.8562 84.9271 89.6679C85.2336 89.4795 85.5789 89.3374 85.963 89.2413C86.3508 89.1416 86.7515 89.0696 87.1651 89.0253C87.6637 88.9736 88.0681 88.9274 88.3783 88.8868C88.6886 88.8425 88.9139 88.776 89.0542 88.6874C89.1982 88.595 89.2702 88.4528 89.2702 88.2608V88.2276C89.2702 87.8102 89.1465 87.4871 88.8991 87.2581C88.6516 87.0291 88.2952 86.9146 87.8299 86.9146C87.3387 86.9146 86.9491 87.0217 86.661 87.2359C86.3766 87.4501 86.1846 87.7031 86.0849 87.9949L84.2124 87.729C84.3602 87.2119 84.6039 86.7798 84.9437 86.4327C85.2835 86.0818 85.6989 85.8196 86.1901 85.646C86.6813 85.4687 87.2242 85.3801 87.8188 85.3801C88.2288 85.3801 88.6369 85.4281 89.0431 85.5241C89.4494 85.6202 89.8205 85.779 90.1566 86.0006C90.4927 86.2185 90.7623 86.5158 90.9654 86.8925C91.1722 87.2692 91.2756 87.7401 91.2756 88.3051V94H89.3478V92.8311H89.2813C89.1594 93.0675 88.9877 93.2891 88.7661 93.4959C88.5482 93.699 88.2731 93.8634 87.9407 93.9889C87.612 94.1108 87.2261 94.1717 86.7829 94.1717ZM87.3036 92.6982C87.7062 92.6982 88.0552 92.6187 88.3506 92.4599C88.6461 92.2974 88.8732 92.0832 89.032 91.8173C89.1945 91.5514 89.2758 91.2615 89.2758 90.9476V89.9449C89.213 89.9966 89.1059 90.0446 88.9545 90.0889C88.8067 90.1332 88.6406 90.172 88.4559 90.2053C88.2712 90.2385 88.0884 90.268 87.9075 90.2939C87.7265 90.3197 87.5695 90.3419 87.4366 90.3604C87.1374 90.401 86.8697 90.4675 86.6333 90.5598C86.3969 90.6521 86.2104 90.7814 86.0738 90.9476C85.9371 91.1101 85.8688 91.3206 85.8688 91.5791C85.8688 91.9484 86.0036 92.2273 86.2732 92.4156C86.5428 92.604 86.8863 92.6982 87.3036 92.6982ZM93.2921 94V85.4909H95.2366V86.9091H95.3252C95.4803 86.4179 95.7462 86.0393 96.1229 85.7734C96.5033 85.5038 96.9373 85.369 97.4248 85.369C97.5356 85.369 97.6593 85.3746 97.796 85.3857C97.9363 85.393 98.0526 85.406 98.145 85.4244V87.2692C98.06 87.2396 97.9252 87.2138 97.7406 87.1916C97.5596 87.1658 97.3842 87.1528 97.2143 87.1528C96.8487 87.1528 96.52 87.2322 96.2282 87.3911C95.9401 87.5462 95.713 87.7622 95.5468 88.0392C95.3806 88.3162 95.2975 88.6357 95.2975 88.9976V94H93.2921ZM104.183 85.4909V87.042H99.2917V85.4909H104.183ZM100.499 83.4523H102.505V91.4406C102.505 91.7102 102.545 91.917 102.627 92.0611C102.712 92.2014 102.822 92.2974 102.959 92.3491C103.096 92.4009 103.247 92.4267 103.413 92.4267C103.539 92.4267 103.653 92.4175 103.757 92.399C103.864 92.3805 103.945 92.3639 104 92.3491L104.338 93.9169C104.231 93.9538 104.078 93.9945 103.879 94.0388C103.683 94.0831 103.443 94.1089 103.158 94.1163C102.656 94.1311 102.204 94.0554 101.801 93.8892C101.399 93.7193 101.079 93.4571 100.843 93.1026C100.61 92.748 100.496 92.3048 100.499 91.773V83.4523Z" fill="white"/>
</g>
<defs>
<filter id="filter0_d_5820_9810" x="0" y="0" width="177" height="177" filterUnits="userSpaceOnUse" color-interpolation-filters="sRGB">
<feFlood flood-opacity="0" result="BackgroundImageFix"/>
<feColorMatrix in="SourceAlpha" type="matrix" values="0 0 0 0 0 0 0 0 0 0 0 0 0 0 0 0 0 0 127 0" result="hardAlpha"/>
<feMorphology radius="12" operator="erode" in="SourceAlpha" result="effect1_dropShadow_5820_9810"/>
<feOffset dy="25"/>
<feGaussianBlur stdDeviation="25"/>
<feColorMatrix type="matrix" values="0 0 0 0 0 0 0 0 0 0 0 0 0 0 0 0 0 0 0.25 0"/>
<feBlend mode="normal" in2="BackgroundImageFix" result="effect1_dropShadow_5820_9810"/>
<feBlend mode="normal" in="SourceGraphic" in2="effect1_dropShadow_5820_9810" result="shape"/>
</filter>
</defs>
</svg>
