<svg width="107" height="107" viewBox="0 0 107 107" fill="none" xmlns="http://www.w3.org/2000/svg">
<g filter="url(#filter0_d_5820_9810)">
<rect x="8" y="6" width="91" height="91" rx="12" fill="#151B23"/>
<rect x="9" y="7" width="89" height="89" rx="11" stroke="#1F2937" stroke-width="2"/>
<path d="M54.5381 20.4863C54.1101 20.4876 53.6984 20.6575 53.3925 20.9584L53.3761 20.9698L42.6537 27.1675L53.3497 37.8635V37.8698L66.2034 50.726L68.6546 46.3109L59.8194 25.094L55.6951 20.9698C55.5433 20.8169 55.3629 20.6956 55.1642 20.6126C54.9654 20.5297 54.7535 20.4867 54.5381 20.4863Z" fill="#66C3FA"/>
<path d="M42.6789 27.1423L36.4849 37.8559L36.4723 37.8735C36.3216 38.0252 36.2023 38.2051 36.1212 38.4029C36.0401 38.6008 35.999 38.8127 36 39.0266C36.0011 39.2404 36.0443 39.4519 36.1273 39.6489C36.2103 39.846 36.3314 40.0247 36.4837 40.1749L41.6164 45.3126L61.6964 53.2124L66.2374 50.6908L66.1153 50.5687L66.0838 50.5712L53.4945 37.9617H53.4793L42.6789 27.1423Z" fill="#215896"/>
<path d="M42.6525 27.1474L53.5927 38.1001H53.6103L66.1997 50.7059L70.995 49.7932L71 35.6087L65.9391 30.6485C64.8312 29.5633 63.1279 28.8633 61.4157 28.6317L61.4195 28.5775L42.6525 27.1474Z" fill="#235997"/>
<path d="M42.6651 27.1612L53.6128 38.1077V38.1228L66.2123 50.7223L65.2957 55.515H51.1138L46.1548 50.4503C45.0696 49.3425 44.3709 47.6379 44.1405 45.9257L44.0851 45.9307L42.6651 27.1612Z" fill="#58B6F0"/>
<path d="M41.9636 81H38.119V69.6545H42.0412C43.1676 69.6545 44.1352 69.8817 44.944 70.3359C45.7565 70.7865 46.3807 71.4347 46.8165 72.2804C47.2523 73.1261 47.4702 74.1381 47.4702 75.3162C47.4702 76.498 47.2504 77.5136 46.8109 78.3631C46.3751 79.2125 45.7455 79.8643 44.9219 80.3186C44.102 80.7729 43.1159 81 41.9636 81ZM40.1743 79.2217H41.8639C42.6543 79.2217 43.3135 79.0777 43.8416 78.7896C44.3697 78.4979 44.7668 78.0639 45.0327 77.4878C45.2986 76.908 45.4315 76.1841 45.4315 75.3162C45.4315 74.4483 45.2986 73.7281 45.0327 73.1557C44.7668 72.5795 44.3734 72.1493 43.8527 71.8649C43.3357 71.5768 42.693 71.4328 41.9249 71.4328H40.1743V79.2217ZM51.7829 81.1717C51.2437 81.1717 50.758 81.0757 50.3259 80.8837C49.8975 80.6879 49.5577 80.3999 49.3066 80.0195C49.0592 79.6391 48.9354 79.17 48.9354 78.6124C48.9354 78.1322 49.0241 77.7352 49.2013 77.4213C49.3786 77.1074 49.6205 76.8562 49.9271 76.6679C50.2336 76.4795 50.5789 76.3374 50.963 76.2413C51.3508 76.1416 51.7515 76.0696 52.1651 76.0253C52.6637 75.9736 53.0681 75.9274 53.3783 75.8868C53.6886 75.8425 53.9139 75.776 54.0542 75.6874C54.1982 75.595 54.2702 75.4528 54.2702 75.2608V75.2276C54.2702 74.8102 54.1465 74.4871 53.8991 74.2581C53.6516 74.0291 53.2952 73.9146 52.8299 73.9146C52.3387 73.9146 51.9491 74.0217 51.661 74.2359C51.3766 74.4501 51.1846 74.7031 51.0849 74.9949L49.2124 74.729C49.3602 74.2119 49.6039 73.7798 49.9437 73.4327C50.2835 73.0818 50.6989 72.8196 51.1901 72.646C51.6813 72.4687 52.2242 72.3801 52.8188 72.3801C53.2288 72.3801 53.6369 72.4281 54.0431 72.5241C54.4494 72.6202 54.8205 72.779 55.1566 73.0006C55.4927 73.2185 55.7623 73.5158 55.9654 73.8925C56.1722 74.2692 56.2756 74.7401 56.2756 75.3051V81H54.3478V79.8311H54.2813C54.1594 80.0675 53.9877 80.2891 53.7661 80.4959C53.5482 80.699 53.2731 80.8634 52.9407 80.9889C52.612 81.1108 52.2261 81.1717 51.7829 81.1717ZM52.3036 79.6982C52.7062 79.6982 53.0552 79.6187 53.3506 79.4599C53.6461 79.2974 53.8732 79.0832 54.032 78.8173C54.1945 78.5514 54.2758 78.2615 54.2758 77.9476V76.9449C54.213 76.9966 54.1059 77.0446 53.9545 77.0889C53.8067 77.1332 53.6406 77.172 53.4559 77.2053C53.2712 77.2385 53.0884 77.268 52.9075 77.2939C52.7265 77.3197 52.5695 77.3419 52.4366 77.3604C52.1374 77.401 51.8697 77.4675 51.6333 77.5598C51.3969 77.6521 51.2104 77.7814 51.0738 77.9476C50.9371 78.1101 50.8688 78.3206 50.8688 78.5791C50.8688 78.9484 51.0036 79.2273 51.2732 79.4156C51.5428 79.604 51.8863 79.6982 52.3036 79.6982ZM58.2921 81V72.4909H60.2366V73.9091H60.3252C60.4803 73.4179 60.7462 73.0393 61.1229 72.7734C61.5033 72.5038 61.9373 72.369 62.4248 72.369C62.5356 72.369 62.6593 72.3746 62.796 72.3857C62.9363 72.393 63.0526 72.406 63.145 72.4244V74.2692C63.06 74.2396 62.9252 74.2138 62.7406 74.1916C62.5596 74.1658 62.3842 74.1528 62.2143 74.1528C61.8487 74.1528 61.52 74.2322 61.2282 74.3911C60.9401 74.5462 60.713 74.7622 60.5468 75.0392C60.3806 75.3162 60.2975 75.6357 60.2975 75.9976V81H58.2921ZM69.1833 72.4909V74.042H64.2917V72.4909H69.1833ZM65.4994 70.4523H67.5048V78.4406C67.5048 78.7102 67.5454 78.917 67.6266 79.0611C67.7116 79.2014 67.8224 79.2974 67.959 79.3491C68.0957 79.4009 68.2471 79.4267 68.4133 79.4267C68.5388 79.4267 68.6533 79.4175 68.7567 79.399C68.8638 79.3805 68.9451 79.3639 69.0005 79.3491L69.3384 80.9169C69.2313 80.9538 69.0781 80.9945 68.8786 81.0388C68.6829 81.0831 68.4428 81.1089 68.1585 81.1163C67.6562 81.1311 67.2038 81.0554 66.8012 80.8892C66.3987 80.7193 66.0792 80.4571 65.8428 80.1026C65.6102 79.748 65.4957 79.3048 65.4994 78.773V70.4523Z" fill="white"/>
</g>
<defs>
<filter id="filter0_d_5820_9810" x="0" y="0" width="107" height="107" filterUnits="userSpaceOnUse" color-interpolation-filters="sRGB">
<feFlood flood-opacity="0" result="BackgroundImageFix"/>
<feColorMatrix in="SourceAlpha" type="matrix" values="0 0 0 0 0 0 0 0 0 0 0 0 0 0 0 0 0 0 127 0" result="hardAlpha"/>
<feOffset dy="2"/>
<feGaussianBlur stdDeviation="4"/>
<feColorMatrix type="matrix" values="0 0 0 0 0 0 0 0 0 0 0 0 0 0 0 0 0 0 0.25 0"/>
<feBlend mode="normal" in2="BackgroundImageFix" result="effect1_dropShadow_5820_9810"/>
<feBlend mode="normal" in="SourceGraphic" in2="effect1_dropShadow_5820_9810" result="shape"/>
</filter>
</defs>
</svg>
