<svg width="107" height="109" viewBox="0 0 107 109" fill="none" xmlns="http://www.w3.org/2000/svg">
<g filter="url(#filter0_d_5829_13322)">
<rect x="8" y="6" width="91" height="93" rx="12" fill="#151B23"/>
<rect x="9" y="7" width="89" height="91" rx="11" stroke="#1F2937" stroke-width="2"/>
<g clip-path="url(#clip0_5829_13322)">
<g clip-path="url(#clip1_5829_13322)">
<path d="M43.084 44.2845C43.9285 43.9104 44.6262 42.9753 44.2039 42.3145C43.0473 42.6511 43.1023 43.4241 43.084 44.2845Z" fill="#E3E3F8"/>
<path d="M51.9629 46.4295C52.7542 46.23 53.5138 45.5318 53.0865 44.8086C52.4693 45.1452 52.0737 45.6066 51.9629 46.4295Z" fill="#E3E3F8"/>
<path d="M34.5195 56.7532C34.5195 57.5388 34.719 58.3866 35.2677 58.6859C37.2875 59.8205 44.3696 58.9352 46.776 58.3991C48.0353 58.1123 49.0578 57.1772 50.2423 56.666C52.9105 55.5064 54.8431 54.5713 56.9752 53.0127C58.5213 51.8781 60.9776 48.6862 61.2394 46.7785L59.1323 46.3047C59.0824 48.4493 58.5961 48.9355 56.6884 49.4343C55.4042 49.7834 52.898 49.8582 51.5889 49.6338C49.8557 49.347 49.0702 48.4368 48.2847 47.4019C46.7636 45.382 48.6214 43.9731 46.2149 43.8359C43.6839 46.9406 39.2201 44.7087 37.2626 44.397C36.4272 45.6065 34.4697 53.4616 34.4944 55.257C35.704 54.8456 36.4646 55.2944 37.5494 55.7184C41.3897 57.2021 38.0356 58.5113 36.502 58.1248C35.4547 57.8754 35.1305 57.1896 34.5195 56.7532Z" fill="#FDFDFD"/>
<path d="M39.543 38.8365C41.1015 39.1357 42.4855 39.7841 43.8072 40.4449C45.9642 41.5172 46.3507 41.3676 46.5502 42.8638C46.5752 43.1381 46.5253 43.2877 47.3108 43.5371C48.6325 43.9486 46.5502 43.2129 50.0913 43.2254C52.1984 43.2379 57.0237 44.0857 58.5823 45.0707C59.2306 45.4822 59.106 46.0059 61.3004 45.9435C61.2755 43.3626 60.5897 39.5098 59.5798 37.1408C58.3454 34.2731 56.712 33.8367 53.3829 32.7644C51.4379 32.141 45.7273 31.4552 43.9568 32.5524C42.2985 33.5873 41.9868 34.8217 40.4407 36.9912C39.9918 37.6271 39.8297 38.1133 39.543 38.8365Z" fill="#FDFDFD"/>
<path d="M53.2716 44.1351C54.5184 44.6463 53.2093 47.9505 51.4761 47.1525C50.9151 45.569 52.2492 44.6713 52.6108 43.9606C51.8627 43.8484 49.7306 43.5117 49.0947 43.7486C48.2717 44.0603 48.0847 45.8184 48.5086 46.6413C50.5036 50.5564 59.3188 49.721 58.3837 46.6787C58.0096 45.4443 57.6605 45.2448 56.4012 44.8209C55.3912 44.4843 54.3813 44.1351 53.2716 44.1351Z" fill="#FDFDFD"/>
<path d="M37.5977 43.6978C38.5951 44.6579 40.8519 44.8075 42.3107 44.8823C42.4978 42.9497 42.6598 41.5034 44.2059 41.6156C44.9665 42.6505 44.5675 43.8724 43.7695 44.6579C45.1286 44.6454 45.9141 43.623 45.7146 42.1392C44.5675 41.3163 41.0888 39.6705 39.3432 39.4336C38.857 39.9573 37.66 42.825 37.5977 43.6978Z" fill="#FDFDFD"/>
<path d="M35.2546 56.0423C36.0775 55.9675 38.222 56.5909 38.3966 57.2891C37.0625 57.4512 35.3668 57.3265 35.2546 56.0423ZM34.5189 56.753C35.1299 57.1894 35.454 57.8752 36.5014 58.1245C38.035 58.511 41.389 57.2019 37.5487 55.7181C36.464 55.2942 35.7034 54.8453 34.4937 55.2568C34.469 53.4613 36.4266 45.6062 37.262 44.3968C39.2195 44.7085 43.6832 46.9403 46.2143 43.8357C48.6207 43.9728 46.7629 45.3818 48.2841 47.4017C49.0696 48.4365 49.8551 49.3467 51.5882 49.6335C52.8974 49.8579 55.4036 49.7831 56.6878 49.434C58.5955 48.9353 59.0818 48.449 59.1316 46.3044L61.2388 46.7782C60.977 48.6859 58.5207 51.8778 56.9746 53.0125C54.8425 54.571 52.9099 55.5062 50.2416 56.6657C49.0571 57.1769 48.0347 58.1121 46.7754 58.3988C44.369 58.935 37.2869 59.8202 35.267 58.6856C34.7184 58.3864 34.5189 57.5385 34.5189 56.753ZM51.9623 46.4291C52.0731 45.6062 52.4687 45.1449 53.0859 44.8082C53.5132 45.5314 52.7536 46.2296 51.9623 46.4291ZM53.2715 44.1349C54.3811 44.1349 55.3911 44.484 56.401 44.8207C57.6603 45.2446 58.0095 45.4441 58.3835 46.6785C59.3187 49.7208 50.5035 50.5562 48.5085 46.6411C48.0846 45.8182 48.2716 44.0601 49.0945 43.7484C49.7304 43.5115 51.8625 43.8482 52.6106 43.9604C52.249 44.6711 50.9149 45.5688 51.476 47.1523C53.2091 47.9503 54.5183 44.6461 53.2715 44.1349ZM43.0847 44.2845C43.1031 43.4242 43.048 42.6512 44.2047 42.3145C44.627 42.9754 43.9293 43.9105 43.0847 44.2845ZM37.5986 43.6985C37.661 42.8257 38.8579 39.958 39.3442 39.4343C41.0898 39.6712 44.5685 41.3171 45.7156 42.14C45.9151 43.6237 45.1296 44.6461 43.7705 44.6586C44.5685 43.8731 44.9675 42.6512 44.2069 41.6163C42.6608 41.5041 42.4987 42.9504 42.3117 44.883C40.8529 44.8082 38.5961 44.6586 37.5986 43.6985ZM36.3518 42.7011C35.8904 41.4293 35.8904 39.4468 37.848 39.2847L36.8505 42.0652C36.5887 42.6637 36.5887 42.5265 36.3518 42.7011ZM39.5437 38.8358C39.8305 38.1127 39.9926 37.6264 40.4414 36.9905C41.9875 34.821 42.2992 33.5866 43.9575 32.5517C45.728 31.4545 51.4386 32.1403 53.3837 32.7637C56.7127 33.836 58.3461 34.2724 59.5805 37.1401C60.5904 39.5091 61.2762 43.3619 61.3011 45.9429C59.1067 46.0052 59.2314 45.4815 58.583 45.0701C57.0245 44.0851 52.1992 43.2372 50.092 43.2247C46.551 43.2123 48.6332 43.9479 47.3115 43.5364C46.526 43.2871 46.5759 43.1375 46.551 42.8631C46.3515 41.3669 45.9649 41.5166 43.8079 40.4443C42.4862 39.7834 41.1023 39.1351 39.5437 38.8358ZM61.6128 38.2249C61.3759 37.4394 61.8123 37.4892 62.5729 36.9531C63.0093 36.6414 63.3584 36.3172 63.8946 36.018C65.902 34.8958 69.6425 34.7088 71.2385 36.0429C71.8868 36.579 72.9467 37.6264 72.7846 38.9979C72.4479 41.7285 70.5777 43.2247 69.044 44.4716C67.4855 45.7434 64.892 47.0525 62.2113 46.1798C61.9869 45.6311 62.1615 42.1524 61.8996 40.8682C61.6627 39.7211 61.7874 39.5964 62.4482 38.9106C64.3933 36.8908 68.6076 35.4195 71.0016 37.1526C72.0115 37.9007 71.7248 38.1875 72.2484 38.761C72.8968 38.0628 71.6874 35.7187 67.2236 35.8683C64.1938 35.9681 62.8846 38.3371 61.6128 38.2249ZM43.4588 31.1303C43.5211 29.3972 45.1171 25.8063 46.7131 24.5595C48.6457 23.0633 50.6656 21.6543 53.633 23.3376C54.3687 23.749 54.3313 23.961 54.4061 24.9834C54.4684 25.9684 54.3811 26.33 54.1318 27.128C52.1618 33.4869 50.5159 29.8336 44.2069 31.3423C44.4438 29.2725 46.2393 27.4272 47.2367 26.4671C48.9449 24.8088 50.1793 23.7365 52.7478 24.0857C53.4585 25.2702 53.5333 26.0183 52.673 27.4023C51.5259 29.2476 51.2391 29.1354 51.4137 30.3947C52.3114 30.1703 52.5857 29.2975 52.9972 28.4247C55.5033 23.1879 51.8625 22.552 49.6307 23.5121C48.1345 24.148 45.4662 27.0906 44.5934 28.8611C44.4189 29.2102 44.2318 29.6591 44.0697 30.0456L43.4588 31.1303ZM53.3338 31.3922C53.5956 29.8336 55.1417 29.4471 55.1417 24.6467C55.1417 22.577 52.5982 20.7192 49.2691 22.1032C46.4138 23.2752 45.9774 24.1729 44.4563 26.4671C43.0224 28.6366 43.0723 31.0181 41.8379 33.0255C41.4763 33.5991 41.1521 33.7986 40.7531 34.3721C40.4664 34.7961 40.2544 35.3322 39.9676 35.8309C39.3816 36.791 38.7831 37.4892 38.3093 38.6363C36.8131 38.6737 35.5538 38.6987 35.4042 40.2448C35.2047 42.3644 36.2022 42.8881 36.2022 43.6861C36.1897 44.5464 32.6985 53.2244 33.6711 58.3988C33.9454 59.8202 34.8805 59.8327 36.3767 60.0073C39.9801 60.4437 44.6558 60.294 47.8851 58.9973L53.7453 56.1919C55.229 55.3565 57.7227 53.773 58.8324 52.6135C59.6179 51.803 60.0294 51.1173 60.7027 50.1572C61.6253 48.8106 61.6503 48.8355 61.8497 47.0027C63.0717 47.2271 65.3534 47.7632 66.114 48.4241C66.0267 49.2844 65.6027 48.8729 65.6027 49.646C66.089 49.6584 66.8995 49.0475 67.099 48.3742C66.5878 47.6261 66.0516 47.7508 65.316 47.1523C65.902 46.691 66.9618 46.479 67.7723 46.1423C69.5178 45.4192 72.4978 43.2247 73.2334 41.2298C73.8195 39.6213 73.3831 36.9406 72.4355 35.8933C71.438 34.7961 69.1189 34.235 67.2236 34.235C64.9669 34.235 62.6353 35.8559 60.8149 36.5541C60.1166 35.9432 60.0668 35.2449 59.5556 34.5716C58.9695 33.7736 55.1542 31.7787 53.3338 31.3922Z" fill="#020202"/>
<path d="M61.6134 38.224C62.8852 38.3362 64.1944 35.9672 67.2242 35.8674C71.6879 35.7178 72.8973 38.0619 72.249 38.7601C71.7253 38.1866 72.0121 37.8998 71.0021 37.1517C68.6082 35.4186 64.3939 36.8899 62.4488 38.9097C61.7879 39.5955 61.6633 39.7202 61.9002 40.8673C62.162 42.1515 61.9874 45.6302 62.2119 46.1788C64.8926 47.0516 67.486 45.7424 69.0446 44.4707C70.5782 43.2238 72.4485 41.7276 72.7851 38.997C72.9472 37.6255 71.8874 36.5781 71.239 36.042C69.6431 34.7079 65.9025 34.8949 63.8951 36.0171C63.359 36.3163 63.0099 36.6405 62.5735 36.9522C61.8129 37.4883 61.3765 37.4385 61.6134 38.224Z" fill="#FDF2F2"/>
<path d="M43.459 31.1296L44.0699 30.0448C44.232 29.6583 44.4191 29.2094 44.5936 28.8603C45.4664 27.0898 48.1347 24.1472 49.6309 23.5113C51.8627 22.5513 55.5035 23.1872 52.9973 28.4239C52.5859 29.2967 52.3116 30.1695 51.4139 30.3939C51.2393 29.1346 51.5261 29.2468 52.6732 27.4015C53.5335 26.0175 53.4587 25.2694 52.748 24.0849C50.1795 23.7358 48.9451 24.8081 47.2369 26.4664C46.2394 27.4264 44.444 29.2718 44.2071 31.3415C50.5161 29.8328 52.162 33.4861 54.132 27.1272C54.3813 26.3292 54.4686 25.9676 54.4063 24.9826C54.3315 23.9602 54.3689 23.7482 53.6332 23.3368C50.6657 21.6535 48.6459 23.0625 46.7132 24.5587C45.1173 25.8055 43.5213 29.3964 43.459 31.1296Z" fill="#FEF3F3"/>
<path d="M36.3519 42.7015C36.5888 42.527 36.5888 42.6641 36.8506 42.0656L37.8481 39.2852C35.8905 39.4472 35.8905 41.4297 36.3519 42.7015Z" fill="#EFEFEF"/>
<path d="M38.396 57.2901C38.2214 56.5918 36.0768 55.9684 35.2539 56.0432C35.3661 57.3275 37.0618 57.4522 38.396 57.2901Z" fill="#FAF1F1"/>
</g>
</g>
<path d="M18.8608 81V72.2727H24.5369V73.598H20.4418V75.9673H24.2429V77.2926H20.4418V79.6747H24.571V81H18.8608ZM28.5107 81.1151C27.9964 81.1151 27.5362 80.983 27.13 80.7188C26.7237 80.4545 26.4027 80.071 26.1669 79.5682C25.9311 79.0653 25.8132 78.4545 25.8132 77.7358C25.8132 77.0085 25.9325 76.3949 26.1712 75.8949C26.4126 75.392 26.7379 75.0128 27.147 74.7571C27.5561 74.4986 28.0121 74.3693 28.5149 74.3693C28.8984 74.3693 29.2138 74.4347 29.4609 74.5653C29.7081 74.6932 29.9041 74.848 30.049 75.0298C30.1939 75.2088 30.3061 75.3778 30.3857 75.5369H30.4496V72.2727H31.9964V81H30.4794V79.9688H30.3857C30.3061 80.1278 30.1911 80.2969 30.0405 80.4759C29.8899 80.652 29.6911 80.8026 29.4439 80.9276C29.1967 81.0526 28.8857 81.1151 28.5107 81.1151ZM28.9411 79.8494C29.2678 79.8494 29.5462 79.7614 29.7763 79.5852C30.0064 79.4062 30.1811 79.1577 30.3004 78.8395C30.4197 78.5213 30.4794 78.1506 30.4794 77.7273C30.4794 77.304 30.4197 76.9361 30.3004 76.6236C30.1839 76.3111 30.0107 76.0682 29.7805 75.8949C29.5533 75.7216 29.2734 75.6349 28.9411 75.6349C28.5973 75.6349 28.3104 75.7244 28.0803 75.9034C27.8501 76.0824 27.6768 76.3295 27.5604 76.6449C27.4439 76.9602 27.3857 77.321 27.3857 77.7273C27.3857 78.1364 27.4439 78.5014 27.5604 78.8224C27.6797 79.1406 27.8544 79.392 28.0845 79.5767C28.3175 79.7585 28.603 79.8494 28.9411 79.8494ZM33.6403 81V74.4545H35.1829V81H33.6403ZM34.4158 73.5256C34.1715 73.5256 33.9613 73.4446 33.7852 73.2827C33.609 73.1179 33.521 72.9205 33.521 72.6903C33.521 72.4574 33.609 72.2599 33.7852 72.098C33.9613 71.9332 34.1715 71.8509 34.4158 71.8509C34.663 71.8509 34.8732 71.9332 35.0465 72.098C35.2227 72.2599 35.3107 72.4574 35.3107 72.6903C35.3107 72.9205 35.2227 73.1179 35.0465 73.2827C34.8732 73.4446 34.663 73.5256 34.4158 73.5256ZM40.0376 74.4545V75.6477H36.2749V74.4545H40.0376ZM37.2038 72.8864H38.7464V79.0312C38.7464 79.2386 38.7777 79.3977 38.8402 79.5085C38.9055 79.6165 38.9908 79.6903 39.0959 79.7301C39.201 79.7699 39.3175 79.7898 39.4453 79.7898C39.5419 79.7898 39.63 79.7827 39.7095 79.7685C39.7919 79.7543 39.8544 79.7415 39.897 79.7301L40.157 80.9361C40.0746 80.9645 39.9567 80.9957 39.8033 81.0298C39.6527 81.0639 39.468 81.0838 39.2493 81.0895C38.8629 81.1009 38.5149 81.0426 38.2053 80.9148C37.8956 80.7841 37.6499 80.5824 37.468 80.3097C37.2891 80.0369 37.201 79.696 37.2038 79.2869V72.8864ZM44.1126 81.1278C43.4734 81.1278 42.9194 80.9872 42.4506 80.706C41.9819 80.4247 41.6183 80.0312 41.3597 79.5256C41.104 79.0199 40.9762 78.429 40.9762 77.7528C40.9762 77.0767 41.104 76.4844 41.3597 75.9759C41.6183 75.4673 41.9819 75.0724 42.4506 74.7912C42.9194 74.5099 43.4734 74.3693 44.1126 74.3693C44.7518 74.3693 45.3058 74.5099 45.7745 74.7912C46.2433 75.0724 46.6055 75.4673 46.8612 75.9759C47.1197 76.4844 47.2489 77.0767 47.2489 77.7528C47.2489 78.429 47.1197 79.0199 46.8612 79.5256C46.6055 80.0312 46.2433 80.4247 45.7745 80.706C45.3058 80.9872 44.7518 81.1278 44.1126 81.1278ZM44.1211 79.892C44.4677 79.892 44.7575 79.7969 44.9904 79.6065C45.2234 79.4134 45.3967 79.1548 45.5103 78.831C45.6268 78.5071 45.685 78.1463 45.685 77.7486C45.685 77.348 45.6268 76.9858 45.5103 76.6619C45.3967 76.3352 45.2234 76.0753 44.9904 75.8821C44.7575 75.6889 44.4677 75.5923 44.1211 75.5923C43.766 75.5923 43.4705 75.6889 43.2347 75.8821C43.0018 76.0753 42.8271 76.3352 42.7106 76.6619C42.5969 76.9858 42.5401 77.348 42.5401 77.7486C42.5401 78.1463 42.5969 78.5071 42.7106 78.831C42.8271 79.1548 43.0018 79.4134 43.2347 79.6065C43.4705 79.7969 43.766 79.892 44.1211 79.892ZM48.5582 81V74.4545H50.054V75.5455H50.1222C50.2415 75.1676 50.446 74.8764 50.7358 74.6719C51.0284 74.4645 51.3622 74.3608 51.7372 74.3608C51.8224 74.3608 51.9176 74.3651 52.0227 74.3736C52.1307 74.3793 52.2202 74.3892 52.2912 74.4034V75.8224C52.2259 75.7997 52.1222 75.7798 51.9801 75.7628C51.8409 75.7429 51.706 75.733 51.5753 75.733C51.294 75.733 51.0412 75.794 50.8168 75.9162C50.5952 76.0355 50.4205 76.2017 50.2926 76.4148C50.1648 76.6278 50.1009 76.8736 50.1009 77.152V81H48.5582ZM55.9016 81.1278C55.2482 81.1278 54.6871 80.9844 54.2184 80.6974C53.7525 80.4105 53.3931 80.0142 53.1403 79.5085C52.8903 79 52.7653 78.4148 52.7653 77.7528C52.7653 77.0881 52.8931 76.5014 53.1488 75.9929C53.4045 75.4815 53.7653 75.0838 54.2312 74.7997C54.6999 74.5128 55.2539 74.3693 55.8931 74.3693C56.4244 74.3693 56.8945 74.4673 57.3036 74.6634C57.7156 74.8565 58.0437 75.1307 58.288 75.4858C58.5323 75.8381 58.6715 76.25 58.7056 76.7216H57.2312C57.1715 76.4062 57.0295 76.1435 56.805 75.9332C56.5835 75.7202 56.2866 75.6136 55.9144 75.6136C55.5991 75.6136 55.3221 75.6989 55.0835 75.8693C54.8448 76.0369 54.6587 76.2784 54.5252 76.5938C54.3945 76.9091 54.3292 77.2869 54.3292 77.7273C54.3292 78.1733 54.3945 78.5568 54.5252 78.8778C54.6559 79.196 54.8391 79.4418 55.0749 79.6151C55.3136 79.7855 55.5934 79.8707 55.9144 79.8707C56.1417 79.8707 56.3448 79.8281 56.5238 79.7429C56.7056 79.6548 56.8576 79.5284 56.9798 79.3636C57.1019 79.1989 57.1857 78.9986 57.2312 78.7628H58.7056C58.6687 79.2259 58.5323 79.6364 58.2965 79.9943C58.0607 80.3494 57.7397 80.6278 57.3335 80.8295C56.9272 81.0284 56.4499 81.1278 55.9016 81.1278ZM62.8274 81.1278C62.1882 81.1278 61.6342 80.9872 61.1655 80.706C60.6967 80.4247 60.3331 80.0312 60.0746 79.5256C59.8189 79.0199 59.6911 78.429 59.6911 77.7528C59.6911 77.0767 59.8189 76.4844 60.0746 75.9759C60.3331 75.4673 60.6967 75.0724 61.1655 74.7912C61.6342 74.5099 62.1882 74.3693 62.8274 74.3693C63.4666 74.3693 64.0206 74.5099 64.4893 74.7912C64.9581 75.0724 65.3203 75.4673 65.576 75.9759C65.8345 76.4844 65.9638 77.0767 65.9638 77.7528C65.9638 78.429 65.8345 79.0199 65.576 79.5256C65.3203 80.0312 64.9581 80.4247 64.4893 80.706C64.0206 80.9872 63.4666 81.1278 62.8274 81.1278ZM62.8359 79.892C63.1825 79.892 63.4723 79.7969 63.7053 79.6065C63.9382 79.4134 64.1115 79.1548 64.2251 78.831C64.3416 78.5071 64.3999 78.1463 64.3999 77.7486C64.3999 77.348 64.3416 76.9858 64.2251 76.6619C64.1115 76.3352 63.9382 76.0753 63.7053 75.8821C63.4723 75.6889 63.1825 75.5923 62.8359 75.5923C62.4808 75.5923 62.1854 75.6889 61.9496 75.8821C61.7166 76.0753 61.5419 76.3352 61.4254 76.6619C61.3118 76.9858 61.255 77.348 61.255 77.7486C61.255 78.1463 61.3118 78.5071 61.4254 78.831C61.5419 79.1548 61.7166 79.4134 61.9496 79.6065C62.1854 79.7969 62.4808 79.892 62.8359 79.892ZM68.8157 77.1648V81H67.2731V74.4545H68.7475V75.5668H68.8242C68.9748 75.2003 69.2148 74.9091 69.5444 74.6932C69.8768 74.4773 70.2873 74.3693 70.7759 74.3693C71.2276 74.3693 71.6211 74.4659 71.9563 74.6591C72.2944 74.8523 72.5558 75.1321 72.7404 75.4986C72.9279 75.8651 73.0202 76.3097 73.0174 76.8324V81H71.4748V77.071C71.4748 76.6335 71.3612 76.2912 71.1339 76.044C70.9094 75.7969 70.5984 75.6733 70.2006 75.6733C69.9308 75.6733 69.6907 75.733 69.4805 75.8523C69.2731 75.9687 69.1097 76.1378 68.9904 76.3594C68.8739 76.581 68.8157 76.8494 68.8157 77.1648ZM77.9009 74.4545V75.6477H74.0316V74.4545H77.9009ZM74.9989 81V73.8366C74.9989 73.3963 75.0898 73.0298 75.2717 72.7372C75.4563 72.4446 75.7035 72.2259 76.0131 72.081C76.3228 71.9361 76.6665 71.8636 77.0444 71.8636C77.3114 71.8636 77.5487 71.8849 77.756 71.9276C77.9634 71.9702 78.1168 72.0085 78.2163 72.0426L77.9094 73.2358C77.8441 73.2159 77.7617 73.196 77.6623 73.1761C77.5629 73.1534 77.4521 73.142 77.3299 73.142C77.043 73.142 76.8398 73.2116 76.7205 73.3509C76.604 73.4872 76.5458 73.6832 76.5458 73.9389V81H74.9989ZM79.109 81V74.4545H80.6516V81H79.109ZM79.8846 73.5256C79.6403 73.5256 79.43 73.4446 79.2539 73.2827C79.0778 73.1179 78.9897 72.9205 78.9897 72.6903C78.9897 72.4574 79.0778 72.2599 79.2539 72.098C79.43 71.9332 79.6403 71.8509 79.8846 71.8509C80.1317 71.8509 80.342 71.9332 80.5153 72.098C80.6914 72.2599 80.7795 72.4574 80.7795 72.6903C80.7795 72.9205 80.6914 73.1179 80.5153 73.2827C80.342 73.4446 80.1317 73.5256 79.8846 73.5256ZM85.0845 83.5909C84.5305 83.5909 84.0547 83.5156 83.657 83.3651C83.2592 83.2173 82.9396 83.0185 82.6982 82.7685C82.4567 82.5185 82.2891 82.2415 82.1953 81.9375L83.5845 81.6009C83.647 81.7287 83.7379 81.8551 83.8572 81.9801C83.9766 82.108 84.1371 82.2131 84.3388 82.2955C84.5433 82.3807 84.8004 82.4233 85.1101 82.4233C85.5476 82.4233 85.9098 82.3168 86.1967 82.1037C86.4837 81.8935 86.6271 81.5469 86.6271 81.0639V79.8239H86.5504C86.4709 79.983 86.3544 80.1463 86.201 80.3139C86.0504 80.4815 85.8501 80.6222 85.6001 80.7358C85.353 80.8494 85.0419 80.9062 84.6669 80.9062C84.1641 80.9062 83.7081 80.7884 83.299 80.5526C82.8928 80.3139 82.5689 79.9588 82.3274 79.4872C82.0888 79.0128 81.9695 78.419 81.9695 77.706C81.9695 76.9872 82.0888 76.3807 82.3274 75.8864C82.5689 75.3892 82.8942 75.0128 83.3033 74.7571C83.7124 74.4986 84.1683 74.3693 84.6712 74.3693C85.0547 74.3693 85.37 74.4347 85.6172 74.5653C85.8672 74.6932 86.0661 74.848 86.2138 75.0298C86.3615 75.2088 86.4737 75.3778 86.5504 75.5369H86.6357V74.4545H88.157V81.1065C88.157 81.6662 88.0234 82.1293 87.7564 82.4957C87.4893 82.8622 87.1243 83.1364 86.6612 83.3182C86.1982 83.5 85.6726 83.5909 85.0845 83.5909ZM85.0973 79.696C85.424 79.696 85.7024 79.6165 85.9325 79.4574C86.1626 79.2983 86.3374 79.0696 86.4567 78.7713C86.576 78.473 86.6357 78.1151 86.6357 77.6974C86.6357 77.2855 86.576 76.9247 86.4567 76.6151C86.3402 76.3054 86.1669 76.0653 85.9368 75.8949C85.7095 75.7216 85.4297 75.6349 85.0973 75.6349C84.7536 75.6349 84.4666 75.7244 84.2365 75.9034C84.0064 76.0824 83.8331 76.3281 83.7166 76.6406C83.6001 76.9503 83.5419 77.3026 83.5419 77.6974C83.5419 78.098 83.6001 78.4489 83.7166 78.75C83.8359 79.0483 84.0107 79.2812 84.2408 79.4489C84.4737 79.6136 84.7592 79.696 85.0973 79.696Z" fill="white"/>
</g>
<defs>
<filter id="filter0_d_5829_13322" x="0" y="0" width="107" height="109" filterUnits="userSpaceOnUse" color-interpolation-filters="sRGB">
<feFlood flood-opacity="0" result="BackgroundImageFix"/>
<feColorMatrix in="SourceAlpha" type="matrix" values="0 0 0 0 0 0 0 0 0 0 0 0 0 0 0 0 0 0 127 0" result="hardAlpha"/>
<feOffset dy="2"/>
<feGaussianBlur stdDeviation="4"/>
<feColorMatrix type="matrix" values="0 0 0 0 0 0 0 0 0 0 0 0 0 0 0 0 0 0 0.25 0"/>
<feBlend mode="normal" in2="BackgroundImageFix" result="effect1_dropShadow_5829_13322"/>
<feBlend mode="normal" in="SourceGraphic" in2="effect1_dropShadow_5829_13322" result="shape"/>
</filter>
<clipPath id="clip0_5829_13322">
<rect width="40" height="40" fill="white" transform="translate(33.5 21)"/>
</clipPath>
<clipPath id="clip1_5829_13322">
<rect width="40" height="38.75" fill="white" transform="translate(33.5 21.625)"/>
</clipPath>
</defs>
</svg>
