<svg width="107" height="109" viewBox="0 0 107 109" fill="none" xmlns="http://www.w3.org/2000/svg">
<g filter="url(#filter0_d_5829_13048)">
<rect x="8" y="6" width="91" height="93" rx="12" fill="#151B23"/>
<rect x="9" y="7" width="89" height="91" rx="11" stroke="#1F2937" stroke-width="2"/>
<path d="M60.4165 36.1913L53.7691 32.3534C53.6874 32.3061 53.5946 32.2812 53.5001 32.2812C53.4057 32.2812 53.3129 32.3061 53.2311 32.3534L46.5837 36.1913C46.502 36.2384 46.4341 36.3062 46.3868 36.3879C46.3395 36.4696 46.3146 36.5623 46.3145 36.6567V44.3324C46.3145 44.5243 46.4173 44.7019 46.5837 44.7984L53.2311 48.6362C53.3975 48.7322 53.6021 48.7322 53.7691 48.6362L60.4165 44.7984C60.5829 44.7024 60.6852 44.5248 60.6852 44.3324V36.6567C60.6852 36.4643 60.5829 36.2872 60.4165 36.1907V36.1913Z" fill="#8080F2"/>
<path d="M36.216 39.6862L44.1589 25.8683C44.4473 25.3684 44.9805 25 45.5573 25H61.4425C62.0198 25 62.5525 25.3684 62.8414 25.8683L70.7838 39.656C70.9255 39.9041 71 40.185 71 40.4707C71 40.7565 70.9255 41.0373 70.7838 41.2855L62.8414 54.9905C62.5525 55.4898 62.0198 55.7453 61.4425 55.7453H45.5573C44.9805 55.7453 44.4473 55.4978 44.1589 54.9979L36.2165 41.2706C36.0748 41.0306 36 40.7569 36 40.4781C36 40.1994 36.0748 39.9257 36.2165 39.6857L36.216 39.6862ZM42.7928 46.3303C42.7928 46.5339 42.9153 46.7216 43.0913 46.8233L53.2086 52.6602C53.3846 52.7619 53.6051 52.7619 53.7811 52.6602L63.9059 46.8233C64.0819 46.7216 64.2048 46.5339 64.2048 46.3303V34.6561C64.2048 34.4531 64.0834 34.2649 63.908 34.1632L53.7901 28.3274C53.7031 28.2774 53.6045 28.2512 53.5041 28.2512C53.4038 28.2512 53.3052 28.2774 53.2182 28.3274L43.0924 34.1637C42.9164 34.2655 42.7923 34.4537 42.7923 34.6567V46.3309L42.7928 46.3303Z" fill="#4B32C3"/>
<path d="M35.5043 82V71.8182H42.1264V73.3643H37.3487V76.1286H41.7834V77.6747H37.3487V80.4538H42.1662V82H35.5043ZM49.9641 76.3821L48.3235 76.5611C48.2771 76.3954 48.1959 76.2396 48.0799 76.0938C47.9672 75.9479 47.8147 75.8303 47.6225 75.7408C47.4303 75.6513 47.195 75.6065 46.9165 75.6065C46.542 75.6065 46.2272 75.6877 45.9719 75.8501C45.7201 76.0125 45.5958 76.223 45.5991 76.4815C45.5958 76.7036 45.677 76.8842 45.8427 77.0234C46.0117 77.1626 46.2901 77.277 46.6779 77.3665L47.9805 77.6449C48.703 77.8007 49.2399 78.0476 49.5913 78.3857C49.9459 78.7237 50.1249 79.1662 50.1282 79.7131C50.1249 80.1937 49.984 80.6179 49.7056 80.9858C49.4305 81.3504 49.0477 81.6354 48.5572 81.8409C48.0666 82.0464 47.5032 82.1491 46.8668 82.1491C45.9322 82.1491 45.1798 81.9536 44.6097 81.5625C44.0397 81.1681 43.6999 80.6196 43.5906 79.9169L45.3455 79.7479C45.4251 80.0926 45.5941 80.3527 45.8526 80.5284C46.1112 80.7041 46.4476 80.7919 46.8619 80.7919C47.2894 80.7919 47.6325 80.7041 47.891 80.5284C48.1528 80.3527 48.2837 80.1357 48.2837 79.8771C48.2837 79.6584 48.1992 79.4777 48.0302 79.3352C47.8645 79.1927 47.6059 79.0833 47.2546 79.0071L45.9521 78.7337C45.2196 78.5812 44.6777 78.3243 44.3263 77.9631C43.975 77.5985 43.801 77.1378 43.8043 76.581C43.801 76.1103 43.9286 75.7027 44.1871 75.358C44.449 75.0099 44.8119 74.7415 45.2759 74.5526C45.7433 74.3603 46.2818 74.2642 46.8917 74.2642C47.7866 74.2642 48.4909 74.4548 49.0046 74.8359C49.5217 75.2171 49.8415 75.7325 49.9641 76.3821ZM53.4119 71.8182V82H51.6122V71.8182H53.4119ZM55.2626 82V74.3636H57.0623V82H55.2626ZM56.1674 73.2798C55.8824 73.2798 55.6371 73.1854 55.4316 72.9964C55.2261 72.8042 55.1234 72.5739 55.1234 72.3054C55.1234 72.0336 55.2261 71.8033 55.4316 71.6143C55.6371 71.4221 55.8824 71.326 56.1674 71.326C56.4558 71.326 56.7011 71.4221 56.9032 71.6143C57.1087 71.8033 57.2115 72.0336 57.2115 72.3054C57.2115 72.5739 57.1087 72.8042 56.9032 72.9964C56.7011 73.1854 56.4558 73.2798 56.1674 73.2798ZM60.7127 77.5256V82H58.913V74.3636H60.6332V75.6612H60.7227C60.8983 75.2337 61.1784 74.8939 61.5629 74.642C61.9506 74.3902 62.4296 74.2642 62.9996 74.2642C63.5266 74.2642 63.9857 74.3769 64.3768 74.6023C64.7712 74.8277 65.0761 75.1541 65.2915 75.5817C65.5103 76.0092 65.618 76.5279 65.6147 77.1378V82H63.815V77.4162C63.815 76.9058 63.6824 76.5064 63.4173 76.218C63.1554 75.9297 62.7925 75.7855 62.3285 75.7855C62.0136 75.7855 61.7335 75.8551 61.4883 75.9943C61.2463 76.1302 61.0558 76.3274 60.9165 76.5859C60.7807 76.8445 60.7127 77.1577 60.7127 77.5256ZM71.2575 74.3636V75.7557H66.8675V74.3636H71.2575ZM67.9513 72.5341H69.7511V79.7031C69.7511 79.9451 69.7875 80.1307 69.8604 80.2599C69.9367 80.3859 70.0361 80.4721 70.1587 80.5185C70.2814 80.5649 70.4173 80.5881 70.5664 80.5881C70.6791 80.5881 70.7818 80.5798 70.8746 80.5632C70.9708 80.5466 71.0437 80.5317 71.0934 80.5185L71.3967 81.9254C71.3005 81.9586 71.163 81.995 70.984 82.0348C70.8084 82.0746 70.5929 82.0978 70.3377 82.1044C69.887 82.1177 69.4809 82.0497 69.1197 81.9006C68.7584 81.7481 68.4717 81.5128 68.2596 81.1946C68.0508 80.8764 67.948 80.4787 67.9513 80.0014V72.5341Z" fill="white"/>
</g>
<defs>
<filter id="filter0_d_5829_13048" x="0" y="0" width="107" height="109" filterUnits="userSpaceOnUse" color-interpolation-filters="sRGB">
<feFlood flood-opacity="0" result="BackgroundImageFix"/>
<feColorMatrix in="SourceAlpha" type="matrix" values="0 0 0 0 0 0 0 0 0 0 0 0 0 0 0 0 0 0 127 0" result="hardAlpha"/>
<feOffset dy="2"/>
<feGaussianBlur stdDeviation="4"/>
<feColorMatrix type="matrix" values="0 0 0 0 0 0 0 0 0 0 0 0 0 0 0 0 0 0 0.25 0"/>
<feBlend mode="normal" in2="BackgroundImageFix" result="effect1_dropShadow_5829_13048"/>
<feBlend mode="normal" in="SourceGraphic" in2="effect1_dropShadow_5829_13048" result="shape"/>
</filter>
</defs>
</svg>
