<svg width="107" height="109" viewBox="0 0 107 109" fill="none" xmlns="http://www.w3.org/2000/svg">
<g filter="url(#filter0_d_5845_13279)">
<rect x="8" y="6" width="91" height="93" rx="12" fill="#151B23"/>
<rect x="9" y="7" width="89" height="91" rx="11" stroke="#1F2937" stroke-width="2"/>
<path d="M62.458 39.8164C63.4981 39.886 64.5281 39.5754 65.3563 38.9424C66.1846 38.3094 66.7547 37.3971 66.9606 36.3752C66.7056 35.9799 66.3555 35.6549 65.9425 35.4299C65.5294 35.2049 65.0664 35.0871 64.5961 35.0874C62.1101 35.0305 60.7763 37.988 62.4591 39.8174L62.458 39.8164ZM52.4168 27.9446L58.2805 24.5483L56.4117 23.4946L48.3247 28.1788L48.9691 28.5376L50.1935 29.2259L52.4168 27.9391V27.9446ZM59.0322 24.2354C59.1296 24.2649 59.2084 24.3448 59.2379 24.4411L61.9558 32.7491C61.9808 32.8179 61.9809 32.8933 61.9558 32.9622C61.9308 33.031 61.8824 33.0888 61.8191 33.1255C60.7713 33.7416 59.9555 34.6853 59.4973 35.811C59.0391 36.9368 58.9641 38.182 59.2839 39.3546C59.6301 40.6201 60.4139 41.7218 61.496 42.4637C62.5781 43.2056 63.8883 43.5396 65.1935 43.4063C65.2662 43.4008 65.3387 43.4196 65.3995 43.4598C65.4603 43.5 65.506 43.5594 65.5294 43.6284L68.3337 52.1663C68.3557 52.2353 68.3541 52.3096 68.3294 52.3777C68.3047 52.4458 68.2581 52.5038 68.197 52.5426L59.5979 57.7629C59.5538 57.7869 59.5047 57.8003 59.4546 57.8023C59.4164 57.8105 59.377 57.8107 59.3388 57.803C59.3006 57.7952 59.2644 57.7798 59.2324 57.7575L56.2071 55.7912C56.1546 55.7566 56.1132 55.7076 56.0878 55.6501L50.1836 41.5397L41.1907 46.8738C41.1732 46.8858 41.1502 46.8967 41.1338 46.9088C41.0875 46.9268 41.0378 46.9341 40.9883 46.9301C40.9389 46.9261 40.891 46.911 40.8482 46.8858L38.8141 45.6899C38.7425 45.6509 38.6891 45.5853 38.6656 45.5073C38.642 45.4292 38.6502 45.345 38.6883 45.273L47.3902 28.0409C47.4207 27.977 47.4731 27.9261 47.5379 27.8976L56.2464 22.8545C56.2945 22.8254 56.3493 22.8096 56.4055 22.8086C56.4616 22.8077 56.517 22.8216 56.5659 22.8491L59.0322 24.2354ZM49.9265 29.8156L47.8126 28.6241L39.3951 45.2872L40.9226 46.1877L48.178 36.3238C48.2102 36.2763 48.2551 36.2389 48.3075 36.2157C48.3599 36.1925 48.4178 36.1844 48.4746 36.1925C48.5308 36.1989 48.5843 36.2202 48.6295 36.2543C48.6747 36.2883 48.71 36.3339 48.7317 36.3861L56.6403 55.3109L58.7554 56.6797L49.9331 29.8156H49.9265ZM64.595 41.3668C62.1265 41.3668 60.4513 38.859 61.3967 36.5787C62.3377 34.2995 65.2952 33.7131 67.0382 35.4572C67.6893 36.106 68.0536 36.9846 68.0536 37.9027C68.0545 38.3574 67.9657 38.8078 67.7922 39.2281C67.6188 39.6484 67.3641 40.0304 67.0429 40.3522C66.7216 40.6739 66.34 40.9292 65.92 41.1033C65.4999 41.2774 65.0497 41.3669 64.595 41.3668Z" fill="#F3F4F6"/>
<path d="M25.147 82L22.2734 71.8182H24.2571L26.0916 79.3004H26.1861L28.1449 71.8182H29.9496L31.9134 79.3054H32.0028L33.8374 71.8182H35.821L32.9474 82H31.1278L29.0895 74.8558H29.0099L26.9666 82H25.147ZM37.0204 82V74.3636H38.8201V82H37.0204ZM37.9252 73.2798C37.6402 73.2798 37.3949 73.1854 37.1895 72.9964C36.984 72.8042 36.8812 72.5739 36.8812 72.3054C36.8812 72.0336 36.984 71.8033 37.1895 71.6143C37.3949 71.4221 37.6402 71.326 37.9252 71.326C38.2136 71.326 38.4589 71.4221 38.661 71.6143C38.8665 71.8033 38.9693 72.0336 38.9693 72.3054C38.9693 72.5739 38.8665 72.8042 38.661 72.9964C38.4589 73.1854 38.2136 73.2798 37.9252 73.2798ZM42.4705 77.5256V82H40.6708V74.3636H42.391V75.6612H42.4805C42.6561 75.2337 42.9362 74.8939 43.3207 74.642C43.7085 74.3902 44.1874 74.2642 44.7575 74.2642C45.2844 74.2642 45.7435 74.3769 46.1346 74.6023C46.529 74.8277 46.8339 75.1541 47.0494 75.5817C47.2681 76.0092 47.3758 76.5279 47.3725 77.1378V82H45.5728V77.4162C45.5728 76.9058 45.4402 76.5064 45.1751 76.218C44.9132 75.9297 44.5503 75.7855 44.0863 75.7855C43.7714 75.7855 43.4914 75.8551 43.2461 75.9943C43.0041 76.1302 42.8136 76.3274 42.6744 76.5859C42.5385 76.8445 42.4705 77.1577 42.4705 77.5256ZM52.0359 82.1342C51.436 82.1342 50.899 81.9801 50.4251 81.6719C49.9511 81.3636 49.5766 80.9162 49.3015 80.3295C49.0264 79.7429 48.8888 79.0303 48.8888 78.1918C48.8888 77.3433 49.0281 76.6274 49.3065 76.044C49.5882 75.4574 49.9677 75.0149 50.445 74.7166C50.9222 74.415 51.4542 74.2642 52.0408 74.2642C52.4883 74.2642 52.8562 74.3404 53.1445 74.4929C53.4329 74.642 53.6616 74.8227 53.8306 75.0348C53.9996 75.2436 54.1306 75.4408 54.2234 75.6264H54.2979V71.8182H56.1026V82H54.3327V80.7969H54.2234C54.1306 80.9825 53.9963 81.1797 53.8207 81.3885C53.645 81.594 53.413 81.7696 53.1246 81.9155C52.8363 82.0613 52.4734 82.1342 52.0359 82.1342ZM52.538 80.6577C52.9192 80.6577 53.244 80.5549 53.5124 80.3494C53.7809 80.1406 53.9847 79.8506 54.1239 79.4794C54.2631 79.1082 54.3327 78.6757 54.3327 78.1818C54.3327 77.688 54.2631 77.2588 54.1239 76.8942C53.988 76.5296 53.7859 76.2462 53.5174 76.044C53.2522 75.8419 52.9258 75.7408 52.538 75.7408C52.137 75.7408 51.8022 75.8452 51.5337 76.054C51.2653 76.2628 51.0631 76.5511 50.9272 76.919C50.7913 77.2869 50.7234 77.7079 50.7234 78.1818C50.7234 78.6591 50.7913 79.085 50.9272 79.4595C51.0664 79.8307 51.2702 80.1241 51.5387 80.3395C51.8105 80.5516 52.1436 80.6577 52.538 80.6577ZM61.3514 82.1491C60.6056 82.1491 59.9593 81.9851 59.4125 81.657C58.8656 81.3288 58.4413 80.8698 58.1397 80.2798C57.8414 79.6899 57.6923 79.0005 57.6923 78.2116C57.6923 77.4228 57.8414 76.7318 58.1397 76.1385C58.4413 75.5452 58.8656 75.0845 59.4125 74.7564C59.9593 74.4283 60.6056 74.2642 61.3514 74.2642C62.0971 74.2642 62.7434 74.4283 63.2903 74.7564C63.8372 75.0845 64.2598 75.5452 64.5581 76.1385C64.8597 76.7318 65.0105 77.4228 65.0105 78.2116C65.0105 79.0005 64.8597 79.6899 64.5581 80.2798C64.2598 80.8698 63.8372 81.3288 63.2903 81.657C62.7434 81.9851 62.0971 82.1491 61.3514 82.1491ZM61.3613 80.7074C61.7657 80.7074 62.1038 80.5964 62.3755 80.3743C62.6473 80.1489 62.8495 79.8473 62.9821 79.4695C63.118 79.0916 63.1859 78.6707 63.1859 78.2067C63.1859 77.7393 63.118 77.3168 62.9821 76.9389C62.8495 76.5578 62.6473 76.2545 62.3755 76.0291C62.1038 75.8037 61.7657 75.6911 61.3613 75.6911C60.947 75.6911 60.6023 75.8037 60.3272 76.0291C60.0555 76.2545 59.8516 76.5578 59.7157 76.9389C59.5832 77.3168 59.5169 77.7393 59.5169 78.2067C59.5169 78.6707 59.5832 79.0916 59.7157 79.4695C59.8516 79.8473 60.0555 80.1489 60.3272 80.3743C60.6023 80.5964 60.947 80.7074 61.3613 80.7074ZM67.8952 82L65.7376 74.3636H67.5721L68.9144 79.733H68.984L70.3562 74.3636H72.1708L73.543 79.7031H73.6175L74.94 74.3636H76.7795L74.6168 82H72.7425L71.3107 76.8395H71.2063L69.7745 82H67.8952ZM84.0716 76.3821L82.4309 76.5611C82.3845 76.3954 82.3033 76.2396 82.1873 76.0938C82.0746 75.9479 81.9222 75.8303 81.7299 75.7408C81.5377 75.6513 81.3024 75.6065 81.024 75.6065C80.6494 75.6065 80.3346 75.6877 80.0794 75.8501C79.8275 76.0125 79.7032 76.223 79.7065 76.4815C79.7032 76.7036 79.7844 76.8842 79.9501 77.0234C80.1191 77.1626 80.3975 77.277 80.7853 77.3665L82.0879 77.6449C82.8104 77.8007 83.3474 78.0476 83.6987 78.3857C84.0533 78.7237 84.2323 79.1662 84.2356 79.7131C84.2323 80.1937 84.0914 80.6179 83.813 80.9858C83.5379 81.3504 83.1551 81.6354 82.6646 81.8409C82.1741 82.0464 81.6106 82.1491 80.9743 82.1491C80.0396 82.1491 79.2872 81.9536 78.7172 81.5625C78.1471 81.1681 77.8074 80.6196 77.698 79.9169L79.4529 79.7479C79.5325 80.0926 79.7015 80.3527 79.96 80.5284C80.2186 80.7041 80.555 80.7919 80.9693 80.7919C81.3968 80.7919 81.7399 80.7041 81.9984 80.5284C82.2602 80.3527 82.3912 80.1357 82.3912 79.8771C82.3912 79.6584 82.3066 79.4777 82.1376 79.3352C81.9719 79.1927 81.7134 79.0833 81.362 79.0071L80.0595 78.7337C79.327 78.5812 78.7851 78.3243 78.4338 77.9631C78.0824 77.5985 77.9084 77.1378 77.9118 76.581C77.9084 76.1103 78.036 75.7027 78.2946 75.358C78.5564 75.0099 78.9193 74.7415 79.3833 74.5526C79.8507 74.3603 80.3893 74.2642 80.9991 74.2642C81.894 74.2642 82.5983 74.4548 83.112 74.8359C83.6291 75.2171 83.9489 75.7325 84.0716 76.3821Z" fill="white"/>
</g>
<defs>
<filter id="filter0_d_5845_13279" x="0" y="0" width="107" height="109" filterUnits="userSpaceOnUse" color-interpolation-filters="sRGB">
<feFlood flood-opacity="0" result="BackgroundImageFix"/>
<feColorMatrix in="SourceAlpha" type="matrix" values="0 0 0 0 0 0 0 0 0 0 0 0 0 0 0 0 0 0 127 0" result="hardAlpha"/>
<feOffset dy="2"/>
<feGaussianBlur stdDeviation="4"/>
<feColorMatrix type="matrix" values="0 0 0 0 0 0 0 0 0 0 0 0 0 0 0 0 0 0 0.25 0"/>
<feBlend mode="normal" in2="BackgroundImageFix" result="effect1_dropShadow_5845_13279"/>
<feBlend mode="normal" in="SourceGraphic" in2="effect1_dropShadow_5845_13279" result="shape"/>
</filter>
</defs>
</svg>
