<svg width="107" height="109" viewBox="0 0 107 109" fill="none" xmlns="http://www.w3.org/2000/svg">
<g filter="url(#filter0_d_5846_13437)">
<rect x="8" y="6" width="91" height="93" rx="12" fill="#151B23"/>
<rect x="9" y="7" width="89" height="91" rx="11" stroke="#1F2937" stroke-width="2"/>
<path d="M35.3986 42.6593V38.5785H40.4962V38.3377H35.3986V34.6134H40.8183V34.375H35.1602V42.8977H40.8653V42.6593H35.3986ZM45.4619 36.7627L43.3481 39.5448L41.2837 36.7627H40.9742L43.206 39.7236L40.7587 42.8988H41.0452L43.3493 39.9024L45.6648 42.8988H45.9628L43.504 39.7236L45.7485 36.7627H45.4619ZM46.6793 45V41.1794H46.7022C46.8459 41.7373 47.1286 42.1851 47.5504 42.5229C47.9723 42.8606 48.5095 43.0295 49.1621 43.0295C49.584 43.0295 49.958 42.9439 50.2844 42.7728C50.6107 42.6016 50.8831 42.3689 51.1017 42.0747C51.3202 41.7812 51.4872 41.4392 51.6026 41.0487C51.7188 40.6491 51.777 40.2349 51.7757 39.8187C51.7757 39.3572 51.7161 38.9315 51.5969 38.5418C51.4881 38.1744 51.312 37.8304 51.0776 37.5273C50.8563 37.2461 50.5752 37.0178 50.2546 36.859C49.9143 36.6945 49.54 36.6124 49.1621 36.6194C48.8511 36.6194 48.5626 36.6653 48.2967 36.757C48.0386 36.8433 47.7979 36.9749 47.586 37.1456C47.3797 37.3122 47.2008 37.509 47.0495 37.7359C46.8975 37.9656 46.7808 38.2167 46.7033 38.481H46.6793V36.7627H46.4397V45H46.6793ZM49.1621 42.8037C48.4132 42.8037 47.8122 42.5469 47.359 42.0334C46.9058 41.5199 46.6793 40.7816 46.6793 39.8187C46.6793 39.4214 46.7351 39.0431 46.8466 38.6839C46.9574 38.327 47.1183 38.013 47.3292 37.7417C47.6456 37.3347 47.8015 37.2568 48.111 37.0974C48.4374 36.9356 48.7978 36.8538 49.1621 36.859C49.5595 36.859 49.9072 36.9385 50.2053 37.0974C50.5048 37.2572 50.752 37.4738 50.9469 37.7474C51.1418 38.0225 51.2889 38.337 51.3882 38.6908C51.4876 39.0454 51.5373 39.4214 51.5373 39.8187C51.537 40.1793 51.4908 40.5383 51.3997 40.8871C51.308 41.2424 51.1666 41.5607 50.9756 41.842C50.7855 42.1244 50.5349 42.3609 50.242 42.5343C49.9439 42.7139 49.584 42.8037 49.1621 42.8037ZM53.0893 42.8988V39.4256C53.0893 39.0909 53.1371 38.7645 53.2326 38.4466C53.3274 38.128 53.4745 37.8471 53.674 37.6041C53.8726 37.3619 54.1252 37.1708 54.4317 37.031C54.7389 36.8934 55.103 36.8361 55.5241 36.859V36.6183C55.1995 36.6058 54.875 36.6465 54.5635 36.7387C54.2884 36.8258 54.0515 36.945 53.8528 37.0963C53.6606 37.2403 53.4986 37.4206 53.3759 37.627C53.2551 37.8292 53.1662 38.0488 53.1123 38.2781H53.0893V36.7616H52.8498V42.8977L53.0893 42.8988ZM55.8221 39.8784H60.9552C60.9723 39.4686 60.9298 39.0586 60.8291 38.661C60.7386 38.2873 60.5767 37.9346 60.3523 37.6225C60.1305 37.3166 59.84 37.0673 59.504 36.8946C59.1594 36.7111 58.7478 36.6194 58.2694 36.6194C57.9279 36.6194 57.5935 36.6913 57.2664 36.8349C56.9385 36.9804 56.6454 37.1942 56.4067 37.462C56.1606 37.7363 55.962 38.0726 55.8106 38.4707C55.6522 38.9065 55.5753 39.3677 55.5837 39.8314C55.5837 40.2845 55.6356 40.7083 55.7396 41.1026C55.8316 41.4719 55.9934 41.8201 56.2164 42.1285C56.4319 42.4197 56.7086 42.6444 57.0463 42.8026C57.3841 42.963 57.7918 43.0387 58.2694 43.0295C58.9702 43.0295 59.559 42.8327 60.0359 42.4392C60.5135 42.0449 60.7963 41.4897 60.8841 40.7736H60.6446C60.5414 41.4499 60.277 41.9574 59.8513 42.2959C59.4257 42.6337 58.8907 42.8026 58.2465 42.8026C57.8079 42.8026 57.4372 42.7273 57.1346 42.5767C56.8412 42.4329 56.5874 42.2197 56.3953 41.9554C56.1976 41.6761 56.0537 41.3624 55.9711 41.0304C55.8762 40.6536 55.8262 40.2669 55.8221 39.8784ZM60.7168 39.6399H55.8221C55.8458 39.2097 55.9257 38.8238 56.0617 38.4822C56.1969 38.1398 56.3739 37.8475 56.5924 37.6053C56.811 37.3622 57.0655 37.1769 57.3558 37.0493C57.6462 36.9232 57.9588 36.8598 58.2935 36.859C58.6917 36.859 59.0417 36.9324 59.3435 37.0791C59.6461 37.2266 59.8987 37.4276 60.1012 37.6821C60.3053 37.9365 60.4585 38.233 60.5609 38.5716C60.6648 38.9101 60.7168 39.2662 60.7168 39.6399ZM65.9095 38.5773H66.1479C66.1479 37.8934 65.9492 37.3962 65.5519 37.086C65.1529 36.775 64.6115 36.6194 63.9276 36.6194C63.5996 36.6115 63.2728 36.66 62.9612 36.7627C62.6983 36.8583 62.4832 36.9817 62.3159 37.133C62.1485 37.2843 62.0293 37.4517 61.9582 37.6351C61.8864 37.8185 61.8505 37.9935 61.8505 38.1601C61.8505 38.494 61.9101 38.7603 62.0293 38.959C62.1493 39.1585 62.3365 39.314 62.591 39.4256C62.766 39.505 62.9647 39.5765 63.187 39.6399C63.4094 39.7034 63.6681 39.771 63.9631 39.8428C64.2267 39.907 64.4854 39.9708 64.7391 40.0343C64.9928 40.0977 65.2175 40.1829 65.4131 40.2899C65.6088 40.3976 65.7681 40.5352 65.8912 40.7025C66.0142 40.8699 66.0757 41.0888 66.0757 41.3594C66.0757 41.6215 66.0142 41.8443 65.8912 42.0277C65.7674 42.2111 65.6103 42.3601 65.42 42.4747C65.229 42.5893 65.0158 42.673 64.7804 42.7258C64.5553 42.7759 64.3255 42.8017 64.0949 42.8026C63.3705 42.8026 62.8153 42.6417 62.4293 42.32C62.0434 41.9975 61.8505 41.49 61.8505 40.7977H61.612C61.612 41.5695 61.821 42.1346 62.2391 42.4931C62.6563 42.8507 63.2749 43.0295 64.0949 43.0295C64.3578 43.0295 64.6222 42.9997 64.8881 42.9401C65.1556 42.8805 65.3944 42.7831 65.6046 42.6478C65.9198 42.4449 65.9863 42.3383 66.1181 42.1228C66.2496 41.9073 66.3153 41.6448 66.3153 41.3353C66.3153 41.0411 66.2576 40.8023 66.1422 40.6189C66.0257 40.4364 65.8708 40.2815 65.6883 40.1649C65.4919 40.0417 65.2788 39.9475 65.0555 39.8852C64.8193 39.8171 64.5824 39.7514 64.3448 39.6881C64.053 39.6106 63.7607 39.535 63.4679 39.4611C63.2302 39.4005 62.9966 39.3247 62.7686 39.2341C62.5734 39.1551 62.4028 39.0253 62.2746 38.8582C62.1508 38.6954 62.0889 38.4623 62.0889 38.1589C62.0889 38.1039 62.1049 38.0045 62.137 37.8609C62.1765 37.6995 62.2544 37.5501 62.364 37.4253C62.4832 37.2786 62.6662 37.1475 62.9131 37.0321C63.1599 36.9167 63.4981 36.859 63.9276 36.859C64.2218 36.859 64.4904 36.8907 64.7334 36.9542C64.9764 37.0176 65.1854 37.1192 65.3604 37.2591C65.5347 37.3974 65.6699 37.5743 65.7662 37.7898C65.8617 38.0038 65.9095 38.2663 65.9095 38.5773ZM71.4346 38.5773H71.6754C71.6754 37.8934 71.4763 37.3962 71.0781 37.086C70.6792 36.775 70.1378 36.6194 69.4538 36.6194C69.1259 36.6115 68.799 36.66 68.4875 36.7627C68.2239 36.8583 68.0091 36.9817 67.8433 37.133C67.686 37.2699 67.5631 37.4419 67.4845 37.6351C67.4127 37.8185 67.3768 37.9935 67.3768 38.1601C67.3768 38.494 67.4367 38.7603 67.5567 38.959C67.6759 39.1585 67.8632 39.314 68.1184 39.4256C68.2926 39.505 68.4913 39.5765 68.7145 39.6399C68.9369 39.7034 69.1955 39.771 69.4905 39.8428L70.2654 40.0343C70.5207 40.0977 70.7457 40.1829 70.9406 40.2899C71.1355 40.3969 71.2944 40.5344 71.4174 40.7025C71.5405 40.8707 71.6024 41.0896 71.6031 41.3594C71.6031 41.6215 71.5412 41.8443 71.4174 42.0277C71.2952 42.2111 71.1381 42.3601 70.9463 42.4747C70.7553 42.5893 70.5424 42.673 70.3078 42.7258C70.0824 42.776 69.8522 42.8017 69.6212 42.8026C68.8967 42.8026 68.3415 42.6417 67.9556 42.32C67.5697 41.9975 67.3768 41.49 67.3768 40.7977H67.1383C67.1383 41.5695 67.3473 42.1346 67.7653 42.4931C68.1826 42.8507 68.8016 43.0295 69.6223 43.0295C69.8837 43.0295 70.1481 42.9997 70.4156 42.9401C70.6815 42.8805 70.9199 42.7831 71.1309 42.6478C71.4472 42.4449 71.5137 42.3383 71.6444 42.1228C71.7758 41.9073 71.8416 41.6448 71.8416 41.3353C71.8416 41.0411 71.7839 40.8023 71.6685 40.6189C71.5538 40.4355 71.4025 40.2841 71.2145 40.1649C71.0182 40.0417 70.8051 39.9475 70.5818 39.8852C70.3456 39.8171 70.1086 39.7514 69.8711 39.6881C69.5793 39.6105 69.287 39.5348 68.9942 39.4611C68.7569 39.4004 68.5237 39.3246 68.2961 39.2341C68.1004 39.1553 67.9294 39.0255 67.8009 38.8582C67.6778 38.6954 67.6163 38.4623 67.6163 38.1589C67.6163 38.1039 67.632 38.0045 67.6633 37.8609C67.7028 37.6995 67.7807 37.5501 67.8903 37.4253C68.0095 37.2786 68.1929 37.1475 68.4405 37.0321C68.6866 36.9167 69.0244 36.859 69.4538 36.859C69.7481 36.859 70.0167 36.8907 70.2597 36.9542C70.5027 37.0176 70.7117 37.1192 70.8867 37.2591C71.0617 37.3974 71.197 37.5743 71.2925 37.7898C71.388 38.0038 71.4346 38.2663 71.4346 38.5773Z" fill="#F3F4F6"/>
<path d="M27.4886 82V71.8182H34.1108V73.3643H29.3331V76.1286H33.7678V77.6747H29.3331V80.4538H34.1506V82H27.4886ZM37.3846 74.3636L38.9258 77.1825L40.4918 74.3636H42.396L40.0941 78.1818L42.4357 82H40.5415L38.9258 79.2507L37.3249 82H35.4158L37.7425 78.1818L35.4755 74.3636H37.3846ZM43.788 84.8636V74.3636H45.5579V75.6264H45.6623C45.7551 75.4408 45.886 75.2436 46.055 75.0348C46.2241 74.8227 46.4528 74.642 46.7411 74.4929C47.0295 74.3404 47.3974 74.2642 47.8448 74.2642C48.4348 74.2642 48.9667 74.415 49.4407 74.7166C49.918 75.0149 50.2958 75.4574 50.5742 76.044C50.8559 76.6274 50.9968 77.3433 50.9968 78.1918C50.9968 79.0303 50.8593 79.7429 50.5842 80.3295C50.3091 80.9162 49.9345 81.3636 49.4606 81.6719C48.9866 81.9801 48.4497 82.1342 47.8498 82.1342C47.4123 82.1342 47.0494 82.0613 46.761 81.9155C46.4727 81.7696 46.2406 81.594 46.065 81.3885C45.8926 81.1797 45.7584 80.9825 45.6623 80.7969H45.5877V84.8636H43.788ZM45.5529 78.1818C45.5529 78.6757 45.6225 79.1082 45.7617 79.4794C45.9042 79.8506 46.1081 80.1406 46.3732 80.3494C46.6417 80.5549 46.9665 80.6577 47.3477 80.6577C47.7454 80.6577 48.0785 80.5516 48.3469 80.3395C48.6154 80.1241 48.8176 79.8307 48.9535 79.4595C49.0927 79.085 49.1623 78.6591 49.1623 78.1818C49.1623 77.7079 49.0943 77.2869 48.9585 76.919C48.8226 76.5511 48.6204 76.2628 48.3519 76.054C48.0835 75.8452 47.7487 75.7408 47.3477 75.7408C46.9632 75.7408 46.6367 75.8419 46.3683 76.044C46.0998 76.2462 45.896 76.5296 45.7567 76.8942C45.6209 77.2588 45.5529 77.688 45.5529 78.1818ZM52.538 82V74.3636H54.283V75.6364H54.3626C54.5018 75.1955 54.7404 74.8558 55.0785 74.6172C55.4199 74.3752 55.8093 74.2543 56.2468 74.2543C56.3462 74.2543 56.4573 74.2592 56.5799 74.2692C56.7058 74.2758 56.8103 74.2874 56.8931 74.304V75.9595C56.8169 75.933 56.6959 75.9098 56.5302 75.8899C56.3678 75.8667 56.2103 75.8551 56.0579 75.8551C55.7298 75.8551 55.4348 75.9264 55.1729 76.0689C54.9144 76.2081 54.7106 76.402 54.5614 76.6506C54.4123 76.8991 54.3377 77.1858 54.3377 77.5107V82H52.538ZM61.155 82.1491C60.3894 82.1491 59.7282 81.9901 59.1713 81.6719C58.6178 81.3504 58.1919 80.8963 57.8936 80.3097C57.5953 79.7197 57.4462 79.0253 57.4462 78.2266C57.4462 77.4411 57.5953 76.7517 57.8936 76.1584C58.1953 75.5618 58.6162 75.0978 59.1564 74.7663C59.6967 74.4316 60.3314 74.2642 61.0605 74.2642C61.5312 74.2642 61.9753 74.3404 62.3929 74.4929C62.8139 74.642 63.1851 74.8741 63.5066 75.1889C63.8314 75.5038 64.0866 75.9048 64.2722 76.392C64.4578 76.8759 64.5506 77.4527 64.5506 78.1222V78.674H58.2914V77.4609H62.8255C62.8221 77.1162 62.7476 76.8097 62.6017 76.5412C62.4559 76.2694 62.2521 76.0556 61.9902 75.8999C61.7317 75.7441 61.4301 75.6662 61.0854 75.6662C60.7175 75.6662 60.3944 75.7557 60.1159 75.9347C59.8375 76.1103 59.6204 76.3423 59.4647 76.6307C59.3122 76.9157 59.2343 77.2289 59.231 77.5703V78.6293C59.231 79.0734 59.3122 79.4545 59.4746 79.7727C59.637 80.0876 59.8641 80.3295 60.1557 80.4986C60.4474 80.6643 60.7888 80.7472 61.1799 80.7472C61.4417 80.7472 61.6787 80.7107 61.8908 80.6378C62.1029 80.5616 62.2869 80.4505 62.4426 80.3047C62.5984 80.1589 62.7161 79.9782 62.7956 79.7628L64.476 79.9517C64.37 80.3958 64.1678 80.7836 63.8695 81.1151C63.5745 81.4432 63.1967 81.6984 62.736 81.8807C62.2753 82.0597 61.7483 82.1491 61.155 82.1491ZM72.1087 76.3821L70.468 76.5611C70.4216 76.3954 70.3404 76.2396 70.2244 76.0938C70.1117 75.9479 69.9593 75.8303 69.767 75.7408C69.5748 75.6513 69.3395 75.6065 69.0611 75.6065C68.6866 75.6065 68.3717 75.6877 68.1165 75.8501C67.8646 76.0125 67.7403 76.223 67.7436 76.4815C67.7403 76.7036 67.8215 76.8842 67.9872 77.0234C68.1563 77.1626 68.4347 77.277 68.8224 77.3665L70.125 77.6449C70.8475 77.8007 71.3845 78.0476 71.7358 78.3857C72.0904 78.7237 72.2694 79.1662 72.2727 79.7131C72.2694 80.1937 72.1286 80.6179 71.8501 80.9858C71.575 81.3504 71.1922 81.6354 70.7017 81.8409C70.2112 82.0464 69.6477 82.1491 69.0114 82.1491C68.0767 82.1491 67.3243 81.9536 66.7543 81.5625C66.1842 81.1681 65.8445 80.6196 65.7351 79.9169L67.4901 79.7479C67.5696 80.0926 67.7386 80.3527 67.9972 80.5284C68.2557 80.7041 68.5921 80.7919 69.0064 80.7919C69.4339 80.7919 69.777 80.7041 70.0355 80.5284C70.2973 80.3527 70.4283 80.1357 70.4283 79.8771C70.4283 79.6584 70.3438 79.4777 70.1747 79.3352C70.009 79.1927 69.7505 79.0833 69.3991 79.0071L68.0966 78.7337C67.3641 78.5812 66.8222 78.3243 66.4709 77.9631C66.1196 77.5985 65.9455 77.1378 65.9489 76.581C65.9455 76.1103 66.0732 75.7027 66.3317 75.358C66.5935 75.0099 66.9564 74.7415 67.4205 74.5526C67.8878 74.3603 68.4264 74.2642 69.0362 74.2642C69.9311 74.2642 70.6354 74.4548 71.1491 74.8359C71.6662 75.2171 71.986 75.7325 72.1087 76.3821ZM79.7923 76.3821L78.1516 76.5611C78.1052 76.3954 78.024 76.2396 77.908 76.0938C77.7953 75.9479 77.6429 75.8303 77.4506 75.7408C77.2584 75.6513 77.0231 75.6065 76.7447 75.6065C76.3701 75.6065 76.0553 75.6877 75.8001 75.8501C75.5482 76.0125 75.4239 76.223 75.4272 76.4815C75.4239 76.7036 75.5051 76.8842 75.6708 77.0234C75.8398 77.1626 76.1183 77.277 76.506 77.3665L77.8086 77.6449C78.5311 77.8007 79.0681 78.0476 79.4194 78.3857C79.774 78.7237 79.953 79.1662 79.9563 79.7131C79.953 80.1937 79.8121 80.6179 79.5337 80.9858C79.2586 81.3504 78.8758 81.6354 78.3853 81.8409C77.8948 82.0464 77.3313 82.1491 76.695 82.1491C75.7603 82.1491 75.0079 81.9536 74.4379 81.5625C73.8678 81.1681 73.5281 80.6196 73.4187 79.9169L75.1737 79.7479C75.2532 80.0926 75.4222 80.3527 75.6808 80.5284C75.9393 80.7041 76.2757 80.7919 76.69 80.7919C77.1175 80.7919 77.4606 80.7041 77.7191 80.5284C77.9809 80.3527 78.1119 80.1357 78.1119 79.8771C78.1119 79.6584 78.0273 79.4777 77.8583 79.3352C77.6926 79.1927 77.4341 79.0833 77.0827 79.0071L75.7802 78.7337C75.0477 78.5812 74.5058 78.3243 74.1545 77.9631C73.8031 77.5985 73.6291 77.1378 73.6325 76.581C73.6291 76.1103 73.7567 75.7027 74.0153 75.358C74.2771 75.0099 74.64 74.7415 75.104 74.5526C75.5714 74.3603 76.11 74.2642 76.7198 74.2642C77.6147 74.2642 78.319 74.4548 78.8327 74.8359C79.3498 75.2171 79.6696 75.7325 79.7923 76.3821Z" fill="white"/>
</g>
<defs>
<filter id="filter0_d_5846_13437" x="0" y="0" width="107" height="109" filterUnits="userSpaceOnUse" color-interpolation-filters="sRGB">
<feFlood flood-opacity="0" result="BackgroundImageFix"/>
<feColorMatrix in="SourceAlpha" type="matrix" values="0 0 0 0 0 0 0 0 0 0 0 0 0 0 0 0 0 0 127 0" result="hardAlpha"/>
<feOffset dy="2"/>
<feGaussianBlur stdDeviation="4"/>
<feColorMatrix type="matrix" values="0 0 0 0 0 0 0 0 0 0 0 0 0 0 0 0 0 0 0.25 0"/>
<feBlend mode="normal" in2="BackgroundImageFix" result="effect1_dropShadow_5846_13437"/>
<feBlend mode="normal" in="SourceGraphic" in2="effect1_dropShadow_5846_13437" result="shape"/>
</filter>
</defs>
</svg>
