<svg width="107" height="109" viewBox="0 0 107 109" fill="none" xmlns="http://www.w3.org/2000/svg">
<g filter="url(#filter0_d_5846_13447)">
<rect x="8" y="6" width="91" height="93" rx="12" fill="#151B23"/>
<rect x="9" y="7" width="89" height="91" rx="11" stroke="#1F2937" stroke-width="2"/>
<path d="M69.8986 31.9637L71 29.1101L70.9519 28.9329L60.0538 31.8051C61.2153 30.124 60.8161 28.7754 60.8161 28.7754C60.8161 28.7754 57.3358 30.999 54.7031 30.941C52.0716 30.882 51.2228 30.1798 47.1869 31.4671C43.1509 32.7534 42.0113 36.7029 40.8409 37.5516C39.6706 38.4004 36 41.1632 36 41.1632L36.0077 41.2124L39.3173 40.158C39.3173 40.158 38.4095 41.0134 36.4813 43.6121L36.3916 43.529L36.3948 43.5476C36.3948 43.5476 37.9447 45.9155 39.4661 45.478C39.6192 45.4336 39.7902 45.3625 39.9791 45.2648C40.5916 45.606 41.39 45.9418 42.2738 46.0337C42.2738 46.0337 41.6755 45.3391 41.1778 44.5484L41.5902 44.2804L41.5245 44.3263L42.7856 44.789L42.6467 43.6045L42.6587 43.5968L43.8969 44.0518L43.7438 42.9745C43.8986 42.8934 44.0555 42.8161 44.2141 42.7426L45.5047 37.859L50.8422 34.2179L50.4178 35.2854C49.335 37.9476 47.3039 38.5754 47.3039 38.5754L46.4552 38.897C45.8241 39.6429 45.5583 39.8266 45.3417 42.3291C45.8503 42.2023 46.337 42.1705 46.7767 42.2898C49.0572 42.9045 49.848 45.653 49.2333 46.4132C49.0802 46.6035 48.7137 46.9284 48.2511 47.3101H47.3258L47.3127 48.0615L47.2186 48.1359H46.2758L46.2648 48.8676L46.0188 49.0535C45.1328 49.0721 44.0128 48.2988 44.0128 48.2988C44.0128 49.0021 44.5969 50.0827 44.5969 50.0827L44.7008 50.0335L44.6133 50.098C44.6133 50.098 46.9812 51.6774 48.4731 51.0934C49.7987 50.5727 53.232 47.8646 56.1961 46.5838L65.1648 44.2213L66.3483 41.1555L59.5123 42.957V40.2051L67.5328 38.092L68.7162 35.0273L59.5145 37.4521V34.6991L69.8986 31.9637Z" fill="#F3F4F6"/>
<path d="M31.4193 82V71.8182H37.942V73.3643H33.2638V76.1286H37.4946V77.6747H33.2638V82H31.4193ZM41.672 82.1541C41.1881 82.1541 40.7522 82.0679 40.3644 81.8956C39.98 81.7199 39.675 81.4614 39.4497 81.12C39.2276 80.7786 39.1166 80.3577 39.1166 79.8572C39.1166 79.4264 39.1961 79.0701 39.3552 78.7884C39.5143 78.5066 39.7314 78.2812 40.0065 78.1122C40.2816 77.9432 40.5915 77.8156 40.9362 77.7294C41.2842 77.6399 41.6438 77.5753 42.015 77.5355C42.4624 77.4891 42.8254 77.4477 43.1038 77.4112C43.3822 77.3714 43.5844 77.3118 43.7103 77.2322C43.8396 77.1494 43.9042 77.0218 43.9042 76.8494V76.8196C43.9042 76.4451 43.7932 76.1551 43.5711 75.9496C43.349 75.7441 43.0292 75.6413 42.6116 75.6413C42.1708 75.6413 41.8211 75.7375 41.5626 75.9297C41.3074 76.1219 41.135 76.349 41.0455 76.6108L39.3651 76.3722C39.4977 75.9081 39.7165 75.5204 40.0214 75.2088C40.3263 74.8939 40.6992 74.6586 41.14 74.5028C41.5808 74.3438 42.068 74.2642 42.6017 74.2642C42.9695 74.2642 43.3358 74.3073 43.7004 74.3935C44.065 74.4796 44.3981 74.6222 44.6997 74.821C45.0013 75.0166 45.2432 75.2834 45.4255 75.6214C45.6111 75.9595 45.7039 76.3821 45.7039 76.8892V82H43.9738V80.951H43.9142C43.8048 81.1631 43.6507 81.362 43.4518 81.5476C43.2562 81.7299 43.0093 81.8774 42.711 81.9901C42.416 82.0994 42.0697 82.1541 41.672 82.1541ZM42.1393 80.8317C42.5006 80.8317 42.8138 80.7604 43.0789 80.6179C43.3441 80.4721 43.5479 80.2798 43.6904 80.0412C43.8363 79.8026 43.9092 79.5424 43.9092 79.2607V78.3608C43.8528 78.4072 43.7567 78.4503 43.6208 78.4901C43.4883 78.5298 43.3391 78.5646 43.1734 78.5945C43.0077 78.6243 42.8436 78.6508 42.6812 78.674C42.5188 78.6972 42.3779 78.7171 42.2586 78.7337C41.9901 78.7701 41.7499 78.8298 41.5377 78.9126C41.3256 78.9955 41.1582 79.1115 41.0356 79.2607C40.913 79.4065 40.8517 79.5954 40.8517 79.8274C40.8517 80.1589 40.9726 80.4091 41.2146 80.5781C41.4565 80.7472 41.7648 80.8317 42.1393 80.8317ZM53.5491 76.3821L51.9085 76.5611C51.8621 76.3954 51.7809 76.2396 51.6649 76.0938C51.5522 75.9479 51.3997 75.8303 51.2075 75.7408C51.0152 75.6513 50.7799 75.6065 50.5015 75.6065C50.127 75.6065 49.8121 75.6877 49.5569 75.8501C49.305 76.0125 49.1807 76.223 49.184 76.4815C49.1807 76.7036 49.2619 76.8842 49.4276 77.0234C49.5967 77.1626 49.8751 77.277 50.2629 77.3665L51.5654 77.6449C52.288 77.8007 52.8249 78.0476 53.1762 78.3857C53.5309 78.7237 53.7098 79.1662 53.7132 79.7131C53.7098 80.1937 53.569 80.6179 53.2906 80.9858C53.0155 81.3504 52.6327 81.6354 52.1421 81.8409C51.6516 82.0464 51.0882 82.1491 50.4518 82.1491C49.5171 82.1491 48.7648 81.9536 48.1947 81.5625C47.6246 81.1681 47.2849 80.6196 47.1755 79.9169L48.9305 79.7479C49.01 80.0926 49.1791 80.3527 49.4376 80.5284C49.6961 80.7041 50.0325 80.7919 50.4468 80.7919C50.8744 80.7919 51.2174 80.7041 51.4759 80.5284C51.7378 80.3527 51.8687 80.1357 51.8687 79.8771C51.8687 79.6584 51.7842 79.4777 51.6151 79.3352C51.4494 79.1927 51.1909 79.0833 50.8396 79.0071L49.537 78.7337C48.8045 78.5812 48.2626 78.3243 47.9113 77.9631C47.56 77.5985 47.386 77.1378 47.3893 76.581C47.386 76.1103 47.5136 75.7027 47.7721 75.358C48.0339 75.0099 48.3969 74.7415 48.8609 74.5526C49.3282 74.3603 49.8668 74.2642 50.4767 74.2642C51.3715 74.2642 52.0758 74.4548 52.5896 74.8359C53.1066 75.2171 53.4265 75.7325 53.5491 76.3821ZM59.0104 74.3636V75.7557H54.6205V74.3636H59.0104ZM55.7043 72.5341H57.504V79.7031C57.504 79.9451 57.5405 80.1307 57.6134 80.2599C57.6896 80.3859 57.789 80.4721 57.9117 80.5185C58.0343 80.5649 58.1702 80.5881 58.3193 80.5881C58.432 80.5881 58.5348 80.5798 58.6276 80.5632C58.7237 80.5466 58.7966 80.5317 58.8463 80.5185L59.1496 81.9254C59.0535 81.9586 58.9159 81.995 58.7369 82.0348C58.5613 82.0746 58.3459 82.0978 58.0906 82.1044C57.6399 82.1177 57.2339 82.0497 56.8726 81.9006C56.5113 81.7481 56.2246 81.5128 56.0125 81.1946C55.8037 80.8764 55.701 80.4787 55.7043 80.0014V72.5341ZM60.5155 82V74.3636H62.3153V82H60.5155ZM61.4204 73.2798C61.1353 73.2798 60.8901 73.1854 60.6846 72.9964C60.4791 72.8042 60.3763 72.5739 60.3763 72.3054C60.3763 72.0336 60.4791 71.8033 60.6846 71.6143C60.8901 71.4221 61.1353 71.326 61.4204 71.326C61.7087 71.326 61.954 71.4221 62.1562 71.6143C62.3617 71.8033 62.4644 72.0336 62.4644 72.3054C62.4644 72.5739 62.3617 72.8042 62.1562 72.9964C61.954 73.1854 61.7087 73.2798 61.4204 73.2798ZM68.0338 74.3636V75.7557H63.5196V74.3636H68.0338ZM64.6482 82V73.6428C64.6482 73.129 64.7542 72.7015 64.9664 72.3601C65.1818 72.0187 65.4701 71.7635 65.8314 71.5945C66.1927 71.4254 66.5937 71.3409 67.0345 71.3409C67.3461 71.3409 67.6228 71.3658 67.8648 71.4155C68.1067 71.4652 68.2857 71.5099 68.4017 71.5497L68.0438 72.9418C67.9675 72.9186 67.8714 72.8954 67.7554 72.8722C67.6394 72.8456 67.5102 72.8324 67.3676 72.8324C67.0329 72.8324 66.7959 72.9136 66.6567 73.076C66.5208 73.2351 66.4529 73.4638 66.4529 73.7621V82H64.6482ZM70.5619 84.8636C70.3166 84.8636 70.0896 84.8438 69.8808 84.804C69.6753 84.7675 69.5112 84.7244 69.3886 84.6747L69.8062 83.2727C70.068 83.349 70.3017 83.3854 70.5072 83.3821C70.7127 83.3788 70.8933 83.3142 71.0491 83.1882C71.2082 83.0656 71.3424 82.8601 71.4518 82.5717L71.6059 82.1591L68.8367 74.3636H70.7458L72.5058 80.1307H72.5853L74.3502 74.3636H76.2643L73.2068 82.9247C73.0642 83.3291 72.8753 83.6754 72.64 83.9638C72.4047 84.2554 72.1163 84.4775 71.7749 84.63C71.4369 84.7857 71.0325 84.8636 70.5619 84.8636Z" fill="white"/>
</g>
<defs>
<filter id="filter0_d_5846_13447" x="0" y="0" width="107" height="109" filterUnits="userSpaceOnUse" color-interpolation-filters="sRGB">
<feFlood flood-opacity="0" result="BackgroundImageFix"/>
<feColorMatrix in="SourceAlpha" type="matrix" values="0 0 0 0 0 0 0 0 0 0 0 0 0 0 0 0 0 0 127 0" result="hardAlpha"/>
<feOffset dy="2"/>
<feGaussianBlur stdDeviation="4"/>
<feColorMatrix type="matrix" values="0 0 0 0 0 0 0 0 0 0 0 0 0 0 0 0 0 0 0.25 0"/>
<feBlend mode="normal" in2="BackgroundImageFix" result="effect1_dropShadow_5846_13447"/>
<feBlend mode="normal" in="SourceGraphic" in2="effect1_dropShadow_5846_13447" result="shape"/>
</filter>
</defs>
</svg>
