<svg width="107" height="109" viewBox="0 0 107 109" fill="none" xmlns="http://www.w3.org/2000/svg">
<g filter="url(#filter0_d_5845_13736)">
<rect x="8" y="6" width="91" height="93" rx="12" fill="#151B23"/>
<rect x="9" y="7" width="89" height="91" rx="11" stroke="#1F2937" stroke-width="2"/>
<path d="M53.3535 40.0001C53.3535 36.7274 56.0066 34.0742 59.2794 34.0742C62.5521 34.0742 65.2052 36.7274 65.2052 40.0001C65.2052 43.273 62.5521 45.926 59.2794 45.926C56.0066 45.926 53.3535 43.273 53.3535 40.0001Z" fill="#1ABCFE"/>
<path d="M41.5 51.8517C41.5 48.579 44.1531 45.9258 47.4258 45.9258H53.3517V51.8517C53.3517 55.1245 50.6986 57.7776 47.4258 57.7776C44.1531 57.7776 41.5 55.1245 41.5 51.8517Z" fill="#0ACF83"/>
<path d="M53.3535 22.2227V34.0744H59.2794C62.5522 34.0744 65.2052 31.4214 65.2052 28.1486C65.2052 24.8758 62.5522 22.2227 59.2794 22.2227H53.3535Z" fill="#FF7262"/>
<path d="M41.5 28.1486C41.5 31.4214 44.1531 34.0744 47.4258 34.0744H53.3517V22.2227H47.4258C44.1531 22.2227 41.5 24.8758 41.5 28.1486Z" fill="#F24E1E"/>
<path d="M41.5 40.0001C41.5 43.273 44.1531 45.926 47.4258 45.926H53.3517V34.0742H47.4258C44.1531 34.0742 41.5 36.7274 41.5 40.0001Z" fill="#A259FF"/>
<path d="M33.9007 82V71.8182H40.4235V73.3643H35.7452V76.1286H39.976V77.6747H35.7452V82H33.9007ZM42.0243 82V74.3636H43.824V82H42.0243ZM42.9292 73.2798C42.6441 73.2798 42.3989 73.1854 42.1934 72.9964C41.9879 72.8042 41.8851 72.5739 41.8851 72.3054C41.8851 72.0336 41.9879 71.8033 42.1934 71.6143C42.3989 71.4221 42.6441 71.326 42.9292 71.326C43.2175 71.326 43.4628 71.4221 43.665 71.6143C43.8704 71.8033 43.9732 72.0336 43.9732 72.3054C43.9732 72.5739 43.8704 72.8042 43.665 72.9964C43.4628 73.1854 43.2175 73.2798 42.9292 73.2798ZM48.9957 85.0227C48.3494 85.0227 47.7943 84.9349 47.3303 84.7592C46.8662 84.5869 46.4934 84.3549 46.2116 84.0632C45.9299 83.7715 45.7344 83.4484 45.625 83.0938L47.2457 82.701C47.3187 82.8501 47.4247 82.9976 47.5639 83.1435C47.7031 83.2926 47.8904 83.4152 48.1257 83.5114C48.3643 83.6108 48.6643 83.6605 49.0256 83.6605C49.536 83.6605 49.9586 83.5362 50.2933 83.2876C50.6281 83.0424 50.7955 82.638 50.7955 82.0746V80.6278H50.706C50.6132 80.8134 50.4773 81.004 50.2983 81.1996C50.1226 81.3951 49.889 81.5592 49.5973 81.6918C49.3089 81.8243 48.946 81.8906 48.5085 81.8906C47.9219 81.8906 47.3899 81.7531 46.9126 81.478C46.4387 81.1996 46.0608 80.7853 45.7791 80.2351C45.5007 79.6816 45.3615 78.9889 45.3615 78.157C45.3615 77.3184 45.5007 76.6108 45.7791 76.0341C46.0608 75.4541 46.4403 75.0149 46.9176 74.7166C47.3949 74.415 47.9268 74.2642 48.5135 74.2642C48.9609 74.2642 49.3288 74.3404 49.6172 74.4929C49.9089 74.642 50.1409 74.8227 50.3132 75.0348C50.4856 75.2436 50.6165 75.4408 50.706 75.6264H50.8054V74.3636H52.5803V82.1243C52.5803 82.7772 52.4245 83.3175 52.1129 83.745C51.8014 84.1726 51.3755 84.4924 50.8352 84.7045C50.295 84.9167 49.6818 85.0227 48.9957 85.0227ZM49.0107 80.4787C49.3918 80.4787 49.7166 80.3859 49.9851 80.2003C50.2536 80.0147 50.4574 79.7479 50.5966 79.3999C50.7358 79.0518 50.8054 78.6342 50.8054 78.147C50.8054 77.6664 50.7358 77.2455 50.5966 76.8842C50.4607 76.523 50.2585 76.2429 49.9901 76.044C49.7249 75.8419 49.3984 75.7408 49.0107 75.7408C48.6096 75.7408 48.2749 75.8452 48.0064 76.054C47.7379 76.2628 47.5357 76.5495 47.3999 76.9141C47.264 77.2753 47.196 77.6863 47.196 78.147C47.196 78.6143 47.264 79.0237 47.3999 79.375C47.5391 79.723 47.7429 79.9948 48.0114 80.1903C48.2831 80.3826 48.6162 80.4787 49.0107 80.4787ZM54.4247 82V74.3636H56.1449V75.6612H56.2344C56.3935 75.2237 56.657 74.8823 57.0249 74.6371C57.3928 74.3885 57.8319 74.2642 58.3423 74.2642C58.8594 74.2642 59.2952 74.3902 59.6499 74.642C60.0078 74.8906 60.2597 75.2304 60.4055 75.6612H60.4851C60.6541 75.237 60.9392 74.8989 61.3402 74.647C61.7446 74.3918 62.2235 74.2642 62.777 74.2642C63.4796 74.2642 64.053 74.4863 64.4972 74.9304C64.9413 75.3745 65.1634 76.0225 65.1634 76.8743V82H63.3587V77.1527C63.3587 76.6787 63.2327 76.3324 62.9808 76.1136C62.7289 75.8916 62.4207 75.7805 62.0561 75.7805C61.6219 75.7805 61.2822 75.9164 61.0369 76.1882C60.795 76.4567 60.674 76.8063 60.674 77.2372V82H58.9091V77.0781C58.9091 76.6837 58.7898 76.3688 58.5511 76.1335C58.3158 75.8982 58.0076 75.7805 57.6264 75.7805C57.3679 75.7805 57.1326 75.8468 56.9205 75.9794C56.7083 76.1087 56.5393 76.2926 56.4134 76.5312C56.2874 76.7666 56.2244 77.0417 56.2244 77.3565V82H54.4247ZM69.1866 82.1541C68.7027 82.1541 68.2669 82.0679 67.8791 81.8956C67.4946 81.7199 67.1897 81.4614 66.9643 81.12C66.7422 80.7786 66.6312 80.3577 66.6312 79.8572C66.6312 79.4264 66.7108 79.0701 66.8699 78.7884C67.0289 78.5066 67.246 78.2812 67.5211 78.1122C67.7962 77.9432 68.1061 77.8156 68.4508 77.7294C68.7988 77.6399 69.1584 77.5753 69.5297 77.5355C69.9771 77.4891 70.34 77.4477 70.6184 77.4112C70.8968 77.3714 71.099 77.3118 71.225 77.2322C71.3542 77.1494 71.4189 77.0218 71.4189 76.8494V76.8196C71.4189 76.4451 71.3078 76.1551 71.0858 75.9496C70.8637 75.7441 70.5439 75.6413 70.1262 75.6413C69.6854 75.6413 69.3358 75.7375 69.0772 75.9297C68.822 76.1219 68.6497 76.349 68.5602 76.6108L66.8798 76.3722C67.0124 75.9081 67.2311 75.5204 67.536 75.2088C67.841 74.8939 68.2138 74.6586 68.6547 74.5028C69.0955 74.3438 69.5827 74.2642 70.1163 74.2642C70.4842 74.2642 70.8504 74.3073 71.215 74.3935C71.5796 74.4796 71.9127 74.6222 72.2143 74.821C72.5159 75.0166 72.7579 75.2834 72.9402 75.6214C73.1258 75.9595 73.2186 76.3821 73.2186 76.8892V82H71.4885V80.951H71.4288C71.3194 81.1631 71.1653 81.362 70.9664 81.5476C70.7709 81.7299 70.524 81.8774 70.2257 81.9901C69.9307 82.0994 69.5843 82.1541 69.1866 82.1541ZM69.6539 80.8317C70.0152 80.8317 70.3284 80.7604 70.5936 80.6179C70.8587 80.4721 71.0626 80.2798 71.2051 80.0412C71.3509 79.8026 71.4238 79.5424 71.4238 79.2607V78.3608C71.3675 78.4072 71.2714 78.4503 71.1355 78.4901C71.0029 78.5298 70.8538 78.5646 70.688 78.5945C70.5223 78.6243 70.3583 78.6508 70.1958 78.674C70.0334 78.6972 69.8926 78.7171 69.7733 78.7337C69.5048 78.7701 69.2645 78.8298 69.0524 78.9126C68.8403 78.9955 68.6729 79.1115 68.5502 79.2607C68.4276 79.4065 68.3663 79.5954 68.3663 79.8274C68.3663 80.1589 68.4873 80.4091 68.7292 80.5781C68.9712 80.7472 69.2794 80.8317 69.6539 80.8317Z" fill="white"/>
</g>
<defs>
<filter id="filter0_d_5845_13736" x="0" y="0" width="107" height="109" filterUnits="userSpaceOnUse" color-interpolation-filters="sRGB">
<feFlood flood-opacity="0" result="BackgroundImageFix"/>
<feColorMatrix in="SourceAlpha" type="matrix" values="0 0 0 0 0 0 0 0 0 0 0 0 0 0 0 0 0 0 127 0" result="hardAlpha"/>
<feOffset dy="2"/>
<feGaussianBlur stdDeviation="4"/>
<feColorMatrix type="matrix" values="0 0 0 0 0 0 0 0 0 0 0 0 0 0 0 0 0 0 0.25 0"/>
<feBlend mode="normal" in2="BackgroundImageFix" result="effect1_dropShadow_5845_13736"/>
<feBlend mode="normal" in="SourceGraphic" in2="effect1_dropShadow_5845_13736" result="shape"/>
</filter>
</defs>
</svg>
