<svg width="107" height="109" viewBox="0 0 107 109" fill="none" xmlns="http://www.w3.org/2000/svg">
<g filter="url(#filter0_d_5845_13285)">
<rect x="8" y="6" width="91" height="93" rx="12" fill="#151B23"/>
<rect x="9" y="7" width="89" height="91" rx="11" stroke="#1F2937" stroke-width="2"/>
<path d="M53.2168 43.1924L57.4905 39.0293H68.108L58.7023 48.4337L53.2168 43.1924Z" fill="#40D0FD"/>
<path d="M39.8945 40.4043L45.2338 45.872L68.1052 22.8086H57.489L39.8945 40.4043Z" fill="#41D0FD"/>
<path d="M47.8672 48.4849L53.2827 53.8203L58.7021 48.4327L53.2166 43.1914L47.8672 48.4849Z" fill="#1FBCFD"/>
<path d="M53.2832 53.8192L58.7026 48.4316L67.9747 57.8093H57.2988L53.2832 53.8192Z" fill="#095A9D"/>
<path d="M53.2832 53.8192L58.3325 52.1394L56.6312 50.4902L53.2832 53.8192Z" fill="#0E5199"/>
<path d="M32.0043 82V71.8182H38.527V73.3643H33.8487V76.1286H38.0795V77.6747H33.8487V82H32.0043ZM41.9276 71.8182V82H40.1278V71.8182H41.9276ZM48.6454 78.7884V74.3636H50.4451V82H48.7001V80.6428H48.6206C48.4482 81.0703 48.1648 81.42 47.7704 81.6918C47.3793 81.9635 46.8971 82.0994 46.3237 82.0994C45.8232 82.0994 45.3807 81.9884 44.9963 81.7663C44.6151 81.541 44.3168 81.2145 44.1014 80.7869C43.8859 80.3561 43.7782 79.8357 43.7782 79.2259V74.3636H45.5779V78.9474C45.5779 79.4313 45.7105 79.8158 45.9757 80.1009C46.2408 80.3859 46.5888 80.5284 47.0197 80.5284C47.2849 80.5284 47.5417 80.4638 47.7903 80.3345C48.0389 80.2053 48.2427 80.013 48.4018 79.7578C48.5642 79.4993 48.6454 79.1761 48.6454 78.7884ZM56.109 74.3636V75.7557H51.7191V74.3636H56.109ZM52.8029 72.5341H54.6026V79.7031C54.6026 79.9451 54.6391 80.1307 54.712 80.2599C54.7882 80.3859 54.8877 80.4721 55.0103 80.5185C55.1329 80.5649 55.2688 80.5881 55.418 80.5881C55.5307 80.5881 55.6334 80.5798 55.7262 80.5632C55.8223 80.5466 55.8952 80.5317 55.945 80.5185L56.2482 81.9254C56.1521 81.9586 56.0146 81.995 55.8356 82.0348C55.6599 82.0746 55.4445 82.0978 55.1893 82.1044C54.7385 82.1177 54.3325 82.0497 53.9712 81.9006C53.61 81.7481 53.3233 81.5128 53.1112 81.1946C52.9023 80.8764 52.7996 80.4787 52.8029 80.0014V72.5341ZM61.4274 74.3636V75.7557H57.0375V74.3636H61.4274ZM58.1213 72.5341H59.921V79.7031C59.921 79.9451 59.9574 80.1307 60.0304 80.2599C60.1066 80.3859 60.206 80.4721 60.3287 80.5185C60.4513 80.5649 60.5872 80.5881 60.7363 80.5881C60.849 80.5881 60.9518 80.5798 61.0446 80.5632C61.1407 80.5466 61.2136 80.5317 61.2633 80.5185L61.5666 81.9254C61.4705 81.9586 61.3329 81.995 61.1539 82.0348C60.9783 82.0746 60.7628 82.0978 60.5076 82.1044C60.0569 82.1177 59.6509 82.0497 59.2896 81.9006C58.9283 81.7481 58.6416 81.5128 58.4295 81.1946C58.2207 80.8764 58.118 80.4787 58.1213 80.0014V72.5341ZM66.2312 82.1491C65.4656 82.1491 64.8043 81.9901 64.2475 81.6719C63.694 81.3504 63.2681 80.8963 62.9698 80.3097C62.6715 79.7197 62.5224 79.0253 62.5224 78.2266C62.5224 77.4411 62.6715 76.7517 62.9698 76.1584C63.2714 75.5618 63.6924 75.0978 64.2326 74.7663C64.7728 74.4316 65.4076 74.2642 66.1367 74.2642C66.6074 74.2642 67.0515 74.3404 67.4691 74.4929C67.89 74.642 68.2612 74.8741 68.5827 75.1889C68.9076 75.5038 69.1628 75.9048 69.3484 76.392C69.534 76.8759 69.6268 77.4527 69.6268 78.1222V78.674H63.3675V77.4609H67.9016C67.8983 77.1162 67.8237 76.8097 67.6779 76.5412C67.5321 76.2694 67.3282 76.0556 67.0664 75.8999C66.8079 75.7441 66.5063 75.6662 66.1616 75.6662C65.7937 75.6662 65.4705 75.7557 65.1921 75.9347C64.9137 76.1103 64.6966 76.3423 64.5408 76.6307C64.3884 76.9157 64.3105 77.2289 64.3072 77.5703V78.6293C64.3072 79.0734 64.3884 79.4545 64.5508 79.7727C64.7132 80.0876 64.9402 80.3295 65.2319 80.4986C65.5236 80.6643 65.8649 80.7472 66.256 80.7472C66.5179 80.7472 66.7549 80.7107 66.967 80.6378C67.1791 80.5616 67.363 80.4505 67.5188 80.3047C67.6746 80.1589 67.7923 79.9782 67.8718 79.7628L69.5522 79.9517C69.4461 80.3958 69.244 80.7836 68.9457 81.1151C68.6507 81.4432 68.2728 81.6984 67.8121 81.8807C67.3514 82.0597 66.8245 82.1491 66.2312 82.1491ZM71.1493 82V74.3636H72.8944V75.6364H72.9739C73.1131 75.1955 73.3517 74.8558 73.6898 74.6172C74.0312 74.3752 74.4206 74.2543 74.8581 74.2543C74.9576 74.2543 75.0686 74.2592 75.1912 74.2692C75.3172 74.2758 75.4216 74.2874 75.5044 74.304V75.9595C75.4282 75.933 75.3072 75.9098 75.1415 75.8899C74.9791 75.8667 74.8217 75.8551 74.6692 75.8551C74.3411 75.8551 74.0461 75.9264 73.7843 76.0689C73.5257 76.2081 73.3219 76.402 73.1728 76.6506C73.0236 76.8991 72.949 77.1858 72.949 77.5107V82H71.1493Z" fill="white"/>
</g>
<defs>
<filter id="filter0_d_5845_13285" x="0" y="0" width="107" height="109" filterUnits="userSpaceOnUse" color-interpolation-filters="sRGB">
<feFlood flood-opacity="0" result="BackgroundImageFix"/>
<feColorMatrix in="SourceAlpha" type="matrix" values="0 0 0 0 0 0 0 0 0 0 0 0 0 0 0 0 0 0 127 0" result="hardAlpha"/>
<feOffset dy="2"/>
<feGaussianBlur stdDeviation="4"/>
<feColorMatrix type="matrix" values="0 0 0 0 0 0 0 0 0 0 0 0 0 0 0 0 0 0 0.25 0"/>
<feBlend mode="normal" in2="BackgroundImageFix" result="effect1_dropShadow_5845_13285"/>
<feBlend mode="normal" in="SourceGraphic" in2="effect1_dropShadow_5845_13285" result="shape"/>
</filter>
</defs>
</svg>
