<svg width="107" height="109" viewBox="0 0 107 109" fill="none" xmlns="http://www.w3.org/2000/svg">
<g filter="url(#filter0_d_5845_13716)">
<rect x="8" y="6" width="91" height="93" rx="12" fill="#151B23"/>
<rect x="9" y="7" width="89" height="91" rx="11" stroke="#1F2937" stroke-width="2"/>
<path d="M70.3406 38.4411L55.059 23.1607C54.8497 22.9513 54.6011 22.7851 54.3275 22.6717C54.054 22.5584 53.7607 22.5 53.4646 22.5C53.1684 22.5 52.8752 22.5584 52.6016 22.6717C52.328 22.7851 52.0795 22.9513 51.8701 23.1607L48.698 26.3344L52.7226 30.3589C53.1957 30.1982 53.7044 30.1731 54.1911 30.2865C54.6778 30.3998 55.123 30.6471 55.4765 31.0003C55.8319 31.3561 56.08 31.8048 56.1924 32.2949C56.3048 32.7851 56.277 33.297 56.1122 33.7721L59.9924 37.6512C60.4676 37.4861 60.9797 37.4583 61.47 37.5709C61.9603 37.6836 62.409 37.9321 62.7645 38.288C63.0136 38.537 63.2112 38.8327 63.3459 39.158C63.4807 39.4834 63.5501 39.8321 63.5501 40.1843C63.5501 40.5365 63.4807 40.8852 63.3459 41.2106C63.2112 41.536 63.0136 41.8316 62.7645 42.0806C62.261 42.5836 61.5784 42.8661 60.8667 42.8661C60.155 42.8661 59.4724 42.5836 58.9689 42.0806C58.5949 41.7059 58.34 41.229 58.2365 40.7098C58.1329 40.1907 58.1852 39.6524 58.3869 39.1629L54.7684 35.5456V45.0668C55.1503 45.2555 55.4818 45.5324 55.7354 45.8747C55.989 46.217 56.1574 46.6148 56.2266 47.0351C56.2959 47.4554 56.264 47.8862 56.1336 48.2917C56.0032 48.6973 55.7781 49.0659 55.4769 49.3671C55.2278 49.6162 54.9322 49.8138 54.6068 49.9486C54.2815 50.0833 53.9327 50.1527 53.5806 50.1527C53.2284 50.1527 52.8796 50.0833 52.5543 49.9486C52.2289 49.8138 51.9333 49.6162 51.6843 49.3671C51.4352 49.1181 51.2375 48.8225 51.1027 48.4971C50.9679 48.1717 50.8985 47.8229 50.8985 47.4707C50.8985 47.1184 50.9679 46.7697 51.1027 46.4443C51.2375 46.1189 51.4352 45.8232 51.6843 45.5742C51.9352 45.3227 52.2335 45.1235 52.5619 44.988V35.3791C52.2348 35.2444 51.9376 35.0464 51.6873 34.7965C51.4371 34.5466 51.2386 34.2497 51.1034 33.9229C50.9682 33.5961 50.8989 33.2458 50.8995 32.8921C50.9001 32.5384 50.9705 32.1883 51.1068 31.8619L47.1387 27.893L36.6594 38.3695C36.2372 38.7926 36 39.366 36 39.9638C36 40.5616 36.2372 41.1349 36.6594 41.558L51.9418 56.8403C52.3648 57.2625 52.9381 57.4996 53.5358 57.4996C54.1335 57.4996 54.7068 57.2625 55.1299 56.8403L70.3406 41.6296C70.7628 41.2065 71 40.6332 71 40.0354C71 39.4376 70.7628 38.8642 70.3406 38.4411Z" fill="#F03C2E"/>
<path d="M51.3175 75.0696C51.2346 74.8011 51.1203 74.5608 50.9744 74.3487C50.8319 74.1333 50.6596 73.9493 50.4574 73.7969C50.2585 73.6444 50.0298 73.5301 49.7713 73.4538C49.5128 73.3743 49.2311 73.3345 48.9261 73.3345C48.3793 73.3345 47.892 73.4721 47.4645 73.7472C47.0369 74.0223 46.7005 74.4266 46.4553 74.9602C46.2133 75.4905 46.0923 76.1368 46.0923 76.8991C46.0923 77.6681 46.2133 78.3194 46.4553 78.853C46.6972 79.3866 47.0336 79.7926 47.4645 80.071C47.8954 80.3461 48.3958 80.4837 48.9659 80.4837C49.483 80.4837 49.9304 80.3842 50.3082 80.1854C50.6894 79.9865 50.9827 79.7048 51.1882 79.3402C51.3937 78.9723 51.4964 78.5414 51.4964 78.0476L51.9141 78.1122H49.1499V76.6705H53.2812V77.8935C53.2812 78.7652 53.0956 79.5192 52.7244 80.1555C52.3532 80.7919 51.8428 81.2824 51.1932 81.6271C50.5436 81.9685 49.7978 82.1392 48.956 82.1392C48.018 82.1392 47.1944 81.9287 46.4851 81.5078C45.7791 81.0836 45.2273 80.482 44.8295 79.7031C44.4351 78.9209 44.2379 77.9929 44.2379 76.919C44.2379 76.0971 44.3539 75.3629 44.5859 74.7166C44.8213 74.0703 45.1494 73.5218 45.5703 73.071C45.9912 72.617 46.4851 72.2723 47.0518 72.0369C47.6186 71.7983 48.2351 71.679 48.9013 71.679C49.4647 71.679 49.9901 71.7618 50.4773 71.9276C50.9645 72.09 51.397 72.322 51.7749 72.6236C52.156 72.9252 52.4692 73.2831 52.7145 73.6974C52.9598 74.1117 53.1205 74.5691 53.1967 75.0696H51.3175ZM55.4638 82V74.3636H57.2635V82H55.4638ZM56.3686 73.2798C56.0836 73.2798 55.8383 73.1854 55.6328 72.9964C55.4273 72.8042 55.3246 72.5739 55.3246 72.3054C55.3246 72.0336 55.4273 71.8033 55.6328 71.6143C55.8383 71.4221 56.0836 71.326 56.3686 71.326C56.657 71.326 56.9022 71.4221 57.1044 71.6143C57.3099 71.8033 57.4126 72.0336 57.4126 72.3054C57.4126 72.5739 57.3099 72.8042 57.1044 72.9964C56.9022 73.1854 56.657 73.2798 56.3686 73.2798ZM62.9274 74.3636V75.7557H58.5375V74.3636H62.9274ZM59.6213 72.5341H61.421V79.7031C61.421 79.9451 61.4574 80.1307 61.5304 80.2599C61.6066 80.3859 61.706 80.4721 61.8287 80.5185C61.9513 80.5649 62.0872 80.5881 62.2363 80.5881C62.349 80.5881 62.4518 80.5798 62.5446 80.5632C62.6407 80.5466 62.7136 80.5317 62.7633 80.5185L63.0666 81.9254C62.9705 81.9586 62.8329 81.995 62.6539 82.0348C62.4783 82.0746 62.2628 82.0978 62.0076 82.1044C61.5569 82.1177 61.1509 82.0497 60.7896 81.9006C60.4283 81.7481 60.1416 81.5128 59.9295 81.1946C59.7207 80.8764 59.618 80.4787 59.6213 80.0014V72.5341Z" fill="white"/>
</g>
<defs>
<filter id="filter0_d_5845_13716" x="0" y="0" width="107" height="109" filterUnits="userSpaceOnUse" color-interpolation-filters="sRGB">
<feFlood flood-opacity="0" result="BackgroundImageFix"/>
<feColorMatrix in="SourceAlpha" type="matrix" values="0 0 0 0 0 0 0 0 0 0 0 0 0 0 0 0 0 0 127 0" result="hardAlpha"/>
<feOffset dy="2"/>
<feGaussianBlur stdDeviation="4"/>
<feColorMatrix type="matrix" values="0 0 0 0 0 0 0 0 0 0 0 0 0 0 0 0 0 0 0.25 0"/>
<feBlend mode="normal" in2="BackgroundImageFix" result="effect1_dropShadow_5845_13716"/>
<feBlend mode="normal" in="SourceGraphic" in2="effect1_dropShadow_5845_13716" result="shape"/>
</filter>
</defs>
</svg>
