<svg width="107" height="109" viewBox="0 0 107 109" fill="none" xmlns="http://www.w3.org/2000/svg">
<g filter="url(#filter0_d_5845_13728)">
<rect x="8" y="6" width="91" height="93" rx="12" fill="#151B23"/>
<rect x="9" y="7" width="89" height="91" rx="11" stroke="#1F2937" stroke-width="2"/>
<path fill-rule="evenodd" clip-rule="evenodd" d="M53.3361 22.5859C43.5348 22.5859 35.6113 30.5677 35.6113 40.4422C35.6113 48.3354 40.6882 55.0169 47.7311 57.3817C48.6116 57.5594 48.9341 56.9975 48.9341 56.5247C48.9341 56.1108 48.9051 54.6918 48.9051 53.2134C43.9745 54.2779 42.9477 51.0848 42.9477 51.0848C42.1554 49.0153 40.9813 48.4835 40.9813 48.4835C39.3675 47.3896 41.0989 47.3896 41.0989 47.3896C42.889 47.5079 43.8283 49.2225 43.8283 49.2225C45.4127 51.9421 47.9658 51.1737 48.9929 50.7006C49.1395 49.5476 49.6093 48.7494 50.1082 48.306C46.1757 47.8921 42.0382 46.3549 42.0382 39.496C42.0382 37.5448 42.742 35.9485 43.8573 34.707C43.6814 34.2636 43.0649 32.4303 44.0336 29.9767C44.0336 29.9767 45.5302 29.5036 48.9048 31.8096C50.3495 31.4187 51.8394 31.2199 53.3361 31.2182C54.8327 31.2182 56.3584 31.4254 57.7672 31.8096C61.142 29.5036 62.6386 29.9767 62.6386 29.9767C63.6073 32.4303 62.9906 34.2636 62.8146 34.707C63.9593 35.9485 64.6341 37.5448 64.6341 39.496C64.6341 46.3549 60.4966 47.8623 56.5347 48.306C57.1805 48.8677 57.7378 49.9318 57.7378 51.617C57.7378 54.0116 57.7087 55.9333 57.7087 56.5244C57.7087 56.9975 58.0316 57.5594 58.9118 57.382C65.9547 55.0165 71.0316 48.3354 71.0316 40.4422C71.0606 30.5677 63.1081 22.5859 53.3361 22.5859Z" fill="#F3F4F6"/>
<path d="M38.2745 75.0696C38.1916 74.8011 38.0773 74.5608 37.9315 74.3487C37.7889 74.1333 37.6166 73.9493 37.4144 73.7969C37.2156 73.6444 36.9869 73.5301 36.7283 73.4538C36.4698 73.3743 36.1881 73.3345 35.8832 73.3345C35.3363 73.3345 34.8491 73.4721 34.4215 73.7472C33.994 74.0223 33.6576 74.4266 33.4123 74.9602C33.1703 75.4905 33.0494 76.1368 33.0494 76.8991C33.0494 77.6681 33.1703 78.3194 33.4123 78.853C33.6542 79.3866 33.9906 79.7926 34.4215 80.071C34.8524 80.3461 35.3529 80.4837 35.9229 80.4837C36.44 80.4837 36.8874 80.3842 37.2653 80.1854C37.6464 79.9865 37.9397 79.7048 38.1452 79.3402C38.3507 78.9723 38.4535 78.5414 38.4535 78.0476L38.8711 78.1122H36.1069V76.6705H40.2383V77.8935C40.2383 78.7652 40.0527 79.5192 39.6815 80.1555C39.3103 80.7919 38.7998 81.2824 38.1502 81.6271C37.5006 81.9685 36.7549 82.1392 35.913 82.1392C34.975 82.1392 34.1514 81.9287 33.4421 81.5078C32.7362 81.0836 32.1843 80.482 31.7866 79.7031C31.3922 78.9209 31.195 77.9929 31.195 76.919C31.195 76.0971 31.311 75.3629 31.543 74.7166C31.7783 74.0703 32.1064 73.5218 32.5273 73.071C32.9483 72.617 33.4421 72.2723 34.0089 72.0369C34.5756 71.7983 35.1921 71.679 35.8583 71.679C36.4218 71.679 36.9471 71.7618 37.4343 71.9276C37.9215 72.09 38.354 72.322 38.7319 72.6236C39.113 72.9252 39.4263 73.2831 39.6715 73.6974C39.9168 74.1117 40.0775 74.5691 40.1538 75.0696H38.2745ZM42.4208 82V74.3636H44.2205V82H42.4208ZM43.3256 73.2798C43.0406 73.2798 42.7953 73.1854 42.5898 72.9964C42.3844 72.8042 42.2816 72.5739 42.2816 72.3054C42.2816 72.0336 42.3844 71.8033 42.5898 71.6143C42.7953 71.4221 43.0406 71.326 43.3256 71.326C43.614 71.326 43.8593 71.4221 44.0614 71.6143C44.2669 71.8033 44.3697 72.0336 44.3697 72.3054C44.3697 72.5739 44.2669 72.8042 44.0614 72.9964C43.8593 73.1854 43.614 73.2798 43.3256 73.2798ZM49.8844 74.3636V75.7557H45.4945V74.3636H49.8844ZM46.5783 72.5341H48.378V79.7031C48.378 79.9451 48.4145 80.1307 48.4874 80.2599C48.5636 80.3859 48.6631 80.4721 48.7857 80.5185C48.9083 80.5649 49.0442 80.5881 49.1934 80.5881C49.306 80.5881 49.4088 80.5798 49.5016 80.5632C49.5977 80.5466 49.6706 80.5317 49.7203 80.5185L50.0236 81.9254C49.9275 81.9586 49.79 81.995 49.611 82.0348C49.4353 82.0746 49.2199 82.0978 48.9647 82.1044C48.5139 82.1177 48.1079 82.0497 47.7466 81.9006C47.3854 81.7481 47.0987 81.5128 46.8865 81.1946C46.6777 80.8764 46.575 80.4787 46.5783 80.0014V72.5341ZM53.3533 77.5256V82H51.5536V71.8182H53.3136V75.6612H53.4031C53.582 75.2304 53.8588 74.8906 54.2333 74.642C54.6112 74.3902 55.0917 74.2642 55.6751 74.2642C56.2054 74.2642 56.6677 74.3752 57.0621 74.5973C57.4566 74.8194 57.7615 75.1442 57.9769 75.5717C58.1957 75.9993 58.305 76.5213 58.305 77.1378V82H56.5053V77.4162C56.5053 76.9025 56.3728 76.5031 56.1076 76.218C55.8458 75.9297 55.4779 75.7855 55.0039 75.7855C54.6857 75.7855 54.4007 75.8551 54.1488 75.9943C53.9002 76.1302 53.7047 76.3274 53.5621 76.5859C53.4229 76.8445 53.3533 77.1577 53.3533 77.5256ZM65.0067 78.7884V74.3636H66.8065V82H65.0614V80.6428H64.9819C64.8095 81.0703 64.5262 81.42 64.1317 81.6918C63.7406 81.9635 63.2584 82.0994 62.685 82.0994C62.1845 82.0994 61.7421 81.9884 61.3576 81.7663C60.9764 81.541 60.6781 81.2145 60.4627 80.7869C60.2473 80.3561 60.1396 79.8357 60.1396 79.2259V74.3636H61.9393V78.9474C61.9393 79.4313 62.0719 79.8158 62.337 80.1009C62.6022 80.3859 62.9502 80.5284 63.381 80.5284C63.6462 80.5284 63.9031 80.4638 64.1516 80.3345C64.4002 80.2053 64.604 80.013 64.7631 79.7578C64.9255 79.4993 65.0067 79.1761 65.0067 78.7884ZM68.7367 82V71.8182H70.5364V75.6264H70.611C70.7038 75.4408 70.8347 75.2436 71.0037 75.0348C71.1728 74.8227 71.4015 74.642 71.6898 74.4929C71.9782 74.3404 72.3461 74.2642 72.7935 74.2642C73.3835 74.2642 73.9154 74.415 74.3894 74.7166C74.8667 75.0149 75.2445 75.4574 75.5229 76.044C75.8046 76.6274 75.9455 77.3433 75.9455 78.1918C75.9455 79.0303 75.8079 79.7429 75.5328 80.3295C75.2578 80.9162 74.8832 81.3636 74.4093 81.6719C73.9353 81.9801 73.3984 82.1342 72.7985 82.1342C72.361 82.1342 71.998 82.0613 71.7097 81.9155C71.4213 81.7696 71.1893 81.594 71.0137 81.3885C70.8413 81.1797 70.7071 80.9825 70.611 80.7969H70.5066V82H68.7367ZM70.5016 78.1818C70.5016 78.6757 70.5712 79.1082 70.7104 79.4794C70.8529 79.8506 71.0568 80.1406 71.3219 80.3494C71.5904 80.5549 71.9152 80.6577 72.2963 80.6577C72.6941 80.6577 73.0272 80.5516 73.2956 80.3395C73.5641 80.1241 73.7663 79.8307 73.9022 79.4595C74.0414 79.085 74.111 78.6591 74.111 78.1818C74.111 77.7079 74.043 77.2869 73.9071 76.919C73.7712 76.5511 73.5691 76.2628 73.3006 76.054C73.0321 75.8452 72.6974 75.7408 72.2963 75.7408C71.9119 75.7408 71.5854 75.8419 71.3169 76.044C71.0485 76.2462 70.8446 76.5296 70.7054 76.8942C70.5695 77.2588 70.5016 77.688 70.5016 78.1818Z" fill="white"/>
</g>
<defs>
<filter id="filter0_d_5845_13728" x="0" y="0" width="107" height="109" filterUnits="userSpaceOnUse" color-interpolation-filters="sRGB">
<feFlood flood-opacity="0" result="BackgroundImageFix"/>
<feColorMatrix in="SourceAlpha" type="matrix" values="0 0 0 0 0 0 0 0 0 0 0 0 0 0 0 0 0 0 127 0" result="hardAlpha"/>
<feOffset dy="2"/>
<feGaussianBlur stdDeviation="4"/>
<feColorMatrix type="matrix" values="0 0 0 0 0 0 0 0 0 0 0 0 0 0 0 0 0 0 0.25 0"/>
<feBlend mode="normal" in2="BackgroundImageFix" result="effect1_dropShadow_5845_13728"/>
<feBlend mode="normal" in="SourceGraphic" in2="effect1_dropShadow_5845_13728" result="shape"/>
</filter>
</defs>
</svg>
