<svg width="107" height="109" viewBox="0 0 107 109" fill="none" xmlns="http://www.w3.org/2000/svg">
<g filter="url(#filter0_d_5846_13515)">
<rect x="8" y="6" width="91" height="93" rx="12" fill="#151B23"/>
<rect x="9" y="7" width="89" height="91" rx="11" stroke="#1F2937" stroke-width="2"/>
<path fill-rule="evenodd" clip-rule="evenodd" d="M56.5001 26.4661L63.7221 30.6347C63.9254 30.4193 64.1616 30.2281 64.4319 30.0721C65.1517 29.6586 66.006 29.5472 66.8078 29.7624C67.6096 29.9776 68.2933 30.5019 68.7092 31.2203C68.9514 31.6425 69.092 32.1153 69.1199 32.6013C69.1477 33.0872 69.0621 33.573 68.8698 34.0201C68.6775 34.4673 68.3838 34.8636 68.0119 35.1776C67.64 35.4916 67.2002 35.7148 66.7271 35.8295V44.1711C67.2009 44.284 67.6417 44.5063 68.0142 44.8201C68.3867 45.134 68.6805 45.5306 68.8722 45.9784C69.0639 46.4262 69.1481 46.9126 69.1181 47.3987C69.0881 47.8849 68.9447 48.3573 68.6994 48.7781C68.4513 49.207 68.1051 49.571 67.6892 49.8403C67.2733 50.1095 66.7994 50.2763 66.3066 50.3271C65.8137 50.3778 65.3158 50.3109 64.8538 50.132C64.3917 49.9531 63.9787 49.6672 63.6485 49.2978L56.4727 53.4411C56.628 53.9116 56.6695 54.4122 56.5938 54.9018C56.5182 55.3914 56.3275 55.8562 56.0375 56.2578C55.7474 56.6595 55.3663 56.9867 54.9253 57.2125C54.4843 57.4383 53.996 57.5564 53.5006 57.5569C53.0137 57.5576 52.5333 57.4446 52.0978 57.2269C51.6623 57.0092 51.2836 56.6928 50.992 56.3028C50.7004 55.9129 50.5038 55.4603 50.418 54.981C50.3322 54.5017 50.3595 54.009 50.4977 53.5422L43.2791 49.3747C42.9433 49.7269 42.5301 49.9961 42.0722 50.1608C41.6143 50.3255 41.1243 50.3812 40.6411 50.3235C40.1579 50.2657 39.6948 50.0962 39.2885 49.8283C38.8823 49.5604 38.5441 49.2015 38.3007 48.7801C38.0573 48.3587 37.9155 47.8864 37.8866 47.4006C37.8576 46.9149 37.9422 46.429 38.1337 45.9817C38.3253 45.5343 38.6184 45.1378 38.9899 44.8235C39.3615 44.5092 39.8011 44.2858 40.274 44.1711V35.8295C39.8007 35.7152 39.3606 35.4923 38.9884 35.1783C38.6162 34.8643 38.3223 34.468 38.13 34.0207C37.9376 33.5734 37.8521 33.0875 37.8802 32.6014C37.9083 32.1153 38.0493 31.6424 38.2919 31.2203C38.536 30.7986 38.8751 30.4397 39.2822 30.172C39.6892 29.9042 40.1531 29.735 40.637 29.6779C41.1208 29.6207 41.6113 29.6771 42.0696 29.8426C42.5278 30.0082 42.9412 30.2782 43.2769 30.6314L50.4988 26.4606C50.3598 25.9935 50.3319 25.5004 50.4172 25.0207C50.5026 24.5409 50.6989 24.0877 50.9905 23.6972C51.2821 23.3068 51.6609 22.9899 52.0967 22.7719C52.5325 22.5538 53.0133 22.4407 53.5006 22.4414C53.9883 22.4408 54.4695 22.5542 54.9055 22.7727C55.3416 22.9912 55.7205 23.3087 56.012 23.6998C56.3035 24.0909 56.4994 24.5447 56.5842 25.025C56.6689 25.5054 56.6401 25.9989 56.5001 26.4661ZM55.7486 27.7505L62.9859 31.929C62.8704 32.3326 62.8374 32.7554 62.8889 33.172C62.9403 33.5887 63.0752 33.9907 63.2854 34.3542C63.4956 34.7176 63.7769 35.0349 64.1124 35.2873C64.4479 35.5396 64.8309 35.7218 65.2383 35.8229V44.1733L65.1175 44.2062L55.6651 27.834L55.7486 27.7505ZM51.3383 27.8351L41.887 44.2084L41.7639 44.1755V35.8229C42.1719 35.7218 42.5552 35.5395 42.8911 35.2869C43.2269 35.0342 43.5084 34.7164 43.7186 34.3525C43.9287 33.9885 44.0633 33.5859 44.1143 33.1688C44.1653 32.7516 44.1316 32.3284 44.0152 31.9246L51.2504 27.7461L51.3383 27.8351ZM54.3752 28.5767L63.8265 44.9457C63.3915 45.3591 63.0855 45.8895 62.9453 46.4729H44.0559C43.9143 45.8918 43.6093 45.3633 43.1769 44.9501L52.6293 28.5789C53.1998 28.7431 53.8051 28.7424 54.3752 28.5767ZM55.8145 52.3204L63.0057 48.1672C62.9845 48.0997 62.9654 48.0315 62.9486 47.9628H44.0515L44.0185 48.0837L51.2449 52.2555C51.5368 51.9521 51.8872 51.7108 52.2749 51.5464C52.6625 51.3819 53.0795 51.2976 53.5006 51.2985C53.9362 51.2979 54.3672 51.3885 54.7657 51.5645C55.1643 51.7405 55.5215 51.998 55.8145 52.3204Z" fill="#E535AB"/>
<path d="M34.4464 75.0696C34.3635 74.8011 34.2492 74.5608 34.1033 74.3487C33.9608 74.1333 33.7885 73.9493 33.5863 73.7969C33.3874 73.6444 33.1587 73.5301 32.9002 73.4538C32.6417 73.3743 32.36 73.3345 32.055 73.3345C31.5082 73.3345 31.021 73.4721 30.5934 73.7472C30.1658 74.0223 29.8294 74.4266 29.5842 74.9602C29.3422 75.4905 29.2212 76.1368 29.2212 76.8991C29.2212 77.6681 29.3422 78.3194 29.5842 78.853C29.8261 79.3866 30.1625 79.7926 30.5934 80.071C31.0243 80.3461 31.5247 80.4837 32.0948 80.4837C32.6119 80.4837 33.0593 80.3842 33.4371 80.1854C33.8183 79.9865 34.1116 79.7048 34.3171 79.3402C34.5226 78.9723 34.6254 78.5414 34.6254 78.0476L35.043 78.1122H32.2788V76.6705H36.4102V77.8935C36.4102 78.7652 36.2246 79.5192 35.8533 80.1555C35.4821 80.7919 34.9717 81.2824 34.3221 81.6271C33.6725 81.9685 32.9267 82.1392 32.0849 82.1392C31.1469 82.1392 30.3233 81.9287 29.614 81.5078C28.908 81.0836 28.3562 80.482 27.9585 79.7031C27.564 78.9209 27.3668 77.9929 27.3668 76.919C27.3668 76.0971 27.4828 75.3629 27.7148 74.7166C27.9502 74.0703 28.2783 73.5218 28.6992 73.071C29.1201 72.617 29.614 72.2723 30.1808 72.0369C30.7475 71.7983 31.364 71.679 32.0302 71.679C32.5936 71.679 33.119 71.7618 33.6062 71.9276C34.0934 72.09 34.5259 72.322 34.9038 72.6236C35.2849 72.9252 35.5981 73.2831 35.8434 73.6974C36.0887 74.1117 36.2494 74.5691 36.3256 75.0696H34.4464ZM38.1142 82V74.3636H39.8592V75.6364H39.9387C40.0779 75.1955 40.3166 74.8558 40.6547 74.6172C40.996 74.3752 41.3855 74.2543 41.823 74.2543C41.9224 74.2543 42.0334 74.2592 42.1561 74.2692C42.282 74.2758 42.3864 74.2874 42.4693 74.304V75.9595C42.3931 75.933 42.2721 75.9098 42.1064 75.8899C41.944 75.8667 41.7865 75.8551 41.6341 75.8551C41.3059 75.8551 41.0109 75.9264 40.7491 76.0689C40.4906 76.2081 40.2868 76.402 40.1376 76.6506C39.9885 76.8991 39.9139 77.1858 39.9139 77.5107V82H38.1142ZM45.7257 82.1541C45.2418 82.1541 44.8059 82.0679 44.4181 81.8956C44.0337 81.7199 43.7288 81.4614 43.5034 81.12C43.2813 80.7786 43.1703 80.3577 43.1703 79.8572C43.1703 79.4264 43.2498 79.0701 43.4089 78.7884C43.568 78.5066 43.7851 78.2812 44.0602 78.1122C44.3353 77.9432 44.6452 77.8156 44.9899 77.7294C45.3379 77.6399 45.6975 77.5753 46.0687 77.5355C46.5162 77.4891 46.8791 77.4477 47.1575 77.4112C47.4359 77.3714 47.6381 77.3118 47.764 77.2322C47.8933 77.1494 47.9579 77.0218 47.9579 76.8494V76.8196C47.9579 76.4451 47.8469 76.1551 47.6248 75.9496C47.4028 75.7441 47.0829 75.6413 46.6653 75.6413C46.2245 75.6413 45.8748 75.7375 45.6163 75.9297C45.3611 76.1219 45.1887 76.349 45.0993 76.6108L43.4189 76.3722C43.5514 75.9081 43.7702 75.5204 44.0751 75.2088C44.38 74.8939 44.7529 74.6586 45.1937 74.5028C45.6345 74.3438 46.1217 74.2642 46.6554 74.2642C47.0233 74.2642 47.3895 74.3073 47.7541 74.3935C48.1187 74.4796 48.4518 74.6222 48.7534 74.821C49.055 75.0166 49.2969 75.2834 49.4792 75.6214C49.6648 75.9595 49.7576 76.3821 49.7576 76.8892V82H48.0275V80.951H47.9679C47.8585 81.1631 47.7044 81.362 47.5055 81.5476C47.31 81.7299 47.063 81.8774 46.7647 81.9901C46.4698 82.0994 46.1234 82.1541 45.7257 82.1541ZM46.193 80.8317C46.5543 80.8317 46.8675 80.7604 47.1326 80.6179C47.3978 80.4721 47.6016 80.2798 47.7441 80.0412C47.89 79.8026 47.9629 79.5424 47.9629 79.2607V78.3608C47.9065 78.4072 47.8104 78.4503 47.6745 78.4901C47.542 78.5298 47.3928 78.5646 47.2271 78.5945C47.0614 78.6243 46.8973 78.6508 46.7349 78.674C46.5725 78.6972 46.4316 78.7171 46.3123 78.7337C46.0439 78.7701 45.8036 78.8298 45.5914 78.9126C45.3793 78.9955 45.2119 79.1115 45.0893 79.2607C44.9667 79.4065 44.9054 79.5954 44.9054 79.8274C44.9054 80.1589 45.0263 80.4091 45.2683 80.5781C45.5102 80.7472 45.8185 80.8317 46.193 80.8317ZM51.5673 84.8636V74.3636H53.3372V75.6264H53.4416C53.5344 75.4408 53.6653 75.2436 53.8343 75.0348C54.0034 74.8227 54.2321 74.642 54.5204 74.4929C54.8088 74.3404 55.1767 74.2642 55.6241 74.2642C56.2141 74.2642 56.746 74.415 57.22 74.7166C57.6973 75.0149 58.0751 75.4574 58.3535 76.044C58.6352 76.6274 58.7761 77.3433 58.7761 78.1918C58.7761 79.0303 58.6386 79.7429 58.3635 80.3295C58.0884 80.9162 57.7138 81.3636 57.2399 81.6719C56.7659 81.9801 56.229 82.1342 55.6291 82.1342C55.1916 82.1342 54.8287 82.0613 54.5403 81.9155C54.252 81.7696 54.0199 81.594 53.8443 81.3885C53.6719 81.1797 53.5377 80.9825 53.4416 80.7969H53.367V84.8636H51.5673ZM53.3322 78.1818C53.3322 78.6757 53.4018 79.1082 53.541 79.4794C53.6835 79.8506 53.8874 80.1406 54.1525 80.3494C54.421 80.5549 54.7458 80.6577 55.127 80.6577C55.5247 80.6577 55.8578 80.5516 56.1262 80.3395C56.3947 80.1241 56.5969 79.8307 56.7328 79.4595C56.872 79.085 56.9416 78.6591 56.9416 78.1818C56.9416 77.7079 56.8736 77.2869 56.7377 76.919C56.6019 76.5511 56.3997 76.2628 56.1312 76.054C55.8627 75.8452 55.528 75.7408 55.127 75.7408C54.7425 75.7408 54.416 75.8419 54.1475 76.044C53.8791 76.2462 53.6752 76.5296 53.536 76.8942C53.4002 77.2588 53.3322 77.688 53.3322 78.1818ZM62.117 77.5256V82H60.3173V71.8182H62.0772V75.6612H62.1667C62.3457 75.2304 62.6225 74.8906 62.997 74.642C63.3748 74.3902 63.8554 74.2642 64.4387 74.2642C64.969 74.2642 65.4314 74.3752 65.8258 74.5973C66.2202 74.8194 66.5252 75.1442 66.7406 75.5717C66.9593 75.9993 67.0687 76.5213 67.0687 77.1378V82H65.269V77.4162C65.269 76.9025 65.1364 76.5031 64.8713 76.218C64.6094 75.9297 64.2415 75.7855 63.7676 75.7855C63.4494 75.7855 63.1644 75.8551 62.9125 75.9943C62.6639 76.1302 62.4683 76.3274 62.3258 76.5859C62.1866 76.8445 62.117 77.1577 62.117 77.5256ZM73.9991 84.8636V80.7969H73.9245C73.8317 80.9825 73.6975 81.1797 73.5218 81.3885C73.3462 81.594 73.1142 81.7696 72.8258 81.9155C72.5375 82.0613 72.1745 82.1342 71.737 82.1342C71.1371 82.1342 70.6002 81.9801 70.1262 81.6719C69.6523 81.3636 69.2778 80.9162 69.0027 80.3295C68.7276 79.7429 68.59 79.0303 68.59 78.1918C68.59 77.3433 68.7292 76.6274 69.0076 76.044C69.2894 75.4574 69.6689 75.0149 70.1461 74.7166C70.6234 74.415 71.1554 74.2642 71.742 74.2642C72.1895 74.2642 72.5574 74.3404 72.8457 74.4929C73.1341 74.642 73.3627 74.8227 73.5318 75.0348C73.7008 75.2436 73.8317 75.4408 73.9245 75.6264H74.0339V74.3636H75.8038V84.8636H73.9991ZM72.2392 80.6577C72.6203 80.6577 72.9451 80.5549 73.2136 80.3494C73.4821 80.1406 73.6859 79.8506 73.8251 79.4794C73.9643 79.1082 74.0339 78.6757 74.0339 78.1818C74.0339 77.688 73.9643 77.2588 73.8251 76.8942C73.6892 76.5296 73.487 76.2462 73.2186 76.044C72.9534 75.8419 72.627 75.7408 72.2392 75.7408C71.8381 75.7408 71.5034 75.8452 71.2349 76.054C70.9664 76.2628 70.7643 76.5511 70.6284 76.919C70.4925 77.2869 70.4245 77.7079 70.4245 78.1818C70.4245 78.6591 70.4925 79.085 70.6284 79.4595C70.7676 79.8307 70.9714 80.1241 71.2399 80.3395C71.5117 80.5516 71.8448 80.6577 72.2392 80.6577ZM79.4529 71.8182V82H77.6532V71.8182H79.4529Z" fill="white"/>
</g>
<defs>
<filter id="filter0_d_5846_13515" x="0" y="0" width="107" height="109" filterUnits="userSpaceOnUse" color-interpolation-filters="sRGB">
<feFlood flood-opacity="0" result="BackgroundImageFix"/>
<feColorMatrix in="SourceAlpha" type="matrix" values="0 0 0 0 0 0 0 0 0 0 0 0 0 0 0 0 0 0 127 0" result="hardAlpha"/>
<feOffset dy="2"/>
<feGaussianBlur stdDeviation="4"/>
<feColorMatrix type="matrix" values="0 0 0 0 0 0 0 0 0 0 0 0 0 0 0 0 0 0 0.25 0"/>
<feBlend mode="normal" in2="BackgroundImageFix" result="effect1_dropShadow_5846_13515"/>
<feBlend mode="normal" in="SourceGraphic" in2="effect1_dropShadow_5846_13515" result="shape"/>
</filter>
</defs>
</svg>
