<svg width="107" height="109" viewBox="0 0 107 109" fill="none" xmlns="http://www.w3.org/2000/svg">
<g filter="url(#filter0_d_5828_16486)">
<rect x="8" y="6" width="91" height="93" rx="12" fill="#151B23"/>
<rect x="9" y="7" width="89" height="91" rx="11" stroke="#1F2937" stroke-width="2"/>
<path d="M48.7539 36.7183L48.601 34.9258C48.5013 33.7582 49.4225 32.7554 50.5944 32.7558L61.3326 32.7592C62.324 32.7595 63.1511 32.0021 63.2379 31.0145C63.336 29.897 62.4555 28.9355 61.3337 28.9353L46.388 28.9316C45.2147 28.9313 44.2932 29.9364 44.3951 31.1052L45.0644 38.7862C45.1545 39.8196 46.0196 40.6126 47.0569 40.6126H56.3336C57.5129 40.6126 58.4362 41.6278 58.3246 42.8019L58.1881 44.2375C58.1096 45.0634 57.5293 45.755 56.7297 45.9759L54.344 46.635C53.9968 46.7309 53.6303 46.7313 53.2829 46.6362L50.7903 45.9533C50.0169 45.7414 49.4564 45.0657 49.3853 44.267C49.2978 43.284 48.4737 42.5234 47.4868 42.5234C46.3753 42.5234 45.4998 43.4709 45.5874 44.5789L45.7944 47.1965C45.8612 48.0412 46.4529 48.7521 47.2715 48.971L53.295 50.5818C53.634 50.6725 53.9908 50.6724 54.3298 50.5815L60.31 48.9776C61.1194 48.7605 61.7076 48.0619 61.7837 47.2275L62.5428 38.9023C62.6496 37.7309 61.7274 36.7207 60.5511 36.7207H48.7563C48.755 36.7207 48.7539 36.7196 48.7539 36.7183ZM38.6932 24.6768C38.5894 23.507 39.511 22.5 40.6854 22.5H66.9399C68.1141 22.5 69.0357 23.5068 68.9321 24.6764L66.4615 52.5735C66.3883 53.4001 65.8123 54.0956 65.0138 54.3215L54.3258 57.3455C53.9688 57.4465 53.5907 57.4462 53.2338 57.3446L42.6138 54.3217C41.8169 54.0949 41.2424 53.4002 41.1692 52.5749L38.6932 24.6768Z" fill="#E44D26"/>
<path d="M38.5043 82V71.8182H40.3487V76.1286H45.0668V71.8182H46.9162V82H45.0668V77.6747H40.3487V82H38.5043ZM52.6559 74.3636V75.7557H48.266V74.3636H52.6559ZM49.3498 72.5341H51.1495V79.7031C51.1495 79.9451 51.186 80.1307 51.2589 80.2599C51.3351 80.3859 51.4345 80.4721 51.5572 80.5185C51.6798 80.5649 51.8157 80.5881 51.9648 80.5881C52.0775 80.5881 52.1803 80.5798 52.2731 80.5632C52.3692 80.5466 52.4421 80.5317 52.4918 80.5185L52.7951 81.9254C52.699 81.9586 52.5614 81.995 52.3825 82.0348C52.2068 82.0746 51.9914 82.0978 51.7362 82.1044C51.2854 82.1177 50.8794 82.0497 50.5181 81.9006C50.1568 81.7481 49.8701 81.5128 49.658 81.1946C49.4492 80.8764 49.3465 80.4787 49.3498 80.0014V72.5341ZM54.161 82V74.3636H55.8812V75.6612H55.9707C56.1298 75.2237 56.3933 74.8823 56.7612 74.6371C57.1291 74.3885 57.5682 74.2642 58.0787 74.2642C58.5957 74.2642 59.0315 74.3902 59.3862 74.642C59.7441 74.8906 59.996 75.2304 60.1419 75.6612H60.2214C60.3904 75.237 60.6755 74.8989 61.0765 74.647C61.4809 74.3918 61.9598 74.2642 62.5133 74.2642C63.216 74.2642 63.7894 74.4863 64.2335 74.9304C64.6776 75.3745 64.8997 76.0225 64.8997 76.8743V82H63.095V77.1527C63.095 76.6787 62.969 76.3324 62.7172 76.1136C62.4653 75.8916 62.157 75.7805 61.7924 75.7805C61.3583 75.7805 61.0185 75.9164 60.7733 76.1882C60.5313 76.4567 60.4103 76.8063 60.4103 77.2372V82H58.6454V77.0781C58.6454 76.6837 58.5261 76.3688 58.2875 76.1335C58.0521 75.8982 57.7439 75.7805 57.3627 75.7805C57.1042 75.7805 56.8689 75.8468 56.6568 75.9794C56.4447 76.1087 56.2756 76.2926 56.1497 76.5312C56.0237 76.7666 55.9608 77.0417 55.9608 77.3565V82H54.161ZM68.5252 71.8182V82H66.7255V71.8182H68.5252Z" fill="white"/>
</g>
<defs>
<filter id="filter0_d_5828_16486" x="0" y="0" width="107" height="109" filterUnits="userSpaceOnUse" color-interpolation-filters="sRGB">
<feFlood flood-opacity="0" result="BackgroundImageFix"/>
<feColorMatrix in="SourceAlpha" type="matrix" values="0 0 0 0 0 0 0 0 0 0 0 0 0 0 0 0 0 0 127 0" result="hardAlpha"/>
<feOffset dy="2"/>
<feGaussianBlur stdDeviation="4"/>
<feColorMatrix type="matrix" values="0 0 0 0 0 0 0 0 0 0 0 0 0 0 0 0 0 0 0.25 0"/>
<feBlend mode="normal" in2="BackgroundImageFix" result="effect1_dropShadow_5828_16486"/>
<feBlend mode="normal" in="SourceGraphic" in2="effect1_dropShadow_5828_16486" result="shape"/>
</filter>
</defs>
</svg>
