<svg width="107" height="109" viewBox="0 0 107 109" fill="none" xmlns="http://www.w3.org/2000/svg">
<g filter="url(#filter0_d_5845_13836)">
<rect x="8" y="6" width="91" height="93" rx="12" fill="#151B23"/>
<rect x="9" y="7" width="89" height="91" rx="11" stroke="#1F2937" stroke-width="2"/>
<path d="M55.8544 20.1888C58.0353 21.0586 58.8985 24.4941 57.757 27.8839C56.6285 31.2586 53.9627 33.3134 51.7731 32.4588C49.5987 31.613 48.7203 28.171 49.8423 24.7702C50.9555 21.3847 53.6539 19.3495 55.8544 20.1888ZM68.0527 27.2316C69.8965 28.7276 69.466 32.074 67.1264 34.7484C64.7237 37.4121 61.3208 38.3797 59.4856 36.9119C57.6309 35.4334 58.0788 32.0957 60.4532 29.4408C62.8233 26.7576 66.224 25.7879 68.0527 27.2316ZM42.195 22.7655C44.6238 23.0525 46.3915 26.0988 46.2459 29.5408C45.9849 32.985 43.9084 35.5617 41.497 35.2833C39.0878 35.0072 37.3266 31.9892 37.5244 28.5319C37.7245 25.0747 39.8467 22.5024 42.195 22.7655ZM72.9059 40.4975C74.3105 42.4001 73.145 45.5246 70.2488 47.425C67.3525 49.3254 63.8605 49.3102 62.4145 47.3598C60.9707 45.4116 62.1623 42.324 65.0151 40.3757C67.9244 38.5297 71.4447 38.5384 72.908 40.4975M59.4378 57.2445C58.5811 58.8883 56.3284 59.9516 54.4759 59.7711C50.6142 59.4058 48.6703 54.4178 45.2783 52.4565C41.8819 50.4974 36.4873 51.4085 34.3629 48.1578C33.1366 46.3357 33.2409 43.4394 34.526 41.7238C36.3003 39.3581 40.1424 39.7582 43.0256 38.9406C46.8199 37.9252 51.136 34.3897 54.5672 36.3684C57.9788 38.3383 57.2156 43.8352 58.0897 47.6403C58.7833 50.8149 60.9251 54.3939 59.4378 57.2445Z" fill="#868E96"/>
<path d="M33.1351 82V71.8182H34.9796V76.1286H39.6976V71.8182H41.5471V82H39.6976V77.6747H34.9796V82H33.1351ZM48.3407 78.7884V74.3636H50.1404V82H48.3954V80.6428H48.3159C48.1435 81.0703 47.8601 81.42 47.4657 81.6918C47.0746 81.9635 46.5924 82.0994 46.019 82.0994C45.5185 82.0994 45.0761 81.9884 44.6916 81.7663C44.3104 81.541 44.0121 81.2145 43.7967 80.7869C43.5813 80.3561 43.4735 79.8357 43.4735 79.2259V74.3636H45.2733V78.9474C45.2733 79.4313 45.4058 79.8158 45.671 80.1009C45.9361 80.3859 46.2842 80.5284 46.715 80.5284C46.9802 80.5284 47.237 80.4638 47.4856 80.3345C47.7342 80.2053 47.938 80.013 48.0971 79.7578C48.2595 79.4993 48.3407 79.1761 48.3407 78.7884ZM58.0266 76.3821L56.386 76.5611C56.3396 76.3954 56.2584 76.2396 56.1424 76.0938C56.0297 75.9479 55.8772 75.8303 55.685 75.7408C55.4928 75.6513 55.2575 75.6065 54.979 75.6065C54.6045 75.6065 54.2897 75.6877 54.0344 75.8501C53.7826 76.0125 53.6583 76.223 53.6616 76.4815C53.6583 76.7036 53.7395 76.8842 53.9052 77.0234C54.0742 77.1626 54.3526 77.277 54.7404 77.3665L56.043 77.6449C56.7655 77.8007 57.3024 78.0476 57.6538 78.3857C58.0084 78.7237 58.1874 79.1662 58.1907 79.7131C58.1874 80.1937 58.0465 80.6179 57.7681 80.9858C57.493 81.3504 57.1102 81.6354 56.6197 81.8409C56.1291 82.0464 55.5657 82.1491 54.9293 82.1491C53.9947 82.1491 53.2423 81.9536 52.6722 81.5625C52.1022 81.1681 51.7624 80.6196 51.6531 79.9169L53.408 79.7479C53.4876 80.0926 53.6566 80.3527 53.9151 80.5284C54.1737 80.7041 54.5101 80.7919 54.9244 80.7919C55.3519 80.7919 55.695 80.7041 55.9535 80.5284C56.2153 80.3527 56.3462 80.1357 56.3462 79.8771C56.3462 79.6584 56.2617 79.4777 56.0927 79.3352C55.927 79.1927 55.6684 79.0833 55.3171 79.0071L54.0146 78.7337C53.2821 78.5812 52.7402 78.3243 52.3888 77.9631C52.0375 77.5985 51.8635 77.1378 51.8668 76.581C51.8635 76.1103 51.9911 75.7027 52.2496 75.358C52.5115 75.0099 52.8744 74.7415 53.3384 74.5526C53.8058 74.3603 54.3443 74.2642 54.9542 74.2642C55.8491 74.2642 56.5534 74.4548 57.0671 74.8359C57.5842 75.2171 57.904 75.7325 58.0266 76.3821ZM61.3153 79.6037L61.3104 77.4311H61.5987L64.343 74.3636H66.446L63.0703 78.1222H62.6974L61.3153 79.6037ZM59.6747 82V71.8182H61.4744V82H59.6747ZM64.4673 82L61.9815 78.5249L63.1946 77.2571L66.62 82H64.4673ZM68.8461 84.8636C68.6008 84.8636 68.3738 84.8438 68.165 84.804C67.9595 84.7675 67.7954 84.7244 67.6728 84.6747L68.0904 83.2727C68.3522 83.349 68.5859 83.3854 68.7914 83.3821C68.9969 83.3788 69.1775 83.3142 69.3333 83.1882C69.4924 83.0656 69.6266 82.8601 69.736 82.5717L69.8901 82.1591L67.1209 74.3636H69.03L70.79 80.1307H70.8695L72.6344 74.3636H74.5485L71.4909 82.9247C71.3484 83.3291 71.1595 83.6754 70.9242 83.9638C70.6889 84.2554 70.4005 84.4775 70.0591 84.63C69.7211 84.7857 69.3167 84.8636 68.8461 84.8636Z" fill="white"/>
</g>
<defs>
<filter id="filter0_d_5845_13836" x="0" y="0" width="107" height="109" filterUnits="userSpaceOnUse" color-interpolation-filters="sRGB">
<feFlood flood-opacity="0" result="BackgroundImageFix"/>
<feColorMatrix in="SourceAlpha" type="matrix" values="0 0 0 0 0 0 0 0 0 0 0 0 0 0 0 0 0 0 127 0" result="hardAlpha"/>
<feOffset dy="2"/>
<feGaussianBlur stdDeviation="4"/>
<feColorMatrix type="matrix" values="0 0 0 0 0 0 0 0 0 0 0 0 0 0 0 0 0 0 0.25 0"/>
<feBlend mode="normal" in2="BackgroundImageFix" result="effect1_dropShadow_5845_13836"/>
<feBlend mode="normal" in="SourceGraphic" in2="effect1_dropShadow_5845_13836" result="shape"/>
</filter>
</defs>
</svg>
