<svg xmlns="http://www.w3.org/2000/svg" width="177" height="177" fill="none" viewBox="0 0 177 177"><g filter="url(#a)"><rect width="101" height="101" x="38" y="13" fill="#151b23" rx="12"/><rect width="99" height="99" x="39" y="14" stroke="#1f2937" stroke-width="2" rx="11"/><path fill="#f7df1e" d="M100.75 31.5h-24.5A5.25 5.25 0 0 0 71 36.75v24.5c0 2.9 2.35 5.25 5.25 5.25h24.5a5.25 5.25 0 0 0 5.25-5.25v-24.5a5.25 5.25 0 0 0-5.25-5.25"/><path fill="#000" d="M92.29 57.287c.475-.274 1.07-.1 1.432.311.631.718 1.463 1.177 2.64 1.177 1.367 0 2.255-.683 2.255-1.64 0-1.094-.889-1.504-2.392-2.188l-.82-.342c-2.393-1.025-3.966-2.255-3.966-4.921 0-2.461 1.846-4.375 4.786-4.375 1.804 0 3.162.545 4.159 1.888.309.417.154.995-.283 1.278l-.843.547c-.492.32-1.125.118-1.548-.288-.403-.387-.875-.554-1.485-.554-.957 0-1.573.615-1.573 1.435 0 .957.616 1.367 2.051 1.983l.82.342c2.803 1.23 4.375 2.392 4.375 5.195 0 2.94-2.324 4.58-5.468 4.58-2.626 0-4.455-1.046-5.53-2.543-.308-.43-.127-1.013.332-1.277zm-11.594.227c.467-.251 1.029-.082 1.336.35.376.527.82.911 1.615.911 1.093 0 1.777-.41 1.777-2.05V46.377a1 1 0 0 1 1-1h1.281a1 1 0 0 1 1 1v10.21c0 3.419-1.982 4.923-4.922 4.923-2.207 0-3.617-.937-4.464-2.19-.296-.437-.096-1.013.368-1.263z"/><path fill="#fff" d="M54.595 82.655h2.039v7.977q-.006 1.096-.465 1.889a3.1 3.1 0 0 1-1.286 1.213q-.819.42-1.911.421-.997 0-1.795-.354a2.92 2.92 0 0 1-1.257-1.064q-.465-.705-.466-1.75h2.044q.005.459.2.792.2.332.548.51.349.176.804.177.492 0 .836-.206.345-.21.52-.62.184-.41.19-1.008zm6.629 11.517q-.81 0-1.457-.288a2.4 2.4 0 0 1-1.02-.865q-.37-.57-.37-1.407 0-.72.265-1.19.266-.472.726-.754a3.7 3.7 0 0 1 1.036-.427q.58-.15 1.202-.216.747-.077 1.213-.138.465-.066.676-.2.216-.138.216-.426v-.033q0-.626-.371-.97t-1.07-.343q-.736 0-1.168.32a1.6 1.6 0 0 0-.576.76l-1.873-.266q.222-.776.731-1.296.51-.526 1.247-.787a4.8 4.8 0 0 1 1.628-.266q.616 0 1.225.144t1.113.477q.504.327.809.891.31.566.31 1.413V94h-1.928v-1.169h-.066a2.5 2.5 0 0 1-.515.665 2.5 2.5 0 0 1-.826.493 3.3 3.3 0 0 1-1.157.183m.52-1.474q.605 0 1.047-.238.444-.244.682-.643.243-.398.243-.87v-1.002a1 1 0 0 1-.32.144 5 5 0 0 1-.5.116q-.276.05-.548.089l-.47.066q-.45.062-.804.2a1.34 1.34 0 0 0-.56.388q-.205.244-.205.631 0 .554.405.837t1.03.282m13.285-7.207L71.999 94h-2.216l-3.03-8.51h2.138l1.955 6.322h.089l1.96-6.321zm3.592 8.68q-.809 0-1.457-.287a2.4 2.4 0 0 1-1.02-.865q-.37-.57-.37-1.407 0-.72.266-1.19.266-.472.725-.754.46-.282 1.036-.427.582-.15 1.202-.216.748-.077 1.214-.138.465-.066.675-.2.217-.138.217-.426v-.033q0-.626-.372-.97-.37-.343-1.069-.343-.736 0-1.169.32a1.6 1.6 0 0 0-.576.76l-1.872-.266q.22-.776.731-1.296a3.2 3.2 0 0 1 1.246-.787 4.8 4.8 0 0 1 1.63-.266q.614 0 1.223.144t1.114.477q.504.327.809.891.31.566.31 1.413V94h-1.928v-1.169h-.066a2.5 2.5 0 0 1-.516.665 2.5 2.5 0 0 1-.825.493 3.3 3.3 0 0 1-1.158.183m.52-1.473q.604 0 1.048-.238a1.76 1.76 0 0 0 .681-.643q.244-.398.244-.87v-1.002a1 1 0 0 1-.321.144 5 5 0 0 1-.499.116q-.276.05-.548.089l-.471.066q-.45.062-.803.2a1.33 1.33 0 0 0-.56.388q-.205.244-.205.631 0 .554.405.837t1.03.282m12.715-4.958-1.828.2a1.5 1.5 0 0 0-.272-.521 1.35 1.35 0 0 0-.51-.394q-.321-.15-.786-.15-.626 0-1.053.272-.42.272-.415.704a.74.74 0 0 0 .271.604q.283.232.93.382l1.452.31q1.208.26 1.795.826.593.565.599 1.479a2.3 2.3 0 0 1-.471 1.418q-.46.61-1.28.953t-1.884.343q-1.562 0-2.515-.653-.952-.66-1.135-1.834l1.955-.189q.133.578.565.87.432.294 1.125.294.714 0 1.147-.294.437-.293.437-.725a.76.76 0 0 0-.282-.604q-.278-.24-.864-.366l-1.452-.305q-1.224-.255-1.811-.858-.588-.61-.582-1.54-.006-.787.426-1.363.438-.582 1.214-.898.78-.32 1.8-.32 1.495 0 2.355.636.864.638 1.069 1.723m5.548 6.426q-1.275 0-2.188-.56a3.74 3.74 0 0 1-1.402-1.545q-.487-.992-.487-2.282 0-1.296.498-2.288a3.7 3.7 0 0 1 1.407-1.551q.915-.56 2.16-.56 1.037 0 1.834.382.803.377 1.28 1.07.477.687.543 1.606h-1.917a1.83 1.83 0 0 0-.554-1.025q-.432-.415-1.158-.415-.615 0-1.08.332-.465.327-.726.942-.254.615-.254 1.474 0 .87.254 1.495.255.62.715.959.465.332 1.091.332.444 0 .793-.166.355-.173.592-.493.24-.322.327-.781h1.917a3.34 3.34 0 0 1-.532 1.6 3.14 3.14 0 0 1-1.252 1.086q-.792.388-1.861.388m5.292-.166v-8.51h1.944v1.42h.089q.233-.737.797-1.137.572-.404 1.302-.404.167 0 .371.017.211.01.349.038v1.845a2 2 0 0 0-.404-.077 4 4 0 0 0-.526-.04q-.55 0-.986.24a1.75 1.75 0 0 0-.682.647 1.83 1.83 0 0 0-.249.959V94zm6.185 0v-8.51h2.005V94zm1.008-9.717a1.17 1.17 0 0 1-.82-.316 1.02 1.02 0 0 1-.343-.77q0-.454.343-.77.343-.32.82-.32.482 0 .82.32.343.316.343.77 0 .45-.343.77-.338.316-.82.316m3.059 12.908v-11.7h1.973v1.407h.116q.154-.31.438-.66a2.3 2.3 0 0 1 .764-.603q.481-.255 1.23-.255.986 0 1.778.504.798.5 1.263 1.48.471.975.471 2.392 0 1.402-.46 2.383-.46.98-1.252 1.495a3.2 3.2 0 0 1-1.795.516q-.731 0-1.213-.244a2.5 2.5 0 0 1-.775-.587 3.8 3.8 0 0 1-.449-.66h-.083v4.532zm1.967-7.445q0 .825.233 1.445.238.62.681.97.449.343 1.086.343.664 0 1.113-.354.449-.36.676-.98a4.1 4.1 0 0 0 .233-1.424q0-.793-.227-1.408-.228-.614-.676-.964-.449-.349-1.119-.349-.643 0-1.091.338-.45.338-.682.948-.227.609-.227 1.435m12.032-4.255v1.551h-4.891v-1.551zm-3.684-2.039h2.006v7.989q0 .404.122.62.127.21.332.288t.454.078q.188 0 .344-.028.16-.028.244-.05l.337 1.568q-.16.056-.459.122-.294.066-.72.077a3.3 3.3 0 0 1-1.358-.227 2.1 2.1 0 0 1-.958-.786q-.349-.532-.344-1.33z"/></g><defs><filter id="a" width="177" height="177" x="0" y="0" color-interpolation-filters="sRGB" filterUnits="userSpaceOnUse"><feFlood flood-opacity="0" result="BackgroundImageFix"/><feColorMatrix in="SourceAlpha" result="hardAlpha" values="0 0 0 0 0 0 0 0 0 0 0 0 0 0 0 0 0 0 127 0"/><feMorphology in="SourceAlpha" radius="12" result="effect1_dropShadow_5820_9790"/><feOffset dy="25"/><feGaussianBlur stdDeviation="25"/><feColorMatrix values="0 0 0 0 0 0 0 0 0 0 0 0 0 0 0 0 0 0 0.25 0"/><feBlend in2="BackgroundImageFix" result="effect1_dropShadow_5820_9790"/><feBlend in="SourceGraphic" in2="effect1_dropShadow_5820_9790" result="shape"/></filter></defs></svg>