<svg width="177" height="177" viewBox="0 0 177 177" fill="none" xmlns="http://www.w3.org/2000/svg">
<g filter="url(#filter0_d_5820_9790)">
<rect x="38" y="13" width="101" height="101" rx="12" fill="#151B23"/>
<rect x="39" y="14" width="99" height="99" rx="11" stroke="#1F2937" stroke-width="2"/>
<path d="M100.75 31.5H76.25C73.3505 31.5 71 33.8505 71 36.75V61.25C71 64.1495 73.3505 66.5 76.25 66.5H100.75C103.649 66.5 106 64.1495 106 61.25V36.75C106 33.8505 103.649 31.5 100.75 31.5Z" fill="#F7DF1E"/>
<path d="M92.2901 57.2865C92.7655 57.0132 93.3603 57.1861 93.7223 57.5981C94.353 58.3162 95.1849 58.7754 96.3613 58.7754C97.7285 58.7754 98.6172 58.0918 98.6172 57.1348C98.6172 56.041 97.7285 55.6309 96.2246 54.9473L95.4043 54.6055C93.0117 53.5801 91.4395 52.3496 91.4395 49.6836C91.4395 47.2227 93.2852 45.3086 96.2246 45.3086C98.0287 45.3086 99.3869 45.8536 100.384 47.1966C100.693 47.6141 100.538 48.1922 100.101 48.4751L99.2577 49.0224C98.7661 49.3413 98.133 49.1401 97.7104 48.7342C97.307 48.3467 96.8354 48.1797 96.2246 48.1797C95.2676 48.1797 94.6523 48.7949 94.6523 49.6152C94.6523 50.5723 95.2676 50.9824 96.7031 51.5977L97.5234 51.9395C100.326 53.1699 101.898 54.332 101.898 57.1348C101.898 60.0742 99.5742 61.7148 96.4297 61.7148C93.804 61.7148 91.9752 60.6689 90.9007 59.1723C90.5918 58.742 90.7727 58.159 91.2319 57.895L92.2901 57.2865ZM80.6963 57.5139C81.1628 57.2627 81.7247 57.4322 82.0322 57.8637C82.408 58.3912 82.8511 58.7754 83.6465 58.7754C84.7402 58.7754 85.4238 58.3652 85.4238 56.7246V46.377C85.4238 45.8247 85.8715 45.377 86.4238 45.377H87.7051C88.2574 45.377 88.7051 45.8247 88.7051 46.377V56.5879C88.7051 60.0059 86.7227 61.5098 83.7832 61.5098C81.5762 61.5098 80.1656 60.5728 79.3187 59.3194C79.0234 58.8825 79.2227 58.3074 79.687 58.0573L80.6963 57.5139Z" fill="black"/>
<path d="M54.5952 82.6545H56.6338V90.6318C56.6301 91.3631 56.475 91.9928 56.1685 92.5209C55.8619 93.0453 55.4335 93.4497 54.8832 93.7341C54.3366 94.0148 53.6996 94.1551 52.972 94.1551C52.3072 94.1551 51.7089 94.0369 51.1771 93.8006C50.649 93.5605 50.2298 93.206 49.9196 92.7369C49.6094 92.2679 49.4543 91.6844 49.4543 90.9864H51.4984C51.5021 91.2929 51.5686 91.557 51.6979 91.7786C51.8308 92.0001 52.0136 92.17 52.2463 92.2882C52.479 92.4064 52.7467 92.4655 53.0496 92.4655C53.3783 92.4655 53.6571 92.3972 53.8861 92.2605C54.1151 92.1202 54.2886 91.9134 54.4068 91.6401C54.5287 91.3668 54.5915 91.0307 54.5952 90.6318V82.6545ZM61.2235 94.1717C60.6843 94.1717 60.1987 94.0757 59.7665 93.8837C59.3381 93.6879 58.9984 93.3999 58.7472 93.0195C58.4998 92.6391 58.3761 92.17 58.3761 91.6124C58.3761 91.1322 58.4647 90.7352 58.642 90.4213C58.8192 90.1074 59.0612 89.8562 59.3677 89.6679C59.6742 89.4795 60.0195 89.3374 60.4036 89.2413C60.7914 89.1416 61.1921 89.0696 61.6058 89.0253C62.1043 88.9736 62.5087 88.9274 62.819 88.8868C63.1292 88.8425 63.3545 88.776 63.4948 88.6874C63.6389 88.595 63.7109 88.4528 63.7109 88.2608V88.2276C63.7109 87.8102 63.5871 87.4871 63.3397 87.2581C63.0923 87.0291 62.7359 86.9146 62.2705 86.9146C61.7793 86.9146 61.3897 87.0217 61.1016 87.2359C60.8173 87.4501 60.6252 87.7031 60.5255 87.9949L58.6531 87.729C58.8008 87.2119 59.0445 86.7798 59.3843 86.4327C59.7241 86.0818 60.1396 85.8196 60.6308 85.646C61.1219 85.4687 61.6648 85.3801 62.2594 85.3801C62.6694 85.3801 63.0775 85.4281 63.4837 85.5241C63.89 85.6202 64.2612 85.779 64.5972 86.0006C64.9333 86.2185 65.2029 86.5158 65.406 86.8925C65.6129 87.2692 65.7163 87.7401 65.7163 88.3051V94H63.7884V92.8311H63.7219C63.6001 93.0675 63.4283 93.2891 63.2067 93.4959C62.9889 93.699 62.7137 93.8634 62.3813 93.9889C62.0526 94.1108 61.6667 94.1717 61.2235 94.1717ZM61.7442 92.6982C62.1468 92.6982 62.4958 92.6187 62.7913 92.4599C63.0867 92.2974 63.3139 92.0832 63.4727 91.8173C63.6352 91.5514 63.7164 91.2615 63.7164 90.9476V89.9449C63.6536 89.9966 63.5465 90.0446 63.3951 90.0889C63.2474 90.1332 63.0812 90.172 62.8965 90.2053C62.7119 90.2385 62.529 90.268 62.3481 90.2939C62.1671 90.3197 62.0102 90.3419 61.8772 90.3604C61.5781 90.401 61.3103 90.4675 61.0739 90.5598C60.8376 90.6521 60.6511 90.7814 60.5144 90.9476C60.3778 91.1101 60.3094 91.3206 60.3094 91.5791C60.3094 91.9484 60.4442 92.2273 60.7139 92.4156C60.9835 92.604 61.3269 92.6982 61.7442 92.6982ZM75.0286 85.4909L71.9984 94H69.7825L66.7522 85.4909H68.8906L70.8461 91.8118H70.9347L72.8958 85.4909H75.0286ZM78.6212 94.1717C78.082 94.1717 77.5963 94.0757 77.1642 93.8837C76.7358 93.6879 76.396 93.3999 76.1449 93.0195C75.8974 92.6391 75.7737 92.17 75.7737 91.6124C75.7737 91.1322 75.8624 90.7352 76.0396 90.4213C76.2169 90.1074 76.4588 89.8562 76.7653 89.6679C77.0719 89.4795 77.4172 89.3374 77.8013 89.2413C78.1891 89.1416 78.5898 89.0696 79.0034 89.0253C79.502 88.9736 79.9064 88.9274 80.2166 88.8868C80.5268 88.8425 80.7521 88.776 80.8925 88.6874C81.0365 88.595 81.1085 88.4528 81.1085 88.2608V88.2276C81.1085 87.8102 80.9848 87.4871 80.7374 87.2581C80.4899 87.0291 80.1335 86.9146 79.6682 86.9146C79.177 86.9146 78.7874 87.0217 78.4993 87.2359C78.2149 87.4501 78.0229 87.7031 77.9232 87.9949L76.0507 87.729C76.1984 87.2119 76.4422 86.7798 76.782 86.4327C77.1217 86.0818 77.5372 85.8196 78.0284 85.646C78.5196 85.4687 79.0625 85.3801 79.6571 85.3801C80.067 85.3801 80.4751 85.4281 80.8814 85.5241C81.2876 85.6202 81.6588 85.779 81.9949 86.0006C82.331 86.2185 82.6006 86.5158 82.8037 86.8925C83.0105 87.2692 83.1139 87.7401 83.1139 88.3051V94H81.1861V92.8311H81.1196C80.9977 93.0675 80.826 93.2891 80.6044 93.4959C80.3865 93.699 80.1114 93.8634 79.779 93.9889C79.4503 94.1108 79.0643 94.1717 78.6212 94.1717ZM79.1419 92.6982C79.5445 92.6982 79.8935 92.6187 80.1889 92.4599C80.4844 92.2974 80.7115 92.0832 80.8703 91.8173C81.0328 91.5514 81.1141 91.2615 81.1141 90.9476V89.9449C81.0513 89.9966 80.9442 90.0446 80.7928 90.0889C80.645 90.1332 80.4788 90.172 80.2942 90.2053C80.1095 90.2385 79.9267 90.268 79.7457 90.2939C79.5648 90.3197 79.4078 90.3419 79.2749 90.3604C78.9757 90.401 78.708 90.4675 78.4716 90.5598C78.2352 90.6521 78.0487 90.7814 77.9121 90.9476C77.7754 91.1101 77.7071 91.3206 77.7071 91.5791C77.7071 91.9484 77.8419 92.2273 78.1115 92.4156C78.3811 92.604 78.7246 92.6982 79.1419 92.6982ZM91.8557 87.7401L90.0276 87.9395C89.9759 87.7548 89.8854 87.5812 89.7561 87.4187C89.6305 87.2562 89.4607 87.1251 89.2464 87.0254C89.0322 86.9257 88.77 86.8759 88.4598 86.8759C88.0425 86.8759 87.6916 86.9663 87.4072 87.1473C87.1266 87.3283 86.9881 87.5628 86.9918 87.8509C86.9881 88.0983 87.0785 88.2996 87.2632 88.4547C87.4516 88.6098 87.7618 88.7372 88.1939 88.8369L89.6453 89.1472C90.4504 89.3207 91.0487 89.5959 91.4402 89.9726C91.8354 90.3493 92.0348 90.8423 92.0385 91.4517C92.0348 91.9872 91.8778 92.4599 91.5676 92.8699C91.2611 93.2761 90.8345 93.5937 90.2879 93.8227C89.7413 94.0517 89.1135 94.1662 88.4044 94.1662C87.3629 94.1662 86.5246 93.9483 85.8893 93.5125C85.2541 93.073 84.8756 92.4618 84.7537 91.6788L86.7092 91.4905C86.7979 91.8746 86.9862 92.1645 87.2743 92.3602C87.5624 92.556 87.9372 92.6538 88.3989 92.6538C88.8753 92.6538 89.2575 92.556 89.5456 92.3602C89.8374 92.1645 89.9832 91.9226 89.9832 91.6345C89.9832 91.3908 89.8891 91.1895 89.7007 91.0307C89.516 90.8719 89.228 90.75 88.8365 90.6651L87.3851 90.3604C86.5689 90.1905 85.9651 89.9043 85.5736 89.5017C85.1821 89.0955 84.9882 88.5821 84.9919 87.9616C84.9882 87.4372 85.1304 86.983 85.4185 86.5989C85.7102 86.2111 86.1146 85.9119 86.6317 85.7014C87.1524 85.4872 87.7526 85.3801 88.4321 85.3801C89.4293 85.3801 90.2141 85.5925 90.7865 86.0172C91.3626 86.4419 91.719 87.0162 91.8557 87.7401ZM97.4038 94.1662C96.5543 94.1662 95.8249 93.9797 95.2156 93.6067C94.6099 93.2337 94.1427 92.7185 93.814 92.0611C93.489 91.4 93.3265 90.6392 93.3265 89.7787C93.3265 88.9145 93.4927 88.1518 93.8251 87.4908C94.1575 86.826 94.6265 86.3089 95.2322 85.9396C95.8416 85.5666 96.5617 85.3801 97.3927 85.3801C98.0833 85.3801 98.6945 85.5075 99.2264 85.7624C99.7619 86.0135 100.188 86.3699 100.506 86.8315C100.824 87.2895 101.005 87.825 101.049 88.4381H99.1322C99.0546 88.0281 98.87 87.6865 98.5782 87.4132C98.2901 87.1362 97.9042 86.9977 97.4204 86.9977C97.0104 86.9977 96.6504 87.1085 96.3401 87.3301C96.0299 87.548 95.788 87.8619 95.6144 88.2719C95.4445 88.6818 95.3596 89.173 95.3596 89.7455C95.3596 90.3253 95.4445 90.8239 95.6144 91.2412C95.7843 91.6548 96.0225 91.9743 96.3291 92.1996C96.6393 92.4212 97.0031 92.532 97.4204 92.532C97.7158 92.532 97.9799 92.4766 98.2126 92.3658C98.4489 92.2513 98.6465 92.0869 98.8053 91.8727C98.9641 91.6585 99.0731 91.3982 99.1322 91.0916H101.049C101.001 91.6936 100.824 92.2273 100.517 92.6926C100.211 93.1543 99.7933 93.5162 99.2651 93.7784C98.737 94.0369 98.1166 94.1662 97.4038 94.1662ZM102.696 94V85.4909H104.64V86.9091H104.729C104.884 86.4179 105.15 86.0393 105.526 85.7734C105.907 85.5038 106.341 85.369 106.828 85.369C106.939 85.369 107.063 85.3746 107.199 85.3857C107.34 85.393 107.456 85.406 107.548 85.4244V87.2692C107.464 87.2396 107.329 87.2138 107.144 87.1916C106.963 87.1658 106.788 87.1528 106.618 87.1528C106.252 87.1528 105.923 87.2322 105.632 87.3911C105.344 87.5462 105.117 87.7622 104.95 88.0392C104.784 88.3162 104.701 88.6357 104.701 88.9976V94H102.696ZM108.881 94V85.4909H110.886V94H108.881ZM109.889 84.2832C109.571 84.2832 109.298 84.178 109.069 83.9675C108.84 83.7533 108.726 83.4966 108.726 83.1974C108.726 82.8946 108.84 82.6379 109.069 82.4274C109.298 82.2132 109.571 82.1061 109.889 82.1061C110.21 82.1061 110.484 82.2132 110.709 82.4274C110.938 82.6379 111.052 82.8946 111.052 83.1974C111.052 83.4966 110.938 83.7533 110.709 83.9675C110.484 84.178 110.21 84.2832 109.889 84.2832ZM112.948 97.1909V85.4909H114.921V86.898H115.037C115.14 86.6912 115.286 86.4714 115.475 86.2388C115.663 86.0024 115.918 85.8011 116.239 85.6349C116.56 85.4651 116.97 85.3801 117.469 85.3801C118.126 85.3801 118.719 85.5482 119.247 85.8842C119.779 86.2166 120.2 86.7097 120.51 87.3634C120.824 88.0134 120.981 88.8111 120.981 89.7565C120.981 90.6909 120.828 91.4849 120.521 92.1386C120.215 92.7923 119.797 93.2909 119.269 93.6344C118.741 93.9778 118.143 94.1496 117.474 94.1496C116.987 94.1496 116.582 94.0683 116.261 93.9058C115.94 93.7433 115.681 93.5476 115.486 93.3186C115.294 93.0859 115.144 92.8662 115.037 92.6594H114.954V97.1909H112.948ZM114.915 89.7455C114.915 90.2957 114.993 90.7777 115.148 91.1913C115.306 91.605 115.534 91.9281 115.829 92.1608C116.128 92.3898 116.49 92.5043 116.915 92.5043C117.358 92.5043 117.729 92.3861 118.028 92.1497C118.327 91.9097 118.553 91.5828 118.704 91.1692C118.859 90.7518 118.937 90.2773 118.937 89.7455C118.937 89.2173 118.861 88.7483 118.71 88.3384C118.558 87.9284 118.333 87.6071 118.034 87.3744C117.735 87.1418 117.362 87.0254 116.915 87.0254C116.486 87.0254 116.123 87.1381 115.824 87.3634C115.524 87.5886 115.297 87.9044 115.142 88.3107C114.991 88.7169 114.915 89.1952 114.915 89.7455ZM126.947 85.4909V87.042H122.056V85.4909H126.947ZM123.263 83.4523H125.269V91.4406C125.269 91.7102 125.309 91.917 125.391 92.0611C125.476 92.2014 125.586 92.2974 125.723 92.3491C125.86 92.4009 126.011 92.4267 126.177 92.4267C126.303 92.4267 126.417 92.4175 126.521 92.399C126.628 92.3805 126.709 92.3639 126.765 92.3491L127.102 93.9169C126.995 93.9538 126.842 93.9945 126.643 94.0388C126.447 94.0831 126.207 94.1089 125.923 94.1163C125.42 94.1311 124.968 94.0554 124.565 93.8892C124.163 93.7193 123.843 93.4571 123.607 93.1026C123.374 92.748 123.26 92.3048 123.263 91.773V83.4523Z" fill="white"/>
</g>
<defs>
<filter id="filter0_d_5820_9790" x="0" y="0" width="177" height="177" filterUnits="userSpaceOnUse" color-interpolation-filters="sRGB">
<feFlood flood-opacity="0" result="BackgroundImageFix"/>
<feColorMatrix in="SourceAlpha" type="matrix" values="0 0 0 0 0 0 0 0 0 0 0 0 0 0 0 0 0 0 127 0" result="hardAlpha"/>
<feMorphology radius="12" operator="erode" in="SourceAlpha" result="effect1_dropShadow_5820_9790"/>
<feOffset dy="25"/>
<feGaussianBlur stdDeviation="25"/>
<feColorMatrix type="matrix" values="0 0 0 0 0 0 0 0 0 0 0 0 0 0 0 0 0 0 0.25 0"/>
<feBlend mode="normal" in2="BackgroundImageFix" result="effect1_dropShadow_5820_9790"/>
<feBlend mode="normal" in="SourceGraphic" in2="effect1_dropShadow_5820_9790" result="shape"/>
</filter>
</defs>
</svg>
