<svg xmlns="http://www.w3.org/2000/svg" width="91" height="93" fill="none" viewBox="0 0 91 93"><rect width="89" height="91" x="1" y="1" fill="#151b23" rx="11"/><rect width="89" height="91" x="1" y="1" stroke="#1f2937" stroke-width="2" rx="11"/><path fill="#f7df1e" d="M57.75 16.5h-24.5A5.25 5.25 0 0 0 28 21.75v24.5c0 2.9 2.35 5.25 5.25 5.25h24.5c2.9 0 5.25-2.35 5.25-5.25v-24.5c0-2.9-2.35-5.25-5.25-5.25"/><path fill="#000" d="M49.29 42.287c.476-.274 1.07-.1 1.432.311.631.718 1.463 1.177 2.64 1.177 1.366 0 2.255-.683 2.255-1.64 0-1.094-.889-1.504-2.392-2.188l-.82-.342c-2.393-1.025-3.965-2.255-3.965-4.921 0-2.461 1.845-4.375 4.785-4.375 1.804 0 3.162.545 4.158 1.888.31.417.155.995-.282 1.278l-.843.547c-.492.32-1.125.118-1.548-.288-.403-.387-.875-.554-1.485-.554-.957 0-1.573.615-1.573 1.435 0 .957.616 1.367 2.051 1.983l.82.342c2.803 1.23 4.375 2.392 4.375 5.195 0 2.94-2.324 4.58-5.468 4.58-2.626 0-4.455-1.046-5.53-2.543-.308-.43-.127-1.013.332-1.277zm-11.594.227c.467-.251 1.029-.082 1.336.35.376.527.82.911 1.615.911 1.093 0 1.777-.41 1.777-2.05V31.377a1 1 0 0 1 1-1h1.281a1 1 0 0 1 1 1v10.21c0 3.419-1.982 4.923-4.922 4.923-2.207 0-3.617-.937-4.464-2.19-.296-.437-.096-1.013.368-1.263z"/><path fill="#fff" d="M15.021 65.818h1.83v7.16q-.005.983-.418 1.695a2.8 2.8 0 0 1-1.153 1.088q-.735.378-1.715.378a3.9 3.9 0 0 1-1.611-.318 2.63 2.63 0 0 1-1.129-.954q-.417-.632-.417-1.572h1.834q.005.413.18.711.177.3.491.458.315.159.721.159.443 0 .75-.184a1.18 1.18 0 0 0 .468-.557q.165-.368.17-.905zm5.949 10.336q-.726 0-1.308-.258a2.13 2.13 0 0 1-.915-.776q-.333-.511-.333-1.263 0-.646.24-1.069.237-.422.65-.676.412-.253.93-.383.522-.135 1.079-.194.67-.069 1.089-.124.417-.06.606-.179.194-.124.194-.383v-.03q0-.561-.333-.87t-.96-.308q-.66 0-1.049.289a1.43 1.43 0 0 0-.517.68l-1.68-.238q.199-.696.656-1.163.457-.472 1.119-.706.66-.24 1.462-.239.551 0 1.098.13a3.1 3.1 0 0 1 1 .427q.452.293.725.8.279.508.279 1.268V76h-1.73v-1.049h-.06q-.165.318-.462.597-.294.273-.741.442-.443.165-1.04.164m.467-1.322q.542 0 .94-.214a1.6 1.6 0 0 0 .611-.577 1.47 1.47 0 0 0 .219-.78v-.9a.9.9 0 0 1-.288.13q-.2.059-.448.103-.249.045-.492.08l-.422.06a3 3 0 0 0-.721.179q-.319.124-.502.348-.184.218-.184.566 0 .498.362.751.363.254.925.254m11.922-6.468L30.639 76h-1.988l-2.72-7.636h1.92l1.755 5.672h.079l1.76-5.672zm3.224 7.79q-.726 0-1.307-.258a2.13 2.13 0 0 1-.915-.776q-.333-.511-.333-1.263 0-.646.238-1.069.24-.422.652-.676.413-.253.93-.383.521-.135 1.078-.194.671-.069 1.089-.124.417-.06.606-.179.194-.124.194-.383v-.03q0-.561-.333-.87t-.96-.308q-.66 0-1.048.289a1.43 1.43 0 0 0-.517.68l-1.68-.238q.198-.696.655-1.163.457-.472 1.12-.706.66-.24 1.46-.239.553 0 1.1.13a3.1 3.1 0 0 1 .999.427q.452.293.726.8.278.508.278 1.268V76h-1.73v-1.049h-.06q-.164.318-.462.597-.294.273-.74.442-.444.165-1.04.164m.467-1.322q.543 0 .94-.214.397-.219.612-.577a1.47 1.47 0 0 0 .218-.78v-.9a.9.9 0 0 1-.288.13q-.2.059-.447.103-.249.045-.493.08l-.422.06a3 3 0 0 0-.721.179q-.319.124-.502.348-.184.218-.184.566 0 .498.363.751.363.254.924.254m11.41-4.45-1.64.18a1.3 1.3 0 0 0-.244-.468 1.2 1.2 0 0 0-.457-.353 1.7 1.7 0 0 0-.706-.135q-.562 0-.945.244-.378.244-.373.632a.66.66 0 0 0 .244.541q.253.21.835.344l1.303.278q1.083.234 1.61.74.532.508.537 1.328-.005.72-.422 1.273-.413.547-1.149.855t-1.69.308q-1.402 0-2.257-.587-.855-.59-1.02-1.645l1.756-.17q.12.519.507.781.388.264 1.009.264.641 0 1.03-.264.391-.263.392-.65 0-.33-.254-.543-.248-.213-.775-.328l-1.303-.273q-1.098-.23-1.626-.77-.526-.547-.522-1.383-.004-.705.383-1.223.393-.522 1.089-.805.7-.29 1.616-.289 1.342 0 2.113.572.776.572.96 1.546m4.98 5.767q-1.144 0-1.965-.502a3.35 3.35 0 0 1-1.257-1.387q-.438-.89-.438-2.048 0-1.163.448-2.054a3.34 3.34 0 0 1 1.262-1.392q.82-.501 1.94-.502.93 0 1.645.343.72.339 1.148.96.428.615.488 1.442h-1.72a1.64 1.64 0 0 0-.498-.92q-.388-.373-1.039-.373-.551 0-.97.298-.417.294-.65.845-.23.553-.23 1.323 0 .78.23 1.342.228.557.64.86.42.3.98.299.398 0 .711-.15.319-.154.532-.442t.293-.701h1.72a3 3 0 0 1-.477 1.437q-.413.621-1.123.974-.711.348-1.67.348M58.187 76v-7.636h1.745v1.272h.08q.21-.66.716-1.019a1.97 1.97 0 0 1 1.168-.363q.15 0 .333.015.188.01.314.035v1.656a2 2 0 0 0-.363-.07 3 3 0 0 0-.473-.035q-.492 0-.885.214-.387.21-.611.582a1.64 1.64 0 0 0-.224.86V76zm5.551 0v-7.636h1.8V76zm.905-8.72a1.05 1.05 0 0 1-.736-.284.91.91 0 0 1-.308-.69q0-.408.308-.692a1.04 1.04 0 0 1 .736-.288q.433 0 .736.288.308.285.308.691a.91.91 0 0 1-.308.691 1.04 1.04 0 0 1-.736.284m2.746 11.584v-10.5h1.77v1.262h.104a3.3 3.3 0 0 1 .393-.591q.253-.318.686-.542.432-.23 1.103-.229.885 0 1.596.453.716.447 1.134 1.327.422.875.422 2.148 0 1.256-.412 2.138-.413.88-1.124 1.342a2.9 2.9 0 0 1-1.61.462q-.657 0-1.09-.219a2.2 2.2 0 0 1-.695-.527 3.4 3.4 0 0 1-.403-.591h-.075v4.067zm1.764-6.682q0 .74.21 1.297.214.558.61.87.404.309.975.309.597 0 1-.319a1.96 1.96 0 0 0 .606-.88q.21-.561.209-1.277a3.6 3.6 0 0 0-.204-1.263 1.9 1.9 0 0 0-.606-.865q-.404-.313-1.005-.313-.575 0-.98.303-.402.304-.61.85-.205.547-.204 1.288m10.799-3.818v1.392h-4.39v-1.392zm-3.306-1.83h1.8v7.17q0 .362.109.556a.6.6 0 0 0 .298.258q.184.07.408.07.168 0 .308-.025a3 3 0 0 0 .219-.044l.303 1.406q-.144.05-.413.11-.262.06-.646.07a2.9 2.9 0 0 1-1.218-.204 1.9 1.9 0 0 1-.86-.706q-.314-.478-.308-1.194z"/></svg>