<svg width="107" height="109" viewBox="0 0 107 109" fill="none" xmlns="http://www.w3.org/2000/svg">
<g filter="url(#filter0_d_5820_9790)">
<rect x="8" y="6" width="91" height="93" rx="12" fill="#151B23"/>
<rect x="9" y="7" width="89" height="91" rx="11" stroke="#1F2937" stroke-width="2"/>
<path d="M65.75 22.5H41.25C38.3505 22.5 36 24.8505 36 27.75V52.25C36 55.1495 38.3505 57.5 41.25 57.5H65.75C68.6495 57.5 71 55.1495 71 52.25V27.75C71 24.8505 68.6495 22.5 65.75 22.5Z" fill="#F7DF1E"/>
<path d="M57.2901 48.2865C57.7655 48.0132 58.3603 48.1861 58.7223 48.5981C59.353 49.3162 60.1849 49.7754 61.3613 49.7754C62.7285 49.7754 63.6172 49.0918 63.6172 48.1348C63.6172 47.041 62.7285 46.6309 61.2246 45.9473L60.4043 45.6055C58.0117 44.5801 56.4395 43.3496 56.4395 40.6836C56.4395 38.2227 58.2852 36.3086 61.2246 36.3086C63.0287 36.3086 64.3869 36.8536 65.3835 38.1966C65.6933 38.6141 65.5376 39.1922 65.1015 39.4751L64.2577 40.0224C63.7661 40.3413 63.133 40.1401 62.7104 39.7342C62.307 39.3467 61.8354 39.1797 61.2246 39.1797C60.2676 39.1797 59.6523 39.7949 59.6523 40.6152C59.6523 41.5723 60.2676 41.9824 61.7031 42.5977L62.5234 42.9395C65.3262 44.1699 66.8984 45.332 66.8984 48.1348C66.8984 51.0742 64.5742 52.7148 61.4297 52.7148C58.804 52.7148 56.9752 51.6689 55.9007 50.1723C55.5918 49.742 55.7727 49.159 56.2319 48.895L57.2901 48.2865ZM45.6963 48.5139C46.1628 48.2627 46.7247 48.4322 47.0322 48.8637C47.408 49.3912 47.8511 49.7754 48.6465 49.7754C49.7402 49.7754 50.4238 49.3652 50.4238 47.7246V37.377C50.4238 36.8247 50.8715 36.377 51.4238 36.377H52.7051C53.2574 36.377 53.7051 36.8247 53.7051 37.377V47.5879C53.7051 51.0059 51.7227 52.5098 48.7832 52.5098C46.5762 52.5098 45.1656 51.5728 44.3187 50.3194C44.0234 49.8825 44.2227 49.3074 44.687 49.0573L45.6963 48.5139Z" fill="black"/>
<path d="M23.0213 71.8182H24.8509V78.9773C24.8475 79.6335 24.7083 80.1986 24.4332 80.6726C24.1581 81.1432 23.7737 81.5062 23.2798 81.7614C22.7893 82.0133 22.2176 82.1392 21.5646 82.1392C20.968 82.1392 20.4311 82.0331 19.9538 81.821C19.4799 81.6056 19.1037 81.2874 18.8253 80.8665C18.5469 80.4455 18.4077 79.9219 18.4077 79.2955H20.2422C20.2455 79.5705 20.3052 79.8075 20.4212 80.0064C20.5405 80.2053 20.7045 80.3577 20.9134 80.4638C21.1222 80.5698 21.3625 80.6229 21.6342 80.6229C21.9292 80.6229 22.1795 80.5616 22.3849 80.4389C22.5904 80.313 22.7462 80.1274 22.8523 79.8821C22.9616 79.6368 23.018 79.3352 23.0213 78.9773V71.8182ZM28.9698 82.1541C28.4859 82.1541 28.0501 82.0679 27.6623 81.8956C27.2778 81.7199 26.9729 81.4614 26.7475 81.12C26.5254 80.7786 26.4144 80.3577 26.4144 79.8572C26.4144 79.4264 26.494 79.0701 26.6531 78.7884C26.8121 78.5066 27.0292 78.2812 27.3043 78.1122C27.5794 77.9432 27.8893 77.8156 28.234 77.7294C28.582 77.6399 28.9416 77.5753 29.3129 77.5355C29.7603 77.4891 30.1232 77.4477 30.4016 77.4112C30.68 77.3714 30.8822 77.3118 31.0082 77.2322C31.1374 77.1494 31.2021 77.0218 31.2021 76.8494V76.8196C31.2021 76.4451 31.091 76.1551 30.869 75.9496C30.6469 75.7441 30.3271 75.6413 29.9094 75.6413C29.4686 75.6413 29.119 75.7375 28.8604 75.9297C28.6052 76.1219 28.4329 76.349 28.3434 76.6108L26.663 76.3722C26.7956 75.9081 27.0143 75.5204 27.3192 75.2088C27.6242 74.8939 27.997 74.6586 28.4379 74.5028C28.8787 74.3438 29.3659 74.2642 29.8995 74.2642C30.2674 74.2642 30.6336 74.3073 30.9982 74.3935C31.3628 74.4796 31.6959 74.6222 31.9975 74.821C32.2991 75.0166 32.5411 75.2834 32.7234 75.6214C32.909 75.9595 33.0018 76.3821 33.0018 76.8892V82H31.2717V80.951H31.212C31.1026 81.1631 30.9485 81.362 30.7496 81.5476C30.5541 81.7299 30.3072 81.8774 30.0089 81.9901C29.7139 82.0994 29.3675 82.1541 28.9698 82.1541ZM29.4371 80.8317C29.7984 80.8317 30.1116 80.7604 30.3768 80.6179C30.6419 80.4721 30.8458 80.2798 30.9883 80.0412C31.1341 79.8026 31.207 79.5424 31.207 79.2607V78.3608C31.1507 78.4072 31.0546 78.4503 30.9187 78.4901C30.7861 78.5298 30.637 78.5646 30.4712 78.5945C30.3055 78.6243 30.1415 78.6508 29.979 78.674C29.8166 78.6972 29.6758 78.7171 29.5565 78.7337C29.288 78.7701 29.0477 78.8298 28.8356 78.9126C28.6235 78.9955 28.4561 79.1115 28.3335 79.2607C28.2108 79.4065 28.1495 79.5954 28.1495 79.8274C28.1495 80.1589 28.2705 80.4091 28.5124 80.5781C28.7544 80.7472 29.0626 80.8317 29.4371 80.8317ZM41.359 74.3636L38.6396 82H36.6509L33.9315 74.3636H35.8505L37.6055 80.0362H37.685L39.445 74.3636H41.359ZM44.5831 82.1541C44.0992 82.1541 43.6634 82.0679 43.2756 81.8956C42.8911 81.7199 42.5862 81.4614 42.3608 81.12C42.1387 80.7786 42.0277 80.3577 42.0277 79.8572C42.0277 79.4264 42.1072 79.0701 42.2663 78.7884C42.4254 78.5066 42.6425 78.2812 42.9176 78.1122C43.1927 77.9432 43.5026 77.8156 43.8473 77.7294C44.1953 77.6399 44.5549 77.5753 44.9261 77.5355C45.3736 77.4891 45.7365 77.4477 46.0149 77.4112C46.2933 77.3714 46.4955 77.3118 46.6214 77.2322C46.7507 77.1494 46.8153 77.0218 46.8153 76.8494V76.8196C46.8153 76.4451 46.7043 76.1551 46.4822 75.9496C46.2602 75.7441 45.9403 75.6413 45.5227 75.6413C45.0819 75.6413 44.7322 75.7375 44.4737 75.9297C44.2185 76.1219 44.0462 76.349 43.9567 76.6108L42.2763 76.3722C42.4089 75.9081 42.6276 75.5204 42.9325 75.2088C43.2375 74.8939 43.6103 74.6586 44.0511 74.5028C44.492 74.3438 44.9792 74.2642 45.5128 74.2642C45.8807 74.2642 46.2469 74.3073 46.6115 74.3935C46.9761 74.4796 47.3092 74.6222 47.6108 74.821C47.9124 75.0166 48.1544 75.2834 48.3366 75.6214C48.5223 75.9595 48.6151 76.3821 48.6151 76.8892V82H46.8849V80.951H46.8253C46.7159 81.1631 46.5618 81.362 46.3629 81.5476C46.1674 81.7299 45.9205 81.8774 45.6222 81.9901C45.3272 82.0994 44.9808 82.1541 44.5831 82.1541ZM45.0504 80.8317C45.4117 80.8317 45.7249 80.7604 45.9901 80.6179C46.2552 80.4721 46.459 80.2798 46.6016 80.0412C46.7474 79.8026 46.8203 79.5424 46.8203 79.2607V78.3608C46.764 78.4072 46.6679 78.4503 46.532 78.4901C46.3994 78.5298 46.2502 78.5646 46.0845 78.5945C45.9188 78.6243 45.7547 78.6508 45.5923 78.674C45.4299 78.6972 45.2891 78.7171 45.1697 78.7337C44.9013 78.7701 44.661 78.8298 44.4489 78.9126C44.2367 78.9955 44.0694 79.1115 43.9467 79.2607C43.8241 79.4065 43.7628 79.5954 43.7628 79.8274C43.7628 80.1589 43.8838 80.4091 44.1257 80.5781C44.3677 80.7472 44.6759 80.8317 45.0504 80.8317ZM56.4602 76.3821L54.8196 76.5611C54.7732 76.3954 54.692 76.2396 54.576 76.0938C54.4633 75.9479 54.3108 75.8303 54.1186 75.7408C53.9264 75.6513 53.6911 75.6065 53.4126 75.6065C53.0381 75.6065 52.7232 75.6877 52.468 75.8501C52.2161 76.0125 52.0919 76.223 52.0952 76.4815C52.0919 76.7036 52.1731 76.8842 52.3388 77.0234C52.5078 77.1626 52.7862 77.277 53.174 77.3665L54.4766 77.6449C55.1991 77.8007 55.736 78.0476 56.0874 78.3857C56.442 78.7237 56.621 79.1662 56.6243 79.7131C56.621 80.1937 56.4801 80.6179 56.2017 80.9858C55.9266 81.3504 55.5438 81.6354 55.0533 81.8409C54.5627 82.0464 53.9993 82.1491 53.3629 82.1491C52.4283 82.1491 51.6759 81.9536 51.1058 81.5625C50.5357 81.1681 50.196 80.6196 50.0866 79.9169L51.8416 79.7479C51.9212 80.0926 52.0902 80.3527 52.3487 80.5284C52.6072 80.7041 52.9437 80.7919 53.358 80.7919C53.7855 80.7919 54.1286 80.7041 54.3871 80.5284C54.6489 80.3527 54.7798 80.1357 54.7798 79.8771C54.7798 79.6584 54.6953 79.4777 54.5263 79.3352C54.3606 79.1927 54.102 79.0833 53.7507 79.0071L52.4482 78.7337C51.7157 78.5812 51.1738 78.3243 50.8224 77.9631C50.4711 77.5985 50.2971 77.1378 50.3004 76.581C50.2971 76.1103 50.4247 75.7027 50.6832 75.358C50.9451 75.0099 51.308 74.7415 51.772 74.5526C52.2393 74.3603 52.7779 74.2642 53.3878 74.2642C54.2827 74.2642 54.987 74.4548 55.5007 74.8359C56.0178 75.2171 56.3376 75.7325 56.4602 76.3821ZM61.4393 82.1491C60.677 82.1491 60.0224 81.9818 59.4755 81.647C58.9319 81.3123 58.5127 80.8499 58.2177 80.2599C57.926 79.6667 57.7802 78.9839 57.7802 78.2116C57.7802 77.4361 57.9293 76.7517 58.2276 76.1584C58.5259 75.5618 58.9469 75.0978 59.4904 74.7663C60.0373 74.4316 60.6836 74.2642 61.4293 74.2642C62.0491 74.2642 62.5977 74.3786 63.0749 74.6072C63.5555 74.8326 63.9383 75.1525 64.2234 75.5668C64.5084 75.9777 64.6708 76.4583 64.7106 77.0085H62.9904C62.9208 76.6406 62.7551 76.334 62.4933 76.0888C62.2347 75.8402 61.8884 75.7159 61.4542 75.7159C61.0863 75.7159 60.7631 75.8153 60.4847 76.0142C60.2063 76.2098 59.9892 76.4915 59.8335 76.8594C59.681 77.2273 59.6048 77.6681 59.6048 78.1818C59.6048 78.7022 59.681 79.1496 59.8335 79.5241C59.9859 79.8954 60.1997 80.1821 60.4748 80.3842C60.7532 80.5831 61.0797 80.6825 61.4542 80.6825C61.7193 80.6825 61.9563 80.6328 62.1651 80.5334C62.3772 80.4306 62.5546 80.2831 62.6971 80.0909C62.8396 79.8987 62.9374 79.665 62.9904 79.3899H64.7106C64.6675 79.9302 64.5084 80.4091 64.2333 80.8267C63.9582 81.241 63.5837 81.5658 63.1097 81.8011C62.6358 82.0331 62.079 82.1491 61.4393 82.1491ZM66.1884 82V74.3636H67.9334V75.6364H68.013C68.1522 75.1955 68.3908 74.8558 68.7289 74.6172C69.0703 74.3752 69.4597 74.2543 69.8972 74.2543C69.9966 74.2543 70.1077 74.2592 70.2303 74.2692C70.3562 74.2758 70.4606 74.2874 70.5435 74.304V75.9595C70.4673 75.933 70.3463 75.9098 70.1806 75.8899C70.0182 75.8667 69.8607 75.8551 69.7083 75.8551C69.3801 75.8551 69.0852 75.9264 68.8233 76.0689C68.5648 76.2081 68.361 76.402 68.2118 76.6506C68.0627 76.8991 67.9881 77.1858 67.9881 77.5107V82H66.1884ZM71.7392 82V74.3636H73.5389V82H71.7392ZM72.644 73.2798C72.359 73.2798 72.1137 73.1854 71.9082 72.9964C71.7027 72.8042 71.6 72.5739 71.6 72.3054C71.6 72.0336 71.7027 71.8033 71.9082 71.6143C72.1137 71.4221 72.359 71.326 72.644 71.326C72.9324 71.326 73.1776 71.4221 73.3798 71.6143C73.5853 71.8033 73.688 72.0336 73.688 72.3054C73.688 72.5739 73.5853 72.8042 73.3798 72.9964C73.1776 73.1854 72.9324 73.2798 72.644 73.2798ZM75.3896 84.8636V74.3636H77.1594V75.6264H77.2638C77.3567 75.4408 77.4876 75.2436 77.6566 75.0348C77.8256 74.8227 78.0543 74.642 78.3427 74.4929C78.631 74.3404 78.9989 74.2642 79.4464 74.2642C80.0363 74.2642 80.5683 74.415 81.0423 74.7166C81.5195 75.0149 81.8974 75.4574 82.1758 76.044C82.4575 76.6274 82.5984 77.3433 82.5984 78.1918C82.5984 79.0303 82.4608 79.7429 82.1857 80.3295C81.9106 80.9162 81.5361 81.3636 81.0621 81.6719C80.5882 81.9801 80.0513 82.1342 79.4513 82.1342C79.0138 82.1342 78.6509 82.0613 78.3626 81.9155C78.0742 81.7696 77.8422 81.594 77.6665 81.3885C77.4942 81.1797 77.36 80.9825 77.2638 80.7969H77.1893V84.8636H75.3896ZM77.1545 78.1818C77.1545 78.6757 77.2241 79.1082 77.3633 79.4794C77.5058 79.8506 77.7096 80.1406 77.9748 80.3494C78.2433 80.5549 78.5681 80.6577 78.9492 80.6577C79.3469 80.6577 79.68 80.5516 79.9485 80.3395C80.217 80.1241 80.4192 79.8307 80.555 79.4595C80.6942 79.085 80.7638 78.6591 80.7638 78.1818C80.7638 77.7079 80.6959 77.2869 80.56 76.919C80.4241 76.5511 80.2219 76.2628 79.9535 76.054C79.685 75.8452 79.3503 75.7408 78.9492 75.7408C78.5647 75.7408 78.2383 75.8419 77.9698 76.044C77.7013 76.2462 77.4975 76.5296 77.3583 76.8942C77.2224 77.2588 77.1545 77.688 77.1545 78.1818ZM87.9528 74.3636V75.7557H83.5629V74.3636H87.9528ZM84.6467 72.5341H86.4464V79.7031C86.4464 79.9451 86.4828 80.1307 86.5558 80.2599C86.632 80.3859 86.7314 80.4721 86.854 80.5185C86.9767 80.5649 87.1126 80.5881 87.2617 80.5881C87.3744 80.5881 87.4772 80.5798 87.57 80.5632C87.6661 80.5466 87.739 80.5317 87.7887 80.5185L88.092 81.9254C87.9959 81.9586 87.8583 81.995 87.6793 82.0348C87.5037 82.0746 87.2882 82.0978 87.033 82.1044C86.5823 82.1177 86.1763 82.0497 85.815 81.9006C85.4537 81.7481 85.167 81.5128 84.9549 81.1946C84.7461 80.8764 84.6433 80.4787 84.6467 80.0014V72.5341Z" fill="white"/>
</g>
<defs>
<filter id="filter0_d_5820_9790" x="0" y="0" width="107" height="109" filterUnits="userSpaceOnUse" color-interpolation-filters="sRGB">
<feFlood flood-opacity="0" result="BackgroundImageFix"/>
<feColorMatrix in="SourceAlpha" type="matrix" values="0 0 0 0 0 0 0 0 0 0 0 0 0 0 0 0 0 0 127 0" result="hardAlpha"/>
<feOffset dy="2"/>
<feGaussianBlur stdDeviation="4"/>
<feColorMatrix type="matrix" values="0 0 0 0 0 0 0 0 0 0 0 0 0 0 0 0 0 0 0.25 0"/>
<feBlend mode="normal" in2="BackgroundImageFix" result="effect1_dropShadow_5820_9790"/>
<feBlend mode="normal" in="SourceGraphic" in2="effect1_dropShadow_5820_9790" result="shape"/>
</filter>
</defs>
</svg>
