<svg width="107" height="109" viewBox="0 0 107 109" fill="none" xmlns="http://www.w3.org/2000/svg">
<g filter="url(#filter0_d_5846_13570)">
<rect x="8" y="6" width="91" height="93" rx="12" fill="#151B23"/>
<rect x="9" y="7" width="89" height="91" rx="11" stroke="#1F2937" stroke-width="2"/>
<mask id="mask0_5846_13570" style="mask-type:luminance" maskUnits="userSpaceOnUse" x="36" y="22" width="35" height="36">
<path d="M36 22.5H71V57.5H36V22.5Z" fill="white"/>
</mask>
<g mask="url(#mask0_5846_13570)">
<path fill-rule="evenodd" clip-rule="evenodd" d="M56.1424 31.915L56.1074 22.5H50.8574L50.8924 31.915L53.5174 35.52L56.1424 31.915ZM50.8924 48.05V57.5H56.1424V48.05L53.5174 44.445L50.8924 48.05Z" fill="white"/>
<path fill-rule="evenodd" clip-rule="evenodd" d="M56.1418 48.0502L61.6718 55.6802L65.9068 52.6002L60.3768 44.9702L56.1418 43.6052V48.0502ZM50.8918 31.9152L45.3268 24.2852L41.0918 27.3652L46.6218 34.9952L50.8918 36.3602V31.9152Z" fill="#00F2E6"/>
<path fill-rule="evenodd" clip-rule="evenodd" d="M46.6227 34.9968L37.6627 32.0918L36.0527 37.0618L45.0127 40.0018L49.2477 38.6018L46.6227 34.9968ZM57.7527 41.3668L60.3777 44.9718L69.3377 47.8768L70.9477 42.9068L61.9877 40.0018L57.7527 41.3668Z" fill="#00B9F1"/>
<path fill-rule="evenodd" clip-rule="evenodd" d="M61.9877 40.0018L70.9477 37.0618L69.3377 32.0918L60.3777 34.9968L57.7527 38.6018L61.9877 40.0018ZM45.0127 40.0018L36.0527 42.9068L37.6627 47.8768L46.6227 44.9718L49.2477 41.3668L45.0127 40.0018Z" fill="#D63AFF"/>
<path fill-rule="evenodd" clip-rule="evenodd" d="M46.6218 44.9702L41.0918 52.6002L45.3268 55.6802L50.8918 48.0502V43.6052L46.6218 44.9702ZM60.3768 34.9952L65.9068 27.3652L61.6718 24.2852L56.1418 31.9152V36.3602L60.3768 34.9952Z" fill="#FB015B"/>
</g>
<path d="M46.0799 71.8182H47.9094V78.9773C47.9061 79.6335 47.7669 80.1986 47.4918 80.6726C47.2167 81.1432 46.8323 81.5062 46.3384 81.7614C45.8479 82.0133 45.2762 82.1392 44.6232 82.1392C44.0266 82.1392 43.4897 82.0331 43.0124 81.821C42.5385 81.6056 42.1623 81.2874 41.8839 80.8665C41.6055 80.4455 41.4663 79.9219 41.4663 79.2955H43.3008C43.3041 79.5705 43.3638 79.8075 43.4798 80.0064C43.5991 80.2053 43.7631 80.3577 43.9719 80.4638C44.1808 80.5698 44.421 80.6229 44.6928 80.6229C44.9878 80.6229 45.238 80.5616 45.4435 80.4389C45.649 80.313 45.8048 80.1274 45.9109 79.8821C46.0202 79.6368 46.0766 79.3352 46.0799 78.9773V71.8182ZM51.407 82L49.2493 74.3636H51.0838L52.4261 79.733H52.4957L53.8679 74.3636H55.6825L57.0547 79.7031H57.1293L58.4517 74.3636H60.2912L58.1286 82H56.2543L54.8224 76.8395H54.718L53.2862 82H51.407ZM65.361 74.3636V75.7557H60.9711V74.3636H65.361ZM62.0549 72.5341H63.8546V79.7031C63.8546 79.9451 63.891 80.1307 63.964 80.2599C64.0402 80.3859 64.1396 80.4721 64.2623 80.5185C64.3849 80.5649 64.5208 80.5881 64.6699 80.5881C64.7826 80.5881 64.8854 80.5798 64.9782 80.5632C65.0743 80.5466 65.1472 80.5317 65.1969 80.5185L65.5002 81.9254C65.4041 81.9586 65.2665 81.995 65.0875 82.0348C64.9119 82.0746 64.6964 82.0978 64.4412 82.1044C63.9905 82.1177 63.5845 82.0497 63.2232 81.9006C62.8619 81.7481 62.5752 81.5128 62.3631 81.1946C62.1543 80.8764 62.0516 80.4787 62.0549 80.0014V72.5341Z" fill="white"/>
</g>
<defs>
<filter id="filter0_d_5846_13570" x="0" y="0" width="107" height="109" filterUnits="userSpaceOnUse" color-interpolation-filters="sRGB">
<feFlood flood-opacity="0" result="BackgroundImageFix"/>
<feColorMatrix in="SourceAlpha" type="matrix" values="0 0 0 0 0 0 0 0 0 0 0 0 0 0 0 0 0 0 127 0" result="hardAlpha"/>
<feOffset dy="2"/>
<feGaussianBlur stdDeviation="4"/>
<feColorMatrix type="matrix" values="0 0 0 0 0 0 0 0 0 0 0 0 0 0 0 0 0 0 0.25 0"/>
<feBlend mode="normal" in2="BackgroundImageFix" result="effect1_dropShadow_5846_13570"/>
<feBlend mode="normal" in="SourceGraphic" in2="effect1_dropShadow_5846_13570" result="shape"/>
</filter>
</defs>
</svg>
