<svg width="107" height="109" viewBox="0 0 107 109" fill="none" xmlns="http://www.w3.org/2000/svg">
<g filter="url(#filter0_d_5829_13526)">
<rect x="8" y="6" width="91" height="93" rx="12" fill="#151B23"/>
<rect x="9" y="7" width="89" height="91" rx="11" stroke="#1F2937" stroke-width="2"/>
<path d="M43.5518 39.3882H43.1959C43.0541 40.8399 42.8547 42.6062 40.3486 42.6062H39.1952C38.5262 42.6062 38.4981 42.5058 38.4981 42.0361V34.4778C38.4981 33.9934 38.4981 33.794 39.8361 33.794H40.3058V33.3672C39.7933 33.4115 38.5114 33.4115 37.9281 33.4115C37.3743 33.4115 36.2637 33.4115 35.7793 33.3672V33.7955H36.1057C37.203 33.7955 37.231 33.9505 37.231 34.463V41.9357C37.231 42.4482 37.203 42.6062 36.1057 42.6062H35.7793V43.0463H43.1664L43.5518 39.3882Z" fill="#F3F4F6"/>
<path d="M43.3098 33.3524C43.2507 33.1826 43.2241 33.125 43.038 33.125C42.8534 33.125 42.8106 33.1811 42.7545 33.3524L40.4625 39.1608C40.362 39.4015 40.1922 39.8431 39.3105 39.8431V40.2005H41.5154V39.8431C41.0739 39.8431 40.8036 39.6452 40.8036 39.3587C40.8036 39.2893 40.8184 39.2597 40.8479 39.1608L41.3308 37.9365H44.1486L44.7187 39.3882C44.7482 39.4414 44.7669 39.4985 44.7748 39.5595C44.7748 39.8431 44.2343 39.8431 43.9625 39.8431V40.2005H46.7685V39.8431H46.5691C45.9001 39.8431 45.8292 39.7441 45.7288 39.4591L43.3098 33.3524ZM42.7397 34.3641L44.0068 37.5806H41.4726L42.7397 34.3641Z" fill="#F3F4F6"/>
<path d="M54.7111 33.4512H46.0421L45.7852 36.6411H46.1263C46.3257 34.3491 46.5398 33.8794 48.6886 33.8794C48.9441 33.8794 49.3148 33.8794 49.4565 33.909C49.7563 33.9636 49.7563 34.1202 49.7563 34.448V41.9207C49.7563 42.4051 49.7563 42.6045 48.2618 42.6045H47.6917V43.0461C48.2751 43.0018 49.7135 43.0018 50.3677 43.0018C51.022 43.0018 52.4884 43.0018 53.0733 43.0461V42.6045H52.5032C51.0087 42.6045 51.0087 42.4051 51.0087 41.9207V34.448C51.0087 34.163 51.0087 33.9636 51.2656 33.9075C51.4222 33.878 51.8062 33.878 52.0764 33.878C54.2119 33.878 54.4246 34.3491 54.6239 36.6396H54.9798L54.7111 33.4512Z" fill="#F3F4F6"/>
<path d="M62.3426 42.591H61.9867C61.6308 44.7693 61.3029 45.8075 58.8706 45.8075H56.9906C56.3216 45.8075 56.292 45.7086 56.292 45.2389V41.4524H57.5592C58.94 41.4524 59.0965 41.9072 59.0965 43.1167H59.4524V39.3597H59.098C59.098 40.5707 58.94 41.0108 57.5592 41.0108H56.292V37.6082C56.292 37.1386 56.3216 37.0396 56.9906 37.0396H58.8115C60.9898 37.0396 61.3605 37.8223 61.5879 39.8013H61.9424L61.5436 36.6113H53.5762V37.0396H53.904C54.9998 37.0396 55.0279 37.1961 55.0279 37.7086V45.1385C55.0279 45.651 54.9984 45.8075 53.904 45.8075H53.5762V46.2491H61.746L62.3426 42.591Z" fill="#F3F4F6"/>
<path d="M66.6235 37.5658L68.5744 34.72C68.8742 34.2636 69.3571 33.8088 70.6242 33.794V33.3672H67.2349V33.7955C67.8049 33.8102 68.118 34.1204 68.118 34.4497C68.118 34.5915 68.0885 34.6195 67.9895 34.7761L66.365 37.1685L64.5441 34.4349C64.5161 34.3921 64.4452 34.2784 64.4452 34.2208C64.4452 34.051 64.7583 33.8073 65.3564 33.794V33.3672C64.872 33.4115 63.8323 33.4115 63.2918 33.4115C62.8517 33.4115 61.9685 33.3967 61.4428 33.3672V33.7955H61.7131C62.4958 33.7955 62.766 33.8944 63.0363 34.2932L65.6414 38.2363L63.3198 41.6655C63.1205 41.9505 62.6951 42.6062 61.2715 42.6062V43.0463H64.6578V42.6062C64.0036 42.5914 63.7614 42.2074 63.7614 41.9505C63.7614 41.822 63.8057 41.7659 63.9047 41.6093L65.9117 38.6335L68.1609 42.0214C68.1889 42.079 68.2317 42.1351 68.2317 42.1779C68.2317 42.3492 67.9187 42.5914 67.3058 42.6062V43.0463C67.8049 43.0035 68.8446 43.0035 69.3704 43.0035C69.9685 43.0035 70.6227 43.0182 71.2208 43.0478V42.6047H70.9506C70.2092 42.6047 69.9109 42.5338 69.6126 42.0937L66.622 37.5658H66.6235Z" fill="#F3F4F6"/>
<path d="M35.5043 82V71.8182H37.3487V80.4538H41.8331V82H35.5043ZM45.5518 82.1541C45.0679 82.1541 44.6321 82.0679 44.2443 81.8956C43.8598 81.7199 43.5549 81.4614 43.3295 81.12C43.1075 80.7786 42.9964 80.3577 42.9964 79.8572C42.9964 79.4264 43.076 79.0701 43.2351 78.7884C43.3942 78.5066 43.6113 78.2812 43.8864 78.1122C44.1615 77.9432 44.4714 77.8156 44.8161 77.7294C45.1641 77.6399 45.5237 77.5753 45.8949 77.5355C46.3423 77.4891 46.7053 77.4477 46.9837 77.4112C47.2621 77.3714 47.4643 77.3118 47.5902 77.2322C47.7195 77.1494 47.7841 77.0218 47.7841 76.8494V76.8196C47.7841 76.4451 47.6731 76.1551 47.451 75.9496C47.2289 75.7441 46.9091 75.6413 46.4915 75.6413C46.0507 75.6413 45.701 75.7375 45.4425 75.9297C45.1873 76.1219 45.0149 76.349 44.9254 76.6108L43.245 76.3722C43.3776 75.9081 43.5964 75.5204 43.9013 75.2088C44.2062 74.8939 44.5791 74.6586 45.0199 74.5028C45.4607 74.3438 45.9479 74.2642 46.4815 74.2642C46.8494 74.2642 47.2157 74.3073 47.5803 74.3935C47.9448 74.4796 48.2779 74.6222 48.5795 74.821C48.8812 75.0166 49.1231 75.2834 49.3054 75.6214C49.491 75.9595 49.5838 76.3821 49.5838 76.8892V82H47.8537V80.951H47.794C47.6847 81.1631 47.5305 81.362 47.3317 81.5476C47.1361 81.7299 46.8892 81.8774 46.5909 81.9901C46.2959 82.0994 45.9496 82.1541 45.5518 82.1541ZM46.0192 80.8317C46.3804 80.8317 46.6937 80.7604 46.9588 80.6179C47.224 80.4721 47.4278 80.2798 47.5703 80.0412C47.7161 79.8026 47.7891 79.5424 47.7891 79.2607V78.3608C47.7327 78.4072 47.6366 78.4503 47.5007 78.4901C47.3681 78.5298 47.219 78.5646 47.0533 78.5945C46.8875 78.6243 46.7235 78.6508 46.5611 78.674C46.3987 78.6972 46.2578 78.7171 46.1385 78.7337C45.87 78.7701 45.6297 78.8298 45.4176 78.9126C45.2055 78.9955 45.0381 79.1115 44.9155 79.2607C44.7929 79.4065 44.7315 79.5954 44.7315 79.8274C44.7315 80.1589 44.8525 80.4091 45.0945 80.5781C45.3364 80.7472 45.6446 80.8317 46.0192 80.8317ZM55.2067 74.3636V75.7557H50.8168V74.3636H55.2067ZM51.9006 72.5341H53.7003V79.7031C53.7003 79.9451 53.7367 80.1307 53.8097 80.2599C53.8859 80.3859 53.9853 80.4721 54.108 80.5185C54.2306 80.5649 54.3665 80.5881 54.5156 80.5881C54.6283 80.5881 54.7311 80.5798 54.8239 80.5632C54.92 80.5466 54.9929 80.5317 55.0426 80.5185L55.3459 81.9254C55.2498 81.9586 55.1122 81.995 54.9332 82.0348C54.7576 82.0746 54.5421 82.0978 54.2869 82.1044C53.8362 82.1177 53.4302 82.0497 53.0689 81.9006C52.7076 81.7481 52.4209 81.5128 52.2088 81.1946C52 80.8764 51.8973 80.4787 51.9006 80.0014V72.5341ZM60.0105 82.1491C59.2449 82.1491 58.5836 81.9901 58.0268 81.6719C57.4733 81.3504 57.0474 80.8963 56.7491 80.3097C56.4508 79.7197 56.3017 79.0253 56.3017 78.2266C56.3017 77.4411 56.4508 76.7517 56.7491 76.1584C57.0507 75.5618 57.4717 75.0978 58.0119 74.7663C58.5521 74.4316 59.1868 74.2642 59.916 74.2642C60.3867 74.2642 60.8308 74.3404 61.2484 74.4929C61.6693 74.642 62.0405 74.8741 62.362 75.1889C62.6868 75.5038 62.9421 75.9048 63.1277 76.392C63.3133 76.8759 63.4061 77.4527 63.4061 78.1222V78.674H57.1468V77.4609H61.6809C61.6776 77.1162 61.603 76.8097 61.4572 76.5412C61.3114 76.2694 61.1075 76.0556 60.8457 75.8999C60.5872 75.7441 60.2856 75.6662 59.9409 75.6662C59.573 75.6662 59.2498 75.7557 58.9714 75.9347C58.693 76.1103 58.4759 76.3423 58.3201 76.6307C58.1677 76.9157 58.0898 77.2289 58.0865 77.5703V78.6293C58.0865 79.0734 58.1677 79.4545 58.3301 79.7727C58.4925 80.0876 58.7195 80.3295 59.0112 80.4986C59.3029 80.6643 59.6442 80.7472 60.0353 80.7472C60.2972 80.7472 60.5342 80.7107 60.7463 80.6378C60.9584 80.5616 61.1423 80.4505 61.2981 80.3047C61.4539 80.1589 61.5716 79.9782 61.6511 79.7628L63.3315 79.9517C63.2254 80.3958 63.0233 80.7836 62.725 81.1151C62.43 81.4432 62.0521 81.6984 61.5914 81.8807C61.1307 82.0597 60.6038 82.1491 60.0105 82.1491ZM66.2362 74.3636L67.7773 77.1825L69.3434 74.3636H71.2475L68.9457 78.1818L71.2873 82H69.3931L67.7773 79.2507L66.1765 82H64.2674L66.5941 78.1818L64.3271 74.3636H66.2362Z" fill="white"/>
</g>
<defs>
<filter id="filter0_d_5829_13526" x="0" y="0" width="107" height="109" filterUnits="userSpaceOnUse" color-interpolation-filters="sRGB">
<feFlood flood-opacity="0" result="BackgroundImageFix"/>
<feColorMatrix in="SourceAlpha" type="matrix" values="0 0 0 0 0 0 0 0 0 0 0 0 0 0 0 0 0 0 127 0" result="hardAlpha"/>
<feOffset dy="2"/>
<feGaussianBlur stdDeviation="4"/>
<feColorMatrix type="matrix" values="0 0 0 0 0 0 0 0 0 0 0 0 0 0 0 0 0 0 0.25 0"/>
<feBlend mode="normal" in2="BackgroundImageFix" result="effect1_dropShadow_5829_13526"/>
<feBlend mode="normal" in="SourceGraphic" in2="effect1_dropShadow_5829_13526" result="shape"/>
</filter>
</defs>
</svg>
