<svg width="107" height="109" viewBox="0 0 107 109" fill="none" xmlns="http://www.w3.org/2000/svg">
<g filter="url(#filter0_d_5845_13801)">
<rect x="8" y="6" width="91" height="93" rx="12" fill="#151B23"/>
<rect x="9" y="7" width="89" height="91" rx="11" stroke="#1F2937" stroke-width="2"/>
<path d="M53.4291 58.9167C63.7452 58.9167 72.1081 50.5538 72.1081 40.2377C72.1081 29.9215 63.7452 21.5586 53.4291 21.5586C43.1129 21.5586 34.75 29.9215 34.75 40.2377C34.75 50.5538 43.1129 58.9167 53.4291 58.9167Z" fill="#0535C1"/>
<path d="M65.7399 34.6445H64.6226C64.0666 33.0561 62.4448 32.1013 60.7861 32.3859C59.1274 32.6705 57.9166 34.1112 57.9219 35.7941C57.9223 37.6992 59.4666 39.2434 61.3715 39.2439H65.74C66.9802 39.2026 67.9643 38.1852 67.9643 36.9442C67.9643 35.7032 66.9802 34.6858 65.7399 34.6445Z" fill="#EAEAEA"/>
<path d="M68.0395 36.9726V36.9446C68.0391 35.6745 67.0095 34.645 65.7394 34.6445H64.5898V34.7022H65.7394C66.9979 34.7022 68.0228 35.7135 68.0395 36.9718V36.9726Z" fill="white" fill-opacity="0.2"/>
<path d="M61.3699 32.3485L63.2345 38.2375C63.8576 37.6117 64.8188 36.7491 64.8188 35.7973C64.8183 33.8923 63.2741 32.3481 61.3691 32.3477L61.3699 32.3485Z" fill="#E1E1E1"/>
<path d="M61.3716 39.2471C63.2768 39.2471 64.8213 37.7026 64.8213 35.7974C64.8213 33.8921 63.2768 32.3477 61.3716 32.3477C59.4664 32.3477 57.9219 33.8921 57.9219 35.7974C57.9219 37.7026 59.4664 39.2471 61.3716 39.2471Z" fill="#EEEEEE"/>
<path d="M61.3715 32.4045C63.2653 32.4054 64.8045 33.9324 64.8204 35.8262V35.7982C64.8211 33.8932 63.2774 32.3484 61.3724 32.3477C59.4674 32.3469 57.9226 33.8906 57.9219 35.7956V35.8236C57.9391 33.9306 59.4784 32.4049 61.3715 32.4045Z" fill="white" fill-opacity="0.2"/>
<path d="M65.7399 39.1873H61.3707C59.4769 39.1864 57.9377 37.6593 57.9219 35.7656V35.7936C57.9228 37.6983 59.4668 39.242 61.3715 39.2424H65.7399C67.0097 39.242 68.0391 38.213 68.0399 36.9433V36.9152C68.0242 38.1743 66.9991 39.1869 65.7399 39.1873Z" fill="#212121" fill-opacity="0.1"/>
<path d="M48.334 29.4102H58.098V37.9007H48.334V29.4102Z" fill="#FFF176"/>
<path d="M47.2715 42.3594H58.9459V54.0338H47.2715V42.3594Z" fill="white"/>
<path d="M60.2203 37.0533H61.9185V40.4495H44.9375V37.0533H46.6356V30.261L53.428 26.0156L60.2203 30.2609V37.0533ZM56.8242 37.0533V32.1432L53.428 30.0207L50.0319 32.1432V37.0533H56.8242Z" fill="#F4481E"/>
<path d="M44.1836 56.4733L47.0602 37.0547H59.7959L62.6725 56.4733C59.8568 58.08 56.6699 58.9227 53.4281 58.9177C50.1862 58.9227 46.9993 58.08 44.1836 56.4733ZM57.231 42.9139L49.2414 45.5096L48.2702 52.064L58.1123 48.8657L57.231 42.9139Z" fill="#F4481E"/>
<path d="M48.3356 38.9623H47.0459C46.4016 37.1327 44.5319 36.0343 42.6201 36.3624C40.7082 36.6906 39.3118 38.3496 39.3145 40.2894C39.3159 42.4869 41.0973 44.2679 43.2948 44.2689H48.3356C49.7749 44.2324 50.9226 43.0553 50.9226 41.6156C50.9226 40.1759 49.7749 38.9987 48.3356 38.9623Z" fill="#FAFAFA"/>
<path d="M50.9881 41.6496V41.6182C50.9881 40.1535 49.7995 38.9648 48.3349 38.9648H47.0078V39.0311H48.3349C49.7865 39.0315 50.9687 40.198 50.9881 41.6496Z" fill="white" fill-opacity="0.2"/>
<path d="M43.2938 36.3095L45.4445 43.1035C46.1636 42.3819 47.2725 41.3867 47.2725 40.2881C47.271 38.0908 45.4902 36.3101 43.293 36.3086L43.2938 36.3095Z" fill="#E1E1E1"/>
<path d="M43.2948 44.2731C45.493 44.2731 47.2751 42.4911 47.2751 40.2928C47.2751 38.0945 45.493 36.3125 43.2948 36.3125C41.0965 36.3125 39.3145 38.0945 39.3145 40.2928C39.3145 42.4911 41.0965 44.2731 43.2948 44.2731Z" fill="white"/>
<path d="M43.2948 36.3771C45.4799 36.3784 47.2557 38.1402 47.2744 40.3252V40.2937C47.2745 39.7711 47.1718 39.2535 46.9719 38.7706C46.772 38.2876 46.479 37.8488 46.1096 37.4791C45.7401 37.1094 45.3015 36.8161 44.8186 36.6159C44.3358 36.4158 43.8183 36.3127 43.2957 36.3125C42.773 36.3123 42.2555 36.4151 41.7725 36.615C41.2896 36.8148 40.8507 37.1078 40.4811 37.4773C39.7344 38.2234 39.3148 39.2356 39.3145 40.2912V40.3226C39.3341 38.1381 41.1103 36.3775 43.2948 36.3771Z" fill="white" fill-opacity="0.2"/>
<path d="M48.3356 44.2059H43.294C41.109 44.2046 39.3331 42.4428 39.3145 40.2578V40.2892C39.3154 42.4871 41.097 44.2686 43.2948 44.2696H48.3356C49.8003 44.2696 50.9889 43.0809 50.9889 41.6163V41.584C50.9712 43.0369 49.7886 44.2055 48.3356 44.2059Z" fill="#212121" fill-opacity="0.1"/>
<path d="M53.4291 21.7538C63.7128 21.7538 72.053 30.0635 72.1065 40.3353L72.1081 40.2377C72.1081 29.9217 63.745 21.5586 53.4291 21.5586C43.1131 21.5586 34.75 29.9217 34.75 40.2377C34.75 40.2699 34.7526 40.3014 34.7526 40.3353C34.8052 30.0644 43.1437 21.7538 53.4291 21.7538Z" fill="white" fill-opacity="0.2"/>
<path d="M72.1065 40.1406C72.0521 50.4124 63.7128 58.7221 53.4291 58.7221C43.1446 58.7221 34.8052 50.4116 34.7526 40.1406C34.7526 40.1746 34.75 40.206 34.75 40.2383C34.75 50.5542 43.1131 58.9173 53.4291 58.9173C63.745 58.9173 72.1081 50.5542 72.1081 40.2383L72.1065 40.1406Z" fill="#263238" fill-opacity="0.2"/>
<path d="M16.5033 82V71.8182H18.3477V80.4538H22.8321V82H16.5033ZM24.3534 82V74.3636H26.1531V82H24.3534ZM25.2583 73.2798C24.9732 73.2798 24.728 73.1854 24.5225 72.9964C24.317 72.8042 24.2142 72.5739 24.2142 72.3054C24.2142 72.0336 24.317 71.8033 24.5225 71.6143C24.728 71.4221 24.9732 71.326 25.2583 71.326C25.5466 71.326 25.7919 71.4221 25.9941 71.6143C26.1995 71.8033 26.3023 72.0336 26.3023 72.3054C26.3023 72.5739 26.1995 72.8042 25.9941 72.9964C25.7919 73.1854 25.5466 73.2798 25.2583 73.2798ZM31.3248 85.0227C30.6785 85.0227 30.1234 84.9349 29.6594 84.7592C29.1953 84.5869 28.8225 84.3549 28.5407 84.0632C28.259 83.7715 28.0635 83.4484 27.9541 83.0938L29.5748 82.701C29.6478 82.8501 29.7538 82.9976 29.893 83.1435C30.0322 83.2926 30.2195 83.4152 30.4548 83.5114C30.6934 83.6108 30.9934 83.6605 31.3547 83.6605C31.8651 83.6605 32.2877 83.5362 32.6224 83.2876C32.9572 83.0424 33.1246 82.638 33.1246 82.0746V80.6278H33.0351C32.9423 80.8134 32.8064 81.004 32.6274 81.1996C32.4517 81.3951 32.2181 81.5592 31.9264 81.6918C31.6381 81.8243 31.2751 81.8906 30.8376 81.8906C30.251 81.8906 29.719 81.7531 29.2417 81.478C28.7678 81.1996 28.3899 80.7853 28.1082 80.2351C27.8298 79.6816 27.6906 78.9889 27.6906 78.157C27.6906 77.3184 27.8298 76.6108 28.1082 76.0341C28.3899 75.4541 28.7694 75.0149 29.2467 74.7166C29.724 74.415 30.2559 74.2642 30.8426 74.2642C31.29 74.2642 31.6579 74.3404 31.9463 74.4929C32.238 74.642 32.47 74.8227 32.6423 75.0348C32.8147 75.2436 32.9456 75.4408 33.0351 75.6264H33.1345V74.3636H34.9094V82.1243C34.9094 82.7772 34.7536 83.3175 34.442 83.745C34.1305 84.1726 33.7046 84.4924 33.1643 84.7045C32.6241 84.9167 32.0109 85.0227 31.3248 85.0227ZM31.3398 80.4787C31.7209 80.4787 32.0457 80.3859 32.3142 80.2003C32.5827 80.0147 32.7865 79.7479 32.9257 79.3999C33.0649 79.0518 33.1345 78.6342 33.1345 78.147C33.1345 77.6664 33.0649 77.2455 32.9257 76.8842C32.7898 76.523 32.5876 76.2429 32.3192 76.044C32.054 75.8419 31.7275 75.7408 31.3398 75.7408C30.9387 75.7408 30.604 75.8452 30.3355 76.054C30.067 76.2628 29.8648 76.5495 29.729 76.9141C29.5931 77.2753 29.5251 77.6863 29.5251 78.147C29.5251 78.6143 29.5931 79.0237 29.729 79.375C29.8682 79.723 30.072 79.9948 30.3405 80.1903C30.6122 80.3826 30.9453 80.4787 31.3398 80.4787ZM38.5535 77.5256V82H36.7538V71.8182H38.5138V75.6612H38.6032C38.7822 75.2304 39.059 74.8906 39.4335 74.642C39.8113 74.3902 40.2919 74.2642 40.8753 74.2642C41.4056 74.2642 41.8679 74.3752 42.2623 74.5973C42.6568 74.8194 42.9617 75.1442 43.1771 75.5717C43.3959 75.9993 43.5052 76.5213 43.5052 77.1378V82H41.7055V77.4162C41.7055 76.9025 41.5729 76.5031 41.3078 76.218C41.046 75.9297 40.6781 75.7855 40.2041 75.7855C39.8859 75.7855 39.6009 75.8551 39.349 75.9943C39.1004 76.1302 38.9049 76.3274 38.7623 76.5859C38.6231 76.8445 38.5535 77.1577 38.5535 77.5256ZM49.153 74.3636V75.7557H44.7631V74.3636H49.153ZM45.8469 72.5341H47.6466V79.7031C47.6466 79.9451 47.683 80.1307 47.7559 80.2599C47.8322 80.3859 47.9316 80.4721 48.0542 80.5185C48.1769 80.5649 48.3128 80.5881 48.4619 80.5881C48.5746 80.5881 48.6773 80.5798 48.7702 80.5632C48.8663 80.5466 48.9392 80.5317 48.9889 80.5185L49.2922 81.9254C49.1961 81.9586 49.0585 81.995 48.8795 82.0348C48.7039 82.0746 48.4884 82.0978 48.2332 82.1044C47.7825 82.1177 47.3765 82.0497 47.0152 81.9006C46.6539 81.7481 46.3672 81.5128 46.1551 81.1946C45.9463 80.8764 45.8435 80.4787 45.8469 80.0014V72.5341ZM52.6219 77.5256V82H50.8222V71.8182H52.5821V75.6612H52.6716C52.8506 75.2304 53.1273 74.8906 53.5019 74.642C53.8797 74.3902 54.3603 74.2642 54.9436 74.2642C55.4739 74.2642 55.9363 74.3752 56.3307 74.5973C56.7251 74.8194 57.03 75.1442 57.2455 75.5717C57.4642 75.9993 57.5736 76.5213 57.5736 77.1378V82H55.7739V77.4162C55.7739 76.9025 55.6413 76.5031 55.3762 76.218C55.1143 75.9297 54.7464 75.7855 54.2725 75.7855C53.9543 75.7855 53.6692 75.8551 53.4173 75.9943C53.1688 76.1302 52.9732 76.3274 52.8307 76.5859C52.6915 76.8445 52.6219 77.1577 52.6219 77.5256ZM62.7391 82.1491C61.9933 82.1491 61.347 81.9851 60.8002 81.657C60.2533 81.3288 59.829 80.8698 59.5274 80.2798C59.2291 79.6899 59.08 79.0005 59.08 78.2116C59.08 77.4228 59.2291 76.7318 59.5274 76.1385C59.829 75.5452 60.2533 75.0845 60.8002 74.7564C61.347 74.4283 61.9933 74.2642 62.7391 74.2642C63.4848 74.2642 64.1311 74.4283 64.678 74.7564C65.2249 75.0845 65.6475 75.5452 65.9458 76.1385C66.2474 76.7318 66.3982 77.4228 66.3982 78.2116C66.3982 79.0005 66.2474 79.6899 65.9458 80.2798C65.6475 80.8698 65.2249 81.3288 64.678 81.657C64.1311 81.9851 63.4848 82.1491 62.7391 82.1491ZM62.749 80.7074C63.1534 80.7074 63.4914 80.5964 63.7632 80.3743C64.035 80.1489 64.2372 79.8473 64.3698 79.4695C64.5057 79.0916 64.5736 78.6707 64.5736 78.2067C64.5736 77.7393 64.5057 77.3168 64.3698 76.9389C64.2372 76.5578 64.035 76.2545 63.7632 76.0291C63.4914 75.8037 63.1534 75.6911 62.749 75.6911C62.3347 75.6911 61.99 75.8037 61.7149 76.0291C61.4432 76.2545 61.2393 76.5578 61.1034 76.9389C60.9709 77.3168 60.9046 77.7393 60.9046 78.2067C60.9046 78.6707 60.9709 79.0916 61.1034 79.4695C61.2393 79.8473 61.4432 80.1489 61.7149 80.3743C61.99 80.5964 62.3347 80.7074 62.749 80.7074ZM72.7929 78.7884V74.3636H74.5926V82H72.8476V80.6428H72.768C72.5957 81.0703 72.3123 81.42 71.9179 81.6918C71.5268 81.9635 71.0445 82.0994 70.4711 82.0994C69.9707 82.0994 69.5282 81.9884 69.1437 81.7663C68.7626 81.541 68.4643 81.2145 68.2488 80.7869C68.0334 80.3561 67.9257 79.8357 67.9257 79.2259V74.3636H69.7254V78.9474C69.7254 79.4313 69.858 79.8158 70.1231 80.1009C70.3883 80.3859 70.7363 80.5284 71.1672 80.5284C71.4323 80.5284 71.6892 80.4638 71.9378 80.3345C72.1863 80.2053 72.3902 80.013 72.5493 79.7578C72.7117 79.4993 72.7929 79.1761 72.7929 78.7884ZM82.4788 76.3821L80.8382 76.5611C80.7918 76.3954 80.7106 76.2396 80.5945 76.0938C80.4819 75.9479 80.3294 75.8303 80.1372 75.7408C79.9449 75.6513 79.7096 75.6065 79.4312 75.6065C79.0567 75.6065 78.7418 75.6877 78.4866 75.8501C78.2347 76.0125 78.1104 76.223 78.1137 76.4815C78.1104 76.7036 78.1916 76.8842 78.3573 77.0234C78.5264 77.1626 78.8048 77.277 79.1926 77.3665L80.4951 77.6449C81.2177 77.8007 81.7546 78.0476 82.1059 78.3857C82.4606 78.7237 82.6395 79.1662 82.6428 79.7131C82.6395 80.1937 82.4987 80.6179 82.2203 80.9858C81.9452 81.3504 81.5624 81.6354 81.0718 81.8409C80.5813 82.0464 80.0178 82.1491 79.3815 82.1491C78.4468 82.1491 77.6945 81.9536 77.1244 81.5625C76.5543 81.1681 76.2146 80.6196 76.1052 79.9169L77.8602 79.7479C77.9397 80.0926 78.1088 80.3527 78.3673 80.5284C78.6258 80.7041 78.9622 80.7919 79.3765 80.7919C79.8041 80.7919 80.1471 80.7041 80.4056 80.5284C80.6675 80.3527 80.7984 80.1357 80.7984 79.8771C80.7984 79.6584 80.7139 79.4777 80.5448 79.3352C80.3791 79.1927 80.1206 79.0833 79.7693 79.0071L78.4667 78.7337C77.7342 78.5812 77.1923 78.3243 76.841 77.9631C76.4897 77.5985 76.3157 77.1378 76.319 76.581C76.3157 76.1103 76.4433 75.7027 76.7018 75.358C76.9636 75.0099 77.3266 74.7415 77.7906 74.5526C78.2579 74.3603 78.7965 74.2642 79.4063 74.2642C80.3012 74.2642 81.0055 74.4548 81.5193 74.8359C82.0363 75.2171 82.3561 75.7325 82.4788 76.3821ZM87.5075 82.1491C86.7419 82.1491 86.0807 81.9901 85.5239 81.6719C84.9704 81.3504 84.5445 80.8963 84.2462 80.3097C83.9479 79.7197 83.7987 79.0253 83.7987 78.2266C83.7987 77.4411 83.9479 76.7517 84.2462 76.1584C84.5478 75.5618 84.9687 75.0978 85.509 74.7663C86.0492 74.4316 86.6839 74.2642 87.4131 74.2642C87.8837 74.2642 88.3279 74.3404 88.7455 74.4929C89.1664 74.642 89.5376 74.8741 89.8591 75.1889C90.1839 75.5038 90.4391 75.9048 90.6247 76.392C90.8103 76.8759 90.9031 77.4527 90.9031 78.1222V78.674H84.6439V77.4609H89.178C89.1747 77.1162 89.1001 76.8097 88.9543 76.5412C88.8084 76.2694 88.6046 76.0556 88.3428 75.8999C88.0843 75.7441 87.7826 75.6662 87.4379 75.6662C87.07 75.6662 86.7469 75.7557 86.4685 75.9347C86.1901 76.1103 85.973 76.3423 85.8172 76.6307C85.6647 76.9157 85.5869 77.2289 85.5835 77.5703V78.6293C85.5835 79.0734 85.6647 79.4545 85.8271 79.7727C85.9896 80.0876 86.2166 80.3295 86.5083 80.4986C86.7999 80.6643 87.1413 80.7472 87.5324 80.7472C87.7942 80.7472 88.0312 80.7107 88.2433 80.6378C88.4555 80.5616 88.6394 80.4505 88.7952 80.3047C88.951 80.1589 89.0686 79.9782 89.1482 79.7628L90.8286 79.9517C90.7225 80.3958 90.5203 80.7836 90.222 81.1151C89.9271 81.4432 89.5492 81.6984 89.0885 81.8807C88.6278 82.0597 88.1008 82.1491 87.5075 82.1491Z" fill="white"/>
</g>
<defs>
<filter id="filter0_d_5845_13801" x="0" y="0" width="107" height="109" filterUnits="userSpaceOnUse" color-interpolation-filters="sRGB">
<feFlood flood-opacity="0" result="BackgroundImageFix"/>
<feColorMatrix in="SourceAlpha" type="matrix" values="0 0 0 0 0 0 0 0 0 0 0 0 0 0 0 0 0 0 127 0" result="hardAlpha"/>
<feOffset dy="2"/>
<feGaussianBlur stdDeviation="4"/>
<feColorMatrix type="matrix" values="0 0 0 0 0 0 0 0 0 0 0 0 0 0 0 0 0 0 0.25 0"/>
<feBlend mode="normal" in2="BackgroundImageFix" result="effect1_dropShadow_5845_13801"/>
<feBlend mode="normal" in="SourceGraphic" in2="effect1_dropShadow_5845_13801" result="shape"/>
</filter>
</defs>
</svg>
