<svg xmlns="http://www.w3.org/2000/svg" width="91" height="91" fill="none" viewBox="0 0 91 91"><rect width="89" height="89" x="1" y="1" fill="#151b23" rx="11"/><rect width="89" height="89" x="1" y="1" stroke="#1f2937" stroke-width="2" rx="11"/><g clip-path="url(#a)"><path stroke="#3b82f6" stroke-width="1.135" d="M45.5 51.375c10.7 0 19.375-8.675 19.375-19.375S56.2 12.625 45.5 12.625 26.125 21.299 26.125 32c0 10.7 8.675 19.375 19.375 19.375Z"/><path fill="#3b82f6" fill-rule="evenodd" d="M45.737 20.07a12.27 12.27 0 0 0-8.603 3.51 11.88 11.88 0 0 0-3.564 8.468c0 3.176 1.283 6.222 3.565 8.467a12.27 12.27 0 0 0 8.602 3.508c3.228 0 6.323-1.26 8.606-3.506a11.88 11.88 0 0 0 3.565-8.47c0-3.176-1.283-6.222-3.565-8.468a12.27 12.27 0 0 0-8.606-3.507zm3.492 3.597c.574 0 1.143.11 1.674.327.53.216 1.013.533 1.419.933s.728.874.948 1.396a4.24 4.24 0 0 1-.95 4.69 4.4 4.4 0 0 1-3.091 1.258 4.4 4.4 0 0 1-3.09-1.259 4.27 4.27 0 0 1-1.282-3.04c0-.564.112-1.124.332-1.646.219-.523.54-.997.947-1.397a4.4 4.4 0 0 1 1.418-.934c.53-.216 1.1-.328 1.675-.328" clip-rule="evenodd"/><path fill="#3b82f6" d="M59.442 22.249c2.414 0 4.372-1.926 4.372-4.302s-1.958-4.302-4.372-4.302-4.372 1.926-4.372 4.302 1.958 4.302 4.372 4.302"/></g><path fill="#fff" d="M32.619 75V63.654h2.055v9.623h4.997V75zm14.17-3.579v-4.93h2.006V75h-1.944v-1.512h-.089a2.56 2.56 0 0 1-.947 1.168q-.654.455-1.612.455-.837 0-1.48-.371a2.6 2.6 0 0 1-.997-1.092q-.36-.72-.36-1.74v-5.417h2.006v5.108q0 .808.443 1.285t1.163.476q.444 0 .859-.216t.681-.642q.272-.433.272-1.08m6.517 3.75a3.55 3.55 0 0 1-1.457-.287 2.4 2.4 0 0 1-1.02-.865q-.37-.57-.37-1.407 0-.72.265-1.19.267-.472.726-.754.46-.282 1.036-.427.582-.15 1.202-.216.748-.077 1.213-.138.466-.066.676-.2.216-.138.216-.426v-.033q0-.626-.37-.97-.372-.343-1.07-.343-.736 0-1.169.32a1.6 1.6 0 0 0-.576.76l-1.872-.266a3 3 0 0 1 .73-1.296q.51-.526 1.247-.787a4.8 4.8 0 0 1 1.629-.266q.615 0 1.224.144.61.144 1.114.477.504.327.809.891.31.566.31 1.413V75H55.87v-1.169h-.067a2.5 2.5 0 0 1-.515.665 2.5 2.5 0 0 1-.825.493 3.3 3.3 0 0 1-1.158.183m.52-1.473q.604 0 1.048-.238.442-.244.681-.643.244-.398.244-.87v-1.002a1 1 0 0 1-.322.144 5 5 0 0 1-.498.116 16 16 0 0 1-.548.089l-.471.066q-.45.062-.804.2a1.33 1.33 0 0 0-.56.388q-.204.244-.204.631 0 .554.404.837.405.282 1.03.282"/><defs><clipPath id="a"><path fill="#fff" d="M25.5 12h40v40h-40z"/></clipPath></defs></svg>