<svg width="177" height="177" viewBox="0 0 177 177" fill="none" xmlns="http://www.w3.org/2000/svg">
<g filter="url(#filter0_d_5820_9396)">
<rect x="38" y="13" width="101" height="101" rx="12" fill="#151B23"/>
<rect x="39" y="14" width="99" height="99" rx="11" stroke="#1F2937" stroke-width="2"/>
<g clip-path="url(#clip0_5820_9396)">
<path d="M88.5 68.375C99.2005 68.375 107.875 59.7005 107.875 49C107.875 38.2995 99.2005 29.625 88.5 29.625C77.7995 29.625 69.125 38.2995 69.125 49C69.125 59.7005 77.7995 68.375 88.5 68.375Z" stroke="#3B82F6" stroke-width="1.13548"/>
<path fill-rule="evenodd" clip-rule="evenodd" d="M88.7374 37.0703C85.5103 37.0708 82.4156 38.3329 80.1339 40.5791C77.8521 42.8253 76.5703 45.8715 76.5703 49.0478C76.5708 52.2238 77.8529 55.2696 80.1345 57.5153C82.4162 59.7611 85.5107 61.023 88.7374 61.0235C91.9648 61.0239 95.0602 59.7625 97.3427 57.5166C99.6252 55.2708 100.908 52.2245 100.908 49.0478C100.908 45.8712 99.6252 42.8249 97.3427 40.579C95.0602 38.3331 91.9648 37.0717 88.7374 37.0722V37.0703ZM92.2287 40.6668C92.8031 40.6665 93.372 40.7777 93.9027 40.9939C94.4335 41.2101 94.9157 41.5271 95.3219 41.9269C95.728 42.3266 96.0502 42.8012 96.2699 43.3235C96.4896 43.8458 96.6025 44.4056 96.6023 44.9709C96.6018 46.1119 96.1407 47.2059 95.3205 48.0124C94.5003 48.8189 93.3882 49.2717 92.2287 49.2712C91.07 49.2712 89.9586 48.8184 89.1388 48.0124C88.3191 47.2064 87.8581 46.1131 87.8571 44.9727C87.8566 44.4076 87.9692 43.8479 88.1886 43.3256C88.4079 42.8033 88.7297 42.3287 89.1355 41.9288C89.5413 41.529 90.0232 41.2117 90.5536 40.9951C91.084 40.7786 91.6545 40.667 92.2287 40.6668Z" fill="#3B82F6"/>
<path d="M102.442 39.249C104.856 39.249 106.814 37.3228 106.814 34.9467C106.814 32.5707 104.856 30.6445 102.442 30.6445C100.028 30.6445 98.0703 32.5707 98.0703 34.9467C98.0703 37.3228 100.028 39.249 102.442 39.249Z" fill="#3B82F6"/>
</g>
<path d="M75.619 94V82.6545H77.6743V92.2771H82.6712V94H75.619ZM89.7898 90.4213V85.4909H91.7952V94H89.8507V92.4876H89.7621C89.57 92.9641 89.2543 93.3537 88.8148 93.6565C88.379 93.9594 87.8416 94.1108 87.2027 94.1108C86.645 94.1108 86.152 93.9871 85.7236 93.7396C85.2989 93.4885 84.9665 93.1247 84.7264 92.6483C84.4864 92.1682 84.3663 91.5884 84.3663 90.9088V85.4909H86.3717V90.5986C86.3717 91.1378 86.5195 91.5662 86.8149 91.8838C87.1104 92.2014 87.4982 92.3602 87.9783 92.3602C88.2737 92.3602 88.5599 92.2882 88.8369 92.1442C89.1139 92.0001 89.3411 91.7859 89.5183 91.5016C89.6993 91.2135 89.7898 90.8534 89.7898 90.4213ZM96.3059 94.1717C95.7667 94.1717 95.2811 94.0757 94.849 93.8837C94.4206 93.6879 94.0808 93.3999 93.8297 93.0195C93.5822 92.6391 93.4585 92.17 93.4585 91.6124C93.4585 91.1322 93.5471 90.7352 93.7244 90.4213C93.9017 90.1074 94.1436 89.8562 94.4501 89.6679C94.7566 89.4795 95.102 89.3374 95.486 89.2413C95.8738 89.1416 96.2745 89.0696 96.6882 89.0253C97.1868 88.9736 97.5912 88.9274 97.9014 88.8868C98.2116 88.8425 98.4369 88.776 98.5772 88.6874C98.7213 88.595 98.7933 88.4528 98.7933 88.2608V88.2276C98.7933 87.8102 98.6696 87.4871 98.4221 87.2581C98.1747 87.0291 97.8183 86.9146 97.3529 86.9146C96.8618 86.9146 96.4721 87.0217 96.1841 87.2359C95.8997 87.4501 95.7076 87.7031 95.6079 87.9949L93.7355 87.729C93.8832 87.2119 94.127 86.7798 94.4667 86.4327C94.8065 86.0818 95.222 85.8196 95.7132 85.646C96.2044 85.4687 96.7473 85.3801 97.3419 85.3801C97.7518 85.3801 98.1599 85.4281 98.5662 85.5241C98.9724 85.6202 99.3436 85.779 99.6797 86.0006C100.016 86.2185 100.285 86.5158 100.488 86.8925C100.695 87.2692 100.799 87.7401 100.799 88.3051V94H98.8708V92.8311H98.8044C98.6825 93.0675 98.5108 93.2891 98.2892 93.4959C98.0713 93.699 97.7961 93.8634 97.4637 93.9889C97.1351 94.1108 96.7491 94.1717 96.3059 94.1717ZM96.8267 92.6982C97.2292 92.6982 97.5782 92.6187 97.8737 92.4599C98.1691 92.2974 98.3963 92.0832 98.5551 91.8173C98.7176 91.5514 98.7988 91.2615 98.7988 90.9476V89.9449C98.736 89.9966 98.6289 90.0446 98.4775 90.0889C98.3298 90.1332 98.1636 90.172 97.9789 90.2053C97.7943 90.2385 97.6115 90.268 97.4305 90.2939C97.2495 90.3197 97.0926 90.3419 96.9596 90.3604C96.6605 90.401 96.3927 90.4675 96.1564 90.5598C95.92 90.6521 95.7335 90.7814 95.5968 90.9476C95.4602 91.1101 95.3919 91.3206 95.3919 91.5791C95.3919 91.9484 95.5267 92.2273 95.7963 92.4156C96.0659 92.604 96.4093 92.6982 96.8267 92.6982Z" fill="white"/>
</g>
<defs>
<filter id="filter0_d_5820_9396" x="0" y="0" width="177" height="177" filterUnits="userSpaceOnUse" color-interpolation-filters="sRGB">
<feFlood flood-opacity="0" result="BackgroundImageFix"/>
<feColorMatrix in="SourceAlpha" type="matrix" values="0 0 0 0 0 0 0 0 0 0 0 0 0 0 0 0 0 0 127 0" result="hardAlpha"/>
<feMorphology radius="12" operator="erode" in="SourceAlpha" result="effect1_dropShadow_5820_9396"/>
<feOffset dy="25"/>
<feGaussianBlur stdDeviation="25"/>
<feColorMatrix type="matrix" values="0 0 0 0 0 0 0 0 0 0 0 0 0 0 0 0 0 0 0.25 0"/>
<feBlend mode="normal" in2="BackgroundImageFix" result="effect1_dropShadow_5820_9396"/>
<feBlend mode="normal" in="SourceGraphic" in2="effect1_dropShadow_5820_9396" result="shape"/>
</filter>
<clipPath id="clip0_5820_9396">
<rect width="40" height="40" fill="white" transform="translate(68.5 29)"/>
</clipPath>
</defs>
</svg>
