<svg xmlns="http://www.w3.org/2000/svg" width="177" height="177" fill="none" viewBox="0 0 177 177"><g filter="url(#a)"><rect width="101" height="101" x="38" y="13" fill="#151b23" rx="12"/><rect width="99" height="99" x="39" y="14" stroke="#1f2937" stroke-width="2" rx="11"/><g clip-path="url(#b)"><path stroke="#3b82f6" stroke-width="1.135" d="M88.5 68.375c10.7 0 19.375-8.675 19.375-19.375S99.201 29.625 88.5 29.625C77.8 29.625 69.125 38.3 69.125 49S77.799 68.375 88.5 68.375Z"/><path fill="#3b82f6" fill-rule="evenodd" d="M88.737 37.07a12.27 12.27 0 0 0-8.603 3.51 11.88 11.88 0 0 0-3.564 8.468c0 3.176 1.283 6.222 3.565 8.467a12.27 12.27 0 0 0 8.602 3.508c3.228 0 6.323-1.26 8.606-3.506a11.88 11.88 0 0 0 3.565-8.47 11.88 11.88 0 0 0-3.565-8.468 12.27 12.27 0 0 0-8.606-3.507zm3.492 3.597c.574 0 1.143.11 1.674.327.53.216 1.013.533 1.419.933s.728.874.948 1.397a4.24 4.24 0 0 1-.95 4.688 4.4 4.4 0 0 1-3.091 1.26 4.4 4.4 0 0 1-3.09-1.26 4.27 4.27 0 0 1-1.282-3.04c0-.564.112-1.124.332-1.646.219-.523.54-.997.947-1.397a4.4 4.4 0 0 1 1.418-.934c.53-.216 1.1-.328 1.675-.328" clip-rule="evenodd"/><path fill="#3b82f6" d="M102.442 39.249c2.414 0 4.372-1.926 4.372-4.302s-1.958-4.303-4.372-4.303-4.372 1.927-4.372 4.303 1.958 4.302 4.372 4.302"/></g><path fill="#fff" d="M75.619 94V82.654h2.055v9.623h4.997V94zm14.17-3.579v-4.93h2.006V94h-1.944v-1.512h-.089a2.56 2.56 0 0 1-.947 1.168q-.654.455-1.612.455-.837 0-1.48-.371a2.6 2.6 0 0 1-.997-1.092q-.36-.72-.36-1.74v-5.417h2.006v5.108q0 .808.443 1.285t1.163.476q.444 0 .859-.216t.681-.642q.272-.433.272-1.08m6.517 3.75a3.55 3.55 0 0 1-1.457-.287 2.4 2.4 0 0 1-1.02-.865q-.37-.57-.37-1.407 0-.72.265-1.19.267-.472.726-.754.46-.282 1.036-.427.582-.15 1.202-.216.748-.077 1.213-.138.465-.066.676-.2.216-.138.216-.426v-.033q0-.626-.37-.97-.372-.343-1.07-.343-.736 0-1.169.32a1.6 1.6 0 0 0-.576.76l-1.873-.266a3 3 0 0 1 .732-1.296q.51-.526 1.246-.787a4.8 4.8 0 0 1 1.629-.266q.615 0 1.224.144.61.144 1.114.477.504.327.808.891.31.566.311 1.413V94h-1.928v-1.169h-.067a2.5 2.5 0 0 1-.515.665 2.5 2.5 0 0 1-.825.493 3.3 3.3 0 0 1-1.158.183m.52-1.473q.604 0 1.048-.238.443-.244.681-.643.244-.398.244-.87v-1.002a1 1 0 0 1-.322.144 5 5 0 0 1-.498.116 16 16 0 0 1-.549.089l-.47.066q-.45.062-.804.2a1.33 1.33 0 0 0-.56.388q-.204.244-.204.631 0 .554.404.837.405.282 1.03.282"/></g><defs><clipPath id="b"><path fill="#fff" d="M68.5 29h40v40h-40z"/></clipPath><filter id="a" width="177" height="177" x="0" y="0" color-interpolation-filters="sRGB" filterUnits="userSpaceOnUse"><feFlood flood-opacity="0" result="BackgroundImageFix"/><feColorMatrix in="SourceAlpha" result="hardAlpha" values="0 0 0 0 0 0 0 0 0 0 0 0 0 0 0 0 0 0 127 0"/><feMorphology in="SourceAlpha" radius="12" result="effect1_dropShadow_5820_9396"/><feOffset dy="25"/><feGaussianBlur stdDeviation="25"/><feColorMatrix values="0 0 0 0 0 0 0 0 0 0 0 0 0 0 0 0 0 0 0.25 0"/><feBlend in2="BackgroundImageFix" result="effect1_dropShadow_5820_9396"/><feBlend in="SourceGraphic" in2="effect1_dropShadow_5820_9396" result="shape"/></filter></defs></svg>