<svg width="107" height="107" viewBox="0 0 107 107" fill="none" xmlns="http://www.w3.org/2000/svg">
<g filter="url(#filter0_d_5820_9396)">
<rect x="8" y="6" width="91" height="91" rx="12" fill="#151B23"/>
<rect x="9" y="7" width="89" height="89" rx="11" stroke="#1F2937" stroke-width="2"/>
<g clip-path="url(#clip0_5820_9396)">
<path d="M53.5 57.375C64.2005 57.375 72.875 48.7005 72.875 38C72.875 27.2995 64.2005 18.625 53.5 18.625C42.7995 18.625 34.125 27.2995 34.125 38C34.125 48.7005 42.7995 57.375 53.5 57.375Z" stroke="#3B82F6" stroke-width="1.13548"/>
<path fill-rule="evenodd" clip-rule="evenodd" d="M53.7374 26.0703C50.5103 26.0708 47.4156 27.3329 45.1339 29.5791C42.8521 31.8253 41.5703 34.8715 41.5703 38.0478C41.5708 41.2238 42.8529 44.2696 45.1345 46.5153C47.4162 48.7611 50.5106 50.023 53.7374 50.0235C56.9648 50.0239 60.0602 48.7625 62.3427 46.5166C64.6252 44.2708 65.9077 41.2245 65.9083 38.0478C65.9077 34.8712 64.6252 31.8249 62.3427 29.579C60.0602 27.3331 56.9648 26.0717 53.7374 26.0722V26.0703ZM57.2287 29.6668C57.8031 29.6665 58.372 29.7777 58.9027 29.9939C59.4335 30.2101 59.9157 30.5271 60.3219 30.9269C60.728 31.3266 61.0502 31.8012 61.2699 32.3235C61.4896 32.8458 61.6025 33.4056 61.6023 33.9709C61.6018 35.1119 61.1407 36.2059 60.3205 37.0124C59.5003 37.8189 58.3882 38.2717 57.2287 38.2712C56.07 38.2712 54.9586 37.8184 54.1388 37.0124C53.3191 36.2064 52.8581 35.1131 52.8571 33.9727C52.8566 33.4076 52.9692 32.8479 53.1886 32.3256C53.4079 31.8033 53.7297 31.3287 54.1355 30.9288C54.5413 30.529 55.0232 30.2117 55.5536 29.9951C56.084 29.7786 56.6545 29.667 57.2287 29.6668Z" fill="#3B82F6"/>
<path d="M67.442 28.249C69.8564 28.249 71.8136 26.3228 71.8136 23.9467C71.8136 21.5707 69.8564 19.6445 67.442 19.6445C65.0276 19.6445 63.0703 21.5707 63.0703 23.9467C63.0703 26.3228 65.0276 28.249 67.442 28.249Z" fill="#3B82F6"/>
</g>
<path d="M40.619 81V69.6545H42.6743V79.2771H47.6712V81H40.619ZM54.7898 77.4213V72.4909H56.7952V81H54.8507V79.4876H54.7621C54.57 79.9641 54.2543 80.3537 53.8148 80.6565C53.379 80.9594 52.8416 81.1108 52.2027 81.1108C51.645 81.1108 51.152 80.9871 50.7236 80.7396C50.2989 80.4885 49.9665 80.1247 49.7264 79.6483C49.4864 79.1682 49.3663 78.5884 49.3663 77.9088V72.4909H51.3717V77.5986C51.3717 78.1378 51.5195 78.5662 51.8149 78.8838C52.1104 79.2014 52.4982 79.3602 52.9783 79.3602C53.2737 79.3602 53.5599 79.2882 53.8369 79.1442C54.1139 79.0001 54.3411 78.7859 54.5183 78.5016C54.6993 78.2135 54.7898 77.8534 54.7898 77.4213ZM61.3059 81.1717C60.7667 81.1717 60.2811 81.0757 59.849 80.8837C59.4206 80.6879 59.0808 80.3999 58.8297 80.0195C58.5822 79.6391 58.4585 79.17 58.4585 78.6124C58.4585 78.1322 58.5471 77.7352 58.7244 77.4213C58.9017 77.1074 59.1436 76.8562 59.4501 76.6679C59.7566 76.4795 60.102 76.3374 60.486 76.2413C60.8738 76.1416 61.2745 76.0696 61.6882 76.0253C62.1868 75.9736 62.5912 75.9274 62.9014 75.8868C63.2116 75.8425 63.4369 75.776 63.5772 75.6874C63.7213 75.595 63.7933 75.4528 63.7933 75.2608V75.2276C63.7933 74.8102 63.6696 74.4871 63.4221 74.2581C63.1747 74.0291 62.8183 73.9146 62.3529 73.9146C61.8618 73.9146 61.4721 74.0217 61.1841 74.2359C60.8997 74.4501 60.7076 74.7031 60.6079 74.9949L58.7355 74.729C58.8832 74.2119 59.127 73.7798 59.4667 73.4327C59.8065 73.0818 60.222 72.8196 60.7132 72.646C61.2044 72.4687 61.7473 72.3801 62.3419 72.3801C62.7518 72.3801 63.1599 72.4281 63.5662 72.5241C63.9724 72.6202 64.3436 72.779 64.6797 73.0006C65.0157 73.2185 65.2853 73.5158 65.4885 73.8925C65.6953 74.2692 65.7987 74.7401 65.7987 75.3051V81H63.8708V79.8311H63.8044C63.6825 80.0675 63.5108 80.2891 63.2892 80.4959C63.0713 80.699 62.7961 80.8634 62.4637 80.9889C62.1351 81.1108 61.7491 81.1717 61.3059 81.1717ZM61.8267 79.6982C62.2292 79.6982 62.5782 79.6187 62.8737 79.4599C63.1691 79.2974 63.3963 79.0832 63.5551 78.8173C63.7176 78.5514 63.7988 78.2615 63.7988 77.9476V76.9449C63.736 76.9966 63.6289 77.0446 63.4775 77.0889C63.3298 77.1332 63.1636 77.172 62.9789 77.2053C62.7943 77.2385 62.6115 77.268 62.4305 77.2939C62.2495 77.3197 62.0926 77.3419 61.9596 77.3604C61.6605 77.401 61.3927 77.4675 61.1564 77.5598C60.92 77.6521 60.7335 77.7814 60.5968 77.9476C60.4602 78.1101 60.3919 78.3206 60.3919 78.5791C60.3919 78.9484 60.5267 79.2273 60.7963 79.4156C61.0659 79.604 61.4093 79.6982 61.8267 79.6982Z" fill="white"/>
</g>
<defs>
<filter id="filter0_d_5820_9396" x="0" y="0" width="107" height="107" filterUnits="userSpaceOnUse" color-interpolation-filters="sRGB">
<feFlood flood-opacity="0" result="BackgroundImageFix"/>
<feColorMatrix in="SourceAlpha" type="matrix" values="0 0 0 0 0 0 0 0 0 0 0 0 0 0 0 0 0 0 127 0" result="hardAlpha"/>
<feOffset dy="2"/>
<feGaussianBlur stdDeviation="4"/>
<feColorMatrix type="matrix" values="0 0 0 0 0 0 0 0 0 0 0 0 0 0 0 0 0 0 0.25 0"/>
<feBlend mode="normal" in2="BackgroundImageFix" result="effect1_dropShadow_5820_9396"/>
<feBlend mode="normal" in="SourceGraphic" in2="effect1_dropShadow_5820_9396" result="shape"/>
</filter>
<clipPath id="clip0_5820_9396">
<rect width="40" height="40" fill="white" transform="translate(33.5 18)"/>
</clipPath>
</defs>
</svg>
