<svg width="107" height="109" viewBox="0 0 107 109" fill="none" xmlns="http://www.w3.org/2000/svg">
<g filter="url(#filter0_d_5829_13504)">
<rect x="8" y="6" width="91" height="93" rx="12" fill="#151B23"/>
<rect x="9" y="7" width="89" height="91" rx="11" stroke="#1F2937" stroke-width="2"/>
<g clip-path="url(#clip0_5829_13504)">
<path fill-rule="evenodd" clip-rule="evenodd" d="M36.1563 33.9068C36.1561 33.1476 36.3055 32.3958 36.596 31.6943C36.8864 30.9928 37.3122 30.3554 37.849 29.8185C38.3858 29.2816 39.0231 28.8557 39.7245 28.5651C40.4259 28.2746 41.1777 28.125 41.937 28.125H65.062C65.8212 28.125 66.573 28.2746 67.2744 28.5651C67.9758 28.8557 68.6131 29.2816 69.1499 29.8185C69.6867 30.3554 70.1125 30.9928 70.403 31.6943C70.6934 32.3958 70.8428 33.1476 70.8427 33.9068V45.4682C70.8428 46.2274 70.6934 46.9792 70.403 47.6807C70.1125 48.3822 69.6867 49.0196 69.1499 49.5565C68.6131 50.0934 67.9758 50.5193 67.2744 50.8099C66.573 51.1004 65.8212 51.25 65.062 51.25H41.937C41.1777 51.25 40.4259 51.1004 39.7245 50.8099C39.0231 50.5193 38.3858 50.0934 37.849 49.5565C37.3122 49.0196 36.8864 48.3822 36.596 47.6807C36.3055 46.9792 36.1561 46.2274 36.1563 45.4682V33.9068ZM41.937 31.0159C41.1704 31.0162 40.4354 31.3209 39.8935 31.863C39.3516 32.4051 39.0471 33.1403 39.0471 33.9068V45.4682C39.0471 46.2347 39.3516 46.9699 39.8935 47.512C40.4354 48.0541 41.1704 48.3588 41.937 48.3591H65.062C65.8285 48.3588 66.5635 48.0541 67.1054 47.512C67.6473 46.9699 67.9518 46.2347 67.9518 45.4682V33.9068C67.9518 33.1403 67.6473 32.4051 67.1054 31.863C66.5635 31.3209 65.8285 31.0162 65.062 31.0159H41.937ZM44.3704 33.9805C44.6583 33.8839 44.9693 33.8805 45.2591 33.9711C45.5489 34.0616 45.8028 34.2413 45.9844 34.4845L49.1637 38.7228L52.3429 34.4835C52.5248 34.2406 52.7785 34.0611 53.0681 33.9705C53.3577 33.8799 53.6685 33.8828 53.9564 33.9788C54.2443 34.0747 54.4946 34.2589 54.6719 34.5051C54.8493 34.7514 54.9446 35.0472 54.9444 35.3506V44.0222C54.9444 44.212 54.907 44.3999 54.8344 44.5752C54.7618 44.7505 54.6553 44.9097 54.5212 45.0439C54.387 45.1781 54.2277 45.2845 54.0524 45.3571C53.8771 45.4297 53.6892 45.4671 53.4995 45.4671C53.3097 45.4671 53.1218 45.4297 52.9465 45.3571C52.7712 45.2845 52.6119 45.1781 52.4778 45.0439C52.3436 44.9097 52.2372 44.7505 52.1645 44.5752C52.0919 44.3999 52.0546 44.212 52.0546 44.0222V39.6864L50.3202 41.9985C50.1857 42.1782 50.0111 42.3241 49.8103 42.4245C49.6096 42.525 49.3882 42.5773 49.1637 42.5773C48.9392 42.5773 48.7177 42.525 48.517 42.4245C48.3162 42.3241 48.1416 42.1782 48.0071 41.9985L46.2728 39.6875V44.0233C46.2728 44.4065 46.1205 44.774 45.8496 45.045C45.5786 45.316 45.2111 45.4682 44.8279 45.4682C44.4446 45.4682 44.0771 45.316 43.8062 45.045C43.5352 44.774 43.3829 44.4065 43.3829 44.0233V35.3517C43.3829 34.7295 43.7808 34.1767 44.3704 33.9805ZM62.1711 35.3517C62.1711 34.9683 62.0188 34.6007 61.7477 34.3296C61.4766 34.0585 61.109 33.9062 60.7256 33.9062C60.3423 33.9062 59.9746 34.0585 59.7035 34.3296C59.4325 34.6007 59.2802 34.9683 59.2802 35.3517V40.5341L58.8574 40.1113C58.7233 39.9771 58.564 39.8706 58.3887 39.7979C58.2133 39.7253 58.0254 39.6878 57.8356 39.6878C57.6459 39.6877 57.4579 39.7251 57.2826 39.7976C57.1072 39.8702 56.9479 39.9766 56.8136 40.1108C56.6794 40.2449 56.5729 40.4042 56.5002 40.5795C56.4276 40.7549 56.3901 40.9428 56.3901 41.1326C56.39 41.3223 56.4274 41.5103 56.4999 41.6856C56.5725 41.861 56.6789 42.0203 56.8131 42.1546L59.704 45.0455C60.2676 45.6091 61.1836 45.6091 61.7483 45.0455L64.6381 42.1546C64.7724 42.0203 64.8788 41.861 64.9515 41.6856C65.0241 41.5102 65.0615 41.3222 65.0615 41.1324C65.0615 40.9426 65.0241 40.7546 64.9515 40.5792C64.8788 40.4038 64.7724 40.2445 64.6381 40.1102C64.5039 39.976 64.3445 39.8695 64.1692 39.7969C63.9938 39.7242 63.8058 39.6868 63.616 39.6868C63.4261 39.6868 63.2382 39.7242 63.0628 39.7969C62.8874 39.8695 62.728 39.976 62.5938 40.1102L62.1711 40.5341V35.3517Z" fill="#F3F4F6"/>
</g>
<path d="M18.5043 71.8182H20.7614L23.7841 79.196H23.9034L26.9261 71.8182H29.1832V82H27.4134V75.005H27.3189L24.505 81.9702H23.1825L20.3686 74.9901H20.2741V82H18.5043V71.8182ZM33.3097 82.1541C32.8258 82.1541 32.3899 82.0679 32.0021 81.8956C31.6177 81.7199 31.3127 81.4614 31.0874 81.12C30.8653 80.7786 30.7543 80.3577 30.7543 79.8572C30.7543 79.4264 30.8338 79.0701 30.9929 78.7884C31.152 78.5066 31.3691 78.2812 31.6442 78.1122C31.9193 77.9432 32.2292 77.8156 32.5739 77.7294C32.9219 77.6399 33.2815 77.5753 33.6527 77.5355C34.1001 77.4891 34.4631 77.4477 34.7415 77.4112C35.0199 77.3714 35.2221 77.3118 35.348 77.2322C35.4773 77.1494 35.5419 77.0218 35.5419 76.8494V76.8196C35.5419 76.4451 35.4309 76.1551 35.2088 75.9496C34.9867 75.7441 34.6669 75.6413 34.2493 75.6413C33.8085 75.6413 33.4588 75.7375 33.2003 75.9297C32.9451 76.1219 32.7727 76.349 32.6832 76.6108L31.0028 76.3722C31.1354 75.9081 31.3542 75.5204 31.6591 75.2088C31.964 74.8939 32.3369 74.6586 32.7777 74.5028C33.2185 74.3438 33.7057 74.2642 34.2393 74.2642C34.6072 74.2642 34.9735 74.3073 35.3381 74.3935C35.7027 74.4796 36.0357 74.6222 36.3374 74.821C36.639 75.0166 36.8809 75.2834 37.0632 75.6214C37.2488 75.9595 37.3416 76.3821 37.3416 76.8892V82H35.6115V80.951H35.5518C35.4425 81.1631 35.2884 81.362 35.0895 81.5476C34.8939 81.7299 34.647 81.8774 34.3487 81.9901C34.0537 82.0994 33.7074 82.1541 33.3097 82.1541ZM33.777 80.8317C34.1383 80.8317 34.4515 80.7604 34.7166 80.6179C34.9818 80.4721 35.1856 80.2798 35.3281 80.0412C35.474 79.8026 35.5469 79.5424 35.5469 79.2607V78.3608C35.4905 78.4072 35.3944 78.4503 35.2585 78.4901C35.1259 78.5298 34.9768 78.5646 34.8111 78.5945C34.6454 78.6243 34.4813 78.6508 34.3189 78.674C34.1565 78.6972 34.0156 78.7171 33.8963 78.7337C33.6278 78.7701 33.3875 78.8298 33.1754 78.9126C32.9633 78.9955 32.7959 79.1115 32.6733 79.2607C32.5507 79.4065 32.4893 79.5954 32.4893 79.8274C32.4893 80.1589 32.6103 80.4091 32.8523 80.5781C33.0942 80.7472 33.4025 80.8317 33.777 80.8317ZM39.1513 82V74.3636H40.8963V75.6364H40.9759C41.1151 75.1955 41.3537 74.8558 41.6918 74.6172C42.0331 74.3752 42.4226 74.2543 42.8601 74.2543C42.9595 74.2543 43.0705 74.2592 43.1932 74.2692C43.3191 74.2758 43.4235 74.2874 43.5064 74.304V75.9595C43.4302 75.933 43.3092 75.9098 43.1435 75.8899C42.9811 75.8667 42.8236 75.8551 42.6712 75.8551C42.343 75.8551 42.0481 75.9264 41.7862 76.0689C41.5277 76.2081 41.3239 76.402 41.1747 76.6506C41.0256 76.8991 40.951 77.1858 40.951 77.5107V82H39.1513ZM46.3427 79.6037L46.3377 77.4311H46.6261L49.3704 74.3636H51.4734L48.0977 78.1222H47.7248L46.3427 79.6037ZM44.7021 82V71.8182H46.5018V82H44.7021ZM49.4947 82L47.0089 78.5249L48.2219 77.2571L51.6474 82H49.4947ZM55.1921 82.1342C54.5922 82.1342 54.0553 81.9801 53.5813 81.6719C53.1074 81.3636 52.7328 80.9162 52.4577 80.3295C52.1826 79.7429 52.0451 79.0303 52.0451 78.1918C52.0451 77.3433 52.1843 76.6274 52.4627 76.044C52.7444 75.4574 53.1239 75.0149 53.6012 74.7166C54.0785 74.415 54.6104 74.2642 55.1971 74.2642C55.6445 74.2642 56.0124 74.3404 56.3008 74.4929C56.5891 74.642 56.8178 74.8227 56.9869 75.0348C57.1559 75.2436 57.2868 75.4408 57.3796 75.6264H57.4542V71.8182H59.2589V82H57.489V80.7969H57.3796C57.2868 80.9825 57.1526 81.1797 56.9769 81.3885C56.8013 81.594 56.5692 81.7696 56.2809 81.9155C55.9925 82.0613 55.6296 82.1342 55.1921 82.1342ZM55.6942 80.6577C56.0754 80.6577 56.4002 80.5549 56.6687 80.3494C56.9371 80.1406 57.141 79.8506 57.2802 79.4794C57.4194 79.1082 57.489 78.6757 57.489 78.1818C57.489 77.688 57.4194 77.2588 57.2802 76.8942C57.1443 76.5296 56.9421 76.2462 56.6737 76.044C56.4085 75.8419 56.082 75.7408 55.6942 75.7408C55.2932 75.7408 54.9585 75.8452 54.69 76.054C54.4215 76.2628 54.2193 76.5511 54.0835 76.919C53.9476 77.2869 53.8796 77.7079 53.8796 78.1818C53.8796 78.6591 53.9476 79.085 54.0835 79.4595C54.2227 79.8307 54.4265 80.1241 54.695 80.3395C54.9667 80.5516 55.2998 80.6577 55.6942 80.6577ZM64.5076 82.1491C63.7619 82.1491 63.1156 81.9851 62.5687 81.657C62.0218 81.3288 61.5976 80.8698 61.296 80.2798C60.9977 79.6899 60.8485 79.0005 60.8485 78.2116C60.8485 77.4228 60.9977 76.7318 61.296 76.1385C61.5976 75.5452 62.0218 75.0845 62.5687 74.7564C63.1156 74.4283 63.7619 74.2642 64.5076 74.2642C65.2534 74.2642 65.8997 74.4283 66.4466 74.7564C66.9934 75.0845 67.416 75.5452 67.7143 76.1385C68.0159 76.7318 68.1667 77.4228 68.1667 78.2116C68.1667 79.0005 68.0159 79.6899 67.7143 80.2798C67.416 80.8698 66.9934 81.3288 66.4466 81.657C65.8997 81.9851 65.2534 82.1491 64.5076 82.1491ZM64.5176 80.7074C64.9219 80.7074 65.26 80.5964 65.5318 80.3743C65.8036 80.1489 66.0057 79.8473 66.1383 79.4695C66.2742 79.0916 66.3422 78.6707 66.3422 78.2067C66.3422 77.7393 66.2742 77.3168 66.1383 76.9389C66.0057 76.5578 65.8036 76.2545 65.5318 76.0291C65.26 75.8037 64.9219 75.6911 64.5176 75.6911C64.1033 75.6911 63.7586 75.8037 63.4835 76.0291C63.2117 76.2545 63.0079 76.5578 62.872 76.9389C62.7394 77.3168 62.6731 77.7393 62.6731 78.2067C62.6731 78.6707 62.7394 79.0916 62.872 79.4695C63.0079 79.8473 63.2117 80.1489 63.4835 80.3743C63.7586 80.5964 64.1033 80.7074 64.5176 80.7074ZM71.0515 82L68.8938 74.3636H70.7283L72.0707 79.733H72.1403L73.5124 74.3636H75.3271L76.6992 79.7031H76.7738L78.0962 74.3636H79.9357L77.7731 82H75.8988L74.467 76.8395H74.3626L72.9308 82H71.0515ZM82.992 77.5256V82H81.1923V74.3636H82.9125V75.6612H83.002C83.1776 75.2337 83.4577 74.8939 83.8422 74.642C84.2299 74.3902 84.7089 74.2642 85.2789 74.2642C85.8059 74.2642 86.265 74.3769 86.6561 74.6023C87.0505 74.8277 87.3554 75.1541 87.5708 75.5817C87.7896 76.0092 87.8973 76.5279 87.894 77.1378V82H86.0943V77.4162C86.0943 76.9058 85.9617 76.5064 85.6966 76.218C85.4347 75.9297 85.0718 75.7855 84.6078 75.7855C84.2929 75.7855 84.0128 75.8551 83.7676 75.9943C83.5256 76.1302 83.335 76.3274 83.1958 76.5859C83.06 76.8445 82.992 77.1577 82.992 77.5256Z" fill="white"/>
</g>
<defs>
<filter id="filter0_d_5829_13504" x="0" y="0" width="107" height="109" filterUnits="userSpaceOnUse" color-interpolation-filters="sRGB">
<feFlood flood-opacity="0" result="BackgroundImageFix"/>
<feColorMatrix in="SourceAlpha" type="matrix" values="0 0 0 0 0 0 0 0 0 0 0 0 0 0 0 0 0 0 127 0" result="hardAlpha"/>
<feOffset dy="2"/>
<feGaussianBlur stdDeviation="4"/>
<feColorMatrix type="matrix" values="0 0 0 0 0 0 0 0 0 0 0 0 0 0 0 0 0 0 0.25 0"/>
<feBlend mode="normal" in2="BackgroundImageFix" result="effect1_dropShadow_5829_13504"/>
<feBlend mode="normal" in="SourceGraphic" in2="effect1_dropShadow_5829_13504" result="shape"/>
</filter>
<clipPath id="clip0_5829_13504">
<rect width="40" height="40" fill="white" transform="translate(33.5 20)"/>
</clipPath>
</defs>
</svg>
