<svg width="107" height="109" viewBox="0 0 107 109" fill="none" xmlns="http://www.w3.org/2000/svg">
<g filter="url(#filter0_d_5846_13501)">
<rect x="8" y="6" width="91" height="93" rx="12" fill="#151B23"/>
<rect x="9" y="7" width="89" height="91" rx="11" stroke="#1F2937" stroke-width="2"/>
<path d="M68.6586 31.2493C68.4172 30.8284 68.0809 30.4697 67.6764 30.2019C67.2719 29.934 66.8104 29.7644 66.3287 29.7064C65.847 29.6485 65.3585 29.704 64.902 29.8684C64.4455 30.0327 64.0338 30.3015 63.6996 30.6532L56.4949 26.4907C56.6304 26.026 56.6558 25.5362 56.5692 25.06C56.4825 24.5838 56.2862 24.1343 55.9958 23.7471C55.7054 23.3599 55.3288 23.0456 54.8958 22.8291C54.4629 22.6127 53.9855 22.5 53.5015 22.5C53.0175 22.5 52.5401 22.6127 52.1072 22.8291C51.6743 23.0456 51.2977 23.3599 51.0072 23.7471C50.7168 24.1343 50.5205 24.5838 50.4339 25.06C50.3472 25.5362 50.3727 26.026 50.5081 26.4907L43.3009 30.6506C42.966 30.3012 42.5543 30.0345 42.0985 29.8716C41.6428 29.7088 41.1553 29.6542 40.6748 29.7123C40.1943 29.7703 39.7339 29.9394 39.33 30.2061C38.9261 30.4728 38.5898 30.8299 38.3478 31.249C38.1057 31.6682 37.9645 32.1379 37.9354 32.621C37.9062 33.1042 37.9898 33.5874 38.1797 34.0327C38.3696 34.4779 38.6605 34.8728 39.0293 35.1862C39.3982 35.4996 39.8349 35.7228 40.3049 35.8383V47.6165L50.5056 53.5056C50.3697 53.9706 50.3439 54.4608 50.4304 54.9374C50.5168 55.414 50.7131 55.864 51.0036 56.2516C51.2942 56.6392 51.671 56.9538 52.1042 57.1705C52.5374 57.3872 53.0152 57.5 53.4996 57.5C53.984 57.5 54.4617 57.3872 54.895 57.1705C55.3282 56.9538 55.705 56.6392 55.9955 56.2516C56.2861 55.864 56.4823 55.414 56.5688 54.9374C56.6552 54.4608 56.6295 53.9706 56.4936 53.5056L66.6814 47.6165V35.8408C67.1534 35.7277 67.5925 35.5059 67.9637 35.1931C68.3349 34.8802 68.6278 34.485 68.8192 34.0389C69.0107 33.5928 69.0952 33.1082 69.0662 32.6237C69.0372 32.1391 68.8954 31.668 68.6521 31.248L68.6586 31.2493ZM51.2443 27.7754L51.3406 27.8718L48.1443 33.4089L49.2376 34.4803L52.6253 28.6117C53.1958 28.7788 53.8009 28.7788 54.37 28.6117L60.8655 39.8723L61.9588 38.8008L55.6585 27.8718L55.7536 27.7767L62.9609 31.9392C62.8433 32.3423 62.8085 32.765 62.8585 33.1819C62.9085 33.5988 63.0423 34.0012 63.2518 34.3651C63.4613 34.729 63.7423 35.0467 64.0778 35.2992C64.4132 35.5517 64.7963 35.7338 65.204 35.8344V46.4461H41.7888V35.8383C42.1982 35.7389 42.5832 35.5574 42.9204 35.3049C43.2576 35.0523 43.54 34.7339 43.7506 34.369C43.9612 34.0041 44.0955 33.6003 44.1454 33.1819C44.1953 32.7636 44.1597 32.3395 44.0409 31.9353L51.2443 27.7754ZM53.5002 51.26C53.0787 51.2588 52.6613 51.3434 52.2735 51.5086C51.8857 51.6738 51.5355 51.9162 51.2443 52.2209L43.8122 47.93H63.1805L55.7549 52.2209C55.4641 51.9163 55.1144 51.6739 54.727 51.5085C54.3396 51.343 53.9227 51.2581 53.5015 51.2587L53.5002 51.26Z" fill="#864F00"/>
<path d="M67.5044 44.487C67.1398 44.2771 66.7365 44.1431 66.3188 44.0929C65.9011 44.0428 65.4776 44.0777 65.0737 44.1953L61.9608 38.7995L57.7984 42.8913L48.1463 33.4102L41.9193 44.1953C41.1867 43.9851 40.4024 44.0506 39.7147 44.3793C39.027 44.708 38.4836 45.2772 38.187 45.9794C37.8905 46.6815 37.8614 47.468 38.1053 48.1901C38.3492 48.9122 38.8492 49.52 39.5107 49.8986C40.1722 50.2772 40.9495 50.4003 41.6957 50.2448C42.4419 50.0893 43.1052 49.6658 43.5604 49.0544C44.0155 48.4431 44.231 47.6861 44.1661 46.9267C44.1011 46.1673 43.7602 45.4579 43.2079 44.9328L48.4739 35.8113L57.7984 44.9713L61.6345 41.2019L63.7877 44.9353C63.3146 45.3879 62.996 45.9778 62.8768 46.6216C62.7577 47.2653 62.8441 47.9302 63.1239 48.5221C63.4036 49.114 63.8625 49.6028 64.4355 49.9195C65.0085 50.2361 65.6666 50.3644 66.3166 50.2862C66.9666 50.208 67.5755 49.9273 68.057 49.4838C68.5386 49.0403 68.8685 48.4566 68.9999 47.8153C69.1312 47.1739 69.0575 46.5075 68.7891 45.9104C68.5207 45.3132 68.0712 44.8144 67.5044 44.487Z" fill="#FFA11A"/>
<path d="M20.3929 71.8182H22.65L25.6728 79.196H25.7921L28.8148 71.8182H31.0719V82H29.302V75.005H29.2076L26.3936 81.9702H25.0712L22.2573 74.9901H22.1628V82H20.3929V71.8182ZM36.3816 82.1491C35.6159 82.1491 34.9547 81.9901 34.3979 81.6719C33.8444 81.3504 33.4185 80.8963 33.1202 80.3097C32.8219 79.7197 32.6728 79.0253 32.6728 78.2266C32.6728 77.4411 32.8219 76.7517 33.1202 76.1584C33.4218 75.5618 33.8427 75.0978 34.383 74.7663C34.9232 74.4316 35.5579 74.2642 36.2871 74.2642C36.7578 74.2642 37.2019 74.3404 37.6195 74.4929C38.0404 74.642 38.4116 74.8741 38.7331 75.1889C39.0579 75.5038 39.3132 75.9048 39.4988 76.392C39.6844 76.8759 39.7772 77.4527 39.7772 78.1222V78.674H33.5179V77.4609H38.052C38.0487 77.1162 37.9741 76.8097 37.8283 76.5412C37.6825 76.2694 37.4786 76.0556 37.2168 75.8999C36.9583 75.7441 36.6567 75.6662 36.312 75.6662C35.9441 75.6662 35.6209 75.7557 35.3425 75.9347C35.0641 76.1103 34.847 76.3423 34.6912 76.6307C34.5388 76.9157 34.4609 77.2289 34.4576 77.5703V78.6293C34.4576 79.0734 34.5388 79.4545 34.7012 79.7727C34.8636 80.0876 35.0906 80.3295 35.3823 80.4986C35.6739 80.6643 36.0153 80.7472 36.4064 80.7472C36.6683 80.7472 36.9052 80.7107 37.1174 80.6378C37.3295 80.5616 37.5134 80.4505 37.6692 80.3047C37.825 80.1589 37.9426 79.9782 38.0222 79.7628L39.7026 79.9517C39.5965 80.3958 39.3944 80.7836 39.0961 81.1151C38.8011 81.4432 38.4232 81.6984 37.9625 81.8807C37.5018 82.0597 36.9748 82.1491 36.3816 82.1491ZM41.2997 82V74.3636H43.0447V75.6364H43.1243C43.2635 75.1955 43.5021 74.8558 43.8402 74.6172C44.1816 74.3752 44.571 74.2543 45.0085 74.2543C45.108 74.2543 45.219 74.2592 45.3416 74.2692C45.4676 74.2758 45.572 74.2874 45.6548 74.304V75.9595C45.5786 75.933 45.4576 75.9098 45.2919 75.8899C45.1295 75.8667 44.9721 75.8551 44.8196 75.8551C44.4915 75.8551 44.1965 75.9264 43.9347 76.0689C43.6761 76.2081 43.4723 76.402 43.3232 76.6506C43.174 76.8991 43.0994 77.1858 43.0994 77.5107V82H41.2997ZM49.867 82.1491C49.1047 82.1491 48.4501 81.9818 47.9032 81.647C47.3597 81.3123 46.9404 80.8499 46.6454 80.2599C46.3538 79.6667 46.2079 78.9839 46.2079 78.2116C46.2079 77.4361 46.3571 76.7517 46.6554 76.1584C46.9537 75.5618 47.3746 75.0978 47.9181 74.7663C48.465 74.4316 49.1113 74.2642 49.8571 74.2642C50.4769 74.2642 51.0254 74.3786 51.5027 74.6072C51.9833 74.8326 52.3661 75.1525 52.6511 75.5668C52.9361 75.9777 53.0985 76.4583 53.1383 77.0085H51.4181C51.3485 76.6406 51.1828 76.334 50.921 76.0888C50.6625 75.8402 50.3161 75.7159 49.8819 75.7159C49.514 75.7159 49.1909 75.8153 48.9125 76.0142C48.6341 76.2098 48.417 76.4915 48.2612 76.8594C48.1087 77.2273 48.0325 77.6681 48.0325 78.1818C48.0325 78.7022 48.1087 79.1496 48.2612 79.5241C48.4136 79.8954 48.6274 80.1821 48.9025 80.3842C49.1809 80.5831 49.5074 80.6825 49.8819 80.6825C50.1471 80.6825 50.3841 80.6328 50.5929 80.5334C50.805 80.4306 50.9823 80.2831 51.1248 80.0909C51.2673 79.8987 51.3651 79.665 51.4181 79.3899H53.1383C53.0952 79.9302 52.9361 80.4091 52.661 80.8267C52.3859 81.241 52.0114 81.5658 51.5375 81.8011C51.0635 82.0331 50.5067 82.1491 49.867 82.1491ZM59.4833 78.7884V74.3636H61.283V82H59.538V80.6428H59.4585C59.2861 81.0703 59.0027 81.42 58.6083 81.6918C58.2172 81.9635 57.735 82.0994 57.1616 82.0994C56.6611 82.0994 56.2186 81.9884 55.8342 81.7663C55.453 81.541 55.1547 81.2145 54.9393 80.7869C54.7238 80.3561 54.6161 79.8357 54.6161 79.2259V74.3636H56.4158V78.9474C56.4158 79.4313 56.5484 79.8158 56.8136 80.1009C57.0787 80.3859 57.4267 80.5284 57.8576 80.5284C58.1228 80.5284 58.3796 80.4638 58.6282 80.3345C58.8768 80.2053 59.0806 80.013 59.2397 79.7578C59.4021 79.4993 59.4833 79.1761 59.4833 78.7884ZM63.1337 82V74.3636H64.8787V75.6364H64.9583C65.0975 75.1955 65.3361 74.8558 65.6742 74.6172C66.0156 74.3752 66.405 74.2543 66.8425 74.2543C66.9419 74.2543 67.053 74.2592 67.1756 74.2692C67.3016 74.2758 67.406 74.2874 67.4888 74.304V75.9595C67.4126 75.933 67.2916 75.9098 67.1259 75.8899C66.9635 75.8667 66.806 75.8551 66.6536 75.8551C66.3255 75.8551 66.0305 75.9264 65.7686 76.0689C65.5101 76.2081 65.3063 76.402 65.1571 76.6506C65.008 76.8991 64.9334 77.1858 64.9334 77.5107V82H63.1337ZM68.6845 82V74.3636H70.4842V82H68.6845ZM69.5893 73.2798C69.3043 73.2798 69.059 73.1854 68.8535 72.9964C68.648 72.8042 68.5453 72.5739 68.5453 72.3054C68.5453 72.0336 68.648 71.8033 68.8535 71.6143C69.059 71.4221 69.3043 71.326 69.5893 71.326C69.8777 71.326 70.1229 71.4221 70.3251 71.6143C70.5306 71.8033 70.6333 72.0336 70.6333 72.3054C70.6333 72.5739 70.5306 72.8042 70.3251 72.9964C70.1229 73.1854 69.8777 73.2798 69.5893 73.2798ZM77.2021 78.7884V74.3636H79.0018V82H77.2567V80.6428H77.1772C77.0049 81.0703 76.7215 81.42 76.3271 81.6918C75.936 81.9635 75.4537 82.0994 74.8803 82.0994C74.3799 82.0994 73.9374 81.9884 73.5529 81.7663C73.1718 81.541 72.8735 81.2145 72.658 80.7869C72.4426 80.3561 72.3349 79.8357 72.3349 79.2259V74.3636H74.1346V78.9474C74.1346 79.4313 74.2672 79.8158 74.5323 80.1009C74.7975 80.3859 75.1455 80.5284 75.5763 80.5284C75.8415 80.5284 76.0984 80.4638 76.3469 80.3345C76.5955 80.2053 76.7994 80.013 76.9585 79.7578C77.1209 79.4993 77.2021 79.1761 77.2021 78.7884ZM86.888 76.3821L85.2473 76.5611C85.2009 76.3954 85.1197 76.2396 85.0037 76.0938C84.891 75.9479 84.7386 75.8303 84.5463 75.7408C84.3541 75.6513 84.1188 75.6065 83.8404 75.6065C83.4658 75.6065 83.151 75.6877 82.8958 75.8501C82.6439 76.0125 82.5196 76.223 82.5229 76.4815C82.5196 76.7036 82.6008 76.8842 82.7665 77.0234C82.9355 77.1626 83.214 77.277 83.6017 77.3665L84.9043 77.6449C85.6268 77.8007 86.1638 78.0476 86.5151 78.3857C86.8697 78.7237 87.0487 79.1662 87.052 79.7131C87.0487 80.1937 86.9078 80.6179 86.6294 80.9858C86.3543 81.3504 85.9715 81.6354 85.481 81.8409C84.9905 82.0464 84.427 82.1491 83.7907 82.1491C82.856 82.1491 82.1036 81.9536 81.5336 81.5625C80.9635 81.1681 80.6238 80.6196 80.5144 79.9169L82.2694 79.7479C82.3489 80.0926 82.5179 80.3527 82.7765 80.5284C83.035 80.7041 83.3714 80.7919 83.7857 80.7919C84.2132 80.7919 84.5563 80.7041 84.8148 80.5284C85.0766 80.3527 85.2076 80.1357 85.2076 79.8771C85.2076 79.6584 85.123 79.4777 84.954 79.3352C84.7883 79.1927 84.5298 79.0833 84.1784 79.0071L82.8759 78.7337C82.1434 78.5812 81.6015 78.3243 81.2502 77.9631C80.8989 77.5985 80.7248 77.1378 80.7282 76.581C80.7248 76.1103 80.8525 75.7027 81.111 75.358C81.3728 75.0099 81.7357 74.7415 82.1998 74.5526C82.6671 74.3603 83.2057 74.2642 83.8155 74.2642C84.7104 74.2642 85.4147 74.4548 85.9284 74.8359C86.4455 75.2171 86.7653 75.7325 86.888 76.3821Z" fill="white"/>
</g>
<defs>
<filter id="filter0_d_5846_13501" x="0" y="0" width="107" height="109" filterUnits="userSpaceOnUse" color-interpolation-filters="sRGB">
<feFlood flood-opacity="0" result="BackgroundImageFix"/>
<feColorMatrix in="SourceAlpha" type="matrix" values="0 0 0 0 0 0 0 0 0 0 0 0 0 0 0 0 0 0 127 0" result="hardAlpha"/>
<feOffset dy="2"/>
<feGaussianBlur stdDeviation="4"/>
<feColorMatrix type="matrix" values="0 0 0 0 0 0 0 0 0 0 0 0 0 0 0 0 0 0 0.25 0"/>
<feBlend mode="normal" in2="BackgroundImageFix" result="effect1_dropShadow_5846_13501"/>
<feBlend mode="normal" in="SourceGraphic" in2="effect1_dropShadow_5846_13501" result="shape"/>
</filter>
</defs>
</svg>
