<svg width="107" height="109" viewBox="0 0 107 109" fill="none" xmlns="http://www.w3.org/2000/svg">
<g filter="url(#filter0_d_5829_13278)">
<rect x="8" y="6" width="91" height="93" rx="12" fill="#151B23"/>
<rect x="9" y="7" width="89" height="91" rx="11" stroke="#1F2937" stroke-width="2"/>
<g clip-path="url(#clip0_5829_13278)">
<path d="M45.0625 48.0379C46.6399 45.78 49.8498 44.2344 53.5531 44.2344C57.2564 44.2344 60.4664 45.78 62.0437 48.0379C60.4664 50.2955 57.2564 51.8411 53.5531 51.8411C49.8498 51.8411 46.6399 50.2955 45.0625 48.0379Z" fill="url(#paint0_radial_5829_13278)"/>
<path d="M45.0039 31.263C46.5803 29.0292 49.7881 27.5 53.4891 27.5C57.19 27.5 60.398 29.0292 61.9743 31.263C60.398 33.4968 57.19 35.026 53.4891 35.026C49.7881 35.026 46.5803 33.4968 45.0039 31.263Z" fill="url(#paint1_radial_5829_13278)"/>
<path d="M53.6521 39.7161C51.3587 41.9312 48.2481 43.1757 45.0048 43.1757C41.7614 43.1757 38.6508 41.9312 36.3574 39.7161L45.0048 31.2637L53.6521 39.7161Z" fill="url(#paint2_radial_5829_13278)"/>
<path d="M70.6424 39.7203C68.3489 41.9354 65.2383 43.1798 61.9951 43.1798C58.7517 43.1798 55.6411 41.9354 53.3477 39.7203L61.9951 31.2637L70.6424 39.7203Z" fill="url(#paint3_radial_5829_13278)"/>
</g>
<path d="M32.0043 71.8182H34.2614L37.2841 79.196H37.4034L40.4261 71.8182H42.6832V82H40.9134V75.005H40.8189L38.005 81.9702H36.6825L33.8686 74.9901H33.7741V82H32.0043V71.8182ZM44.6122 82V74.3636H46.4119V82H44.6122ZM45.517 73.2798C45.232 73.2798 44.9867 73.1854 44.7812 72.9964C44.5758 72.8042 44.473 72.5739 44.473 72.3054C44.473 72.0336 44.5758 71.8033 44.7812 71.6143C44.9867 71.4221 45.232 71.326 45.517 71.326C45.8054 71.326 46.0507 71.4221 46.2528 71.6143C46.4583 71.8033 46.5611 72.0336 46.5611 72.3054C46.5611 72.5739 46.4583 72.8042 46.2528 72.9964C46.0507 73.1854 45.8054 73.2798 45.517 73.2798ZM50.0623 71.8182V82H48.2626V71.8182H50.0623ZM53.7127 71.8182V82H51.913V71.8182H53.7127ZM55.5634 82V74.3636H57.3631V82H55.5634ZM56.4682 73.2798C56.1832 73.2798 55.9379 73.1854 55.7324 72.9964C55.5269 72.8042 55.4242 72.5739 55.4242 72.3054C55.4242 72.0336 55.5269 71.8033 55.7324 71.6143C55.9379 71.4221 56.1832 71.326 56.4682 71.326C56.7566 71.326 57.0018 71.4221 57.204 71.6143C57.4095 71.8033 57.5123 72.0336 57.5123 72.3054C57.5123 72.5739 57.4095 72.8042 57.204 72.9964C57.0018 73.1854 56.7566 73.2798 56.4682 73.2798ZM62.5447 82.1491C61.799 82.1491 61.1527 81.9851 60.6058 81.657C60.0589 81.3288 59.6347 80.8698 59.3331 80.2798C59.0348 79.6899 58.8857 79.0005 58.8857 78.2116C58.8857 77.4228 59.0348 76.7318 59.3331 76.1385C59.6347 75.5452 60.0589 75.0845 60.6058 74.7564C61.1527 74.4283 61.799 74.2642 62.5447 74.2642C63.2905 74.2642 63.9368 74.4283 64.4837 74.7564C65.0305 75.0845 65.4531 75.5452 65.7514 76.1385C66.053 76.7318 66.2038 77.4228 66.2038 78.2116C66.2038 79.0005 66.053 79.6899 65.7514 80.2798C65.4531 80.8698 65.0305 81.3288 64.4837 81.657C63.9368 81.9851 63.2905 82.1491 62.5447 82.1491ZM62.5547 80.7074C62.959 80.7074 63.2971 80.5964 63.5689 80.3743C63.8407 80.1489 64.0429 79.8473 64.1754 79.4695C64.3113 79.0916 64.3793 78.6707 64.3793 78.2067C64.3793 77.7393 64.3113 77.3168 64.1754 76.9389C64.0429 76.5578 63.8407 76.2545 63.5689 76.0291C63.2971 75.8037 62.959 75.6911 62.5547 75.6911C62.1404 75.6911 61.7957 75.8037 61.5206 76.0291C61.2488 76.2545 61.045 76.5578 60.9091 76.9389C60.7765 77.3168 60.7102 77.7393 60.7102 78.2067C60.7102 78.6707 60.7765 79.0916 60.9091 79.4695C61.045 79.8473 61.2488 80.1489 61.5206 80.3743C61.7957 80.5964 62.1404 80.7074 62.5547 80.7074ZM69.5311 77.5256V82H67.7314V74.3636H69.4515V75.6612H69.541C69.7167 75.2337 69.9967 74.8939 70.3812 74.642C70.769 74.3902 71.2479 74.2642 71.818 74.2642C72.345 74.2642 72.804 74.3769 73.1951 74.6023C73.5895 74.8277 73.8945 75.1541 74.1099 75.5817C74.3287 76.0092 74.4364 76.5279 74.4331 77.1378V82H72.6333V77.4162C72.6333 76.9058 72.5008 76.5064 72.2356 76.218C71.9738 75.9297 71.6109 75.7855 71.1468 75.7855C70.832 75.7855 70.5519 75.8551 70.3066 75.9943C70.0647 76.1302 69.8741 76.3274 69.7349 76.5859C69.599 76.8445 69.5311 77.1577 69.5311 77.5256Z" fill="white"/>
</g>
<defs>
<filter id="filter0_d_5829_13278" x="0" y="0" width="107" height="109" filterUnits="userSpaceOnUse" color-interpolation-filters="sRGB">
<feFlood flood-opacity="0" result="BackgroundImageFix"/>
<feColorMatrix in="SourceAlpha" type="matrix" values="0 0 0 0 0 0 0 0 0 0 0 0 0 0 0 0 0 0 127 0" result="hardAlpha"/>
<feOffset dy="2"/>
<feGaussianBlur stdDeviation="4"/>
<feColorMatrix type="matrix" values="0 0 0 0 0 0 0 0 0 0 0 0 0 0 0 0 0 0 0.25 0"/>
<feBlend mode="normal" in2="BackgroundImageFix" result="effect1_dropShadow_5829_13278"/>
<feBlend mode="normal" in="SourceGraphic" in2="effect1_dropShadow_5829_13278" result="shape"/>
</filter>
<radialGradient id="paint0_radial_5829_13278" cx="0" cy="0" r="1" gradientUnits="userSpaceOnUse" gradientTransform="translate(894.123 424.562) scale(548.594 245.743)">
<stop stop-color="#845CE7"/>
<stop offset="1" stop-color="#AF73D8"/>
</radialGradient>
<radialGradient id="paint1_radial_5829_13278" cx="0" cy="0" r="1" gradientUnits="userSpaceOnUse" gradientTransform="translate(894.553 811.457) scale(1142.12 506.506)">
<stop stop-color="#845CE7"/>
<stop offset="1" stop-color="#AF73D8"/>
</radialGradient>
<radialGradient id="paint2_radial_5829_13278" cx="0" cy="0" r="1" gradientUnits="userSpaceOnUse" gradientTransform="translate(1750.64 438.921) scale(735.38 506.506)">
<stop stop-color="#845CE7"/>
<stop offset="1" stop-color="#AF73D8"/>
</radialGradient>
<radialGradient id="paint3_radial_5829_13278" cx="0" cy="0" r="1" gradientUnits="userSpaceOnUse" gradientTransform="translate(68.5317 438.921) scale(735.126 506.506)">
<stop stop-color="#845CE7"/>
<stop offset="1" stop-color="#AF73D8"/>
</radialGradient>
<clipPath id="clip0_5829_13278">
<rect width="34.2857" height="24.375" fill="white" transform="translate(36.3574 27.5)"/>
</clipPath>
</defs>
</svg>
