<svg width="107" height="109" viewBox="0 0 107 109" fill="none" xmlns="http://www.w3.org/2000/svg">
<g filter="url(#filter0_d_5829_13679)">
<rect x="8" y="6" width="91" height="93" rx="12" fill="#151B23"/>
<rect x="9" y="7" width="89" height="91" rx="11" stroke="#1F2937" stroke-width="2"/>
<path d="M38.9559 24.711C39.7426 24.5167 40.5555 24.45 41.3634 24.5135C46.2592 24.5193 51.153 24.5193 56.0446 24.5135C56.8761 24.4963 57.694 24.7259 58.395 25.1733C59.0961 25.6208 59.6488 26.2659 59.9834 27.0272C60.2438 27.6632 60.3412 28.3541 60.2667 29.0373C60.1922 29.7205 59.9482 30.3742 59.5569 30.9391C59.1656 31.504 58.6394 31.9622 58.026 32.2721C57.4126 32.582 56.7315 32.7337 56.0446 32.7135C50.7738 32.7076 45.503 32.7076 40.2321 32.7135C39.2019 32.7378 38.1999 32.3757 37.4233 31.6983C36.6467 31.0209 36.1518 30.0774 36.0359 29.0535C35.927 28.1007 36.161 27.1403 36.6962 26.3445C37.2313 25.5487 38.0324 24.9696 38.9559 24.711Z" fill="#F75D3C"/>
<path d="M65.762 24.6835C66.7653 24.4222 67.83 24.5439 68.7486 25.0248C69.6671 25.5056 70.3737 26.3113 70.7307 27.2847C70.9085 27.7879 70.9843 28.3214 70.9537 28.8542C70.923 29.387 70.7865 29.9083 70.5521 30.3877C70.3178 30.8672 69.9902 31.2951 69.5887 31.6466C69.1871 31.998 68.7195 32.266 68.2132 32.4347C67.625 32.6508 66.9954 32.7304 66.372 32.6675C65.7485 32.6046 65.1475 32.4009 64.6143 32.0718C64.0811 31.7427 63.6297 31.2967 63.294 30.7675C62.9584 30.2384 62.7474 29.6399 62.677 29.0172C62.5779 28.0435 62.8363 27.0671 63.4038 26.2697C63.9714 25.4724 64.8095 24.9086 65.762 24.6835Z" fill="#F75D3C"/>
<path d="M49.6756 36.2913C50.4725 36.159 51.2813 36.1125 52.0881 36.1526C56.9918 36.1638 61.8993 36.1526 66.8031 36.1613C67.3445 36.1491 67.883 36.2454 68.3867 36.4444C68.8904 36.6434 69.3492 36.9413 69.7361 37.3203C70.123 37.6994 70.4301 38.152 70.6393 38.6515C70.8486 39.1511 70.9558 39.6874 70.9547 40.2291C70.9535 40.7707 70.844 41.3066 70.6325 41.8052C70.4211 42.3039 70.1121 42.7552 69.7236 43.1325C69.3351 43.5099 68.875 43.8057 68.3704 44.0026C67.8658 44.1995 67.327 44.2934 66.7856 44.2788C61.4106 44.2788 56.0356 44.2901 50.6606 44.2788C49.6595 44.2734 48.6969 43.8927 47.9628 43.2121C47.2288 42.5315 46.7766 41.6004 46.6956 40.6026C46.6008 39.6474 46.8484 38.6896 47.3942 37.9C47.94 37.1103 48.7485 36.5403 49.6756 36.2913Z" fill="#F75D3C"/>
<path d="M39.1734 47.4447C39.7185 47.3625 40.2699 47.3294 40.8209 47.3459C45.9984 47.3659 51.1734 47.3372 56.3484 47.3597C56.8899 47.3723 57.4235 47.4929 57.9178 47.7144C58.4122 47.936 58.8573 48.254 59.227 48.6499C59.5968 49.0457 59.8838 49.5115 60.0712 50.0197C60.2586 50.528 60.3427 51.0685 60.3184 51.6097C60.2542 52.637 59.8083 53.6032 59.0682 54.3186C58.3281 55.0339 57.3473 55.4467 56.3184 55.4759C50.8642 55.4818 45.4101 55.4818 39.9559 55.4759C38.9669 55.4485 38.0219 55.0612 37.2983 54.3866C36.5746 53.712 36.122 52.7965 36.0253 51.8119C35.9286 50.8272 36.1946 49.8412 36.7733 49.0387C37.352 48.2363 38.2036 47.6726 39.1684 47.4534L39.1734 47.4447Z" fill="#F75D3C"/>
<path d="M65.4867 47.5381C66.4995 47.2071 67.6001 47.273 68.5661 47.7225C69.5321 48.1719 70.2914 48.9714 70.6905 49.9593C70.8929 50.527 70.9687 51.132 70.9125 51.7321C70.8563 52.3321 70.6695 52.9126 70.3652 53.4327C70.0609 53.9529 69.6465 54.4003 69.1511 54.7433C68.6556 55.0864 68.0911 55.317 67.4971 55.4188C66.9031 55.5206 66.2941 55.4912 65.7126 55.3327C65.1312 55.1742 64.5915 54.8904 64.1313 54.5012C63.6712 54.112 63.3018 53.6269 63.049 53.0798C62.7962 52.5327 62.6662 51.937 62.668 51.3343C62.6695 50.4832 62.9441 49.6549 63.4515 48.9715C63.959 48.2882 64.6724 47.7857 65.4867 47.5381Z" fill="#F75D3C"/>
<path d="M38.951 36.2499C39.6977 36.0242 40.4928 36.0134 41.2453 36.2187C41.9978 36.424 42.6773 36.8371 43.2059 37.4107C43.7345 37.9843 44.0909 38.6952 44.2342 39.4619C44.3775 40.2287 44.3019 41.0203 44.0162 41.7461C43.7304 42.4719 43.246 43.1025 42.6184 43.5657C41.9908 44.029 41.2454 44.3061 40.4677 44.3653C39.6899 44.4245 38.9112 44.2635 38.2207 43.9006C37.5302 43.5378 36.9559 42.9878 36.5635 42.3136C36.252 41.7708 36.0665 41.1649 36.0209 40.5408C35.9752 39.9166 36.0706 39.2902 36.2999 38.7079C36.5291 38.1256 36.8865 37.6023 37.3454 37.1768C37.8043 36.7513 38.353 36.4345 38.951 36.2499Z" fill="#F93748"/>
<path d="M38.0043 71.8182H40.2614L43.2841 79.196H43.4034L46.4261 71.8182H48.6832V82H46.9134V75.005H46.8189L44.005 81.9702H42.6825L39.8686 74.9901H39.7741V82H38.0043V71.8182ZM50.6122 74.3636H52.4119V82.4375C52.4119 82.9877 52.3075 83.4418 52.0987 83.7997C51.8899 84.1577 51.5883 84.4245 51.1939 84.6001C50.7995 84.7758 50.3205 84.8636 49.7571 84.8636C49.6908 84.8636 49.6295 84.862 49.5732 84.8587C49.5168 84.8587 49.4555 84.857 49.3892 84.8537V83.3871C49.4389 83.3904 49.4837 83.392 49.5234 83.392C49.5632 83.3954 49.6046 83.397 49.6477 83.397C49.9924 83.397 50.2393 83.3125 50.3885 83.1435C50.5376 82.9777 50.6122 82.7341 50.6122 82.4126V74.3636ZM51.5071 73.2798C51.2188 73.2798 50.9718 73.1854 50.7663 72.9964C50.5642 72.8042 50.4631 72.5739 50.4631 72.3054C50.4631 72.0336 50.5642 71.8033 50.7663 71.6143C50.9718 71.4221 51.2188 71.326 51.5071 71.326C51.7921 71.326 52.0357 71.4221 52.2379 71.6143C52.4434 71.8033 52.5462 72.0336 52.5462 72.3054C52.5462 72.5739 52.4434 72.8042 52.2379 72.9964C52.0357 73.1854 51.7921 73.2798 51.5071 73.2798ZM54.2626 82V74.3636H55.9828V75.6612H56.0723C56.2314 75.2237 56.4949 74.8823 56.8627 74.6371C57.2306 74.3885 57.6698 74.2642 58.1802 74.2642C58.6973 74.2642 59.1331 74.3902 59.4877 74.642C59.8457 74.8906 60.0976 75.2304 60.2434 75.6612H60.323C60.492 75.237 60.777 74.8989 61.1781 74.647C61.5824 74.3918 62.0614 74.2642 62.6149 74.2642C63.3175 74.2642 63.8909 74.4863 64.335 74.9304C64.7792 75.3745 65.0012 76.0225 65.0012 76.8743V82H63.1966V77.1527C63.1966 76.6787 63.0706 76.3324 62.8187 76.1136C62.5668 75.8916 62.2586 75.7805 61.894 75.7805C61.4598 75.7805 61.1201 75.9164 60.8748 76.1882C60.6329 76.4567 60.5119 76.8063 60.5119 77.2372V82H58.747V77.0781C58.747 76.6837 58.6277 76.3688 58.389 76.1335C58.1537 75.8982 57.8455 75.7805 57.4643 75.7805C57.2058 75.7805 56.9705 75.8468 56.7583 75.9794C56.5462 76.1087 56.3772 76.2926 56.2512 76.5312C56.1253 76.7666 56.0623 77.0417 56.0623 77.3565V82H54.2626ZM68.6268 71.8182V82H66.8271V71.8182H68.6268Z" fill="white"/>
</g>
<defs>
<filter id="filter0_d_5829_13679" x="0" y="0" width="107" height="109" filterUnits="userSpaceOnUse" color-interpolation-filters="sRGB">
<feFlood flood-opacity="0" result="BackgroundImageFix"/>
<feColorMatrix in="SourceAlpha" type="matrix" values="0 0 0 0 0 0 0 0 0 0 0 0 0 0 0 0 0 0 127 0" result="hardAlpha"/>
<feOffset dy="2"/>
<feGaussianBlur stdDeviation="4"/>
<feColorMatrix type="matrix" values="0 0 0 0 0 0 0 0 0 0 0 0 0 0 0 0 0 0 0.25 0"/>
<feBlend mode="normal" in2="BackgroundImageFix" result="effect1_dropShadow_5829_13679"/>
<feBlend mode="normal" in="SourceGraphic" in2="effect1_dropShadow_5829_13679" result="shape"/>
</filter>
</defs>
</svg>
