<svg width="107" height="109" viewBox="0 0 107 109" fill="none" xmlns="http://www.w3.org/2000/svg">
<g filter="url(#filter0_d_5845_13450)">
<rect x="8" y="6" width="91" height="93" rx="12" fill="#151B23"/>
<rect x="9" y="7" width="89" height="91" rx="11" stroke="#1F2937" stroke-width="2"/>
<path d="M53.7045 22.7031L54.632 24.4471C54.8408 24.7683 55.067 25.0534 55.3334 25.3184C56.1145 26.0888 56.842 26.9116 57.511 27.7811C59.0836 29.8463 60.145 32.1403 60.9025 34.6204C61.3576 36.1355 61.6039 37.6894 61.6226 39.2607C61.6976 43.9586 60.0874 47.9939 56.8404 51.3467C56.3122 51.8785 55.7415 52.3664 55.134 52.8055C54.8127 52.8055 54.6602 52.5593 54.5276 52.3317C54.2867 51.9101 54.1261 51.4484 54.0525 50.9665C53.9278 50.4013 53.877 49.8223 53.9013 49.244V48.979C53.8745 48.9228 53.5908 22.837 53.7045 22.7031Z" fill="#599636"/>
<path d="M53.7035 22.6469C53.6647 22.5706 53.6272 22.6282 53.5897 22.6656C53.6071 23.0458 53.4746 23.3857 53.2685 23.7096C53.0396 24.0308 52.7371 24.2771 52.4333 24.5435C50.7496 26.0023 49.4219 27.7637 48.3619 29.7338C46.9485 32.3853 46.2204 35.2281 46.0129 38.2194C45.9192 39.2995 46.3542 43.1073 46.6955 44.2062C47.623 47.1239 49.2907 49.5679 51.4496 51.6893C51.9809 52.2006 52.5471 52.6744 53.136 53.1294C53.306 53.1294 53.3234 52.9769 53.3635 52.8644C53.4376 52.6225 53.4944 52.3756 53.5335 52.1256L53.9136 49.2842L53.7035 22.6469Z" fill="#6CAC48"/>
<path d="M54.6331 53.9578C54.6719 53.5241 54.8793 53.1628 55.1069 52.8027C54.8793 52.709 54.7094 52.5217 54.5769 52.3102C54.4624 52.1117 54.3678 51.9023 54.2945 51.6852C54.0294 50.8901 53.9732 50.055 53.8969 49.2425V48.75C53.8019 48.8263 53.7818 49.4701 53.7818 49.5664C53.7269 50.4254 53.6129 51.2795 53.4405 52.1228C53.3843 52.4641 53.3469 52.8041 53.1367 53.1079C53.1367 53.1454 53.1367 53.1828 53.1555 53.2404C53.4968 54.2442 53.5904 55.2668 53.648 56.3094V56.6895C53.648 57.1446 53.6293 57.0482 54.0067 57.2008C54.1579 57.257 54.3279 57.2771 54.4805 57.3895C54.5943 57.3895 54.613 57.2958 54.613 57.2195L54.5554 56.5945V54.8505C54.538 54.5467 54.5943 54.2442 54.6317 53.9591L54.6331 53.9578Z" fill="#C2BFBF"/>
<path d="M31.0023 71.8182H33.2594L36.2821 79.196H36.4015L39.4242 71.8182H41.6813V82H39.9114V75.005H39.8169L37.003 81.9702H35.6806L32.8667 74.9901H32.7722V82H31.0023V71.8182ZM46.9412 82.1491C46.1955 82.1491 45.5492 81.9851 45.0023 81.657C44.4554 81.3288 44.0312 80.8698 43.7296 80.2798C43.4313 79.6899 43.2821 79.0005 43.2821 78.2116C43.2821 77.4228 43.4313 76.7318 43.7296 76.1385C44.0312 75.5452 44.4554 75.0845 45.0023 74.7564C45.5492 74.4283 46.1955 74.2642 46.9412 74.2642C47.687 74.2642 48.3333 74.4283 48.8801 74.7564C49.427 75.0845 49.8496 75.5452 50.1479 76.1385C50.4495 76.7318 50.6003 77.4228 50.6003 78.2116C50.6003 79.0005 50.4495 79.6899 50.1479 80.2798C49.8496 80.8698 49.427 81.3288 48.8801 81.657C48.3333 81.9851 47.687 82.1491 46.9412 82.1491ZM46.9512 80.7074C47.3555 80.7074 47.6936 80.5964 47.9654 80.3743C48.2372 80.1489 48.4393 79.8473 48.5719 79.4695C48.7078 79.0916 48.7757 78.6707 48.7757 78.2067C48.7757 77.7393 48.7078 77.3168 48.5719 76.9389C48.4393 76.5578 48.2372 76.2545 47.9654 76.0291C47.6936 75.8037 47.3555 75.6911 46.9512 75.6911C46.5369 75.6911 46.1922 75.8037 45.9171 76.0291C45.6453 76.2545 45.4415 76.5578 45.3056 76.9389C45.173 77.3168 45.1067 77.7393 45.1067 78.2067C45.1067 78.6707 45.173 79.0916 45.3056 79.4695C45.4415 79.8473 45.6453 80.1489 45.9171 80.3743C46.1922 80.5964 46.5369 80.7074 46.9512 80.7074ZM53.9276 77.5256V82H52.1278V74.3636H53.848V75.6612H53.9375C54.1132 75.2337 54.3932 74.8939 54.7777 74.642C55.1655 74.3902 55.6444 74.2642 56.2145 74.2642C56.7415 74.2642 57.2005 74.3769 57.5916 74.6023C57.986 74.8277 58.291 75.1541 58.5064 75.5817C58.7251 76.0092 58.8329 76.5279 58.8295 77.1378V82H57.0298V77.4162C57.0298 76.9058 56.8973 76.5064 56.6321 76.218C56.3703 75.9297 56.0073 75.7855 55.5433 75.7855C55.2285 75.7855 54.9484 75.8551 54.7031 75.9943C54.4612 76.1302 54.2706 76.3274 54.1314 76.5859C53.9955 76.8445 53.9276 77.1577 53.9276 77.5256ZM63.9801 85.0227C63.3338 85.0227 62.7786 84.9349 62.3146 84.7592C61.8506 84.5869 61.4777 84.3549 61.196 84.0632C60.9143 83.7715 60.7188 83.4484 60.6094 83.0938L62.2301 82.701C62.303 82.8501 62.4091 82.9976 62.5483 83.1435C62.6875 83.2926 62.8748 83.4152 63.1101 83.5114C63.3487 83.6108 63.6487 83.6605 64.0099 83.6605C64.5204 83.6605 64.9429 83.5362 65.2777 83.2876C65.6125 83.0424 65.7798 82.638 65.7798 82.0746V80.6278H65.6903C65.5975 80.8134 65.4616 81.004 65.2827 81.1996C65.107 81.3951 64.8733 81.5592 64.5817 81.6918C64.2933 81.8243 63.9304 81.8906 63.4929 81.8906C62.9062 81.8906 62.3743 81.7531 61.897 81.478C61.4231 81.1996 61.0452 80.7853 60.7635 80.2351C60.4851 79.6816 60.3459 78.9889 60.3459 78.157C60.3459 77.3184 60.4851 76.6108 60.7635 76.0341C61.0452 75.4541 61.4247 75.0149 61.902 74.7166C62.3793 74.415 62.9112 74.2642 63.4979 74.2642C63.9453 74.2642 64.3132 74.3404 64.6016 74.4929C64.8932 74.642 65.1252 74.8227 65.2976 75.0348C65.4699 75.2436 65.6009 75.4408 65.6903 75.6264H65.7898V74.3636H67.5646V82.1243C67.5646 82.7772 67.4089 83.3175 67.0973 83.745C66.7857 84.1726 66.3598 84.4924 65.8196 84.7045C65.2794 84.9167 64.6662 85.0227 63.9801 85.0227ZM63.995 80.4787C64.3762 80.4787 64.701 80.3859 64.9695 80.2003C65.2379 80.0147 65.4418 79.7479 65.581 79.3999C65.7202 79.0518 65.7898 78.6342 65.7898 78.147C65.7898 77.6664 65.7202 77.2455 65.581 76.8842C65.4451 76.523 65.2429 76.2429 64.9744 76.044C64.7093 75.8419 64.3828 75.7408 63.995 75.7408C63.594 75.7408 63.2592 75.8452 62.9908 76.054C62.7223 76.2628 62.5201 76.5495 62.3842 76.9141C62.2483 77.2753 62.1804 77.6863 62.1804 78.147C62.1804 78.6143 62.2483 79.0237 62.3842 79.375C62.5234 79.723 62.7273 79.9948 62.9957 80.1903C63.2675 80.3826 63.6006 80.4787 63.995 80.4787ZM72.7401 82.1491C71.9943 82.1491 71.348 81.9851 70.8011 81.657C70.2543 81.3288 69.83 80.8698 69.5284 80.2798C69.2301 79.6899 69.081 79.0005 69.081 78.2116C69.081 77.4228 69.2301 76.7318 69.5284 76.1385C69.83 75.5452 70.2543 75.0845 70.8011 74.7564C71.348 74.4283 71.9943 74.2642 72.7401 74.2642C73.4858 74.2642 74.1321 74.4283 74.679 74.7564C75.2259 75.0845 75.6484 75.5452 75.9467 76.1385C76.2483 76.7318 76.3991 77.4228 76.3991 78.2116C76.3991 79.0005 76.2483 79.6899 75.9467 80.2798C75.6484 80.8698 75.2259 81.3288 74.679 81.657C74.1321 81.9851 73.4858 82.1491 72.7401 82.1491ZM72.75 80.7074C73.1544 80.7074 73.4924 80.5964 73.7642 80.3743C74.036 80.1489 74.2382 79.8473 74.3707 79.4695C74.5066 79.0916 74.5746 78.6707 74.5746 78.2067C74.5746 77.7393 74.5066 77.3168 74.3707 76.9389C74.2382 76.5578 74.036 76.2545 73.7642 76.0291C73.4924 75.8037 73.1544 75.6911 72.75 75.6911C72.3357 75.6911 71.991 75.8037 71.7159 76.0291C71.4441 76.2545 71.2403 76.5578 71.1044 76.9389C70.9718 77.3168 70.9055 77.7393 70.9055 78.2067C70.9055 78.6707 70.9718 79.0916 71.1044 79.4695C71.2403 79.8473 71.4441 80.1489 71.7159 80.3743C71.991 80.5964 72.3357 80.7074 72.75 80.7074Z" fill="white"/>
</g>
<defs>
<filter id="filter0_d_5845_13450" x="0" y="0" width="107" height="109" filterUnits="userSpaceOnUse" color-interpolation-filters="sRGB">
<feFlood flood-opacity="0" result="BackgroundImageFix"/>
<feColorMatrix in="SourceAlpha" type="matrix" values="0 0 0 0 0 0 0 0 0 0 0 0 0 0 0 0 0 0 127 0" result="hardAlpha"/>
<feOffset dy="2"/>
<feGaussianBlur stdDeviation="4"/>
<feColorMatrix type="matrix" values="0 0 0 0 0 0 0 0 0 0 0 0 0 0 0 0 0 0 0.25 0"/>
<feBlend mode="normal" in2="BackgroundImageFix" result="effect1_dropShadow_5845_13450"/>
<feBlend mode="normal" in="SourceGraphic" in2="effect1_dropShadow_5845_13450" result="shape"/>
</filter>
</defs>
</svg>
