<svg width="107" height="109" viewBox="0 0 107 109" fill="none" xmlns="http://www.w3.org/2000/svg">
<g filter="url(#filter0_d_5845_13464)">
<rect x="8" y="6" width="91" height="93" rx="12" fill="#151B23"/>
<rect x="9" y="7" width="89" height="91" rx="11" stroke="#1F2937" stroke-width="2"/>
<path fill-rule="evenodd" clip-rule="evenodd" d="M44.4068 28.1993C44.0757 28.1974 43.7458 28.2395 43.4258 28.3242V28.368H43.4733C43.7032 28.7146 43.9581 29.0415 44.2381 29.349C44.4305 29.7314 44.598 30.1125 44.7892 30.4949L44.8366 30.4462C45.0136 30.3048 45.1522 30.1211 45.2395 29.9121C45.3269 29.7031 45.3602 29.4755 45.3365 29.2502C45.2312 29.0893 45.1352 28.9224 45.0491 28.7504C44.9054 28.5117 44.5942 28.3917 44.403 28.2005" fill="#5D87A1"/>
<path fill-rule="evenodd" clip-rule="evenodd" d="M68.1445 49.0521C66.5681 48.9415 64.9864 49.1699 63.5057 49.722C63.1471 49.8657 62.5747 49.8657 62.5247 50.3193C62.7172 50.5105 62.7397 50.8192 62.9084 51.0853C63.2358 51.6389 63.6569 52.1326 64.1518 52.5437C64.6517 52.9261 65.1515 53.3072 65.6826 53.6421C66.6136 54.2182 67.6671 54.5519 68.5743 55.1255C69.1017 55.4604 69.6265 55.8903 70.1539 56.2502C70.4163 56.4414 70.5825 56.75 70.9174 56.875V56.8025C70.8181 56.5373 70.6965 56.2811 70.5538 56.0365C70.3151 55.799 70.0752 55.5829 69.8352 55.3442C69.1345 54.4171 68.2959 53.6028 67.3484 52.9298C66.5824 52.4025 64.9078 51.6802 64.5992 50.8054L64.5504 50.7567C65.111 50.6772 65.6634 50.5484 66.2012 50.3718C67.0135 50.1568 67.7546 50.2056 68.5906 49.9969C68.9742 49.9007 69.6678 49.662 69.6678 49.662V49.2871C69.2404 48.8622 68.9342 48.2936 68.4844 47.8925C67.2615 46.8228 65.9571 45.8501 64.5829 44.9833C63.8494 44.5096 62.9034 44.2047 62.1224 43.8011C61.8399 43.6586 61.3726 43.5886 61.2014 43.3512C60.813 42.7813 60.4878 42.1708 60.2316 41.5305C59.5327 40.1843 58.8861 38.8116 58.2934 37.4153C57.9449 36.4939 57.5422 35.5938 57.0875 34.7198C54.8949 30.9948 51.732 27.9351 47.9363 25.8673C46.9787 25.4025 45.9601 25.076 44.9108 24.8975C44.3185 24.8725 43.7287 24.8263 43.1376 24.8038C42.7571 24.5523 42.3942 24.2751 42.0516 23.974C40.6995 23.118 37.2254 21.2785 36.2307 23.7141C35.5934 25.2524 37.178 26.7645 37.7216 27.5456C38.1802 28.0954 38.5838 28.6902 38.9275 29.3188C39.0937 29.7212 39.1412 30.1473 39.3024 30.5685C39.6498 31.6507 40.0609 32.7079 40.5358 33.7401C40.7899 34.2508 41.0815 34.739 41.4105 35.2047C41.6017 35.4659 41.9316 35.5796 42.0029 36.0107C41.7405 36.5731 41.558 37.1704 41.458 37.784C40.6243 40.4186 40.8711 43.2766 42.1441 45.7293C42.519 46.3204 43.4212 47.6213 44.6272 47.1239C45.6906 46.699 45.4544 45.3507 45.7618 44.1697C45.8318 43.8836 45.7856 43.6961 45.9268 43.5074V43.7374C45.9268 43.7374 46.5304 45.0632 46.8303 45.7368C47.6457 46.9729 48.659 48.0664 49.8295 48.9734C50.2919 49.3771 50.6655 49.8744 50.9242 50.4318V50.8604H51.4578C51.447 50.6671 51.3936 50.4785 51.3013 50.3082C51.2091 50.138 51.0803 49.9903 50.9242 49.8757C50.4868 49.425 50.0873 48.9418 49.7258 48.4261C48.7476 47.0329 47.885 45.5622 47.1465 44.0285C46.7716 43.2787 46.4554 42.4565 46.1555 41.7079C46.018 41.4192 46.018 40.9831 45.7868 40.8332C45.3602 41.3384 44.9898 41.8886 44.6821 42.474C44.3087 43.6574 44.0915 44.8845 44.0361 46.1242C43.9448 46.1492 43.9898 46.1242 43.9448 46.1717C43.2088 45.978 42.9551 45.182 42.6777 44.5071C41.9613 42.4258 41.889 40.1769 42.4703 38.0539C42.6302 37.5478 43.3238 35.9532 43.0463 35.4696C42.9076 35.0085 42.4465 34.7448 42.1941 34.3812C41.8731 33.8912 41.5959 33.3739 41.3656 32.8354C40.817 31.4907 40.5395 29.9911 39.9422 28.6365C39.6115 27.985 39.2265 27.3626 38.7913 26.7758C38.3099 26.1895 37.8852 25.559 37.5229 24.8925C37.4079 24.6264 37.2467 24.1915 37.4304 23.9016C37.4428 23.821 37.4811 23.7467 37.5395 23.6899C37.5979 23.6331 37.6732 23.5968 37.754 23.5866C38.0515 23.3217 38.905 23.6591 39.2036 23.8041C40.0064 24.1201 40.771 24.5254 41.483 25.0125C41.8054 25.2549 42.5652 25.8685 42.5652 25.8685H42.7902C43.555 26.0347 44.4147 25.9148 45.1345 26.1309C46.3467 26.5346 47.5026 27.0894 48.5773 27.7805C51.7428 29.7997 54.3166 32.6219 56.0365 35.9595C56.3239 36.5081 56.4452 37.0117 56.7076 37.584C57.2075 38.7587 57.8323 39.9584 58.3321 41.1006C58.7733 42.2303 59.3444 43.3062 60.0317 44.3047C60.3891 44.8046 61.8249 45.0695 62.471 45.3319C63.0325 45.526 63.5824 45.7489 64.1206 46.0005C64.9341 46.5003 65.7451 47.0764 66.5112 47.625C66.8923 47.9125 68.0882 48.5098 68.1607 48.9884" fill="#00758F"/>
<path d="M34.0853 71.8182H36.3424L39.3651 79.196H39.4845L42.5072 71.8182H44.7643V82H42.9944V75.005H42.8999L40.086 81.9702H38.7636L35.9497 74.9901H35.8552V82H34.0853V71.8182ZM47.8119 84.8636C47.5666 84.8636 47.3396 84.8438 47.1308 84.804C46.9253 84.7675 46.7612 84.7244 46.6386 84.6747L47.0562 83.2727C47.318 83.349 47.5517 83.3854 47.7572 83.3821C47.9627 83.3788 48.1433 83.3142 48.2991 83.1882C48.4582 83.0656 48.5924 82.8601 48.7018 82.5717L48.8559 82.1591L46.0867 74.3636H47.9958L49.7558 80.1307H49.8353L51.6002 74.3636H53.5143L50.4568 82.9247C50.3142 83.3291 50.1253 83.6754 49.89 83.9638C49.6547 84.2554 49.3663 84.4775 49.0249 84.63C48.6869 84.7857 48.2825 84.8636 47.8119 84.8636ZM60.7952 76.3821L59.1546 76.5611C59.1082 76.3954 59.027 76.2396 58.911 76.0938C58.7983 75.9479 58.6458 75.8303 58.4536 75.7408C58.2613 75.6513 58.026 75.6065 57.7476 75.6065C57.3731 75.6065 57.0582 75.6877 56.803 75.8501C56.5511 76.0125 56.4268 76.223 56.4301 76.4815C56.4268 76.7036 56.508 76.8842 56.6737 77.0234C56.8428 77.1626 57.1212 77.277 57.509 77.3665L58.8115 77.6449C59.5341 77.8007 60.071 78.0476 60.4223 78.3857C60.777 78.7237 60.9559 79.1662 60.9593 79.7131C60.9559 80.1937 60.8151 80.6179 60.5367 80.9858C60.2616 81.3504 59.8788 81.6354 59.3882 81.8409C58.8977 82.0464 58.3343 82.1491 57.6979 82.1491C56.7632 82.1491 56.0109 81.9536 55.4408 81.5625C54.8707 81.1681 54.531 80.6196 54.4216 79.9169L56.1766 79.7479C56.2561 80.0926 56.4252 80.3527 56.6837 80.5284C56.9422 80.7041 57.2786 80.7919 57.6929 80.7919C58.1205 80.7919 58.4635 80.7041 58.722 80.5284C58.9839 80.3527 59.1148 80.1357 59.1148 79.8771C59.1148 79.6584 59.0303 79.4777 58.8612 79.3352C58.6955 79.1927 58.437 79.0833 58.0857 79.0071L56.7831 78.7337C56.0506 78.5812 55.5087 78.3243 55.1574 77.9631C54.8061 77.5985 54.6321 77.1378 54.6354 76.581C54.6321 76.1103 54.7597 75.7027 55.0182 75.358C55.28 75.0099 55.643 74.7415 56.107 74.5526C56.5743 74.3603 57.1129 74.2642 57.7227 74.2642C58.6176 74.2642 59.3219 74.4548 59.8357 74.8359C60.3527 75.2171 60.6726 75.7325 60.7952 76.3821ZM67.5392 84.8636V80.7969H67.4646C67.3718 80.9825 67.2375 81.1797 67.0619 81.3885C66.8862 81.594 66.6542 81.7696 66.3659 81.9155C66.0775 82.0613 65.7146 82.1342 65.2771 82.1342C64.6772 82.1342 64.1402 81.9801 63.6663 81.6719C63.1923 81.3636 62.8178 80.9162 62.5427 80.3295C62.2676 79.7429 62.1301 79.0303 62.1301 78.1918C62.1301 77.3433 62.2693 76.6274 62.5477 76.044C62.8294 75.4574 63.2089 75.0149 63.6862 74.7166C64.1634 74.415 64.6954 74.2642 65.282 74.2642C65.7295 74.2642 66.0974 74.3404 66.3857 74.4929C66.6741 74.642 66.9028 74.8227 67.0718 75.0348C67.2409 75.2436 67.3718 75.4408 67.4646 75.6264H67.574V74.3636H69.3438V84.8636H67.5392ZM65.7792 80.6577C66.1604 80.6577 66.4852 80.5549 66.7536 80.3494C67.0221 80.1406 67.2259 79.8506 67.3651 79.4794C67.5044 79.1082 67.574 78.6757 67.574 78.1818C67.574 77.688 67.5044 77.2588 67.3651 76.8942C67.2293 76.5296 67.0271 76.2462 66.7586 76.044C66.4935 75.8419 66.167 75.7408 65.7792 75.7408C65.3782 75.7408 65.0434 75.8452 64.7749 76.054C64.5065 76.2628 64.3043 76.5511 64.1684 76.919C64.0325 77.2869 63.9646 77.7079 63.9646 78.1818C63.9646 78.6591 64.0325 79.085 64.1684 79.4595C64.3076 79.8307 64.5115 80.1241 64.7799 80.3395C65.0517 80.5516 65.3848 80.6577 65.7792 80.6577ZM72.993 71.8182V82H71.1933V71.8182H72.993Z" fill="white"/>
</g>
<defs>
<filter id="filter0_d_5845_13464" x="0" y="0" width="107" height="109" filterUnits="userSpaceOnUse" color-interpolation-filters="sRGB">
<feFlood flood-opacity="0" result="BackgroundImageFix"/>
<feColorMatrix in="SourceAlpha" type="matrix" values="0 0 0 0 0 0 0 0 0 0 0 0 0 0 0 0 0 0 127 0" result="hardAlpha"/>
<feOffset dy="2"/>
<feGaussianBlur stdDeviation="4"/>
<feColorMatrix type="matrix" values="0 0 0 0 0 0 0 0 0 0 0 0 0 0 0 0 0 0 0.25 0"/>
<feBlend mode="normal" in2="BackgroundImageFix" result="effect1_dropShadow_5845_13464"/>
<feBlend mode="normal" in="SourceGraphic" in2="effect1_dropShadow_5845_13464" result="shape"/>
</filter>
</defs>
</svg>
