<svg width="107" height="109" viewBox="0 0 107 109" fill="none" xmlns="http://www.w3.org/2000/svg">
<g filter="url(#filter0_d_5829_16627)">
<rect x="8" y="6" width="91" height="93" rx="12" fill="#151B23"/>
<rect x="9" y="7" width="89" height="91" rx="11" stroke="#1F2937" stroke-width="2"/>
<g clip-path="url(#clip0_5829_16627)">
<path fill-rule="evenodd" clip-rule="evenodd" d="M37.207 28.6418L45.6539 20.1094V59.7824L37.207 51.3485V28.6418Z" fill="url(#paint0_linear_5829_16627)"/>
<path fill-rule="evenodd" clip-rule="evenodd" d="M69.8465 28.7188L61.2939 20.1094L61.4673 59.7824L69.9043 51.3475L69.8465 28.7188Z" fill="url(#paint1_linear_5829_16627)"/>
<path fill-rule="evenodd" clip-rule="evenodd" d="M45.6534 20.1641L67.616 53.6894L61.4702 59.8371L39.4961 26.386L45.6534 20.1641Z" fill="url(#paint2_linear_5829_16627)"/>
<path fill-rule="evenodd" clip-rule="evenodd" d="M45.654 35.6319L45.6424 36.949L38.8965 26.9604L39.5211 26.3223L45.654 35.6319Z" fill="black" fill-opacity="0.13"/>
</g>
<path d="M36.8714 71.8182V82H35.2308L30.4332 75.0646H30.3487V82H28.5043V71.8182H30.1548L34.9474 78.7585H35.0369V71.8182H36.8714ZM42.1824 82.1491C41.4167 82.1491 40.7555 81.9901 40.1987 81.6719C39.6452 81.3504 39.2193 80.8963 38.921 80.3097C38.6227 79.7197 38.4735 79.0253 38.4735 78.2266C38.4735 77.4411 38.6227 76.7517 38.921 76.1584C39.2226 75.5618 39.6435 75.0978 40.1838 74.7663C40.724 74.4316 41.3587 74.2642 42.0879 74.2642C42.5585 74.2642 43.0027 74.3404 43.4203 74.4929C43.8412 74.642 44.2124 74.8741 44.5339 75.1889C44.8587 75.5038 45.1139 75.9048 45.2995 76.392C45.4851 76.8759 45.5779 77.4527 45.5779 78.1222V78.674H39.3187V77.4609H43.8528C43.8495 77.1162 43.7749 76.8097 43.6291 76.5412C43.4833 76.2694 43.2794 76.0556 43.0176 75.8999C42.7591 75.7441 42.4574 75.6662 42.1127 75.6662C41.7449 75.6662 41.4217 75.7557 41.1433 75.9347C40.8649 76.1103 40.6478 76.3423 40.492 76.6307C40.3395 76.9157 40.2617 77.2289 40.2583 77.5703V78.6293C40.2583 79.0734 40.3395 79.4545 40.502 79.7727C40.6644 80.0876 40.8914 80.3295 41.1831 80.4986C41.4747 80.6643 41.8161 80.7472 42.2072 80.7472C42.469 80.7472 42.706 80.7107 42.9181 80.6378C43.1303 80.5616 43.3142 80.4505 43.47 80.3047C43.6258 80.1589 43.7434 79.9782 43.823 79.7628L45.5034 79.9517C45.3973 80.3958 45.1951 80.7836 44.8968 81.1151C44.6019 81.4432 44.224 81.6984 43.7633 81.8807C43.3026 82.0597 42.7756 82.1491 42.1824 82.1491ZM50.4315 82.1491C49.6857 82.1491 49.0394 81.9851 48.4925 81.657C47.9457 81.3288 47.5214 80.8698 47.2198 80.2798C46.9215 79.6899 46.7724 79.0005 46.7724 78.2116C46.7724 77.4228 46.9215 76.7318 47.2198 76.1385C47.5214 75.5452 47.9457 75.0845 48.4925 74.7564C49.0394 74.4283 49.6857 74.2642 50.4315 74.2642C51.1772 74.2642 51.8235 74.4283 52.3704 74.7564C52.9173 75.0845 53.3398 75.5452 53.6381 76.1385C53.9397 76.7318 54.0906 77.4228 54.0906 78.2116C54.0906 79.0005 53.9397 79.6899 53.6381 80.2798C53.3398 80.8698 52.9173 81.3288 52.3704 81.657C51.8235 81.9851 51.1772 82.1491 50.4315 82.1491ZM50.4414 80.7074C50.8458 80.7074 51.1838 80.5964 51.4556 80.3743C51.7274 80.1489 51.9296 79.8473 52.0621 79.4695C52.198 79.0916 52.266 78.6707 52.266 78.2067C52.266 77.7393 52.198 77.3168 52.0621 76.9389C51.9296 76.5578 51.7274 76.2545 51.4556 76.0291C51.1838 75.8037 50.8458 75.6911 50.4414 75.6911C50.0271 75.6911 49.6824 75.8037 49.4073 76.0291C49.1355 76.2545 48.9317 76.5578 48.7958 76.9389C48.6632 77.3168 48.5969 77.7393 48.5969 78.2067C48.5969 78.6707 48.6632 79.0916 48.7958 79.4695C48.9317 79.8473 49.1355 80.1489 49.4073 80.3743C49.6824 80.5964 50.0271 80.7074 50.4414 80.7074ZM62.1793 74.3636L59.4599 82H57.4712L54.7518 74.3636H56.6708L58.4258 80.0362H58.5053L60.2653 74.3636H62.1793ZM63.4247 82V74.3636H65.2244V82H63.4247ZM64.3295 73.2798C64.0445 73.2798 63.7992 73.1854 63.5938 72.9964C63.3883 72.8042 63.2855 72.5739 63.2855 72.3054C63.2855 72.0336 63.3883 71.8033 63.5938 71.6143C63.7992 71.4221 64.0445 71.326 64.3295 71.326C64.6179 71.326 64.8632 71.4221 65.0653 71.6143C65.2708 71.8033 65.3736 72.0336 65.3736 72.3054C65.3736 72.5739 65.2708 72.8042 65.0653 72.9964C64.8632 73.1854 64.6179 73.2798 64.3295 73.2798ZM67.0751 82V74.3636H68.7953V75.6612H68.8848C69.0439 75.2237 69.3074 74.8823 69.6752 74.6371C70.0431 74.3885 70.4823 74.2642 70.9927 74.2642C71.5098 74.2642 71.9456 74.3902 72.3002 74.642C72.6582 74.8906 72.9101 75.2304 73.0559 75.6612H73.1355C73.3045 75.237 73.5895 74.8989 73.9906 74.647C74.3949 74.3918 74.8739 74.2642 75.4274 74.2642C76.13 74.2642 76.7034 74.4863 77.1475 74.9304C77.5917 75.3745 77.8137 76.0225 77.8137 76.8743V82H76.0091V77.1527C76.0091 76.6787 75.8831 76.3324 75.6312 76.1136C75.3793 75.8916 75.0711 75.7805 74.7065 75.7805C74.2723 75.7805 73.9326 75.9164 73.6873 76.1882C73.4454 76.4567 73.3244 76.8063 73.3244 77.2372V82H71.5595V77.0781C71.5595 76.6837 71.4402 76.3688 71.2015 76.1335C70.9662 75.8982 70.658 75.7805 70.2768 75.7805C70.0183 75.7805 69.783 75.8468 69.5708 75.9794C69.3587 76.1087 69.1897 76.2926 69.0637 76.5312C68.9378 76.7666 68.8748 77.0417 68.8748 77.3565V82H67.0751Z" fill="white"/>
</g>
<defs>
<filter id="filter0_d_5829_16627" x="0" y="0" width="107" height="109" filterUnits="userSpaceOnUse" color-interpolation-filters="sRGB">
<feFlood flood-opacity="0" result="BackgroundImageFix"/>
<feColorMatrix in="SourceAlpha" type="matrix" values="0 0 0 0 0 0 0 0 0 0 0 0 0 0 0 0 0 0 127 0" result="hardAlpha"/>
<feOffset dy="2"/>
<feGaussianBlur stdDeviation="4"/>
<feColorMatrix type="matrix" values="0 0 0 0 0 0 0 0 0 0 0 0 0 0 0 0 0 0 0.25 0"/>
<feBlend mode="normal" in2="BackgroundImageFix" result="effect1_dropShadow_5829_16627"/>
<feBlend mode="normal" in="SourceGraphic" in2="effect1_dropShadow_5829_16627" result="shape"/>
</filter>
<linearGradient id="paint0_linear_5829_16627" x1="459.55" y1="20.1094" x2="459.55" y2="3987.41" gradientUnits="userSpaceOnUse">
<stop stop-color="#16B0ED" stop-opacity="0.800236"/>
<stop offset="1" stop-color="#0F59B2" stop-opacity="0.837"/>
</linearGradient>
<linearGradient id="paint1_linear_5829_16627" x1="-360.613" y1="20.1094" x2="-360.613" y2="3987.41" gradientUnits="userSpaceOnUse">
<stop stop-color="#7DB643"/>
<stop offset="1" stop-color="#367533"/>
</linearGradient>
<linearGradient id="paint2_linear_5829_16627" x1="1445.49" y1="20.1641" x2="1445.49" y2="3987.47" gradientUnits="userSpaceOnUse">
<stop stop-color="#88C649" stop-opacity="0.8"/>
<stop offset="1" stop-color="#439240" stop-opacity="0.84"/>
</linearGradient>
<clipPath id="clip0_5829_16627">
<rect width="32.8065" height="40" fill="white" transform="translate(37.0977 20)"/>
</clipPath>
</defs>
</svg>
