<svg width="107" height="109" viewBox="0 0 107 109" fill="none" xmlns="http://www.w3.org/2000/svg">
<g filter="url(#filter0_d_5845_13922)">
<rect x="8" y="6" width="91" height="93" rx="12" fill="#151B23"/>
<rect x="9" y="7" width="89" height="91" rx="11" stroke="#1F2937" stroke-width="2"/>
<path d="M56.6189 22.5C56.3796 22.5054 56.1427 22.5496 55.9175 22.6306C56.3812 22.9402 56.6307 23.3439 56.7613 23.8076C56.7744 23.8677 56.7862 23.9147 56.7979 23.9748C56.8097 24.0336 56.8214 24.0819 56.8214 24.1407C56.8567 24.9376 56.6072 25.0329 56.4413 25.5084C56.18 26.1146 56.2506 26.769 56.5719 27.2929C56.5954 27.3516 56.6307 27.4235 56.679 27.494C56.3342 25.1988 58.2492 24.8553 58.6058 24.1407C58.6294 23.5111 58.1173 23.0944 57.7136 22.8083C57.3832 22.6088 57.005 22.5023 56.6189 22.5ZM59.4967 23.0108C59.4615 23.225 59.485 23.1662 59.4732 23.272C59.4615 23.3439 59.4615 23.4392 59.4497 23.5111C59.4262 23.5816 59.4145 23.6535 59.3896 23.724L59.3191 23.9382C59.2838 24.0101 59.259 24.0689 59.2237 24.1525L59.1532 24.2596C59.1284 24.2831 59.1166 24.3197 59.0931 24.3432C59.0461 24.402 58.9977 24.4738 58.9625 24.5209C58.9024 24.581 58.8671 24.6397 58.7953 24.6881V24.6998C58.7365 24.7482 58.6881 24.7952 58.6294 24.8435C58.4386 24.9859 58.2244 25.0917 58.0232 25.2354C57.9631 25.2824 57.8926 25.3177 57.8443 25.366C57.7865 25.4116 57.7307 25.4595 57.6771 25.5097L57.5112 25.6756C57.4641 25.7344 57.4158 25.7932 57.3805 25.8533C57.333 25.9141 57.2894 25.9778 57.2499 26.044C57.2146 26.1146 57.1898 26.1747 57.1545 26.2583C57.131 26.3288 57.0944 26.3889 57.0827 26.4725C57.0592 26.5548 57.0357 26.6266 57.0239 26.6972C57.0108 26.7338 57.0108 26.7808 57.0004 26.8174C56.9873 26.8526 56.9873 26.8879 56.9756 26.9245C56.9756 26.995 56.9638 27.0786 56.9638 27.1492C56.9638 27.2093 56.9638 27.2563 56.9769 27.3164C56.9786 27.386 56.9865 27.4614 57.0004 27.5424C57.0121 27.6142 57.0239 27.6861 57.0474 27.7566L57.1193 27.9708C57.1428 28.0179 57.1663 28.0649 57.178 28.1015L55.0971 27.2915C54.7405 27.1975 54.3956 27.1021 54.0507 27.0185C53.8617 26.9697 53.6714 26.9261 53.4799 26.8879C52.9324 26.7812 52.3806 26.698 51.8261 26.6384C51.8026 26.6384 51.8026 26.6253 51.7791 26.6253C51.242 26.5675 50.702 26.54 50.1618 26.543C49.7569 26.543 49.365 26.5665 48.9731 26.5914C48.4245 26.6266 47.8667 26.6972 47.3193 26.7925C47.1887 26.8174 47.045 26.8409 46.9144 26.8644C46.6296 26.9245 46.367 26.9833 46.094 27.0434L45.689 27.1492C45.5584 27.2101 45.4278 27.2659 45.2971 27.3164C45.1997 27.364 45.1004 27.4076 44.9993 27.447C44.9758 27.4601 44.964 27.4601 44.9523 27.4705C44.868 27.5118 44.7848 27.5554 44.7028 27.6011C44.6839 27.6119 44.6637 27.6202 44.6427 27.626C44.5486 27.673 44.4415 27.7213 44.3579 27.7684C44.2949 27.7934 44.2349 27.8254 44.1789 27.8637C44.1554 27.8872 44.1202 27.899 44.0966 27.9107C44.0181 27.9564 43.9384 27.9999 43.8576 28.0414C43.7749 28.091 43.7039 28.1346 43.6447 28.172C43.5846 28.2203 43.514 28.2556 43.4657 28.3026C43.4526 28.3157 43.4422 28.3157 43.4422 28.3275C43.3816 28.3644 43.3255 28.4082 43.275 28.4581L43.2515 28.4816C43.2057 28.5145 43.162 28.5502 43.1208 28.5887C43.0973 28.6018 43.0856 28.6122 43.0607 28.624C43.0137 28.6606 42.9667 28.7076 42.9301 28.7429C42.9184 28.7677 42.9066 28.7677 42.8948 28.7794C42.8347 28.8382 42.7877 28.8748 42.7276 28.9336C42.7159 28.9336 42.7159 28.9466 42.7041 28.9571C42.6466 29.0065 42.5912 29.0583 42.5382 29.1125C42.5252 29.1243 42.5252 29.1361 42.5147 29.1361C42.4677 29.1807 42.424 29.2287 42.3841 29.2798C42.3593 29.302 42.3357 29.3137 42.324 29.3385C42.275 29.396 42.2236 29.4514 42.1698 29.5044C42.1568 29.528 42.145 29.528 42.1333 29.5528C42.0627 29.6233 42.0026 29.6952 41.9203 29.7657L41.8955 29.7905C41.7532 29.9497 41.5981 30.0969 41.4318 30.2307C41.2701 30.3758 41.0995 30.5106 40.921 30.6344C40.7454 30.7606 40.5622 30.8758 40.3724 30.9793C40.001 31.1789 39.6112 31.342 39.2084 31.4665C38.827 31.5501 38.4351 31.7043 38.102 31.7278C38.0301 31.7278 37.9478 31.7526 37.876 31.7526C37.7924 31.7761 37.7218 31.7879 37.65 31.8114C37.5782 31.8362 37.5063 31.8715 37.4358 31.895C37.3652 31.9185 37.2921 31.9551 37.2215 31.9904C37.1627 32.0374 37.0909 32.074 37.0204 32.121C36.9603 32.1693 36.8897 32.2163 36.8414 32.2751C36.7766 32.3251 36.7167 32.3811 36.6624 32.4423C36.6036 32.5011 36.5566 32.5599 36.5083 32.62C36.4613 32.6918 36.4129 32.7506 36.3777 32.8342C36.3245 32.8993 36.2805 32.9714 36.247 33.0485C36.2104 33.1321 36.1752 33.2039 36.1517 33.2862C36.1281 33.3581 36.0916 33.4417 36.0681 33.524C36.0445 33.5958 36.0328 33.6677 36.021 33.7382C36.021 33.7513 36.008 33.7617 36.008 33.7617C35.9845 33.8453 35.9845 33.9524 35.9845 34.0125C35.9708 34.0708 35.9629 34.1303 35.9609 34.1902C35.9609 34.2255 35.9609 34.2738 35.974 34.3091L36.0093 34.4763C36.0328 34.535 36.0445 34.5834 36.0681 34.6422V34.6552C36.0916 34.714 36.1281 34.761 36.1634 34.8211C36.1987 34.8799 36.2353 34.9282 36.2823 34.987C36.3297 35.039 36.3813 35.0871 36.4364 35.1307C36.4965 35.1895 36.5436 35.2248 36.6036 35.2731C36.8179 35.4625 36.878 35.5213 37.151 35.6781L37.2934 35.7486C37.3051 35.7486 37.3169 35.7604 37.3169 35.7604C37.3169 35.7839 37.3169 35.7839 37.33 35.8074C37.3551 35.9538 37.395 36.0974 37.4488 36.2359C37.4723 36.296 37.4959 36.343 37.5194 36.4031C37.5311 36.4266 37.5429 36.4383 37.5429 36.4501C37.5782 36.5219 37.6147 36.5807 37.65 36.6526C37.6983 36.7114 37.7454 36.7832 37.7806 36.842C37.8271 36.9021 37.8786 36.9581 37.9348 37.0092C37.9949 37.068 38.0419 37.1046 38.102 37.1633C38.102 37.1633 38.115 37.1764 38.1255 37.1764C38.1856 37.2234 38.2326 37.2705 38.2927 37.307C38.3515 37.3541 38.4233 37.3893 38.4939 37.4246C38.554 37.4629 38.6254 37.4947 38.7081 37.52C38.7662 37.5443 38.826 37.5644 38.8871 37.5801C38.8988 37.5918 38.9106 37.5918 38.9223 37.6036C38.9576 37.6166 39.0059 37.6271 39.0412 37.6271C39.0177 38.1156 39.0059 38.5794 39.0765 38.7453C39.1601 38.9243 39.5533 38.3769 39.9569 37.7342C39.8982 38.3652 39.8616 39.0902 39.9569 39.3161C40.0523 39.5421 40.5997 38.8406 41.0751 38.0556C47.497 36.569 53.361 41.0052 53.9789 47.2846C53.8613 46.3088 52.6595 45.7628 52.1004 45.8934C51.8261 46.5596 51.3623 47.427 50.6243 47.9626C50.6886 47.3588 50.6569 46.7486 50.5302 46.1547C50.3246 46.9869 49.9434 47.7654 49.412 48.4381C48.5564 48.4982 47.6877 48.0815 47.2357 47.4636C47.2004 47.4388 47.1887 47.38 47.1639 47.3447C47.1403 47.2846 47.1051 47.2141 47.0933 47.154C47.0685 47.0921 47.0484 47.0283 47.0332 46.9633C47.0215 46.9045 47.0215 46.8327 47.0215 46.7608V46.6302C47.0345 46.5714 47.045 46.4996 47.0698 46.4395C47.0933 46.3807 47.1051 46.3088 47.1286 46.25C47.1639 46.19 47.1887 46.1194 47.2357 46.0593C47.3899 45.6191 47.3899 45.2755 47.1051 45.0613C47.045 45.0247 46.998 45.0012 46.9379 44.9659C46.9026 44.9529 46.8556 44.9411 46.8203 44.9294C46.7955 44.9176 46.772 44.9059 46.7485 44.9059C46.6884 44.8823 46.6178 44.8706 46.5577 44.8588C46.499 44.8353 46.4271 44.8353 46.367 44.8353C46.3007 44.8218 46.2334 44.8135 46.1658 44.8105C46.1175 44.8105 46.0705 44.8236 46.0352 44.8236C45.9634 44.8236 45.9046 44.834 45.8327 44.8471L45.642 44.8823C45.5832 44.9059 45.5114 44.9176 45.4513 44.9411C45.3925 44.9659 45.3337 45.0012 45.2736 45.0247C45.2135 45.0482 45.1665 45.0848 45.1064 45.1201C42.9902 46.4996 44.2508 49.7222 45.7021 50.6497C45.1534 50.7451 44.6074 50.8639 44.4533 50.9828L44.4284 51.0076C44.8185 51.245 45.2285 51.4478 45.6538 51.6138C46.2364 51.8032 46.8556 51.9704 47.1168 52.054V52.0657C47.8672 52.2223 48.6351 52.2781 49.4003 52.2316C53.408 51.9469 56.7025 48.9019 57.2969 44.8706C57.3204 44.9542 57.3335 45.0247 57.357 45.1083C57.3805 45.2742 57.4158 45.4414 57.4406 45.6191V45.6322C57.4641 45.7145 57.4641 45.7981 57.4759 45.8686V45.9052C57.4876 45.9888 57.4994 46.0711 57.4994 46.1429C57.5125 46.2383 57.5229 46.3454 57.5229 46.4395V46.5832C57.5229 46.6302 57.536 46.6785 57.536 46.7255C57.536 46.7856 57.5229 46.8327 57.5229 46.8914V47.0221C57.5229 47.0822 57.5112 47.1423 57.5112 47.201C57.5112 47.2376 57.5112 47.2729 57.4994 47.3199C57.4994 47.38 57.4863 47.4505 57.4863 47.5224C57.4759 47.5459 57.4759 47.5812 57.4759 47.606C57.4622 47.6766 57.4543 47.7483 57.4524 47.8202C57.4524 47.8437 57.4524 47.879 57.4393 47.9025L57.404 48.1638V48.1886C57.3805 48.2722 57.3688 48.3545 57.3453 48.4381V48.4616C57.3204 48.5452 57.3087 48.6288 57.2852 48.7111C57.2852 48.7242 57.2734 48.736 57.2734 48.7477C57.2499 48.83 57.2381 48.9136 57.2146 48.9959V49.022C57.1898 49.1161 57.1545 49.1879 57.1428 49.2702C57.1297 49.2833 57.1297 49.2951 57.1297 49.2951C57.1075 49.3891 57.0709 49.4727 57.0474 49.5681L56.9521 49.8293C56.9168 49.9247 56.8933 50.0083 56.8567 50.0906C56.8214 50.186 56.7862 50.2578 56.7496 50.3519H56.7378C56.7031 50.4375 56.6638 50.5212 56.6203 50.6027C56.6095 50.6216 56.6012 50.6418 56.5954 50.6628C56.5824 50.6745 56.5824 50.6863 56.5719 50.6863C55.9678 51.8823 55.0973 52.9236 54.0272 53.73C53.9554 53.7783 53.8835 53.8253 53.813 53.8854C53.7895 53.909 53.7647 53.909 53.7529 53.9325C53.6896 53.9822 53.6218 54.0259 53.5504 54.0631L53.5752 54.1232H53.587C53.7176 54.0997 53.8352 54.0879 53.9671 54.0631H53.9802C54.2149 54.0266 54.4484 53.9831 54.6804 53.9325C54.7405 53.9207 54.811 53.909 54.8829 53.8854C54.9299 53.8724 54.9665 53.8619 55.0135 53.8619C55.0736 53.8489 55.1441 53.8371 55.2042 53.8253C55.263 53.8018 55.3113 53.8018 55.3701 53.7783C56.2689 53.5625 57.148 53.2719 57.9984 52.9096C56.5451 54.894 54.6089 56.4741 52.3734 57.5C53.4199 57.429 54.4561 57.2495 55.4655 56.9644C59.1042 55.8931 62.1782 53.4385 64.0283 50.1272C63.6579 52.226 62.8253 54.2161 61.5908 55.9533C62.4684 55.3764 63.2782 54.7025 64.0048 53.9442C66.0363 51.8266 67.3687 49.1363 67.8219 46.237C68.1315 47.6648 68.2268 49.1514 68.0831 50.6027C74.6251 41.4807 68.6318 32.0139 66.1211 29.528C66.1093 29.5044 66.0975 29.5044 66.0975 29.4809C66.0858 29.4927 66.0858 29.4927 66.0858 29.5044C66.0858 29.4927 66.0858 29.4927 66.074 29.4809C66.074 29.588 66.0623 29.6952 66.0505 29.8023C66.027 30.0165 65.9904 30.2072 65.9552 30.4084C65.9081 30.6109 65.8598 30.8134 65.801 31.0028C65.7409 31.1935 65.6704 31.3947 65.5868 31.5854C65.5032 31.7644 65.4196 31.9551 65.3124 32.134C65.2123 32.3079 65.1056 32.4778 64.9924 32.6435C64.8735 32.8107 64.7416 32.9779 64.6227 33.1321C64.4921 33.298 64.3379 33.4417 64.1956 33.5841C64.1002 33.6677 64.0283 33.7382 63.9343 33.81C63.8624 33.8688 63.8037 33.9276 63.7187 33.9877C63.5528 34.1183 63.3987 34.2385 63.208 34.3456C63.0336 34.4554 62.8549 34.5582 62.6724 34.6539C62.483 34.7493 62.2923 34.8211 62.1015 34.9034C61.9121 34.9753 61.7096 35.0341 61.5072 35.0941C61.3079 35.1497 61.1055 35.1933 60.901 35.2248C60.6959 35.2586 60.4893 35.2825 60.2818 35.2966C60.1355 35.3107 59.9886 35.3185 59.8416 35.3201C59.6287 35.3201 59.4262 35.2966 59.2237 35.2849C59.0161 35.2654 58.8097 35.2336 58.6058 35.1895C58.3916 35.1542 58.2009 35.0941 57.9984 35.0354H57.9867C58.1891 35.0105 58.3916 34.9988 58.5823 34.9635C58.7953 34.9282 58.986 34.8799 59.1885 34.8329C59.3896 34.7728 59.5934 34.714 59.7828 34.6422C59.9853 34.5703 60.1747 34.4763 60.3537 34.3927C60.5444 34.2973 60.7103 34.2019 60.901 34.0948C61.0669 33.9773 61.2459 33.8571 61.4118 33.7382C61.579 33.6076 61.7332 33.4769 61.8755 33.3332C62.031 33.2026 62.1616 33.0485 62.304 32.8943C62.4346 32.7271 62.5653 32.573 62.6841 32.4071C62.709 32.3822 62.7207 32.347 62.7442 32.3117C62.9462 31.9957 63.1252 31.6657 63.2798 31.3241C63.3621 31.1334 63.434 30.944 63.4928 30.7415C63.5528 30.5508 63.5999 30.3496 63.6482 30.1471C63.6835 29.9329 63.7187 29.7422 63.7436 29.541C63.7676 29.3355 63.7794 29.1287 63.7788 28.9218C63.7788 28.7781 63.7658 28.6371 63.7553 28.4816C63.7318 28.2674 63.707 28.0766 63.6835 27.8755C63.6482 27.6612 63.5999 27.4705 63.5528 27.268C63.4941 27.0786 63.4222 26.8761 63.3504 26.6854C63.2798 26.496 63.1845 26.3066 63.1022 26.1276C63.0028 25.9467 62.8991 25.7681 62.7913 25.592L62.4346 25.0917C62.304 24.9376 62.1603 24.7834 62.0192 24.628C61.9432 24.5494 61.8639 24.474 61.7815 24.402C61.3758 24.0845 60.9546 23.7871 60.5196 23.5111C60.4608 23.4745 60.402 23.451 60.3419 23.4157C60.0559 23.2015 59.7828 23.1061 59.4967 23.0108Z" fill="#EA2845"/>
<path d="M47.0326 71.8182V82H45.392L40.5944 75.0646H40.5099V82H38.6654V71.8182H40.316L45.1086 78.7585H45.1981V71.8182H47.0326ZM52.3435 82.1491C51.5779 82.1491 50.9166 81.9901 50.3598 81.6719C49.8063 81.3504 49.3804 80.8963 49.0821 80.3097C48.7838 79.7197 48.6347 79.0253 48.6347 78.2266C48.6347 77.4411 48.7838 76.7517 49.0821 76.1584C49.3837 75.5618 49.8047 75.0978 50.3449 74.7663C50.8852 74.4316 51.5199 74.2642 52.249 74.2642C52.7197 74.2642 53.1638 74.3404 53.5814 74.4929C54.0023 74.642 54.3736 74.8741 54.695 75.1889C55.0199 75.5038 55.2751 75.9048 55.4607 76.392C55.6463 76.8759 55.7391 77.4527 55.7391 78.1222V78.674H49.4798V77.4609H54.0139C54.0106 77.1162 53.9361 76.8097 53.7902 76.5412C53.6444 76.2694 53.4405 76.0556 53.1787 75.8999C52.9202 75.7441 52.6186 75.6662 52.2739 75.6662C51.906 75.6662 51.5828 75.7557 51.3044 75.9347C51.026 76.1103 50.8089 76.3423 50.6531 76.6307C50.5007 76.9157 50.4228 77.2289 50.4195 77.5703V78.6293C50.4195 79.0734 50.5007 79.4545 50.6631 79.7727C50.8255 80.0876 51.0525 80.3295 51.3442 80.4986C51.6359 80.6643 51.9772 80.7472 52.3683 80.7472C52.6302 80.7472 52.8672 80.7107 53.0793 80.6378C53.2914 80.5616 53.4753 80.4505 53.6311 80.3047C53.7869 80.1589 53.9046 79.9782 53.9841 79.7628L55.6645 79.9517C55.5584 80.3958 55.3563 80.7836 55.058 81.1151C54.763 81.4432 54.3852 81.6984 53.9244 81.8807C53.4637 82.0597 52.9368 82.1491 52.3435 82.1491ZM63.2971 76.3821L61.6565 76.5611C61.6101 76.3954 61.5289 76.2396 61.4129 76.0938C61.3002 75.9479 61.1478 75.8303 60.9555 75.7408C60.7633 75.6513 60.528 75.6065 60.2496 75.6065C59.875 75.6065 59.5602 75.6877 59.305 75.8501C59.0531 76.0125 58.9288 76.223 58.9321 76.4815C58.9288 76.7036 59.01 76.8842 59.1757 77.0234C59.3447 77.1626 59.6231 77.277 60.0109 77.3665L61.3135 77.6449C62.036 77.8007 62.5729 78.0476 62.9243 78.3857C63.2789 78.7237 63.4579 79.1662 63.4612 79.7131C63.4579 80.1937 63.317 80.6179 63.0386 80.9858C62.7635 81.3504 62.3807 81.6354 61.8902 81.8409C61.3997 82.0464 60.8362 82.1491 60.1998 82.1491C59.2652 82.1491 58.5128 81.9536 57.9427 81.5625C57.3727 81.1681 57.0329 80.6196 56.9236 79.9169L58.6785 79.7479C58.7581 80.0926 58.9271 80.3527 59.1856 80.5284C59.4442 80.7041 59.7806 80.7919 60.1949 80.7919C60.6224 80.7919 60.9655 80.7041 61.224 80.5284C61.4858 80.3527 61.6167 80.1357 61.6167 79.8771C61.6167 79.6584 61.5322 79.4777 61.3632 79.3352C61.1975 79.1927 60.939 79.0833 60.5876 79.0071L59.2851 78.7337C58.5526 78.5812 58.0107 78.3243 57.6594 77.9631C57.308 77.5985 57.134 77.1378 57.1373 76.581C57.134 76.1103 57.2616 75.7027 57.5202 75.358C57.782 75.0099 58.1449 74.7415 58.6089 74.5526C59.0763 74.3603 59.6148 74.2642 60.2247 74.2642C61.1196 74.2642 61.8239 74.4548 62.3376 74.8359C62.8547 75.2171 63.1745 75.7325 63.2971 76.3821ZM68.7584 74.3636V75.7557H64.3685V74.3636H68.7584ZM65.4523 72.5341H67.252V79.7031C67.252 79.9451 67.2885 80.1307 67.3614 80.2599C67.4376 80.3859 67.5371 80.4721 67.6597 80.5185C67.7823 80.5649 67.9182 80.5881 68.0674 80.5881C68.1801 80.5881 68.2828 80.5798 68.3756 80.5632C68.4717 80.5466 68.5447 80.5317 68.5944 80.5185L68.8976 81.9254C68.8015 81.9586 68.664 81.995 68.485 82.0348C68.3093 82.0746 68.0939 82.0978 67.8387 82.1044C67.3879 82.1177 66.9819 82.0497 66.6206 81.9006C66.2594 81.7481 65.9727 81.5128 65.7606 81.1946C65.5518 80.8764 65.449 80.4787 65.4523 80.0014V72.5341Z" fill="white"/>
</g>
<defs>
<filter id="filter0_d_5845_13922" x="0" y="0" width="107" height="109" filterUnits="userSpaceOnUse" color-interpolation-filters="sRGB">
<feFlood flood-opacity="0" result="BackgroundImageFix"/>
<feColorMatrix in="SourceAlpha" type="matrix" values="0 0 0 0 0 0 0 0 0 0 0 0 0 0 0 0 0 0 127 0" result="hardAlpha"/>
<feOffset dy="2"/>
<feGaussianBlur stdDeviation="4"/>
<feColorMatrix type="matrix" values="0 0 0 0 0 0 0 0 0 0 0 0 0 0 0 0 0 0 0.25 0"/>
<feBlend mode="normal" in2="BackgroundImageFix" result="effect1_dropShadow_5845_13922"/>
<feBlend mode="normal" in="SourceGraphic" in2="effect1_dropShadow_5845_13922" result="shape"/>
</filter>
</defs>
</svg>
