<svg width="107" height="109" viewBox="0 0 107 109" fill="none" xmlns="http://www.w3.org/2000/svg">
<g filter="url(#filter0_d_5828_13461)">
<rect x="8" y="6" width="91" height="93" rx="12" fill="#151B23"/>
<rect x="9" y="7" width="89" height="91" rx="11" stroke="#1F2937" stroke-width="2"/>
<g clip-path="url(#clip0_5828_13461)">
<path d="M52.1915 20.0303C52.1056 20.0381 51.8322 20.0654 51.5861 20.085C45.9109 20.5966 40.595 23.6588 37.2282 28.3654C35.3533 30.9823 34.1542 33.9508 33.7012 37.095C33.541 38.1926 33.5215 38.5168 33.5215 40.0049C33.5215 41.493 33.541 41.8172 33.7012 42.9148C34.787 50.4179 40.1263 56.722 47.3678 59.0577C48.6645 59.4757 50.0316 59.7608 51.5861 59.9326C52.1915 59.999 54.8085 59.999 55.4139 59.9326C58.0972 59.6358 60.3704 58.9718 62.6124 57.8274C62.9561 57.6516 63.0225 57.6047 62.9756 57.5657C62.9444 57.5422 61.4797 55.5776 59.722 53.2028L56.5271 48.8868L52.5235 42.9616C50.3206 39.7041 48.5083 37.0403 48.4927 37.0403C48.4771 37.0364 48.4614 39.669 48.4536 42.8835C48.4419 48.5119 48.438 48.7384 48.3677 48.8712C48.2661 49.0626 48.188 49.1407 48.024 49.2267C47.899 49.2891 47.7896 49.3009 47.1998 49.3009H46.5241L46.3444 49.1876C46.2273 49.1134 46.1413 49.0157 46.0828 48.9025L46.0007 48.7267L46.0085 40.8954L46.0203 33.0603L46.1413 32.9079C46.2038 32.8259 46.3366 32.7205 46.4304 32.6697C46.5905 32.5916 46.653 32.5837 47.3287 32.5837C48.1255 32.5837 48.2583 32.615 48.4653 32.8415C48.5239 32.904 50.6917 36.1693 53.2852 40.1025C55.8787 44.0358 59.4252 49.4063 61.1672 52.0428L64.331 56.8353L64.4911 56.7298C65.9089 55.808 67.4088 54.4957 68.5962 53.1286C71.1233 50.2266 72.752 46.6878 73.2989 42.9148C73.459 41.8172 73.4785 41.493 73.4785 40.0049C73.4785 38.5168 73.459 38.1926 73.2989 37.095C72.213 29.5919 66.8737 23.2878 59.6322 20.9521C58.355 20.538 56.9958 20.2529 55.4725 20.0811C55.0975 20.042 52.5157 19.999 52.1915 20.0303ZM60.3704 32.115C60.5579 32.2088 60.7102 32.3885 60.7649 32.5759C60.7962 32.6775 60.804 34.8491 60.7962 39.7432L60.7844 46.766L59.5463 44.8677L58.3042 42.9695V37.8645C58.3042 34.564 58.3198 32.7087 58.3433 32.6189C58.4058 32.4002 58.5425 32.2283 58.73 32.1268C58.8901 32.0447 58.9487 32.0369 59.5619 32.0369C60.14 32.0369 60.2415 32.0447 60.3704 32.115Z" fill="#F3F4F6"/>
<path d="M64.1347 56.9219C63.998 57.0078 63.9551 57.0664 64.0762 57C64.1621 56.9492 64.3027 56.8437 64.2793 56.8398C64.2675 56.8398 64.2011 56.8789 64.1347 56.9219ZM63.8652 57.0976C63.7949 57.1523 63.7949 57.1562 63.8809 57.1133C63.9277 57.0898 63.9668 57.0625 63.9668 57.0547C63.9668 57.0234 63.9473 57.0312 63.8652 57.0976ZM63.6699 57.2148C63.5996 57.2695 63.5996 57.2734 63.6856 57.2304C63.7324 57.207 63.7715 57.1797 63.7715 57.1718C63.7715 57.1406 63.752 57.1484 63.6699 57.2148ZM63.4746 57.332C63.4043 57.3867 63.4043 57.3906 63.4903 57.3476C63.5371 57.3242 63.5762 57.2968 63.5762 57.289C63.5762 57.2578 63.5567 57.2656 63.4746 57.332ZM63.1778 57.4882C63.0294 57.5663 63.0372 57.5976 63.1856 57.5234C63.252 57.4882 63.3028 57.4531 63.3028 57.4453C63.3028 57.4179 63.2989 57.4218 63.1778 57.4882Z" fill="#F3F4F6"/>
</g>
<path d="M46.8714 71.8182V82H45.2308L40.4332 75.0646H40.3487V82H38.5043V71.8182H40.1548L44.9474 78.7585H45.0369V71.8182H46.8714ZM52.1824 82.1491C51.4167 82.1491 50.7555 81.9901 50.1987 81.6719C49.6452 81.3504 49.2193 80.8963 48.921 80.3097C48.6227 79.7197 48.4735 79.0253 48.4735 78.2266C48.4735 77.4411 48.6227 76.7517 48.921 76.1584C49.2226 75.5618 49.6435 75.0978 50.1838 74.7663C50.724 74.4316 51.3587 74.2642 52.0879 74.2642C52.5585 74.2642 53.0027 74.3404 53.4203 74.4929C53.8412 74.642 54.2124 74.8741 54.5339 75.1889C54.8587 75.5038 55.1139 75.9048 55.2995 76.392C55.4851 76.8759 55.5779 77.4527 55.5779 78.1222V78.674H49.3187V77.4609H53.8528C53.8495 77.1162 53.7749 76.8097 53.6291 76.5412C53.4833 76.2694 53.2794 76.0556 53.0176 75.8999C52.7591 75.7441 52.4574 75.6662 52.1127 75.6662C51.7449 75.6662 51.4217 75.7557 51.1433 75.9347C50.8649 76.1103 50.6478 76.3423 50.492 76.6307C50.3395 76.9157 50.2617 77.2289 50.2583 77.5703V78.6293C50.2583 79.0734 50.3395 79.4545 50.502 79.7727C50.6644 80.0876 50.8914 80.3295 51.1831 80.4986C51.4747 80.6643 51.8161 80.7472 52.2072 80.7472C52.469 80.7472 52.706 80.7107 52.9181 80.6378C53.1303 80.5616 53.3142 80.4505 53.47 80.3047C53.6258 80.1589 53.7434 79.9782 53.823 79.7628L55.5034 79.9517C55.3973 80.3958 55.1951 80.7836 54.8968 81.1151C54.6019 81.4432 54.224 81.6984 53.7633 81.8807C53.3026 82.0597 52.7756 82.1491 52.1824 82.1491ZM58.408 74.3636L59.9492 77.1825L61.5153 74.3636H63.4194L61.1175 78.1818L63.4592 82H61.565L59.9492 79.2507L58.3484 82H56.4393L58.766 78.1818L56.4989 74.3636H58.408ZM68.6246 74.3636V75.7557H64.2347V74.3636H68.6246ZM65.3185 72.5341H67.1183V79.7031C67.1183 79.9451 67.1547 80.1307 67.2276 80.2599C67.3039 80.3859 67.4033 80.4721 67.5259 80.5185C67.6486 80.5649 67.7844 80.5881 67.9336 80.5881C68.0463 80.5881 68.149 80.5798 68.2418 80.5632C68.3379 80.5466 68.4109 80.5317 68.4606 80.5185L68.7638 81.9254C68.6677 81.9586 68.5302 81.995 68.3512 82.0348C68.1755 82.0746 67.9601 82.0978 67.7049 82.1044C67.2541 82.1177 66.8481 82.0497 66.4869 81.9006C66.1256 81.7481 65.8389 81.5128 65.6268 81.1946C65.418 80.8764 65.3152 80.4787 65.3185 80.0014V72.5341Z" fill="white"/>
</g>
<defs>
<filter id="filter0_d_5828_13461" x="0" y="0" width="107" height="109" filterUnits="userSpaceOnUse" color-interpolation-filters="sRGB">
<feFlood flood-opacity="0" result="BackgroundImageFix"/>
<feColorMatrix in="SourceAlpha" type="matrix" values="0 0 0 0 0 0 0 0 0 0 0 0 0 0 0 0 0 0 127 0" result="hardAlpha"/>
<feOffset dy="2"/>
<feGaussianBlur stdDeviation="4"/>
<feColorMatrix type="matrix" values="0 0 0 0 0 0 0 0 0 0 0 0 0 0 0 0 0 0 0.25 0"/>
<feBlend mode="normal" in2="BackgroundImageFix" result="effect1_dropShadow_5828_13461"/>
<feBlend mode="normal" in="SourceGraphic" in2="effect1_dropShadow_5828_13461" result="shape"/>
</filter>
<clipPath id="clip0_5828_13461">
<rect width="40" height="40" fill="white" transform="translate(33.5 20)"/>
</clipPath>
</defs>
</svg>
