<svg width="107" height="109" viewBox="0 0 107 109" fill="none" xmlns="http://www.w3.org/2000/svg">
<g filter="url(#filter0_d_5829_13215)">
<rect x="8" y="6" width="91" height="93" rx="12" fill="#151B23"/>
<rect x="9" y="7" width="89" height="91" rx="11" stroke="#1F2937" stroke-width="2"/>
<path d="M52.5553 59.4337C52.8418 59.5974 53.1669 59.6836 53.4979 59.6836C53.8288 59.6836 54.1539 59.5974 54.4404 59.4337L70.0567 50.5277C70.3435 50.3642 70.5817 50.1289 70.7473 49.8455C70.9129 49.5621 71.0001 49.2405 71 48.9133V31.0857C70.9999 30.7586 70.9129 30.4373 70.7475 30.154C70.5822 29.8706 70.3445 29.6352 70.0581 29.4713L54.4419 20.5582C54.155 20.3947 53.8297 20.3086 53.4986 20.3086C53.1674 20.3086 52.8421 20.3947 52.5553 20.5582L36.9433 29.4713C36.6566 29.6349 36.4185 29.8702 36.2529 30.1536C36.0873 30.437 36.0001 30.7585 36 31.0857V48.9147C36.0002 49.2417 36.0875 49.5629 36.253 49.8461C36.4186 50.1292 36.6567 50.3643 36.9433 50.5277L52.5553 59.4337Z" fill="#76D04B"/>
<path d="M62.9119 36.2025L62.2606 35.8083C62.8899 34.7115 63.291 33.4874 63.4375 32.2164C63.5839 30.9454 63.4724 29.6562 63.1104 28.4336C63.1104 28.4336 61.4188 33.4106 58.0183 33.2457L54.0358 30.841C53.8872 30.7493 53.7192 30.6979 53.547 30.6914H53.4551C53.2825 30.6984 53.1142 30.7498 52.9649 30.841L48.9824 33.2457C45.582 33.4106 43.8904 28.4336 43.8904 28.4336C43.5276 29.6571 43.4159 30.9474 43.5626 32.2194C43.7093 33.4915 44.1111 34.7166 44.7415 35.8139L44.0902 36.2081C43.9274 36.3079 43.7925 36.4508 43.699 36.6226C43.6055 36.7944 43.5567 36.9889 43.5574 37.1867L43.5721 51.6118C43.5708 51.7105 43.5949 51.8077 43.6418 51.8933C43.6887 51.9789 43.7566 52.0497 43.8384 52.0983C43.9187 52.1495 44.0109 52.1766 44.1048 52.1766C44.1988 52.1766 44.2909 52.1495 44.3712 52.0983L49.6457 48.9275C49.8081 48.8273 49.9427 48.6843 50.0362 48.5126C50.1296 48.3409 50.1787 48.1466 50.1785 47.9489V41.2131C50.1768 41.0151 50.2253 40.8201 50.3189 40.6482C50.4125 40.4763 50.5479 40.3335 50.7113 40.2345L52.9569 38.877C53.1187 38.7779 53.3025 38.7254 53.4897 38.7246C53.6771 38.7243 53.8612 38.7769 54.0225 38.877L56.2682 40.2345C56.4316 40.3335 56.567 40.4763 56.6606 40.6482C56.7542 40.8201 56.8026 41.0151 56.8009 41.2131V47.9573C56.8009 48.155 56.85 48.3493 56.9434 48.5209C57.0369 48.6925 57.1714 48.8356 57.3337 48.9359L62.6069 52.1067C62.6875 52.157 62.7795 52.1836 62.8733 52.1836C62.9671 52.1836 63.0591 52.157 63.1397 52.1067C63.2279 52.061 63.3023 51.9906 63.3547 51.9032C63.4072 51.8159 63.4355 51.715 63.4367 51.6118L63.454 37.1756C63.4557 36.9775 63.4073 36.7826 63.3137 36.6107C63.2201 36.4387 63.0846 36.2959 62.9212 36.1969L62.9119 36.2025Z" fill="#4F4D3F"/>
<path d="M29.8714 71.8182V82H28.2308L23.4332 75.0646H23.3487V82H21.5043V71.8182H23.1548L27.9474 78.7585H28.0369V71.8182H29.8714ZM35.1326 82.1491C34.3869 82.1491 33.7406 81.9851 33.1937 81.657C32.6468 81.3288 32.2226 80.8698 31.921 80.2798C31.6227 79.6899 31.4735 79.0005 31.4735 78.2116C31.4735 77.4228 31.6227 76.7318 31.921 76.1385C32.2226 75.5452 32.6468 75.0845 33.1937 74.7564C33.7406 74.4283 34.3869 74.2642 35.1326 74.2642C35.8784 74.2642 36.5247 74.4283 37.0716 74.7564C37.6184 75.0845 38.041 75.5452 38.3393 76.1385C38.6409 76.7318 38.7917 77.4228 38.7917 78.2116C38.7917 79.0005 38.6409 79.6899 38.3393 80.2798C38.041 80.8698 37.6184 81.3288 37.0716 81.657C36.5247 81.9851 35.8784 82.1491 35.1326 82.1491ZM35.1426 80.7074C35.5469 80.7074 35.885 80.5964 36.1568 80.3743C36.4286 80.1489 36.6307 79.8473 36.7633 79.4695C36.8992 79.0916 36.9672 78.6707 36.9672 78.2067C36.9672 77.7393 36.8992 77.3168 36.7633 76.9389C36.6307 76.5578 36.4286 76.2545 36.1568 76.0291C35.885 75.8037 35.5469 75.6911 35.1426 75.6911C34.7283 75.6911 34.3836 75.8037 34.1085 76.0291C33.8367 76.2545 33.6329 76.5578 33.497 76.9389C33.3644 77.3168 33.2981 77.7393 33.2981 78.2067C33.2981 78.6707 33.3644 79.0916 33.497 79.4695C33.6329 79.8473 33.8367 80.1489 34.1085 80.3743C34.3836 80.5964 34.7283 80.7074 35.1426 80.7074ZM43.1531 82.1342C42.5531 82.1342 42.0162 81.9801 41.5423 81.6719C41.0683 81.3636 40.6938 80.9162 40.4187 80.3295C40.1436 79.7429 40.006 79.0303 40.006 78.1918C40.006 77.3433 40.1452 76.6274 40.4237 76.044C40.7054 75.4574 41.0849 75.0149 41.5621 74.7166C42.0394 74.415 42.5714 74.2642 43.158 74.2642C43.6055 74.2642 43.9734 74.3404 44.2617 74.4929C44.5501 74.642 44.7788 74.8227 44.9478 75.0348C45.1168 75.2436 45.2478 75.4408 45.3406 75.6264H45.4151V71.8182H47.2198V82H45.4499V80.7969H45.3406C45.2478 80.9825 45.1135 81.1797 44.9379 81.3885C44.7622 81.594 44.5302 81.7696 44.2418 81.9155C43.9535 82.0613 43.5906 82.1342 43.1531 82.1342ZM43.6552 80.6577C44.0363 80.6577 44.3612 80.5549 44.6296 80.3494C44.8981 80.1406 45.1019 79.8506 45.2411 79.4794C45.3803 79.1082 45.4499 78.6757 45.4499 78.1818C45.4499 77.688 45.3803 77.2588 45.2411 76.8942C45.1052 76.5296 44.9031 76.2462 44.6346 76.044C44.3694 75.8419 44.043 75.7408 43.6552 75.7408C43.2541 75.7408 42.9194 75.8452 42.6509 76.054C42.3825 76.2628 42.1803 76.5511 42.0444 76.919C41.9085 77.2869 41.8406 77.7079 41.8406 78.1818C41.8406 78.6591 41.9085 79.085 42.0444 79.4595C42.1836 79.8307 42.3874 80.1241 42.6559 80.3395C42.9277 80.5516 43.2608 80.6577 43.6552 80.6577ZM52.5183 82.1491C51.7527 82.1491 51.0914 81.9901 50.5346 81.6719C49.9811 81.3504 49.5552 80.8963 49.2569 80.3097C48.9586 79.7197 48.8095 79.0253 48.8095 78.2266C48.8095 77.4411 48.9586 76.7517 49.2569 76.1584C49.5585 75.5618 49.9795 75.0978 50.5197 74.7663C51.06 74.4316 51.6947 74.2642 52.4238 74.2642C52.8945 74.2642 53.3386 74.3404 53.7562 74.4929C54.1771 74.642 54.5484 74.8741 54.8699 75.1889C55.1947 75.5038 55.4499 75.9048 55.6355 76.392C55.8211 76.8759 55.9139 77.4527 55.9139 78.1222V78.674H49.6547V77.4609H54.1887C54.1854 77.1162 54.1109 76.8097 53.965 76.5412C53.8192 76.2694 53.6154 76.0556 53.3535 75.8999C53.095 75.7441 52.7934 75.6662 52.4487 75.6662C52.0808 75.6662 51.7576 75.7557 51.4792 75.9347C51.2008 76.1103 50.9837 76.3423 50.8279 76.6307C50.6755 76.9157 50.5976 77.2289 50.5943 77.5703V78.6293C50.5943 79.0734 50.6755 79.4545 50.8379 79.7727C51.0003 80.0876 51.2273 80.3295 51.519 80.4986C51.8107 80.6643 52.152 80.7472 52.5431 80.7472C52.805 80.7472 53.042 80.7107 53.2541 80.6378C53.4662 80.5616 53.6502 80.4505 53.8059 80.3047C53.9617 80.1589 54.0794 79.9782 54.1589 79.7628L55.8393 79.9517C55.7333 80.3958 55.5311 80.7836 55.2328 81.1151C54.9378 81.4432 54.56 81.6984 54.0993 81.8807C53.6386 82.0597 53.1116 82.1491 52.5183 82.1491ZM57.4364 82V74.3636H59.1566V75.6612H59.2461C59.4052 75.2237 59.6687 74.8823 60.0366 74.6371C60.4045 74.3885 60.8436 74.2642 61.354 74.2642C61.8711 74.2642 62.3069 74.3902 62.6616 74.642C63.0195 74.8906 63.2714 75.2304 63.4173 75.6612H63.4968C63.6658 75.237 63.9509 74.8989 64.3519 74.647C64.7563 74.3918 65.2352 74.2642 65.7887 74.2642C66.4914 74.2642 67.0647 74.4863 67.5089 74.9304C67.953 75.3745 68.1751 76.0225 68.1751 76.8743V82H66.3704V77.1527C66.3704 76.6787 66.2444 76.3324 65.9925 76.1136C65.7406 75.8916 65.4324 75.7805 65.0678 75.7805C64.6336 75.7805 64.2939 75.9164 64.0487 76.1882C63.8067 76.4567 63.6857 76.8063 63.6857 77.2372V82H61.9208V77.0781C61.9208 76.6837 61.8015 76.3688 61.5629 76.1335C61.3275 75.8982 61.0193 75.7805 60.6381 75.7805C60.3796 75.7805 60.1443 75.8468 59.9322 75.9794C59.7201 76.1087 59.551 76.2926 59.4251 76.5312C59.2991 76.7666 59.2362 77.0417 59.2362 77.3565V82H57.4364ZM73.3319 82.1491C72.5861 82.1491 71.9398 81.9851 71.3929 81.657C70.8461 81.3288 70.4218 80.8698 70.1202 80.2798C69.8219 79.6899 69.6728 79.0005 69.6728 78.2116C69.6728 77.4228 69.8219 76.7318 70.1202 76.1385C70.4218 75.5452 70.8461 75.0845 71.3929 74.7564C71.9398 74.4283 72.5861 74.2642 73.3319 74.2642C74.0776 74.2642 74.7239 74.4283 75.2708 74.7564C75.8176 75.0845 76.2402 75.5452 76.5385 76.1385C76.8401 76.7318 76.9909 77.4228 76.9909 78.2116C76.9909 79.0005 76.8401 79.6899 76.5385 80.2798C76.2402 80.8698 75.8176 81.3288 75.2708 81.657C74.7239 81.9851 74.0776 82.1491 73.3319 82.1491ZM73.3418 80.7074C73.7462 80.7074 74.0842 80.5964 74.356 80.3743C74.6278 80.1489 74.83 79.8473 74.9625 79.4695C75.0984 79.0916 75.1664 78.6707 75.1664 78.2067C75.1664 77.7393 75.0984 77.3168 74.9625 76.9389C74.83 76.5578 74.6278 76.2545 74.356 76.0291C74.0842 75.8037 73.7462 75.6911 73.3418 75.6911C72.9275 75.6911 72.5828 75.8037 72.3077 76.0291C72.0359 76.2545 71.8321 76.5578 71.6962 76.9389C71.5636 77.3168 71.4973 77.7393 71.4973 78.2067C71.4973 78.6707 71.5636 79.0916 71.6962 79.4695C71.8321 79.8473 72.0359 80.1489 72.3077 80.3743C72.5828 80.5964 72.9275 80.7074 73.3418 80.7074ZM80.3182 77.5256V82H78.5185V74.3636H80.2386V75.6612H80.3281C80.5038 75.2337 80.7839 74.8939 81.1683 74.642C81.5561 74.3902 82.035 74.2642 82.6051 74.2642C83.1321 74.2642 83.5911 74.3769 83.9822 74.6023C84.3767 74.8277 84.6816 75.1541 84.897 75.5817C85.1158 76.0092 85.2235 76.5279 85.2202 77.1378V82H83.4205V77.4162C83.4205 76.9058 83.2879 76.5064 83.0227 76.218C82.7609 75.9297 82.398 75.7855 81.9339 75.7855C81.6191 75.7855 81.339 75.8551 81.0938 75.9943C80.8518 76.1302 80.6612 76.3274 80.522 76.5859C80.3861 76.8445 80.3182 77.1577 80.3182 77.5256Z" fill="white"/>
</g>
<defs>
<filter id="filter0_d_5829_13215" x="0" y="0" width="107" height="109" filterUnits="userSpaceOnUse" color-interpolation-filters="sRGB">
<feFlood flood-opacity="0" result="BackgroundImageFix"/>
<feColorMatrix in="SourceAlpha" type="matrix" values="0 0 0 0 0 0 0 0 0 0 0 0 0 0 0 0 0 0 127 0" result="hardAlpha"/>
<feOffset dy="2"/>
<feGaussianBlur stdDeviation="4"/>
<feColorMatrix type="matrix" values="0 0 0 0 0 0 0 0 0 0 0 0 0 0 0 0 0 0 0.25 0"/>
<feBlend mode="normal" in2="BackgroundImageFix" result="effect1_dropShadow_5829_13215"/>
<feBlend mode="normal" in="SourceGraphic" in2="effect1_dropShadow_5829_13215" result="shape"/>
</filter>
</defs>
</svg>
