<svg width="107" height="109" viewBox="0 0 107 109" fill="none" xmlns="http://www.w3.org/2000/svg">
<g filter="url(#filter0_d_5829_13190)">
<rect x="8" y="6" width="91" height="93" rx="12" fill="#151B23"/>
<rect x="9" y="7" width="89" height="91" rx="11" stroke="#1F2937" stroke-width="2"/>
<mask id="mask0_5829_13190" style="mask-type:luminance" maskUnits="userSpaceOnUse" x="37" y="22" width="32" height="36">
<path d="M52.4216 22.7214L38.704 30.6391C38.1902 30.9354 37.875 31.4824 37.875 32.0737V47.9201C37.875 48.5117 38.1902 49.0584 38.704 49.3547L52.4226 57.2785C52.9354 57.5738 53.5677 57.5738 54.0799 57.2785L67.7962 49.3547C68.3074 49.0584 68.6232 48.5114 68.6232 47.9201V32.0737C68.6232 31.4824 68.3074 30.9354 67.7929 30.6391L54.0786 22.7214C53.8213 22.5739 53.5348 22.5 53.2483 22.5C52.9618 22.5 52.6752 22.5739 52.418 22.7214" fill="white"/>
</mask>
<g mask="url(#mask0_5829_13190)">
<path d="M82.4849 29.2944L43.8311 10.3477L24.0117 50.7789L62.6646 69.7267L82.4849 29.2944Z" fill="url(#paint0_linear_5829_13190)"/>
</g>
<mask id="mask1_5829_13190" style="mask-type:luminance" maskUnits="userSpaceOnUse" x="38" y="22" width="31" height="36">
<path d="M38.2148 48.9262C38.3461 49.0964 38.5102 49.2439 38.7032 49.3547L50.4705 56.1516L52.4306 57.2782C52.7237 57.4475 53.0577 57.5191 53.3859 57.4947C53.4953 57.4859 53.6047 57.4654 53.7115 57.4351L68.1793 30.9441C68.0686 30.8237 67.939 30.7227 67.7938 30.6381L58.8118 25.4512L54.0638 22.7194C53.929 22.6413 53.7828 22.5859 53.634 22.5469L38.2148 48.9262Z" fill="white"/>
</mask>
<g mask="url(#mask1_5829_13190)">
<path d="M21.502 34.8982L48.7955 71.8387L84.8917 45.17L57.5965 8.23047L21.502 34.8982Z" fill="url(#paint1_linear_5829_13190)"/>
</g>
<mask id="mask2_5829_13190" style="mask-type:luminance" maskUnits="userSpaceOnUse" x="38" y="22" width="31" height="36">
<path d="M53.0853 22.5081C52.8551 22.5309 52.6301 22.6026 52.4227 22.7204L38.7441 30.6153L53.4939 57.4807C53.699 57.4514 53.9009 57.383 54.0832 57.2775L67.8008 49.3537C68.2241 49.1082 68.5139 48.6927 68.6018 48.2219L53.5655 22.5352C53.4548 22.5133 53.3441 22.502 53.2302 22.502C53.1846 22.502 53.139 22.5042 53.0934 22.5085" fill="white"/>
</mask>
<g mask="url(#mask2_5829_13190)">
<path d="M38.7441 22.502V57.4814H68.5963V22.502H38.7441Z" fill="url(#paint2_linear_5829_13190)"/>
</g>
<path d="M44.3714 71.8182V82H42.7308L37.9332 75.0646H37.8487V82H36.0043V71.8182H37.6548L42.4474 78.7585H42.5369V71.8182H44.3714ZM49.6326 82.1491C48.8869 82.1491 48.2406 81.9851 47.6937 81.657C47.1468 81.3288 46.7226 80.8698 46.421 80.2798C46.1227 79.6899 45.9735 79.0005 45.9735 78.2116C45.9735 77.4228 46.1227 76.7318 46.421 76.1385C46.7226 75.5452 47.1468 75.0845 47.6937 74.7564C48.2406 74.4283 48.8869 74.2642 49.6326 74.2642C50.3784 74.2642 51.0247 74.4283 51.5716 74.7564C52.1184 75.0845 52.541 75.5452 52.8393 76.1385C53.1409 76.7318 53.2917 77.4228 53.2917 78.2116C53.2917 79.0005 53.1409 79.6899 52.8393 80.2798C52.541 80.8698 52.1184 81.3288 51.5716 81.657C51.0247 81.9851 50.3784 82.1491 49.6326 82.1491ZM49.6426 80.7074C50.0469 80.7074 50.385 80.5964 50.6568 80.3743C50.9286 80.1489 51.1307 79.8473 51.2633 79.4695C51.3992 79.0916 51.4672 78.6707 51.4672 78.2067C51.4672 77.7393 51.3992 77.3168 51.2633 76.9389C51.1307 76.5578 50.9286 76.2545 50.6568 76.0291C50.385 75.8037 50.0469 75.6911 49.6426 75.6911C49.2283 75.6911 48.8836 75.8037 48.6085 76.0291C48.3367 76.2545 48.1329 76.5578 47.997 76.9389C47.8644 77.3168 47.7981 77.7393 47.7981 78.2067C47.7981 78.6707 47.8644 79.0916 47.997 79.4695C48.1329 79.8473 48.3367 80.1489 48.6085 80.3743C48.8836 80.5964 49.2283 80.7074 49.6426 80.7074ZM57.6531 82.1342C57.0531 82.1342 56.5162 81.9801 56.0423 81.6719C55.5683 81.3636 55.1938 80.9162 54.9187 80.3295C54.6436 79.7429 54.506 79.0303 54.506 78.1918C54.506 77.3433 54.6452 76.6274 54.9237 76.044C55.2054 75.4574 55.5849 75.0149 56.0621 74.7166C56.5394 74.415 57.0714 74.2642 57.658 74.2642C58.1055 74.2642 58.4734 74.3404 58.7617 74.4929C59.0501 74.642 59.2788 74.8227 59.4478 75.0348C59.6168 75.2436 59.7478 75.4408 59.8406 75.6264H59.9151V71.8182H61.7198V82H59.9499V80.7969H59.8406C59.7478 80.9825 59.6135 81.1797 59.4379 81.3885C59.2622 81.594 59.0302 81.7696 58.7418 81.9155C58.4535 82.0613 58.0906 82.1342 57.6531 82.1342ZM58.1552 80.6577C58.5363 80.6577 58.8612 80.5549 59.1296 80.3494C59.3981 80.1406 59.6019 79.8506 59.7411 79.4794C59.8803 79.1082 59.9499 78.6757 59.9499 78.1818C59.9499 77.688 59.8803 77.2588 59.7411 76.8942C59.6052 76.5296 59.4031 76.2462 59.1346 76.044C58.8694 75.8419 58.543 75.7408 58.1552 75.7408C57.7541 75.7408 57.4194 75.8452 57.1509 76.054C56.8825 76.2628 56.6803 76.5511 56.5444 76.919C56.4085 77.2869 56.3406 77.7079 56.3406 78.1818C56.3406 78.6591 56.4085 79.085 56.5444 79.4595C56.6836 79.8307 56.8874 80.1241 57.1559 80.3395C57.4277 80.5516 57.7608 80.6577 58.1552 80.6577ZM67.0183 82.1491C66.2527 82.1491 65.5914 81.9901 65.0346 81.6719C64.4811 81.3504 64.0552 80.8963 63.7569 80.3097C63.4586 79.7197 63.3095 79.0253 63.3095 78.2266C63.3095 77.4411 63.4586 76.7517 63.7569 76.1584C64.0585 75.5618 64.4795 75.0978 65.0197 74.7663C65.56 74.4316 66.1947 74.2642 66.9238 74.2642C67.3945 74.2642 67.8386 74.3404 68.2562 74.4929C68.6771 74.642 69.0484 74.8741 69.3699 75.1889C69.6947 75.5038 69.9499 75.9048 70.1355 76.392C70.3211 76.8759 70.4139 77.4527 70.4139 78.1222V78.674H64.1547V77.4609H68.6887C68.6854 77.1162 68.6109 76.8097 68.465 76.5412C68.3192 76.2694 68.1154 76.0556 67.8535 75.8999C67.595 75.7441 67.2934 75.6662 66.9487 75.6662C66.5808 75.6662 66.2576 75.7557 65.9792 75.9347C65.7008 76.1103 65.4837 76.3423 65.3279 76.6307C65.1755 76.9157 65.0976 77.2289 65.0943 77.5703V78.6293C65.0943 79.0734 65.1755 79.4545 65.3379 79.7727C65.5003 80.0876 65.7273 80.3295 66.019 80.4986C66.3107 80.6643 66.652 80.7472 67.0431 80.7472C67.305 80.7472 67.542 80.7107 67.7541 80.6378C67.9662 80.5616 68.1502 80.4505 68.3059 80.3047C68.4617 80.1589 68.5794 79.9782 68.6589 79.7628L70.3393 79.9517C70.2333 80.3958 70.0311 80.7836 69.7328 81.1151C69.4378 81.4432 69.06 81.6984 68.5993 81.8807C68.1386 82.0597 67.6116 82.1491 67.0183 82.1491Z" fill="white"/>
</g>
<defs>
<filter id="filter0_d_5829_13190" x="0" y="0" width="107" height="109" filterUnits="userSpaceOnUse" color-interpolation-filters="sRGB">
<feFlood flood-opacity="0" result="BackgroundImageFix"/>
<feColorMatrix in="SourceAlpha" type="matrix" values="0 0 0 0 0 0 0 0 0 0 0 0 0 0 0 0 0 0 127 0" result="hardAlpha"/>
<feOffset dy="2"/>
<feGaussianBlur stdDeviation="4"/>
<feColorMatrix type="matrix" values="0 0 0 0 0 0 0 0 0 0 0 0 0 0 0 0 0 0 0.25 0"/>
<feBlend mode="normal" in2="BackgroundImageFix" result="effect1_dropShadow_5829_13190"/>
<feBlend mode="normal" in="SourceGraphic" in2="effect1_dropShadow_5829_13190" result="shape"/>
</filter>
<linearGradient id="paint0_linear_5829_13190" x1="63.1464" y1="19.7912" x2="43.3284" y2="60.2198" gradientUnits="userSpaceOnUse">
<stop offset="0.3" stop-color="#3E863D"/>
<stop offset="0.5" stop-color="#55934F"/>
<stop offset="0.8" stop-color="#5AAD45"/>
</linearGradient>
<linearGradient id="paint1_linear_5829_13190" x1="35.3123" y1="53.5802" x2="71.4099" y2="26.9084" gradientUnits="userSpaceOnUse">
<stop offset="0.57" stop-color="#3E863D"/>
<stop offset="0.72" stop-color="#619857"/>
<stop offset="1" stop-color="#76AC64"/>
</linearGradient>
<linearGradient id="paint2_linear_5829_13190" x1="38.7542" y1="39.9926" x2="68.6019" y2="39.9926" gradientUnits="userSpaceOnUse">
<stop offset="0.16" stop-color="#6BBF47"/>
<stop offset="0.38" stop-color="#79B461"/>
<stop offset="0.47" stop-color="#75AC64"/>
<stop offset="0.7" stop-color="#659E5A"/>
<stop offset="0.9" stop-color="#3E863D"/>
</linearGradient>
</defs>
</svg>
