<svg width="107" height="109" viewBox="0 0 107 109" fill="none" xmlns="http://www.w3.org/2000/svg">
<g filter="url(#filter0_d_5829_9502)">
<rect x="8" y="6" width="91" height="93" rx="12" fill="#151B23"/>
<rect x="9" y="7" width="89" height="91" rx="11" stroke="#1F2937" stroke-width="2"/>
<mask id="mask0_5829_9502" style="mask-type:luminance" maskUnits="userSpaceOnUse" x="36" y="22" width="35" height="36">
<path d="M36 22.5H71V57.5H36V22.5Z" fill="white"/>
</mask>
<g mask="url(#mask0_5829_9502)">
<path d="M53.5 22.5L71 40L53.5 57.5L36 40L53.5 22.5Z" fill="#E3695F"/>
<path d="M48.2902 31.7754V39.1604L40.4414 40.1885L50.7347 41.536V38.7448L58.7103 48.2221V40.8371L66.5591 39.8101L56.2658 38.4626V41.2527L48.2902 31.7754Z" fill="white"/>
</g>
<path d="M28.3714 71.8182V82H26.7308L21.9332 75.0646H21.8487V82H20.0043V71.8182H21.6548L26.4474 78.7585H26.5369V71.8182H28.3714ZM33.6326 82.1491C32.8869 82.1491 32.2406 81.9851 31.6937 81.657C31.1468 81.3288 30.7226 80.8698 30.421 80.2798C30.1227 79.6899 29.9735 79.0005 29.9735 78.2116C29.9735 77.4228 30.1227 76.7318 30.421 76.1385C30.7226 75.5452 31.1468 75.0845 31.6937 74.7564C32.2406 74.4283 32.8869 74.2642 33.6326 74.2642C34.3784 74.2642 35.0247 74.4283 35.5716 74.7564C36.1184 75.0845 36.541 75.5452 36.8393 76.1385C37.1409 76.7318 37.2917 77.4228 37.2917 78.2116C37.2917 79.0005 37.1409 79.6899 36.8393 80.2798C36.541 80.8698 36.1184 81.3288 35.5716 81.657C35.0247 81.9851 34.3784 82.1491 33.6326 82.1491ZM33.6426 80.7074C34.0469 80.7074 34.385 80.5964 34.6568 80.3743C34.9286 80.1489 35.1307 79.8473 35.2633 79.4695C35.3992 79.0916 35.4672 78.6707 35.4672 78.2067C35.4672 77.7393 35.3992 77.3168 35.2633 76.9389C35.1307 76.5578 34.9286 76.2545 34.6568 76.0291C34.385 75.8037 34.0469 75.6911 33.6426 75.6911C33.2283 75.6911 32.8836 75.8037 32.6085 76.0291C32.3367 76.2545 32.1329 76.5578 31.997 76.9389C31.8644 77.3168 31.7981 77.7393 31.7981 78.2067C31.7981 78.6707 31.8644 79.0916 31.997 79.4695C32.1329 79.8473 32.3367 80.1489 32.6085 80.3743C32.8836 80.5964 33.2283 80.7074 33.6426 80.7074ZM38.8192 82V74.3636H40.5643V75.6364H40.6438C40.783 75.1955 41.0217 74.8558 41.3597 74.6172C41.7011 74.3752 42.0906 74.2543 42.5281 74.2543C42.6275 74.2543 42.7385 74.2592 42.8612 74.2692C42.9871 74.2758 43.0915 74.2874 43.1744 74.304V75.9595C43.0981 75.933 42.9772 75.9098 42.8114 75.8899C42.649 75.8667 42.4916 75.8551 42.3391 75.8551C42.011 75.8551 41.716 75.9264 41.4542 76.0689C41.1957 76.2081 40.9918 76.402 40.8427 76.6506C40.6935 76.8991 40.619 77.1858 40.619 77.5107V82H38.8192ZM44.37 82V74.3636H46.0902V75.6612H46.1797C46.3388 75.2237 46.6023 74.8823 46.9702 74.6371C47.3381 74.3885 47.7772 74.2642 48.2876 74.2642C48.8047 74.2642 49.2405 74.3902 49.5952 74.642C49.9531 74.8906 50.205 75.2304 50.3509 75.6612H50.4304C50.5994 75.237 50.8845 74.8989 51.2855 74.647C51.6899 74.3918 52.1688 74.2642 52.7223 74.2642C53.425 74.2642 53.9983 74.4863 54.4425 74.9304C54.8866 75.3745 55.1087 76.0225 55.1087 76.8743V82H53.304V77.1527C53.304 76.6787 53.178 76.3324 52.9261 76.1136C52.6742 75.8916 52.366 75.7805 52.0014 75.7805C51.5672 75.7805 51.2275 75.9164 50.9822 76.1882C50.7403 76.4567 50.6193 76.8063 50.6193 77.2372V82H48.8544V77.0781C48.8544 76.6837 48.7351 76.3688 48.4964 76.1335C48.2611 75.8982 47.9529 75.7805 47.5717 75.7805C47.3132 75.7805 47.0779 75.8468 46.8658 75.9794C46.6536 76.1087 46.4846 76.2926 46.3587 76.5312C46.2327 76.7666 46.1697 77.0417 46.1697 77.3565V82H44.37ZM59.1319 82.1541C58.648 82.1541 58.2122 82.0679 57.8244 81.8956C57.4399 81.7199 57.135 81.4614 56.9096 81.12C56.6876 80.7786 56.5765 80.3577 56.5765 79.8572C56.5765 79.4264 56.6561 79.0701 56.8152 78.7884C56.9743 78.5066 57.1913 78.2812 57.4664 78.1122C57.7415 77.9432 58.0514 77.8156 58.3961 77.7294C58.7441 77.6399 59.1038 77.5753 59.475 77.5355C59.9224 77.4891 60.2853 77.4477 60.5637 77.4112C60.8422 77.3714 61.0443 77.3118 61.1703 77.2322C61.2995 77.1494 61.3642 77.0218 61.3642 76.8494V76.8196C61.3642 76.4451 61.2531 76.1551 61.0311 75.9496C60.809 75.7441 60.4892 75.6413 60.0716 75.6413C59.6307 75.6413 59.2811 75.7375 59.0225 75.9297C58.7673 76.1219 58.595 76.349 58.5055 76.6108L56.8251 76.3722C56.9577 75.9081 57.1764 75.5204 57.4814 75.2088C57.7863 74.8939 58.1592 74.6586 58.6 74.5028C59.0408 74.3438 59.528 74.2642 60.0616 74.2642C60.4295 74.2642 60.7958 74.3073 61.1603 74.3935C61.5249 74.4796 61.858 74.6222 62.1596 74.821C62.4612 75.0166 62.7032 75.2834 62.8855 75.6214C63.0711 75.9595 63.1639 76.3821 63.1639 76.8892V82H61.4338V80.951H61.3741C61.2647 81.1631 61.1106 81.362 60.9118 81.5476C60.7162 81.7299 60.4693 81.8774 60.171 81.9901C59.876 82.0994 59.5297 82.1541 59.1319 82.1541ZM59.5993 80.8317C59.9605 80.8317 60.2737 80.7604 60.5389 80.6179C60.804 80.4721 61.0079 80.2798 61.1504 80.0412C61.2962 79.8026 61.3691 79.5424 61.3691 79.2607V78.3608C61.3128 78.4072 61.2167 78.4503 61.0808 78.4901C60.9482 78.5298 60.7991 78.5646 60.6333 78.5945C60.4676 78.6243 60.3036 78.6508 60.1412 78.674C59.9788 78.6972 59.8379 78.7171 59.7186 78.7337C59.4501 78.7701 59.2098 78.8298 58.9977 78.9126C58.7856 78.9955 58.6182 79.1115 58.4956 79.2607C58.3729 79.4065 58.3116 79.5954 58.3116 79.8274C58.3116 80.1589 58.4326 80.4091 58.6745 80.5781C58.9165 80.7472 59.2247 80.8317 59.5993 80.8317ZM66.7733 71.8182V82H64.9735V71.8182H66.7733ZM68.6239 82V74.3636H70.4237V82H68.6239ZM69.5288 73.2798C69.2437 73.2798 68.9985 73.1854 68.793 72.9964C68.5875 72.8042 68.4847 72.5739 68.4847 72.3054C68.4847 72.0336 68.5875 71.8033 68.793 71.6143C68.9985 71.4221 69.2437 71.326 69.5288 71.326C69.8171 71.326 70.0624 71.4221 70.2646 71.6143C70.4701 71.8033 70.5728 72.0336 70.5728 72.3054C70.5728 72.5739 70.4701 72.8042 70.2646 72.9964C70.0624 73.1854 69.8171 73.2798 69.5288 73.2798ZM72.1749 82V80.8565L76.1124 75.9197V75.8551H72.3042V74.3636H78.3148V75.5916L74.5662 80.4439V80.5085H78.4441V82H72.1749ZM83.2976 82.1491C82.532 82.1491 81.8707 81.9901 81.3139 81.6719C80.7604 81.3504 80.3345 80.8963 80.0362 80.3097C79.7379 79.7197 79.5888 79.0253 79.5888 78.2266C79.5888 77.4411 79.7379 76.7517 80.0362 76.1584C80.3378 75.5618 80.7588 75.0978 81.299 74.7663C81.8393 74.4316 82.474 74.2642 83.2031 74.2642C83.6738 74.2642 84.1179 74.3404 84.5355 74.4929C84.9564 74.642 85.3277 74.8741 85.6491 75.1889C85.974 75.5038 86.2292 75.9048 86.4148 76.392C86.6004 76.8759 86.6932 77.4527 86.6932 78.1222V78.674H80.4339V77.4609H84.968C84.9647 77.1162 84.8902 76.8097 84.7443 76.5412C84.5985 76.2694 84.3946 76.0556 84.1328 75.8999C83.8743 75.7441 83.5727 75.6662 83.228 75.6662C82.8601 75.6662 82.5369 75.7557 82.2585 75.9347C81.9801 76.1103 81.763 76.3423 81.6072 76.6307C81.4548 76.9157 81.3769 77.2289 81.3736 77.5703V78.6293C81.3736 79.0734 81.4548 79.4545 81.6172 79.7727C81.7796 80.0876 82.0066 80.3295 82.2983 80.4986C82.59 80.6643 82.9313 80.7472 83.3224 80.7472C83.5843 80.7472 83.8213 80.7107 84.0334 80.6378C84.2455 80.5616 84.4295 80.4505 84.5852 80.3047C84.741 80.1589 84.8587 79.9782 84.9382 79.7628L86.6186 79.9517C86.5125 80.3958 86.3104 80.7836 86.0121 81.1151C85.7171 81.4432 85.3393 81.6984 84.8786 81.8807C84.4179 82.0597 83.8909 82.1491 83.2976 82.1491Z" fill="white"/>
</g>
<defs>
<filter id="filter0_d_5829_9502" x="0" y="0" width="107" height="109" filterUnits="userSpaceOnUse" color-interpolation-filters="sRGB">
<feFlood flood-opacity="0" result="BackgroundImageFix"/>
<feColorMatrix in="SourceAlpha" type="matrix" values="0 0 0 0 0 0 0 0 0 0 0 0 0 0 0 0 0 0 127 0" result="hardAlpha"/>
<feOffset dy="2"/>
<feGaussianBlur stdDeviation="4"/>
<feColorMatrix type="matrix" values="0 0 0 0 0 0 0 0 0 0 0 0 0 0 0 0 0 0 0.25 0"/>
<feBlend mode="normal" in2="BackgroundImageFix" result="effect1_dropShadow_5829_9502"/>
<feBlend mode="normal" in="SourceGraphic" in2="effect1_dropShadow_5829_9502" result="shape"/>
</filter>
</defs>
</svg>
