<svg width="107" height="109" viewBox="0 0 107 109" fill="none" xmlns="http://www.w3.org/2000/svg">
<g filter="url(#filter0_d_5845_13762)">
<rect x="8" y="6" width="91" height="93" rx="12" fill="#151B23"/>
<rect x="9" y="7" width="89" height="91" rx="11" stroke="#1F2937" stroke-width="2"/>
<path fill-rule="evenodd" clip-rule="evenodd" d="M41.502 55.4216L37.4887 50.4224C36.5276 49.232 36.0024 47.7489 36 46.2189V28.1181C36 25.8384 37.8247 23.9461 40.1767 23.7851L58.7873 22.5146C60.1343 22.421 61.4739 22.7794 62.5942 23.5331L69.1322 27.9536C69.7036 28.3339 70.1728 28.8488 70.4985 29.453C70.8242 30.0572 70.9964 30.7322 71 31.4186V51.9986C71 54.2293 69.2068 56.0761 66.9027 56.2184L46.2468 57.4901C44.4082 57.6033 42.6313 56.8286 41.502 55.4216Z" fill="white"/>
<path d="M47.9568 37.1732V36.9364C47.9568 36.3356 48.4386 35.8374 49.0581 35.7954L53.5743 35.4944L59.8206 44.6924V36.6191L58.213 36.4056V36.2924C58.213 35.6857 58.7053 35.1841 59.333 35.1514L63.4431 34.9414V35.5317C63.4414 35.6685 63.3912 35.8002 63.3015 35.9033C63.2117 36.0065 63.0883 36.0745 62.9531 36.0952L61.9638 36.2621V49.3357L60.7236 49.7627C59.6853 50.1186 58.5315 49.7371 57.9388 48.8411L51.8745 39.6909V48.4246L53.7411 48.7816L53.7155 48.9554C53.6338 49.4967 53.1648 49.9074 52.599 49.9331L47.9568 50.1396C47.8961 49.5562 48.3325 49.0347 48.9356 48.9706L49.5458 48.9064V37.2631L47.9568 37.1732Z" fill="black"/>
<path fill-rule="evenodd" clip-rule="evenodd" d="M58.9546 24.7978L40.3451 26.0683C39.2297 26.1442 38.3652 27.0402 38.3652 28.1205V46.2213C38.3652 47.2363 38.7152 48.2222 39.3581 49.0237L43.3714 54.0228C43.6981 54.4237 44.1159 54.7407 44.59 54.9473C45.0641 55.1539 45.5807 55.2442 46.0967 55.2105L66.7526 53.9388C67.8107 53.8735 68.6344 53.0253 68.6344 51.9998V31.421C68.6327 31.1058 68.5536 30.7959 68.4041 30.5184C68.2545 30.241 68.0392 30.0045 67.7769 29.8297L61.2377 25.408C60.5657 24.9563 59.7623 24.7416 58.9546 24.7978ZM41.2679 28.4028C41.0089 28.2115 41.1314 27.8125 41.4569 27.7892L59.0794 26.5245C59.6387 26.4837 60.1948 26.6379 60.6532 26.9608L64.1882 29.4657C64.2181 29.4859 64.2407 29.5152 64.2527 29.5491C64.2648 29.5831 64.2657 29.6201 64.2552 29.6546C64.2448 29.6891 64.2236 29.7194 64.1948 29.741C64.166 29.7626 64.131 29.7745 64.0949 29.7748L45.4317 30.7898C44.8696 30.8213 44.3141 30.6563 43.8602 30.3232L41.2679 28.4028ZM44.5567 33.9725C44.5567 33.3658 45.0467 32.8642 45.6721 32.8303L65.4039 31.757C66.0141 31.7232 66.5286 32.1922 66.5286 32.7837V50.6022C66.5286 51.2077 66.0397 51.7082 65.4156 51.7432L45.8086 52.8585C45.1296 52.8982 44.5567 52.3755 44.5567 51.7187V33.9725Z" fill="black"/>
<path d="M40.4154 71.8182V82H38.7748L33.9772 75.0646H33.8927V82H32.0482V71.8182H33.6988L38.4914 78.7585H38.5809V71.8182H40.4154ZM45.6766 82.1491C44.9308 82.1491 44.2845 81.9851 43.7377 81.657C43.1908 81.3288 42.7665 80.8698 42.4649 80.2798C42.1666 79.6899 42.0175 79.0005 42.0175 78.2116C42.0175 77.4228 42.1666 76.7318 42.4649 76.1385C42.7665 75.5452 43.1908 75.0845 43.7377 74.7564C44.2845 74.4283 44.9308 74.2642 45.6766 74.2642C46.4223 74.2642 47.0686 74.4283 47.6155 74.7564C48.1624 75.0845 48.585 75.5452 48.8833 76.1385C49.1849 76.7318 49.3357 77.4228 49.3357 78.2116C49.3357 79.0005 49.1849 79.6899 48.8833 80.2798C48.585 80.8698 48.1624 81.3288 47.6155 81.657C47.0686 81.9851 46.4223 82.1491 45.6766 82.1491ZM45.6865 80.7074C46.0909 80.7074 46.4289 80.5964 46.7007 80.3743C46.9725 80.1489 47.1747 79.8473 47.3073 79.4695C47.4432 79.0916 47.5111 78.6707 47.5111 78.2067C47.5111 77.7393 47.4432 77.3168 47.3073 76.9389C47.1747 76.5578 46.9725 76.2545 46.7007 76.0291C46.4289 75.8037 46.0909 75.6911 45.6865 75.6911C45.2722 75.6911 44.9275 75.8037 44.6524 76.0291C44.3807 76.2545 44.1768 76.5578 44.0409 76.9389C43.9084 77.3168 43.8421 77.7393 43.8421 78.2067C43.8421 78.6707 43.9084 79.0916 44.0409 79.4695C44.1768 79.8473 44.3807 80.1489 44.6524 80.3743C44.9275 80.5964 45.2722 80.7074 45.6865 80.7074ZM54.6764 74.3636V75.7557H50.2865V74.3636H54.6764ZM51.3703 72.5341H53.17V79.7031C53.17 79.9451 53.2065 80.1307 53.2794 80.2599C53.3556 80.3859 53.455 80.4721 53.5777 80.5185C53.7003 80.5649 53.8362 80.5881 53.9854 80.5881C54.098 80.5881 54.2008 80.5798 54.2936 80.5632C54.3897 80.5466 54.4626 80.5317 54.5123 80.5185L54.8156 81.9254C54.7195 81.9586 54.5819 81.995 54.403 82.0348C54.2273 82.0746 54.0119 82.0978 53.7567 82.1044C53.3059 82.1177 52.8999 82.0497 52.5386 81.9006C52.1773 81.7481 51.8907 81.5128 51.6785 81.1946C51.4697 80.8764 51.367 80.4787 51.3703 80.0014V72.5341ZM56.1816 82V74.3636H57.9813V82H56.1816ZM57.0864 73.2798C56.8013 73.2798 56.5561 73.1854 56.3506 72.9964C56.1451 72.8042 56.0423 72.5739 56.0423 72.3054C56.0423 72.0336 56.1451 71.8033 56.3506 71.6143C56.5561 71.4221 56.8013 71.326 57.0864 71.326C57.3747 71.326 57.62 71.4221 57.8222 71.6143C58.0277 71.8033 58.1304 72.0336 58.1304 72.3054C58.1304 72.5739 58.0277 72.8042 57.8222 72.9964C57.62 73.1854 57.3747 73.2798 57.0864 73.2798ZM63.1629 82.1491C62.4172 82.1491 61.7709 81.9851 61.224 81.657C60.6771 81.3288 60.2529 80.8698 59.9513 80.2798C59.653 79.6899 59.5038 79.0005 59.5038 78.2116C59.5038 77.4228 59.653 76.7318 59.9513 76.1385C60.2529 75.5452 60.6771 75.0845 61.224 74.7564C61.7709 74.4283 62.4172 74.2642 63.1629 74.2642C63.9086 74.2642 64.555 74.4283 65.1018 74.7564C65.6487 75.0845 66.0713 75.5452 66.3696 76.1385C66.6712 76.7318 66.822 77.4228 66.822 78.2116C66.822 79.0005 66.6712 79.6899 66.3696 80.2798C66.0713 80.8698 65.6487 81.3288 65.1018 81.657C64.555 81.9851 63.9086 82.1491 63.1629 82.1491ZM63.1729 80.7074C63.5772 80.7074 63.9153 80.5964 64.1871 80.3743C64.4588 80.1489 64.661 79.8473 64.7936 79.4695C64.9295 79.0916 64.9974 78.6707 64.9974 78.2067C64.9974 77.7393 64.9295 77.3168 64.7936 76.9389C64.661 76.5578 64.4588 76.2545 64.1871 76.0291C63.9153 75.8037 63.5772 75.6911 63.1729 75.6911C62.7586 75.6911 62.4139 75.8037 62.1388 76.0291C61.867 76.2545 61.6631 76.5578 61.5273 76.9389C61.3947 77.3168 61.3284 77.7393 61.3284 78.2067C61.3284 78.6707 61.3947 79.0916 61.5273 79.4695C61.6631 79.8473 61.867 80.1489 62.1388 80.3743C62.4139 80.5964 62.7586 80.7074 63.1729 80.7074ZM70.1492 77.5256V82H68.3495V74.3636H70.0697V75.6612H70.1592C70.3348 75.2337 70.6149 74.8939 70.9994 74.642C71.3872 74.3902 71.8661 74.2642 72.4362 74.2642C72.9632 74.2642 73.4222 74.3769 73.8133 74.6023C74.2077 74.8277 74.5126 75.1541 74.7281 75.5817C74.9468 76.0092 75.0545 76.5279 75.0512 77.1378V82H73.2515V77.4162C73.2515 76.9058 73.1189 76.5064 72.8538 76.218C72.5919 75.9297 72.229 75.7855 71.765 75.7855C71.4501 75.7855 71.1701 75.8551 70.9248 75.9943C70.6829 76.1302 70.4923 76.3274 70.3531 76.5859C70.2172 76.8445 70.1492 77.1577 70.1492 77.5256Z" fill="white"/>
</g>
<defs>
<filter id="filter0_d_5845_13762" x="0" y="0" width="107" height="109" filterUnits="userSpaceOnUse" color-interpolation-filters="sRGB">
<feFlood flood-opacity="0" result="BackgroundImageFix"/>
<feColorMatrix in="SourceAlpha" type="matrix" values="0 0 0 0 0 0 0 0 0 0 0 0 0 0 0 0 0 0 127 0" result="hardAlpha"/>
<feOffset dy="2"/>
<feGaussianBlur stdDeviation="4"/>
<feColorMatrix type="matrix" values="0 0 0 0 0 0 0 0 0 0 0 0 0 0 0 0 0 0 0.25 0"/>
<feBlend mode="normal" in2="BackgroundImageFix" result="effect1_dropShadow_5845_13762"/>
<feBlend mode="normal" in="SourceGraphic" in2="effect1_dropShadow_5845_13762" result="shape"/>
</filter>
</defs>
</svg>
