<svg width="107" height="109" viewBox="0 0 107 109" fill="none" xmlns="http://www.w3.org/2000/svg">
<g filter="url(#filter0_d_5829_13946)">
<rect x="8" y="6" width="91" height="93" rx="12" fill="#151B23"/>
<rect x="9" y="7" width="89" height="91" rx="11" stroke="#1F2937" stroke-width="2"/>
<path d="M36 55.5C36 56.6046 36.8954 57.5 38 57.5H69C70.1046 57.5 71 56.6046 71 55.5V24.5C71 23.3954 70.1046 22.5 69 22.5H38C36.8954 22.5 36 23.3954 36 24.5V55.5Z" fill="#CB0000"/>
<path d="M43.5 48C43.5 49.1046 44.3954 50 45.5 50H51.5C52.6046 50 53.5 49.1046 53.5 48V37C53.5 35.8954 54.3954 35 55.5 35H56.5C57.6046 35 58.5 35.8954 58.5 37V48C58.5 49.1046 59.3954 50 60.5 50H61.5C62.6046 50 63.5 49.1046 63.5 48V32C63.5 30.8954 62.6046 30 61.5 30H45.5C44.3954 30 43.5 30.8954 43.5 32V48Z" fill="white"/>
<path d="M46.8714 71.8182V82H45.2308L40.4332 75.0646H40.3487V82H38.5043V71.8182H40.1548L44.9474 78.7585H45.0369V71.8182H46.8714ZM48.8017 84.8636V74.3636H50.5716V75.6264H50.676C50.7688 75.4408 50.8997 75.2436 51.0687 75.0348C51.2377 74.8227 51.4664 74.642 51.7548 74.4929C52.0431 74.3404 52.411 74.2642 52.8585 74.2642C53.4484 74.2642 53.9804 74.415 54.4544 74.7166C54.9316 75.0149 55.3095 75.4574 55.5879 76.044C55.8696 76.6274 56.0105 77.3433 56.0105 78.1918C56.0105 79.0303 55.8729 79.7429 55.5978 80.3295C55.3227 80.9162 54.9482 81.3636 54.4743 81.6719C54.0003 81.9801 53.4634 82.1342 52.8635 82.1342C52.426 82.1342 52.063 82.0613 51.7747 81.9155C51.4863 81.7696 51.2543 81.594 51.0787 81.3885C50.9063 81.1797 50.7721 80.9825 50.676 80.7969H50.6014V84.8636H48.8017ZM50.5666 78.1818C50.5666 78.6757 50.6362 79.1082 50.7754 79.4794C50.9179 79.8506 51.1217 80.1406 51.3869 80.3494C51.6554 80.5549 51.9802 80.6577 52.3613 80.6577C52.7591 80.6577 53.0922 80.5516 53.3606 80.3395C53.6291 80.1241 53.8313 79.8307 53.9672 79.4595C54.1064 79.085 54.176 78.6591 54.176 78.1818C54.176 77.7079 54.108 77.2869 53.9721 76.919C53.8362 76.5511 53.6341 76.2628 53.3656 76.054C53.0971 75.8452 52.7624 75.7408 52.3613 75.7408C51.9769 75.7408 51.6504 75.8419 51.3819 76.044C51.1135 76.2462 50.9096 76.5296 50.7704 76.8942C50.6345 77.2588 50.5666 77.688 50.5666 78.1818ZM57.5517 82V74.3636H59.2718V75.6612H59.3613C59.5204 75.2237 59.7839 74.8823 60.1518 74.6371C60.5197 74.3885 60.9589 74.2642 61.4693 74.2642C61.9863 74.2642 62.4222 74.3902 62.7768 74.642C63.1348 74.8906 63.3867 75.2304 63.5325 75.6612H63.612C63.7811 75.237 64.0661 74.8989 64.4672 74.647C64.8715 74.3918 65.3504 74.2642 65.9039 74.2642C66.6066 74.2642 67.18 74.4863 67.6241 74.9304C68.0682 75.3745 68.2903 76.0225 68.2903 76.8743V82H66.4856V77.1527C66.4856 76.6787 66.3597 76.3324 66.1078 76.1136C65.8559 75.8916 65.5476 75.7805 65.1831 75.7805C64.7489 75.7805 64.4092 75.9164 64.1639 76.1882C63.9219 76.4567 63.801 76.8063 63.801 77.2372V82H62.036V77.0781C62.036 76.6837 61.9167 76.3688 61.6781 76.1335C61.4428 75.8982 61.1345 75.7805 60.7534 75.7805C60.4949 75.7805 60.2595 75.8468 60.0474 75.9794C59.8353 76.1087 59.6663 76.2926 59.5403 76.5312C59.4144 76.7666 59.3514 77.0417 59.3514 77.3565V82H57.5517Z" fill="white"/>
</g>
<defs>
<filter id="filter0_d_5829_13946" x="0" y="0" width="107" height="109" filterUnits="userSpaceOnUse" color-interpolation-filters="sRGB">
<feFlood flood-opacity="0" result="BackgroundImageFix"/>
<feColorMatrix in="SourceAlpha" type="matrix" values="0 0 0 0 0 0 0 0 0 0 0 0 0 0 0 0 0 0 127 0" result="hardAlpha"/>
<feOffset dy="2"/>
<feGaussianBlur stdDeviation="4"/>
<feColorMatrix type="matrix" values="0 0 0 0 0 0 0 0 0 0 0 0 0 0 0 0 0 0 0.25 0"/>
<feBlend mode="normal" in2="BackgroundImageFix" result="effect1_dropShadow_5829_13946"/>
<feBlend mode="normal" in="SourceGraphic" in2="effect1_dropShadow_5829_13946" result="shape"/>
</filter>
</defs>
</svg>
