<svg width="107" height="109" viewBox="0 0 107 109" fill="none" xmlns="http://www.w3.org/2000/svg">
<g filter="url(#filter0_d_5829_13058)">
<rect x="8" y="6" width="91" height="93" rx="12" fill="#151B23"/>
<rect x="9" y="7" width="89" height="91" rx="11" stroke="#1F2937" stroke-width="2"/>
<path fill-rule="evenodd" clip-rule="evenodd" d="M53.4993 27.3327C55.0642 27.3327 56.3327 26.0642 56.3327 24.4993C56.3327 22.9345 55.0642 21.666 53.4993 21.666C51.9345 21.666 50.666 22.9345 50.666 24.4993C50.666 26.0642 51.9345 27.3327 53.4993 27.3327ZM53.4993 26.166C54.4198 26.166 55.166 25.4198 55.166 24.4993C55.166 23.5788 54.4198 22.8327 53.4993 22.8327C52.5788 22.8327 51.8327 23.5788 51.8327 24.4993C51.8327 25.4198 52.5788 26.166 53.4993 26.166Z" fill="#FF915C"/>
<mask id="mask0_5829_13058" style="mask-type:luminance" maskUnits="userSpaceOnUse" x="50" y="21" width="7" height="7">
<path d="M50 21H57V28H50V21Z" fill="white"/>
<path fill-rule="evenodd" clip-rule="evenodd" d="M53.4993 27.3327C55.0642 27.3327 56.3327 26.0642 56.3327 24.4993C56.3327 22.9345 55.0642 21.666 53.4993 21.666C51.9345 21.666 50.666 22.9345 50.666 24.4993C50.666 26.0642 51.9345 27.3327 53.4993 27.3327ZM53.4993 26.166C54.4198 26.166 55.166 25.4198 55.166 24.4993C55.166 23.5788 54.4198 22.8327 53.4993 22.8327C52.5788 22.8327 51.8327 23.5788 51.8327 24.4993C51.8327 25.4198 52.5788 26.166 53.4993 26.166Z" fill="black"/>
</mask>
<g mask="url(#mask0_5829_13058)">
<path d="M55.6667 24.5C55.6667 25.6967 54.6967 26.6667 53.5 26.6667V28C55.433 28 57 26.433 57 24.5H55.6667ZM53.5 22.3333C54.6967 22.3333 55.6667 23.3033 55.6667 24.5H57C57 22.567 55.433 21 53.5 21V22.3333ZM51.3333 24.5C51.3333 23.3033 52.3033 22.3333 53.5 22.3333V21C51.567 21 50 22.567 50 24.5H51.3333ZM53.5 26.6667C52.3033 26.6667 51.3333 25.6967 51.3333 24.5H50C50 26.433 51.567 28 53.5 28V26.6667ZM54.5 24.5C54.5 24.7652 54.3946 25.0196 54.2071 25.2071C54.0196 25.3946 53.7652 25.5 53.5 25.5V26.8333C54.7887 26.8333 55.8333 25.7887 55.8333 24.5H54.5ZM53.5 23.5C53.7652 23.5 54.0196 23.6054 54.2071 23.7929C54.3946 23.9804 54.5 24.2348 54.5 24.5H55.8333C55.8333 23.2113 54.7887 22.1667 53.5 22.1667V23.5ZM52.5 24.5C52.5 24.2348 52.6054 23.9804 52.7929 23.7929C52.9804 23.6054 53.2348 23.5 53.5 23.5V22.1667C52.2113 22.1667 51.1667 23.2113 51.1667 24.5H52.5ZM53.5 25.5C53.2348 25.5 52.9804 25.3946 52.7929 25.2071C52.6054 25.0196 52.5 24.7652 52.5 24.5H51.1667C51.1667 25.7887 52.2113 26.8333 53.5 26.8333V25.5Z" fill="#2B3C5A"/>
</g>
<mask id="mask1_5829_13058" style="mask-type:luminance" maskUnits="userSpaceOnUse" x="36" y="23" width="35" height="34">
<path d="M70.1673 40.0007C70.1673 30.7959 62.7054 23.334 53.5007 23.334C44.2959 23.334 36.834 30.7959 36.834 40.0007C36.834 49.2054 44.2959 56.6673 53.5007 56.6673C62.7054 56.6673 70.1673 49.2054 70.1673 40.0007Z" fill="white"/>
</mask>
<g mask="url(#mask1_5829_13058)">
<path d="M70.1673 40.0007C70.1673 30.7959 62.7054 23.334 53.5007 23.334C44.2959 23.334 36.834 30.7959 36.834 40.0007C36.834 49.2054 44.2959 56.6673 53.5007 56.6673C62.7054 56.6673 70.1673 49.2054 70.1673 40.0007Z" fill="#91EDE9"/>
<path d="M36.834 23.334H70.1673V56.6673H36.834V23.334Z" fill="#91EDE9"/>
<path d="M71.668 57.1664H35.668V49.9164C35.668 49.9164 38.864 47.2827 40.418 47.1664C42.392 47.0187 42.8808 47.7654 44.8346 48.083C46.889 48.417 48.2088 46.2667 50.2513 46.6664C52.3335 47.0737 55.03 48.6429 56.7513 48.583C60.3918 48.4565 60.177 47.7709 63.168 48.4164C64.4391 48.6907 65.796 46.0137 67.918 46.4164C68.9928 46.6204 71.668 46.833 71.668 46.833V57.1664Z" fill="#48ACBA"/>
<path fill-rule="evenodd" clip-rule="evenodd" d="M54.6701 27.0808C55.6514 26.6355 56.3339 25.6472 56.3339 24.4993C56.3339 22.9345 55.0654 21.666 53.5006 21.666C51.9358 21.666 50.6673 22.9345 50.6673 24.4993C50.6673 25.6472 51.3498 26.6355 52.3311 27.0808L52.2593 29.166H52.2506L48.2963 29.4643C48.1705 29.4739 48.053 29.5305 47.9672 29.623C47.8815 29.7156 47.8339 29.8371 47.8339 29.9632V31.0365C47.834 31.1625 47.8815 31.2838 47.9671 31.3762C48.0527 31.4686 48.17 31.5254 48.2956 31.535L52.1673 31.8327L51.9833 38.7942C51.9278 40.8962 51.5853 43.472 49.5316 43.9232C49.3041 43.9732 49.0704 43.9993 48.8339 43.9993C47.6029 43.9993 46.1823 42.4839 45.2723 40.9298C45.633 40.7734 46.0022 40.6375 46.3783 40.5227C46.5944 40.4567 46.6379 40.1523 46.4493 40.0277C45.0856 39.1263 44.0039 37.9167 43.3403 36.5173C43.2491 36.325 42.9736 36.311 42.8818 36.503C42.6493 36.9881 42.4533 37.4898 42.2953 38.004C41.8351 39.5043 41.7178 41.0692 41.9498 42.6092L41.9653 42.7087C41.9974 42.9092 42.2458 42.9802 42.3918 42.839C42.667 42.5731 42.9584 42.3245 43.2644 42.0947C44.9384 47.3645 50.5369 49.9993 53.5006 49.9993C56.4649 49.9993 62.0656 47.3632 63.7379 42.0907C64.0438 42.3211 64.3349 42.5704 64.6098 42.837C64.7558 42.9787 65.0048 42.9077 65.0368 42.7068L65.0451 42.6542L65.0519 42.6092C65.2829 41.0692 65.1661 39.5043 64.7079 38.004C64.551 37.4909 64.3563 36.9901 64.1254 36.5057C64.0338 36.313 63.7576 36.327 63.6666 36.5198C63.0056 37.9184 61.9291 39.1272 60.5723 40.028C60.3841 40.1528 60.4276 40.4565 60.6434 40.5227C61.0136 40.6361 61.3772 40.7703 61.7323 40.9245C60.8221 42.4804 59.3998 43.9993 58.1673 43.9993C57.9309 43.9993 57.6973 43.9732 57.4699 43.9234C55.4159 43.4722 55.0734 40.8962 55.0179 38.7942L54.8339 31.8327L58.7056 31.5348C58.8312 31.5252 58.9485 31.4685 59.0341 31.3761C59.1197 31.2836 59.1673 31.1623 59.1673 31.0363V29.963C59.1673 29.8369 59.1196 29.7155 59.0339 29.6231C58.9482 29.5307 58.8307 29.474 58.7049 29.4645L54.7506 29.166H54.7419L54.6701 27.0808ZM55.1673 24.4993C55.1673 25.4198 54.4211 26.166 53.5006 26.166C52.5801 26.166 51.8339 25.4198 51.8339 24.4993C51.8339 23.5788 52.5801 22.8327 53.5006 22.8327C54.4211 22.8327 55.1673 23.5788 55.1673 24.4993Z" fill="#FF915C"/>
<mask id="mask2_5829_13058" style="mask-type:luminance" maskUnits="userSpaceOnUse" x="41" y="21" width="25" height="30">
<path d="M41.168 21H65.8346V50.6667H41.168V21Z" fill="white"/>
<path fill-rule="evenodd" clip-rule="evenodd" d="M54.6701 27.0808C55.6514 26.6355 56.3339 25.6472 56.3339 24.4993C56.3339 22.9345 55.0654 21.666 53.5006 21.666C51.9358 21.666 50.6673 22.9345 50.6673 24.4993C50.6673 25.6472 51.3498 26.6355 52.3311 27.0808L52.2593 29.166H52.2506L48.2963 29.4643C48.1705 29.4739 48.053 29.5305 47.9672 29.623C47.8815 29.7156 47.8339 29.8371 47.8339 29.9632V31.0365C47.834 31.1625 47.8815 31.2838 47.9671 31.3762C48.0527 31.4686 48.17 31.5254 48.2956 31.535L52.1673 31.8327L51.9833 38.7942C51.9278 40.8962 51.5853 43.472 49.5316 43.9232C49.3041 43.9732 49.0704 43.9993 48.8339 43.9993C47.6029 43.9993 46.1823 42.4839 45.2723 40.9298C45.633 40.7734 46.0022 40.6375 46.3783 40.5227C46.5944 40.4567 46.6379 40.1523 46.4493 40.0277C45.0856 39.1263 44.0039 37.9167 43.3403 36.5173C43.2491 36.325 42.9736 36.311 42.8818 36.503C42.6493 36.9881 42.4533 37.4898 42.2953 38.004C41.8351 39.5043 41.7178 41.0692 41.9498 42.6092L41.9653 42.7087C41.9974 42.9092 42.2458 42.9802 42.3918 42.839C42.667 42.5731 42.9584 42.3245 43.2644 42.0947C44.9384 47.3645 50.5369 49.9993 53.5006 49.9993C56.4649 49.9993 62.0656 47.3632 63.7379 42.0907C64.0438 42.3211 64.3349 42.5704 64.6098 42.837C64.7558 42.9787 65.0048 42.9077 65.0368 42.7068L65.0451 42.6542L65.0519 42.6092C65.2829 41.0692 65.1661 39.5043 64.7079 38.004C64.551 37.4909 64.3563 36.9901 64.1254 36.5057C64.0338 36.313 63.7576 36.327 63.6666 36.5198C63.0056 37.9184 61.9291 39.1272 60.5723 40.028C60.3841 40.1528 60.4276 40.4565 60.6434 40.5227C61.0136 40.6361 61.3772 40.7703 61.7323 40.9245C60.8221 42.4804 59.3998 43.9993 58.1673 43.9993C57.9309 43.9993 57.6973 43.9732 57.4699 43.9234C55.4159 43.4722 55.0734 40.8962 55.0179 38.7942L54.8339 31.8327L58.7056 31.5348C58.8312 31.5252 58.9485 31.4685 59.0341 31.3761C59.1197 31.2836 59.1673 31.1623 59.1673 31.0363V29.963C59.1673 29.8369 59.1196 29.7155 59.0339 29.6231C58.9482 29.5307 58.8307 29.474 58.7049 29.4645L54.7506 29.166H54.7419L54.6701 27.0808ZM55.1673 24.4993C55.1673 25.4198 54.4211 26.166 53.5006 26.166C52.5801 26.166 51.8339 25.4198 51.8339 24.4993C51.8339 23.5788 52.5801 22.8327 53.5006 22.8327C54.4211 22.8327 55.1673 23.5788 55.1673 24.4993Z" fill="black"/>
</mask>
<g mask="url(#mask2_5829_13058)">
<path d="M54.6708 27.0815L54.3953 26.4743L53.9891 26.6587L54.0045 27.1045L54.6708 27.0815ZM52.3318 27.0815L52.9981 27.1045L53.0135 26.6587L52.6073 26.4743L52.3318 27.0815ZM52.26 29.1667V29.8333H52.904L52.9261 29.1897L52.26 29.1667ZM52.2513 29.1667V28.5H52.2261L52.2011 28.5018L52.2513 29.1667ZM52.168 31.8333L52.8345 31.851L52.8511 31.2173L52.2191 31.1687L52.168 31.8333ZM45.2728 40.9305L45.0073 40.319L44.3173 40.6185L44.6976 41.2675L45.2728 40.9305ZM43.2651 42.0953L43.9005 41.8935L43.616 40.9973L42.8645 41.5625L43.2651 42.0953ZM63.7386 42.0913L64.1401 41.5592L63.3881 40.9918L63.1033 41.8897L63.7386 42.0913ZM61.733 40.9252L62.3083 41.2618L62.6878 40.6132L61.9986 40.3137L61.733 40.9252ZM54.8346 31.8333L54.7835 31.1687L54.1515 31.2172L54.1681 31.851L54.8346 31.8333ZM54.7513 29.1667L54.8015 28.5018L54.7765 28.5H54.7513V29.1667ZM54.7426 29.1667L54.0765 29.1897L54.0986 29.8333H54.7426V29.1667ZM54.9463 27.6885C56.157 27.1392 57.0013 25.9188 57.0013 24.5H55.668C55.668 25.3767 55.1471 26.1333 54.3953 26.4743L54.9463 27.6885ZM57.0013 24.5C57.0013 22.567 55.4343 21 53.5013 21V22.3333C54.698 22.3333 55.668 23.3033 55.668 24.5H57.0013ZM53.5013 21C51.5683 21 50.0013 22.567 50.0013 24.5H51.3346C51.3346 23.3033 52.3046 22.3333 53.5013 22.3333V21ZM50.0013 24.5C50.0013 25.9188 50.8456 27.1392 52.0563 27.6885L52.6073 26.4743C51.8555 26.1333 51.3346 25.3767 51.3346 24.5H50.0013ZM51.6656 27.0585L51.5936 29.1437L52.9261 29.1897L52.9981 27.1045L51.6656 27.0585ZM52.26 28.5H52.2513V29.8333H52.26V28.5ZM52.2011 28.5018L48.247 28.8003L48.3471 30.1298L52.3015 29.8315L52.2011 28.5018ZM48.247 28.8003C47.9536 28.8225 47.6792 28.9547 47.4792 29.1704C47.2791 29.3861 47.168 29.6695 47.168 29.9637H48.5013C48.5013 30.0057 48.4854 30.0462 48.4568 30.077C48.4282 30.1078 48.389 30.1267 48.3471 30.1298L48.247 28.8003ZM47.168 29.9637V31.037H48.5013V29.9637H47.168ZM47.168 31.037C47.1679 31.3309 47.2789 31.6141 47.4786 31.8298C47.6783 32.0454 47.952 32.1778 48.2451 32.2003L48.3475 30.8708C48.3893 30.8741 48.4284 30.893 48.4569 30.9238C48.4854 30.9546 48.5013 30.995 48.5013 31.037H47.168ZM48.2451 32.2003L52.1168 32.498L52.2191 31.1687L48.3475 30.8708L48.2451 32.2002V32.2003ZM51.5015 31.8157L51.3175 38.7772L52.6505 38.8125L52.8345 31.851L51.5015 31.8157ZM51.3175 38.7772C51.2901 39.8153 51.1915 40.8943 50.8806 41.7512C50.5756 42.5922 50.111 43.1142 49.3891 43.2728L49.6753 44.575C51.0071 44.2825 51.7406 43.2908 52.1341 42.2057C52.522 41.1363 52.6223 39.8765 52.6505 38.8125L51.3175 38.7772ZM49.3891 43.2728C49.207 43.3129 49.0211 43.3332 48.8346 43.3333V44.6667C49.1203 44.6667 49.402 44.635 49.6753 44.575L49.3891 43.2728ZM48.8346 43.3333C48.4741 43.3333 47.9696 43.0957 47.385 42.5575C46.8216 42.0392 46.2783 41.3278 45.848 40.5935L44.6976 41.2675C45.1776 42.0872 45.7996 42.9107 46.482 43.5385C47.143 44.1467 47.9641 44.6667 48.8346 44.6667V43.3333ZM45.5383 41.542C45.8759 41.3955 46.2216 41.2683 46.5736 41.161L46.1841 39.8858C45.784 40.0078 45.3911 40.1525 45.0073 40.319L45.5383 41.542ZM46.5736 41.161C47.3321 40.9293 47.4741 39.906 46.8176 39.4722L46.0825 40.5845C46.0202 40.5439 45.9707 40.4866 45.9396 40.4192C45.9085 40.3517 45.897 40.2768 45.9065 40.2032C45.9181 40.1295 45.9504 40.0606 45.9995 40.0044C46.0486 39.9483 46.1126 39.9072 46.1841 39.8858L46.5736 41.161ZM46.8176 39.4722C45.5466 38.6322 44.5505 37.5125 43.9433 36.2323L42.7386 36.8037C43.4586 38.322 44.6261 39.622 46.0825 40.5845L46.8175 39.472L46.8176 39.4722ZM43.9433 36.2323C43.6445 35.602 42.6476 35.45 42.281 36.2158L43.4838 36.7915C43.4479 36.8658 43.3912 36.9281 43.3207 36.9709C43.2502 37.0137 43.1688 37.0352 43.0863 37.0328C43.013 37.0299 42.9418 37.007 42.8806 36.9666C42.8193 36.9262 42.7702 36.8699 42.7386 36.8037L43.9433 36.2323ZM42.281 36.2158C42.0343 36.7308 41.8263 37.2634 41.6586 37.8092L42.9333 38.2002C43.0816 37.7176 43.2656 37.2468 43.4838 36.7915L42.281 36.2158ZM41.6586 37.8092C41.1695 39.4042 41.0441 41.0697 41.2913 42.7092L42.6096 42.5105C42.3926 41.07 42.5021 39.6058 42.9333 38.2002L41.6586 37.8092ZM41.2913 42.7092L41.3076 42.8152L42.6241 42.6037C42.6191 42.5727 42.6143 42.5415 42.6096 42.5105L41.2913 42.7092ZM41.3076 42.8152C41.4348 43.6073 42.3666 43.792 42.8558 43.3188L41.929 42.3605C41.9808 42.3106 42.045 42.2754 42.1149 42.2584C42.1848 42.2414 42.258 42.2433 42.327 42.2638C42.4032 42.2872 42.4714 42.3314 42.5239 42.3914C42.5764 42.4515 42.6111 42.525 42.6241 42.6037L41.3076 42.8152ZM42.8558 43.3188C43.1112 43.072 43.3819 42.8413 43.666 42.628L42.8645 41.5625C42.5364 41.8089 42.224 42.0754 41.929 42.3605L42.8558 43.3188ZM42.6298 42.2972C43.5231 45.1097 45.457 47.1988 47.5303 48.5788C49.5908 49.9503 51.858 50.6667 53.5013 50.6667V49.3333C52.1811 49.3333 50.167 48.7322 48.269 47.4688C46.3836 46.2138 44.681 44.3507 43.9005 41.8935L42.6298 42.2972ZM53.5013 50.6667C55.1451 50.6667 57.4128 49.95 59.474 48.5778C61.5476 47.197 63.4815 45.1068 64.3741 42.2928L63.1033 41.8897C62.3235 44.3482 60.6208 46.2123 58.735 47.4678C56.8366 48.7318 54.8218 49.3333 53.5013 49.3333V50.6667ZM63.3371 42.6235C63.6208 42.8373 63.891 43.0686 64.1461 43.3158L65.075 42.3593C64.7803 42.0735 64.4681 41.8062 64.1401 41.5592L63.3371 42.6235ZM64.1461 43.3158C64.6351 43.7905 65.5691 43.6065 65.6958 42.8127L64.3791 42.6023C64.3921 42.5235 64.4268 42.4499 64.4794 42.3898C64.5319 42.3296 64.6003 42.2854 64.6766 42.262C64.7457 42.2415 64.819 42.2397 64.8889 42.2568C64.9589 42.2739 65.0231 42.3093 65.075 42.3593L64.1461 43.3158ZM65.6958 42.8127L65.7046 42.7567L64.387 42.5532C64.3844 42.5696 64.3818 42.586 64.3791 42.6023L65.6958 42.8127ZM65.7046 42.7567L65.712 42.7087L64.3933 42.511L64.387 42.5532L65.7046 42.7567ZM65.712 42.7087C65.9578 41.0698 65.8331 39.4047 65.3463 37.81L64.0711 38.1993C64.5005 39.6055 64.6095 41.07 64.3933 42.511L65.712 42.7087ZM65.3463 37.81C65.1798 37.2654 64.9732 36.7339 64.7281 36.2198L63.5243 36.7928C63.741 37.2475 63.9238 37.7177 64.0711 38.1993L65.3463 37.81ZM64.7281 36.2198C64.3623 35.4515 63.363 35.604 63.0645 36.2357L64.27 36.8053C64.2384 36.8717 64.1893 36.9282 64.128 36.9687C64.0666 37.0092 63.9954 37.0321 63.922 37.035C63.8394 37.0373 63.7579 37.0157 63.6873 36.9727C63.6167 36.9298 63.5601 36.8673 63.5243 36.7928L64.7281 36.2198ZM63.0645 36.2357C62.4598 37.5153 61.4685 38.634 60.2041 39.4732L60.9416 40.584C62.3913 39.6218 63.553 38.3225 64.27 36.8053L63.0645 36.2357ZM60.2041 39.4732C59.5496 39.9077 59.6918 40.9285 60.4486 41.1607L60.8396 39.886C60.911 39.9074 60.9749 39.9485 61.024 40.0046C61.073 40.0607 61.1053 40.1296 61.117 40.2032C61.1264 40.2767 61.115 40.3514 61.084 40.4188C61.053 40.4861 61.0036 40.5434 60.9416 40.584L60.2041 39.4732ZM60.4486 41.1607C60.7949 41.2669 61.135 41.3923 61.4673 41.5365L61.9986 40.3137C61.6206 40.1495 61.2337 40.0067 60.8396 39.886L60.4486 41.1607ZM61.1575 40.5885C60.7275 41.3237 60.1836 42.0363 59.6196 42.5557C59.0341 43.095 58.529 43.3333 58.168 43.3333V44.6667C59.0395 44.6667 59.8616 44.1455 60.523 43.5363C61.206 42.9073 61.8283 42.0825 62.3083 41.2618L61.1575 40.5885ZM58.168 43.3333C57.9808 43.3333 57.795 43.3127 57.6136 43.2728L57.3276 44.5752C57.6008 44.6352 57.8823 44.6667 58.168 44.6667V43.3333ZM57.6136 43.2728C56.8918 43.1143 56.427 42.5923 56.122 41.7512C55.8111 40.8943 55.7125 39.8152 55.6851 38.7772L54.3521 38.8123C54.3803 39.8765 54.4806 41.1363 54.8685 42.2058C55.2621 43.291 55.9956 44.2825 57.3276 44.5752L57.6136 43.2728ZM55.6851 38.7772L55.5011 31.8157L54.1681 31.851L54.3521 38.8123L55.6851 38.7772ZM54.8858 32.498L58.7575 32.2002L58.6551 30.8708L54.7835 31.1687L54.8858 32.498ZM58.7575 32.2002C59.0505 32.1776 59.3243 32.0453 59.524 31.8296C59.7237 31.6139 59.8347 31.3308 59.8346 31.0368H58.5013C58.5013 30.9949 58.5172 30.9545 58.5457 30.9237C58.5742 30.8929 58.6133 30.8741 58.6551 30.8708L58.7575 32.2002ZM59.8346 31.0368V29.9637H58.5013V31.0368H59.8346ZM59.8346 29.9637C59.8346 29.6695 59.7235 29.3861 59.5234 29.1704C59.3233 28.9547 59.0492 28.8225 58.7558 28.8003L58.6555 30.1298C58.6135 30.1267 58.5744 30.1078 58.5458 30.077C58.5172 30.0462 58.5013 30.0057 58.5013 29.9637H59.8346ZM58.7558 28.8003L54.8015 28.5018L54.7011 29.8315L58.6555 30.1298L58.7558 28.8003ZM54.7513 28.5H54.7426V29.8333H54.7513V28.5ZM55.409 29.1437L55.337 27.0585L54.0045 27.1045L54.0765 29.1897L55.409 29.1437ZM53.5013 26.8333C54.79 26.8333 55.8346 25.7887 55.8346 24.5H54.5013C54.5013 24.7652 54.3959 25.0196 54.2084 25.2071C54.0209 25.3946 53.7665 25.5 53.5013 25.5V26.8333ZM51.168 24.5C51.168 25.7887 52.2126 26.8333 53.5013 26.8333V25.5C53.2361 25.5 52.9817 25.3946 52.7942 25.2071C52.6066 25.0196 52.5013 24.7652 52.5013 24.5H51.168ZM53.5013 22.1667C52.2126 22.1667 51.168 23.2113 51.168 24.5H52.5013C52.5013 24.2348 52.6066 23.9804 52.7942 23.7929C52.9817 23.6054 53.2361 23.5 53.5013 23.5V22.1667ZM55.8346 24.5C55.8346 23.2113 54.79 22.1667 53.5013 22.1667V23.5C53.7665 23.5 54.0209 23.6054 54.2084 23.7929C54.3959 23.9804 54.5013 24.2348 54.5013 24.5H55.8346Z" fill="#2B3C5A"/>
</g>
<path d="M47.834 31.1913C47.834 31.2753 47.8657 31.3562 47.9228 31.4178C47.9798 31.4794 48.0581 31.5172 48.1418 31.5237L52.1673 31.8333L53.273 30.7277C53.2916 30.709 53.3044 30.6853 53.3095 30.6594C53.3147 30.6336 53.312 30.6067 53.302 30.5824C53.2919 30.558 53.2748 30.5372 53.2529 30.5225C53.231 30.5078 53.2052 30.5 53.1788 30.5H47.834V31.1913Z" fill="#8A380F"/>
<path fill-rule="evenodd" clip-rule="evenodd" d="M63.8552 36.4684C63.9202 36.3709 64.0659 36.3797 64.1164 36.4852C64.3515 36.976 64.5494 37.4837 64.7085 38.0041C65.1667 39.5044 65.2835 41.0692 65.0525 42.6092C65.0477 42.6417 65.0427 42.6744 65.0374 42.7069C65.0054 42.9077 64.7564 42.9787 64.6104 42.8371C64.0537 42.2986 63.4328 41.8305 62.7619 41.4436C62.7067 41.4116 62.6653 41.3604 62.6455 41.2998C62.6258 41.2392 62.6291 41.1734 62.6549 41.1151C63.2162 39.8512 63.6297 38.3364 63.8304 36.5367C63.8332 36.5123 63.8417 36.4889 63.8552 36.4684Z" fill="#8A380F"/>
<path d="M54.6686 27L54.752 29.1667L53.7823 30.0717C53.6758 30.171 53.502 30.0955 53.502 29.9498V27H54.6686ZM64.1686 40C63.502 46.6667 56.8353 50 53.502 50V30.75C53.502 30.6837 53.5283 30.6201 53.5752 30.5732C53.6221 30.5263 53.6856 30.5 53.752 30.5H59.1686V31.0475C59.1686 31.1715 59.1226 31.291 59.0394 31.383C58.9562 31.4749 58.8418 31.5326 58.7185 31.545L54.8353 31.8333L55.0193 38.7948C55.0748 40.8968 55.4141 43.4785 57.469 43.9257C57.6931 43.9745 57.9238 44 58.1575 44C57.9266 44.011 57.6973 44.0923 57.5488 44.2693C56.7376 45.2357 55.8163 46.2102 54.4531 46.6502C58.0365 46.8168 62.9715 44.379 63.8353 36.5L64.1686 40Z" fill="#8A380F"/>
<path fill-rule="evenodd" clip-rule="evenodd" d="M53.835 26.6498C53.6518 26.6685 53.502 26.816 53.502 27.0002C53.502 27.1843 53.6516 27.3355 53.8345 27.314C54.4666 27.2392 55.0553 26.9538 55.5055 26.5037C56.0335 25.9755 56.3317 25.2603 56.3353 24.5135C56.3353 24.5117 56.335 24.51 56.3343 24.5083C56.3336 24.5067 56.3326 24.5052 56.3314 24.5039C56.3301 24.5026 56.3286 24.5017 56.327 24.501C56.3253 24.5003 56.3236 24.5 56.3218 24.5C56.3186 24.5 56.3155 24.5012 56.3131 24.5033C56.3106 24.5054 56.3091 24.5083 56.3086 24.5115C56.1331 25.6332 55.1143 26.5177 53.835 26.6498Z" fill="#8A380F"/>
<path d="M70.5013 57.166H35.168V50.4993C35.168 50.4993 38.4473 48.699 40.0013 48.5827C41.9753 48.435 42.3808 49.9043 44.3346 50.222C46.389 50.556 47.1255 48.5163 49.168 48.916C51.2501 49.3233 52.9466 51.3092 54.668 51.2493C58.3085 51.1228 58.5103 49.3538 61.5013 49.9993C62.7725 50.2737 63.0846 50.916 66.0846 50.222C69.0846 49.528 70.5013 50.4993 70.5013 50.4993V57.166Z" fill="#2B3C5A"/>
</g>
<path d="M43.6023 76.9091C43.6023 78.0062 43.3968 78.9458 42.9858 79.728C42.5781 80.5069 42.0213 81.1035 41.3153 81.5178C40.6127 81.9321 39.8156 82.1392 38.924 82.1392C38.0324 82.1392 37.2337 81.9321 36.5277 81.5178C35.825 81.1001 35.2682 80.5019 34.8572 79.723C34.4496 78.9408 34.2457 78.0028 34.2457 76.9091C34.2457 75.812 34.4496 74.8741 34.8572 74.0952C35.2682 73.313 35.825 72.7147 36.5277 72.3004C37.2337 71.8861 38.0324 71.679 38.924 71.679C39.8156 71.679 40.6127 71.8861 41.3153 72.3004C42.0213 72.7147 42.5781 73.313 42.9858 74.0952C43.3968 74.8741 43.6023 75.812 43.6023 76.9091ZM41.7479 76.9091C41.7479 76.1368 41.6269 75.4856 41.3849 74.9553C41.1463 74.4216 40.8149 74.0189 40.3906 73.7472C39.9664 73.4721 39.4775 73.3345 38.924 73.3345C38.3705 73.3345 37.8816 73.4721 37.4574 73.7472C37.0331 74.0189 36.7 74.4216 36.4581 74.9553C36.2195 75.4856 36.1001 76.1368 36.1001 76.9091C36.1001 77.6813 36.2195 78.3343 36.4581 78.8679C36.7 79.3982 37.0331 79.8009 37.4574 80.076C37.8816 80.3478 38.3705 80.4837 38.924 80.4837C39.4775 80.4837 39.9664 80.3478 40.3906 80.076C40.8149 79.8009 41.1463 79.3982 41.3849 78.8679C41.6269 78.3343 41.7479 77.6813 41.7479 76.9091ZM46.7381 74.3636L48.2793 77.1825L49.8453 74.3636H51.7495L49.4476 78.1818L51.7892 82H49.8951L48.2793 79.2507L46.6784 82H44.7694L47.0961 78.1818L44.829 74.3636H46.7381ZM54.9412 71.8182V82H53.1415V71.8182H54.9412ZM56.7919 82V74.3636H58.5916V82H56.7919ZM57.6967 73.2798C57.4117 73.2798 57.1664 73.1854 56.9609 72.9964C56.7554 72.8042 56.6527 72.5739 56.6527 72.3054C56.6527 72.0336 56.7554 71.8033 56.9609 71.6143C57.1664 71.4221 57.4117 71.326 57.6967 71.326C57.9851 71.326 58.2304 71.4221 58.4325 71.6143C58.638 71.8033 58.7408 72.0336 58.7408 72.3054C58.7408 72.5739 58.638 72.8042 58.4325 72.9964C58.2304 73.1854 57.9851 73.2798 57.6967 73.2798ZM62.242 77.5256V82H60.4423V74.3636H62.1625V75.6612H62.252C62.4276 75.2337 62.7077 74.8939 63.0922 74.642C63.4799 74.3902 63.9589 74.2642 64.5289 74.2642C65.0559 74.2642 65.515 74.3769 65.9061 74.6023C66.3005 74.8277 66.6054 75.1541 66.8208 75.5817C67.0396 76.0092 67.1473 76.5279 67.144 77.1378V82H65.3443V77.4162C65.3443 76.9058 65.2117 76.5064 64.9466 76.218C64.6847 75.9297 64.3218 75.7855 63.8578 75.7855C63.5429 75.7855 63.2628 75.8551 63.0176 75.9943C62.7756 76.1302 62.585 76.3274 62.4458 76.5859C62.31 76.8445 62.242 77.1577 62.242 77.5256ZM72.7868 74.3636V75.7557H68.3968V74.3636H72.7868ZM69.4806 72.5341H71.2804V79.7031C71.2804 79.9451 71.3168 80.1307 71.3897 80.2599C71.466 80.3859 71.5654 80.4721 71.688 80.5185C71.8107 80.5649 71.9466 80.5881 72.0957 80.5881C72.2084 80.5881 72.3111 80.5798 72.4039 80.5632C72.5001 80.5466 72.573 80.5317 72.6227 80.5185L72.926 81.9254C72.8298 81.9586 72.6923 81.995 72.5133 82.0348C72.3377 82.0746 72.1222 82.0978 71.867 82.1044C71.4163 82.1177 71.0102 82.0497 70.649 81.9006C70.2877 81.7481 70.001 81.5128 69.7889 81.1946C69.5801 80.8764 69.4773 80.4787 69.4806 80.0014V72.5341Z" fill="white"/>
</g>
<defs>
<filter id="filter0_d_5829_13058" x="0" y="0" width="107" height="109" filterUnits="userSpaceOnUse" color-interpolation-filters="sRGB">
<feFlood flood-opacity="0" result="BackgroundImageFix"/>
<feColorMatrix in="SourceAlpha" type="matrix" values="0 0 0 0 0 0 0 0 0 0 0 0 0 0 0 0 0 0 127 0" result="hardAlpha"/>
<feOffset dy="2"/>
<feGaussianBlur stdDeviation="4"/>
<feColorMatrix type="matrix" values="0 0 0 0 0 0 0 0 0 0 0 0 0 0 0 0 0 0 0.25 0"/>
<feBlend mode="normal" in2="BackgroundImageFix" result="effect1_dropShadow_5829_13058"/>
<feBlend mode="normal" in="SourceGraphic" in2="effect1_dropShadow_5829_13058" result="shape"/>
</filter>
</defs>
</svg>
