<svg width="107" height="109" viewBox="0 0 107 109" fill="none" xmlns="http://www.w3.org/2000/svg">
<g filter="url(#filter0_d_5846_13543)">
<rect x="8" y="6" width="91" height="93" rx="12" fill="#151B23"/>
<rect x="9" y="7" width="89" height="91" rx="11" stroke="#1F2937" stroke-width="2"/>
<mask id="mask0_5846_13543" style="mask-type:luminance" maskUnits="userSpaceOnUse" x="39" y="22" width="29" height="36">
<path d="M39.75 22.5H67.75V57.5H39.75V22.5Z" fill="white"/>
</mask>
<g mask="url(#mask0_5846_13543)">
<path d="M53.75 22.5C46.015 22.5 39.75 28.765 39.75 36.5H46.75C46.75 32.6358 49.8858 29.5 53.75 29.5V22.5Z" fill="#D6FF00"/>
<path d="M67.75 36.5C67.75 28.765 61.485 22.5 53.75 22.5V29.5C57.6142 29.5 60.75 32.6358 60.75 36.5H67.75Z" fill="#34E27A"/>
<path d="M53.75 50.5C61.485 50.5 67.75 44.235 67.75 36.5H60.75C60.75 40.3642 57.6142 43.5 53.75 43.5V50.5Z" fill="#00B9F1"/>
<path d="M46.75 50.5V36.5H39.75V57.5H53.75V50.5H46.75Z" fill="white"/>
</g>
<path d="M24.0912 82V71.8182H27.9094C28.6916 71.8182 29.3478 71.964 29.8781 72.2557C30.4117 72.5473 30.8144 72.9484 31.0862 73.4588C31.3613 73.9659 31.4988 74.5426 31.4988 75.1889C31.4988 75.8419 31.3613 76.4219 31.0862 76.929C30.8111 77.4361 30.4051 77.8355 29.8682 78.1271C29.3312 78.4155 28.67 78.5597 27.8845 78.5597H25.354V77.0433H27.6359C28.0933 77.0433 28.4678 76.9638 28.7595 76.8047C29.0512 76.6456 29.2666 76.4268 29.4058 76.1484C29.5483 75.87 29.6196 75.5502 29.6196 75.1889C29.6196 74.8277 29.5483 74.5095 29.4058 74.2344C29.2666 73.9593 29.0495 73.7455 28.7545 73.593C28.4629 73.4373 28.0867 73.3594 27.626 73.3594H25.9356V82H24.0912ZM35.0821 82.1541C34.5982 82.1541 34.1624 82.0679 33.7746 81.8956C33.3901 81.7199 33.0852 81.4614 32.8598 81.12C32.6378 80.7786 32.5267 80.3577 32.5267 79.8572C32.5267 79.4264 32.6063 79.0701 32.7654 78.7884C32.9244 78.5066 33.1415 78.2812 33.4166 78.1122C33.6917 77.9432 34.0016 77.8156 34.3463 77.7294C34.6943 77.6399 35.0539 77.5753 35.4252 77.5355C35.8726 77.4891 36.2355 77.4477 36.5139 77.4112C36.7923 77.3714 36.9945 77.3118 37.1205 77.2322C37.2497 77.1494 37.3144 77.0218 37.3144 76.8494V76.8196C37.3144 76.4451 37.2033 76.1551 36.9813 75.9496C36.7592 75.7441 36.4394 75.6413 36.0218 75.6413C35.5809 75.6413 35.2313 75.7375 34.9727 75.9297C34.7175 76.1219 34.5452 76.349 34.4557 76.6108L32.7753 76.3722C32.9079 75.9081 33.1266 75.5204 33.4316 75.2088C33.7365 74.8939 34.1093 74.6586 34.5502 74.5028C34.991 74.3438 35.4782 74.2642 36.0118 74.2642C36.3797 74.2642 36.7459 74.3073 37.1105 74.3935C37.4751 74.4796 37.8082 74.6222 38.1098 74.821C38.4114 75.0166 38.6534 75.2834 38.8357 75.6214C39.0213 75.9595 39.1141 76.3821 39.1141 76.8892V82H37.384V80.951H37.3243C37.2149 81.1631 37.0608 81.362 36.8619 81.5476C36.6664 81.7299 36.4195 81.8774 36.1212 81.9901C35.8262 82.0994 35.4798 82.1541 35.0821 82.1541ZM35.5494 80.8317C35.9107 80.8317 36.2239 80.7604 36.4891 80.6179C36.7542 80.4721 36.9581 80.2798 37.1006 80.0412C37.2464 79.8026 37.3193 79.5424 37.3193 79.2607V78.3608C37.263 78.4072 37.1669 78.4503 37.031 78.4901C36.8984 78.5298 36.7493 78.5646 36.5835 78.5945C36.4178 78.6243 36.2538 78.6508 36.0914 78.674C35.9289 78.6972 35.7881 78.7171 35.6688 78.7337C35.4003 78.7701 35.16 78.8298 34.9479 78.9126C34.7358 78.9955 34.5684 79.1115 34.4458 79.2607C34.3231 79.4065 34.2618 79.5954 34.2618 79.8274C34.2618 80.1589 34.3828 80.4091 34.6247 80.5781C34.8667 80.7472 35.1749 80.8317 35.5494 80.8317ZM46.9593 76.3821L45.3186 76.5611C45.2722 76.3954 45.191 76.2396 45.075 76.0938C44.9623 75.9479 44.8099 75.8303 44.6176 75.7408C44.4254 75.6513 44.1901 75.6065 43.9117 75.6065C43.5371 75.6065 43.2223 75.6877 42.9671 75.8501C42.7152 76.0125 42.5909 76.223 42.5942 76.4815C42.5909 76.7036 42.6721 76.8842 42.8378 77.0234C43.0068 77.1626 43.2852 77.277 43.673 77.3665L44.9756 77.6449C45.6981 77.8007 46.2351 78.0476 46.5864 78.3857C46.941 78.7237 47.12 79.1662 47.1233 79.7131C47.12 80.1937 46.9791 80.6179 46.7007 80.9858C46.4256 81.3504 46.0428 81.6354 45.5523 81.8409C45.0618 82.0464 44.4983 82.1491 43.8619 82.1491C42.9273 82.1491 42.1749 81.9536 41.6048 81.5625C41.0348 81.1681 40.695 80.6196 40.5857 79.9169L42.3406 79.7479C42.4202 80.0926 42.5892 80.3527 42.8477 80.5284C43.1063 80.7041 43.4427 80.7919 43.857 80.7919C44.2845 80.7919 44.6276 80.7041 44.8861 80.5284C45.1479 80.3527 45.2789 80.1357 45.2789 79.8771C45.2789 79.6584 45.1943 79.4777 45.0253 79.3352C44.8596 79.1927 44.6011 79.0833 44.2497 79.0071L42.9472 78.7337C42.2147 78.5812 41.6728 78.3243 41.3215 77.9631C40.9701 77.5985 40.7961 77.1378 40.7994 76.581C40.7961 76.1103 40.9237 75.7027 41.1823 75.358C41.4441 75.0099 41.807 74.7415 42.271 74.5526C42.7384 74.3603 43.277 74.2642 43.8868 74.2642C44.7817 74.2642 45.486 74.4548 45.9997 74.8359C46.5168 75.2171 46.8366 75.7325 46.9593 76.3821ZM54.6428 76.3821L53.0022 76.5611C52.9558 76.3954 52.8746 76.2396 52.7586 76.0938C52.6459 75.9479 52.4935 75.8303 52.3012 75.7408C52.109 75.6513 51.8737 75.6065 51.5953 75.6065C51.2207 75.6065 50.9059 75.6877 50.6507 75.8501C50.3988 76.0125 50.2745 76.223 50.2778 76.4815C50.2745 76.7036 50.3557 76.8842 50.5214 77.0234C50.6904 77.1626 50.9688 77.277 51.3566 77.3665L52.6592 77.6449C53.3817 77.8007 53.9186 78.0476 54.27 78.3857C54.6246 78.7237 54.8036 79.1662 54.8069 79.7131C54.8036 80.1937 54.6627 80.6179 54.3843 80.9858C54.1092 81.3504 53.7264 81.6354 53.2359 81.8409C52.7454 82.0464 52.1819 82.1491 51.5455 82.1491C50.6109 82.1491 49.8585 81.9536 49.2884 81.5625C48.7184 81.1681 48.3786 80.6196 48.2693 79.9169L50.0242 79.7479C50.1038 80.0926 50.2728 80.3527 50.5313 80.5284C50.7899 80.7041 51.1263 80.7919 51.5406 80.7919C51.9681 80.7919 52.3112 80.7041 52.5697 80.5284C52.8315 80.3527 52.9624 80.1357 52.9624 79.8771C52.9624 79.6584 52.8779 79.4777 52.7089 79.3352C52.5432 79.1927 52.2847 79.0833 51.9333 79.0071L50.6308 78.7337C49.8983 78.5812 49.3564 78.3243 49.0051 77.9631C48.6537 77.5985 48.4797 77.1378 48.483 76.581C48.4797 76.1103 48.6073 75.7027 48.8659 75.358C49.1277 75.0099 49.4906 74.7415 49.9546 74.5526C50.422 74.3603 50.9606 74.2642 51.5704 74.2642C52.4653 74.2642 53.1696 74.4548 53.6833 74.8359C54.2004 75.2171 54.5202 75.7325 54.6428 76.3821ZM56.2909 84.8636V74.3636H58.0608V75.6264H58.1652C58.258 75.4408 58.3889 75.2436 58.558 75.0348C58.727 74.8227 58.9557 74.642 59.2441 74.4929C59.5324 74.3404 59.9003 74.2642 60.3477 74.2642C60.9377 74.2642 61.4697 74.415 61.9436 74.7166C62.4209 75.0149 62.7987 75.4574 63.0771 76.044C63.3589 76.6274 63.4997 77.3433 63.4997 78.1918C63.4997 79.0303 63.3622 79.7429 63.0871 80.3295C62.812 80.9162 62.4375 81.3636 61.9635 81.6719C61.4896 81.9801 60.9526 82.1342 60.3527 82.1342C59.9152 82.1342 59.5523 82.0613 59.2639 81.9155C58.9756 81.7696 58.7436 81.594 58.5679 81.3885C58.3956 81.1797 58.2613 80.9825 58.1652 80.7969H58.0906V84.8636H56.2909ZM58.0558 78.1818C58.0558 78.6757 58.1254 79.1082 58.2646 79.4794C58.4072 79.8506 58.611 80.1406 58.8762 80.3494C59.1446 80.5549 59.4694 80.6577 59.8506 80.6577C60.2483 80.6577 60.5814 80.5516 60.8499 80.3395C61.1183 80.1241 61.3205 79.8307 61.4564 79.4595C61.5956 79.085 61.6652 78.6591 61.6652 78.1818C61.6652 77.7079 61.5973 77.2869 61.4614 76.919C61.3255 76.5511 61.1233 76.2628 60.8548 76.054C60.5864 75.8452 60.2516 75.7408 59.8506 75.7408C59.4661 75.7408 59.1396 75.8419 58.8712 76.044C58.6027 76.2462 58.3989 76.5296 58.2597 76.8942C58.1238 77.2588 58.0558 77.688 58.0558 78.1818ZM68.3719 82.1491C67.6262 82.1491 66.9798 81.9851 66.433 81.657C65.8861 81.3288 65.4619 80.8698 65.1602 80.2798C64.8619 79.6899 64.7128 79.0005 64.7128 78.2116C64.7128 77.4228 64.8619 76.7318 65.1602 76.1385C65.4619 75.5452 65.8861 75.0845 66.433 74.7564C66.9798 74.4283 67.6262 74.2642 68.3719 74.2642C69.1176 74.2642 69.7639 74.4283 70.3108 74.7564C70.8577 75.0845 71.2803 75.5452 71.5786 76.1385C71.8802 76.7318 72.031 77.4228 72.031 78.2116C72.031 79.0005 71.8802 79.6899 71.5786 80.2798C71.2803 80.8698 70.8577 81.3288 70.3108 81.657C69.7639 81.9851 69.1176 82.1491 68.3719 82.1491ZM68.3818 80.7074C68.7862 80.7074 69.1243 80.5964 69.396 80.3743C69.6678 80.1489 69.87 79.8473 70.0026 79.4695C70.1385 79.0916 70.2064 78.6707 70.2064 78.2067C70.2064 77.7393 70.1385 77.3168 70.0026 76.9389C69.87 76.5578 69.6678 76.2545 69.396 76.0291C69.1243 75.8037 68.7862 75.6911 68.3818 75.6911C67.9675 75.6911 67.6228 75.8037 67.3477 76.0291C67.076 76.2545 66.8721 76.5578 66.7362 76.9389C66.6037 77.3168 66.5374 77.7393 66.5374 78.2067C66.5374 78.6707 66.6037 79.0916 66.7362 79.4695C66.8721 79.8473 67.076 80.1489 67.3477 80.3743C67.6228 80.5964 67.9675 80.7074 68.3818 80.7074ZM73.5585 82V74.3636H75.3035V75.6364H75.3831C75.5223 75.1955 75.7609 74.8558 76.099 74.6172C76.4404 74.3752 76.8298 74.2543 77.2673 74.2543C77.3667 74.2543 77.4778 74.2592 77.6004 74.2692C77.7264 74.2758 77.8308 74.2874 77.9136 74.304V75.9595C77.8374 75.933 77.7164 75.9098 77.5507 75.8899C77.3883 75.8667 77.2309 75.8551 77.0784 75.8551C76.7503 75.8551 76.4553 75.9264 76.1934 76.0689C75.9349 76.2081 75.7311 76.402 75.5819 76.6506C75.4328 76.8991 75.3582 77.1858 75.3582 77.5107V82H73.5585ZM83.3327 74.3636V75.7557H78.9427V74.3636H83.3327ZM80.0265 72.5341H81.8263V79.7031C81.8263 79.9451 81.8627 80.1307 81.9356 80.2599C82.0119 80.3859 82.1113 80.4721 82.2339 80.5185C82.3566 80.5649 82.4925 80.5881 82.6416 80.5881C82.7543 80.5881 82.857 80.5798 82.9498 80.5632C83.046 80.5466 83.1189 80.5317 83.1686 80.5185L83.4719 81.9254C83.3757 81.9586 83.2382 81.995 83.0592 82.0348C82.8836 82.0746 82.6681 82.0978 82.4129 82.1044C81.9622 82.1177 81.5561 82.0497 81.1949 81.9006C80.8336 81.7481 80.5469 81.5128 80.3348 81.1946C80.126 80.8764 80.0232 80.4787 80.0265 80.0014V72.5341Z" fill="white"/>
</g>
<defs>
<filter id="filter0_d_5846_13543" x="0" y="0" width="107" height="109" filterUnits="userSpaceOnUse" color-interpolation-filters="sRGB">
<feFlood flood-opacity="0" result="BackgroundImageFix"/>
<feColorMatrix in="SourceAlpha" type="matrix" values="0 0 0 0 0 0 0 0 0 0 0 0 0 0 0 0 0 0 127 0" result="hardAlpha"/>
<feOffset dy="2"/>
<feGaussianBlur stdDeviation="4"/>
<feColorMatrix type="matrix" values="0 0 0 0 0 0 0 0 0 0 0 0 0 0 0 0 0 0 0.25 0"/>
<feBlend mode="normal" in2="BackgroundImageFix" result="effect1_dropShadow_5846_13543"/>
<feBlend mode="normal" in="SourceGraphic" in2="effect1_dropShadow_5846_13543" result="shape"/>
</filter>
</defs>
</svg>
