<svg width="107" height="109" viewBox="0 0 107 109" fill="none" xmlns="http://www.w3.org/2000/svg">
<g filter="url(#filter0_d_5834_13473)">
<rect x="8" y="6" width="91" height="93" rx="12" fill="#151B23"/>
<rect x="9" y="7" width="89" height="91" rx="11" stroke="#1F2937" stroke-width="2"/>
<g clip-path="url(#clip0_5834_13473)">
<path d="M46.6844 42.2559C45.1913 42.6801 44.2116 43.4238 43.5663 44.1669C44.1844 43.6256 45.0124 43.1285 46.1291 42.8116C47.2714 42.4875 48.246 42.4899 49.0513 42.6455V42.0151C48.3643 41.9523 47.5768 42.0023 46.6844 42.2559ZM43.498 36.957L37.9527 38.4195C37.9527 38.4195 38.0536 38.5624 38.2408 38.7531L42.9427 37.5128C42.9427 37.5128 42.876 38.3723 42.2974 39.141C43.3919 38.3122 43.498 36.957 43.498 36.957ZM48.14 50.0036C40.336 52.1077 36.2072 43.0541 34.9572 38.355C34.3797 36.1859 34.1275 34.5432 34.0603 33.483C34.0539 33.3872 34.0552 33.2909 34.0642 33.1952C33.6595 33.2195 33.4656 33.4302 33.505 34.0391C33.5722 35.0985 33.8244 36.7412 34.4019 38.9109C35.6514 43.6093 39.7806 52.6629 47.5847 50.5588C49.2833 50.1007 50.5594 49.2664 51.5176 48.2012C50.6344 48.9995 49.5294 49.6282 48.14 50.0036ZM49.6063 31.416V31.9721H52.6672C52.6046 31.7751 52.5413 31.5978 52.4785 31.416H49.6063Z" fill="#2D4552"/>
<path d="M53.3513 35.9942C54.7279 36.3857 55.456 37.3518 55.8408 38.2068L57.3758 38.6432C57.3758 38.6432 57.1665 35.6507 54.4625 34.8819C51.933 34.1624 50.3764 36.2889 50.1871 36.564C50.923 36.0392 51.9974 35.6095 53.3513 35.9942ZM65.5696 38.2206C63.0377 37.4979 61.4818 39.6288 61.2952 39.9C62.0316 39.3759 63.1055 38.946 64.4588 39.3324C65.8334 39.7243 66.5607 40.6894 66.9468 41.545L68.4838 41.983C68.4838 41.983 68.2712 38.99 65.5696 38.2206ZM64.0446 46.1106L51.2761 42.5373C51.2761 42.5373 51.4144 43.2388 51.9447 44.1473L62.6952 47.1558C63.5802 46.6432 64.0446 46.1106 64.0446 46.1106ZM55.1922 53.8021C45.082 51.0887 46.3042 38.1935 47.9402 32.083C48.6138 29.5647 49.3063 27.6931 49.8807 26.4383C49.538 26.3678 49.2541 26.5484 48.9738 27.1194C48.3638 28.3572 47.5841 30.3729 46.8297 33.1947C45.1942 39.3052 43.9719 52.2 54.0816 54.9135C58.8468 56.1914 62.5591 54.2492 65.3263 51.1988C62.6998 53.5803 59.346 54.9157 55.1922 53.8021Z" fill="#2D4552"/>
<path d="M49.6071 46.9819V44.3796L42.3848 46.4299C42.3848 46.4299 42.9183 43.3257 46.6851 42.2561C47.8274 41.932 48.8021 41.9342 49.6071 42.0898V31.4163H53.2235C52.8298 30.1982 52.4488 29.2605 52.1288 28.6089C51.5996 27.5304 51.0571 28.2454 49.8256 29.2767C48.9581 30.0021 46.7657 31.5498 43.4665 32.4397C40.1674 33.3303 37.5001 33.0941 36.3872 32.9011C34.8096 32.6286 33.9844 32.2817 34.0616 33.4831C34.1288 34.5427 34.3808 36.1855 34.9585 38.3551C36.2079 43.0537 40.3372 52.1071 48.1413 50.003C50.1798 49.4532 51.6185 48.3663 52.6159 46.9811H49.6071V46.9817V46.9819ZM37.9527 38.4197L43.4987 36.9572C43.4987 36.9572 43.3371 39.0929 41.258 39.6416C39.1783 40.1897 37.9527 38.4197 37.9527 38.4197Z" fill="#E2574C"/>
<path d="M70.4793 31.5382C69.0377 31.7911 65.5791 32.1063 61.3049 30.9595C57.0294 29.8133 54.1928 27.8086 53.0689 26.8664C51.4756 25.5306 50.7748 24.6021 50.0851 26.0064C49.4755 27.2449 48.6956 29.2606 47.9409 32.0825C46.3056 38.193 45.0833 51.0877 55.193 53.8012C65.3003 56.5123 70.6815 44.7326 72.3169 38.6216C73.0716 35.8003 73.4026 33.664 73.4935 32.2865C73.5974 30.7261 72.5266 31.1791 70.4793 31.5382ZM50.1673 36.5937C50.1673 36.5937 51.7605 34.1131 54.4627 34.882C57.1666 35.6508 57.3759 38.6432 57.3759 38.6432L50.1673 36.5937ZM56.7634 47.7246C52.0105 46.331 51.2775 42.5368 51.2775 42.5368L64.0453 46.1103C64.0453 46.1096 61.4681 49.1009 56.7634 47.7245V47.7246ZM61.2775 39.9273C61.2775 39.9273 62.8686 37.4486 65.5703 38.2196C68.2719 38.9896 68.4846 41.982 68.4846 41.982L61.2777 39.9273H61.2775Z" fill="#2EAD33"/>
<path d="M47.0817 45.0955L42.3833 46.4285C42.3833 46.4285 42.8936 43.5178 46.3548 42.3644L43.6945 32.3691L43.4647 32.4391C40.1654 33.3297 37.4982 33.0935 36.3854 32.9005C34.8078 32.6282 33.9825 32.2811 34.0597 33.4827C34.1268 34.5422 34.379 36.1849 34.9565 38.3545C36.2061 43.0531 40.3354 52.1065 48.1394 50.0024L48.3692 49.9301L47.0819 45.0954L47.0817 45.0955ZM37.9512 38.4189L43.4972 36.9563C43.4972 36.9563 43.3356 39.092 41.2565 39.6407C39.1768 40.1888 37.9512 38.4189 37.9512 38.4189Z" fill="#D65348"/>
<path d="M56.9778 47.7769L56.7628 47.7245C52.0098 46.3309 51.2769 42.5369 51.2769 42.5369L57.8608 44.3791L61.3464 30.9706L61.3042 30.9597C57.0289 29.8133 54.1923 27.8087 53.0683 26.8663C51.4752 25.5305 50.7742 24.6022 50.0845 26.0065C49.4755 27.245 48.6956 29.2607 47.9409 32.0826C46.3056 38.1931 45.0833 51.0877 55.193 53.8011L55.4002 53.848L56.9778 47.7769ZM50.1673 36.5936C50.1673 36.5936 51.7605 34.113 54.4627 34.8819C57.1666 35.6507 57.376 38.6431 57.376 38.6431L50.1673 36.5936Z" fill="#1D8D22"/>
<path d="M47.3223 45.0263L46.0623 45.3843C46.3601 47.0642 46.8848 48.6764 47.7082 50.1005C47.8517 50.0689 47.9939 50.0417 48.1398 50.0017C48.5225 49.8984 48.8773 49.7703 49.2189 49.6308C48.2985 48.2637 47.6898 46.6896 47.3223 45.0263ZM46.8304 33.1944C46.1829 35.6137 45.6035 39.096 45.7631 42.5887C46.0484 42.4647 46.3499 42.3491 46.685 42.254L46.9181 42.2017C46.6337 38.4709 47.2484 34.6693 47.9409 32.0826C48.1051 31.4691 48.2808 30.8588 48.4679 30.252C48.163 30.4472 47.8517 30.6322 47.5345 30.8068C47.2792 31.5964 47.0444 32.3926 46.8304 33.1944Z" fill="#C04B41"/>
</g>
<path d="M18.0043 82V71.8182H21.8224C22.6046 71.8182 23.2609 71.964 23.7912 72.2557C24.3248 72.5473 24.7275 72.9484 24.9993 73.4588C25.2744 73.9659 25.4119 74.5426 25.4119 75.1889C25.4119 75.8419 25.2744 76.4219 24.9993 76.929C24.7242 77.4361 24.3182 77.8355 23.7812 78.1271C23.2443 78.4155 22.5831 78.5597 21.7976 78.5597H19.267V77.0433H21.549C22.0064 77.0433 22.3809 76.9638 22.6726 76.8047C22.9643 76.6456 23.1797 76.4268 23.3189 76.1484C23.4614 75.87 23.5327 75.5502 23.5327 75.1889C23.5327 74.8277 23.4614 74.5095 23.3189 74.2344C23.1797 73.9593 22.9626 73.7455 22.6676 73.593C22.3759 73.4373 21.9998 73.3594 21.5391 73.3594H19.8487V82H18.0043ZM28.7342 71.8182V82H26.9345V71.8182H28.7342ZM32.7823 82.1541C32.2984 82.1541 31.8626 82.0679 31.4748 81.8956C31.0903 81.7199 30.7854 81.4614 30.56 81.12C30.3379 80.7786 30.2269 80.3577 30.2269 79.8572C30.2269 79.4264 30.3065 79.0701 30.4656 78.7884C30.6246 78.5066 30.8417 78.2812 31.1168 78.1122C31.3919 77.9432 31.7018 77.8156 32.0465 77.7294C32.3945 77.6399 32.7541 77.5753 33.1254 77.5355C33.5728 77.4891 33.9357 77.4477 34.2141 77.4112C34.4925 77.3714 34.6947 77.3118 34.8207 77.2322C34.9499 77.1494 35.0146 77.0218 35.0146 76.8494V76.8196C35.0146 76.4451 34.9035 76.1551 34.6815 75.9496C34.4594 75.7441 34.1396 75.6413 33.7219 75.6413C33.2811 75.6413 32.9315 75.7375 32.6729 75.9297C32.4177 76.1219 32.2454 76.349 32.1559 76.6108L30.4755 76.3722C30.6081 75.9081 30.8268 75.5204 31.1317 75.2088C31.4367 74.8939 31.8095 74.6586 32.2504 74.5028C32.6912 74.3438 33.1784 74.2642 33.712 74.2642C34.0799 74.2642 34.4461 74.3073 34.8107 74.3935C35.1753 74.4796 35.5084 74.6222 35.81 74.821C36.1116 75.0166 36.3536 75.2834 36.5359 75.6214C36.7215 75.9595 36.8143 76.3821 36.8143 76.8892V82H35.0842V80.951H35.0245C34.9151 81.1631 34.761 81.362 34.5621 81.5476C34.3666 81.7299 34.1197 81.8774 33.8214 81.9901C33.5264 82.0994 33.18 82.1541 32.7823 82.1541ZM33.2496 80.8317C33.6109 80.8317 33.9241 80.7604 34.1893 80.6179C34.4544 80.4721 34.6583 80.2798 34.8008 80.0412C34.9466 79.8026 35.0195 79.5424 35.0195 79.2607V78.3608C34.9632 78.4072 34.8671 78.4503 34.7312 78.4901C34.5986 78.5298 34.4495 78.5646 34.2837 78.5945C34.118 78.6243 33.954 78.6508 33.7915 78.674C33.6291 78.6972 33.4883 78.7171 33.369 78.7337C33.1005 78.7701 32.8602 78.8298 32.6481 78.9126C32.436 78.9955 32.2686 79.1115 32.146 79.2607C32.0233 79.4065 31.962 79.5954 31.962 79.8274C31.962 80.1589 32.083 80.4091 32.3249 80.5781C32.5669 80.7472 32.8751 80.8317 33.2496 80.8317ZM39.4691 84.8636C39.2238 84.8636 38.9968 84.8438 38.788 84.804C38.5825 84.7675 38.4184 84.7244 38.2958 84.6747L38.7134 83.2727C38.9753 83.349 39.2089 83.3854 39.4144 83.3821C39.6199 83.3788 39.8005 83.3142 39.9563 83.1882C40.1154 83.0656 40.2496 82.8601 40.359 82.5717L40.5131 82.1591L37.744 74.3636H39.6531L41.413 80.1307H41.4925L43.2575 74.3636H45.1715L42.114 82.9247C41.9715 83.3291 41.7826 83.6754 41.5472 83.9638C41.3119 84.2554 41.0236 84.4775 40.6822 84.63C40.3441 84.7857 39.9397 84.8636 39.4691 84.8636ZM47.9929 82L45.8352 74.3636H47.6697L49.0121 79.733H49.0817L50.4538 74.3636H52.2685L53.6406 79.7031H53.7152L55.0376 74.3636H56.8771L54.7145 82H52.8402L51.4084 76.8395H51.304L49.8722 82H47.9929ZM58.1337 82V74.3636H59.8787V75.6364H59.9583C60.0975 75.1955 60.3361 74.8558 60.6742 74.6172C61.0156 74.3752 61.405 74.2543 61.8425 74.2543C61.9419 74.2543 62.053 74.2592 62.1756 74.2692C62.3016 74.2758 62.406 74.2874 62.4888 74.304V75.9595C62.4126 75.933 62.2916 75.9098 62.1259 75.8899C61.9635 75.8667 61.806 75.8551 61.6536 75.8551C61.3255 75.8551 61.0305 75.9264 60.7686 76.0689C60.5101 76.2081 60.3063 76.402 60.1571 76.6506C60.008 76.8991 59.9334 77.1858 59.9334 77.5107V82H58.1337ZM63.6845 82V74.3636H65.4842V82H63.6845ZM64.5893 73.2798C64.3043 73.2798 64.059 73.1854 63.8535 72.9964C63.648 72.8042 63.5453 72.5739 63.5453 72.3054C63.5453 72.0336 63.648 71.8033 63.8535 71.6143C64.059 71.4221 64.3043 71.326 64.5893 71.326C64.8777 71.326 65.1229 71.4221 65.3251 71.6143C65.5306 71.8033 65.6333 72.0336 65.6333 72.3054C65.6333 72.5739 65.5306 72.8042 65.3251 72.9964C65.1229 73.1854 64.8777 73.2798 64.5893 73.2798ZM70.6559 85.0227C70.0096 85.0227 69.4544 84.9349 68.9904 84.7592C68.5264 84.5869 68.1535 84.3549 67.8718 84.0632C67.5901 83.7715 67.3945 83.4484 67.2852 83.0938L68.9059 82.701C68.9788 82.8501 69.0849 82.9976 69.2241 83.1435C69.3633 83.2926 69.5505 83.4152 69.7859 83.5114C70.0245 83.6108 70.3245 83.6605 70.6857 83.6605C71.1961 83.6605 71.6187 83.5362 71.9535 83.2876C72.2882 83.0424 72.4556 82.638 72.4556 82.0746V80.6278H72.3661C72.2733 80.8134 72.1374 81.004 71.9585 81.1996C71.7828 81.3951 71.5491 81.5592 71.2575 81.6918C70.9691 81.8243 70.6062 81.8906 70.1687 81.8906C69.582 81.8906 69.0501 81.7531 68.5728 81.478C68.0988 81.1996 67.721 80.7853 67.4393 80.2351C67.1609 79.6816 67.0217 78.9889 67.0217 78.157C67.0217 77.3184 67.1609 76.6108 67.4393 76.0341C67.721 75.4541 68.1005 75.0149 68.5778 74.7166C69.055 74.415 69.587 74.2642 70.1737 74.2642C70.6211 74.2642 70.989 74.3404 71.2773 74.4929C71.569 74.642 71.801 74.8227 71.9734 75.0348C72.1457 75.2436 72.2766 75.4408 72.3661 75.6264H72.4656V74.3636H74.2404V82.1243C74.2404 82.7772 74.0846 83.3175 73.7731 83.745C73.4615 84.1726 73.0356 84.4924 72.4954 84.7045C71.9551 84.9167 71.342 85.0227 70.6559 85.0227ZM70.6708 80.4787C71.052 80.4787 71.3768 80.3859 71.6452 80.2003C71.9137 80.0147 72.1175 79.7479 72.2567 79.3999C72.396 79.0518 72.4656 78.6342 72.4656 78.147C72.4656 77.6664 72.396 77.2455 72.2567 76.8842C72.1209 76.523 71.9187 76.2429 71.6502 76.044C71.3851 75.8419 71.0586 75.7408 70.6708 75.7408C70.2698 75.7408 69.935 75.8452 69.6665 76.054C69.3981 76.2628 69.1959 76.5495 69.06 76.9141C68.9241 77.2753 68.8562 77.6863 68.8562 78.147C68.8562 78.6143 68.9241 79.0237 69.06 79.375C69.1992 79.723 69.4031 79.9948 69.6715 80.1903C69.9433 80.3826 70.2764 80.4787 70.6708 80.4787ZM77.8846 77.5256V82H76.0849V71.8182H77.8448V75.6612H77.9343C78.1133 75.2304 78.39 74.8906 78.7646 74.642C79.1424 74.3902 79.623 74.2642 80.2063 74.2642C80.7366 74.2642 81.199 74.3752 81.5934 74.5973C81.9878 74.8194 82.2927 75.1442 82.5082 75.5717C82.7269 75.9993 82.8363 76.5213 82.8363 77.1378V82H81.0366V77.4162C81.0366 76.9025 80.904 76.5031 80.6388 76.218C80.377 75.9297 80.0091 75.7855 79.5352 75.7855C79.217 75.7855 78.9319 75.8551 78.68 75.9943C78.4315 76.1302 78.2359 76.3274 78.0934 76.5859C77.9542 76.8445 77.8846 77.1577 77.8846 77.5256ZM88.484 74.3636V75.7557H84.0941V74.3636H88.484ZM85.1779 72.5341H86.9776V79.7031C86.9776 79.9451 87.0141 80.1307 87.087 80.2599C87.1632 80.3859 87.2627 80.4721 87.3853 80.5185C87.5079 80.5649 87.6438 80.5881 87.793 80.5881C87.9057 80.5881 88.0084 80.5798 88.1012 80.5632C88.1973 80.5466 88.2702 80.5317 88.32 80.5185L88.6232 81.9254C88.5271 81.9586 88.3896 81.995 88.2106 82.0348C88.0349 82.0746 87.8195 82.0978 87.5643 82.1044C87.1135 82.1177 86.7075 82.0497 86.3462 81.9006C85.985 81.7481 85.6983 81.5128 85.4862 81.1946C85.2773 80.8764 85.1746 80.4787 85.1779 80.0014V72.5341Z" fill="white"/>
</g>
<defs>
<filter id="filter0_d_5834_13473" x="0" y="0" width="107" height="109" filterUnits="userSpaceOnUse" color-interpolation-filters="sRGB">
<feFlood flood-opacity="0" result="BackgroundImageFix"/>
<feColorMatrix in="SourceAlpha" type="matrix" values="0 0 0 0 0 0 0 0 0 0 0 0 0 0 0 0 0 0 127 0" result="hardAlpha"/>
<feOffset dy="2"/>
<feGaussianBlur stdDeviation="4"/>
<feColorMatrix type="matrix" values="0 0 0 0 0 0 0 0 0 0 0 0 0 0 0 0 0 0 0.25 0"/>
<feBlend mode="normal" in2="BackgroundImageFix" result="effect1_dropShadow_5834_13473"/>
<feBlend mode="normal" in="SourceGraphic" in2="effect1_dropShadow_5834_13473" result="shape"/>
</filter>
<clipPath id="clip0_5834_13473">
<rect width="40" height="40" fill="white" transform="translate(33.5 20)"/>
</clipPath>
</defs>
</svg>
