<svg width="107" height="109" viewBox="0 0 107 109" fill="none" xmlns="http://www.w3.org/2000/svg">
<g filter="url(#filter0_d_5829_13860)">
<rect x="8" y="6" width="91" height="93" rx="12" fill="#151B23"/>
<rect x="9" y="7" width="89" height="91" rx="11" stroke="#1F2937" stroke-width="2"/>
<path d="M70.3595 32.383C70.3595 32.9352 69.9118 33.383 69.3595 33.383H60.6895C60.1372 33.383 59.6895 32.9352 59.6895 32.383V23.7129C59.6895 23.1606 60.1372 22.7129 60.6895 22.7129H69.3595C69.9118 22.7129 70.3595 23.1606 70.3595 23.7129V32.383Z" fill="#F9AD00"/>
<path d="M58.6193 32.383C58.6193 32.9352 58.1716 33.383 57.6193 33.383H48.9492C48.3969 33.383 47.9492 32.9352 47.9492 32.383V23.7129C47.9492 23.1606 48.3969 22.7129 48.9492 22.7129H57.6193C58.1716 22.7129 58.6193 23.1606 58.6193 23.7129V32.383Z" fill="#F9AD00"/>
<path d="M46.883 32.383C46.883 32.9352 46.4352 33.383 45.883 33.383H37.2129C36.6606 33.383 36.2129 32.9352 36.2129 32.383V23.7129C36.2129 23.1606 36.6606 22.7129 37.2129 22.7129H45.883C46.4352 22.7129 46.883 23.1606 46.883 23.7129V32.383Z" fill="#F9AD00"/>
<path d="M70.3595 44.1193C70.3595 44.6716 69.9118 45.1193 69.3595 45.1193H60.6895C60.1372 45.1193 59.6895 44.6716 59.6895 44.1193V35.4492C59.6895 34.8969 60.1372 34.4492 60.6895 34.4492H69.3595C69.9118 34.4492 70.3595 34.8969 70.3595 35.4492V44.1193Z" fill="#F9AD00"/>
<path d="M58.6193 44.1193C58.6193 44.6716 58.1716 45.1193 57.6193 45.1193H48.9492C48.3969 45.1193 47.9492 44.6716 47.9492 44.1193V35.4492C47.9492 34.8969 48.3969 34.4492 48.9492 34.4492H57.6193C58.1716 34.4492 58.6193 34.8969 58.6193 35.4492V44.1193Z" fill="#4E4E4E"/>
<path d="M58.6193 55.8576C58.6193 56.4099 58.1716 56.8576 57.6193 56.8576H48.9492C48.3969 56.8576 47.9492 56.4099 47.9492 55.8576V47.1875C47.9492 46.6352 48.3969 46.1875 48.9492 46.1875H57.6193C58.1716 46.1875 58.6193 46.6352 58.6193 47.1875V55.8576Z" fill="#4E4E4E"/>
<path d="M70.3595 55.8576C70.3595 56.4099 69.9118 56.8576 69.3595 56.8576H60.6895C60.1372 56.8576 59.6895 56.4099 59.6895 55.8576V47.1875C59.6895 46.6352 60.1372 46.1875 60.6895 46.1875H69.3595C69.9118 46.1875 70.3595 46.6352 70.3595 47.1875V55.8576Z" fill="#4E4E4E"/>
<path d="M46.883 55.8576C46.883 56.4099 46.4352 56.8576 45.883 56.8576H37.2129C36.6606 56.8576 36.2129 56.4099 36.2129 55.8576V47.1875C36.2129 46.6352 36.6606 46.1875 37.2129 46.1875H45.883C46.4352 46.1875 46.883 46.6352 46.883 47.1875V55.8576Z" fill="#4E4E4E"/>
<path d="M35.0043 82V71.8182H38.8224C39.6046 71.8182 40.2609 71.964 40.7912 72.2557C41.3248 72.5473 41.7275 72.9484 41.9993 73.4588C42.2744 73.9659 42.4119 74.5426 42.4119 75.1889C42.4119 75.8419 42.2744 76.4219 41.9993 76.929C41.7242 77.4361 41.3182 77.8355 40.7812 78.1271C40.2443 78.4155 39.5831 78.5597 38.7976 78.5597H36.267V77.0433H38.549C39.0064 77.0433 39.3809 76.9638 39.6726 76.8047C39.9643 76.6456 40.1797 76.4268 40.3189 76.1484C40.4614 75.87 40.5327 75.5502 40.5327 75.1889C40.5327 74.8277 40.4614 74.5095 40.3189 74.2344C40.1797 73.9593 39.9626 73.7455 39.6676 73.593C39.3759 73.4373 38.9998 73.3594 38.5391 73.3594H36.8487V82H35.0043ZM45.7342 77.5256V82H43.9345V74.3636H45.6547V75.6612H45.7441C45.9198 75.2337 46.1999 74.8939 46.5843 74.642C46.9721 74.3902 47.4511 74.2642 48.0211 74.2642C48.5481 74.2642 49.0072 74.3769 49.3983 74.6023C49.7927 74.8277 50.0976 75.1541 50.313 75.5817C50.5318 76.0092 50.6395 76.5279 50.6362 77.1378V82H48.8365V77.4162C48.8365 76.9058 48.7039 76.5064 48.4387 76.218C48.1769 75.9297 47.814 75.7855 47.35 75.7855C47.0351 75.7855 46.755 75.8551 46.5098 75.9943C46.2678 76.1302 46.0772 76.3274 45.938 76.5859C45.8021 76.8445 45.7342 77.1577 45.7342 77.5256ZM52.4657 84.8636V74.3636H54.2356V75.6264H54.34C54.4328 75.4408 54.5637 75.2436 54.7328 75.0348C54.9018 74.8227 55.1305 74.642 55.4189 74.4929C55.7072 74.3404 56.0751 74.2642 56.5225 74.2642C57.1125 74.2642 57.6445 74.415 58.1184 74.7166C58.5957 75.0149 58.9735 75.4574 59.252 76.044C59.5337 76.6274 59.6745 77.3433 59.6745 78.1918C59.6745 79.0303 59.537 79.7429 59.2619 80.3295C58.9868 80.9162 58.6123 81.3636 58.1383 81.6719C57.6644 81.9801 57.1274 82.1342 56.5275 82.1342C56.09 82.1342 55.7271 82.0613 55.4387 81.9155C55.1504 81.7696 54.9184 81.594 54.7427 81.3885C54.5704 81.1797 54.4361 80.9825 54.34 80.7969H54.2654V84.8636H52.4657ZM54.2306 78.1818C54.2306 78.6757 54.3002 79.1082 54.4395 79.4794C54.582 79.8506 54.7858 80.1406 55.051 80.3494C55.3194 80.5549 55.6442 80.6577 56.0254 80.6577C56.4231 80.6577 56.7562 80.5516 57.0247 80.3395C57.2931 80.1241 57.4953 79.8307 57.6312 79.4595C57.7704 79.085 57.84 78.6591 57.84 78.1818C57.84 77.7079 57.7721 77.2869 57.6362 76.919C57.5003 76.5511 57.2981 76.2628 57.0297 76.054C56.7612 75.8452 56.4264 75.7408 56.0254 75.7408C55.6409 75.7408 55.3145 75.8419 55.046 76.044C54.7775 76.2462 54.5737 76.5296 54.4345 76.8942C54.2986 77.2588 54.2306 77.688 54.2306 78.1818ZM61.2157 82V74.3636H62.9359V75.6612H63.0254C63.1845 75.2237 63.448 74.8823 63.8159 74.6371C64.1838 74.3885 64.6229 74.2642 65.1333 74.2642C65.6504 74.2642 66.0862 74.3902 66.4409 74.642C66.7988 74.8906 67.0507 75.2304 67.1966 75.6612H67.2761C67.4451 75.237 67.7302 74.8989 68.1312 74.647C68.5356 74.3918 69.0145 74.2642 69.568 74.2642C70.2707 74.2642 70.844 74.4863 71.2882 74.9304C71.7323 75.3745 71.9544 76.0225 71.9544 76.8743V82H70.1497V77.1527C70.1497 76.6787 70.0237 76.3324 69.7718 76.1136C69.5199 75.8916 69.2117 75.7805 68.8471 75.7805C68.4129 75.7805 68.0732 75.9164 67.8279 76.1882C67.586 76.4567 67.465 76.8063 67.465 77.2372V82H65.7001V77.0781C65.7001 76.6837 65.5808 76.3688 65.3422 76.1335C65.1068 75.8982 64.7986 75.7805 64.4174 75.7805C64.1589 75.7805 63.9236 75.8468 63.7115 75.9794C63.4993 76.1087 63.3303 76.2926 63.2044 76.5312C63.0784 76.7666 63.0154 77.0417 63.0154 77.3565V82H61.2157Z" fill="white"/>
</g>
<defs>
<filter id="filter0_d_5829_13860" x="0" y="0" width="107" height="109" filterUnits="userSpaceOnUse" color-interpolation-filters="sRGB">
<feFlood flood-opacity="0" result="BackgroundImageFix"/>
<feColorMatrix in="SourceAlpha" type="matrix" values="0 0 0 0 0 0 0 0 0 0 0 0 0 0 0 0 0 0 127 0" result="hardAlpha"/>
<feOffset dy="2"/>
<feGaussianBlur stdDeviation="4"/>
<feColorMatrix type="matrix" values="0 0 0 0 0 0 0 0 0 0 0 0 0 0 0 0 0 0 0.25 0"/>
<feBlend mode="normal" in2="BackgroundImageFix" result="effect1_dropShadow_5829_13860"/>
<feBlend mode="normal" in="SourceGraphic" in2="effect1_dropShadow_5829_13860" result="shape"/>
</filter>
</defs>
</svg>
