<svg width="107" height="109" viewBox="0 0 107 109" fill="none" xmlns="http://www.w3.org/2000/svg">
<g filter="url(#filter0_d_5845_13423)">
<rect x="8" y="6" width="91" height="93" rx="12" fill="#151B23"/>
<rect x="9" y="7" width="89" height="91" rx="11" stroke="#1F2937" stroke-width="2"/>
<path d="M70.3841 43.4658C70.1801 42.8484 69.6461 42.4174 68.9541 42.3143C68.6284 42.265 68.2555 42.2858 67.8135 42.3768C67.2353 42.5043 66.6471 42.5817 66.0556 42.6082C67.6293 39.9521 68.908 36.922 69.645 34.0706C70.836 29.4591 70.1999 27.3589 69.4552 26.4081C67.4878 23.8934 64.6156 22.5423 61.1512 22.5007C59.6903 22.4868 58.2354 22.6908 56.8347 23.106C56.0004 22.9641 55.1564 22.8867 54.3101 22.8746C52.6432 22.8483 51.1715 23.2113 49.9125 23.9581C48.9004 23.6146 47.8621 23.3538 46.8078 23.1784C43.77 22.6794 41.3244 23.0687 39.5335 24.3332C37.3665 25.8642 36.3608 28.5247 36.5473 32.2403C36.6065 33.4192 37.2656 37.0086 38.3052 40.4127C38.9018 42.3681 39.539 43.9933 40.1981 45.2414C41.1314 47.0114 42.1305 48.0543 43.2535 48.4283C43.8818 48.6367 45.0246 48.7847 46.2265 47.7834C46.379 47.9677 46.5819 48.1508 46.8516 48.3208C47.1949 48.538 47.6138 48.7134 48.0317 48.8187C49.5396 49.196 50.951 49.1017 52.1552 48.5731C52.1639 48.7869 52.1694 48.992 52.1738 49.1685C52.1826 49.4559 52.1903 49.7366 52.2001 49.9998C52.2714 51.7764 52.3932 53.1594 52.7507 54.1266C52.7704 54.1804 52.7967 54.2615 52.8252 54.3471C53.004 54.8954 53.3034 55.8111 54.0645 56.5294C54.8508 57.2719 55.8038 57.5 56.6768 57.5C57.1143 57.5 57.5322 57.443 57.8974 57.364C59.2024 57.0844 60.6862 56.6578 61.7577 55.1312C62.7721 53.688 63.2656 51.5132 63.3544 48.0872L63.3873 47.8098L63.4082 47.6288L63.6472 47.6497L63.7087 47.654C65.0378 47.7144 66.6642 47.4325 67.6622 46.9686C68.4518 46.6023 70.9796 45.2688 70.3841 43.4658Z" fill="black"/>
<path d="M68.1093 43.816C64.1557 44.6309 63.8838 43.2929 63.8838 43.2929C68.0577 37.0989 69.8036 29.2368 68.2968 27.3132C64.1897 22.0646 57.0778 24.5463 56.9594 24.611L56.921 24.6176C56.0522 24.4445 55.1692 24.3527 54.2835 24.3434C52.4959 24.3138 51.1382 24.8117 50.1084 25.5926C50.1084 25.5926 37.4232 20.3669 38.0121 32.1649C38.1382 34.6752 41.6103 51.1572 45.7524 46.1794C46.7112 45.0305 47.7034 43.91 48.7277 42.8192C49.4644 43.3166 50.3508 43.543 51.2358 43.4596L51.3071 43.3993C51.2852 43.6252 51.295 43.8467 51.3356 44.1089C50.2685 45.3009 50.5811 45.5093 48.4491 45.9491C46.2909 46.3932 47.5586 47.185 48.3866 47.3923C49.3901 47.6434 51.7118 47.9988 53.28 45.8021L53.2175 46.0533C53.6353 46.3877 53.9292 48.2313 53.8799 49.9026C53.8305 51.5739 53.7976 52.72 54.1266 53.6159C54.4556 54.5119 54.7846 56.5276 57.5888 55.9266C59.9313 55.4244 61.1454 54.1237 61.3143 51.9534C61.4349 50.4104 61.7047 50.6385 61.7222 49.2599L61.9394 48.6063C62.1916 46.515 61.9799 45.8405 63.4232 46.1542L63.7741 46.1849C64.8357 46.2331 66.2263 46.0138 67.0422 45.6343C68.8002 44.8195 69.842 43.4585 68.1093 43.816Z" fill="#336791"/>
<path d="M50.8531 33.2879C50.4966 33.2386 50.1742 33.2846 50.0108 33.4086C49.9769 33.4324 49.9481 33.4628 49.9262 33.4981C49.9043 33.5333 49.8898 33.5726 49.8836 33.6136C49.8628 33.7606 49.9658 33.9229 50.0295 34.0062C50.2082 34.2431 50.4681 34.4065 50.728 34.4427C50.7652 34.4472 50.8025 34.4497 50.8399 34.4504C51.2709 34.4504 51.6624 34.1137 51.6975 33.8659C51.7414 33.5555 51.2906 33.3482 50.8531 33.2879ZM62.6555 33.2967C62.6215 33.0543 62.1883 32.9852 61.7781 33.0423C61.368 33.0993 60.9688 33.2835 61.0017 33.5281C61.0291 33.7178 61.3713 34.0424 61.7771 34.0424C61.8115 34.0415 61.8459 34.0389 61.8801 34.0348C62.0971 33.9978 62.2956 33.8893 62.4438 33.7266C62.5875 33.5752 62.6708 33.4075 62.6555 33.2978V33.2967Z" fill="white"/>
<path d="M69.4267 43.7243C69.2754 43.2692 68.7907 43.1211 67.9846 43.2889C65.5906 43.7824 64.7341 43.4402 64.4522 43.233C66.3122 40.3992 67.8431 36.9731 68.6689 33.7763C69.0593 32.2629 69.2754 30.8559 69.294 29.7109C69.3127 28.452 69.0988 27.5286 68.6569 26.9638C66.8759 24.6871 64.2603 23.4654 61.0953 23.4325C58.9195 23.4072 57.0814 23.9644 56.725 24.1212C55.9197 23.9232 55.0944 23.8173 54.2652 23.8053C52.6311 23.779 51.2197 24.1705 50.0506 24.9678C48.9401 24.5601 47.7933 24.259 46.6257 24.0685C43.8511 23.6222 41.6468 23.9611 40.0731 25.0753C38.1956 26.4056 37.3292 28.7832 37.497 32.1423C37.554 33.2719 38.1978 36.7483 39.2133 40.0778C40.5512 44.4601 42.0054 46.9408 43.5342 47.4508C43.7141 47.51 43.9202 47.5528 44.1483 47.5528C44.7065 47.5528 45.3909 47.3005 46.1026 46.4451C46.9708 45.4031 47.869 44.3864 48.7961 43.3964C49.397 43.7199 50.0572 43.9008 50.7328 43.9184L50.7383 43.971C50.6023 44.1322 50.4915 44.2726 50.3961 44.3932C49.9278 44.9876 49.8302 45.1116 48.3234 45.4219C47.8957 45.5097 46.7562 45.7444 46.7398 46.5427C46.7211 47.4146 48.0854 47.782 48.2411 47.8204C48.7836 47.9549 49.3038 48.0222 49.8017 48.0222C51.0113 48.0222 52.0773 47.6241 52.9272 46.8553C52.902 49.9633 53.0314 53.0274 53.4043 53.9607C53.7103 54.725 54.4571 56.5927 56.816 56.5916C57.1619 56.593 57.5439 56.5495 57.9621 56.4611C60.4241 55.9347 61.4934 54.8457 61.9068 52.4472C62.1283 51.1641 62.5078 48.1033 62.6866 46.4605C63.0638 46.5778 63.5496 46.6327 64.0738 46.6316C65.1683 46.6316 66.4317 46.3991 67.2224 46.0317C68.1118 45.6193 69.7173 44.606 69.4267 43.7243ZM63.5628 32.627C63.5551 33.1117 63.4882 33.5526 63.418 34.0121C63.3413 34.5056 63.2623 35.0167 63.2426 35.6374C63.2239 36.2406 63.2985 36.8679 63.372 37.4743C63.5189 38.7004 63.6703 39.9616 63.0846 41.2074C62.9865 41.0358 62.9 40.8577 62.8258 40.6744C62.7535 40.4979 62.5955 40.2138 62.3762 39.8223C61.5263 38.2979 59.5336 34.7249 60.5535 33.2675C60.8573 32.8332 61.6283 32.3868 63.5628 32.627ZM61.2181 24.414C64.0541 24.4765 66.2968 25.537 67.8859 27.5669C69.1032 29.1242 67.762 36.2077 63.8786 42.3172L63.7119 42.1089C64.7154 40.4507 64.5191 38.8112 64.3447 37.3581C64.2724 36.7615 64.2055 36.1978 64.2219 35.6692C64.2395 35.1077 64.314 34.6262 64.3864 34.1613C64.4741 33.5877 64.5641 32.9944 64.5399 32.2947C64.5602 32.2085 64.5654 32.1195 64.5553 32.0315C64.4917 31.3614 63.7262 29.3545 62.1656 27.5373C61.3124 26.5437 60.0677 25.4317 58.3678 24.6816C59.305 24.4863 60.261 24.3966 61.2181 24.414ZM45.3492 45.8189C44.5651 46.7621 44.0222 46.5811 43.8446 46.5208C42.6843 46.1337 41.3376 43.6815 40.1509 39.7916C39.1234 36.4259 38.5224 33.0426 38.4752 32.0929C38.325 29.0924 39.0532 27 40.6379 25.8759C43.2173 24.0466 47.4581 25.1411 49.1623 25.6971L49.0878 25.7684C46.2912 28.5923 46.357 33.4177 46.3647 33.7116C46.3647 33.8257 46.3735 33.9869 46.3867 34.2084C46.4349 35.02 46.5248 36.5301 46.2858 38.2409C46.0631 39.8311 46.5533 41.3862 47.6292 42.5092C47.741 42.6254 47.8573 42.7351 47.9779 42.8382C47.0746 43.8075 46.198 44.8015 45.3492 45.8189ZM48.3365 41.8314C47.4702 40.9267 47.0754 39.6677 47.2563 38.3769C47.5086 36.5696 47.4153 34.9958 47.366 34.1503L47.3484 33.8465C47.7564 33.4846 49.6504 32.4702 51.0004 32.7794C51.6156 32.9209 51.9918 33.3398 52.1475 34.0626C52.9546 37.7978 52.2539 39.3551 51.6913 40.6053C51.575 40.8641 51.4654 41.1076 51.3721 41.3598L51.2998 41.554C51.1155 42.0475 50.9444 42.5048 50.8392 42.9401C49.9169 42.9369 49.0187 42.5432 48.3365 41.8314ZM48.4791 46.8695C48.2474 46.8121 48.0266 46.7173 47.8255 46.5888C47.9439 46.5329 48.1545 46.4572 48.5208 46.3804C50.2941 46.0163 50.5683 45.7586 51.166 44.9986C51.3031 44.8253 51.4588 44.6279 51.6737 44.3878C51.994 44.0281 52.1409 44.0895 52.4063 44.2002C52.6224 44.288 52.8318 44.5588 52.9174 44.856C52.9579 44.9964 53.0029 45.2629 52.8548 45.4702C51.6057 47.2194 49.7853 47.1964 48.4791 46.8695ZM57.757 55.5037C55.5878 55.9687 54.8201 54.8621 54.3134 53.5966C53.9877 52.7795 53.8265 49.0969 53.9406 45.0293C53.943 44.9766 53.936 44.9238 53.9197 44.8736C53.9061 44.7766 53.8859 44.6806 53.8594 44.5863C53.6894 43.9941 53.2771 43.5006 52.7814 43.2944C52.5851 43.2132 52.2243 43.0641 51.79 43.1737C51.8832 42.7932 52.0422 42.3622 52.2177 41.8961L52.2901 41.7009C52.3723 41.4794 52.4754 41.2513 52.584 41.0078C53.174 39.6984 53.9811 37.9053 53.1049 33.8553C52.7759 32.3375 51.6814 31.5961 50.0199 31.7694C49.0242 31.8714 48.1139 32.2739 47.6588 32.5042C47.5616 32.5532 47.4716 32.6011 47.389 32.6478C47.5151 31.1191 47.9944 28.2622 49.7874 26.4549C50.9148 25.3166 52.4184 24.7551 54.2487 24.7847C57.8568 24.8439 60.1708 26.6951 61.4758 28.2392C62.601 29.5673 63.2108 30.9074 63.4531 31.629C61.625 31.4426 60.3824 31.8045 59.7508 32.706C58.3799 34.6657 60.5009 38.4712 61.5208 40.2994C61.7072 40.6349 61.8695 40.9245 61.92 41.0473C62.2523 41.8522 62.6822 42.3896 62.9958 42.7822C63.0923 42.9029 63.1855 43.0191 63.2568 43.12C62.703 43.2801 61.7083 43.6486 61.7982 45.4932C61.7259 46.4177 61.206 50.7496 60.9417 52.2805C60.593 54.3017 59.8495 55.0551 57.757 55.5037ZM66.8101 45.1434C66.2442 45.4066 65.2966 45.604 64.3963 45.6457C63.4016 45.6928 62.8949 45.5349 62.7765 45.4373C62.7206 44.288 63.1483 44.1684 63.6012 44.0412C63.6721 44.0222 63.7412 44.0014 63.8085 43.9787C63.8501 44.0123 63.8958 44.0456 63.9455 44.0785C64.745 44.606 66.1696 44.663 68.182 44.2474L68.2039 44.243C67.9331 44.4974 67.4692 44.8374 66.8101 45.1434Z" fill="white"/>
<path d="M20.5091 82V71.8182H24.3273C25.1095 71.8182 25.7658 71.964 26.2961 72.2557C26.8297 72.5473 27.2324 72.9484 27.5042 73.4588C27.7793 73.9659 27.9168 74.5426 27.9168 75.1889C27.9168 75.8419 27.7793 76.4219 27.5042 76.929C27.2291 77.4361 26.8231 77.8355 26.2861 78.1271C25.7492 78.4155 25.088 78.5597 24.3025 78.5597H21.7719V77.0433H24.0539C24.5113 77.0433 24.8858 76.9638 25.1775 76.8047C25.4691 76.6456 25.6846 76.4268 25.8238 76.1484C25.9663 75.87 26.0376 75.5502 26.0376 75.1889C26.0376 74.8277 25.9663 74.5095 25.8238 74.2344C25.6846 73.9593 25.4675 73.7455 25.1725 73.593C24.8808 73.4373 24.5046 73.3594 24.0439 73.3594H22.3536V82H20.5091ZM32.661 82.1491C31.9152 82.1491 31.2689 81.9851 30.722 81.657C30.1752 81.3288 29.7509 80.8698 29.4493 80.2798C29.151 79.6899 29.0019 79.0005 29.0019 78.2116C29.0019 77.4228 29.151 76.7318 29.4493 76.1385C29.7509 75.5452 30.1752 75.0845 30.722 74.7564C31.2689 74.4283 31.9152 74.2642 32.661 74.2642C33.4067 74.2642 34.053 74.4283 34.5999 74.7564C35.1468 75.0845 35.5693 75.5452 35.8676 76.1385C36.1692 76.7318 36.32 77.4228 36.32 78.2116C36.32 79.0005 36.1692 79.6899 35.8676 80.2798C35.5693 80.8698 35.1468 81.3288 34.5999 81.657C34.053 81.9851 33.4067 82.1491 32.661 82.1491ZM32.6709 80.7074C33.0753 80.7074 33.4133 80.5964 33.6851 80.3743C33.9569 80.1489 34.1591 79.8473 34.2916 79.4695C34.4275 79.0916 34.4955 78.6707 34.4955 78.2067C34.4955 77.7393 34.4275 77.3168 34.2916 76.9389C34.1591 76.5578 33.9569 76.2545 33.6851 76.0291C33.4133 75.8037 33.0753 75.6911 32.6709 75.6911C32.2566 75.6911 31.9119 75.8037 31.6368 76.0291C31.365 76.2545 31.1612 76.5578 31.0253 76.9389C30.8927 77.3168 30.8264 77.7393 30.8264 78.2067C30.8264 78.6707 30.8927 79.0916 31.0253 79.4695C31.1612 79.8473 31.365 80.1489 31.6368 80.3743C31.9119 80.5964 32.2566 80.7074 32.6709 80.7074ZM43.8831 76.3821L42.2425 76.5611C42.1961 76.3954 42.1148 76.2396 41.9988 76.0938C41.8862 75.9479 41.7337 75.8303 41.5415 75.7408C41.3492 75.6513 41.1139 75.6065 40.8355 75.6065C40.461 75.6065 40.1461 75.6877 39.8909 75.8501C39.639 76.0125 39.5147 76.223 39.518 76.4815C39.5147 76.7036 39.5959 76.8842 39.7616 77.0234C39.9307 77.1626 40.2091 77.277 40.5969 77.3665L41.8994 77.6449C42.622 77.8007 43.1589 78.0476 43.5102 78.3857C43.8648 78.7237 44.0438 79.1662 44.0471 79.7131C44.0438 80.1937 43.903 80.6179 43.6246 80.9858C43.3495 81.3504 42.9666 81.6354 42.4761 81.8409C41.9856 82.0464 41.4221 82.1491 40.7858 82.1491C39.8511 82.1491 39.0988 81.9536 38.5287 81.5625C37.9586 81.1681 37.6189 80.6196 37.5095 79.9169L39.2645 79.7479C39.344 80.0926 39.5131 80.3527 39.7716 80.5284C40.0301 80.7041 40.3665 80.7919 40.7808 80.7919C41.2084 80.7919 41.5514 80.7041 41.8099 80.5284C42.0718 80.3527 42.2027 80.1357 42.2027 79.8771C42.2027 79.6584 42.1182 79.4777 41.9491 79.3352C41.7834 79.1927 41.5249 79.0833 41.1736 79.0071L39.871 78.7337C39.1385 78.5812 38.5966 78.3243 38.2453 77.9631C37.894 77.5985 37.72 77.1378 37.7233 76.581C37.72 76.1103 37.8476 75.7027 38.1061 75.358C38.3679 75.0099 38.7309 74.7415 39.1949 74.5526C39.6622 74.3603 40.2008 74.2642 40.8106 74.2642C41.7055 74.2642 42.4098 74.4548 42.9236 74.8359C43.4406 75.2171 43.7604 75.7325 43.8831 76.3821ZM49.3444 74.3636V75.7557H44.9545V74.3636H49.3444ZM46.0383 72.5341H47.838V79.7031C47.838 79.9451 47.8744 80.1307 47.9474 80.2599C48.0236 80.3859 48.123 80.4721 48.2456 80.5185C48.3683 80.5649 48.5042 80.5881 48.6533 80.5881C48.766 80.5881 48.8688 80.5798 48.9616 80.5632C49.0577 80.5466 49.1306 80.5317 49.1803 80.5185L49.4836 81.9254C49.3875 81.9586 49.2499 81.995 49.0709 82.0348C48.8953 82.0746 48.6798 82.0978 48.4246 82.1044C47.9739 82.1177 47.5679 82.0497 47.2066 81.9006C46.8453 81.7481 46.5586 81.5128 46.3465 81.1946C46.1377 80.8764 46.0349 80.4787 46.0383 80.0014V72.5341ZM54.0885 85.0227C53.4422 85.0227 52.887 84.9349 52.423 84.7592C51.959 84.5869 51.5861 84.3549 51.3044 84.0632C51.0227 83.7715 50.8271 83.4484 50.7178 83.0938L52.3385 82.701C52.4114 82.8501 52.5175 82.9976 52.6567 83.1435C52.7959 83.2926 52.9832 83.4152 53.2185 83.5114C53.4571 83.6108 53.7571 83.6605 54.1183 83.6605C54.6288 83.6605 55.0513 83.5362 55.3861 83.2876C55.7209 83.0424 55.8882 82.638 55.8882 82.0746V80.6278H55.7987C55.7059 80.8134 55.57 81.004 55.3911 81.1996C55.2154 81.3951 54.9817 81.5592 54.6901 81.6918C54.4017 81.8243 54.0388 81.8906 53.6013 81.8906C53.0146 81.8906 52.4827 81.7531 52.0054 81.478C51.5315 81.1996 51.1536 80.7853 50.8719 80.2351C50.5935 79.6816 50.4543 78.9889 50.4543 78.157C50.4543 77.3184 50.5935 76.6108 50.8719 76.0341C51.1536 75.4541 51.5331 75.0149 52.0104 74.7166C52.4877 74.415 53.0196 74.2642 53.6063 74.2642C54.0537 74.2642 54.4216 74.3404 54.71 74.4929C55.0016 74.642 55.2336 74.8227 55.406 75.0348C55.5783 75.2436 55.7093 75.4408 55.7987 75.6264H55.8982V74.3636H57.673V82.1243C57.673 82.7772 57.5173 83.3175 57.2057 83.745C56.8941 84.1726 56.4682 84.4924 55.928 84.7045C55.3878 84.9167 54.7746 85.0227 54.0885 85.0227ZM54.1034 80.4787C54.4846 80.4787 54.8094 80.3859 55.0779 80.2003C55.3463 80.0147 55.5502 79.7479 55.6894 79.3999C55.8286 79.0518 55.8982 78.6342 55.8982 78.147C55.8982 77.6664 55.8286 77.2455 55.6894 76.8842C55.5535 76.523 55.3513 76.2429 55.0828 76.044C54.8177 75.8419 54.4912 75.7408 54.1034 75.7408C53.7024 75.7408 53.3676 75.8452 53.0992 76.054C52.8307 76.2628 52.6285 76.5495 52.4926 76.9141C52.3567 77.2753 52.2888 77.6863 52.2888 78.147C52.2888 78.6143 52.3567 79.0237 52.4926 79.375C52.6318 79.723 52.8357 79.9948 53.1041 80.1903C53.3759 80.3826 53.709 80.4787 54.1034 80.4787ZM59.5175 82V74.3636H61.2625V75.6364H61.3421C61.4813 75.1955 61.7199 74.8558 62.058 74.6172C62.3994 74.3752 62.7888 74.2543 63.2263 74.2543C63.3257 74.2543 63.4368 74.2592 63.5594 74.2692C63.6853 74.2758 63.7897 74.2874 63.8726 74.304V75.9595C63.7964 75.933 63.6754 75.9098 63.5097 75.8899C63.3473 75.8667 63.1898 75.8551 63.0374 75.8551C62.7093 75.8551 62.4143 75.9264 62.1524 76.0689C61.8939 76.2081 61.6901 76.402 61.5409 76.6506C61.3918 76.8991 61.3172 77.1858 61.3172 77.5107V82H59.5175ZM68.1345 82.1491C67.3689 82.1491 66.7077 81.9901 66.1508 81.6719C65.5973 81.3504 65.1714 80.8963 64.8731 80.3097C64.5748 79.7197 64.4257 79.0253 64.4257 78.2266C64.4257 77.4411 64.5748 76.7517 64.8731 76.1584C65.1747 75.5618 65.5957 75.0978 66.1359 74.7663C66.6762 74.4316 67.3109 74.2642 68.04 74.2642C68.5107 74.2642 68.9548 74.3404 69.3724 74.4929C69.7934 74.642 70.1646 74.8741 70.4861 75.1889C70.8109 75.5038 71.0661 75.9048 71.2517 76.392C71.4373 76.8759 71.5301 77.4527 71.5301 78.1222V78.674H65.2709V77.4609H69.805C69.8016 77.1162 69.7271 76.8097 69.5812 76.5412C69.4354 76.2694 69.2316 76.0556 68.9697 75.8999C68.7112 75.7441 68.4096 75.6662 68.0649 75.6662C67.697 75.6662 67.3738 75.7557 67.0954 75.9347C66.817 76.1103 66.5999 76.3423 66.4442 76.6307C66.2917 76.9157 66.2138 77.2289 66.2105 77.5703V78.6293C66.2105 79.0734 66.2917 79.4545 66.4541 79.7727C66.6165 80.0876 66.8435 80.3295 67.1352 80.4986C67.4269 80.6643 67.7683 80.7472 68.1594 80.7472C68.4212 80.7472 68.6582 80.7107 68.8703 80.6378C69.0824 80.5616 69.2664 80.4505 69.4221 80.3047C69.5779 80.1589 69.6956 79.9782 69.7751 79.7628L71.4555 79.9517C71.3495 80.3958 71.1473 80.7836 70.849 81.1151C70.554 81.4432 70.1762 81.6984 69.7155 81.8807C69.2548 82.0597 68.7278 82.1491 68.1345 82.1491ZM79.0882 76.3821L77.4475 76.5611C77.4011 76.3954 77.3199 76.2396 77.2039 76.0938C77.0912 75.9479 76.9388 75.8303 76.7465 75.7408C76.5543 75.6513 76.319 75.6065 76.0406 75.6065C75.666 75.6065 75.3512 75.6877 75.096 75.8501C74.8441 76.0125 74.7198 76.223 74.7231 76.4815C74.7198 76.7036 74.801 76.8842 74.9667 77.0234C75.1357 77.1626 75.4142 77.277 75.8019 77.3665L77.1045 77.6449C77.827 77.8007 78.364 78.0476 78.7153 78.3857C79.0699 78.7237 79.2489 79.1662 79.2522 79.7131C79.2489 80.1937 79.108 80.6179 78.8296 80.9858C78.5545 81.3504 78.1717 81.6354 77.6812 81.8409C77.1907 82.0464 76.6272 82.1491 75.9909 82.1491C75.0562 82.1491 74.3038 81.9536 73.7338 81.5625C73.1637 81.1681 72.824 80.6196 72.7146 79.9169L74.4695 79.7479C74.5491 80.0926 74.7181 80.3527 74.9767 80.5284C75.2352 80.7041 75.5716 80.7919 75.9859 80.7919C76.4134 80.7919 76.7565 80.7041 77.015 80.5284C77.2768 80.3527 77.4078 80.1357 77.4078 79.8771C77.4078 79.6584 77.3232 79.4777 77.1542 79.3352C76.9885 79.1927 76.73 79.0833 76.3786 79.0071L75.0761 78.7337C74.3436 78.5812 73.8017 78.3243 73.4504 77.9631C73.099 77.5985 72.925 77.1378 72.9284 76.581C72.925 76.1103 73.0526 75.7027 73.3112 75.358C73.573 75.0099 73.9359 74.7415 74.3999 74.5526C74.8673 74.3603 75.4059 74.2642 76.0157 74.2642C76.9106 74.2642 77.6149 74.4548 78.1286 74.8359C78.6457 75.2171 78.9655 75.7325 79.0882 76.3821ZM86.7718 76.3821L85.1311 76.5611C85.0847 76.3954 85.0035 76.2396 84.8875 76.0938C84.7748 75.9479 84.6224 75.8303 84.4301 75.7408C84.2379 75.6513 84.0026 75.6065 83.7242 75.6065C83.3496 75.6065 83.0348 75.6877 82.7796 75.8501C82.5277 76.0125 82.4034 76.223 82.4067 76.4815C82.4034 76.7036 82.4846 76.8842 82.6503 77.0234C82.8193 77.1626 83.0977 77.277 83.4855 77.3665L84.7881 77.6449C85.5106 77.8007 86.0476 78.0476 86.3989 78.3857C86.7535 78.7237 86.9325 79.1662 86.9358 79.7131C86.9325 80.1937 86.7916 80.6179 86.5132 80.9858C86.2381 81.3504 85.8553 81.6354 85.3648 81.8409C84.8743 82.0464 84.3108 82.1491 83.6744 82.1491C82.7398 82.1491 81.9874 81.9536 81.4173 81.5625C80.8473 81.1681 80.5075 80.6196 80.3982 79.9169L82.1531 79.7479C82.2327 80.0926 82.4017 80.3527 82.6602 80.5284C82.9188 80.7041 83.2552 80.7919 83.6695 80.7919C84.097 80.7919 84.4401 80.7041 84.6986 80.5284C84.9604 80.3527 85.0914 80.1357 85.0914 79.8771C85.0914 79.6584 85.0068 79.4777 84.8378 79.3352C84.6721 79.1927 84.4136 79.0833 84.0622 79.0071L82.7597 78.7337C82.0272 78.5812 81.4853 78.3243 81.134 77.9631C80.7826 77.5985 80.6086 77.1378 80.6119 76.581C80.6086 76.1103 80.7362 75.7027 80.9948 75.358C81.2566 75.0099 81.6195 74.7415 82.0835 74.5526C82.5509 74.3603 83.0895 74.2642 83.6993 74.2642C84.5942 74.2642 85.2985 74.4548 85.8122 74.8359C86.3293 75.2171 86.6491 75.7325 86.7718 76.3821Z" fill="white"/>
</g>
<defs>
<filter id="filter0_d_5845_13423" x="0" y="0" width="107" height="109" filterUnits="userSpaceOnUse" color-interpolation-filters="sRGB">
<feFlood flood-opacity="0" result="BackgroundImageFix"/>
<feColorMatrix in="SourceAlpha" type="matrix" values="0 0 0 0 0 0 0 0 0 0 0 0 0 0 0 0 0 0 127 0" result="hardAlpha"/>
<feOffset dy="2"/>
<feGaussianBlur stdDeviation="4"/>
<feColorMatrix type="matrix" values="0 0 0 0 0 0 0 0 0 0 0 0 0 0 0 0 0 0 0.25 0"/>
<feBlend mode="normal" in2="BackgroundImageFix" result="effect1_dropShadow_5845_13423"/>
<feBlend mode="normal" in="SourceGraphic" in2="effect1_dropShadow_5845_13423" result="shape"/>
</filter>
</defs>
</svg>
