<svg width="107" height="109" viewBox="0 0 107 109" fill="none" xmlns="http://www.w3.org/2000/svg">
<g filter="url(#filter0_d_5828_16513)">
<rect x="8" y="6" width="91" height="93" rx="12" fill="#151B23"/>
<rect x="9" y="7" width="89" height="91" rx="11" stroke="#1F2937" stroke-width="2"/>
<path d="M40.9528 36.7075C41.0071 36.7485 41.1016 36.7752 41.0071 36.8563C40.9394 36.9509 40.8583 37.032 40.8044 37.1403C40.7505 37.2353 40.71 37.2619 40.6289 37.1947C40.7304 37.0281 40.8383 36.8654 40.9523 36.707L40.9528 36.7075ZM68.0953 50.8844C68.0953 50.9245 68.1087 50.9511 68.1087 50.9922C68.1359 50.9382 68.1359 50.911 68.1497 50.8844H68.0953ZM65.3408 56.2811L62.9906 43.2413C62.9506 43.2284 62.8968 43.2018 62.8018 43.1746C62.829 43.2284 62.8428 43.269 62.8562 43.3095C62.9229 43.2962 62.9506 43.2962 62.9773 43.2829C62.9773 43.2696 62.9773 43.2561 62.9911 43.2419L65.3414 56.2827L65.3408 56.2811ZM62.91 40.3061C62.8968 40.3461 62.8968 40.3871 62.8968 40.4276C62.8968 40.3866 62.8968 40.3457 62.9111 40.3056L62.91 40.3061ZM62.9233 40.5761C62.91 40.5761 62.91 40.5761 62.8968 40.5617V40.5749C62.9111 40.5883 62.9111 40.5883 62.9245 40.5749L62.9233 40.5761ZM62.8968 40.6838V40.5889C62.8573 40.6021 62.8166 40.6021 62.7623 40.616C62.83 40.6418 62.8978 40.6561 62.8978 40.6828L62.8968 40.6838Z" fill="#DD3735"/>
<path d="M73.4162 37.3983C73.3895 36.8706 73.3763 36.3429 73.3219 35.8156C73.2275 35.0985 73.133 34.368 72.9709 33.6648C72.8493 33.0831 72.6476 32.5282 72.4444 31.9738C72.1877 31.3245 71.9313 30.6617 71.607 30.0396C71.0804 29.0384 70.3919 28.1453 69.7571 27.212C69.3374 26.6166 68.7974 26.1299 68.3921 25.5211C68.1627 25.1696 67.8251 24.8723 67.4874 24.6022C66.9472 24.1685 66.3801 23.7758 65.813 23.3976C65.381 23.0997 64.949 22.8159 64.4892 22.5586C64.1248 22.3549 63.7334 22.1927 63.3552 22.0166C62.923 21.8139 62.5044 21.57 62.0185 21.4755C61.8962 21.4498 61.7886 21.4089 61.667 21.3677C61.3564 21.2599 61.0593 21.1382 60.7484 21.0432C60.2763 20.8944 59.817 20.7189 59.3307 20.5968C58.8596 20.475 58.3731 20.3944 57.8867 20.3262C57.3467 20.2465 56.7937 20.2184 56.2528 20.1654C55.9018 20.1245 55.5509 20.0844 55.2132 20.071C54.7 20.0444 54.1735 20.0444 53.6603 20.0309C53.4038 20.0172 53.1338 19.9899 52.8773 20.0038C52.4858 20.017 52.0944 20.0577 51.7023 20.1116C51.3246 20.1526 50.9464 20.2195 50.5822 20.2743C50.1372 20.3282 49.6918 20.3554 49.2459 20.4099C48.8272 20.4642 48.395 20.5454 47.9768 20.6132C47.8281 20.6403 47.6793 20.6943 47.5305 20.7209C47.2072 20.7887 46.8695 20.8159 46.5452 20.9242C45.9653 21.1008 45.3839 21.3041 44.8168 21.5197C44.2899 21.7363 43.7768 21.9662 43.2775 22.2369C42.7643 22.5201 42.2779 22.8579 41.7919 23.1835C41.3322 23.4945 40.8735 23.8189 40.427 24.1706C39.9959 24.5093 39.5906 24.8878 39.1985 25.2665C38.983 25.4821 38.8071 25.7398 38.6043 25.9831C38.2671 26.3758 37.9295 26.7542 37.6053 27.1602C37.3363 27.4991 37.0922 27.8502 36.8355 28.2024C36.3774 28.8234 35.9857 29.4866 35.6214 30.15C35.4726 30.4205 35.3377 30.691 35.2028 30.9609C35.0001 31.3665 34.7839 31.7592 34.5952 32.1787C34.4596 32.4631 34.3519 32.7741 34.2708 33.0852C34.0806 33.7509 33.8962 34.4183 33.7176 35.0872C33.5556 35.6827 33.5149 36.3049 33.5022 36.9136C33.4884 37.4548 33.5422 37.9824 33.5961 38.5234C33.61 38.659 33.5293 38.8213 33.6905 38.929C33.6365 39.0779 33.6771 39.16 33.7572 39.1857C33.6638 39.3346 33.7983 39.43 33.7449 39.5656C33.731 39.5922 33.7859 39.6461 33.8116 39.6868C33.8116 39.7278 33.7987 39.7816 33.8116 39.8222C33.826 39.9439 33.8798 40.0656 33.8798 40.2011C33.8798 40.2955 33.9605 40.4038 33.9876 40.4988C34.001 40.5388 33.9876 40.6066 33.9605 40.6338C33.8794 40.7282 33.8926 40.8094 34.0143 40.8637C34.0825 41.0394 34.0553 41.1205 34.042 41.2026C34.0687 41.3238 34.0281 41.3643 34.042 41.3914C34.1498 41.608 34.1908 41.8515 34.2036 42.0947C34.2036 42.1492 34.2309 42.2036 34.258 42.2708C34.2714 42.2708 34.258 42.5275 34.258 42.5275C34.3248 42.4874 34.3796 42.4741 34.4469 42.447C34.4879 42.6225 34.528 42.7857 34.5818 42.9346C34.6496 43.0425 34.6496 43.0958 34.6229 43.1091C34.6769 43.3525 34.7034 43.5824 34.7974 43.8124C34.7974 43.5558 34.7717 43.2991 34.7306 43.0552C34.9194 43.123 35.0816 43.1903 35.19 43.1903C35.2037 43.1492 35.2171 43.0958 35.2308 43.0685C35.1499 42.988 35.0821 42.8664 35.0011 42.7852C35.0282 42.893 35.0011 42.9342 35.0011 42.9751C34.9471 42.9473 34.8795 42.9203 34.8122 42.893C34.8662 42.8263 34.92 42.7581 35.0011 42.6774C35.0011 42.5552 34.9343 42.4464 34.7444 42.4602C34.8255 42.4336 34.9066 42.3936 35.0011 42.3658C35.1499 42.2853 34.9877 42.1363 34.9877 41.9469C35.0011 41.7175 34.8661 41.4874 34.8255 41.2437C34.7578 40.8654 34.7717 40.2971 34.7311 39.9182C34.65 39.8504 34.5824 40.0261 34.569 40.0398C34.6101 40.3643 34.65 40.6887 34.6769 41.0136C34.5962 40.7431 34.5418 40.4454 34.4746 40.1205C34.4607 40.2155 34.4473 40.256 34.4473 40.3105C34.3807 40.3772 34.434 40.4593 34.4746 40.5537C34.3802 40.5127 34.2719 40.5271 34.2719 40.5271V40.9059C34.1374 40.7704 34.0974 40.6626 34.0292 40.567C34.0025 40.4593 33.9882 40.3514 33.9625 40.2436C33.9882 40.1754 33.9625 40.1348 33.9625 40.0949C33.9466 39.9866 33.9329 39.8781 33.9214 39.7693C33.9348 39.756 33.9081 39.5537 33.9081 39.5537C34.0159 39.5666 34.084 39.5795 34.1512 39.5795C34.0163 39.4049 34.1103 39.2961 34.1651 39.1878C34.1924 39.1333 34.2867 39.121 34.3139 39.0656C34.4218 38.8629 34.5977 38.7011 34.5977 38.4435C34.5977 38.3217 34.6388 38.1868 34.6517 38.0645C34.6788 37.8346 34.7056 37.6046 34.7183 37.3747C34.746 37.0768 34.7183 36.7791 34.7866 36.4953C34.8954 36.023 35.0303 35.5492 35.1786 35.0755C35.2864 34.7367 35.4085 34.4132 35.5429 34.0743C35.7457 33.5467 35.935 33.019 36.1915 32.519C36.5559 31.788 36.9746 31.0847 37.3799 30.3681C37.6366 29.9215 37.9065 29.5021 38.1909 29.0693C38.4601 28.65 38.7295 28.2172 39.041 27.8244C39.4736 27.2701 39.9462 26.7558 40.4727 26.2957C41.0131 25.8091 41.5262 25.3086 42.1065 24.862C42.8612 24.2787 43.6651 23.7623 44.5091 23.3189C45.1982 22.9544 45.9135 22.669 46.6293 22.3985C47.0886 22.2228 47.5879 22.1419 48.061 21.993C48.6008 21.8169 49.1412 21.7363 49.7082 21.7224C50.0726 21.7086 50.4241 21.6681 50.7884 21.6275C51.1126 21.6018 51.4364 21.5741 51.7879 21.5336C51.7469 21.5874 51.7335 21.6147 51.7202 21.6413C51.5724 21.8579 51.4103 22.0746 51.2614 22.2907C51.1399 22.4668 51.0048 22.6562 50.8832 22.8317C50.6668 23.1167 50.4369 23.4005 50.2346 23.6982C49.9242 24.1448 49.6404 24.6049 49.3162 25.0509C48.9928 25.4837 48.6413 25.8897 48.3037 26.3086C47.8583 26.8907 47.4395 27.4857 46.9941 28.0673C46.5888 28.6217 46.1578 29.1504 45.7658 29.7049C45.4147 30.191 45.1037 30.7059 44.7661 31.2053C44.2668 31.9496 43.767 32.6797 43.2678 33.424C42.8758 33.9906 42.4797 34.5542 42.0794 35.1149C42.0521 35.1559 42.0116 35.1683 41.9715 35.1954C41.8638 35.371 41.8638 35.4662 41.8227 35.5471C41.715 35.75 41.6073 35.9526 41.485 36.1425C41.4174 36.2504 41.323 36.3448 41.2419 36.4531C41.2285 36.291 41.4573 36.2099 41.3497 36.0067C41.2829 36.1155 41.2146 36.2099 41.1474 36.3182L40.9854 36.6417C41.0392 36.6827 41.1341 36.7099 41.0392 36.7904C40.9982 36.8587 40.9581 36.9394 40.9175 37.0076C40.9854 36.9666 41.0253 36.9265 41.0663 36.8721C41.0663 37.0209 40.9854 37.1421 40.9175 37.2638C40.8636 37.3716 40.7287 37.4537 40.6343 37.5342C40.6477 37.5481 40.7421 37.5887 40.7559 37.602C40.8776 37.561 40.9181 37.4943 40.932 37.5342C40.973 37.4804 41.0131 37.4398 41.0263 37.3993C41.0797 37.2638 41.1608 37.156 41.2957 37.1016C41.3501 37.0743 41.3902 37.0338 41.4306 36.9937C41.8361 36.5738 42.2547 36.1682 42.6192 35.7217C43.1867 35.0313 43.6999 34.3151 44.2406 33.6118C44.4696 33.3141 44.74 33.0164 44.9827 32.7321C45.0226 33.0431 44.996 33.3403 44.9827 33.6253C44.9416 34.1253 44.9149 34.6263 44.8749 35.1396C44.861 35.3423 44.8749 35.5451 44.861 35.7484C44.861 35.8022 44.8201 35.8428 44.8201 35.8972C44.8201 36.0322 44.861 36.1812 44.861 36.3166C44.8201 36.8172 44.7657 37.3039 44.7251 37.8043C44.7113 37.912 44.7651 38.0209 44.7918 38.1159C44.7251 38.8459 44.8739 39.6174 44.7518 40.3885C44.8462 40.2396 44.8733 40.1451 44.8733 40.0506C44.8861 39.9696 44.8733 39.8885 44.8733 39.7941V39.6585C44.8861 39.4147 44.9401 39.1579 44.9134 38.9141C44.8861 38.6436 44.8861 38.387 44.9405 38.1298C44.9678 38.022 44.9273 37.8864 44.9949 37.7509V37.9537C44.9817 38.7237 45.0088 39.4952 44.901 40.2664C44.8871 40.334 44.9421 40.4562 44.7934 40.4423C44.6711 40.6856 44.8201 40.8617 44.6854 40.9968C44.6577 41.024 44.7113 41.1457 44.7251 41.2266C44.6707 41.3895 44.6707 41.3895 44.7518 41.4028C44.7651 41.7005 44.7928 41.9706 44.8058 42.255C45.0212 41.7417 44.9134 41.2128 45.0088 40.6852C45.0222 40.9018 45.0361 41.1184 45.0222 41.3474C45.0222 41.7001 45.0088 42.0378 44.9955 42.3895C44.9955 42.4571 44.9817 42.5249 44.9682 42.5927C44.9273 42.7827 44.9144 42.9716 44.8467 43.1471C44.7928 43.2827 44.8201 43.486 44.8201 43.6477V44.1625C44.8739 44.3925 44.8062 44.5141 44.8467 44.6492C44.8056 44.7853 44.7928 44.8257 44.8056 44.8663L44.8467 45.0691C45.1172 45.0419 44.9955 45.2452 45.1033 45.3529C45.0222 45.4618 45.0493 45.5018 45.0493 45.5567C45.0493 45.6785 45.0365 45.7868 45.0226 45.9084C45.0226 46.2194 45.0094 46.5305 45.0094 46.8282C45.0094 46.8693 45.0226 46.9089 45.0226 46.9494C45.0226 46.9772 45.0094 47.3292 45.0094 47.3292C45.0365 47.3693 45.0094 47.4099 44.9682 47.4504C44.9554 47.4504 44.9149 45.7323 44.9149 45.7323H44.7121C44.6856 46.5434 44.7533 47.2739 44.6045 48.0321C44.4423 48.0448 44.3889 48.0721 44.2124 48.0721C43.7939 48.0721 43.375 48.0721 42.9562 48.0854C42.4564 48.0854 41.971 48.0989 41.4707 48.0989C41.2286 48.0989 40.9719 48.1265 40.7287 48.1265C40.4044 48.1265 40.0668 48.0855 39.7434 48.0855C39.2432 48.0855 38.7572 48.1265 38.2575 48.1398C37.8932 48.1532 37.5288 48.1532 37.1645 48.1671C36.9206 48.1799 36.6769 48.1927 36.4348 48.2205C36.3269 48.2337 36.2321 48.2743 36.0972 48.3149C36.056 48.3149 35.9621 48.3016 35.8816 48.3149C35.7457 48.3421 35.6249 48.4226 35.489 48.4504C35.2862 48.4914 35.2324 48.5448 35.2591 48.7482V48.8831C35.2458 48.9099 35.5567 48.8421 35.5567 48.8421C35.5289 48.8421 35.5158 48.9232 35.4747 48.991C35.5835 48.95 35.6507 48.9232 35.7184 48.8966C35.9211 48.9914 36.0966 48.9376 36.2582 48.9785C36.7847 49.1132 37.3245 49.1685 37.8644 49.2215C38.2159 49.2486 38.5536 49.2625 38.9045 49.2754C39.4038 49.3026 39.9036 49.3298 40.4028 49.3298C40.8216 49.3298 41.2269 49.2887 41.6447 49.2887C42.2245 49.2887 42.8064 49.3153 43.3868 49.3297C43.5084 49.3297 43.6435 49.3153 43.7784 49.3153H44.7636C45.6421 49.2887 46.5197 49.2744 47.3975 49.2486C47.8978 49.2343 48.4109 49.2076 48.9103 49.1937L50.4496 49.1527C51.0439 49.1393 51.6381 49.1393 52.2189 49.127C52.6643 49.127 53.0965 49.1116 53.5429 49.0987C54.0417 49.0855 54.5548 49.0448 55.0545 49.0182C55.3251 49.0043 55.5955 48.9772 55.8655 48.9504C56.1897 48.9237 56.5273 48.8837 56.8505 48.8699C57.3371 48.8421 57.8368 48.8288 58.3233 48.8016C58.9308 48.7615 59.5384 48.7076 60.1593 48.6937C60.7268 48.6671 61.3071 48.6805 61.8748 48.6671C62.3745 48.6532 62.8743 48.6261 63.3874 48.6126L64.2392 48.5716C64.2392 48.5716 64.8058 48.5582 65.0895 48.5305C65.5755 48.5039 66.0614 48.45 66.548 48.4365C66.8578 48.4226 67.1689 48.4365 67.4792 48.4226C67.9785 48.4095 68.4917 48.3816 68.9914 48.3816C69.1799 48.3816 69.3824 48.4095 69.6257 48.4226C69.5179 48.5178 69.4503 48.5716 69.369 48.6393C69.423 48.6527 69.477 48.6804 69.5314 48.707C69.4503 48.761 69.3826 48.7738 69.3158 48.7738C69.2881 48.8421 69.261 48.8693 69.2337 49.0049H69.477C69.3824 49.0049 69.3013 49.1264 69.2071 49.2076C69.0992 49.1798 69.0044 49.2076 68.9504 49.3565C69.0448 49.4099 69.0315 49.4504 69.0181 49.5053C68.8561 49.5588 68.7344 49.6131 68.8027 49.7887C68.7477 49.8153 68.6805 49.8426 68.6128 49.8831C68.5461 49.991 68.4239 50.0182 68.4506 50.1671C68.505 50.1798 68.5584 50.2081 68.5994 50.2204C68.5317 50.2476 68.4645 50.2881 68.3966 50.3149C68.1541 50.4638 68.2623 50.5315 68.3161 50.5993C68.2752 50.6264 68.2352 50.6532 68.1946 50.6671C68.2213 50.7886 68.2613 50.8159 68.2752 50.8159C68.2212 50.8559 68.1535 50.9103 68.0724 50.9781C68.0314 51.0997 67.9776 51.1538 67.9236 51.2347C67.8697 51.3159 67.8426 51.4247 67.7749 51.5053C67.4916 51.8168 67.2889 52.1829 66.9246 52.4257C66.7891 52.5207 66.6679 52.6423 66.5464 52.7646C66.3031 52.9939 66.0871 53.2511 65.8306 53.4677C65.4933 53.7517 65.1429 54.0083 64.7775 54.2655C64.3327 54.5766 63.8872 54.8877 63.4414 55.1854C63.1981 55.3471 62.9283 55.4688 62.6716 55.6176C62.415 55.7665 62.1719 55.902 61.9153 56.0504C61.7532 56.1582 61.6042 56.307 61.4288 56.3891C60.9834 56.5791 60.5104 56.7409 60.0515 56.917C59.6052 57.1068 59.2819 57.2685 58.9442 57.3902C58.6337 57.4981 58.3095 57.5802 57.9857 57.6469C57.8778 57.6747 57.7558 57.6469 57.6342 57.6607C57.4043 57.7017 57.1748 57.7563 56.945 57.7829C56.3508 57.864 55.7565 57.9184 55.1628 57.9995C54.8113 58.0405 54.4738 58.1074 54.1228 58.1484C53.88 58.1617 53.6234 58.1351 53.3802 58.1351C53.2047 58.1351 53.0158 58.176 52.8399 58.149C52.5566 58.108 52.2729 58.0411 51.989 57.9866C51.9224 57.9735 51.8269 57.9457 51.7736 57.9735C51.6657 58.0278 51.5703 57.9467 51.4621 57.9735C51.3954 57.9872 51.3276 57.9323 51.2599 57.9323C51.2055 57.9195 51.1377 57.9467 51.07 57.9323C50.9213 57.8922 50.7868 57.8384 50.6237 57.8517C50.463 57.865 50.3004 57.7839 50.1258 57.744C49.8822 57.6895 49.6538 57.6361 49.4095 57.5812C49.3156 57.554 49.2351 57.5134 49.1401 57.4596C48.7886 57.4596 48.5588 57.4461 48.3426 57.3644C48.1539 57.2978 47.9785 57.2028 47.7757 57.23C47.7223 57.2434 47.6818 57.2167 47.627 57.2167C47.5858 57.1623 47.5463 57.054 47.5063 57.054C47.2365 57.0679 47.0742 56.8384 46.8443 56.77C46.7233 56.729 46.6287 56.5941 46.5073 56.5534C46.2097 56.4319 45.9673 56.1752 45.6297 56.1346C45.522 56.1207 45.4143 56.0668 45.292 56.0267C45.3332 56.0802 45.3588 56.1207 45.4 56.1614C45.0084 55.9713 44.644 55.7558 44.2791 55.5525C44.2257 55.5392 44.1853 55.4857 44.1448 55.4579L43.7804 55.2147C43.5777 55.2557 43.4966 55.1737 43.4418 55.1469C43.0774 54.8903 42.6591 54.7275 42.3076 54.4436C42.1589 54.3215 41.9844 54.2404 41.8766 54.0914C41.6868 53.8616 41.4573 53.6993 41.2008 53.5643C40.9986 53.4565 40.8099 53.3342 40.621 53.2126C40.5261 53.1448 40.4311 53.0638 40.4311 52.9149C40.4311 52.8199 40.391 52.725 40.2695 52.7794C40.2156 52.6983 40.1616 52.6037 40.0939 52.5766C39.9319 52.5099 39.8241 52.3866 39.7025 52.2789C39.5808 52.171 39.4869 52.0222 39.3381 51.9683C39.0677 51.8606 38.9055 51.6305 38.7439 51.4411C38.3652 50.9947 38.0275 50.5068 37.6766 50.0345C37.6493 49.9935 37.5955 49.9663 37.555 49.9257C37.6089 50.0746 37.6766 50.1963 37.7438 50.3312C37.6094 50.2774 37.5148 50.1824 37.4339 50.088C37.42 50.1018 38.3652 51.6571 38.3652 51.6571C38.4473 51.7789 38.5139 51.9011 38.5952 52.0228C38.3924 52.0361 38.2575 51.9278 38.1897 51.8061C38.0686 51.5905 37.9331 51.455 37.6632 51.4827C37.6365 51.3872 37.6094 51.2789 37.5965 51.1849C37.5417 51.1849 37.5017 51.1849 37.4066 51.1712C37.5965 51.4689 37.7581 51.7255 37.9336 52.0232C37.8655 51.9822 37.8259 51.9554 37.7976 51.9421C38.0403 52.1988 38.2159 52.5238 38.5263 52.6866C38.5941 52.997 38.9451 53.1459 39.0261 53.4436C38.9595 53.4298 38.9041 53.4165 38.8362 53.4026C38.7285 53.2676 38.6068 53.1325 38.4858 52.9837C38.5125 53.0781 38.5526 53.1593 38.6068 53.227C38.769 53.4298 38.9179 53.6325 39.1067 53.8086C39.1745 53.8774 39.2688 53.9047 39.2688 54.0263C39.3766 54.0802 39.4176 54.093 39.4577 54.093C39.4854 54.1751 39.4449 54.2968 39.6065 54.2696C39.7143 54.4724 39.8221 54.4724 39.9708 54.4051C40.1469 54.5812 40.2418 54.5951 40.3629 54.4872C40.3629 54.554 40.3761 54.6219 40.3761 54.6762C40.4301 54.6489 40.4173 54.6084 40.4173 54.5406C40.4839 54.5945 40.5251 54.6217 40.5517 54.6485C40.6867 54.8384 40.8083 55.014 40.9972 55.1629C41.2537 55.3795 41.4836 55.6094 41.7257 55.8122C42.1988 56.2049 42.7264 56.5298 43.2523 56.8271C43.9009 57.1926 44.5224 57.5847 45.1838 57.9358C45.9802 58.3558 46.831 58.6402 47.7085 58.8429C48.0327 58.9107 48.3432 58.978 48.6682 59.0585C48.9503 59.1406 49.2345 59.2624 49.5183 59.3296C49.9503 59.4246 50.3958 59.5057 50.8278 59.5863C50.9217 59.6001 51.0177 59.614 51.1255 59.6273C51.2461 59.6545 51.3944 59.6001 51.4215 59.6412C51.4892 59.7489 51.5432 59.6946 51.6243 59.6812C51.7186 59.654 51.827 59.6539 51.9346 59.6539C52.3128 59.6674 52.6772 59.7485 53.0554 59.7217C53.1375 59.7217 53.2585 59.6535 53.3263 59.7885C53.4474 59.7346 53.5152 59.7346 53.569 59.7217C53.5835 59.8429 53.569 59.8429 53.5434 59.8564C53.5157 59.8696 53.4751 59.8835 53.4213 59.924C53.9073 60.0186 54.3664 60.0319 54.7709 59.924C55.4739 59.9779 56.0813 59.8968 56.6622 59.6941C56.7162 59.7618 56.7566 59.8562 56.8377 59.7213C56.8644 59.6803 56.9322 59.6664 56.9865 59.6529C57.1077 59.6259 57.2564 59.5718 57.3642 59.6119C57.4863 59.6529 57.5268 59.5452 57.6209 59.5452C57.7835 59.5452 57.9317 59.5313 58.0806 59.5042C58.1616 59.4907 58.2427 59.4502 58.3372 59.423C58.2447 59.3771 58.1428 59.3537 58.0397 59.3548C58.1913 59.2797 58.3445 59.2078 58.4992 59.1392C58.4721 59.1791 58.445 59.2331 58.3916 59.2331H58.5797C58.5389 59.2331 58.4849 59.3546 58.4178 59.4359C58.9031 59.3142 59.3485 59.2059 59.7811 59.097C59.6323 58.8136 59.9427 58.9086 60.0509 58.7459C59.916 58.787 59.7811 58.8271 59.6456 58.8537C60.105 58.6242 60.5776 58.4215 61.0363 58.2188C60.9695 58.2999 60.8875 58.3403 60.7669 58.4086C60.848 58.4215 60.9018 58.4215 60.9424 58.4344C61.1579 58.5026 61.1046 58.2997 61.1718 58.1777C61.4283 58.1777 61.5361 58.1376 61.6576 58.0966C61.7927 58.0556 61.9276 58.0155 62.0631 57.9616C62.2785 57.8671 62.4812 57.746 62.6972 57.6381C62.7384 57.6238 62.8052 57.6381 62.8594 57.6381C63.0082 57.5427 63.0616 57.4616 63.1021 57.4749C63.292 57.5022 63.4255 57.4339 63.4799 57.2593C63.5742 57.191 63.6421 57.1371 63.7092 57.0961C64.0058 56.9338 64.2891 56.7716 64.5867 56.6094C64.6944 56.6094 64.7488 56.6094 64.7755 56.5955C64.9519 56.5134 65.1141 56.4199 65.2757 56.325C65.2349 56.3117 65.1408 56.2583 65.1408 56.2583C65.2753 56.2305 65.3154 56.2173 65.3975 56.1901C65.7207 55.8101 66.1672 55.5534 66.5042 55.2558C66.653 55.2423 66.653 55.2018 66.653 55.1751C66.7065 55.1074 66.7609 55.0263 66.8276 54.9718C67.1251 54.7013 67.4485 54.4713 67.7189 54.1874C68.1105 53.7943 68.4887 53.3883 68.8396 52.9688C69.1629 52.59 69.4882 52.2116 69.7582 51.7922C70.1363 51.2107 70.4601 50.6151 70.7978 50.0058C71.0409 49.5735 71.2571 49.1407 71.5008 48.708C71.5264 48.6671 71.5813 48.6132 71.6218 48.6132C71.9862 48.5722 72.3515 48.5465 72.7026 48.5053C72.7835 48.492 72.878 48.4386 72.9591 48.3976C72.918 48.3298 72.8913 48.2487 72.8512 48.181C72.7969 48.0989 72.7159 48.0321 72.6616 47.9498C72.6081 47.8832 72.5675 47.801 72.527 47.7205C72.486 47.6537 72.4459 47.5993 72.4053 47.5305C72.3234 47.3816 72.2427 47.2328 72.1745 47.0716C72.1612 47.0306 72.1335 46.9637 72.1478 46.9228C72.391 46.3955 72.4854 45.8273 72.7148 45.2995C72.9443 44.7585 73.0124 44.1496 73.1203 43.5679C73.2147 43.0136 73.2691 42.4592 73.3357 41.9049C73.3769 41.5126 73.4305 41.1338 73.4435 40.7417C73.5256 40.1194 73.4979 39.5373 73.4845 38.9552C73.4712 38.4419 73.4435 37.9142 73.4178 37.3997L73.4162 37.3983ZM39.5362 54.0499C39.4418 53.9421 39.3607 53.82 39.2664 53.7122L39.3072 53.6712C39.4545 53.8337 39.6033 53.9961 39.7518 54.1721C39.6707 54.1311 39.5761 54.1043 39.5362 54.0499ZM39.7518 54.1721C39.7927 54.1582 39.8339 54.1582 39.8738 54.1448C39.915 54.2126 39.9415 54.2937 39.9816 54.3748C39.7927 54.361 39.6984 54.2799 39.7522 54.1721H39.7518ZM53.7964 59.7588V59.7178C54.053 59.691 54.2957 59.6638 54.5522 59.6371V59.6766C54.2955 59.7176 54.053 59.7434 53.7964 59.7577V59.7588ZM57.1985 59.4072C57.0101 59.4482 56.8075 59.4754 56.6186 59.5026C56.551 59.5159 56.4699 59.5837 56.4432 59.4616C56.4159 59.4754 56.3888 59.4754 56.3621 59.4893C56.4287 59.6914 56.5915 59.5292 56.7264 59.6103C56.4289 59.6513 56.1465 59.6781 55.8623 59.7182V59.6914C55.9444 59.6782 56.0383 59.6643 56.1189 59.6504V59.6103C55.9843 59.5966 55.8494 59.5831 55.7135 59.5831C55.674 59.5831 55.6196 59.6376 55.579 59.6509C55.525 59.6643 55.4712 59.6781 55.4036 59.6781C55.1741 59.6914 54.9447 59.6914 54.7283 59.7049C54.7144 59.7049 54.6871 59.6914 54.6739 59.6914V59.6504C55.5786 59.5292 56.4699 59.4076 57.3744 59.286C57.3883 59.3126 57.3883 59.3398 57.4017 59.3665C57.3206 59.3665 57.2668 59.3947 57.199 59.4076L57.1985 59.4072ZM57.4017 59.2725C57.7127 59.2315 57.9969 59.2049 58.2936 59.1648C57.6727 59.3404 57.47 59.3671 57.4021 59.2727L57.4017 59.2725ZM45.64 31.9606C46.071 31.3652 46.5175 30.7697 46.9495 30.1614C47.0845 29.9843 47.1923 29.7949 47.3272 29.6192C47.3682 29.5648 47.422 29.5382 47.4894 29.4837L47.476 29.4581C47.53 29.3899 47.5838 29.3348 47.6109 29.2816C47.6797 29.1737 47.7203 29.0515 47.7743 28.9298C47.7874 28.9042 47.8281 28.877 47.8281 28.877C48.0178 28.9714 48.0178 28.7691 48.0846 28.7009C48.2056 28.5646 48.3227 28.4247 48.4355 28.2816C48.5166 28.1737 48.5977 28.0787 48.6654 27.9571C48.6788 27.9161 48.6383 27.8493 48.6244 27.7943H48.5845C48.6254 27.7676 48.6654 27.7277 48.706 27.6999C48.7194 27.6999 48.7194 27.6999 48.7326 27.6866C48.8137 27.5643 48.8948 27.4427 48.9759 27.3344C49.1375 27.1188 49.3131 26.9022 49.5019 26.7132C49.4752 26.7799 49.4479 26.8483 49.4208 26.9022C49.4346 26.9022 49.4346 26.9161 49.448 26.9161C49.6102 26.6994 49.7857 26.4966 49.9479 26.2795C49.934 26.2666 49.9206 26.2529 49.9067 26.2529C49.8401 26.3206 49.7857 26.3883 49.7179 26.456C49.7046 26.4423 49.6912 26.4289 49.6769 26.4289C49.8128 26.2529 49.9479 26.0772 50.0823 25.8745C50.1095 25.9155 50.1366 25.9689 50.19 26.0772C50.245 25.9423 50.2988 25.8477 50.3387 25.7529C50.2988 25.7938 50.245 25.8339 50.2044 25.8749L50.1633 25.8339L50.4066 25.4695C50.6633 25.104 50.9197 24.725 51.1762 24.3596C51.2712 24.2246 51.3918 24.1163 51.4738 23.9807C51.7305 23.4674 52.1359 23.0608 52.4459 22.5876C52.5135 22.4932 52.6079 22.4119 52.689 22.3309C52.7558 22.2489 52.8106 22.2765 52.8644 22.3442C53.2288 22.8042 53.5931 23.2774 53.9574 23.7375C54.2284 24.0762 54.4984 24.3997 54.755 24.7518C55.0653 25.1851 55.3624 25.6178 55.6734 26.0506C56.0244 26.5512 56.3754 27.0516 56.713 27.5649C57.2262 28.3231 57.7121 29.0807 58.2253 29.8381C58.6035 30.3924 58.9817 30.9339 59.346 31.4884H58.6563C58.022 31.4755 57.3734 31.4217 56.7393 31.4483C55.8751 31.4893 54.9977 31.5838 54.1335 31.6516C53.0396 31.7466 51.9322 31.7593 50.8392 31.7593C50.4465 31.7593 50.0551 31.8144 49.664 31.8414C49.1909 31.8682 48.7316 31.8955 48.2591 31.9082C47.7048 31.936 47.1661 31.9492 46.6118 31.9632C46.3009 31.9764 45.9771 31.9632 45.6394 31.9632L45.64 31.9606ZM61.1282 38.1822V38.3044C61.1148 38.3044 61.1015 38.3184 61.0742 38.3184C61.0203 38.1284 60.9664 37.9251 60.8988 37.7357C60.7638 37.3429 60.6149 36.9502 60.3718 36.5991C60.1008 36.2209 59.8586 35.8292 59.5877 35.4365C59.5209 35.3413 59.4255 35.2604 59.3444 35.1797C59.0606 34.8681 58.7769 34.5432 58.4124 34.3138C57.8756 33.9769 57.3108 33.687 56.7244 33.4473C56.5622 33.3805 56.4139 33.2984 56.2523 33.2039H56.5756L58.8847 33.1629C59.3844 33.15 59.871 33.15 60.3702 33.1228C60.4913 33.1228 60.5591 33.1638 60.6269 33.2716C60.748 33.4745 60.8694 33.6771 61.0045 33.8805C61.0184 33.9072 61.0455 33.9473 61.0455 33.9883C61.0455 34.286 61.0455 34.5972 61.0589 34.8949C61.0717 35.2059 61.0999 35.5038 61.1121 35.8147C61.1121 36.1259 61.085 36.4502 61.0989 36.7747C61.1127 37.2352 61.126 37.709 61.126 38.1814L61.1282 38.1822ZM46.598 33.6525C47.2327 33.6253 47.8399 33.5847 48.4618 33.5573C48.9466 33.5303 49.447 33.5164 49.9324 33.4897C50.1351 33.4768 50.3245 33.464 50.5266 33.4897C50.3112 33.5985 50.0946 33.7068 49.9057 33.8419C49.6624 34.0041 49.4336 34.2201 49.1899 34.3962C48.9462 34.5718 48.7302 34.7885 48.528 35.0183C48.2713 35.329 47.9876 35.5995 47.7171 35.8972C47.5273 36.1139 47.3118 36.3166 47.1502 36.5467C46.9207 36.8444 46.7182 37.1677 46.502 37.5066C46.5698 36.2212 46.6508 34.9501 46.5965 33.6515L46.598 33.6525ZM55.4164 46.6656C54.9838 46.7733 54.539 46.8954 54.0925 46.9495C53.7148 47.0037 53.3227 46.9905 52.9312 46.9905C52.5792 46.9905 52.2415 46.9771 51.8906 46.9495C51.499 46.9094 51.1074 46.8688 50.7293 46.6928C50.4045 46.5438 50.0673 46.4089 49.7441 46.2461C49.4189 46.0839 49.0951 45.8949 48.8512 45.5972C48.6768 45.3802 48.4331 45.2045 48.2171 45.0151C48.2566 45.1782 48.3585 45.3191 48.5007 45.4074C48.4331 45.4885 48.3386 45.4484 48.2032 45.2313C48.1631 45.2585 48.1226 45.2723 48.0953 45.2858C48.1364 45.1906 48.1765 45.0958 48.2171 45.0151C48.1631 44.9074 48.0954 44.7853 48.0415 44.6764C47.9331 44.4991 47.8296 44.3189 47.7311 44.1359C47.7038 44.0949 47.7038 44.0548 47.6771 44.0141C47.6094 43.933 47.5416 43.8515 47.4874 43.7704C47.3794 43.6086 47.2851 43.433 47.1502 43.2704C47.1502 43.3114 47.164 43.3515 47.164 43.4059C47.1502 43.4059 47.1369 43.4191 47.1369 43.4191L46.8525 42.7292C46.8392 42.7292 46.8392 42.7292 46.8258 42.7426L47.0686 43.6359C47.0552 43.6359 47.0419 43.6486 47.0275 43.6486C46.9881 43.5953 46.9474 43.5409 46.9197 43.4741C46.893 43.3652 46.8121 43.3652 46.7453 43.4059C46.7043 43.433 46.677 43.5274 46.6909 43.5681C46.7858 43.798 46.8936 44.028 47.0018 44.2579C47.0285 44.339 47.0558 44.4068 47.0963 44.488C47.1102 44.5151 47.1507 44.5419 47.1507 44.5824C47.205 44.6902 47.2456 44.798 47.3128 44.8935C47.4344 45.0557 47.5695 45.218 47.691 45.3802C47.8116 45.5423 47.9194 45.719 48.0276 45.8807C48.041 45.9078 48.0816 45.9078 48.0944 45.9217C48.1627 46.1245 48.3919 46.2729 48.5541 46.1918C48.5951 46.5028 48.9323 46.6111 49.0672 46.9089C48.9052 46.8411 48.784 46.7872 48.6758 46.7328C48.6619 46.7461 48.6619 46.7594 48.648 46.7866C48.8102 46.8677 48.9723 46.949 49.1202 47.0434C49.2561 47.1255 49.391 47.2061 49.5127 47.3C49.6748 47.449 49.8642 47.5311 50.0926 47.5844C50.0802 47.5434 50.0669 47.5295 50.0669 47.5295C50.4244 47.6962 50.7798 47.8673 51.1331 48.0428C49.7287 48.0706 48.2297 48.0977 46.6766 48.1249C46.6766 47.8683 46.6632 47.6243 46.6632 47.3673C46.6632 47.2594 46.6899 47.1646 46.676 47.0563C46.635 46.4351 46.635 45.8118 46.5544 45.2031C46.4739 44.5542 46.4739 43.9182 46.4877 43.2677C46.5005 42.9172 46.4739 42.5521 46.46 42.2C46.46 41.7267 46.46 41.2657 46.4743 40.7933C46.4743 40.7257 46.5016 40.6719 46.5287 40.6035H46.5698C46.5827 40.6313 46.5698 40.6719 46.5955 40.6856C46.6365 40.7267 46.7043 40.7935 46.7314 40.7802C46.8121 40.7257 46.9336 40.6723 46.9609 40.5902C47.0275 40.4284 47.0552 40.2523 47.0552 40.0902C47.0552 39.969 47.1096 39.8879 47.163 39.8062C47.1907 39.7652 47.204 39.7253 47.2313 39.6713C47.1773 39.6303 47.1235 39.6035 47.0558 39.5498C47.1102 39.4008 47.0968 39.2248 47.2994 39.1442C47.3262 39.1303 47.3262 39.0619 47.3405 39.022C47.3533 38.9126 47.3662 38.791 47.3806 38.6831C47.4073 38.7241 47.4216 38.737 47.4473 38.7636C47.4617 38.737 47.475 38.7226 47.475 38.7226C47.475 38.6692 47.4617 38.5609 47.475 38.5609C47.6372 38.5338 47.5693 38.3582 47.6504 38.2771C47.6633 38.2627 47.6366 38.2222 47.6366 38.195C47.6366 38.1683 47.6366 38.1282 47.65 38.1282C47.8383 38.0872 47.8116 37.8844 47.9332 37.7894C47.9742 37.7621 47.9872 37.7226 48.041 37.6544C48.1488 37.8432 47.9599 37.9384 47.9465 38.0733C48.1755 37.9382 48.2432 37.6137 48.1083 37.5189C48.1622 37.4779 48.2159 37.4245 48.257 37.37C48.4058 37.2078 48.567 37.059 48.7025 36.8967C48.7973 36.7756 48.8512 36.6267 48.9456 36.5051C49 36.4373 49.1078 36.3833 49.1889 36.3423C49.4321 36.2077 49.661 36.059 49.8097 35.829C49.837 35.8018 49.8776 35.775 49.9175 35.7479C49.9585 35.7207 50.0396 35.7207 50.053 35.6802C50.0669 35.6534 50.0263 35.5856 49.9991 35.5451C50.0524 35.5178 50.107 35.464 50.2146 35.4095C50.1736 35.4906 50.1607 35.5451 50.1335 35.5995L50.2003 35.6663C50.3224 35.5719 50.5113 35.464 50.6328 35.3829C50.6328 35.37 50.5651 35.3161 50.5651 35.3161C50.4846 35.3571 50.363 35.424 50.2419 35.4783C50.2674 35.4373 50.2674 35.4106 50.2829 35.3972C50.4712 35.2756 50.6601 35.154 50.8628 35.0584C51.3348 34.8429 51.8079 34.6263 52.2805 34.4234C52.3617 34.3824 52.4704 34.4101 52.5643 34.4101C52.6044 34.4101 52.6311 34.4101 52.6722 34.3968C52.8876 34.329 53.1041 34.2612 53.3202 34.2068C53.4172 34.1803 53.5173 34.1669 53.6178 34.1668C54.0218 34.1796 54.4271 34.1796 54.8318 34.2068C55.0074 34.2201 55.1695 34.2607 55.3316 34.3147C55.5338 34.3829 55.7499 34.4773 55.9393 34.5713C56.1672 34.6945 56.3881 34.8302 56.6011 34.9779C56.9927 35.2345 57.3571 35.5189 57.7485 35.749C58.1267 35.9788 58.4238 36.2899 58.6671 36.6421C58.9646 37.061 59.3018 37.4398 59.4368 37.9536L59.639 38.8469C59.68 39.0091 59.7744 39.1713 59.7339 39.3602C59.6656 39.6991 59.6118 40.0507 59.558 40.3889C59.5313 40.525 59.504 40.661 59.5178 40.7944C59.5435 41.2155 59.3819 41.5799 59.2203 41.9587C59.1659 42.0804 59.0847 42.2026 59.0176 42.3375C59.0309 42.3509 59.1119 42.392 59.1254 42.392L59.247 42.1487C59.2609 42.1487 59.2609 42.1487 59.2741 42.1625C59.2065 42.3513 59.1525 42.5548 59.0842 42.7442C58.9232 43.1635 58.761 43.5963 58.5583 44.0018C58.4505 44.2317 58.2608 44.4213 58.1263 44.6385C57.9918 44.8273 57.8836 45.03 57.7485 45.2061C57.6269 45.355 57.5058 45.5038 57.3431 45.6116C56.9789 45.8822 56.6007 46.1527 56.2091 46.3693C55.9664 46.5182 55.6826 46.5993 55.4127 46.6671L55.4164 46.6656ZM48.2187 45.9469L48.2052 45.9607C48.177 45.9475 48.1364 45.934 48.1097 45.9068L47.7855 45.4191C47.7588 45.3791 47.7444 45.3386 47.7588 45.2847C47.9042 45.5107 48.0574 45.7316 48.2181 45.9469H48.2187ZM56.6186 47.8C57.2257 47.5434 57.7255 47.1789 58.1836 46.759C58.252 46.6912 58.3193 46.624 58.4002 46.569C58.9678 46.2178 59.3856 45.7307 59.7642 45.1897C60.1962 44.5677 60.48 43.8642 60.8315 43.2016C60.8582 43.1471 60.8849 43.0937 60.912 43.0527C60.8849 44.5947 61.0608 46.1095 61.2631 47.6384C59.7375 47.6922 58.1842 47.7461 56.6182 47.8005L56.6186 47.8ZM70.3108 47.3945C70.2974 47.4217 70.2697 47.449 70.2568 47.4765C70.243 47.449 70.243 47.4083 70.2297 47.3535C70.1486 47.5706 69.973 47.4623 69.8515 47.4623C69.1228 47.476 68.3799 47.476 67.6502 47.476C66.9482 47.476 66.2328 47.476 65.531 47.4885C65.301 47.4885 65.0577 47.5424 64.828 47.5561C64.2748 47.5829 63.721 47.5972 63.1673 47.6101C63.1263 47.6101 63.0862 47.5434 63.0185 47.4889C63.0051 47.5161 62.9774 47.5567 62.9375 47.6106C62.923 47.5839 62.8963 47.5573 62.8692 47.5166C62.8559 47.5577 62.8421 47.5978 62.8282 47.6245H62.7891C62.762 47.4356 62.708 47.26 62.708 47.07C62.708 46.6646 62.7492 46.259 62.762 45.8524C62.7759 45.6635 62.762 45.4879 62.762 45.3114C62.8164 45.3524 62.8568 45.3796 62.9108 45.4191C62.9375 45.3664 62.9647 45.3257 62.9919 45.2858C62.9919 45.2858 62.9646 45.2713 62.9375 45.2446C62.9631 45.2307 62.9908 45.2036 62.9908 45.1902C63.0041 45.1492 63.0318 45.1091 63.0318 45.0824C63.0318 44.9873 63.0041 44.9064 62.9908 44.8257C63.0041 44.8257 63.0175 44.8257 63.0318 44.8114L63.1125 45.2168H63.1535C63.0991 45.123 63.2745 45.0413 63.1263 44.9336C63.1129 44.9197 63.1396 44.8384 63.1396 44.798C63.0986 44.7175 63.073 44.6363 63.0318 44.528C63.0452 44.5147 63.0858 44.5008 63.1263 44.487C63.0724 44.4602 63.0318 44.4336 62.9913 44.4203C63.1263 44.298 63.1263 44.2303 63.0047 44.0953C63.0324 44.0824 63.0591 44.0824 63.0591 44.0696C63.0591 43.9475 63.0591 43.8257 63.0324 43.7051C63.0051 43.5685 63.0734 43.4074 62.8702 43.3253C62.8836 43.3662 62.8975 43.393 62.9242 43.433C62.9242 43.433 62.8831 43.4469 62.8431 43.4741C62.6675 43.3114 62.7763 43.0943 62.7352 42.8515C62.8297 42.8787 62.8975 42.9059 62.9646 42.9336C62.9375 42.8381 62.8702 42.7298 62.8297 42.608H62.7748V41.7149C62.7748 41.7288 62.8692 41.7288 62.9236 41.7427C62.9236 41.7288 62.9364 41.7155 62.9364 41.7016C62.8953 41.6477 62.8415 41.5937 62.7877 41.5259L62.8148 41.4988C62.707 41.3642 62.7608 41.1754 62.7608 41.1344V40.1872C62.8965 40.3228 62.6942 40.4983 62.8965 40.5795V40.4444H62.8825C62.8692 40.2417 62.8692 40.0389 62.8559 39.8355H62.8292C62.8154 39.8633 62.8154 39.8766 62.8015 39.9038H62.7748L62.8559 36.6708C62.9908 36.8464 63.1392 37.0097 63.2335 37.1841C63.5445 37.7529 63.9494 38.2402 64.3274 38.754C64.6518 39.2005 64.9484 39.6872 65.2461 40.1471C65.6105 40.7016 65.9614 41.256 66.3263 41.8103C66.5961 42.2304 66.8805 42.6498 67.1626 43.0558C67.4193 43.4203 67.6901 43.7724 67.9601 44.1244C68.1889 44.4356 68.4322 44.7467 68.6617 45.0577C68.9319 45.4367 69.2019 45.8149 69.4723 46.1804C69.6068 46.3693 69.7555 46.5587 69.9033 46.7483C69.9854 46.856 70.1066 46.9381 70.1877 47.0049C70.1749 47.0049 70.161 47.0049 70.1343 46.9916C70.1753 47.0454 70.201 47.086 70.2287 47.113C70.3774 47.1943 70.3909 47.2755 70.3098 47.3976L70.3108 47.3945ZM70.9993 44.0136V43.9186C70.9993 43.9454 71.0128 43.9854 70.9993 44.0131V44.0136ZM71.4588 38.0486C71.4448 38.0486 71.3643 37.9666 71.3508 37.9532C71.337 37.9941 71.3508 38.0342 71.3237 38.0887C71.3099 38.0486 71.2159 38.0621 71.2159 38.022C71.2021 38.2108 71.2964 38.4003 71.2826 38.5897C71.3237 38.5625 71.4853 38.5487 71.5259 38.5086C71.5397 38.5218 71.567 38.5353 71.5803 38.5353C71.3099 38.7386 71.3775 38.9407 71.4992 39.1718C71.5259 39.2253 71.607 39.3336 71.5259 39.4419C71.4992 39.4691 71.5397 39.5496 71.5531 39.618H71.5925V39.6436L71.471 39.6846C71.4443 39.6436 71.2826 39.5635 71.2826 39.4947V40.1856C71.4176 40.2267 71.4176 40.4157 71.4715 40.5105C71.4998 40.4696 71.5126 40.4423 71.5264 40.4028L71.5403 40.4151C71.5264 40.4962 71.513 40.5773 71.4859 40.659C71.4592 40.7802 71.4319 40.8885 71.4191 41.0101C71.4191 41.0234 71.4448 41.0511 71.4448 41.064C71.297 41.4028 71.3781 41.7806 71.3242 42.1318C71.2832 42.3883 71.3242 42.6604 71.297 42.9305C71.2693 43.1604 71.2149 43.4039 71.1615 43.6338C71.1477 43.6748 71.1205 43.6877 71.0537 43.7149C71.0804 43.5527 71.0672 43.4444 71.0399 43.2955C71.0256 43.2955 70.8501 43.201 70.8363 43.201C70.8363 43.391 70.9439 43.6476 70.985 43.8632C70.9439 43.85 70.7823 43.7554 70.7695 43.7554C70.7418 43.9176 70.7418 44.1343 70.7285 44.3099C70.7146 44.4453 70.5934 44.5665 70.5797 44.7153C70.5797 44.7975 70.6741 44.8509 70.6607 44.9864H70.7686C70.7686 44.7164 70.8907 44.4731 70.8907 44.1887H70.9306C70.9445 44.2159 70.9851 44.2432 70.9716 44.2565C70.9445 44.4053 70.8895 44.5675 70.904 44.7164C70.904 44.7975 70.9706 44.8785 70.9449 44.9731C70.9172 45.0551 70.904 45.1357 70.8901 45.2575C70.8762 45.1897 70.863 45.1629 70.863 45.1224C70.8496 45.1224 70.7279 45.1086 70.7142 45.1086C70.7008 45.1897 70.809 45.2708 70.7952 45.3384C70.7819 45.3519 70.7685 45.3519 70.7412 45.3658L70.2959 44.7159C69.941 44.1999 69.5896 43.6814 69.2418 43.1604C69.1509 43.0314 69.0695 42.8959 68.9983 42.755C68.58 42.0373 68.1207 41.3474 67.6076 40.6846C67.2166 40.1846 66.9046 39.6424 66.5403 39.1164C66.2036 38.6158 65.866 38.1287 65.5283 37.6278C65.4067 37.466 65.2585 37.3172 65.1502 37.1411C64.7997 36.5866 64.4881 36.0184 64.1382 35.464C63.8407 35.0035 63.5174 34.5569 63.2063 34.1108C63.0986 33.9619 62.9908 33.7993 62.882 33.637C62.8688 33.6114 62.8553 33.5843 62.8553 33.5436C62.8282 33.2459 62.8009 32.9482 62.7877 32.6642C62.7877 32.3937 62.8148 32.1232 62.8148 31.8387V31.5955C62.8148 31.5278 62.8276 31.4738 62.8276 31.4056C62.8405 31.3927 62.8543 31.3654 62.8676 31.3521C62.4761 31.3521 62.0708 31.3378 61.6792 31.3521C61.4227 31.365 61.2877 31.2567 61.1121 31.0673C60.599 30.4856 60.221 29.823 59.7754 29.2008C59.3568 28.6053 58.9247 28.0232 58.4927 27.4415C58.1412 26.9682 57.7897 26.5083 57.4392 26.0349C57.0471 25.4939 56.6694 24.9529 56.2641 24.4118C55.7777 23.7629 55.2778 23.1131 54.7786 22.4642C54.5476 22.1665 54.291 21.8827 54.0345 21.571C54.2105 21.5989 54.3731 21.6255 54.5347 21.6392L55.1833 21.6802C55.6693 21.7198 56.1553 21.7471 56.6407 21.8139C57.0461 21.8688 57.4516 21.9498 57.8702 22.017C58.7621 22.166 59.6395 22.4097 60.4902 22.6937C60.9901 22.8559 61.4755 23.0725 61.963 23.2752C63.056 23.722 64.0961 24.2629 65.1224 24.8307C65.4457 25.0068 65.6355 25.2906 65.8778 25.5479C66.2293 25.9133 66.5808 26.2783 66.9179 26.6567C67.3089 27.1031 67.6732 27.5632 68.0518 28.0232C68.3891 28.4287 68.7395 28.8341 69.0782 29.2407C69.186 29.3625 69.2681 29.5114 69.3614 29.6463C69.577 29.9713 69.8207 30.2829 70.0096 30.634C70.1439 30.8916 70.225 31.1894 70.3195 31.4733C70.4539 31.8927 70.5894 32.2983 70.725 32.7176C70.8194 33.0339 70.9002 33.3542 70.9671 33.6775C71.0215 33.8947 71.0081 34.1242 71.0749 34.3398C71.157 34.6253 71.0749 34.9353 71.157 35.2201C71.1697 35.2473 71.1825 35.2879 71.197 35.3151C71.2509 35.3685 71.2913 35.423 71.2102 35.5039C71.1974 35.5174 71.1974 35.5708 71.2102 35.6118C71.238 35.5852 71.2514 35.5579 71.2785 35.5174C71.2785 35.5446 71.2913 35.5584 71.2913 35.5713C71.2913 35.6247 71.2775 35.6791 71.2913 35.733C71.2913 35.7596 71.318 35.7997 71.3314 35.8274C71.3586 35.7996 71.3854 35.7864 71.4392 35.7453C71.5607 36.2058 71.5746 36.6657 71.5746 37.139C71.5746 37.5856 71.6552 38.0322 71.4669 38.465C71.5069 38.3162 71.4125 38.18 71.4531 38.0449L71.4588 38.0486Z" fill="#DD3A0A"/>
<path d="M62.8297 43.3094C62.8426 43.3094 62.8564 43.3233 62.8564 43.3233L62.8426 43.308C62.8426 43.2951 62.8426 43.2951 62.8292 43.308L62.8297 43.3094ZM64.9628 56.6747C64.814 56.7826 64.6653 56.8776 64.4764 56.9181C64.4619 56.9046 64.4619 56.8909 64.4487 56.877C64.5974 56.7826 64.759 56.6882 64.908 56.593C64.9218 56.6188 64.9489 56.6465 64.9624 56.6737L64.9628 56.6747ZM39.6434 38.3445C39.7922 38.1562 39.941 37.9669 40.1021 37.7773C40.115 37.7907 40.2228 37.8183 40.2366 37.8312C40.0879 38.0212 39.8851 38.2779 39.7368 38.4807C39.7091 38.4534 39.6685 38.359 39.642 38.3451L39.6434 38.3445ZM35.8076 44.9744C35.6999 44.7445 35.5922 44.5006 35.4844 44.2711C35.4978 44.2572 35.5923 44.2166 35.6054 44.2166C35.7542 44.4322 35.821 44.689 35.9298 44.9199C35.9298 44.9199 35.822 44.9738 35.8082 44.9738L35.8076 44.9744ZM39.2518 38.4807C39.1709 38.6029 39.0898 38.7383 39.0087 38.8605C38.9953 38.8461 38.8465 38.9139 38.8332 38.9006C38.9142 38.7788 39.1165 38.5617 39.1974 38.4406C39.2113 38.4539 39.2247 38.4678 39.2518 38.4815V38.4807ZM63.5184 57.2303C63.5311 57.2303 63.5311 57.217 63.545 57.217C63.6394 57.2302 63.7471 57.2436 63.8555 57.2436C63.679 57.3653 63.5707 57.3515 63.5168 57.2303H63.5184ZM39.2774 39.0486C39.2918 39.0076 39.3185 38.9675 39.3456 38.9269C39.3723 38.9269 39.4124 38.913 39.4124 38.913C39.4673 38.8186 39.4673 38.7509 39.5212 38.6698C39.5078 38.6564 39.4939 38.6564 39.4801 38.6425C39.3996 38.698 39.3185 38.7658 39.2374 38.8197C39.2645 38.8463 39.2645 38.8606 39.2645 38.8874C39.1569 38.8735 39.1158 38.9284 39.0618 39.0762C39.0487 39.1174 38.9808 39.1307 38.913 39.1841C38.8998 39.2119 38.8863 39.2795 38.8592 39.3469L38.8731 39.3612C38.8458 39.3884 38.8054 39.4022 38.8054 39.4022C38.7243 39.4829 38.6298 39.5512 38.5487 39.6317C38.5354 39.6727 38.522 39.7128 38.522 39.7534C38.617 39.6589 38.7787 39.4829 38.9002 39.3745L38.914 39.3884C38.968 39.3074 39.0086 39.2263 39.0628 39.1452C39.0758 39.1584 39.0758 39.1718 39.0897 39.1862C39.0485 39.294 39.0086 39.4151 38.968 39.5234C38.9397 39.5367 38.8992 39.5644 38.8992 39.5506C38.8454 39.5916 38.8048 39.645 38.7504 39.6857L38.5077 39.8479C38.3728 39.9695 38.2379 40.0773 38.089 40.1995C37.9946 40.3483 37.9001 40.4834 37.7914 40.6595C37.9541 40.6184 37.9946 40.6866 37.9812 40.8222C38.1701 40.8489 38.1839 40.7007 38.2379 40.5923C38.251 40.5645 38.265 40.5101 38.2917 40.4968C38.4133 40.3889 38.5483 40.2945 38.6832 40.1862C38.7104 40.1589 38.7104 40.1041 38.7104 40.064C38.7104 40.0508 38.6422 40.0508 38.6016 40.0367C38.7233 39.9013 38.8992 39.6723 39.0202 39.5234C39.088 39.4824 39.1553 39.428 39.1553 39.3873C39.142 39.2386 39.2364 39.1985 39.3452 39.1442C39.2908 39.103 39.2769 39.0635 39.2769 39.0502L39.2774 39.0486Z" fill="#DD3735"/>
<path d="M39.5485 38.8996C39.4945 38.9941 39.4407 39.0753 39.3869 39.1701L39.3058 39.1292C39.2518 39.4398 39.0625 39.7102 38.8736 39.7641C38.9276 39.7913 38.9815 39.8186 39.0224 39.8051C39.0625 39.7913 39.0892 39.7231 39.1164 39.683L39.4808 39.1554L39.6029 38.9519L39.5489 38.8982L39.5485 38.8996ZM35.0523 44.8379C35.12 44.8379 35.1878 44.8514 35.2679 44.8514C35.2679 44.7974 35.3361 44.8102 35.3361 44.7568H35.3771C35.3771 44.8246 35.3906 44.8785 35.3906 44.9468H35.1072C35.0933 44.9329 35.0395 44.8514 35.0528 44.8379H35.0523ZM34.9445 44.2158C34.9036 44.1748 34.8368 44.1347 34.8368 44.0942C34.8229 44.0408 34.8634 43.9734 34.9036 43.9057C34.9313 44.0002 34.9445 44.0813 34.9712 44.1763C34.9574 44.189 34.9441 44.203 34.9441 44.2163L34.9445 44.2158ZM35.2822 43.3498C35.3361 43.4863 35.39 43.6352 35.4444 43.7707C35.431 43.7707 35.35 43.8117 35.3366 43.8246C35.2826 43.689 35.2149 43.5402 35.1611 43.4052C35.1744 43.3919 35.2555 43.3508 35.2828 43.3508L35.2822 43.3498ZM65.342 56.2828C65.4086 56.2562 65.4897 56.2418 65.5987 56.216C65.4764 56.31 65.3819 56.3778 65.301 56.459C65.2871 56.4456 65.2737 56.4317 65.2598 56.4317C65.2871 56.3778 65.3143 56.3372 65.342 56.2828ZM48.7439 27.6996C48.8245 27.6452 48.8927 27.6046 48.9733 27.5508L49 27.5774C48.9179 27.6853 48.8512 27.793 48.7563 27.9291C48.7429 27.8352 48.7429 27.7803 48.729 27.7135C48.7157 27.7135 48.729 27.7135 48.7429 27.7002L48.7439 27.6996ZM52.7002 34.5439C52.8219 34.4896 52.9435 34.4362 53.0918 34.3679C53.0784 34.4491 53.0784 34.5034 53.0784 34.5578C53.0374 34.5439 52.9836 34.53 52.9429 34.53C52.8618 34.5439 52.7131 34.6523 52.6454 34.6657C52.6326 34.6657 52.6998 34.5578 52.6998 34.5439H52.7002ZM62.8295 46.015C62.8564 46.1501 63.1129 46.2177 62.8564 46.3528C62.8974 46.3811 62.9369 46.3938 62.9774 46.4216C62.9774 46.4354 62.964 46.4626 62.9507 46.4761C62.9235 46.4888 62.8697 46.5161 62.843 46.5017C62.8291 46.5017 62.802 46.4483 62.802 46.4212C62.802 46.2994 62.8158 46.1778 62.8291 46.0156L62.8295 46.015Z" fill="#DD3735"/>
<path d="M27.5043 82V71.8182H31.3224C32.1046 71.8182 32.7609 71.964 33.2912 72.2557C33.8248 72.5473 34.2275 72.9484 34.4993 73.4588C34.7744 73.9659 34.9119 74.5426 34.9119 75.1889C34.9119 75.8419 34.7744 76.4219 34.4993 76.929C34.2242 77.4361 33.8182 77.8355 33.2812 78.1271C32.7443 78.4155 32.0831 78.5597 31.2976 78.5597H28.767V77.0433H31.049C31.5064 77.0433 31.8809 76.9638 32.1726 76.8047C32.4643 76.6456 32.6797 76.4268 32.8189 76.1484C32.9614 75.87 33.0327 75.5502 33.0327 75.1889C33.0327 74.8277 32.9614 74.5095 32.8189 74.2344C32.6797 73.9593 32.4626 73.7455 32.1676 73.593C31.8759 73.4373 31.4998 73.3594 31.0391 73.3594H29.3487V82H27.5043ZM39.6561 82.1491C38.9103 82.1491 38.264 81.9851 37.7172 81.657C37.1703 81.3288 36.746 80.8698 36.4444 80.2798C36.1461 79.6899 35.997 79.0005 35.997 78.2116C35.997 77.4228 36.1461 76.7318 36.4444 76.1385C36.746 75.5452 37.1703 75.0845 37.7172 74.7564C38.264 74.4283 38.9103 74.2642 39.6561 74.2642C40.4018 74.2642 41.0481 74.4283 41.595 74.7564C42.1419 75.0845 42.5645 75.5452 42.8627 76.1385C43.1644 76.7318 43.3152 77.4228 43.3152 78.2116C43.3152 79.0005 43.1644 79.6899 42.8627 80.2798C42.5645 80.8698 42.1419 81.3288 41.595 81.657C41.0481 81.9851 40.4018 82.1491 39.6561 82.1491ZM39.666 80.7074C40.0704 80.7074 40.4084 80.5964 40.6802 80.3743C40.952 80.1489 41.1542 79.8473 41.2868 79.4695C41.4226 79.0916 41.4906 78.6707 41.4906 78.2067C41.4906 77.7393 41.4226 77.3168 41.2868 76.9389C41.1542 76.5578 40.952 76.2545 40.6802 76.0291C40.4084 75.8037 40.0704 75.6911 39.666 75.6911C39.2517 75.6911 38.907 75.8037 38.6319 76.0291C38.3601 76.2545 38.1563 76.5578 38.0204 76.9389C37.8878 77.3168 37.8216 77.7393 37.8216 78.2067C37.8216 78.6707 37.8878 79.0916 38.0204 79.4695C38.1563 79.8473 38.3601 80.1489 38.6319 80.3743C38.907 80.5964 39.2517 80.7074 39.666 80.7074ZM50.8782 76.3821L49.2376 76.5611C49.1912 76.3954 49.11 76.2396 48.994 76.0938C48.8813 75.9479 48.7288 75.8303 48.5366 75.7408C48.3443 75.6513 48.109 75.6065 47.8306 75.6065C47.4561 75.6065 47.1412 75.6877 46.886 75.8501C46.6341 76.0125 46.5098 76.223 46.5131 76.4815C46.5098 76.7036 46.591 76.8842 46.7567 77.0234C46.9258 77.1626 47.2042 77.277 47.592 77.3665L48.8945 77.6449C49.6171 77.8007 50.154 78.0476 50.5053 78.3857C50.86 78.7237 51.0389 79.1662 51.0423 79.7131C51.0389 80.1937 50.8981 80.6179 50.6197 80.9858C50.3446 81.3504 49.9618 81.6354 49.4712 81.8409C48.9807 82.0464 48.4173 82.1491 47.7809 82.1491C46.8462 82.1491 46.0939 81.9536 45.5238 81.5625C44.9537 81.1681 44.614 80.6196 44.5046 79.9169L46.2596 79.7479C46.3391 80.0926 46.5082 80.3527 46.7667 80.5284C47.0252 80.7041 47.3616 80.7919 47.7759 80.7919C48.2035 80.7919 48.5465 80.7041 48.805 80.5284C49.0669 80.3527 49.1978 80.1357 49.1978 79.8771C49.1978 79.6584 49.1133 79.4777 48.9442 79.3352C48.7785 79.1927 48.52 79.0833 48.1687 79.0071L46.8661 78.7337C46.1336 78.5812 45.5917 78.3243 45.2404 77.9631C44.8891 77.5985 44.7151 77.1378 44.7184 76.581C44.7151 76.1103 44.8427 75.7027 45.1012 75.358C45.363 75.0099 45.726 74.7415 46.19 74.5526C46.6573 74.3603 47.1959 74.2642 47.8058 74.2642C48.7006 74.2642 49.4049 74.4548 49.9187 74.8359C50.4357 75.2171 50.7556 75.7325 50.8782 76.3821ZM56.3395 74.3636V75.7557H51.9496V74.3636H56.3395ZM53.0334 72.5341H54.8331V79.7031C54.8331 79.9451 54.8696 80.1307 54.9425 80.2599C55.0187 80.3859 55.1181 80.4721 55.2408 80.5185C55.3634 80.5649 55.4993 80.5881 55.6484 80.5881C55.7611 80.5881 55.8639 80.5798 55.9567 80.5632C56.0528 80.5466 56.1257 80.5317 56.1754 80.5185L56.4787 81.9254C56.3826 81.9586 56.245 81.995 56.0661 82.0348C55.8904 82.0746 55.675 82.0978 55.4197 82.1044C54.969 82.1177 54.563 82.0497 54.2017 81.9006C53.8404 81.7481 53.5537 81.5128 53.3416 81.1946C53.1328 80.8764 53.0301 80.4787 53.0334 80.0014V72.5341ZM61.0936 82.1491C60.3313 82.1491 59.6767 81.9818 59.1298 81.647C58.5862 81.3123 58.167 80.8499 57.872 80.2599C57.5803 79.6667 57.4345 78.9839 57.4345 78.2116C57.4345 77.4361 57.5836 76.7517 57.8819 76.1584C58.1802 75.5618 58.6011 75.0978 59.1447 74.7663C59.6916 74.4316 60.3379 74.2642 61.0836 74.2642C61.7034 74.2642 62.252 74.3786 62.7292 74.6072C63.2098 74.8326 63.5926 75.1525 63.8777 75.5668C64.1627 75.9777 64.3251 76.4583 64.3649 77.0085H62.6447C62.5751 76.6406 62.4094 76.334 62.1475 76.0888C61.889 75.8402 61.5427 75.7159 61.1085 75.7159C60.7406 75.7159 60.4174 75.8153 60.139 76.0142C59.8606 76.2098 59.6435 76.4915 59.4877 76.8594C59.3353 77.2273 59.2591 77.6681 59.2591 78.1818C59.2591 78.7022 59.3353 79.1496 59.4877 79.5241C59.6402 79.8954 59.854 80.1821 60.1291 80.3842C60.4075 80.5831 60.734 80.6825 61.1085 80.6825C61.3736 80.6825 61.6106 80.6328 61.8194 80.5334C62.0315 80.4306 62.2089 80.2831 62.3514 80.0909C62.4939 79.8987 62.5917 79.665 62.6447 79.3899H64.3649C64.3218 79.9302 64.1627 80.4091 63.8876 80.8267C63.6125 81.241 63.238 81.5658 62.764 81.8011C62.2901 82.0331 61.7333 82.1491 61.0936 82.1491ZM71.8782 76.3821L70.2376 76.5611C70.1912 76.3954 70.11 76.2396 69.994 76.0938C69.8813 75.9479 69.7288 75.8303 69.5366 75.7408C69.3443 75.6513 69.109 75.6065 68.8306 75.6065C68.4561 75.6065 68.1412 75.6877 67.886 75.8501C67.6341 76.0125 67.5098 76.223 67.5131 76.4815C67.5098 76.7036 67.591 76.8842 67.7567 77.0234C67.9258 77.1626 68.2042 77.277 68.592 77.3665L69.8945 77.6449C70.6171 77.8007 71.154 78.0476 71.5053 78.3857C71.86 78.7237 72.0389 79.1662 72.0423 79.7131C72.0389 80.1937 71.8981 80.6179 71.6197 80.9858C71.3446 81.3504 70.9618 81.6354 70.4712 81.8409C69.9807 82.0464 69.4173 82.1491 68.7809 82.1491C67.8462 82.1491 67.0939 81.9536 66.5238 81.5625C65.9537 81.1681 65.614 80.6196 65.5046 79.9169L67.2596 79.7479C67.3391 80.0926 67.5082 80.3527 67.7667 80.5284C68.0252 80.7041 68.3616 80.7919 68.7759 80.7919C69.2035 80.7919 69.5465 80.7041 69.805 80.5284C70.0669 80.3527 70.1978 80.1357 70.1978 79.8771C70.1978 79.6584 70.1133 79.4777 69.9442 79.3352C69.7785 79.1927 69.52 79.0833 69.1687 79.0071L67.8661 78.7337C67.1336 78.5812 66.5917 78.3243 66.2404 77.9631C65.8891 77.5985 65.7151 77.1378 65.7184 76.581C65.7151 76.1103 65.8427 75.7027 66.1012 75.358C66.363 75.0099 66.726 74.7415 67.19 74.5526C67.6573 74.3603 68.1959 74.2642 68.8058 74.2642C69.7006 74.2642 70.4049 74.4548 70.9187 74.8359C71.4357 75.2171 71.7556 75.7325 71.8782 76.3821ZM79.5618 76.3821L77.9212 76.5611C77.8748 76.3954 77.7936 76.2396 77.6776 76.0938C77.5649 75.9479 77.4124 75.8303 77.2202 75.7408C77.0279 75.6513 76.7926 75.6065 76.5142 75.6065C76.1397 75.6065 75.8248 75.6877 75.5696 75.8501C75.3177 76.0125 75.1934 76.223 75.1967 76.4815C75.1934 76.7036 75.2746 76.8842 75.4403 77.0234C75.6094 77.1626 75.8878 77.277 76.2756 77.3665L77.5781 77.6449C78.3007 77.8007 78.8376 78.0476 79.1889 78.3857C79.5436 78.7237 79.7225 79.1662 79.7259 79.7131C79.7225 80.1937 79.5817 80.6179 79.3033 80.9858C79.0282 81.3504 78.6454 81.6354 78.1548 81.8409C77.6643 82.0464 77.1009 82.1491 76.4645 82.1491C75.5298 82.1491 74.7775 81.9536 74.2074 81.5625C73.6373 81.1681 73.2976 80.6196 73.1882 79.9169L74.9432 79.7479C75.0227 80.0926 75.1918 80.3527 75.4503 80.5284C75.7088 80.7041 76.0452 80.7919 76.4595 80.7919C76.8871 80.7919 77.2301 80.7041 77.4886 80.5284C77.7505 80.3527 77.8814 80.1357 77.8814 79.8771C77.8814 79.6584 77.7969 79.4777 77.6278 79.3352C77.4621 79.1927 77.2036 79.0833 76.8523 79.0071L75.5497 78.7337C74.8172 78.5812 74.2753 78.3243 73.924 77.9631C73.5727 77.5985 73.3987 77.1378 73.402 76.581C73.3987 76.1103 73.5263 75.7027 73.7848 75.358C74.0466 75.0099 74.4096 74.7415 74.8736 74.5526C75.3409 74.3603 75.8795 74.2642 76.4893 74.2642C77.3842 74.2642 78.0885 74.4548 78.6023 74.8359C79.1193 75.2171 79.4392 75.7325 79.5618 76.3821Z" fill="white"/>
</g>
<defs>
<filter id="filter0_d_5828_16513" x="0" y="0" width="107" height="109" filterUnits="userSpaceOnUse" color-interpolation-filters="sRGB">
<feFlood flood-opacity="0" result="BackgroundImageFix"/>
<feColorMatrix in="SourceAlpha" type="matrix" values="0 0 0 0 0 0 0 0 0 0 0 0 0 0 0 0 0 0 127 0" result="hardAlpha"/>
<feOffset dy="2"/>
<feGaussianBlur stdDeviation="4"/>
<feColorMatrix type="matrix" values="0 0 0 0 0 0 0 0 0 0 0 0 0 0 0 0 0 0 0.25 0"/>
<feBlend mode="normal" in2="BackgroundImageFix" result="effect1_dropShadow_5828_16513"/>
<feBlend mode="normal" in="SourceGraphic" in2="effect1_dropShadow_5828_16513" result="shape"/>
</filter>
</defs>
</svg>
