<svg width="107" height="109" viewBox="0 0 107 109" fill="none" xmlns="http://www.w3.org/2000/svg">
<g filter="url(#filter0_d_5845_13868)">
<rect x="8" y="6" width="91" height="93" rx="12" fill="#151B23"/>
<rect x="9" y="7" width="89" height="91" rx="11" stroke="#1F2937" stroke-width="2"/>
<mask id="mask0_5845_13868" style="mask-type:luminance" maskUnits="userSpaceOnUse" x="36" y="22" width="35" height="36">
<path d="M36 22.5H71V57.5H36V22.5Z" fill="white"/>
</mask>
<g mask="url(#mask0_5845_13868)">
<path d="M70.8577 42.2224C72.0816 32.6335 65.3102 23.8682 55.7399 22.6432C46.1696 21.4182 37.3682 28.1885 36.1432 37.7599C34.9182 47.3313 41.6885 56.1141 51.2599 57.3566C60.8488 58.5816 69.6152 51.8113 70.8577 42.2224Z" fill="#FF6C37"/>
<path d="M59.8169 33.7337L52.4341 41.1165L50.3516 39.0351C57.6119 31.7737 58.3294 32.4037 59.8169 33.7337Z" fill="white"/>
<path d="M52.4311 41.2973C52.408 41.2984 52.385 41.2942 52.3638 41.2851C52.3426 41.276 52.3237 41.2622 52.3086 41.2448L50.2086 39.1623C50.192 39.1465 50.1789 39.1275 50.1699 39.1064C50.1609 39.0854 50.1562 39.0627 50.1562 39.0398C50.1562 39.0169 50.1609 38.9943 50.1699 38.9732C50.1789 38.9522 50.192 38.9331 50.2086 38.9173C57.5925 31.5345 58.3625 32.2345 59.92 33.6345C59.9373 33.6495 59.9509 33.6682 59.96 33.6892C59.9691 33.7103 59.9734 33.733 59.9725 33.7559C59.9725 33.8084 59.955 33.8434 59.92 33.8784L52.5372 41.2448C52.5186 41.2798 52.4661 41.2973 52.4311 41.2973ZM50.5936 39.0398L52.4311 40.8773L59.5525 33.757C58.2575 32.6009 57.3814 32.2509 50.5936 39.0398Z" fill="#FF6C37"/>
<path d="M54.5496 43.2391L52.5371 41.2266L59.9199 33.8438C61.8985 35.8377 58.941 39.0741 54.5496 43.2391Z" fill="white"/>
<path d="M54.5509 43.4142C54.5277 43.4151 54.5047 43.4108 54.4834 43.4015C54.4622 43.3922 54.4434 43.3782 54.4284 43.3606L52.4159 41.3481C52.3809 41.3142 52.3809 41.2792 52.3809 41.2267C52.3809 41.1742 52.3984 41.1392 52.4334 41.1042L59.8173 33.7203C59.8331 33.7038 59.8521 33.6906 59.8732 33.6816C59.8942 33.6726 59.9169 33.668 59.9398 33.668C59.9627 33.668 59.9853 33.6726 60.0064 33.6816C60.0274 33.6906 60.0464 33.7038 60.0623 33.7203C60.5173 34.1403 60.7623 34.7353 60.7448 35.3478C60.7098 37.2892 58.5048 39.7567 54.6909 43.3606C54.6497 43.3903 54.6014 43.4084 54.5509 43.4131V43.4142ZM52.7834 41.2267C53.9034 42.3642 54.3759 42.8192 54.5509 42.9931C57.4909 40.1931 60.3423 37.3242 60.3598 35.3478C60.3699 34.8859 60.2077 34.4367 59.9048 34.0878L52.7834 41.2267Z" fill="#FF6C37"/>
<path d="M50.3858 39.0933L51.8733 40.5808C51.9075 40.6158 51.9075 40.6508 51.8733 40.6858C51.8547 40.7033 51.8547 40.7033 51.8372 40.7033L48.7583 41.3683C48.6823 41.3763 48.606 41.3556 48.5445 41.3103C48.483 41.265 48.4406 41.1983 48.4258 41.1233C48.4187 41.0825 48.4213 41.0407 48.4335 41.0012C48.4456 40.9616 48.467 40.9255 48.4958 40.8958L50.2808 39.1108C50.3158 39.0758 50.3683 39.0583 50.3858 39.0933Z" fill="white"/>
<path d="M48.7072 41.5425C48.646 41.5424 48.5855 41.5299 48.5292 41.5059C48.4729 41.4819 48.422 41.4468 48.3795 41.4027C48.3371 41.3586 48.3039 41.3065 48.282 41.2493C48.2602 41.1921 48.25 41.1311 48.2522 41.07C48.2522 40.9475 48.3047 40.825 48.3922 40.7375L50.1772 38.9525C50.2257 38.9101 50.2879 38.8867 50.3522 38.8867C50.4166 38.8867 50.4788 38.9101 50.5272 38.9525L52.0147 40.44C52.1187 40.5275 52.1187 40.685 52.0147 40.79C51.9801 40.8234 51.9376 40.8475 51.8912 40.86L48.8122 41.525C48.7772 41.525 48.7422 41.5425 48.7072 41.5425ZM50.3347 39.285L48.6197 41C48.5847 41.035 48.5672 41.0875 48.6022 41.14C48.6197 41.1925 48.6722 41.21 48.7247 41.1925L51.6122 40.5625L50.3347 39.285Z" fill="#FF6C37"/>
<path d="M63.7185 29.6413C63.4502 29.3831 63.1334 29.1805 62.7865 29.045C62.4396 28.9096 62.0694 28.8441 61.6971 28.8522C61.3248 28.8604 60.9578 28.942 60.6171 29.0924C60.2765 29.2429 59.9689 29.4591 59.7121 29.7288C59.4537 29.9971 59.251 30.3138 59.1155 30.6607C58.98 31.0076 58.9144 31.3779 58.9225 31.7502C58.9307 32.1226 59.0124 32.4896 59.1629 32.8303C59.3134 33.171 59.5298 33.4785 59.7996 33.7352C60.7271 34.6277 62.1271 34.7852 63.2285 34.1202L61.2346 32.1252L63.7185 29.6413Z" fill="white"/>
<path d="M61.7569 34.7014C61.2645 34.7017 60.7797 34.5812 60.3447 34.3504C59.9098 34.1197 59.5382 33.7857 59.2624 33.3779C58.9866 32.97 58.8152 32.5007 58.763 32.0112C58.7109 31.5216 58.7797 31.0267 58.9633 30.5699C59.147 30.1132 59.44 29.7084 59.8165 29.3912C60.1931 29.074 60.6417 28.8541 61.1231 28.7507C61.6044 28.6473 62.1038 28.6636 62.5774 28.7982C63.051 28.9327 63.4843 29.1814 63.8394 29.5225C63.8568 29.5376 63.8706 29.5565 63.8797 29.5777C63.8887 29.599 63.8929 29.6219 63.8919 29.645C63.8919 29.6975 63.8744 29.7325 63.8394 29.7675L61.4769 32.13L63.3319 33.9839C63.3484 33.9997 63.3616 34.0187 63.3706 34.0398C63.3796 34.0609 63.3842 34.0835 63.3842 34.1064C63.3842 34.1293 63.3796 34.152 63.3706 34.173C63.3616 34.1941 63.3484 34.2131 63.3319 34.2289L63.2969 34.2639C62.8339 34.5486 62.3003 34.7 61.7569 34.7014ZM61.7569 29.05C61.4082 29.0488 61.0628 29.1169 60.7406 29.2503C60.4185 29.3838 60.126 29.5799 59.8803 29.8272C59.6345 30.0746 59.4404 30.3683 59.3091 30.6913C59.1778 31.0144 59.112 31.3602 59.1155 31.7089C59.1141 32.0578 59.1822 32.4034 59.3156 32.7258C59.449 33.0481 59.6452 33.3407 59.8927 33.5866C60.1402 33.8325 60.4341 34.0267 60.7573 34.158C61.0805 34.2893 61.4266 34.355 61.7755 34.3514C62.1829 34.3543 62.5848 34.2582 62.9469 34.0714L61.1094 32.2514C61.0922 32.2362 61.0786 32.2172 61.0697 32.196C61.0608 32.1748 61.0568 32.1519 61.058 32.1289C61.058 32.0764 61.0755 32.0414 61.1105 32.0064L63.4544 29.6625C62.9805 29.2619 62.3774 29.0445 61.7569 29.05Z" fill="#FF6C37"/>
<path d="M63.7688 29.6952L63.7338 29.6602L61.2324 32.1266L63.2099 34.1041C63.4013 33.9816 63.5938 33.8416 63.7513 33.6841C64.0163 33.4244 64.2272 33.1147 64.3717 32.773C64.5161 32.4313 64.5914 32.0643 64.593 31.6933C64.5946 31.3223 64.5226 30.9546 64.3811 30.6116C64.2397 30.2686 64.0315 29.9571 63.7688 29.6952Z" fill="white"/>
<path d="M63.2288 34.2975C63.2057 34.2985 63.1827 34.2944 63.1615 34.2853C63.1403 34.2762 63.1214 34.2624 63.1063 34.245L61.1113 32.25C61.0938 32.2349 61.0801 32.216 61.071 32.1948C61.0619 32.1735 61.0577 32.1505 61.0588 32.1275C61.0588 32.075 61.0763 32.04 61.1113 32.0061L63.5952 29.5211C63.611 29.5045 63.63 29.4914 63.6511 29.4824C63.6721 29.4734 63.6948 29.4688 63.7177 29.4688C63.7406 29.4688 63.7632 29.4734 63.7843 29.4824C63.8053 29.4914 63.8243 29.5045 63.8402 29.5211L63.8927 29.5561C64.4541 30.12 64.7708 30.8824 64.7741 31.6782C64.7774 32.474 64.467 33.239 63.9102 33.8075C63.7382 33.9835 63.544 34.1365 63.3327 34.2625C63.2813 34.28 63.2463 34.2975 63.2288 34.2975ZM61.4787 32.1275L63.2452 33.895C63.3863 33.8075 63.5263 33.685 63.6313 33.58C64.6277 32.5825 64.6813 30.955 63.7188 29.905L61.4787 32.1275Z" fill="#FF6C37"/>
<path d="M60.1139 34.0533C59.9119 33.8516 59.6381 33.7383 59.3527 33.7383C59.0672 33.7383 58.7934 33.8516 58.5914 34.0533L51.9961 40.6508L53.0975 41.7533L60.0789 35.6283C60.5339 35.2444 60.5689 34.5619 60.1839 34.1069C60.1489 34.0894 60.1314 34.0719 60.1139 34.0544V34.0533Z" fill="white"/>
<path d="M53.0781 41.9262C53.0551 41.9272 53.0321 41.9231 53.0109 41.914C52.9896 41.9049 52.9708 41.8911 52.9556 41.8737L51.8531 40.7712C51.8366 40.7554 51.8234 40.7363 51.8144 40.7153C51.8054 40.6942 51.8008 40.6716 51.8008 40.6487C51.8008 40.6258 51.8054 40.6031 51.8144 40.5821C51.8234 40.561 51.8366 40.542 51.8531 40.5262L58.4495 33.9298C58.5654 33.8134 58.7031 33.721 58.8548 33.658C59.0064 33.5949 59.169 33.5625 59.3333 33.5625C59.4975 33.5625 59.6601 33.5949 59.8118 33.658C59.9634 33.721 60.1012 33.8134 60.217 33.9298C60.3334 34.0456 60.4258 34.1834 60.4888 34.335C60.5519 34.4867 60.5843 34.6493 60.5843 34.8135C60.5843 34.9778 60.5519 35.1404 60.4888 35.292C60.4258 35.4437 60.3334 35.5814 60.217 35.6973L60.1645 35.7498L53.1831 41.8737C53.1656 41.9087 53.1306 41.9262 53.0781 41.9262ZM52.2381 40.6487L53.0956 41.5062L59.9534 35.4873C60.3395 35.1723 60.3745 34.5948 60.0595 34.2098C59.7445 33.8248 59.167 33.7898 58.782 34.1048C58.7625 34.1268 58.7387 34.1447 58.712 34.1573L52.2381 40.6487Z" fill="#FF6C37"/>
<path d="M46.9388 48.1519C46.8688 48.1869 46.8338 48.2569 46.8513 48.3269L47.1488 49.5858C47.1647 49.6294 47.1713 49.6757 47.1682 49.722C47.1652 49.7683 47.1526 49.8134 47.1312 49.8545C47.1098 49.8957 47.0801 49.9319 47.044 49.9609C47.0079 49.99 46.9661 50.0112 46.9213 50.0233C46.8541 50.0471 46.7812 50.0498 46.7124 50.031C46.6436 50.0123 46.5822 49.9729 46.5363 49.9183L44.6113 48.0119L50.8938 41.7305L53.0627 41.7655L54.5327 43.2344C54.1827 43.5319 52.0652 45.5794 46.9388 48.1519Z" fill="white"/>
<path d="M46.7992 50.2014C46.7303 50.203 46.6617 50.1898 46.5983 50.1626C46.5349 50.1355 46.4781 50.095 46.4317 50.0439L44.5253 48.1375C44.5079 48.1224 44.4941 48.1035 44.485 48.0823C44.4759 48.061 44.4718 48.0381 44.4728 48.015C44.4728 47.9625 44.4903 47.9275 44.5253 47.8925L50.8067 41.6111C50.8394 41.5793 50.8826 41.5606 50.9281 41.5586L53.0981 41.5936C53.1506 41.5936 53.1856 41.6111 53.2206 41.6461L54.6906 43.1161C54.7256 43.1511 54.7431 43.2036 54.7431 43.2561C54.7431 43.3075 54.7256 43.3436 54.6731 43.3775L54.5506 43.4825C52.6956 45.11 50.1756 46.7375 47.0442 48.295L47.3417 49.5375C47.3663 49.6515 47.3541 49.7704 47.307 49.8771C47.2598 49.9838 47.1801 50.0728 47.0792 50.1314C46.993 50.1771 46.8969 50.2011 46.7992 50.2014ZM44.8742 48.0139L46.6767 49.8C46.7292 49.8875 46.8342 49.9214 46.9217 49.8689C47.0092 49.8175 47.0442 49.7125 46.9917 49.6239L46.6942 48.365C46.6757 48.2929 46.683 48.2167 46.715 48.1495C46.747 48.0823 46.8016 48.0285 46.8692 47.9975C49.9667 46.44 52.4692 44.83 54.3056 43.2386L53.0106 41.9436L50.9981 41.9086L44.8742 48.0139Z" fill="#FF6C37"/>
<path d="M43.1234 49.5195L44.6284 48.0156L46.8673 50.2545L43.2984 50.0095C43.2614 50.0054 43.2257 49.9938 43.1933 49.9756C43.1608 49.9575 43.1324 49.933 43.1095 49.9036C43.0867 49.8743 43.07 49.8407 43.0603 49.8048C43.0507 49.7688 43.0483 49.7314 43.0534 49.6945C43.0534 49.6245 43.0709 49.5545 43.1234 49.5195Z" fill="white"/>
<path d="M46.8691 50.4123L43.2816 50.1673C43.0191 50.1498 42.8441 49.9223 42.8627 49.6598C42.8802 49.5548 42.9152 49.4498 43.0027 49.3798L44.5066 47.8759C44.5224 47.8594 44.5414 47.8462 44.5625 47.8372C44.5835 47.8282 44.6062 47.8236 44.6291 47.8236C44.652 47.8236 44.6746 47.8282 44.6957 47.8372C44.7167 47.8462 44.7358 47.8594 44.7516 47.8759L46.9916 50.1148C47.0441 50.1673 47.0616 50.2373 47.0266 50.3073C46.9916 50.3773 46.9391 50.4123 46.8691 50.4123ZM44.6302 48.2609L43.2477 49.6423C43.1952 49.6773 43.1952 49.7648 43.2477 49.7998C43.2652 49.8173 43.2827 49.8348 43.3177 49.8348L46.4141 50.0448L44.6302 48.2609ZM50.2816 42.5395C50.2352 42.5395 50.1907 42.5211 50.1578 42.4883C50.125 42.4554 50.1066 42.4109 50.1066 42.3645C50.1066 42.312 50.1241 42.277 50.1591 42.242L51.8555 40.5445C51.8713 40.528 51.8903 40.5148 51.9114 40.5058C51.9324 40.4968 51.9551 40.4922 51.978 40.4922C52.0009 40.4922 52.0235 40.4968 52.0446 40.5058C52.0656 40.5148 52.0847 40.528 52.1005 40.5445L53.203 41.647C53.2555 41.6995 53.273 41.752 53.2555 41.822C53.2441 41.8524 53.2253 41.8795 53.2009 41.9009C53.1764 41.9222 53.1471 41.9372 53.1155 41.9445L50.3155 42.5395H50.2816ZM51.978 40.912L50.8241 42.067L52.713 41.6645L51.978 40.912Z" fill="#FF6C37"/>
<path d="M53.0612 41.7686L51.1362 42.1886C51.0809 42.202 51.0228 42.197 50.9707 42.1742C50.9186 42.1515 50.8754 42.1124 50.8476 42.0628C50.8199 42.0132 50.8091 41.9559 50.817 41.8996C50.8248 41.8433 50.8509 41.7912 50.8912 41.7511L51.9587 40.6836L53.0612 41.7686Z" fill="white"/>
<path d="M51.1035 42.3633C51.0459 42.3639 50.9888 42.353 50.9354 42.3312C50.8821 42.3094 50.8336 42.2772 50.7929 42.2365C50.7521 42.1957 50.7199 42.1473 50.6981 42.0939C50.6764 42.0406 50.6655 41.9834 50.666 41.9258C50.6693 41.8098 50.7126 41.6985 50.7885 41.6108L51.856 40.5433C51.8719 40.5268 51.8909 40.5136 51.9119 40.5046C51.933 40.4956 51.9556 40.491 51.9785 40.491C52.0014 40.491 52.0241 40.4956 52.0451 40.5046C52.0662 40.5136 52.0852 40.5268 52.101 40.5433L53.2035 41.6458C53.256 41.6983 53.2735 41.7508 53.256 41.8208C53.2446 41.8512 53.2258 41.8783 53.2014 41.8996C53.177 41.921 53.1477 41.936 53.116 41.9433L51.191 42.3633H51.1035ZM51.9785 40.9108L51.0335 41.8558C50.9985 41.8908 50.9985 41.9258 51.016 41.9608C51.0335 41.9958 51.0685 42.0133 51.121 42.0133L52.731 41.6633L51.9785 40.9108ZM63.7888 31.3755C63.7538 31.2705 63.6314 31.218 63.5264 31.253C63.4214 31.288 63.3689 31.4094 63.4039 31.5155C63.4039 31.5319 63.4214 31.5494 63.4214 31.5669C63.4704 31.6738 63.4897 31.792 63.4774 31.909C63.4651 32.026 63.4216 32.1375 63.3514 32.2319C63.3197 32.2727 63.304 32.3236 63.3072 32.3752C63.3104 32.4267 63.3324 32.4753 63.3688 32.5119C63.3894 32.5283 63.413 32.5405 63.4383 32.5476C63.4636 32.5548 63.4901 32.5568 63.5162 32.5535C63.5423 32.5502 63.5675 32.5418 63.5903 32.5286C63.6131 32.5155 63.633 32.4979 63.6489 32.4769C63.9114 32.1444 63.9638 31.7244 63.7888 31.3755Z" fill="#FF6C37"/>
</g>
<path d="M24.7269 82V71.8182H28.5451C29.3273 71.8182 29.9835 71.964 30.5138 72.2557C31.0475 72.5473 31.4502 72.9484 31.7219 73.4588C31.997 73.9659 32.1346 74.5426 32.1346 75.1889C32.1346 75.8419 31.997 76.4219 31.7219 76.929C31.4469 77.4361 31.0408 77.8355 30.5039 78.1271C29.967 78.4155 29.3058 78.5597 28.5202 78.5597H25.9897V77.0433H28.2717C28.729 77.0433 29.1036 76.9638 29.3952 76.8047C29.6869 76.6456 29.9023 76.4268 30.0415 76.1484C30.1841 75.87 30.2553 75.5502 30.2553 75.1889C30.2553 74.8277 30.1841 74.5095 30.0415 74.2344C29.9023 73.9593 29.6853 73.7455 29.3903 73.593C29.0986 73.4373 28.7224 73.3594 28.2617 73.3594H26.5714V82H24.7269ZM36.8787 82.1491C36.133 82.1491 35.4867 81.9851 34.9398 81.657C34.3929 81.3288 33.9687 80.8698 33.6671 80.2798C33.3688 79.6899 33.2196 79.0005 33.2196 78.2116C33.2196 77.4228 33.3688 76.7318 33.6671 76.1385C33.9687 75.5452 34.3929 75.0845 34.9398 74.7564C35.4867 74.4283 36.133 74.2642 36.8787 74.2642C37.6245 74.2642 38.2708 74.4283 38.8176 74.7564C39.3645 75.0845 39.7871 75.5452 40.0854 76.1385C40.387 76.7318 40.5378 77.4228 40.5378 78.2116C40.5378 79.0005 40.387 79.6899 40.0854 80.2798C39.7871 80.8698 39.3645 81.3288 38.8176 81.657C38.2708 81.9851 37.6245 82.1491 36.8787 82.1491ZM36.8887 80.7074C37.293 80.7074 37.6311 80.5964 37.9029 80.3743C38.1747 80.1489 38.3768 79.8473 38.5094 79.4695C38.6453 79.0916 38.7132 78.6707 38.7132 78.2067C38.7132 77.7393 38.6453 77.3168 38.5094 76.9389C38.3768 76.5578 38.1747 76.2545 37.9029 76.0291C37.6311 75.8037 37.293 75.6911 36.8887 75.6911C36.4744 75.6911 36.1297 75.8037 35.8546 76.0291C35.5828 76.2545 35.379 76.5578 35.2431 76.9389C35.1105 77.3168 35.0442 77.7393 35.0442 78.2067C35.0442 78.6707 35.1105 79.0916 35.2431 79.4695C35.379 79.8473 35.5828 80.1489 35.8546 80.3743C36.1297 80.5964 36.4744 80.7074 36.8887 80.7074ZM48.1009 76.3821L46.4602 76.5611C46.4138 76.3954 46.3326 76.2396 46.2166 76.0938C46.1039 75.9479 45.9515 75.8303 45.7592 75.7408C45.567 75.6513 45.3317 75.6065 45.0533 75.6065C44.6787 75.6065 44.3639 75.6877 44.1087 75.8501C43.8568 76.0125 43.7325 76.223 43.7358 76.4815C43.7325 76.7036 43.8137 76.8842 43.9794 77.0234C44.1484 77.1626 44.4268 77.277 44.8146 77.3665L46.1172 77.6449C46.8397 77.8007 47.3767 78.0476 47.728 78.3857C48.0826 78.7237 48.2616 79.1662 48.2649 79.7131C48.2616 80.1937 48.1207 80.6179 47.8423 80.9858C47.5672 81.3504 47.1844 81.6354 46.6939 81.8409C46.2034 82.0464 45.6399 82.1491 45.0036 82.1491C44.0689 82.1491 43.3165 81.9536 42.7464 81.5625C42.1764 81.1681 41.8366 80.6196 41.7273 79.9169L43.4822 79.7479C43.5618 80.0926 43.7308 80.3527 43.9893 80.5284C44.2479 80.7041 44.5843 80.7919 44.9986 80.7919C45.4261 80.7919 45.7692 80.7041 46.0277 80.5284C46.2895 80.3527 46.4205 80.1357 46.4205 79.8771C46.4205 79.6584 46.3359 79.4777 46.1669 79.3352C46.0012 79.1927 45.7427 79.0833 45.3913 79.0071L44.0888 78.7337C43.3563 78.5812 42.8144 78.3243 42.4631 77.9631C42.1117 77.5985 41.9377 77.1378 41.9411 76.581C41.9377 76.1103 42.0653 75.7027 42.3239 75.358C42.5857 75.0099 42.9486 74.7415 43.4126 74.5526C43.88 74.3603 44.4186 74.2642 45.0284 74.2642C45.9233 74.2642 46.6276 74.4548 47.1413 74.8359C47.6584 75.2171 47.9782 75.7325 48.1009 76.3821ZM53.5621 74.3636V75.7557H49.1722V74.3636H53.5621ZM50.256 72.5341H52.0558V79.7031C52.0558 79.9451 52.0922 80.1307 52.1651 80.2599C52.2414 80.3859 52.3408 80.4721 52.4634 80.5185C52.5861 80.5649 52.7219 80.5881 52.8711 80.5881C52.9838 80.5881 53.0865 80.5798 53.1793 80.5632C53.2754 80.5466 53.3484 80.5317 53.3981 80.5185L53.7013 81.9254C53.6052 81.9586 53.4677 81.995 53.2887 82.0348C53.113 82.0746 52.8976 82.0978 52.6424 82.1044C52.1916 82.1177 51.7856 82.0497 51.4244 81.9006C51.0631 81.7481 50.7764 81.5128 50.5643 81.1946C50.3555 80.8764 50.2527 80.4787 50.256 80.0014V72.5341ZM55.0673 82V74.3636H56.7875V75.6612H56.877C57.036 75.2237 57.2995 74.8823 57.6674 74.6371C58.0353 74.3885 58.4745 74.2642 58.9849 74.2642C59.502 74.2642 59.9378 74.3902 60.2924 74.642C60.6504 74.8906 60.9023 75.2304 61.0481 75.6612H61.1277C61.2967 75.237 61.5817 74.8989 61.9828 74.647C62.3871 74.3918 62.8661 74.2642 63.4196 74.2642C64.1222 74.2642 64.6956 74.4863 65.1397 74.9304C65.5839 75.3745 65.8059 76.0225 65.8059 76.8743V82H64.0012V77.1527C64.0012 76.6787 63.8753 76.3324 63.6234 76.1136C63.3715 75.8916 63.0633 75.7805 62.6987 75.7805C62.2645 75.7805 61.9248 75.9164 61.6795 76.1882C61.4376 76.4567 61.3166 76.8063 61.3166 77.2372V82H59.5517V77.0781C59.5517 76.6837 59.4324 76.3688 59.1937 76.1335C58.9584 75.8982 58.6502 75.7805 58.269 75.7805C58.0105 75.7805 57.7752 75.8468 57.563 75.9794C57.3509 76.1087 57.1819 76.2926 57.0559 76.5312C56.93 76.7666 56.867 77.0417 56.867 77.3565V82H55.0673ZM69.8292 82.1541C69.3453 82.1541 68.9094 82.0679 68.5217 81.8956C68.1372 81.7199 67.8323 81.4614 67.6069 81.12C67.3848 80.7786 67.2738 80.3577 67.2738 79.8572C67.2738 79.4264 67.3533 79.0701 67.5124 78.7884C67.6715 78.5066 67.8886 78.2812 68.1637 78.1122C68.4388 77.9432 68.7487 77.8156 69.0934 77.7294C69.4414 77.6399 69.801 77.5753 70.1722 77.5355C70.6197 77.4891 70.9826 77.4477 71.261 77.4112C71.5394 77.3714 71.7416 77.3118 71.8675 77.2322C71.9968 77.1494 72.0614 77.0218 72.0614 76.8494V76.8196C72.0614 76.4451 71.9504 76.1551 71.7283 75.9496C71.5063 75.7441 71.1864 75.6413 70.7688 75.6413C70.328 75.6413 69.9783 75.7375 69.7198 75.9297C69.4646 76.1219 69.2923 76.349 69.2028 76.6108L67.5224 76.3722C67.6549 75.9081 67.8737 75.5204 68.1786 75.2088C68.4835 74.8939 68.8564 74.6586 69.2972 74.5028C69.738 74.3438 70.2253 74.2642 70.7589 74.2642C71.1268 74.2642 71.493 74.3073 71.8576 74.3935C72.2222 74.4796 72.5553 74.6222 72.8569 74.821C73.1585 75.0166 73.4005 75.2834 73.5827 75.6214C73.7683 75.9595 73.8612 76.3821 73.8612 76.8892V82H72.131V80.951H72.0714C71.962 81.1631 71.8079 81.362 71.609 81.5476C71.4135 81.7299 71.1665 81.8774 70.8683 81.9901C70.5733 82.0994 70.2269 82.1541 69.8292 82.1541ZM70.2965 80.8317C70.6578 80.8317 70.971 80.7604 71.2362 80.6179C71.5013 80.4721 71.7051 80.2798 71.8477 80.0412C71.9935 79.8026 72.0664 79.5424 72.0664 79.2607V78.3608C72.0101 78.4072 71.9139 78.4503 71.7781 78.4901C71.6455 78.5298 71.4963 78.5646 71.3306 78.5945C71.1649 78.6243 71.0008 78.6508 70.8384 78.674C70.676 78.6972 70.5352 78.7171 70.4158 78.7337C70.1474 78.7701 69.9071 78.8298 69.695 78.9126C69.4828 78.9955 69.3155 79.1115 69.1928 79.2607C69.0702 79.4065 69.0089 79.5954 69.0089 79.8274C69.0089 80.1589 69.1299 80.4091 69.3718 80.5781C69.6138 80.7472 69.922 80.8317 70.2965 80.8317ZM77.4705 77.5256V82H75.6708V74.3636H77.391V75.6612H77.4805C77.6561 75.2337 77.9362 74.8939 78.3207 74.642C78.7085 74.3902 79.1874 74.2642 79.7575 74.2642C80.2844 74.2642 80.7435 74.3769 81.1346 74.6023C81.529 74.8277 81.8339 75.1541 82.0494 75.5817C82.2681 76.0092 82.3758 76.5279 82.3725 77.1378V82H80.5728V77.4162C80.5728 76.9058 80.4402 76.5064 80.1751 76.218C79.9132 75.9297 79.5503 75.7855 79.0863 75.7855C78.7714 75.7855 78.4914 75.8551 78.2461 75.9943C78.0041 76.1302 77.8136 76.3274 77.6744 76.5859C77.5385 76.8445 77.4705 77.1577 77.4705 77.5256Z" fill="white"/>
</g>
<defs>
<filter id="filter0_d_5845_13868" x="0" y="0" width="107" height="109" filterUnits="userSpaceOnUse" color-interpolation-filters="sRGB">
<feFlood flood-opacity="0" result="BackgroundImageFix"/>
<feColorMatrix in="SourceAlpha" type="matrix" values="0 0 0 0 0 0 0 0 0 0 0 0 0 0 0 0 0 0 127 0" result="hardAlpha"/>
<feOffset dy="2"/>
<feGaussianBlur stdDeviation="4"/>
<feColorMatrix type="matrix" values="0 0 0 0 0 0 0 0 0 0 0 0 0 0 0 0 0 0 0.25 0"/>
<feBlend mode="normal" in2="BackgroundImageFix" result="effect1_dropShadow_5845_13868"/>
<feBlend mode="normal" in="SourceGraphic" in2="effect1_dropShadow_5845_13868" result="shape"/>
</filter>
</defs>
</svg>
