<svg width="107" height="109" viewBox="0 0 107 109" fill="none" xmlns="http://www.w3.org/2000/svg">
<g filter="url(#filter0_d_5829_16703)">
<rect x="8" y="6" width="91" height="93" rx="12" fill="#151B23"/>
<rect x="9" y="7" width="89" height="91" rx="11" stroke="#1F2937" stroke-width="2"/>
<g clip-path="url(#clip0_5829_16703)">
<path fill-rule="evenodd" clip-rule="evenodd" d="M56.9011 25.3068C61.2792 25.3053 65.6576 25.292 70.0358 25.3105C72.6386 25.3211 73.3724 26.1908 72.8113 28.7613C71.1682 36.2893 69.4882 43.8097 67.7855 51.3245C67.2471 53.6998 66.01 54.6728 63.5112 54.6802C54.7547 54.7063 45.9982 54.7091 37.2418 54.6791C34.3797 54.669 33.6268 53.6996 34.2435 50.9872C35.9159 43.6206 37.5995 36.2566 39.2944 28.8952C39.9403 26.09 40.9111 25.3198 43.766 25.3116C48.1444 25.2992 52.5227 25.3084 56.9011 25.3068Z" fill="#E0EAF5"/>
<path fill-rule="evenodd" clip-rule="evenodd" d="M50.2838 53.8042C45.9051 53.8026 41.5261 53.8228 37.1476 53.7941C34.9272 53.7796 34.5234 53.2556 35.0233 51.084C36.7178 43.7188 38.4669 36.3661 40.1237 28.9926C40.5679 27.015 41.5263 26.1409 43.6451 26.1605C52.4018 26.2417 61.1601 26.1865 69.9173 26.1955C72.1136 26.1976 72.4823 26.6673 71.9893 28.8948C70.3886 36.1261 68.7779 43.3554 67.1387 50.5782C66.5253 53.2813 65.8187 53.7971 62.9748 53.8034C58.7445 53.8123 54.5139 53.8057 50.2838 53.8042Z" fill="#2671BE"/>
<path fill-rule="evenodd" clip-rule="evenodd" d="M54.0097 39.3716C53.7161 39.0273 53.3938 38.6307 53.0525 38.2517C51.1169 36.1018 49.1985 33.9358 47.2285 31.818C46.327 30.8487 46.0397 29.9075 47.1223 28.9509C48.1922 28.0052 49.2434 28.089 50.2247 29.1769C52.9579 32.2057 55.6878 35.238 58.4662 38.2251C59.5036 39.3408 59.2619 40.0994 58.1194 40.9261C53.734 44.1003 49.3733 47.3089 45.0174 50.5236C44.0383 51.2464 43.1049 51.4273 42.3139 50.3598C41.4414 49.1822 42.2487 48.4817 43.1538 47.8226C46.3907 45.4648 49.6214 43.0983 52.8382 40.7132C53.2863 40.381 53.9296 40.1873 54.0097 39.3716Z" fill="#FDFDFE"/>
<path fill-rule="evenodd" clip-rule="evenodd" d="M55.3963 50.7619C54.2174 50.7619 53.0368 50.8024 51.8606 50.7489C50.9222 50.7065 50.3575 50.1821 50.3693 49.1937C50.3807 48.2591 50.8518 47.5565 51.7893 47.5312C54.3658 47.4621 56.9462 47.477 59.5237 47.5274C60.3428 47.5434 60.9474 48.077 60.9425 48.9306C60.9366 49.9097 60.4214 50.6683 59.3728 50.7314C58.0516 50.8113 56.7222 50.7512 55.3965 50.7512L55.3963 50.7619Z" fill="#FCFDFD"/>
</g>
<path d="M17.0043 82V71.8182H20.8224C21.6046 71.8182 22.2609 71.964 22.7912 72.2557C23.3248 72.5473 23.7275 72.9484 23.9993 73.4588C24.2744 73.9659 24.4119 74.5426 24.4119 75.1889C24.4119 75.8419 24.2744 76.4219 23.9993 76.929C23.7242 77.4361 23.3182 77.8355 22.7812 78.1271C22.2443 78.4155 21.5831 78.5597 20.7976 78.5597H18.267V77.0433H20.549C21.0064 77.0433 21.3809 76.9638 21.6726 76.8047C21.9643 76.6456 22.1797 76.4268 22.3189 76.1484C22.4614 75.87 22.5327 75.5502 22.5327 75.1889C22.5327 74.8277 22.4614 74.5095 22.3189 74.2344C22.1797 73.9593 21.9626 73.7455 21.6676 73.593C21.3759 73.4373 20.9998 73.3594 20.5391 73.3594H18.8487V82H17.0043ZM29.1561 82.1491C28.4103 82.1491 27.764 81.9851 27.2172 81.657C26.6703 81.3288 26.246 80.8698 25.9444 80.2798C25.6461 79.6899 25.497 79.0005 25.497 78.2116C25.497 77.4228 25.6461 76.7318 25.9444 76.1385C26.246 75.5452 26.6703 75.0845 27.2172 74.7564C27.764 74.4283 28.4103 74.2642 29.1561 74.2642C29.9018 74.2642 30.5481 74.4283 31.095 74.7564C31.6419 75.0845 32.0645 75.5452 32.3627 76.1385C32.6644 76.7318 32.8152 77.4228 32.8152 78.2116C32.8152 79.0005 32.6644 79.6899 32.3627 80.2798C32.0645 80.8698 31.6419 81.3288 31.095 81.657C30.5481 81.9851 29.9018 82.1491 29.1561 82.1491ZM29.166 80.7074C29.5704 80.7074 29.9084 80.5964 30.1802 80.3743C30.452 80.1489 30.6542 79.8473 30.7868 79.4695C30.9226 79.0916 30.9906 78.6707 30.9906 78.2067C30.9906 77.7393 30.9226 77.3168 30.7868 76.9389C30.6542 76.5578 30.452 76.2545 30.1802 76.0291C29.9084 75.8037 29.5704 75.6911 29.166 75.6911C28.7517 75.6911 28.407 75.8037 28.1319 76.0291C27.8601 76.2545 27.6563 76.5578 27.5204 76.9389C27.3878 77.3168 27.3216 77.7393 27.3216 78.2067C27.3216 78.6707 27.3878 79.0916 27.5204 79.4695C27.6563 79.8473 27.8601 80.1489 28.1319 80.3743C28.407 80.5964 28.7517 80.7074 29.166 80.7074ZM35.6999 82L33.5423 74.3636H35.3768L36.7191 79.733H36.7887L38.1609 74.3636H39.9755L41.3477 79.7031H41.4222L42.7447 74.3636H44.5842L42.4215 82H40.5472L39.1154 76.8395H39.011L37.5792 82H35.6999ZM49.0027 82.1491C48.237 82.1491 47.5758 81.9901 47.019 81.6719C46.4655 81.3504 46.0396 80.8963 45.7413 80.3097C45.443 79.7197 45.2939 79.0253 45.2939 78.2266C45.2939 77.4411 45.443 76.7517 45.7413 76.1584C46.0429 75.5618 46.4638 75.0978 47.0041 74.7663C47.5443 74.4316 48.179 74.2642 48.9082 74.2642C49.3788 74.2642 49.823 74.3404 50.2406 74.4929C50.6615 74.642 51.0327 74.8741 51.3542 75.1889C51.679 75.5038 51.9342 75.9048 52.1199 76.392C52.3055 76.8759 52.3983 77.4527 52.3983 78.1222V78.674H46.139V77.4609H50.6731C50.6698 77.1162 50.5952 76.8097 50.4494 76.5412C50.3036 76.2694 50.0997 76.0556 49.8379 75.8999C49.5794 75.7441 49.2778 75.6662 48.9331 75.6662C48.5652 75.6662 48.242 75.7557 47.9636 75.9347C47.6852 76.1103 47.4681 76.3423 47.3123 76.6307C47.1599 76.9157 47.082 77.2289 47.0787 77.5703V78.6293C47.0787 79.0734 47.1599 79.4545 47.3223 79.7727C47.4847 80.0876 47.7117 80.3295 48.0034 80.4986C48.295 80.6643 48.6364 80.7472 49.0275 80.7472C49.2894 80.7472 49.5263 80.7107 49.7385 80.6378C49.9506 80.5616 50.1345 80.4505 50.2903 80.3047C50.4461 80.1589 50.5637 79.9782 50.6433 79.7628L52.3237 79.9517C52.2176 80.3958 52.0154 80.7836 51.7172 81.1151C51.4222 81.4432 51.0443 81.6984 50.5836 81.8807C50.1229 82.0597 49.5959 82.1491 49.0027 82.1491ZM53.9208 82V74.3636H55.6658V75.6364H55.7454C55.8846 75.1955 56.1232 74.8558 56.4613 74.6172C56.8027 74.3752 57.1921 74.2543 57.6296 74.2543C57.729 74.2543 57.8401 74.2592 57.9627 74.2692C58.0887 74.2758 58.1931 74.2874 58.2759 74.304V75.9595C58.1997 75.933 58.0787 75.9098 57.913 75.8899C57.7506 75.8667 57.5932 75.8551 57.4407 75.8551C57.1126 75.8551 56.8176 75.9264 56.5558 76.0689C56.2972 76.2081 56.0934 76.402 55.9442 76.6506C55.7951 76.8991 55.7205 77.1858 55.7205 77.5107V82H53.9208ZM65.5071 76.3821L63.8665 76.5611C63.8201 76.3954 63.7389 76.2396 63.6229 76.0938C63.5102 75.9479 63.3577 75.8303 63.1655 75.7408C62.9732 75.6513 62.7379 75.6065 62.4595 75.6065C62.085 75.6065 61.7701 75.6877 61.5149 75.8501C61.263 76.0125 61.1387 76.223 61.142 76.4815C61.1387 76.7036 61.2199 76.8842 61.3857 77.0234C61.5547 77.1626 61.8331 77.277 62.2209 77.3665L63.5234 77.6449C64.246 77.8007 64.7829 78.0476 65.1342 78.3857C65.4889 78.7237 65.6679 79.1662 65.6712 79.7131C65.6679 80.1937 65.527 80.6179 65.2486 80.9858C64.9735 81.3504 64.5907 81.6354 64.1001 81.8409C63.6096 82.0464 63.0462 82.1491 62.4098 82.1491C61.4751 82.1491 60.7228 81.9536 60.1527 81.5625C59.5826 81.1681 59.2429 80.6196 59.1335 79.9169L60.8885 79.7479C60.968 80.0926 61.1371 80.3527 61.3956 80.5284C61.6541 80.7041 61.9905 80.7919 62.4048 80.7919C62.8324 80.7919 63.1754 80.7041 63.4339 80.5284C63.6958 80.3527 63.8267 80.1357 63.8267 79.8771C63.8267 79.6584 63.7422 79.4777 63.5732 79.3352C63.4074 79.1927 63.1489 79.0833 62.7976 79.0071L61.495 78.7337C60.7625 78.5812 60.2206 78.3243 59.8693 77.9631C59.518 77.5985 59.344 77.1378 59.3473 76.581C59.344 76.1103 59.4716 75.7027 59.7301 75.358C59.992 75.0099 60.3549 74.7415 60.8189 74.5526C61.2862 74.3603 61.8248 74.2642 62.4347 74.2642C63.3295 74.2642 64.0339 74.4548 64.5476 74.8359C65.0646 75.2171 65.3845 75.7325 65.5071 76.3821ZM68.9549 77.5256V82H67.1552V71.8182H68.9151V75.6612H69.0046C69.1836 75.2304 69.4603 74.8906 69.8349 74.642C70.2127 74.3902 70.6933 74.2642 71.2766 74.2642C71.8069 74.2642 72.2693 74.3752 72.6637 74.5973C73.0581 74.8194 73.363 75.1442 73.5785 75.5717C73.7972 75.9993 73.9066 76.5213 73.9066 77.1378V82H72.1069V77.4162C72.1069 76.9025 71.9743 76.5031 71.7092 76.218C71.4473 75.9297 71.0794 75.7855 70.6055 75.7855C70.2873 75.7855 70.0022 75.8551 69.7504 75.9943C69.5018 76.1302 69.3062 76.3274 69.1637 76.5859C69.0245 76.8445 68.9549 77.1577 68.9549 77.5256ZM79.1218 82.1491C78.3562 82.1491 77.695 81.9901 77.1381 81.6719C76.5846 81.3504 76.1587 80.8963 75.8604 80.3097C75.5621 79.7197 75.413 79.0253 75.413 78.2266C75.413 77.4411 75.5621 76.7517 75.8604 76.1584C76.1621 75.5618 76.583 75.0978 77.1232 74.7663C77.6635 74.4316 78.2982 74.2642 79.0273 74.2642C79.498 74.2642 79.9421 74.3404 80.3597 74.4929C80.7807 74.642 81.1519 74.8741 81.4734 75.1889C81.7982 75.5038 82.0534 75.9048 82.239 76.392C82.4246 76.8759 82.5174 77.4527 82.5174 78.1222V78.674H76.2582V77.4609H80.7923C80.7889 77.1162 80.7144 76.8097 80.5685 76.5412C80.4227 76.2694 80.2189 76.0556 79.957 75.8999C79.6985 75.7441 79.3969 75.6662 79.0522 75.6662C78.6843 75.6662 78.3612 75.7557 78.0827 75.9347C77.8043 76.1103 77.5872 76.3423 77.4315 76.6307C77.279 76.9157 77.2011 77.2289 77.1978 77.5703V78.6293C77.1978 79.0734 77.279 79.4545 77.4414 79.7727C77.6038 80.0876 77.8308 80.3295 78.1225 80.4986C78.4142 80.6643 78.7556 80.7472 79.1467 80.7472C79.4085 80.7472 79.6455 80.7107 79.8576 80.6378C80.0697 80.5616 80.2537 80.4505 80.4094 80.3047C80.5652 80.1589 80.6829 79.9782 80.7624 79.7628L82.4428 79.9517C82.3368 80.3958 82.1346 80.7836 81.8363 81.1151C81.5413 81.4432 81.1635 81.6984 80.7028 81.8807C80.2421 82.0597 79.7151 82.1491 79.1218 82.1491ZM85.8397 71.8182V82H84.04V71.8182H85.8397ZM89.4901 71.8182V82H87.6903V71.8182H89.4901Z" fill="white"/>
</g>
<defs>
<filter id="filter0_d_5829_16703" x="0" y="0" width="107" height="109" filterUnits="userSpaceOnUse" color-interpolation-filters="sRGB">
<feFlood flood-opacity="0" result="BackgroundImageFix"/>
<feColorMatrix in="SourceAlpha" type="matrix" values="0 0 0 0 0 0 0 0 0 0 0 0 0 0 0 0 0 0 127 0" result="hardAlpha"/>
<feOffset dy="2"/>
<feGaussianBlur stdDeviation="4"/>
<feColorMatrix type="matrix" values="0 0 0 0 0 0 0 0 0 0 0 0 0 0 0 0 0 0 0.25 0"/>
<feBlend mode="normal" in2="BackgroundImageFix" result="effect1_dropShadow_5829_16703"/>
<feBlend mode="normal" in="SourceGraphic" in2="effect1_dropShadow_5829_16703" result="shape"/>
</filter>
<clipPath id="clip0_5829_16703">
<rect width="40" height="40" fill="white" transform="translate(33.5 20)"/>
</clipPath>
</defs>
</svg>
