<svg width="107" height="109" viewBox="0 0 107 109" fill="none" xmlns="http://www.w3.org/2000/svg">
<g filter="url(#filter0_d_5829_13443)">
<rect x="8" y="6" width="91" height="93" rx="12" fill="#151B23"/>
<rect x="9" y="7" width="89" height="91" rx="11" stroke="#1F2937" stroke-width="2"/>
<path d="M61.8307 29.166H63.4975C63.7184 29.166 63.9302 29.2537 64.0863 29.4099C64.2425 29.5661 64.3302 29.7779 64.3302 29.9987C64.3302 30.2195 64.2425 30.4313 64.0863 30.5875C63.9302 30.7436 63.7184 30.8314 63.4975 30.8314H61.8307C61.6099 30.8314 61.3981 30.7436 61.2419 30.5875C61.0858 30.4313 60.998 30.2195 60.998 29.9987C60.998 29.7779 61.0858 29.5661 61.2419 29.4099C61.3981 29.2537 61.6099 29.166 61.8307 29.166Z" fill="#56B3B4"/>
<path d="M36.8327 55.834H45.1652C45.3861 55.834 45.5979 55.9217 45.754 56.0779C45.9102 56.234 45.9979 56.4458 45.9979 56.6667C45.9979 56.8875 45.9102 57.0993 45.754 57.2554C45.5979 57.4116 45.3861 57.4993 45.1652 57.4993H36.8327C36.6118 57.4993 36.4 57.4116 36.2439 57.2554C36.0877 57.0993 36 56.8875 36 56.6667C36 56.4458 36.0877 56.234 36.2439 56.0779C36.4 55.9217 36.6118 55.834 36.8327 55.834Z" fill="#EA5E5E"/>
<path d="M56.8327 42.502H61.8345C62.0554 42.502 62.2672 42.5897 62.4233 42.7458C62.5795 42.902 62.6672 43.1138 62.6672 43.3346C62.6672 43.5555 62.5795 43.7673 62.4233 43.9234C62.2672 44.0796 62.0554 44.1673 61.8345 44.1673H56.8327C56.6118 44.1673 56.4 44.0796 56.2439 43.9234C56.0877 43.7673 56 43.5555 56 43.3346C56 43.1138 56.0877 42.902 56.2439 42.7458C56.4 42.5897 56.6118 42.502 56.8327 42.502Z" fill="#BF85BF"/>
<path d="M46.8327 42.502H53.497C53.7178 42.502 53.9296 42.5897 54.0858 42.7458C54.2419 42.902 54.3296 43.1138 54.3296 43.3346C54.3296 43.5555 54.2419 43.7673 54.0858 43.9234C53.9296 44.0796 53.7178 44.1673 53.497 44.1673H46.8327C46.6118 44.1673 46.4 44.0796 46.2439 43.9234C46.0877 43.7673 46 43.5555 46 43.3346C46 43.1138 46.0877 42.902 46.2439 42.7458C46.4 42.5897 46.6118 42.502 46.8327 42.502Z" fill="#EA5E5E"/>
<path d="M36.8327 42.502H43.4999C43.7207 42.502 43.9325 42.5897 44.0887 42.7458C44.2448 42.902 44.3326 43.1138 44.3326 43.3346C44.3326 43.5555 44.2448 43.7673 44.0887 43.9234C43.9325 44.0796 43.7207 44.1673 43.4999 44.1673H36.8327C36.6118 44.1673 36.4 44.0796 36.2439 43.9234C36.0877 43.7673 36 43.5555 36 43.3346C36 43.1138 36.0877 42.902 36.2439 42.7458C36.4 42.5897 36.6118 42.502 36.8327 42.502Z" fill="#56B3B4"/>
<path d="M36.8327 49.167H45.1652C45.3861 49.167 45.5979 49.2547 45.754 49.4109C45.9102 49.567 45.9979 49.7788 45.9979 49.9996C45.9979 50.2205 45.9102 50.4323 45.754 50.5884C45.5979 50.7446 45.3861 50.8323 45.1652 50.8323H36.8327C36.6118 50.8323 36.4 50.7446 36.2439 50.5884C36.0877 50.4323 36 50.2205 36 49.9996C36 49.7788 36.0877 49.567 36.2439 49.4109C36.4 49.2547 36.6118 49.167 36.8327 49.167ZM36.8327 35.834H45.1652C45.3861 35.834 45.5979 35.9217 45.754 36.0779C45.9102 36.234 45.9979 36.4458 45.9979 36.6667C45.9979 36.8875 45.9102 37.0993 45.754 37.2554C45.5979 37.4116 45.3861 37.4993 45.1652 37.4993H36.8327C36.6118 37.4993 36.4 37.4116 36.2439 37.2554C36.0877 37.0993 36 36.8875 36 36.6667C36 36.4458 36.0877 36.234 36.2439 36.0779C36.4 35.9217 36.6118 35.834 36.8327 35.834Z" fill="#BF85BF"/>
<path d="M45.1667 25.834H61.8318C62.0526 25.834 62.2644 25.9217 62.4206 26.0779C62.5767 26.234 62.6645 26.4458 62.6645 26.6667C62.6645 26.8875 62.5767 27.0993 62.4206 27.2554C62.2644 27.4116 62.0526 27.4993 61.8318 27.4993H45.1667C44.9458 27.4993 44.734 27.4116 44.5779 27.2554C44.4217 27.0993 44.334 26.8875 44.334 26.6667C44.334 26.4458 44.4217 26.234 44.5779 26.0779C44.734 25.9217 44.9458 25.834 45.1667 25.834Z" fill="#F7BA3E"/>
<path d="M36.8327 25.834H41.8331C42.0541 25.834 42.2661 25.9218 42.4224 26.0781C42.5787 26.2344 42.6665 26.4464 42.6665 26.6674C42.6665 26.8884 42.5787 27.1004 42.4224 27.2567C42.2661 27.413 42.0541 27.5008 41.8331 27.5008H36.8327C36.7232 27.501 36.6147 27.4795 36.5135 27.4377C36.4123 27.3958 36.3203 27.3343 36.2429 27.2568C36.1656 27.1793 36.1043 27.0873 36.0626 26.986C36.0209 26.8847 35.9996 26.7762 36 26.6667C35.9998 26.5573 36.0212 26.4489 36.063 26.3478C36.1048 26.2467 36.1661 26.1548 36.2435 26.0774C36.3208 26.0001 36.4127 25.9388 36.5138 25.897C36.6149 25.8552 36.7233 25.8338 36.8327 25.834Z" fill="#EA5E5E"/>
<path d="M43.5006 52.5H45.1674C45.3883 52.5 45.6001 52.5877 45.7562 52.7439C45.9124 52.9 46.0001 53.1118 46.0001 53.3327C46.0001 53.5535 45.9124 53.7653 45.7562 53.9215C45.6001 54.0776 45.3883 54.1653 45.1674 54.1653H43.5006C43.2798 54.1653 43.068 54.0776 42.9119 53.9215C42.7557 53.7653 42.668 53.5535 42.668 53.3327C42.668 53.1118 42.7557 52.9 42.9119 52.7439C43.068 52.5877 43.2798 52.5 43.5006 52.5Z" fill="#F7BA3E"/>
<path d="M43.4999 32.502H45.1667C45.3875 32.502 45.5993 32.5897 45.7555 32.7458C45.9116 32.902 45.9994 33.1138 45.9994 33.3346C45.9994 33.5555 45.9116 33.7673 45.7555 33.9234C45.5993 34.0796 45.3875 34.1673 45.1667 34.1673H43.4999C43.2791 34.1673 43.0673 34.0796 42.9111 33.9234C42.755 33.7673 42.6672 33.5555 42.6672 33.3346C42.6672 33.1138 42.755 32.902 42.9111 32.7458C43.0673 32.5897 43.2791 32.502 43.4999 32.502ZM36.8327 52.5007H40.1663C40.3871 52.5007 40.5989 52.5884 40.7551 52.7446C40.9112 52.9007 40.999 53.1125 40.999 53.3334C40.999 53.5542 40.9112 53.766 40.7551 53.9222C40.5989 54.0783 40.3871 54.1661 40.1663 54.1661H36.8327C36.6118 54.1661 36.4 54.0783 36.2439 53.9222C36.0877 53.766 36 53.5542 36 53.3334C36 53.1125 36.0877 52.9007 36.2439 52.7446C36.4 52.5884 36.6118 52.5007 36.8327 52.5007Z" fill="#56B3B4"/>
<path d="M36.8334 32.502H40.167C40.388 32.502 40.6 32.5898 40.7563 32.7461C40.9126 32.9023 41.0004 33.1143 41.0004 33.3354C41.0004 33.5564 40.9126 33.7684 40.7563 33.9247C40.6 34.081 40.388 34.1688 40.167 34.1688H36.8334C36.6124 34.1688 36.4004 34.081 36.2441 33.9247C36.0878 33.7684 36 33.5564 36 33.3354C36 33.1143 36.0878 32.9023 36.2441 32.7461C36.4004 32.5898 36.6124 32.502 36.8334 32.502Z" fill="#F7BA3E"/>
<path opacity="0.5" d="M58.4995 52.5H60.1663C60.3872 52.5 60.599 52.5877 60.7551 52.7439C60.9113 52.9 60.999 53.1118 60.999 53.3327C60.999 53.5535 60.9113 53.7653 60.7551 53.9215C60.599 54.0776 60.3872 54.1653 60.1663 54.1653H58.4995C58.2787 54.1653 58.0669 54.0776 57.9107 53.9215C57.7546 53.7653 57.6669 53.5535 57.6669 53.3327C57.6669 53.1118 57.7546 52.9 57.9107 52.7439C58.0669 52.5877 58.2787 52.5 58.4995 52.5ZM48.4987 52.5H55.1645C55.3853 52.5 55.5971 52.5877 55.7532 52.7439C55.9094 52.9 55.9971 53.1118 55.9971 53.3327C55.9971 53.5535 55.9094 53.7653 55.7532 53.9215C55.5971 54.0776 55.3853 54.1653 55.1645 54.1653H48.4987C48.2778 54.1653 48.0661 54.0776 47.9099 53.9215C47.7537 53.7653 47.666 53.5535 47.666 53.3327C47.666 53.1118 47.7537 52.9 47.9099 52.7439C48.0661 52.5877 48.2778 52.5 48.4987 52.5ZM63.4985 52.5H70.1628C70.3836 52.5 70.5954 52.5877 70.7516 52.7439C70.9077 52.9 70.9955 53.1118 70.9955 53.3327C70.9955 53.5535 70.9077 53.7653 70.7516 53.9215C70.5954 54.0776 70.3836 54.1653 70.1628 54.1653H63.4985C63.2776 54.1653 63.0659 54.0776 62.9097 53.9215C62.7535 53.7653 62.6658 53.5535 62.6658 53.3327C62.6658 53.1118 62.7535 52.9 62.9097 52.7439C63.0659 52.5877 63.2776 52.5 63.4985 52.5Z" fill="#4D616E"/>
<path d="M50.1647 39.1699H63.4977C63.7185 39.1699 63.9303 39.2576 64.0865 39.4138C64.2426 39.57 64.3304 39.7818 64.3304 40.0026C64.3304 40.2234 64.2426 40.4352 64.0865 40.5914C63.9303 40.7475 63.7185 40.8353 63.4977 40.8353H50.1647C49.9439 40.8353 49.7321 40.7475 49.5759 40.5914C49.4198 40.4352 49.332 40.2234 49.332 40.0026C49.332 39.7818 49.4198 39.57 49.5759 39.4138C49.7321 39.2576 49.9439 39.1699 50.1647 39.1699Z" fill="#56B3B4"/>
<path d="M41.8346 39.1699H46.835C47.0559 39.1699 47.2677 39.2576 47.4238 39.4138C47.58 39.57 47.6677 39.7818 47.6677 40.0026C47.6677 40.2234 47.58 40.4352 47.4238 40.5914C47.2677 40.7475 47.0559 40.8353 46.835 40.8353H41.8346C41.6138 40.8353 41.402 40.7475 41.2458 40.5914C41.0897 40.4352 41.002 40.2234 41.002 40.0026C41.002 39.7818 41.0897 39.57 41.2458 39.4138C41.402 39.2576 41.6138 39.1699 41.8346 39.1699Z" fill="#F7BA3E"/>
<path d="M36.8327 39.1699H38.4995C38.6088 39.1698 38.7171 39.1913 38.8182 39.233C38.9192 39.2748 39.0111 39.336 39.0885 39.4133C39.1659 39.4905 39.2273 39.5823 39.2692 39.6833C39.3112 39.7843 39.3328 39.8925 39.3329 40.0019C39.333 40.1112 39.3115 40.2195 39.2698 40.3206C39.228 40.4216 39.1668 40.5135 39.0895 40.5909C39.0123 40.6683 38.9205 40.7297 38.8195 40.7716C38.7185 40.8135 38.6103 40.8352 38.5009 40.8353H36.8327C36.6118 40.8353 36.4 40.7475 36.2439 40.5914C36.0877 40.4352 36 40.2234 36 40.0026C36 39.7818 36.0877 39.57 36.2439 39.4138C36.4 39.2577 36.6118 39.1699 36.8327 39.1699Z" fill="#EA5E5E"/>
<path d="M51.8314 29.166H58.4958C58.6052 29.1658 58.7136 29.1872 58.8148 29.2289C58.916 29.2706 59.008 29.3318 59.0855 29.4091C59.163 29.4863 59.2246 29.5781 59.2666 29.6791C59.3087 29.7802 59.3304 29.8885 59.3306 29.998C59.3308 30.1074 59.3094 30.2158 59.2677 30.317C59.226 30.4182 59.1648 30.5102 59.0875 30.5877C59.0103 30.6652 58.9185 30.7268 58.8175 30.7688C58.7165 30.8109 58.6081 30.8326 58.4987 30.8328H51.8314C51.6104 30.8328 51.3984 30.745 51.2421 30.5887C51.0859 30.4324 50.998 30.2205 50.998 29.9994C50.998 29.7784 51.0859 29.5664 51.2421 29.4101C51.3984 29.2538 51.6104 29.166 51.8314 29.166Z" fill="#BF85BF"/>
<path d="M36.8327 29.166H48.4989C48.7197 29.166 48.9315 29.2537 49.0876 29.4099C49.2438 29.5661 49.3315 29.7779 49.3315 29.9987C49.3315 30.2195 49.2438 30.4313 49.0876 30.5875C48.9315 30.7436 48.7197 30.8314 48.4989 30.8314H36.8327C36.6118 30.8314 36.4 30.7436 36.2439 30.5875C36.0877 30.4313 36 30.2195 36 29.9987C36 29.7779 36.0877 29.5661 36.2439 29.4099C36.4 29.2537 36.6118 29.166 36.8327 29.166Z" fill="#56B3B4"/>
<path d="M41.8346 45.834H56.8344C57.0553 45.834 57.2671 45.9217 57.4232 46.0779C57.5794 46.234 57.6671 46.4458 57.6671 46.6667C57.6671 46.8875 57.5794 47.0993 57.4232 47.2554C57.2671 47.4116 57.0553 47.4993 56.8344 47.4993H41.8346C41.6138 47.4993 41.402 47.4116 41.2458 47.2554C41.0897 47.0993 41.002 46.8875 41.002 46.6667C41.002 46.4458 41.0897 46.234 41.2458 46.0779C41.402 45.9217 41.6138 45.834 41.8346 45.834Z" fill="#F7BA3E"/>
<path d="M36.8337 45.834H38.5005C38.7213 45.834 38.9331 45.9217 39.0893 46.0779C39.2454 46.234 39.3331 46.4458 39.3331 46.6667C39.3331 46.8875 39.2454 47.0993 39.0893 47.2554C38.9331 47.4116 38.7213 47.4993 38.5005 47.4993H36.8337C36.6213 47.4868 36.4218 47.3936 36.276 47.2388C36.1301 47.084 36.0488 46.8793 36.0488 46.6667C36.0488 46.454 36.1301 46.2493 36.276 46.0945C36.4218 45.9398 36.6213 45.8466 36.8337 45.834Z" fill="#BF85BF"/>
<path d="M56.8334 32.502H65.166C65.387 32.502 65.599 32.5898 65.7553 32.7461C65.9116 32.9023 65.9994 33.1143 65.9994 33.3354C65.9994 33.5564 65.9116 33.7684 65.7553 33.9247C65.599 34.081 65.387 34.1688 65.166 34.1688H56.8334C56.6124 34.1688 56.4004 34.081 56.2441 33.9247C56.0878 33.7684 56 33.5564 56 33.3354C56 33.1143 56.0878 32.9023 56.2441 32.7461C56.4004 32.5898 56.6124 32.502 56.8334 32.502Z" fill="#EA5E5E"/>
<path d="M56.8327 35.834H65.1652C65.3861 35.834 65.5979 35.9217 65.754 36.0779C65.9102 36.234 65.9979 36.4458 65.9979 36.6667C65.9979 36.8875 65.9102 37.0993 65.754 37.2554C65.5979 37.4116 65.3861 37.4993 65.1652 37.4993H56.8327C56.6118 37.4993 56.4 37.4116 56.2439 37.2554C56.0877 37.0993 56 36.8875 56 36.6667C56 36.4458 56.0877 36.234 56.2439 36.0779C56.4 35.9217 56.6118 35.834 56.8327 35.834Z" fill="#F7BA3E"/>
<path d="M36.8337 22.502H56.8339C57.0462 22.5145 57.2457 22.6077 57.3916 22.7625C57.5374 22.9173 57.6187 23.1219 57.6187 23.3346C57.6187 23.5473 57.5374 23.752 57.3916 23.9068C57.2457 24.0615 57.0462 24.1547 56.8339 24.1673H36.8337C36.6213 24.1547 36.4218 24.0615 36.276 23.9068C36.1301 23.752 36.0488 23.5473 36.0488 23.3346C36.0488 23.1219 36.1301 22.9173 36.276 22.7625C36.4218 22.6077 36.6213 22.5145 36.8337 22.502Z" fill="#56B3B4"/>
<path opacity="0.5" d="M60.1656 22.502H70.165C70.2743 22.5019 70.3826 22.5233 70.4837 22.5651C70.5847 22.6068 70.6766 22.6681 70.754 22.7453C70.8314 22.8226 70.8928 22.9143 70.9347 23.0153C70.9767 23.1163 70.9983 23.2246 70.9984 23.3339C70.9985 23.4432 70.977 23.5515 70.9353 23.6526C70.8935 23.7537 70.8323 23.8455 70.755 23.9229C70.6778 24.0003 70.586 24.0617 70.485 24.1036C70.384 24.1456 70.2758 24.1672 70.1664 24.1673H60.1656C59.9448 24.1673 59.733 24.0796 59.5768 23.9234C59.4207 23.7673 59.3329 23.5555 59.3329 23.3346C59.3329 23.1138 59.4207 22.902 59.5768 22.7458C59.733 22.5897 59.9448 22.502 60.1656 22.502ZM60.1656 45.8343H63.4992C63.72 45.8343 63.9318 45.922 64.088 46.0782C64.2442 46.2344 64.3319 46.4461 64.3319 46.667C64.3319 46.8878 64.2442 47.0996 64.088 47.2558C63.9318 47.4119 63.72 47.4997 63.4992 47.4997H60.1656C59.9448 47.4997 59.733 47.4119 59.5768 47.2558C59.4207 47.0996 59.3329 46.8878 59.3329 46.667C59.3329 46.4461 59.4207 46.2344 59.5768 46.0782C59.733 45.922 59.9448 45.8343 60.1656 45.8343ZM66.8328 45.8343H70.1664C70.3873 45.8343 70.5991 45.922 70.7552 46.0782C70.9114 46.2344 70.9991 46.4461 70.9991 46.667C70.9991 46.8878 70.9114 47.0996 70.7552 47.2558C70.5991 47.4119 70.3873 47.4997 70.1664 47.4997H66.8328C66.612 47.4997 66.4002 47.4119 66.244 47.2558C66.0879 47.0996 66.0001 46.8878 66.0001 46.667C66.0001 46.4461 66.0879 46.2344 66.244 46.0782C66.4002 45.922 66.612 45.8343 66.8328 45.8343ZM65.166 42.5007H70.1664C70.3873 42.5007 70.5991 42.5884 70.7552 42.7446C70.9114 42.9007 70.9991 43.1125 70.9991 43.3334C70.9991 43.5542 70.9114 43.766 70.7552 43.9222C70.5991 44.0783 70.3873 44.166 70.1664 44.166H65.166C64.9452 44.166 64.7334 44.0783 64.5772 43.9222C64.4211 43.766 64.3333 43.5542 64.3333 43.3334C64.3333 43.1125 64.4211 42.9007 64.5772 42.7446C64.7334 42.5884 64.9452 42.5007 65.166 42.5007ZM65.166 25.8356H70.1664C70.2758 25.8356 70.3841 25.8571 70.4851 25.8989C70.5861 25.9408 70.6779 26.0021 70.7552 26.0794C70.8325 26.1568 70.8939 26.2486 70.9357 26.3496C70.9776 26.4506 70.9991 26.5589 70.9991 26.6682C70.9991 26.7776 70.9776 26.8859 70.9357 26.9869C70.8939 27.0879 70.8325 27.1797 70.7552 27.257C70.6779 27.3343 70.5861 27.3957 70.4851 27.4375C70.3841 27.4794 70.2758 27.5009 70.1664 27.5009H65.166C64.9452 27.5009 64.7334 27.4132 64.5772 27.257C64.4211 27.1009 64.3333 26.8891 64.3333 26.6682C64.3333 26.4474 64.4211 26.2356 64.5772 26.0794C64.7334 25.9233 64.9452 25.8356 65.166 25.8356ZM66.8328 39.1686H70.1664C70.3873 39.1686 70.5991 39.2563 70.7552 39.4124C70.9114 39.5686 70.9991 39.7804 70.9991 40.0012C70.9991 40.2221 70.9114 40.4339 70.7552 40.59C70.5991 40.7462 70.3873 40.8339 70.1664 40.8339H66.8328C66.6683 40.8333 66.5077 40.7842 66.3711 40.6926C66.2345 40.601 66.128 40.471 66.065 40.3191C66.0021 40.1671 65.9854 39.9999 66.0172 39.8386C66.049 39.6772 66.1278 39.5288 66.2437 39.4121C66.321 39.3347 66.4129 39.2734 66.514 39.2316C66.6151 39.1898 66.7234 39.1684 66.8328 39.1686ZM66.8328 29.1677H70.1664C70.3875 29.1677 70.5994 29.2555 70.7557 29.4118C70.912 29.5681 70.9998 29.7801 70.9998 30.0011C70.9998 30.2222 70.912 30.4341 70.7557 30.5904C70.5994 30.7467 70.3875 30.8345 70.1664 30.8345H66.8328C66.6118 30.8345 66.3998 30.7467 66.2435 30.5904C66.0872 30.4341 65.9994 30.2222 65.9994 30.0011C65.9994 29.7801 66.0872 29.5681 66.2435 29.4118C66.3998 29.2555 66.6118 29.1677 66.8328 29.1677ZM68.4996 32.5013H70.1664C70.3873 32.5013 70.5991 32.5891 70.7552 32.7452C70.9114 32.9014 70.9991 33.1132 70.9991 33.334C70.9991 33.5548 70.9114 33.7666 70.7552 33.9228C70.5991 34.0789 70.3873 34.1667 70.1664 34.1667H68.4996C68.2788 34.1667 68.067 34.0789 67.9108 33.9228C67.7547 33.7666 67.667 33.5548 67.667 33.334C67.667 33.1132 67.7547 32.9014 67.9108 32.7452C68.067 32.5891 68.2788 32.5013 68.4996 32.5013ZM68.4996 35.8349H70.1664C70.3873 35.8349 70.5991 35.9227 70.7552 36.0788C70.9114 36.235 70.9991 36.4468 70.9991 36.6676C70.9991 36.8885 70.9114 37.1002 70.7552 37.2564C70.5991 37.4126 70.3873 37.5003 70.1664 37.5003H68.4996C68.2788 37.5003 68.067 37.4126 67.9108 37.2564C67.7547 37.1002 67.667 36.8885 67.667 36.6676C67.667 36.4468 67.7547 36.235 67.9108 36.0788C68.067 35.9227 68.2788 35.8349 68.4996 35.8349ZM55.1666 49.1679H70.1664C70.3873 49.1679 70.5991 49.2557 70.7552 49.4118C70.9114 49.568 70.9991 49.7798 70.9991 50.0006C70.9991 50.2214 70.9114 50.4332 70.7552 50.5894C70.5991 50.7455 70.3873 50.8333 70.1664 50.8333H55.1666C54.9458 50.8333 54.734 50.7455 54.5779 50.5894C54.4217 50.4332 54.334 50.2214 54.334 50.0006C54.334 49.7798 54.4217 49.568 54.5779 49.4118C54.734 49.2557 54.9458 49.1679 55.1666 49.1679ZM48.4994 49.1679H51.833C52.0539 49.1679 52.2657 49.2557 52.4218 49.4118C52.578 49.568 52.6657 49.7798 52.6657 50.0006C52.6657 50.2214 52.578 50.4332 52.4218 50.5894C52.2657 50.7455 52.0539 50.8333 51.833 50.8333H48.4994C48.2786 50.8333 48.0668 50.7455 47.9106 50.5894C47.7545 50.4332 47.6667 50.2214 47.6667 50.0006C47.6667 49.7798 47.7545 49.568 47.9106 49.4118C48.0668 49.2557 48.2786 49.1679 48.4994 49.1679ZM61.8324 55.8337H70.165C70.3858 55.8337 70.5976 55.9214 70.7538 56.0776C70.9099 56.2337 70.9977 56.4455 70.9977 56.6664C70.9977 56.8872 70.9099 57.099 70.7538 57.2551C70.5976 57.4113 70.3858 57.499 70.165 57.499H61.8324C61.6116 57.499 61.3998 57.4113 61.2436 57.2551C61.0875 57.099 60.9997 56.8872 60.9997 56.6664C60.9997 56.4455 61.0875 56.2337 61.2436 56.0776C61.3998 55.9214 61.6116 55.8337 61.8324 55.8337ZM48.4994 55.8337H58.4988C58.7196 55.8337 58.9314 55.9214 59.0876 56.0776C59.2437 56.2337 59.3315 56.4455 59.3315 56.6664C59.3315 56.8872 59.2437 57.099 59.0876 57.2551C58.9314 57.4113 58.7196 57.499 58.4988 57.499H48.4994C48.2786 57.499 48.0668 57.4113 47.9106 57.2551C47.7545 57.099 47.6667 56.8872 47.6667 56.6664C47.6667 56.4455 47.7545 56.2337 47.9106 56.0776C48.0668 55.9214 48.2786 55.8337 48.4994 55.8337ZM48.4994 32.5013H53.4998C53.7209 32.5013 53.9328 32.5891 54.0891 32.7454C54.2454 32.9017 54.3332 33.1137 54.3332 33.3347C54.3332 33.5558 54.2454 33.7677 54.0891 33.924C53.9328 34.0803 53.7209 34.1681 53.4998 34.1681H48.4994C48.2784 34.1681 48.0664 34.0803 47.9101 33.924C47.7538 33.7677 47.666 33.5558 47.666 33.3347C47.666 33.1137 47.7538 32.9017 47.9101 32.7454C48.0664 32.5891 48.2784 32.5013 48.4994 32.5013ZM48.4994 35.8349H53.4998C53.7207 35.8349 53.9325 35.9227 54.0886 36.0788C54.2448 36.235 54.3325 36.4468 54.3325 36.6676C54.3325 36.8885 54.2448 37.1002 54.0886 37.2564C53.9325 37.4126 53.7207 37.5003 53.4998 37.5003H48.4994C48.2786 37.5003 48.0668 37.4126 47.9106 37.2564C47.7545 37.1002 47.6667 36.8885 47.6667 36.6676C47.6667 36.4468 47.7545 36.235 47.9106 36.0788C48.0668 35.9227 48.2786 35.8349 48.4994 35.8349Z" fill="#4D616E"/>
<path d="M29.0043 82V71.8182H32.8224C33.6046 71.8182 34.2609 71.964 34.7912 72.2557C35.3248 72.5473 35.7275 72.9484 35.9993 73.4588C36.2744 73.9659 36.4119 74.5426 36.4119 75.1889C36.4119 75.8419 36.2744 76.4219 35.9993 76.929C35.7242 77.4361 35.3182 77.8355 34.7812 78.1271C34.2443 78.4155 33.5831 78.5597 32.7976 78.5597H30.267V77.0433H32.549C33.0064 77.0433 33.3809 76.9638 33.6726 76.8047C33.9643 76.6456 34.1797 76.4268 34.3189 76.1484C34.4614 75.87 34.5327 75.5502 34.5327 75.1889C34.5327 74.8277 34.4614 74.5095 34.3189 74.2344C34.1797 73.9593 33.9626 73.7455 33.6676 73.593C33.3759 73.4373 32.9998 73.3594 32.5391 73.3594H30.8487V82H29.0043ZM37.9345 82V74.3636H39.6795V75.6364H39.7591C39.8983 75.1955 40.1369 74.8558 40.475 74.6172C40.8163 74.3752 41.2058 74.2543 41.6433 74.2543C41.7427 74.2543 41.8538 74.2592 41.9764 74.2692C42.1023 74.2758 42.2067 74.2874 42.2896 74.304V75.9595C42.2134 75.933 42.0924 75.9098 41.9267 75.8899C41.7643 75.8667 41.6068 75.8551 41.4544 75.8551C41.1262 75.8551 40.8313 75.9264 40.5694 76.0689C40.3109 76.2081 40.1071 76.402 39.9579 76.6506C39.8088 76.8991 39.7342 77.1858 39.7342 77.5107V82H37.9345ZM46.5515 82.1491C45.7859 82.1491 45.1246 81.9901 44.5678 81.6719C44.0143 81.3504 43.5884 80.8963 43.2901 80.3097C42.9918 79.7197 42.8427 79.0253 42.8427 78.2266C42.8427 77.4411 42.9918 76.7517 43.2901 76.1584C43.5917 75.5618 44.0127 75.0978 44.5529 74.7663C45.0932 74.4316 45.7279 74.2642 46.457 74.2642C46.9277 74.2642 47.3718 74.3404 47.7894 74.4929C48.2103 74.642 48.5816 74.8741 48.9031 75.1889C49.2279 75.5038 49.4831 75.9048 49.6687 76.392C49.8543 76.8759 49.9471 77.4527 49.9471 78.1222V78.674H43.6879V77.4609H48.2219C48.2186 77.1162 48.1441 76.8097 47.9982 76.5412C47.8524 76.2694 47.6486 76.0556 47.3867 75.8999C47.1282 75.7441 46.8266 75.6662 46.4819 75.6662C46.114 75.6662 45.7908 75.7557 45.5124 75.9347C45.234 76.1103 45.0169 76.3423 44.8612 76.6307C44.7087 76.9157 44.6308 77.2289 44.6275 77.5703V78.6293C44.6275 79.0734 44.7087 79.4545 44.8711 79.7727C45.0335 80.0876 45.2605 80.3295 45.5522 80.4986C45.8439 80.6643 46.1853 80.7472 46.5763 80.7472C46.8382 80.7472 47.0752 80.7107 47.2873 80.6378C47.4994 80.5616 47.6834 80.4505 47.8391 80.3047C47.9949 80.1589 48.1126 79.9782 48.1921 79.7628L49.8725 79.9517C49.7665 80.3958 49.5643 80.7836 49.266 81.1151C48.971 81.4432 48.5932 81.6984 48.1325 81.8807C47.6718 82.0597 47.1448 82.1491 46.5515 82.1491ZM55.2828 74.3636V75.7557H50.8929V74.3636H55.2828ZM51.9767 72.5341H53.7765V79.7031C53.7765 79.9451 53.8129 80.1307 53.8858 80.2599C53.9621 80.3859 54.0615 80.4721 54.1841 80.5185C54.3068 80.5649 54.4426 80.5881 54.5918 80.5881C54.7045 80.5881 54.8072 80.5798 54.9 80.5632C54.9962 80.5466 55.0691 80.5317 55.1188 80.5185L55.4221 81.9254C55.3259 81.9586 55.1884 81.995 55.0094 82.0348C54.8337 82.0746 54.6183 82.0978 54.3631 82.1044C53.9123 82.1177 53.5063 82.0497 53.1451 81.9006C52.7838 81.7481 52.4971 81.5128 52.285 81.1946C52.0762 80.8764 51.9734 80.4787 51.9767 80.0014V72.5341ZM60.6012 74.3636V75.7557H56.2113V74.3636H60.6012ZM57.2951 72.5341H59.0948V79.7031C59.0948 79.9451 59.1313 80.1307 59.2042 80.2599C59.2804 80.3859 59.3799 80.4721 59.5025 80.5185C59.6251 80.5649 59.761 80.5881 59.9102 80.5881C60.0228 80.5881 60.1256 80.5798 60.2184 80.5632C60.3145 80.5466 60.3874 80.5317 60.4371 80.5185L60.7404 81.9254C60.6443 81.9586 60.5067 81.995 60.3278 82.0348C60.1521 82.0746 59.9367 82.0978 59.6815 82.1044C59.2307 82.1177 58.8247 82.0497 58.4634 81.9006C58.1022 81.7481 57.8155 81.5128 57.6033 81.1946C57.3945 80.8764 57.2918 80.4787 57.2951 80.0014V72.5341ZM62.1064 82V74.3636H63.9061V82H62.1064ZM63.0112 73.2798C62.7261 73.2798 62.4809 73.1854 62.2754 72.9964C62.0699 72.8042 61.9672 72.5739 61.9672 72.3054C61.9672 72.0336 62.0699 71.8033 62.2754 71.6143C62.4809 71.4221 62.7261 71.326 63.0112 71.326C63.2995 71.326 63.5448 71.4221 63.747 71.6143C63.9525 71.8033 64.0552 72.0336 64.0552 72.3054C64.0552 72.5739 63.9525 72.8042 63.747 72.9964C63.5448 73.1854 63.2995 73.2798 63.0112 73.2798ZM69.1374 82.1491C68.3718 82.1491 67.7106 81.9901 67.1538 81.6719C66.6003 81.3504 66.1744 80.8963 65.8761 80.3097C65.5778 79.7197 65.4286 79.0253 65.4286 78.2266C65.4286 77.4411 65.5778 76.7517 65.8761 76.1584C66.1777 75.5618 66.5986 75.0978 67.1388 74.7663C67.6791 74.4316 68.3138 74.2642 69.043 74.2642C69.5136 74.2642 69.9577 74.3404 70.3754 74.4929C70.7963 74.642 71.1675 74.8741 71.489 75.1889C71.8138 75.5038 72.069 75.9048 72.2546 76.392C72.4402 76.8759 72.533 77.4527 72.533 78.1222V78.674H66.2738V77.4609H70.8079C70.8046 77.1162 70.73 76.8097 70.5842 76.5412C70.4383 76.2694 70.2345 76.0556 69.9727 75.8999C69.7141 75.7441 69.4125 75.6662 69.0678 75.6662C68.6999 75.6662 68.3768 75.7557 68.0984 75.9347C67.82 76.1103 67.6029 76.3423 67.4471 76.6307C67.2946 76.9157 67.2167 77.2289 67.2134 77.5703V78.6293C67.2134 79.0734 67.2946 79.4545 67.457 79.7727C67.6194 80.0876 67.8465 80.3295 68.1381 80.4986C68.4298 80.6643 68.7712 80.7472 69.1623 80.7472C69.4241 80.7472 69.6611 80.7107 69.8732 80.6378C70.0853 80.5616 70.2693 80.4505 70.4251 80.3047C70.5808 80.1589 70.6985 79.9782 70.7781 79.7628L72.4585 79.9517C72.3524 80.3958 72.1502 80.7836 71.8519 81.1151C71.5569 81.4432 71.1791 81.6984 70.7184 81.8807C70.2577 82.0597 69.7307 82.1491 69.1374 82.1491ZM74.0556 82V74.3636H75.8006V75.6364H75.8801C76.0194 75.1955 76.258 74.8558 76.5961 74.6172C76.9374 74.3752 77.3269 74.2543 77.7644 74.2543C77.8638 74.2543 77.9748 74.2592 78.0975 74.2692C78.2234 74.2758 78.3278 74.2874 78.4107 74.304V75.9595C78.3345 75.933 78.2135 75.9098 78.0478 75.8899C77.8854 75.8667 77.7279 75.8551 77.5755 75.8551C77.2473 75.8551 76.9524 75.9264 76.6905 76.0689C76.432 76.2081 76.2282 76.402 76.079 76.6506C75.9299 76.8991 75.8553 77.1858 75.8553 77.5107V82H74.0556Z" fill="white"/>
</g>
<defs>
<filter id="filter0_d_5829_13443" x="0" y="0" width="107" height="109" filterUnits="userSpaceOnUse" color-interpolation-filters="sRGB">
<feFlood flood-opacity="0" result="BackgroundImageFix"/>
<feColorMatrix in="SourceAlpha" type="matrix" values="0 0 0 0 0 0 0 0 0 0 0 0 0 0 0 0 0 0 127 0" result="hardAlpha"/>
<feOffset dy="2"/>
<feGaussianBlur stdDeviation="4"/>
<feColorMatrix type="matrix" values="0 0 0 0 0 0 0 0 0 0 0 0 0 0 0 0 0 0 0.25 0"/>
<feBlend mode="normal" in2="BackgroundImageFix" result="effect1_dropShadow_5829_13443"/>
<feBlend mode="normal" in="SourceGraphic" in2="effect1_dropShadow_5829_13443" result="shape"/>
</filter>
</defs>
</svg>
