<svg width="107" height="109" viewBox="0 0 107 109" fill="none" xmlns="http://www.w3.org/2000/svg">
<g filter="url(#filter0_d_5846_13457)">
<rect x="8" y="6" width="91" height="93" rx="12" fill="#151B23"/>
<rect x="9" y="7" width="89" height="91" rx="11" stroke="#1F2937" stroke-width="2"/>
<path d="M67.6857 49.0907L55.7465 23.7351C55.5982 23.423 55.3682 23.157 55.0809 22.965C54.7936 22.7731 54.4597 22.6625 54.1146 22.6449C53.7692 22.6216 53.4239 22.6934 53.1164 22.8526C52.8089 23.0118 52.551 23.2523 52.3707 23.5479L39.4208 44.5235C39.2238 44.84 39.1213 45.206 39.1251 45.5788C39.129 45.9515 39.2391 46.3153 39.4426 46.6276L45.7744 56.4322C46.0137 56.8002 46.3656 57.081 46.7776 57.2325C47.1895 57.3841 47.6395 57.3984 48.0602 57.2732L66.4334 51.8389C66.7101 51.758 66.9661 51.6186 67.1842 51.4301C67.4023 51.2417 67.5774 51.0086 67.6976 50.7466C67.8163 50.4862 67.8768 50.2031 67.875 49.9169C67.8731 49.6308 67.8089 49.3485 67.6868 49.0897L67.6857 49.0907ZM65.0126 50.1787L49.4223 54.7872C49.3143 54.8207 49.1995 54.8255 49.089 54.8012C48.9786 54.7769 48.8764 54.7244 48.7923 54.6487C48.7083 54.573 48.6454 54.4768 48.6098 54.3695C48.5741 54.2622 48.5669 54.1475 48.589 54.0365L54.1592 27.3666C54.2626 26.8673 54.9524 26.7889 55.1699 27.2502L65.4815 49.1462C65.5272 49.2438 65.5512 49.3502 65.5518 49.458C65.5523 49.5658 65.5295 49.6724 65.4848 49.7705C65.4401 49.8686 65.3746 49.9558 65.2929 50.0261C65.2112 50.0964 65.1152 50.1481 65.0115 50.1776L65.0126 50.1787Z" fill="#F3F4F6"/>
<path d="M31.2552 82V71.8182H35.0734C35.8556 71.8182 36.5119 71.964 37.0422 72.2557C37.5758 72.5473 37.9785 72.9484 38.2503 73.4588C38.5254 73.9659 38.6629 74.5426 38.6629 75.1889C38.6629 75.8419 38.5254 76.4219 38.2503 76.929C37.9752 77.4361 37.5692 77.8355 37.0322 78.1271C36.4953 78.4155 35.8341 78.5597 35.0486 78.5597H32.518V77.0433H34.8C35.2574 77.0433 35.6319 76.9638 35.9236 76.8047C36.2152 76.6456 36.4307 76.4268 36.5699 76.1484C36.7124 75.87 36.7836 75.5502 36.7836 75.1889C36.7836 74.8277 36.7124 74.5095 36.5699 74.2344C36.4307 73.9593 36.2136 73.7455 35.9186 73.593C35.6269 73.4373 35.2507 73.3594 34.79 73.3594H33.0997V82H31.2552ZM40.1855 82V74.3636H41.9305V75.6364H42.01C42.1492 75.1955 42.3879 74.8558 42.7259 74.6172C43.0673 74.3752 43.4568 74.2543 43.8943 74.2543C43.9937 74.2543 44.1047 74.2592 44.2274 74.2692C44.3533 74.2758 44.4577 74.2874 44.5406 74.304V75.9595C44.4643 75.933 44.3434 75.9098 44.1776 75.8899C44.0152 75.8667 43.8578 75.8551 43.7053 75.8551C43.3772 75.8551 43.0822 75.9264 42.8204 76.0689C42.5619 76.2081 42.358 76.402 42.2089 76.6506C42.0597 76.8991 41.9852 77.1858 41.9852 77.5107V82H40.1855ZM45.7362 82V74.3636H47.536V82H45.7362ZM46.6411 73.2798C46.356 73.2798 46.1108 73.1854 45.9053 72.9964C45.6998 72.8042 45.597 72.5739 45.597 72.3054C45.597 72.0336 45.6998 71.8033 45.9053 71.6143C46.1108 71.4221 46.356 71.326 46.6411 71.326C46.9294 71.326 47.1747 71.4221 47.3769 71.6143C47.5824 71.8033 47.6851 72.0336 47.6851 72.3054C47.6851 72.5739 47.5824 72.8042 47.3769 72.9964C47.1747 73.1854 46.9294 73.2798 46.6411 73.2798ZM55.4221 76.3821L53.7815 76.5611C53.7351 76.3954 53.6539 76.2396 53.5379 76.0938C53.4252 75.9479 53.2728 75.8303 53.0805 75.7408C52.8883 75.6513 52.653 75.6065 52.3746 75.6065C52 75.6065 51.6852 75.6877 51.43 75.8501C51.1781 76.0125 51.0538 76.223 51.0571 76.4815C51.0538 76.7036 51.135 76.8842 51.3007 77.0234C51.4697 77.1626 51.7481 77.277 52.1359 77.3665L53.4385 77.6449C54.161 77.8007 54.6979 78.0476 55.0493 78.3857C55.4039 78.7237 55.5829 79.1662 55.5862 79.7131C55.5829 80.1937 55.442 80.6179 55.1636 80.9858C54.8885 81.3504 54.5057 81.6354 54.0152 81.8409C53.5247 82.0464 52.9612 82.1491 52.3248 82.1491C51.3902 82.1491 50.6378 81.9536 50.0677 81.5625C49.4977 81.1681 49.1579 80.6196 49.0486 79.9169L50.8035 79.7479C50.8831 80.0926 51.0521 80.3527 51.3106 80.5284C51.5692 80.7041 51.9056 80.7919 52.3199 80.7919C52.7474 80.7919 53.0905 80.7041 53.349 80.5284C53.6108 80.3527 53.7417 80.1357 53.7417 79.8771C53.7417 79.6584 53.6572 79.4777 53.4882 79.3352C53.3225 79.1927 53.064 79.0833 52.7126 79.0071L51.4101 78.7337C50.6776 78.5812 50.1357 78.3243 49.7844 77.9631C49.433 77.5985 49.259 77.1378 49.2623 76.581C49.259 76.1103 49.3866 75.7027 49.6452 75.358C49.907 75.0099 50.2699 74.7415 50.7339 74.5526C51.2013 74.3603 51.7398 74.2642 52.3497 74.2642C53.2446 74.2642 53.9489 74.4548 54.4626 74.8359C54.9797 75.2171 55.2995 75.7325 55.4221 76.3821ZM57.0702 82V74.3636H58.7904V75.6612H58.8799C59.039 75.2237 59.3025 74.8823 59.6704 74.6371C60.0383 74.3885 60.4774 74.2642 60.9878 74.2642C61.5049 74.2642 61.9407 74.3902 62.2954 74.642C62.6533 74.8906 62.9052 75.2304 63.051 75.6612H63.1306C63.2996 75.237 63.5847 74.8989 63.9857 74.647C64.3901 74.3918 64.869 74.2642 65.4225 74.2642C66.1251 74.2642 66.6985 74.4863 67.1427 74.9304C67.5868 75.3745 67.8089 76.0225 67.8089 76.8743V82H66.0042V77.1527C66.0042 76.6787 65.8782 76.3324 65.6263 76.1136C65.3744 75.8916 65.0662 75.7805 64.7016 75.7805C64.2674 75.7805 63.9277 75.9164 63.6824 76.1882C63.4405 76.4567 63.3195 76.8063 63.3195 77.2372V82H61.5546V77.0781C61.5546 76.6837 61.4353 76.3688 61.1966 76.1335C60.9613 75.8982 60.6531 75.7805 60.2719 75.7805C60.0134 75.7805 59.7781 75.8468 59.566 75.9794C59.3538 76.1087 59.1848 76.2926 59.0589 76.5312C58.9329 76.7666 58.8699 77.0417 58.8699 77.3565V82H57.0702ZM71.8321 82.1541C71.3482 82.1541 70.9124 82.0679 70.5246 81.8956C70.1401 81.7199 69.8352 81.4614 69.6098 81.12C69.3878 80.7786 69.2767 80.3577 69.2767 79.8572C69.2767 79.4264 69.3563 79.0701 69.5154 78.7884C69.6744 78.5066 69.8915 78.2812 70.1666 78.1122C70.4417 77.9432 70.7516 77.8156 71.0963 77.7294C71.4443 77.6399 71.8039 77.5753 72.1752 77.5355C72.6226 77.4891 72.9855 77.4477 73.2639 77.4112C73.5423 77.3714 73.7445 77.3118 73.8705 77.2322C73.9997 77.1494 74.0644 77.0218 74.0644 76.8494V76.8196C74.0644 76.4451 73.9533 76.1551 73.7313 75.9496C73.5092 75.7441 73.1894 75.6413 72.7718 75.6413C72.3309 75.6413 71.9813 75.7375 71.7227 75.9297C71.4675 76.1219 71.2952 76.349 71.2057 76.6108L69.5253 76.3722C69.6579 75.9081 69.8766 75.5204 70.1816 75.2088C70.4865 74.8939 70.8593 74.6586 71.3002 74.5028C71.741 74.3438 72.2282 74.2642 72.7618 74.2642C73.1297 74.2642 73.4959 74.3073 73.8605 74.3935C74.2251 74.4796 74.5582 74.6222 74.8598 74.821C75.1614 75.0166 75.4034 75.2834 75.5857 75.6214C75.7713 75.9595 75.8641 76.3821 75.8641 76.8892V82H74.134V80.951H74.0743C73.9649 81.1631 73.8108 81.362 73.6119 81.5476C73.4164 81.7299 73.1695 81.8774 72.8712 81.9901C72.5762 82.0994 72.2298 82.1541 71.8321 82.1541ZM72.2994 80.8317C72.6607 80.8317 72.9739 80.7604 73.2391 80.6179C73.5042 80.4721 73.7081 80.2798 73.8506 80.0412C73.9964 79.8026 74.0693 79.5424 74.0693 79.2607V78.3608C74.013 78.4072 73.9169 78.4503 73.781 78.4901C73.6484 78.5298 73.4993 78.5646 73.3335 78.5945C73.1678 78.6243 73.0038 78.6508 72.8414 78.674C72.6789 78.6972 72.5381 78.7171 72.4188 78.7337C72.1503 78.7701 71.91 78.8298 71.6979 78.9126C71.4858 78.9955 71.3184 79.1115 71.1958 79.2607C71.0731 79.4065 71.0118 79.5954 71.0118 79.8274C71.0118 80.1589 71.1328 80.4091 71.3747 80.5781C71.6167 80.7472 71.9249 80.8317 72.2994 80.8317Z" fill="white"/>
</g>
<defs>
<filter id="filter0_d_5846_13457" x="0" y="0" width="107" height="109" filterUnits="userSpaceOnUse" color-interpolation-filters="sRGB">
<feFlood flood-opacity="0" result="BackgroundImageFix"/>
<feColorMatrix in="SourceAlpha" type="matrix" values="0 0 0 0 0 0 0 0 0 0 0 0 0 0 0 0 0 0 127 0" result="hardAlpha"/>
<feOffset dy="2"/>
<feGaussianBlur stdDeviation="4"/>
<feColorMatrix type="matrix" values="0 0 0 0 0 0 0 0 0 0 0 0 0 0 0 0 0 0 0.25 0"/>
<feBlend mode="normal" in2="BackgroundImageFix" result="effect1_dropShadow_5846_13457"/>
<feBlend mode="normal" in="SourceGraphic" in2="effect1_dropShadow_5846_13457" result="shape"/>
</filter>
</defs>
</svg>
