<svg width="107" height="109" viewBox="0 0 107 109" fill="none" xmlns="http://www.w3.org/2000/svg">
<g filter="url(#filter0_d_5829_13127)">
<rect x="8" y="6" width="91" height="93" rx="12" fill="#151B23"/>
<rect x="9" y="7" width="89" height="91" rx="11" stroke="#1F2937" stroke-width="2"/>
<path d="M61.7266 43.8991L62.7343 41.3521H65.6418L64.2616 37.4891L65.9872 33.125L70.9308 46.25H67.2857L66.4404 43.8991H61.7266Z" fill="#F3F4F6"/>
<path d="M58.6179 46.25L63.9102 33.125H60.4024L56.7812 41.6059L54.2081 33.125H51.5107L48.7469 41.6059L46.7969 37.7418L45.0332 43.1757L46.8242 46.25H50.2775L52.7755 38.6439L55.1569 46.25H58.6179Z" fill="#5A0FC8"/>
<path d="M39.4006 41.7432H41.5619C42.2156 41.7432 42.7984 41.6706 43.3104 41.5253L43.8693 39.8041L45.4315 34.9911C45.3113 34.8011 45.1746 34.6221 45.0229 34.4562C44.2211 33.5687 43.0482 33.125 41.5042 33.125H36.0703V46.25H39.4006V41.7432ZM42.2613 36.1437C42.5736 36.4596 42.7301 36.8816 42.7309 37.4096C42.7309 37.9427 42.5929 38.3653 42.3169 38.6776C42.0155 39.0241 41.4599 39.1973 40.6501 39.1973H39.4006V35.6709H40.6588C41.4141 35.6709 41.9479 35.8285 42.2602 36.1437H42.2613Z" fill="#F3F4F6"/>
<path d="M40.0043 82V71.8182H43.8224C44.6046 71.8182 45.2609 71.964 45.7912 72.2557C46.3248 72.5473 46.7275 72.9484 46.9993 73.4588C47.2744 73.9659 47.4119 74.5426 47.4119 75.1889C47.4119 75.8419 47.2744 76.4219 46.9993 76.929C46.7242 77.4361 46.3182 77.8355 45.7812 78.1271C45.2443 78.4155 44.5831 78.5597 43.7976 78.5597H41.267V77.0433H43.549C44.0064 77.0433 44.3809 76.9638 44.6726 76.8047C44.9643 76.6456 45.1797 76.4268 45.3189 76.1484C45.4614 75.87 45.5327 75.5502 45.5327 75.1889C45.5327 74.8277 45.4614 74.5095 45.3189 74.2344C45.1797 73.9593 44.9626 73.7455 44.6676 73.593C44.3759 73.4373 43.9998 73.3594 43.5391 73.3594H41.8487V82H40.0043ZM50.5105 82L48.3528 74.3636H50.1873L51.5297 79.733H51.5993L52.9714 74.3636H54.786L56.1582 79.7031H56.2328L57.5552 74.3636H59.3947L57.2321 82H55.3578L53.926 76.8395H53.8216L52.3897 82H50.5105ZM62.8487 82.1541C62.3648 82.1541 61.929 82.0679 61.5412 81.8956C61.1567 81.7199 60.8518 81.4614 60.6264 81.12C60.4044 80.7786 60.2933 80.3577 60.2933 79.8572C60.2933 79.4264 60.3729 79.0701 60.532 78.7884C60.6911 78.5066 60.9081 78.2812 61.1832 78.1122C61.4583 77.9432 61.7682 77.8156 62.1129 77.7294C62.4609 77.6399 62.8205 77.5753 63.1918 77.5355C63.6392 77.4891 64.0021 77.4477 64.2805 77.4112C64.5589 77.3714 64.7611 77.3118 64.8871 77.2322C65.0163 77.1494 65.081 77.0218 65.081 76.8494V76.8196C65.081 76.4451 64.9699 76.1551 64.7479 75.9496C64.5258 75.7441 64.206 75.6413 63.7884 75.6413C63.3475 75.6413 62.9979 75.7375 62.7393 75.9297C62.4841 76.1219 62.3118 76.349 62.2223 76.6108L60.5419 76.3722C60.6745 75.9081 60.8932 75.5204 61.1982 75.2088C61.5031 74.8939 61.8759 74.6586 62.3168 74.5028C62.7576 74.3438 63.2448 74.2642 63.7784 74.2642C64.1463 74.2642 64.5125 74.3073 64.8771 74.3935C65.2417 74.4796 65.5748 74.6222 65.8764 74.821C66.178 75.0166 66.42 75.2834 66.6023 75.6214C66.7879 75.9595 66.8807 76.3821 66.8807 76.8892V82H65.1506V80.951H65.0909C64.9815 81.1631 64.8274 81.362 64.6286 81.5476C64.433 81.7299 64.1861 81.8774 63.8878 81.9901C63.5928 82.0994 63.2464 82.1541 62.8487 82.1541ZM63.3161 80.8317C63.6773 80.8317 63.9905 80.7604 64.2557 80.6179C64.5208 80.4721 64.7247 80.2798 64.8672 80.0412C65.013 79.8026 65.0859 79.5424 65.0859 79.2607V78.3608C65.0296 78.4072 64.9335 78.4503 64.7976 78.4901C64.665 78.5298 64.5159 78.5646 64.3501 78.5945C64.1844 78.6243 64.0204 78.6508 63.858 78.674C63.6955 78.6972 63.5547 78.7171 63.4354 78.7337C63.1669 78.7701 62.9266 78.8298 62.7145 78.9126C62.5024 78.9955 62.335 79.1115 62.2124 79.2607C62.0897 79.4065 62.0284 79.5954 62.0284 79.8274C62.0284 80.1589 62.1494 80.4091 62.3913 80.5781C62.6333 80.7472 62.9415 80.8317 63.3161 80.8317Z" fill="white"/>
</g>
<defs>
<filter id="filter0_d_5829_13127" x="0" y="0" width="107" height="109" filterUnits="userSpaceOnUse" color-interpolation-filters="sRGB">
<feFlood flood-opacity="0" result="BackgroundImageFix"/>
<feColorMatrix in="SourceAlpha" type="matrix" values="0 0 0 0 0 0 0 0 0 0 0 0 0 0 0 0 0 0 127 0" result="hardAlpha"/>
<feOffset dy="2"/>
<feGaussianBlur stdDeviation="4"/>
<feColorMatrix type="matrix" values="0 0 0 0 0 0 0 0 0 0 0 0 0 0 0 0 0 0 0.25 0"/>
<feBlend mode="normal" in2="BackgroundImageFix" result="effect1_dropShadow_5829_13127"/>
<feBlend mode="normal" in="SourceGraphic" in2="effect1_dropShadow_5829_13127" result="shape"/>
</filter>
</defs>
</svg>
