<svg width="107" height="109" viewBox="0 0 107 109" fill="none" xmlns="http://www.w3.org/2000/svg">
<g filter="url(#filter0_d_5829_16617)">
<rect x="8" y="6" width="91" height="93" rx="12" fill="#151B23"/>
<rect x="9" y="7" width="89" height="91" rx="11" stroke="#1F2937" stroke-width="2"/>
<path fill-rule="evenodd" clip-rule="evenodd" d="M53.2925 53.6066L65.8193 57.4666L59.7279 51.8044L44.935 38.0539L48.3937 34.5955L46.8014 23.6152L36.5774 35.8988C35.8075 37.2324 35.8075 38.8754 36.5775 40.209L43.0685 51.4516C43.8385 52.7852 45.2614 53.6066 46.8013 53.6066H53.2925Z" fill="#18B6F6"/>
<path d="M59.7843 22.5L46.8021 22.5C45.2621 22.5 43.8392 23.3215 43.0693 24.6551L36.5781 35.8984L46.8021 23.6148L61.6507 38.0535L58.884 40.8204L59.7285 51.804L65.82 57.4662C66.1712 57.5744 66.4794 57.2064 66.3112 56.8796L63.5171 51.4512L70.0082 40.2086C70.7782 38.875 70.7782 37.232 70.0082 35.8984L63.517 24.6551C62.7471 23.3215 61.3242 22.5 59.7843 22.5Z" fill="#AC7EF4"/>
<path d="M61.6506 38.0539L46.802 23.6152L48.3943 34.5955L44.9355 38.0539L59.7284 51.8044L58.8839 40.8208L61.6506 38.0539Z" fill="white"/>
<path d="M40.7976 78.5795H42.468L43.4574 79.8622L44.1634 80.6974L45.8587 82.875H44.0689L42.9155 81.4134L42.4233 80.7173L40.7976 78.5795ZM46.1023 76.9091C46.1023 78.0062 45.8968 78.9458 45.4858 79.728C45.0781 80.5069 44.5213 81.1035 43.8153 81.5178C43.1127 81.9321 42.3156 82.1392 41.424 82.1392C40.5324 82.1392 39.7337 81.9321 39.0277 81.5178C38.325 81.1001 37.7682 80.5019 37.3572 79.723C36.9496 78.9408 36.7457 78.0028 36.7457 76.9091C36.7457 75.812 36.9496 74.8741 37.3572 74.0952C37.7682 73.313 38.325 72.7147 39.0277 72.3004C39.7337 71.8861 40.5324 71.679 41.424 71.679C42.3156 71.679 43.1127 71.8861 43.8153 72.3004C44.5213 72.7147 45.0781 73.313 45.4858 74.0952C45.8968 74.8741 46.1023 75.812 46.1023 76.9091ZM44.2479 76.9091C44.2479 76.1368 44.1269 75.4856 43.8849 74.9553C43.6463 74.4216 43.3149 74.0189 42.8906 73.7472C42.4664 73.4721 41.9775 73.3345 41.424 73.3345C40.8705 73.3345 40.3816 73.4721 39.9574 73.7472C39.5331 74.0189 39.2 74.4216 38.9581 74.9553C38.7195 75.4856 38.6001 76.1368 38.6001 76.9091C38.6001 77.6813 38.7195 78.3343 38.9581 78.8679C39.2 79.3982 39.5331 79.8009 39.9574 80.076C40.3816 80.3478 40.8705 80.4837 41.424 80.4837C41.9775 80.4837 42.4664 80.3478 42.8906 80.076C43.3149 79.8009 43.6463 79.3982 43.8849 78.8679C44.1269 78.3343 44.2479 77.6813 44.2479 76.9091ZM49.3562 82L47.1985 74.3636H49.033L50.3754 79.733H50.445L51.8171 74.3636H53.6317L55.0039 79.7031H55.0785L56.4009 74.3636H58.2404L56.0778 82H54.2035L52.7717 76.8395H52.6673L51.2354 82H49.3562ZM59.497 82V74.3636H61.2967V82H59.497ZM60.4018 73.2798C60.1168 73.2798 59.8715 73.1854 59.666 72.9964C59.4605 72.8042 59.3578 72.5739 59.3578 72.3054C59.3578 72.0336 59.4605 71.8033 59.666 71.6143C59.8715 71.4221 60.1168 71.326 60.4018 71.326C60.6902 71.326 60.9354 71.4221 61.1376 71.6143C61.3431 71.8033 61.4458 72.0336 61.4458 72.3054C61.4458 72.5739 61.3431 72.8042 61.1376 72.9964C60.9354 73.1854 60.6902 73.2798 60.4018 73.2798ZM64.788 79.6037L64.783 77.4311H65.0714L67.8157 74.3636H69.9187L66.543 78.1222H66.1701L64.788 79.6037ZM63.1474 82V71.8182H64.9471V82H63.1474ZM67.94 82L65.4542 78.5249L66.6673 77.2571L70.0927 82H67.94Z" fill="white"/>
</g>
<defs>
<filter id="filter0_d_5829_16617" x="0" y="0" width="107" height="109" filterUnits="userSpaceOnUse" color-interpolation-filters="sRGB">
<feFlood flood-opacity="0" result="BackgroundImageFix"/>
<feColorMatrix in="SourceAlpha" type="matrix" values="0 0 0 0 0 0 0 0 0 0 0 0 0 0 0 0 0 0 127 0" result="hardAlpha"/>
<feOffset dy="2"/>
<feGaussianBlur stdDeviation="4"/>
<feColorMatrix type="matrix" values="0 0 0 0 0 0 0 0 0 0 0 0 0 0 0 0 0 0 0.25 0"/>
<feBlend mode="normal" in2="BackgroundImageFix" result="effect1_dropShadow_5829_16617"/>
<feBlend mode="normal" in="SourceGraphic" in2="effect1_dropShadow_5829_16617" result="shape"/>
</filter>
</defs>
</svg>
