<svg width="107" height="109" viewBox="0 0 107 109" fill="none" xmlns="http://www.w3.org/2000/svg">
<g filter="url(#filter0_d_5828_13452)">
<rect x="8" y="6" width="91" height="93" rx="12" fill="#151B23"/>
<rect x="9" y="7" width="89" height="91" rx="11" stroke="#1F2937" stroke-width="2"/>
<path d="M53.5 35.6168C62.805 35.6168 68.5 38.8543 68.5 40.6168C68.5 42.3793 62.805 45.6168 53.5 45.6168C44.195 45.6168 38.5 42.3793 38.5 40.6168C38.5 38.8543 44.195 35.6168 53.5 35.6168ZM53.5 33.1168C43.835 33.1168 36 36.4743 36 40.6168C36 44.7593 43.835 48.1168 53.5 48.1168C63.165 48.1168 71 44.7593 71 40.6168C71 36.4743 63.165 33.1168 53.5 33.1168Z" fill="#0288D1"/>
<path d="M53.5 38.1168C53.0055 38.1168 52.5222 38.2634 52.1111 38.5381C51.7 38.8128 51.3795 39.2032 51.1903 39.6601C51.0011 40.1169 50.9516 40.6195 51.048 41.1045C51.1445 41.5894 51.3826 42.0349 51.7322 42.3845C52.0819 42.7342 52.5273 42.9723 53.0123 43.0687C53.4972 43.1652 53.9999 43.1157 54.4567 42.9265C54.9135 42.7372 55.304 42.4168 55.5787 42.0057C55.8534 41.5946 56 41.1112 56 40.6168C56 39.9537 55.7366 39.3178 55.2678 38.849C54.7989 38.3802 54.163 38.1168 53.5 38.1168Z" fill="#0288D1"/>
<path d="M46.5725 27.5005C49.0938 27.5005 53.9938 31.4718 57.83 38.1168C62.4825 46.1755 62.5263 52.7255 61 53.6068C60.8239 53.6981 60.6269 53.7412 60.4287 53.7318C57.9075 53.7318 53.0063 49.7618 49.17 43.1168C44.5175 35.058 44.4738 28.508 46 27.6268C46.1765 27.5354 46.374 27.4911 46.5725 27.5005ZM46.5712 25.0018C45.9342 24.9903 45.3056 25.1486 44.75 25.4605C41.1625 27.5318 42.1725 35.9968 47.005 44.3668C51.11 51.4793 56.655 56.233 60.43 56.233C61.0669 56.2436 61.695 56.0844 62.25 55.7718C65.8375 53.7018 64.8275 45.2368 59.995 36.8668C55.89 29.7543 50.345 25.0005 46.57 25.0005L46.5712 25.0018Z" fill="#0288D1"/>
<path d="M60.4287 27.5005C60.6269 27.4911 60.8239 27.5342 61 27.6255C62.5263 28.508 62.4825 35.058 57.83 43.1168C53.9925 49.7618 49.0925 53.733 46.5712 53.733C46.3731 53.7424 46.1761 53.6993 46 53.608C44.4738 52.7243 44.5175 46.1743 49.17 38.1168C53.0075 31.4718 57.9075 27.5005 60.4287 27.5005ZM60.4287 25.0005C56.6537 25.0005 51.11 29.7555 47.0038 36.8668C42.1738 45.2368 41.1625 53.7018 44.75 55.7718C45.3053 56.0846 45.934 56.2438 46.5712 56.233C50.3462 56.233 55.89 51.478 59.9963 44.3668C64.8263 35.9968 65.8375 27.5318 62.25 25.4618C61.6947 25.149 61.066 24.9897 60.4287 25.0005Z" fill="#0288D1"/>
<path d="M35.0043 82V71.8182H38.8224C39.6046 71.8182 40.2609 71.9541 40.7912 72.2259C41.3248 72.4976 41.7275 72.8788 41.9993 73.3693C42.2744 73.8565 42.4119 74.425 42.4119 75.0746C42.4119 75.7275 42.2727 76.2943 41.9943 76.7749C41.7192 77.2521 41.3132 77.6217 40.7763 77.8835C40.2393 78.142 39.5798 78.2713 38.7976 78.2713H36.0781V76.7401H38.549C39.0064 76.7401 39.3809 76.6771 39.6726 76.5511C39.9643 76.4219 40.1797 76.2346 40.3189 75.9893C40.4614 75.7408 40.5327 75.4358 40.5327 75.0746C40.5327 74.7133 40.4614 74.4051 40.3189 74.1499C40.1764 73.8913 39.9593 73.6958 39.6676 73.5632C39.3759 73.4273 38.9998 73.3594 38.5391 73.3594H36.8487V82H35.0043ZM40.2642 77.3864L42.7848 82H40.7266L38.2507 77.3864H40.2642ZM47.3015 82.1491C46.5359 82.1491 45.8746 81.9901 45.3178 81.6719C44.7643 81.3504 44.3384 80.8963 44.0401 80.3097C43.7418 79.7197 43.5927 79.0253 43.5927 78.2266C43.5927 77.4411 43.7418 76.7517 44.0401 76.1584C44.3417 75.5618 44.7627 75.0978 45.3029 74.7663C45.8432 74.4316 46.4779 74.2642 47.207 74.2642C47.6777 74.2642 48.1218 74.3404 48.5394 74.4929C48.9603 74.642 49.3316 74.8741 49.6531 75.1889C49.9779 75.5038 50.2331 75.9048 50.4187 76.392C50.6043 76.8759 50.6971 77.4527 50.6971 78.1222V78.674H44.4379V77.4609H48.9719C48.9686 77.1162 48.8941 76.8097 48.7482 76.5412C48.6024 76.2694 48.3986 76.0556 48.1367 75.8999C47.8782 75.7441 47.5766 75.6662 47.2319 75.6662C46.864 75.6662 46.5408 75.7557 46.2624 75.9347C45.984 76.1103 45.7669 76.3423 45.6112 76.6307C45.4587 76.9157 45.3808 77.2289 45.3775 77.5703V78.6293C45.3775 79.0734 45.4587 79.4545 45.6211 79.7727C45.7835 80.0876 46.0105 80.3295 46.3022 80.4986C46.5939 80.6643 46.9353 80.7472 47.3263 80.7472C47.5882 80.7472 47.8252 80.7107 48.0373 80.6378C48.2494 80.5616 48.4334 80.4505 48.5891 80.3047C48.7449 80.1589 48.8626 79.9782 48.9421 79.7628L50.6225 79.9517C50.5165 80.3958 50.3143 80.7836 50.016 81.1151C49.721 81.4432 49.3432 81.6984 48.8825 81.8807C48.4218 82.0597 47.8948 82.1491 47.3015 82.1491ZM54.4171 82.1541C53.9332 82.1541 53.4973 82.0679 53.1096 81.8956C52.7251 81.7199 52.4202 81.4614 52.1948 81.12C51.9727 80.7786 51.8617 80.3577 51.8617 79.8572C51.8617 79.4264 51.9412 79.0701 52.1003 78.7884C52.2594 78.5066 52.4765 78.2812 52.7516 78.1122C53.0267 77.9432 53.3366 77.8156 53.6813 77.7294C54.0293 77.6399 54.3889 77.5753 54.7601 77.5355C55.2076 77.4891 55.5705 77.4477 55.8489 77.4112C56.1273 77.3714 56.3295 77.3118 56.4554 77.2322C56.5847 77.1494 56.6493 77.0218 56.6493 76.8494V76.8196C56.6493 76.4451 56.5383 76.1551 56.3162 75.9496C56.0942 75.7441 55.7743 75.6413 55.3567 75.6413C54.9159 75.6413 54.5662 75.7375 54.3077 75.9297C54.0525 76.1219 53.8801 76.349 53.7907 76.6108L52.1103 76.3722C52.2428 75.9081 52.4616 75.5204 52.7665 75.2088C53.0714 74.8939 53.4443 74.6586 53.8851 74.5028C54.3259 74.3438 54.8132 74.2642 55.3468 74.2642C55.7147 74.2642 56.0809 74.3073 56.4455 74.3935C56.8101 74.4796 57.1432 74.6222 57.4448 74.821C57.7464 75.0166 57.9883 75.2834 58.1706 75.6214C58.3562 75.9595 58.449 76.3821 58.449 76.8892V82H56.7189V80.951H56.6593C56.5499 81.1631 56.3958 81.362 56.1969 81.5476C56.0014 81.7299 55.7544 81.8774 55.4561 81.9901C55.1612 82.0994 54.8148 82.1541 54.4171 82.1541ZM54.8844 80.8317C55.2457 80.8317 55.5589 80.7604 55.824 80.6179C56.0892 80.4721 56.293 80.2798 56.4355 80.0412C56.5814 79.8026 56.6543 79.5424 56.6543 79.2607V78.3608C56.598 78.4072 56.5018 78.4503 56.3659 78.4901C56.2334 78.5298 56.0842 78.5646 55.9185 78.5945C55.7528 78.6243 55.5887 78.6508 55.4263 78.674C55.2639 78.6972 55.123 78.7171 55.0037 78.7337C54.7353 78.7701 54.495 78.8298 54.2828 78.9126C54.0707 78.9955 53.9034 79.1115 53.7807 79.2607C53.6581 79.4065 53.5968 79.5954 53.5968 79.8274C53.5968 80.1589 53.7177 80.4091 53.9597 80.5781C54.2016 80.7472 54.5099 80.8317 54.8844 80.8317ZM63.5897 82.1491C62.8274 82.1491 62.1728 81.9818 61.6259 81.647C61.0823 81.3123 60.6631 80.8499 60.3681 80.2599C60.0764 79.6667 59.9306 78.9839 59.9306 78.2116C59.9306 77.4361 60.0797 76.7517 60.378 76.1584C60.6763 75.5618 61.0972 75.0978 61.6408 74.7663C62.1877 74.4316 62.834 74.2642 63.5797 74.2642C64.1995 74.2642 64.748 74.3786 65.2253 74.6072C65.7059 74.8326 66.0887 75.1525 66.3738 75.5668C66.6588 75.9777 66.8212 76.4583 66.861 77.0085H65.1408C65.0712 76.6406 64.9055 76.334 64.6436 76.0888C64.3851 75.8402 64.0388 75.7159 63.6046 75.7159C63.2367 75.7159 62.9135 75.8153 62.6351 76.0142C62.3567 76.2098 62.1396 76.4915 61.9838 76.8594C61.8314 77.2273 61.7551 77.6681 61.7551 78.1818C61.7551 78.7022 61.8314 79.1496 61.9838 79.5241C62.1363 79.8954 62.3501 80.1821 62.6252 80.3842C62.9036 80.5831 63.2301 80.6825 63.6046 80.6825C63.8697 80.6825 64.1067 80.6328 64.3155 80.5334C64.5276 80.4306 64.705 80.2831 64.8475 80.0909C64.99 79.8987 65.0878 79.665 65.1408 79.3899H66.861C66.8179 79.9302 66.6588 80.4091 66.3837 80.8267C66.1086 81.241 65.7341 81.5658 65.2601 81.8011C64.7862 82.0331 64.2293 82.1491 63.5897 82.1491ZM72.152 74.3636V75.7557H67.7621V74.3636H72.152ZM68.8459 72.5341H70.6456V79.7031C70.6456 79.9451 70.6821 80.1307 70.755 80.2599C70.8312 80.3859 70.9306 80.4721 71.0533 80.5185C71.1759 80.5649 71.3118 80.5881 71.4609 80.5881C71.5736 80.5881 71.6764 80.5798 71.7692 80.5632C71.8653 80.5466 71.9382 80.5317 71.9879 80.5185L72.2912 81.9254C72.1951 81.9586 72.0575 81.995 71.8786 82.0348C71.7029 82.0746 71.4875 82.0978 71.2322 82.1044C70.7815 82.1177 70.3755 82.0497 70.0142 81.9006C69.6529 81.7481 69.3662 81.5128 69.1541 81.1946C68.9453 80.8764 68.8426 80.4787 68.8459 80.0014V72.5341Z" fill="white"/>
</g>
<defs>
<filter id="filter0_d_5828_13452" x="0" y="0" width="107" height="109" filterUnits="userSpaceOnUse" color-interpolation-filters="sRGB">
<feFlood flood-opacity="0" result="BackgroundImageFix"/>
<feColorMatrix in="SourceAlpha" type="matrix" values="0 0 0 0 0 0 0 0 0 0 0 0 0 0 0 0 0 0 127 0" result="hardAlpha"/>
<feOffset dy="2"/>
<feGaussianBlur stdDeviation="4"/>
<feColorMatrix type="matrix" values="0 0 0 0 0 0 0 0 0 0 0 0 0 0 0 0 0 0 0.25 0"/>
<feBlend mode="normal" in2="BackgroundImageFix" result="effect1_dropShadow_5828_13452"/>
<feBlend mode="normal" in="SourceGraphic" in2="effect1_dropShadow_5828_13452" result="shape"/>
</filter>
</defs>
</svg>
