<svg width="107" height="109" viewBox="0 0 107 109" fill="none" xmlns="http://www.w3.org/2000/svg">
<g filter="url(#filter0_d_5844_13261)">
<rect x="8" y="6" width="91" height="93" rx="12" fill="#151B23"/>
<rect x="9" y="7" width="89" height="91" rx="11" stroke="#1F2937" stroke-width="2"/>
<path d="M69.6934 30.0979C69.6934 28.0005 67.0671 26.0134 63.0414 24.7818C63.9696 20.6781 63.5571 17.4127 61.7379 16.3682C61.3181 16.1223 60.8277 16.006 60.2928 16.006V17.445C60.589 17.445 60.8277 17.5038 61.0279 17.6129C61.9057 18.1166 62.2871 20.0329 61.9885 22.4973C61.9089 23.1345 61.7993 23.7676 61.6599 24.3945C60.3116 24.069 58.943 23.8338 57.5634 23.6905C56.7408 22.5573 55.8443 21.4796 54.8796 20.4647C56.983 18.5099 58.9569 17.4391 60.2988 17.4391V16C58.524 16 56.2023 17.2652 53.853 19.4585C51.505 17.2772 49.1821 16.0252 47.4073 16.0252V17.4642C48.7432 17.4642 50.7243 18.5291 52.8277 20.4719C51.8657 21.4815 50.9754 22.557 50.1631 23.6905C48.7048 23.8464 47.3233 24.0839 46.0594 24.4005C45.9166 23.7828 45.8046 23.1585 45.7236 22.5297C45.4202 20.0653 45.7956 18.149 46.665 17.6393C46.8593 17.523 47.1111 17.4714 47.4085 17.4714V16.0324C46.8652 16.0324 46.3748 16.1487 45.9491 16.3933C44.1358 17.4391 43.7305 20.6973 44.6659 24.7878C40.6521 26.0266 38.0391 28.0077 38.0391 30.0979C38.0391 32.1941 40.6653 34.1824 44.6911 35.414C43.7617 39.5177 44.1754 42.7832 45.9946 43.8277C46.4143 44.0735 46.9048 44.1886 47.4457 44.1886C49.2205 44.1886 51.5434 42.9247 53.8914 40.7313C56.2407 42.9115 58.5635 44.1634 60.3372 44.1634C60.8792 44.1634 61.3697 44.0471 61.7954 43.8025C63.6086 42.7568 64.0152 39.4973 63.0786 35.408C67.0803 34.1752 69.6934 32.1881 69.6934 30.0979ZM61.2929 25.7939C61.0531 26.6262 60.7569 27.4848 60.4211 28.3423C59.8817 27.2935 59.2894 26.2729 58.6463 25.2843C59.536 25.4127 60.4192 25.5828 61.2929 25.7939ZM58.3369 32.6654C57.8535 33.5086 57.335 34.3312 56.7827 35.131C54.8466 35.3014 52.8994 35.3034 50.963 35.137C49.8522 33.5506 48.8809 31.871 48.0597 30.1171C48.8788 28.3587 49.8456 26.673 50.9498 25.078C52.8859 24.9076 54.8331 24.9056 56.7695 25.072C57.8802 26.6585 58.8516 28.338 59.6728 30.0919C59.2663 30.9553 58.8214 31.82 58.3369 32.6654ZM60.4211 31.826C60.7601 32.6686 61.0571 33.5249 61.3121 34.3947C60.4345 34.6082 59.5473 34.7803 58.6535 34.9103C59.2931 33.9124 59.8831 32.8822 60.4211 31.826ZM53.8794 38.713C53.279 38.0918 52.6814 37.4035 52.0866 36.648C52.667 36.6732 53.2618 36.6936 53.8614 36.6936C54.469 36.6944 55.0666 36.6792 55.6543 36.648C55.1003 37.3678 54.5078 38.0572 53.8794 38.713ZM49.0802 34.9115C48.1909 34.7834 47.3081 34.6138 46.4347 34.4031C46.6734 33.5708 46.9696 32.7122 47.3054 31.8536C47.5692 32.3692 47.8474 32.8861 48.1508 33.4029C48.4546 33.9186 48.7644 34.4207 49.0802 34.9115ZM53.8483 21.4852C54.4487 22.1056 55.0463 22.7939 55.6411 23.5502C55.0499 23.5218 54.4581 23.5066 53.8662 23.5047C53.2594 23.5039 52.6618 23.519 52.0734 23.5502C52.6283 22.8307 53.2199 22.1424 53.8483 21.4852ZM49.073 25.2867C48.4335 26.2827 47.8436 27.3097 47.3054 28.3639C46.9667 27.5228 46.6697 26.6655 46.4155 25.7951C47.2936 25.5869 48.1802 25.418 49.073 25.2867ZM43.234 33.3634C40.9495 32.3896 39.4721 31.1124 39.4721 30.0991C39.4721 29.0858 40.9495 27.8026 43.234 26.8337C43.7893 26.595 44.3961 26.3828 45.0209 26.1825C45.389 27.4477 45.8723 28.7632 46.4731 30.1123C45.9076 31.3814 45.4292 32.6876 45.0413 34.0217C44.4282 33.8326 43.8251 33.6129 43.234 33.3634ZM46.7058 42.5841C45.8279 42.0804 45.4466 40.1641 45.744 37.6997C45.8159 37.0929 45.9311 36.4537 46.0726 35.8026C47.4213 36.1281 48.7902 36.3633 50.1703 36.5065C51.0409 37.6997 51.9451 38.7838 52.8541 39.7324C50.7507 41.6871 48.7768 42.758 47.4337 42.758C47.1805 42.76 46.9307 42.7003 46.7058 42.5841ZM62.0101 37.6673C62.3135 40.1317 61.9381 42.048 61.0675 42.5577C60.8744 42.674 60.6226 42.7256 60.3252 42.7256C58.9905 42.7256 57.0094 41.6607 54.906 39.7192C55.868 38.7092 56.7584 37.6333 57.5706 36.4993C58.9533 36.3581 60.3245 36.1208 61.6743 35.7894C61.8246 36.4417 61.9365 37.0677 62.0101 37.6673ZM64.4936 33.3634C63.9384 33.6032 63.3328 33.8155 62.7068 34.0157C62.3118 32.6747 61.827 31.3618 61.2558 30.0859C61.8196 28.8161 62.298 27.5101 62.6876 26.1765C63.3272 26.3764 63.9312 26.5958 64.4996 26.8349C66.7841 27.8086 68.2616 29.0858 68.2616 30.0991C68.2556 31.1124 66.7781 32.3956 64.4936 33.3634Z" fill="#61DAFB"/>
<path d="M53.8614 33.0462C54.2487 33.0462 54.6321 32.9699 54.9899 32.8217C55.3477 32.6735 55.6727 32.4563 55.9466 32.1825C56.2204 31.9086 56.4376 31.5835 56.5858 31.2258C56.734 30.868 56.8103 30.4845 56.8103 30.0973C56.8103 29.71 56.734 29.3266 56.5858 28.9688C56.4376 28.611 56.2204 28.286 55.9466 28.0121C55.6727 27.7383 55.3477 27.5211 54.9899 27.3729C54.6321 27.2247 54.2487 27.1484 53.8614 27.1484C53.0793 27.1484 52.3293 27.4591 51.7762 28.0121C51.2232 28.5652 50.9125 29.3152 50.9125 30.0973C50.9125 30.8794 51.2232 31.6294 51.7762 32.1825C52.3293 32.7355 53.0793 33.0462 53.8614 33.0462ZM39.4781 49.2655H38.5043V50.942H37.9551V46.7975H39.327C39.7939 46.7975 40.1524 46.9038 40.4027 47.1165C40.6545 47.3283 40.7808 47.6377 40.7816 48.0447C40.7861 48.2863 40.7121 48.5228 40.5706 48.7186C40.4314 48.9105 40.238 49.0536 39.9901 49.1479L40.9639 50.9072V50.942H40.3763L39.4769 49.2655H39.4781ZM38.5043 48.8182H39.3438C39.6156 48.8182 39.831 48.7482 39.9901 48.6083C40.0696 48.538 40.1325 48.451 40.1743 48.3536C40.2162 48.2562 40.236 48.1507 40.2324 48.0447C40.2324 47.788 40.1552 47.5914 40.0009 47.4547C39.849 47.3188 39.6292 47.2496 39.3414 47.2472H38.5043V48.8182ZM42.7447 50.9983C42.3274 50.9983 41.9876 50.8616 41.7254 50.5882C41.464 50.314 41.3333 49.947 41.3333 49.4873V49.3914C41.3333 49.086 41.3912 48.8134 41.5071 48.5735C41.6148 48.3439 41.7842 48.1488 41.9964 48.0099C42.2067 47.874 42.4345 47.806 42.68 47.806C43.0797 47.806 43.3907 47.9379 43.613 48.2018C43.8352 48.4656 43.9463 48.8429 43.9463 49.3338V49.5533H41.8597C41.8677 49.8571 41.9556 50.1025 42.1235 50.2896C42.205 50.3807 42.3054 50.4529 42.4176 50.5011C42.5299 50.5494 42.6514 50.5726 42.7735 50.569C42.9384 50.5745 43.1017 50.5351 43.246 50.4551C43.3769 50.3768 43.4917 50.2742 43.5842 50.1529L43.9056 50.4047C43.6481 50.8005 43.2612 50.9983 42.7447 50.9983ZM42.68 48.2377C42.579 48.2355 42.4787 48.2552 42.3862 48.2956C42.2936 48.336 42.2109 48.396 42.1439 48.4716C42 48.6251 41.9109 48.841 41.8765 49.1192H43.4199V49.0808C43.4039 48.813 43.3319 48.6059 43.204 48.4596C43.1388 48.3858 43.0578 48.3276 42.9672 48.2892C42.8765 48.2509 42.7783 48.2333 42.68 48.2377ZM46.4587 50.942C46.4194 50.8379 46.3948 50.729 46.3855 50.6182C46.2742 50.7394 46.1386 50.8359 45.9876 50.9014C45.8366 50.9669 45.6735 50.9999 45.5089 50.9983C45.2361 51.0109 44.9687 50.9196 44.7606 50.7429C44.6667 50.662 44.5919 50.5614 44.5415 50.4482C44.4911 50.335 44.4664 50.212 44.4692 50.0881C44.4692 49.7667 44.5907 49.5181 44.8337 49.3422C45.0784 49.1639 45.4222 49.0748 45.8651 49.0748H46.3771V48.8326C46.3803 48.7522 46.3673 48.6721 46.3389 48.5969C46.3104 48.5217 46.2672 48.453 46.2116 48.3948C46.1013 48.2845 45.939 48.2294 45.7248 48.2294C45.5558 48.2236 45.3898 48.2738 45.2523 48.3721C45.1252 48.4672 45.0616 48.5819 45.0616 48.7162H44.5327C44.5327 48.5619 44.5867 48.414 44.6946 48.2725C44.8114 48.1231 44.964 48.0055 45.1383 47.9307C45.3262 47.8468 45.5321 47.8048 45.7559 47.8048C46.1109 47.8048 46.3887 47.8944 46.5894 48.0735C46.7909 48.2493 46.8952 48.4932 46.9024 48.805V50.2212C46.9024 50.5043 46.9384 50.7293 47.0103 50.8964V50.942H46.4587ZM45.5857 50.5402C45.7504 50.5384 45.9119 50.4942 46.0545 50.4119C46.1932 50.3364 46.3057 50.2206 46.3771 50.0797V49.4477H45.9634C45.3182 49.4477 44.9956 49.6364 44.9956 50.0138C44.9919 50.0867 45.0049 50.1595 45.0336 50.2266C45.0623 50.2937 45.1059 50.3534 45.1611 50.4011C45.2811 50.4973 45.432 50.5468 45.5857 50.5402ZM48.9638 50.569C49.1429 50.5719 49.3171 50.5111 49.4555 50.3975C49.5222 50.3467 49.5774 50.2824 49.6177 50.2089C49.658 50.1353 49.6824 50.0542 49.6894 49.9706H50.187C50.1753 50.1524 50.1121 50.3271 50.0047 50.4743C49.8891 50.6373 49.7345 50.7688 49.555 50.8568C49.3717 50.9494 49.1692 50.9978 48.9638 50.9983C48.5441 50.9983 48.2099 50.8588 47.9613 50.5798C47.7151 50.3 47.5919 49.9166 47.5919 49.4298V49.3422C47.5919 49.0424 47.6467 48.7758 47.7562 48.5423C47.8666 48.3089 48.0244 48.1278 48.2299 47.9991C48.4362 47.8696 48.68 47.8048 48.9614 47.8048C49.3052 47.8048 49.5914 47.9088 49.8201 48.1166C49.9333 48.2181 50.0243 48.3418 50.0875 48.48C50.1506 48.6183 50.1845 48.7681 50.187 48.9201H49.6894C49.6797 48.7341 49.5984 48.5591 49.4624 48.4318C49.3265 48.3046 49.1464 48.235 48.9602 48.2377C48.8406 48.2323 48.7214 48.2559 48.6129 48.3064C48.5043 48.3569 48.4095 48.4329 48.3366 48.528C48.1911 48.7198 48.1184 48.998 48.1184 49.3626V49.4621C48.1184 49.8163 48.1915 50.0893 48.3378 50.2812C48.4833 50.4731 48.692 50.569 48.9638 50.569ZM51.4942 47.1165V47.8624H52.0686V48.2701H51.493V50.1793C51.493 50.3016 51.5189 50.3943 51.5709 50.4575C51.6213 50.5182 51.7084 50.5486 51.8323 50.5486C51.8923 50.5486 51.9758 50.5374 52.083 50.515V50.942C51.9513 50.9784 51.8154 50.9973 51.6788 50.9983C51.4438 50.9983 51.2663 50.9272 51.1464 50.7849C51.0265 50.6426 50.9665 50.4407 50.9665 50.1793V48.2689H50.4065V47.8612H50.9677V47.1177L51.4942 47.1165ZM57.3991 50.942H56.8498L54.7632 47.7485V50.942H54.2152V46.7975H54.7644L56.8558 50.0054V46.7975H57.3991V50.942ZM60.1884 50.942C60.1488 50.838 60.1237 50.729 60.1141 50.6182C60.0029 50.7392 59.8675 50.8356 59.7167 50.9011C59.5659 50.9666 59.4031 50.9997 59.2387 50.9983C58.9655 51.0112 58.6976 50.9199 58.4892 50.7429C58.3955 50.6619 58.3209 50.5612 58.2707 50.448C58.2205 50.3348 58.196 50.2119 58.1989 50.0881C58.1989 49.7667 58.3205 49.5181 58.5635 49.3422C58.8081 49.1639 59.1515 49.0748 59.5936 49.0748H60.1057V48.8326C60.1089 48.7522 60.0958 48.6721 60.0674 48.5969C60.039 48.5217 59.9957 48.453 59.9402 48.3948C59.8307 48.2845 59.6688 48.2294 59.4545 48.2294C59.2856 48.2236 59.1195 48.2738 58.982 48.3721C58.8541 48.4672 58.7902 48.5819 58.7902 48.7162H58.2625C58.2625 48.5619 58.3165 48.414 58.4244 48.2725C58.5412 48.1231 58.6938 48.0055 58.8681 47.9307C59.0552 47.8468 59.261 47.8048 59.4857 47.8048C59.8399 47.8048 60.1177 47.8944 60.3191 48.0735C60.5206 48.2493 60.6249 48.4932 60.6321 48.805V50.2212C60.6321 50.5043 60.6681 50.7293 60.7401 50.8964V50.942H60.1884ZM59.3142 50.5402C59.4793 50.5386 59.6413 50.4944 59.7843 50.4119C59.9226 50.3362 60.0346 50.2204 60.1057 50.0797V49.4477H59.6932C59.048 49.4477 58.7254 49.6364 58.7254 50.0138C58.7217 50.0867 58.7347 50.1595 58.7634 50.2266C58.792 50.2937 58.8357 50.3534 58.8909 50.4011C59.0106 50.4971 59.1609 50.5465 59.3142 50.5402ZM62.1719 47.1165V47.8624H62.7476V48.2701H62.1719V50.1793C62.1719 50.3016 62.1975 50.3943 62.2487 50.4575C62.3006 50.5182 62.3878 50.5486 62.5101 50.5486C62.5709 50.5486 62.6548 50.5374 62.7619 50.515V50.942C62.6299 50.9785 62.4936 50.9974 62.3566 50.9983C62.1216 50.9983 61.9441 50.9272 61.8242 50.7849C61.7042 50.6426 61.6447 50.4407 61.6455 50.1793V48.2689H61.0842V47.8612H61.6455V47.1177L62.1719 47.1165ZM63.936 50.942H63.4095V47.8624H63.9372L63.936 50.942ZM63.3675 47.0445C63.3675 46.9606 63.3931 46.8886 63.4443 46.8287C63.4979 46.7703 63.5754 46.7411 63.6769 46.7411C63.7793 46.7411 63.8572 46.7703 63.9108 46.8287C63.9641 46.8877 63.9929 46.965 63.9911 47.0445C63.9938 47.1239 63.9649 47.2011 63.9108 47.2592C63.858 47.3152 63.7805 47.3435 63.6781 47.3443C63.5758 47.3451 63.4979 47.3168 63.4443 47.2592C63.3928 47.2002 63.3654 47.1228 63.3675 47.0445ZM65.7983 50.2272L66.561 47.8624H67.0983L65.995 50.942H65.5933L64.478 47.8624H65.0153L65.7983 50.2272ZM68.8431 50.9983C68.4258 50.9983 68.086 50.8616 67.8238 50.5882C67.5624 50.314 67.4317 49.947 67.4317 49.4873V49.3914C67.4317 49.086 67.4896 48.8134 67.6056 48.5735C67.7231 48.3337 67.8862 48.1458 68.0948 48.0099C68.3043 47.874 68.5321 47.806 68.7784 47.806C69.1781 47.806 69.4891 47.9379 69.7114 48.2018C69.9328 48.4656 70.0435 48.8429 70.0435 49.3338V49.5533H67.9569C67.9649 49.8571 68.0537 50.1025 68.2231 50.2896C68.3044 50.3804 68.4043 50.4524 68.5162 50.5006C68.628 50.5489 68.749 50.5722 68.8707 50.569C69.036 50.5741 69.1996 50.5348 69.3444 50.4551C69.4753 50.3768 69.5901 50.2742 69.6826 50.1529L70.004 50.4047C69.7457 50.8005 69.3588 50.9983 68.8431 50.9983ZM68.7772 48.2377C68.6764 48.2356 68.5764 48.2555 68.484 48.2958C68.3917 48.3362 68.3092 48.3962 68.2423 48.4716C68.0984 48.6251 68.0093 48.841 67.9749 49.1192H69.5171V49.0808C69.5027 48.813 69.4307 48.6059 69.3012 48.4596C69.236 48.3858 69.1551 48.3276 69.0644 48.2892C68.9737 48.2509 68.8756 48.2333 68.7772 48.2377Z" fill="#61DAFB"/>
<path d="M37.7612 73.5V64.7727H41.0339C41.7044 64.7727 42.2669 64.8892 42.7214 65.1222C43.1788 65.3551 43.524 65.6818 43.7569 66.1023C43.9927 66.5199 44.1106 67.0071 44.1106 67.5639C44.1106 68.1236 43.9913 68.6094 43.7527 69.0213C43.5169 69.4304 43.1689 69.7472 42.7086 69.9716C42.2484 70.1932 41.6831 70.304 41.0126 70.304H38.6816V68.9915H40.7995C41.1916 68.9915 41.5126 68.9375 41.7626 68.8295C42.0126 68.7187 42.1973 68.5582 42.3166 68.348C42.4387 68.1349 42.4998 67.8736 42.4998 67.5639C42.4998 67.2543 42.4387 66.9901 42.3166 66.7713C42.1944 66.5497 42.0083 66.3821 41.7583 66.2685C41.5083 66.152 41.1859 66.0938 40.791 66.0938H39.3422V73.5H37.7612ZM42.2697 69.5455L44.4302 73.5H42.666L40.5439 69.5455H42.2697ZM48.3017 73.6278C47.6454 73.6278 47.0787 73.4915 46.6014 73.2188C46.127 72.9432 45.7619 72.554 45.5062 72.0511C45.2505 71.5455 45.1227 70.9503 45.1227 70.2656C45.1227 69.5923 45.2505 69.0014 45.5062 68.4929C45.7647 67.9815 46.1255 67.5838 46.5886 67.2997C47.0517 67.0128 47.5957 66.8693 48.2207 66.8693C48.6241 66.8693 49.0048 66.9347 49.3627 67.0653C49.7235 67.1932 50.0417 67.392 50.3173 67.6619C50.5957 67.9318 50.8145 68.2756 50.9735 68.6932C51.1326 69.108 51.2122 69.6023 51.2122 70.1761V70.6491H45.8471V69.6094H49.7335C49.7306 69.3139 49.6667 69.0511 49.5417 68.821C49.4167 68.5881 49.242 68.4048 49.0176 68.2713C48.796 68.1378 48.5375 68.071 48.242 68.071C47.9267 68.071 47.6497 68.1477 47.411 68.3011C47.1724 68.4517 46.9863 68.6506 46.8528 68.8977C46.7221 69.142 46.6554 69.4105 46.6525 69.7031V70.6108C46.6525 70.9915 46.7221 71.3182 46.8613 71.5909C47.0005 71.8608 47.1951 72.0682 47.4451 72.2131C47.6951 72.3551 47.9877 72.4261 48.323 72.4261C48.5474 72.4261 48.7505 72.3949 48.9324 72.3324C49.1142 72.267 49.2718 72.1719 49.4054 72.0469C49.5389 71.9219 49.6397 71.767 49.7079 71.5824L51.1483 71.7443C51.0574 72.125 50.8841 72.4574 50.6284 72.7415C50.3755 73.0227 50.0517 73.2415 49.6568 73.3977C49.2619 73.5511 48.8102 73.6278 48.3017 73.6278ZM54.4007 73.6321C53.986 73.6321 53.6124 73.5582 53.28 73.4105C52.9505 73.2599 52.6891 73.0384 52.4959 72.7457C52.3056 72.4531 52.2104 72.0923 52.2104 71.6634C52.2104 71.294 52.2786 70.9886 52.415 70.7472C52.5513 70.5057 52.7374 70.3125 52.9732 70.1676C53.209 70.0227 53.4746 69.9134 53.7701 69.8395C54.0684 69.7628 54.3766 69.7074 54.6948 69.6733C55.0783 69.6335 55.3894 69.598 55.628 69.5668C55.8667 69.5327 56.04 69.4815 56.1479 69.4134C56.2587 69.3423 56.3141 69.233 56.3141 69.0852V69.0597C56.3141 68.7386 56.2189 68.4901 56.0286 68.3139C55.8382 68.1378 55.5641 68.0497 55.2061 68.0497C54.8283 68.0497 54.5286 68.1321 54.307 68.2969C54.0882 68.4616 53.9405 68.6562 53.8638 68.8807L52.4235 68.6761C52.5371 68.2784 52.7246 67.946 52.986 67.679C53.2473 67.4091 53.5669 67.2074 53.9448 67.0739C54.3226 66.9375 54.7402 66.8693 55.1976 66.8693C55.513 66.8693 55.8269 66.9062 56.1394 66.9801C56.4519 67.054 56.7374 67.1761 56.9959 67.3466C57.2544 67.5142 57.4618 67.7429 57.6181 68.0327C57.7772 68.3224 57.8567 68.6847 57.8567 69.1193V73.5H56.3738V72.6009H56.3226C56.2289 72.7827 56.0968 72.9531 55.9263 73.1122C55.7587 73.2685 55.5471 73.3949 55.2914 73.4915C55.0385 73.5852 54.7417 73.6321 54.4007 73.6321ZM54.8013 72.4986C55.111 72.4986 55.3794 72.4375 55.6067 72.3153C55.834 72.1903 56.0087 72.0256 56.1309 71.821C56.2559 71.6165 56.3184 71.3935 56.3184 71.152V70.3807C56.2701 70.4205 56.1877 70.4574 56.0712 70.4915C55.9576 70.5256 55.8297 70.5554 55.6877 70.581C55.5456 70.6065 55.405 70.6293 55.2658 70.6491C55.1266 70.669 55.0059 70.6861 54.9036 70.7003C54.6735 70.7315 54.4675 70.7827 54.2857 70.8537C54.1039 70.9247 53.9604 71.0241 53.8553 71.152C53.7502 71.277 53.6976 71.4389 53.6976 71.6378C53.6976 71.9219 53.8013 72.1364 54.0087 72.2812C54.2161 72.4261 54.4803 72.4986 54.8013 72.4986ZM62.263 73.6278C61.6096 73.6278 61.0485 73.4844 60.5797 73.1974C60.1138 72.9105 59.7544 72.5142 59.5016 72.0085C59.2516 71.5 59.1266 70.9148 59.1266 70.2528C59.1266 69.5881 59.2544 69.0014 59.5101 68.4929C59.7658 67.9815 60.1266 67.5838 60.5925 67.2997C61.0613 67.0128 61.6152 66.8693 62.2544 66.8693C62.7857 66.8693 63.2559 66.9673 63.665 67.1634C64.0769 67.3565 64.405 67.6307 64.6493 67.9858C64.8936 68.3381 65.0328 68.75 65.0669 69.2216H63.5925C63.5328 68.9062 63.3908 68.6435 63.1664 68.4332C62.9448 68.2202 62.6479 68.1136 62.2757 68.1136C61.9604 68.1136 61.6834 68.1989 61.4448 68.3693C61.2061 68.5369 61.0201 68.7784 60.8865 69.0938C60.7559 69.4091 60.6905 69.7869 60.6905 70.2273C60.6905 70.6733 60.7559 71.0568 60.8865 71.3778C61.0172 71.696 61.2005 71.9418 61.4363 72.1151C61.6749 72.2855 61.9547 72.3707 62.2757 72.3707C62.503 72.3707 62.7061 72.3281 62.8851 72.2429C63.0669 72.1548 63.2189 72.0284 63.3411 71.8636C63.4632 71.6989 63.5471 71.4986 63.5925 71.2628H65.0669C65.03 71.7259 64.8936 72.1364 64.6578 72.4943C64.4221 72.8494 64.101 73.1278 63.6948 73.3295C63.2885 73.5284 62.8113 73.6278 62.263 73.6278ZM69.6021 66.9545V68.1477H65.8393V66.9545H69.6021ZM66.7683 65.3864H68.3109V71.5312C68.3109 71.7386 68.3422 71.8977 68.4047 72.0085C68.47 72.1165 68.5552 72.1903 68.6603 72.2301C68.7654 72.2699 68.8819 72.2898 69.0098 72.2898C69.1064 72.2898 69.1944 72.2827 69.274 72.2685C69.3564 72.2543 69.4189 72.2415 69.4615 72.2301L69.7214 73.4361C69.639 73.4645 69.5211 73.4957 69.3677 73.5298C69.2172 73.5639 69.0325 73.5838 68.8137 73.5895C68.4274 73.6009 68.0794 73.5426 67.7697 73.4148C67.46 73.2841 67.2143 73.0824 67.0325 72.8097C66.8535 72.5369 66.7654 72.196 66.7683 71.7869V65.3864ZM42.894 79.7727V88.5H41.4877L37.3755 82.5554H37.3031V88.5H35.7221V79.7727H37.1369L41.2449 85.7216H41.3216V79.7727H42.894ZM46.432 88.6321C46.0172 88.6321 45.6436 88.5582 45.3113 88.4105C44.9817 88.2599 44.7203 88.0384 44.5272 87.7457C44.3368 87.4531 44.2417 87.0923 44.2417 86.6634C44.2417 86.294 44.3098 85.9886 44.4462 85.7472C44.5826 85.5057 44.7686 85.3125 45.0044 85.1676C45.2402 85.0227 45.5059 84.9134 45.8013 84.8395C46.0996 84.7628 46.4078 84.7074 46.726 84.6733C47.1096 84.6335 47.4206 84.598 47.6593 84.5668C47.8979 84.5327 48.0712 84.4815 48.1792 84.4134C48.29 84.3423 48.3453 84.233 48.3453 84.0852V84.0597C48.3453 83.7386 48.2502 83.4901 48.0598 83.3139C47.8695 83.1378 47.5953 83.0497 47.2374 83.0497C46.8596 83.0497 46.5598 83.1321 46.3382 83.2969C46.1195 83.4616 45.9718 83.6562 45.8951 83.8807L44.4547 83.6761C44.5684 83.2784 44.7559 82.946 45.0172 82.679C45.2786 82.4091 45.5982 82.2074 45.976 82.0739C46.3539 81.9375 46.7715 81.8693 47.2289 81.8693C47.5442 81.8693 47.8581 81.9062 48.1706 81.9801C48.4831 82.054 48.7686 82.1761 49.0272 82.3466C49.2857 82.5142 49.4931 82.7429 49.6493 83.0327C49.8084 83.3224 49.888 83.6847 49.888 84.1193V88.5H48.405V87.6009H48.3539C48.2601 87.7827 48.128 87.9531 47.9576 88.1122C47.79 88.2685 47.5783 88.3949 47.3226 88.4915C47.0698 88.5852 46.7729 88.6321 46.432 88.6321ZM46.8326 87.4986C47.1422 87.4986 47.4107 87.4375 47.638 87.3153C47.8652 87.1903 48.04 87.0256 48.1621 86.821C48.2871 86.6165 48.3496 86.3935 48.3496 86.152V85.3807C48.3013 85.4205 48.2189 85.4574 48.1025 85.4915C47.9888 85.5256 47.861 85.5554 47.7189 85.581C47.5769 85.6065 47.4363 85.6293 47.2971 85.6491C47.1578 85.669 47.0371 85.6861 46.9348 85.7003C46.7047 85.7315 46.4988 85.7827 46.3169 85.8537C46.1351 85.9247 45.9917 86.0241 45.8865 86.152C45.7814 86.277 45.7289 86.4389 45.7289 86.6378C45.7289 86.9219 45.8326 87.1364 46.04 87.2812C46.2473 87.4261 46.5115 87.4986 46.8326 87.4986ZM54.7076 81.9545V83.1477H50.9448V81.9545H54.7076ZM51.8738 80.3864H53.4164V86.5312C53.4164 86.7386 53.4476 86.8977 53.5101 87.0085C53.5755 87.1165 53.6607 87.1903 53.7658 87.2301C53.8709 87.2699 53.9874 87.2898 54.1152 87.2898C54.2118 87.2898 54.2999 87.2827 54.3794 87.2685C54.4618 87.2543 54.5243 87.2415 54.5669 87.2301L54.8269 88.4361C54.7445 88.4645 54.6266 88.4957 54.4732 88.5298C54.3226 88.5639 54.138 88.5838 53.9192 88.5895C53.5328 88.6009 53.1848 88.5426 52.8752 88.4148C52.5655 88.2841 52.3198 88.0824 52.138 87.8097C51.959 87.5369 51.8709 87.196 51.8738 86.7869V80.3864ZM55.9977 88.5V81.9545H57.5403V88.5H55.9977ZM56.7733 81.0256C56.5289 81.0256 56.3187 80.9446 56.1426 80.7827C55.9664 80.6179 55.8784 80.4205 55.8784 80.1903C55.8784 79.9574 55.9664 79.7599 56.1426 79.598C56.3187 79.4332 56.5289 79.3509 56.7733 79.3509C57.0204 79.3509 57.2306 79.4332 57.4039 79.598C57.5801 79.7599 57.6681 79.9574 57.6681 80.1903C57.6681 80.4205 57.5801 80.6179 57.4039 80.7827C57.2306 80.9446 57.0204 81.0256 56.7733 81.0256ZM64.9732 81.9545L62.6422 88.5H60.9377L58.6067 81.9545H60.2516L61.7559 86.8168H61.824L63.3326 81.9545H64.9732ZM68.7157 88.6278C68.0595 88.6278 67.4927 88.4915 67.0154 88.2188C66.541 87.9432 66.176 87.554 65.9203 87.0511C65.6646 86.5455 65.5368 85.9503 65.5368 85.2656C65.5368 84.5923 65.6646 84.0014 65.9203 83.4929C66.1788 82.9815 66.5396 82.5838 67.0027 82.2997C67.4657 82.0128 68.0098 81.8693 68.6348 81.8693C69.0382 81.8693 69.4189 81.9347 69.7768 82.0653C70.1376 82.1932 70.4558 82.392 70.7314 82.6619C71.0098 82.9318 71.2285 83.2756 71.3876 83.6932C71.5467 84.108 71.6262 84.6023 71.6262 85.1761V85.6491H66.2612V84.6094H70.1475C70.1447 84.3139 70.0808 84.0511 69.9558 83.821C69.8308 83.5881 69.6561 83.4048 69.4316 83.2713C69.21 83.1378 68.9515 83.071 68.6561 83.071C68.3407 83.071 68.0637 83.1477 67.8251 83.3011C67.5865 83.4517 67.4004 83.6506 67.2669 83.8977C67.1362 84.142 67.0694 84.4105 67.0666 84.7031V85.6108C67.0666 85.9915 67.1362 86.3182 67.2754 86.5909C67.4146 86.8608 67.6092 87.0682 67.8592 87.2131C68.1092 87.3551 68.4018 87.4261 68.737 87.4261C68.9615 87.4261 69.1646 87.3949 69.3464 87.3324C69.5282 87.267 69.6859 87.1719 69.8194 87.0469C69.9529 86.9219 70.0538 86.767 70.122 86.5824L71.5623 86.7443C71.4714 87.125 71.2981 87.4574 71.0424 87.7415C70.7896 88.0227 70.4657 88.2415 70.0708 88.3977C69.676 88.5511 69.2243 88.6278 68.7157 88.6278Z" fill="white"/>
</g>
<defs>
<filter id="filter0_d_5844_13261" x="0" y="0" width="107" height="109" filterUnits="userSpaceOnUse" color-interpolation-filters="sRGB">
<feFlood flood-opacity="0" result="BackgroundImageFix"/>
<feColorMatrix in="SourceAlpha" type="matrix" values="0 0 0 0 0 0 0 0 0 0 0 0 0 0 0 0 0 0 127 0" result="hardAlpha"/>
<feOffset dy="2"/>
<feGaussianBlur stdDeviation="4"/>
<feColorMatrix type="matrix" values="0 0 0 0 0 0 0 0 0 0 0 0 0 0 0 0 0 0 0.25 0"/>
<feBlend mode="normal" in2="BackgroundImageFix" result="effect1_dropShadow_5844_13261"/>
<feBlend mode="normal" in="SourceGraphic" in2="effect1_dropShadow_5844_13261" result="shape"/>
</filter>
</defs>
</svg>
