<svg width="107" height="109" viewBox="0 0 107 109" fill="none" xmlns="http://www.w3.org/2000/svg">
<g filter="url(#filter0_d_5829_13143)">
<rect x="8" y="6" width="91" height="93" rx="12" fill="#151B23"/>
<rect x="9" y="7" width="89" height="91" rx="11" stroke="#1F2937" stroke-width="2"/>
<path d="M60.2182 46.4486C60.8398 46.3884 61.415 46.0935 61.8267 45.624C62.2384 45.1545 62.4556 44.5457 62.4341 43.9216C62.39 42.6146 61.2815 41.5688 59.9524 41.5688H59.863C59.5398 41.5769 59.2214 41.6488 58.926 41.7803C58.6306 41.9118 58.3641 42.1004 58.1419 42.3352C57.9196 42.57 57.7459 42.8464 57.6307 43.1485C57.5155 43.4506 57.4611 43.7725 57.4707 44.0957C57.5019 44.7016 57.7538 45.2751 58.1788 45.708C56.6733 48.6273 54.3692 50.7619 50.9125 52.5484C48.5631 53.7671 46.1267 54.2036 43.6891 53.8983C41.6949 53.6371 40.1441 52.7654 39.1691 51.3284C37.7507 49.1926 37.6183 46.8839 38.8151 44.5751C39.6566 42.9199 40.9857 41.6999 41.8284 41.0894C41.5996 40.3588 41.407 39.6173 41.2515 38.8677C34.8267 43.4422 35.4918 49.6279 37.4407 52.5484C38.9033 54.7259 41.8725 56.077 45.1516 56.077C46.0373 56.077 46.9241 55.99 47.8098 55.7718C53.4824 54.683 57.7807 51.3725 60.2182 46.4486ZM68.0174 41.0464C64.65 37.1695 59.6866 35.0337 54.014 35.0337H53.3059C53.0986 34.6376 52.7863 34.3062 52.4033 34.0757C52.0203 33.8452 51.5812 33.7245 51.1342 33.7267H51.0448C50.7216 33.7348 50.4031 33.8067 50.1077 33.9382C49.8124 34.0697 49.5459 34.2583 49.3236 34.4931C49.1013 34.7279 48.9276 35.0043 48.8124 35.3064C48.6972 35.6086 48.6429 35.9305 48.6525 36.2537C48.6966 37.5607 49.8039 38.6065 51.1342 38.6065H51.2224C51.6861 38.5859 52.135 38.4364 52.5184 38.1748C52.9019 37.9131 53.2047 37.5497 53.393 37.1254H54.1916C57.559 37.1254 60.7499 38.083 63.6309 39.9576C65.8456 41.3946 67.4416 43.2681 68.3273 45.5339C69.0818 47.3633 69.0353 49.1497 68.2391 50.6749C66.9971 52.9836 64.9158 54.2465 62.1683 54.2465C60.3958 54.2465 58.7116 53.7242 57.8248 53.3319C57.1853 53.8863 56.5198 54.41 55.8306 54.9012C57.7377 55.7706 59.6878 56.25 61.5473 56.25C65.8015 56.25 68.9483 53.9401 70.1439 51.6314C71.4288 49.1044 71.3406 44.7481 68.0174 41.0453V41.0464ZM45.5057 47.1891C45.5498 48.4962 46.6583 49.542 47.9874 49.542H48.0767C48.4 49.5339 48.7184 49.462 49.0138 49.3305C49.3092 49.1989 49.5756 49.0104 49.7979 48.7756C50.0202 48.5408 50.1939 48.2644 50.3091 47.9622C50.4243 47.6601 50.4786 47.3382 50.4691 47.015C50.4249 45.708 49.3164 44.6622 47.9874 44.6622H47.8991C47.8098 44.6622 47.6774 44.6622 47.5892 44.7051C45.7715 41.7429 45.0181 38.5183 45.2851 35.0337C45.4616 32.4197 46.3484 30.1539 47.8991 28.2804C49.1841 26.6681 51.6658 25.8846 53.35 25.8417C58.0465 25.7535 60.0406 31.505 60.1741 33.8138C60.7499 33.9449 61.7249 34.2502 62.3889 34.4673C61.8572 27.4099 57.4266 23.75 53.1725 23.75C49.1841 23.75 45.5057 26.5822 44.0431 30.7644C42.0048 36.3407 43.3351 41.6988 45.8156 45.9251C45.595 46.2304 45.4616 46.7097 45.5057 47.1891Z" fill="#764ABC"/>
<path d="M33.0043 82V71.8182H36.8224C37.6046 71.8182 38.2609 71.9541 38.7912 72.2259C39.3248 72.4976 39.7275 72.8788 39.9993 73.3693C40.2744 73.8565 40.4119 74.425 40.4119 75.0746C40.4119 75.7275 40.2727 76.2943 39.9943 76.7749C39.7192 77.2521 39.3132 77.6217 38.7763 77.8835C38.2393 78.142 37.5798 78.2713 36.7976 78.2713H34.0781V76.7401H36.549C37.0064 76.7401 37.3809 76.6771 37.6726 76.5511C37.9643 76.4219 38.1797 76.2346 38.3189 75.9893C38.4614 75.7408 38.5327 75.4358 38.5327 75.0746C38.5327 74.7133 38.4614 74.4051 38.3189 74.1499C38.1764 73.8913 37.9593 73.6958 37.6676 73.5632C37.3759 73.4273 36.9998 73.3594 36.5391 73.3594H34.8487V82H33.0043ZM38.2642 77.3864L40.7848 82H38.7266L36.2507 77.3864H38.2642ZM45.3015 82.1491C44.5359 82.1491 43.8746 81.9901 43.3178 81.6719C42.7643 81.3504 42.3384 80.8963 42.0401 80.3097C41.7418 79.7197 41.5927 79.0253 41.5927 78.2266C41.5927 77.4411 41.7418 76.7517 42.0401 76.1584C42.3417 75.5618 42.7627 75.0978 43.3029 74.7663C43.8432 74.4316 44.4779 74.2642 45.207 74.2642C45.6777 74.2642 46.1218 74.3404 46.5394 74.4929C46.9603 74.642 47.3316 74.8741 47.6531 75.1889C47.9779 75.5038 48.2331 75.9048 48.4187 76.392C48.6043 76.8759 48.6971 77.4527 48.6971 78.1222V78.674H42.4379V77.4609H46.9719C46.9686 77.1162 46.8941 76.8097 46.7482 76.5412C46.6024 76.2694 46.3986 76.0556 46.1367 75.8999C45.8782 75.7441 45.5766 75.6662 45.2319 75.6662C44.864 75.6662 44.5408 75.7557 44.2624 75.9347C43.984 76.1103 43.7669 76.3423 43.6112 76.6307C43.4587 76.9157 43.3808 77.2289 43.3775 77.5703V78.6293C43.3775 79.0734 43.4587 79.4545 43.6211 79.7727C43.7835 80.0876 44.0105 80.3295 44.3022 80.4986C44.5939 80.6643 44.9353 80.7472 45.3263 80.7472C45.5882 80.7472 45.8252 80.7107 46.0373 80.6378C46.2494 80.5616 46.4334 80.4505 46.5891 80.3047C46.7449 80.1589 46.8626 79.9782 46.9421 79.7628L48.6225 79.9517C48.5165 80.3958 48.3143 80.7836 48.016 81.1151C47.721 81.4432 47.3432 81.6984 46.8825 81.8807C46.4218 82.0597 45.8948 82.1491 45.3015 82.1491ZM53.0534 82.1342C52.4535 82.1342 51.9166 81.9801 51.4426 81.6719C50.9687 81.3636 50.5942 80.9162 50.3191 80.3295C50.044 79.7429 49.9064 79.0303 49.9064 78.1918C49.9064 77.3433 50.0456 76.6274 50.324 76.044C50.6058 75.4574 50.9853 75.0149 51.4625 74.7166C51.9398 74.415 52.4718 74.2642 53.0584 74.2642C53.5059 74.2642 53.8738 74.3404 54.1621 74.4929C54.4505 74.642 54.6792 74.8227 54.8482 75.0348C55.0172 75.2436 55.1481 75.4408 55.2409 75.6264H55.3155V71.8182H57.1202V82H55.3503V80.7969H55.2409C55.1481 80.9825 55.0139 81.1797 54.8382 81.3885C54.6626 81.594 54.4306 81.7696 54.1422 81.9155C53.8539 82.0613 53.4909 82.1342 53.0534 82.1342ZM53.5556 80.6577C53.9367 80.6577 54.2615 80.5549 54.53 80.3494C54.7985 80.1406 55.0023 79.8506 55.1415 79.4794C55.2807 79.1082 55.3503 78.6757 55.3503 78.1818C55.3503 77.688 55.2807 77.2588 55.1415 76.8942C55.0056 76.5296 54.8034 76.2462 54.535 76.044C54.2698 75.8419 53.9434 75.7408 53.5556 75.7408C53.1545 75.7408 52.8198 75.8452 52.5513 76.054C52.2828 76.2628 52.0807 76.5511 51.9448 76.919C51.8089 77.2869 51.7409 77.7079 51.7409 78.1818C51.7409 78.6591 51.8089 79.085 51.9448 79.4595C52.084 79.8307 52.2878 80.1241 52.5563 80.3395C52.8281 80.5516 53.1612 80.6577 53.5556 80.6577ZM63.9052 78.7884V74.3636H65.7049V82H63.9599V80.6428H63.8803C63.708 81.0703 63.4246 81.42 63.0302 81.6918C62.6391 81.9635 62.1568 82.0994 61.5835 82.0994C61.083 82.0994 60.6405 81.9884 60.256 81.7663C59.8749 81.541 59.5766 81.2145 59.3612 80.7869C59.1457 80.3561 59.038 79.8357 59.038 79.2259V74.3636H60.8377V78.9474C60.8377 79.4313 60.9703 79.8158 61.2354 80.1009C61.5006 80.3859 61.8486 80.5284 62.2795 80.5284C62.5446 80.5284 62.8015 80.4638 63.0501 80.3345C63.2987 80.2053 63.5025 80.013 63.6616 79.7578C63.824 79.4993 63.9052 79.1761 63.9052 78.7884ZM69.0272 74.3636L70.5684 77.1825L72.1344 74.3636H74.0385L71.7367 78.1818L74.0783 82H72.1841L70.5684 79.2507L68.9675 82H67.0584L69.3851 78.1818L67.1181 74.3636H69.0272Z" fill="white"/>
</g>
<defs>
<filter id="filter0_d_5829_13143" x="0" y="0" width="107" height="109" filterUnits="userSpaceOnUse" color-interpolation-filters="sRGB">
<feFlood flood-opacity="0" result="BackgroundImageFix"/>
<feColorMatrix in="SourceAlpha" type="matrix" values="0 0 0 0 0 0 0 0 0 0 0 0 0 0 0 0 0 0 127 0" result="hardAlpha"/>
<feOffset dy="2"/>
<feGaussianBlur stdDeviation="4"/>
<feColorMatrix type="matrix" values="0 0 0 0 0 0 0 0 0 0 0 0 0 0 0 0 0 0 0.25 0"/>
<feBlend mode="normal" in2="BackgroundImageFix" result="effect1_dropShadow_5829_13143"/>
<feBlend mode="normal" in="SourceGraphic" in2="effect1_dropShadow_5829_13143" result="shape"/>
</filter>
</defs>
</svg>
