<svg width="107" height="109" viewBox="0 0 107 109" fill="none" xmlns="http://www.w3.org/2000/svg">
<g filter="url(#filter0_d_5829_9469)">
<rect x="8" y="6" width="91" height="93" rx="12" fill="#151B23"/>
<rect x="9" y="7" width="89" height="91" rx="11" stroke="#1F2937" stroke-width="2"/>
<path d="M67.3896 34.0216C67.3934 32.0349 66.8795 30.0815 65.8987 28.3538C63.3791 25.7605 57.9001 25.1594 56.5353 28.3413C55.1368 31.6032 58.8849 35.2326 60.5221 34.9452C62.6055 34.5777 60.1534 29.7961 60.1534 29.7961C63.3416 35.8037 62.6055 33.9641 56.8428 39.4831C51.08 45.0021 45.1948 56.6451 44.335 57.1362C44.2974 57.1591 44.2586 57.1799 44.2188 57.1987H66.8247C66.9165 57.1985 67.0066 57.1749 67.0866 57.13C67.1666 57.0852 67.2338 57.0206 67.2818 56.9424C67.3298 56.8642 67.357 56.7751 67.3607 56.6834C67.3645 56.5918 67.3448 56.5007 67.3034 56.4188L61.3932 44.7209C61.3316 44.5988 61.3188 44.4577 61.3576 44.3265C61.3964 44.1953 61.4838 44.0838 61.6019 44.0148C63.3616 43.0065 64.8237 41.5511 65.84 39.796C66.8564 38.0409 67.391 36.0497 67.3896 34.0216Z" fill="url(#paint0_linear_5829_9469)"/>
<path d="M67.3896 34.0216C67.3934 32.0349 66.8795 30.0815 65.8987 28.3538C63.3791 25.7605 57.9001 25.1594 56.5353 28.3413C55.1368 31.6032 58.8849 35.2326 60.5221 34.9452C62.6055 34.5777 60.1534 29.7961 60.1534 29.7961C63.3416 35.8037 62.6055 33.9641 56.8428 39.4831C51.08 45.0021 45.1948 56.6451 44.335 57.1362C44.2974 57.1591 44.2586 57.1799 44.2188 57.1987H66.8247C66.9165 57.1985 67.0066 57.1749 67.0866 57.13C67.1666 57.0852 67.2338 57.0206 67.2818 56.9424C67.3298 56.8642 67.357 56.7751 67.3607 56.6834C67.3645 56.5918 67.3448 56.5007 67.3034 56.4188L61.3932 44.7209C61.3316 44.5988 61.3188 44.4577 61.3576 44.3265C61.3964 44.1953 61.4838 44.0838 61.6019 44.0148C63.3616 43.0065 64.8237 41.5511 65.84 39.796C66.8564 38.0409 67.391 36.0497 67.3896 34.0216Z" fill="url(#paint1_linear_5829_9469)"/>
<path d="M44.3349 57.1367C45.1935 56.6468 51.0837 44.9964 56.8426 39.4773C62.6016 33.9583 63.3415 35.798 60.1533 29.7891C60.1533 29.7891 47.9517 46.896 43.5312 55.357" fill="url(#paint2_linear_5829_9469)"/>
<path d="M46.0504 41.8078C54.2914 26.6568 55.375 25.1245 59.6629 25.1245C60.809 25.1268 61.9406 25.3812 62.9773 25.8698C64.0141 26.3584 64.9306 27.0691 65.6619 27.9515C64.6452 26.3088 63.2313 24.9484 61.5507 23.9957C59.87 23.043 57.9766 22.5286 56.0448 22.5H42.0473C41.9058 22.5 41.7701 22.5562 41.67 22.6563C41.5699 22.7564 41.5137 22.8921 41.5137 23.0337V51.2449C42.8305 48.0089 44.3456 44.8573 46.0504 41.8078Z" fill="url(#paint3_linear_5829_9469)"/>
<path d="M56.8416 39.4787C51.0777 44.9965 45.1925 56.6469 44.3339 57.1381C43.857 57.4205 43.3023 57.5432 42.7508 57.4881C42.1992 57.433 41.6798 57.2031 41.2682 56.8319C40.452 55.9195 39.1835 54.441 46.0511 41.8095C54.2908 26.6572 55.3744 25.125 59.6611 25.125C60.8072 25.1273 61.9388 25.3817 62.9755 25.8703C64.0123 26.3588 64.9288 27.0695 65.6601 27.952C65.7413 28.077 65.8213 28.2157 65.9 28.3519C63.3805 25.7574 57.9015 25.1562 56.5367 28.3394C55.1369 31.6014 58.885 35.2295 60.5222 34.942C62.6069 34.5746 60.1548 29.7929 60.1548 29.7929C63.3417 35.7994 62.6044 33.9597 56.8416 39.4787Z" fill="url(#paint4_linear_5829_9469)"/>
<path opacity="0.3" d="M46.7247 42.4844C54.9658 27.3321 56.0443 25.8049 60.3373 25.8049C62.2322 25.8122 64.0608 26.5027 65.4877 27.7495C64.756 26.9268 63.859 26.2678 62.8552 25.8155C61.8514 25.3633 60.7634 25.128 59.6625 25.125C55.3707 25.125 54.2884 26.6522 46.0499 41.8033C39.1836 54.4398 40.4521 55.917 41.2682 56.8306C41.3849 56.9581 41.5157 57.0685 41.6606 57.1618C40.9433 56.1195 40.6271 53.6987 46.7247 42.4844Z" fill="url(#paint5_linear_5829_9469)"/>
<path d="M33.0043 82V71.8182H36.8224C37.6046 71.8182 38.2609 71.9541 38.7912 72.2259C39.3248 72.4976 39.7275 72.8788 39.9993 73.3693C40.2744 73.8565 40.4119 74.425 40.4119 75.0746C40.4119 75.7275 40.2727 76.2943 39.9943 76.7749C39.7192 77.2521 39.3132 77.6217 38.7763 77.8835C38.2393 78.142 37.5798 78.2713 36.7976 78.2713H34.0781V76.7401H36.549C37.0064 76.7401 37.3809 76.6771 37.6726 76.5511C37.9643 76.4219 38.1797 76.2346 38.3189 75.9893C38.4614 75.7408 38.5327 75.4358 38.5327 75.0746C38.5327 74.7133 38.4614 74.4051 38.3189 74.1499C38.1764 73.8913 37.9593 73.6958 37.6676 73.5632C37.3759 73.4273 36.9998 73.3594 36.5391 73.3594H34.8487V82H33.0043ZM38.2642 77.3864L40.7848 82H38.7266L36.2507 77.3864H38.2642ZM45.2518 82.1491C44.506 82.1491 43.8597 81.9851 43.3129 81.657C42.766 81.3288 42.3417 80.8698 42.0401 80.2798C41.7418 79.6899 41.5927 79.0005 41.5927 78.2116C41.5927 77.4228 41.7418 76.7318 42.0401 76.1385C42.3417 75.5452 42.766 75.0845 43.3129 74.7564C43.8597 74.4283 44.506 74.2642 45.2518 74.2642C45.9975 74.2642 46.6438 74.4283 47.1907 74.7564C47.7376 75.0845 48.1602 75.5452 48.4585 76.1385C48.7601 76.7318 48.9109 77.4228 48.9109 78.2116C48.9109 79.0005 48.7601 79.6899 48.4585 80.2798C48.1602 80.8698 47.7376 81.3288 47.1907 81.657C46.6438 81.9851 45.9975 82.1491 45.2518 82.1491ZM45.2617 80.7074C45.6661 80.7074 46.0041 80.5964 46.2759 80.3743C46.5477 80.1489 46.7499 79.8473 46.8825 79.4695C47.0183 79.0916 47.0863 78.6707 47.0863 78.2067C47.0863 77.7393 47.0183 77.3168 46.8825 76.9389C46.7499 76.5578 46.5477 76.2545 46.2759 76.0291C46.0041 75.8037 45.6661 75.6911 45.2617 75.6911C44.8474 75.6911 44.5027 75.8037 44.2276 76.0291C43.9558 76.2545 43.752 76.5578 43.6161 76.9389C43.4835 77.3168 43.4173 77.7393 43.4173 78.2067C43.4173 78.6707 43.4835 79.0916 43.6161 79.4695C43.752 79.8473 43.9558 80.1489 44.2276 80.3743C44.5027 80.5964 44.8474 80.7074 45.2617 80.7074ZM52.2381 71.8182V82H50.4384V71.8182H52.2381ZM55.8885 71.8182V82H54.0888V71.8182H55.8885ZM62.6064 78.7884V74.3636H64.4061V82H62.661V80.6428H62.5815C62.4092 81.0703 62.1258 81.42 61.7314 81.6918C61.3403 81.9635 60.858 82.0994 60.2846 82.0994C59.7842 82.0994 59.3417 81.9884 58.9572 81.7663C58.5761 81.541 58.2778 81.2145 58.0623 80.7869C57.8469 80.3561 57.7392 79.8357 57.7392 79.2259V74.3636H59.5389V78.9474C59.5389 79.4313 59.6715 79.8158 59.9366 80.1009C60.2018 80.3859 60.5498 80.5284 60.9806 80.5284C61.2458 80.5284 61.5027 80.4638 61.7512 80.3345C61.9998 80.2053 62.2037 80.013 62.3627 79.7578C62.5252 79.4993 62.6064 79.1761 62.6064 78.7884ZM66.2567 84.8636V74.3636H68.0266V75.6264H68.131C68.2238 75.4408 68.3548 75.2436 68.5238 75.0348C68.6928 74.8227 68.9215 74.642 69.2099 74.4929C69.4982 74.3404 69.8661 74.2642 70.3136 74.2642C70.9035 74.2642 71.4355 74.415 71.9094 74.7166C72.3867 75.0149 72.7646 75.4574 73.043 76.044C73.3247 76.6274 73.4656 77.3433 73.4656 78.1918C73.4656 79.0303 73.328 79.7429 73.0529 80.3295C72.7778 80.9162 72.4033 81.3636 71.9293 81.6719C71.4554 81.9801 70.9184 82.1342 70.3185 82.1342C69.881 82.1342 69.5181 82.0613 69.2298 81.9155C68.9414 81.7696 68.7094 81.594 68.5337 81.3885C68.3614 81.1797 68.2272 80.9825 68.131 80.7969H68.0565V84.8636H66.2567ZM68.0217 78.1818C68.0217 78.6757 68.0913 79.1082 68.2305 79.4794C68.373 79.8506 68.5768 80.1406 68.842 80.3494C69.1104 80.5549 69.4353 80.6577 69.8164 80.6577C70.2141 80.6577 70.5472 80.5516 70.8157 80.3395C71.0842 80.1241 71.2863 79.8307 71.4222 79.4595C71.5614 79.085 71.631 78.6591 71.631 78.1818C71.631 77.7079 71.5631 77.2869 71.4272 76.919C71.2913 76.5511 71.0891 76.2628 70.8207 76.054C70.5522 75.8452 70.2174 75.7408 69.8164 75.7408C69.4319 75.7408 69.1055 75.8419 68.837 76.044C68.5685 76.2462 68.3647 76.5296 68.2255 76.8942C68.0896 77.2588 68.0217 77.688 68.0217 78.1818Z" fill="white"/>
</g>
<defs>
<filter id="filter0_d_5829_9469" x="0" y="0" width="107" height="109" filterUnits="userSpaceOnUse" color-interpolation-filters="sRGB">
<feFlood flood-opacity="0" result="BackgroundImageFix"/>
<feColorMatrix in="SourceAlpha" type="matrix" values="0 0 0 0 0 0 0 0 0 0 0 0 0 0 0 0 0 0 127 0" result="hardAlpha"/>
<feOffset dy="2"/>
<feGaussianBlur stdDeviation="4"/>
<feColorMatrix type="matrix" values="0 0 0 0 0 0 0 0 0 0 0 0 0 0 0 0 0 0 0.25 0"/>
<feBlend mode="normal" in2="BackgroundImageFix" result="effect1_dropShadow_5829_9469"/>
<feBlend mode="normal" in="SourceGraphic" in2="effect1_dropShadow_5829_9469" result="shape"/>
</filter>
<linearGradient id="paint0_linear_5829_9469" x1="50.4339" y1="41.1366" x2="59.876" y2="43.3437" gradientUnits="userSpaceOnUse">
<stop stop-color="#FF6533"/>
<stop offset="0.157" stop-color="#FF5633"/>
<stop offset="0.434" stop-color="#FF4333"/>
<stop offset="0.714" stop-color="#FF3733"/>
<stop offset="1" stop-color="#FF3333"/>
</linearGradient>
<linearGradient id="paint1_linear_5829_9469" x1="48.9554" y1="38.0071" x2="65.8787" y2="51.1285" gradientUnits="userSpaceOnUse">
<stop stop-color="#BF3338"/>
<stop offset="1" stop-color="#FF3333"/>
</linearGradient>
<linearGradient id="paint2_linear_5829_9469" x1="49.5089" y1="40.5909" x2="51.961" y2="43.1654" gradientUnits="userSpaceOnUse">
<stop stop-color="#FF6533"/>
<stop offset="0.157" stop-color="#FF5633"/>
<stop offset="0.434" stop-color="#FF4333"/>
<stop offset="0.714" stop-color="#FF3733"/>
<stop offset="1" stop-color="#FF3333"/>
</linearGradient>
<linearGradient id="paint3_linear_5829_9469" x1="53.9677" y1="45.0248" x2="53.2316" y2="34.4779" gradientUnits="userSpaceOnUse">
<stop stop-color="#FF6533"/>
<stop offset="0.157" stop-color="#FF5633"/>
<stop offset="0.434" stop-color="#FF4333"/>
<stop offset="0.714" stop-color="#FF3733"/>
<stop offset="1" stop-color="#FF3333"/>
</linearGradient>
<linearGradient id="paint4_linear_5829_9469" x1="50.779" y1="40.411" x2="54.2633" y2="42.7806" gradientUnits="userSpaceOnUse">
<stop stop-color="#FBB040"/>
<stop offset="1" stop-color="#FB8840"/>
</linearGradient>
<linearGradient id="paint5_linear_5829_9469" x1="54.3484" y1="27.0172" x2="50.7928" y2="66.1365" gradientUnits="userSpaceOnUse">
<stop stop-color="white"/>
<stop offset="1" stop-color="white" stop-opacity="0"/>
</linearGradient>
</defs>
</svg>
