<svg width="177" height="177" viewBox="0 0 177 177" fill="none" xmlns="http://www.w3.org/2000/svg">
<g filter="url(#filter0_d_5820_13394)">
<rect x="38" y="13" width="101" height="101" rx="12" fill="#151B23"/>
<rect x="39" y="14" width="99" height="99" rx="11" stroke="#1F2937" stroke-width="2"/>
<g clip-path="url(#clip0_5820_13394)">
<path d="M87.2482 33.9477C87.2482 33.6373 87.3735 33.3396 87.5964 33.1201C87.8193 32.9006 88.1216 32.7773 88.4369 32.7773C88.7521 32.7773 89.0544 32.9006 89.2774 33.1201C89.5003 33.3396 89.6255 33.6373 89.6255 33.9477C89.6255 34.2581 89.5003 34.5558 89.2774 34.7752C89.0544 34.9947 88.7521 35.118 88.4369 35.118C88.1216 35.118 87.8193 34.9947 87.5964 34.7752C87.3735 34.5558 87.2482 34.2581 87.2482 33.9477ZM73.0686 44.5439C73.0686 44.2335 73.1938 43.9358 73.4167 43.7163C73.6396 43.4968 73.942 43.3735 74.2572 43.3735C74.5725 43.3735 74.8748 43.4968 75.0977 43.7163C75.3206 43.9358 75.4459 44.2335 75.4459 44.5439C75.4459 44.8543 75.3206 45.152 75.0977 45.3715C74.8748 45.5909 74.5725 45.7142 74.2572 45.7142C73.942 45.7142 73.6396 45.5909 73.4167 45.3715C73.1938 45.152 73.0686 44.8543 73.0686 44.5439ZM101.427 44.5984C101.427 44.288 101.552 43.9903 101.775 43.7709C101.998 43.5514 102.301 43.4281 102.616 43.4281C102.931 43.4281 103.233 43.5514 103.456 43.7709C103.679 43.9903 103.804 44.288 103.804 44.5984C103.804 44.9088 103.679 45.2065 103.456 45.426C103.233 45.6455 102.931 45.7688 102.616 45.7688C102.301 45.7688 101.998 45.6455 101.775 45.426C101.552 45.2065 101.427 44.9088 101.427 44.5984ZM76.5092 46.2021C76.772 46.087 76.9777 45.8738 77.081 45.6095C77.1843 45.3451 77.1769 45.0512 77.0602 44.7923L76.5329 43.6178H78.6068V52.8224H74.4226C73.9061 51.0361 73.7452 49.1684 73.9487 47.322L76.5092 46.2021ZM85.1847 46.4282V43.7151H90.1235C90.3784 43.7151 91.9247 44.0053 91.9247 45.1436C91.9247 46.089 90.7389 46.4278 89.7637 46.4278L85.1847 46.4282ZM78.4419 61.0358C78.4419 60.7254 78.5672 60.4277 78.7901 60.2082C79.013 59.9887 79.3153 59.8654 79.6306 59.8654C79.9458 59.8654 80.2482 59.9887 80.4711 60.2082C80.694 60.4277 80.8192 60.7254 80.8192 61.0358C80.8192 61.3462 80.694 61.6439 80.4711 61.8634C80.2482 62.0829 79.9458 62.2062 79.6306 62.2062C79.3153 62.2062 79.013 62.0829 78.7901 61.8634C78.5672 61.6439 78.4419 61.3462 78.4419 61.0358ZM96.0535 61.0904C96.0535 60.78 96.1787 60.4823 96.4016 60.2628C96.6246 60.0433 96.9269 59.92 97.2421 59.92C97.5574 59.92 97.8597 60.0433 98.0826 60.2628C98.3056 60.4823 98.4308 60.78 98.4308 61.0904C98.4308 61.4008 98.3056 61.6984 98.0826 61.9179C97.8597 62.1374 97.5574 62.2607 97.2421 62.2607C96.9269 62.2607 96.6246 62.1374 96.4016 61.9179C96.1787 61.6984 96.0535 61.4008 96.0535 61.0904ZM96.421 58.4364C96.2817 58.407 96.1379 58.4049 95.9979 58.4303C95.8578 58.4556 95.7242 58.5079 95.6046 58.5841C95.4851 58.6604 95.382 58.7591 95.3012 58.8746C95.2205 58.9901 95.1637 59.1202 95.134 59.2573L94.5376 61.9986C92.6191 62.8544 90.5355 63.2922 88.4293 63.2823C86.3231 63.2724 84.2439 62.8149 82.3338 61.9411L81.7374 59.1998C81.7077 59.0628 81.6508 58.9328 81.5701 58.8174C81.4894 58.7019 81.3864 58.6033 81.2669 58.5271C81.1475 58.4509 81.0139 58.3986 80.8739 58.3733C80.734 58.3479 80.5903 58.3499 80.4511 58.3793L77.993 58.8988C77.5363 58.4358 77.1117 57.9431 76.7221 57.424H88.6817C88.8172 57.424 88.9073 57.3997 88.9073 57.2784V53.1129C88.9073 52.9916 88.8172 52.9676 88.6817 52.9676H85.184V50.3272H88.967C89.3125 50.3272 90.8133 50.4245 91.2933 52.3137C91.4434 52.8947 91.7738 54.7845 91.9995 55.3895C92.2244 56.0681 93.1399 57.4237 94.1154 57.4237H100.29C99.8761 57.9694 99.4233 58.4855 98.9351 58.9681L96.421 58.4364ZM103.062 47.4383C103.146 48.2697 103.156 49.1066 103.093 49.9398H101.591C101.441 49.9398 101.381 50.037 101.381 50.1819V50.8609C101.381 52.4589 100.466 52.8063 99.6637 52.895C98.9 52.9798 98.0533 52.5802 97.9489 52.1201C97.4983 49.6249 96.7474 49.0923 95.5619 48.1715C97.0334 47.2514 98.5643 45.8942 98.5643 44.0779C98.5643 42.1161 97.1986 40.8808 96.2678 40.2752C94.9615 39.4273 93.5157 39.2578 93.1255 39.2578H77.5975C79.7441 36.8957 82.6217 35.2965 85.7847 34.7078L87.615 36.5983C87.7132 36.6997 87.8308 36.7811 87.961 36.8377C88.0911 36.8944 88.2314 36.9252 88.3737 36.9284C88.516 36.9316 88.6575 36.9071 88.7902 36.8564C88.9229 36.8057 89.0441 36.7297 89.1469 36.6328L91.1951 34.7041C93.2828 35.0892 95.2603 35.9172 96.9902 37.1304C98.7202 38.3437 100.161 39.9132 101.213 41.7299L99.8112 44.8475C99.6949 45.1065 99.6877 45.4003 99.791 45.6646C99.8944 45.9288 100.1 46.142 100.363 46.2573L103.062 47.4383ZM106.559 47.4889L106.511 47.0069L107.955 45.6806C108.249 45.4111 108.139 44.8682 107.763 44.7305L105.917 44.051L105.773 43.5817L106.924 42.007C107.159 41.6869 106.943 41.1756 106.548 41.1118L104.601 40.8L104.368 40.3695L105.185 38.6015C105.353 38.2417 105.042 37.7813 104.639 37.7964L102.663 37.8641L102.351 37.4911L102.805 35.5963C102.897 35.2118 102.501 34.8208 102.11 34.9112L100.186 35.3578L99.8065 35.0505L99.8756 33.1051C99.8909 32.7114 99.4227 32.4035 99.0579 32.5671L97.2627 33.3729L96.8255 33.1419L96.5084 31.2251C96.444 30.8363 95.9243 30.6237 95.5996 30.8544L93.9989 31.9881L93.5234 31.8462L92.8332 30.0283C92.693 29.6579 92.1416 29.5511 91.8686 29.839L90.5216 31.2619L90.032 31.2149L88.9917 29.56C88.7815 29.2248 88.2181 29.2248 88.0085 29.56L86.9682 31.2149L86.4786 31.2619L85.1313 29.839C84.8579 29.5511 84.3069 29.6579 84.1667 30.0283L83.4762 31.8462L83.0003 31.9881L81.3999 30.8544C81.0749 30.6234 80.5556 30.8363 80.4911 31.2251L80.1738 33.1419L79.7365 33.3729L77.9413 32.5671C77.5765 32.4028 77.1083 32.7114 77.1236 33.1051L77.1924 35.0505L76.8132 35.3578L74.8892 34.9108C74.4984 34.8215 74.1015 35.2115 74.193 35.5963L74.6462 37.4911L74.3348 37.8641L72.359 37.7964C71.9609 37.7849 71.6468 38.2417 71.8127 38.6015L72.6314 40.3695L72.3967 40.8L70.4503 41.1118C70.0548 41.1749 69.8406 41.6869 70.0739 42.007L71.2253 43.5817L71.0808 44.051L69.2345 44.7305C68.8597 44.8686 68.7499 45.4108 69.0429 45.6806L70.4874 47.0069L70.4396 47.4889L68.7592 48.5129C68.4188 48.7199 68.4188 49.2746 68.7592 49.481L70.4396 50.5053L70.4874 50.9874L69.0429 52.314C68.7499 52.5828 68.8597 53.125 69.2345 53.2637L71.0808 53.9433L71.2253 54.4125L70.0739 55.9876C69.8399 56.3083 70.0552 56.8197 70.4507 56.8824L72.3967 57.194L72.6314 57.6251L71.8127 59.3924C71.6458 59.7516 71.9609 60.2139 72.3594 60.1978L74.3342 60.1298L74.6462 60.5031L74.193 62.3986C74.1012 62.7824 74.4984 63.1725 74.8892 63.0821L76.8132 62.6362L77.1927 62.9424L77.1236 64.8882C77.1083 65.2822 77.5765 65.5901 77.9413 65.4258L79.7365 64.6207L80.1738 64.8514L80.4908 66.7672C80.5552 67.1573 81.0749 67.3682 81.4003 67.1385L82.9996 66.0038L83.4759 66.1468L84.1664 67.964C84.3066 68.333 84.8579 68.4418 85.1309 68.1526L86.4783 66.7304L86.9679 66.7784L88.0082 68.4329C88.2178 68.7668 88.7811 68.7675 88.9914 68.4329L90.0317 66.7784L90.5213 66.7304L91.8683 68.1526C92.1413 68.4418 92.6927 68.333 92.8328 67.964L93.523 66.1468L93.9996 66.0038L95.5993 67.1385C95.9243 67.3682 96.4437 67.1566 96.5077 66.7672L96.8255 64.8514L97.2627 64.6203L99.0576 65.4258C99.4224 65.5901 99.8896 65.2828 99.8753 64.8882L99.8065 62.9428L100.185 62.6362L102.109 63.0821C102.5 63.1725 102.897 62.7824 102.805 62.3986L102.352 60.5031L102.663 60.1298L104.639 60.1978C105.037 60.2136 105.352 59.7516 105.185 59.3924L104.367 57.6251L104.601 57.194L106.548 56.8824C106.944 56.82 107.159 56.3083 106.924 55.9876L105.772 54.4125L105.917 53.9433L107.763 53.2637C108.139 53.125 108.248 52.5828 107.955 52.314L106.511 50.9874L106.558 50.5053L108.239 49.481C108.579 49.2746 108.579 48.7203 108.239 48.5129L106.559 47.4889Z" fill="#FF7043"/>
</g>
<path d="M72.119 94V82.6545H76.3736C77.2452 82.6545 77.9764 82.806 78.5673 83.1088C79.1619 83.4116 79.6107 83.8364 79.9135 84.383C80.22 84.9259 80.3733 85.5592 80.3733 86.2831C80.3733 87.0107 80.2182 87.6422 79.908 88.1777C79.6014 88.7095 79.149 89.1213 78.5507 89.4131C77.9524 89.7011 77.2175 89.8452 76.3459 89.8452H73.3156V88.1389H76.0689C76.5786 88.1389 76.9959 88.0687 77.3209 87.9284C77.6459 87.7844 77.8859 87.5757 78.0411 87.3024C78.1999 87.0254 78.2793 86.6857 78.2793 86.2831C78.2793 85.8805 78.1999 85.5371 78.0411 85.2527C77.8822 84.9646 77.6403 84.7467 77.3153 84.599C76.9903 84.4476 76.5712 84.3719 76.0578 84.3719H74.1743V94H72.119ZM77.9801 88.8591L80.7888 94H78.4953L75.7365 88.8591H77.9801ZM87.5999 90.4213V85.4909H89.6053V94H87.6609V92.4876H87.5722C87.3802 92.9641 87.0644 93.3537 86.6249 93.6565C86.1891 93.9594 85.6518 94.1108 85.0129 94.1108C84.4552 94.1108 83.9621 93.9871 83.5337 93.7396C83.109 93.4885 82.7766 93.1247 82.5366 92.6483C82.2965 92.1682 82.1765 91.5884 82.1765 90.9088V85.4909H84.1819V90.5986C84.1819 91.1378 84.3296 91.5662 84.6251 91.8838C84.9205 92.2014 85.3083 92.3602 85.7884 92.3602C86.0839 92.3602 86.3701 92.2882 86.6471 92.1442C86.9241 92.0001 87.1512 91.7859 87.3285 91.5016C87.5094 91.2135 87.5999 90.8534 87.5999 90.4213ZM98.3928 87.7401L96.5647 87.9395C96.513 87.7548 96.4225 87.5812 96.2932 87.4187C96.1676 87.2562 95.9978 87.1251 95.7836 87.0254C95.5694 86.9257 95.3071 86.8759 94.9969 86.8759C94.5796 86.8759 94.2287 86.9663 93.9444 87.1473C93.6637 87.3283 93.5252 87.5628 93.5289 87.8509C93.5252 88.0983 93.6157 88.2996 93.8003 88.4547C93.9887 88.6098 94.2989 88.7372 94.731 88.8369L96.1824 89.1472C96.9875 89.3207 97.5858 89.5959 97.9773 89.9726C98.3725 90.3493 98.5719 90.8423 98.5756 91.4517C98.5719 91.9872 98.415 92.4599 98.1047 92.8699C97.7982 93.2761 97.3716 93.5937 96.825 93.8227C96.2784 94.0517 95.6506 94.1662 94.9415 94.1662C93.9 94.1662 93.0617 93.9483 92.4265 93.5125C91.7912 93.073 91.4127 92.4618 91.2908 91.6788L93.2463 91.4905C93.335 91.8746 93.5233 92.1645 93.8114 92.3602C94.0995 92.556 94.4743 92.6538 94.936 92.6538C95.4124 92.6538 95.7946 92.556 96.0827 92.3602C96.3745 92.1645 96.5203 91.9226 96.5203 91.6345C96.5203 91.3908 96.4262 91.1895 96.2378 91.0307C96.0532 90.8719 95.7651 90.75 95.3736 90.6651L93.9222 90.3604C93.106 90.1905 92.5022 89.9043 92.1107 89.5017C91.7192 89.0955 91.5253 88.5821 91.529 87.9616C91.5253 87.4372 91.6675 86.983 91.9556 86.5989C92.2473 86.2111 92.6517 85.9119 93.1688 85.7014C93.6895 85.4872 94.2897 85.3801 94.9692 85.3801C95.9664 85.3801 96.7512 85.5925 97.3236 86.0172C97.8998 86.4419 98.2561 87.0162 98.3928 87.7401ZM104.478 85.4909V87.042H99.5866V85.4909H104.478ZM100.794 83.4523H102.8V91.4406C102.8 91.7102 102.84 91.917 102.922 92.0611C103.007 92.2014 103.117 92.2974 103.254 92.3491C103.391 92.4009 103.542 92.4267 103.708 92.4267C103.834 92.4267 103.948 92.4175 104.052 92.399C104.159 92.3805 104.24 92.3639 104.295 92.3491L104.633 93.9169C104.526 93.9538 104.373 93.9945 104.174 94.0388C103.978 94.0831 103.738 94.1089 103.453 94.1163C102.951 94.1311 102.499 94.0554 102.096 93.8892C101.694 93.7193 101.374 93.4571 101.138 93.1026C100.905 92.748 100.791 92.3048 100.794 91.773V83.4523Z" fill="white"/>
</g>
<defs>
<filter id="filter0_d_5820_13394" x="0" y="0" width="177" height="177" filterUnits="userSpaceOnUse" color-interpolation-filters="sRGB">
<feFlood flood-opacity="0" result="BackgroundImageFix"/>
<feColorMatrix in="SourceAlpha" type="matrix" values="0 0 0 0 0 0 0 0 0 0 0 0 0 0 0 0 0 0 127 0" result="hardAlpha"/>
<feMorphology radius="12" operator="erode" in="SourceAlpha" result="effect1_dropShadow_5820_13394"/>
<feOffset dy="25"/>
<feGaussianBlur stdDeviation="25"/>
<feColorMatrix type="matrix" values="0 0 0 0 0 0 0 0 0 0 0 0 0 0 0 0 0 0 0.25 0"/>
<feBlend mode="normal" in2="BackgroundImageFix" result="effect1_dropShadow_5820_13394"/>
<feBlend mode="normal" in="SourceGraphic" in2="effect1_dropShadow_5820_13394" result="shape"/>
</filter>
<clipPath id="clip0_5820_13394">
<rect width="40" height="40" fill="white" transform="translate(68.5 29)"/>
</clipPath>
</defs>
</svg>
