<svg xmlns="http://www.w3.org/2000/svg" width="167" height="167" fill="none" viewBox="0 0 167 167"><g filter="url(#a)"><rect width="91" height="91" x="38" y="13" fill="#151b23" rx="12"/><rect width="89" height="89" x="39" y="14" stroke="#1f2937" stroke-width="2" rx="11"/><g clip-path="url(#b)"><path fill="#ff7043" d="M82.248 29.948c0-.31.126-.608.348-.828a1.2 1.2 0 0 1 1.681 0 1.16 1.16 0 0 1 0 1.655 1.2 1.2 0 0 1-1.68 0 1.16 1.16 0 0 1-.349-.827m-14.18 10.596c0-.31.126-.608.349-.828a1.2 1.2 0 0 1 1.68 0 1.16 1.16 0 0 1 0 1.655 1.2 1.2 0 0 1-1.68 0 1.16 1.16 0 0 1-.348-.827m28.36.054c0-.31.124-.608.347-.827a1.2 1.2 0 0 1 1.681 0 1.16 1.16 0 0 1 0 1.655 1.2 1.2 0 0 1-1.68 0 1.16 1.16 0 0 1-.349-.828m-24.919 1.604c.263-.115.469-.328.572-.593a1.05 1.05 0 0 0-.02-.817l-.528-1.174h2.074v9.204h-4.184a14.2 14.2 0 0 1-.474-5.5zm8.676.226v-2.713h4.939c.254 0 1.8.29 1.8 1.429 0 .945-1.185 1.284-2.16 1.284zm-6.743 14.608c0-.31.125-.608.348-.828a1.2 1.2 0 0 1 1.681 0 1.16 1.16 0 0 1 0 1.655 1.2 1.2 0 0 1-1.68 0 1.16 1.16 0 0 1-.35-.827m17.612.054c0-.31.125-.608.348-.827a1.2 1.2 0 0 1 1.68 0 1.16 1.16 0 0 1 0 1.655 1.2 1.2 0 0 1-1.68 0 1.16 1.16 0 0 1-.349-.828m.367-2.654a1.1 1.1 0 0 0-1.12.439 1.1 1.1 0 0 0-.167.382L89.538 58a14.8 14.8 0 0 1-6.109 1.283 14.8 14.8 0 0 1-6.095-1.34l-.597-2.742a1.06 1.06 0 0 0-.47-.673 1.1 1.1 0 0 0-.816-.148l-2.458.52a14.5 14.5 0 0 1-1.27-1.475h11.959c.135 0 .225-.024.225-.146v-4.165c0-.121-.09-.145-.225-.145h-3.498v-2.64h3.783c.346 0 1.846.096 2.326 1.986.15.58.48 2.47.706 3.075.225.68 1.14 2.035 2.116 2.035h6.175a14.5 14.5 0 0 1-1.355 1.544zm6.64-10.998c.085.832.095 1.669.032 2.502H96.59c-.15 0-.21.097-.21.242v.679c0 1.598-.915 1.945-1.717 2.034-.764.085-1.61-.315-1.715-.775-.45-2.495-1.202-3.028-2.387-3.948 1.471-.92 3.002-2.278 3.002-4.094 0-1.962-1.365-3.197-2.296-3.803-1.306-.848-2.752-1.017-3.142-1.017H72.597a14.7 14.7 0 0 1 8.188-4.55l1.83 1.89a1.08 1.08 0 0 0 .759.33 1.1 1.1 0 0 0 .773-.295l2.048-1.929a14.76 14.76 0 0 1 5.795 2.426 14.5 14.5 0 0 1 4.223 4.6l-1.402 3.117a1.06 1.06 0 0 0-.02.818c.103.264.309.477.572.592zm3.498.05-.048-.481 1.444-1.326c.294-.27.184-.813-.192-.95l-1.846-.68-.144-.47 1.151-1.574c.235-.32.019-.831-.376-.895l-1.947-.312-.233-.43.817-1.768c.168-.36-.143-.82-.546-.806l-1.976.068-.312-.373.454-1.895c.092-.384-.305-.775-.695-.685l-1.924.447-.38-.308.07-1.945c.015-.394-.453-.701-.818-.538l-1.795.806-.437-.231-.318-1.917c-.064-.389-.584-.601-.908-.37l-1.601 1.133-.476-.142-.69-1.818c-.14-.37-.691-.477-.964-.189l-1.347 1.423-.49-.047-1.04-1.655c-.21-.335-.774-.335-.984 0l-1.04 1.655-.49.047-1.347-1.423c-.273-.288-.824-.181-.964.19l-.69 1.817-.477.142-1.6-1.134c-.325-.23-.844-.018-.909.371l-.317 1.917-.437.23-1.796-.805c-.365-.164-.833.144-.817.538l.068 1.945-.379.308-1.924-.447c-.39-.09-.787.3-.696.685l.453 1.895-.311.373-1.976-.068c-.398-.011-.712.446-.546.806l.818 1.768-.234.43-1.947.312c-.395.063-.61.575-.376.895l1.151 1.575-.144.469-1.847.68c-.374.138-.484.68-.191.95l1.444 1.326-.047.482-1.68 1.024c-.341.207-.341.762 0 .968l1.68 1.024.047.482-1.444 1.327c-.293.269-.183.811.191.95l1.847.68.144.468-1.151 1.576c-.234.32-.019.832.377.894l1.946.312.234.431-.818 1.767c-.167.36.148.822.546.806l1.975-.068.312.373-.453 1.896c-.092.383.305.773.696.683l1.924-.446.38.306-.07 1.946c-.015.394.453.702.818.538l1.796-.805.437.23.317 1.916c.064.39.584.601.91.371L78 62.005l.476.143.69 1.817c.14.369.692.478.965.189l1.347-1.423.49.048 1.04 1.655c.21.334.773.334.983 0l1.04-1.655.49-.048 1.347 1.423c.273.289.825.18.965-.189l.69-1.817.477-.143 1.6 1.135c.324.23.844.018.908-.372l.318-1.916.437-.23 1.795.805c.364.164.832-.143.817-.538l-.069-1.945.38-.307 1.923.446c.391.09.788-.3.696-.683l-.453-1.896.311-.373 1.976.068c.398.016.713-.446.546-.806l-.818-1.767.234-.431 1.947-.312c.396-.062.611-.574.376-.894l-1.152-1.575.145-.47 1.846-.68c.376-.138.485-.68.192-.949l-1.444-1.327.047-.482 1.681-1.024c.34-.206.34-.76 0-.968z"/></g><path fill="#fff" d="M67.119 88V76.654h4.255q1.306 0 2.193.455a3.1 3.1 0 0 1 1.347 1.274q.46.814.46 1.9 0 1.092-.466 1.895-.46.797-1.357 1.235-.899.432-2.205.432h-3.03V82.14h2.753q.765 0 1.252-.21a1.5 1.5 0 0 0 .72-.627q.238-.415.238-1.019t-.238-1.03a1.5 1.5 0 0 0-.726-.654q-.487-.227-1.257-.227h-1.884V88zm5.861-5.14L75.79 88h-2.294l-2.758-5.14zm9.62 1.561v-4.93h2.005V88h-1.944v-1.512h-.089a2.56 2.56 0 0 1-.947 1.168q-.654.455-1.612.455-.836 0-1.48-.371a2.6 2.6 0 0 1-.996-1.092q-.36-.72-.36-1.74v-5.417h2.005v5.108q0 .808.443 1.285.444.476 1.163.476.444 0 .86-.216.414-.216.68-.642.272-.433.272-1.08m10.793-2.68-1.828.198a1.5 1.5 0 0 0-.272-.52 1.35 1.35 0 0 0-.51-.394q-.321-.15-.786-.15-.626 0-1.053.272-.42.272-.415.704a.74.74 0 0 0 .271.604q.283.232.931.382l1.451.31q1.208.26 1.795.826.593.565.599 1.479a2.3 2.3 0 0 1-.471 1.418q-.46.61-1.28.953t-1.883.343q-1.563 0-2.515-.653-.953-.66-1.136-1.834l1.955-.189q.133.578.565.87.432.294 1.125.294.714 0 1.147-.294.437-.293.437-.725a.76.76 0 0 0-.282-.604q-.278-.24-.864-.366l-1.452-.305q-1.224-.255-1.811-.858-.588-.61-.582-1.54-.006-.787.427-1.363.437-.582 1.213-.898.78-.32 1.8-.32 1.495 0 2.355.636.864.638 1.069 1.723m6.085-2.25v1.551h-4.891v-1.551zm-3.684-2.039H97.8v7.989q0 .404.122.62.127.21.332.288t.454.078q.189 0 .344-.028.16-.028.243-.05l.338 1.568q-.16.056-.46.122-.292.066-.72.077a3.3 3.3 0 0 1-1.357-.227 2.1 2.1 0 0 1-.958-.786q-.349-.532-.344-1.33z"/></g><defs><clipPath id="b"><path fill="#fff" d="M63.5 25h40v40h-40z"/></clipPath><filter id="a" width="167" height="167" x="0" y="0" color-interpolation-filters="sRGB" filterUnits="userSpaceOnUse"><feFlood flood-opacity="0" result="BackgroundImageFix"/><feColorMatrix in="SourceAlpha" result="hardAlpha" values="0 0 0 0 0 0 0 0 0 0 0 0 0 0 0 0 0 0 127 0"/><feMorphology in="SourceAlpha" radius="12" result="effect1_dropShadow_5820_13394"/><feOffset dy="25"/><feGaussianBlur stdDeviation="25"/><feColorMatrix values="0 0 0 0 0 0 0 0 0 0 0 0 0 0 0 0 0 0 0.25 0"/><feBlend in2="BackgroundImageFix" result="effect1_dropShadow_5820_13394"/><feBlend in="SourceGraphic" in2="effect1_dropShadow_5820_13394" result="shape"/></filter></defs></svg>