<svg width="107" height="107" viewBox="0 0 107 107" fill="none" xmlns="http://www.w3.org/2000/svg">
<g filter="url(#filter0_d_5820_13394)">
<rect x="8" y="6" width="91" height="91" rx="12" fill="#151B23"/>
<rect x="9" y="7" width="89" height="89" rx="11" stroke="#1F2937" stroke-width="2"/>
<g clip-path="url(#clip0_5820_13394)">
<path d="M52.2482 22.9477C52.2482 22.6373 52.3735 22.3396 52.5964 22.1201C52.8193 21.9006 53.1216 21.7773 53.4369 21.7773C53.7521 21.7773 54.0544 21.9006 54.2774 22.1201C54.5003 22.3396 54.6255 22.6373 54.6255 22.9477C54.6255 23.2581 54.5003 23.5558 54.2774 23.7752C54.0544 23.9947 53.7521 24.118 53.4369 24.118C53.1216 24.118 52.8193 23.9947 52.5964 23.7752C52.3735 23.5558 52.2482 23.2581 52.2482 22.9477ZM38.0686 33.5439C38.0686 33.2335 38.1938 32.9358 38.4167 32.7163C38.6396 32.4968 38.942 32.3735 39.2572 32.3735C39.5725 32.3735 39.8748 32.4968 40.0977 32.7163C40.3206 32.9358 40.4459 33.2335 40.4459 33.5439C40.4459 33.8543 40.3206 34.152 40.0977 34.3715C39.8748 34.5909 39.5725 34.7142 39.2572 34.7142C38.942 34.7142 38.6396 34.5909 38.4167 34.3715C38.1938 34.152 38.0686 33.8543 38.0686 33.5439ZM66.4272 33.5984C66.4272 33.288 66.5524 32.9903 66.7753 32.7709C66.9982 32.5514 67.3006 32.4281 67.6158 32.4281C67.9311 32.4281 68.2334 32.5514 68.4563 32.7709C68.6792 32.9903 68.8045 33.288 68.8045 33.5984C68.8045 33.9088 68.6792 34.2065 68.4563 34.426C68.2334 34.6455 67.9311 34.7688 67.6158 34.7688C67.3006 34.7688 66.9982 34.6455 66.7753 34.426C66.5524 34.2065 66.4272 33.9088 66.4272 33.5984ZM41.5092 35.2021C41.772 35.087 41.9777 34.8738 42.081 34.6095C42.1843 34.3451 42.1769 34.0512 42.0602 33.7923L41.5329 32.6178H43.6068V41.8224H39.4226C38.9061 40.0361 38.7452 38.1684 38.9487 36.322L41.5092 35.2021ZM50.1847 35.4282V32.7151H55.1235C55.3784 32.7151 56.9247 33.0053 56.9247 34.1436C56.9247 35.089 55.7389 35.4278 54.7637 35.4278L50.1847 35.4282ZM43.4419 50.0358C43.4419 49.7254 43.5672 49.4277 43.7901 49.2082C44.013 48.9887 44.3153 48.8654 44.6306 48.8654C44.9458 48.8654 45.2482 48.9887 45.4711 49.2082C45.694 49.4277 45.8192 49.7254 45.8192 50.0358C45.8192 50.3462 45.694 50.6439 45.4711 50.8634C45.2482 51.0829 44.9458 51.2062 44.6306 51.2062C44.3153 51.2062 44.013 51.0829 43.7901 50.8634C43.5672 50.6439 43.4419 50.3462 43.4419 50.0358ZM61.0535 50.0904C61.0535 49.78 61.1787 49.4823 61.4016 49.2628C61.6246 49.0433 61.9269 48.92 62.2421 48.92C62.5574 48.92 62.8597 49.0433 63.0826 49.2628C63.3056 49.4823 63.4308 49.78 63.4308 50.0904C63.4308 50.4008 63.3056 50.6984 63.0826 50.9179C62.8597 51.1374 62.5574 51.2607 62.2421 51.2607C61.9269 51.2607 61.6246 51.1374 61.4016 50.9179C61.1787 50.6984 61.0535 50.4008 61.0535 50.0904ZM61.421 47.4364C61.2817 47.407 61.1379 47.4049 60.9979 47.4303C60.8578 47.4556 60.7242 47.5079 60.6046 47.5841C60.4851 47.6604 60.382 47.7591 60.3012 47.8746C60.2205 47.9901 60.1637 48.1202 60.134 48.2573L59.5376 50.9986C57.6191 51.8544 55.5355 52.2922 53.4293 52.2823C51.3231 52.2724 49.2439 51.8149 47.3338 50.9411L46.7374 48.1998C46.7077 48.0628 46.6508 47.9328 46.5701 47.8174C46.4894 47.7019 46.3864 47.6033 46.2669 47.5271C46.1475 47.4509 46.0139 47.3986 45.8739 47.3733C45.734 47.3479 45.5903 47.3499 45.4511 47.3793L42.993 47.8988C42.5363 47.4358 42.1117 46.9431 41.7221 46.424H53.6817C53.8172 46.424 53.9073 46.3997 53.9073 46.2784V42.1129C53.9073 41.9916 53.8172 41.9676 53.6817 41.9676H50.184V39.3272H53.967C54.3125 39.3272 55.8133 39.4245 56.2933 41.3137C56.4434 41.8947 56.7738 43.7845 56.9995 44.3895C57.2244 45.0681 58.1399 46.4237 59.1154 46.4237H65.2901C64.8761 46.9694 64.4233 47.4855 63.9351 47.9681L61.421 47.4364ZM68.0619 36.4383C68.1459 37.2697 68.1562 38.1066 68.0929 38.9398H66.5914C66.4412 38.9398 66.3808 39.037 66.3808 39.1819V39.8609C66.3808 41.4589 65.4657 41.8063 64.6637 41.895C63.9 41.9798 63.0533 41.5802 62.9489 41.1201C62.4983 38.6249 61.7474 38.0923 60.5619 37.1715C62.0334 36.2514 63.5643 34.8942 63.5643 33.0779C63.5643 31.1161 62.1986 29.8808 61.2678 29.2752C59.9615 28.4273 58.5157 28.2578 58.1255 28.2578H42.5975C44.7441 25.8957 47.6217 24.2965 50.7847 23.7078L52.615 25.5983C52.7132 25.6997 52.8308 25.7811 52.961 25.8377C53.0911 25.8944 53.2314 25.9252 53.3737 25.9284C53.516 25.9316 53.6575 25.9071 53.7902 25.8564C53.9229 25.8057 54.0441 25.7297 54.1469 25.6328L56.1951 23.7041C58.2828 24.0892 60.2603 24.9172 61.9902 26.1304C63.7202 27.3437 65.1613 28.9132 66.2133 30.7299L64.8112 33.8475C64.6949 34.1065 64.6877 34.4003 64.791 34.6646C64.8944 34.9288 65.0999 35.142 65.3625 35.2573L68.0619 36.4383ZM71.5586 36.4889L71.5108 36.0069L72.955 34.6806C73.2487 34.4111 73.1385 33.8682 72.7634 33.7305L70.9171 33.051L70.7726 32.5817L71.924 31.007C72.159 30.6869 71.9434 30.1756 71.5479 30.1118L69.6011 29.8L69.3675 29.3695L70.1852 27.6015C70.3527 27.2417 70.0417 26.7813 69.6392 26.7964L67.6634 26.8641L67.3513 26.4911L67.8052 24.5963C67.897 24.2118 67.5005 23.8208 67.1097 23.9112L65.1856 24.3578L64.8065 24.0505L64.8756 22.1051C64.8909 21.7114 64.4227 21.4035 64.0579 21.5671L62.2627 22.3729L61.8255 22.1419L61.5084 20.2251C61.444 19.8363 60.9243 19.6237 60.5996 19.8544L58.9989 20.9881L58.5234 20.8462L57.8332 19.0283C57.693 18.6579 57.1416 18.5511 56.8686 18.839L55.5216 20.2619L55.032 20.2149L53.9917 18.56C53.7815 18.2248 53.2181 18.2248 53.0085 18.56L51.9682 20.2149L51.4786 20.2619L50.1313 18.839C49.8579 18.5511 49.3069 18.6579 49.1667 19.0283L48.4762 20.8462L48.0003 20.9881L46.3999 19.8544C46.0749 19.6234 45.5556 19.8363 45.4911 20.2251L45.1738 22.1419L44.7365 22.3729L42.9413 21.5671C42.5765 21.4028 42.1083 21.7114 42.1236 22.1051L42.1924 24.0505L41.8132 24.3578L39.8892 23.9108C39.4984 23.8215 39.1015 24.2115 39.193 24.5963L39.6462 26.4911L39.3348 26.8641L37.359 26.7964C36.9609 26.7849 36.6468 27.2417 36.8127 27.6015L37.6314 29.3695L37.3967 29.8L35.4503 30.1118C35.0548 30.1749 34.8406 30.6869 35.0739 31.007L36.2253 32.5817L36.0808 33.051L34.2345 33.7305C33.8597 33.8686 33.7499 34.4108 34.0429 34.6806L35.4874 36.0069L35.4396 36.4889L33.7592 37.5129C33.4188 37.7199 33.4188 38.2746 33.7592 38.481L35.4396 39.5053L35.4874 39.9874L34.0429 41.314C33.7499 41.5828 33.8597 42.125 34.2345 42.2637L36.0808 42.9433L36.2253 43.4125L35.0739 44.9876C34.8399 45.3083 35.0552 45.8197 35.4507 45.8824L37.3967 46.194L37.6314 46.6251L36.8127 48.3924C36.6458 48.7516 36.9609 49.2139 37.3594 49.1978L39.3342 49.1298L39.6462 49.5031L39.193 51.3986C39.1012 51.7824 39.4984 52.1725 39.8892 52.0821L41.8132 51.6362L42.1927 51.9424L42.1236 53.8882C42.1083 54.2822 42.5765 54.5901 42.9413 54.4258L44.7365 53.6207L45.1738 53.8514L45.4908 55.7672C45.5552 56.1573 46.0749 56.3682 46.4003 56.1385L47.9996 55.0038L48.4759 55.1468L49.1664 56.964C49.3066 57.333 49.8579 57.4418 50.1309 57.1526L51.4783 55.7304L51.9679 55.7784L53.0082 57.4329C53.2178 57.7668 53.7811 57.7675 53.9914 57.4329L55.0317 55.7784L55.5213 55.7304L56.8683 57.1526C57.1413 57.4418 57.6927 57.333 57.8328 56.964L58.523 55.1468L58.9996 55.0038L60.5993 56.1385C60.9243 56.3682 61.4437 56.1566 61.5077 55.7672L61.8255 53.8514L62.2627 53.6203L64.0576 54.4258C64.4224 54.5901 64.8896 54.2828 64.8753 53.8882L64.8065 51.9428L65.1853 51.6362L67.1094 52.0821C67.5002 52.1725 67.897 51.7824 67.8052 51.3986L67.352 49.5031L67.6631 49.1298L69.6388 49.1978C70.0373 49.2136 70.3524 48.7516 70.1849 48.3924L69.3672 46.6251L69.6008 46.194L71.5476 45.8824C71.9437 45.82 72.1586 45.3083 71.9237 44.9876L70.7723 43.4125L70.9168 42.9433L72.7631 42.2637C73.1385 42.125 73.2483 41.5828 72.9546 41.314L71.5105 39.9874L71.5582 39.5053L73.2387 38.481C73.5791 38.2746 73.5794 37.7203 73.239 37.5129L71.5586 36.4889Z" fill="#FF7043"/>
</g>
<path d="M37.119 81V69.6545H41.3736C42.2452 69.6545 42.9764 69.806 43.5673 70.1088C44.1619 70.4116 44.6107 70.8364 44.9135 71.383C45.22 71.9259 45.3733 72.5592 45.3733 73.2831C45.3733 74.0107 45.2182 74.6422 44.908 75.1777C44.6014 75.7095 44.149 76.1213 43.5507 76.4131C42.9524 76.7011 42.2175 76.8452 41.3459 76.8452H38.3156V75.1389H41.0689C41.5786 75.1389 41.9959 75.0687 42.3209 74.9284C42.6459 74.7844 42.8859 74.5757 43.0411 74.3024C43.1999 74.0254 43.2793 73.6857 43.2793 73.2831C43.2793 72.8805 43.1999 72.5371 43.0411 72.2527C42.8822 71.9646 42.6403 71.7467 42.3153 71.599C41.9903 71.4476 41.5712 71.3719 41.0578 71.3719H39.1743V81H37.119ZM42.9801 75.8591L45.7888 81H43.4953L40.7365 75.8591H42.9801ZM52.5999 77.4213V72.4909H54.6053V81H52.6609V79.4876H52.5722C52.3802 79.9641 52.0644 80.3537 51.6249 80.6565C51.1891 80.9594 50.6518 81.1108 50.0129 81.1108C49.4552 81.1108 48.9621 80.9871 48.5337 80.7396C48.109 80.4885 47.7766 80.1247 47.5366 79.6483C47.2965 79.1682 47.1765 78.5884 47.1765 77.9088V72.4909H49.1819V77.5986C49.1819 78.1378 49.3296 78.5662 49.6251 78.8838C49.9205 79.2014 50.3083 79.3602 50.7884 79.3602C51.0839 79.3602 51.3701 79.2882 51.6471 79.1442C51.9241 79.0001 52.1512 78.7859 52.3285 78.5016C52.5094 78.2135 52.5999 77.8534 52.5999 77.4213ZM63.3928 74.7401L61.5647 74.9395C61.513 74.7548 61.4225 74.5812 61.2932 74.4187C61.1676 74.2562 60.9978 74.1251 60.7836 74.0254C60.5694 73.9257 60.3071 73.8759 59.9969 73.8759C59.5796 73.8759 59.2287 73.9663 58.9444 74.1473C58.6637 74.3283 58.5252 74.5628 58.5289 74.8509C58.5252 75.0983 58.6157 75.2996 58.8003 75.4547C58.9887 75.6098 59.2989 75.7372 59.731 75.8369L61.1824 76.1472C61.9875 76.3207 62.5858 76.5959 62.9773 76.9726C63.3725 77.3493 63.5719 77.8423 63.5756 78.4517C63.5719 78.9872 63.415 79.4599 63.1047 79.8699C62.7982 80.2761 62.3716 80.5937 61.825 80.8227C61.2784 81.0517 60.6506 81.1662 59.9415 81.1662C58.9 81.1662 58.0617 80.9483 57.4265 80.5125C56.7912 80.073 56.4127 79.4618 56.2908 78.6788L58.2463 78.4905C58.335 78.8746 58.5233 79.1645 58.8114 79.3602C59.0995 79.556 59.4743 79.6538 59.936 79.6538C60.4124 79.6538 60.7946 79.556 61.0827 79.3602C61.3745 79.1645 61.5203 78.9226 61.5203 78.6345C61.5203 78.3908 61.4262 78.1895 61.2378 78.0307C61.0532 77.8719 60.7651 77.75 60.3736 77.6651L58.9222 77.3604C58.106 77.1905 57.5022 76.9043 57.1107 76.5017C56.7192 76.0955 56.5253 75.5821 56.529 74.9616C56.5253 74.4372 56.6675 73.983 56.9556 73.5989C57.2473 73.2111 57.6517 72.9119 58.1688 72.7014C58.6895 72.4872 59.2897 72.3801 59.9692 72.3801C60.9664 72.3801 61.7512 72.5925 62.3236 73.0172C62.8998 73.4419 63.2561 74.0162 63.3928 74.7401ZM69.4782 72.4909V74.042H64.5866V72.4909H69.4782ZM65.7943 70.4523H67.7997V78.4406C67.7997 78.7102 67.8403 78.917 67.9216 79.0611C68.0065 79.2014 68.1173 79.2974 68.2539 79.3491C68.3906 79.4009 68.542 79.4267 68.7082 79.4267C68.8338 79.4267 68.9483 79.4175 69.0517 79.399C69.1588 79.3805 69.24 79.3639 69.2954 79.3491L69.6333 80.9169C69.5262 80.9538 69.373 80.9945 69.1735 81.0388C68.9778 81.0831 68.7378 81.1089 68.4534 81.1163C67.9511 81.1311 67.4987 81.0554 67.0961 80.8892C66.6936 80.7193 66.3741 80.4571 66.1378 80.1026C65.9051 79.748 65.7906 79.3048 65.7943 78.773V70.4523Z" fill="white"/>
</g>
<defs>
<filter id="filter0_d_5820_13394" x="0" y="0" width="107" height="107" filterUnits="userSpaceOnUse" color-interpolation-filters="sRGB">
<feFlood flood-opacity="0" result="BackgroundImageFix"/>
<feColorMatrix in="SourceAlpha" type="matrix" values="0 0 0 0 0 0 0 0 0 0 0 0 0 0 0 0 0 0 127 0" result="hardAlpha"/>
<feOffset dy="2"/>
<feGaussianBlur stdDeviation="4"/>
<feColorMatrix type="matrix" values="0 0 0 0 0 0 0 0 0 0 0 0 0 0 0 0 0 0 0.75 0"/>
<feBlend mode="normal" in2="BackgroundImageFix" result="effect1_dropShadow_5820_13394"/>
<feBlend mode="normal" in="SourceGraphic" in2="effect1_dropShadow_5820_13394" result="shape"/>
</filter>
<clipPath id="clip0_5820_13394">
<rect width="40" height="40" fill="white" transform="translate(33.5 18)"/>
</clipPath>
</defs>
</svg>
