<svg width="107" height="109" viewBox="0 0 107 109" fill="none" xmlns="http://www.w3.org/2000/svg">
<g filter="url(#filter0_d_5834_13424)">
<rect x="8" y="6" width="91" height="93" rx="12" fill="#151B23"/>
<rect x="9" y="7" width="89" height="91" rx="11" stroke="#1F2937" stroke-width="2"/>
<g clip-path="url(#clip0_5834_13424)">
<path fill-rule="evenodd" clip-rule="evenodd" d="M67.0883 27.2253L60.2111 40.3919L67.0883 53.5586L69.9055 51.9753V28.8086L67.0883 27.2253Z" fill="#E25444"/>
<path fill-rule="evenodd" clip-rule="evenodd" d="M67.0883 27.2253L53.3339 28.8086L46.3324 40.3919L53.3339 51.9753L67.0883 53.5586V27.2253Z" fill="#7B1D13"/>
<path fill-rule="evenodd" clip-rule="evenodd" d="M39.3309 27.2253L37.0938 28.2253V52.5586L39.3309 53.5586L53.3339 40.3919L39.3309 27.2253Z" fill="#58150D"/>
<path fill-rule="evenodd" clip-rule="evenodd" d="M39.3008 27.1975L53.3525 31.1234V50.0123L39.3008 53.5678V27.1975Z" fill="#E25444"/>
<path fill-rule="evenodd" clip-rule="evenodd" d="M53.3598 33.1975L47.3934 32.2345L53.3598 25.4197L59.3115 32.2345L53.3598 33.1975Z" fill="#58150D"/>
<path fill-rule="evenodd" clip-rule="evenodd" d="M59.3115 32.2345L53.3525 33.2123L47.3934 32.2345V25.4197" fill="#58150D"/>
<path fill-rule="evenodd" clip-rule="evenodd" d="M53.3598 47.4938L47.3934 48.6049L53.3598 54.4568L59.3115 48.6049L53.3598 47.4938Z" fill="#58150D"/>
<path fill-rule="evenodd" clip-rule="evenodd" d="M53.3339 20.3086L47.3681 23.4753V32.2253L53.3525 30.5308L53.3339 20.3086Z" fill="#7B1D13"/>
<path fill-rule="evenodd" clip-rule="evenodd" d="M53.3525 35.3456L47.3934 35.9975V44.734L53.3525 45.4197V35.3456Z" fill="#7B1D13"/>
<path fill-rule="evenodd" clip-rule="evenodd" d="M53.3525 50.0863L47.3934 48.5836V57.1722L53.3525 60.3086V50.0863Z" fill="#7B1D13"/>
<path fill-rule="evenodd" clip-rule="evenodd" d="M59.3115 48.5836L53.3525 50.0863V60.3086L59.3115 57.1722V48.5836Z" fill="#E25444"/>
<path fill-rule="evenodd" clip-rule="evenodd" d="M53.3525 35.3456L59.3115 35.9975V44.734L53.3525 45.4197V35.3456Z" fill="#E25444"/>
<path fill-rule="evenodd" clip-rule="evenodd" d="M53.3339 20.3086L59.2997 23.4753V32.2253L53.3339 30.5586L53.3339 20.3086Z" fill="#E25444"/>
</g>
<path d="M50.5376 74.6172C50.4912 74.183 50.2957 73.8449 49.951 73.603C49.6096 73.361 49.1655 73.2401 48.6186 73.2401C48.2341 73.2401 47.9044 73.2981 47.6293 73.4141C47.3542 73.5301 47.1437 73.6875 46.9979 73.8864C46.852 74.0852 46.7775 74.3123 46.7741 74.5675C46.7741 74.7796 46.8222 74.9635 46.9183 75.1193C47.0178 75.2751 47.152 75.4077 47.321 75.517C47.4901 75.6231 47.6773 75.7126 47.8828 75.7855C48.0883 75.8584 48.2955 75.9197 48.5043 75.9695L49.4588 76.2081C49.8433 76.2976 50.2128 76.4186 50.5675 76.571C50.9254 76.7235 51.2453 76.9157 51.527 77.1477C51.812 77.3797 52.0374 77.6598 52.2031 77.9879C52.3688 78.3161 52.4517 78.7005 52.4517 79.1413C52.4517 79.7379 52.2992 80.2633 51.9943 80.7173C51.6894 81.1681 51.2486 81.5211 50.6719 81.7763C50.0985 82.0282 49.4041 82.1541 48.5888 82.1541C47.7966 82.1541 47.1089 82.0315 46.5256 81.7862C45.9455 81.541 45.4915 81.183 45.1634 80.7124C44.8385 80.2417 44.6629 79.6683 44.6364 78.9922H46.451C46.4775 79.3468 46.5869 79.6418 46.7791 79.8771C46.9714 80.1125 47.2216 80.2881 47.5298 80.4041C47.8414 80.5201 48.1894 80.5781 48.5739 80.5781C48.9749 80.5781 49.3262 80.5185 49.6278 80.3991C49.9328 80.2765 50.1714 80.1075 50.3438 79.892C50.5161 79.6733 50.6039 79.4181 50.6072 79.1264C50.6039 78.8613 50.526 78.6425 50.3736 78.4702C50.2211 78.2945 50.0073 78.1487 49.7322 78.0327C49.4605 77.9134 49.1423 77.8073 48.7777 77.7145L47.6193 77.4162C46.7808 77.2008 46.1179 76.8743 45.6307 76.4368C45.1468 75.996 44.9048 75.411 44.9048 74.6818C44.9048 74.0819 45.0672 73.5566 45.392 73.1058C45.7202 72.6551 46.166 72.3054 46.7294 72.0568C47.2929 71.8049 47.9309 71.679 48.6435 71.679C49.366 71.679 49.9991 71.8049 50.5426 72.0568C51.0895 72.3054 51.5187 72.6518 51.8303 73.0959C52.1418 73.5367 52.3026 74.0438 52.3125 74.6172H50.5376ZM57.6507 82.1392C56.9348 82.1392 56.2985 82.0166 55.7417 81.7713C55.1882 81.526 54.7507 81.1847 54.4292 80.7472C54.1077 80.3097 53.937 79.8042 53.9171 79.2308H55.7864C55.803 79.5059 55.8941 79.7462 56.0598 79.9517C56.2256 80.1539 56.446 80.3113 56.7211 80.424C56.9962 80.5367 57.3044 80.593 57.6458 80.593C58.0104 80.593 58.3335 80.5301 58.6152 80.4041C58.897 80.2749 59.1174 80.0959 59.2765 79.8672C59.4355 79.6385 59.5134 79.375 59.5101 79.0767C59.5134 78.7685 59.4339 78.4967 59.2715 78.2614C59.1091 78.026 58.8738 77.8421 58.5655 77.7095C58.2606 77.5769 57.8927 77.5107 57.4618 77.5107H56.562V76.0888H57.4618C57.8165 76.0888 58.1264 76.0275 58.3915 75.9048C58.66 75.7822 58.8704 75.6098 59.0229 75.3878C59.1754 75.1624 59.2499 74.9022 59.2466 74.6072C59.2499 74.3189 59.1853 74.0687 59.0527 73.8565C58.9235 73.6411 58.7395 73.4737 58.5009 73.3544C58.2656 73.2351 57.9888 73.1754 57.6706 73.1754C57.3591 73.1754 57.0707 73.2318 56.8056 73.3445C56.5404 73.4571 56.3266 73.6179 56.1642 73.8267C56.0018 74.0322 55.9157 74.2775 55.9057 74.5625H54.1309C54.1441 73.9924 54.3082 73.492 54.623 73.0611C54.9412 72.6269 55.3655 72.2888 55.8958 72.0469C56.4261 71.8016 57.021 71.679 57.6806 71.679C58.36 71.679 58.95 71.8066 59.4505 72.0618C59.9542 72.3137 60.3437 72.6534 60.6188 73.081C60.8939 73.5085 61.0314 73.9808 61.0314 74.4979C61.0347 75.0713 60.8657 75.5518 60.5243 75.9396C60.1863 76.3274 59.7421 76.581 59.1919 76.7003V76.7798C59.9078 76.8793 60.4564 77.1444 60.8375 77.5753C61.222 78.0028 61.4126 78.5348 61.4093 79.1712C61.4093 79.7412 61.2469 80.2517 60.9221 80.7024C60.6006 81.1499 60.1564 81.5012 59.5897 81.7564C59.0262 82.0116 58.3799 82.1392 57.6507 82.1392Z" fill="white"/>
</g>
<defs>
<filter id="filter0_d_5834_13424" x="0" y="0" width="107" height="109" filterUnits="userSpaceOnUse" color-interpolation-filters="sRGB">
<feFlood flood-opacity="0" result="BackgroundImageFix"/>
<feColorMatrix in="SourceAlpha" type="matrix" values="0 0 0 0 0 0 0 0 0 0 0 0 0 0 0 0 0 0 127 0" result="hardAlpha"/>
<feOffset dy="2"/>
<feGaussianBlur stdDeviation="4"/>
<feColorMatrix type="matrix" values="0 0 0 0 0 0 0 0 0 0 0 0 0 0 0 0 0 0 0.25 0"/>
<feBlend mode="normal" in2="BackgroundImageFix" result="effect1_dropShadow_5834_13424"/>
<feBlend mode="normal" in="SourceGraphic" in2="effect1_dropShadow_5834_13424" result="shape"/>
</filter>
<clipPath id="clip0_5834_13424">
<rect width="40" height="40" fill="white" transform="translate(33.5 20)"/>
</clipPath>
</defs>
</svg>
