<svg width="107" height="109" viewBox="0 0 107 109" fill="none" xmlns="http://www.w3.org/2000/svg">
<g filter="url(#filter0_d_5828_16504)">
<rect x="8" y="6" width="91" height="93" rx="12" fill="#151B23"/>
<rect x="9" y="7" width="89" height="91" rx="11" stroke="#1F2937" stroke-width="2"/>
<path d="M68.2969 27.091C68.0845 26.3578 67.7193 25.6779 67.2253 25.0959C66.7313 24.514 66.1197 24.0433 65.4307 23.7147C62.4781 22.1384 57.7931 22.0922 53.4956 23.5997C49.4803 24.9454 45.7623 27.0531 42.5455 29.8073C39.1054 32.9848 38.2479 35.9636 38.5592 37.5498C39.2129 40.8849 42.6517 43.2236 45.4155 45.1024C45.938 45.4574 46.443 45.8011 46.8842 46.1224C45.098 47.0724 41.558 49.1774 40.5242 51.4324C40.1919 52.0722 40.0063 52.7779 39.9808 53.4983C39.9553 54.2188 40.0905 54.9358 40.3767 55.5975C40.5318 55.9763 40.7639 56.3188 41.0582 56.6033C41.3526 56.8877 41.7028 57.1079 42.0867 57.25C42.6935 57.4166 43.32 57.5007 43.9492 57.5C45.2394 57.4775 46.5046 57.1405 47.6351 56.5184C48.7656 55.8963 49.7273 55.0078 50.4368 53.93C51.0757 52.9458 51.5018 51.8389 51.6878 50.6803C51.8738 49.5218 51.8155 48.3371 51.5168 47.2024C52.3625 47.0704 53.2226 47.0578 54.0718 47.1649C54.7393 47.1835 55.3959 47.3385 56.0013 47.6203C56.6066 47.9022 57.1479 48.3049 57.5918 48.8037C57.9606 49.2441 58.1495 49.8075 58.1206 50.3812C58.0647 50.6569 57.9494 50.9171 57.7827 51.1438C57.6161 51.3705 57.4021 51.5581 57.1556 51.6937C56.8631 51.8687 56.4231 52.1374 56.5256 52.6975C56.5706 52.94 56.7731 53.4887 57.6431 53.3375C58.3797 53.1337 59.0343 52.7046 59.515 52.1105C59.9958 51.5163 60.2788 50.7866 60.3244 50.0237C60.3333 49.3489 60.2053 48.6793 59.9482 48.0554C59.691 47.4314 59.3099 46.8661 58.8281 46.3937C58.0979 45.6999 57.2342 45.162 56.2895 44.8126C55.3448 44.4632 54.339 44.3096 53.3331 44.3611C52.2081 44.3448 51.0856 44.4725 49.993 44.7411C49.1325 43.9059 48.2121 43.1347 47.2393 42.4336C45.0992 40.8086 43.0767 39.2723 43.1955 37.1086C43.3517 34.2798 46.2805 31.4435 51.9005 28.6785C56.9206 26.2085 60.9681 26.1322 63.0806 26.881C63.7052 27.0424 64.244 27.4375 64.5856 27.9847C64.7579 28.4986 64.8069 29.0458 64.7287 29.5822C64.6506 30.1185 64.4474 30.6289 64.1356 31.0723C63.104 32.62 61.7306 33.9101 60.1213 34.8429C58.5121 35.7757 56.7101 36.3263 54.8543 36.4523C54.1518 36.6059 53.4238 36.6007 52.7235 36.437C52.0233 36.2733 51.3684 35.9552 50.8068 35.5061C50.4593 35.1286 50.0655 34.6998 49.4643 35.0273C48.9943 35.2861 48.8993 35.7811 49.183 36.5136C49.4951 37.0971 49.9228 37.6109 50.4401 38.0236C50.9574 38.4362 51.5535 38.7391 52.1918 38.9136C55.1765 39.5711 58.2922 39.2778 61.1019 38.0748C65.5107 36.3873 69.4532 31.5723 68.2969 27.091ZM48.3693 50.5937C48.302 50.7937 48.2218 50.9891 48.1293 51.1787C47.8833 51.6727 47.5661 52.128 47.188 52.53C46.8225 53.012 46.3396 53.3923 45.7852 53.6346C45.2309 53.8768 44.6238 53.9729 44.0217 53.9137C43.9517 53.8737 43.9242 53.7312 43.9155 53.6725C43.9399 53.1313 44.0714 52.6004 44.3023 52.1104C44.5331 51.6203 44.8588 51.1809 45.2605 50.8174C46.2389 49.8557 47.3523 49.0418 48.5655 48.4012C48.6702 49.1374 48.6031 49.8878 48.3693 50.5937Z" fill="#EC407A"/>
<path d="M43.5376 74.6172C43.4912 74.183 43.2957 73.8449 42.951 73.603C42.6096 73.361 42.1655 73.2401 41.6186 73.2401C41.2341 73.2401 40.9044 73.2981 40.6293 73.4141C40.3542 73.5301 40.1437 73.6875 39.9979 73.8864C39.852 74.0852 39.7775 74.3123 39.7741 74.5675C39.7741 74.7796 39.8222 74.9635 39.9183 75.1193C40.0178 75.2751 40.152 75.4077 40.321 75.517C40.4901 75.6231 40.6773 75.7126 40.8828 75.7855C41.0883 75.8584 41.2955 75.9197 41.5043 75.9695L42.4588 76.2081C42.8433 76.2976 43.2128 76.4186 43.5675 76.571C43.9254 76.7235 44.2453 76.9157 44.527 77.1477C44.812 77.3797 45.0374 77.6598 45.2031 77.9879C45.3688 78.3161 45.4517 78.7005 45.4517 79.1413C45.4517 79.7379 45.2992 80.2633 44.9943 80.7173C44.6894 81.1681 44.2486 81.5211 43.6719 81.7763C43.0985 82.0282 42.4041 82.1541 41.5888 82.1541C40.7966 82.1541 40.1089 82.0315 39.5256 81.7862C38.9455 81.541 38.4915 81.183 38.1634 80.7124C37.8385 80.2417 37.6629 79.6683 37.6364 78.9922H39.451C39.4775 79.3468 39.5869 79.6418 39.7791 79.8771C39.9714 80.1125 40.2216 80.2881 40.5298 80.4041C40.8414 80.5201 41.1894 80.5781 41.5739 80.5781C41.9749 80.5781 42.3262 80.5185 42.6278 80.3991C42.9328 80.2765 43.1714 80.1075 43.3438 79.892C43.5161 79.6733 43.6039 79.4181 43.6072 79.1264C43.6039 78.8613 43.526 78.6425 43.3736 78.4702C43.2211 78.2945 43.0073 78.1487 42.7322 78.0327C42.4605 77.9134 42.1423 77.8073 41.7777 77.7145L40.6193 77.4162C39.7808 77.2008 39.1179 76.8743 38.6307 76.4368C38.1468 75.996 37.9048 75.411 37.9048 74.6818C37.9048 74.0819 38.0672 73.5566 38.392 73.1058C38.7202 72.6551 39.166 72.3054 39.7294 72.0568C40.2929 71.8049 40.9309 71.679 41.6435 71.679C42.366 71.679 42.9991 71.8049 43.5426 72.0568C44.0895 72.3054 44.5187 72.6518 44.8303 73.0959C45.1418 73.5367 45.3026 74.0438 45.3125 74.6172H43.5376ZM49.214 82.1541C48.7301 82.1541 48.2942 82.0679 47.9064 81.8956C47.522 81.7199 47.217 81.4614 46.9917 81.12C46.7696 80.7786 46.6586 80.3577 46.6586 79.8572C46.6586 79.4264 46.7381 79.0701 46.8972 78.7884C47.0563 78.5066 47.2734 78.2812 47.5485 78.1122C47.8236 77.9432 48.1335 77.8156 48.4782 77.7294C48.8262 77.6399 49.1858 77.5753 49.557 77.5355C50.0044 77.4891 50.3674 77.4477 50.6458 77.4112C50.9242 77.3714 51.1264 77.3118 51.2523 77.2322C51.3816 77.1494 51.4462 77.0218 51.4462 76.8494V76.8196C51.4462 76.4451 51.3352 76.1551 51.1131 75.9496C50.891 75.7441 50.5712 75.6413 50.1536 75.6413C49.7128 75.6413 49.3631 75.7375 49.1046 75.9297C48.8494 76.1219 48.677 76.349 48.5875 76.6108L46.9071 76.3722C47.0397 75.9081 47.2585 75.5204 47.5634 75.2088C47.8683 74.8939 48.2412 74.6586 48.682 74.5028C49.1228 74.3438 49.61 74.2642 50.1436 74.2642C50.5115 74.2642 50.8778 74.3073 51.2424 74.3935C51.6069 74.4796 51.94 74.6222 52.2417 74.821C52.5433 75.0166 52.7852 75.2834 52.9675 75.6214C53.1531 75.9595 53.2459 76.3821 53.2459 76.8892V82H51.5158V80.951H51.4561C51.3468 81.1631 51.1926 81.362 50.9938 81.5476C50.7982 81.7299 50.5513 81.8774 50.253 81.9901C49.958 82.0994 49.6117 82.1541 49.214 82.1541ZM49.6813 80.8317C50.0426 80.8317 50.3558 80.7604 50.6209 80.6179C50.8861 80.4721 51.0899 80.2798 51.2324 80.0412C51.3783 79.8026 51.4512 79.5424 51.4512 79.2607V78.3608C51.3948 78.4072 51.2987 78.4503 51.1628 78.4901C51.0302 78.5298 50.8811 78.5646 50.7154 78.5945C50.5497 78.6243 50.3856 78.6508 50.2232 78.674C50.0608 78.6972 49.9199 78.7171 49.8006 78.7337C49.5321 78.7701 49.2918 78.8298 49.0797 78.9126C48.8676 78.9955 48.7002 79.1115 48.5776 79.2607C48.455 79.4065 48.3936 79.5954 48.3936 79.8274C48.3936 80.1589 48.5146 80.4091 48.7566 80.5781C48.9985 80.7472 49.3068 80.8317 49.6813 80.8317ZM61.0911 76.3821L59.4505 76.5611C59.4041 76.3954 59.3229 76.2396 59.2069 76.0938C59.0942 75.9479 58.9417 75.8303 58.7495 75.7408C58.5572 75.6513 58.3219 75.6065 58.0435 75.6065C57.669 75.6065 57.3541 75.6877 57.0989 75.8501C56.847 76.0125 56.7227 76.223 56.726 76.4815C56.7227 76.7036 56.8039 76.8842 56.9696 77.0234C57.1387 77.1626 57.4171 77.277 57.8049 77.3665L59.1074 77.6449C59.83 77.8007 60.3669 78.0476 60.7182 78.3857C61.0729 78.7237 61.2518 79.1662 61.2551 79.7131C61.2518 80.1937 61.111 80.6179 60.8326 80.9858C60.5575 81.3504 60.1747 81.6354 59.6841 81.8409C59.1936 82.0464 58.6301 82.1491 57.9938 82.1491C57.0591 82.1491 56.3068 81.9536 55.7367 81.5625C55.1666 81.1681 54.8269 80.6196 54.7175 79.9169L56.4725 79.7479C56.552 80.0926 56.7211 80.3527 56.9796 80.5284C57.2381 80.7041 57.5745 80.7919 57.9888 80.7919C58.4164 80.7919 58.7594 80.7041 59.0179 80.5284C59.2798 80.3527 59.4107 80.1357 59.4107 79.8771C59.4107 79.6584 59.3262 79.4777 59.1571 79.3352C58.9914 79.1927 58.7329 79.0833 58.3816 79.0071L57.079 78.7337C56.3465 78.5812 55.8046 78.3243 55.4533 77.9631C55.102 77.5985 54.928 77.1378 54.9313 76.581C54.928 76.1103 55.0556 75.7027 55.3141 75.358C55.5759 75.0099 55.9389 74.7415 56.4029 74.5526C56.8702 74.3603 57.4088 74.2642 58.0186 74.2642C58.9135 74.2642 59.6178 74.4548 60.1316 74.8359C60.6486 75.2171 60.9685 75.7325 61.0911 76.3821ZM68.7747 76.3821L67.1341 76.5611C67.0877 76.3954 67.0065 76.2396 66.8904 76.0938C66.7778 75.9479 66.6253 75.8303 66.4331 75.7408C66.2408 75.6513 66.0055 75.6065 65.7271 75.6065C65.3526 75.6065 65.0377 75.6877 64.7825 75.8501C64.5306 76.0125 64.4063 76.223 64.4096 76.4815C64.4063 76.7036 64.4875 76.8842 64.6532 77.0234C64.8223 77.1626 65.1007 77.277 65.4885 77.3665L66.791 77.6449C67.5136 77.8007 68.0505 78.0476 68.4018 78.3857C68.7565 78.7237 68.9354 79.1662 68.9387 79.7131C68.9354 80.1937 68.7946 80.6179 68.5162 80.9858C68.2411 81.3504 67.8583 81.6354 67.3677 81.8409C66.8772 82.0464 66.3137 82.1491 65.6774 82.1491C64.7427 82.1491 63.9904 81.9536 63.4203 81.5625C62.8502 81.1681 62.5105 80.6196 62.4011 79.9169L64.1561 79.7479C64.2356 80.0926 64.4047 80.3527 64.6632 80.5284C64.9217 80.7041 65.2581 80.7919 65.6724 80.7919C66.1 80.7919 66.443 80.7041 66.7015 80.5284C66.9634 80.3527 67.0943 80.1357 67.0943 79.8771C67.0943 79.6584 67.0098 79.4777 66.8407 79.3352C66.675 79.1927 66.4165 79.0833 66.0652 79.0071L64.7626 78.7337C64.0301 78.5812 63.4882 78.3243 63.1369 77.9631C62.7856 77.5985 62.6116 77.1378 62.6149 76.581C62.6116 76.1103 62.7392 75.7027 62.9977 75.358C63.2595 75.0099 63.6225 74.7415 64.0865 74.5526C64.5538 74.3603 65.0924 74.2642 65.7022 74.2642C66.5971 74.2642 67.3014 74.4548 67.8152 74.8359C68.3322 75.2171 68.652 75.7325 68.7747 76.3821Z" fill="white"/>
</g>
<defs>
<filter id="filter0_d_5828_16504" x="0" y="0" width="107" height="109" filterUnits="userSpaceOnUse" color-interpolation-filters="sRGB">
<feFlood flood-opacity="0" result="BackgroundImageFix"/>
<feColorMatrix in="SourceAlpha" type="matrix" values="0 0 0 0 0 0 0 0 0 0 0 0 0 0 0 0 0 0 127 0" result="hardAlpha"/>
<feOffset dy="2"/>
<feGaussianBlur stdDeviation="4"/>
<feColorMatrix type="matrix" values="0 0 0 0 0 0 0 0 0 0 0 0 0 0 0 0 0 0 0.25 0"/>
<feBlend mode="normal" in2="BackgroundImageFix" result="effect1_dropShadow_5828_16504"/>
<feBlend mode="normal" in="SourceGraphic" in2="effect1_dropShadow_5828_16504" result="shape"/>
</filter>
</defs>
</svg>
