<svg width="107" height="109" viewBox="0 0 107 109" fill="none" xmlns="http://www.w3.org/2000/svg">
<g filter="url(#filter0_d_5828_16547)">
<rect x="8" y="6" width="91" height="93" rx="12" fill="#151B23"/>
<rect x="9" y="7" width="89" height="91" rx="11" stroke="#1F2937" stroke-width="2"/>
<path d="M71.0003 31.0139C71.0003 31.0139 59.3337 22.429 50.3085 24.4101L49.6481 24.6302C48.3274 25.0705 47.2267 25.7309 46.5664 26.6114L46.1261 27.2717L42.8242 32.995L48.5475 34.0956C50.9689 35.6365 54.0506 36.2969 56.9123 35.6365L67.0381 37.6176L71.0003 31.0139Z" fill="#76B3E1"/>
<path opacity="0.3" d="M71.0003 31.0139C71.0003 31.0139 59.3337 22.429 50.3085 24.4101L49.6481 24.6302C48.3274 25.0705 47.2267 25.7309 46.5664 26.6114L46.1261 27.2717L42.8242 32.995L48.5475 34.0956C50.9689 35.6365 54.0506 36.2969 56.9123 35.6365L67.0381 37.6176L71.0003 31.0139Z" fill="url(#paint0_linear_5828_16547)"/>
<path d="M46.566 31.0136L45.6855 31.2337C41.9433 32.3344 40.8427 35.8564 42.8239 38.9381C45.0251 41.7998 49.6478 43.3407 53.3899 42.24L67.0377 37.6174C67.0377 37.6174 55.371 29.0325 46.566 31.0136Z" fill="#518AC8"/>
<path opacity="0.3" d="M46.566 31.0136L45.6855 31.2337C41.9433 32.3344 40.8427 35.8564 42.8239 38.9381C45.0251 41.7998 49.6478 43.3407 53.3899 42.24L67.0377 37.6174C67.0377 37.6174 55.371 29.0325 46.566 31.0136Z" fill="url(#paint1_linear_5828_16547)"/>
<path d="M64.6164 40.9206C63.3839 39.381 61.72 38.2442 59.8376 37.656C57.9552 37.0677 55.9401 37.0548 54.0503 37.6187L40.4025 42.0213L36 49.7257L60.6541 53.9081L65.0566 45.9835C65.9371 44.4426 65.717 42.6816 64.6164 40.9206Z" fill="url(#paint2_linear_5828_16547)"/>
<path d="M60.2138 48.6238C58.9814 47.0841 57.3175 45.9474 55.4351 45.3591C53.5527 44.7709 51.5376 44.7579 49.6478 45.3219L36 49.7244C36 49.7244 47.6667 58.5294 56.6918 56.3282L57.3522 56.108C61.0943 55.0074 62.4151 51.4854 60.2138 48.6238Z" fill="url(#paint3_linear_5828_16547)"/>
<path d="M43.0376 74.6172C42.9912 74.183 42.7957 73.8449 42.451 73.603C42.1096 73.361 41.6655 73.2401 41.1186 73.2401C40.7341 73.2401 40.4044 73.2981 40.1293 73.4141C39.8542 73.5301 39.6437 73.6875 39.4979 73.8864C39.352 74.0852 39.2775 74.3123 39.2741 74.5675C39.2741 74.7796 39.3222 74.9635 39.4183 75.1193C39.5178 75.2751 39.652 75.4077 39.821 75.517C39.9901 75.6231 40.1773 75.7126 40.3828 75.7855C40.5883 75.8584 40.7955 75.9197 41.0043 75.9695L41.9588 76.2081C42.3433 76.2976 42.7128 76.4186 43.0675 76.571C43.4254 76.7235 43.7453 76.9157 44.027 77.1477C44.312 77.3797 44.5374 77.6598 44.7031 77.9879C44.8688 78.3161 44.9517 78.7005 44.9517 79.1413C44.9517 79.7379 44.7992 80.2633 44.4943 80.7173C44.1894 81.1681 43.7486 81.5211 43.1719 81.7763C42.5985 82.0282 41.9041 82.1541 41.0888 82.1541C40.2966 82.1541 39.6089 82.0315 39.0256 81.7862C38.4455 81.541 37.9915 81.183 37.6634 80.7124C37.3385 80.2417 37.1629 79.6683 37.1364 78.9922H38.951C38.9775 79.3468 39.0869 79.6418 39.2791 79.8771C39.4714 80.1125 39.7216 80.2881 40.0298 80.4041C40.3414 80.5201 40.6894 80.5781 41.0739 80.5781C41.4749 80.5781 41.8262 80.5185 42.1278 80.3991C42.4328 80.2765 42.6714 80.1075 42.8438 79.892C43.0161 79.6733 43.1039 79.4181 43.1072 79.1264C43.1039 78.8613 43.026 78.6425 42.8736 78.4702C42.7211 78.2945 42.5073 78.1487 42.2322 78.0327C41.9605 77.9134 41.6423 77.8073 41.2777 77.7145L40.1193 77.4162C39.2808 77.2008 38.6179 76.8743 38.1307 76.4368C37.6468 75.996 37.4048 75.411 37.4048 74.6818C37.4048 74.0819 37.5672 73.5566 37.892 73.1058C38.2202 72.6551 38.666 72.3054 39.2294 72.0568C39.7929 71.8049 40.4309 71.679 41.1435 71.679C41.866 71.679 42.4991 71.8049 43.0426 72.0568C43.5895 72.3054 44.0187 72.6518 44.3303 73.0959C44.6418 73.5367 44.8026 74.0438 44.8125 74.6172H43.0376ZM49.8475 82.1491C49.1017 82.1491 48.4554 81.9851 47.9086 81.657C47.3617 81.3288 46.9374 80.8698 46.6358 80.2798C46.3375 79.6899 46.1884 79.0005 46.1884 78.2116C46.1884 77.4228 46.3375 76.7318 46.6358 76.1385C46.9374 75.5452 47.3617 75.0845 47.9086 74.7564C48.4554 74.4283 49.1017 74.2642 49.8475 74.2642C50.5932 74.2642 51.2395 74.4283 51.7864 74.7564C52.3333 75.0845 52.7559 75.5452 53.0542 76.1385C53.3558 76.7318 53.5066 77.4228 53.5066 78.2116C53.5066 79.0005 53.3558 79.6899 53.0542 80.2798C52.7559 80.8698 52.3333 81.3288 51.7864 81.657C51.2395 81.9851 50.5932 82.1491 49.8475 82.1491ZM49.8574 80.7074C50.2618 80.7074 50.5998 80.5964 50.8716 80.3743C51.1434 80.1489 51.3456 79.8473 51.4782 79.4695C51.6141 79.0916 51.682 78.6707 51.682 78.2067C51.682 77.7393 51.6141 77.3168 51.4782 76.9389C51.3456 76.5578 51.1434 76.2545 50.8716 76.0291C50.5998 75.8037 50.2618 75.6911 49.8574 75.6911C49.4431 75.6911 49.0984 75.8037 48.8233 76.0291C48.5516 76.2545 48.3477 76.5578 48.2118 76.9389C48.0792 77.3168 48.013 77.7393 48.013 78.2067C48.013 78.6707 48.0792 79.0916 48.2118 79.4695C48.3477 79.8473 48.5516 80.1489 48.8233 80.3743C49.0984 80.5964 49.4431 80.7074 49.8574 80.7074ZM56.8338 71.8182V82H55.0341V71.8182H56.8338ZM58.6845 82V74.3636H60.4842V82H58.6845ZM59.5893 73.2798C59.3043 73.2798 59.059 73.1854 58.8535 72.9964C58.648 72.8042 58.5453 72.5739 58.5453 72.3054C58.5453 72.0336 58.648 71.8033 58.8535 71.6143C59.059 71.4221 59.3043 71.326 59.5893 71.326C59.8777 71.326 60.1229 71.4221 60.3251 71.6143C60.5306 71.8033 60.6333 72.0336 60.6333 72.3054C60.6333 72.5739 60.5306 72.8042 60.3251 72.9964C60.1229 73.1854 59.8777 73.2798 59.5893 73.2798ZM65.1687 82.1342C64.5688 82.1342 64.0318 81.9801 63.5579 81.6719C63.0839 81.3636 62.7094 80.9162 62.4343 80.3295C62.1592 79.7429 62.0217 79.0303 62.0217 78.1918C62.0217 77.3433 62.1609 76.6274 62.4393 76.044C62.721 75.4574 63.1005 75.0149 63.5778 74.7166C64.055 74.415 64.587 74.2642 65.1737 74.2642C65.6211 74.2642 65.989 74.3404 66.2773 74.4929C66.5657 74.642 66.7944 74.8227 66.9634 75.0348C67.1325 75.2436 67.2634 75.4408 67.3562 75.6264H67.4308V71.8182H69.2354V82H67.4656V80.7969H67.3562C67.2634 80.9825 67.1291 81.1797 66.9535 81.3885C66.7778 81.594 66.5458 81.7696 66.2575 81.9155C65.9691 82.0613 65.6062 82.1342 65.1687 82.1342ZM65.6708 80.6577C66.052 80.6577 66.3768 80.5549 66.6452 80.3494C66.9137 80.1406 67.1175 79.8506 67.2567 79.4794C67.396 79.1082 67.4656 78.6757 67.4656 78.1818C67.4656 77.688 67.396 77.2588 67.2567 76.8942C67.1209 76.5296 66.9187 76.2462 66.6502 76.044C66.3851 75.8419 66.0586 75.7408 65.6708 75.7408C65.2698 75.7408 64.935 75.8452 64.6665 76.054C64.3981 76.2628 64.1959 76.5511 64.06 76.919C63.9241 77.2869 63.8562 77.7079 63.8562 78.1818C63.8562 78.6591 63.9241 79.085 64.06 79.4595C64.1992 79.8307 64.4031 80.1241 64.6715 80.3395C64.9433 80.5516 65.2764 80.6577 65.6708 80.6577Z" fill="white"/>
</g>
<defs>
<filter id="filter0_d_5828_16547" x="0" y="0" width="107" height="109" filterUnits="userSpaceOnUse" color-interpolation-filters="sRGB">
<feFlood flood-opacity="0" result="BackgroundImageFix"/>
<feColorMatrix in="SourceAlpha" type="matrix" values="0 0 0 0 0 0 0 0 0 0 0 0 0 0 0 0 0 0 127 0" result="hardAlpha"/>
<feOffset dy="2"/>
<feGaussianBlur stdDeviation="4"/>
<feColorMatrix type="matrix" values="0 0 0 0 0 0 0 0 0 0 0 0 0 0 0 0 0 0 0.25 0"/>
<feBlend mode="normal" in2="BackgroundImageFix" result="effect1_dropShadow_5828_16547"/>
<feBlend mode="normal" in="SourceGraphic" in2="effect1_dropShadow_5828_16547" result="shape"/>
</filter>
<linearGradient id="paint0_linear_5828_16547" x1="41.1733" y1="23.9698" x2="68.5789" y2="37.2875" gradientUnits="userSpaceOnUse">
<stop offset="0.1" stop-color="#76B3E1"/>
<stop offset="0.3" stop-color="#DCF2FD"/>
<stop offset="1" stop-color="#76B3E1"/>
</linearGradient>
<linearGradient id="paint1_linear_5828_16547" x1="56.2075" y1="30.4853" x2="51.4088" y2="46.4664" gradientUnits="userSpaceOnUse">
<stop stop-color="#76B3E1"/>
<stop offset="0.5" stop-color="#4377BB"/>
<stop offset="1" stop-color="#1F3B77"/>
</linearGradient>
<linearGradient id="paint2_linear_5828_16547" x1="39.1698" y1="37.4426" x2="66.8836" y2="56.2854" gradientUnits="userSpaceOnUse">
<stop stop-color="#315AA9"/>
<stop offset="0.5" stop-color="#518AC8"/>
<stop offset="1" stop-color="#315AA9"/>
</linearGradient>
<linearGradient id="paint3_linear_5828_16547" x1="51.673" y1="39.7087" x2="40.4906" y2="80.7181" gradientUnits="userSpaceOnUse">
<stop stop-color="#4377BB"/>
<stop offset="0.5" stop-color="#1A336B"/>
<stop offset="1" stop-color="#1A336B"/>
</linearGradient>
</defs>
</svg>
