<svg width="107" height="109" viewBox="0 0 107 109" fill="none" xmlns="http://www.w3.org/2000/svg">
<g filter="url(#filter0_d_5845_13478)">
<rect x="8" y="6" width="91" height="93" rx="12" fill="#151B23"/>
<rect x="9" y="7" width="89" height="91" rx="11" stroke="#1F2937" stroke-width="2"/>
<path d="M62.491 24.0527H40.5303C39.8216 24.055 39.1426 24.3376 38.6414 24.8387C38.1403 25.3398 37.8578 26.0188 37.8555 26.7275V50.9481C37.8578 51.6568 38.1403 52.3358 38.6414 52.8369C39.1426 53.338 39.8216 53.6206 40.5303 53.6229H54.9954C54.8304 46.4272 57.2889 32.4608 62.491 24.054V24.0527Z" fill="#0F80CC"/>
<path d="M61.6936 24.834H40.5316C40.0294 24.8353 39.5482 25.0354 39.1932 25.3904C38.8381 25.7455 38.638 26.2267 38.6367 26.7288V49.1795C44.0658 47.1317 49.7968 45.9981 55.5966 45.8248C57.1308 38.6927 59.1682 31.6782 61.6936 24.834Z" fill="url(#paint0_linear_5845_13478)"/>
<path d="M67.6116 23.2602C66.1118 21.9191 64.2869 22.4578 62.487 24.0527C62.2204 24.291 61.9546 24.5514 61.6896 24.8338C58.3037 28.8382 55.9625 33.619 54.8751 38.749C55.2114 39.4814 55.4751 40.2439 55.6676 41.0263C55.7126 41.2013 55.7538 41.3663 55.7926 41.5063C55.8701 41.8375 55.9176 42.0525 55.9176 42.0525C55.9176 42.0525 55.8901 41.9487 55.7763 41.62L55.7026 41.4075L55.6551 41.29C55.4551 40.8238 54.9051 39.8402 54.6552 39.4152C54.4464 40.0314 54.2614 40.6076 54.1077 41.1288C54.6264 42.245 55.0076 43.4199 55.2426 44.6285C55.2426 44.6285 55.2051 44.4848 55.0289 43.9848C54.6903 43.2546 54.3149 42.5421 53.904 41.85C53.6368 42.5353 53.5241 43.271 53.574 44.0048C53.849 44.5548 54.0565 45.1347 54.1902 45.7334C54.6077 47.3371 54.8976 49.2906 54.8976 49.2906L54.9226 49.6194C54.8673 50.9551 54.8944 52.2929 55.0039 53.6253C55.0664 54.944 55.3114 56.2488 55.7338 57.5L55.9588 57.375C55.4361 55.4941 55.2341 53.5385 55.3614 51.5905C55.5963 47.4608 56.4113 43.3836 57.7837 39.4814C60.296 32.847 63.7832 27.5224 66.9704 24.9826C64.0632 27.6074 60.1285 36.1067 58.9498 39.2539C57.709 42.4945 56.766 45.8414 56.1325 49.2532C56.8848 47.3483 58.3605 45.8186 60.2372 44.9985C60.2372 44.9985 61.7783 43.0974 63.5795 40.3826C62.4162 40.6251 61.2684 40.9305 60.136 41.2988C59.261 41.6663 59.0248 41.7912 59.0248 41.7912C60.6952 40.7858 62.4597 39.9457 64.2931 39.2827C67.6379 34.0144 71.2826 26.5337 67.6129 23.254" fill="#003B57"/>
<path d="M40.6988 74.6172C40.6524 74.183 40.4568 73.8449 40.1121 73.603C39.7707 73.361 39.3266 73.2401 38.7797 73.2401C38.3953 73.2401 38.0655 73.2981 37.7904 73.4141C37.5153 73.5301 37.3048 73.6875 37.159 73.8864C37.0132 74.0852 36.9386 74.3123 36.9353 74.5675C36.9353 74.7796 36.9833 74.9635 37.0795 75.1193C37.1789 75.2751 37.3131 75.4077 37.4822 75.517C37.6512 75.6231 37.8385 75.7126 38.0439 75.7855C38.2494 75.8584 38.4566 75.9197 38.6654 75.9695L39.6199 76.2081C40.0044 76.2976 40.374 76.4186 40.7286 76.571C41.0866 76.7235 41.4064 76.9157 41.6881 77.1477C41.9732 77.3797 42.1985 77.6598 42.3643 77.9879C42.53 78.3161 42.6128 78.7005 42.6128 79.1413C42.6128 79.7379 42.4604 80.2633 42.1555 80.7173C41.8505 81.1681 41.4097 81.5211 40.833 81.7763C40.2596 82.0282 39.5653 82.1541 38.7499 82.1541C37.9578 82.1541 37.27 82.0315 36.6867 81.7862C36.1067 81.541 35.6526 81.183 35.3245 80.7124C34.9997 80.2417 34.824 79.6683 34.7975 78.9922H36.6121C36.6386 79.3468 36.748 79.6418 36.9403 79.8771C37.1325 80.1125 37.3827 80.2881 37.691 80.4041C38.0025 80.5201 38.3505 80.5781 38.735 80.5781C39.136 80.5781 39.4874 80.5185 39.789 80.3991C40.0939 80.2765 40.3325 80.1075 40.5049 79.892C40.6772 79.6733 40.7651 79.4181 40.7684 79.1264C40.7651 78.8613 40.6872 78.6425 40.5347 78.4702C40.3823 78.2945 40.1685 78.1487 39.8934 78.0327C39.6216 77.9134 39.3034 77.8073 38.9388 77.7145L37.7805 77.4162C36.9419 77.2008 36.279 76.8743 35.7918 76.4368C35.3079 75.996 35.066 75.411 35.066 74.6818C35.066 74.0819 35.2284 73.5566 35.5532 73.1058C35.8813 72.6551 36.3271 72.3054 36.8905 72.0568C37.454 71.8049 38.092 71.679 38.8046 71.679C39.5271 71.679 40.1602 71.8049 40.7037 72.0568C41.2506 72.3054 41.6798 72.6518 41.9914 73.0959C42.3029 73.5367 42.4637 74.0438 42.4736 74.6172H40.6988ZM49.2735 84.8636V80.7969H49.199C49.1061 80.9825 48.9719 81.1797 48.7963 81.3885C48.6206 81.594 48.3886 81.7696 48.1002 81.9155C47.8119 82.0613 47.449 82.1342 47.0115 82.1342C46.4115 82.1342 45.8746 81.9801 45.4007 81.6719C44.9267 81.3636 44.5522 80.9162 44.2771 80.3295C44.002 79.7429 43.8644 79.0303 43.8644 78.1918C43.8644 77.3433 44.0036 76.6274 44.282 76.044C44.5638 75.4574 44.9433 75.0149 45.4205 74.7166C45.8978 74.415 46.4298 74.2642 47.0164 74.2642C47.4639 74.2642 47.8318 74.3404 48.1201 74.4929C48.4085 74.642 48.6372 74.8227 48.8062 75.0348C48.9752 75.2436 49.1061 75.4408 49.199 75.6264H49.3083V74.3636H51.0782V84.8636H49.2735ZM47.5136 80.6577C47.8947 80.6577 48.2195 80.5549 48.488 80.3494C48.7565 80.1406 48.9603 79.8506 49.0995 79.4794C49.2387 79.1082 49.3083 78.6757 49.3083 78.1818C49.3083 77.688 49.2387 77.2588 49.0995 76.8942C48.9636 76.5296 48.7615 76.2462 48.493 76.044C48.2278 75.8419 47.9014 75.7408 47.5136 75.7408C47.1125 75.7408 46.7778 75.8452 46.5093 76.054C46.2409 76.2628 46.0387 76.5511 45.9028 76.919C45.7669 77.2869 45.699 77.7079 45.699 78.1818C45.699 78.6591 45.7669 79.085 45.9028 79.4595C46.042 79.8307 46.2458 80.1241 46.5143 80.3395C46.7861 80.5516 47.1192 80.6577 47.5136 80.6577ZM54.7274 71.8182V82H52.9276V71.8182H54.7274ZM56.578 82V74.3636H58.3778V82H56.578ZM57.4829 73.2798C57.1978 73.2798 56.9526 73.1854 56.7471 72.9964C56.5416 72.8042 56.4388 72.5739 56.4388 72.3054C56.4388 72.0336 56.5416 71.8033 56.7471 71.6143C56.9526 71.4221 57.1978 71.326 57.4829 71.326C57.7712 71.326 58.0165 71.4221 58.2187 71.6143C58.4242 71.8033 58.5269 72.0336 58.5269 72.3054C58.5269 72.5739 58.4242 72.8042 58.2187 72.9964C58.0165 73.1854 57.7712 73.2798 57.4829 73.2798ZM64.0416 74.3636V75.7557H59.6517V74.3636H64.0416ZM60.7355 72.5341H62.5352V79.7031C62.5352 79.9451 62.5717 80.1307 62.6446 80.2599C62.7209 80.3859 62.8203 80.4721 62.9429 80.5185C63.0655 80.5649 63.2014 80.5881 63.3506 80.5881C63.4633 80.5881 63.566 80.5798 63.6588 80.5632C63.7549 80.5466 63.8279 80.5317 63.8776 80.5185L64.1808 81.9254C64.0847 81.9586 63.9472 81.995 63.7682 82.0348C63.5925 82.0746 63.3771 82.0978 63.1219 82.1044C62.6711 82.1177 62.2651 82.0497 61.9039 81.9006C61.5426 81.7481 61.2559 81.5128 61.0438 81.1946C60.835 80.8764 60.7322 80.4787 60.7355 80.0014V72.5341ZM68.8454 82.1491C68.0798 82.1491 67.4186 81.9901 66.8618 81.6719C66.3083 81.3504 65.8824 80.8963 65.5841 80.3097C65.2858 79.7197 65.1366 79.0253 65.1366 78.2266C65.1366 77.4411 65.2858 76.7517 65.5841 76.1584C65.8857 75.5618 66.3066 75.0978 66.8469 74.7663C67.3871 74.4316 68.0218 74.2642 68.751 74.2642C69.2216 74.2642 69.6657 74.3404 70.0834 74.4929C70.5043 74.642 70.8755 74.8741 71.197 75.1889C71.5218 75.5038 71.777 75.9048 71.9626 76.392C72.1482 76.8759 72.241 77.4527 72.241 78.1222V78.674H65.9818V77.4609H70.5159C70.5126 77.1162 70.438 76.8097 70.2922 76.5412C70.1463 76.2694 69.9425 76.0556 69.6807 75.8999C69.4221 75.7441 69.1205 75.6662 68.7758 75.6662C68.4079 75.6662 68.0848 75.7557 67.8064 75.9347C67.528 76.1103 67.3109 76.3423 67.1551 76.6307C67.0026 76.9157 66.9247 77.2289 66.9214 77.5703V78.6293C66.9214 79.0734 67.0026 79.4545 67.165 79.7727C67.3274 80.0876 67.5545 80.3295 67.8461 80.4986C68.1378 80.6643 68.4792 80.7472 68.8703 80.7472C69.1321 80.7472 69.3691 80.7107 69.5812 80.6378C69.7934 80.5616 69.9773 80.4505 70.1331 80.3047C70.2889 80.1589 70.4065 79.9782 70.4861 79.7628L72.1665 79.9517C72.0604 80.3958 71.8582 80.7836 71.5599 81.1151C71.2649 81.4432 70.8871 81.6984 70.4264 81.8807C69.9657 82.0597 69.4387 82.1491 68.8454 82.1491Z" fill="white"/>
</g>
<defs>
<filter id="filter0_d_5845_13478" x="0" y="0" width="107" height="109" filterUnits="userSpaceOnUse" color-interpolation-filters="sRGB">
<feFlood flood-opacity="0" result="BackgroundImageFix"/>
<feColorMatrix in="SourceAlpha" type="matrix" values="0 0 0 0 0 0 0 0 0 0 0 0 0 0 0 0 0 0 127 0" result="hardAlpha"/>
<feOffset dy="2"/>
<feGaussianBlur stdDeviation="4"/>
<feColorMatrix type="matrix" values="0 0 0 0 0 0 0 0 0 0 0 0 0 0 0 0 0 0 0.25 0"/>
<feBlend mode="normal" in2="BackgroundImageFix" result="effect1_dropShadow_5845_13478"/>
<feBlend mode="normal" in="SourceGraphic" in2="effect1_dropShadow_5845_13478" result="shape"/>
</filter>
<linearGradient id="paint0_linear_5845_13478" x1="50.1383" y1="25.3827" x2="50.1383" y2="47.8797" gradientUnits="userSpaceOnUse">
<stop stop-color="#97D9F6"/>
<stop offset="0.92" stop-color="#0F80CC"/>
<stop offset="1" stop-color="#0F80CC"/>
</linearGradient>
</defs>
</svg>
