<svg width="107" height="109" viewBox="0 0 107 109" fill="none" xmlns="http://www.w3.org/2000/svg">
<g filter="url(#filter0_d_5829_13365)">
<rect x="8" y="6" width="91" height="93" rx="12" fill="#151B23"/>
<rect x="9" y="7" width="89" height="91" rx="11" stroke="#1F2937" stroke-width="2"/>
<path fill-rule="evenodd" clip-rule="evenodd" d="M53.7382 56.4383C57.5659 42.7508 57.4548 42.6887 60.2217 32.9294L60.8871 33.3137C61.2486 33.5225 61.5444 33.3517 61.5444 32.9352V28.281C62.2787 25.7095 62.8541 23.7225 63.0226 23.125H66.0203L71.0001 27.7382L67.7296 30.5646L70.2025 33.2383L53.9036 56.4379C53.8239 56.5689 53.7129 56.539 53.7382 56.4379V56.4383ZM55.5188 26.936C55.666 26.936 55.7862 27.0174 55.7862 27.1184V29.5036C55.7862 29.6044 55.666 29.6863 55.5189 29.6863H51.4925C51.3445 29.6863 51.2246 29.6047 51.2246 29.5036V27.1184C51.2246 27.0178 51.3444 26.936 51.4925 26.936H55.5189H55.5188Z" fill="#F3F4F6"/>
<path fill-rule="evenodd" clip-rule="evenodd" d="M60.4869 24.2957L56.0575 26.8527C56.1089 26.9309 56.1402 27.021 56.1402 27.1192V29.5044C56.1402 29.6282 56.0922 29.7398 56.0131 29.8298L60.4869 32.4125C60.7919 32.5886 61.0421 32.4446 61.0421 32.0928V24.6158C61.0421 24.2637 60.792 24.12 60.4869 24.2957ZM50.8669 29.5043V27.1191C50.8669 27.0214 50.8982 26.9313 50.949 26.8532L46.5196 24.2957C46.2148 24.12 45.9648 24.2637 45.9648 24.6158V32.0927C45.9648 32.4444 46.2144 32.5888 46.5196 32.4121L50.9932 29.8291C50.9145 29.7391 50.8668 29.6278 50.8668 29.504L50.8669 29.5043Z" fill="#F3F4F6"/>
<path fill-rule="evenodd" clip-rule="evenodd" d="M53.0965 56.4383H53.2619C49.4348 42.7508 49.545 42.6887 46.7783 32.9294L46.1129 33.3137C45.7516 33.5225 45.4556 33.3517 45.4556 32.9352V28.281C44.7212 25.7095 44.1461 23.7225 43.977 23.125H40.9796L36 27.7382L39.2702 30.5646L36.7972 33.2383L53.0965 56.4383Z" fill="#F3F4F6"/>
<path d="M53.3789 34.6679C54.0466 34.6679 54.5878 34.1266 54.5878 33.459C54.5878 32.7913 54.0466 32.25 53.3789 32.25C52.7112 32.25 52.1699 32.7913 52.1699 33.459C52.1699 34.1266 52.7112 34.6679 53.3789 34.6679Z" fill="#F3F4F6"/>
<path d="M53.3789 41.8554C54.0466 41.8554 54.5878 41.3141 54.5878 40.6465C54.5878 39.9788 54.0466 39.4375 53.3789 39.4375C52.7112 39.4375 52.1699 39.9788 52.1699 40.6465C52.1699 41.3141 52.7112 41.8554 53.3789 41.8554Z" fill="#F3F4F6"/>
<path d="M53.3788 49.0447C54.0464 49.0447 54.5877 48.5035 54.5877 47.8358C54.5877 47.1682 54.0464 46.627 53.3788 46.627C52.7112 46.627 52.1699 47.1682 52.1699 47.8358C52.1699 48.5035 52.7112 49.0447 53.3788 49.0447Z" fill="#F3F4F6"/>
<path d="M32.0376 74.6172C31.9912 74.183 31.7957 73.8449 31.451 73.603C31.1096 73.361 30.6655 73.2401 30.1186 73.2401C29.7341 73.2401 29.4044 73.2981 29.1293 73.4141C28.8542 73.5301 28.6437 73.6875 28.4979 73.8864C28.352 74.0852 28.2775 74.3123 28.2741 74.5675C28.2741 74.7796 28.3222 74.9635 28.4183 75.1193C28.5178 75.2751 28.652 75.4077 28.821 75.517C28.9901 75.6231 29.1773 75.7126 29.3828 75.7855C29.5883 75.8584 29.7955 75.9197 30.0043 75.9695L30.9588 76.2081C31.3433 76.2976 31.7128 76.4186 32.0675 76.571C32.4254 76.7235 32.7453 76.9157 33.027 77.1477C33.312 77.3797 33.5374 77.6598 33.7031 77.9879C33.8688 78.3161 33.9517 78.7005 33.9517 79.1413C33.9517 79.7379 33.7992 80.2633 33.4943 80.7173C33.1894 81.1681 32.7486 81.5211 32.1719 81.7763C31.5985 82.0282 30.9041 82.1541 30.0888 82.1541C29.2966 82.1541 28.6089 82.0315 28.0256 81.7862C27.4455 81.541 26.9915 81.183 26.6634 80.7124C26.3385 80.2417 26.1629 79.6683 26.1364 78.9922H27.951C27.9775 79.3468 28.0869 79.6418 28.2791 79.8771C28.4714 80.1125 28.7216 80.2881 29.0298 80.4041C29.3414 80.5201 29.6894 80.5781 30.0739 80.5781C30.4749 80.5781 30.8262 80.5185 31.1278 80.3991C31.4328 80.2765 31.6714 80.1075 31.8438 79.892C32.0161 79.6733 32.1039 79.4181 32.1072 79.1264C32.1039 78.8613 32.026 78.6425 31.8736 78.4702C31.7211 78.2945 31.5073 78.1487 31.2322 78.0327C30.9605 77.9134 30.6423 77.8073 30.2777 77.7145L29.1193 77.4162C28.2808 77.2008 27.6179 76.8743 27.1307 76.4368C26.6468 75.996 26.4048 75.411 26.4048 74.6818C26.4048 74.0819 26.5672 73.5566 26.892 73.1058C27.2202 72.6551 27.666 72.3054 28.2294 72.0568C28.7929 71.8049 29.4309 71.679 30.1435 71.679C30.866 71.679 31.4991 71.8049 32.0426 72.0568C32.5895 72.3054 33.0187 72.6518 33.3303 73.0959C33.6418 73.5367 33.8026 74.0438 33.8125 74.6172H32.0376ZM39.3297 74.3636V75.7557H34.9398V74.3636H39.3297ZM36.0236 72.5341H37.8233V79.7031C37.8233 79.9451 37.8598 80.1307 37.9327 80.2599C38.0089 80.3859 38.1084 80.4721 38.231 80.5185C38.3536 80.5649 38.4895 80.5881 38.6387 80.5881C38.7514 80.5881 38.8541 80.5798 38.9469 80.5632C39.043 80.5466 39.1159 80.5317 39.1657 80.5185L39.4689 81.9254C39.3728 81.9586 39.2353 81.995 39.0563 82.0348C38.8806 82.0746 38.6652 82.0978 38.41 82.1044C37.9592 82.1177 37.5532 82.0497 37.1919 81.9006C36.8307 81.7481 36.544 81.5128 36.3319 81.1946C36.123 80.8764 36.0203 80.4787 36.0236 80.0014V72.5341ZM41.9535 84.8636C41.7082 84.8636 41.4812 84.8438 41.2724 84.804C41.0669 84.7675 40.9028 84.7244 40.7802 84.6747L41.1978 83.2727C41.4596 83.349 41.6933 83.3854 41.8988 83.3821C42.1043 83.3788 42.2849 83.3142 42.4407 83.1882C42.5998 83.0656 42.734 82.8601 42.8434 82.5717L42.9975 82.1591L40.2283 74.3636H42.1374L43.8974 80.1307H43.9769L45.7418 74.3636H47.6559L44.5984 82.9247C44.4558 83.3291 44.2669 83.6754 44.0316 83.9638C43.7963 84.2554 43.5079 84.4775 43.1665 84.63C42.8285 84.7857 42.4241 84.8636 41.9535 84.8636ZM50.701 71.8182V82H48.9013V71.8182H50.701ZM55.9324 82.1491C55.1667 82.1491 54.5055 81.9901 53.9487 81.6719C53.3952 81.3504 52.9693 80.8963 52.671 80.3097C52.3727 79.7197 52.2235 79.0253 52.2235 78.2266C52.2235 77.4411 52.3727 76.7517 52.671 76.1584C52.9726 75.5618 53.3935 75.0978 53.9338 74.7663C54.474 74.4316 55.1087 74.2642 55.8379 74.2642C56.3085 74.2642 56.7527 74.3404 57.1703 74.4929C57.5912 74.642 57.9624 74.8741 58.2839 75.1889C58.6087 75.5038 58.8639 75.9048 59.0495 76.392C59.2351 76.8759 59.3279 77.4527 59.3279 78.1222V78.674H53.0687V77.4609H57.6028C57.5995 77.1162 57.5249 76.8097 57.3791 76.5412C57.2333 76.2694 57.0294 76.0556 56.7676 75.8999C56.5091 75.7441 56.2074 75.6662 55.8627 75.6662C55.4949 75.6662 55.1717 75.7557 54.8933 75.9347C54.6149 76.1103 54.3978 76.3423 54.242 76.6307C54.0895 76.9157 54.0117 77.2289 54.0083 77.5703V78.6293C54.0083 79.0734 54.0895 79.4545 54.252 79.7727C54.4144 80.0876 54.6414 80.3295 54.9331 80.4986C55.2247 80.6643 55.5661 80.7472 55.9572 80.7472C56.219 80.7472 56.456 80.7107 56.6681 80.6378C56.8803 80.5616 57.0642 80.4505 57.22 80.3047C57.3758 80.1589 57.4934 79.9782 57.573 79.7628L59.2534 79.9517C59.1473 80.3958 58.9451 80.7836 58.6468 81.1151C58.3519 81.4432 57.974 81.6984 57.5133 81.8807C57.0526 82.0597 56.5256 82.1491 55.9324 82.1491ZM62.6502 71.8182V82H60.8505V71.8182H62.6502ZM64.5009 82V74.3636H66.3006V82H64.5009ZM65.4057 73.2798C65.1207 73.2798 64.8754 73.1854 64.6699 72.9964C64.4644 72.8042 64.3617 72.5739 64.3617 72.3054C64.3617 72.0336 64.4644 71.8033 64.6699 71.6143C64.8754 71.4221 65.1207 71.326 65.4057 71.326C65.6941 71.326 65.9393 71.4221 66.1415 71.6143C66.347 71.8033 66.4498 72.0336 66.4498 72.3054C66.4498 72.5739 66.347 72.8042 66.1415 72.9964C65.9393 73.1854 65.6941 73.2798 65.4057 73.2798ZM69.951 77.5256V82H68.1513V74.3636H69.8714V75.6612H69.9609C70.1366 75.2337 70.4167 74.8939 70.8011 74.642C71.1889 74.3902 71.6679 74.2642 72.2379 74.2642C72.7649 74.2642 73.224 74.3769 73.6151 74.6023C74.0095 74.8277 74.3144 75.1541 74.5298 75.5817C74.7486 76.0092 74.8563 76.5279 74.853 77.1378V82H73.0533V77.4162C73.0533 76.9058 72.9207 76.5064 72.6555 76.218C72.3937 75.9297 72.0308 75.7855 71.5668 75.7855C71.2519 75.7855 70.9718 75.8551 70.7266 75.9943C70.4846 76.1302 70.294 76.3274 70.1548 76.5859C70.0189 76.8445 69.951 77.1577 69.951 77.5256ZM80.4957 74.3636V75.7557H76.1058V74.3636H80.4957ZM77.1896 72.5341H78.9893V79.7031C78.9893 79.9451 79.0258 80.1307 79.0987 80.2599C79.175 80.3859 79.2744 80.4721 79.397 80.5185C79.5196 80.5649 79.6555 80.5881 79.8047 80.5881C79.9174 80.5881 80.0201 80.5798 80.1129 80.5632C80.209 80.5466 80.282 80.5317 80.3317 80.5185L80.6349 81.9254C80.5388 81.9586 80.4013 81.995 80.2223 82.0348C80.0466 82.0746 79.8312 82.0978 79.576 82.1044C79.1252 82.1177 78.7192 82.0497 78.358 81.9006C77.9967 81.7481 77.71 81.5128 77.4979 81.1946C77.2891 80.8764 77.1863 80.4787 77.1896 80.0014V72.5341Z" fill="white"/>
</g>
<defs>
<filter id="filter0_d_5829_13365" x="0" y="0" width="107" height="109" filterUnits="userSpaceOnUse" color-interpolation-filters="sRGB">
<feFlood flood-opacity="0" result="BackgroundImageFix"/>
<feColorMatrix in="SourceAlpha" type="matrix" values="0 0 0 0 0 0 0 0 0 0 0 0 0 0 0 0 0 0 127 0" result="hardAlpha"/>
<feOffset dy="2"/>
<feGaussianBlur stdDeviation="4"/>
<feColorMatrix type="matrix" values="0 0 0 0 0 0 0 0 0 0 0 0 0 0 0 0 0 0 0.25 0"/>
<feBlend mode="normal" in2="BackgroundImageFix" result="effect1_dropShadow_5829_13365"/>
<feBlend mode="normal" in="SourceGraphic" in2="effect1_dropShadow_5829_13365" result="shape"/>
</filter>
</defs>
</svg>
