<svg width="107" height="109" viewBox="0 0 107 109" fill="none" xmlns="http://www.w3.org/2000/svg">
<g filter="url(#filter0_d_5845_13485)">
<rect x="8" y="6" width="91" height="93" rx="12" fill="#151B23"/>
<rect x="9" y="7" width="89" height="91" rx="11" stroke="#1F2937" stroke-width="2"/>
<g clip-path="url(#clip0_5845_13485)">
<path d="M56.8731 56.912C55.9792 58.0378 54.1666 57.4209 54.145 55.9835L53.8301 34.959H67.9669C70.5275 34.959 71.9556 37.9165 70.3634 39.9218L56.8731 56.912Z" fill="url(#paint0_linear_5845_13485)"/>
<path d="M56.8731 56.912C55.9792 58.0378 54.1666 57.4209 54.145 55.9835L53.8301 34.959H67.9669C70.5275 34.959 71.9556 37.9165 70.3634 39.9218L56.8731 56.912Z" fill="url(#paint1_linear_5845_13485)" fill-opacity="0.2"/>
<path d="M51.1244 23.0814C52.0184 21.9555 53.831 22.5725 53.8525 24.0099L53.9905 45.0344H40.0306C37.47 45.0344 36.0418 42.0769 37.6341 40.0716L51.1244 23.0814Z" fill="#3ECF8E"/>
</g>
<path d="M26.4185 74.6172C26.3721 74.183 26.1766 73.8449 25.8319 73.603C25.4905 73.361 25.0463 73.2401 24.4995 73.2401C24.115 73.2401 23.7852 73.2981 23.5101 73.4141C23.235 73.5301 23.0246 73.6875 22.8787 73.8864C22.7329 74.0852 22.6583 74.3123 22.655 74.5675C22.655 74.7796 22.7031 74.9635 22.7992 75.1193C22.8986 75.2751 23.0328 75.4077 23.2019 75.517C23.3709 75.6231 23.5582 75.7126 23.7637 75.7855C23.9692 75.8584 24.1763 75.9197 24.3851 75.9695L25.3397 76.2081C25.7241 76.2976 26.0937 76.4186 26.4483 76.571C26.8063 76.7235 27.1261 76.9157 27.4078 77.1477C27.6929 77.3797 27.9183 77.6598 28.084 77.9879C28.2497 78.3161 28.3326 78.7005 28.3326 79.1413C28.3326 79.7379 28.1801 80.2633 27.8752 80.7173C27.5703 81.1681 27.1294 81.5211 26.5527 81.7763C25.9793 82.0282 25.285 82.1541 24.4696 82.1541C23.6775 82.1541 22.9898 82.0315 22.4064 81.7862C21.8264 81.541 21.3723 81.183 21.0442 80.7124C20.7194 80.2417 20.5437 79.6683 20.5172 78.9922H22.3319C22.3584 79.3468 22.4677 79.6418 22.66 79.8771C22.8522 80.1125 23.1025 80.2881 23.4107 80.4041C23.7222 80.5201 24.0703 80.5781 24.4547 80.5781C24.8558 80.5781 25.2071 80.5185 25.5087 80.3991C25.8136 80.2765 26.0523 80.1075 26.2246 79.892C26.397 79.6733 26.4848 79.4181 26.4881 79.1264C26.4848 78.8613 26.4069 78.6425 26.2544 78.4702C26.102 78.2945 25.8882 78.1487 25.6131 78.0327C25.3413 77.9134 25.0231 77.8073 24.6586 77.7145L23.5002 77.4162C22.6616 77.2008 21.9988 76.8743 21.5115 76.4368C21.0276 75.996 20.7857 75.411 20.7857 74.6818C20.7857 74.0819 20.9481 73.5566 21.2729 73.1058C21.601 72.6551 22.0468 72.3054 22.6103 72.0568C23.1737 71.8049 23.8117 71.679 24.5243 71.679C25.2469 71.679 25.8799 71.8049 26.4235 72.0568C26.9703 72.3054 27.3996 72.6518 27.7111 73.0959C28.0227 73.5367 28.1834 74.0438 28.1934 74.6172H26.4185ZM34.7646 78.7884V74.3636H36.5643V82H34.8192V80.6428H34.7397C34.5674 81.0703 34.284 81.42 33.8896 81.6918C33.4985 81.9635 33.0162 82.0994 32.4428 82.0994C31.9424 82.0994 31.4999 81.9884 31.1154 81.7663C30.7343 81.541 30.436 81.2145 30.2205 80.7869C30.0051 80.3561 29.8974 79.8357 29.8974 79.2259V74.3636H31.6971V78.9474C31.6971 79.4313 31.8297 79.8158 32.0948 80.1009C32.36 80.3859 32.708 80.5284 33.1388 80.5284C33.404 80.5284 33.6609 80.4638 33.9094 80.3345C34.158 80.2053 34.3619 80.013 34.521 79.7578C34.6834 79.4993 34.7646 79.1761 34.7646 78.7884ZM38.415 84.8636V74.3636H40.1848V75.6264H40.2892C40.382 75.4408 40.513 75.2436 40.682 75.0348C40.851 74.8227 41.0797 74.642 41.3681 74.4929C41.6564 74.3404 42.0243 74.2642 42.4718 74.2642C43.0617 74.2642 43.5937 74.415 44.0676 74.7166C44.5449 75.0149 44.9228 75.4574 45.2012 76.044C45.4829 76.6274 45.6238 77.3433 45.6238 78.1918C45.6238 79.0303 45.4862 79.7429 45.2111 80.3295C44.936 80.9162 44.5615 81.3636 44.0875 81.6719C43.6136 81.9801 43.0766 82.1342 42.4767 82.1342C42.0392 82.1342 41.6763 82.0613 41.388 81.9155C41.0996 81.7696 40.8676 81.594 40.6919 81.3885C40.5196 81.1797 40.3854 80.9825 40.2892 80.7969H40.2147V84.8636H38.415ZM40.1799 78.1818C40.1799 78.6757 40.2495 79.1082 40.3887 79.4794C40.5312 79.8506 40.735 80.1406 41.0002 80.3494C41.2686 80.5549 41.5935 80.6577 41.9746 80.6577C42.3723 80.6577 42.7054 80.5516 42.9739 80.3395C43.2424 80.1241 43.4445 79.8307 43.5804 79.4595C43.7196 79.085 43.7892 78.6591 43.7892 78.1818C43.7892 77.7079 43.7213 77.2869 43.5854 76.919C43.4495 76.5511 43.2473 76.2628 42.9789 76.054C42.7104 75.8452 42.3757 75.7408 41.9746 75.7408C41.5901 75.7408 41.2637 75.8419 40.9952 76.044C40.7267 76.2462 40.5229 76.5296 40.3837 76.8942C40.2478 77.2588 40.1799 77.688 40.1799 78.1818ZM49.3624 82.1541C48.8785 82.1541 48.4426 82.0679 48.0549 81.8956C47.6704 81.7199 47.3655 81.4614 47.1401 81.12C46.918 80.7786 46.807 80.3577 46.807 79.8572C46.807 79.4264 46.8865 79.0701 47.0456 78.7884C47.2047 78.5066 47.4218 78.2812 47.6969 78.1122C47.972 77.9432 48.2819 77.8156 48.6266 77.7294C48.9746 77.6399 49.3342 77.5753 49.7054 77.5355C50.1529 77.4891 50.5158 77.4477 50.7942 77.4112C51.0726 77.3714 51.2748 77.3118 51.4007 77.2322C51.53 77.1494 51.5946 77.0218 51.5946 76.8494V76.8196C51.5946 76.4451 51.4836 76.1551 51.2615 75.9496C51.0395 75.7441 50.7196 75.6413 50.302 75.6413C49.8612 75.6413 49.5115 75.7375 49.253 75.9297C48.9978 76.1219 48.8255 76.349 48.736 76.6108L47.0556 76.3722C47.1882 75.9081 47.4069 75.5204 47.7118 75.2088C48.0167 74.8939 48.3896 74.6586 48.8304 74.5028C49.2712 74.3438 49.7585 74.2642 50.2921 74.2642C50.66 74.2642 51.0262 74.3073 51.3908 74.3935C51.7554 74.4796 52.0885 74.6222 52.3901 74.821C52.6917 75.0166 52.9337 75.2834 53.1159 75.6214C53.3016 75.9595 53.3944 76.3821 53.3944 76.8892V82H51.6642V80.951H51.6046C51.4952 81.1631 51.3411 81.362 51.1422 81.5476C50.9467 81.7299 50.6998 81.8774 50.4015 81.9901C50.1065 82.0994 49.7601 82.1541 49.3624 82.1541ZM49.8297 80.8317C50.191 80.8317 50.5042 80.7604 50.7694 80.6179C51.0345 80.4721 51.2383 80.2798 51.3809 80.0412C51.5267 79.8026 51.5996 79.5424 51.5996 79.2607V78.3608C51.5433 78.4072 51.4471 78.4503 51.3113 78.4901C51.1787 78.5298 51.0295 78.5646 50.8638 78.5945C50.6981 78.6243 50.534 78.6508 50.3716 78.674C50.2092 78.6972 50.0684 78.7171 49.949 78.7337C49.6806 78.7701 49.4403 78.8298 49.2282 78.9126C49.016 78.9955 48.8487 79.1115 48.726 79.2607C48.6034 79.4065 48.5421 79.5954 48.5421 79.8274C48.5421 80.1589 48.6631 80.4091 48.905 80.5781C49.147 80.7472 49.4552 80.8317 49.8297 80.8317ZM55.2836 82V71.8182H57.0833V75.6264H57.1578C57.2507 75.4408 57.3816 75.2436 57.5506 75.0348C57.7196 74.8227 57.9483 74.642 58.2367 74.4929C58.525 74.3404 58.8929 74.2642 59.3404 74.2642C59.9303 74.2642 60.4623 74.415 60.9363 74.7166C61.4135 75.0149 61.7914 75.4574 62.0698 76.044C62.3515 76.6274 62.4924 77.3433 62.4924 78.1918C62.4924 79.0303 62.3548 79.7429 62.0797 80.3295C61.8046 80.9162 61.4301 81.3636 60.9561 81.6719C60.4822 81.9801 59.9453 82.1342 59.3453 82.1342C58.9078 82.1342 58.5449 82.0613 58.2566 81.9155C57.9682 81.7696 57.7362 81.594 57.5605 81.3885C57.3882 81.1797 57.254 80.9825 57.1578 80.7969H57.0534V82H55.2836ZM57.0485 78.1818C57.0485 78.6757 57.1181 79.1082 57.2573 79.4794C57.3998 79.8506 57.6036 80.1406 57.8688 80.3494C58.1373 80.5549 58.4621 80.6577 58.8432 80.6577C59.2409 80.6577 59.574 80.5516 59.8425 80.3395C60.111 80.1241 60.3132 79.8307 60.449 79.4595C60.5882 79.085 60.6578 78.6591 60.6578 78.1818C60.6578 77.7079 60.5899 77.2869 60.454 76.919C60.3181 76.5511 60.1159 76.2628 59.8475 76.054C59.579 75.8452 59.2443 75.7408 58.8432 75.7408C58.4587 75.7408 58.1323 75.8419 57.8638 76.044C57.5953 76.2462 57.3915 76.5296 57.2523 76.8942C57.1164 77.2588 57.0485 77.688 57.0485 78.1818ZM66.2198 82.1541C65.7359 82.1541 65.3001 82.0679 64.9123 81.8956C64.5278 81.7199 64.2229 81.4614 63.9975 81.12C63.7754 80.7786 63.6644 80.3577 63.6644 79.8572C63.6644 79.4264 63.744 79.0701 63.9031 78.7884C64.0621 78.5066 64.2792 78.2812 64.5543 78.1122C64.8294 77.9432 65.1393 77.8156 65.484 77.7294C65.832 77.6399 66.1916 77.5753 66.5629 77.5355C67.0103 77.4891 67.3732 77.4477 67.6516 77.4112C67.93 77.3714 68.1322 77.3118 68.2582 77.2322C68.3874 77.1494 68.4521 77.0218 68.4521 76.8494V76.8196C68.4521 76.4451 68.341 76.1551 68.119 75.9496C67.8969 75.7441 67.5771 75.6413 67.1594 75.6413C66.7186 75.6413 66.369 75.7375 66.1104 75.9297C65.8552 76.1219 65.6829 76.349 65.5934 76.6108L63.913 76.3722C64.0456 75.9081 64.2643 75.5204 64.5692 75.2088C64.8742 74.8939 65.247 74.6586 65.6879 74.5028C66.1287 74.3438 66.6159 74.2642 67.1495 74.2642C67.5174 74.2642 67.8836 74.3073 68.2482 74.3935C68.6128 74.4796 68.9459 74.6222 69.2475 74.821C69.5491 75.0166 69.7911 75.2834 69.9734 75.6214C70.159 75.9595 70.2518 76.3821 70.2518 76.8892V82H68.5217V80.951H68.462C68.3526 81.1631 68.1985 81.362 67.9996 81.5476C67.8041 81.7299 67.5572 81.8774 67.2589 81.9901C66.9639 82.0994 66.6175 82.1541 66.2198 82.1541ZM66.6871 80.8317C67.0484 80.8317 67.3616 80.7604 67.6268 80.6179C67.8919 80.4721 68.0958 80.2798 68.2383 80.0412C68.3841 79.8026 68.457 79.5424 68.457 79.2607V78.3608C68.4007 78.4072 68.3046 78.4503 68.1687 78.4901C68.0361 78.5298 67.887 78.5646 67.7212 78.5945C67.5555 78.6243 67.3915 78.6508 67.229 78.674C67.0666 78.6972 66.9258 78.7171 66.8065 78.7337C66.538 78.7701 66.2977 78.8298 66.0856 78.9126C65.8735 78.9955 65.7061 79.1115 65.5835 79.2607C65.4608 79.4065 65.3995 79.5954 65.3995 79.8274C65.3995 80.1589 65.5205 80.4091 65.7624 80.5781C66.0044 80.7472 66.3126 80.8317 66.6871 80.8317ZM78.0969 76.3821L76.4563 76.5611C76.4099 76.3954 76.3287 76.2396 76.2127 76.0938C76.1 75.9479 75.9476 75.8303 75.7553 75.7408C75.5631 75.6513 75.3278 75.6065 75.0494 75.6065C74.6748 75.6065 74.36 75.6877 74.1048 75.8501C73.8529 76.0125 73.7286 76.223 73.7319 76.4815C73.7286 76.7036 73.8098 76.8842 73.9755 77.0234C74.1445 77.1626 74.4229 77.277 74.8107 77.3665L76.1133 77.6449C76.8358 77.8007 77.3728 78.0476 77.7241 78.3857C78.0787 78.7237 78.2577 79.1662 78.261 79.7131C78.2577 80.1937 78.1168 80.6179 77.8384 80.9858C77.5633 81.3504 77.1805 81.6354 76.69 81.8409C76.1995 82.0464 75.636 82.1491 74.9996 82.1491C74.065 82.1491 73.3126 81.9536 72.7425 81.5625C72.1725 81.1681 71.8327 80.6196 71.7234 79.9169L73.4783 79.7479C73.5579 80.0926 73.7269 80.3527 73.9854 80.5284C74.244 80.7041 74.5804 80.7919 74.9947 80.7919C75.4222 80.7919 75.7653 80.7041 76.0238 80.5284C76.2856 80.3527 76.4165 80.1357 76.4165 79.8771C76.4165 79.6584 76.332 79.4777 76.163 79.3352C75.9973 79.1927 75.7388 79.0833 75.3874 79.0071L74.0849 78.7337C73.3524 78.5812 72.8105 78.3243 72.4592 77.9631C72.1078 77.5985 71.9338 77.1378 71.9371 76.581C71.9338 76.1103 72.0614 75.7027 72.32 75.358C72.5818 75.0099 72.9447 74.7415 73.4087 74.5526C73.8761 74.3603 74.4147 74.2642 75.0245 74.2642C75.9194 74.2642 76.6237 74.4548 77.1374 74.8359C77.6545 75.2171 77.9743 75.7325 78.0969 76.3821ZM83.1257 82.1491C82.3601 82.1491 81.6989 81.9901 81.142 81.6719C80.5885 81.3504 80.1626 80.8963 79.8643 80.3097C79.5661 79.7197 79.4169 79.0253 79.4169 78.2266C79.4169 77.4411 79.5661 76.7517 79.8643 76.1584C80.166 75.5618 80.5869 75.0978 81.1271 74.7663C81.6674 74.4316 82.3021 74.2642 83.0312 74.2642C83.5019 74.2642 83.946 74.3404 84.3636 74.4929C84.7846 74.642 85.1558 74.8741 85.4773 75.1889C85.8021 75.5038 86.0573 75.9048 86.2429 76.392C86.4285 76.8759 86.5213 77.4527 86.5213 78.1222V78.674H80.2621V77.4609H84.7962C84.7929 77.1162 84.7183 76.8097 84.5724 76.5412C84.4266 76.2694 84.2228 76.0556 83.9609 75.8999C83.7024 75.7441 83.4008 75.6662 83.0561 75.6662C82.6882 75.6662 82.3651 75.7557 82.0866 75.9347C81.8082 76.1103 81.5911 76.3423 81.4354 76.6307C81.2829 76.9157 81.205 77.2289 81.2017 77.5703V78.6293C81.2017 79.0734 81.2829 79.4545 81.4453 79.7727C81.6077 80.0876 81.8348 80.3295 82.1264 80.4986C82.4181 80.6643 82.7595 80.7472 83.1506 80.7472C83.4124 80.7472 83.6494 80.7107 83.8615 80.6378C84.0736 80.5616 84.2576 80.4505 84.4134 80.3047C84.5691 80.1589 84.6868 79.9782 84.7663 79.7628L86.4467 79.9517C86.3407 80.3958 86.1385 80.7836 85.8402 81.1151C85.5452 81.4432 85.1674 81.6984 84.7067 81.8807C84.246 82.0597 83.719 82.1491 83.1257 82.1491Z" fill="white"/>
</g>
<defs>
<filter id="filter0_d_5845_13485" x="0" y="0" width="107" height="109" filterUnits="userSpaceOnUse" color-interpolation-filters="sRGB">
<feFlood flood-opacity="0" result="BackgroundImageFix"/>
<feColorMatrix in="SourceAlpha" type="matrix" values="0 0 0 0 0 0 0 0 0 0 0 0 0 0 0 0 0 0 127 0" result="hardAlpha"/>
<feOffset dy="2"/>
<feGaussianBlur stdDeviation="4"/>
<feColorMatrix type="matrix" values="0 0 0 0 0 0 0 0 0 0 0 0 0 0 0 0 0 0 0.25 0"/>
<feBlend mode="normal" in2="BackgroundImageFix" result="effect1_dropShadow_5845_13485"/>
<feBlend mode="normal" in="SourceGraphic" in2="effect1_dropShadow_5845_13485" result="shape"/>
</filter>
<linearGradient id="paint0_linear_5845_13485" x1="412.705" y1="501.125" x2="1223.33" y2="841.099" gradientUnits="userSpaceOnUse">
<stop stop-color="#249361"/>
<stop offset="1" stop-color="#3ECF8E"/>
</linearGradient>
<linearGradient id="paint1_linear_5845_13485" x1="88.0832" y1="-261.557" x2="608.465" y2="718.033" gradientUnits="userSpaceOnUse">
<stop/>
<stop offset="1" stop-opacity="0"/>
</linearGradient>
<clipPath id="clip0_5845_13485">
<rect width="34.0684" height="35" fill="white" transform="translate(36.9648 22.5)"/>
</clipPath>
</defs>
</svg>
