<svg width="107" height="109" viewBox="0 0 107 109" fill="none" xmlns="http://www.w3.org/2000/svg">
<g filter="url(#filter0_d_5829_13115)">
<rect x="8" y="6" width="91" height="93" rx="12" fill="#151B23"/>
<rect x="9" y="7" width="89" height="91" rx="11" stroke="#1F2937" stroke-width="2"/>
<g clip-path="url(#clip0_5829_13115)">
<path d="M70.1253 35.9352C69.68 34.2568 68.9855 32.6546 68.0649 31.1822C68.753 30.218 69.4091 29.2258 70.0213 28.1856L65.2963 23.4807C64.2241 24.1128 63.2079 24.793 62.2117 25.5011C60.7771 24.6446 59.2241 24.0043 57.6028 23.6007C57.3987 22.4005 57.1587 21.2002 56.8426 20H50.1733C49.8612 21.2002 49.6252 22.3685 49.4251 23.5527C47.76 23.9399 46.162 24.5737 44.6842 25.4331C43.728 24.757 42.7518 24.1008 41.7196 23.5007L37.0067 28.1936C37.5748 29.1658 38.1829 30.09 38.819 30.9942C37.8242 32.5297 37.0801 34.2138 36.6146 35.9832C35.5744 36.1672 34.5422 36.3833 33.502 36.6553V43.3167C34.4701 43.5727 35.4303 43.7728 36.3985 43.9488C36.7959 45.8683 37.5185 47.7058 38.535 49.3819C37.9915 50.1598 37.4816 50.9607 37.0067 51.7824L41.7196 56.4993C42.5198 56.0352 43.2799 55.5391 44.0241 55.027C45.7285 56.124 47.6141 56.9097 49.5932 57.3475C49.7532 58.2356 49.9452 59.1158 50.1733 60H56.8626C57.0987 59.0918 57.2907 58.1876 57.4587 57.2835C59.3824 56.8141 61.2108 56.017 62.8638 54.927C63.664 55.4711 64.4641 55.9952 65.2923 56.4873L70.0053 51.7704C69.4811 50.8843 68.9219 50.0194 68.3289 49.1778C69.2733 47.5641 69.9489 45.8075 70.3293 43.9768C71.3855 43.7888 72.4417 43.5767 73.4979 43.2967V36.6513C72.3817 36.3553 71.2655 36.1272 70.1253 35.9352ZM58.4349 51.9584C56.8748 52.6417 55.1925 53.0022 53.4894 53.018C51.7862 53.0338 50.0975 52.7047 48.525 52.0504C48.5268 52.0425 48.5268 52.0343 48.525 52.0264C46.9654 51.369 45.5533 50.4058 44.3721 49.1937C43.1909 47.9815 42.2645 46.5451 41.6476 44.969L41.5836 44.801C40.4476 41.7514 40.5365 38.3805 41.8316 35.3951C41.9036 35.227 41.9797 35.059 42.0637 34.891C43.3935 32.1772 45.6476 30.0266 48.4209 28.8258C48.6877 28.7111 48.9677 28.6031 49.2611 28.5017C50.5843 28.0455 51.9743 27.813 53.3739 27.8136C54.8468 27.8108 56.3084 28.0695 57.6908 28.5777C58.0069 28.6937 58.3149 28.8178 58.619 28.9778C61.2647 30.1954 63.4097 32.2881 64.6922 34.903C64.8122 35.1457 64.9242 35.3937 65.0283 35.6471C66.2003 38.4966 66.2844 41.6775 65.2643 44.5849C65.2163 44.7249 65.1683 44.865 65.1123 44.985C63.9005 48.0623 61.5346 50.5445 58.519 51.9024L58.4349 51.9584Z" fill="#588AD9"/>
<path d="M62.4637 44.3488C62.3728 43.9027 62.1633 43.4893 61.8573 43.1523C61.5512 42.8152 61.16 42.5668 60.7247 42.4333C60.2894 42.2998 59.8262 42.2861 59.3838 42.3937C58.9414 42.5013 58.5362 42.7261 58.2108 43.0446L56.2104 41.5563C56.6424 40.8228 56.7882 39.9556 56.6199 39.1212C56.4515 38.2868 55.9809 37.5439 55.2983 37.0354L56.8986 34.2628C57.2718 34.3793 57.6734 34.3664 58.0384 34.2262C58.4034 34.0861 58.7104 33.8268 58.9097 33.4904C59.1091 33.154 59.189 32.7602 59.1366 32.3727C59.0843 31.9853 58.9026 31.6268 58.6212 31.3554C58.3397 31.084 57.9749 30.9156 57.5858 30.8773C57.1967 30.8391 56.806 30.9333 56.4771 31.1447C56.1482 31.3561 55.9003 31.6723 55.7735 32.0421C55.6466 32.412 55.6484 32.8138 55.7784 33.1826C55.8687 33.4346 56.0167 33.662 56.2104 33.8467L54.6101 36.6193C54.1138 36.4034 53.5744 36.3048 53.0338 36.3312C52.433 36.3647 51.8513 36.5543 51.3462 36.8813C50.841 37.2082 50.4299 37.6612 50.1532 38.1956L46.7205 36.8473V36.8113C46.7604 36.4254 46.6588 36.0382 46.4345 35.7217C46.2102 35.4052 45.8787 35.1809 45.5014 35.0905C45.1242 35.0002 44.7269 35.0499 44.3836 35.2305C44.0403 35.4111 43.7743 35.7103 43.635 36.0724C43.4958 36.4344 43.4928 36.8347 43.6266 37.1989C43.7604 37.563 44.0219 37.8661 44.3625 38.0518C44.703 38.2375 45.0995 38.2933 45.478 38.2086C45.8566 38.1239 46.1915 37.9046 46.4205 37.5915L49.8532 38.9397C49.6914 39.5793 49.7154 40.2518 49.9223 40.8782C50.1292 41.5046 50.5105 42.0591 51.0214 42.4764L49.4211 44.9729C49.1335 44.8551 48.8232 44.8031 48.5129 44.8209C48.0238 44.8517 47.5602 45.05 47.2001 45.3824C46.8401 45.7149 46.6055 46.1612 46.5359 46.6463C46.4663 47.1314 46.5659 47.6257 46.818 48.046C47.0701 48.4663 47.4593 48.7869 47.92 48.9539C48.3807 49.1209 48.8849 49.1241 49.3478 48.963C49.8106 48.8019 50.2038 48.4863 50.4613 48.0693C50.7187 47.6522 50.8246 47.1593 50.7612 46.6733C50.6978 46.1874 50.469 45.7381 50.1132 45.401L51.7135 42.9125C52.3755 43.2343 53.1226 43.3371 53.8468 43.2062C54.5711 43.0753 55.2349 42.7175 55.7423 42.1844L57.7427 43.6767C57.5534 44.0358 57.4531 44.4352 57.4504 44.8412C57.4477 45.2472 57.5427 45.6479 57.7273 46.0095C57.912 46.3711 58.1808 46.683 58.5112 46.919C58.8417 47.1549 59.224 47.3079 59.6259 47.3652C60.0279 47.4224 60.4377 47.3821 60.8208 47.2478C61.204 47.1135 61.5492 46.889 61.8274 46.5933C62.1056 46.2975 62.3086 45.9393 62.4194 45.5487C62.5301 45.1581 62.5453 44.7465 62.4637 44.3488Z" fill="#588AD9"/>
</g>
<path d="M42.5376 74.6172C42.4912 74.183 42.2957 73.8449 41.951 73.603C41.6096 73.361 41.1655 73.2401 40.6186 73.2401C40.2341 73.2401 39.9044 73.2981 39.6293 73.4141C39.3542 73.5301 39.1437 73.6875 38.9979 73.8864C38.852 74.0852 38.7775 74.3123 38.7741 74.5675C38.7741 74.7796 38.8222 74.9635 38.9183 75.1193C39.0178 75.2751 39.152 75.4077 39.321 75.517C39.4901 75.6231 39.6773 75.7126 39.8828 75.7855C40.0883 75.8584 40.2955 75.9197 40.5043 75.9695L41.4588 76.2081C41.8433 76.2976 42.2128 76.4186 42.5675 76.571C42.9254 76.7235 43.2453 76.9157 43.527 77.1477C43.812 77.3797 44.0374 77.6598 44.2031 77.9879C44.3688 78.3161 44.4517 78.7005 44.4517 79.1413C44.4517 79.7379 44.2992 80.2633 43.9943 80.7173C43.6894 81.1681 43.2486 81.5211 42.6719 81.7763C42.0985 82.0282 41.4041 82.1541 40.5888 82.1541C39.7966 82.1541 39.1089 82.0315 38.5256 81.7862C37.9455 81.541 37.4915 81.183 37.1634 80.7124C36.8385 80.2417 36.6629 79.6683 36.6364 78.9922H38.451C38.4775 79.3468 38.5869 79.6418 38.7791 79.8771C38.9714 80.1125 39.2216 80.2881 39.5298 80.4041C39.8414 80.5201 40.1894 80.5781 40.5739 80.5781C40.9749 80.5781 41.3262 80.5185 41.6278 80.3991C41.9328 80.2765 42.1714 80.1075 42.3438 79.892C42.5161 79.6733 42.6039 79.4181 42.6072 79.1264C42.6039 78.8613 42.526 78.6425 42.3736 78.4702C42.2211 78.2945 42.0073 78.1487 41.7322 78.0327C41.4605 77.9134 41.1423 77.8073 40.7777 77.7145L39.6193 77.4162C38.7808 77.2008 38.1179 76.8743 37.6307 76.4368C37.1468 75.996 36.9048 75.411 36.9048 74.6818C36.9048 74.0819 37.0672 73.5566 37.392 73.1058C37.7202 72.6551 38.166 72.3054 38.7294 72.0568C39.2929 71.8049 39.9309 71.679 40.6435 71.679C41.366 71.679 41.9991 71.8049 42.5426 72.0568C43.0895 72.3054 43.5187 72.6518 43.8303 73.0959C44.1418 73.5367 44.3026 74.0438 44.3125 74.6172H42.5376ZM52.8375 74.3636L50.1181 82H48.1294L45.41 74.3636H47.329L49.084 80.0362H49.1635L50.9235 74.3636H52.8375ZM57.1442 85.0227C56.4979 85.0227 55.9427 84.9349 55.4787 84.7592C55.0147 84.5869 54.6418 84.3549 54.3601 84.0632C54.0784 83.7715 53.8828 83.4484 53.7734 83.0938L55.3942 82.701C55.4671 82.8501 55.5732 82.9976 55.7124 83.1435C55.8516 83.2926 56.0388 83.4152 56.2741 83.5114C56.5128 83.6108 56.8127 83.6605 57.174 83.6605C57.6844 83.6605 58.107 83.5362 58.4418 83.2876C58.7765 83.0424 58.9439 82.638 58.9439 82.0746V80.6278H58.8544C58.7616 80.8134 58.6257 81.004 58.4467 81.1996C58.2711 81.3951 58.0374 81.5592 57.7457 81.6918C57.4574 81.8243 57.0945 81.8906 56.657 81.8906C56.0703 81.8906 55.5384 81.7531 55.0611 81.478C54.5871 81.1996 54.2093 80.7853 53.9276 80.2351C53.6491 79.6816 53.5099 78.9889 53.5099 78.157C53.5099 77.3184 53.6491 76.6108 53.9276 76.0341C54.2093 75.4541 54.5888 75.0149 55.0661 74.7166C55.5433 74.415 56.0753 74.2642 56.6619 74.2642C57.1094 74.2642 57.4773 74.3404 57.7656 74.4929C58.0573 74.642 58.2893 74.8227 58.4616 75.0348C58.634 75.2436 58.7649 75.4408 58.8544 75.6264H58.9538V74.3636H60.7287V82.1243C60.7287 82.7772 60.5729 83.3175 60.2614 83.745C59.9498 84.1726 59.5239 84.4924 58.9837 84.7045C58.4434 84.9167 57.8303 85.0227 57.1442 85.0227ZM57.1591 80.4787C57.5402 80.4787 57.8651 80.3859 58.1335 80.2003C58.402 80.0147 58.6058 79.7479 58.745 79.3999C58.8842 79.0518 58.9538 78.6342 58.9538 78.147C58.9538 77.6664 58.8842 77.2455 58.745 76.8842C58.6091 76.523 58.407 76.2429 58.1385 76.044C57.8733 75.8419 57.5469 75.7408 57.1591 75.7408C56.758 75.7408 56.4233 75.8452 56.1548 76.054C55.8864 76.2628 55.6842 76.5495 55.5483 76.9141C55.4124 77.2753 55.3445 77.6863 55.3445 78.147C55.3445 78.6143 55.4124 79.0237 55.5483 79.375C55.6875 79.723 55.8913 79.9948 56.1598 80.1903C56.4316 80.3826 56.7647 80.4787 57.1591 80.4787ZM65.9041 82.1491C65.1584 82.1491 64.5121 81.9851 63.9652 81.657C63.4183 81.3288 62.9941 80.8698 62.6925 80.2798C62.3942 79.6899 62.245 79.0005 62.245 78.2116C62.245 77.4228 62.3942 76.7318 62.6925 76.1385C62.9941 75.5452 63.4183 75.0845 63.9652 74.7564C64.5121 74.4283 65.1584 74.2642 65.9041 74.2642C66.6499 74.2642 67.2962 74.4283 67.843 74.7564C68.3899 75.0845 68.8125 75.5452 69.1108 76.1385C69.4124 76.7318 69.5632 77.4228 69.5632 78.2116C69.5632 79.0005 69.4124 79.6899 69.1108 80.2798C68.8125 80.8698 68.3899 81.3288 67.843 81.657C67.2962 81.9851 66.6499 82.1491 65.9041 82.1491ZM65.9141 80.7074C66.3184 80.7074 66.6565 80.5964 66.9283 80.3743C67.2 80.1489 67.4022 79.8473 67.5348 79.4695C67.6707 79.0916 67.7386 78.6707 67.7386 78.2067C67.7386 77.7393 67.6707 77.3168 67.5348 76.9389C67.4022 76.5578 67.2 76.2545 66.9283 76.0291C66.6565 75.8037 66.3184 75.6911 65.9141 75.6911C65.4998 75.6911 65.1551 75.8037 64.88 76.0291C64.6082 76.2545 64.4044 76.5578 64.2685 76.9389C64.1359 77.3168 64.0696 77.7393 64.0696 78.2067C64.0696 78.6707 64.1359 79.0916 64.2685 79.4695C64.4044 79.8473 64.6082 80.1489 64.88 80.3743C65.1551 80.5964 65.4998 80.7074 65.9141 80.7074Z" fill="white"/>
</g>
<defs>
<filter id="filter0_d_5829_13115" x="0" y="0" width="107" height="109" filterUnits="userSpaceOnUse" color-interpolation-filters="sRGB">
<feFlood flood-opacity="0" result="BackgroundImageFix"/>
<feColorMatrix in="SourceAlpha" type="matrix" values="0 0 0 0 0 0 0 0 0 0 0 0 0 0 0 0 0 0 127 0" result="hardAlpha"/>
<feOffset dy="2"/>
<feGaussianBlur stdDeviation="4"/>
<feColorMatrix type="matrix" values="0 0 0 0 0 0 0 0 0 0 0 0 0 0 0 0 0 0 0.25 0"/>
<feBlend mode="normal" in2="BackgroundImageFix" result="effect1_dropShadow_5829_13115"/>
<feBlend mode="normal" in="SourceGraphic" in2="effect1_dropShadow_5829_13115" result="shape"/>
</filter>
<clipPath id="clip0_5829_13115">
<rect width="40" height="40" fill="white" transform="translate(33.5 20)"/>
</clipPath>
</defs>
</svg>
