<svg width="107" height="109" viewBox="0 0 107 109" fill="none" xmlns="http://www.w3.org/2000/svg">
<g filter="url(#filter0_d_5828_16531)">
<rect x="8" y="6" width="91" height="93" rx="12" fill="#151B23"/>
<rect x="9" y="7" width="89" height="91" rx="11" stroke="#1F2937" stroke-width="2"/>
<g clip-path="url(#clip0_5828_16531)">
<g clip-path="url(#clip1_5828_16531)">
<mask id="mask0_5828_16531" style="mask-type:luminance" maskUnits="userSpaceOnUse" x="33" y="28" width="41" height="25">
<path d="M33.5566 28.125H73.443V52.0568H33.5566V28.125Z" fill="white"/>
</mask>
<g mask="url(#mask0_5828_16531)">
<path fill-rule="evenodd" clip-rule="evenodd" d="M53.4998 28.125C48.1816 28.125 44.8578 30.7841 43.5282 36.1023C45.5225 33.4432 47.8493 32.446 50.5083 33.1108C52.0255 33.4897 53.1098 34.591 54.3101 35.809C56.2653 37.7937 58.5285 40.0909 63.4714 40.0909C68.7896 40.0909 72.1135 37.4318 73.443 32.1136C71.4487 34.7727 69.122 35.7699 66.4629 35.1051C64.9457 34.7262 63.8614 33.6249 62.6611 32.4069C60.706 30.4222 58.4428 28.125 53.4998 28.125ZM43.5282 40.0909C38.2101 40.0909 34.8862 42.75 33.5566 48.0682C35.551 45.4091 37.8777 44.4119 40.5368 45.0767C42.0539 45.4564 43.1382 46.5569 44.3385 47.7749C46.2937 49.7597 48.5569 52.0568 53.4998 52.0568C58.818 52.0568 62.1419 49.3977 63.4714 44.0795C61.4771 46.7386 59.1504 47.7358 56.4913 47.071C54.9741 46.6921 53.8898 45.5908 52.6895 44.3728C50.7344 42.3881 48.4712 40.0909 43.5282 40.0909Z" fill="#38BDF8"/>
</g>
</g>
</g>
<path d="M25.5568 73.3643V71.8182H33.6804V73.3643H30.5334V82H28.7038V73.3643H25.5568ZM36.3253 82.1541C35.8414 82.1541 35.4055 82.0679 35.0178 81.8956C34.6333 81.7199 34.3284 81.4614 34.103 81.12C33.8809 80.7786 33.7699 80.3577 33.7699 79.8572C33.7699 79.4264 33.8494 79.0701 34.0085 78.7884C34.1676 78.5066 34.3847 78.2812 34.6598 78.1122C34.9349 77.9432 35.2448 77.8156 35.5895 77.7294C35.9375 77.6399 36.2971 77.5753 36.6683 77.5355C37.1158 77.4891 37.4787 77.4477 37.7571 77.4112C38.0355 77.3714 38.2377 77.3118 38.3636 77.2322C38.4929 77.1494 38.5575 77.0218 38.5575 76.8494V76.8196C38.5575 76.4451 38.4465 76.1551 38.2244 75.9496C38.0024 75.7441 37.6825 75.6413 37.2649 75.6413C36.8241 75.6413 36.4744 75.7375 36.2159 75.9297C35.9607 76.1219 35.7884 76.349 35.6989 76.6108L34.0185 76.3722C34.151 75.9081 34.3698 75.5204 34.6747 75.2088C34.9796 74.8939 35.3525 74.6586 35.7933 74.5028C36.2341 74.3438 36.7214 74.2642 37.255 74.2642C37.6229 74.2642 37.9891 74.3073 38.3537 74.3935C38.7183 74.4796 39.0514 74.6222 39.353 74.821C39.6546 75.0166 39.8965 75.2834 40.0788 75.6214C40.2644 75.9595 40.3572 76.3821 40.3572 76.8892V82H38.6271V80.951H38.5675C38.4581 81.1631 38.304 81.362 38.1051 81.5476C37.9096 81.7299 37.6626 81.8774 37.3643 81.9901C37.0694 82.0994 36.723 82.1541 36.3253 82.1541ZM36.7926 80.8317C37.1539 80.8317 37.4671 80.7604 37.7322 80.6179C37.9974 80.4721 38.2012 80.2798 38.3438 80.0412C38.4896 79.8026 38.5625 79.5424 38.5625 79.2607V78.3608C38.5062 78.4072 38.41 78.4503 38.2741 78.4901C38.1416 78.5298 37.9924 78.5646 37.8267 78.5945C37.661 78.6243 37.4969 78.6508 37.3345 78.674C37.1721 78.6972 37.0313 78.7171 36.9119 78.7337C36.6435 78.7701 36.4032 78.8298 36.1911 78.9126C35.9789 78.9955 35.8116 79.1115 35.6889 79.2607C35.5663 79.4065 35.505 79.5954 35.505 79.8274C35.505 80.1589 35.6259 80.4091 35.8679 80.5781C36.1098 80.7472 36.4181 80.8317 36.7926 80.8317ZM42.1669 82V74.3636H43.9666V82H42.1669ZM43.0717 73.2798C42.7867 73.2798 42.5414 73.1854 42.3359 72.9964C42.1304 72.8042 42.0277 72.5739 42.0277 72.3054C42.0277 72.0336 42.1304 71.8033 42.3359 71.6143C42.5414 71.4221 42.7867 71.326 43.0717 71.326C43.3601 71.326 43.6054 71.4221 43.8075 71.6143C44.013 71.8033 44.1158 72.0336 44.1158 72.3054C44.1158 72.5739 44.013 72.8042 43.8075 72.9964C43.6054 73.1854 43.3601 73.2798 43.0717 73.2798ZM47.617 71.8182V82H45.8173V71.8182H47.617ZM51.0437 82L48.886 74.3636H50.7205L52.0629 79.733H52.1325L53.5046 74.3636H55.3192L56.6914 79.7031H56.766L58.0884 74.3636H59.9279L57.7653 82H55.891L54.4592 76.8395H54.3548L52.9229 82H51.0437ZM61.1845 82V74.3636H62.9842V82H61.1845ZM62.0893 73.2798C61.8043 73.2798 61.559 73.1854 61.3535 72.9964C61.148 72.8042 61.0453 72.5739 61.0453 72.3054C61.0453 72.0336 61.148 71.8033 61.3535 71.6143C61.559 71.4221 61.8043 71.326 62.0893 71.326C62.3777 71.326 62.6229 71.4221 62.8251 71.6143C63.0306 71.8033 63.1333 72.0336 63.1333 72.3054C63.1333 72.5739 63.0306 72.8042 62.8251 72.9964C62.6229 73.1854 62.3777 73.2798 62.0893 73.2798ZM66.6346 77.5256V82H64.8349V74.3636H66.555V75.6612H66.6445C66.8202 75.2337 67.1003 74.8939 67.4847 74.642C67.8725 74.3902 68.3514 74.2642 68.9215 74.2642C69.4485 74.2642 69.9076 74.3769 70.2987 74.6023C70.6931 74.8277 70.998 75.1541 71.2134 75.5817C71.4322 76.0092 71.5399 76.5279 71.5366 77.1378V82H69.7369V77.4162C69.7369 76.9058 69.6043 76.5064 69.3391 76.218C69.0773 75.9297 68.7144 75.7855 68.2504 75.7855C67.9355 75.7855 67.6554 75.8551 67.4102 75.9943C67.1682 76.1302 66.9776 76.3274 66.8384 76.5859C66.7025 76.8445 66.6346 77.1577 66.6346 77.5256ZM76.1999 82.1342C75.6 82.1342 75.0631 81.9801 74.5891 81.6719C74.1152 81.3636 73.7406 80.9162 73.4656 80.3295C73.1905 79.7429 73.0529 79.0303 73.0529 78.1918C73.0529 77.3433 73.1921 76.6274 73.4705 76.044C73.7522 75.4574 74.1317 75.0149 74.609 74.7166C75.0863 74.415 75.6183 74.2642 76.2049 74.2642C76.6523 74.2642 77.0202 74.3404 77.3086 74.4929C77.5969 74.642 77.8256 74.8227 77.9947 75.0348C78.1637 75.2436 78.2946 75.4408 78.3874 75.6264H78.462V71.8182H80.2667V82H78.4968V80.7969H78.3874C78.2946 80.9825 78.1604 81.1797 77.9847 81.3885C77.8091 81.594 77.5771 81.7696 77.2887 81.9155C77.0004 82.0613 76.6374 82.1342 76.1999 82.1342ZM76.7021 80.6577C77.0832 80.6577 77.408 80.5549 77.6765 80.3494C77.945 80.1406 78.1488 79.8506 78.288 79.4794C78.4272 79.1082 78.4968 78.6757 78.4968 78.1818C78.4968 77.688 78.4272 77.2588 78.288 76.8942C78.1521 76.5296 77.9499 76.2462 77.6815 76.044C77.4163 75.8419 77.0898 75.7408 76.7021 75.7408C76.301 75.7408 75.9663 75.8452 75.6978 76.054C75.4293 76.2628 75.2272 76.5511 75.0913 76.919C74.9554 77.2869 74.8874 77.7079 74.8874 78.1818C74.8874 78.6591 74.9554 79.085 75.0913 79.4595C75.2305 79.8307 75.4343 80.1241 75.7028 80.3395C75.9746 80.5516 76.3076 80.6577 76.7021 80.6577Z" fill="white"/>
</g>
<defs>
<filter id="filter0_d_5828_16531" x="0" y="0" width="107" height="109" filterUnits="userSpaceOnUse" color-interpolation-filters="sRGB">
<feFlood flood-opacity="0" result="BackgroundImageFix"/>
<feColorMatrix in="SourceAlpha" type="matrix" values="0 0 0 0 0 0 0 0 0 0 0 0 0 0 0 0 0 0 127 0" result="hardAlpha"/>
<feOffset dy="2"/>
<feGaussianBlur stdDeviation="4"/>
<feColorMatrix type="matrix" values="0 0 0 0 0 0 0 0 0 0 0 0 0 0 0 0 0 0 0.25 0"/>
<feBlend mode="normal" in2="BackgroundImageFix" result="effect1_dropShadow_5828_16531"/>
<feBlend mode="normal" in="SourceGraphic" in2="effect1_dropShadow_5828_16531" result="shape"/>
</filter>
<clipPath id="clip0_5828_16531">
<rect width="40" height="40" fill="white" transform="translate(33.5 20)"/>
</clipPath>
<clipPath id="clip1_5828_16531">
<rect width="39.8864" height="24.375" fill="white" transform="translate(33.5566 28.125)"/>
</clipPath>
</defs>
</svg>
