<svg width="177" height="177" viewBox="0 0 177 177" fill="none" xmlns="http://www.w3.org/2000/svg">
<g filter="url(#filter0_d_5820_13413)">
<rect x="38" y="13" width="101" height="101" rx="12" fill="#151B23"/>
<rect x="39" y="14" width="99" height="99" rx="11" stroke="#1F2937" stroke-width="2"/>
<path d="M100.75 31.5H76.25C73.3505 31.5 71 33.8505 71 36.75V61.25C71 64.1495 73.3505 66.5 76.25 66.5H100.75C103.649 66.5 106 64.1495 106 61.25V36.75C106 33.8505 103.649 31.5 100.75 31.5Z" fill="#3178C6"/>
<path d="M86.9277 51.9133C86.9277 51.361 87.3754 50.9133 87.9277 50.9133H90.3027C90.855 50.9133 91.3027 50.4656 91.3027 49.9133V49.1105C91.3027 48.5583 90.855 48.1105 90.3027 48.1105H80.0664C79.5141 48.1105 79.0664 48.5583 79.0664 49.1105V49.9133C79.0664 50.4656 79.5141 50.9133 80.0664 50.9133H82.4414C82.9937 50.9133 83.4414 51.361 83.4414 51.9133V62.423C83.4414 62.9753 83.8891 63.423 84.4414 63.423H85.9277C86.48 63.423 86.9277 62.9753 86.9277 62.423V51.9133ZM92.6699 62.1315C92.6699 62.505 92.8761 62.8532 93.2247 62.9872C93.6548 63.1526 94.1358 63.2834 94.6523 63.382C95.4043 63.5256 96.2246 63.5939 97.0449 63.5939C97.8652 63.5939 98.6172 63.5188 99.3691 63.3615C100.121 63.2043 100.736 62.9445 101.283 62.6096C101.837 62.2473 102.309 61.7893 102.582 61.174C102.855 60.5588 103.067 59.8752 103.067 58.9865C103.067 58.3645 102.972 57.8244 102.787 57.3459C102.603 56.8674 102.336 56.4572 101.967 56.1154C101.618 55.7531 101.215 55.4318 100.736 55.1584C100.258 54.885 99.7109 54.5979 99.0957 54.3381C98.6445 54.1535 98.2754 53.9758 97.8652 53.798C97.5098 53.6203 97.2021 53.4426 96.9766 53.2648C96.7236 53.0803 96.5322 52.8889 96.3955 52.6906C96.2588 52.4855 96.1904 52.26 96.1904 52.007C96.1904 51.7746 96.2513 51.5627 96.375 51.3713C96.4987 51.1799 96.6689 51.0227 96.8877 50.8859C97.1064 50.7492 97.3799 50.6467 97.708 50.5715C98.0293 50.4963 98.3848 50.4621 98.8018 50.4621C99.0889 50.4621 99.3896 50.4833 99.6904 50.5264C100.005 50.5694 100.326 50.6357 100.647 50.7246C100.969 50.8135 101.283 50.9229 101.604 51.0596V51.0596C101.961 51.2217 102.425 50.9751 102.425 50.5832V49.0071C102.425 48.5924 102.17 48.2152 101.771 48.1025C101.436 48.0078 101.083 47.9312 100.716 47.874C100.101 47.7783 99.417 47.7305 98.5967 47.7305C97.7764 47.7305 97.0244 47.8193 96.2725 47.9902C95.5205 48.1611 94.9053 48.4346 94.3584 48.8105C93.8047 49.1797 93.4014 49.6309 93.0596 50.2461C92.7383 50.8203 92.5811 51.4766 92.5811 52.2969C92.5811 53.3223 92.875 54.2109 93.4697 54.8945C94.0576 55.6465 94.9736 56.1934 96.1357 56.7402C96.6074 56.9316 97.0244 57.123 97.4346 57.3076C97.8447 57.4922 98.1865 57.6836 98.46 57.8818C98.7539 58.0801 98.9863 58.2988 99.1436 58.5312C99.3145 58.7637 99.4033 59.0371 99.4033 59.3516C99.4033 59.5703 99.35 59.7754 99.2461 59.9668C99.1422 60.1582 98.9795 60.3223 98.7607 60.459C98.542 60.5957 98.2754 60.7051 97.9404 60.7871C97.6191 60.8623 97.2568 60.9033 96.7783 60.9033C96.0264 60.9033 95.2744 60.7734 94.5908 60.5137C94.571 60.5068 94.5513 60.4999 94.5316 60.4929C93.732 60.2081 92.6699 60.7499 92.6699 61.5986V62.1315Z" fill="white"/>
<path d="M48.6205 84.3774V82.6545H57.6724V84.3774H54.1658V94H52.1271V84.3774H48.6205ZM59.6003 97.1909C59.327 97.1909 59.074 97.1688 58.8413 97.1244C58.6124 97.0838 58.4295 97.0358 58.2929 96.9804L58.7582 95.4182C59.05 95.5031 59.3104 95.5438 59.5393 95.5401C59.7683 95.5364 59.9696 95.4643 60.1432 95.324C60.3205 95.1874 60.47 94.9584 60.5919 94.6371L60.7636 94.1773L57.678 85.4909H59.8053L61.7663 91.917H61.855L63.8216 85.4909H65.9544L62.5474 95.0304C62.3886 95.481 62.1781 95.8669 61.9159 96.1882C61.6537 96.5132 61.3324 96.7607 60.952 96.9305C60.5753 97.1041 60.1247 97.1909 59.6003 97.1909ZM67.3421 97.1909V85.4909H69.3143V86.898H69.4306C69.534 86.6912 69.6799 86.4714 69.8683 86.2388C70.0566 86.0024 70.3114 85.8011 70.6327 85.6349C70.954 85.4651 71.364 85.3801 71.8626 85.3801C72.52 85.3801 73.1127 85.5482 73.6408 85.8842C74.1727 86.2166 74.5937 86.7097 74.9039 87.3634C75.2178 88.0134 75.3748 88.8111 75.3748 89.7565C75.3748 90.6909 75.2215 91.4849 74.915 92.1386C74.6085 92.7923 74.1911 93.2909 73.663 93.6344C73.1349 93.9778 72.5366 94.1496 71.8681 94.1496C71.3806 94.1496 70.9762 94.0683 70.6549 93.9058C70.3336 93.7433 70.0751 93.5476 69.8793 93.3186C69.6873 93.0859 69.5377 92.8662 69.4306 92.6594H69.3475V97.1909H67.3421ZM69.3087 89.7455C69.3087 90.2957 69.3863 90.7777 69.5414 91.1913C69.7002 91.605 69.9273 91.9281 70.2228 92.1608C70.5219 92.3898 70.8839 92.5043 71.3086 92.5043C71.7518 92.5043 72.1229 92.3861 72.4221 92.1497C72.7212 91.9097 72.9465 91.5828 73.0979 91.1692C73.2531 90.7518 73.3306 90.2773 73.3306 89.7455C73.3306 89.2173 73.2549 88.7483 73.1035 88.3384C72.9521 87.9284 72.7268 87.6071 72.4276 87.3744C72.1285 87.1418 71.7555 87.0254 71.3086 87.0254C70.8802 87.0254 70.5164 87.1381 70.2173 87.3634C69.9181 87.5886 69.691 87.9044 69.5359 88.3107C69.3844 88.7169 69.3087 89.1952 69.3087 89.7455ZM80.8592 94.1662C80.006 94.1662 79.2692 93.9889 78.6488 93.6344C78.032 93.2761 77.5575 92.7702 77.2251 92.1165C76.8927 91.4591 76.7265 90.6854 76.7265 89.7953C76.7265 88.92 76.8927 88.1518 77.2251 87.4908C77.5611 86.826 78.0302 86.3089 78.6322 85.9396C79.2342 85.5666 79.9414 85.3801 80.7539 85.3801C81.2783 85.3801 81.7732 85.4651 82.2386 85.6349C82.7076 85.8011 83.1212 86.0597 83.4795 86.4105C83.8414 86.7614 84.1258 87.2082 84.3326 87.7511C84.5394 88.2903 84.6428 88.933 84.6428 89.679V90.2939H77.6683V88.9422H82.7205C82.7168 88.5581 82.6337 88.2165 82.4712 87.9173C82.3087 87.6145 82.0816 87.3763 81.7898 87.2027C81.5018 87.0291 81.1657 86.9423 80.7816 86.9423C80.3717 86.9423 80.0116 87.042 79.7013 87.2415C79.3911 87.4372 79.1492 87.6957 78.9756 88.017C78.8058 88.3347 78.719 88.6837 78.7153 89.0641V90.244C78.7153 90.7389 78.8058 91.1636 78.9867 91.5182C79.1677 91.869 79.4207 92.1386 79.7457 92.327C80.0707 92.5116 80.4511 92.604 80.8869 92.604C81.1786 92.604 81.4427 92.5634 81.679 92.4821C81.9154 92.3972 82.1204 92.2734 82.294 92.1109C82.4675 91.9484 82.5987 91.7472 82.6873 91.5071L84.5597 91.7176C84.4415 92.2125 84.2163 92.6446 83.8839 93.0139C83.5552 93.3795 83.1342 93.6639 82.6208 93.867C82.1075 94.0665 81.5202 94.1662 80.8592 94.1662ZM93.0647 87.7401L91.2365 87.9395C91.1848 87.7548 91.0944 87.5812 90.9651 87.4187C90.8395 87.2562 90.6696 87.1251 90.4554 87.0254C90.2412 86.9257 89.979 86.8759 89.6688 86.8759C89.2515 86.8759 88.9006 86.9663 88.6162 87.1473C88.3355 87.3283 88.1971 87.5628 88.2007 87.8509C88.1971 88.0983 88.2875 88.2996 88.4722 88.4547C88.6605 88.6098 88.9708 88.7372 89.4029 88.8369L90.8543 89.1472C91.6594 89.3207 92.2577 89.5959 92.6492 89.9726C93.0444 90.3493 93.2438 90.8423 93.2475 91.4517C93.2438 91.9872 93.0868 92.4599 92.7766 92.8699C92.4701 93.2761 92.0435 93.5937 91.4969 93.8227C90.9503 94.0517 90.3225 94.1662 89.6134 94.1662C88.5719 94.1662 87.7336 93.9483 87.0983 93.5125C86.4631 93.073 86.0846 92.4618 85.9627 91.6788L87.9182 91.4905C88.0069 91.8746 88.1952 92.1645 88.4833 92.3602C88.7713 92.556 89.1462 92.6538 89.6078 92.6538C90.0843 92.6538 90.4665 92.556 90.7546 92.3602C91.0463 92.1645 91.1922 91.9226 91.1922 91.6345C91.1922 91.3908 91.098 91.1895 90.9097 91.0307C90.725 90.8719 90.437 90.75 90.0455 90.6651L88.5941 90.3604C87.7779 90.1905 87.174 89.9043 86.7826 89.5017C86.3911 89.0955 86.1972 88.5821 86.2009 87.9616C86.1972 87.4372 86.3394 86.983 86.6274 86.5989C86.9192 86.2111 87.3236 85.9119 87.8407 85.7014C88.3614 85.4872 88.9615 85.3801 89.6411 85.3801C90.6382 85.3801 91.423 85.5925 91.9955 86.0172C92.5716 86.4419 92.928 87.0162 93.0647 87.7401ZM98.6128 94.1662C97.7633 94.1662 97.0339 93.9797 96.4245 93.6067C95.8189 93.2337 95.3517 92.7185 95.023 92.0611C94.698 91.4 94.5355 90.6392 94.5355 89.7787C94.5355 88.9145 94.7017 88.1518 95.0341 87.4908C95.3664 86.826 95.8355 86.3089 96.4412 85.9396C97.0505 85.5666 97.7707 85.3801 98.6017 85.3801C99.2923 85.3801 99.9035 85.5075 100.435 85.7624C100.971 86.0135 101.397 86.3699 101.715 86.8315C102.033 87.2895 102.214 87.825 102.258 88.4381H100.341C100.264 88.0281 100.079 87.6865 99.7872 87.4132C99.4991 87.1362 99.1132 86.9977 98.6294 86.9977C98.2194 86.9977 97.8593 87.1085 97.5491 87.3301C97.2389 87.548 96.997 87.8619 96.8234 88.2719C96.6535 88.6818 96.5686 89.173 96.5686 89.7455C96.5686 90.3253 96.6535 90.8239 96.8234 91.2412C96.9933 91.6548 97.2315 91.9743 97.538 92.1996C97.8483 92.4212 98.212 92.532 98.6294 92.532C98.9248 92.532 99.1889 92.4766 99.4216 92.3658C99.6579 92.2513 99.8555 92.0869 100.014 91.8727C100.173 91.6585 100.282 91.3982 100.341 91.0916H102.258C102.21 91.6936 102.033 92.2273 101.726 92.6926C101.42 93.1543 101.002 93.5162 100.474 93.7784C99.946 94.0369 99.3255 94.1662 98.6128 94.1662ZM103.905 94V85.4909H105.849V86.9091H105.938C106.093 86.4179 106.359 86.0393 106.735 85.7734C107.116 85.5038 107.55 85.369 108.037 85.369C108.148 85.369 108.272 85.3746 108.408 85.3857C108.549 85.393 108.665 85.406 108.757 85.4244V87.2692C108.673 87.2396 108.538 87.2138 108.353 87.1916C108.172 87.1658 107.997 87.1528 107.827 87.1528C107.461 87.1528 107.132 87.2322 106.841 87.3911C106.553 87.5462 106.326 87.7622 106.159 88.0392C105.993 88.3162 105.91 88.6357 105.91 88.9976V94H103.905ZM110.09 94V85.4909H112.095V94H110.09ZM111.098 84.2832C110.78 84.2832 110.507 84.178 110.278 83.9675C110.049 83.7533 109.935 83.4966 109.935 83.1974C109.935 82.8946 110.049 82.6379 110.278 82.4274C110.507 82.2132 110.78 82.1061 111.098 82.1061C111.419 82.1061 111.693 82.2132 111.918 82.4274C112.147 82.6379 112.261 82.8946 112.261 83.1974C112.261 83.4966 112.147 83.7533 111.918 83.9675C111.693 84.178 111.419 84.2832 111.098 84.2832ZM114.157 97.1909V85.4909H116.13V86.898H116.246C116.349 86.6912 116.495 86.4714 116.683 86.2388C116.872 86.0024 117.127 85.8011 117.448 85.6349C117.769 85.4651 118.179 85.3801 118.678 85.3801C119.335 85.3801 119.928 85.5482 120.456 85.8842C120.988 86.2166 121.409 86.7097 121.719 87.3634C122.033 88.0134 122.19 88.8111 122.19 89.7565C122.19 90.6909 122.037 91.4849 121.73 92.1386C121.424 92.7923 121.006 93.2909 120.478 93.6344C119.95 93.9778 119.352 94.1496 118.683 94.1496C118.196 94.1496 117.791 94.0683 117.47 93.9058C117.149 93.7433 116.89 93.5476 116.695 93.3186C116.503 93.0859 116.353 92.8662 116.246 92.6594H116.163V97.1909H114.157ZM116.124 89.7455C116.124 90.2957 116.202 90.7777 116.357 91.1913C116.515 91.605 116.743 91.9281 117.038 92.1608C117.337 92.3898 117.699 92.5043 118.124 92.5043C118.567 92.5043 118.938 92.3861 119.237 92.1497C119.536 91.9097 119.762 91.5828 119.913 91.1692C120.068 90.7518 120.146 90.2773 120.146 89.7455C120.146 89.2173 120.07 88.7483 119.919 88.3384C119.767 87.9284 119.542 87.6071 119.243 87.3744C118.944 87.1418 118.571 87.0254 118.124 87.0254C117.695 87.0254 117.332 87.1381 117.032 87.3634C116.733 87.5886 116.506 87.9044 116.351 88.3107C116.2 88.7169 116.124 89.1952 116.124 89.7455ZM128.156 85.4909V87.042H123.265V85.4909H128.156ZM124.472 83.4523H126.478V91.4406C126.478 91.7102 126.518 91.917 126.6 92.0611C126.685 92.2014 126.795 92.2974 126.932 92.3491C127.069 92.4009 127.22 92.4267 127.386 92.4267C127.512 92.4267 127.626 92.4175 127.73 92.399C127.837 92.3805 127.918 92.3639 127.974 92.3491L128.311 93.9169C128.204 93.9538 128.051 93.9945 127.852 94.0388C127.656 94.0831 127.416 94.1089 127.131 94.1163C126.629 94.1311 126.177 94.0554 125.774 93.8892C125.372 93.7193 125.052 93.4571 124.816 93.1026C124.583 92.748 124.469 92.3048 124.472 91.773V83.4523Z" fill="white"/>
</g>
<defs>
<filter id="filter0_d_5820_13413" x="0" y="0" width="177" height="177" filterUnits="userSpaceOnUse" color-interpolation-filters="sRGB">
<feFlood flood-opacity="0" result="BackgroundImageFix"/>
<feColorMatrix in="SourceAlpha" type="matrix" values="0 0 0 0 0 0 0 0 0 0 0 0 0 0 0 0 0 0 127 0" result="hardAlpha"/>
<feMorphology radius="12" operator="erode" in="SourceAlpha" result="effect1_dropShadow_5820_13413"/>
<feOffset dy="25"/>
<feGaussianBlur stdDeviation="25"/>
<feColorMatrix type="matrix" values="0 0 0 0 0 0 0 0 0 0 0 0 0 0 0 0 0 0 0.25 0"/>
<feBlend mode="normal" in2="BackgroundImageFix" result="effect1_dropShadow_5820_13413"/>
<feBlend mode="normal" in="SourceGraphic" in2="effect1_dropShadow_5820_13413" result="shape"/>
</filter>
</defs>
</svg>
