<svg xmlns="http://www.w3.org/2000/svg" width="177" height="177" fill="none" viewBox="0 0 177 177"><g filter="url(#a)"><rect width="101" height="101" x="38" y="13" fill="#151b23" rx="12"/><rect width="99" height="99" x="39" y="14" stroke="#1f2937" stroke-width="2" rx="11"/><path fill="#3178c6" d="M100.75 31.5h-24.5A5.25 5.25 0 0 0 71 36.75v24.5c0 2.9 2.35 5.25 5.25 5.25h24.5a5.25 5.25 0 0 0 5.25-5.25v-24.5a5.25 5.25 0 0 0-5.25-5.25"/><path fill="#fff" d="M86.928 51.913a1 1 0 0 1 1-1h2.375a1 1 0 0 0 1-1v-.802a1 1 0 0 0-1-1H80.066a1 1 0 0 0-1 1v.802a1 1 0 0 0 1 1h2.375a1 1 0 0 1 1 1v10.51a1 1 0 0 0 1 1h1.487a1 1 0 0 0 1-1zm5.742 10.219c0 .373.206.721.555.855.43.166.91.296 1.427.395.752.144 1.573.212 2.393.212s1.572-.075 2.324-.233a5.9 5.9 0 0 0 1.914-.751c.554-.363 1.026-.82 1.299-1.436.273-.615.485-1.299.485-2.187 0-.623-.095-1.163-.28-1.641a3.2 3.2 0 0 0-.82-1.23 5.4 5.4 0 0 0-1.231-.958 15 15 0 0 0-1.64-.82c-.452-.184-.82-.362-1.23-.54a5.3 5.3 0 0 1-.89-.533 2.4 2.4 0 0 1-.58-.574 1.2 1.2 0 0 1-.206-.684q0-.348.185-.636a1.6 1.6 0 0 1 .513-.485 2.7 2.7 0 0 1 .82-.315c.321-.075.677-.109 1.094-.109.287 0 .588.021.888.064q.474.065.957.199c.322.088.636.198.957.335.357.162.821-.085.821-.477v-1.576c0-.415-.255-.792-.654-.904a9 9 0 0 0-1.055-.229 14 14 0 0 0-2.12-.144c-.82 0-1.572.09-2.324.26a5.4 5.4 0 0 0-1.914.82c-.553.37-.957.82-1.298 1.436-.322.574-.479 1.23-.479 2.05 0 1.026.294 1.915.889 2.599.588.752 1.504 1.298 2.666 1.845.471.192.888.383 1.299.568q.614.276 1.025.574c.294.198.526.417.684.65.17.232.26.505.26.82q-.001.327-.158.615a1.35 1.35 0 0 1-.485.492 2.8 2.8 0 0 1-.82.328 5 5 0 0 1-1.163.116 6.2 6.2 0 0 1-2.246-.41c-.8-.285-1.862.257-1.862 1.106zM48.62 84.377v-1.722h9.052v1.722h-3.506V94h-2.039v-9.623zM59.6 97.191q-.41 0-.759-.067a3 3 0 0 1-.548-.144l.465-1.562q.438.128.781.122a.96.96 0 0 0 .604-.216q.266-.206.449-.687l.172-.46-3.086-8.686h2.127l1.961 6.426h.089l1.967-6.426h2.132l-3.407 9.54a3.8 3.8 0 0 1-.631 1.157 2.6 2.6 0 0 1-.964.742q-.565.26-1.352.26m7.742 0v-11.7h1.972v1.407h.117q.155-.31.437-.66a2.3 2.3 0 0 1 .765-.603q.481-.255 1.23-.255.986 0 1.778.504.798.5 1.263 1.48.47.975.47 2.392 0 1.402-.459 2.383-.46.98-1.252 1.495a3.2 3.2 0 0 1-1.795.516q-.731 0-1.213-.244a2.5 2.5 0 0 1-.776-.587 3.8 3.8 0 0 1-.448-.66h-.084v4.532zm1.967-7.445q0 .825.232 1.445.239.62.682.97.448.343 1.086.343.664 0 1.113-.354.45-.36.676-.98.233-.627.233-1.424 0-.793-.228-1.408-.226-.614-.675-.964-.449-.349-1.12-.349-.642 0-1.09.338-.45.338-.682.948-.227.609-.227 1.435m11.55 4.42q-1.28 0-2.21-.532a3.6 3.6 0 0 1-1.424-1.517q-.498-.987-.498-2.322 0-1.312.498-2.304a3.77 3.77 0 0 1 1.407-1.551q.903-.56 2.122-.56.787 0 1.485.255.703.25 1.24.775.543.526.854 1.341.31.81.31 1.928v.615h-6.975v-1.352h5.052a2.16 2.16 0 0 0-.249-1.025 1.8 1.8 0 0 0-.681-.714 1.9 1.9 0 0 0-1.008-.26q-.615 0-1.08.299-.466.293-.726.775-.255.477-.26 1.047v1.18q0 .743.27 1.274.273.526.76.809.488.277 1.14.277.44 0 .793-.122.354-.128.615-.371.261-.244.393-.604l1.873.21a2.9 2.9 0 0 1-.676 1.297q-.493.548-1.263.853-.77.3-1.762.3m12.206-6.426-1.828.2a1.5 1.5 0 0 0-.272-.521 1.35 1.35 0 0 0-.51-.394q-.321-.15-.786-.15-.626 0-1.053.272-.42.272-.415.704a.74.74 0 0 0 .271.604q.283.232.93.382l1.452.31q1.208.26 1.795.826.593.565.599 1.479a2.3 2.3 0 0 1-.471 1.418q-.46.61-1.28.953t-1.884.343q-1.562 0-2.515-.653-.952-.66-1.135-1.834l1.955-.189q.133.578.565.87.432.294 1.125.294.714 0 1.147-.294.437-.293.437-.725a.76.76 0 0 0-.282-.604q-.277-.24-.864-.366l-1.452-.305q-1.224-.255-1.811-.858-.588-.61-.582-1.54-.006-.787.426-1.363.438-.582 1.214-.898.78-.32 1.8-.32 1.495 0 2.355.636.864.638 1.069 1.723m5.548 6.426q-1.275 0-2.189-.56a3.74 3.74 0 0 1-1.401-1.545q-.487-.992-.487-2.282 0-1.296.498-2.288a3.7 3.7 0 0 1 1.407-1.551q.915-.56 2.16-.56 1.036 0 1.834.382.804.377 1.28 1.07.477.687.543 1.606h-1.917a1.83 1.83 0 0 0-.554-1.025q-.432-.415-1.158-.415-.615 0-1.08.332-.465.327-.726.942-.254.615-.254 1.474 0 .87.254 1.495.256.62.715.959.465.332 1.091.332.444 0 .793-.166a1.6 1.6 0 0 0 .592-.493 1.9 1.9 0 0 0 .327-.781h1.917a3.34 3.34 0 0 1-.532 1.6 3.15 3.15 0 0 1-1.252 1.086q-.792.388-1.861.388m5.292-.166v-8.51h1.944v1.42h.089q.233-.737.797-1.137.572-.404 1.302-.404.167 0 .371.017.211.01.349.038v1.845a2 2 0 0 0-.404-.077 4 4 0 0 0-.526-.04q-.55 0-.986.24a1.75 1.75 0 0 0-.682.647 1.83 1.83 0 0 0-.249.959V94zm6.185 0v-8.51h2.005V94zm1.008-9.717a1.17 1.17 0 0 1-.82-.316 1.02 1.02 0 0 1-.343-.77q0-.454.343-.77.343-.32.82-.32.482 0 .82.32.343.316.343.77 0 .45-.343.77-.338.316-.82.316m3.059 12.908v-11.7h1.973v1.407h.116a3.7 3.7 0 0 1 .437-.66q.283-.354.765-.603.481-.255 1.23-.255.986 0 1.778.504.798.5 1.263 1.48.471.975.471 2.392 0 1.402-.46 2.383-.46.98-1.252 1.495a3.2 3.2 0 0 1-1.795.516q-.731 0-1.213-.244a2.5 2.5 0 0 1-.775-.587 3.8 3.8 0 0 1-.449-.66h-.083v4.532zm1.967-7.445q0 .825.233 1.445.238.62.681.97.449.343 1.086.343.664 0 1.113-.354.449-.36.676-.98a4.1 4.1 0 0 0 .233-1.424q0-.793-.227-1.408-.228-.614-.676-.964-.448-.349-1.119-.349-.643 0-1.092.338-.448.338-.681.948-.227.609-.227 1.435m12.032-4.255v1.551h-4.891v-1.551zm-3.684-2.039h2.006v7.989q0 .404.122.62.127.21.332.288t.454.078q.189 0 .344-.028.16-.028.244-.05l.337 1.568q-.16.056-.459.122-.294.066-.721.077a3.3 3.3 0 0 1-1.357-.227 2.1 2.1 0 0 1-.958-.786q-.349-.532-.344-1.33z"/></g><defs><filter id="a" width="177" height="177" x="0" y="0" color-interpolation-filters="sRGB" filterUnits="userSpaceOnUse"><feFlood flood-opacity="0" result="BackgroundImageFix"/><feColorMatrix in="SourceAlpha" result="hardAlpha" values="0 0 0 0 0 0 0 0 0 0 0 0 0 0 0 0 0 0 127 0"/><feMorphology in="SourceAlpha" radius="12" result="effect1_dropShadow_5820_13413"/><feOffset dy="25"/><feGaussianBlur stdDeviation="25"/><feColorMatrix values="0 0 0 0 0 0 0 0 0 0 0 0 0 0 0 0 0 0 0.25 0"/><feBlend in2="BackgroundImageFix" result="effect1_dropShadow_5820_13413"/><feBlend in="SourceGraphic" in2="effect1_dropShadow_5820_13413" result="shape"/></filter></defs></svg>