<svg xmlns="http://www.w3.org/2000/svg" width="167" height="169" fill="none" viewBox="0 0 167 169"><g filter="url(#a)"><rect width="91" height="93" x="38" y="13" fill="#151b23" rx="12"/><rect width="89" height="91" x="39" y="14" stroke="#1f2937" stroke-width="2" rx="11"/><path fill="#3178c6" d="M95.75 29.5h-24.5A5.25 5.25 0 0 0 66 34.75v24.5c0 2.9 2.35 5.25 5.25 5.25h24.5c2.9 0 5.25-2.35 5.25-5.25v-24.5c0-2.9-2.35-5.25-5.25-5.25"/><path fill="#fff" d="M81.928 49.913a1 1 0 0 1 1-1h2.375a1 1 0 0 0 1-1v-.802a1 1 0 0 0-1-1H75.066a1 1 0 0 0-1 1v.802a1 1 0 0 0 1 1h2.375a1 1 0 0 1 1 1v10.51a1 1 0 0 0 1 1h1.487a1 1 0 0 0 1-1zm5.742 10.219c0 .373.206.721.555.855.43.166.91.296 1.427.395.752.144 1.573.212 2.393.212s1.572-.075 2.324-.233a5.9 5.9 0 0 0 1.914-.751c.554-.363 1.026-.82 1.299-1.436.274-.615.485-1.299.485-2.187 0-.623-.095-1.163-.28-1.641a3.2 3.2 0 0 0-.82-1.23 5.4 5.4 0 0 0-1.23-.958 15 15 0 0 0-1.641-.82c-.452-.184-.82-.362-1.23-.54a5.3 5.3 0 0 1-.89-.533 2.4 2.4 0 0 1-.58-.574 1.2 1.2 0 0 1-.206-.684q0-.348.185-.636a1.6 1.6 0 0 1 .513-.485 2.7 2.7 0 0 1 .82-.315 4.8 4.8 0 0 1 1.094-.109c.287 0 .588.021.888.064q.474.065.957.199c.322.088.636.198.957.335.357.162.82-.085.82-.477v-1.576c0-.415-.254-.792-.653-.904a9 9 0 0 0-1.055-.229 14 14 0 0 0-2.12-.144c-.82 0-1.572.09-2.324.26a5.4 5.4 0 0 0-1.914.82c-.553.37-.957.82-1.298 1.436-.322.574-.479 1.23-.479 2.05 0 1.026.294 1.915.889 2.599.588.752 1.504 1.298 2.666 1.845.471.192.888.383 1.299.568q.614.276 1.025.574c.294.198.526.417.684.65.17.232.26.505.26.82q-.001.327-.158.615a1.35 1.35 0 0 1-.485.492 2.8 2.8 0 0 1-.82.328 5 5 0 0 1-1.163.116 6.2 6.2 0 0 1-2.246-.41c-.8-.285-1.862.257-1.862 1.106zM47.557 80.364v-1.546h8.123v1.546h-3.147V89h-1.83v-8.636zm9.853 11.5q-.368 0-.68-.06a2.5 2.5 0 0 1-.493-.13l.418-1.401a2.4 2.4 0 0 0 .7.11.86.86 0 0 0 .543-.195q.239-.183.402-.616l.155-.413-2.77-7.795h1.91l1.76 5.767h.079l1.765-5.767h1.914l-3.058 8.56q-.213.607-.566 1.04a2.3 2.3 0 0 1-.865.666q-.508.234-1.214.234m6.948 0v-10.5h1.77v1.262h.105q.138-.277.392-.591.255-.318.686-.542.433-.23 1.104-.229.885 0 1.596.453.716.447 1.133 1.327.423.875.423 2.148 0 1.256-.412 2.138-.414.88-1.124 1.342a2.9 2.9 0 0 1-1.61.462q-.657 0-1.09-.219a2.2 2.2 0 0 1-.696-.527 3.4 3.4 0 0 1-.402-.591h-.075v4.067zm1.765-6.682q0 .74.209 1.297.214.558.612.87.402.309.974.309.596 0 1-.319.402-.322.606-.88.209-.561.209-1.277a3.6 3.6 0 0 0-.204-1.263 1.9 1.9 0 0 0-.607-.865q-.402-.313-1.004-.313-.577 0-.98.303-.402.304-.61.85-.205.547-.205 1.288m10.366 3.967q-1.149 0-1.984-.477a3.23 3.23 0 0 1-1.277-1.362q-.448-.885-.448-2.083 0-1.178.448-2.069a3.4 3.4 0 0 1 1.262-1.392q.81-.501 1.904-.502.706 0 1.333.229.63.224 1.114.696.487.472.765 1.203.279.725.279 1.73v.552h-6.26v-1.213h4.534a1.94 1.94 0 0 0-.223-.92 1.63 1.63 0 0 0-.612-.641 1.7 1.7 0 0 0-.905-.234q-.55 0-.97.269a1.85 1.85 0 0 0-.65.696q-.229.427-.234.94v1.058q0 .666.244 1.144.243.472.68.726.438.248 1.025.248.393 0 .71-.11.32-.113.553-.332t.353-.542l1.68.189a2.6 2.6 0 0 1-.606 1.163 2.96 2.96 0 0 1-1.134.766q-.69.268-1.581.268m10.954-5.767-1.641.18a1.3 1.3 0 0 0-.244-.468 1.2 1.2 0 0 0-.457-.353 1.7 1.7 0 0 0-.706-.135q-.562 0-.944.244-.379.244-.373.632a.66.66 0 0 0 .243.541q.255.21.835.344l1.303.278q1.084.234 1.61.74.532.508.538 1.328-.005.72-.423 1.273-.413.547-1.148.855-.736.308-1.69.308-1.403 0-2.258-.587-.855-.59-1.019-1.645l1.755-.17q.12.519.507.781.388.264 1.01.264.64 0 1.029-.264.392-.263.392-.65 0-.33-.253-.543-.249-.213-.776-.328l-1.302-.273q-1.1-.23-1.626-.77-.528-.547-.522-1.383-.006-.705.383-1.223.392-.522 1.088-.805.702-.29 1.616-.289 1.343 0 2.113.572.776.572.96 1.546m4.979 5.767q-1.144 0-1.964-.502A3.35 3.35 0 0 1 89.2 87.26q-.437-.89-.437-2.048 0-1.163.447-2.054a3.34 3.34 0 0 1 1.263-1.392q.82-.501 1.939-.502.93 0 1.645.343.72.339 1.149.96.427.615.487 1.442h-1.72a1.64 1.64 0 0 0-.497-.92q-.388-.373-1.04-.373-.55 0-.969.298-.417.294-.651.845-.23.553-.229 1.323 0 .78.229 1.342.228.557.641.86.418.3.98.299.398 0 .71-.15.32-.154.532-.442.214-.288.294-.701h1.72a3 3 0 0 1-.477 1.437q-.413.621-1.124.974-.71.348-1.67.348M97.17 89v-7.636h1.745v1.272h.08q.208-.66.715-1.019a1.97 1.97 0 0 1 1.169-.363q.149 0 .333.015.189.01.313.035v1.656a2 2 0 0 0-.363-.07 3 3 0 0 0-.472-.035q-.492 0-.885.214-.388.21-.612.582a1.64 1.64 0 0 0-.224.86V89zm5.551 0v-7.636h1.799V89zm.904-8.72q-.428 0-.735-.284a.91.91 0 0 1-.309-.69q0-.408.309-.692.307-.288.735-.288.433 0 .736.288.309.285.308.691a.91.91 0 0 1-.308.691 1.04 1.04 0 0 1-.736.284m2.746 11.584v-10.5h1.77v1.262h.104q.14-.277.393-.591.254-.318.686-.542.432-.23 1.104-.229.885 0 1.596.453.716.447 1.133 1.327.423.875.423 2.148 0 1.256-.413 2.138-.412.88-1.123 1.342a2.9 2.9 0 0 1-1.611.462q-.657 0-1.089-.219a2.2 2.2 0 0 1-.696-.527 3.4 3.4 0 0 1-.403-.591h-.074v4.067zm1.765-6.682q0 .74.209 1.297.213.558.611.87.403.309.975.309.596 0 .999-.319.403-.322.606-.88.21-.561.209-1.277 0-.711-.204-1.263a1.9 1.9 0 0 0-.606-.865q-.403-.313-1.004-.313-.577 0-.98.303a1.87 1.87 0 0 0-.611.85q-.204.547-.204 1.288m10.798-3.818v1.392h-4.39v-1.392zm-3.306-1.83h1.8v7.17q0 .362.109.556a.6.6 0 0 0 .298.258q.184.07.408.07.17 0 .308-.025.144-.024.219-.044l.303 1.406q-.144.05-.412.11-.263.06-.647.07a2.9 2.9 0 0 1-1.218-.204 1.9 1.9 0 0 1-.86-.706q-.312-.478-.308-1.194z"/></g><defs><filter id="a" width="167" height="169" x="0" y="0" color-interpolation-filters="sRGB" filterUnits="userSpaceOnUse"><feFlood flood-opacity="0" result="BackgroundImageFix"/><feColorMatrix in="SourceAlpha" result="hardAlpha" values="0 0 0 0 0 0 0 0 0 0 0 0 0 0 0 0 0 0 127 0"/><feMorphology in="SourceAlpha" radius="12" result="effect1_dropShadow_5820_13413"/><feOffset dy="25"/><feGaussianBlur stdDeviation="25"/><feColorMatrix values="0 0 0 0 0 0 0 0 0 0 0 0 0 0 0 0 0 0 0.25 0"/><feBlend in2="BackgroundImageFix" result="effect1_dropShadow_5820_13413"/><feBlend in="SourceGraphic" in2="effect1_dropShadow_5820_13413" result="shape"/></filter></defs></svg>