<svg width="107" height="109" viewBox="0 0 107 109" fill="none" xmlns="http://www.w3.org/2000/svg">
<g filter="url(#filter0_d_5846_13464)">
<rect x="8" y="6" width="91" height="93" rx="12" fill="#151B23"/>
<rect x="9" y="7" width="89" height="91" rx="11" stroke="#1F2937" stroke-width="2"/>
<mask id="mask0_5846_13464" style="mask-type:luminance" maskUnits="userSpaceOnUse" x="36" y="23" width="35" height="34">
<path d="M36 23.75H71V56.4203H36V23.75Z" fill="white"/>
</mask>
<g mask="url(#mask0_5846_13464)">
<path d="M48.5834 32.3649H48.0508V32.8954H48.5834V32.3649ZM48.5834 36.8832H48.0508V37.4148H48.5834V36.8832ZM48.5834 34.5798H48.0508V35.1102H48.5834V34.5798ZM54.5203 30.3262H48.0508V30.8577H54.5203V30.3262ZM54.5203 32.3649H48.8492V32.8954H54.5203V32.3649ZM54.5203 34.5798H48.8492V35.1102H54.5203V34.5798ZM54.5203 36.8832H48.8492V37.4148H54.5203V36.8832Z" fill="#8F8F8F"/>
<path d="M54.9641 28.7324C55.0814 28.7324 55.1939 28.7789 55.2769 28.8618C55.3599 28.9446 55.4067 29.057 55.407 29.1743V38.3016C55.4067 38.4191 55.36 38.5318 55.277 38.6149C55.1941 38.6981 55.0816 38.7451 54.9641 38.7457H47.5211C47.4035 38.7454 47.2908 38.6985 47.2078 38.6153C47.1248 38.532 47.0781 38.4192 47.0781 38.3016V29.1754C47.0784 29.0581 47.1252 28.9457 47.2083 28.8629C47.2913 28.78 47.4038 28.7335 47.5211 28.7335L54.9641 28.7324ZM54.9641 28.377H47.5211C47.3093 28.377 47.1063 28.4611 46.9565 28.6108C46.8068 28.7605 46.7227 28.9636 46.7227 29.1754V38.3016C46.7227 38.5134 46.8068 38.7165 46.9565 38.8662C47.1063 39.016 47.3093 39.1001 47.5211 39.1001H54.9641C55.1756 39.0998 55.3784 39.0155 55.5279 38.8658C55.6774 38.7161 55.7614 38.5132 55.7614 38.3016V29.1754C55.7611 28.9638 55.6769 28.761 55.5272 28.6115C55.3775 28.462 55.1745 28.378 54.963 28.378L54.9641 28.377ZM48.5842 44.7701H48.0516V45.3016H48.5842V44.7701ZM48.5842 46.9849H48.0516V47.5165H48.5842V46.9849ZM48.5842 49.2895H48.0516V49.8199H48.5842V49.2895ZM54.5211 42.7324H48.0516V43.264H54.5211V42.7324ZM54.5211 44.7745H48.85V45.2973H54.5211V44.7745ZM54.5211 49.2927H48.85V49.8166H54.5211V49.2927ZM54.5211 46.9893H48.85V47.5121H54.5211V46.9893Z" fill="#8F8F8F"/>
<path d="M54.9641 41.1345C55.0815 41.1345 55.1942 41.1812 55.2773 41.2643C55.3604 41.3473 55.407 41.46 55.407 41.5775V50.7048C55.4062 50.8219 55.3591 50.9338 55.2762 51.0163C55.1933 51.0989 55.0811 51.1453 54.9641 51.1456H47.5211C47.4037 51.1453 47.2912 51.0986 47.2082 51.0156C47.1252 50.9326 47.0784 50.8201 47.0781 50.7027V41.5753C47.0781 41.5171 47.0896 41.4595 47.1118 41.4058C47.1341 41.3521 47.1667 41.3032 47.2079 41.2621C47.249 41.221 47.2978 41.1883 47.3516 41.1661C47.4053 41.1438 47.4629 41.1323 47.5211 41.1323H54.9641V41.1345ZM54.9641 40.778H47.5211C47.3095 40.778 47.1066 40.8619 46.9569 41.0114C46.8072 41.1609 46.7229 41.3637 46.7227 41.5753V50.7027C46.7229 50.9142 46.8072 51.117 46.9569 51.2665C47.1066 51.416 47.3095 51.5 47.5211 51.5H54.9641C55.1756 51.4997 55.3784 51.4155 55.5279 51.2658C55.6774 51.1161 55.7614 50.9131 55.7614 50.7016V41.5764C55.7597 41.3658 55.6748 41.1644 55.5252 41.0161C55.3757 40.8677 55.1736 40.7845 54.963 40.7845V40.7791L54.9641 40.778ZM59.6595 33.7812H57.0017V34.2231H59.6595V45.9197H57.0017V46.3627H60.1025V33.7812H59.6595Z" fill="#8F8F8F"/>
<path d="M40.2984 50.9069C40.3699 50.8566 40.4428 50.8084 40.5172 50.7625C40.5117 48.8211 40.4953 45.2205 40.4341 43.4114C40.4341 42.2236 40.4341 40.6256 37.9316 40.1061C40.4319 39.5866 40.4341 37.9897 40.4341 36.8019C40.503 34.8112 40.515 30.6506 40.5183 28.9192C40.4745 28.8922 40.4308 28.8634 40.387 28.8328C39.4431 28.1612 38.8908 27.0905 38.7213 25.8359C38.4216 26.3281 38.2312 26.9395 38.2148 27.6953C38.1463 30.7314 38.0588 33.7669 37.9523 36.8019C37.8911 38.4841 36.8619 38.8034 36.3227 38.8559C36.2152 38.8623 36.1075 38.8634 36 38.8592V41.353C36.1148 41.3486 36.2209 41.353 36.3227 41.353C36.8608 41.4055 37.8911 41.7248 37.9523 43.4081C37.9797 44.1541 38.1339 48.6297 38.2148 52.5136C38.2163 53.0853 38.3495 53.6489 38.6042 54.1608C38.7278 52.798 39.2889 51.6309 40.2984 50.9069Z" fill="#EF312D"/>
<path d="M40.3863 28.8301C40.4301 28.8607 40.4738 28.8899 40.5176 28.9176V28.1356C40.5176 28.1356 40.1632 25.5653 43.8841 25.9196V23.7923C43.8841 23.7923 40.1107 23.5539 38.7205 25.8332C38.8901 27.0878 39.4424 28.1574 40.3863 28.8301ZM43.8852 56.4134V54.286C40.1632 54.6404 40.5187 52.0712 40.5187 52.0712V50.7587C40.4443 50.8046 40.3714 50.8528 40.2999 50.9031C39.2893 51.6282 38.7271 52.7953 38.6035 54.1635C39.8843 56.6682 43.8863 56.4134 43.8863 56.4134H43.8852Z" fill="#F6AD53"/>
<path d="M70.677 38.8179C70.1388 38.7643 69.1085 38.4449 69.0473 36.7627C68.94 33.7278 68.8525 30.6922 68.7848 27.6562C68.781 27.152 68.6777 26.6536 68.4807 26.1895C68.2948 27.3915 67.7468 28.413 66.8335 29.066C66.7204 29.1451 66.6036 29.2189 66.4835 29.287C66.4868 31.1934 66.5043 34.9143 66.5655 36.7627C66.5655 37.9505 66.5655 39.5474 69.068 40.067C66.5688 40.5865 66.5655 42.1845 66.5655 43.3723C66.5043 45.2284 66.4868 48.9701 66.4824 50.8699C66.6355 50.9501 66.7821 51.0402 66.9221 51.1401C67.784 51.757 68.3199 52.7009 68.5354 53.8165C68.6962 53.3888 68.7804 52.936 68.7848 52.4788C68.8657 48.5949 69.0199 44.1193 69.0473 43.3734C69.1085 41.6912 70.1377 41.3707 70.677 41.3182C70.7787 41.3127 70.8826 41.3105 70.9996 41.3149V38.8212C70.8921 38.8254 70.7844 38.8243 70.677 38.8179Z" fill="#EF312D"/>
<path d="M68.4803 26.1897C67.3045 23.4914 63.1133 23.7572 63.1133 23.7572V25.8845C66.8353 25.5313 66.4798 28.1005 66.4798 28.1005V29.2872C66.6006 29.2199 66.7182 29.1469 66.832 29.0684C67.7464 28.4133 68.2944 27.3917 68.4803 26.1897ZM66.9217 51.1392C66.7806 51.041 66.6338 50.9511 66.482 50.8702V52.0372C66.482 52.0372 66.8364 54.6064 63.1155 54.252V56.3794C63.1155 56.3794 67.4391 56.6539 68.5372 53.8178C68.3228 52.7011 67.7825 51.7572 66.9217 51.1392Z" fill="#F6AD53"/>
</g>
<path d="M23.9992 73.3643V71.8182H32.1228V73.3643H28.9758V82H27.1462V73.3643H23.9992ZM33.8529 84.8636C33.6076 84.8636 33.3806 84.8438 33.1718 84.804C32.9663 84.7675 32.8022 84.7244 32.6796 84.6747L33.0972 83.2727C33.359 83.349 33.5927 83.3854 33.7982 83.3821C34.0037 83.3788 34.1843 83.3142 34.3401 83.1882C34.4992 83.0656 34.6334 82.8601 34.7428 82.5717L34.8969 82.1591L32.1278 74.3636H34.0368L35.7968 80.1307H35.8763L37.6412 74.3636H39.5553L36.4978 82.9247C36.3553 83.3291 36.1663 83.6754 35.931 83.9638C35.6957 84.2554 35.4073 84.4775 35.066 84.63C34.7279 84.7857 34.3235 84.8636 33.8529 84.8636ZM40.8007 84.8636V74.3636H42.5706V75.6264H42.675C42.7678 75.4408 42.8987 75.2436 43.0677 75.0348C43.2368 74.8227 43.4655 74.642 43.7538 74.4929C44.0422 74.3404 44.4101 74.2642 44.8575 74.2642C45.4475 74.2642 45.9794 74.415 46.4534 74.7166C46.9307 75.0149 47.3085 75.4574 47.5869 76.044C47.8686 76.6274 48.0095 77.3433 48.0095 78.1918C48.0095 79.0303 47.872 79.7429 47.5969 80.3295C47.3218 80.9162 46.9472 81.3636 46.4733 81.6719C45.9993 81.9801 45.4624 82.1342 44.8625 82.1342C44.425 82.1342 44.0621 82.0613 43.7737 81.9155C43.4854 81.7696 43.2533 81.594 43.0777 81.3885C42.9053 81.1797 42.7711 80.9825 42.675 80.7969H42.6004V84.8636H40.8007ZM42.5656 78.1818C42.5656 78.6757 42.6352 79.1082 42.7744 79.4794C42.9169 79.8506 43.1208 80.1406 43.3859 80.3494C43.6544 80.5549 43.9792 80.6577 44.3604 80.6577C44.7581 80.6577 45.0912 80.5516 45.3596 80.3395C45.6281 80.1241 45.8303 79.8307 45.9662 79.4595C46.1054 79.085 46.175 78.6591 46.175 78.1818C46.175 77.7079 46.107 77.2869 45.9711 76.919C45.8353 76.5511 45.6331 76.2628 45.3646 76.054C45.0961 75.8452 44.7614 75.7408 44.3604 75.7408C43.9759 75.7408 43.6494 75.8419 43.3809 76.044C43.1125 76.2462 42.9086 76.5296 42.7694 76.8942C42.6336 77.2588 42.5656 77.688 42.5656 78.1818ZM52.9314 82.1491C52.1657 82.1491 51.5045 81.9901 50.9477 81.6719C50.3942 81.3504 49.9683 80.8963 49.67 80.3097C49.3717 79.7197 49.2226 79.0253 49.2226 78.2266C49.2226 77.4411 49.3717 76.7517 49.67 76.1584C49.9716 75.5618 50.3925 75.0978 50.9328 74.7663C51.473 74.4316 52.1077 74.2642 52.8369 74.2642C53.3076 74.2642 53.7517 74.3404 54.1693 74.4929C54.5902 74.642 54.9614 74.8741 55.2829 75.1889C55.6077 75.5038 55.863 75.9048 56.0486 76.392C56.2342 76.8759 56.327 77.4527 56.327 78.1222V78.674H50.0677V77.4609H54.6018C54.5985 77.1162 54.5239 76.8097 54.3781 76.5412C54.2323 76.2694 54.0284 76.0556 53.7666 75.8999C53.5081 75.7441 53.2065 75.6662 52.8618 75.6662C52.4939 75.6662 52.1707 75.7557 51.8923 75.9347C51.6139 76.1103 51.3968 76.3423 51.241 76.6307C51.0886 76.9157 51.0107 77.2289 51.0074 77.5703V78.6293C51.0074 79.0734 51.0886 79.4545 51.251 79.7727C51.4134 80.0876 51.6404 80.3295 51.9321 80.4986C52.2238 80.6643 52.5651 80.7472 52.9562 80.7472C53.2181 80.7472 53.455 80.7107 53.6672 80.6378C53.8793 80.5616 54.0632 80.4505 54.219 80.3047C54.3748 80.1589 54.4925 79.9782 54.572 79.7628L56.2524 79.9517C56.1463 80.3958 55.9442 80.7836 55.6459 81.1151C55.3509 81.4432 54.973 81.6984 54.5123 81.8807C54.0516 82.0597 53.5247 82.1491 52.9314 82.1491ZM61.1805 82.1491C60.4347 82.1491 59.7884 81.9851 59.2416 81.657C58.6947 81.3288 58.2704 80.8698 57.9688 80.2798C57.6705 79.6899 57.5214 79.0005 57.5214 78.2116C57.5214 77.4228 57.6705 76.7318 57.9688 76.1385C58.2704 75.5452 58.6947 75.0845 59.2416 74.7564C59.7884 74.4283 60.4347 74.2642 61.1805 74.2642C61.9262 74.2642 62.5725 74.4283 63.1194 74.7564C63.6663 75.0845 64.0889 75.5452 64.3872 76.1385C64.6888 76.7318 64.8396 77.4228 64.8396 78.2116C64.8396 79.0005 64.6888 79.6899 64.3872 80.2798C64.0889 80.8698 63.6663 81.3288 63.1194 81.657C62.5725 81.9851 61.9262 82.1491 61.1805 82.1491ZM61.1904 80.7074C61.5948 80.7074 61.9329 80.5964 62.2046 80.3743C62.4764 80.1489 62.6786 79.8473 62.8112 79.4695C62.9471 79.0916 63.015 78.6707 63.015 78.2067C63.015 77.7393 62.9471 77.3168 62.8112 76.9389C62.6786 76.5578 62.4764 76.2545 62.2046 76.0291C61.9329 75.8037 61.5948 75.6911 61.1904 75.6911C60.7761 75.6911 60.4314 75.8037 60.1563 76.0291C59.8846 76.2545 59.6807 76.5578 59.5448 76.9389C59.4123 77.3168 59.346 77.7393 59.346 78.2067C59.346 78.6707 59.4123 79.0916 59.5448 79.4695C59.6807 79.8473 59.8846 80.1489 60.1563 80.3743C60.4314 80.5964 60.7761 80.7074 61.1904 80.7074ZM66.3671 82V74.3636H68.1121V75.6364H68.1917C68.3309 75.1955 68.5695 74.8558 68.9076 74.6172C69.249 74.3752 69.6384 74.2543 70.0759 74.2543C70.1753 74.2543 70.2864 74.2592 70.409 74.2692C70.5349 74.2758 70.6394 74.2874 70.7222 74.304V75.9595C70.646 75.933 70.525 75.9098 70.3593 75.8899C70.1969 75.8667 70.0394 75.8551 69.887 75.8551C69.5589 75.8551 69.2639 75.9264 69.002 76.0689C68.7435 76.2081 68.5397 76.402 68.3905 76.6506C68.2414 76.8991 68.1668 77.1858 68.1668 77.5107V82H66.3671ZM71.9179 82V74.3636H73.6381V75.6612H73.7275C73.8866 75.2237 74.1501 74.8823 74.518 74.6371C74.8859 74.3885 75.3251 74.2642 75.8355 74.2642C76.3525 74.2642 76.7884 74.3902 77.143 74.642C77.501 74.8906 77.7529 75.2304 77.8987 75.6612H77.9782C78.1473 75.237 78.4323 74.8989 78.8334 74.647C79.2377 74.3918 79.7166 74.2642 80.2702 74.2642C80.9728 74.2642 81.5462 74.4863 81.9903 74.9304C82.4345 75.3745 82.6565 76.0225 82.6565 76.8743V82H80.8518V77.1527C80.8518 76.6787 80.7259 76.3324 80.474 76.1136C80.2221 75.8916 79.9139 75.7805 79.5493 75.7805C79.1151 75.7805 78.7754 75.9164 78.5301 76.1882C78.2881 76.4567 78.1672 76.8063 78.1672 77.2372V82H76.4023V77.0781C76.4023 76.6837 76.2829 76.3688 76.0443 76.1335C75.809 75.8982 75.5007 75.7805 75.1196 75.7805C74.8611 75.7805 74.6257 75.8468 74.4136 75.9794C74.2015 76.1087 74.0325 76.2926 73.9065 76.5312C73.7806 76.7666 73.7176 77.0417 73.7176 77.3565V82H71.9179Z" fill="white"/>
</g>
<defs>
<filter id="filter0_d_5846_13464" x="0" y="0" width="107" height="109" filterUnits="userSpaceOnUse" color-interpolation-filters="sRGB">
<feFlood flood-opacity="0" result="BackgroundImageFix"/>
<feColorMatrix in="SourceAlpha" type="matrix" values="0 0 0 0 0 0 0 0 0 0 0 0 0 0 0 0 0 0 127 0" result="hardAlpha"/>
<feOffset dy="2"/>
<feGaussianBlur stdDeviation="4"/>
<feColorMatrix type="matrix" values="0 0 0 0 0 0 0 0 0 0 0 0 0 0 0 0 0 0 0.25 0"/>
<feBlend mode="normal" in2="BackgroundImageFix" result="effect1_dropShadow_5846_13464"/>
<feBlend mode="normal" in="SourceGraphic" in2="effect1_dropShadow_5846_13464" result="shape"/>
</filter>
</defs>
</svg>
