<svg width="107" height="109" viewBox="0 0 107 109" fill="none" xmlns="http://www.w3.org/2000/svg">
<g filter="url(#filter0_d_5820_13413)">
<rect x="8" y="6" width="91" height="93" rx="12" fill="#151B23"/>
<rect x="9" y="7" width="89" height="91" rx="11" stroke="#1F2937" stroke-width="2"/>
<path d="M65.75 22.5H41.25C38.3505 22.5 36 24.8505 36 27.75V52.25C36 55.1495 38.3505 57.5 41.25 57.5H65.75C68.6495 57.5 71 55.1495 71 52.25V27.75C71 24.8505 68.6495 22.5 65.75 22.5Z" fill="#3178C6"/>
<path d="M51.9277 42.9133C51.9277 42.361 52.3754 41.9133 52.9277 41.9133H55.3027C55.855 41.9133 56.3027 41.4656 56.3027 40.9133V40.1105C56.3027 39.5583 55.855 39.1105 55.3027 39.1105H45.0664C44.5141 39.1105 44.0664 39.5583 44.0664 40.1105V40.9133C44.0664 41.4656 44.5141 41.9133 45.0664 41.9133H47.4414C47.9937 41.9133 48.4414 42.361 48.4414 42.9133V53.423C48.4414 53.9753 48.8891 54.423 49.4414 54.423H50.9277C51.48 54.423 51.9277 53.9753 51.9277 53.423V42.9133ZM57.6699 53.1315C57.6699 53.505 57.8761 53.8532 58.2247 53.9872C58.6548 54.1526 59.1358 54.2834 59.6523 54.382C60.4043 54.5256 61.2246 54.5939 62.0449 54.5939C62.8652 54.5939 63.6172 54.5188 64.3691 54.3615C65.1211 54.2043 65.7363 53.9445 66.2832 53.6096C66.8369 53.2473 67.3086 52.7893 67.582 52.174C67.8555 51.5588 68.0674 50.8752 68.0674 49.9865C68.0674 49.3645 67.9717 48.8244 67.7871 48.3459C67.6025 47.8674 67.3359 47.4572 66.9668 47.1154C66.6182 46.7531 66.2148 46.4318 65.7363 46.1584C65.2578 45.885 64.7109 45.5979 64.0957 45.3381C63.6445 45.1535 63.2754 44.9758 62.8652 44.798C62.5098 44.6203 62.2021 44.4426 61.9766 44.2648C61.7236 44.0803 61.5322 43.8889 61.3955 43.6906C61.2588 43.4855 61.1904 43.26 61.1904 43.007C61.1904 42.7746 61.2513 42.5627 61.375 42.3713C61.4987 42.1799 61.6689 42.0227 61.8877 41.8859C62.1064 41.7492 62.3799 41.6467 62.708 41.5715C63.0293 41.4963 63.3848 41.4621 63.8018 41.4621C64.0889 41.4621 64.3896 41.4833 64.6904 41.5264C65.0049 41.5694 65.3262 41.6357 65.6475 41.7246C65.9688 41.8135 66.2832 41.9229 66.6045 42.0596C66.9612 42.2217 67.4248 41.9751 67.4248 41.5832V40.0071C67.4248 39.5924 67.1701 39.2152 66.771 39.1025C66.4358 39.0078 66.0831 38.9312 65.7158 38.874C65.1006 38.7783 64.417 38.7305 63.5967 38.7305C62.7764 38.7305 62.0244 38.8193 61.2725 38.9902C60.5205 39.1611 59.9053 39.4346 59.3584 39.8105C58.8047 40.1797 58.4014 40.6309 58.0596 41.2461C57.7383 41.8203 57.5811 42.4766 57.5811 43.2969C57.5811 44.3223 57.875 45.2109 58.4697 45.8945C59.0576 46.6465 59.9736 47.1934 61.1357 47.7402C61.6074 47.9316 62.0244 48.123 62.4346 48.3076C62.8447 48.4922 63.1865 48.6836 63.46 48.8818C63.7539 49.0801 63.9863 49.2988 64.1436 49.5312C64.3145 49.7637 64.4033 50.0371 64.4033 50.3516C64.4033 50.5703 64.35 50.7754 64.2461 50.9668C64.1422 51.1582 63.9795 51.3223 63.7607 51.459C63.542 51.5957 63.2754 51.7051 62.9404 51.7871C62.6191 51.8623 62.2568 51.9033 61.7783 51.9033C61.0264 51.9033 60.2744 51.7734 59.5908 51.5137C59.571 51.5068 59.5513 51.4999 59.5316 51.4929C58.732 51.2081 57.6699 51.7499 57.6699 52.5986V53.1315Z" fill="white"/>
<path d="M17.5568 73.3643V71.8182H25.6804V73.3643H22.5334V82H20.7038V73.3643H17.5568ZM27.4105 84.8636C27.1652 84.8636 26.9382 84.8438 26.7294 84.804C26.5239 84.7675 26.3598 84.7244 26.2372 84.6747L26.6548 83.2727C26.9167 83.349 27.1503 83.3854 27.3558 83.3821C27.5613 83.3788 27.742 83.3142 27.8977 83.1882C28.0568 83.0656 28.1911 82.8601 28.3004 82.5717L28.4545 82.1591L25.6854 74.3636H27.5945L29.3544 80.1307H29.4339L31.1989 74.3636H33.1129L30.0554 82.9247C29.9129 83.3291 29.724 83.6754 29.4886 83.9638C29.2533 84.2554 28.965 84.4775 28.6236 84.63C28.2855 84.7857 27.8812 84.8636 27.4105 84.8636ZM34.3583 84.8636V74.3636H36.1282V75.6264H36.2326C36.3254 75.4408 36.4563 75.2436 36.6254 75.0348C36.7944 74.8227 37.0231 74.642 37.3114 74.4929C37.5998 74.3404 37.9677 74.2642 38.4151 74.2642C39.0051 74.2642 39.5371 74.415 40.011 74.7166C40.4883 75.0149 40.8661 75.4574 41.1445 76.044C41.4263 76.6274 41.5671 77.3433 41.5671 78.1918C41.5671 79.0303 41.4296 79.7429 41.1545 80.3295C40.8794 80.9162 40.5049 81.3636 40.0309 81.6719C39.5569 81.9801 39.02 82.1342 38.4201 82.1342C37.9826 82.1342 37.6197 82.0613 37.3313 81.9155C37.043 81.7696 36.811 81.594 36.6353 81.3885C36.4629 81.1797 36.3287 80.9825 36.2326 80.7969H36.158V84.8636H34.3583ZM36.1232 78.1818C36.1232 78.6757 36.1928 79.1082 36.332 79.4794C36.4746 79.8506 36.6784 80.1406 36.9435 80.3494C37.212 80.5549 37.5368 80.6577 37.918 80.6577C38.3157 80.6577 38.6488 80.5516 38.9173 80.3395C39.1857 80.1241 39.3879 79.8307 39.5238 79.4595C39.663 79.085 39.7326 78.6591 39.7326 78.1818C39.7326 77.7079 39.6647 77.2869 39.5288 76.919C39.3929 76.5511 39.1907 76.2628 38.9222 76.054C38.6538 75.8452 38.319 75.7408 37.918 75.7408C37.5335 75.7408 37.207 75.8419 36.9386 76.044C36.6701 76.2462 36.4663 76.5296 36.3271 76.8942C36.1912 77.2588 36.1232 77.688 36.1232 78.1818ZM46.489 82.1491C45.7234 82.1491 45.0621 81.9901 44.5053 81.6719C43.9518 81.3504 43.5259 80.8963 43.2276 80.3097C42.9293 79.7197 42.7802 79.0253 42.7802 78.2266C42.7802 77.4411 42.9293 76.7517 43.2276 76.1584C43.5292 75.5618 43.9502 75.0978 44.4904 74.7663C45.0307 74.4316 45.6654 74.2642 46.3945 74.2642C46.8652 74.2642 47.3093 74.3404 47.7269 74.4929C48.1478 74.642 48.5191 74.8741 48.8406 75.1889C49.1654 75.5038 49.4206 75.9048 49.6062 76.392C49.7918 76.8759 49.8846 77.4527 49.8846 78.1222V78.674H43.6254V77.4609H48.1594C48.1561 77.1162 48.0816 76.8097 47.9357 76.5412C47.7899 76.2694 47.5861 76.0556 47.3242 75.8999C47.0657 75.7441 46.7641 75.6662 46.4194 75.6662C46.0515 75.6662 45.7283 75.7557 45.4499 75.9347C45.1715 76.1103 44.9544 76.3423 44.7987 76.6307C44.6462 76.9157 44.5683 77.2289 44.565 77.5703V78.6293C44.565 79.0734 44.6462 79.4545 44.8086 79.7727C44.971 80.0876 45.198 80.3295 45.4897 80.4986C45.7814 80.6643 46.1228 80.7472 46.5138 80.7472C46.7757 80.7472 47.0127 80.7107 47.2248 80.6378C47.4369 80.5616 47.6209 80.4505 47.7766 80.3047C47.9324 80.1589 48.0501 79.9782 48.1296 79.7628L49.81 79.9517C49.704 80.3958 49.5018 80.7836 49.2035 81.1151C48.9085 81.4432 48.5307 81.6984 48.07 81.8807C47.6093 82.0597 47.0823 82.1491 46.489 82.1491ZM57.4426 76.3821L55.802 76.5611C55.7556 76.3954 55.6744 76.2396 55.5584 76.0938C55.4457 75.9479 55.2933 75.8303 55.101 75.7408C54.9088 75.6513 54.6735 75.6065 54.3951 75.6065C54.0205 75.6065 53.7057 75.6877 53.4505 75.8501C53.1986 76.0125 53.0743 76.223 53.0776 76.4815C53.0743 76.7036 53.1555 76.8842 53.3212 77.0234C53.4902 77.1626 53.7686 77.277 54.1564 77.3665L55.459 77.6449C56.1815 77.8007 56.7185 78.0476 57.0698 78.3857C57.4244 78.7237 57.6034 79.1662 57.6067 79.7131C57.6034 80.1937 57.4625 80.6179 57.1841 80.9858C56.909 81.3504 56.5262 81.6354 56.0357 81.8409C55.5452 82.0464 54.9817 82.1491 54.3453 82.1491C53.4107 82.1491 52.6583 81.9536 52.0882 81.5625C51.5182 81.1681 51.1784 80.6196 51.0691 79.9169L52.824 79.7479C52.9036 80.0926 53.0726 80.3527 53.3311 80.5284C53.5897 80.7041 53.9261 80.7919 54.3404 80.7919C54.7679 80.7919 55.111 80.7041 55.3695 80.5284C55.6313 80.3527 55.7623 80.1357 55.7623 79.8771C55.7623 79.6584 55.6777 79.4777 55.5087 79.3352C55.343 79.1927 55.0845 79.0833 54.7331 79.0071L53.4306 78.7337C52.6981 78.5812 52.1562 78.3243 51.8049 77.9631C51.4535 77.5985 51.2795 77.1378 51.2828 76.581C51.2795 76.1103 51.4071 75.7027 51.6657 75.358C51.9275 75.0099 52.2904 74.7415 52.7544 74.5526C53.2218 74.3603 53.7604 74.2642 54.3702 74.2642C55.2651 74.2642 55.9694 74.4548 56.4831 74.8359C57.0002 75.2171 57.32 75.7325 57.4426 76.3821ZM62.4217 82.1491C61.6594 82.1491 61.0048 81.9818 60.4579 81.647C59.9144 81.3123 59.4951 80.8499 59.2001 80.2599C58.9084 79.6667 58.7626 78.9839 58.7626 78.2116C58.7626 77.4361 58.9118 76.7517 59.21 76.1584C59.5083 75.5618 59.9293 75.0978 60.4728 74.7663C61.0197 74.4316 61.666 74.2642 62.4118 74.2642C63.0315 74.2642 63.5801 74.3786 64.0574 74.6072C64.5379 74.8326 64.9208 75.1525 65.2058 75.5668C65.4908 75.9777 65.6532 76.4583 65.693 77.0085H63.9728C63.9032 76.6406 63.7375 76.334 63.4757 76.0888C63.2172 75.8402 62.8708 75.7159 62.4366 75.7159C62.0687 75.7159 61.7456 75.8153 61.4672 76.0142C61.1887 76.2098 60.9717 76.4915 60.8159 76.8594C60.6634 77.2273 60.5872 77.6681 60.5872 78.1818C60.5872 78.7022 60.6634 79.1496 60.8159 79.5241C60.9683 79.8954 61.1821 80.1821 61.4572 80.3842C61.7356 80.5831 62.0621 80.6825 62.4366 80.6825C62.7018 80.6825 62.9387 80.6328 63.1475 80.5334C63.3597 80.4306 63.537 80.2831 63.6795 80.0909C63.822 79.8987 63.9198 79.665 63.9728 79.3899H65.693C65.6499 79.9302 65.4908 80.4091 65.2157 80.8267C64.9406 81.241 64.5661 81.5658 64.0922 81.8011C63.6182 82.0331 63.0614 82.1491 62.4217 82.1491ZM67.1708 82V74.3636H68.9158V75.6364H68.9954C69.1346 75.1955 69.3732 74.8558 69.7113 74.6172C70.0527 74.3752 70.4421 74.2543 70.8796 74.2543C70.979 74.2543 71.0901 74.2592 71.2127 74.2692C71.3387 74.2758 71.4431 74.2874 71.5259 74.304V75.9595C71.4497 75.933 71.3287 75.9098 71.163 75.8899C71.0006 75.8667 70.8432 75.8551 70.6907 75.8551C70.3626 75.8551 70.0676 75.9264 69.8058 76.0689C69.5472 76.2081 69.3434 76.402 69.1942 76.6506C69.0451 76.8991 68.9705 77.1858 68.9705 77.5107V82H67.1708ZM72.7216 82V74.3636H74.5213V82H72.7216ZM73.6264 73.2798C73.3414 73.2798 73.0961 73.1854 72.8906 72.9964C72.6851 72.8042 72.5824 72.5739 72.5824 72.3054C72.5824 72.0336 72.6851 71.8033 72.8906 71.6143C73.0961 71.4221 73.3414 71.326 73.6264 71.326C73.9148 71.326 74.16 71.4221 74.3622 71.6143C74.5677 71.8033 74.6705 72.0336 74.6705 72.3054C74.6705 72.5739 74.5677 72.8042 74.3622 72.9964C74.16 73.1854 73.9148 73.2798 73.6264 73.2798ZM76.372 84.8636V74.3636H78.1419V75.6264H78.2463C78.3391 75.4408 78.47 75.2436 78.639 75.0348C78.8081 74.8227 79.0368 74.642 79.3251 74.4929C79.6135 74.3404 79.9814 74.2642 80.4288 74.2642C81.0188 74.2642 81.5507 74.415 82.0247 74.7166C82.502 75.0149 82.8798 75.4574 83.1582 76.044C83.4399 76.6274 83.5808 77.3433 83.5808 78.1918C83.5808 79.0303 83.4432 79.7429 83.1681 80.3295C82.8931 80.9162 82.5185 81.3636 82.0446 81.6719C81.5706 81.9801 81.0337 82.1342 80.4338 82.1342C79.9963 82.1342 79.6333 82.0613 79.345 81.9155C79.0566 81.7696 78.8246 81.594 78.649 81.3885C78.4766 81.1797 78.3424 80.9825 78.2463 80.7969H78.1717V84.8636H76.372ZM78.1369 78.1818C78.1369 78.6757 78.2065 79.1082 78.3457 79.4794C78.4882 79.8506 78.6921 80.1406 78.9572 80.3494C79.2257 80.5549 79.5505 80.6577 79.9316 80.6577C80.3294 80.6577 80.6625 80.5516 80.9309 80.3395C81.1994 80.1241 81.4016 79.8307 81.5375 79.4595C81.6767 79.085 81.7463 78.6591 81.7463 78.1818C81.7463 77.7079 81.6783 77.2869 81.5424 76.919C81.4065 76.5511 81.2044 76.2628 80.9359 76.054C80.6674 75.8452 80.3327 75.7408 79.9316 75.7408C79.5472 75.7408 79.2207 75.8419 78.9522 76.044C78.6838 76.2462 78.4799 76.5296 78.3407 76.8942C78.2048 77.2588 78.1369 77.688 78.1369 78.1818ZM88.9352 74.3636V75.7557H84.5453V74.3636H88.9352ZM85.6291 72.5341H87.4288V79.7031C87.4288 79.9451 87.4653 80.1307 87.5382 80.2599C87.6144 80.3859 87.7138 80.4721 87.8365 80.5185C87.9591 80.5649 88.095 80.5881 88.2441 80.5881C88.3568 80.5881 88.4596 80.5798 88.5524 80.5632C88.6485 80.5466 88.7214 80.5317 88.7711 80.5185L89.0744 81.9254C88.9783 81.9586 88.8407 81.995 88.6618 82.0348C88.4861 82.0746 88.2707 82.0978 88.0154 82.1044C87.5647 82.1177 87.1587 82.0497 86.7974 81.9006C86.4361 81.7481 86.1494 81.5128 85.9373 81.1946C85.7285 80.8764 85.6258 80.4787 85.6291 80.0014V72.5341Z" fill="white"/>
</g>
<defs>
<filter id="filter0_d_5820_13413" x="0" y="0" width="107" height="109" filterUnits="userSpaceOnUse" color-interpolation-filters="sRGB">
<feFlood flood-opacity="0" result="BackgroundImageFix"/>
<feColorMatrix in="SourceAlpha" type="matrix" values="0 0 0 0 0 0 0 0 0 0 0 0 0 0 0 0 0 0 127 0" result="hardAlpha"/>
<feOffset dy="2"/>
<feGaussianBlur stdDeviation="4"/>
<feColorMatrix type="matrix" values="0 0 0 0 0 0 0 0 0 0 0 0 0 0 0 0 0 0 0.25 0"/>
<feBlend mode="normal" in2="BackgroundImageFix" result="effect1_dropShadow_5820_13413"/>
<feBlend mode="normal" in="SourceGraphic" in2="effect1_dropShadow_5820_13413" result="shape"/>
</filter>
</defs>
</svg>
