<svg width="107" height="109" viewBox="0 0 107 109" fill="none" xmlns="http://www.w3.org/2000/svg">
<g filter="url(#filter0_d_5834_9717)">
<rect x="8" y="6" width="91" height="93" rx="12" fill="#151B23"/>
<rect x="9" y="7" width="89" height="91" rx="11" stroke="#1F2937" stroke-width="2"/>
<mask id="mask0_5834_9717" style="mask-type:luminance" maskUnits="userSpaceOnUse" x="36" y="23" width="35" height="36">
<path d="M36 23.5H71V58.5H36V23.5Z" fill="white"/>
</mask>
<g mask="url(#mask0_5834_9717)">
<path d="M41.0564 50.8989C40.8517 51.0747 40.6021 51.1902 40.3355 51.2323C40.069 51.2744 39.796 51.2415 39.547 51.1374L36.8969 50.0239C36.6323 49.914 36.406 49.7285 36.2464 49.4905C36.0869 49.2525 36.0011 48.9728 36 48.6863V33.1331C36.0009 32.8464 36.0866 32.5664 36.2461 32.3282C36.4057 32.09 36.6321 31.9043 36.8969 31.7944L39.547 30.7006C40.0545 30.4884 40.6386 30.5803 41.0564 30.938L41.6514 31.4302C41.5309 31.3436 41.3887 31.2919 41.2407 31.2809C41.0927 31.27 40.9445 31.3001 40.8125 31.3679C40.6805 31.4358 40.5698 31.5388 40.4926 31.6656C40.4154 31.7924 40.3747 31.938 40.375 32.0864V49.7319C40.3747 49.8803 40.4154 50.0259 40.4926 50.1527C40.5698 50.2795 40.6805 50.3825 40.8125 50.4504C40.9445 50.5182 41.0927 50.5483 41.2407 50.5373C41.3887 50.5264 41.5309 50.4747 41.6514 50.3881L41.0564 50.8989Z" fill="#52218A"/>
<path d="M36.8969 50.0236C36.6323 49.9138 36.406 49.7282 36.2464 49.4902C36.0869 49.2523 36.0011 48.9725 36 48.686V48.5657C36.0018 48.7339 36.054 48.8978 36.1498 49.0362C36.2456 49.1745 36.3807 49.281 36.5376 49.3418C36.6945 49.4027 36.866 49.4152 37.0301 49.3776C37.1941 49.34 37.3432 49.2542 37.458 49.1311L60.0625 24.1389C60.3825 23.8204 60.7933 23.6088 61.2384 23.533C61.6835 23.4572 62.1412 23.521 62.5486 23.7157L69.7608 27.1872C70.1321 27.3658 70.4454 27.6457 70.6647 27.9946C70.8839 28.3435 71.0001 28.7472 71 29.1593V29.2435C70.9999 28.982 70.9256 28.7259 70.7858 28.5049C70.6459 28.284 70.4462 28.1073 70.2099 27.9954C69.9735 27.8834 69.7103 27.8409 69.4507 27.8727C69.1912 27.9044 68.9459 28.0092 68.7436 28.1749L41.6514 50.3889L41.0564 50.8997C40.6386 51.2563 40.0545 51.3482 39.547 51.136L36.8969 50.0236Z" fill="#6C33AF"/>
<path d="M36.8969 31.7951C36.6321 31.905 36.4057 32.0908 36.2461 32.329C36.0866 32.5671 36.0009 32.8472 36 33.1339V33.2542C36.0018 33.0859 36.054 32.922 36.1498 32.7837C36.2456 32.6453 36.3807 32.5388 36.5376 32.478C36.6945 32.4171 36.866 32.4047 37.0301 32.4422C37.1941 32.4798 37.3432 32.5656 37.458 32.6887L60.0625 57.6798C60.3825 57.9983 60.7933 58.21 61.2384 58.2858C61.6835 58.3615 62.1412 58.2977 62.5486 58.1031L69.7608 54.6315C70.1319 54.453 70.4451 54.1733 70.6644 53.8246C70.8836 53.4759 70.9999 53.0724 71 52.6606V52.5764C70.9999 52.8379 70.9256 53.094 70.7858 53.3149C70.6459 53.5359 70.4462 53.7126 70.2099 53.8245C69.9735 53.9364 69.7103 53.979 69.4507 53.9472C69.1912 53.9154 68.9459 53.8106 68.7436 53.645L41.6514 31.4309L41.0564 30.9201C40.8497 30.7475 40.5992 30.6357 40.3327 30.5971C40.0662 30.5585 39.7942 30.5946 39.547 30.7014L36.8969 31.7951Z" fill="#854CC7"/>
<path d="M62.5486 58.1032C62.1413 58.2979 61.6837 58.3619 61.2386 58.2863C60.7935 58.2108 60.3827 57.9993 60.0625 57.681C60.2421 57.8595 60.4705 57.9809 60.719 58.0299C60.9675 58.0788 61.2249 58.0532 61.4588 57.9561C61.6927 57.859 61.8927 57.6949 62.0335 57.4844C62.1743 57.2739 62.2496 57.0264 62.25 56.7732V25.0544C62.2511 24.8005 62.1769 24.552 62.0366 24.3403C61.8964 24.1286 61.6966 23.9633 61.4623 23.8653C61.2281 23.7673 60.9701 23.7409 60.7209 23.7897C60.4717 23.8384 60.2426 23.9599 60.0625 24.1389C60.3825 23.8204 60.7933 23.6088 61.2384 23.533C61.6835 23.4572 62.1412 23.521 62.5486 23.7157L69.7608 27.1828C70.1323 27.3616 70.4457 27.6416 70.665 27.9907C70.8842 28.3398 71.0003 28.7437 71 29.156V52.6639C71.0001 53.076 70.8839 53.4797 70.6647 53.8286C70.4454 54.1775 70.1321 54.4573 69.7608 54.636L62.5486 58.1032Z" fill="#B179F1"/>
</g>
<path d="M17.0284 72.2727L19.2997 79.142H19.3892L21.6562 72.2727H23.3949L20.3182 81H18.3665L15.294 72.2727H17.0284ZM24.4762 81V74.4545H26.0188V81H24.4762ZM25.2518 73.5256C25.0075 73.5256 24.7972 73.4446 24.6211 73.2827C24.445 73.1179 24.3569 72.9205 24.3569 72.6903C24.3569 72.4574 24.445 72.2599 24.6211 72.098C24.7972 71.9332 25.0075 71.8509 25.2518 71.8509C25.4989 71.8509 25.7092 71.9332 25.8825 72.098C26.0586 72.2599 26.1467 72.4574 26.1467 72.6903C26.1467 72.9205 26.0586 73.1179 25.8825 73.2827C25.7092 73.4446 25.4989 73.5256 25.2518 73.5256ZM32.7784 76.1847L31.3722 76.3381C31.3324 76.196 31.2628 76.0625 31.1634 75.9375C31.0668 75.8125 30.9361 75.7116 30.7713 75.6349C30.6065 75.5582 30.4048 75.5199 30.1662 75.5199C29.8452 75.5199 29.5753 75.5895 29.3565 75.7287C29.1406 75.8679 29.0341 76.0483 29.0369 76.2699C29.0341 76.4602 29.1037 76.6151 29.2457 76.7344C29.3906 76.8537 29.6293 76.9517 29.9616 77.0284L31.0781 77.267C31.6974 77.4006 32.1577 77.6122 32.4588 77.902C32.7628 78.1918 32.9162 78.571 32.919 79.0398C32.9162 79.4517 32.7955 79.8153 32.5568 80.1307C32.321 80.4432 31.9929 80.6875 31.5724 80.8636C31.152 81.0398 30.669 81.1278 30.1236 81.1278C29.3224 81.1278 28.6776 80.9602 28.1889 80.625C27.7003 80.2869 27.4091 79.8168 27.3153 79.2145L28.8196 79.0696C28.8878 79.3651 29.0327 79.5881 29.2543 79.7386C29.4759 79.8892 29.7642 79.9645 30.1193 79.9645C30.4858 79.9645 30.7798 79.8892 31.0014 79.7386C31.2259 79.5881 31.3381 79.402 31.3381 79.1804C31.3381 78.9929 31.2656 78.8381 31.1207 78.7159C30.9787 78.5937 30.7571 78.5 30.456 78.4347L29.3395 78.2003C28.7116 78.0696 28.2472 77.8494 27.946 77.5398C27.6449 77.2273 27.4957 76.8324 27.4986 76.3551C27.4957 75.9517 27.6051 75.6023 27.8267 75.3068C28.0511 75.0085 28.3622 74.7784 28.7599 74.6165C29.1605 74.4517 29.6222 74.3693 30.1449 74.3693C30.9119 74.3693 31.5156 74.5327 31.956 74.8594C32.3991 75.1861 32.6733 75.6278 32.7784 76.1847ZM38.3629 78.2472V74.4545H39.9055V81H38.4098V79.8366H38.3416C38.1939 80.2031 37.951 80.5028 37.6129 80.7358C37.2777 80.9687 36.8643 81.0852 36.3729 81.0852C35.9439 81.0852 35.5646 80.9901 35.2351 80.7997C34.9084 80.6065 34.6527 80.3267 34.468 79.9602C34.2834 79.5909 34.1911 79.1449 34.1911 78.6222V74.4545H35.7337V78.3835C35.7337 78.7983 35.8473 79.1278 36.0746 79.3722C36.3018 79.6165 36.6001 79.7386 36.9695 79.7386C37.1967 79.7386 37.4169 79.6832 37.63 79.5724C37.843 79.4616 38.0178 79.2969 38.1541 79.0781C38.2933 78.8565 38.3629 78.5795 38.3629 78.2472ZM43.3754 81.1321C42.9606 81.1321 42.587 81.0582 42.2546 80.9105C41.9251 80.7599 41.6637 80.5384 41.4705 80.2457C41.2802 79.9531 41.185 79.5923 41.185 79.1634C41.185 78.794 41.2532 78.4886 41.3896 78.2472C41.5259 78.0057 41.712 77.8125 41.9478 77.6676C42.1836 77.5227 42.4492 77.4134 42.7447 77.3395C43.043 77.2628 43.3512 77.2074 43.6694 77.1733C44.0529 77.1335 44.364 77.098 44.6026 77.0668C44.8413 77.0327 45.0146 76.9815 45.1225 76.9134C45.2333 76.8423 45.2887 76.733 45.2887 76.5852V76.5597C45.2887 76.2386 45.1935 75.9901 45.0032 75.8139C44.8129 75.6378 44.5387 75.5497 44.1808 75.5497C43.8029 75.5497 43.5032 75.6321 43.2816 75.7969C43.0629 75.9616 42.9151 76.1562 42.8384 76.3807L41.3981 76.1761C41.5117 75.7784 41.6992 75.446 41.9606 75.179C42.2219 74.9091 42.5415 74.7074 42.9194 74.5739C43.2972 74.4375 43.7148 74.3693 44.1722 74.3693C44.4876 74.3693 44.8015 74.4062 45.114 74.4801C45.4265 74.554 45.712 74.6761 45.9705 74.8466C46.229 75.0142 46.4364 75.2429 46.5927 75.5327C46.7518 75.8224 46.8313 76.1847 46.8313 76.6193V81H45.3484V80.1009H45.2972C45.2035 80.2827 45.0714 80.4531 44.9009 80.6122C44.7333 80.7685 44.5217 80.8949 44.266 80.9915C44.0131 81.0852 43.7163 81.1321 43.3754 81.1321ZM43.7759 79.9986C44.0856 79.9986 44.354 79.9375 44.5813 79.8153C44.8086 79.6903 44.9833 79.5256 45.1055 79.321C45.2305 79.1165 45.293 78.8935 45.293 78.652V77.8807C45.2447 77.9205 45.1623 77.9574 45.0458 77.9915C44.9322 78.0256 44.8043 78.0554 44.6623 78.081C44.5202 78.1065 44.3796 78.1293 44.2404 78.1491C44.1012 78.169 43.9805 78.1861 43.8782 78.2003C43.6481 78.2315 43.4421 78.2827 43.2603 78.3537C43.0785 78.4247 42.935 78.5241 42.8299 78.652C42.7248 78.777 42.6722 78.9389 42.6722 79.1378C42.6722 79.4219 42.7759 79.6364 42.9833 79.7812C43.1907 79.9261 43.4549 79.9986 43.7759 79.9986ZM49.9251 72.2727V81H48.3825V72.2727H49.9251ZM59.299 74.6719C59.2592 74.2997 59.0916 74.0099 58.7962 73.8026C58.5036 73.5952 58.1229 73.4915 57.6541 73.4915C57.3246 73.4915 57.0419 73.5412 56.8061 73.6406C56.5703 73.7401 56.3899 73.875 56.2649 74.0455C56.1399 74.2159 56.076 74.4105 56.0732 74.6293C56.0732 74.8111 56.1143 74.9687 56.1967 75.1023C56.282 75.2358 56.397 75.3494 56.5419 75.4432C56.6868 75.5341 56.8473 75.6108 57.0234 75.6733C57.1996 75.7358 57.3771 75.7884 57.5561 75.831L58.3743 76.0355C58.7038 76.1122 59.0206 76.2159 59.3246 76.3466C59.6314 76.4773 59.9055 76.642 60.147 76.8409C60.3913 77.0398 60.5845 77.2798 60.7266 77.5611C60.8686 77.8423 60.9396 78.1719 60.9396 78.5497C60.9396 79.0611 60.8089 79.5114 60.5476 79.9006C60.2862 80.2869 59.9084 80.5895 59.4141 80.8082C58.9226 81.0241 58.3274 81.1321 57.6286 81.1321C56.9496 81.1321 56.3601 81.027 55.8601 80.8168C55.3629 80.6065 54.9737 80.2997 54.6925 79.8963C54.4141 79.4929 54.2635 79.0014 54.2408 78.4219H55.7962C55.8189 78.7259 55.9126 78.9787 56.0774 79.1804C56.2422 79.3821 56.4567 79.5327 56.7209 79.6321C56.9879 79.7315 57.2862 79.7812 57.6158 79.7812C57.9595 79.7812 58.2607 79.7301 58.5192 79.6278C58.7805 79.5227 58.9851 79.3778 59.1328 79.1932C59.2805 79.0057 59.3558 78.7869 59.3587 78.5369C59.3558 78.3097 59.2891 78.1222 59.1584 77.9744C59.0277 77.8239 58.8445 77.6989 58.6087 77.5994C58.3757 77.4972 58.103 77.4062 57.7905 77.3267L56.7976 77.071C56.0788 76.8864 55.5107 76.6065 55.093 76.2315C54.6783 75.8537 54.4709 75.3523 54.4709 74.7273C54.4709 74.2131 54.6101 73.7628 54.8885 73.3764C55.1697 72.9901 55.5518 72.6903 56.0348 72.4773C56.5178 72.2614 57.0646 72.1534 57.6754 72.1534C58.2947 72.1534 58.8374 72.2614 59.3033 72.4773C59.772 72.6903 60.1399 72.9872 60.407 73.3679C60.674 73.7457 60.8118 74.1804 60.8203 74.6719H59.299ZM65.5494 74.4545V75.6477H61.7866V74.4545H65.5494ZM62.7156 72.8864H64.2582V79.0312C64.2582 79.2386 64.2894 79.3977 64.3519 79.5085C64.4173 79.6165 64.5025 79.6903 64.6076 79.7301C64.7127 79.7699 64.8292 79.7898 64.957 79.7898C65.0536 79.7898 65.1417 79.7827 65.2212 79.7685C65.3036 79.7543 65.3661 79.7415 65.4087 79.7301L65.6687 80.9361C65.5863 80.9645 65.4684 80.9957 65.315 81.0298C65.1644 81.0639 64.9798 81.0838 64.761 81.0895C64.3746 81.1009 64.0266 81.0426 63.717 80.9148C63.4073 80.7841 63.1616 80.5824 62.9798 80.3097C62.8008 80.0369 62.7127 79.696 62.7156 79.2869V72.8864ZM71.0114 78.2472V74.4545H72.554V81H71.0582V79.8366H70.9901C70.8423 80.2031 70.5994 80.5028 70.2614 80.7358C69.9261 80.9687 69.5128 81.0852 69.0213 81.0852C68.5923 81.0852 68.2131 80.9901 67.8835 80.7997C67.5568 80.6065 67.3011 80.3267 67.1165 79.9602C66.9318 79.5909 66.8395 79.1449 66.8395 78.6222V74.4545H68.3821V78.3835C68.3821 78.7983 68.4957 79.1278 68.723 79.3722C68.9503 79.6165 69.2486 79.7386 69.6179 79.7386C69.8452 79.7386 70.0653 79.6832 70.2784 79.5724C70.4915 79.4616 70.6662 79.2969 70.8026 79.0781C70.9418 78.8565 71.0114 78.5795 71.0114 78.2472ZM76.5692 81.1151C76.055 81.1151 75.5948 80.983 75.1886 80.7188C74.7823 80.4545 74.4613 80.071 74.2255 79.5682C73.9897 79.0653 73.8718 78.4545 73.8718 77.7358C73.8718 77.0085 73.9911 76.3949 74.2298 75.8949C74.4712 75.392 74.7965 75.0128 75.2056 74.7571C75.6147 74.4986 76.0707 74.3693 76.5735 74.3693C76.957 74.3693 77.2724 74.4347 77.5195 74.5653C77.7667 74.6932 77.9627 74.848 78.1076 75.0298C78.2525 75.2088 78.3647 75.3778 78.4442 75.5369H78.5082V72.2727H80.055V81H78.538V79.9688H78.4442C78.3647 80.1278 78.2496 80.2969 78.0991 80.4759C77.9485 80.652 77.7496 80.8026 77.5025 80.9276C77.2553 81.0526 76.9442 81.1151 76.5692 81.1151ZM76.9996 79.8494C77.3263 79.8494 77.6048 79.7614 77.8349 79.5852C78.065 79.4062 78.2397 79.1577 78.359 78.8395C78.4783 78.5213 78.538 78.1506 78.538 77.7273C78.538 77.304 78.4783 76.9361 78.359 76.6236C78.2425 76.3111 78.0692 76.0682 77.8391 75.8949C77.6119 75.7216 77.332 75.6349 76.9996 75.6349C76.6559 75.6349 76.369 75.7244 76.1388 75.9034C75.9087 76.0824 75.7354 76.3295 75.619 76.6449C75.5025 76.9602 75.4442 77.321 75.4442 77.7273C75.4442 78.1364 75.5025 78.5014 75.619 78.8224C75.7383 79.1406 75.913 79.392 76.1431 79.5767C76.3761 79.7585 76.6616 79.8494 76.9996 79.8494ZM81.6989 81V74.4545H83.2415V81H81.6989ZM82.4744 73.5256C82.2301 73.5256 82.0199 73.4446 81.8438 73.2827C81.6676 73.1179 81.5795 72.9205 81.5795 72.6903C81.5795 72.4574 81.6676 72.2599 81.8438 72.098C82.0199 71.9332 82.2301 71.8509 82.4744 71.8509C82.7216 71.8509 82.9318 71.9332 83.1051 72.098C83.2813 72.2599 83.3693 72.4574 83.3693 72.6903C83.3693 72.9205 83.2813 73.1179 83.1051 73.2827C82.9318 73.4446 82.7216 73.5256 82.4744 73.5256ZM87.6829 81.1278C87.0437 81.1278 86.4897 80.9872 86.021 80.706C85.5522 80.4247 85.1886 80.0312 84.93 79.5256C84.6744 79.0199 84.5465 78.429 84.5465 77.7528C84.5465 77.0767 84.6744 76.4844 84.93 75.9759C85.1886 75.4673 85.5522 75.0724 86.021 74.7912C86.4897 74.5099 87.0437 74.3693 87.6829 74.3693C88.3221 74.3693 88.8761 74.5099 89.3448 74.7912C89.8136 75.0724 90.1758 75.4673 90.4315 75.9759C90.69 76.4844 90.8192 77.0767 90.8192 77.7528C90.8192 78.429 90.69 79.0199 90.4315 79.5256C90.1758 80.0312 89.8136 80.4247 89.3448 80.706C88.8761 80.9872 88.3221 81.1278 87.6829 81.1278ZM87.6914 79.892C88.038 79.892 88.3278 79.7969 88.5607 79.6065C88.7937 79.4134 88.967 79.1548 89.0806 78.831C89.1971 78.5071 89.2553 78.1463 89.2553 77.7486C89.2553 77.348 89.1971 76.9858 89.0806 76.6619C88.967 76.3352 88.7937 76.0753 88.5607 75.8821C88.3278 75.6889 88.038 75.5923 87.6914 75.5923C87.3363 75.5923 87.0408 75.6889 86.805 75.8821C86.5721 76.0753 86.3974 76.3352 86.2809 76.6619C86.1673 76.9858 86.1104 77.348 86.1104 77.7486C86.1104 78.1463 86.1673 78.5071 86.2809 78.831C86.3974 79.1548 86.5721 79.4134 86.805 79.6065C87.0408 79.7969 87.3363 79.892 87.6914 79.892Z" fill="white"/>
</g>
<defs>
<filter id="filter0_d_5834_9717" x="0" y="0" width="107" height="109" filterUnits="userSpaceOnUse" color-interpolation-filters="sRGB">
<feFlood flood-opacity="0" result="BackgroundImageFix"/>
<feColorMatrix in="SourceAlpha" type="matrix" values="0 0 0 0 0 0 0 0 0 0 0 0 0 0 0 0 0 0 127 0" result="hardAlpha"/>
<feOffset dy="2"/>
<feGaussianBlur stdDeviation="4"/>
<feColorMatrix type="matrix" values="0 0 0 0 0 0 0 0 0 0 0 0 0 0 0 0 0 0 0.25 0"/>
<feBlend mode="normal" in2="BackgroundImageFix" result="effect1_dropShadow_5834_9717"/>
<feBlend mode="normal" in="SourceGraphic" in2="effect1_dropShadow_5834_9717" result="shape"/>
</filter>
</defs>
</svg>
