<svg width="107" height="109" viewBox="0 0 107 109" fill="none" xmlns="http://www.w3.org/2000/svg">
<g filter="url(#filter0_d_5828_16591)">
<rect x="8" y="6" width="91" height="93" rx="12" fill="#151B23"/>
<rect x="9" y="7" width="89" height="91" rx="11" stroke="#1F2937" stroke-width="2"/>
<g clip-path="url(#clip0_5828_16591)">
<g clip-path="url(#clip1_5828_16591)">
<path d="M72.4692 26.1095L54.5362 58.1768C54.1659 58.8389 53.2147 58.8428 52.8389 58.1839L34.5503 26.1126C34.1409 25.3946 34.7548 24.525 35.5685 24.6704L53.5206 27.8792C53.6351 27.8997 53.7524 27.8995 53.8669 27.8786L71.4436 24.675C72.2545 24.5272 72.8714 25.3901 72.4692 26.1095Z" fill="url(#paint0_linear_5828_16591)"/>
<path d="M62.0727 20.4625L48.8018 23.0629C48.5837 23.1057 48.4222 23.2905 48.409 23.5123L47.5927 37.2998C47.5735 37.6245 47.8717 37.8766 48.1887 37.8035L51.8835 36.9508C52.2292 36.8711 52.5415 37.1755 52.4705 37.5232L51.3728 42.8985C51.2989 43.2603 51.6386 43.5697 51.9919 43.4624L54.274 42.769C54.6277 42.6616 54.9677 42.9718 54.8928 43.3339L53.1484 51.7774C53.0392 52.3056 53.7417 52.5936 54.0347 52.1408L54.2304 51.8383L65.0443 30.2573C65.2254 29.896 64.9131 29.484 64.5162 29.5605L60.713 30.2946C60.3556 30.3635 60.0515 30.0306 60.1524 29.681L62.6347 21.0758C62.7357 20.7256 62.4305 20.3924 62.0727 20.4625Z" fill="url(#paint1_linear_5828_16591)"/>
</g>
</g>
<path d="M41.8665 71.8182L44.5163 79.8324H44.6207L47.2656 71.8182H49.294L45.7045 82H43.4276L39.843 71.8182H41.8665ZM50.5556 82V74.3636H52.3553V82H50.5556ZM51.4604 73.2798C51.1754 73.2798 50.9301 73.1854 50.7246 72.9964C50.5191 72.8042 50.4164 72.5739 50.4164 72.3054C50.4164 72.0336 50.5191 71.8033 50.7246 71.6143C50.9301 71.4221 51.1754 71.326 51.4604 71.326C51.7488 71.326 51.994 71.4221 52.1962 71.6143C52.4017 71.8033 52.5044 72.0336 52.5044 72.3054C52.5044 72.5739 52.4017 72.8042 52.1962 72.9964C51.994 73.1854 51.7488 73.2798 51.4604 73.2798ZM58.0192 74.3636V75.7557H53.6293V74.3636H58.0192ZM54.7131 72.5341H56.5128V79.7031C56.5128 79.9451 56.5492 80.1307 56.6222 80.2599C56.6984 80.3859 56.7978 80.4721 56.9205 80.5185C57.0431 80.5649 57.179 80.5881 57.3281 80.5881C57.4408 80.5881 57.5436 80.5798 57.6364 80.5632C57.7325 80.5466 57.8054 80.5317 57.8551 80.5185L58.1584 81.9254C58.0623 81.9586 57.9247 81.995 57.7457 82.0348C57.5701 82.0746 57.3546 82.0978 57.0994 82.1044C56.6487 82.1177 56.2427 82.0497 55.8814 81.9006C55.5201 81.7481 55.2334 81.5128 55.0213 81.1946C54.8125 80.8764 54.7098 80.4787 54.7131 80.0014V72.5341ZM62.823 82.1491C62.0574 82.1491 61.3961 81.9901 60.8393 81.6719C60.2858 81.3504 59.8599 80.8963 59.5616 80.3097C59.2633 79.7197 59.1142 79.0253 59.1142 78.2266C59.1142 77.4411 59.2633 76.7517 59.5616 76.1584C59.8632 75.5618 60.2842 75.0978 60.8244 74.7663C61.3646 74.4316 61.9993 74.2642 62.7285 74.2642C63.1992 74.2642 63.6433 74.3404 64.0609 74.4929C64.4818 74.642 64.853 74.8741 65.1745 75.1889C65.4993 75.5038 65.7546 75.9048 65.9402 76.392C66.1258 76.8759 66.2186 77.4527 66.2186 78.1222V78.674H59.9593V77.4609H64.4934C64.4901 77.1162 64.4155 76.8097 64.2697 76.5412C64.1239 76.2694 63.92 76.0556 63.6582 75.8999C63.3997 75.7441 63.0981 75.6662 62.7534 75.6662C62.3855 75.6662 62.0623 75.7557 61.7839 75.9347C61.5055 76.1103 61.2884 76.3423 61.1326 76.6307C60.9802 76.9157 60.9023 77.2289 60.899 77.5703V78.6293C60.899 79.0734 60.9802 79.4545 61.1426 79.7727C61.305 80.0876 61.532 80.3295 61.8237 80.4986C62.1154 80.6643 62.4567 80.7472 62.8478 80.7472C63.1097 80.7472 63.3467 80.7107 63.5588 80.6378C63.7709 80.5616 63.9548 80.4505 64.1106 80.3047C64.2664 80.1589 64.3841 79.9782 64.4636 79.7628L66.144 79.9517C66.0379 80.3958 65.8358 80.7836 65.5375 81.1151C65.2425 81.4432 64.8646 81.6984 64.4039 81.8807C63.9432 82.0597 63.4163 82.1491 62.823 82.1491Z" fill="white"/>
</g>
<defs>
<filter id="filter0_d_5828_16591" x="0" y="0" width="107" height="109" filterUnits="userSpaceOnUse" color-interpolation-filters="sRGB">
<feFlood flood-opacity="0" result="BackgroundImageFix"/>
<feColorMatrix in="SourceAlpha" type="matrix" values="0 0 0 0 0 0 0 0 0 0 0 0 0 0 0 0 0 0 127 0" result="hardAlpha"/>
<feOffset dy="2"/>
<feGaussianBlur stdDeviation="4"/>
<feColorMatrix type="matrix" values="0 0 0 0 0 0 0 0 0 0 0 0 0 0 0 0 0 0 0.25 0"/>
<feBlend mode="normal" in2="BackgroundImageFix" result="effect1_dropShadow_5828_16591"/>
<feBlend mode="normal" in="SourceGraphic" in2="effect1_dropShadow_5828_16591" result="shape"/>
</filter>
<linearGradient id="paint0_linear_5828_16591" x1="34.1038" y1="23.5243" x2="56.4228" y2="53.8353" gradientUnits="userSpaceOnUse">
<stop stop-color="#41D1FF"/>
<stop offset="1" stop-color="#BD34FE"/>
</linearGradient>
<linearGradient id="paint1_linear_5828_16591" x1="52.4908" y1="21.1685" x2="56.5282" y2="48.8646" gradientUnits="userSpaceOnUse">
<stop stop-color="#FFEA83"/>
<stop offset="0.0833333" stop-color="#FFDD35"/>
<stop offset="1" stop-color="#FFA800"/>
</linearGradient>
<clipPath id="clip0_5828_16591">
<rect width="40" height="40" fill="white" transform="translate(33.5 20)"/>
</clipPath>
<clipPath id="clip1_5828_16591">
<rect width="39.9598" height="39.375" fill="white" transform="translate(33.5195 20.3086)"/>
</clipPath>
</defs>
</svg>
