<svg width="107" height="109" viewBox="0 0 107 109" fill="none" xmlns="http://www.w3.org/2000/svg">
<g filter="url(#filter0_d_5834_13461)">
<rect x="8" y="6" width="91" height="93" rx="12" fill="#151B23"/>
<rect x="9" y="7" width="89" height="91" rx="11" stroke="#1F2937" stroke-width="2"/>
<g clip-path="url(#clip0_5834_13461)">
<g clip-path="url(#clip1_5834_13461)">
<path d="M63.4327 32.8442L53.9519 46.5523C53.8513 46.6977 53.706 46.8065 53.5378 46.8624C53.3696 46.9183 53.1879 46.9178 53.02 46.8616C52.8522 46.8052 52.7075 46.6958 52.6079 46.5502C52.5083 46.4043 52.4591 46.2301 52.468 46.0541L52.8474 38.4858L46.7218 37.1867C46.5909 37.159 46.4689 37.0995 46.3667 37.0136C46.2644 36.9277 46.1851 36.818 46.1356 36.6942C46.0862 36.5704 46.0682 36.4363 46.0833 36.3039C46.0984 36.1714 46.146 36.0446 46.2219 35.9348L55.7029 22.2267C55.8035 22.0813 55.9488 21.9724 56.117 21.9166C56.2852 21.8608 56.467 21.8611 56.6348 21.9175C56.8026 21.9739 56.9474 22.0832 57.047 22.229C57.1466 22.3747 57.1957 22.5489 57.1868 22.7251L56.8074 30.2934L62.9329 31.5924C63.0639 31.6202 63.1859 31.6796 63.2882 31.7655C63.3905 31.8515 63.4697 31.9612 63.519 32.085C63.5686 32.2088 63.5865 32.3428 63.5715 32.4753C63.5566 32.6077 63.5088 32.7344 63.4327 32.8442Z" fill="#FCC72B"/>
<path d="M53.5053 58.0527C53.2532 58.053 53.0034 58.0037 52.7705 57.9071C52.5375 57.8106 52.3259 57.6689 52.1478 57.4905L43.1895 48.5328C42.8311 48.1726 42.6302 47.6849 42.6309 47.1767C42.6315 46.6685 42.8337 46.1811 43.1931 45.8219C43.5524 45.4625 44.0396 45.2602 44.5478 45.2594C45.0561 45.2589 45.5438 45.4596 45.9042 45.818L53.5053 53.4183L70.0646 36.8599C70.4256 36.5047 70.9122 36.3066 71.4186 36.3086C71.9252 36.3107 72.4103 36.5128 72.7681 36.8708C73.1262 37.229 73.3285 37.714 73.3306 38.2204C73.3324 38.7269 73.1344 39.2136 72.7791 39.5745L54.8625 57.4905C54.6845 57.6692 54.4729 57.8106 54.24 57.9071C54.0071 58.0037 53.7574 58.053 53.5053 58.0527Z" fill="#729B1B"/>
<path d="M53.497 58.0527C53.7492 58.053 53.9989 58.0037 54.2319 57.9071C54.4649 57.8106 54.6765 57.6689 54.8546 57.4905L63.8129 48.5328C64.1713 48.1726 64.3723 47.6849 64.3715 47.1767C64.3709 46.6685 64.1687 46.1811 63.8092 45.8219C63.4498 45.4625 62.9626 45.2602 62.4545 45.2594C61.9463 45.2589 61.4586 45.4596 61.0981 45.818L53.497 53.4183L36.9378 36.8599C36.5768 36.5047 36.0901 36.3066 35.5837 36.3086C35.0773 36.3107 34.5922 36.5128 34.2341 36.8708C33.8761 37.229 33.674 37.714 33.6719 38.2204C33.6698 38.7269 33.868 39.2136 34.2231 39.5745L52.1398 57.4905C52.3179 57.6692 52.5295 57.8106 52.7623 57.9071C52.9953 58.0037 53.2449 58.053 53.497 58.0527Z" fill="#729B1B" fill-opacity="0.5"/>
</g>
</g>
<path d="M35.3665 71.8182L38.0163 79.8324H38.1207L40.7656 71.8182H42.794L39.2045 82H36.9276L33.343 71.8182H35.3665ZM44.0556 82V74.3636H45.8553V82H44.0556ZM44.9604 73.2798C44.6754 73.2798 44.4301 73.1854 44.2246 72.9964C44.0191 72.8042 43.9164 72.5739 43.9164 72.3054C43.9164 72.0336 44.0191 71.8033 44.2246 71.6143C44.4301 71.4221 44.6754 71.326 44.9604 71.326C45.2488 71.326 45.494 71.4221 45.6962 71.6143C45.9017 71.8033 46.0044 72.0336 46.0044 72.3054C46.0044 72.5739 45.9017 72.8042 45.6962 72.9964C45.494 73.1854 45.2488 73.2798 44.9604 73.2798ZM51.5192 74.3636V75.7557H47.1293V74.3636H51.5192ZM48.2131 72.5341H50.0128V79.7031C50.0128 79.9451 50.0492 80.1307 50.1222 80.2599C50.1984 80.3859 50.2978 80.4721 50.4205 80.5185C50.5431 80.5649 50.679 80.5881 50.8281 80.5881C50.9408 80.5881 51.0436 80.5798 51.1364 80.5632C51.2325 80.5466 51.3054 80.5317 51.3551 80.5185L51.6584 81.9254C51.5623 81.9586 51.4247 81.995 51.2457 82.0348C51.0701 82.0746 50.8546 82.0978 50.5994 82.1044C50.1487 82.1177 49.7427 82.0497 49.3814 81.9006C49.0201 81.7481 48.7334 81.5128 48.5213 81.1946C48.3125 80.8764 48.2098 80.4787 48.2131 80.0014V72.5341ZM56.323 82.1491C55.5574 82.1491 54.8961 81.9901 54.3393 81.6719C53.7858 81.3504 53.3599 80.8963 53.0616 80.3097C52.7633 79.7197 52.6142 79.0253 52.6142 78.2266C52.6142 77.4411 52.7633 76.7517 53.0616 76.1584C53.3632 75.5618 53.7842 75.0978 54.3244 74.7663C54.8646 74.4316 55.4993 74.2642 56.2285 74.2642C56.6992 74.2642 57.1433 74.3404 57.5609 74.4929C57.9818 74.642 58.353 74.8741 58.6745 75.1889C58.9993 75.5038 59.2546 75.9048 59.4402 76.392C59.6258 76.8759 59.7186 77.4527 59.7186 78.1222V78.674H53.4593V77.4609H57.9934C57.9901 77.1162 57.9155 76.8097 57.7697 76.5412C57.6239 76.2694 57.42 76.0556 57.1582 75.8999C56.8997 75.7441 56.5981 75.6662 56.2534 75.6662C55.8855 75.6662 55.5623 75.7557 55.2839 75.9347C55.0055 76.1103 54.7884 76.3423 54.6326 76.6307C54.4802 76.9157 54.4023 77.2289 54.399 77.5703V78.6293C54.399 79.0734 54.4802 79.4545 54.6426 79.7727C54.805 80.0876 55.032 80.3295 55.3237 80.4986C55.6154 80.6643 55.9567 80.7472 56.3478 80.7472C56.6097 80.7472 56.8467 80.7107 57.0588 80.6378C57.2709 80.5616 57.4548 80.4505 57.6106 80.3047C57.7664 80.1589 57.8841 79.9782 57.9636 79.7628L59.644 79.9517C59.5379 80.3958 59.3358 80.7836 59.0375 81.1151C58.7425 81.4432 58.3646 81.6984 57.9039 81.8807C57.4432 82.0597 56.9163 82.1491 56.323 82.1491ZM67.2766 76.3821L65.636 76.5611C65.5896 76.3954 65.5084 76.2396 65.3924 76.0938C65.2797 75.9479 65.1272 75.8303 64.935 75.7408C64.7428 75.6513 64.5075 75.6065 64.229 75.6065C63.8545 75.6065 63.5397 75.6877 63.2844 75.8501C63.0326 76.0125 62.9083 76.223 62.9116 76.4815C62.9083 76.7036 62.9895 76.8842 63.1552 77.0234C63.3242 77.1626 63.6026 77.277 63.9904 77.3665L65.293 77.6449C66.0155 77.8007 66.5524 78.0476 66.9038 78.3857C67.2584 78.7237 67.4374 79.1662 67.4407 79.7131C67.4374 80.1937 67.2965 80.6179 67.0181 80.9858C66.743 81.3504 66.3602 81.6354 65.8697 81.8409C65.3791 82.0464 64.8157 82.1491 64.1793 82.1491C63.2447 82.1491 62.4923 81.9536 61.9222 81.5625C61.3522 81.1681 61.0124 80.6196 60.9031 79.9169L62.658 79.7479C62.7376 80.0926 62.9066 80.3527 63.1651 80.5284C63.4237 80.7041 63.7601 80.7919 64.1744 80.7919C64.6019 80.7919 64.945 80.7041 65.2035 80.5284C65.4653 80.3527 65.5962 80.1357 65.5962 79.8771C65.5962 79.6584 65.5117 79.4777 65.3427 79.3352C65.177 79.1927 64.9184 79.0833 64.5671 79.0071L63.2646 78.7337C62.5321 78.5812 61.9902 78.3243 61.6388 77.9631C61.2875 77.5985 61.1135 77.1378 61.1168 76.581C61.1135 76.1103 61.2411 75.7027 61.4996 75.358C61.7615 75.0099 62.1244 74.7415 62.5884 74.5526C63.0558 74.3603 63.5943 74.2642 64.2042 74.2642C65.0991 74.2642 65.8034 74.4548 66.3171 74.8359C66.8342 75.2171 67.154 75.7325 67.2766 76.3821ZM72.7379 74.3636V75.7557H68.348V74.3636H72.7379ZM69.4318 72.5341H71.2315V79.7031C71.2315 79.9451 71.268 80.1307 71.3409 80.2599C71.4171 80.3859 71.5166 80.4721 71.6392 80.5185C71.7618 80.5649 71.8977 80.5881 72.0469 80.5881C72.1596 80.5881 72.2623 80.5798 72.3551 80.5632C72.4512 80.5466 72.5241 80.5317 72.5739 80.5185L72.8771 81.9254C72.781 81.9586 72.6435 81.995 72.4645 82.0348C72.2888 82.0746 72.0734 82.0978 71.8182 82.1044C71.3674 82.1177 70.9614 82.0497 70.6001 81.9006C70.2389 81.7481 69.9522 81.5128 69.7401 81.1946C69.5313 80.8764 69.4285 80.4787 69.4318 80.0014V72.5341Z" fill="white"/>
</g>
<defs>
<filter id="filter0_d_5834_13461" x="0" y="0" width="107" height="109" filterUnits="userSpaceOnUse" color-interpolation-filters="sRGB">
<feFlood flood-opacity="0" result="BackgroundImageFix"/>
<feColorMatrix in="SourceAlpha" type="matrix" values="0 0 0 0 0 0 0 0 0 0 0 0 0 0 0 0 0 0 127 0" result="hardAlpha"/>
<feOffset dy="2"/>
<feGaussianBlur stdDeviation="4"/>
<feColorMatrix type="matrix" values="0 0 0 0 0 0 0 0 0 0 0 0 0 0 0 0 0 0 0.25 0"/>
<feBlend mode="normal" in2="BackgroundImageFix" result="effect1_dropShadow_5834_13461"/>
<feBlend mode="normal" in="SourceGraphic" in2="effect1_dropShadow_5834_13461" result="shape"/>
</filter>
<clipPath id="clip0_5834_13461">
<rect width="40" height="40" fill="white" transform="translate(33.5 20)"/>
</clipPath>
<clipPath id="clip1_5834_13461">
<rect width="39.6581" height="36.25" fill="white" transform="translate(33.6719 21.875)"/>
</clipPath>
</defs>
</svg>
