<svg width="107" height="109" viewBox="0 0 107 109" fill="none" xmlns="http://www.w3.org/2000/svg">
<g filter="url(#filter0_d_5829_16667)">
<rect x="8" y="6" width="91" height="93" rx="12" fill="#151B23"/>
<rect x="9" y="7" width="89" height="91" rx="11" stroke="#1F2937" stroke-width="2"/>
<g clip-path="url(#clip0_5829_16667)">
<mask id="mask0_5829_16667" style="mask-type:alpha" maskUnits="userSpaceOnUse" x="33" y="20" width="41" height="40">
<path fill-rule="evenodd" clip-rule="evenodd" d="M61.8648 59.7272C62.4948 59.9726 63.2131 59.9569 63.849 59.6509L72.0843 55.6882C72.9497 55.2718 73.5 54.396 73.5 53.4352V26.5657C73.5 25.6049 72.9497 24.7291 72.0844 24.3127L63.849 20.3499C63.0145 19.9483 62.0378 20.0467 61.3054 20.5791C61.2008 20.6552 61.1011 20.7401 61.0076 20.8337L45.242 35.217L38.3749 30.0042C37.7356 29.519 36.8415 29.5587 36.2477 30.0988L34.0452 32.1023C33.319 32.7629 33.3181 33.9054 34.0434 34.5672L39.9988 40.0004L34.0434 45.4336C33.3181 46.0953 33.319 47.2379 34.0452 47.8985L36.2477 49.902C36.8415 50.4421 37.7356 50.4818 38.3749 49.9966L45.242 44.7838L61.0076 59.167C61.257 59.4166 61.5498 59.6045 61.8648 59.7272ZM63.5061 30.9199L51.5436 40.0004L63.5061 49.0808V30.9199Z" fill="white"/>
</mask>
<g mask="url(#mask0_5829_16667)">
<path d="M72.0854 24.3185L63.8436 20.3503C62.8896 19.8909 61.7496 20.0847 61.0009 20.8334L34.0203 45.4333C33.2946 46.095 33.2954 47.2375 34.0221 47.8981L36.226 49.9016C36.82 50.4417 37.7148 50.4815 38.3544 49.9962L70.8452 25.348C71.9353 24.5211 73.5009 25.2985 73.5009 26.6667V26.571C73.5009 25.6106 72.9507 24.7352 72.0854 24.3185Z" fill="#0065A9"/>
<g filter="url(#filter1_d_5829_16667)">
<path d="M72.0854 55.6826L63.8436 59.6509C62.8896 60.1103 61.7496 59.9164 61.0009 59.1677L34.0203 34.5678C33.2946 33.9061 33.2954 32.7636 34.0221 32.103L36.226 30.0995C36.82 29.5594 37.7148 29.5196 38.3544 30.0049L70.8452 54.6531C71.9353 55.48 73.5009 54.7026 73.5009 53.3344V53.4301C73.5009 54.3905 72.9507 55.2659 72.0854 55.6826Z" fill="#007ACC"/>
</g>
<g filter="url(#filter2_d_5829_16667)">
<path d="M63.8431 59.6509C62.8888 60.11 61.7488 59.9158 61 59.1671C61.9226 60.0896 63.5 59.4362 63.5 58.1315V21.8693C63.5 20.5646 61.9226 19.9112 61 20.8337C61.7488 20.085 62.8888 19.8909 63.8431 20.3499L72.0835 24.3127C72.9494 24.7291 73.5 25.6049 73.5 26.5657V53.4353C73.5 54.3961 72.9494 55.2719 72.0834 55.6883L63.8431 59.6509Z" fill="#1F9CF0"/>
</g>
<g style="mix-blend-mode:overlay" opacity="0.25">
<path fill-rule="evenodd" clip-rule="evenodd" d="M61.8413 59.7272C62.4713 59.9726 63.1897 59.9569 63.8256 59.651L72.0609 55.6883C72.9262 55.2719 73.4766 54.3961 73.4766 53.4352V26.5657C73.4766 25.6049 72.9263 24.7291 72.0609 24.3127L63.8256 20.3499C62.9911 19.9483 62.0144 20.0467 61.282 20.5791C61.1774 20.6552 61.0777 20.7401 60.9842 20.8337L45.2186 35.217L38.3514 30.0042C37.7122 29.519 36.818 29.5588 36.2243 30.0988L34.0218 32.1023C33.2955 32.763 33.2947 33.9055 34.02 34.5672L39.9754 40.0004L34.02 45.4337C33.2947 46.0954 33.2955 47.2379 34.0218 47.8985L36.2243 49.902C36.818 50.4421 37.7122 50.4818 38.3514 49.9966L45.2186 44.7838L60.9842 59.1671C61.2336 59.4166 61.5264 59.6046 61.8413 59.7272ZM63.4826 30.92L51.5202 40.0004L63.4826 49.0809V30.92Z" fill="url(#paint0_linear_5829_16667)"/>
</g>
</g>
</g>
<path d="M30.3665 71.8182L33.0163 79.8324H33.1207L35.7656 71.8182H37.794L34.2045 82H31.9276L28.343 71.8182H30.3665ZM44.4485 76.3821L42.8079 76.5611C42.7615 76.3954 42.6803 76.2396 42.5643 76.0938C42.4516 75.9479 42.2991 75.8303 42.1069 75.7408C41.9147 75.6513 41.6793 75.6065 41.4009 75.6065C41.0264 75.6065 40.7115 75.6877 40.4563 75.8501C40.2044 76.0125 40.0801 76.223 40.0835 76.4815C40.0801 76.7036 40.1613 76.8842 40.3271 77.0234C40.4961 77.1626 40.7745 77.277 41.1623 77.3665L42.4648 77.6449C43.1874 77.8007 43.7243 78.0476 44.0756 78.3857C44.4303 78.7237 44.6093 79.1662 44.6126 79.7131C44.6093 80.1937 44.4684 80.6179 44.19 80.9858C43.9149 81.3504 43.5321 81.6354 43.0415 81.8409C42.551 82.0464 41.9876 82.1491 41.3512 82.1491C40.4165 82.1491 39.6642 81.9536 39.0941 81.5625C38.524 81.1681 38.1843 80.6196 38.0749 79.9169L39.8299 79.7479C39.9094 80.0926 40.0785 80.3527 40.337 80.5284C40.5955 80.7041 40.9319 80.7919 41.3462 80.7919C41.7738 80.7919 42.1168 80.7041 42.3754 80.5284C42.6372 80.3527 42.7681 80.1357 42.7681 79.8771C42.7681 79.6584 42.6836 79.4777 42.5146 79.3352C42.3488 79.1927 42.0903 79.0833 41.739 79.0071L40.4364 78.7337C39.704 78.5812 39.1621 78.3243 38.8107 77.9631C38.4594 77.5985 38.2854 77.1378 38.2887 76.581C38.2854 76.1103 38.413 75.7027 38.6715 75.358C38.9334 75.0099 39.2963 74.7415 39.7603 74.5526C40.2276 74.3603 40.7662 74.2642 41.3761 74.2642C42.271 74.2642 42.9753 74.4548 43.489 74.8359C44.006 75.2171 44.3259 75.7325 44.4485 76.3821ZM49.4276 82.1491C48.6652 82.1491 48.0107 81.9818 47.4638 81.647C46.9202 81.3123 46.5009 80.8499 46.206 80.2599C45.9143 79.6667 45.7685 78.9839 45.7685 78.2116C45.7685 77.4361 45.9176 76.7517 46.2159 76.1584C46.5142 75.5618 46.9351 75.0978 47.4787 74.7663C48.0256 74.4316 48.6719 74.2642 49.4176 74.2642C50.0374 74.2642 50.5859 74.3786 51.0632 74.6072C51.5438 74.8326 51.9266 75.1525 52.2116 75.5668C52.4967 75.9777 52.6591 76.4583 52.6989 77.0085H50.9787C50.9091 76.6406 50.7434 76.334 50.4815 76.0888C50.223 75.8402 49.8767 75.7159 49.4425 75.7159C49.0746 75.7159 48.7514 75.8153 48.473 76.0142C48.1946 76.2098 47.9775 76.4915 47.8217 76.8594C47.6693 77.2273 47.593 77.6681 47.593 78.1818C47.593 78.7022 47.6693 79.1496 47.8217 79.5241C47.9742 79.8954 48.188 80.1821 48.4631 80.3842C48.7415 80.5831 49.0679 80.6825 49.4425 80.6825C49.7076 80.6825 49.9446 80.6328 50.1534 80.5334C50.3655 80.4306 50.5429 80.2831 50.6854 80.0909C50.8279 79.8987 50.9257 79.665 50.9787 79.3899H52.6989C52.6558 79.9302 52.4967 80.4091 52.2216 80.8267C51.9465 81.241 51.572 81.5658 51.098 81.8011C50.6241 82.0331 50.0672 82.1491 49.4276 82.1491ZM57.5076 82.1491C56.7619 82.1491 56.1156 81.9851 55.5687 81.657C55.0218 81.3288 54.5976 80.8698 54.296 80.2798C53.9977 79.6899 53.8485 79.0005 53.8485 78.2116C53.8485 77.4228 53.9977 76.7318 54.296 76.1385C54.5976 75.5452 55.0218 75.0845 55.5687 74.7564C56.1156 74.4283 56.7619 74.2642 57.5076 74.2642C58.2534 74.2642 58.8997 74.4283 59.4466 74.7564C59.9934 75.0845 60.416 75.5452 60.7143 76.1385C61.0159 76.7318 61.1667 77.4228 61.1667 78.2116C61.1667 79.0005 61.0159 79.6899 60.7143 80.2798C60.416 80.8698 59.9934 81.3288 59.4466 81.657C58.8997 81.9851 58.2534 82.1491 57.5076 82.1491ZM57.5176 80.7074C57.9219 80.7074 58.26 80.5964 58.5318 80.3743C58.8036 80.1489 59.0057 79.8473 59.1383 79.4695C59.2742 79.0916 59.3422 78.6707 59.3422 78.2067C59.3422 77.7393 59.2742 77.3168 59.1383 76.9389C59.0057 76.5578 58.8036 76.2545 58.5318 76.0291C58.26 75.8037 57.9219 75.6911 57.5176 75.6911C57.1033 75.6911 56.7586 75.8037 56.4835 76.0291C56.2117 76.2545 56.0079 76.5578 55.872 76.9389C55.7394 77.3168 55.6731 77.7393 55.6731 78.2067C55.6731 78.6707 55.7394 79.0916 55.872 79.4695C56.0079 79.8473 56.2117 80.1489 56.4835 80.3743C56.7586 80.5964 57.1033 80.7074 57.5176 80.7074ZM65.5281 82.1342C64.9281 82.1342 64.3912 81.9801 63.9173 81.6719C63.4433 81.3636 63.0688 80.9162 62.7937 80.3295C62.5186 79.7429 62.381 79.0303 62.381 78.1918C62.381 77.3433 62.5202 76.6274 62.7987 76.044C63.0804 75.4574 63.4599 75.0149 63.9371 74.7166C64.4144 74.415 64.9464 74.2642 65.533 74.2642C65.9805 74.2642 66.3484 74.3404 66.6367 74.4929C66.9251 74.642 67.1538 74.8227 67.3228 75.0348C67.4918 75.2436 67.6228 75.4408 67.7156 75.6264H67.7901V71.8182H69.5948V82H67.8249V80.7969H67.7156C67.6228 80.9825 67.4885 81.1797 67.3129 81.3885C67.1372 81.594 66.9052 81.7696 66.6168 81.9155C66.3285 82.0613 65.9656 82.1342 65.5281 82.1342ZM66.0302 80.6577C66.4113 80.6577 66.7362 80.5549 67.0046 80.3494C67.2731 80.1406 67.4769 79.8506 67.6161 79.4794C67.7553 79.1082 67.8249 78.6757 67.8249 78.1818C67.8249 77.688 67.7553 77.2588 67.6161 76.8942C67.4802 76.5296 67.2781 76.2462 67.0096 76.044C66.7444 75.8419 66.418 75.7408 66.0302 75.7408C65.6291 75.7408 65.2944 75.8452 65.0259 76.054C64.7575 76.2628 64.5553 76.5511 64.4194 76.919C64.2835 77.2869 64.2156 77.7079 64.2156 78.1818C64.2156 78.6591 64.2835 79.085 64.4194 79.4595C64.5586 79.8307 64.7624 80.1241 65.0309 80.3395C65.3027 80.5516 65.6358 80.6577 66.0302 80.6577ZM74.8933 82.1491C74.1277 82.1491 73.4664 81.9901 72.9096 81.6719C72.3561 81.3504 71.9302 80.8963 71.6319 80.3097C71.3336 79.7197 71.1845 79.0253 71.1845 78.2266C71.1845 77.4411 71.3336 76.7517 71.6319 76.1584C71.9335 75.5618 72.3545 75.0978 72.8947 74.7663C73.435 74.4316 74.0697 74.2642 74.7988 74.2642C75.2695 74.2642 75.7136 74.3404 76.1312 74.4929C76.5521 74.642 76.9234 74.8741 77.2449 75.1889C77.5697 75.5038 77.8249 75.9048 78.0105 76.392C78.1961 76.8759 78.2889 77.4527 78.2889 78.1222V78.674H72.0297V77.4609H76.5637C76.5604 77.1162 76.4859 76.8097 76.34 76.5412C76.1942 76.2694 75.9904 76.0556 75.7285 75.8999C75.47 75.7441 75.1684 75.6662 74.8237 75.6662C74.4558 75.6662 74.1326 75.7557 73.8542 75.9347C73.5758 76.1103 73.3587 76.3423 73.2029 76.6307C73.0505 76.9157 72.9726 77.2289 72.9693 77.5703V78.6293C72.9693 79.0734 73.0505 79.4545 73.2129 79.7727C73.3753 80.0876 73.6023 80.3295 73.894 80.4986C74.1857 80.6643 74.527 80.7472 74.9181 80.7472C75.18 80.7472 75.417 80.7107 75.6291 80.6378C75.8412 80.5616 76.0252 80.4505 76.1809 80.3047C76.3367 80.1589 76.4544 79.9782 76.5339 79.7628L78.2143 79.9517C78.1083 80.3958 77.9061 80.7836 77.6078 81.1151C77.3128 81.4432 76.935 81.6984 76.4743 81.8807C76.0136 82.0597 75.4866 82.1491 74.8933 82.1491Z" fill="white"/>
</g>
<defs>
<filter id="filter0_d_5829_16667" x="0" y="0" width="107" height="109" filterUnits="userSpaceOnUse" color-interpolation-filters="sRGB">
<feFlood flood-opacity="0" result="BackgroundImageFix"/>
<feColorMatrix in="SourceAlpha" type="matrix" values="0 0 0 0 0 0 0 0 0 0 0 0 0 0 0 0 0 0 127 0" result="hardAlpha"/>
<feOffset dy="2"/>
<feGaussianBlur stdDeviation="4"/>
<feColorMatrix type="matrix" values="0 0 0 0 0 0 0 0 0 0 0 0 0 0 0 0 0 0 0.25 0"/>
<feBlend mode="normal" in2="BackgroundImageFix" result="effect1_dropShadow_5829_16667"/>
<feBlend mode="normal" in="SourceGraphic" in2="effect1_dropShadow_5829_16667" result="shape"/>
</filter>
<filter id="filter1_d_5829_16667" x="25.1432" y="21.3327" width="56.6901" height="46.8991" filterUnits="userSpaceOnUse" color-interpolation-filters="sRGB">
<feFlood flood-opacity="0" result="BackgroundImageFix"/>
<feColorMatrix in="SourceAlpha" type="matrix" values="0 0 0 0 0 0 0 0 0 0 0 0 0 0 0 0 0 0 127 0" result="hardAlpha"/>
<feOffset/>
<feGaussianBlur stdDeviation="4.16667"/>
<feColorMatrix type="matrix" values="0 0 0 0 0 0 0 0 0 0 0 0 0 0 0 0 0 0 0.25 0"/>
<feBlend mode="overlay" in2="BackgroundImageFix" result="effect1_dropShadow_5829_16667"/>
<feBlend mode="normal" in="SourceGraphic" in2="effect1_dropShadow_5829_16667" result="shape"/>
</filter>
<filter id="filter2_d_5829_16667" x="52.6667" y="11.7702" width="29.1667" height="56.4596" filterUnits="userSpaceOnUse" color-interpolation-filters="sRGB">
<feFlood flood-opacity="0" result="BackgroundImageFix"/>
<feColorMatrix in="SourceAlpha" type="matrix" values="0 0 0 0 0 0 0 0 0 0 0 0 0 0 0 0 0 0 127 0" result="hardAlpha"/>
<feOffset/>
<feGaussianBlur stdDeviation="4.16667"/>
<feColorMatrix type="matrix" values="0 0 0 0 0 0 0 0 0 0 0 0 0 0 0 0 0 0 0.25 0"/>
<feBlend mode="overlay" in2="BackgroundImageFix" result="effect1_dropShadow_5829_16667"/>
<feBlend mode="normal" in="SourceGraphic" in2="effect1_dropShadow_5829_16667" result="shape"/>
</filter>
<linearGradient id="paint0_linear_5829_16667" x1="53.4766" y1="20.1035" x2="53.4766" y2="59.8973" gradientUnits="userSpaceOnUse">
<stop stop-color="white"/>
<stop offset="1" stop-color="white" stop-opacity="0"/>
</linearGradient>
<clipPath id="clip0_5829_16667">
<rect width="40" height="40" fill="white" transform="translate(33.5 20)"/>
</clipPath>
</defs>
</svg>
