<svg width="107" height="109" viewBox="0 0 107 109" fill="none" xmlns="http://www.w3.org/2000/svg">
<g filter="url(#filter0_d_5829_13154)">
<rect x="8" y="6" width="91" height="93" rx="12" fill="#151B23"/>
<rect x="9" y="7" width="89" height="91" rx="11" stroke="#1F2937" stroke-width="2"/>
<path d="M54 22.5547L38.875 31.2909V48.7647L54 57.501L69.1325 48.7647V31.2909L54 22.5547Z" fill="url(#paint0_radial_5829_13154)"/>
<path d="M54 31.416L46.5 35.7498V44.4148L54 48.7498L61.5 44.4173V35.7498L54 31.416Z" fill="#6F95DB"/>
<path d="M53.9997 22.5L38.8359 31.2963L53.9985 39.5525L69.1635 31.35L53.9997 22.5ZM53.9997 40.685L38.8359 48.7263L53.9985 57.4675L69.1097 48.6713L53.9997 40.685Z" fill="white" fill-opacity="0.1"/>
<path d="M24.647 82L21.7734 71.8182H23.7571L25.5916 79.3004H25.6861L27.6449 71.8182H29.4496L31.4134 79.3054H31.5028L33.3374 71.8182H35.321L32.4474 82H30.6278L28.5895 74.8558H28.5099L26.4666 82H24.647ZM39.1218 82.1491C38.3562 82.1491 37.695 81.9901 37.1381 81.6719C36.5846 81.3504 36.1587 80.8963 35.8604 80.3097C35.5621 79.7197 35.413 79.0253 35.413 78.2266C35.413 77.4411 35.5621 76.7517 35.8604 76.1584C36.1621 75.5618 36.583 75.0978 37.1232 74.7663C37.6635 74.4316 38.2982 74.2642 39.0273 74.2642C39.498 74.2642 39.9421 74.3404 40.3597 74.4929C40.7807 74.642 41.1519 74.8741 41.4734 75.1889C41.7982 75.5038 42.0534 75.9048 42.239 76.392C42.4246 76.8759 42.5174 77.4527 42.5174 78.1222V78.674H36.2582V77.4609H40.7923C40.7889 77.1162 40.7144 76.8097 40.5685 76.5412C40.4227 76.2694 40.2189 76.0556 39.957 75.8999C39.6985 75.7441 39.3969 75.6662 39.0522 75.6662C38.6843 75.6662 38.3612 75.7557 38.0827 75.9347C37.8043 76.1103 37.5872 76.3423 37.4315 76.6307C37.279 76.9157 37.2011 77.2289 37.1978 77.5703V78.6293C37.1978 79.0734 37.279 79.4545 37.4414 79.7727C37.6038 80.0876 37.8308 80.3295 38.1225 80.4986C38.4142 80.6643 38.7556 80.7472 39.1467 80.7472C39.4085 80.7472 39.6455 80.7107 39.8576 80.6378C40.0697 80.5616 40.2537 80.4505 40.4094 80.3047C40.5652 80.1589 40.6829 79.9782 40.7624 79.7628L42.4428 79.9517C42.3368 80.3958 42.1346 80.7836 41.8363 81.1151C41.5413 81.4432 41.1635 81.6984 40.7028 81.8807C40.2421 82.0597 39.7151 82.1491 39.1218 82.1491ZM44.1195 82V71.8182H45.9192V75.6264H45.9938C46.0866 75.4408 46.2175 75.2436 46.3865 75.0348C46.5556 74.8227 46.7843 74.642 47.0726 74.4929C47.361 74.3404 47.7289 74.2642 48.1763 74.2642C48.7663 74.2642 49.2982 74.415 49.7722 74.7166C50.2495 75.0149 50.6273 75.4574 50.9057 76.044C51.1874 76.6274 51.3283 77.3433 51.3283 78.1918C51.3283 79.0303 51.1908 79.7429 50.9157 80.3295C50.6406 80.9162 50.266 81.3636 49.7921 81.6719C49.3181 81.9801 48.7812 82.1342 48.1813 82.1342C47.7438 82.1342 47.3809 82.0613 47.0925 81.9155C46.8042 81.7696 46.5721 81.594 46.3965 81.3885C46.2241 81.1797 46.0899 80.9825 45.9938 80.7969H45.8894V82H44.1195ZM45.8844 78.1818C45.8844 78.6757 45.954 79.1082 46.0932 79.4794C46.2357 79.8506 46.4396 80.1406 46.7047 80.3494C46.9732 80.5549 47.298 80.6577 47.6792 80.6577C48.0769 80.6577 48.41 80.5516 48.6784 80.3395C48.9469 80.1241 49.1491 79.8307 49.285 79.4595C49.4242 79.085 49.4938 78.6591 49.4938 78.1818C49.4938 77.7079 49.4258 77.2869 49.29 76.919C49.1541 76.5511 48.9519 76.2628 48.6834 76.054C48.415 75.8452 48.0802 75.7408 47.6792 75.7408C47.2947 75.7408 46.9682 75.8419 46.6998 76.044C46.4313 76.2462 46.2275 76.5296 46.0882 76.8942C45.9524 77.2588 45.8844 77.688 45.8844 78.1818ZM52.8583 84.8636V74.3636H54.6282V75.6264H54.7326C54.8254 75.4408 54.9563 75.2436 55.1254 75.0348C55.2944 74.8227 55.5231 74.642 55.8114 74.4929C56.0998 74.3404 56.4677 74.2642 56.9151 74.2642C57.5051 74.2642 58.0371 74.415 58.511 74.7166C58.9883 75.0149 59.3661 75.4574 59.6445 76.044C59.9263 76.6274 60.0671 77.3433 60.0671 78.1918C60.0671 79.0303 59.9296 79.7429 59.6545 80.3295C59.3794 80.9162 59.0049 81.3636 58.5309 81.6719C58.0569 81.9801 57.52 82.1342 56.9201 82.1342C56.4826 82.1342 56.1197 82.0613 55.8313 81.9155C55.543 81.7696 55.311 81.594 55.1353 81.3885C54.9629 81.1797 54.8287 80.9825 54.7326 80.7969H54.658V84.8636H52.8583ZM54.6232 78.1818C54.6232 78.6757 54.6928 79.1082 54.832 79.4794C54.9746 79.8506 55.1784 80.1406 55.4435 80.3494C55.712 80.5549 56.0368 80.6577 56.418 80.6577C56.8157 80.6577 57.1488 80.5516 57.4173 80.3395C57.6857 80.1241 57.8879 79.8307 58.0238 79.4595C58.163 79.085 58.2326 78.6591 58.2326 78.1818C58.2326 77.7079 58.1647 77.2869 58.0288 76.919C57.8929 76.5511 57.6907 76.2628 57.4222 76.054C57.1538 75.8452 56.819 75.7408 56.418 75.7408C56.0335 75.7408 55.707 75.8419 55.4386 76.044C55.1701 76.2462 54.9663 76.5296 54.8271 76.8942C54.6912 77.2588 54.6232 77.688 54.6232 78.1818ZM63.8058 82.1541C63.3219 82.1541 62.886 82.0679 62.4982 81.8956C62.1138 81.7199 61.8088 81.4614 61.5835 81.12C61.3614 80.7786 61.2504 80.3577 61.2504 79.8572C61.2504 79.4264 61.3299 79.0701 61.489 78.7884C61.6481 78.5066 61.8652 78.2812 62.1403 78.1122C62.4154 77.9432 62.7253 77.8156 63.07 77.7294C63.418 77.6399 63.7776 77.5753 64.1488 77.5355C64.5962 77.4891 64.9592 77.4477 65.2376 77.4112C65.516 77.3714 65.7182 77.3118 65.8441 77.2322C65.9734 77.1494 66.038 77.0218 66.038 76.8494V76.8196C66.038 76.4451 65.927 76.1551 65.7049 75.9496C65.4828 75.7441 65.163 75.6413 64.7454 75.6413C64.3046 75.6413 63.9549 75.7375 63.6964 75.9297C63.4412 76.1219 63.2688 76.349 63.1793 76.6108L61.4989 76.3722C61.6315 75.9081 61.8503 75.5204 62.1552 75.2088C62.4601 74.8939 62.833 74.6586 63.2738 74.5028C63.7146 74.3438 64.2018 74.2642 64.7354 74.2642C65.1033 74.2642 65.4696 74.3073 65.8342 74.3935C66.1987 74.4796 66.5318 74.6222 66.8335 74.821C67.1351 75.0166 67.377 75.2834 67.5593 75.6214C67.7449 75.9595 67.8377 76.3821 67.8377 76.8892V82H66.1076V80.951H66.0479C65.9386 81.1631 65.7844 81.362 65.5856 81.5476C65.39 81.7299 65.1431 81.8774 64.8448 81.9901C64.5498 82.0994 64.2035 82.1541 63.8058 82.1541ZM64.2731 80.8317C64.6344 80.8317 64.9476 80.7604 65.2127 80.6179C65.4779 80.4721 65.6817 80.2798 65.8242 80.0412C65.9701 79.8026 66.043 79.5424 66.043 79.2607V78.3608C65.9866 78.4072 65.8905 78.4503 65.7546 78.4901C65.622 78.5298 65.4729 78.5646 65.3072 78.5945C65.1415 78.6243 64.9774 78.6508 64.815 78.674C64.6526 78.6972 64.5117 78.7171 64.3924 78.7337C64.1239 78.7701 63.8836 78.8298 63.6715 78.9126C63.4594 78.9955 63.292 79.1115 63.1694 79.2607C63.0468 79.4065 62.9854 79.5954 62.9854 79.8274C62.9854 80.1589 63.1064 80.4091 63.3484 80.5781C63.5903 80.7472 63.8986 80.8317 64.2731 80.8317ZM72.9783 82.1491C72.216 82.1491 71.5614 81.9818 71.0146 81.647C70.471 81.3123 70.0517 80.8499 69.7567 80.2599C69.4651 79.6667 69.3192 78.9839 69.3192 78.2116C69.3192 77.4361 69.4684 76.7517 69.7667 76.1584C70.065 75.5618 70.4859 75.0978 71.0295 74.7663C71.5763 74.4316 72.2227 74.2642 72.9684 74.2642C73.5882 74.2642 74.1367 74.3786 74.614 74.6072C75.0946 74.8326 75.4774 75.1525 75.7624 75.5668C76.0475 75.9777 76.2099 76.4583 76.2496 77.0085H74.5295C74.4599 76.6406 74.2942 76.334 74.0323 76.0888C73.7738 75.8402 73.4274 75.7159 72.9933 75.7159C72.6254 75.7159 72.3022 75.8153 72.0238 76.0142C71.7454 76.2098 71.5283 76.4915 71.3725 76.8594C71.2201 77.2273 71.1438 77.6681 71.1438 78.1818C71.1438 78.7022 71.2201 79.1496 71.3725 79.5241C71.525 79.8954 71.7388 80.1821 72.0138 80.3842C72.2923 80.5831 72.6187 80.6825 72.9933 80.6825C73.2584 80.6825 73.4954 80.6328 73.7042 80.5334C73.9163 80.4306 74.0936 80.2831 74.2362 80.0909C74.3787 79.8987 74.4764 79.665 74.5295 79.3899H76.2496C76.2066 79.9302 76.0475 80.4091 75.7724 80.8267C75.4973 81.241 75.1228 81.5658 74.6488 81.8011C74.1748 82.0331 73.618 82.1491 72.9783 82.1491ZM79.3681 79.6037L79.3631 77.4311H79.6515L82.3958 74.3636H84.4988L81.123 78.1222H80.7502L79.3681 79.6037ZM77.7275 82V71.8182H79.5272V82H77.7275ZM82.5201 82L80.0343 78.5249L81.2473 77.2571L84.6728 82H82.5201Z" fill="white"/>
</g>
<defs>
<filter id="filter0_d_5829_13154" x="0" y="0" width="107" height="109" filterUnits="userSpaceOnUse" color-interpolation-filters="sRGB">
<feFlood flood-opacity="0" result="BackgroundImageFix"/>
<feColorMatrix in="SourceAlpha" type="matrix" values="0 0 0 0 0 0 0 0 0 0 0 0 0 0 0 0 0 0 127 0" result="hardAlpha"/>
<feOffset dy="2"/>
<feGaussianBlur stdDeviation="4"/>
<feColorMatrix type="matrix" values="0 0 0 0 0 0 0 0 0 0 0 0 0 0 0 0 0 0 0.25 0"/>
<feBlend mode="normal" in2="BackgroundImageFix" result="effect1_dropShadow_5829_13154"/>
<feBlend mode="normal" in="SourceGraphic" in2="effect1_dropShadow_5829_13154" result="shape"/>
</filter>
<radialGradient id="paint0_radial_5829_13154" cx="0" cy="0" r="1" gradientUnits="userSpaceOnUse" gradientTransform="translate(53.8813 38.9522) scale(16.1814 18.6846)">
<stop stop-color="#93B4E7"/>
<stop offset="0.593" stop-color="#B9D1F8"/>
<stop offset="1" stop-color="#9CB6E0"/>
</radialGradient>
</defs>
</svg>
