<svg width="107" height="109" viewBox="0 0 107 109" fill="none" xmlns="http://www.w3.org/2000/svg">
<g filter="url(#filter0_d_5834_13331)">
<rect x="8" y="6" width="91" height="93" rx="12" fill="#151B23"/>
<rect x="9" y="7" width="89" height="91" rx="11" stroke="#1F2937" stroke-width="2"/>
<g clip-path="url(#clip0_5834_13331)">
<path d="M42.9961 22.5H63.9961C65.8526 22.5 67.6331 23.2375 68.9458 24.5503C70.2586 25.863 70.9961 27.6435 70.9961 29.5V50.5C70.9961 52.3565 70.2586 54.137 68.9458 55.4497C67.6331 56.7625 65.8526 57.5 63.9961 57.5H42.9961C41.1396 57.5 39.3591 56.7625 38.0463 55.4497C36.7336 54.137 35.9961 52.3565 35.9961 50.5V29.5C35.9961 27.6435 36.7336 25.863 38.0463 24.5503C39.3591 23.2375 41.1396 22.5 42.9961 22.5Z" fill="url(#paint0_linear_5834_13331)"/>
<path d="M44.6133 36.2619C44.6133 35.5918 45.2806 35.1793 46.8973 35.1793L46.3584 38.1435C45.3575 37.4734 44.6133 36.8548 44.6133 36.2619ZM48.9245 43.5822C48.9245 44.2781 48.2317 44.7421 46.6406 44.8194L47.2052 41.6748C48.206 42.345 48.9245 42.9378 48.9245 43.5822ZM46.1017 50.0261L46.5893 47.1135C50.4643 46.7526 51.9783 45.1803 51.9783 43.4533C51.9783 41.6748 49.8227 40.2829 47.8467 39.0715L48.5653 35.2567C49.3865 35.334 50.3616 35.4886 51.5164 35.7206L51.85 33.0657C50.9775 32.9369 50.1563 32.8853 49.3865 32.8338L49.9767 29.9984L47.4362 29.9727L46.9486 32.8595C43.0736 33.1688 41.5596 34.7927 41.5596 36.5197C41.5596 38.2724 43.7152 39.6128 45.6911 40.7727L44.9726 44.7679C44.0488 44.7163 42.9197 44.5617 41.6109 44.3297L41.0977 46.9846C42.2011 47.1135 43.2276 47.1908 44.1514 47.2166L43.5869 50.0003L46.1017 50.0261Z" fill="#4E49EE"/>
<path d="M62.8274 47.9907H65.7015C66.0608 44.9749 66.574 38.8919 66.9076 32.0098H64.1618C64.0848 33.6336 63.8025 43.2995 63.6999 44.0985H63.6229C62.93 41.4952 62.3655 39.3816 61.6726 36.804H60.1072C59.44 39.3816 58.9781 41.3148 58.2852 44.0985H58.1826C58.1056 43.2995 57.6693 33.6336 57.618 32.0098H54.7695C55.1031 38.8919 55.5907 44.9749 55.95 47.9907H58.7728L60.7488 40.3353L62.8274 47.9907Z" fill="#4E49EE"/>
</g>
<path d="M26.0835 82L23.21 71.8182H25.1936L27.0281 79.3004H27.1226L29.0814 71.8182H30.8861L32.8499 79.3054H32.9394L34.7739 71.8182H36.7575L33.884 82H32.0644L30.026 74.8558H29.9465L27.9031 82H26.0835ZM40.5583 82.1491C39.7927 82.1491 39.1315 81.9901 38.5747 81.6719C38.0212 81.3504 37.5953 80.8963 37.297 80.3097C36.9987 79.7197 36.8495 79.0253 36.8495 78.2266C36.8495 77.4411 36.9987 76.7517 37.297 76.1584C37.5986 75.5618 38.0195 75.0978 38.5597 74.7663C39.1 74.4316 39.7347 74.2642 40.4639 74.2642C40.9345 74.2642 41.3786 74.3404 41.7963 74.4929C42.2172 74.642 42.5884 74.8741 42.9099 75.1889C43.2347 75.5038 43.4899 75.9048 43.6755 76.392C43.8611 76.8759 43.9539 77.4527 43.9539 78.1222V78.674H37.6947V77.4609H42.2288C42.2255 77.1162 42.1509 76.8097 42.0051 76.5412C41.8592 76.2694 41.6554 76.0556 41.3936 75.8999C41.135 75.7441 40.8334 75.6662 40.4887 75.6662C40.1208 75.6662 39.7977 75.7557 39.5193 75.9347C39.2409 76.1103 39.0238 76.3423 38.868 76.6307C38.7155 76.9157 38.6376 77.2289 38.6343 77.5703V78.6293C38.6343 79.0734 38.7155 79.4545 38.8779 79.7727C39.0403 80.0876 39.2674 80.3295 39.559 80.4986C39.8507 80.6643 40.1921 80.7472 40.5832 80.7472C40.845 80.7472 41.082 80.7107 41.2941 80.6378C41.5062 80.5616 41.6902 80.4505 41.846 80.3047C42.0017 80.1589 42.1194 79.9782 42.199 79.7628L43.8794 79.9517C43.7733 80.3958 43.5711 80.7836 43.2728 81.1151C42.9778 81.4432 42.6 81.6984 42.1393 81.8807C41.6786 82.0597 41.1516 82.1491 40.5583 82.1491ZM45.377 82V80.8565L49.3145 75.9197V75.8551H45.5063V74.3636H51.517V75.5916L47.7684 80.4439V80.5085H51.6462V82H45.377ZM57.151 74.3636V75.7557H52.7611V74.3636H57.151ZM53.8449 72.5341H55.6446V79.7031C55.6446 79.9451 55.6811 80.1307 55.754 80.2599C55.8302 80.3859 55.9297 80.4721 56.0523 80.5185C56.1749 80.5649 56.3108 80.5881 56.46 80.5881C56.5727 80.5881 56.6754 80.5798 56.7682 80.5632C56.8643 80.5466 56.9372 80.5317 56.9869 80.5185L57.2902 81.9254C57.1941 81.9586 57.0566 81.995 56.8776 82.0348C56.7019 82.0746 56.4865 82.0978 56.2313 82.1044C55.7805 82.1177 55.3745 82.0497 55.0132 81.9006C54.652 81.7481 54.3653 81.5128 54.1531 81.1946C53.9443 80.8764 53.8416 80.4787 53.8449 80.0014V72.5341ZM61.9548 82.1491C61.1892 82.1491 60.528 81.9901 59.9711 81.6719C59.4176 81.3504 58.9917 80.8963 58.6934 80.3097C58.3952 79.7197 58.246 79.0253 58.246 78.2266C58.246 77.4411 58.3952 76.7517 58.6934 76.1584C58.9951 75.5618 59.416 75.0978 59.9562 74.7663C60.4965 74.4316 61.1312 74.2642 61.8604 74.2642C62.331 74.2642 62.7751 74.3404 63.1927 74.4929C63.6137 74.642 63.9849 74.8741 64.3064 75.1889C64.6312 75.5038 64.8864 75.9048 65.072 76.392C65.2576 76.8759 65.3504 77.4527 65.3504 78.1222V78.674H59.0912V77.4609H63.6253C63.622 77.1162 63.5474 76.8097 63.4015 76.5412C63.2557 76.2694 63.0519 76.0556 62.79 75.8999C62.5315 75.7441 62.2299 75.6662 61.8852 75.6662C61.5173 75.6662 61.1942 75.7557 60.9157 75.9347C60.6373 76.1103 60.4202 76.3423 60.2645 76.6307C60.112 76.9157 60.0341 77.2289 60.0308 77.5703V78.6293C60.0308 79.0734 60.112 79.4545 60.2744 79.7727C60.4368 80.0876 60.6639 80.3295 60.9555 80.4986C61.2472 80.6643 61.5886 80.7472 61.9797 80.7472C62.2415 80.7472 62.4785 80.7107 62.6906 80.6378C62.9027 80.5616 63.0867 80.4505 63.2425 80.3047C63.3982 80.1589 63.5159 79.9782 63.5954 79.7628L65.2758 79.9517C65.1698 80.3958 64.9676 80.7836 64.6693 81.1151C64.3743 81.4432 63.9965 81.6984 63.5358 81.8807C63.0751 82.0597 62.5481 82.1491 61.9548 82.1491ZM66.873 82V74.3636H68.618V75.6364H68.6975C68.8367 75.1955 69.0754 74.8558 69.4134 74.6172C69.7548 74.3752 70.1443 74.2543 70.5818 74.2543C70.6812 74.2543 70.7922 74.2592 70.9149 74.2692C71.0408 74.2758 71.1452 74.2874 71.2281 74.304V75.9595C71.1518 75.933 71.0309 75.9098 70.8651 75.8899C70.7027 75.8667 70.5453 75.8551 70.3928 75.8551C70.0647 75.8551 69.7697 75.9264 69.5079 76.0689C69.2494 76.2081 69.0455 76.402 68.8964 76.6506C68.7472 76.8991 68.6727 77.1858 68.6727 77.5107V82H66.873ZM72.4237 82V74.3636H74.1439V75.6612H74.2334C74.3925 75.2237 74.656 74.8823 75.0239 74.6371C75.3918 74.3885 75.8309 74.2642 76.3414 74.2642C76.8584 74.2642 77.2942 74.3902 77.6489 74.642C78.0068 74.8906 78.2587 75.2304 78.4046 75.6612H78.4841C78.6531 75.237 78.9382 74.8989 79.3392 74.647C79.7436 74.3918 80.2225 74.2642 80.776 74.2642C81.4787 74.2642 82.0521 74.4863 82.4962 74.9304C82.9403 75.3745 83.1624 76.0225 83.1624 76.8743V82H81.3577V77.1527C81.3577 76.6787 81.2317 76.3324 80.9798 76.1136C80.728 75.8916 80.4197 75.7805 80.0551 75.7805C79.6209 75.7805 79.2812 75.9164 79.036 76.1882C78.794 76.4567 78.673 76.8063 78.673 77.2372V82H76.9081V77.0781C76.9081 76.6837 76.7888 76.3688 76.5502 76.1335C76.3148 75.8982 76.0066 75.7805 75.6254 75.7805C75.3669 75.7805 75.1316 75.8468 74.9195 75.9794C74.7074 76.1087 74.5383 76.2926 74.4124 76.5312C74.2864 76.7666 74.2235 77.0417 74.2235 77.3565V82H72.4237Z" fill="white"/>
</g>
<defs>
<filter id="filter0_d_5834_13331" x="0" y="0" width="107" height="109" filterUnits="userSpaceOnUse" color-interpolation-filters="sRGB">
<feFlood flood-opacity="0" result="BackgroundImageFix"/>
<feColorMatrix in="SourceAlpha" type="matrix" values="0 0 0 0 0 0 0 0 0 0 0 0 0 0 0 0 0 0 127 0" result="hardAlpha"/>
<feOffset dy="2"/>
<feGaussianBlur stdDeviation="4"/>
<feColorMatrix type="matrix" values="0 0 0 0 0 0 0 0 0 0 0 0 0 0 0 0 0 0 0.25 0"/>
<feBlend mode="normal" in2="BackgroundImageFix" result="effect1_dropShadow_5834_13331"/>
<feBlend mode="normal" in="SourceGraphic" in2="effect1_dropShadow_5834_13331" result="shape"/>
</filter>
<linearGradient id="paint0_linear_5834_13331" x1="54.0936" y1="22.7989" x2="54.0936" y2="57.44" gradientUnits="userSpaceOnUse">
<stop stop-color="#2B383F"/>
<stop offset="1" stop-color="#172024"/>
</linearGradient>
<clipPath id="clip0_5834_13331">
<rect width="35.0069" height="35" fill="white" transform="translate(35.9961 22.5)"/>
</clipPath>
</defs>
</svg>
