<svg width="107" height="109" viewBox="0 0 107 109" fill="none" xmlns="http://www.w3.org/2000/svg">
<g filter="url(#filter0_d_5834_13278)">
<rect x="8" y="6" width="91" height="93" rx="12" fill="#151B23"/>
<rect x="9" y="7" width="89" height="91" rx="11" stroke="#1F2937" stroke-width="2"/>
<mask id="mask0_5834_13278" style="mask-type:luminance" maskUnits="userSpaceOnUse" x="36" y="20" width="35" height="27">
<path d="M36 20.375H71V46.625H36V20.375Z" fill="white"/>
</mask>
<g mask="url(#mask0_5834_13278)">
<path d="M36 25.4795H47.667V20.375H37.458C36.6563 20.375 36 21.0313 36 21.833V25.4795Z" fill="#CCCCCC"/>
<path d="M59.3339 20.375H47.668V25.4795H59.3339V20.375Z" fill="#999999"/>
<path d="M70.9991 25.4795H59.332V20.375H69.5411C70.3428 20.375 70.9991 21.0313 70.9991 21.833V25.4795Z" fill="#666666"/>
<path d="M69.542 46.625H37.458C36.6563 46.625 36 45.9688 36 45.167V24.75H71V45.167C71 45.9688 70.3438 46.625 69.542 46.625Z" fill="url(#paint0_linear_5834_13278)"/>
<g filter="url(#filter1_dd_5834_13278)">
<path d="M47.0825 33.719L40.6666 40.1361C40.3012 40.5003 40.3012 41.0111 40.6666 41.302L41.9791 42.6145C42.3433 42.9798 42.8541 42.9798 43.145 42.6145L49.562 36.1986C49.9263 35.8332 49.9263 35.3236 49.562 35.0315L48.2495 33.719C47.9575 33.427 47.3745 33.427 47.0825 33.719Z" fill="url(#paint1_linear_5834_13278)"/>
<mask id="mask1_5834_13278" style="mask-type:alpha" maskUnits="userSpaceOnUse" x="40" y="33" width="10" height="10">
<path d="M47.0825 33.719L40.6666 40.1361C40.3012 40.5003 40.3012 41.0111 40.6666 41.302L41.9791 42.6145C42.3433 42.9798 42.8541 42.9798 43.145 42.6145L49.562 36.1986C49.9263 35.8332 49.9263 35.3236 49.562 35.0315L48.2495 33.719C47.9575 33.427 47.3745 33.427 47.0825 33.719Z" fill="url(#paint2_linear_5834_13278)"/>
</mask>
<g mask="url(#mask1_5834_13278)">
<g filter="url(#filter2_dd_5834_13278)">
<path d="M43.145 28.6147L49.562 35.0317C49.9263 35.3959 49.9263 35.9067 49.562 36.1987L48.2495 37.5112C47.8853 37.8755 47.3745 37.8755 47.0825 37.5112L40.6666 31.0942C40.3012 30.73 40.3012 30.2192 40.6666 29.9272L41.9791 28.6147C42.27 28.3237 42.8541 28.3237 43.145 28.6147Z" fill="url(#paint3_linear_5834_13278)"/>
</g>
<path d="M43.145 28.6147L49.562 35.0317C49.9263 35.3959 49.9263 35.9067 49.562 36.1987L48.2495 37.5112C47.8853 37.8755 47.3745 37.8755 47.0825 37.5112L40.6666 31.0942C40.3012 30.73 40.3012 30.2192 40.6666 29.9272L41.9791 28.6147C42.27 28.3237 42.8541 28.3237 43.145 28.6147Z" fill="url(#paint4_linear_5834_13278)"/>
</g>
</g>
<g filter="url(#filter3_dd_5834_13278)">
<path d="M65.1661 39.332H53.4991C53.0616 39.332 52.7695 39.6241 52.7695 40.0616V42.2491C52.7695 42.6866 53.0616 42.9786 53.4991 42.9786H65.1661C65.6036 42.9786 65.8945 42.6866 65.8945 42.2491V40.0616C65.8945 39.6241 65.6036 39.332 65.1661 39.332Z" fill="url(#paint5_linear_5834_13278)"/>
</g>
</g>
<path d="M32.5783 73.5L30.1152 64.7727H31.8155L33.388 71.1861H33.4689L35.1479 64.7727H36.6948L38.378 71.1903H38.4547L40.0272 64.7727H41.7275L39.2644 73.5H37.7047L35.9576 67.3764H35.8894L34.138 73.5H32.5783ZM42.7555 73.5V66.9545H44.2981V73.5H42.7555ZM43.5311 66.0256C43.2868 66.0256 43.0765 65.9446 42.9004 65.7827C42.7243 65.6179 42.6362 65.4205 42.6362 65.1903C42.6362 64.9574 42.7243 64.7599 42.9004 64.598C43.0765 64.4332 43.2868 64.3509 43.5311 64.3509C43.7782 64.3509 43.9885 64.4332 44.1618 64.598C44.3379 64.7599 44.426 64.9574 44.426 65.1903C44.426 65.4205 44.3379 65.6179 44.1618 65.7827C43.9885 65.9446 43.7782 66.0256 43.5311 66.0256ZM47.427 69.6648V73.5H45.8844V66.9545H47.3588V68.0668H47.4355C47.5861 67.7003 47.8262 67.4091 48.1557 67.1932C48.4881 66.9773 48.8986 66.8693 49.3873 66.8693C49.839 66.8693 50.2324 66.9659 50.5676 67.1591C50.9057 67.3523 51.1671 67.6321 51.3517 67.9986C51.5392 68.3651 51.6316 68.8097 51.6287 69.3324V73.5H50.0861V69.571C50.0861 69.1335 49.9725 68.7912 49.7452 68.544C49.5208 68.2969 49.2097 68.1733 48.812 68.1733C48.5421 68.1733 48.302 68.233 48.0918 68.3523C47.8844 68.4687 47.7211 68.6378 47.6017 68.8594C47.4853 69.081 47.427 69.3494 47.427 69.6648ZM55.6259 73.6151C55.1117 73.6151 54.6515 73.483 54.2452 73.2188C53.839 72.9545 53.5179 72.571 53.2821 72.0682C53.0463 71.5653 52.9284 70.9545 52.9284 70.2358C52.9284 69.5085 53.0478 68.8949 53.2864 68.3949C53.5279 67.892 53.8532 67.5128 54.2623 67.2571C54.6713 66.9986 55.1273 66.8693 55.6301 66.8693C56.0137 66.8693 56.329 66.9347 56.5762 67.0653C56.8233 67.1932 57.0194 67.348 57.1642 67.5298C57.3091 67.7088 57.4213 67.8778 57.5009 68.0369H57.5648V64.7727H59.1117V73.5H57.5946V72.4688H57.5009C57.4213 72.6278 57.3063 72.7969 57.1557 72.9759C57.0051 73.152 56.8063 73.3026 56.5591 73.4276C56.312 73.5526 56.0009 73.6151 55.6259 73.6151ZM56.0563 72.3494C56.383 72.3494 56.6614 72.2614 56.8915 72.0852C57.1216 71.9062 57.2963 71.6577 57.4157 71.3395C57.535 71.0213 57.5946 70.6506 57.5946 70.2273C57.5946 69.804 57.535 69.4361 57.4157 69.1236C57.2992 68.8111 57.1259 68.5682 56.8958 68.3949C56.6685 68.2216 56.3887 68.1349 56.0563 68.1349C55.7125 68.1349 55.4256 68.2244 55.1955 68.4034C54.9654 68.5824 54.7921 68.8295 54.6756 69.1449C54.5591 69.4602 54.5009 69.821 54.5009 70.2273C54.5009 70.6364 54.5591 71.0014 54.6756 71.3224C54.7949 71.6406 54.9696 71.892 55.1998 72.0767C55.4327 72.2585 55.7182 72.3494 56.0563 72.3494ZM63.6106 73.6278C62.9714 73.6278 62.4174 73.4872 61.9487 73.206C61.4799 72.9247 61.1163 72.5312 60.8578 72.0256C60.6021 71.5199 60.4743 70.929 60.4743 70.2528C60.4743 69.5767 60.6021 68.9844 60.8578 68.4759C61.1163 67.9673 61.4799 67.5724 61.9487 67.2912C62.4174 67.0099 62.9714 66.8693 63.6106 66.8693C64.2498 66.8693 64.8038 67.0099 65.2725 67.2912C65.7413 67.5724 66.1035 67.9673 66.3592 68.4759C66.6177 68.9844 66.747 69.5767 66.747 70.2528C66.747 70.929 66.6177 71.5199 66.3592 72.0256C66.1035 72.5312 65.7413 72.9247 65.2725 73.206C64.8038 73.4872 64.2498 73.6278 63.6106 73.6278ZM63.6191 72.392C63.9657 72.392 64.2555 72.2969 64.4885 72.1065C64.7214 71.9134 64.8947 71.6548 65.0083 71.331C65.1248 71.0071 65.1831 70.6463 65.1831 70.2486C65.1831 69.848 65.1248 69.4858 65.0083 69.1619C64.8947 68.8352 64.7214 68.5753 64.4885 68.3821C64.2555 68.1889 63.9657 68.0923 63.6191 68.0923C63.264 68.0923 62.9686 68.1889 62.7328 68.3821C62.4998 68.5753 62.3251 68.8352 62.2086 69.1619C62.095 69.4858 62.0382 69.848 62.0382 70.2486C62.0382 70.6463 62.095 71.0071 62.2086 71.331C62.3251 71.6548 62.4998 71.9134 62.7328 72.1065C62.9686 72.2969 63.264 72.392 63.6191 72.392ZM69.2196 73.5L67.3702 66.9545H68.9426L70.0932 71.5568H70.1529L71.329 66.9545H72.8844L74.0605 71.5312H74.1245L75.258 66.9545H76.8347L74.981 73.5H73.3745L72.1472 69.0767H72.0577L70.8304 73.5H69.2196ZM33.7662 81.9545V83.1477H30.0034V81.9545H33.7662ZM30.9324 80.3864H32.475V86.5312C32.475 86.7386 32.5062 86.8977 32.5687 87.0085C32.6341 87.1165 32.7193 87.1903 32.8244 87.2301C32.9295 87.2699 33.046 87.2898 33.1738 87.2898C33.2704 87.2898 33.3585 87.2827 33.438 87.2685C33.5204 87.2543 33.5829 87.2415 33.6255 87.2301L33.8855 88.4361C33.8031 88.4645 33.6852 88.4957 33.5318 88.5298C33.3812 88.5639 33.1966 88.5838 32.9778 88.5895C32.5914 88.6009 32.2434 88.5426 31.9338 88.4148C31.6241 88.2841 31.3784 88.0824 31.1966 87.8097C31.0176 87.5369 30.9295 87.196 30.9324 86.7869V80.3864ZM37.8837 88.6278C37.2275 88.6278 36.6607 88.4915 36.1834 88.2188C35.709 87.9432 35.3439 87.554 35.0882 87.0511C34.8326 86.5455 34.7047 85.9503 34.7047 85.2656C34.7047 84.5923 34.8326 84.0014 35.0882 83.4929C35.3468 82.9815 35.7076 82.5838 36.1706 82.2997C36.6337 82.0128 37.1777 81.8693 37.8027 81.8693C38.2061 81.8693 38.5868 81.9347 38.9448 82.0653C39.3056 82.1932 39.6238 82.392 39.8993 82.6619C40.1777 82.9318 40.3965 83.2756 40.5556 83.6932C40.7147 84.108 40.7942 84.6023 40.7942 85.1761V85.6491H35.4292V84.6094H39.3155C39.3127 84.3139 39.2488 84.0511 39.1238 83.821C38.9988 83.5881 38.824 83.4048 38.5996 83.2713C38.378 83.1378 38.1195 83.071 37.824 83.071C37.5087 83.071 37.2317 83.1477 36.9931 83.3011C36.7544 83.4517 36.5684 83.6506 36.4348 83.8977C36.3042 84.142 36.2374 84.4105 36.2346 84.7031V85.6108C36.2346 85.9915 36.3042 86.3182 36.4434 86.5909C36.5826 86.8608 36.7772 87.0682 37.0272 87.2131C37.2772 87.3551 37.5698 87.4261 37.905 87.4261C38.1294 87.4261 38.3326 87.3949 38.5144 87.3324C38.6962 87.267 38.8539 87.1719 38.9874 87.0469C39.1209 86.9219 39.2218 86.767 39.29 86.5824L40.7303 86.7443C40.6394 87.125 40.4661 87.4574 40.2104 87.7415C39.9576 88.0227 39.6337 88.2415 39.2388 88.3977C38.8439 88.5511 38.3922 88.6278 37.8837 88.6278ZM42.0993 88.5V81.9545H43.595V83.0455H43.6632C43.7825 82.6676 43.987 82.3764 44.2768 82.1719C44.5694 81.9645 44.9032 81.8608 45.2782 81.8608C45.3635 81.8608 45.4586 81.8651 45.5637 81.8736C45.6717 81.8793 45.7612 81.8892 45.8322 81.9034V83.3224C45.7669 83.2997 45.6632 83.2798 45.5211 83.2628C45.3819 83.2429 45.247 83.233 45.1163 83.233C44.835 83.233 44.5822 83.294 44.3578 83.4162C44.1362 83.5355 43.9615 83.7017 43.8336 83.9148C43.7058 84.1278 43.6419 84.3736 43.6419 84.652V88.5H42.0993ZM46.8571 88.5V81.9545H48.3315V83.0668H48.4082C48.5446 82.6918 48.7704 82.3991 49.0858 82.1889C49.4011 81.9759 49.7775 81.8693 50.215 81.8693C50.6582 81.8693 51.0318 81.9773 51.3358 82.1932C51.6426 82.4062 51.8585 82.6974 51.9835 83.0668H52.0517C52.1966 82.7031 52.4409 82.4134 52.7846 82.1974C53.1312 81.9787 53.5417 81.8693 54.0162 81.8693C54.6184 81.8693 55.1099 82.0597 55.4906 82.4403C55.8713 82.821 56.0616 83.3764 56.0616 84.1065V88.5H54.5147V84.3452C54.5147 83.9389 54.4068 83.642 54.1909 83.4545C53.975 83.2642 53.7108 83.169 53.3983 83.169C53.0261 83.169 52.7349 83.2855 52.5247 83.5185C52.3173 83.7486 52.2136 84.0483 52.2136 84.4176V88.5H50.7008V84.2812C50.7008 83.9432 50.5985 83.6733 50.394 83.4716C50.1923 83.2699 49.9281 83.169 49.6014 83.169C49.3798 83.169 49.1781 83.2259 48.9963 83.3395C48.8145 83.4503 48.6696 83.608 48.5616 83.8125C48.4537 84.0142 48.3997 84.25 48.3997 84.5199V88.5H46.8571ZM57.6266 88.5V81.9545H59.1692V88.5H57.6266ZM58.4022 81.0256C58.1578 81.0256 57.9476 80.9446 57.7715 80.7827C57.5953 80.6179 57.5073 80.4205 57.5073 80.1903C57.5073 79.9574 57.5953 79.7599 57.7715 79.598C57.9476 79.4332 58.1578 79.3509 58.4022 79.3509C58.6493 79.3509 58.8596 79.4332 59.0328 79.598C59.209 79.7599 59.2971 79.9574 59.2971 80.1903C59.2971 80.4205 59.209 80.6179 59.0328 80.7827C58.8596 80.9446 58.6493 81.0256 58.4022 81.0256ZM62.2981 84.6648V88.5H60.7555V81.9545H62.2299V83.0668H62.3066C62.4572 82.7003 62.6973 82.4091 63.0268 82.1932C63.3592 81.9773 63.7697 81.8693 64.2583 81.8693C64.71 81.8693 65.1035 81.9659 65.4387 82.1591C65.7768 82.3523 66.0382 82.6321 66.2228 82.9986C66.4103 83.3651 66.5027 83.8097 66.4998 84.3324V88.5H64.9572V84.571C64.9572 84.1335 64.8436 83.7912 64.6163 83.544C64.3919 83.2969 64.0808 83.1733 63.6831 83.1733C63.4132 83.1733 63.1731 83.233 62.9629 83.3523C62.7555 83.4687 62.5922 83.6378 62.4728 83.8594C62.3564 84.081 62.2981 84.3494 62.2981 84.6648ZM69.9515 88.6321C69.5368 88.6321 69.1632 88.5582 68.8308 88.4105C68.5012 88.2599 68.2399 88.0384 68.0467 87.7457C67.8564 87.4531 67.7612 87.0923 67.7612 86.6634C67.7612 86.294 67.8294 85.9886 67.9657 85.7472C68.1021 85.5057 68.2882 85.3125 68.524 85.1676C68.7598 85.0227 69.0254 84.9134 69.3208 84.8395C69.6191 84.7628 69.9274 84.7074 70.2456 84.6733C70.6291 84.6335 70.9402 84.598 71.1788 84.5668C71.4174 84.5327 71.5907 84.4815 71.6987 84.4134C71.8095 84.3423 71.8649 84.233 71.8649 84.0852V84.0597C71.8649 83.7386 71.7697 83.4901 71.5794 83.3139C71.389 83.1378 71.1149 83.0497 70.7569 83.0497C70.3791 83.0497 70.0794 83.1321 69.8578 83.2969C69.639 83.4616 69.4913 83.6562 69.4146 83.8807L67.9743 83.6761C68.0879 83.2784 68.2754 82.946 68.5368 82.679C68.7981 82.4091 69.1177 82.2074 69.4956 82.0739C69.8734 81.9375 70.291 81.8693 70.7484 81.8693C71.0637 81.8693 71.3777 81.9062 71.6902 81.9801C72.0027 82.054 72.2882 82.1761 72.5467 82.3466C72.8052 82.5142 73.0126 82.7429 73.1689 83.0327C73.3279 83.3224 73.4075 83.6847 73.4075 84.1193V88.5H71.9245V87.6009H71.8734C71.7797 87.7827 71.6475 87.9531 71.4771 88.1122C71.3095 88.2685 71.0978 88.3949 70.8422 88.4915C70.5893 88.5852 70.2924 88.6321 69.9515 88.6321ZM70.3521 87.4986C70.6618 87.4986 70.9302 87.4375 71.1575 87.3153C71.3848 87.1903 71.5595 87.0256 71.6816 86.821C71.8066 86.6165 71.8691 86.3935 71.8691 86.152V85.3807C71.8208 85.4205 71.7385 85.4574 71.622 85.4915C71.5083 85.5256 71.3805 85.5554 71.2385 85.581C71.0964 85.6065 70.9558 85.6293 70.8166 85.6491C70.6774 85.669 70.5566 85.6861 70.4544 85.7003C70.2243 85.7315 70.0183 85.7827 69.8365 85.8537C69.6547 85.9247 69.5112 86.0241 69.4061 86.152C69.301 86.277 69.2484 86.4389 69.2484 86.6378C69.2484 86.9219 69.3521 87.1364 69.5595 87.2812C69.7669 87.4261 70.0311 87.4986 70.3521 87.4986ZM76.5012 79.7727V88.5H74.9586V79.7727H76.5012Z" fill="white"/>
</g>
<defs>
<filter id="filter0_d_5834_13278" x="0" y="0" width="107" height="109" filterUnits="userSpaceOnUse" color-interpolation-filters="sRGB">
<feFlood flood-opacity="0" result="BackgroundImageFix"/>
<feColorMatrix in="SourceAlpha" type="matrix" values="0 0 0 0 0 0 0 0 0 0 0 0 0 0 0 0 0 0 127 0" result="hardAlpha"/>
<feOffset dy="2"/>
<feGaussianBlur stdDeviation="4"/>
<feColorMatrix type="matrix" values="0 0 0 0 0 0 0 0 0 0 0 0 0 0 0 0 0 0 0.25 0"/>
<feBlend mode="normal" in2="BackgroundImageFix" result="effect1_dropShadow_5834_13278"/>
<feBlend mode="normal" in="SourceGraphic" in2="effect1_dropShadow_5834_13278" result="shape"/>
</filter>
<filter id="filter1_dd_5834_13278" x="37.3926" y="31.5" width="15.4434" height="15.3887" filterUnits="userSpaceOnUse" color-interpolation-filters="sRGB">
<feFlood flood-opacity="0" result="BackgroundImageFix"/>
<feColorMatrix in="SourceAlpha" type="matrix" values="0 0 0 0 0 0 0 0 0 0 0 0 0 0 0 0 0 0 127 0" result="hardAlpha"/>
<feOffset dy="0.5"/>
<feGaussianBlur stdDeviation="0.5"/>
<feColorMatrix type="matrix" values="0 0 0 0 0 0 0 0 0 0 0 0 0 0 0 0 0 0 0.1 0"/>
<feBlend mode="normal" in2="BackgroundImageFix" result="effect1_dropShadow_5834_13278"/>
<feColorMatrix in="SourceAlpha" type="matrix" values="0 0 0 0 0 0 0 0 0 0 0 0 0 0 0 0 0 0 127 0" result="hardAlpha"/>
<feOffset dy="1"/>
<feGaussianBlur stdDeviation="1.5"/>
<feColorMatrix type="matrix" values="0 0 0 0 0 0 0 0 0 0 0 0 0 0 0 0 0 0 0.2 0"/>
<feBlend mode="normal" in2="effect1_dropShadow_5834_13278" result="effect2_dropShadow_5834_13278"/>
<feBlend mode="normal" in="SourceGraphic" in2="effect2_dropShadow_5834_13278" result="shape"/>
</filter>
<filter id="filter2_dd_5834_13278" x="37.3926" y="26.3965" width="15.4434" height="15.3887" filterUnits="userSpaceOnUse" color-interpolation-filters="sRGB">
<feFlood flood-opacity="0" result="BackgroundImageFix"/>
<feColorMatrix in="SourceAlpha" type="matrix" values="0 0 0 0 0 0 0 0 0 0 0 0 0 0 0 0 0 0 127 0" result="hardAlpha"/>
<feOffset dy="0.5"/>
<feGaussianBlur stdDeviation="0.5"/>
<feColorMatrix type="matrix" values="0 0 0 0 0 0 0 0 0 0 0 0 0 0 0 0 0 0 0.1 0"/>
<feBlend mode="normal" in2="BackgroundImageFix" result="effect1_dropShadow_5834_13278"/>
<feColorMatrix in="SourceAlpha" type="matrix" values="0 0 0 0 0 0 0 0 0 0 0 0 0 0 0 0 0 0 127 0" result="hardAlpha"/>
<feOffset dy="1"/>
<feGaussianBlur stdDeviation="1.5"/>
<feColorMatrix type="matrix" values="0 0 0 0 0 0 0 0 0 0 0 0 0 0 0 0 0 0 0.2 0"/>
<feBlend mode="normal" in2="effect1_dropShadow_5834_13278" result="effect2_dropShadow_5834_13278"/>
<feBlend mode="normal" in="SourceGraphic" in2="effect2_dropShadow_5834_13278" result="shape"/>
</filter>
<filter id="filter3_dd_5834_13278" x="49.7695" y="37.332" width="19.125" height="9.64648" filterUnits="userSpaceOnUse" color-interpolation-filters="sRGB">
<feFlood flood-opacity="0" result="BackgroundImageFix"/>
<feColorMatrix in="SourceAlpha" type="matrix" values="0 0 0 0 0 0 0 0 0 0 0 0 0 0 0 0 0 0 127 0" result="hardAlpha"/>
<feOffset dy="0.5"/>
<feGaussianBlur stdDeviation="0.5"/>
<feColorMatrix type="matrix" values="0 0 0 0 0 0 0 0 0 0 0 0 0 0 0 0 0 0 0.1 0"/>
<feBlend mode="normal" in2="BackgroundImageFix" result="effect1_dropShadow_5834_13278"/>
<feColorMatrix in="SourceAlpha" type="matrix" values="0 0 0 0 0 0 0 0 0 0 0 0 0 0 0 0 0 0 127 0" result="hardAlpha"/>
<feOffset dy="1"/>
<feGaussianBlur stdDeviation="1.5"/>
<feColorMatrix type="matrix" values="0 0 0 0 0 0 0 0 0 0 0 0 0 0 0 0 0 0 0.2 0"/>
<feBlend mode="normal" in2="effect1_dropShadow_5834_13278" result="effect2_dropShadow_5834_13278"/>
<feBlend mode="normal" in="SourceGraphic" in2="effect2_dropShadow_5834_13278" result="shape"/>
</filter>
<linearGradient id="paint0_linear_5834_13278" x1="62.5748" y1="50.8731" x2="44.6198" y2="19.7734" gradientUnits="userSpaceOnUse">
<stop stop-color="#333333"/>
<stop offset="1" stop-color="#4D4D4D"/>
</linearGradient>
<linearGradient id="paint1_linear_5834_13278" x1="46.5925" y1="40.789" x2="43.6438" y2="35.6823" gradientUnits="userSpaceOnUse">
<stop stop-color="#999999"/>
<stop offset="1" stop-color="#B3B3B3"/>
</linearGradient>
<linearGradient id="paint2_linear_5834_13278" x1="46.5925" y1="40.789" x2="43.6438" y2="35.6823" gradientUnits="userSpaceOnUse">
<stop stop-color="#999999"/>
<stop offset="1" stop-color="#B3B3B3"/>
</linearGradient>
<linearGradient id="paint3_linear_5834_13278" x1="47.8667" y1="37.8995" x2="42.3706" y2="28.3806" gradientUnits="userSpaceOnUse">
<stop stop-color="#CCCCCC"/>
<stop offset="1" stop-color="#E6E6E6"/>
</linearGradient>
<linearGradient id="paint4_linear_5834_13278" x1="47.8667" y1="37.8995" x2="42.3706" y2="28.3806" gradientUnits="userSpaceOnUse">
<stop stop-color="#CCCCCC"/>
<stop offset="1" stop-color="#E6E6E6"/>
</linearGradient>
<linearGradient id="paint5_linear_5834_13278" x1="61.6289" y1="45.1333" x2="57.0352" y2="37.1773" gradientUnits="userSpaceOnUse">
<stop stop-color="#CCCCCC"/>
<stop offset="1" stop-color="#E6E6E6"/>
</linearGradient>
</defs>
</svg>
