<svg width="107" height="109" viewBox="0 0 107 109" fill="none" xmlns="http://www.w3.org/2000/svg">
<g filter="url(#filter0_d_5829_13920)">
<rect x="8" y="6" width="91" height="93" rx="12" fill="#151B23"/>
<rect x="9" y="7" width="89" height="91" rx="11" stroke="#1F2937" stroke-width="2"/>
<path d="M68.7892 50.5203C66.9851 50.9488 66.0717 51.3434 63.8391 52.798C60.3436 55.0531 56.5324 56.1018 56.5324 56.1018C56.5324 56.1018 56.2167 56.5754 55.3034 56.7896C53.7248 57.173 47.7824 57.5 47.2412 57.5113C45.7866 57.5225 44.8958 57.1392 44.6478 56.5415C43.8923 54.7374 45.7302 53.9481 45.7302 53.9481C45.7302 53.9481 45.3243 53.7001 45.0875 53.4745C44.8733 53.2603 44.6478 52.8318 44.5801 52.9897C44.2982 53.6775 44.1516 55.3576 43.3962 56.1131C42.3588 57.1617 40.3968 56.8122 39.2354 56.2033C37.9612 55.5267 39.3256 53.9368 39.3256 53.9368C39.3256 53.9368 38.6378 54.3428 38.0853 53.5084C37.5891 52.7416 37.1268 51.4336 37.2509 49.8212C37.4087 47.9607 39.4609 46.1791 39.4609 46.1791C39.4609 46.1791 39.1001 43.4616 40.284 40.6765C41.3552 38.1395 44.2418 36.0986 44.2418 36.0986C44.2418 36.0986 41.8175 33.4262 42.7196 31.0019C43.3059 29.4233 43.5427 29.4346 43.7344 29.3669C44.411 29.1076 45.065 28.8257 45.5498 28.2957C47.9741 25.6798 51.0637 26.1759 51.0637 26.1759C51.0637 26.1759 52.507 21.7445 53.8601 22.6127C54.2773 22.8834 55.777 26.221 55.777 26.221C55.777 26.221 57.3781 25.2851 57.5585 25.6347C58.5282 27.5177 58.641 31.1147 58.2125 33.3022C57.4909 36.9104 55.6867 38.8499 54.9651 40.0676C54.796 40.3495 56.9045 41.2403 58.2351 44.9275C59.4641 48.299 58.3704 51.1292 58.5621 51.4449C58.5959 51.5013 58.6072 51.5238 58.6072 51.5238C58.6072 51.5238 60.0166 51.6366 62.8469 49.8888C64.3578 48.9529 66.1507 47.9043 68.1916 47.8818C70.1648 47.8479 70.2663 50.1707 68.7892 50.5203Z" fill="#2C8EBB"/>
<path d="M38.3082 71.8182H40.3913L42.8821 76.3224H42.9815L45.4723 71.8182H47.5554L43.8516 78.2017V82H42.0121V78.2017L38.3082 71.8182ZM49.6671 82.1541C49.1832 82.1541 48.7473 82.0679 48.3596 81.8956C47.9751 81.7199 47.6702 81.4614 47.4448 81.12C47.2227 80.7786 47.1117 80.3577 47.1117 79.8572C47.1117 79.4264 47.1912 79.0701 47.3503 78.7884C47.5094 78.5066 47.7265 78.2812 48.0016 78.1122C48.2767 77.9432 48.5866 77.8156 48.9313 77.7294C49.2793 77.6399 49.6389 77.5753 50.0101 77.5355C50.4576 77.4891 50.8205 77.4477 51.0989 77.4112C51.3773 77.3714 51.5795 77.3118 51.7054 77.2322C51.8347 77.1494 51.8993 77.0218 51.8993 76.8494V76.8196C51.8993 76.4451 51.7883 76.1551 51.5662 75.9496C51.3442 75.7441 51.0243 75.6413 50.6067 75.6413C50.1659 75.6413 49.8162 75.7375 49.5577 75.9297C49.3025 76.1219 49.1301 76.349 49.0407 76.6108L47.3603 76.3722C47.4928 75.9081 47.7116 75.5204 48.0165 75.2088C48.3214 74.8939 48.6943 74.6586 49.1351 74.5028C49.5759 74.3438 50.0632 74.2642 50.5968 74.2642C50.9647 74.2642 51.3309 74.3073 51.6955 74.3935C52.0601 74.4796 52.3932 74.6222 52.6948 74.821C52.9964 75.0166 53.2383 75.2834 53.4206 75.6214C53.6062 75.9595 53.699 76.3821 53.699 76.8892V82H51.9689V80.951H51.9093C51.7999 81.1631 51.6458 81.362 51.4469 81.5476C51.2514 81.7299 51.0044 81.8774 50.7061 81.9901C50.4112 82.0994 50.0648 82.1541 49.6671 82.1541ZM50.1344 80.8317C50.4957 80.8317 50.8089 80.7604 51.074 80.6179C51.3392 80.4721 51.543 80.2798 51.6855 80.0412C51.8314 79.8026 51.9043 79.5424 51.9043 79.2607V78.3608C51.848 78.4072 51.7518 78.4503 51.6159 78.4901C51.4834 78.5298 51.3342 78.5646 51.1685 78.5945C51.0028 78.6243 50.8387 78.6508 50.6763 78.674C50.5139 78.6972 50.373 78.7171 50.2537 78.7337C49.9853 78.7701 49.745 78.8298 49.5328 78.9126C49.3207 78.9955 49.1534 79.1115 49.0307 79.2607C48.9081 79.4065 48.8468 79.5954 48.8468 79.8274C48.8468 80.1589 48.9677 80.4091 49.2097 80.5781C49.4516 80.7472 49.7599 80.8317 50.1344 80.8317ZM55.5087 82V74.3636H57.2537V75.6364H57.3333C57.4725 75.1955 57.7111 74.8558 58.0492 74.6172C58.3906 74.3752 58.78 74.2543 59.2175 74.2543C59.3169 74.2543 59.428 74.2592 59.5506 74.2692C59.6766 74.2758 59.781 74.2874 59.8638 74.304V75.9595C59.7876 75.933 59.6666 75.9098 59.5009 75.8899C59.3385 75.8667 59.181 75.8551 59.0286 75.8551C58.7005 75.8551 58.4055 75.9264 58.1436 76.0689C57.8851 76.2081 57.6813 76.402 57.5321 76.6506C57.383 76.8991 57.3084 77.1858 57.3084 77.5107V82H55.5087ZM62.8592 77.5256V82H61.0595V74.3636H62.7797V75.6612H62.8691C63.0448 75.2337 63.3249 74.8939 63.7093 74.642C64.0971 74.3902 64.5761 74.2642 65.1461 74.2642C65.6731 74.2642 66.1322 74.3769 66.5233 74.6023C66.9177 74.8277 67.2226 75.1541 67.438 75.5817C67.6568 76.0092 67.7645 76.5279 67.7612 77.1378V82H65.9615V77.4162C65.9615 76.9058 65.8289 76.5064 65.5637 76.218C65.3019 75.9297 64.939 75.7855 64.475 75.7855C64.1601 75.7855 63.88 75.8551 63.6348 75.9943C63.3928 76.1302 63.2022 76.3274 63.063 76.5859C62.9271 76.8445 62.8592 77.1577 62.8592 77.5256Z" fill="white"/>
</g>
<defs>
<filter id="filter0_d_5829_13920" x="0" y="0" width="107" height="109" filterUnits="userSpaceOnUse" color-interpolation-filters="sRGB">
<feFlood flood-opacity="0" result="BackgroundImageFix"/>
<feColorMatrix in="SourceAlpha" type="matrix" values="0 0 0 0 0 0 0 0 0 0 0 0 0 0 0 0 0 0 127 0" result="hardAlpha"/>
<feOffset dy="2"/>
<feGaussianBlur stdDeviation="4"/>
<feColorMatrix type="matrix" values="0 0 0 0 0 0 0 0 0 0 0 0 0 0 0 0 0 0 0.25 0"/>
<feBlend mode="normal" in2="BackgroundImageFix" result="effect1_dropShadow_5829_13920"/>
<feBlend mode="normal" in="SourceGraphic" in2="effect1_dropShadow_5829_13920" result="shape"/>
</filter>
</defs>
</svg>
