<svg width="64" height="64" viewBox="0 0 64 64" fill="none" xmlns="http://www.w3.org/2000/svg">
<path d="M54.4 30.1429H32C28.912 30.1429 26.4 32.642 26.4 35.7143V48.7143C26.4 51.7865 28.912 54.2857 32 54.2857H54.4C57.488 54.2857 60 51.7865 60 48.7143V35.7143C60 32.642 57.488 30.1429 54.4 30.1429ZM38.5333 49.4388H37.4975C36.01 49.4388 34.8 48.2346 34.8 46.7547V44.3534L33.2068 42.7683C32.8422 42.4056 32.8422 41.818 33.2068 41.4553L34.8 39.8702V37.469C34.8 35.989 36.01 34.7857 37.4975 34.7857H38.5333C39.0488 34.7857 39.4667 35.201 39.4667 35.7143C39.4667 36.2275 39.0488 36.6429 38.5333 36.6429H37.4975C37.0395 36.6429 36.6667 37.0137 36.6667 37.469V40.2547C36.6667 40.5013 36.5682 40.7371 36.3932 40.9112L35.1865 42.1118L36.3932 43.3124C36.5682 43.4865 36.6667 43.7223 36.6667 43.969V46.7547C36.6667 47.2108 37.0394 47.5817 37.4975 47.5817H38.5333C39.7591 47.6009 39.7606 49.419 38.5333 49.4388ZM39.4667 43.0685C38.2353 43.0513 38.2429 41.2292 39.4667 41.2114C40.6885 41.226 40.6999 43.0484 39.4667 43.0685ZM43.2 43.0495C41.9709 43.0415 41.9751 41.2252 43.2001 41.1923C44.4221 41.2138 44.432 43.0296 43.2 43.0495ZM46 42.1118C46.0152 40.8959 47.8463 40.8852 47.8667 42.1118C47.8496 43.3315 46.0229 43.3326 46 42.1118ZM53.1932 42.7683L51.6 44.3534V46.7547C51.6 48.2346 50.39 49.4388 48.9025 49.4388H47.8667C47.3512 49.4388 46.9333 49.0235 46.9333 48.5102C46.9333 47.997 47.3512 47.5817 47.8667 47.5817H48.9025C49.3605 47.5817 49.7333 47.2108 49.7333 46.7547V43.969C49.7333 43.7223 49.8318 43.4865 50.0068 43.3124L51.2135 42.1118L50.0068 40.9112C49.8318 40.7371 49.7333 40.5013 49.7333 40.2547V37.469C49.7333 37.0137 49.3606 36.6428 48.9025 36.6428H47.8667C47.3512 36.6428 46.9333 36.2275 46.9333 35.7143C46.9333 35.201 47.3512 34.7857 47.8667 34.7857H48.9025C50.39 34.7857 51.6 35.989 51.6 37.469V39.8702L53.1932 41.4553C53.5578 41.818 53.5578 42.4056 53.1932 42.7683Z" fill="url(#paint0_linear_5873_9951)"/>
<path d="M29.2 27.3571H32C32.5133 27.3571 32.9333 27.775 32.9333 28.2857H37.6V12.5C37.6 10.9678 36.34 9.71429 34.8 9.71429H25.4667C24.9533 9.71429 24.5333 10.1322 24.5333 10.6429C24.5333 11.6643 23.6934 12.5 22.6667 12.5C21.64 12.5 20.8 11.6643 20.8 10.6429C20.8 10.1322 20.38 9.71429 19.8667 9.71429H10.5333C8.99337 9.71429 7.73333 10.9678 7.73333 12.5V49.6429C7.73333 51.175 8.99337 52.4286 10.5333 52.4286H25.5414C24.8974 51.3329 24.5333 50.0607 24.5333 48.7143V35.7143C24.5333 32.8079 26.2227 30.2821 28.6867 29.0657C27.9282 28.6049 28.292 27.3272 29.2 27.3571ZM18 19H20.8C22.0253 19.0231 22.0266 20.8338 20.8 20.8571H18C16.7748 20.834 16.7734 19.0234 18 19ZM21.7333 28.2857C21.7333 28.7964 21.3133 29.2143 20.8 29.2143H18C17.4867 29.2143 17.0667 28.7964 17.0667 28.2857C17.0667 27.775 17.4867 27.3571 18 27.3571H20.8C21.3133 27.3571 21.7333 27.775 21.7333 28.2857ZM15.2 37.5714H12.4C11.1748 37.5483 11.1734 35.7376 12.4001 35.7143H15.2C16.4253 35.7374 16.4266 37.5481 15.2 37.5714ZM15.2 29.2143H12.4C11.1748 29.1911 11.1734 27.3805 12.4001 27.3571H15.2C16.4253 27.3803 16.4266 29.1909 15.2 29.2143ZM16.1333 24.5714C15.8907 24.5714 15.6573 24.4785 15.4707 24.3021L11.7374 20.5878C11.3734 20.2257 11.3734 19.6314 11.7374 19.2693L15.4707 15.555C16.3415 14.701 17.6566 16.0048 16.796 16.8735L13.716 19.9286L16.796 22.9836C17.3899 23.5381 16.9374 24.6 16.1333 24.5714ZM22.396 37.3021L18.6627 41.0164C18.476 41.1928 18.2427 41.2857 18 41.2857C17.1963 41.3139 16.7432 40.2526 17.3374 39.6978L20.4174 36.6429L17.3374 33.5878C16.4784 32.7212 17.7901 31.4132 18.6627 32.2693L22.396 35.9836C22.76 36.3457 22.76 36.94 22.396 37.3021ZM26.4 29.2143H23.6C22.3748 29.1911 22.3734 27.3805 23.6001 27.3571H26.4C27.6253 27.3803 27.6266 29.1909 26.4 29.2143ZM26.4 20.8571H23.6C22.3748 20.834 22.3734 19.0234 23.6001 19H26.4C27.6253 19.0231 27.6266 20.8338 26.4 20.8571ZM29.2 19H32C33.2253 19.0231 33.2266 20.8338 32 20.8571H29.2C27.9748 20.834 27.9734 19.0234 29.2 19Z" fill="url(#paint1_linear_5873_9951)"/>
<path d="M5.86667 52.4286V11.5714C5.86667 9.51927 7.53737 7.85714 9.6 7.85714H35.7333C37.796 7.85714 39.4667 9.51927 39.4667 11.5714V28.2857H41.3333V11.5714C41.3333 8.49786 38.8227 6 35.7333 6H9.6C6.51067 6 4 8.49786 4 11.5714V52.4286C4 55.5021 6.51067 58 9.6 58H35.7333C37.3854 58 38.8787 57.285 39.896 56.1429H9.6C7.53737 56.1429 5.86667 54.4807 5.86667 52.4286Z" fill="url(#paint2_linear_5873_9951)"/>
<defs>
<linearGradient id="paint0_linear_5873_9951" x1="32" y1="6" x2="32" y2="58" gradientUnits="userSpaceOnUse">
<stop offset="0.25" stop-color="#3059E4"/>
<stop offset="1" stop-color="#CE009F"/>
</linearGradient>
<linearGradient id="paint1_linear_5873_9951" x1="32" y1="6" x2="32" y2="58" gradientUnits="userSpaceOnUse">
<stop offset="0.25" stop-color="#3059E4"/>
<stop offset="1" stop-color="#CE009F"/>
</linearGradient>
<linearGradient id="paint2_linear_5873_9951" x1="32" y1="6" x2="32" y2="58" gradientUnits="userSpaceOnUse">
<stop offset="0.25" stop-color="#3059E4"/>
<stop offset="1" stop-color="#CE009F"/>
</linearGradient>
</defs>
</svg>
