<svg width="64" height="64" viewBox="0 0 64 64" fill="none" xmlns="http://www.w3.org/2000/svg">
<path fill-rule="evenodd" clip-rule="evenodd" d="M18.9864 32.3615C18.7564 32.1313 18.4537 31.988 18.1298 31.9559C17.806 31.9238 17.481 32.0049 17.2103 32.1854C16.9395 32.366 16.7398 32.6347 16.645 32.9459C16.5503 33.2571 16.5664 33.5915 16.6907 33.8922C16.815 34.1928 17.0397 34.4411 17.3265 34.5948C17.6134 34.7484 17.9447 34.7979 18.264 34.7348C18.5832 34.6716 18.8707 34.4999 19.0775 34.2486C19.2842 33.9974 19.3975 33.6823 19.3979 33.357C19.398 33.1728 19.3617 32.9903 19.2911 32.8201C19.2205 32.6499 19.1169 32.4953 18.9864 32.3652V32.3615ZM48.0044 32.3615C47.8079 32.165 47.5576 32.0312 47.285 31.9769C47.0125 31.9226 46.73 31.9502 46.4731 32.0564C46.2163 32.1625 45.9967 32.3424 45.8421 32.5732C45.6875 32.8041 45.6049 33.0755 45.6046 33.3533C45.6047 33.5845 45.6619 33.812 45.771 34.0159C45.8802 34.2197 46.0379 34.3934 46.2303 34.5217C46.4227 34.65 46.6438 34.7289 46.874 34.7514C47.1041 34.7739 47.3363 34.7393 47.5499 34.6507C47.7635 34.5621 47.952 34.4222 48.0986 34.2434C48.2452 34.0646 48.3454 33.8524 48.3903 33.6257C48.4353 33.3989 48.4236 33.1645 48.3562 32.9434C48.2889 32.7222 48.1681 32.5211 48.0044 32.3578V32.3615ZM43.7339 57.8322H21.2686C20.9809 57.8322 20.7051 57.9464 20.5018 58.1497C20.2984 58.3529 20.1841 58.6286 20.1841 58.9161C20.1841 59.2036 20.2984 59.4793 20.5018 59.6825C20.7051 59.8858 20.9809 60 21.2686 60H43.7339C44.0215 60 44.2974 59.8858 44.5007 59.6825C44.7041 59.4793 44.8184 59.2036 44.8184 58.9161C44.8184 58.6286 44.7041 58.3529 44.5007 58.1497C44.2974 57.9464 44.0215 57.8322 43.7339 57.8322ZM35.8628 53.7249H29.1397V56.2573H35.8628V53.7249ZM56 48.4198H9V52.1532H56V48.4198ZM11.9084 51.2018C11.6995 51.2018 11.4992 51.1188 11.3516 50.9712C11.2039 50.8236 11.1209 50.6234 11.1209 50.4147C11.1209 50.2059 11.2039 50.0057 11.3516 49.8581C11.4992 49.7105 11.6995 49.6276 11.9084 49.6276H12.0696C12.2785 49.6276 12.4788 49.7105 12.6265 49.8581C12.7741 50.0057 12.8571 50.2059 12.8571 50.4147C12.8571 50.6234 12.7741 50.8236 12.6265 50.9712C12.4788 51.1188 12.2785 51.2018 12.0696 51.2018H11.9084ZM20.8639 12.2444C20.8639 12.2886 20.8683 12.3483 20.8726 12.423C20.8766 12.456 20.8787 12.4893 20.8789 12.5225C20.8789 12.6259 20.8585 12.7283 20.8189 12.8238C20.7793 12.9193 20.7213 13.006 20.6482 13.0791C20.5751 13.1522 20.4883 13.2102 20.3927 13.2497C20.2972 13.2893 20.1948 13.3097 20.0914 13.3097C18.4884 13.2844 16.9377 13.8797 15.7636 14.971C15.2167 15.4984 14.7837 16.1324 14.4916 16.8337C14.1996 17.5351 14.0545 18.2888 14.0654 19.0484C14.0705 20.5689 14.677 22.0256 15.7527 23.1007C16.8283 24.1758 18.2857 24.7821 19.8069 24.7872H45.1962C46.719 24.7872 48.1793 24.1826 49.2561 23.1063C50.3328 22.0301 50.9377 20.5704 50.9377 19.0484C50.9377 17.5264 50.3328 16.0667 49.2561 14.9905C48.1793 13.9143 46.719 13.3097 45.1962 13.3097H43.4164C43.2211 13.3097 43.0327 13.2369 42.8882 13.1055C42.7437 12.9741 42.6535 12.7935 42.6352 12.5991C42.5729 11.9826 42.3722 11.3881 42.048 10.86C41.7239 10.3318 41.2847 9.88356 40.7632 9.54863C40.2417 9.21371 39.6512 9.00074 39.0359 8.92559C38.4206 8.85044 37.7962 8.91506 37.2093 9.11463C37.0199 9.19633 36.806 9.20029 36.6137 9.12567C36.4214 9.05105 36.2662 8.90382 36.1816 8.71578C35.428 7.04627 34.1247 5.68534 32.489 4.8598C30.8532 4.03425 28.9838 3.79397 27.1924 4.17899C25.4009 4.56401 23.7955 5.55108 22.6438 6.9757C21.4922 8.40031 20.8637 10.1764 20.8633 12.008C20.8633 12.1492 20.8639 12.2251 20.8639 12.2444ZM33.4973 37.8451C33.3667 37.7142 33.2114 37.6105 33.0404 37.5399C32.8695 37.4693 32.6862 37.4332 32.5012 37.4338C32.176 37.4343 31.8609 37.5475 31.6097 37.7541C31.3586 37.9607 31.1868 38.2479 31.1237 38.5669C31.0606 38.8858 31.1101 39.2168 31.2638 39.5034C31.4174 39.7899 31.6657 40.0144 31.9663 40.1386C32.267 40.2627 32.6014 40.2788 32.9126 40.1842C33.2238 40.0896 33.4925 39.89 33.6731 39.6196C33.8536 39.3491 33.9348 39.0245 33.9027 38.7009C33.8707 38.3774 33.7274 38.0749 33.4973 37.8451ZM20.8677 32.5681C20.677 31.8735 20.2408 31.2717 19.6399 30.8743C19.039 30.4769 18.3143 30.3108 17.6002 30.407C16.8861 30.5031 16.2311 30.8549 15.7569 31.3971C15.2826 31.9392 15.0212 32.635 15.0212 33.3552C15.0212 34.0754 15.2826 34.7711 15.7569 35.3133C16.2311 35.8555 16.8861 36.2073 17.6002 36.3034C18.3143 36.3995 19.039 36.2335 19.6399 35.8361C20.2408 35.4386 20.677 34.8368 20.8677 34.1423H26.2761C26.3565 34.1425 26.4365 34.1303 26.5133 34.1062C26.5313 34.1062 26.5494 34.1062 26.568 34.1062C26.7768 34.106 26.977 34.0231 27.1247 33.8755C27.2723 33.7279 27.3554 33.5278 27.3555 33.3191V26.3614H31.7131V35.9648C31.0183 36.1553 30.4162 36.5914 30.0186 37.192C29.621 37.7926 29.4548 38.517 29.551 39.2307C29.6472 39.9445 29.9992 40.5991 30.5416 41.0731C31.084 41.5472 31.7801 41.8085 32.5006 41.8085C33.2212 41.8085 33.9172 41.5472 34.4597 41.0731C35.0021 40.5991 35.3541 39.9445 35.4502 39.2307C35.5464 38.517 35.3803 37.7926 34.9827 37.192C34.5851 36.5914 33.983 36.1553 33.2881 35.9648V26.3614H37.6457V33.3552C37.6457 33.4586 37.6661 33.561 37.7057 33.6565C37.7453 33.7521 37.8034 33.8389 37.8766 33.912C37.9498 33.9851 38.0367 34.043 38.1323 34.0826C38.2279 34.1221 38.3304 34.1424 38.4338 34.1423H44.1336C44.3243 34.8378 44.7609 35.4406 45.3625 35.8387C45.9642 36.2369 46.6899 36.4033 47.4049 36.3072C48.12 36.211 48.7759 35.8588 49.2509 35.3159C49.7259 34.7731 49.9876 34.0764 49.9876 33.3552C49.9876 32.634 49.7259 31.9373 49.2509 31.3944C48.7759 30.8515 48.12 30.4993 47.4049 30.4032C46.6899 30.307 45.9642 30.4735 45.3625 30.8716C44.7609 31.2697 44.3243 31.8725 44.1336 32.5681H39.2244V26.3614H45.2006C46.2467 26.36 47.2804 26.1345 48.232 25.7001C49.1836 25.2657 50.031 24.6326 50.7172 23.8432C51.4033 23.0539 51.9123 22.1268 52.2098 21.1243C52.5072 20.1219 52.5863 19.0673 52.4417 18.0317H56V46.8456H9V18.0317H12.5546C12.5098 18.3688 12.4876 18.7084 12.488 19.0484C12.4931 20.9868 13.2659 22.8443 14.6374 24.2147C16.0089 25.5851 17.8676 26.357 19.8069 26.3614H25.783V32.5681H20.8677Z" fill="url(#paint0_linear_5873_9978)"/>
<defs>
<linearGradient id="paint0_linear_5873_9978" x1="32.5" y1="4" x2="32.5" y2="60" gradientUnits="userSpaceOnUse">
<stop offset="0.25" stop-color="#3059E4"/>
<stop offset="1" stop-color="#CE009F"/>
</linearGradient>
</defs>
</svg>
