<svg width="64" height="64" viewBox="0 0 64 64" fill="none" xmlns="http://www.w3.org/2000/svg">
<path fill-rule="evenodd" clip-rule="evenodd" d="M8.91839 11.7538C8.76439 11.5993 8.55206 11.5033 8.31639 11.5033C8.08073 11.5033 7.86839 11.5993 7.7144 11.7538C7.5604 11.9083 7.46473 12.1214 7.46473 12.3579C7.46473 12.5944 7.5604 12.8075 7.7144 12.962C7.8684 13.1166 8.08073 13.2126 8.31639 13.2126C8.55206 13.2126 8.7644 13.1166 8.91839 12.962C9.07239 12.8075 9.16806 12.5944 9.16806 12.3579C9.16806 12.1214 9.07239 11.9083 8.91839 11.7538ZM8.31639 10.0609C8.94873 10.0609 9.52038 10.3184 9.93338 10.7329C10.3487 11.1497 10.603 11.7234 10.603 12.3556C10.603 12.9901 10.3464 13.5638 9.93338 13.9783C9.51805 14.3951 8.9464 14.6503 8.31639 14.6503C7.68406 14.6503 7.11241 14.3927 6.69941 13.9783C6.28408 13.5615 6.02974 12.9878 6.02974 12.3556C6.02974 11.721 6.28641 11.1474 6.69941 10.7329C7.11241 10.3184 7.68406 10.0609 8.31639 10.0609ZM14.4624 11.7538C14.3084 11.5993 14.096 11.5033 13.8604 11.5033C13.6247 11.5033 13.4124 11.5993 13.2584 11.7538C13.1044 11.9083 13.0087 12.1214 13.0087 12.3579C13.0087 12.5944 13.1044 12.8075 13.2584 12.962C13.4124 13.1166 13.6247 13.2126 13.8604 13.2126C14.096 13.2126 14.3084 13.1166 14.4624 12.962C14.6164 12.8075 14.712 12.5944 14.712 12.3579C14.712 12.1214 14.6164 11.9083 14.4624 11.7538ZM13.8604 10.0609C14.4927 10.0609 15.0644 10.3184 15.4774 10.7329C15.8927 11.1497 16.147 11.7234 16.147 12.3556C16.147 12.9901 15.8904 13.5638 15.4774 13.9783C15.0644 14.3951 14.4904 14.6503 13.8604 14.6503C13.228 14.6503 12.6564 14.3927 12.2434 13.9783C11.8304 13.5615 11.5737 12.9878 11.5737 12.3556C11.5737 11.721 11.8304 11.1474 12.2434 10.7329C12.6564 10.3184 13.228 10.0609 13.8604 10.0609ZM20.004 11.7538C19.85 11.5993 19.6376 11.5033 19.402 11.5033C19.1663 11.5033 18.954 11.5993 18.8 11.7538C18.646 11.9083 18.5503 12.1214 18.5503 12.3579C18.5503 12.5944 18.646 12.8075 18.8 12.962C18.954 13.1166 19.1663 13.2126 19.402 13.2126C19.6376 13.2126 19.85 13.1166 20.004 12.962C20.158 12.8075 20.2536 12.5944 20.2536 12.3579C20.2536 12.1214 20.1603 11.9083 20.004 11.7538ZM19.402 10.0609C20.0343 10.0609 20.6059 10.3184 21.0189 10.7329C21.4319 11.1474 21.6886 11.7234 21.6886 12.3556C21.6886 12.9901 21.4319 13.5638 21.0189 13.9783C20.6036 14.3951 20.032 14.6503 19.402 14.6503C18.7696 14.6503 18.198 14.3927 17.785 13.9783C17.3696 13.5615 17.1153 12.9878 17.1153 12.3556C17.1153 11.721 17.372 11.1474 17.785 10.7329C18.198 10.3184 18.7696 10.0609 19.402 10.0609ZM24.3486 13.0768C23.9519 13.0768 23.6299 12.7536 23.6299 12.3556C23.6299 11.9575 23.9519 11.6344 24.3486 11.6344H55.7714C56.168 11.6344 56.49 11.9575 56.49 12.3556C56.49 12.7536 56.168 13.0768 55.7714 13.0768H24.3486ZM17.7313 36.9374C17.617 36.9866 17.498 37.0311 17.3743 37.0732V38.7123C17.3743 39.1104 17.0523 39.4335 16.6557 39.4335H13.6387C13.242 39.4335 12.92 39.1104 12.92 38.7123V37.0732C12.7987 37.0311 12.6797 36.9866 12.5653 36.9374C12.4487 36.8883 12.332 36.8367 12.2177 36.7805L11.0627 37.9396C10.7827 38.2206 10.3277 38.2206 10.0477 37.9396L7.91502 35.7994C7.63502 35.5185 7.63502 35.0618 7.91502 34.7809L9.07003 33.6218C9.01403 33.5071 8.96269 33.3923 8.91369 33.2729C8.86469 33.1558 8.82036 33.0388 8.77836 32.9147H7.14501C6.74835 32.9147 6.42636 32.5915 6.42636 32.1935V29.1658C6.42636 28.7678 6.74836 28.4446 7.14501 28.4446H8.78069C8.82269 28.3229 8.86702 28.2035 8.91602 28.0887C8.96502 27.9716 9.01636 27.8546 9.07236 27.7398L7.91735 26.5808C7.63735 26.2998 7.63735 25.8431 7.91735 25.5622L10.05 23.422C10.33 23.141 10.785 23.141 11.065 23.422L12.22 24.5811C12.3343 24.5249 12.451 24.4734 12.5677 24.4242C12.682 24.375 12.801 24.3305 12.9223 24.2884V22.6493C12.9223 22.2512 13.2443 21.9281 13.641 21.9281H16.658C17.0547 21.9281 17.3767 22.2512 17.3767 22.6493V24.2884C17.498 24.3305 17.617 24.375 17.7313 24.4242C17.848 24.4734 17.9647 24.5249 18.079 24.5811L19.234 23.422C19.514 23.141 19.969 23.141 20.249 23.422L22.3817 25.5622C22.6617 25.8432 22.6617 26.2998 22.3817 26.5808L21.2266 27.7398C21.2803 27.8546 21.334 27.9716 21.383 28.0887C21.432 28.2035 21.4763 28.3229 21.5183 28.4446H23.1517C23.5483 28.4446 23.8703 28.7678 23.8703 29.1658V32.1935C23.8703 32.5915 23.5483 32.9147 23.1517 32.9147H21.5183C21.4763 33.0364 21.432 33.1558 21.383 33.2706C21.334 33.3876 21.2826 33.5047 21.2266 33.6195L22.3817 34.7785C22.6617 35.0595 22.6617 35.5161 22.3817 35.7971L20.249 37.9373C19.969 38.2183 19.514 38.2183 19.234 37.9373L18.079 36.7782C17.9647 36.8367 17.848 36.8883 17.7313 36.9374ZM16.539 35.8298C16.7513 35.7713 16.966 35.6964 17.1807 35.6074C17.4117 35.5114 17.6333 35.399 17.8457 35.2749C18.1327 35.104 18.492 35.1578 18.7183 35.3849L19.7403 36.4105L20.858 35.2889L19.836 34.2633C19.5886 34.0151 19.5606 33.6334 19.7473 33.3525C19.864 33.1488 19.969 32.938 20.06 32.7203C20.158 32.4838 20.235 32.2496 20.2956 32.0178C20.3773 31.6923 20.669 31.4769 20.9887 31.4769V31.4745H22.4354V29.887H20.9887C20.6317 29.887 20.3377 29.6271 20.2817 29.2852C20.2233 29.0721 20.151 28.8567 20.06 28.6413C19.9643 28.4095 19.8523 28.187 19.7287 27.9739C19.5583 27.6859 19.612 27.3253 19.8383 27.0982L20.8603 26.0726L19.7426 24.951L18.7207 25.9766C18.4733 26.2248 18.093 26.2529 17.813 26.0656C17.61 25.9485 17.4 25.8431 17.183 25.7518C16.9473 25.6535 16.714 25.5739 16.483 25.5153C16.1587 25.4334 15.944 25.1407 15.944 24.8199H15.9417V23.3681H14.3597V24.8199C14.3597 25.1781 14.1007 25.4731 13.76 25.5293C13.5477 25.5879 13.333 25.6605 13.1184 25.7495C12.8874 25.8455 12.6657 25.9579 12.4533 26.082C12.1663 26.2529 11.807 26.199 11.5807 25.9719L10.5587 24.9463L9.44105 26.0679L10.463 27.0935C10.7104 27.3417 10.7384 27.7234 10.5517 28.0044C10.435 28.2081 10.33 28.4188 10.239 28.6366C10.141 28.8731 10.064 29.1073 10.0034 29.3391C9.9217 29.6646 9.63003 29.88 9.31034 29.88V29.8823L7.86132 29.887V31.4746H9.30801C9.66501 31.4746 9.95898 31.7345 10.015 32.0763C10.0733 32.2894 10.148 32.5048 10.2367 32.7202C10.3323 32.9521 10.4443 33.1745 10.568 33.3876C10.7383 33.6756 10.6847 34.0362 10.4583 34.2633L9.43637 35.2889L10.554 36.4105L11.576 35.3849C11.8234 35.1367 12.2037 35.1086 12.4837 35.296C12.6867 35.413 12.8967 35.5184 13.1137 35.6097C13.347 35.7081 13.5827 35.7853 13.8137 35.8462C14.138 35.9282 14.3527 36.2209 14.3527 36.5417H14.355V37.9935H15.937V36.5417C15.9393 36.1834 16.1983 35.886 16.539 35.8298ZM17.7826 33.3244C18.457 32.6477 18.8746 31.7134 18.8746 30.6807C18.8746 29.6481 18.457 28.7138 17.7826 28.0371C17.1083 27.3604 16.1773 26.9412 15.1483 26.9412C14.1193 26.9412 13.1883 27.3604 12.5139 28.0371C11.8395 28.7138 11.4219 29.6481 11.4219 30.6807C11.4219 31.7134 11.8396 32.6476 12.5139 33.3244C13.1883 34.0011 14.1193 34.4202 15.1483 34.4202C16.1773 34.4202 17.1083 34.0011 17.7826 33.3244ZM15.1483 32.9802C15.7806 32.9802 16.3523 32.7226 16.7676 32.3081C17.1829 31.8913 17.4373 31.3177 17.4373 30.6831C17.4373 30.0485 17.1806 29.4749 16.7676 29.0581C16.3523 28.6413 15.7806 28.3861 15.1483 28.3861C14.5159 28.3861 13.9443 28.6436 13.529 29.0581C13.1136 29.4749 12.8593 30.0485 12.8593 30.6831C12.8593 31.3177 13.116 31.8937 13.529 32.3081C13.942 32.7226 14.5159 32.9802 15.1483 32.9802ZM40.5212 47.6125C40.2879 47.7694 40.0289 47.9192 39.7442 48.062C39.7372 48.0667 39.7302 48.0691 39.7209 48.0738C38.5029 48.6825 36.7832 49.186 34.7439 49.5325C32.8026 49.8604 30.5672 50.05 28.1917 50.05C24.5238 50.05 21.1892 49.6028 18.7652 48.8816C17.5799 48.528 16.5952 48.0948 15.8649 47.5961V52.8318C15.8649 53.5484 17.1272 54.2836 19.1712 54.8924C21.4673 55.5761 24.6569 56 28.194 56C31.731 56 34.9211 55.5762 37.2167 54.8924C39.2584 54.2836 40.5231 53.5484 40.5231 52.8318V49.5888L40.5212 47.6125ZM39.0815 46.7859C37.9849 47.3338 36.4052 47.7928 34.5106 48.1135C32.6532 48.4273 30.4996 48.6076 28.1944 48.6076C24.657 48.6076 21.4672 48.1838 19.1716 47.5C17.1299 46.8912 15.8653 46.156 15.8653 45.4395V40.6323C15.8653 40.2342 15.5433 39.9111 15.1466 39.9111C14.7499 39.9111 14.428 40.2342 14.428 40.6323V48.8649H7.15004C6.28438 48.8649 5.49572 48.509 4.92402 47.9353C4.35468 47.364 4 46.5726 4 45.7038V18.5043H52.3375C52.7341 18.5043 53.0561 18.1811 53.0561 17.7831C53.0561 17.385 52.7341 17.0619 52.3375 17.0619L4 17.0642V11.1635C4 10.2948 4.35467 9.50333 4.92635 8.92961C5.49802 8.35589 6.28432 8 7.15237 8H56.85C57.7156 8 58.5043 8.35592 59.076 8.92961C59.6453 9.50329 60 10.2947 60 11.1635V17.0642H55.1817C54.785 17.0642 54.463 17.3874 54.463 17.7854C54.463 18.1835 54.785 18.5066 55.1817 18.5066L60 18.5043V45.7038C60 46.5725 59.6453 47.3639 59.0737 47.9377C58.502 48.5114 57.7157 48.8673 56.8476 48.8673L41.9585 48.8649V30.6642V30.6408C41.9398 29.2194 40.2855 28.0206 37.6232 27.2244C35.1988 26.5009 31.8645 26.0537 28.1966 26.0537C27.415 26.0537 26.6286 26.0748 25.84 26.1169C25.0466 26.159 24.2859 26.2223 23.5603 26.3019C23.166 26.344 22.8836 26.6999 22.9256 27.0957C22.97 27.4914 23.3223 27.7747 23.7166 27.7302C24.4283 27.6506 25.161 27.5921 25.9123 27.5499C26.631 27.5101 27.394 27.4914 28.1966 27.4914C31.734 27.4914 34.9238 27.9152 37.2194 28.599C39.261 29.2078 40.5257 29.943 40.5257 30.6595C40.5257 31.376 39.2634 32.1113 37.2194 32.7201C34.9233 33.4038 31.7337 33.8277 28.1966 33.8277C27.3869 33.8277 26.617 33.8066 25.8936 33.7692C25.1376 33.727 24.3979 33.6661 23.6816 33.5865C23.2873 33.5444 22.9349 33.8277 22.8906 34.2234C22.8463 34.6191 23.131 34.9727 23.5253 35.0172C24.2557 35.0991 25.0233 35.1624 25.8213 35.2069C26.6146 35.249 27.4104 35.2724 28.1967 35.2724C31.8647 35.2724 35.1992 34.8252 37.6232 34.104C38.8086 33.7504 39.7932 33.3172 40.5236 32.8185V38.0519C40.5236 38.2509 40.3929 38.4687 40.1502 38.6982C39.8072 39.0236 39.2822 39.3327 38.6079 39.6208C37.4599 40.1101 35.9129 40.5129 34.1022 40.7939C32.3476 41.0655 30.3385 41.22 28.1942 41.22C26.3113 41.22 24.5332 41.1006 22.9442 40.8875C21.2969 40.6674 19.8409 40.3466 18.6648 39.9509C18.2892 39.8245 17.8855 40.0282 17.7595 40.4052C17.6335 40.7822 17.8365 41.1872 18.2122 41.3137C19.4722 41.7375 21.0192 42.077 22.7599 42.3112C24.4306 42.5336 26.2715 42.6601 28.1942 42.6601C30.3899 42.6601 32.4736 42.4985 34.3217 42.2105C36.2491 41.9108 37.9104 41.4729 39.1634 40.9414C39.1704 40.939 39.1797 40.9344 39.1867 40.932C39.6977 40.7142 40.1457 40.4754 40.5237 40.2249V45.4395C40.5237 45.6104 40.4281 45.7931 40.2507 45.9851C39.9987 46.2567 39.6042 46.526 39.0815 46.7859ZM33.5376 39.2671C34.5549 39.0775 35.4812 38.8457 36.2932 38.5834C37.1286 38.3141 37.8449 38.0097 38.4213 37.6796C38.7643 37.4829 38.8833 37.0427 38.6872 36.6985C38.4913 36.3543 38.0526 36.2349 37.7096 36.4315C37.2126 36.7172 36.5873 36.9818 35.8569 37.2183C35.0986 37.4642 34.2329 37.6796 33.2809 37.8576C32.8912 37.9301 32.6346 38.3024 32.7069 38.6935C32.7769 39.0798 33.1479 39.3397 33.5376 39.2671ZM33.5376 46.3993C34.5549 46.2096 35.4812 45.9778 36.2932 45.7155C37.1286 45.4463 37.8449 45.1419 38.4213 44.8117C38.7643 44.615 38.8833 44.1748 38.6872 43.8306C38.4913 43.4864 38.0526 43.367 37.7096 43.5637C37.2126 43.8493 36.5873 44.1139 35.8569 44.3504C35.0986 44.5963 34.2329 44.8117 33.2809 44.9897C32.8912 45.0599 32.6346 45.4346 32.7069 45.8256C32.7769 46.2119 33.1479 46.4718 33.5376 46.3993ZM33.5376 53.5314C33.1479 53.604 32.7769 53.3441 32.7046 52.9554C32.6323 52.5643 32.8913 52.192 33.2786 52.1194C34.2329 51.9415 35.0986 51.7261 35.8546 51.4802C36.585 51.2437 37.2102 50.9791 37.7073 50.6934C38.0503 50.4968 38.489 50.6162 38.6849 50.9604C38.8809 51.3046 38.7619 51.7448 38.4189 51.9415C37.8426 52.2716 37.1262 52.576 36.2909 52.8453C35.4813 53.1099 34.5549 53.3394 33.5376 53.5314ZM48.5641 31.1951L44.5905 27.6172L48.5641 24.0392C48.8581 23.7746 48.8838 23.3204 48.6201 23.0253C48.3564 22.7303 47.9038 22.7045 47.6098 22.9691L43.0435 27.0786C43.0225 27.0973 43.0038 27.1161 42.9851 27.1371C42.7215 27.4322 42.7471 27.8864 43.0411 28.151L47.6098 32.2628C47.9038 32.5274 48.3564 32.5017 48.6201 32.2066C48.8838 31.9116 48.8604 31.4573 48.5641 31.1951ZM52.7641 32.2628L57.3327 28.151C57.6267 27.8864 57.6524 27.4322 57.3887 27.1371C57.3701 27.1161 57.3491 27.0973 57.3304 27.0786L52.7641 22.9691C52.4701 22.7045 52.0174 22.7303 51.7537 23.0253C51.4901 23.3204 51.5157 23.7746 51.8097 24.0392L55.7834 27.6172L51.8097 31.1951C51.5157 31.4597 51.4901 31.9139 51.7537 32.209C52.0174 32.5017 52.4701 32.5274 52.7641 32.2628ZM44.7048 37.1473H55.6689C56.0656 37.1473 56.3876 36.8241 56.3876 36.4261C56.3876 36.028 56.0656 35.7049 55.6689 35.7049H44.7048C44.3082 35.7049 43.9862 36.028 43.9862 36.4261C43.9885 36.8242 44.3082 37.1473 44.7048 37.1473ZM44.7048 40.8657H55.6689C56.0656 40.8657 56.3876 40.5425 56.3876 40.1445C56.3876 39.7464 56.0656 39.4233 55.6689 39.4233L44.7048 39.4256C44.3082 39.4256 43.9862 39.7488 43.9862 40.1468C43.9885 40.5449 44.3082 40.8657 44.7048 40.8657ZM44.7048 44.5864H55.6689C56.0656 44.5864 56.3876 44.2632 56.3876 43.8652C56.3876 43.4671 56.0656 43.144 55.6689 43.144L44.7048 43.1463C44.3082 43.1463 43.9862 43.4695 43.9862 43.8675C43.9885 44.2633 44.3082 44.5864 44.7048 44.5864ZM18.2866 43.1206C17.7149 43.1206 17.2529 43.5842 17.2529 44.1579C17.2529 44.7316 17.7149 45.1952 18.2866 45.1952C18.8582 45.1952 19.3202 44.7316 19.3202 44.1579C19.3202 43.5842 18.8582 43.1206 18.2866 43.1206ZM21.9569 44.3265C21.3852 44.3265 20.9232 44.7901 20.9232 45.3638C20.9232 45.9375 21.3852 46.4011 21.9569 46.4011C22.5286 46.4011 22.9906 45.9375 22.9906 45.3638C22.9906 44.7925 22.5286 44.3265 21.9569 44.3265ZM18.2866 50.4545C18.8582 50.4545 19.3202 50.9182 19.3202 51.4919C19.3202 52.0656 18.8582 52.5292 18.2866 52.5292C17.7149 52.5292 17.2529 52.0656 17.2529 51.4919C17.2529 50.9205 17.7149 50.4545 18.2866 50.4545ZM21.9569 51.6628C22.5285 51.6628 22.9906 52.1264 22.9906 52.7001C22.9906 53.2738 22.5286 53.7374 21.9569 53.7374C21.3852 53.7374 20.9232 53.2738 20.9232 52.7001C20.9232 52.1264 21.3875 51.6628 21.9569 51.6628Z" fill="url(#paint0_linear_5873_9964)"/>
<defs>
<linearGradient id="paint0_linear_5873_9964" x1="32" y1="8" x2="32" y2="56" gradientUnits="userSpaceOnUse">
<stop offset="0.25" stop-color="#3059E4"/>
<stop offset="1" stop-color="#CE009F"/>
</linearGradient>
</defs>
</svg>
