<svg width="64" height="64" viewBox="0 0 64 64" fill="none" xmlns="http://www.w3.org/2000/svg">
<path d="M44.7444 16.8592C45.5394 15.9731 46.8998 15.9012 47.783 16.6988L52.7675 21.1994C54.8801 23.1066 56.6323 24.6886 57.8355 26.1237C59.1006 27.6324 60 29.2536 60 31.2548C60 33.2559 59.1006 34.8772 57.8355 36.3859C56.6323 37.8209 54.8801 39.403 52.7675 41.3101L47.783 45.8109C46.8998 46.6084 45.5394 46.5365 44.7444 45.6503C43.9495 44.7641 44.0212 43.3993 44.9045 42.6018L49.7711 38.2075C52.0314 36.1666 53.5553 34.7839 54.5425 33.6068C55.49 32.4768 55.6968 31.8172 55.6968 31.2548C55.6968 30.6924 55.49 30.0327 54.5425 28.9028C53.5553 27.7256 52.0314 26.343 49.7711 24.3021L44.9045 19.9077C44.0212 19.1102 43.9495 17.7453 44.7444 16.8592Z" fill="url(#paint0_linear_5873_9937)"/>
<path d="M19.0956 19.9077C19.9788 19.1102 20.0504 17.7453 19.2555 16.8592C18.4606 15.9731 17.1001 15.9012 16.2169 16.6988L11.2324 21.1994C9.12004 23.1066 7.36777 24.6886 6.16457 26.1237C4.89936 27.6324 4 29.2536 4 31.2548C4 33.2559 4.89936 34.8772 6.16457 36.3859C7.36777 37.8209 9.12001 39.403 11.2324 41.3101L16.2169 45.8109C17.1001 46.6084 18.4606 46.5365 19.2555 45.6503C20.0504 44.7641 19.9788 43.3993 19.0956 42.6018L14.2288 38.2075C11.9685 36.1666 10.4446 34.7839 9.45749 33.6068C8.51008 32.4768 8.30316 31.8172 8.30316 31.2548C8.30316 30.6924 8.51008 30.0327 9.45749 28.9028C10.4446 27.7256 11.9685 26.343 14.2288 24.3021L19.0956 19.9077Z" fill="url(#paint1_linear_5873_9937)"/>
<path d="M38.2584 8.07409C39.4062 8.38263 40.0873 9.56628 39.7798 10.7178L28.3804 53.3996C28.0729 54.5512 26.8929 55.2344 25.7453 54.9259C24.5975 54.6174 23.9163 53.4336 24.2239 52.2821L35.6232 9.60045C35.9307 8.44891 37.1106 7.76553 38.2584 8.07409Z" fill="url(#paint2_linear_5873_9937)"/>
<defs>
<linearGradient id="paint0_linear_5873_9937" x1="32" y1="8" x2="32" y2="55" gradientUnits="userSpaceOnUse">
<stop offset="0.25" stop-color="#3059E4"/>
<stop offset="1" stop-color="#CE009F"/>
</linearGradient>
<linearGradient id="paint1_linear_5873_9937" x1="32" y1="8" x2="32" y2="55" gradientUnits="userSpaceOnUse">
<stop offset="0.25" stop-color="#3059E4"/>
<stop offset="1" stop-color="#CE009F"/>
</linearGradient>
<linearGradient id="paint2_linear_5873_9937" x1="32" y1="8" x2="32" y2="55" gradientUnits="userSpaceOnUse">
<stop offset="0.25" stop-color="#3059E4"/>
<stop offset="1" stop-color="#CE009F"/>
</linearGradient>
</defs>
</svg>
