<svg xmlns="http://www.w3.org/2000/svg" width="80" height="80" fill="none"><g filter="url(#a)"><rect width="64" height="64" x="8" y="6" fill="#212529" rx="5"/><path fill="#1172b8" d="m30 39-2-25h24l-2 25-10 3z"/><path fill="#3ad" d="M50 16H40v24.5l8-2.5z"/><path fill="#fff" d="M43.5 28.5h-10L33 25l8-2.5h-8l-.5-3H48l-.5 3.5-6.5 2.5h6L46 35l-6 2-6-2-.5-5h3l.5 2.5 3 1 3-1z"/><path fill="#e5e5e5" d="M34.156 61.102q-.973 0-1.67-.317a2.47 2.47 0 0 1-1.075-.932q-.378-.614-.42-1.526a37 37 0 0 1 0-1.822q.042-.891.43-1.506.39-.624 1.086-.942.696-.327 1.649-.327.675 0 1.249.174.573.164 1.003.491.431.318.666.778.246.45.256 1.024a.17.17 0 0 1-.061.154.2.2 0 0 1-.154.062h-1.382a.35.35 0 0 1-.205-.052.5.5 0 0 1-.123-.215q-.144-.543-.471-.737-.317-.205-.789-.205-.563 0-.89.318-.328.307-.359 1.034-.03.84 0 1.72.03.727.359 1.045.327.306.89.307.47 0 .8-.205.327-.205.46-.737.04-.154.113-.205a.35.35 0 0 1 .215-.062h1.382a.2.2 0 0 1 .154.062q.071.06.061.154a2.25 2.25 0 0 1-.256 1.034q-.235.45-.666.778a3.3 3.3 0 0 1-1.003.492 4.5 4.5 0 0 1-1.25.163Zm6.33 0q-.666 0-1.137-.143a2.8 2.8 0 0 1-.758-.369 1.7 1.7 0 0 1-.43-.44q-.144-.235-.154-.4a.21.21 0 0 1 .072-.184.25.25 0 0 1 .174-.082h1.168a.1.1 0 0 1 .05.01l.062.042q.134.071.266.184.135.102.308.184a1 1 0 0 0 .42.082.95.95 0 0 0 .48-.112.37.37 0 0 0 .195-.338q0-.164-.092-.267-.092-.112-.379-.215a5.4 5.4 0 0 0-.84-.204 4.4 4.4 0 0 1-.931-.318 1.6 1.6 0 0 1-.615-.522 1.4 1.4 0 0 1-.215-.789q0-.409.267-.788.266-.379.778-.614.512-.246 1.26-.246.593 0 1.023.143.441.133.738.348.306.215.46.44t.164.41a.24.24 0 0 1-.061.185.23.23 0 0 1-.164.071H41.53a.3.3 0 0 1-.082-.01l-.072-.041a1.3 1.3 0 0 1-.245-.164 1.5 1.5 0 0 0-.287-.184.9.9 0 0 0-.41-.082q-.276 0-.43.123a.41.41 0 0 0-.072.563q.093.112.359.205.277.092.85.205.706.113 1.126.368.42.246.594.584.174.327.174.696 0 .492-.297.87-.285.38-.86.595-.573.204-1.392.204m5.66 0q-.666 0-1.137-.143a2.8 2.8 0 0 1-.758-.369 1.7 1.7 0 0 1-.43-.44q-.144-.235-.154-.4a.21.21 0 0 1 .072-.184.25.25 0 0 1 .174-.082h1.168a.1.1 0 0 1 .05.01l.062.042q.134.071.266.184.135.102.308.184a1 1 0 0 0 .42.082.95.95 0 0 0 .48-.112.37.37 0 0 0 .195-.338q0-.164-.092-.267-.092-.112-.379-.215a5.4 5.4 0 0 0-.84-.204 4.4 4.4 0 0 1-.931-.318 1.6 1.6 0 0 1-.615-.522 1.4 1.4 0 0 1-.215-.789q0-.409.267-.788.265-.379.778-.614.512-.246 1.26-.246.593 0 1.023.143.441.133.738.348.306.215.46.44t.164.41a.24.24 0 0 1-.061.185.23.23 0 0 1-.164.071H47.19a.3.3 0 0 1-.082-.01l-.072-.041a1.3 1.3 0 0 1-.245-.164 1.5 1.5 0 0 0-.287-.184.9.9 0 0 0-.41-.082q-.276 0-.43.123a.41.41 0 0 0-.072.563q.093.112.359.205.277.092.85.205.706.113 1.126.368.42.246.594.584.174.327.174.696 0 .492-.297.87-.286.38-.86.595-.573.204-1.392.204"/></g><defs><filter id="a" width="80" height="80" x="0" y="0" color-interpolation-filters="sRGB" filterUnits="userSpaceOnUse"><feFlood flood-opacity="0" result="BackgroundImageFix"/><feColorMatrix in="SourceAlpha" result="hardAlpha" values="0 0 0 0 0 0 0 0 0 0 0 0 0 0 0 0 0 0 127 0"/><feOffset dy="2"/><feGaussianBlur stdDeviation="4"/><feColorMatrix values="0 0 0 0 0 0 0 0 0 0 0 0 0 0 0 0 0 0 0.75 0"/><feBlend in2="BackgroundImageFix" result="effect1_dropShadow_601_5315"/><feBlend in="SourceGraphic" in2="effect1_dropShadow_601_5315" result="shape"/></filter></defs></svg>