<svg xmlns="http://www.w3.org/2000/svg" width="80" height="80" fill="none"><g filter="url(#a)"><rect width="64" height="64" x="8" y="6" fill="#212529" rx="5"/><path fill="#40b97b" d="m40.325 13.783-10.76 6.481v13.579l10.76 6.48 10.756-6.48v-13.58zm6.453 17.468-6.453 3.888-6.457-3.888v-8.394l6.457 3.888 6.453-3.888z"/><path fill="#e5e5e5" d="M24.924 60.082q-.779 0-1.335-.254a1.97 1.97 0 0 1-.86-.745q-.303-.492-.336-1.22a30 30 0 0 1 0-1.458q.033-.713.344-1.204a1.95 1.95 0 0 1 .868-.754q.558-.262 1.319-.262.54 0 .999.14.459.13.803.392.343.255.532.623.197.36.205.819a.13.13 0 0 1-.05.123.17.17 0 0 1-.122.049h-1.106a.3.3 0 0 1-.164-.041.4.4 0 0 1-.098-.172q-.114-.434-.377-.59a1.14 1.14 0 0 0-.63-.163q-.45 0-.713.253-.262.246-.287.828-.024.67 0 1.376.025.581.287.835.262.246.713.246.376 0 .639-.164.261-.164.368-.59.033-.123.09-.164a.28.28 0 0 1 .172-.049h1.106q.073 0 .123.05a.13.13 0 0 1 .049.122 1.8 1.8 0 0 1-.205.827q-.189.36-.532.623-.344.253-.803.393a3.6 3.6 0 0 1-1 .13Zm5.063 0q-.533 0-.91-.115a2.2 2.2 0 0 1-.606-.295 1.4 1.4 0 0 1-.344-.352.74.74 0 0 1-.122-.32.17.17 0 0 1 .057-.147.2.2 0 0 1 .139-.065h.934q.024 0 .04.008a.4.4 0 0 1 .05.033q.106.057.213.147.106.082.245.148a.8.8 0 0 0 .336.065q.23 0 .385-.09a.29.29 0 0 0 .156-.27.3.3 0 0 0-.074-.213q-.074-.09-.303-.172a4.3 4.3 0 0 0-.672-.164 3.5 3.5 0 0 1-.745-.254 1.3 1.3 0 0 1-.491-.418 1.1 1.1 0 0 1-.172-.63q0-.328.213-.63.213-.304.622-.492.41-.197 1.008-.197.475 0 .819.115.35.106.59.278.245.173.368.353t.13.327a.2.2 0 0 1-.048.148.18.18 0 0 1-.131.057h-.852a.3.3 0 0 1-.066-.008l-.057-.033a1 1 0 0 1-.197-.131 1.2 1.2 0 0 0-.229-.148.7.7 0 0 0-.328-.065.54.54 0 0 0-.343.098.327.327 0 0 0-.057.45q.072.09.286.164.22.075.68.164.565.09.9.295.336.197.476.467.139.262.139.557a1.1 1.1 0 0 1-.238.696q-.23.303-.688.475-.459.165-1.114.164Zm4.526 0q-.532 0-.909-.115a2.2 2.2 0 0 1-.606-.295 1.4 1.4 0 0 1-.344-.352.74.74 0 0 1-.123-.32.17.17 0 0 1 .058-.147.2.2 0 0 1 .139-.065h.934a.1.1 0 0 1 .04.008.4.4 0 0 1 .05.033q.106.057.213.147.105.082.245.148a.8.8 0 0 0 .336.065q.23 0 .385-.09a.29.29 0 0 0 .156-.27.3.3 0 0 0-.074-.213q-.074-.09-.303-.172a4.3 4.3 0 0 0-.672-.164 3.5 3.5 0 0 1-.745-.254 1.3 1.3 0 0 1-.491-.418 1.1 1.1 0 0 1-.172-.63q0-.328.213-.63.213-.304.622-.492.41-.197 1.007-.197.475 0 .82.115.35.106.59.278.245.173.368.353.122.18.13.327a.2.2 0 0 1-.049.148.18.18 0 0 1-.13.057h-.852a.3.3 0 0 1-.066-.008l-.057-.033a1 1 0 0 1-.197-.131 1.2 1.2 0 0 0-.229-.148.7.7 0 0 0-.328-.065.54.54 0 0 0-.344.098.327.327 0 0 0-.057.45q.075.09.287.164.22.075.68.164.565.09.9.295.336.197.475.467.14.262.14.557a1.1 1.1 0 0 1-.238.696q-.23.303-.688.475-.459.165-1.114.164m2.98-.082a.2.2 0 0 1-.148-.057.2.2 0 0 1-.057-.148v-3.85a.2.2 0 0 1 .057-.147.2.2 0 0 1 .147-.057h.942a.2.2 0 0 1 .148.057.2.2 0 0 1 .057.148v.311q.213-.254.557-.426t.81-.172q.476 0 .836.213.369.213.573.63.213.411.213 1.008v2.285a.2.2 0 0 1-.065.148.2.2 0 0 1-.14.057h-1.031a.22.22 0 0 1-.148-.057.2.2 0 0 1-.057-.148V57.56q0-.384-.188-.59-.18-.212-.541-.212a.72.72 0 0 0-.54.213q-.198.204-.197.59v2.235q0 .09-.066.148a.2.2 0 0 1-.139.057h-1.024Zm6.327.082a1.9 1.9 0 0 1-.794-.164 1.46 1.46 0 0 1-.55-.459 1.1 1.1 0 0 1-.204-.647q0-.58.475-.917.475-.344 1.261-.467l1.024-.155v-.115q0-.295-.123-.45t-.45-.156a.7.7 0 0 0-.377.09.64.64 0 0 0-.221.246.24.24 0 0 1-.205.106h-.917q-.09 0-.14-.049a.17.17 0 0 1-.04-.13.7.7 0 0 1 .106-.337 1.5 1.5 0 0 1 .344-.385q.23-.188.59-.31.36-.124.868-.124.532 0 .91.123.375.123.605.344.238.222.352.524.115.295.115.656v2.49q0 .09-.066.147a.2.2 0 0 1-.139.057h-.95a.2.2 0 0 1-.147-.057.2.2 0 0 1-.058-.148v-.286q-.105.155-.286.286-.18.132-.426.205a1.7 1.7 0 0 1-.557.082m.385-.934q.237 0 .426-.098a.7.7 0 0 0 .303-.32q.114-.22.114-.548v-.115l-.696.123q-.385.066-.565.205-.172.13-.172.311 0 .14.082.237a.6.6 0 0 0 .213.156.8.8 0 0 0 .295.05Zm3.373.852a.2.2 0 0 1-.148-.057.2.2 0 0 1-.057-.148v-3.85a.2.2 0 0 1 .058-.147.2.2 0 0 1 .147-.057h.942a.2.2 0 0 1 .147.057.2.2 0 0 1 .057.148v.311q.213-.254.557-.426t.811-.172q.475 0 .836.213.368.213.573.63.213.411.213 1.008v2.285q0 .09-.066.148a.2.2 0 0 1-.139.057h-1.032a.22.22 0 0 1-.147-.057.2.2 0 0 1-.058-.148V57.56q0-.384-.188-.59-.18-.212-.54-.212a.72.72 0 0 0-.541.213q-.197.204-.197.59v2.235q0 .09-.065.148a.2.2 0 0 1-.14.057h-1.023Zm7.065.082q-.69 0-1.163-.221a1.66 1.66 0 0 1-.721-.63 2.2 2.2 0 0 1-.279-.992 8 8 0 0 1 0-.737q.033-.582.295-.99.262-.41.73-.632.474-.22 1.138-.22.671 0 1.138.22.475.222.737.631t.295.991a7 7 0 0 1 0 .737 2.1 2.1 0 0 1-.287.991 1.6 1.6 0 0 1-.72.63q-.468.222-1.163.222m0-1q.368 0 .532-.22.172-.222.197-.664a6 6 0 0 0-.001-.655q-.024-.435-.196-.655-.165-.23-.532-.23-.36 0-.533.23-.171.221-.188.655a5 5 0 0 0-.008.328q0 .204.008.327.016.442.188.664.172.22.533.22"/></g><defs><filter id="a" width="80" height="80" x="0" y="0" color-interpolation-filters="sRGB" filterUnits="userSpaceOnUse"><feFlood flood-opacity="0" result="BackgroundImageFix"/><feColorMatrix in="SourceAlpha" result="hardAlpha" values="0 0 0 0 0 0 0 0 0 0 0 0 0 0 0 0 0 0 127 0"/><feOffset dy="2"/><feGaussianBlur stdDeviation="4"/><feColorMatrix values="0 0 0 0 0 0 0 0 0 0 0 0 0 0 0 0 0 0 0.75 0"/><feBlend in2="BackgroundImageFix" result="effect1_dropShadow_602_260"/><feBlend in="SourceGraphic" in2="effect1_dropShadow_602_260" result="shape"/></filter></defs></svg>