<svg xmlns="http://www.w3.org/2000/svg" width="80" height="80" fill="none"><g filter="url(#a)"><rect width="64" height="64" x="8" y="6" fill="#212529" rx="5"/><path fill="#66c3fa" d="M40.824 13.088c-.34.001-.667.136-.91.375l-.013.009-8.517 4.923 8.496 8.496v.005l10.21 10.212 1.947-3.507-7.018-16.853-3.276-3.276a1.3 1.3 0 0 0-.92-.384z"/><path fill="#215896" d="m31.404 18.375-4.92 8.51-.01.014a1.29 1.29 0 0 0 .009 1.828l4.077 4.081 15.95 6.275 3.607-2.003-.097-.097-.025.002-10-10.016h-.012z"/><path fill="#235997" d="m31.383 18.379 8.69 8.7h.014l10 10.013 3.809-.725L53.9 25.1l-4.02-3.94c-.88-.862-2.233-1.418-3.593-1.602l.003-.043zl-.001-.001Z"/><path fill="#58b6f0" d="m31.393 18.39 8.696 8.695v.012l10.008 10.008-.728 3.807H38.104l-3.939-4.023c-.862-.88-1.417-2.234-1.6-3.594l-.044.004z"/><path fill="#e5e5e5" d="M29.473 61a.25.25 0 0 1-.184-.072.25.25 0 0 1-.072-.184v-6.656a.25.25 0 0 1 .072-.184.25.25 0 0 1 .184-.072h2.662q1.005 0 1.71.328.706.316 1.086.942.378.614.41 1.526a34 34 0 0 1 0 1.567q-.042.951-.41 1.576-.359.625-1.055.932-.685.297-1.69.297zm1.577-1.475h1.085q.44 0 .727-.133a.92.92 0 0 0 .44-.44q.155-.297.164-.778a8 8 0 0 0 .02-.533 5 5 0 0 0 0-.47 7 7 0 0 0-.02-.523q-.02-.696-.368-1.014-.337-.327-1.014-.327H31.05zm6.982 1.577q-.553 0-.994-.204a1.8 1.8 0 0 1-.686-.574 1.36 1.36 0 0 1-.256-.809q0-.727.594-1.147.594-.43 1.577-.583l1.28-.195v-.143q0-.369-.153-.564-.154-.194-.564-.194a.9.9 0 0 0-.47.113.8.8 0 0 0-.277.307.3.3 0 0 1-.256.133H36.68a.24.24 0 0 1-.174-.061.2.2 0 0 1-.051-.164q0-.184.133-.42.143-.246.43-.482.287-.235.737-.389.45-.153 1.086-.153.665 0 1.136.153.471.154.758.43.297.277.44.656.144.369.144.819v3.113a.23.23 0 0 1-.082.184.24.24 0 0 1-.174.072h-1.188a.25.25 0 0 1-.184-.072.25.25 0 0 1-.072-.184v-.358a1.5 1.5 0 0 1-.359.358 1.7 1.7 0 0 1-.532.256q-.297.102-.696.102m.48-1.167q.298 0 .533-.123a.9.9 0 0 0 .38-.4 1.5 1.5 0 0 0 .143-.685v-.144l-.87.154q-.483.082-.707.256-.216.164-.215.39a.45.45 0 0 0 .102.296.7.7 0 0 0 .266.195q.164.06.369.061ZM42.73 61a.25.25 0 0 1-.184-.072.25.25 0 0 1-.072-.184v-4.813q0-.102.072-.174a.23.23 0 0 1 .184-.082h1.178q.112 0 .184.082a.24.24 0 0 1 .072.174v.41q.276-.318.655-.492.39-.174.87-.174h.451q.102 0 .174.072.082.072.082.184v1.055q0 .103-.082.184a.24.24 0 0 1-.174.072h-.993q-.42 0-.656.235-.225.225-.225.646v2.621a.23.23 0 0 1-.082.184A.25.25 0 0 1 44 61zm7.118 0q-.655 0-1.137-.205a1.58 1.58 0 0 1-.727-.655q-.256-.45-.256-1.157v-1.966h-.798a.3.3 0 0 1-.195-.072.25.25 0 0 1-.072-.184v-.83a.25.25 0 0 1 .072-.184.3.3 0 0 1 .195-.072h.798v-1.69a.25.25 0 0 1 .072-.184.27.27 0 0 1 .184-.071h1.188a.25.25 0 0 1 .184.071.25.25 0 0 1 .072.185v1.69h1.28a.25.25 0 0 1 .184.07.25.25 0 0 1 .072.185v.83a.25.25 0 0 1-.072.184.25.25 0 0 1-.184.072h-1.28v1.822q0 .35.133.553.134.205.45.205h.79a.25.25 0 0 1 .184.072.25.25 0 0 1 .071.184v.891a.25.25 0 0 1-.071.184.25.25 0 0 1-.185.072z"/></g><defs><filter id="a" width="80" height="80" x="0" y="0" color-interpolation-filters="sRGB" filterUnits="userSpaceOnUse"><feFlood flood-opacity="0" result="BackgroundImageFix"/><feColorMatrix in="SourceAlpha" result="hardAlpha" values="0 0 0 0 0 0 0 0 0 0 0 0 0 0 0 0 0 0 127 0"/><feOffset dy="2"/><feGaussianBlur stdDeviation="4"/><feColorMatrix values="0 0 0 0 0 0 0 0 0 0 0 0 0 0 0 0 0 0 0.75 0"/><feBlend in2="BackgroundImageFix" result="effect1_dropShadow_601_4949"/><feBlend in="SourceGraphic" in2="effect1_dropShadow_601_4949" result="shape"/></filter></defs></svg>