<svg width="64" height="64" viewBox="0 0 64 64" fill="none" xmlns="http://www.w3.org/2000/svg">
<g clip-path="url(#clip0_5873_9967)">
<path d="M11 49.528C11 51.432 11.9333 53.1867 13.8 54.792C15.6667 56.3974 18.224 57.6667 21.472 58.6C24.72 59.5334 28.2293 60 32 60C35.7707 60 39.28 59.5334 42.528 58.6C45.776 57.6667 48.3333 56.3974 50.2 54.792C52.0667 53.1867 53 51.432 53 49.528V43.592C53 45.496 52.048 47.176 50.144 48.632C48.24 50.088 45.72 51.1707 42.584 51.88C39.448 52.5894 35.92 52.9627 32 53C28.08 53.0374 24.552 52.664 21.416 51.88C18.28 51.096 15.76 50.0134 13.856 48.632C11.952 47.2507 11 45.5707 11 43.592V49.528ZM11 39C11 40.904 11.9333 42.6587 13.8 44.264C15.6667 45.8694 18.224 47.1574 21.472 48.128C24.72 49.0987 28.2293 49.5654 32 49.528C35.7707 49.4907 39.28 49.024 42.528 48.128C45.776 47.232 48.3333 45.944 50.2 44.264C52.0667 42.584 53 40.8294 53 39V33.12C53 34.9867 52.048 36.648 50.144 38.104C48.24 39.56 45.72 40.6614 42.584 41.408C39.448 42.1547 35.92 42.528 32 42.528C28.08 42.528 24.552 42.1547 21.416 41.408C18.28 40.6614 15.76 39.56 13.856 38.104C11.952 36.648 11 34.9867 11 33.12V39ZM11 28.528C11 30.432 11.9333 32.1867 13.8 33.792C15.6667 35.3974 18.224 36.6667 21.472 37.6C24.72 38.5334 28.2293 39 32 39C35.7707 39 39.28 38.5334 42.528 37.6C45.776 36.6667 48.3333 35.3974 50.2 33.792C52.0667 32.1867 53 30.432 53 28.528V22.592C53 24.496 52.048 26.176 50.144 27.632C48.24 29.088 45.72 30.1707 42.584 30.88C39.448 31.5894 35.92 31.9627 32 32C28.08 32.0374 24.552 31.664 21.416 30.88C18.28 30.096 15.76 29.0134 13.856 27.632C11.952 26.2507 11 24.5707 11 22.592V28.528ZM11 18C11 19.904 11.9333 21.6587 13.8 23.264C15.6667 24.8694 18.224 26.1574 21.472 27.128C24.72 28.0987 28.2293 28.5654 32 28.528C35.7707 28.4907 39.28 28.024 42.528 27.128C45.776 26.232 48.3333 24.944 50.2 23.264C52.0667 21.584 53 19.8294 53 18V14.528C53 12.624 52.0667 10.8694 50.2 9.26405C48.3333 7.65871 45.776 6.38938 42.528 5.45605C39.28 4.52271 35.7707 4.03738 32 4.00005C28.2293 3.96271 24.72 4.44805 21.472 5.45605C18.224 6.46405 15.6667 7.73338 13.8 9.26405C11.9333 10.7947 11 12.5494 11 14.528V18Z" fill="url(#paint0_linear_5873_9967)"/>
</g>
<defs>
<linearGradient id="paint0_linear_5873_9967" x1="32" y1="3.99805" x2="32" y2="60" gradientUnits="userSpaceOnUse">
<stop offset="0.25" stop-color="#3059E4"/>
<stop offset="1" stop-color="#CE009F"/>
</linearGradient>
<clipPath id="clip0_5873_9967">
<rect width="56" height="56" fill="white" transform="translate(4 4)"/>
</clipPath>
</defs>
</svg>
