<svg xmlns="http://www.w3.org/2000/svg" width="80" height="80" fill="none"><g filter="url(#a)"><rect width="64" height="64" x="8" y="6" fill="#212529" rx="5"/><path fill="#fff" d="M54.993 19.602 56 16.993l-.044-.162-9.964 2.626c1.062-1.537.697-2.77.697-2.77s-3.182 2.033-5.589 1.98c-2.406-.054-3.182-.696-6.872.481-3.69 1.176-4.732 4.787-5.802 5.563S24 28.013 24 28.013l.007.045 3.026-.964s-.83.782-2.593 3.158l-.082-.076.003.017s1.417 2.165 2.808 1.765q.21-.061.469-.195c.56.312 1.29.619 2.098.703 0 0-.547-.635-1.002-1.358l.377-.245-.06.042 1.153.423-.127-1.083.011-.007 1.132.416-.14-.985a10 10 0 0 1 .43-.212l1.18-4.465 4.88-3.329-.388.976c-.99 2.434-2.847 3.008-2.847 3.008l-.776.294c-.577.682-.82.85-1.018 3.138.465-.116.91-.145 1.312-.036 2.085.562 2.808 3.075 2.246 3.77-.14.174-.475.471-.898.82h-.846l-.012.687-.086.068h-.862l-.01.669-.225.17c-.81.017-1.834-.69-1.834-.69 0 .643.534 1.631.534 1.631l.095-.045-.08.059s2.165 1.444 3.529.91c1.212-.476 4.351-2.952 7.061-4.123l8.2-2.16 1.082-2.803-6.25 1.647v-2.516l7.333-1.932 1.082-2.802-8.413 2.217v-2.517z"/><path fill="#e5e5e5" d="M22.473 61a.25.25 0 0 1-.184-.072.25.25 0 0 1-.072-.184v-6.656a.25.25 0 0 1 .072-.184.25.25 0 0 1 .184-.072h4.7a.25.25 0 0 1 .184.072.23.23 0 0 1 .082.184v1.034a.23.23 0 0 1-.082.185.25.25 0 0 1-.184.071h-3.154v1.505h2.95q.112 0 .183.082.082.072.082.185v1.024q0 .102-.082.184a.25.25 0 0 1-.184.072H24.02v2.314a.25.25 0 0 1-.072.184.25.25 0 0 1-.184.072h-1.29Zm7.339.102q-.553 0-.994-.204a1.8 1.8 0 0 1-.686-.574 1.36 1.36 0 0 1-.256-.809q0-.727.594-1.147.594-.43 1.577-.583l1.28-.195v-.143q0-.369-.154-.564-.153-.194-.563-.194a.9.9 0 0 0-.47.113.8.8 0 0 0-.277.307.3.3 0 0 1-.256.133H28.46a.24.24 0 0 1-.174-.061.2.2 0 0 1-.051-.164q0-.184.133-.42.143-.246.43-.482.287-.235.737-.389.45-.153 1.086-.153.665 0 1.136.153.471.154.758.43.297.277.44.656.144.369.144.819v3.113a.23.23 0 0 1-.082.184.24.24 0 0 1-.174.072h-1.188a.25.25 0 0 1-.184-.072.25.25 0 0 1-.072-.184v-.358a1.5 1.5 0 0 1-.359.358 1.7 1.7 0 0 1-.532.256q-.297.102-.696.102m.48-1.167q.298 0 .533-.123a.9.9 0 0 0 .38-.4 1.5 1.5 0 0 0 .143-.685v-.144l-.87.154q-.482.082-.707.256-.215.164-.215.39a.45.45 0 0 0 .102.296.7.7 0 0 0 .266.195q.164.06.369.061Zm6.154 1.167q-.666 0-1.137-.143a2.8 2.8 0 0 1-.758-.369 1.7 1.7 0 0 1-.43-.44q-.144-.235-.154-.4a.21.21 0 0 1 .072-.184.25.25 0 0 1 .174-.082h1.168a.1.1 0 0 1 .05.01l.062.042q.134.071.266.184.135.102.308.184a1 1 0 0 0 .42.082.95.95 0 0 0 .48-.112.37.37 0 0 0 .195-.338q0-.164-.092-.267-.092-.112-.379-.215a5.4 5.4 0 0 0-.84-.204 4.4 4.4 0 0 1-.931-.318 1.6 1.6 0 0 1-.615-.522 1.4 1.4 0 0 1-.215-.789q0-.409.267-.788.266-.379.778-.614.512-.246 1.26-.246.593 0 1.023.143.441.133.738.348.306.215.46.44t.164.41a.24.24 0 0 1-.061.185.23.23 0 0 1-.164.071H37.49a.3.3 0 0 1-.082-.01l-.072-.041a1.3 1.3 0 0 1-.245-.164 1.5 1.5 0 0 0-.287-.184.9.9 0 0 0-.41-.082q-.276 0-.43.123a.41.41 0 0 0-.072.563q.092.112.359.205.276.092.85.205.706.113 1.126.368.42.246.594.584.174.327.174.696 0 .492-.297.87-.285.38-.86.595-.573.204-1.392.204M42.608 61q-.656 0-1.137-.205a1.58 1.58 0 0 1-.727-.655q-.255-.45-.256-1.157v-1.966h-.798a.3.3 0 0 1-.195-.072.25.25 0 0 1-.072-.184v-.83a.25.25 0 0 1 .072-.184.3.3 0 0 1 .195-.072h.798v-1.69a.25.25 0 0 1 .072-.184.27.27 0 0 1 .184-.071h1.188a.25.25 0 0 1 .184.071.25.25 0 0 1 .072.185v1.69h1.28a.25.25 0 0 1 .184.07.25.25 0 0 1 .072.185v.83a.25.25 0 0 1-.071.184.25.25 0 0 1-.185.072h-1.28v1.822q0 .35.133.553.134.205.45.205h.79a.25.25 0 0 1 .184.072.25.25 0 0 1 .071.184v.891a.25.25 0 0 1-.071.184.25.25 0 0 1-.185.072zm2.312 0a.25.25 0 0 1-.184-.072.25.25 0 0 1-.072-.184v-4.813a.25.25 0 0 1 .072-.184.25.25 0 0 1 .184-.072h1.209q.102 0 .174.072.082.072.082.184v4.813a.23.23 0 0 1-.082.184.24.24 0 0 1-.174.072zm-.01-6.093a.25.25 0 0 1-.184-.071.25.25 0 0 1-.072-.185v-.911a.25.25 0 0 1 .072-.184.23.23 0 0 1 .184-.082h1.219q.112 0 .184.082a.23.23 0 0 1 .082.184v.911a.23.23 0 0 1-.082.184.25.25 0 0 1-.184.072zM48.444 61a.27.27 0 0 1-.184-.072.25.25 0 0 1-.072-.184v-3.727h-.778a.25.25 0 0 1-.184-.072.25.25 0 0 1-.072-.184v-.83a.25.25 0 0 1 .072-.184.25.25 0 0 1 .184-.072h.778v-.328q0-.696.267-1.116a1.52 1.52 0 0 1 .778-.614q.502-.195 1.198-.195h.799q.102 0 .174.072.082.073.082.184v.83a.23.23 0 0 1-.082.184.24.24 0 0 1-.174.072h-.717q-.348 0-.492.164-.133.164-.133.47v.277h1.24q.102 0 .173.072.082.072.082.184v.83a.23.23 0 0 1-.082.184.24.24 0 0 1-.174.072h-1.239v3.727a.25.25 0 0 1-.072.184.25.25 0 0 1-.184.072zm4.663 1.946a.21.21 0 0 1-.215-.215v-.062l.031-.072.799-1.925-1.966-4.649a.3.3 0 0 1-.031-.123.3.3 0 0 1 .082-.153.2.2 0 0 1 .154-.072h1.167q.134 0 .194.072.072.061.093.143l1.177 2.98 1.198-2.98a.6.6 0 0 1 .103-.143q.071-.072.204-.072h1.147q.093 0 .154.072.072.061.072.143 0 .052-.031.133l-2.898 6.708a.35.35 0 0 1-.102.143q-.072.072-.205.072z"/></g><defs><filter id="a" width="80" height="80" x="0" y="0" color-interpolation-filters="sRGB" filterUnits="userSpaceOnUse"><feFlood flood-opacity="0" result="BackgroundImageFix"/><feColorMatrix in="SourceAlpha" result="hardAlpha" values="0 0 0 0 0 0 0 0 0 0 0 0 0 0 0 0 0 0 127 0"/><feOffset dy="2"/><feGaussianBlur stdDeviation="4"/><feColorMatrix values="0 0 0 0 0 0 0 0 0 0 0 0 0 0 0 0 0 0 0.75 0"/><feBlend in2="BackgroundImageFix" result="effect1_dropShadow_602_1874"/><feBlend in="SourceGraphic" in2="effect1_dropShadow_602_1874" result="shape"/></filter></defs></svg>