<svg xmlns="http://www.w3.org/2000/svg" width="80" height="80" fill="none"><g filter="url(#a)"><rect width="64" height="64" x="8" y="6" fill="#212529" rx="5"/><path fill="#1abcfe" fill-rule="evenodd" d="M40 27a4 4 0 1 1 8 0 4 4 0 0 1-8 0" clip-rule="evenodd"/><path fill="#0acf83" fill-rule="evenodd" d="M32 35a4 4 0 0 1 4-4h4v4a4 4 0 0 1-8 0" clip-rule="evenodd"/><path fill="#ff7262" fill-rule="evenodd" d="M40 15v8h4a4 4 0 0 0 0-8z" clip-rule="evenodd"/><path fill="#f24e1e" fill-rule="evenodd" d="M32 19a4 4 0 0 0 4 4h4v-8h-4a4 4 0 0 0-4 4" clip-rule="evenodd"/><path fill="#a259ff" fill-rule="evenodd" d="M32 27a4 4 0 0 0 4 4h4v-8h-4a4 4 0 0 0-4 4" clip-rule="evenodd"/><path fill="#e5e5e5" d="M24.973 61a.25.25 0 0 1-.184-.072.25.25 0 0 1-.072-.184v-6.656a.25.25 0 0 1 .072-.184.25.25 0 0 1 .184-.072h4.7a.25.25 0 0 1 .184.072.23.23 0 0 1 .082.184v1.034a.23.23 0 0 1-.082.185.25.25 0 0 1-.184.071h-3.154v1.505h2.95q.112 0 .183.082.082.072.082.185v1.024q0 .102-.082.184a.25.25 0 0 1-.184.072H26.52v2.314a.25.25 0 0 1-.072.184.25.25 0 0 1-.184.072h-1.29Zm6.427 0a.25.25 0 0 1-.184-.072.25.25 0 0 1-.072-.184v-4.813a.25.25 0 0 1 .072-.184.25.25 0 0 1 .184-.072h1.209q.102 0 .174.072.081.072.081.184v4.813a.23.23 0 0 1-.081.184.24.24 0 0 1-.175.072zm-.01-6.093a.25.25 0 0 1-.184-.071.25.25 0 0 1-.072-.185v-.911a.25.25 0 0 1 .072-.184.23.23 0 0 1 .184-.082h1.218q.113 0 .185.082a.23.23 0 0 1 .082.184v.911a.23.23 0 0 1-.082.184.25.25 0 0 1-.184.072zm5.285 8.346q-.788 0-1.31-.205a2.6 2.6 0 0 1-.82-.492 2 2 0 0 1-.43-.573q-.132-.276-.143-.44a.21.21 0 0 1 .072-.185.28.28 0 0 1 .194-.071h1.3a.27.27 0 0 1 .154.04.33.33 0 0 1 .113.165q.05.112.133.235a.64.64 0 0 0 .246.195q.165.081.44.082.308 0 .512-.103a.6.6 0 0 0 .307-.317q.103-.215.103-.584v-.686a1.8 1.8 0 0 1-.604.42 2.3 2.3 0 0 1-.891.153q-.523 0-.922-.153a1.65 1.65 0 0 1-.665-.461 2.3 2.3 0 0 1-.42-.748 4 4 0 0 1-.174-1.013 7 7 0 0 1 0-.533q.03-.553.174-.993a2.2 2.2 0 0 1 .41-.758q.276-.318.675-.481a2.3 2.3 0 0 1 .922-.174q.552 0 .942.215.399.204.655.522v-.379q0-.102.072-.174a.23.23 0 0 1 .184-.082h1.178q.112 0 .184.082a.22.22 0 0 1 .082.174v4.926q0 .778-.317 1.31a2.03 2.03 0 0 1-.912.81q-.594.276-1.444.276m-.071-3.697q.328 0 .532-.143a.8.8 0 0 0 .297-.369q.102-.225.113-.481.01-.113.01-.318 0-.204-.01-.307a1.3 1.3 0 0 0-.113-.491.76.76 0 0 0-.297-.359q-.205-.143-.532-.143-.339 0-.543.143a.83.83 0 0 0-.287.39 2.2 2.2 0 0 0-.102.542q-.01.225 0 .461.021.297.102.543a.83.83 0 0 0 .287.389q.204.143.543.143M40.81 61a.25.25 0 0 1-.184-.072.25.25 0 0 1-.072-.184v-4.813a.25.25 0 0 1 .072-.184.25.25 0 0 1 .184-.072h1.116a.25.25 0 0 1 .185.072.25.25 0 0 1 .071.184v.348q.205-.276.574-.48a1.8 1.8 0 0 1 .87-.226q1.178-.02 1.618.89.235-.388.676-.634.44-.256.962-.256.533 0 .953.246.43.235.686.737.255.491.256 1.28v2.908a.23.23 0 0 1-.082.184.24.24 0 0 1-.174.072h-1.188a.28.28 0 0 1-.194-.072.25.25 0 0 1-.072-.184v-2.837q0-.357-.103-.563a.65.65 0 0 0-.276-.307.84.84 0 0 0-.768 0 .7.7 0 0 0-.287.307q-.102.206-.102.563v2.837a.25.25 0 0 1-.072.184.25.25 0 0 1-.184.072h-1.188a.25.25 0 0 1-.184-.072.25.25 0 0 1-.072-.184v-2.837q0-.357-.113-.563a.7.7 0 0 0-.286-.307.82.82 0 0 0-.758 0 .7.7 0 0 0-.287.307q-.102.205-.102.553v2.847a.23.23 0 0 1-.082.184.25.25 0 0 1-.184.072zm10.712.102q-.553 0-.994-.204a1.8 1.8 0 0 1-.686-.574 1.36 1.36 0 0 1-.256-.809q0-.727.594-1.147.594-.43 1.577-.583l1.28-.195v-.143q0-.369-.154-.564-.153-.194-.563-.194a.9.9 0 0 0-.47.113.8.8 0 0 0-.277.307.3.3 0 0 1-.256.133H50.17a.24.24 0 0 1-.174-.061.2.2 0 0 1-.051-.164q0-.184.133-.42.143-.246.43-.482.287-.235.737-.389.45-.153 1.086-.153.665 0 1.136.153.471.154.758.43.297.277.44.656.144.369.144.819v3.113a.23.23 0 0 1-.082.184.24.24 0 0 1-.174.072h-1.188a.25.25 0 0 1-.184-.072.25.25 0 0 1-.072-.184v-.358a1.5 1.5 0 0 1-.359.358 1.7 1.7 0 0 1-.532.256q-.297.102-.696.102m.48-1.167q.298 0 .533-.123a.9.9 0 0 0 .38-.4 1.5 1.5 0 0 0 .143-.685v-.144l-.87.154q-.483.082-.707.256-.216.164-.215.39a.45.45 0 0 0 .102.296.7.7 0 0 0 .266.195q.164.06.369.061Z"/></g><defs><filter id="a" width="80" height="80" x="0" y="0" color-interpolation-filters="sRGB" filterUnits="userSpaceOnUse"><feFlood flood-opacity="0" result="BackgroundImageFix"/><feColorMatrix in="SourceAlpha" result="hardAlpha" values="0 0 0 0 0 0 0 0 0 0 0 0 0 0 0 0 0 0 127 0"/><feOffset dy="2"/><feGaussianBlur stdDeviation="4"/><feColorMatrix values="0 0 0 0 0 0 0 0 0 0 0 0 0 0 0 0 0 0 0.75 0"/><feBlend in2="BackgroundImageFix" result="effect1_dropShadow_601_5176"/><feBlend in="SourceGraphic" in2="effect1_dropShadow_601_5176" result="shape"/></filter></defs></svg>