<svg width="64" height="64" viewBox="0 0 64 64" fill="none" xmlns="http://www.w3.org/2000/svg">
<path fill-rule="evenodd" clip-rule="evenodd" d="M15.5842 4H48.4205C51.9673 4 54.871 6.90363 54.871 10.4507V12.5654H9.13373V10.4507C9.13373 6.90387 12.0349 4 15.5842 4ZM7.51681 48.7233H25.6298C26.3239 48.7233 26.8907 49.2902 26.8907 49.9843V58.7391C26.8907 59.4332 26.3239 60 25.6298 60H7.51681C6.82273 60 6.25592 59.4332 6.25592 58.7391V49.9843C6.25592 49.2902 6.82506 48.7233 7.51681 48.7233ZM9.33066 58.1883H23.8207C24.3366 58.1883 24.753 57.7695 24.753 57.2559C24.753 56.7399 24.3366 56.3235 23.8207 56.3235L9.33066 56.3212C8.81473 56.3212 8.3983 56.7376 8.3983 57.2536C8.39598 57.7695 8.81474 58.1883 9.33066 58.1883ZM9.33066 55.2939H23.8207C24.3366 55.2939 24.753 54.8774 24.753 54.3615C24.753 53.8456 24.3366 53.4291 23.8207 53.4291L9.33066 53.4268C8.81473 53.4268 8.3983 53.8432 8.3983 54.3592C8.39598 54.8751 8.81474 55.2939 9.33066 55.2939ZM9.33066 52.4018H23.8207C24.3366 52.4018 24.753 51.983 24.753 51.4694C24.753 50.9535 24.3366 50.537 23.8207 50.537H9.33066C8.81473 50.537 8.3983 50.9558 8.3983 51.4694C8.39598 51.983 8.81474 52.4018 9.33066 52.4018ZM41.281 37.7839H58.082C59.137 37.7839 60 38.6468 60 39.7019V53.0079C60 54.0629 59.1371 54.926 58.082 54.926H41.281C40.226 54.926 39.363 54.063 39.363 53.0079V39.7019C39.363 38.6469 40.2259 37.7839 41.281 37.7839ZM42.4354 51.6845H56.9254C57.4414 51.6845 57.8578 51.2681 57.8578 50.7521C57.8578 50.2362 57.439 49.8197 56.9254 49.8197H42.4354C41.9195 49.8197 41.5031 50.2385 41.5031 50.7521C41.5031 51.2681 41.9218 51.6845 42.4354 51.6845ZM42.4354 47.2885H56.9254C57.4414 47.2885 57.8578 46.8698 57.8578 46.3561C57.8578 45.8402 57.439 45.4238 56.9254 45.4238L42.4354 45.4214C41.9195 45.4214 41.5031 45.8402 41.5031 46.3538C41.5031 46.8698 41.9218 47.2885 42.4354 47.2885ZM42.4354 42.8903H56.9254C57.4414 42.8903 57.8578 42.4738 57.8578 41.9579C57.8578 41.4419 57.439 41.0255 56.9254 41.0255L42.4354 41.0231C41.9195 41.0231 41.5031 41.4419 41.5031 41.9555C41.5031 42.4715 41.9218 42.8903 42.4354 42.8903ZM6.33919 17.9953H25.4886C26.7727 17.9953 27.823 19.0457 27.823 20.3298V28.9572L24.4614 24.906C22.599 22.6548 19.1911 22.671 17.3494 24.906L13.7147 29.3321L12.5741 27.9509C11.2045 26.292 8.68502 26.3082 7.33617 27.9509L4 32.0461L4.00231 20.3322C4.00231 19.0481 5.05514 17.9953 6.33919 17.9953ZM12.5119 30.8038L11.1399 29.1426C10.5199 28.3906 9.38627 28.3976 8.77546 29.1426L4.00255 35.0008V36.0558C4.00255 37.3213 5.02286 38.3602 6.28376 38.3903L12.5119 30.8038ZM27.8234 31.8796L23.025 26.0978C21.9122 24.7536 19.8855 24.7628 18.7866 26.0978L8.69479 38.3927H25.487C26.771 38.3927 27.8214 37.3424 27.8214 36.0583L27.8234 31.8796ZM13.4424 20.3689C12.1421 20.3689 11.0871 21.4239 11.0871 22.7242C11.0871 24.0245 12.1421 25.0796 13.4424 25.0796C14.7426 25.0796 15.7976 24.0246 15.7976 22.7242C15.7976 21.424 14.7426 20.3689 13.4424 20.3689ZM54.8691 14.4323H9.13414V16.1282H25.4886C27.8022 16.1282 29.6901 18.0162 29.6901 20.3299V36.056C29.6901 38.3696 27.8022 40.2577 25.4886 40.2577L9.13414 40.26V43.2886C9.13414 44.6051 9.53439 45.8336 10.2192 46.8562H25.632C27.2723 46.8562 28.6234 48.1287 28.7507 49.7368H37.4986L37.4963 39.7026C37.4963 37.618 39.1944 35.9198 41.2789 35.9198L54.8687 35.9175L54.8691 14.4323ZM37.3851 7.72509C36.8183 7.72509 36.3578 8.18551 36.3578 8.75006C36.3578 9.31691 36.8182 9.77735 37.3851 9.77735C37.9519 9.77735 38.4123 9.31693 38.4123 8.75006C38.4123 8.18321 37.9519 7.72509 37.3851 7.72509ZM48.3517 7.72509C47.7848 7.72509 47.3267 8.18551 47.3267 8.75006C47.3267 9.31691 47.7848 9.77735 48.3517 9.77735C48.9185 9.77735 49.3766 9.31693 49.3766 8.75006C49.3766 8.18321 48.9185 7.72509 48.3517 7.72509ZM42.8685 7.72509C42.3017 7.72509 41.8413 8.18551 41.8413 8.75006C41.8413 9.31691 42.3016 9.77735 42.8685 9.77735C43.4353 9.77735 43.8934 9.31693 43.8934 8.75006C43.8934 8.18321 43.4353 7.72509 42.8685 7.72509ZM13.0788 42.7774C12.5629 42.7774 12.1465 42.3609 12.1465 41.845C12.1465 41.329 12.5652 40.9126 13.0788 40.9126H23.5082C24.0241 40.9126 24.4406 41.329 24.4406 41.845C24.4406 42.3609 24.0218 42.7774 23.5082 42.7774H13.0788ZM13.0788 45.9355C12.5629 45.9355 12.1465 45.5167 12.1465 45.0031C12.1465 44.4872 12.5652 44.0707 13.0788 44.0707H23.5082C24.0241 44.0707 24.4406 44.4895 24.4406 45.0031C24.4406 45.519 24.0218 45.9355 23.5082 45.9355H13.0788ZM29.0081 40.8848H34.7018V46.5787H29.0081V40.8848ZM38.9032 16.809H47.586C48.5785 16.809 49.3906 17.6211 49.3906 18.6137V32.711C49.3906 33.7036 48.5785 34.5157 47.586 34.5157H38.9032C37.9107 34.5157 37.0986 33.7036 37.0986 32.711V18.6137C37.0986 17.6211 37.9107 16.809 38.9032 16.809ZM40.2127 20.5479C39.6967 20.5479 39.2803 20.1314 39.2803 19.6155C39.2803 19.0996 39.6991 18.6831 40.2127 18.6831H46.274C46.7899 18.6831 47.2064 19.0996 47.2064 19.6155C47.2064 20.1314 46.7899 20.5479 46.274 20.5479H40.2127ZM40.2127 24.5806C39.6967 24.5806 39.2803 24.1618 39.2803 23.6482C39.2803 23.1323 39.6991 22.7158 40.2127 22.7158H46.274C46.7899 22.7158 47.2064 23.1323 47.2064 23.6482C47.2064 24.1642 46.7899 24.5806 46.274 24.5806H40.2127ZM40.2127 28.611C39.6967 28.611 39.2803 28.1923 39.2803 27.6786C39.2803 27.1627 39.6991 26.7462 40.2127 26.7462H46.274C46.7899 26.7462 47.2064 27.1627 47.2064 27.6786C47.2064 28.1946 46.7899 28.611 46.274 28.611H40.2127ZM40.2127 32.6438C39.6967 32.6438 39.2803 32.225 39.2803 31.7114C39.2803 31.1954 39.6991 30.779 40.2127 30.779H46.274C46.7899 30.779 47.2064 31.1977 47.2064 31.7114C47.2064 32.2273 46.7899 32.6438 46.274 32.6438H40.2127Z" fill="url(#paint0_linear_5873_9961)"/>
<defs>
<linearGradient id="paint0_linear_5873_9961" x1="32" y1="4" x2="32" y2="60" gradientUnits="userSpaceOnUse">
<stop offset="0.25" stop-color="#3059E4"/>
<stop offset="1" stop-color="#CE009F"/>
</linearGradient>
</defs>
</svg>
