<svg xmlns="http://www.w3.org/2000/svg" width="80" height="80" fill="none"><g filter="url(#a)"><rect width="64" height="64" x="8" y="6" fill="#212529" rx="5"/><path fill="#e44d26" d="m30 39-2-25h24l-2 25-10 3z"/><path fill="#f16529" d="M50 16H40v24.5l8-2.5z"/><path fill="#fff" d="m33.5 28.5-1-9.5H48l-.5 3h-12l.5 3.5h11L46 35l-6 2-6-2-.5-5h3l.5 2.5 3 1 3-1 .5-4z"/><path fill="#e5e5e5" d="M28.473 61a.25.25 0 0 1-.184-.072.25.25 0 0 1-.072-.184v-6.656a.25.25 0 0 1 .072-.184.25.25 0 0 1 .184-.072h1.32a.25.25 0 0 1 .185.072.25.25 0 0 1 .072.184v2.468h2.529v-2.468a.25.25 0 0 1 .072-.184.25.25 0 0 1 .184-.072h1.321a.25.25 0 0 1 .184.072.25.25 0 0 1 .072.184v6.656a.25.25 0 0 1-.072.184.25.25 0 0 1-.184.072h-1.321a.25.25 0 0 1-.184-.072.25.25 0 0 1-.072-.184v-2.55h-2.53v2.55a.25.25 0 0 1-.07.184.25.25 0 0 1-.185.072zm9.985 0q-.656 0-1.137-.205a1.58 1.58 0 0 1-.727-.655q-.255-.45-.256-1.157v-1.966h-.798a.3.3 0 0 1-.195-.072.25.25 0 0 1-.072-.184v-.83a.25.25 0 0 1 .072-.184.3.3 0 0 1 .195-.072h.798v-1.69a.25.25 0 0 1 .072-.184.27.27 0 0 1 .184-.071h1.188a.25.25 0 0 1 .185.071.25.25 0 0 1 .071.185v1.69h1.28a.25.25 0 0 1 .184.07.25.25 0 0 1 .072.185v.83a.25.25 0 0 1-.072.184.25.25 0 0 1-.184.072h-1.28v1.822q0 .35.133.553.134.205.45.205h.79a.25.25 0 0 1 .184.072.25.25 0 0 1 .071.184v.891a.25.25 0 0 1-.071.184.25.25 0 0 1-.185.072zm2.312 0a.25.25 0 0 1-.184-.072.25.25 0 0 1-.072-.184v-4.813a.25.25 0 0 1 .072-.184.25.25 0 0 1 .184-.072h1.116a.25.25 0 0 1 .185.072.25.25 0 0 1 .071.184v.348q.205-.276.574-.48a1.8 1.8 0 0 1 .87-.226q1.178-.02 1.618.89.235-.388.676-.634.44-.256.962-.256.533 0 .953.246.43.235.686.737.256.491.256 1.28v2.908a.23.23 0 0 1-.082.184.24.24 0 0 1-.174.072h-1.188a.28.28 0 0 1-.194-.072.25.25 0 0 1-.072-.184v-2.837q0-.357-.103-.563a.65.65 0 0 0-.276-.307.84.84 0 0 0-.768 0 .7.7 0 0 0-.287.307q-.102.206-.102.563v2.837a.25.25 0 0 1-.072.184.25.25 0 0 1-.184.072h-1.188a.25.25 0 0 1-.184-.072.25.25 0 0 1-.072-.184v-2.837q0-.357-.113-.563a.7.7 0 0 0-.286-.307.82.82 0 0 0-.758 0 .7.7 0 0 0-.287.307q-.102.205-.102.553v2.847a.23.23 0 0 1-.082.184.25.25 0 0 1-.184.072zm9.37 0a.25.25 0 0 1-.184-.072.25.25 0 0 1-.072-.184v-6.758a.25.25 0 0 1 .072-.185.25.25 0 0 1 .184-.071h1.209a.25.25 0 0 1 .184.071.25.25 0 0 1 .072.185v6.758a.25.25 0 0 1-.072.184.25.25 0 0 1-.184.072z"/></g><defs><filter id="a" width="80" height="80" x="0" y="0" color-interpolation-filters="sRGB" filterUnits="userSpaceOnUse"><feFlood flood-opacity="0" result="BackgroundImageFix"/><feColorMatrix in="SourceAlpha" result="hardAlpha" values="0 0 0 0 0 0 0 0 0 0 0 0 0 0 0 0 0 0 127 0"/><feOffset dy="2"/><feGaussianBlur stdDeviation="4"/><feColorMatrix values="0 0 0 0 0 0 0 0 0 0 0 0 0 0 0 0 0 0 0.75 0"/><feBlend in2="BackgroundImageFix" result="effect1_dropShadow_601_5314"/><feBlend in="SourceGraphic" in2="effect1_dropShadow_601_5314" result="shape"/></filter></defs></svg>