<svg width="64" height="64" viewBox="0 0 64 64" fill="none" xmlns="http://www.w3.org/2000/svg">
<path d="M40 9.33333C36.8355 9.33333 33.7421 10.2717 31.1109 12.0298C28.4797 13.7879 26.4289 16.2868 25.2179 19.2104C24.0069 22.134 23.6901 25.3511 24.3074 28.4548C24.9248 31.5585 26.4487 34.4094 28.6863 36.647C30.9239 38.8847 33.7749 40.4085 36.8786 41.0259C39.9823 41.6433 43.1993 41.3264 46.1229 40.1154C49.0466 38.9044 51.5454 36.8536 53.3035 34.2225C55.0616 31.5913 56 28.4978 56 25.3333C56 21.0899 54.3143 17.0202 51.3137 14.0196C48.3131 11.019 44.2435 9.33333 40 9.33333ZM49.3333 26.6667H47.88C47.688 27.8505 47.2324 28.976 46.5467 29.96L47.5867 31.0133C47.7874 31.1957 47.9277 31.4348 47.9889 31.699C48.0502 31.9631 48.0295 32.2397 47.9295 32.4917C47.8296 32.7438 47.6551 32.9593 47.4295 33.1097C47.2039 33.2601 46.9378 33.3381 46.6667 33.3333C46.4903 33.3326 46.3157 33.2969 46.1532 33.2282C45.9907 33.1595 45.8435 33.0593 45.72 32.9333L44.6667 31.8933C43.6827 32.579 42.5572 33.0347 41.3733 33.2267V34.6667C41.3733 35.0203 41.2329 35.3594 40.9828 35.6095C40.7328 35.8595 40.3936 36 40.04 36C39.6864 36 39.3472 35.8595 39.0972 35.6095C38.8471 35.3594 38.7067 35.0203 38.7067 34.6667V33.2133C37.5228 33.0214 36.3973 32.5657 35.4133 31.88L34.36 32.92C34.2284 33.0584 34.0687 33.1669 33.8916 33.2382C33.7145 33.3095 33.5241 33.342 33.3333 33.3333C33.0696 33.3322 32.8122 33.253 32.5935 33.1055C32.3749 32.9581 32.2049 32.7492 32.105 32.5051C32.0051 32.2611 31.9798 31.9929 32.0323 31.7345C32.0848 31.4761 32.2128 31.239 32.4 31.0533L33.44 30C32.7543 29.016 32.2986 27.8905 32.1067 26.7067H30.6667C30.313 26.7067 29.9739 26.5662 29.7239 26.3161C29.4738 26.0661 29.3333 25.727 29.3333 25.3733C29.3333 25.0197 29.4738 24.6806 29.7239 24.4305C29.9739 24.1805 30.313 24.04 30.6667 24.04H32.16C32.352 22.8562 32.8077 21.7306 33.4933 20.7467L32.4533 19.6933C32.3138 19.5738 32.2004 19.4267 32.1204 19.2613C32.0403 19.0959 31.9954 18.9157 31.9883 18.7321C31.9812 18.5484 32.0121 18.3653 32.0792 18.1942C32.1462 18.0231 32.2479 17.8677 32.3778 17.7378C32.5077 17.6079 32.6631 17.5062 32.8342 17.4392C33.0053 17.3721 33.1884 17.3412 33.3721 17.3483C33.5557 17.3554 33.7359 17.4003 33.9013 17.4804C34.0667 17.5604 34.2138 17.6738 34.3333 17.8133L35.3867 18.8533C36.3706 18.1677 37.4962 17.712 38.68 17.52V16C38.68 15.6464 38.8205 15.3072 39.0705 15.0572C39.3206 14.8071 39.6597 14.6667 40.0133 14.6667C40.367 14.6667 40.7061 14.8071 40.9561 15.0572C41.2062 15.3072 41.3467 15.6464 41.3467 16V17.4933C42.5305 17.6853 43.656 18.141 44.64 18.8267L45.6933 17.7867C45.8129 17.6471 45.96 17.5337 46.1254 17.4537C46.2908 17.3737 46.471 17.3287 46.6546 17.3216C46.8382 17.3145 47.0213 17.3455 47.1924 17.4125C47.3635 17.4795 47.5189 17.5812 47.6489 17.7111C47.7788 17.8411 47.8805 17.9965 47.9475 18.1676C48.0146 18.3387 48.0455 18.5218 48.0384 18.7054C48.0313 18.889 47.9863 19.0692 47.9063 19.2346C47.8263 19.4 47.7129 19.5471 47.5733 19.6667L46.5333 20.72C47.219 21.704 47.6747 22.8295 47.8667 24.0133H49.3333C49.687 24.0133 50.0261 24.1538 50.2761 24.4039C50.5262 24.6539 50.6667 24.993 50.6667 25.3467C50.6667 25.7003 50.5262 26.0394 50.2761 26.2895C50.0261 26.5395 49.687 26.68 49.3333 26.68V26.6667ZM40 20C38.9452 20 37.914 20.3128 37.037 20.8988C36.1599 21.4849 35.4763 22.3178 35.0726 23.2924C34.669 24.2669 34.5634 25.3393 34.7691 26.3738C34.9749 27.4084 35.4829 28.3587 36.2288 29.1046C36.9746 29.8504 37.925 30.3584 38.9595 30.5642C39.9941 30.77 41.0664 30.6644 42.041 30.2607C43.0155 29.857 43.8485 29.1734 44.4345 28.2964C45.0205 27.4193 45.3333 26.3882 45.3333 25.3333C45.3333 23.9188 44.7714 22.5623 43.7712 21.5621C42.771 20.5619 41.4145 20 40 20ZM40 28C39.4726 28 38.957 27.8436 38.5185 27.5506C38.0799 27.2576 37.7382 26.8411 37.5363 26.3538C37.3345 25.8666 37.2817 25.3304 37.3846 24.8131C37.4875 24.2958 37.7414 23.8207 38.1144 23.4477C38.4873 23.0748 38.9625 22.8208 39.4798 22.7179C39.997 22.615 40.5332 22.6678 41.0205 22.8697C41.5078 23.0715 41.9242 23.4133 42.2173 23.8518C42.5103 24.2903 42.6667 24.8059 42.6667 25.3333C42.6667 26.0406 42.3857 26.7189 41.8856 27.219C41.3855 27.719 40.7072 28 40 28ZM40 6.66667C41.8066 6.66792 43.6033 6.93294 45.3333 7.45333V5.33333C45.3333 4.97971 45.1929 4.64057 44.9428 4.39052C44.6928 4.14048 44.3536 4 44 4H21.3333V16C21.3333 16.3536 21.1929 16.6928 20.9428 16.9428C20.6928 17.1929 20.3536 17.3333 20 17.3333H8V58.6667C8 59.0203 8.14048 59.3594 8.39052 59.6095C8.64057 59.8595 8.97971 60 9.33333 60H44C44.3536 60 44.6928 59.8595 44.9428 59.6095C45.1929 59.3594 45.3333 59.0203 45.3333 58.6667V43.2133C42.7648 43.9836 40.0604 44.1914 37.4044 43.8226C34.7483 43.4538 32.2028 42.5171 29.9413 41.0762C27.6798 39.6353 25.7552 37.7241 24.2986 35.4726C22.8421 33.2212 21.8877 30.6823 21.5005 28.0288C21.1133 25.3754 21.3023 22.6696 22.0547 20.0958C22.8071 17.522 24.1052 15.1405 25.8606 13.1134C27.6161 11.0863 29.7877 9.46118 32.2276 8.34873C34.6675 7.23628 37.3184 6.66257 40 6.66667ZM36 56H17.3333C16.9797 56 16.6406 55.8595 16.3905 55.6095C16.1405 55.3594 16 55.0203 16 54.6667C16 54.313 16.1405 53.9739 16.3905 53.7239C16.6406 53.4738 16.9797 53.3333 17.3333 53.3333H36C36.3536 53.3333 36.6928 53.4738 36.9428 53.7239C37.1929 53.9739 37.3333 54.313 37.3333 54.6667C37.3333 55.0203 37.1929 55.3594 36.9428 55.6095C36.6928 55.8595 36.3536 56 36 56ZM36 48C36.3536 48 36.6928 48.1405 36.9428 48.3905C37.1929 48.6406 37.3333 48.9797 37.3333 49.3333C37.3333 49.687 37.1929 50.0261 36.9428 50.2761C36.6928 50.5262 36.3536 50.6667 36 50.6667H17.3333C16.9797 50.6667 16.6406 50.5262 16.3905 50.2761C16.1405 50.0261 16 49.687 16 49.3333C16 48.9797 16.1405 48.6406 16.3905 48.3905C16.6406 48.1405 16.9797 48 17.3333 48H36ZM18.6667 14.6667H8.78667L18.6667 4.78667V14.6667Z" fill="url(#paint0_linear_5873_9958)"/>
<defs>
<linearGradient id="paint0_linear_5873_9958" x1="32" y1="4" x2="32" y2="60" gradientUnits="userSpaceOnUse">
<stop offset="0.25" stop-color="#3059E4"/>
<stop offset="1" stop-color="#CE009F"/>
</linearGradient>
</defs>
</svg>
