<svg xmlns="http://www.w3.org/2000/svg" width="80" height="80" fill="none"><g filter="url(#a)"><rect width="64" height="64" x="8" y="6" fill="#212529" rx="5"/><mask id="b" width="28" height="30" x="26" y="12" maskUnits="userSpaceOnUse" style="mask-type:luminance"><path fill="#fff" d="M39.297 12.361 27.674 19.07a1.4 1.4 0 0 0-.702 1.215v13.426c0 .502.267.965.702 1.216l11.623 6.714a1.4 1.4 0 0 0 1.405 0l11.62-6.714a1.4 1.4 0 0 0 .702-1.216V20.285c0-.5-.268-.964-.704-1.215L40.7 12.36a1.41 1.41 0 0 0-1.407 0"/></mask><g mask="url(#b)"><path fill="url(#c)" d="M64.769 17.93 32.019 1.879 15.225 36.134l32.75 16.054L64.768 17.93Z"/></g><mask id="d" width="26" height="30" x="27" y="12" maskUnits="userSpaceOnUse" style="mask-type:luminance"><path fill="#fff" d="M27.26 34.564c.11.144.25.269.414.363l9.97 5.759 1.66.954a1.4 1.4 0 0 0 1.086.133l12.258-22.445a1.4 1.4 0 0 0-.327-.26l-7.61-4.394-4.023-2.314a1.5 1.5 0 0 0-.364-.147z"/></mask><g mask="url(#d)"><path fill="url(#e)" d="m13.1 22.678 23.125 31.299 30.583-22.596L43.682.084z"/></g><mask id="f" width="27" height="30" x="27" y="12" maskUnits="userSpaceOnUse" style="mask-type:luminance"><path fill="#fff" d="M39.858 12.181c-.197.02-.389.082-.561.18l-11.59 6.69 12.498 22.761c.173-.024.344-.082.499-.172l11.622-6.713a1.4 1.4 0 0 0 .679-.96l-12.74-21.763a1.5 1.5 0 0 0-.284-.028l-.116.005"/></mask><g mask="url(#f)"><path fill="url(#g)" d="M27.707 12.176v29.637H53V12.176z"/></g><path fill="#e5e5e5" d="M27.473 61a.25.25 0 0 1-.184-.072.25.25 0 0 1-.072-.184v-6.656a.25.25 0 0 1 .072-.184.25.25 0 0 1 .184-.072h1.085q.174 0 .246.082a.5.5 0 0 1 .102.113l2.499 3.942v-3.881a.25.25 0 0 1 .072-.184.25.25 0 0 1 .184-.072h1.229a.25.25 0 0 1 .184.072.25.25 0 0 1 .072.184v6.656a.27.27 0 0 1-.072.184.25.25 0 0 1-.184.072h-1.096q-.164 0-.246-.082a1 1 0 0 1-.092-.113l-2.498-3.788v3.727a.25.25 0 0 1-.072.184.25.25 0 0 1-.184.072zm9.51.102q-.86 0-1.454-.276a2.1 2.1 0 0 1-.901-.789q-.307-.521-.348-1.239a9 9 0 0 1 0-.921q.04-.727.368-1.24.329-.51.912-.788.594-.276 1.423-.276.84 0 1.424.276.594.277.921.789t.369 1.239a9 9 0 0 1 0 .922q-.041.716-.359 1.238a2 2 0 0 1-.9.789q-.585.276-1.455.276m0-1.249q.461 0 .666-.276.214-.277.246-.83.01-.153.01-.41 0-.256-.01-.409-.03-.543-.246-.82-.206-.286-.666-.286-.45 0-.665.287-.216.276-.236.819-.01.153-.01.41 0 .255.01.41.02.552.236.829.215.276.665.276m5.718 1.25q-.492 0-.891-.154a1.95 1.95 0 0 1-.676-.471 2.3 2.3 0 0 1-.43-.758 3.6 3.6 0 0 1-.174-1.024 7 7 0 0 1 0-.717q.021-.553.174-.993.154-.44.43-.758a1.8 1.8 0 0 1 .676-.481q.4-.174.89-.174a2.05 2.05 0 0 1 1.506.604v-2.191a.25.25 0 0 1 .072-.185.25.25 0 0 1 .184-.071h1.25q.102 0 .173.071.082.072.082.185v6.758a.23.23 0 0 1-.082.184.24.24 0 0 1-.174.072h-1.157a.25.25 0 0 1-.184-.072.25.25 0 0 1-.072-.184v-.328a1.9 1.9 0 0 1-.635.492q-.39.195-.962.194Zm.553-1.373q.348 0 .542-.143a.9.9 0 0 0 .297-.39q.103-.235.113-.511a8 8 0 0 0 0-.768 1.2 1.2 0 0 0-.113-.471.83.83 0 0 0-.307-.359q-.204-.143-.532-.143-.339 0-.543.143a.77.77 0 0 0-.276.39 2.2 2.2 0 0 0-.103.542q-.03.318 0 .635.021.297.102.543a.77.77 0 0 0 .277.389q.204.143.543.143m6.378 1.372q-1.209 0-1.925-.655-.717-.655-.748-1.946v-.358q.03-.81.358-1.382.339-.584.922-.881.594-.307 1.383-.307.9 0 1.484.358.594.359.891.973t.297 1.403v.246a.23.23 0 0 1-.082.184.24.24 0 0 1-.174.072h-3.277v.071q.01.298.103.543a.77.77 0 0 0 .758.532.8.8 0 0 0 .337-.06q.143-.073.236-.155a2 2 0 0 0 .143-.153.5.5 0 0 1 .144-.123q.06-.03.184-.03h1.27q.102 0 .164.06.071.052.061.154-.01.174-.174.42a2.2 2.2 0 0 1-.481.492 2.6 2.6 0 0 1-.779.389 3.6 3.6 0 0 1-1.095.153m-.87-3.307h1.73v-.02q0-.329-.102-.574a.75.75 0 0 0-.297-.379.8.8 0 0 0-.472-.133.8.8 0 0 0-.47.133.86.86 0 0 0-.287.379 1.5 1.5 0 0 0-.103.573v.02Z"/></g><defs><linearGradient id="c" x1="48.384" x2="31.593" y1="9.879" y2="44.133" gradientUnits="userSpaceOnUse"><stop offset=".3" stop-color="#3e863d"/><stop offset=".5" stop-color="#55934f"/><stop offset=".8" stop-color="#5aad45"/></linearGradient><linearGradient id="e" x1="24.801" x2="55.385" y1="38.507" y2="15.909" gradientUnits="userSpaceOnUse"><stop offset=".57" stop-color="#3e863d"/><stop offset=".72" stop-color="#619857"/><stop offset="1" stop-color="#76ac64"/></linearGradient><linearGradient id="g" x1="27.716" x2="53.005" y1="26.995" y2="26.995" gradientUnits="userSpaceOnUse"><stop offset=".16" stop-color="#6bbf47"/><stop offset=".38" stop-color="#79b461"/><stop offset=".47" stop-color="#75ac64"/><stop offset=".7" stop-color="#659e5a"/><stop offset=".9" stop-color="#3e863d"/></linearGradient><filter id="a" width="80" height="80" x="0" y="0" color-interpolation-filters="sRGB" filterUnits="userSpaceOnUse"><feFlood flood-opacity="0" result="BackgroundImageFix"/><feColorMatrix in="SourceAlpha" result="hardAlpha" values="0 0 0 0 0 0 0 0 0 0 0 0 0 0 0 0 0 0 127 0"/><feOffset dy="2"/><feGaussianBlur stdDeviation="4"/><feColorMatrix values="0 0 0 0 0 0 0 0 0 0 0 0 0 0 0 0 0 0 0.75 0"/><feBlend in2="BackgroundImageFix" result="effect1_dropShadow_602_1575"/><feBlend in="SourceGraphic" in2="effect1_dropShadow_602_1575" result="shape"/></filter></defs></svg>