<svg xmlns="http://www.w3.org/2000/svg" width="80" height="80" fill="none"><g filter="url(#a)"><rect width="64" height="64" x="8" y="6" fill="#212529" rx="5"/><path fill="#fff" fill-rule="evenodd" d="m29.716 40.218-3.44-4.285A5.75 5.75 0 0 1 25 32.33V16.815c0-1.954 1.564-3.576 3.58-3.714l15.952-1.089a5.2 5.2 0 0 1 3.263.873l5.604 3.789A3.59 3.59 0 0 1 55 19.644v17.64c0 1.912-1.537 3.495-3.512 3.617l-17.705 1.09c-1.576.097-3.099-.567-4.067-1.773" clip-rule="evenodd"/><path fill="#000" d="M35.248 24.579v-.203c0-.515.413-.942.944-.978l3.871-.258 5.354 7.884v-6.92l-1.378-.183v-.097c0-.52.422-.95.96-.978l3.523-.18v.506a.495.495 0 0 1-.42.483l-.848.143v11.206l-1.063.366c-.89.305-1.879-.022-2.387-.79l-5.198-7.843v7.486l1.6.306-.022.149c-.07.464-.472.816-.957.838l-3.979.177c-.052-.5.322-.947.839-1.002l.523-.055v-9.98z"/><path fill="#000" fill-rule="evenodd" d="m44.675 13.967-15.951 1.089c-.956.065-1.697.833-1.697 1.759V32.33c0 .87.3 1.715.851 2.402l3.44 4.285a2.78 2.78 0 0 0 2.336 1.018l17.705-1.09c.907-.056 1.613-.783 1.613-1.662V19.644a1.65 1.65 0 0 0-.735-1.364l-5.605-3.79a3.12 3.12 0 0 0-1.957-.523m-15.16 3.09c-.222-.164-.117-.506.162-.526l15.105-1.084a2.08 2.08 0 0 1 1.349.374l3.03 2.147a.145.145 0 0 1-.08.265l-15.997.87a2.08 2.08 0 0 1-1.347-.4zm2.819 4.774c0-.52.42-.95.956-.979l16.913-.92c.523-.029.964.373.964.88v15.273c0 .519-.419.948-.954.978l-16.806.956c-.582.034-1.073-.414-1.073-.977V21.83Z" clip-rule="evenodd"/><path fill="#e5e5e5" d="M26.778 60a.2.2 0 0 1-.147-.057.2.2 0 0 1-.058-.148v-5.323a.2.2 0 0 1 .058-.148.2.2 0 0 1 .147-.057h.868q.14 0 .197.066a.4.4 0 0 1 .082.09l1.998 3.153v-3.104a.2.2 0 0 1 .057-.148.2.2 0 0 1 .148-.057h.983a.2.2 0 0 1 .147.057.2.2 0 0 1 .057.148v5.323a.22.22 0 0 1-.057.148.2.2 0 0 1-.147.057h-.877q-.131 0-.196-.066a1 1 0 0 1-.074-.09l-1.998-3.03v2.981a.2.2 0 0 1-.058.148.2.2 0 0 1-.147.057zm7.607.082q-.69 0-1.163-.221a1.66 1.66 0 0 1-.721-.63 2.2 2.2 0 0 1-.279-.992 7 7 0 0 1 0-.737q.033-.582.295-.99.262-.41.73-.632.474-.22 1.138-.22.671 0 1.138.22.475.222.737.631t.295.991a7 7 0 0 1 0 .737 2.1 2.1 0 0 1-.287.991 1.6 1.6 0 0 1-.72.63q-.468.222-1.163.222m0-1q.368 0 .532-.22.171-.222.196-.664.009-.122.009-.327c0-.205-.003-.246-.009-.328q-.024-.435-.196-.655-.165-.23-.532-.23-.36 0-.533.23-.171.221-.188.655a5 5 0 0 0-.008.328q0 .204.008.327.015.442.188.664.172.22.533.22M39.53 60a2.3 2.3 0 0 1-.909-.164 1.26 1.26 0 0 1-.581-.524q-.205-.36-.205-.925v-1.573h-.64a.23.23 0 0 1-.155-.057.2.2 0 0 1-.057-.148v-.663a.2.2 0 0 1 .057-.148.23.23 0 0 1 .156-.057h.639V54.39a.2.2 0 0 1 .057-.148.22.22 0 0 1 .148-.057h.95a.2.2 0 0 1 .147.057.2.2 0 0 1 .057.148v1.351h1.024a.2.2 0 0 1 .148.057.2.2 0 0 1 .057.148v.663a.2.2 0 0 1-.057.148.2.2 0 0 1-.148.057h-1.024v1.458a.8.8 0 0 0 .107.442q.105.164.36.164h.63a.2.2 0 0 1 .148.057.2.2 0 0 1 .058.148v.712a.2.2 0 0 1-.058.148.2.2 0 0 1-.147.057zm1.85 0a.2.2 0 0 1-.148-.057.2.2 0 0 1-.057-.148v-3.85a.2.2 0 0 1 .057-.147.2.2 0 0 1 .147-.057h.967a.2.2 0 0 1 .139.057.2.2 0 0 1 .066.148v3.85q0 .09-.066.147a.2.2 0 0 1-.14.057h-.966Zm-.009-4.873a.2.2 0 0 1-.147-.057.2.2 0 0 1-.058-.148v-.729a.2.2 0 0 1 .058-.147.2.2 0 0 1 .147-.066h.975q.09 0 .147.066a.2.2 0 0 1 .066.147v.73q0 .09-.066.147a.2.2 0 0 1-.147.057zm4.194 4.955q-.689 0-1.163-.221a1.66 1.66 0 0 1-.72-.63 2.2 2.2 0 0 1-.28-.992 8 8 0 0 1 0-.737q.033-.582.296-.99a1.7 1.7 0 0 1 .728-.632q.476-.22 1.139-.22.671 0 1.138.22.476.222.737.631.262.41.295.991a7 7 0 0 1 0 .737 2.1 2.1 0 0 1-.286.991 1.6 1.6 0 0 1-.721.63q-.468.222-1.163.222m0-1q.368 0 .532-.22.172-.222.197-.664.008-.122.008-.327c0-.205-.003-.246-.008-.328q-.025-.435-.197-.655-.164-.23-.532-.23-.36 0-.533.23-.171.221-.188.655a5 5 0 0 0-.008.328q0 .204.008.327.017.442.188.664.172.22.533.22m3.189.918a.2.2 0 0 1-.148-.057.2.2 0 0 1-.057-.148v-3.85a.2.2 0 0 1 .057-.147.2.2 0 0 1 .148-.057h.941a.2.2 0 0 1 .148.057.2.2 0 0 1 .057.148v.311q.213-.254.557-.426t.81-.172q.477 0 .836.213.369.213.574.63.213.411.213 1.008v2.285q0 .09-.066.148a.2.2 0 0 1-.14.057h-1.031a.22.22 0 0 1-.148-.057.2.2 0 0 1-.057-.148V57.56q0-.384-.188-.59-.18-.212-.54-.212a.72.72 0 0 0-.541.213q-.197.204-.197.59v2.235a.2.2 0 0 1-.065.148.2.2 0 0 1-.14.057h-1.023Z"/></g><defs><filter id="a" width="80" height="80" x="0" y="0" color-interpolation-filters="sRGB" filterUnits="userSpaceOnUse"><feFlood flood-opacity="0" result="BackgroundImageFix"/><feColorMatrix in="SourceAlpha" result="hardAlpha" values="0 0 0 0 0 0 0 0 0 0 0 0 0 0 0 0 0 0 127 0"/><feOffset dy="2"/><feGaussianBlur stdDeviation="4"/><feColorMatrix values="0 0 0 0 0 0 0 0 0 0 0 0 0 0 0 0 0 0 0.75 0"/><feBlend in2="BackgroundImageFix" result="effect1_dropShadow_602_915"/><feBlend in="SourceGraphic" in2="effect1_dropShadow_602_915" result="shape"/></filter></defs></svg>