<svg width="64" height="64" viewBox="0 0 64 64" fill="none" xmlns="http://www.w3.org/2000/svg">
<path d="M24.6257 10.3981L22.3615 9.23463L31.6073 4.22652C32.1672 3.92449 32.8351 3.92449 33.3951 4.22652L34.9692 5.08063L24.6257 10.3981ZM21.7746 23.8033L31.583 28.8436V16.0519L29.1691 14.8117V17.8047C29.1691 18.3468 28.8204 18.8148 28.3047 18.9657C28.1917 18.9979 28.0763 19.0152 27.9633 19.0152C27.5606 19.0152 27.1824 18.8122 26.9565 18.4533L26.1313 17.1462L25.4732 17.5175C25.0901 17.7254 24.653 17.718 24.2895 17.4977C23.9261 17.2798 23.71 16.8961 23.71 16.4728V12.0043L21.2961 10.7641V22.9835C21.2961 23.335 21.4827 23.6568 21.7749 23.8054L21.7746 23.8033ZM25.5466 15.3642C26.163 15.0894 26.8727 15.2256 27.3368 15.6836V13.3565C27.3221 13.0941 27.4154 12.8267 27.6192 12.6312H27.6217C27.634 12.6188 27.6487 12.6089 27.661 12.599C27.6684 12.5916 27.6757 12.5866 27.6831 12.5792C27.715 12.552 27.7494 12.5297 27.7862 12.5074C27.7961 12.5 27.8059 12.495 27.8182 12.4876C27.8255 12.4851 27.8304 12.4802 27.8353 12.4777L38.4905 6.99179L36.9385 6.1501L25.5465 12.0049V15.3668L25.5466 15.3642ZM32.5009 14.4458L42.6355 9.23463L40.4548 8.05376L30.2686 13.2995L32.5009 14.4458ZM33.4193 16.05L43.7061 10.762V22.9814C43.7061 23.3355 43.5194 23.6523 43.2223 23.8058L33.4189 28.8437L33.4193 16.05ZM34.8853 22.5561C35.04 22.8977 35.3715 23.1007 35.7227 23.1007C35.8504 23.1007 35.9781 23.0735 36.1009 23.019L38.9053 21.7367C39.3669 21.5262 39.5708 20.9767 39.362 20.5112C39.1533 20.0458 38.6081 19.8404 38.1464 20.0508L35.342 21.3331C34.8804 21.5435 34.6765 22.0931 34.8853 22.5585L34.8853 22.5561ZM34.7429 25.7546C34.8976 26.0962 35.2291 26.2967 35.5778 26.2967C35.7055 26.2967 35.8332 26.2695 35.9584 26.2125L38.7628 24.9253C39.2245 24.7124 39.4283 24.1653 39.2171 23.6998C39.006 23.2344 38.4633 23.029 38.0016 23.2419L35.1972 24.5291C34.7355 24.742 34.5317 25.2891 34.7429 25.7546ZM31.0421 39.3112L12.9021 31.1713L9 36.5904L26.6666 44.8393L31.0402 39.3113L31.0421 39.3112ZM38.3334 44.8392L56 36.5903L52.0979 31.1712L33.9579 39.3111L38.3315 44.8392L38.3334 44.8392ZM26.9363 46.9113C26.8062 46.9113 26.676 46.8841 26.5508 46.8246L13.5136 40.7396V52.0679L31.5826 60V41.599L27.6535 46.565C27.4742 46.7903 27.209 46.9141 26.9364 46.9141L26.9363 46.9113ZM38.4509 46.8246L51.4881 40.7396V52.0679L33.4191 60V41.599L37.3482 46.565C37.5275 46.7903 37.7927 46.9141 38.0653 46.9141C38.1954 46.9141 38.3256 46.8868 38.4508 46.8274L38.4509 46.8246ZM40.8919 52.2115L35.7226 54.3777C35.2535 54.5733 35.0325 55.1155 35.2265 55.5883C35.3739 55.9448 35.7152 56.1577 36.0738 56.1577C36.1917 56.1577 36.3095 56.1354 36.4249 56.0859L41.5942 53.9197C42.0633 53.7242 42.2843 53.182 42.0903 52.7092C41.8963 52.2363 41.3585 52.0135 40.8894 52.2091L40.8919 52.2115ZM40.8526 27.1016L33.694 30.7803C33.333 30.971 32.918 31.0725 32.5006 31.0725C32.0831 31.0725 31.6681 30.9685 31.2972 30.7754L24.1462 27.1016L15.1237 30.1466L32.498 37.9424L49.8723 30.1466L40.8498 27.1041L40.8526 27.1016Z" fill="url(#paint0_linear_5873_9955)"/>
<defs>
<linearGradient id="paint0_linear_5873_9955" x1="32.5" y1="4" x2="32.5" y2="60" gradientUnits="userSpaceOnUse">
<stop offset="0.25" stop-color="#3059E4"/>
<stop offset="1" stop-color="#CE009F"/>
</linearGradient>
</defs>
</svg>
