<svg xmlns="http://www.w3.org/2000/svg" width="80" height="80" fill="none"><g filter="url(#a)"><rect width="64" height="64" x="8" y="6" fill="#212529" rx="5"/><path fill="#001e36" d="M26 23.133c0-3.547 0-5.32.69-6.675a6.33 6.33 0 0 1 2.768-2.768c1.355-.69 3.128-.69 6.675-.69h7.734c3.547 0 5.32 0 6.675.69a6.33 6.33 0 0 1 2.768 2.768c.69 1.355.69 3.128.69 6.675v7.734c0 3.547 0 5.32-.69 6.675a6.33 6.33 0 0 1-2.768 2.768c-1.355.69-3.128.69-6.675.69h-7.734c-3.547 0-5.32 0-6.675-.69a6.33 6.33 0 0 1-2.768-2.768C26 36.187 26 34.414 26 30.867z"/><path fill="#31a8ff" d="M32 33.516V21.203c0-.083.035-.131.117-.131 1.205 0 2.41-.072 3.616-.072 1.957 0 4.076.67 4.819 2.716.175.503.268 1.017.268 1.556q0 1.543-.7 2.549c-1.304 1.871-3.563 1.842-5.588 1.842v3.841c.016.114-.081.168-.175.168H32.14c-.093 0-.14-.048-.14-.156m2.543-10.135v4.02c.803.06 1.644.066 2.415-.19.852-.246 1.319-.984 1.319-1.867.023-.753-.387-1.476-1.085-1.747-.763-.317-1.826-.336-2.649-.216m13.554 3.227a4.3 4.3 0 0 0-1.118-.405c-.5-.118-2.47-.53-2.47.5.018.576.93.858 1.334 1.022 1.416.486 3.018 1.355 2.986 3.101.044 2.175-2.063 3.044-3.87 3.044-.94.01-1.919-.136-2.779-.54a.26.26 0 0 1-.132-.23v-2.08c-.009-.084.08-.157.15-.097.844.51 1.843.757 2.818.77.43 0 1.284-.041 1.278-.674 0-.607-1.021-.886-1.428-1.04a6.8 6.8 0 0 1-1.662-.867 2.7 2.7 0 0 1-1.156-2.235c-.004-2.047 1.936-2.966 3.682-2.967.817-.006 1.693.054 2.453.386.11.032.132.147.132.25v1.946c.007.12-.127.162-.218.116"/><path fill="#e5e5e5" d="M18.278 60a.2.2 0 0 1-.147-.057.2.2 0 0 1-.058-.148v-5.323a.2.2 0 0 1 .058-.148.2.2 0 0 1 .147-.057h2.293q.68 0 1.18.213.507.205.786.622.286.418.287 1.057 0 .63-.287 1.04a1.63 1.63 0 0 1-.786.606q-.5.197-1.18.197h-.974v1.793q0 .09-.066.148a.2.2 0 0 1-.147.057zm1.294-3.129h.958q.352 0 .557-.18.213-.18.213-.549a.78.78 0 0 0-.18-.524q-.18-.213-.59-.213h-.958zM23.722 60a.2.2 0 0 1-.147-.057.2.2 0 0 1-.057-.148V54.39a.2.2 0 0 1 .057-.148.2.2 0 0 1 .148-.057h1.048a.2.2 0 0 1 .147.057.2.2 0 0 1 .058.148v1.826q.22-.254.54-.401.328-.156.754-.156.475 0 .843.213.377.213.59.63.213.411.213 1.008v2.285a.2.2 0 0 1-.057.148.2.2 0 0 1-.148.057h-1.056a.22.22 0 0 1-.148-.057.2.2 0 0 1-.057-.148V57.56q0-.384-.188-.59-.18-.212-.541-.212a.72.72 0 0 0-.54.213q-.205.204-.205.59v2.235a.2.2 0 0 1-.058.148.2.2 0 0 1-.147.057h-1.048Zm7.137.082q-.687 0-1.163-.221a1.66 1.66 0 0 1-.72-.63 2.2 2.2 0 0 1-.279-.992 8 8 0 0 1 0-.737q.033-.582.295-.99.263-.41.729-.632.475-.22 1.138-.22.671 0 1.139.22.474.222.737.631.262.41.295.991a7 7 0 0 1 0 .737 2.1 2.1 0 0 1-.287.991 1.6 1.6 0 0 1-.72.63q-.468.222-1.164.222m0-1q.368 0 .533-.22.172-.222.196-.664.008-.122.008-.327c0-.205-.002-.246-.008-.328q-.024-.435-.196-.655-.165-.23-.533-.23-.36 0-.532.23-.173.221-.188.655a5 5 0 0 0-.009.328q0 .204.009.327.015.442.188.664.172.22.532.22m5.147.918a2.3 2.3 0 0 1-.91-.164 1.26 1.26 0 0 1-.58-.524q-.206-.36-.206-.925v-1.573h-.638a.23.23 0 0 1-.156-.057.2.2 0 0 1-.057-.148v-.663a.2.2 0 0 1 .057-.148.23.23 0 0 1 .156-.057h.639V54.39a.2.2 0 0 1 .057-.148.22.22 0 0 1 .147-.057h.95a.2.2 0 0 1 .148.057.2.2 0 0 1 .057.148v1.351h1.024a.2.2 0 0 1 .147.057.2.2 0 0 1 .058.148v.663a.2.2 0 0 1-.058.148.2.2 0 0 1-.147.057H35.67v1.458a.8.8 0 0 0 .107.442q.105.164.36.164h.63a.2.2 0 0 1 .148.057.2.2 0 0 1 .057.148v.712a.2.2 0 0 1-.057.148.2.2 0 0 1-.148.057zm3.66.082q-.69 0-1.164-.221a1.66 1.66 0 0 1-.72-.63 2.2 2.2 0 0 1-.279-.992 7 7 0 0 1 0-.737q.033-.582.295-.99.261-.41.729-.632.475-.22 1.138-.22.671 0 1.139.22.474.222.737.631.261.41.295.991a7 7 0 0 1 0 .737 2.1 2.1 0 0 1-.287.991 1.6 1.6 0 0 1-.72.63q-.468.222-1.164.222Zm0-1q.367 0 .532-.22.172-.222.196-.664.009-.122.008-.327a4 4 0 0 0-.008-.328q-.024-.435-.197-.655-.163-.23-.532-.23-.36 0-.532.23-.172.221-.189.655a5 5 0 0 0-.008.328q0 .204.008.327.017.442.189.664.172.22.532.22Zm4.736 1a3.1 3.1 0 0 1-.91-.115 2.2 2.2 0 0 1-.605-.295 1.4 1.4 0 0 1-.344-.352.74.74 0 0 1-.123-.32.17.17 0 0 1 .057-.147.2.2 0 0 1 .14-.065h.933a.1.1 0 0 1 .041.008.4.4 0 0 1 .05.033q.105.057.212.147.106.082.246.148a.8.8 0 0 0 .336.065q.228 0 .384-.09a.29.29 0 0 0 .156-.27.3.3 0 0 0-.074-.213q-.074-.09-.303-.172a4.3 4.3 0 0 0-.671-.164 3.5 3.5 0 0 1-.745-.254 1.3 1.3 0 0 1-.492-.418 1.1 1.1 0 0 1-.172-.63q0-.328.213-.63.214-.304.622-.492.41-.197 1.008-.197.475 0 .819.115.352.106.59.278.245.173.368.353t.131.327a.2.2 0 0 1-.049.148.18.18 0 0 1-.131.057h-.852a.3.3 0 0 1-.065-.008l-.058-.033a1 1 0 0 1-.196-.131 1.2 1.2 0 0 0-.23-.148.7.7 0 0 0-.327-.065.54.54 0 0 0-.344.098.327.327 0 0 0-.057.45q.073.09.286.164.222.075.68.164.565.09.9.295.337.197.476.467.14.262.14.557a1.1 1.1 0 0 1-.238.696q-.23.303-.688.475-.459.165-1.114.164M47.38 60a.2.2 0 0 1-.148-.057.2.2 0 0 1-.057-.148V54.39a.2.2 0 0 1 .057-.148.2.2 0 0 1 .148-.057h1.048a.2.2 0 0 1 .148.057.2.2 0 0 1 .057.148v1.826q.221-.254.54-.401.328-.156.754-.156.475 0 .844.213.375.213.59.63.212.411.212 1.008v2.285a.2.2 0 0 1-.057.148.2.2 0 0 1-.148.057h-1.056a.22.22 0 0 1-.148-.057.2.2 0 0 1-.057-.148V57.56q0-.384-.188-.59-.18-.212-.54-.212a.72.72 0 0 0-.541.213q-.205.204-.205.59v2.235a.2.2 0 0 1-.057.148.2.2 0 0 1-.148.057H47.38Zm7.136.082q-.687 0-1.163-.221a1.66 1.66 0 0 1-.72-.63 2.2 2.2 0 0 1-.279-.992 7 7 0 0 1 0-.737q.033-.582.295-.99.262-.41.73-.632.474-.22 1.137-.22.672 0 1.139.22.475.222.737.631t.295.991a7 7 0 0 1 0 .737 2.1 2.1 0 0 1-.287.991 1.6 1.6 0 0 1-.72.63q-.468.222-1.163.222Zm0-1q.37 0 .533-.22.171-.222.196-.664.009-.122.009-.327c0-.205-.003-.246-.009-.328q-.025-.435-.196-.655-.165-.23-.532-.23-.36 0-.533.23-.171.221-.188.655a5 5 0 0 0-.008.328q0 .204.008.327.016.442.188.664.172.22.532.22m3.19 2.474a.2.2 0 0 1-.148-.057.2.2 0 0 1-.057-.148v-5.405a.2.2 0 0 1 .057-.148.2.2 0 0 1 .147-.057h.926a.2.2 0 0 1 .139.057.2.2 0 0 1 .066.148v.303a1.45 1.45 0 0 1 .5-.418q.31-.171.769-.172.41 0 .72.131.312.123.533.369t.344.598q.13.352.147.81a6 6 0 0 1 0 .607 2.7 2.7 0 0 1-.139.794 1.7 1.7 0 0 1-.344.598 1.55 1.55 0 0 1-.54.385 1.9 1.9 0 0 1-.721.13q-.401 0-.704-.138a1.4 1.4 0 0 1-.492-.41v1.818a.2.2 0 0 1-.057.148.2.2 0 0 1-.148.057h-.999Zm1.957-2.572q.278 0 .434-.114a.6.6 0 0 0 .22-.311q.075-.197.091-.434.015-.255 0-.508a1.5 1.5 0 0 0-.09-.434.6.6 0 0 0-.221-.312q-.156-.114-.434-.114-.27 0-.434.123a.65.65 0 0 0-.238.303 1.3 1.3 0 0 0-.082.41 6 6 0 0 0 0 .613q.009.205.09.385.082.172.246.287.164.106.418.106"/></g><defs><filter id="a" width="80" height="80" x="0" y="0" color-interpolation-filters="sRGB" filterUnits="userSpaceOnUse"><feFlood flood-opacity="0" result="BackgroundImageFix"/><feColorMatrix in="SourceAlpha" result="hardAlpha" values="0 0 0 0 0 0 0 0 0 0 0 0 0 0 0 0 0 0 127 0"/><feOffset dy="2"/><feGaussianBlur stdDeviation="4"/><feColorMatrix values="0 0 0 0 0 0 0 0 0 0 0 0 0 0 0 0 0 0 0.75 0"/><feBlend in2="BackgroundImageFix" result="effect1_dropShadow_601_5218"/><feBlend in="SourceGraphic" in2="effect1_dropShadow_601_5218" result="shape"/></filter></defs></svg>