<svg xmlns="http://www.w3.org/2000/svg" width="80" height="80" fill="none"><g filter="url(#a)"><rect width="64" height="64" x="8" y="6" fill="#212529" rx="5"/><path fill="#dd3735" d="M53.989 26.27a40 40 0 0 0-.047-1.087c-.02-.359-.028-.737-.066-1.106-.066-.5-.132-1.011-.246-1.5a9 9 0 0 0-.37-1.181q-.256-.691-.585-1.352a21 21 0 0 0-1.3-1.976c-.293-.416-.671-.756-.955-1.181a3 3 0 0 0-.633-.643c-.378-.3-.775-.577-1.172-.841-.3-.208-.6-.406-.926-.586-.255-.142-.53-.255-.794-.378a4 4 0 0 0-.936-.378 3 3 0 0 1-.246-.076c-.217-.076-.425-.161-.643-.227-.331-.1-.652-.227-.992-.312a9 9 0 0 0-1.011-.189c-.378-.057-.766-.076-1.144-.113-.246-.028-.492-.057-.728-.066-.36-.019-.728-.019-1.087-.028a5 5 0 0 0-.548-.019q-.413.017-.822.076c-.265.028-.53.076-.785.113-.312.038-.624.057-.936.095-.293.038-.6.095-.888.142-.1.019-.208.057-.312.076a6 6 0 0 0-.69.142c-.406.123-.813.265-1.21.416a11 11 0 0 0-1.077.5c-.36.2-.7.435-1.04.662-.321.217-.643.444-.955.69q-.45.36-.86.766c-.151.151-.274.331-.416.5-.236.274-.473.539-.7.822-.19.236-.36.482-.54.728q-.47.652-.85 1.361-.152.284-.293.567c-.142.284-.293.558-.425.851a3.6 3.6 0 0 0-.227.633c-.132.463-.265.936-.388 1.4A5.3 5.3 0 0 0 26 24.843q-.003.565.066 1.125c.009.094-.047.208.066.284.009 0 0 .038-.01.047a.1.1 0 0 0-.003.08.1.1 0 0 0 .06.052.03.03 0 0 1 .009.019h-.045c-.028.085.066.151.028.246-.01.019.028.057.047.085a.3.3 0 0 0 0 .094q.032.131.047.265c0 .066.057.142.076.208a.11.11 0 0 1-.02.094c-.056.066-.046.123.039.161a.1.1 0 0 1 .047.066 1 1 0 0 1-.028.17c.019.019.028.038.019.057s-.028.057-.02.076c.072.154.11.321.114.491a.4.4 0 0 0 .038.123q.03 0 .057.009l-.057.17a1 1 0 0 1 .132-.057q.037.173.095.34a.2.2 0 0 0 .057.057c-.01.019-.01.057-.028.066q.039.251.123.492c.01 0 .019-.01.028-.01-.028-.17-.047-.35-.076-.52v-.057a.1.1 0 0 1 .028-.01 1 1 0 0 1 .028.113c.076 0 .189.047.265.047a1 1 0 0 1 .028-.085c-.057-.057-.1-.142-.161-.2q.015.066 0 .132c-.038-.019-.085-.038-.132-.057q.06-.08.132-.151c0-.085-.047-.161-.18-.151.057-.019.114-.047.18-.066l.028.076c.076-.132-.038-.236-.038-.369a2.5 2.5 0 0 0-.113-.492c-.047-.265-.038-.662-.066-.926 0-.019-.028-.038-.047-.057-.01.01-.057.132-.066.142.028.227.057.454.076.681-.01 0-.02 0-.02.009-.037-.2-.075-.406-.122-.633a1 1 0 0 0-.02.132c-.027-.009-.037-.019-.084-.038.038.085.076.142.1.208a.3.3 0 0 0-.142-.019v.265a1.3 1.3 0 0 1-.17-.236c-.02-.076-.028-.151-.047-.227l.028-.01a.5.5 0 0 1-.028-.094l-.028-.227c.009-.009.047-.019.066-.038l-.076-.113q.084.015.17.019c0-.019.009-.028 0-.038-.095-.085-.028-.161.009-.236.019-.038.085-.047.1-.085.076-.142.2-.255.2-.435q.011-.133.038-.265c.019-.161.038-.321.047-.482a4 4 0 0 1 .056-.61 11 11 0 0 1 .529-1.692q.198-.555.454-1.087c.255-.51.548-1 .832-1.5.18-.312.369-.6.567-.907s.378-.6.6-.87a7.7 7.7 0 0 1 1-1.068c.378-.34.737-.69 1.144-1a11.6 11.6 0 0 1 1.674-1.082q.724-.37 1.489-.644c.32-.123.67-.179 1-.284.373-.12.761-.183 1.153-.189.255-.009.5-.038.756-.066.227-.019.454-.038.7-.066a.4.4 0 0 0-.047.076c-.1.151-.217.3-.321.454-.085.123-.18.255-.265.378-.151.2-.312.4-.454.6-.217.312-.416.633-.643.945s-.473.586-.71.879c-.311.406-.6.822-.916 1.229-.284.388-.586.756-.86 1.144-.246.34-.463.7-.7 1.049-.35.52-.7 1.03-1.05 1.55-.273.4-.547.785-.831 1.182a.2.2 0 0 1-.076.057c-.02.019-.057.038-.057.057q-.015.097-.047.189c-.076.142-.151.284-.236.416-.047.076-.113.142-.17.217-.02-.009-.028-.019-.047-.019.038-.095.2-.151.123-.293-.047.076-.095.142-.142.217l-.113.227c.038.028.1.047.038.1-.028.047-.057.1-.085.151.01 0 .01.009.019.009.028-.038.057-.066.085-.1.009 0 .019.01.028.01a1.4 1.4 0 0 1-.132.265.8.8 0 0 1-.2.189c.01.009.076.038.085.047.028-.038.038-.019.066-.057.019.028.047-.019.057.009a.4.4 0 0 0 .066-.094.34.34 0 0 1 .189-.208.4.4 0 0 0 .098-.07c.284-.293.577-.577.832-.888.4-.482.756-.983 1.134-1.475.16-.208.35-.416.52-.614.019.01.038.01.047.019-.02.2-.038.406-.047.6-.028.35-.047.7-.076 1.059-.01.142 0 .284-.01.425 0 .038-.027.066-.027.1 0 .094.028.2.028.293-.028.35-.066.69-.095 1.04a.6.6 0 0 0 .047.217.3.3 0 0 0-.047-.038q.073.811.019 1.626c.038-.01.057-.019.057-.038a1.5 1.5 0 0 0 .028-.38v-.094q.035-.259.028-.52a1.8 1.8 0 0 1 .019-.548c.019-.076-.01-.17.038-.265v.142q.016.811-.066 1.616c-.01.047.028.132-.076.123-.01 0-.02.047-.038.076-.047.094.057.217-.038.312-.02.019.019.1.028.161 0 .019.01.038 0 .047-.038.066-.038.066.019.076.01.208.028.4.038.6h.028a7 7 0 0 0 .113-1.1q.02.231.01.463c0 .246-.01.482-.02.728a1 1 0 0 1-.018.142 2.6 2.6 0 0 1-.085.388 1 1 0 0 0-.02.35v.359c0 .01.029.038.029.076.009.085-.038.17-.01.265.01.019-.01.047-.02.066a.13.13 0 0 0-.008.085l.028.142c0 .009.01.019.019.038a.3.3 0 0 0 .01-.076c.16.019.076.161.15.236-.037.019-.065.028-.065.038a.4.4 0 0 1 .028.1 2 2 0 0 1-.02.246c0 .217-.01.435-.01.643 0 .028.01.057.01.085s-.01.038-.01.066v.2h.039a.5.5 0 0 1-.066.085c-.01 0-.038 0-.038-.009v-1.182h-.14a10 10 0 0 1-.075 1.607 2 2 0 0 1-.274.028c-.293 0-.586 0-.88.009-.35 0-.69.01-1.04.01-.17 0-.35.019-.52.019-.226 0-.462-.028-.69-.028-.35 0-.69.028-1.04.038-.254.009-.51.009-.765.019-.17.009-.34.019-.51.038q-.121.024-.236.066a1 1 0 0 0-.151 0c-.095.019-.18.076-.274.095-.142.028-.18.066-.161.208v.094a.3.3 0 0 0-.066-.047.03.03 0 0 0-.02.009c.01.028.029.047.039.076.038-.019.085-.066.123-.066h.132c-.02 0-.028.057-.057.1.076-.028.123-.047.17-.066a.3.3 0 0 1 .009.076q.183-.037.369-.019.556.128 1.125.17c.246.019.482.028.728.038.35.019.7.038 1.049.038.293 0 .577-.028.87-.028.406 0 .813.019 1.219.028.085 0 .18-.01.274-.01h.69c.614-.019 1.229-.028 1.843-.047.35-.009.709-.028 1.059-.038l1.077-.028c.416-.009.832-.009 1.238-.019.312 0 .614-.009.926-.019.35-.01.709-.038 1.059-.057.189-.009.378-.028.567-.047.227-.019.463-.047.69-.057.34-.019.69-.028 1.03-.047.425-.028.85-.066 1.285-.076.4-.019.8-.009 1.2-.019.35-.009.7-.028 1.059-.038l.6-.028s.4-.009.6-.028c.34-.019.68-.057 1.02-.066.218-.009.436 0 .653-.009.35-.01.709-.028 1.059-.028.132 0 .274.019.444.028-.076.066-.123.1-.18.151q.06.017.113.047c0 .01-.01.019-.01.038-.046 0-.093.01-.141.01a.6.6 0 0 0-.057.161h.17c-.066 0-.123.085-.19.142.01.009.02.009.029.019-.1-.038-.17-.019-.208.085q.036.011.076.009a1 1 0 0 0-.028.094.14.14 0 0 0-.02.066l-.027-.028a.1.1 0 0 0-.01-.057c-.056.057-.141.095-.094.217-.038.019-.085.038-.132.066a.4.4 0 0 1 .038.066c-.085.009-.17.028-.151.132.038.009.076.028.1.038-.047.019-.094.047-.142.066-.01.019-.02.066-.038.076-.132.028-.057.076-.02.123a.4.4 0 0 1-.084.047q.037.01.066.038l-.066.038a.3.3 0 0 0 .057.028 3 3 0 0 0-.142.113.1.1 0 0 0 .009.047 1 1 0 0 0-.113.132q-.045.097-.1.189a3.5 3.5 0 0 1-.6.643q-.143.106-.265.236c-.17.161-.321.34-.5.492-.236.2-.482.378-.737.558-.312.217-.624.435-.936.643-.17.113-.36.2-.54.3s-.35.2-.528.3a3 3 0 0 1-.34.236c-.312.132-.643.246-.964.369-.028.009-.047.019-.076.028-.236.1-.463.217-.7.3a5 5 0 0 1-.671.18 2 2 0 0 1-.246.009c-.161.028-.321.066-.482.085-.416.057-.832.094-1.248.151-.246.028-.482.076-.728.1-.17.01-.35-.009-.52-.009a2.5 2.5 0 0 1-.378.009c-.2-.028-.4-.076-.6-.113a.3.3 0 0 0-.151-.009c-.076.038-.142-.019-.217 0-.047.009-.094-.028-.142-.028s-.085.009-.132 0a.9.9 0 0 0-.312-.057 1.2 1.2 0 0 1-.35-.076l-.5-.113a.8.8 0 0 1-.19-.085.2.2 0 0 1-.084.028 2.6 2.6 0 0 1-.473-.094.85.85 0 0 0-.4-.094c-.038.009-.066-.01-.1-.01-.028-.038-.057-.113-.085-.113-.19.01-.3-.151-.463-.2-.085-.028-.151-.123-.236-.151-.208-.085-.378-.265-.614-.293a1.4 1.4 0 0 1-.236-.076 1 1 0 0 0 .076.095l-.02.019q-.382-.227-.765-.444c-.038-.01-.066-.047-.095-.066l-.255-.17c-.028-.019-.085-.047-.085-.038-.057.066-.113.01-.151-.009-.255-.18-.548-.293-.794-.492q-.165-.105-.3-.246a1.5 1.5 0 0 0-.473-.369c-.142-.076-.274-.161-.406-.246a.25.25 0 0 1-.132-.208c0-.066-.028-.132-.113-.094-.038-.057-.076-.123-.123-.142a1 1 0 0 1-.274-.208c-.085-.076-.151-.18-.255-.217a1.1 1.1 0 0 1-.416-.369c-.265-.312-.5-.652-.747-.983a1 1 0 0 0-.085-.076l-.01.01c.047.094.095.18.142.274-.01.009-.028.019-.038.028-.057-.066-.123-.132-.18-.2-.01.01-.02.019-.028.019l.673 1.094c.057.085.1.17.16.255a.1.1 0 0 1-.037.028.37.37 0 0 1-.246-.18.35.35 0 0 0-.37-.227 2 2 0 0 1-.046-.208 1 1 0 0 1-.132-.009c.132.208.246.388.369.6l-.094-.057c.17.18.293.406.51.52.047.217.293.321.35.529l-.132-.028c-.076-.094-.161-.189-.246-.293q.026.094.085.17.16.217.35.406c.047.047.113.066.113.151a.3.3 0 0 1 .076-.047 1 1 0 0 0-.038.085c.038 0 .066.009.095.009.019.057-.01.142.1.123q.015.002.028.019c.047.123.123.123.227.076a.07.07 0 0 1 .076.019q.07.15.2.038c0 .047.009.094.009.132h.043c0-.019-.01-.047-.01-.094.048.038.077.057.096.076q.128.203.312.359c.18.151.34.312.51.454a7 7 0 0 0 1.068.709c.454.255.888.529 1.352.775.56.286 1.154.499 1.768.633.227.047.444.094.67.151.2.057.4.142.6.189.3.066.615.123.918.18l.208.028v.019c.085 0 .189-.038.208-.01.047.076.085.038.142.028a.8.8 0 0 1 .217-.019q.391.045.785.047c.057 0 .142-.047.189.047.019-.01.028-.019.047-.028.038-.01.085-.01.123-.019v.018a.4.4 0 0 1-.076.019 1 1 0 0 1 .1.028.1.1 0 0 1-.047.028.4.4 0 0 0-.085.047c.31.071.634.071.945 0v-.057h.038q.003.03.019.057c.429.037.86-.018 1.267-.161.038.047.066.113.123.019.019-.028.066-.038.1-.047a.5.5 0 0 1 .263-.033c.085.028.113-.047.18-.047q.162 0 .32-.028c.058-.009.114-.038.18-.057q.002-.008 0-.015l-.008-.013a2 2 0 0 0-.2-.019c.113-.057.217-.1.32-.151 0 .009.01.009.01.019-.027.009-.046.047-.084.047h.132c-.028 0-.066.085-.113.142l.955-.236v-.019c-.038.009-.066.009-.095.019-.01-.2.208-.132.284-.246-.095.028-.19.057-.284.076v-.019c.32-.142.652-.284.974-.425 0 .01.01.01.01.019-.057.038-.113.066-.2.113q.061.006.123.019c0 .028 0 .047-.01.057.162-.01.124-.151.17-.236.029.009.067.028.096.019q.124-.031.246-.076.142-.04.284-.095c.15-.066.293-.151.444-.227a.5.5 0 0 1 .113 0 .1.1 0 0 0 .066-.038c.038-.028.076-.085.1-.076a.215.215 0 0 0 .265-.151c.01 0 .01-.01.019-.01q.068-.055.142-.1c.208-.113.406-.227.614-.34.009-.009.028 0 .047 0q.043.004.085-.009c.123-.057.236-.123.35-.189-.028-.01 0-.019-.094-.028v-.02q.091-.015.18-.047l-.02-.019c.247-.246.559-.425.795-.633a.5.5 0 0 0 .095.019.2.2 0 0 0 .01-.076 1 1 0 0 1 .123-.142c.208-.189.435-.35.624-.548.274-.274.539-.558.785-.851q.35-.39.643-.822c.265-.406.492-.822.728-1.248.17-.3.32-.6.492-.907.019-.028.057-.066.085-.066.255-.028.51-.047.756-.076a.7.7 0 0 0 .18-.076c-.028-.047-.047-.1-.076-.151-.03-.051-.094-.1-.132-.161a1 1 0 0 1-.095-.161c-.028-.047-.057-.085-.085-.132a3 3 0 0 1-.161-.321.2.2 0 0 1-.02-.1c.17-.369.237-.766.4-1.134a5.8 5.8 0 0 0 .285-1.21c.066-.388.1-.775.15-1.163.029-.274.067-.539.077-.813q.063-.623.028-1.248v-.004ZM30.226 36.819c-.066-.076-.123-.161-.19-.236l.029-.028c.1.114.208.227.312.35a.5.5 0 0 1-.151-.086m.15.085c.029-.009.058-.009.086-.019.028.047.047.1.076.161-.132-.009-.2-.066-.161-.142Zm9.83 3.9v-.024l.53-.057v.028a5 5 0 0 1-.53.057zm2.383-.246c-.132.028-.274.047-.406.066-.047.01-.1.057-.123-.028-.02.009-.038.009-.057.019.047.142.16.028.255.085-.208.028-.406.047-.6.076v-.019l.18-.028V40.7a3 3 0 0 0-.284-.019c-.028 0-.066.038-.094.047a.5.5 0 0 1-.123.019c-.161.009-.321.009-.473.019-.01 0-.028-.01-.038-.01v-.028l1.89-.255c.009.019.009.038.019.057a.6.6 0 0 0-.142.028zm.142-.095c.217-.028.416-.047.624-.076-.435.123-.577.142-.624.076M34.5 21.384c.3-.416.614-.832.917-1.257.094-.123.17-.255.265-.378a.6.6 0 0 1 .113-.095l-.01-.019a1 1 0 0 0 .094-.123 2 2 0 0 0 .113-.246.1.1 0 0 1 .038-.038c.132.066.132-.076.18-.123.085-.094.17-.2.246-.293a2 2 0 0 0 .16-.227c.01-.028-.018-.076-.027-.113h-.028c.028-.019.057-.047.085-.066.01 0 .01 0 .019-.009.057-.085.113-.17.17-.246q.17-.23.369-.435c-.02.047-.038.095-.057.132.009 0 .009.01.019.01.113-.151.236-.293.35-.444-.01-.009-.02-.019-.028-.019-.047.047-.085.094-.132.142-.01-.009-.02-.019-.028-.019.095-.123.189-.246.284-.388q.042.069.076.142c.038-.095.076-.161.1-.227-.028.028-.066.057-.094.085l-.03-.03.17-.255c.18-.255.36-.52.54-.775.066-.095.15-.17.208-.265a10 10 0 0 1 .68-.974q.08-.097.17-.18c.048-.057.086-.038.124.01.255.321.51.652.766.974.189.236.378.463.558.709.217.3.425.6.643.907.246.35.492.7.728 1.059.359.529.7 1.059 1.059 1.588.265.388.529.766.785 1.153h-.482c-.444-.01-.9-.047-1.342-.028-.6.028-1.22.094-1.824.142-.766.066-1.541.076-2.306.076-.274 0-.548.038-.822.057-.331.019-.652.038-.983.047-.388.019-.766.028-1.153.038-.217.01-.444 0-.681 0zm10.84 4.348v.085c-.01 0-.02.009-.038.009-.038-.132-.076-.274-.123-.406a3.2 3.2 0 0 0-.37-.794c-.188-.265-.358-.539-.547-.813a1.5 1.5 0 0 0-.17-.18 3.3 3.3 0 0 0-.652-.6 8 8 0 0 0-1.182-.6 3 3 0 0 1-.331-.17h.227l1.616-.028c.35-.01.69-.01 1.04-.028a.19.19 0 0 1 .18.1c.085.142.17.283.265.425a.2.2 0 0 1 .028.076c0 .208 0 .425.009.633s.028.425.038.643-.02.444-.01.671c.01.321.019.652.019.983v-.006Zm-10.17-3.167c.444-.019.87-.047 1.3-.066.34-.019.69-.028 1.03-.047q.208-.021.416 0a3 3 0 0 0-.435.246c-.17.113-.331.265-.5.388a3 3 0 0 0-.463.435c-.18.217-.378.406-.567.614a6 6 0 0 0-.4.454c-.161.208-.3.435-.454.671.047-.9.1-1.786.066-2.694zm6.172 9.093a8 8 0 0 1-.926.2q-.406.042-.813.028c-.246 0-.482-.009-.728-.028a2.5 2.5 0 0 1-.813-.18c-.227-.1-.463-.2-.69-.312a1.8 1.8 0 0 1-.624-.454 4 4 0 0 0-.444-.406c.028.114.1.213.2.274-.047.057-.113.028-.208-.123l-.076.038c.028-.066.057-.132.085-.189-.038-.076-.085-.161-.123-.236a7 7 0 0 1-.217-.378c-.02-.028-.02-.057-.038-.085a2 2 0 0 1-.132-.17 4 4 0 0 0-.236-.35c0 .028.009.057.009.094a.03.03 0 0 0-.02.009l-.2-.482c-.01 0-.01 0-.018.01l.17.624c-.01 0-.02.01-.028.01a.5.5 0 0 1-.076-.123c-.02-.076-.076-.076-.123-.047a.13.13 0 0 0-.038.113c.066.161.142.321.217.482q.027.084.066.161c.01.019.038.038.038.066q.048.113.113.217c.085.113.18.227.265.34s.16.236.236.35c.01.019.038.019.047.028.047.142.208.246.32.189.029.217.266.293.36.5a4 4 0 0 1-.274-.123c-.01.01-.01.019-.02.038q.171.081.332.18.142.082.274.18c.115.102.256.17.407.2a.1.1 0 0 0-.02-.038c.266.123.54.255.748.359-.983.019-2.032.038-3.12.057 0-.18-.008-.35-.008-.529a2 2 0 0 0 .009-.217c-.028-.435-.028-.87-.085-1.295a9 9 0 0 1-.047-1.352c.009-.246-.01-.5-.02-.747 0-.331 0-.652.01-.983a.4.4 0 0 1 .038-.132h.028c.009.019 0 .047.019.057.028.028.076.076.095.066.057-.038.142-.076.16-.132a.9.9 0 0 0 .067-.35.34.34 0 0 1 .076-.2 1 1 0 0 0 .047-.094c-.038-.028-.076-.047-.123-.085.038-.1.028-.227.17-.284.019-.01.019-.057.028-.085l.028-.236q.02.03.047.057a.1.1 0 0 1 .019-.028c0-.038-.01-.113 0-.113.113-.019.066-.142.123-.2.009-.009-.01-.038-.01-.057s0-.047.01-.047c.132-.028.113-.17.2-.236.028-.019.038-.047.076-.094.076.132-.057.2-.066.293.16-.095.208-.321.113-.388a.5.5 0 0 0 .1-.1c.1-.113.217-.217.312-.331.066-.085.1-.189.17-.274a.5.5 0 0 1 .17-.113c.172-.082.322-.205.435-.359a.5.5 0 0 1 .076-.057c.028-.019.085-.019.094-.047s-.02-.066-.038-.094c.038-.019.076-.057.15-.094-.027.057-.037.094-.056.132l.047.047c.085-.066.217-.142.3-.2 0-.009-.047-.047-.047-.047-.057.028-.142.076-.227.113.019-.028.019-.047.028-.057q.195-.132.406-.236.496-.227.992-.444a.5.5 0 0 1 .2-.009.2.2 0 0 0 .076-.009c.15-.047.3-.094.454-.132a.8.8 0 0 1 .208-.028c.284.009.567.009.85.028q.181.016.35.076a3.3 3.3 0 0 1 .889.464c.274.18.529.378.8.539.256.16.475.373.643.624.235.27.417.58.539.917l.142.624c.05.113.073.236.066.359-.047.236-.085.482-.123.718a1 1 0 0 0-.028.283 1.76 1.76 0 0 1-.208.813c-.038.085-.095.17-.142.265a.3.3 0 0 0 .076.038l.085-.17c.009 0 .009 0 .019.01-.047.132-.085.274-.132.406-.113.293-.227.6-.37.879a5 5 0 0 1-.3.444c-.094.132-.17.274-.264.4a1.4 1.4 0 0 1-.283.284q-.38.29-.794.529a2 2 0 0 1-.558.208zm-5.038-.5-.01.009a.2.2 0 0 1-.065-.038l-.23-.34a.11.11 0 0 1-.018-.095c.1.161.208.312.32.463zm5.879 1.295a3.8 3.8 0 0 0 1.1-.728 1 1 0 0 1 .15-.132c.382-.252.707-.58.956-.964q.415-.672.747-1.389a1 1 0 0 1 .057-.1 21.4 21.4 0 0 0 .246 3.2l-3.252.113zm9.585-.283c-.01.019-.028.038-.038.057l-.02-.085c-.056.151-.18.076-.264.076-.51.009-1.03.009-1.541.009-.492 0-.992 0-1.484.01-.161 0-.331.038-.492.047-.388.019-.775.028-1.163.038-.028 0-.057-.047-.1-.085a1 1 0 0 1-.057.085c-.01-.019-.028-.038-.047-.066l-.028.076H46.5a3 3 0 0 1-.057-.388c0-.284.028-.567.038-.851.009-.132 0-.255 0-.378l.1.076a1 1 0 0 1 .057-.095.2.2 0 0 1-.038-.028c.019-.009.038-.028.038-.038a.4.4 0 0 0 .028-.076 1 1 0 0 0-.028-.18.04.04 0 0 0 .028-.009l.057.283h.028c-.038-.066.085-.123-.02-.2-.008-.009.01-.066.01-.094a2 2 0 0 1-.075-.189.2.2 0 0 1 .066-.028 1 1 0 0 0-.094-.047c.094-.085.094-.132.01-.227.019-.009.038-.009.038-.019a1.2 1.2 0 0 0-.02-.255c-.018-.094.029-.208-.112-.265a.3.3 0 0 0 .038.076.3.3 0 0 0-.057.028c-.123-.113-.047-.265-.076-.435q.082.024.16.057c-.018-.066-.065-.142-.093-.227h-.038V28.2c0 .009.066.009.1.019 0-.009.009-.019.009-.028-.028-.038-.066-.076-.1-.123l.019-.019a.34.34 0 0 1-.038-.255v-.662c.094.094-.047.217.094.274v-.096h-.01c-.01-.142-.01-.284-.018-.425h-.02c-.008.019-.008.028-.018.047h-.02l.058-2.259q.146.17.265.359.346.576.766 1.1c.227.312.435.652.643.974.255.388.5.775.756 1.163.189.293.388.586.586.87.18.255.369.5.558.747.16.217.33.435.49.652q.285.4.568.785c.094.132.2.265.3.4q.09.102.2.18a.1.1 0 0 1-.038-.01q.03.045.066.085c.1.057.113.113.057.2zm.482-2.363v-.066c0 .019.009.047 0 .066m.32-4.168a.5.5 0 0 1-.075-.066c-.01.028 0 .057-.02.094-.008-.028-.075-.019-.075-.047-.01.132.057.265.047.4.028-.019.142-.028.17-.057a.07.07 0 0 0 .038.019c-.19.142-.142.284-.057.444.019.038.076.113.019.189-.02.019.01.076.019.123h.028v.019l-.085.028c-.02-.028-.132-.085-.132-.132v.482c.094.028.094.161.132.227a.3.3 0 0 0 .038-.076l.01.009a1 1 0 0 1-.038.17 2 2 0 0 0-.047.246c0 .009.019.028.019.038q-.093.367-.085.747c-.028.18 0 .369-.02.558q-.032.249-.093.492c-.01.028-.028.038-.076.057a.8.8 0 0 0-.01-.293c-.01 0-.132-.066-.142-.066q.033.235.1.463c-.028-.009-.142-.076-.151-.076-.02.113-.02.265-.028.388-.01.094-.095.18-.1.284 0 .057.066.094.057.189h.076c0-.189.085-.359.085-.558h.026c.009.019.038.038.028.047a1.2 1.2 0 0 0-.047.321c0 .057.047.113.028.18a1 1 0 0 0-.038.2.5.5 0 0 1-.02-.094l-.1-.009c-.008.057.067.113.058.161-.01.01-.02.01-.038.019l-.312-.454c-.246-.359-.492-.718-.737-1.087a2 2 0 0 1-.17-.284 13 13 0 0 0-.974-1.446c-.274-.35-.492-.728-.747-1.1-.236-.35-.473-.69-.71-1.04-.084-.113-.188-.217-.264-.34-.246-.388-.463-.785-.71-1.172-.207-.321-.434-.633-.651-.945-.076-.1-.151-.217-.227-.331a.14.14 0 0 1-.02-.066c-.018-.208-.037-.416-.046-.614s.019-.378.019-.577v-.17c0-.047.009-.085.009-.132.009-.01.019-.028.028-.038-.274 0-.558-.009-.832 0a.46.46 0 0 1-.4-.2 16 16 0 0 1-.936-1.3c-.293-.416-.6-.822-.9-1.229-.246-.331-.491-.652-.737-.983-.274-.378-.54-.756-.822-1.134-.34-.454-.69-.907-1.04-1.361-.161-.208-.34-.406-.52-.624.123.019.236.038.35.047l.454.028c.34.028.68.047 1.02.095.285.038.568.095.86.142q.937.165 1.835.473c.35.113.69.265 1.03.406q1.14.473 2.217 1.077.306.206.529.5c.246.255.492.51.728.775.274.312.529.633.794.955.236.284.482.567.718.851q.108.136.2.284c.15.227.32.444.454.69q.132.285.217.586c.094.293.189.577.284.87.066.217.123.444.17.671.038.151.028.312.076.463.057.2 0 .416.057.614l.028.066c.038.038.066.076.01.132a.1.1 0 0 0 0 .076.4.4 0 0 0 .047-.066c0 .019.009.028.009.038a.5.5 0 0 0 0 .113.2.2 0 0 0 .028.066q.036-.03.076-.057.11.482.094.974c.04.31.015.626-.076.926.028-.1-.038-.2-.01-.293z"/><path fill="#dd3735" d="M46.563 29.344a.03.03 0 0 1 .02.01l-.01-.01c0-.009 0-.009-.01 0m1.493 9.34a.9.9 0 0 1-.34.17c-.009-.01-.009-.02-.019-.029.1-.066.217-.132.321-.2.01.02.028.038.038.057v.001Zm-17.723-12.81q.15-.198.321-.4c.01.01.085.028.095.038-.1.132-.246.312-.35.454-.019-.019-.047-.085-.066-.094zm-2.684 4.632c-.076-.16-.15-.33-.227-.492a.3.3 0 0 1 .085-.038q.134.237.227.492a1 1 0 0 1-.085.038m2.41-4.537c-.057.085-.113.18-.17.265-.009-.009-.113.038-.123.028.057-.085.2-.236.255-.32q.016.016.038.027m16.985 13.1c.01 0 .01-.01.02-.01a2 2 0 0 0 .216.02c-.123.084-.2.075-.236-.01M30.078 26.366a.4.4 0 0 1 .047-.085.2.2 0 0 0 .047-.009c.038-.066.038-.113.076-.17-.009-.009-.019-.009-.028-.019-.057.038-.113.085-.17.123l.016.021.003.026c-.076-.009-.1.028-.142.132-.01.028-.057.038-.1.076-.009.02-.019.066-.038.113l.01.01a.14.14 0 0 1-.047.028c-.057.057-.123.1-.18.161a.3.3 0 0 0-.019.085c.066-.066.18-.189.265-.265l.01.01c.037-.058.065-.114.1-.17.008.008.008.018.018.027l-.085.236c-.019.01-.047.028-.047.02-.038.027-.066.065-.1.094l-.17.113c-.095.085-.189.161-.293.246-.066.1-.132.2-.208.321.113-.028.142.02.132.113.132.02.142-.085.18-.16.01-.02.02-.058.038-.067.085-.076.18-.142.274-.217a.13.13 0 0 0 .02-.085c0-.009-.048-.009-.077-.019.085-.095.208-.255.293-.359.047-.028.094-.066.094-.095-.01-.1.057-.132.132-.17a.1.1 0 0 1-.047-.066z"/><path fill="#dd3735" d="M30.267 26.262c-.038.066-.076.123-.113.189l-.054-.028a.56.56 0 0 1-.3.444q.046.03.1.028c.028-.01.047-.057.066-.085l.255-.37.079-.14-.038-.038zm-3.148 4.15c.047 0 .095.01.151.01 0-.038.047-.028.047-.066h.028c0 .047.01.085.01.132h-.2c-.01-.01-.047-.066-.038-.076zm-.076-.435c-.028-.028-.076-.057-.076-.085s.019-.085.047-.132c.019.066.028.123.047.189q-.017.014-.018.028m.236-.6c.038.095.076.2.113.293a.3.3 0 0 0-.076.038c-.038-.094-.085-.2-.123-.293a.2.2 0 0 1 .086-.038m21.04 9.036q.09-.03.18-.047-.11.079-.208.17c-.01-.01-.019-.02-.028-.02.019-.037.038-.065.057-.1zM36.7 18.436c.057-.038.1-.066.161-.1l.019.019c-.057.076-.1.15-.17.246-.009-.066-.009-.1-.019-.151-.009 0 0 0 .01-.01zm2.769 4.783.274-.123a1 1 0 0 0-.01.132.3.3 0 0 0-.095-.02c-.057.01-.161.086-.208.095-.01 0 .038-.076.038-.085h.001Zm7.089 8.015c.019.094.2.142.019.236.028.019.057.028.085.047a.07.07 0 0 1-.019.038c-.019.01-.057.028-.076.019s-.028-.038-.028-.057c0-.085.01-.17.019-.283"/><path fill="#e5e5e5" d="M20.473 61a.25.25 0 0 1-.184-.072.25.25 0 0 1-.072-.184v-6.656a.25.25 0 0 1 .072-.184.25.25 0 0 1 .184-.072h2.867q.85 0 1.475.266.634.255.983.779.358.522.358 1.32 0 .79-.358 1.3-.348.513-.983.759-.625.245-1.475.245h-1.219v2.243a.23.23 0 0 1-.081.184.25.25 0 0 1-.185.072zm1.618-3.912h1.198q.44 0 .696-.225.267-.225.266-.686a.98.98 0 0 0-.225-.655q-.225-.267-.737-.267H22.09v1.833Zm7.392 4.014q-.86 0-1.454-.276a2.1 2.1 0 0 1-.901-.789q-.307-.521-.348-1.239a9 9 0 0 1 0-.921q.04-.727.368-1.24.329-.51.912-.788.594-.276 1.423-.276.84 0 1.424.276.593.277.921.789.328.511.369 1.239a9 9 0 0 1 0 .922q-.041.716-.359 1.238a2 2 0 0 1-.9.789q-.584.276-1.455.276m0-1.249q.461 0 .666-.276.215-.277.246-.83.01-.153.01-.41 0-.255-.01-.409-.03-.543-.246-.82-.205-.285-.666-.286-.45 0-.665.287-.216.276-.236.819-.01.153-.01.41 0 .255.01.41.02.552.236.829.215.276.665.276m5.923 1.25q-.666 0-1.137-.144a2.8 2.8 0 0 1-.758-.369 1.7 1.7 0 0 1-.43-.44q-.144-.235-.154-.4a.21.21 0 0 1 .072-.184.25.25 0 0 1 .174-.082h1.168a.1.1 0 0 1 .05.01l.062.042q.134.071.266.184.134.102.308.184a1 1 0 0 0 .42.082.95.95 0 0 0 .48-.112.37.37 0 0 0 .195-.338q0-.164-.092-.267-.092-.112-.379-.215a5.4 5.4 0 0 0-.84-.204 4.4 4.4 0 0 1-.931-.318 1.6 1.6 0 0 1-.615-.522 1.4 1.4 0 0 1-.215-.789q0-.409.267-.788.266-.379.778-.614.511-.246 1.26-.246.593 0 1.023.143.441.133.738.348.306.216.46.44.154.225.164.41a.24.24 0 0 1-.061.185.23.23 0 0 1-.164.071H36.45a.3.3 0 0 1-.082-.01l-.072-.041a1.3 1.3 0 0 1-.245-.164 1.5 1.5 0 0 0-.287-.184.9.9 0 0 0-.41-.082q-.276 0-.43.123a.41.41 0 0 0-.072.563q.093.112.359.205.276.092.85.205.705.113 1.126.368.42.246.594.584.174.327.174.696 0 .492-.297.87-.285.38-.86.595-.573.204-1.392.204ZM41.568 61q-.656 0-1.137-.205a1.58 1.58 0 0 1-.727-.655q-.256-.45-.256-1.157v-1.966h-.798a.3.3 0 0 1-.195-.072.25.25 0 0 1-.072-.184v-.83a.25.25 0 0 1 .072-.184.3.3 0 0 1 .195-.072h.798v-1.69a.25.25 0 0 1 .072-.184.27.27 0 0 1 .184-.071h1.188a.25.25 0 0 1 .184.071.25.25 0 0 1 .072.185v1.69h1.28a.25.25 0 0 1 .184.07.25.25 0 0 1 .072.185v.83a.25.25 0 0 1-.072.184.25.25 0 0 1-.184.072h-1.28v1.822q0 .35.133.553.134.205.45.205h.79a.25.25 0 0 1 .184.072.25.25 0 0 1 .071.184v.891a.25.25 0 0 1-.071.184.25.25 0 0 1-.185.072zm4.504.102q-.759 0-1.342-.276t-.932-.799q-.338-.532-.368-1.27a7 7 0 0 1-.01-.41q0-.255.01-.419.03-.747.368-1.27a2.17 2.17 0 0 1 .922-.809 3.2 3.2 0 0 1 1.352-.276q.705 0 1.208.205.501.195.819.491.318.297.471.614.164.307.174.543a.22.22 0 0 1-.072.185.27.27 0 0 1-.184.071h-1.3a.26.26 0 0 1-.174-.051.5.5 0 0 1-.113-.154q-.123-.316-.318-.45a.8.8 0 0 0-.48-.133q-.411 0-.636.266-.214.266-.235.82-.01.409 0 .726.02.564.235.82.225.255.635.255.319 0 .502-.133.185-.133.297-.45a.5.5 0 0 1 .113-.154.26.26 0 0 1 .174-.051h1.3q.102 0 .184.082a.2.2 0 0 1 .072.174 1.4 1.4 0 0 1-.102.41 2.3 2.3 0 0 1-.799.962q-.307.215-.748.348a3.6 3.6 0 0 1-1.023.133m5.783 0q-.665 0-1.136-.143a2.8 2.8 0 0 1-.758-.369 1.7 1.7 0 0 1-.43-.44q-.144-.235-.154-.4a.21.21 0 0 1 .072-.184.25.25 0 0 1 .174-.082h1.168a.1.1 0 0 1 .05.01l.062.042q.134.071.266.184.135.102.308.184a1 1 0 0 0 .42.082.95.95 0 0 0 .48-.112.37.37 0 0 0 .195-.338q0-.164-.092-.267-.092-.112-.379-.215a5.4 5.4 0 0 0-.84-.204 4.4 4.4 0 0 1-.931-.318 1.6 1.6 0 0 1-.615-.522 1.4 1.4 0 0 1-.215-.789q0-.409.267-.788.265-.379.778-.614.512-.246 1.26-.246.593 0 1.023.143.441.133.738.348.306.215.46.44t.164.41a.24.24 0 0 1-.061.185.23.23 0 0 1-.164.071H52.9a.3.3 0 0 1-.082-.01l-.072-.041a1.3 1.3 0 0 1-.245-.164 1.5 1.5 0 0 0-.287-.184.9.9 0 0 0-.41-.082q-.276 0-.43.123a.41.41 0 0 0-.072.563q.092.112.359.205.276.092.85.205.706.113 1.126.368.42.246.594.584.174.327.174.696 0 .492-.297.87-.285.38-.86.595-.573.204-1.392.204Zm5.66 0q-.665 0-1.136-.143a2.8 2.8 0 0 1-.758-.369 1.7 1.7 0 0 1-.43-.44q-.144-.235-.154-.4a.21.21 0 0 1 .072-.184.25.25 0 0 1 .174-.082h1.168a.1.1 0 0 1 .05.01l.062.042q.134.071.266.184.135.102.308.184a1 1 0 0 0 .42.082.95.95 0 0 0 .48-.112.37.37 0 0 0 .195-.338q0-.164-.092-.267-.092-.112-.379-.215a5.4 5.4 0 0 0-.84-.204 4.4 4.4 0 0 1-.931-.318 1.6 1.6 0 0 1-.615-.522 1.4 1.4 0 0 1-.215-.789q0-.409.267-.788.266-.379.778-.614.512-.246 1.26-.246.593 0 1.023.143.441.133.738.348.306.215.46.44t.164.41a.24.24 0 0 1-.061.185.23.23 0 0 1-.164.071H58.56a.3.3 0 0 1-.082-.01l-.072-.041a1.3 1.3 0 0 1-.245-.164 1.5 1.5 0 0 0-.287-.184.9.9 0 0 0-.41-.082q-.276 0-.43.123a.41.41 0 0 0-.072.563q.093.112.359.205.277.092.85.205.706.113 1.126.368.42.246.594.584.174.327.174.696 0 .492-.297.87-.285.38-.86.595-.573.204-1.392.204Z"/></g><defs><filter id="a" width="80" height="80" x="0" y="0" color-interpolation-filters="sRGB" filterUnits="userSpaceOnUse"><feFlood flood-opacity="0" result="BackgroundImageFix"/><feColorMatrix in="SourceAlpha" result="hardAlpha" values="0 0 0 0 0 0 0 0 0 0 0 0 0 0 0 0 0 0 127 0"/><feOffset dy="2"/><feGaussianBlur stdDeviation="4"/><feColorMatrix values="0 0 0 0 0 0 0 0 0 0 0 0 0 0 0 0 0 0 0.75 0"/><feBlend in2="BackgroundImageFix" result="effect1_dropShadow_601_5352"/><feBlend in="SourceGraphic" in2="effect1_dropShadow_601_5352" result="shape"/></filter></defs></svg>