<svg xmlns="http://www.w3.org/2000/svg" width="80" height="80" fill="none"><g filter="url(#a)"><rect width="64" height="64" x="8" y="6" fill="#212529" rx="5"/><path fill="#fff" d="m47.551 30.859.925-2.338h2.669l-1.267-3.546 1.584-4.006L56 33.017h-3.346l-.776-2.158z"/><path fill="#5a0fc8" d="m44.696 33.017 4.858-12.048h-3.22l-3.324 7.785-2.362-7.785h-2.476l-2.537 7.785-1.79-3.547-1.619 4.988 1.644 2.822h3.17l2.293-6.982 2.186 6.982z"/><path fill="#fff" d="M27.057 28.88h1.984q.9 0 1.605-.2l.513-1.58 1.434-4.418a3.5 3.5 0 0 0-.375-.491q-1.104-1.222-3.23-1.222H24v12.048h3.057zm2.626-5.14q.43.435.431 1.162 0 .734-.38 1.164-.415.477-1.53.477h-1.147v-3.237h1.155q1.04 0 1.47.434Z"/><path fill="#e5e5e5" d="M29.973 61a.25.25 0 0 1-.184-.072.25.25 0 0 1-.072-.184v-6.656a.25.25 0 0 1 .072-.184.25.25 0 0 1 .184-.072h2.867q.85 0 1.475.266.634.255.983.779.357.522.358 1.32 0 .79-.358 1.3-.349.513-.983.759-.625.245-1.475.245h-1.219v2.243a.23.23 0 0 1-.081.184.25.25 0 0 1-.185.072zm1.618-3.912h1.198q.44 0 .696-.225.267-.225.266-.686a.98.98 0 0 0-.225-.655q-.225-.267-.737-.267H31.59v1.833ZM38.009 61q-.154 0-.225-.072a.5.5 0 0 1-.113-.184l-1.474-4.741a.3.3 0 0 1-.021-.102q0-.093.072-.154a.23.23 0 0 1 .163-.072h1.055q.133 0 .205.072a.3.3 0 0 1 .102.143l.86 2.929.922-2.919a.34.34 0 0 1 .092-.143.3.3 0 0 1 .226-.082h.675q.144 0 .215.082a.3.3 0 0 1 .103.144l.922 2.918.86-2.929a.34.34 0 0 1 .092-.143.32.32 0 0 1 .215-.072h1.055q.092 0 .153.072.072.06.072.154a.5.5 0 0 1-.01.102l-1.475 4.741a.37.37 0 0 1-.113.184q-.07.072-.225.072h-.921a.33.33 0 0 1-.226-.072.37.37 0 0 1-.112-.184l-.942-2.806-.942 2.806a.37.37 0 0 1-.113.184.33.33 0 0 1-.225.072zm8.513.102q-.553 0-.994-.204a1.8 1.8 0 0 1-.686-.574 1.36 1.36 0 0 1-.256-.809q0-.727.594-1.147.594-.43 1.577-.583l1.28-.195v-.143q0-.369-.154-.564-.153-.194-.563-.194a.9.9 0 0 0-.47.113.8.8 0 0 0-.277.307.3.3 0 0 1-.256.133H45.17a.24.24 0 0 1-.174-.061.2.2 0 0 1-.051-.164q0-.184.133-.42.143-.246.43-.482.287-.235.737-.389.45-.153 1.086-.153.665 0 1.136.153.471.154.758.43.297.277.44.656.144.369.144.819v3.113a.23.23 0 0 1-.082.184.24.24 0 0 1-.174.072h-1.188a.25.25 0 0 1-.184-.072.25.25 0 0 1-.072-.184v-.358a1.5 1.5 0 0 1-.359.358 1.7 1.7 0 0 1-.532.256q-.297.102-.696.102m.48-1.167q.298 0 .533-.123a.9.9 0 0 0 .38-.4 1.5 1.5 0 0 0 .143-.685v-.144l-.87.154q-.483.082-.707.256-.215.164-.215.39a.45.45 0 0 0 .102.296.7.7 0 0 0 .266.195q.164.06.369.061Z"/></g><defs><filter id="a" width="80" height="80" x="0" y="0" color-interpolation-filters="sRGB" filterUnits="userSpaceOnUse"><feFlood flood-opacity="0" result="BackgroundImageFix"/><feColorMatrix in="SourceAlpha" result="hardAlpha" values="0 0 0 0 0 0 0 0 0 0 0 0 0 0 0 0 0 0 127 0"/><feOffset dy="2"/><feGaussianBlur stdDeviation="4"/><feColorMatrix values="0 0 0 0 0 0 0 0 0 0 0 0 0 0 0 0 0 0 0.75 0"/><feBlend in2="BackgroundImageFix" result="effect1_dropShadow_602_1534"/><feBlend in="SourceGraphic" in2="effect1_dropShadow_602_1534" result="shape"/></filter></defs></svg>