<svg width="64" height="64" viewBox="0 0 64 64" fill="none" xmlns="http://www.w3.org/2000/svg">
<path d="M10.4609 10H53.5391C55.3123 10 56.9265 10.7196 58.1004 11.8829C59.2736 13.0477 60 14.6483 60 16.4067V47.5933C60 49.3575 59.2736 50.9603 58.1041 52.12L57.9938 52.2199C56.833 53.3217 55.2605 54 53.5391 54H10.4609C8.68181 54 7.06621 53.2804 5.89594 52.12C4.72567 50.9603 4 49.3575 4 47.5933V16.4067C4 14.6483 4.72567 13.0477 5.89594 11.8865C7.06621 10.7196 8.68181 10 10.4609 10ZM30.4519 31.4896H51.5008C52.4535 31.4896 53.2273 32.257 53.2273 33.2017V45.4512C53.2273 46.3966 52.4535 47.1633 51.5008 47.1633H30.4519C29.4992 47.1633 28.7254 46.3966 28.7254 45.4512V33.2017C28.7254 32.257 29.4992 31.4896 30.4519 31.4896ZM12.4985 31.4896H24.1311C25.0846 31.4896 25.8577 32.257 25.8577 33.2017V45.4512C25.8577 46.3966 25.0846 47.1633 24.1311 47.1633H12.4985C11.5458 47.1633 10.772 46.3966 10.772 45.4512V33.2017C10.772 32.257 11.5458 31.4896 12.4985 31.4896ZM12.4985 16.8374H51.5008C52.4535 16.8374 53.2273 17.6041 53.2273 18.5495V27.5667C53.2273 28.5114 52.4535 29.2788 51.5008 29.2788H12.4985C11.5458 29.2788 10.772 28.5114 10.772 27.5667V18.5495C10.772 17.6041 11.5458 16.8374 12.4985 16.8374ZM53.5391 13.4242H10.4609C9.63526 13.4242 8.88331 13.7608 8.33796 14.3015C7.79115 14.8394 7.45314 15.5858 7.45314 16.4067V47.5933C7.45314 48.412 7.79261 49.1584 8.33796 49.6985C8.88331 50.2392 9.63526 50.5758 10.4609 50.5758H53.5391C54.3312 50.5758 55.0554 50.2689 55.5941 49.7708L55.662 49.6985C56.2074 49.1584 56.5469 48.412 56.5469 47.5933V16.4067C56.5469 15.5858 56.2088 14.8394 55.6657 14.2979C55.1196 13.7593 54.3662 13.4242 53.5391 13.4242Z" fill="url(#paint0_linear_5873_9939)"/>
<defs>
<linearGradient id="paint0_linear_5873_9939" x1="32" y1="10" x2="32" y2="54" gradientUnits="userSpaceOnUse">
<stop offset="0.25" stop-color="#3059E4"/>
<stop offset="1" stop-color="#CE009F"/>
</linearGradient>
</defs>
</svg>
