<svg width="64" height="64" viewBox="0 0 64 64" fill="none" xmlns="http://www.w3.org/2000/svg">
<path d="M60 13.1894V16.4579L4 16.4604V13.1918C4 9.22442 7.21338 6 11.1617 6H52.8358C56.7866 6 59.9975 9.22687 59.9975 13.1918L60 13.1894ZM60 20.3837V49.8082C60 53.7756 56.7866 57 52.8383 57H11.1642C7.21344 57 4.0025 53.7731 4.0025 49.8082L4.00006 20.3837H60ZM26.9261 35.4566L20.9535 29.4589C20.1892 28.6913 18.9536 28.6913 18.1918 29.4589C17.4299 30.2264 17.4275 31.4671 18.1918 32.2321L24.1644 38.2298C24.4183 38.4849 24.4183 38.8992 24.1644 39.1543L18.1918 45.152C17.4275 45.9195 17.4275 47.1602 18.1918 47.9253C18.5727 48.3078 19.0708 48.499 19.5738 48.499C20.0744 48.499 20.5725 48.3078 20.9558 47.9253L26.9285 41.9276C28.7061 40.1425 28.7061 37.2417 26.9285 35.4545L26.9261 35.4566ZM49.5809 46.5371C49.5809 45.4533 48.7067 44.5755 47.6274 44.5755H34.6054C33.5261 44.5755 32.652 45.4533 32.652 46.5371C32.652 47.6209 33.5261 48.4988 34.6054 48.4988H47.6274C48.7067 48.4988 49.5809 47.6209 49.5809 46.5371Z" fill="url(#paint0_linear_5873_9944)"/>
<defs>
<linearGradient id="paint0_linear_5873_9944" x1="32" y1="6" x2="32" y2="57" gradientUnits="userSpaceOnUse">
<stop offset="0.25" stop-color="#3059E4"/>
<stop offset="1" stop-color="#CE009F"/>
</linearGradient>
</defs>
</svg>
