<svg xmlns="http://www.w3.org/2000/svg" width="80" height="80" fill="none"><g filter="url(#a)"><rect width="64" height="64" x="8" y="6" fill="#212529" rx="5"/><path fill="#33363b" d="m40.005 39.31-10.688-6.17V20.813l10.679-6.166 10.688 6.17v12.327l-10.68 6.165Zm12.033-19.274-12.042-6.953-12.034 6.949v13.89l12.043 6.953 12.033-6.948v-13.89Z"/><path fill="#7ebc59" d="M31.096 21.838a2.853 2.853 0 0 1-3.893 1.045 2.853 2.853 0 0 1-1.045-3.893 2.853 2.853 0 0 1 3.893-1.044 2.855 2.855 0 0 1 1.045 3.892m17.808 0a2.855 2.855 0 0 1 1.045-3.893 2.855 2.855 0 0 1 3.893 1.045 2.855 2.855 0 0 1-1.045 3.893 2.853 2.853 0 0 1-3.893-1.044ZM40 42.96a2.846 2.846 0 0 1-2.848-2.848A2.846 2.846 0 0 1 40 37.264a2.846 2.846 0 0 1 2.848 2.848A2.85 2.85 0 0 1 40 42.96"/><path fill="#368cbf" d="M39.207 16.584a2.85 2.85 0 0 0 1.589 0l8.602 14.899a2.83 2.83 0 0 0-.801 1.39H31.404a3 3 0 0 0-.3-.751 3 3 0 0 0-.5-.635zM52.79 31.077a2.85 2.85 0 0 0-2.215-.267L41.97 15.907c.542-.518.88-1.248.88-2.059A2.846 2.846 0 0 0 40 11a2.846 2.846 0 0 0-2.848 2.848c0 .812.338 1.542.88 2.06L29.43 30.812a2.84 2.84 0 0 0-2.218.266 2.855 2.855 0 0 0-1.045 3.893 2.85 2.85 0 0 0 3.893 1.045 2.85 2.85 0 0 0 1.341-1.787h17.2a2.83 2.83 0 0 0 1.34 1.787 2.853 2.853 0 0 0 3.894-1.045 2.84 2.84 0 0 0-1.045-3.893Z"/><path fill="#e5e5e5" d="M25.807 61a.23.23 0 0 1-.153-.061.23.23 0 0 1-.062-.154q0-.051.01-.092l2.407-6.574a.4.4 0 0 1 .123-.195.4.4 0 0 1 .276-.092h1.516q.174 0 .266.092.103.083.133.195l2.396 6.574q.02.04.02.092a.22.22 0 0 1-.071.154.2.2 0 0 1-.154.061h-1.26a.35.35 0 0 1-.235-.072.5.5 0 0 1-.092-.143l-.4-1.044h-2.733l-.39 1.044a.5.5 0 0 1-.091.143q-.072.072-.246.072zm2.407-2.734h1.904l-.962-2.703zM33.69 61a.25.25 0 0 1-.184-.072.25.25 0 0 1-.072-.184v-6.758a.25.25 0 0 1 .072-.185.25.25 0 0 1 .184-.071h1.21a.25.25 0 0 1 .184.071.25.25 0 0 1 .072.185v6.758a.25.25 0 0 1-.072.184.25.25 0 0 1-.184.072zm5.398 0q-.656 0-1.137-.205a1.58 1.58 0 0 1-.727-.655q-.255-.45-.256-1.157v-1.966h-.798a.3.3 0 0 1-.195-.072.25.25 0 0 1-.072-.184v-.83a.25.25 0 0 1 .072-.184.3.3 0 0 1 .195-.072h.798v-1.69a.25.25 0 0 1 .072-.184.27.27 0 0 1 .184-.071h1.188a.25.25 0 0 1 .184.071.25.25 0 0 1 .072.185v1.69h1.28a.25.25 0 0 1 .184.07.25.25 0 0 1 .072.185v.83a.25.25 0 0 1-.072.184.25.25 0 0 1-.184.072h-1.28v1.822q0 .35.133.553.134.205.45.205h.79a.25.25 0 0 1 .184.072.25.25 0 0 1 .071.184v.891a.25.25 0 0 1-.071.184.25.25 0 0 1-.185.072zm3.654.102q-.553 0-.994-.204a1.8 1.8 0 0 1-.686-.574 1.36 1.36 0 0 1-.256-.809q0-.727.594-1.147.594-.43 1.577-.583l1.28-.195v-.143q0-.369-.154-.564-.153-.194-.563-.194a.9.9 0 0 0-.47.113.8.8 0 0 0-.277.307.3.3 0 0 1-.256.133H41.39a.24.24 0 0 1-.174-.061.2.2 0 0 1-.051-.164q0-.184.133-.42.143-.246.43-.482.287-.235.737-.389.45-.153 1.086-.153.665 0 1.136.153.471.154.758.43.297.277.44.656.144.369.144.819v3.113a.23.23 0 0 1-.082.184.24.24 0 0 1-.174.072h-1.188a.25.25 0 0 1-.184-.072.25.25 0 0 1-.072-.184v-.358a1.5 1.5 0 0 1-.359.358 1.7 1.7 0 0 1-.532.256q-.297.102-.696.102m.48-1.167q.298 0 .533-.123a.9.9 0 0 0 .38-.4 1.5 1.5 0 0 0 .143-.685v-.144l-.87.154q-.483.082-.707.256-.215.164-.215.39a.45.45 0 0 0 .102.296.7.7 0 0 0 .266.195q.164.06.369.061ZM47.44 61a.25.25 0 0 1-.184-.072.25.25 0 0 1-.072-.184v-4.813a.25.25 0 0 1 .072-.184.25.25 0 0 1 .184-.072h1.209q.102 0 .174.072.081.072.081.184v4.813a.23.23 0 0 1-.081.184.24.24 0 0 1-.175.072zm-.01-6.093a.25.25 0 0 1-.184-.071.25.25 0 0 1-.072-.185v-.911a.25.25 0 0 1 .072-.184.23.23 0 0 1 .184-.082h1.218q.114 0 .185.082a.23.23 0 0 1 .082.184v.911a.23.23 0 0 1-.082.184.25.25 0 0 1-.184.072zM50.68 61a.25.25 0 0 1-.184-.072.25.25 0 0 1-.072-.184v-4.813q0-.102.072-.174a.23.23 0 0 1 .184-.082h1.178q.112 0 .184.082a.24.24 0 0 1 .072.174v.41q.276-.318.655-.492.39-.174.87-.174h.451q.102 0 .174.072.082.072.082.184v1.055q0 .103-.082.184a.24.24 0 0 1-.174.072h-.993q-.42 0-.656.235-.225.225-.225.646v2.621a.23.23 0 0 1-.082.184.25.25 0 0 1-.184.072z"/></g><defs><filter id="a" width="80" height="80" x="0" y="0" color-interpolation-filters="sRGB" filterUnits="userSpaceOnUse"><feFlood flood-opacity="0" result="BackgroundImageFix"/><feColorMatrix in="SourceAlpha" result="hardAlpha" values="0 0 0 0 0 0 0 0 0 0 0 0 0 0 0 0 0 0 127 0"/><feOffset dy="2"/><feGaussianBlur stdDeviation="4"/><feColorMatrix values="0 0 0 0 0 0 0 0 0 0 0 0 0 0 0 0 0 0 0.75 0"/><feBlend in2="BackgroundImageFix" result="effect1_dropShadow_601_4835"/><feBlend in="SourceGraphic" in2="effect1_dropShadow_601_4835" result="shape"/></filter></defs></svg>