<svg xmlns="http://www.w3.org/2000/svg" width="80" height="80" fill="none"><g filter="url(#a)"><rect width="64" height="64" x="8" y="6" fill="#212529" rx="5"/><g clip-path="url(#b)"><path fill="url(#c)" d="M30.964 34.81h9.013l2.309 4.063H24l6.42-11.126 2.691-4.659 2.31 4.003zm3.361-13.829 2.218-3.843 12.553 21.735H44.65L34.325 20.98ZM37.778 15h4.44L56 38.873h-4.445z"/></g><path fill="#e5e5e5" d="M20.307 61a.23.23 0 0 1-.153-.061.23.23 0 0 1-.062-.154q0-.051.01-.092l2.407-6.574a.4.4 0 0 1 .123-.195.4.4 0 0 1 .276-.092h1.516q.174 0 .266.092.103.083.133.195l2.396 6.574q.02.04.02.092a.22.22 0 0 1-.071.154.2.2 0 0 1-.154.061h-1.26a.35.35 0 0 1-.235-.072.5.5 0 0 1-.092-.143l-.4-1.044h-2.733l-.39 1.044a.5.5 0 0 1-.091.143q-.072.072-.246.072zm2.407-2.734h1.904l-.962-2.703zM28.19 61a.25.25 0 0 1-.184-.072.25.25 0 0 1-.072-.184v-4.813a.25.25 0 0 1 .072-.184.25.25 0 0 1 .184-.072h1.116a.25.25 0 0 1 .185.072.25.25 0 0 1 .071.184v.348q.205-.276.574-.48a1.8 1.8 0 0 1 .87-.226q1.178-.02 1.618.89.235-.388.676-.634.44-.256.963-.256.532 0 .952.246.43.235.686.737.255.491.256 1.28v2.908a.23.23 0 0 1-.082.184.24.24 0 0 1-.174.072h-1.188a.28.28 0 0 1-.194-.072.25.25 0 0 1-.072-.184v-2.837q0-.357-.103-.563a.65.65 0 0 0-.276-.307.84.84 0 0 0-.768 0 .7.7 0 0 0-.287.307q-.102.206-.102.563v2.837a.25.25 0 0 1-.072.184.25.25 0 0 1-.184.072h-1.188a.25.25 0 0 1-.184-.072.25.25 0 0 1-.072-.184v-2.837q0-.357-.113-.563a.7.7 0 0 0-.286-.307.82.82 0 0 0-.758 0 .7.7 0 0 0-.287.307q-.102.205-.102.553v2.847a.23.23 0 0 1-.082.184.25.25 0 0 1-.184.072zm9.37 1.946a.25.25 0 0 1-.184-.072.25.25 0 0 1-.072-.184v-6.76a.25.25 0 0 1 .072-.184.25.25 0 0 1 .184-.072h1.157q.104 0 .174.072.082.072.082.184v.38q.236-.319.625-.523.39-.215.962-.215.513 0 .902.164.388.154.665.46.276.307.43.748.164.44.185 1.014a8 8 0 0 1 0 .758q-.021.553-.174.993a2.2 2.2 0 0 1-.43.747q-.277.307-.676.482-.39.163-.902.163a2.1 2.1 0 0 1-.88-.174 1.7 1.7 0 0 1-.615-.512v2.274a.25.25 0 0 1-.071.184.25.25 0 0 1-.185.072zm2.447-3.216q.349 0 .543-.143a.77.77 0 0 0 .277-.39q.092-.245.112-.542a5 5 0 0 0 0-.635 2 2 0 0 0-.112-.543.77.77 0 0 0-.277-.389q-.195-.143-.542-.143-.339 0-.543.154a.8.8 0 0 0-.297.378 1.6 1.6 0 0 0-.103.512 7 7 0 0 0 0 .768q.01.257.113.482a.9.9 0 0 0 .307.358.94.94 0 0 0 .523.133ZM44.02 61a.25.25 0 0 1-.184-.072.25.25 0 0 1-.072-.184v-6.758a.25.25 0 0 1 .072-.185.25.25 0 0 1 .184-.071h1.208a.25.25 0 0 1 .185.071.25.25 0 0 1 .072.185v6.758a.25.25 0 0 1-.072.184.25.25 0 0 1-.184.072zm3.28 0a.25.25 0 0 1-.184-.072.25.25 0 0 1-.072-.184v-4.813a.25.25 0 0 1 .072-.184.25.25 0 0 1 .184-.072h1.209q.102 0 .174.072.081.072.081.184v4.813a.23.23 0 0 1-.081.184.24.24 0 0 1-.175.072zm-.01-6.093a.25.25 0 0 1-.184-.071.25.25 0 0 1-.072-.185v-.911a.25.25 0 0 1 .072-.184.23.23 0 0 1 .184-.082h1.218q.114 0 .185.082a.23.23 0 0 1 .082.184v.911a.23.23 0 0 1-.082.184.25.25 0 0 1-.184.072zM50.824 61a.27.27 0 0 1-.184-.072.25.25 0 0 1-.072-.184v-3.727h-.778a.25.25 0 0 1-.184-.072.25.25 0 0 1-.072-.184v-.83a.25.25 0 0 1 .072-.184.25.25 0 0 1 .184-.072h.778v-.328q0-.696.267-1.116a1.52 1.52 0 0 1 .778-.614q.502-.195 1.198-.195h.799q.102 0 .174.072.082.073.082.184v.83a.23.23 0 0 1-.082.184.24.24 0 0 1-.174.072h-.717q-.348 0-.492.164-.133.164-.133.47v.277h1.24q.1 0 .173.072.082.072.082.184v.83a.23.23 0 0 1-.082.184.24.24 0 0 1-.174.072h-1.239v3.727a.25.25 0 0 1-.072.184.25.25 0 0 1-.184.072zm4.663 1.946a.21.21 0 0 1-.215-.215v-.062a1 1 0 0 1 .031-.072l.799-1.925-1.966-4.649a.3.3 0 0 1-.031-.123.3.3 0 0 1 .082-.153.2.2 0 0 1 .154-.072h1.167q.133 0 .194.072.072.061.093.143l1.177 2.98 1.198-2.98a.6.6 0 0 1 .103-.143q.071-.072.204-.072h1.147q.093 0 .154.072.072.061.072.143 0 .052-.031.133l-2.898 6.708a.35.35 0 0 1-.102.143q-.072.072-.205.072z"/></g><defs><linearGradient id="c" x1="56" x2="29.074" y1="20.293" y2="40.381" gradientUnits="userSpaceOnUse"><stop stop-color="#f90"/><stop offset="1" stop-color="#ffc300"/></linearGradient><clipPath id="b"><path fill="#fff" d="M24 15h32v23.875H24z"/></clipPath><filter id="a" width="80" height="80" x="0" y="0" color-interpolation-filters="sRGB" filterUnits="userSpaceOnUse"><feFlood flood-opacity="0" result="BackgroundImageFix"/><feColorMatrix in="SourceAlpha" result="hardAlpha" values="0 0 0 0 0 0 0 0 0 0 0 0 0 0 0 0 0 0 127 0"/><feOffset dy="2"/><feGaussianBlur stdDeviation="4"/><feColorMatrix values="0 0 0 0 0 0 0 0 0 0 0 0 0 0 0 0 0 0 0.75 0"/><feBlend in2="BackgroundImageFix" result="effect1_dropShadow_603_1523"/><feBlend in="SourceGraphic" in2="effect1_dropShadow_603_1523" result="shape"/></filter></defs></svg>