<svg xmlns="http://www.w3.org/2000/svg" width="80" height="80" fill="none"><g filter="url(#a)"><rect width="64" height="64" x="8" y="6" fill="#212529" rx="5"/><path fill="#8bc34a" d="M43.796 18.143h-1.267v-1.267h1.267m-6.328 1.267h-1.265v-1.267h1.266m6.998-2.327 1.657-1.658a.65.65 0 0 0 0-.899.65.65 0 0 0-.899 0l-1.872 1.875A7.65 7.65 0 0 0 40 13.08a7.5 7.5 0 0 0-3.366.798l-1.886-1.887a.635.635 0 0 0-1.077.45.63.63 0 0 0 .19.449l1.66 1.658c-1.887 1.392-3.113 3.594-3.113 6.124h15.186c0-2.53-1.266-4.745-3.126-6.124Zm6.29 7.391a1.9 1.9 0 0 0-1.898 1.897v8.86a1.899 1.899 0 1 0 3.796 0v-8.86a1.9 1.9 0 0 0-1.898-1.897m-21.514 0a1.9 1.9 0 0 0-1.899 1.897v8.86a1.899 1.899 0 1 0 3.796 0v-8.86a1.9 1.9 0 0 0-1.897-1.897m3.162 12.655a1.267 1.267 0 0 0 1.267 1.266h1.265v4.428a1.898 1.898 0 1 0 3.796 0V35.86h2.531v4.43a1.899 1.899 0 1 0 3.797 0v-4.43h1.266a1.267 1.267 0 0 0 1.266-1.265V21.94H32.405z"/><path fill="#e5e5e5" d="M19.807 61a.23.23 0 0 1-.153-.061.23.23 0 0 1-.062-.154q0-.051.01-.092l2.407-6.574a.4.4 0 0 1 .123-.195.4.4 0 0 1 .276-.092h1.516q.174 0 .266.092.103.083.133.195l2.396 6.574q.02.04.02.092a.22.22 0 0 1-.071.154.2.2 0 0 1-.154.061h-1.26a.35.35 0 0 1-.235-.072.5.5 0 0 1-.092-.143l-.4-1.044h-2.733l-.39 1.044a.5.5 0 0 1-.091.143q-.072.072-.246.072zm2.407-2.734h1.904l-.962-2.703zM27.69 61a.25.25 0 0 1-.184-.072.25.25 0 0 1-.072-.184v-4.813a.25.25 0 0 1 .072-.184.25.25 0 0 1 .184-.072h1.178a.25.25 0 0 1 .184.072.25.25 0 0 1 .072.184v.39q.266-.318.696-.533a2.24 2.24 0 0 1 1.014-.215q.594 0 1.044.266.461.266.717.788.267.513.266 1.26v2.857a.23.23 0 0 1-.082.184.24.24 0 0 1-.174.072h-1.29a.27.27 0 0 1-.184-.072.25.25 0 0 1-.072-.184v-2.795q0-.481-.235-.738-.226-.266-.676-.266-.42 0-.676.266-.246.256-.246.738v2.795a.23.23 0 0 1-.082.184.24.24 0 0 1-.174.072zm8.3.102q-.49 0-.89-.153a1.95 1.95 0 0 1-.676-.471 2.3 2.3 0 0 1-.43-.758 3.6 3.6 0 0 1-.174-1.024 7 7 0 0 1 0-.717q.021-.553.174-.993t.43-.758a1.8 1.8 0 0 1 .676-.481q.4-.174.89-.174a2.05 2.05 0 0 1 1.506.604v-2.191a.25.25 0 0 1 .072-.185.25.25 0 0 1 .184-.071h1.25q.102 0 .173.071.082.072.082.185v6.758a.23.23 0 0 1-.082.184.24.24 0 0 1-.174.072h-1.157a.25.25 0 0 1-.184-.072.25.25 0 0 1-.072-.184v-.328a1.9 1.9 0 0 1-.635.492q-.39.195-.962.194Zm.554-1.372q.348 0 .542-.143a.9.9 0 0 0 .297-.39q.103-.235.113-.511a8 8 0 0 0 0-.768 1.2 1.2 0 0 0-.113-.471.83.83 0 0 0-.307-.359q-.205-.143-.532-.143-.338 0-.543.143a.77.77 0 0 0-.276.39 2.2 2.2 0 0 0-.103.542q-.03.318 0 .635.021.297.102.543a.77.77 0 0 0 .277.389q.205.143.543.143M40.72 61a.25.25 0 0 1-.184-.072.25.25 0 0 1-.072-.184v-4.813q0-.102.072-.174a.23.23 0 0 1 .184-.082h1.178q.112 0 .184.082a.24.24 0 0 1 .072.174v.41q.276-.318.655-.492.39-.174.87-.174h.451q.102 0 .174.072.082.072.082.184v1.055q0 .103-.082.184a.24.24 0 0 1-.174.072h-.993q-.42 0-.656.235-.225.225-.225.646v2.621a.23.23 0 0 1-.082.184.25.25 0 0 1-.184.072zm6.873.102q-.86 0-1.454-.276a2.1 2.1 0 0 1-.901-.789q-.307-.521-.348-1.239a9 9 0 0 1 0-.921q.04-.727.368-1.24.329-.51.912-.788.594-.276 1.423-.276.84 0 1.424.276.593.277.921.789t.369 1.239a9 9 0 0 1 0 .922q-.041.716-.359 1.238a2 2 0 0 1-.9.789q-.585.276-1.455.276m0-1.249q.461 0 .666-.276.215-.277.246-.83.01-.153.01-.41 0-.256-.01-.409-.03-.543-.246-.82-.205-.286-.666-.286-.45 0-.665.287-.215.276-.236.819-.01.153-.01.41 0 .255.01.41.02.552.236.829.215.276.665.276M51.58 61a.25.25 0 0 1-.184-.072.25.25 0 0 1-.072-.184v-4.813a.25.25 0 0 1 .072-.184.25.25 0 0 1 .184-.072h1.209q.102 0 .174.072.081.072.081.184v4.813a.23.23 0 0 1-.081.184.24.24 0 0 1-.175.072zm-.01-6.093a.25.25 0 0 1-.184-.071.25.25 0 0 1-.072-.185v-.911a.25.25 0 0 1 .072-.184.23.23 0 0 1 .184-.082h1.218q.113 0 .185.082a.23.23 0 0 1 .082.184v.911a.23.23 0 0 1-.082.184.25.25 0 0 1-.184.072zm4.66 6.195q-.49 0-.89-.153a1.95 1.95 0 0 1-.676-.471 2.3 2.3 0 0 1-.43-.758 3.6 3.6 0 0 1-.174-1.024 7 7 0 0 1 0-.717q.021-.553.174-.993t.43-.758a1.8 1.8 0 0 1 .676-.481q.4-.174.89-.174a2.05 2.05 0 0 1 1.506.604v-2.191a.25.25 0 0 1 .072-.185.25.25 0 0 1 .184-.071h1.25q.102 0 .173.071.082.072.082.185v6.758a.23.23 0 0 1-.082.184.24.24 0 0 1-.174.072h-1.157a.25.25 0 0 1-.184-.072.25.25 0 0 1-.072-.184v-.328a1.9 1.9 0 0 1-.635.492q-.39.195-.962.194Zm.554-1.372q.348 0 .542-.143a.9.9 0 0 0 .297-.39q.103-.235.113-.511a8 8 0 0 0 0-.768 1.2 1.2 0 0 0-.113-.471.83.83 0 0 0-.307-.359q-.205-.143-.532-.143-.339 0-.543.143a.77.77 0 0 0-.276.39 2.2 2.2 0 0 0-.103.542q-.03.318 0 .635.021.297.102.543a.77.77 0 0 0 .277.389q.204.143.543.143"/></g><defs><filter id="a" width="80" height="80" x="0" y="0" color-interpolation-filters="sRGB" filterUnits="userSpaceOnUse"><feFlood flood-opacity="0" result="BackgroundImageFix"/><feColorMatrix in="SourceAlpha" result="hardAlpha" values="0 0 0 0 0 0 0 0 0 0 0 0 0 0 0 0 0 0 127 0"/><feOffset dy="2"/><feGaussianBlur stdDeviation="4"/><feColorMatrix values="0 0 0 0 0 0 0 0 0 0 0 0 0 0 0 0 0 0 0.75 0"/><feBlend in2="BackgroundImageFix" result="effect1_dropShadow_603_604"/><feBlend in="SourceGraphic" in2="effect1_dropShadow_603_604" result="shape"/></filter></defs></svg>