<svg xmlns="http://www.w3.org/2000/svg" width="80" height="80" fill="none"><g filter="url(#a)"><rect width="64" height="64" x="8" y="6" fill="#212529" rx="5"/><g clip-path="url(#b)"><path fill="#fff" d="M40 11c-8.837 0-16 7.164-16 16s7.163 16 16 16 16-7.163 16-16a16 16 0 0 0-.63-4.457.8.8 0 0 0-1.503.545h-.003c.353 1.257.536 2.57.536 3.912a14.3 14.3 0 0 1-4.217 10.183A14.3 14.3 0 0 1 40 41.4a14.3 14.3 0 0 1-10.183-4.217A14.3 14.3 0 0 1 25.6 27a14.3 14.3 0 0 1 4.217-10.183A14.3 14.3 0 0 1 40 12.6a14.3 14.3 0 0 1 9.277 3.387 1.954 1.954 0 1 0 1.15-1.12A15.94 15.94 0 0 0 40 11m-1.92 7.84-5.6 14.536h3.507l.916-2.464h5.292l-.959-2.723h-3.484l2.267-6.254 4.032 11.44h3.508L41.96 18.84z"/></g><path fill="#e5e5e5" d="M23.807 61a.23.23 0 0 1-.153-.061.23.23 0 0 1-.062-.154q0-.051.01-.092l2.407-6.574a.4.4 0 0 1 .123-.195.4.4 0 0 1 .276-.092h1.516q.174 0 .266.092.103.083.133.195l2.396 6.574q.02.04.02.092a.22.22 0 0 1-.071.154.2.2 0 0 1-.154.061h-1.26a.35.35 0 0 1-.235-.072.5.5 0 0 1-.092-.143l-.4-1.044h-2.733l-.39 1.044a.5.5 0 0 1-.091.143q-.072.072-.246.072zm2.407-2.734h1.904l-.962-2.703zm5.476 4.68a.25.25 0 0 1-.184-.072.25.25 0 0 1-.072-.184v-6.76a.25.25 0 0 1 .072-.184.25.25 0 0 1 .184-.072h1.157q.104 0 .174.072.082.072.082.184v.38q.235-.319.625-.523.39-.215.962-.215.513 0 .902.164.388.154.665.46.276.307.43.748.164.44.185 1.014a8 8 0 0 1 0 .758 3.4 3.4 0 0 1-.175.993 2.2 2.2 0 0 1-.43.747q-.277.307-.675.482-.39.163-.901.163a2.1 2.1 0 0 1-.881-.174 1.7 1.7 0 0 1-.615-.512v2.274a.25.25 0 0 1-.071.184.25.25 0 0 1-.185.072zm2.448-3.216q.348 0 .542-.143a.77.77 0 0 0 .277-.39q.092-.245.112-.542a5 5 0 0 0 0-.635 2 2 0 0 0-.112-.543.77.77 0 0 0-.277-.389q-.195-.143-.542-.143-.339 0-.543.154a.8.8 0 0 0-.297.378 1.6 1.6 0 0 0-.103.512 7 7 0 0 0 0 .768q.01.257.113.482a.9.9 0 0 0 .307.358.94.94 0 0 0 .523.133m6.275 1.372q-.86 0-1.454-.276a2.08 2.08 0 0 1-.901-.789q-.307-.521-.348-1.239a9 9 0 0 1 0-.921q.04-.727.368-1.24.328-.51.912-.788.594-.276 1.423-.276.84 0 1.424.276.593.277.921.789t.369 1.239a9 9 0 0 1 0 .922q-.041.716-.359 1.238a2 2 0 0 1-.9.789q-.585.276-1.455.276m0-1.249q.461 0 .666-.276.215-.277.246-.83.01-.153.01-.41 0-.256-.01-.409-.03-.543-.246-.82-.206-.286-.666-.286-.45 0-.665.287-.215.276-.236.819-.01.153-.01.41 0 .255.01.41.02.552.236.829.215.276.665.276M44.4 61a.25.25 0 0 1-.184-.072.25.25 0 0 1-.072-.184v-6.758a.25.25 0 0 1 .072-.185.25.25 0 0 1 .184-.071h1.209a.25.25 0 0 1 .184.071.25.25 0 0 1 .072.185v6.758a.25.25 0 0 1-.072.184.25.25 0 0 1-.184.072zm2.93 0a.25.25 0 0 1-.184-.072.25.25 0 0 1-.072-.184v-6.758a.25.25 0 0 1 .072-.185.25.25 0 0 1 .184-.071h1.209a.25.25 0 0 1 .184.071.25.25 0 0 1 .072.185v6.758a.25.25 0 0 1-.072.184.25.25 0 0 1-.184.072zm5.193.102q-.86 0-1.454-.276a2.08 2.08 0 0 1-.901-.789q-.307-.521-.348-1.239a9 9 0 0 1 0-.921q.04-.727.368-1.24.329-.51.912-.788.594-.276 1.423-.276.84 0 1.424.276.593.277.921.789t.369 1.239a9 9 0 0 1 0 .922q-.041.716-.359 1.238a2 2 0 0 1-.9.789q-.585.276-1.455.276m0-1.249q.461 0 .666-.276.215-.277.246-.83.01-.153.01-.41 0-.256-.01-.409-.03-.543-.246-.82-.206-.286-.666-.286-.45 0-.665.287-.215.276-.236.819-.01.153-.01.41 0 .255.01.41.02.552.236.829.215.276.665.276"/></g><defs><clipPath id="b"><path fill="#fff" d="M24 11h32v32H24z"/></clipPath><filter id="a" width="80" height="80" x="0" y="0" color-interpolation-filters="sRGB" filterUnits="userSpaceOnUse"><feFlood flood-opacity="0" result="BackgroundImageFix"/><feColorMatrix in="SourceAlpha" result="hardAlpha" values="0 0 0 0 0 0 0 0 0 0 0 0 0 0 0 0 0 0 127 0"/><feOffset dy="2"/><feGaussianBlur stdDeviation="4"/><feColorMatrix values="0 0 0 0 0 0 0 0 0 0 0 0 0 0 0 0 0 0 0.75 0"/><feBlend in2="BackgroundImageFix" result="effect1_dropShadow_603_620"/><feBlend in="SourceGraphic" in2="effect1_dropShadow_603_620" result="shape"/></filter></defs></svg>