<svg xmlns="http://www.w3.org/2000/svg" width="80" height="80" fill="none"><g filter="url(#a)"><rect width="64" height="64" x="8" y="6" fill="#212529" rx="5"/><path fill="#dd3835" d="M31.782 38.967h3.863l1.193-4.09h5.965l1.193 4.09h4.09l-8.067-24.03zM40.02 25.39l2.045 6.59h-4.09zm15.963 8.862-.398-1.648-8.407-.852 1.08 2.897zm-23.177-2.273-8.407.852L24 34.48l7.782.397z"/><path fill="#e5e5e5" d="M13.746 60a.2.2 0 0 1-.123-.05.2.2 0 0 1-.05-.122q0-.04.009-.074l1.925-5.258a.3.3 0 0 1 .098-.155.32.32 0 0 1 .221-.074h1.212q.14 0 .213.074.082.065.107.155l1.916 5.258q.015.033.016.074a.17.17 0 0 1-.057.123.17.17 0 0 1-.123.049h-1.007a.3.3 0 0 1-.189-.057.4.4 0 0 1-.073-.115l-.32-.835h-2.186l-.312.835a.4.4 0 0 1-.073.115q-.058.057-.197.057zm1.924-2.187h1.524l-.77-2.162zm5.692 2.269a1.64 1.64 0 0 1-.835-.213 1.46 1.46 0 0 1-.565-.623q-.205-.418-.205-1.015v-2.285a.2.2 0 0 1 .057-.148.2.2 0 0 1 .148-.057h1.023a.2.2 0 0 1 .148.057.2.2 0 0 1 .057.148v2.236q0 .802.72.802.337 0 .533-.204.205-.213.205-.598v-2.236a.2.2 0 0 1 .057-.148.2.2 0 0 1 .148-.057h1.023a.2.2 0 0 1 .148.057.2.2 0 0 1 .057.148v3.85a.2.2 0 0 1-.057.147.2.2 0 0 1-.148.057h-.95a.22.22 0 0 1-.147-.057.2.2 0 0 1-.057-.148v-.311a1.37 1.37 0 0 1-.557.45 2 2 0 0 1-.803.148M27.223 60a2.3 2.3 0 0 1-.909-.164 1.26 1.26 0 0 1-.581-.524q-.205-.36-.205-.925v-1.573h-.64a.23.23 0 0 1-.155-.057.2.2 0 0 1-.057-.148v-.663a.2.2 0 0 1 .057-.148.23.23 0 0 1 .156-.057h.639V54.39a.2.2 0 0 1 .057-.148.22.22 0 0 1 .148-.057h.95a.2.2 0 0 1 .147.057.2.2 0 0 1 .057.148v1.351h1.024a.2.2 0 0 1 .147.057.2.2 0 0 1 .058.148v.663a.2.2 0 0 1-.058.148.2.2 0 0 1-.147.057h-1.024v1.458a.8.8 0 0 0 .107.442q.105.164.36.164h.63a.2.2 0 0 1 .148.057.2.2 0 0 1 .057.148v.712a.2.2 0 0 1-.057.148.2.2 0 0 1-.147.057zm3.66.082q-.69 0-1.164-.221a1.66 1.66 0 0 1-.72-.63 2.2 2.2 0 0 1-.279-.992 7 7 0 0 1 0-.737q.033-.582.295-.99.263-.41.729-.632.475-.22 1.138-.22.671 0 1.139.22.474.222.737.631.262.41.295.991a7 7 0 0 1 0 .737 2.1 2.1 0 0 1-.287.991 1.6 1.6 0 0 1-.72.63q-.468.222-1.164.222Zm0-1q.367 0 .532-.22.172-.222.196-.664.008-.122.008-.327c0-.205-.002-.246-.008-.328q-.024-.435-.196-.655-.165-.23-.533-.23-.36 0-.532.23-.173.221-.188.655a5 5 0 0 0-.009.328q0 .204.009.327.015.442.188.664.172.22.532.22Zm3.188 2.474a.2.2 0 0 1-.147-.057.2.2 0 0 1-.058-.148v-5.405a.2.2 0 0 1 .058-.148.2.2 0 0 1 .147-.057h.926a.2.2 0 0 1 .139.057.19.19 0 0 1 .065.148v.303a1.45 1.45 0 0 1 .5-.418q.31-.171.77-.172.41 0 .72.131.311.123.533.369.22.246.344.598.13.352.147.81a6 6 0 0 1 0 .607 2.7 2.7 0 0 1-.139.794 1.7 1.7 0 0 1-.344.598 1.55 1.55 0 0 1-.54.385 1.85 1.85 0 0 1-.721.13 1.7 1.7 0 0 1-.705-.138 1.4 1.4 0 0 1-.491-.41v1.818a.2.2 0 0 1-.057.148.2.2 0 0 1-.148.057zm1.958-2.572q.278 0 .434-.114a.6.6 0 0 0 .22-.311q.075-.197.09-.434.018-.255 0-.508a1.5 1.5 0 0 0-.09-.434.6.6 0 0 0-.22-.312q-.156-.114-.434-.114-.27 0-.435.123a.65.65 0 0 0-.237.303q-.074.188-.082.41a6 6 0 0 0 0 .613q.008.205.09.385.082.172.246.287a.76.76 0 0 0 .418.106M39.238 60a.2.2 0 0 1-.148-.057.2.2 0 0 1-.057-.148v-3.85a.2.2 0 0 1 .057-.138.19.19 0 0 1 .148-.066h.942q.09 0 .147.066a.2.2 0 0 1 .057.139v.328q.222-.254.525-.394a1.7 1.7 0 0 1 .696-.139h.36a.2.2 0 0 1 .14.057.19.19 0 0 1 .065.148v.843a.2.2 0 0 1-.066.148.2.2 0 0 1-.139.057h-.794q-.336 0-.524.189-.18.18-.18.516v2.096a.2.2 0 0 1-.066.148.2.2 0 0 1-.148.057zm5.448.082q-.967 0-1.54-.524-.573-.525-.598-1.556v-.287q.025-.647.287-1.106a1.76 1.76 0 0 1 .737-.704 2.4 2.4 0 0 1 1.106-.246q.72 0 1.187.287.475.286.713.778.237.492.237 1.122v.197q0 .09-.065.147a.2.2 0 0 1-.14.057h-2.62v.058q.008.237.081.434a.62.62 0 0 0 .606.426q.165 0 .27-.05a.9.9 0 0 0 .19-.122q.073-.074.114-.123a.4.4 0 0 1 .115-.098.34.34 0 0 1 .147-.025h1.016a.17.17 0 0 1 .13.05q.058.04.05.122a.7.7 0 0 1-.14.336 1.7 1.7 0 0 1-.384.393q-.246.189-.623.311a2.8 2.8 0 0 1-.876.123m-.696-2.645h1.384v-.017q0-.262-.082-.459a.6.6 0 0 0-.238-.303.65.65 0 0 0-.376-.106.65.65 0 0 0-.377.106.7.7 0 0 0-.23.303 1.2 1.2 0 0 0-.081.46zM48.239 60a.22.22 0 0 1-.147-.057.2.2 0 0 1-.058-.148v-2.98h-.622a.2.2 0 0 1-.148-.058.2.2 0 0 1-.057-.148v-.663a.2.2 0 0 1 .057-.148.2.2 0 0 1 .148-.057h.622v-.262q0-.557.213-.893.221-.344.623-.491.401-.156.958-.156h2.096a.2.2 0 0 1 .14.058.19.19 0 0 1 .065.147v.663a.2.2 0 0 1-.065.148.2.2 0 0 1-.14.057h-2.03q-.279 0-.394.131-.106.131-.106.377v.221h2.53a.2.2 0 0 1 .14.057.19.19 0 0 1 .065.148v3.85q0 .09-.065.147a.2.2 0 0 1-.14.057h-.95a.2.2 0 0 1-.147-.057.2.2 0 0 1-.057-.148v-2.98h-1.376v2.98a.2.2 0 0 1-.058.148.2.2 0 0 1-.147.057zm4.675 0a.2.2 0 0 1-.131-.05.2.2 0 0 1-.041-.188.2.2 0 0 1 .032-.073l1.368-1.876-1.245-1.76a.4.4 0 0 1-.04-.066.3.3 0 0 1-.009-.066q0-.074.058-.123a.18.18 0 0 1 .13-.057h1q.105 0 .155.05a.4.4 0 0 1 .082.09l.762 1.056.753-1.048q.033-.042.082-.09.057-.058.164-.058h.958q.074 0 .123.057a.16.16 0 0 1 .057.123.3.3 0 0 1-.008.066.2.2 0 0 1-.032.065l-1.278 1.761 1.384 1.876a.14.14 0 0 1 .04.065.3.3 0 0 1 .01.066.18.18 0 0 1-.19.18h-1.04q-.097 0-.147-.041a1 1 0 0 1-.082-.09l-.827-1.122-.835 1.122-.082.082q-.05.05-.156.049zm6.792.082q-.966 0-1.54-.524-.573-.525-.597-1.556v-.287q.024-.647.286-1.106a1.76 1.76 0 0 1 .737-.704 2.4 2.4 0 0 1 1.106-.246q.72 0 1.188.287.475.286.712.778t.238 1.122v.197q0 .09-.066.147a.2.2 0 0 1-.14.057h-2.62v.058q.008.237.082.434a.62.62 0 0 0 .606.426q.165 0 .27-.05a1 1 0 0 0 .189-.122q.073-.074.114-.123a.4.4 0 0 1 .115-.098.34.34 0 0 1 .147-.025h1.016a.17.17 0 0 1 .13.05q.059.04.05.122-.008.14-.14.336a1.7 1.7 0 0 1-.384.393q-.246.189-.622.311a2.8 2.8 0 0 1-.877.123m-.696-2.645h1.384v-.017q0-.262-.082-.459a.6.6 0 0 0-.237-.303.65.65 0 0 0-.377-.106.65.65 0 0 0-.377.106.7.7 0 0 0-.23.303 1.2 1.2 0 0 0-.081.46zM62.808 60a.2.2 0 0 1-.147-.057.2.2 0 0 1-.058-.148v-3.85a.2.2 0 0 1 .058-.138.19.19 0 0 1 .147-.066h.942q.09 0 .147.066a.2.2 0 0 1 .058.139v.328q.22-.254.524-.394a1.7 1.7 0 0 1 .696-.139h.36a.2.2 0 0 1 .14.057.19.19 0 0 1 .065.148v.843a.2.2 0 0 1-.065.148.2.2 0 0 1-.14.057h-.794q-.336 0-.524.189-.18.18-.18.516v2.096q0 .09-.066.148a.2.2 0 0 1-.147.057z"/></g><defs><filter id="a" width="80" height="80" x="0" y="0" color-interpolation-filters="sRGB" filterUnits="userSpaceOnUse"><feFlood flood-opacity="0" result="BackgroundImageFix"/><feColorMatrix in="SourceAlpha" result="hardAlpha" values="0 0 0 0 0 0 0 0 0 0 0 0 0 0 0 0 0 0 127 0"/><feOffset dy="2"/><feGaussianBlur stdDeviation="4"/><feColorMatrix values="0 0 0 0 0 0 0 0 0 0 0 0 0 0 0 0 0 0 0.75 0"/><feBlend in2="BackgroundImageFix" result="effect1_dropShadow_602_205"/><feBlend in="SourceGraphic" in2="effect1_dropShadow_602_205" result="shape"/></filter></defs></svg>