<svg xmlns="http://www.w3.org/2000/svg" width="80" height="80" fill="none"><g filter="url(#a)"><rect width="64" height="64" x="8" y="6" fill="#212529" rx="5"/><path fill="#f90" d="M50.179 33.777c1.126-.137 3.61-.433 4.053.137.442.56-.495 2.912-.916 3.956-.127.317.147.443.431.2 1.853-1.56 2.337-4.82 1.958-5.295-.379-.464-3.631-.865-5.61.527-.306.222-.253.517.084.475"/><path fill="#f90" d="M39.968 39.484c4.327 0 9.358-1.361 12.821-3.925.569-.422.074-1.065-.505-.801-3.884 1.645-8.105 2.447-11.947 2.447-5.695 0-11.2-1.572-15.663-4.167-.39-.232-.684.169-.358.464 4.126 3.735 9.59 5.982 15.652 5.982"/><path fill="#fff" d="M33.095 27.405c0 .39.042.707.115.939q.142.391.337.76a.46.46 0 0 1 .074.242c0 .106-.063.211-.2.317l-.663.443a.5.5 0 0 1-.274.095c-.105 0-.21-.053-.316-.148a3.3 3.3 0 0 1-.379-.496 8 8 0 0 1-.326-.622q-1.231 1.456-3.095 1.456c-.884 0-1.589-.254-2.105-.76s-.779-1.182-.779-2.026c0-.896.316-1.624.958-2.173s1.495-.823 2.58-.823c.357 0 .725.032 1.115.085s.79.137 1.21.232v-.77c0-.802-.168-1.361-.495-1.688-.336-.327-.905-.485-1.715-.485-.369 0-.747.042-1.137.136a8.4 8.4 0 0 0-1.137.36q-.18.08-.368.137a.7.7 0 0 1-.169.031c-.147 0-.22-.105-.22-.327v-.517c0-.169.02-.295.073-.369a.8.8 0 0 1 .295-.222q.552-.285 1.326-.474a6.4 6.4 0 0 1 1.642-.201c1.253 0 2.168.285 2.758.855.579.57.874 1.434.874 2.595v3.418zm-4.274 1.604c.347 0 .705-.064 1.084-.19a2.35 2.35 0 0 0 1-.676c.169-.2.295-.422.358-.675s.105-.559.105-.918v-.443a9 9 0 0 0-.968-.179 8 8 0 0 0-.99-.063c-.705 0-1.22.137-1.568.422-.347.285-.516.685-.516 1.213 0 .496.127.865.39 1.118.252.264.62.39 1.105.39Zm8.453 1.139c-.19 0-.316-.032-.4-.106-.085-.063-.158-.21-.221-.411l-2.474-8.155c-.063-.211-.095-.348-.095-.422 0-.169.084-.263.253-.263h1.031c.2 0 .337.031.411.105.084.063.147.211.21.411l1.769 6.984 1.642-6.984c.053-.21.116-.348.2-.411.084-.064.231-.105.421-.105h.842c.2 0 .337.031.421.105.084.063.158.211.2.411l1.663 7.069 1.822-7.069c.062-.21.136-.348.21-.411.084-.064.22-.105.41-.105h.98c.168 0 .262.084.262.263 0 .053-.01.106-.02.169a1.5 1.5 0 0 1-.074.264L44.2 29.642q-.095.316-.221.411c-.084.063-.221.106-.4.106h-.905c-.2 0-.337-.032-.421-.106s-.158-.211-.2-.422l-1.632-6.804L38.8 29.62c-.053.211-.116.349-.2.422s-.232.106-.421.106zm13.526.285a7 7 0 0 1-1.621-.19c-.526-.127-.937-.264-1.21-.422-.17-.095-.285-.2-.327-.296a.8.8 0 0 1-.063-.295v-.538c0-.221.084-.327.242-.327a.6.6 0 0 1 .19.031c.063.022.157.064.263.106.371.164.76.288 1.158.37a6.3 6.3 0 0 0 1.252.126c.663 0 1.18-.116 1.537-.348.358-.232.547-.57.547-1.003 0-.295-.094-.537-.284-.738s-.547-.38-1.063-.548l-1.526-.475c-.769-.243-1.337-.601-1.684-1.076a2.52 2.52 0 0 1-.527-1.53q0-.665.284-1.17c.19-.338.442-.634.758-.866a3.3 3.3 0 0 1 1.095-.549 4.6 4.6 0 0 1 1.326-.179c.232 0 .474.01.706.042.242.032.463.074.684.116.21.053.41.106.6.169q.285.096.442.19a.9.9 0 0 1 .316.264.57.57 0 0 1 .094.348v.496c0 .222-.084.338-.242.338q-.128 0-.4-.127-.9-.412-2.02-.412c-.6 0-1.074.095-1.4.296-.327.2-.495.506-.495.939a1 1 0 0 0 .315.749c.21.2.6.4 1.158.58l1.495.475c.758.242 1.305.58 1.632 1.012s.484.929.484 1.477c0 .454-.095.866-.274 1.224-.19.359-.442.675-.768.928-.327.264-.716.454-1.169.591a5 5 0 0 1-1.505.222"/><path fill="#e5e5e5" d="M31.246 60a.2.2 0 0 1-.123-.05.2.2 0 0 1-.05-.122q0-.04.009-.074l1.925-5.258a.3.3 0 0 1 .098-.155.32.32 0 0 1 .221-.074h1.212q.14 0 .213.074.082.065.107.155l1.916 5.258q.015.033.016.074a.17.17 0 0 1-.057.123.17.17 0 0 1-.123.049h-1.007a.3.3 0 0 1-.189-.057.4.4 0 0 1-.073-.115l-.32-.835h-2.186l-.312.835a.4.4 0 0 1-.073.115q-.058.057-.197.057zm1.924-2.187h1.524l-.77-2.162zM38.113 60a.3.3 0 0 1-.22-.082.33.33 0 0 1-.1-.188l-.892-5.234a.1.1 0 0 1-.008-.032v-.025q0-.066.049-.115a.17.17 0 0 1 .123-.057h1.015q.23 0 .254.18l.533 3.203.59-1.892a.5.5 0 0 1 .081-.14q.058-.082.189-.082h.59q.139 0 .196.082.057.074.074.14l.59 1.883.532-3.194q.024-.18.253-.18h1.016q.074 0 .123.057.05.05.05.115v.057l-.894 5.234a.33.33 0 0 1-.098.188.3.3 0 0 1-.221.082h-.778q-.14 0-.213-.074a.4.4 0 0 1-.098-.139l-.827-2.342-.828 2.342a.4.4 0 0 1-.098.14q-.066.073-.205.073zm7.987.082q-.82 0-1.36-.23-.54-.237-.819-.614a1.4 1.4 0 0 1-.294-.802q0-.066.049-.115a.18.18 0 0 1 .13-.057h1.033q.114 0 .172.04a.4.4 0 0 1 .114.107q.066.123.18.238a1 1 0 0 0 .312.188q.196.066.483.066.475 0 .712-.148.246-.147.246-.401a.37.37 0 0 0-.13-.295q-.132-.123-.427-.213a6 6 0 0 0-.77-.196 5 5 0 0 1-1.064-.336 1.7 1.7 0 0 1-.664-.549q-.23-.344-.23-.852 0-.5.28-.892a1.9 1.9 0 0 1 .794-.615q.508-.22 1.204-.22a3 3 0 0 1 .99.147q.435.147.73.393.294.245.442.524.156.27.164.532a.2.2 0 0 1-.05.123.17.17 0 0 1-.122.05h-1.081a.35.35 0 0 1-.156-.034.3.3 0 0 1-.115-.106q-.048-.18-.262-.311-.204-.14-.54-.14-.36 0-.565.132-.197.122-.197.384 0 .164.106.287.115.123.37.213.26.09.712.188.745.139 1.204.353.459.204.671.54.213.327.213.827 0 .558-.32.967-.31.4-.867.614a3.6 3.6 0 0 1-1.278.213"/></g><defs><filter id="a" width="80" height="80" x="0" y="0" color-interpolation-filters="sRGB" filterUnits="userSpaceOnUse"><feFlood flood-opacity="0" result="BackgroundImageFix"/><feColorMatrix in="SourceAlpha" result="hardAlpha" values="0 0 0 0 0 0 0 0 0 0 0 0 0 0 0 0 0 0 127 0"/><feOffset dy="2"/><feGaussianBlur stdDeviation="4"/><feColorMatrix values="0 0 0 0 0 0 0 0 0 0 0 0 0 0 0 0 0 0 0.75 0"/><feBlend in2="BackgroundImageFix" result="effect1_dropShadow_603_1512"/><feBlend in="SourceGraphic" in2="effect1_dropShadow_603_1512" result="shape"/></filter></defs></svg>