<svg xmlns="http://www.w3.org/2000/svg" width="80" height="80" fill="none"><g filter="url(#a)"><rect width="64" height="64" x="8" y="6" fill="#212529" rx="5"/><path fill="#f4d44b" d="M37.016 15.025a26 26 0 0 1-2.846 1.795V17a.8.8 0 0 0 .281-.11c.123 0 .2.037.2.158l.2-.11h.1v.086a11 11 0 0 1-2 1.556l.11.171h-.1l-.21-.072c0 .062-.086.1-.28.11v.1l.218.243a.8.8 0 0 1-.289-.063 1.9 1.9 0 0 0-1.27.942l.11.171c.183-.198.397-.367.633-.5l.024.267a.9.9 0 0 0-.28.11l.232.342a6.8 6.8 0 0 1 1.451-1.209c.267.072.4.147.4.243h.2a15.5 15.5 0 0 1 4.25-2.3v.185c-.267.391-.439.586-.535.6a.74.74 0 0 0 .134.353 33 33 0 0 1-1.9 4.815 136 136 0 0 1-7.364 15.34.7.7 0 0 0 .11.267c.334-.054.655-.174.942-.353h.11v.185h.185l.206-.142c0 .062.072.086.2.072v.185a1.64 1.64 0 0 1-.318.843c-.3.434-.519.917-.647 1.428V41h.185a11.7 11.7 0 0 0 1.82-2.627 29.2 29.2 0 0 0 5.35-2.017 5 5 0 0 0 2.821-.966v-.1l-.465.134h-.11v-.1a4.24 4.24 0 0 0 1.872-.61c1.771-1.367 3.1-2.332 4.012-2.908 2.8-2.052 4.117-4.03 3.96-5.91a11 11 0 0 0-1.847-2.309c-.024-.267.4-.623 1.257-1.113l2.431-2.14a6.3 6.3 0 0 0 .976-3.37l-.05-.364c-.1-1.086-.88-1.966-2.37-2.637a9.2 9.2 0 0 0-4.722-.942 29 29 0 0 0-7.366 2l-.01.004Zm2.14 7.682c.185-1 .391-1.575.623-1.709l2.028-4.548c-.024-.28.4-.5 1.295-.647l.294-.024.024.267c.88-.134 1.418-.209 1.624-.233 1.6-.134 2.442.185 2.517.976h.185l-.037-.465h.2a1.22 1.22 0 0 1 .757.952 1.43 1.43 0 0 1-.415.952c-.123 0-.2-.072-.209-.267h-.2l-.048.551c-.818 1.222-1.4 1.846-1.77 1.872q-.496.677-.624.7a11.2 11.2 0 0 1-2.1 1.565 27.4 27.4 0 0 0-4.216 1.637.7.7 0 0 0-.39-.062v-.174c.01-.485.177-.954.475-1.337zm-6.6-3.443v.086a.9.9 0 0 0-.28.11h-.1v-.172zm5.88-.136.023.267c-.086 0-.209.134-.353.391V19.6a.9.9 0 0 0 .267-.476zm-.9 1.9.036.366h-.1l-.029-.364.092-.002Zm-.234.661c-.024.3-.1.465-.267.476h-.1a.93.93 0 0 0 .158-.465zm-.4.952v.086l-.17.294h-.186v-.08a.243.243 0 0 0 .267-.295h.088zm-.415.856-.048.452h-.1l-.037-.452zm2.14 1.367v.171l-.38.037v-.17zm-1.817 2.617A21.5 21.5 0 0 0 42 25.943l.575-.048a3.33 3.33 0 0 1 2.675.685l.037.366c-.439 1.271-.928 2-1.452 2.236l-2.442 1.942a24 24 0 0 1-2.942 1.808 21.9 21.9 0 0 1-5.4 2.48h-.11c.1-.342 1.38-2.98 3.873-7.942zm2.637-1.038v.086l-.39.037v-.086zm-6.083 5.9c-.123.623-.267.942-.39.952v-.086a1.04 1.04 0 0 1 .4-.867zm2.442 3.445a31.3 31.3 0 0 0 5.84-3.055v.171c0 .072-.268.3-.819.71-1.01.433-1.969.978-2.859 1.623-1.76.61-2.627.99-2.613 1.137q-1.578.59-3.079 1.356a1.1 1.1 0 0 1-.5-.134.8.8 0 0 1 .428-.78c.267-.028.536.014.781.122.486-.216.994-.38 1.514-.489v-.185l-.575.048a8.2 8.2 0 0 1 1.674-.78l.294-.025v.093c-.489.037-.77.2-.832.452a.16.16 0 0 0 .2.158 2.4 2.4 0 0 0 .535-.415zm-3-2.22v.086a.17.17 0 0 1-.095.194.2.2 0 0 1-.076.015v-.086a.18.18 0 0 1 .153-.207zm4.57 1.246a4.3 4.3 0 0 0-1.309.575h-.1v-.185c.454-.03.881-.226 1.2-.55a.183.183 0 0 1 .21.168zm-4.752 1.331.294-.024v.1a.8.8 0 0 0-.28.11h-.185a.21.21 0 0 1 .171-.186"/><path fill="#e5e5e5" d="M26.473 61a.25.25 0 0 1-.184-.072.25.25 0 0 1-.072-.184v-6.656a.25.25 0 0 1 .072-.184.25.25 0 0 1 .184-.072h3.123q.88 0 1.444.246.563.246.83.706.276.451.276 1.075 0 .37-.144.656a1.5 1.5 0 0 1-.338.46q-.195.185-.368.267.39.184.686.604.307.42.307.983 0 .676-.307 1.167-.298.481-.88.748-.574.256-1.414.256zm1.577-1.331h1.433q.441 0 .666-.256a.86.86 0 0 0 .225-.584.84.84 0 0 0-.235-.604q-.225-.246-.656-.246H28.05zm0-2.99h1.341q.42 0 .625-.215a.75.75 0 0 0 .215-.553.7.7 0 0 0-.215-.533q-.205-.215-.625-.215H28.05zm6.862 4.423q-.553 0-.994-.204a1.83 1.83 0 0 1-.686-.574 1.36 1.36 0 0 1-.256-.809q0-.727.594-1.147.594-.43 1.577-.583l1.28-.195v-.143q0-.369-.154-.564-.153-.194-.563-.194a.9.9 0 0 0-.47.113.8.8 0 0 0-.277.307.3.3 0 0 1-.256.133H33.56a.24.24 0 0 1-.174-.061.2.2 0 0 1-.051-.164q0-.184.133-.42.143-.246.43-.482.287-.235.737-.389.45-.153 1.086-.153.665 0 1.136.153.471.154.758.43.297.277.44.656.144.369.144.819v3.113a.23.23 0 0 1-.082.184.24.24 0 0 1-.174.072h-1.188a.25.25 0 0 1-.184-.072.25.25 0 0 1-.072-.184v-.358a1.5 1.5 0 0 1-.359.358 1.7 1.7 0 0 1-.532.256q-.297.102-.696.102m.48-1.167q.298 0 .533-.123a.9.9 0 0 0 .38-.4 1.5 1.5 0 0 0 .143-.685v-.144l-.87.154q-.483.082-.707.256-.216.164-.215.39a.45.45 0 0 0 .102.296.7.7 0 0 0 .266.195q.164.06.369.061Zm7.218 1.167q-.573 0-.962-.194a2 2 0 0 1-.625-.492v.328a.23.23 0 0 1-.082.184.24.24 0 0 1-.174.072H39.61a.25.25 0 0 1-.184-.072.25.25 0 0 1-.072-.184v-6.758a.25.25 0 0 1 .072-.185.25.25 0 0 1 .184-.071h1.25a.25.25 0 0 1 .184.071.25.25 0 0 1 .071.185v2.191a1.8 1.8 0 0 1 .615-.43 2.1 2.1 0 0 1 .88-.174q.513 0 .902.174.399.165.675.481.277.318.43.758.154.441.175.993a7 7 0 0 1 0 .717 3.3 3.3 0 0 1-.185 1.024 2.3 2.3 0 0 1-.43.758 1.85 1.85 0 0 1-.665.47q-.39.154-.901.154Zm-.553-1.372q.349 0 .543-.143a.77.77 0 0 0 .277-.39q.092-.245.112-.542a5 5 0 0 0 0-.635 2 2 0 0 0-.112-.543.77.77 0 0 0-.277-.389q-.194-.143-.543-.143a.9.9 0 0 0-.522.143.83.83 0 0 0-.307.359q-.102.215-.113.47a7 7 0 0 0 0 .769q.01.276.103.512.091.235.297.389.204.143.542.143m6.215 1.372q-1.209 0-1.925-.655-.717-.655-.748-1.946v-.358q.03-.81.359-1.382.337-.584.921-.881.594-.307 1.383-.307.9 0 1.484.358.594.359.891.973t.297 1.403v.246a.23.23 0 0 1-.082.184.24.24 0 0 1-.174.072h-3.277v.071q.01.298.103.543a.77.77 0 0 0 .758.532.8.8 0 0 0 .337-.06q.144-.073.236-.155a2 2 0 0 0 .143-.153.5.5 0 0 1 .144-.123q.06-.03.184-.03h1.27q.102 0 .164.06.071.052.061.154-.01.174-.174.42a2.2 2.2 0 0 1-.481.492 2.6 2.6 0 0 1-.779.389 3.6 3.6 0 0 1-1.095.153m-.87-3.307h1.73v-.02q0-.329-.102-.574a.75.75 0 0 0-.297-.379.8.8 0 0 0-.471-.133.8.8 0 0 0-.471.133.86.86 0 0 0-.287.379 1.5 1.5 0 0 0-.103.573v.02ZM52.15 61a.25.25 0 0 1-.184-.072.25.25 0 0 1-.072-.184v-6.758a.25.25 0 0 1 .072-.185.25.25 0 0 1 .184-.071h1.209a.25.25 0 0 1 .184.071.25.25 0 0 1 .072.185v6.758a.25.25 0 0 1-.072.184.25.25 0 0 1-.184.072z"/></g><defs><filter id="a" width="80" height="80" x="0" y="0" color-interpolation-filters="sRGB" filterUnits="userSpaceOnUse"><feFlood flood-opacity="0" result="BackgroundImageFix"/><feColorMatrix in="SourceAlpha" result="hardAlpha" values="0 0 0 0 0 0 0 0 0 0 0 0 0 0 0 0 0 0 127 0"/><feOffset dy="2"/><feGaussianBlur stdDeviation="4"/><feColorMatrix values="0 0 0 0 0 0 0 0 0 0 0 0 0 0 0 0 0 0 0.75 0"/><feBlend in2="BackgroundImageFix" result="effect1_dropShadow_602_1026"/><feBlend in="SourceGraphic" in2="effect1_dropShadow_602_1026" result="shape"/></filter></defs></svg>