<svg xmlns="http://www.w3.org/2000/svg" width="80" height="80" fill="none"><g filter="url(#a)"><rect width="64" height="64" x="8" y="6" fill="#212529" rx="5"/><g clip-path="url(#b)"><path fill="#00599c" d="M54.074 35c.224-.387.362-.822.362-1.213V20.213c0-.391-.138-.826-.362-1.213l-13.856 8z"/><path fill="#004482" d="m41.45 42.707 11.755-6.787c.339-.196.646-.534.87-.92l-13.857-8-13.856 8c.223.386.53.724.87.92l11.755 6.787c.677.39 1.785.39 2.462 0Z"/><path fill="#659ad2" d="M54.075 19c-.224-.387-.532-.724-.87-.92l-11.756-6.787c-.677-.39-1.785-.39-2.462 0L27.23 18.08c-.677.391-1.231 1.351-1.231 2.133v13.574c0 .391.139.827.362 1.213l13.856-8 13.856-8Z"/><path fill="#fff" d="M40.218 36.479c-5.227 0-9.479-4.252-9.479-9.479s4.252-9.479 9.479-9.479a9.51 9.51 0 0 1 8.208 4.737l-4.102 2.373a4.76 4.76 0 0 0-4.106-2.37A4.745 4.745 0 0 0 35.478 27a4.745 4.745 0 0 0 4.74 4.74 4.76 4.76 0 0 0 4.107-2.372l4.102 2.374a9.51 9.51 0 0 1-8.209 4.737"/><path fill="#fff" d="M49.697 26.473h-1.053V25.42H47.59v1.053h-1.054v1.053h1.054v1.054h1.053v-1.053h1.053v-1.054Zm3.949 0h-1.053V25.42H51.54v1.053h-1.053v1.053h1.053v1.054h1.053v-1.053h1.053z"/></g><path fill="#e5e5e5" d="M33.656 61.102q-.973 0-1.67-.317a2.47 2.47 0 0 1-1.075-.932q-.378-.614-.42-1.526a37 37 0 0 1 0-1.822q.042-.891.43-1.506.39-.624 1.086-.942.696-.327 1.649-.327.675 0 1.249.174.573.164 1.003.491.431.318.666.778.246.45.256 1.024a.17.17 0 0 1-.061.154.2.2 0 0 1-.154.062h-1.382a.35.35 0 0 1-.205-.052.5.5 0 0 1-.123-.215q-.144-.543-.471-.737-.317-.205-.789-.205-.563 0-.89.318-.328.307-.359 1.034-.03.84 0 1.72.03.727.359 1.045.327.306.89.307.47 0 .8-.205.327-.205.46-.737.04-.154.113-.205a.35.35 0 0 1 .215-.062h1.382a.2.2 0 0 1 .154.062q.071.06.061.154a2.25 2.25 0 0 1-.256 1.034q-.235.45-.666.778a3.3 3.3 0 0 1-1.003.492 4.5 4.5 0 0 1-1.25.163Zm6.227-.44a.25.25 0 0 1-.184-.072.25.25 0 0 1-.072-.184v-1.874h-1.823a.3.3 0 0 1-.194-.071.25.25 0 0 1-.072-.185v-.747a.25.25 0 0 1 .072-.185.3.3 0 0 1 .194-.071h1.823V55.45a.25.25 0 0 1 .072-.184.25.25 0 0 1 .184-.072h.84q.102 0 .174.072a.23.23 0 0 1 .082.184v1.823h1.812a.25.25 0 0 1 .185.071.25.25 0 0 1 .071.185v.747a.25.25 0 0 1-.071.184.25.25 0 0 1-.185.072H40.98v1.874a.23.23 0 0 1-.082.184.24.24 0 0 1-.174.072zm6.22 0a.25.25 0 0 1-.184-.072.25.25 0 0 1-.072-.184v-1.874h-1.823a.3.3 0 0 1-.194-.071.25.25 0 0 1-.072-.185v-.747a.25.25 0 0 1 .072-.185.3.3 0 0 1 .194-.071h1.823V55.45a.25.25 0 0 1 .072-.184.25.25 0 0 1 .184-.072h.84q.102 0 .174.072a.23.23 0 0 1 .082.184v1.823h1.812a.25.25 0 0 1 .185.071.25.25 0 0 1 .071.185v.747a.25.25 0 0 1-.071.184.25.25 0 0 1-.185.072H47.2v1.874a.23.23 0 0 1-.082.184.24.24 0 0 1-.174.072z"/></g><defs><clipPath id="b"><path fill="#fff" d="M26 11h28.436v32H26z"/></clipPath><filter id="a" width="80" height="80" x="0" y="0" color-interpolation-filters="sRGB" filterUnits="userSpaceOnUse"><feFlood flood-opacity="0" result="BackgroundImageFix"/><feColorMatrix in="SourceAlpha" result="hardAlpha" values="0 0 0 0 0 0 0 0 0 0 0 0 0 0 0 0 0 0 127 0"/><feOffset dy="2"/><feGaussianBlur stdDeviation="4"/><feColorMatrix values="0 0 0 0 0 0 0 0 0 0 0 0 0 0 0 0 0 0 0.75 0"/><feBlend in2="BackgroundImageFix" result="effect1_dropShadow_601_5080"/><feBlend in="SourceGraphic" in2="effect1_dropShadow_601_5080" result="shape"/></filter></defs></svg>