<svg xmlns="http://www.w3.org/2000/svg" width="80" height="80" fill="none"><g filter="url(#a)"><rect width="64" height="64" x="8" y="6" fill="#212529" rx="5"/><g clip-path="url(#b)"><path fill="#a179dc" d="M54.397 20.384q0-.806-.348-1.418-.341-.602-1.027-1.001c-3.78-2.18-7.565-4.353-11.344-6.535-1.019-.589-2.007-.567-3.018.03-1.505.887-9.039 5.203-11.284 6.504-.924.535-1.374 1.354-1.375 2.419L26 33.534q0 .789.332 1.391.34.62 1.043 1.028c2.245 1.3 9.78 5.617 11.284 6.504 1.012.597 2 .619 3.02.03 3.779-2.182 7.563-4.355 11.344-6.535q.702-.408 1.043-1.028.333-.602.332-1.391z"/><path fill="#280068" d="m40.242 26.916-13.91 8.01q.34.618 1.043 1.027c2.245 1.3 9.78 5.617 11.284 6.504 1.012.597 2 .619 3.02.03 3.779-2.182 7.563-4.355 11.344-6.535q.702-.408 1.043-1.028z"/><path fill="#390091" d="M54.397 20.384q0-.806-.348-1.418l-13.807 7.95 13.824 8.008q.332-.602.332-1.39s0-8.766-.002-13.15Z"/><path fill="#fff" d="M48.432 23.922v1.497h1.497v-1.497h.749v1.497h1.497v.748h-1.497v1.497h1.497v.749h-1.497v1.497h-.748v-1.497h-1.498v1.497h-.748v-1.497h-1.497v-.749h1.497v-1.497h-1.497v-.748h1.497v-1.497zm1.497 2.245h-1.497v1.497h1.497z"/><path fill="#fff" d="M40.273 16.403a10.55 10.55 0 0 1 9.14 5.273l-.018-.03-4.594 2.645a5.25 5.25 0 0 0-4.468-2.588h-.06a5.256 5.256 0 1 0 4.58 7.833l-.022.038 4.588 2.657a10.55 10.55 0 0 1-9.028 5.282h-.118a10.55 10.55 0 0 1-10.556-10.555c0-5.83 4.726-10.555 10.556-10.555"/></g><path fill="#e5e5e5" d="M36.156 61.102q-.973 0-1.67-.317a2.47 2.47 0 0 1-1.075-.932q-.378-.614-.42-1.526a37 37 0 0 1 0-1.822q.042-.891.43-1.506.39-.624 1.086-.942.696-.327 1.649-.327.675 0 1.249.174.574.164 1.003.491.431.318.666.778.247.45.256 1.024a.17.17 0 0 1-.061.154.2.2 0 0 1-.154.062h-1.382a.35.35 0 0 1-.205-.052.5.5 0 0 1-.123-.215q-.144-.543-.471-.737-.317-.205-.789-.205-.563 0-.89.318-.328.307-.359 1.034-.03.84 0 1.72.03.727.359 1.045.327.306.89.307.47 0 .8-.205.327-.205.46-.737.04-.154.113-.205a.35.35 0 0 1 .215-.062h1.382a.2.2 0 0 1 .154.062q.071.06.061.154a2.25 2.25 0 0 1-.256 1.034q-.235.45-.666.778a3.3 3.3 0 0 1-1.003.492 4.5 4.5 0 0 1-1.25.163Zm5.029-.501a.24.24 0 0 1-.164-.062.2.2 0 0 1-.051-.164l.143-.983h-.727a.24.24 0 0 1-.174-.071.26.26 0 0 1-.061-.174v-.8q0-.111.061-.173a.24.24 0 0 1 .174-.072h.922l.194-1.31h-.85a.24.24 0 0 1-.174-.072.26.26 0 0 1-.061-.174v-.8q0-.111.061-.173a.24.24 0 0 1 .175-.072h1.044l.154-.993a.36.36 0 0 1 .071-.144.2.2 0 0 1 .164-.071h.81q.09 0 .153.072.07.06.071.153l-.153.983h1.055l.153-.993a.36.36 0 0 1 .072-.144.2.2 0 0 1 .164-.071h.809q.092 0 .153.072.072.06.072.153l-.154.983h.727q.104 0 .174.072a.22.22 0 0 1 .072.174v.799a.24.24 0 0 1-.072.174.24.24 0 0 1-.174.071h-.911l-.195 1.311h.84q.102 0 .174.072.072.06.072.174v.799a.24.24 0 0 1-.072.174.24.24 0 0 1-.174.071h-1.034l-.144.994q-.03.215-.255.215h-.81a.2.2 0 0 1-.153-.062.25.25 0 0 1-.062-.164l.144-.983h-1.045l-.143.994q-.03.215-.256.215zm1.403-2.499h1.044l.195-1.31h-1.044z"/></g><defs><clipPath id="b"><path fill="#fff" d="M26 11h28.444v32H26z"/></clipPath><filter id="a" width="80" height="80" x="0" y="0" color-interpolation-filters="sRGB" filterUnits="userSpaceOnUse"><feFlood flood-opacity="0" result="BackgroundImageFix"/><feColorMatrix in="SourceAlpha" result="hardAlpha" values="0 0 0 0 0 0 0 0 0 0 0 0 0 0 0 0 0 0 127 0"/><feOffset dy="2"/><feGaussianBlur stdDeviation="4"/><feColorMatrix values="0 0 0 0 0 0 0 0 0 0 0 0 0 0 0 0 0 0 0.75 0"/><feBlend in2="BackgroundImageFix" result="effect1_dropShadow_601_5156"/><feBlend in="SourceGraphic" in2="effect1_dropShadow_601_5156" result="shape"/></filter></defs></svg>