<svg xmlns="http://www.w3.org/2000/svg" width="80" height="80" fill="none"><g filter="url(#a)"><rect width="64" height="64" x="8" y="6" fill="#212529" rx="5"/><path fill="#e3e3f8" fill-rule="evenodd" d="M33.116 29.22c.379-.248.692-.866.502-1.302-.519.222-.494.733-.502 1.302m5.868 1.417c.412-.132.808-.593.585-1.071-.321.222-.527.527-.585 1.071" clip-rule="evenodd"/><path fill="#fdfdfd" fill-rule="evenodd" d="M27.454 37.462c0 .519.131 1.08.494 1.277 1.335.75 6.017.165 7.607-.19.833-.19 1.509-.807 2.291-1.145 1.764-.767 3.042-1.385 4.451-2.415 1.022-.75 2.646-2.86 2.819-4.12l-1.393-.314c-.033 1.418-.355 1.739-1.615 2.069-.85.23-2.506.28-3.371.131-1.146-.19-1.665-.79-2.184-1.475-1.006-1.335.222-2.266-1.369-2.357-1.673 2.052-4.623.577-5.917.371-.552.8-1.846 5.992-1.83 7.178.8-.271 1.302.025 2.02.306 2.538.98.32 1.846-.693 1.59-.692-.165-.906-.618-1.31-.906m3.321-11.844c1.03.198 1.945.627 2.819 1.063 1.426.71 1.681.61 1.813 1.6.016.18-.016.28.503.444.873.272-.503-.214 1.838-.206 1.393.009 4.582.569 5.612 1.22.429.272.346.618 1.797.577-.016-1.706-.47-4.253-1.137-5.819-.816-1.895-1.896-2.184-4.097-2.893-1.285-.412-5.06-.865-6.23-.14-1.096.684-1.302 1.5-2.324 2.934-.297.42-.404.742-.594 1.22" clip-rule="evenodd"/><path fill="#fdfdfd" fill-rule="evenodd" d="M39.85 29.12c.823.339-.042 2.523-1.188 1.995-.37-1.046.511-1.64.75-2.11-.494-.074-1.904-.296-2.324-.14-.544.206-.667 1.369-.387 1.912 1.319 2.588 7.145 2.036 6.527.025-.247-.816-.478-.948-1.31-1.228-.668-.222-1.335-.453-2.069-.453Zm-10.36-.288c.659.635 2.15.734 3.115.783.123-1.277.23-2.233 1.252-2.159.503.684.24 1.492-.288 2.011.898-.008 1.417-.684 1.286-1.665-.759-.544-3.058-1.632-4.212-1.788-.321.346-1.113 2.241-1.154 2.818Z" clip-rule="evenodd"/><path fill="#020202" fill-rule="evenodd" d="M27.94 36.992c.544-.05 1.961.362 2.077.824-.882.107-2.003.024-2.077-.824m-.487.47c.404.288.619.741 1.311.906 1.014.255 3.23-.61.692-1.59-.717-.28-1.22-.578-2.019-.306-.016-1.186 1.277-6.379 1.83-7.178 1.294.206 4.244 1.681 5.917-.371 1.591.09.363 1.022 1.369 2.357.519.684 1.038 1.286 2.184 1.475.865.149 2.521.1 3.37-.132 1.261-.33 1.583-.65 1.616-2.068l1.393.313c-.173 1.261-1.797 3.37-2.819 4.12-1.41 1.031-2.687 1.65-4.45 2.416-.784.338-1.46.956-2.292 1.145-1.59.355-6.272.94-7.607.19-.363-.198-.495-.758-.495-1.278Zm11.53-6.825c.059-.544.265-.849.586-1.071.222.478-.173.94-.585 1.071Zm.866-1.516c.734 0 1.401.23 2.069.453.832.28 1.063.412 1.31 1.228.618 2.011-5.209 2.563-6.527-.025-.28-.544-.157-1.706.387-1.912.42-.156 1.83.066 2.324.14-.239.47-1.12 1.064-.75 2.11 1.146.528 2.011-1.656 1.187-1.994m-6.733.099c.008-.569-.017-1.08.502-1.302.19.436-.123 1.054-.502 1.302m-3.627-.388c.041-.577.833-2.472 1.154-2.818 1.154.156 3.453 1.244 4.212 1.788.132.98-.388 1.657-1.286 1.665.527-.52.791-1.327.288-2.011-1.022-.074-1.129.882-1.252 2.16-.965-.05-2.456-.15-3.116-.784m-.824-.66c-.305-.84-.305-2.15.99-2.257l-.66 1.838c-.173.395-.173.305-.33.42Zm2.11-2.554c.19-.478.297-.8.593-1.22 1.022-1.434 1.228-2.25 2.325-2.934 1.17-.725 4.945-.272 6.23.14 2.2.709 3.28.998 4.096 2.893.668 1.566 1.121 4.113 1.138 5.819-1.45.041-1.368-.305-1.797-.577-1.03-.651-4.22-1.212-5.612-1.22-2.341-.008-.965.478-1.838.206-.52-.165-.487-.264-.503-.445-.132-.989-.387-.89-1.813-1.599-.874-.437-1.789-.865-2.819-1.063m14.588-.404c-.157-.52.132-.486.635-.84.288-.207.519-.42.873-.619 1.327-.741 3.8-.865 4.855.017.428.354 1.129 1.047 1.022 1.953-.223 1.805-1.46 2.794-2.473 3.618-1.03.84-2.744 1.706-4.517 1.13-.148-.363-.032-2.663-.206-3.512-.156-.758-.074-.84.363-1.294 1.286-1.335 4.072-2.307 5.654-1.162.668.495.478.684.824 1.064.429-.462-.37-2.011-3.321-1.912-2.003.065-2.868 1.631-3.71 1.557Zm-12-4.69c.041-1.145 1.096-3.519 2.151-4.343 1.277-.989 2.613-1.92 4.574-.808.486.273.462.413.511 1.088.041.652-.016.89-.181 1.418-1.302 4.203-2.39 1.788-6.56 2.786.156-1.368 1.343-2.588 2.002-3.223 1.13-1.096 1.945-1.805 3.643-1.574.47.783.52 1.277-.05 2.192-.758 1.22-.947 1.146-.832 1.978.594-.148.775-.725 1.047-1.302 1.656-3.461-.75-3.882-2.225-3.247-.99.42-2.753 2.365-3.33 3.536-.115.23-.24.527-.346.783zm6.527.174c.173-1.03 1.195-1.286 1.195-4.46 0-1.367-1.68-2.595-3.881-1.68-1.888.774-2.176 1.368-3.182 2.884-.948 1.434-.915 3.008-1.73 4.335-.24.38-.454.511-.718.89-.19.28-.33.635-.519.965-.387.634-.783 1.096-1.096 1.854-.989.025-1.821.041-1.92 1.063-.132 1.401.527 1.748.527 2.275-.008.569-2.316 6.305-1.673 9.725.181.94.8.948 1.789 1.063 2.381.289 5.472.19 7.607-.667l3.873-1.855c.981-.552 2.63-1.598 3.363-2.365.52-.536.791-.989 1.236-1.623.61-.89.627-.874.758-2.086.808.149 2.316.503 2.82.94-.058.569-.339.297-.339.808.322.008.857-.396.99-.841-.339-.495-.693-.412-1.18-.808.388-.305 1.089-.445 1.624-.667 1.154-.478 3.124-1.929 3.61-3.248.388-1.063.1-2.835-.527-3.527-.66-.725-2.193-1.096-3.445-1.096-1.492 0-3.033 1.071-4.237 1.533-.461-.404-.494-.866-.832-1.31-.387-.528-2.91-1.847-4.113-2.102" clip-rule="evenodd"/><path fill="#fdf2f2" fill-rule="evenodd" d="M45.363 25.214c.84.074 1.706-1.492 3.709-1.558 2.95-.098 3.75 1.451 3.321 1.913-.346-.38-.156-.57-.824-1.064-1.582-1.145-4.368-.173-5.654 1.162-.437.454-.519.536-.362 1.294.173.85.057 3.149.206 3.511 1.772.577 3.486-.288 4.516-1.129 1.014-.824 2.25-1.813 2.473-3.618.107-.907-.594-1.599-1.022-1.953-1.055-.882-3.528-.758-4.855-.017-.354.198-.585.412-.873.619-.503.354-.792.32-.635.84" clip-rule="evenodd"/><path fill="#fef3f3" fill-rule="evenodd" d="m33.363 20.525.404-.717c.107-.256.23-.553.346-.783.577-1.17 2.34-3.116 3.33-3.536 1.475-.635 3.882-.214 2.225 3.247-.272.577-.453 1.154-1.047 1.302-.115-.832.075-.758.833-1.978.568-.915.519-1.409.05-2.192-1.699-.23-2.515.478-3.644 1.574-.659.635-1.846 1.855-2.002 3.223 4.17-.997 5.258 1.417 6.56-2.786.165-.527.223-.767.181-1.418-.05-.675-.024-.815-.51-1.087-1.962-1.113-3.297-.182-4.575.807-1.055.824-2.11 3.198-2.151 4.344" clip-rule="evenodd"/><path fill="#efefef" fill-rule="evenodd" d="M28.665 28.173c.157-.115.157-.025.33-.42l.66-1.838c-1.295.107-1.295 1.417-.99 2.258" clip-rule="evenodd"/><path fill="#faf1f1" fill-rule="evenodd" d="M30.017 37.816c-.116-.462-1.533-.874-2.077-.824.074.849 1.195.93 2.077.824" clip-rule="evenodd"/><path fill="#e5e5e5" d="M15.278 60a.2.2 0 0 1-.147-.057.2.2 0 0 1-.058-.148v-5.323a.2.2 0 0 1 .058-.148.2.2 0 0 1 .147-.057h3.825a.2.2 0 0 1 .147.057.2.2 0 0 1 .058.148v.77a.2.2 0 0 1-.058.147.2.2 0 0 1-.147.057H16.49v1.106h2.433q.09 0 .147.066a.2.2 0 0 1 .057.147v.712a.22.22 0 0 1-.057.148.2.2 0 0 1-.147.057H16.49v1.139h2.678a.2.2 0 0 1 .148.057.2.2 0 0 1 .057.147v.77a.2.2 0 0 1-.057.148.2.2 0 0 1-.148.057zm6.5.082a2 2 0 0 1-.712-.123 1.6 1.6 0 0 1-.54-.377 1.8 1.8 0 0 1-.344-.606 2.9 2.9 0 0 1-.14-.819 6 6 0 0 1 0-.573q.017-.443.14-.795a1.8 1.8 0 0 1 .344-.605q.22-.255.54-.386.319-.139.713-.139a1.64 1.64 0 0 1 1.204.483V54.39a.2.2 0 0 1 .057-.148.2.2 0 0 1 .148-.057h.999a.2.2 0 0 1 .139.057.2.2 0 0 1 .065.148v5.405q0 .09-.065.148a.2.2 0 0 1-.14.057h-.925a.2.2 0 0 1-.147-.057.2.2 0 0 1-.058-.148v-.262q-.196.238-.507.393t-.77.156Zm.443-1.098q.278 0 .434-.114a.7.7 0 0 0 .238-.311 1.1 1.1 0 0 0 .09-.41 6 6 0 0 0 0-.614 1 1 0 0 0-.09-.377.66.66 0 0 0-.246-.287.73.73 0 0 0-.426-.114.74.74 0 0 0-.434.114.6.6 0 0 0-.221.312 1.8 1.8 0 0 0-.082.434 2.7 2.7 0 0 0 0 .508q.016.237.082.434a.6.6 0 0 0 .221.31.74.74 0 0 0 .434.115M25.561 60a.2.2 0 0 1-.147-.057.2.2 0 0 1-.057-.148v-3.85a.2.2 0 0 1 .057-.147.2.2 0 0 1 .147-.057h.967a.2.2 0 0 1 .14.057.2.2 0 0 1 .065.148v3.85q0 .09-.066.147a.2.2 0 0 1-.14.057zm-.008-4.873a.2.2 0 0 1-.147-.057.2.2 0 0 1-.057-.148v-.729a.2.2 0 0 1 .057-.147.2.2 0 0 1 .147-.066h.975q.09 0 .147.066a.2.2 0 0 1 .066.147v.73q0 .09-.066.147a.2.2 0 0 1-.147.057zM29.871 60a2.3 2.3 0 0 1-.91-.164 1.26 1.26 0 0 1-.58-.524q-.206-.36-.206-.925v-1.573h-.639a.23.23 0 0 1-.155-.057.2.2 0 0 1-.057-.148v-.663a.2.2 0 0 1 .057-.148.23.23 0 0 1 .155-.057h.64V54.39a.2.2 0 0 1 .057-.148.22.22 0 0 1 .147-.057h.95a.2.2 0 0 1 .148.057.2.2 0 0 1 .057.148v1.351h1.024a.2.2 0 0 1 .147.057.2.2 0 0 1 .057.148v.663a.2.2 0 0 1-.057.148.2.2 0 0 1-.147.057h-1.024v1.458q0 .279.106.442.107.164.36.164h.631a.2.2 0 0 1 .148.057.2.2 0 0 1 .057.148v.712a.2.2 0 0 1-.057.148.2.2 0 0 1-.148.057zm3.659.082q-.688 0-1.163-.221a1.66 1.66 0 0 1-.72-.63 2.2 2.2 0 0 1-.28-.992 7 7 0 0 1 0-.737q.033-.582.296-.99.261-.41.729-.632.475-.22 1.138-.22.672 0 1.138.22.476.222.737.631.262.41.295.991a7 7 0 0 1 0 .737 2.1 2.1 0 0 1-.286.991 1.6 1.6 0 0 1-.721.63q-.467.222-1.163.222m0-1q.369 0 .532-.22.172-.222.197-.664.008-.122.008-.327c0-.205-.003-.246-.008-.328q-.025-.435-.197-.655-.163-.23-.532-.23-.36 0-.532.23-.172.221-.189.655a5 5 0 0 0-.008.328q0 .204.008.327.017.442.189.664.172.22.532.22m3.189.918a.2.2 0 0 1-.148-.057.2.2 0 0 1-.057-.148v-3.85a.2.2 0 0 1 .057-.138.2.2 0 0 1 .148-.066h.942q.09 0 .147.066a.2.2 0 0 1 .057.139v.328q.221-.254.524-.394.312-.139.697-.139h.36a.2.2 0 0 1 .14.057.2.2 0 0 1 .065.148v.843a.2.2 0 0 1-.066.148.2.2 0 0 1-.139.057h-.794q-.336 0-.525.189-.18.18-.18.516v2.096a.2.2 0 0 1-.065.148.2.2 0 0 1-.148.057zm5.44.082q-.607 0-1.073-.221a1.8 1.8 0 0 1-.746-.64 2 2 0 0 1-.295-1.015 6 6 0 0 1-.008-.327q0-.206.008-.336.025-.598.295-1.016.27-.426.737-.647a2.5 2.5 0 0 1 1.081-.22q.566 0 .967.163.401.156.655.393.255.238.377.492.13.245.14.434a.18.18 0 0 1-.058.147.22.22 0 0 1-.148.057h-1.04a.2.2 0 0 1-.14-.04.4.4 0 0 1-.09-.123q-.098-.255-.253-.36a.64.64 0 0 0-.385-.107q-.328 0-.508.213-.171.213-.188.655a9 9 0 0 0 0 .581q.016.451.188.656.18.204.508.204a.67.67 0 0 0 .401-.106q.148-.106.238-.36a.4.4 0 0 1 .09-.123.2.2 0 0 1 .14-.041h1.04q.081 0 .147.065a.16.16 0 0 1 .057.14 1.1 1.1 0 0 1-.082.327 1.86 1.86 0 0 1-.639.77 2.1 2.1 0 0 1-.598.278 2.8 2.8 0 0 1-.819.107Zm4.888 0q-.689 0-1.163-.221a1.66 1.66 0 0 1-.721-.63 2.2 2.2 0 0 1-.278-.992 7 7 0 0 1 0-.737q.032-.582.294-.99.262-.41.73-.632.474-.22 1.138-.22.671 0 1.138.22.475.222.737.631t.295.991a7 7 0 0 1 0 .737 2.1 2.1 0 0 1-.287.991 1.6 1.6 0 0 1-.72.63q-.468.222-1.163.222m0-1q.368 0 .532-.22.172-.222.197-.664.008-.122.008-.327c0-.205-.003-.246-.008-.328q-.025-.435-.197-.655-.165-.23-.532-.23-.36 0-.533.23-.171.221-.188.655a5 5 0 0 0-.008.328q0 .204.008.327.016.442.188.664.172.22.533.22m3.188.918a.2.2 0 0 1-.147-.057.2.2 0 0 1-.057-.148v-3.85a.2.2 0 0 1 .057-.147.2.2 0 0 1 .147-.057h.942a.2.2 0 0 1 .148.057.2.2 0 0 1 .057.148v.311q.213-.254.557-.426t.81-.172q.476 0 .836.213.369.213.573.63.213.411.213 1.008v2.285a.2.2 0 0 1-.065.148.2.2 0 0 1-.14.057h-1.031a.22.22 0 0 1-.148-.057.2.2 0 0 1-.057-.148V57.56q0-.384-.188-.59-.18-.212-.541-.212a.72.72 0 0 0-.54.213q-.197.204-.197.59v2.235q0 .09-.066.148a.2.2 0 0 1-.139.057h-1.024Zm5.69 0a.22.22 0 0 1-.147-.057.2.2 0 0 1-.057-.148v-2.98h-.623a.2.2 0 0 1-.147-.058.2.2 0 0 1-.058-.148v-.663a.2.2 0 0 1 .058-.148.2.2 0 0 1 .147-.057h.623v-.262q0-.557.213-.893a1.2 1.2 0 0 1 .622-.491 2.7 2.7 0 0 1 .958-.156h2.097a.2.2 0 0 1 .14.058.2.2 0 0 1 .065.147v.663q0 .09-.066.148a.2.2 0 0 1-.14.057h-2.03q-.279 0-.393.131-.107.131-.107.377v.221h2.53a.2.2 0 0 1 .14.057.2.2 0 0 1 .066.148v3.85q0 .09-.066.147a.2.2 0 0 1-.14.057h-.95a.2.2 0 0 1-.147-.057.2.2 0 0 1-.057-.148v-2.98H57.08v2.98a.2.2 0 0 1-.057.148.2.2 0 0 1-.148.057zm6.936 1.802q-.63 0-1.049-.164a2.1 2.1 0 0 1-.655-.393 1.6 1.6 0 0 1-.344-.459 1 1 0 0 1-.115-.352.17.17 0 0 1 .058-.147.23.23 0 0 1 .155-.058h1.04q.074 0 .123.033a.27.27 0 0 1 .09.131q.041.09.107.188a.5.5 0 0 0 .196.156.8.8 0 0 0 .352.066q.245 0 .41-.082a.5.5 0 0 0 .246-.254 1.1 1.1 0 0 0 .082-.467v-.549a1.4 1.4 0 0 1-.484.336 1.9 1.9 0 0 1-.712.123 2 2 0 0 1-.737-.123 1.3 1.3 0 0 1-.533-.368 1.8 1.8 0 0 1-.335-.598 3.2 3.2 0 0 1-.14-.811 6 6 0 0 1 0-.426q.025-.442.14-.795.114-.351.327-.605.222-.255.54-.386a1.8 1.8 0 0 1 .738-.139q.442 0 .753.172a1.6 1.6 0 0 1 .525.418v-.303a.2.2 0 0 1 .057-.14.2.2 0 0 1 .147-.065h.942q.09 0 .148.066a.18.18 0 0 1 .065.139v3.94q0 .622-.254 1.048t-.729.647-1.154.22Zm-.058-2.957a.73.73 0 0 0 .426-.114.66.66 0 0 0 .238-.295q.081-.18.09-.385.008-.09.008-.254t-.008-.246a1 1 0 0 0-.09-.393.6.6 0 0 0-.238-.287.73.73 0 0 0-.426-.114.74.74 0 0 0-.434.114.67.67 0 0 0-.23.312 1.8 1.8 0 0 0-.081.434q-.009.18 0 .368.015.238.082.434a.66.66 0 0 0 .23.312.74.74 0 0 0 .433.114"/></g><defs><filter id="a" width="80" height="80" x="0" y="0" color-interpolation-filters="sRGB" filterUnits="userSpaceOnUse"><feFlood flood-opacity="0" result="BackgroundImageFix"/><feColorMatrix in="SourceAlpha" result="hardAlpha" values="0 0 0 0 0 0 0 0 0 0 0 0 0 0 0 0 0 0 127 0"/><feOffset dy="2"/><feGaussianBlur stdDeviation="4"/><feColorMatrix values="0 0 0 0 0 0 0 0 0 0 0 0 0 0 0 0 0 0 0.75 0"/><feBlend in2="BackgroundImageFix" result="effect1_dropShadow_602_752"/><feBlend in="SourceGraphic" in2="effect1_dropShadow_602_752" result="shape"/></filter></defs></svg>