<svg xmlns="http://www.w3.org/2000/svg" width="80" height="80" fill="none"><g filter="url(#a)"><rect width="64" height="64" x="8" y="6" fill="#212529" rx="5"/><path fill="#ffca28" d="M34.728 17.483 25.211 27l9.517 9.517 3.613-3.588L32.411 27l5.928-5.93z"/><path stroke="#ffca28" stroke-width="1.455" d="M43.39 25.147c1.548 0 2.802-1.67 2.802-3.731s-1.254-3.73-2.801-3.73-2.802 1.67-2.802 3.73 1.255 3.73 2.802 3.73Z"/><path fill="#ffca28" d="m51.488 16.536 1.96.92-10.377 20.007-1.96-.92z"/><path stroke="#ffca28" stroke-width="1.455" d="M51.133 36.328c1.547 0 2.802-1.67 2.802-3.73s-1.255-3.731-2.802-3.731-2.801 1.67-2.801 3.73 1.254 3.731 2.801 3.731Z"/><path fill="#e5e5e5" d="M32.973 61a.25.25 0 0 1-.184-.072.25.25 0 0 1-.072-.184v-6.656a.25.25 0 0 1 .072-.184.25.25 0 0 1 .184-.072h4.782a.25.25 0 0 1 .184.072.25.25 0 0 1 .072.184v.963a.25.25 0 0 1-.072.184.25.25 0 0 1-.184.072h-3.267v1.382h3.042q.112 0 .184.082a.25.25 0 0 1 .072.184v.891a.27.27 0 0 1-.072.184.25.25 0 0 1-.184.072h-3.042v1.423h3.349a.25.25 0 0 1 .184.072.25.25 0 0 1 .072.184v.963a.25.25 0 0 1-.072.184.25.25 0 0 1-.184.072zm5.64 1.946a.25.25 0 0 1-.184-.072.25.25 0 0 1-.072-.184v-.83a.25.25 0 0 1 .072-.184.25.25 0 0 1 .184-.072h.38q.255 0 .388-.102a.47.47 0 0 0 .185-.267q.05-.163.05-.378V55.93a.25.25 0 0 1 .072-.184.27.27 0 0 1 .185-.072h1.27a.25.25 0 0 1 .184.072.25.25 0 0 1 .072.184v4.967q0 .664-.267 1.116-.256.461-.747.696-.492.236-1.198.236h-.574Zm1.25-8.039a.27.27 0 0 1-.185-.071.25.25 0 0 1-.071-.185v-.911a.25.25 0 0 1 .071-.184.26.26 0 0 1 .185-.082h1.29q.102 0 .174.082a.23.23 0 0 1 .082.184v.911a.23.23 0 0 1-.082.184.24.24 0 0 1-.174.072zm5.123 6.195q-.666 0-1.137-.143a2.8 2.8 0 0 1-.758-.369 1.7 1.7 0 0 1-.43-.44q-.144-.235-.154-.4a.21.21 0 0 1 .072-.184.25.25 0 0 1 .174-.082h1.168a.1.1 0 0 1 .05.01 1 1 0 0 1 .062.042q.134.071.266.184.135.102.308.184a1 1 0 0 0 .42.082.95.95 0 0 0 .48-.112.37.37 0 0 0 .195-.338q0-.164-.092-.267-.092-.112-.379-.215a5.4 5.4 0 0 0-.84-.204 4.4 4.4 0 0 1-.931-.318 1.6 1.6 0 0 1-.615-.522 1.4 1.4 0 0 1-.215-.789q0-.409.267-.788.266-.379.778-.614.512-.246 1.26-.246.593 0 1.023.143.441.133.738.348.306.215.46.44t.164.41a.24.24 0 0 1-.061.185.23.23 0 0 1-.164.071H46.03a.3.3 0 0 1-.082-.01 1 1 0 0 1-.072-.041 1.3 1.3 0 0 1-.245-.164 1.5 1.5 0 0 0-.287-.184.9.9 0 0 0-.41-.082q-.276 0-.43.123a.41.41 0 0 0-.072.563q.093.112.359.205.277.092.85.205.706.113 1.126.368.42.246.594.584.174.327.174.696 0 .492-.297.87-.285.38-.86.595-.573.204-1.392.204"/></g><defs><filter id="a" width="80" height="80" x="0" y="0" color-interpolation-filters="sRGB" filterUnits="userSpaceOnUse"><feFlood flood-opacity="0" result="BackgroundImageFix"/><feColorMatrix in="SourceAlpha" result="hardAlpha" values="0 0 0 0 0 0 0 0 0 0 0 0 0 0 0 0 0 0 127 0"/><feOffset dy="2"/><feGaussianBlur stdDeviation="4"/><feColorMatrix values="0 0 0 0 0 0 0 0 0 0 0 0 0 0 0 0 0 0 0.75 0"/><feBlend in2="BackgroundImageFix" result="effect1_dropShadow_602_927"/><feBlend in="SourceGraphic" in2="effect1_dropShadow_602_927" result="shape"/></filter></defs></svg>