<svg xmlns="http://www.w3.org/2000/svg" width="80" height="80" fill="none"><g filter="url(#a)"><rect width="64" height="64" x="8" y="6" fill="#212529" rx="5"/><path fill="#8080f2" d="m33.746 23.009 6.07-3.506a.49.49 0 0 1 .492 0l6.071 3.506a.49.49 0 0 1 .246.425v7.01a.49.49 0 0 1-.246.426l-6.071 3.505a.49.49 0 0 1-.491 0l-6.071-3.505a.49.49 0 0 1-.246-.426v-7.01a.49.49 0 0 1 .246-.425"/><path fill="#4b32c3" d="M55.802 26.365 48.54 13.73c-.263-.457-.75-.793-1.278-.793H32.738c-.527 0-1.015.336-1.279.793l-7.261 12.606a1.5 1.5 0 0 0 0 1.49l7.261 12.53c.264.457.752.69 1.28.69h14.523c.527 0 1.015-.226 1.278-.683l7.262-12.55a1.43 1.43 0 0 0 0-1.45ZM49.79 32.44a.53.53 0 0 1-.273.45l-9.25 5.337a.53.53 0 0 1-.523 0l-9.257-5.337a.53.53 0 0 1-.273-.45V21.766c0-.186.11-.357.272-.45l9.249-5.337a.53.53 0 0 1 .523 0l9.258 5.337a.53.53 0 0 1 .274.45z"/><path fill="#e5e5e5" d="M25.473 61a.25.25 0 0 1-.184-.072.25.25 0 0 1-.072-.184v-6.656a.25.25 0 0 1 .072-.184.25.25 0 0 1 .184-.072h4.782a.25.25 0 0 1 .184.072.25.25 0 0 1 .072.184v.963a.25.25 0 0 1-.072.184.25.25 0 0 1-.184.072h-3.267v1.382h3.042q.112 0 .184.082a.25.25 0 0 1 .072.184v.891a.27.27 0 0 1-.072.184.25.25 0 0 1-.184.072h-3.042v1.423h3.349a.25.25 0 0 1 .184.072.25.25 0 0 1 .072.184v.963a.25.25 0 0 1-.072.184.25.25 0 0 1-.184.072zm8.363.102q-.666 0-1.137-.143a2.8 2.8 0 0 1-.758-.369 1.7 1.7 0 0 1-.43-.44q-.143-.235-.154-.4a.21.21 0 0 1 .072-.184.25.25 0 0 1 .174-.082h1.168a.1.1 0 0 1 .05.01l.062.042q.134.071.266.184.134.102.308.184a1 1 0 0 0 .42.082.95.95 0 0 0 .48-.112.37.37 0 0 0 .195-.338q0-.164-.092-.267-.092-.112-.379-.215a5.4 5.4 0 0 0-.84-.204 4.4 4.4 0 0 1-.931-.318 1.6 1.6 0 0 1-.615-.522 1.4 1.4 0 0 1-.215-.789q0-.409.267-.788.266-.379.778-.614.512-.246 1.26-.246.593 0 1.023.143.441.133.738.348.306.215.46.44t.164.41a.24.24 0 0 1-.061.185.23.23 0 0 1-.164.071H34.88a.3.3 0 0 1-.082-.01l-.072-.041a1.3 1.3 0 0 1-.245-.164 1.5 1.5 0 0 0-.287-.184.9.9 0 0 0-.41-.082q-.276 0-.43.123a.41.41 0 0 0-.072.563q.092.112.359.205.276.092.85.205.705.113 1.126.368.42.246.594.584.174.327.174.696 0 .492-.297.87-.285.38-.86.595-.573.204-1.392.204M37.56 61a.25.25 0 0 1-.184-.072.25.25 0 0 1-.072-.184v-6.758a.25.25 0 0 1 .072-.185.25.25 0 0 1 .184-.071h1.209a.25.25 0 0 1 .184.071.25.25 0 0 1 .072.185v6.758a.25.25 0 0 1-.072.184.25.25 0 0 1-.184.072zm3.28 0a.25.25 0 0 1-.184-.072.25.25 0 0 1-.072-.184v-4.813a.25.25 0 0 1 .072-.184.25.25 0 0 1 .184-.072h1.208q.103 0 .175.072.081.072.081.184v4.813a.23.23 0 0 1-.081.184.24.24 0 0 1-.175.072zm-.01-6.093a.25.25 0 0 1-.184-.071.25.25 0 0 1-.072-.185v-.911a.25.25 0 0 1 .072-.184.23.23 0 0 1 .184-.082h1.218q.114 0 .185.082a.23.23 0 0 1 .082.184v.911a.23.23 0 0 1-.082.184.25.25 0 0 1-.184.072zM44.08 61a.25.25 0 0 1-.184-.072.25.25 0 0 1-.072-.184v-4.813a.25.25 0 0 1 .072-.184.25.25 0 0 1 .184-.072h1.178a.25.25 0 0 1 .184.072.25.25 0 0 1 .072.184v.39q.266-.318.696-.533a2.24 2.24 0 0 1 1.014-.215q.594 0 1.044.266.461.266.717.788.267.513.266 1.26v2.857a.23.23 0 0 1-.082.184.24.24 0 0 1-.174.072h-1.29a.27.27 0 0 1-.184-.072.25.25 0 0 1-.072-.184v-2.795q0-.481-.235-.738-.225-.266-.676-.266-.42 0-.676.266-.246.256-.246.738v2.795a.23.23 0 0 1-.082.184.24.24 0 0 1-.174.072zm8.988 0q-.656 0-1.137-.205a1.58 1.58 0 0 1-.727-.655q-.256-.45-.256-1.157v-1.966h-.798a.3.3 0 0 1-.195-.072.25.25 0 0 1-.072-.184v-.83a.25.25 0 0 1 .072-.184.3.3 0 0 1 .195-.072h.798v-1.69a.25.25 0 0 1 .072-.184.27.27 0 0 1 .184-.071h1.188a.25.25 0 0 1 .184.071.25.25 0 0 1 .072.185v1.69h1.28a.25.25 0 0 1 .184.07.25.25 0 0 1 .072.185v.83a.25.25 0 0 1-.072.184.25.25 0 0 1-.184.072h-1.28v1.822q0 .35.133.553.134.205.45.205h.79a.25.25 0 0 1 .184.072.25.25 0 0 1 .071.184v.891a.25.25 0 0 1-.071.184.25.25 0 0 1-.185.072z"/></g><defs><filter id="a" width="80" height="80" x="0" y="0" color-interpolation-filters="sRGB" filterUnits="userSpaceOnUse"><feFlood flood-opacity="0" result="BackgroundImageFix"/><feColorMatrix in="SourceAlpha" result="hardAlpha" values="0 0 0 0 0 0 0 0 0 0 0 0 0 0 0 0 0 0 127 0"/><feOffset dy="2"/><feGaussianBlur stdDeviation="4"/><feColorMatrix values="0 0 0 0 0 0 0 0 0 0 0 0 0 0 0 0 0 0 0.75 0"/><feBlend in2="BackgroundImageFix" result="effect1_dropShadow_602_477"/><feBlend in="SourceGraphic" in2="effect1_dropShadow_602_477" result="shape"/></filter></defs></svg>