<svg xmlns="http://www.w3.org/2000/svg" width="80" height="80" fill="none"><g filter="url(#a)"><rect width="64" height="64" x="8" y="6" fill="#212529" rx="5"/><path fill="#fff" d="M48.292 29.547a3.93 3.93 0 0 0 4.115-3.145 2.57 2.57 0 0 0-2.161-1.177c-2.272-.052-3.491 2.651-1.953 4.323zm-9.177-10.85 5.359-3.104-1.708-.963-7.391 4.281.589.328 1.119.629 2.032-1.176zm6.046-3.39c.089.027.161.1.188.188l2.484 7.593a.285.285 0 0 1-.125.344 5.06 5.06 0 0 0-2.317 5.693 5.066 5.066 0 0 0 5.401 3.703.3.3 0 0 1 .307.203l2.563 7.803a.3.3 0 0 1-.125.344l-7.859 4.771a.3.3 0 0 1-.131.036.26.26 0 0 1-.203-.041l-2.765-1.797a.3.3 0 0 1-.109-.129l-5.396-12.896-8.219 4.875c-.016.011-.037.021-.052.032a.3.3 0 0 1-.261-.021l-1.859-1.093a.283.283 0 0 1-.115-.381l7.953-15.749a.27.27 0 0 1 .135-.131l7.959-4.609a.29.29 0 0 1 .292-.005zm-8.322 5.1-1.932-1.089-7.693 15.229 1.396.823 6.631-9.015a.28.28 0 0 1 .271-.12.29.29 0 0 1 .235.177l7.228 17.296 1.933 1.251-8.063-24.552zm13.406 10.557c-2.256 0-3.787-2.292-2.923-4.376.86-2.083 3.563-2.619 5.156-1.025.595.593.928 1.396.928 2.235a3.16 3.16 0 0 1-3.161 3.166"/><path fill="#e5e5e5" d="M30.672 60a.2.2 0 0 1-.147-.057.2.2 0 0 1-.057-.148v-5.323a.2.2 0 0 1 .057-.148.2.2 0 0 1 .148-.057h3.824a.2.2 0 0 1 .148.057.2.2 0 0 1 .057.148v.77a.2.2 0 0 1-.057.147.2.2 0 0 1-.148.057h-2.612v1.106h2.432q.09 0 .148.066a.2.2 0 0 1 .057.147v.712q0 .082-.057.148a.2.2 0 0 1-.148.057h-2.432v1.139h2.678a.2.2 0 0 1 .147.057.2.2 0 0 1 .057.147v.77a.2.2 0 0 1-.057.148.2.2 0 0 1-.147.057h-3.89Zm4.764 0a.2.2 0 0 1-.13-.05.2.2 0 0 1-.042-.188.2.2 0 0 1 .033-.073l1.368-1.876-1.245-1.76a.4.4 0 0 1-.04-.066.3.3 0 0 1-.01-.066q0-.074.058-.123a.18.18 0 0 1 .131-.057h1q.105 0 .155.05a.4.4 0 0 1 .082.09l.762 1.056.753-1.048q.033-.042.082-.09.057-.058.164-.058h.958q.074 0 .123.057a.16.16 0 0 1 .057.123.3.3 0 0 1-.008.066.2.2 0 0 1-.033.065l-1.277 1.761 1.384 1.876a.14.14 0 0 1 .04.065.3.3 0 0 1 .009.066.18.18 0 0 1-.058.13.18.18 0 0 1-.13.05h-1.04q-.099 0-.148-.041a1 1 0 0 1-.082-.09l-.827-1.122-.835 1.122-.082.082q-.05.05-.156.049zm5.192 1.556a.2.2 0 0 1-.147-.057.2.2 0 0 1-.058-.148v-5.405a.2.2 0 0 1 .058-.148.2.2 0 0 1 .147-.057h.925a.2.2 0 0 1 .14.057.19.19 0 0 1 .065.148v.303a1.45 1.45 0 0 1 .5-.418q.31-.171.77-.172.41 0 .72.131.312.123.533.369.22.246.344.598.13.352.147.81a6 6 0 0 1 0 .607 2.7 2.7 0 0 1-.14.794 1.7 1.7 0 0 1-.343.598 1.55 1.55 0 0 1-.54.385 1.85 1.85 0 0 1-.721.13q-.402 0-.705-.138a1.4 1.4 0 0 1-.491-.41v1.818a.2.2 0 0 1-.057.148.2.2 0 0 1-.148.057zm1.957-2.572q.278 0 .434-.114a.6.6 0 0 0 .222-.311 1.5 1.5 0 0 0 .09-.434q.015-.255 0-.508a1.5 1.5 0 0 0-.09-.434.6.6 0 0 0-.221-.312q-.156-.114-.435-.114-.27 0-.434.123a.65.65 0 0 0-.237.303q-.075.188-.082.41a6 6 0 0 0 0 .613q.008.205.09.385.083.172.246.287.163.106.417.106m5.02 1.098q-.689 0-1.163-.221a1.66 1.66 0 0 1-.721-.63 2.2 2.2 0 0 1-.278-.992 8 8 0 0 1 0-.737q.032-.582.294-.99.262-.41.73-.632.474-.22 1.138-.22.671 0 1.138.22.476.222.737.631.262.41.295.991a8 8 0 0 1 0 .737 2.1 2.1 0 0 1-.287.991 1.6 1.6 0 0 1-.72.63q-.468.222-1.163.222m0-1q.368 0 .532-.22.172-.222.197-.664.008-.122.008-.327c0-.205-.003-.246-.008-.328q-.025-.435-.197-.655-.165-.23-.532-.23-.36 0-.533.23-.171.221-.188.655a5 5 0 0 0-.008.328q0 .204.008.327.016.442.188.664.172.22.533.22"/></g><defs><filter id="a" width="80" height="80" x="0" y="0" color-interpolation-filters="sRGB" filterUnits="userSpaceOnUse"><feFlood flood-opacity="0" result="BackgroundImageFix"/><feColorMatrix in="SourceAlpha" result="hardAlpha" values="0 0 0 0 0 0 0 0 0 0 0 0 0 0 0 0 0 0 127 0"/><feOffset dy="2"/><feGaussianBlur stdDeviation="4"/><feColorMatrix values="0 0 0 0 0 0 0 0 0 0 0 0 0 0 0 0 0 0 0.75 0"/><feBlend in2="BackgroundImageFix" result="effect1_dropShadow_602_1931"/><feBlend in="SourceGraphic" in2="effect1_dropShadow_602_1931" result="shape"/></filter></defs></svg>