<svg xmlns="http://www.w3.org/2000/svg" width="80" height="80" fill="none"><g filter="url(#a)"><rect width="64" height="64" x="8" y="6" fill="#212529" rx="5"/><path fill="#fff" d="M24.208 29.57v-3.56h4.447v-.21h-4.447v-3.249h4.728v-.208H24v7.435h4.977v-.208zm8.779-5.144-1.844 2.427-1.801-2.427h-.27l1.947 2.583-2.135 2.77h.25l2.01-2.614 2.02 2.614h.26l-2.145-2.77 1.958-2.583zm1.062 7.186v-3.333h.02q.188.73.74 1.172t1.406.442q.552 0 .979-.224t.713-.609q.286-.384.437-.895a3.8 3.8 0 0 0 .151-1.073q0-.604-.156-1.114a2.7 2.7 0 0 0-.453-.885 2.1 2.1 0 0 0-.718-.583 2.1 2.1 0 0 0-.953-.209q-.407 0-.755.12a2 2 0 0 0-.62.339q-.27.218-.468.515a2.4 2.4 0 0 0-.302.65h-.021v-1.499h-.209v7.186zm2.166-1.916q-.98 0-1.573-.672t-.593-1.932q0-.52.146-.99.145-.467.421-.822c.276-.355.412-.423.682-.562a2 2 0 0 1 .917-.208q.52 0 .91.208.392.209.647.567.255.36.385.823.13.464.13.984a3.7 3.7 0 0 1-.12.932q-.12.465-.37.833a2 2 0 0 1-.64.604q-.39.235-.942.235m3.426.083v-3.03q0-.438.125-.854.124-.417.385-.735.26-.317.661-.5.402-.18.953-.15v-.21a2.6 2.6 0 0 0-.838.105q-.36.114-.62.312a1.6 1.6 0 0 0-.416.463 2 2 0 0 0-.23.568h-.02v-1.323h-.209v5.353zm2.384-2.635h4.478a3.7 3.7 0 0 0-.11-1.062 2.6 2.6 0 0 0-.416-.906 2.1 2.1 0 0 0-.74-.635q-.451-.24-1.077-.24-.447 0-.875.188a2.2 2.2 0 0 0-.75.547q-.322.359-.52.88a3.3 3.3 0 0 0-.198 1.187q0 .593.136 1.109a2.6 2.6 0 0 0 .416.895q.282.381.724.588.442.21 1.067.198.917 0 1.541-.515.625-.516.74-1.453h-.209q-.135.885-.692 1.328-.557.442-1.4.442-.574 0-.97-.197a1.75 1.75 0 0 1-.645-.542 2.4 2.4 0 0 1-.37-.807 4.3 4.3 0 0 1-.13-1.005m4.27-.208h-4.27q.031-.563.209-1.01.177-.448.463-.765.286-.318.666-.485.38-.165.818-.166.521 0 .916.192.396.193.661.526.267.333.401.776.136.443.136.932m4.53-.927h.208q0-.895-.52-1.301-.522-.407-1.417-.407a2.5 2.5 0 0 0-.843.125q-.344.125-.563.323t-.312.438q-.094.24-.094.458 0 .437.156.697.157.261.49.407.229.104.52.187t.677.177q.345.084.677.167t.588.223q.256.141.417.36t.161.573q0 .343-.161.583-.162.24-.411.39-.25.15-.558.219a2.8 2.8 0 0 1-.598.067q-.948 0-1.453-.421-.505-.422-.505-1.328h-.208q0 1.01.547 1.479.546.468 1.619.468.344 0 .692-.078.35-.078.625-.255c.275-.177.333-.27.448-.458q.172-.282.172-.687 0-.385-.151-.625a1.3 1.3 0 0 0-.396-.396 2.1 2.1 0 0 0-.552-.244 32 32 0 0 0-.62-.172 64 64 0 0 0-.765-.198 5 5 0 0 1-.61-.198 1.03 1.03 0 0 1-.431-.328q-.162-.213-.162-.61 0-.072.042-.26a.9.9 0 0 1 .198-.38q.156-.192.479-.343t.885-.151q.385 0 .703.083t.547.266q.228.181.354.463.125.28.125.687m4.82 0h.21q0-.895-.521-1.301-.522-.407-1.417-.407a2.5 2.5 0 0 0-.843.125q-.345.125-.562.323a1.16 1.16 0 0 0-.313.438q-.094.24-.094.458 0 .437.157.697.156.261.49.407.228.104.52.187.291.083.677.177.343.084.676.167.334.083.589.223t.416.36.162.573q0 .343-.162.583-.16.24-.411.39-.25.15-.557.219a2.8 2.8 0 0 1-.599.067q-.948 0-1.453-.421-.505-.422-.505-1.328h-.208q0 1.01.547 1.479.546.468 1.62.468.342 0 .692-.078.348-.078.624-.255c.276-.177.334-.27.448-.458q.172-.282.172-.687 0-.385-.151-.625-.15-.24-.396-.396a2.1 2.1 0 0 0-.552-.244 32 32 0 0 0-.62-.172 59 59 0 0 0-.765-.198 5 5 0 0 1-.609-.198 1.03 1.03 0 0 1-.432-.328q-.161-.213-.161-.61 0-.072.041-.26a.9.9 0 0 1 .198-.38q.156-.192.48-.343.322-.151.884-.151.385 0 .703.083t.547.266q.229.181.354.463.125.28.125.687Z"/><path fill="#e5e5e5" d="M19.973 61a.25.25 0 0 1-.184-.072.25.25 0 0 1-.072-.184v-6.656a.25.25 0 0 1 .072-.184.25.25 0 0 1 .184-.072h4.782a.25.25 0 0 1 .184.072.25.25 0 0 1 .072.184v.963a.25.25 0 0 1-.072.184.25.25 0 0 1-.184.072h-3.267v1.382h3.042q.112 0 .184.082a.25.25 0 0 1 .072.184v.891a.27.27 0 0 1-.072.184.25.25 0 0 1-.184.072h-3.042v1.423h3.349a.25.25 0 0 1 .184.072.25.25 0 0 1 .072.184v.963a.25.25 0 0 1-.072.184.25.25 0 0 1-.184.072zm5.956 0a.25.25 0 0 1-.164-.061.25.25 0 0 1-.05-.236.2.2 0 0 1 .04-.092l1.71-2.345-1.556-2.202a1 1 0 0 1-.052-.082.3.3 0 0 1-.01-.081q0-.093.072-.154a.23.23 0 0 1 .164-.072h1.249q.133 0 .195.062a.5.5 0 0 1 .102.112l.952 1.321.942-1.31q.042-.052.103-.113.071-.072.205-.072h1.198q.091 0 .153.072.072.06.072.154a.3.3 0 0 1-.01.081.2.2 0 0 1-.041.082l-1.598 2.202 1.73 2.345a.2.2 0 0 1 .052.082q.01.04.01.082a.226.226 0 0 1-.235.225h-1.3q-.124 0-.185-.051a1 1 0 0 1-.102-.113l-1.035-1.403-1.044 1.403-.103.103q-.06.06-.194.061zm6.491 1.946a.25.25 0 0 1-.184-.072.25.25 0 0 1-.072-.184v-6.76a.25.25 0 0 1 .072-.184.25.25 0 0 1 .184-.072h1.157q.103 0 .174.072.082.072.082.184v.38q.236-.319.625-.523.39-.215.962-.215.513 0 .902.164.388.154.665.46t.43.748q.164.44.185 1.014a8 8 0 0 1 0 .758q-.021.553-.174.993a2.2 2.2 0 0 1-.43.747q-.277.307-.676.482-.39.163-.902.163a2.1 2.1 0 0 1-.88-.174 1.7 1.7 0 0 1-.615-.512v2.274a.25.25 0 0 1-.071.184.25.25 0 0 1-.185.072zm2.447-3.216q.35 0 .543-.143a.77.77 0 0 0 .277-.39q.092-.245.112-.542a5 5 0 0 0 0-.635 2 2 0 0 0-.112-.543.77.77 0 0 0-.277-.389q-.194-.143-.542-.143-.339 0-.543.154a.8.8 0 0 0-.297.378 1.6 1.6 0 0 0-.103.512 7 7 0 0 0 0 .768q.01.257.113.482a.9.9 0 0 0 .307.358.94.94 0 0 0 .523.133ZM38.88 61a.25.25 0 0 1-.184-.072.25.25 0 0 1-.072-.184v-4.813q0-.102.072-.174a.23.23 0 0 1 .184-.082h1.178q.112 0 .184.082a.24.24 0 0 1 .072.174v.41q.276-.318.655-.492.39-.174.87-.174h.451q.102 0 .174.072.082.072.082.184v1.055q0 .103-.082.184a.24.24 0 0 1-.174.072h-.993q-.42 0-.656.235-.225.225-.225.646v2.621a.23.23 0 0 1-.082.184.25.25 0 0 1-.184.072zm6.812.102q-1.209 0-1.925-.655-.717-.655-.748-1.946v-.358q.03-.81.358-1.382.339-.584.922-.881.594-.307 1.383-.307.9 0 1.484.358.594.359.891.973t.297 1.403v.246a.23.23 0 0 1-.082.184.24.24 0 0 1-.174.072h-3.277v.071q.01.298.103.543a.77.77 0 0 0 .758.532.8.8 0 0 0 .337-.06q.144-.073.236-.155a2 2 0 0 0 .143-.153.5.5 0 0 1 .144-.123q.06-.03.184-.03h1.27q.102 0 .164.06.071.052.061.154-.01.174-.174.42a2.2 2.2 0 0 1-.481.492 2.6 2.6 0 0 1-.779.389 3.6 3.6 0 0 1-1.095.153m-.87-3.307h1.73v-.02q0-.329-.102-.574a.75.75 0 0 0-.297-.379.8.8 0 0 0-.471-.133.8.8 0 0 0-.471.133.86.86 0 0 0-.287.379 1.5 1.5 0 0 0-.103.573v.02Zm6.683 3.307q-.665 0-1.136-.143a2.8 2.8 0 0 1-.758-.369 1.7 1.7 0 0 1-.43-.44q-.143-.235-.154-.4a.21.21 0 0 1 .072-.184.25.25 0 0 1 .174-.082h1.168a.1.1 0 0 1 .05.01 1 1 0 0 1 .062.042q.134.071.266.184.135.102.308.184a1 1 0 0 0 .42.082.95.95 0 0 0 .48-.112.37.37 0 0 0 .195-.338q0-.164-.092-.267-.092-.112-.379-.215a5.4 5.4 0 0 0-.84-.204 4.4 4.4 0 0 1-.931-.318 1.6 1.6 0 0 1-.615-.522 1.4 1.4 0 0 1-.215-.789q0-.409.267-.788.265-.379.778-.614.511-.246 1.26-.246.593 0 1.023.143.441.133.738.348.306.215.46.44t.164.41a.24.24 0 0 1-.061.185.23.23 0 0 1-.164.071H52.55a.3.3 0 0 1-.082-.01 1 1 0 0 1-.072-.041 1.3 1.3 0 0 1-.245-.164 1.5 1.5 0 0 0-.287-.184.9.9 0 0 0-.41-.082q-.276 0-.43.123a.41.41 0 0 0-.072.563q.092.112.359.205.276.092.85.205.705.113 1.126.368.42.246.594.584.174.327.174.696 0 .492-.297.87-.285.38-.86.595-.573.204-1.393.204m5.66 0q-.665 0-1.136-.143a2.8 2.8 0 0 1-.758-.369 1.7 1.7 0 0 1-.43-.44q-.144-.235-.154-.4a.21.21 0 0 1 .072-.184.25.25 0 0 1 .174-.082h1.168a.1.1 0 0 1 .05.01 1 1 0 0 1 .062.042q.134.071.266.184.135.102.308.184a1 1 0 0 0 .42.082.95.95 0 0 0 .48-.112.37.37 0 0 0 .195-.338q0-.164-.092-.267-.092-.112-.379-.215a5.4 5.4 0 0 0-.84-.204 4.4 4.4 0 0 1-.931-.318 1.6 1.6 0 0 1-.615-.522 1.4 1.4 0 0 1-.215-.789q0-.409.267-.788.266-.379.778-.614.512-.246 1.26-.246.593 0 1.023.143.441.133.738.348.306.215.46.44t.164.41a.24.24 0 0 1-.061.185.23.23 0 0 1-.164.071H58.21a.3.3 0 0 1-.082-.01 1 1 0 0 1-.072-.041 1.3 1.3 0 0 1-.245-.164 1.5 1.5 0 0 0-.287-.184.9.9 0 0 0-.41-.082q-.276 0-.43.123a.41.41 0 0 0-.072.563q.092.112.359.205.276.092.85.205.706.113 1.126.368.42.246.594.584.174.327.174.696 0 .492-.297.87-.285.38-.86.595-.573.204-1.392.204Z"/></g><defs><filter id="a" width="80" height="80" x="0" y="0" color-interpolation-filters="sRGB" filterUnits="userSpaceOnUse"><feFlood flood-opacity="0" result="BackgroundImageFix"/><feColorMatrix in="SourceAlpha" result="hardAlpha" values="0 0 0 0 0 0 0 0 0 0 0 0 0 0 0 0 0 0 127 0"/><feOffset dy="2"/><feGaussianBlur stdDeviation="4"/><feColorMatrix values="0 0 0 0 0 0 0 0 0 0 0 0 0 0 0 0 0 0 0.75 0"/><feBlend in2="BackgroundImageFix" result="effect1_dropShadow_602_1861"/><feBlend in="SourceGraphic" in2="effect1_dropShadow_602_1861" result="shape"/></filter></defs></svg>