<svg xmlns="http://www.w3.org/2000/svg" width="80" height="80" fill="none"><g filter="url(#a)"><rect width="64" height="64" x="8" y="6" fill="#212529" rx="5"/><path fill="#40d0fd" d="m39.383 32.316 3.361-3.274h8.35l-7.397 7.396z"/><path fill="#41d0fd" d="m28.907 30.125 4.199 4.3 17.987-18.138h-8.349z"/><path fill="#1fbcfd" d="m35.176 36.479 4.259 4.196 4.262-4.237-4.314-4.122z"/><path fill="#095a9d" d="m39.435 40.675 4.262-4.237 7.292 7.375h-8.396z"/><path fill="#0e5199" d="m39.435 40.675 3.971-1.321-1.338-1.297z"/><path fill="#e5e5e5" d="M22.923 61a.25.25 0 0 1-.184-.072.25.25 0 0 1-.072-.184v-6.656a.25.25 0 0 1 .071-.184.25.25 0 0 1 .185-.072h4.7a.25.25 0 0 1 .184.072.23.23 0 0 1 .082.184v1.034a.23.23 0 0 1-.082.185.25.25 0 0 1-.184.071h-3.154v1.505h2.95q.112 0 .183.082.082.072.082.185v1.024q0 .102-.082.184a.25.25 0 0 1-.184.072H24.47v2.314a.25.25 0 0 1-.072.184.25.25 0 0 1-.184.072h-1.29Zm6.207 0a.25.25 0 0 1-.184-.072.25.25 0 0 1-.072-.184v-6.758a.25.25 0 0 1 .072-.185.25.25 0 0 1 .184-.071h1.209a.25.25 0 0 1 .184.071.25.25 0 0 1 .072.185v6.758a.25.25 0 0 1-.072.184.25.25 0 0 1-.184.072zm4.63.102a2.05 2.05 0 0 1-1.044-.266 1.82 1.82 0 0 1-.707-.778q-.256-.523-.256-1.27v-2.857a.25.25 0 0 1 .072-.184.25.25 0 0 1 .184-.072h1.28a.25.25 0 0 1 .184.072.25.25 0 0 1 .072.184v2.796q0 1.003.901 1.003.42 0 .666-.256.256-.266.256-.747V55.93a.25.25 0 0 1 .071-.184.25.25 0 0 1 .185-.072h1.28a.25.25 0 0 1 .184.072.25.25 0 0 1 .072.184v4.813a.25.25 0 0 1-.072.184.25.25 0 0 1-.184.072h-1.188a.27.27 0 0 1-.184-.072.25.25 0 0 1-.072-.184v-.39a1.7 1.7 0 0 1-.697.564q-.42.184-1.003.184ZM41.088 61q-.655 0-1.137-.205a1.58 1.58 0 0 1-.727-.655q-.255-.45-.256-1.157v-1.966h-.798a.3.3 0 0 1-.195-.072.25.25 0 0 1-.072-.184v-.83a.25.25 0 0 1 .072-.184.3.3 0 0 1 .195-.072h.798v-1.69a.25.25 0 0 1 .072-.184.27.27 0 0 1 .184-.071h1.188a.25.25 0 0 1 .184.071.25.25 0 0 1 .072.185v1.69h1.28a.25.25 0 0 1 .184.07.25.25 0 0 1 .072.185v.83a.25.25 0 0 1-.072.184.25.25 0 0 1-.184.072h-1.28v1.822q0 .35.133.553.134.205.45.205h.79a.25.25 0 0 1 .184.072.25.25 0 0 1 .071.184v.891a.25.25 0 0 1-.071.184.25.25 0 0 1-.185.072zm4.78 0q-.655 0-1.137-.205a1.58 1.58 0 0 1-.727-.655q-.255-.45-.256-1.157v-1.966h-.798a.3.3 0 0 1-.195-.072.25.25 0 0 1-.072-.184v-.83a.25.25 0 0 1 .072-.184.3.3 0 0 1 .195-.072h.798v-1.69a.25.25 0 0 1 .072-.184.27.27 0 0 1 .184-.071h1.188a.25.25 0 0 1 .184.071.25.25 0 0 1 .072.185v1.69h1.28a.25.25 0 0 1 .184.07.25.25 0 0 1 .072.185v.83a.25.25 0 0 1-.072.184.25.25 0 0 1-.184.072h-1.28v1.822q0 .35.133.553.134.205.45.205h.79a.25.25 0 0 1 .184.072.25.25 0 0 1 .071.184v.891a.25.25 0 0 1-.071.184.25.25 0 0 1-.185.072zm4.514.102q-1.209 0-1.925-.655-.717-.655-.748-1.946v-.358q.03-.81.358-1.382.339-.584.922-.881.594-.307 1.383-.307.9 0 1.484.358.594.359.891.973t.297 1.403v.246a.23.23 0 0 1-.082.184.24.24 0 0 1-.174.072h-3.277v.071q.01.298.103.543a.77.77 0 0 0 .758.532.8.8 0 0 0 .337-.06q.143-.073.236-.155a2 2 0 0 0 .143-.153.5.5 0 0 1 .144-.123q.06-.03.184-.03h1.27q.102 0 .164.06.071.052.061.154-.01.174-.174.42a2.2 2.2 0 0 1-.481.492 2.6 2.6 0 0 1-.779.389 3.6 3.6 0 0 1-1.095.153m-.87-3.307h1.73v-.02q0-.329-.102-.574a.75.75 0 0 0-.297-.379.8.8 0 0 0-.472-.133.8.8 0 0 0-.47.133.86.86 0 0 0-.287.379 1.5 1.5 0 0 0-.103.573v.02ZM54.26 61a.25.25 0 0 1-.184-.072.25.25 0 0 1-.072-.184v-4.813q0-.102.072-.174a.23.23 0 0 1 .184-.082h1.178q.112 0 .184.082a.24.24 0 0 1 .072.174v.41q.276-.318.655-.492.39-.174.87-.174h.451q.102 0 .174.072.082.072.082.184v1.055q0 .103-.082.184a.24.24 0 0 1-.174.072h-.993q-.42 0-.656.235-.225.225-.225.646v2.621a.23.23 0 0 1-.082.184.25.25 0 0 1-.184.072z"/></g><defs><filter id="a" width="80" height="80" x="0" y="0" color-interpolation-filters="sRGB" filterUnits="userSpaceOnUse"><feFlood flood-opacity="0" result="BackgroundImageFix"/><feColorMatrix in="SourceAlpha" result="hardAlpha" values="0 0 0 0 0 0 0 0 0 0 0 0 0 0 0 0 0 0 127 0"/><feOffset dy="2"/><feGaussianBlur stdDeviation="4"/><feColorMatrix values="0 0 0 0 0 0 0 0 0 0 0 0 0 0 0 0 0 0 0.75 0"/><feBlend in2="BackgroundImageFix" result="effect1_dropShadow_602_1919"/><feBlend in="SourceGraphic" in2="effect1_dropShadow_602_1919" result="shape"/></filter></defs></svg>