<svg xmlns="http://www.w3.org/2000/svg" width="80" height="80" fill="none"><g filter="url(#a)"><rect width="64" height="64" x="8" y="6" fill="#212529" rx="5"/><path fill="#ee513b" d="M26.585 28.413a2 2 0 0 1 0-2.826l12.002-12.002c.78-.78 2.046-.78 2.826 0l12.002 12.002c.78.78.78 2.046 0 2.826L41.413 40.415c-.78.78-2.046.78-2.826 0z"/><path fill="#fff" d="m36.149 16.061-1.215 1.216 3.139 3.139A2.126 2.126 0 0 0 39.25 23.3v7.679a2.126 2.126 0 1 0 1.718.097v-7.765l3 3a2.125 2.125 0 1 0 1.283-1.147l-3.221-3.223a2.125 2.125 0 0 0-2.66-2.66z"/><path fill="#e5e5e5" d="M35.676 61.102q-.972 0-1.68-.317a2.5 2.5 0 0 1-1.085-.942q-.378-.625-.42-1.516a40 40 0 0 1 0-1.884q.042-.87.43-1.474.39-.604 1.096-.922t1.66-.317q.767 0 1.361.194.594.184.993.502.41.318.615.696a1.6 1.6 0 0 1 .225.748.17.17 0 0 1-.061.153.2.2 0 0 1-.154.062h-1.495a.4.4 0 0 1-.174-.03.4.4 0 0 1-.092-.114 1.4 1.4 0 0 0-.215-.317 1.1 1.1 0 0 0-.38-.297q-.234-.123-.624-.123-.584 0-.921.307-.328.308-.359.983a27 27 0 0 0 0 1.782q.03.717.379 1.034t.922.318q.39 0 .686-.133.306-.134.481-.41.174-.286.174-.727v-.194h-.962a.28.28 0 0 1-.195-.072.28.28 0 0 1-.072-.195v-.758a.25.25 0 0 1 .072-.184.27.27 0 0 1 .194-.082h2.581q.112 0 .184.082a.25.25 0 0 1 .072.184v1.168q0 .88-.4 1.505a2.6 2.6 0 0 1-1.136.963q-.727.327-1.7.327M40.23 61a.25.25 0 0 1-.184-.072.25.25 0 0 1-.072-.184v-4.813a.25.25 0 0 1 .072-.184.25.25 0 0 1 .184-.072h1.209q.102 0 .174.072.081.072.081.184v4.813a.23.23 0 0 1-.081.184.24.24 0 0 1-.175.072zm-.01-6.093a.25.25 0 0 1-.184-.071.25.25 0 0 1-.072-.185v-.911a.25.25 0 0 1 .072-.184.23.23 0 0 1 .184-.082h1.218q.114 0 .185.082a.23.23 0 0 1 .082.184v.911a.23.23 0 0 1-.082.184.25.25 0 0 1-.184.072zM45.618 61q-.655 0-1.137-.205a1.58 1.58 0 0 1-.727-.655q-.255-.45-.256-1.157v-1.966H42.7a.3.3 0 0 1-.195-.072.25.25 0 0 1-.072-.184v-.83a.25.25 0 0 1 .072-.184.3.3 0 0 1 .195-.072h.798v-1.69a.25.25 0 0 1 .072-.184.27.27 0 0 1 .184-.071h1.188a.25.25 0 0 1 .184.071.25.25 0 0 1 .072.185v1.69h1.28a.25.25 0 0 1 .184.07.25.25 0 0 1 .072.185v.83a.25.25 0 0 1-.072.184.25.25 0 0 1-.184.072h-1.28v1.822q0 .35.133.553.134.205.45.205h.79a.25.25 0 0 1 .184.072.25.25 0 0 1 .071.184v.891a.25.25 0 0 1-.071.184.25.25 0 0 1-.185.072z"/></g><defs><filter id="a" width="80" height="80" x="0" y="0" color-interpolation-filters="sRGB" filterUnits="userSpaceOnUse"><feFlood flood-opacity="0" result="BackgroundImageFix"/><feColorMatrix in="SourceAlpha" result="hardAlpha" values="0 0 0 0 0 0 0 0 0 0 0 0 0 0 0 0 0 0 127 0"/><feOffset dy="2"/><feGaussianBlur stdDeviation="4"/><feColorMatrix values="0 0 0 0 0 0 0 0 0 0 0 0 0 0 0 0 0 0 0.75 0"/><feBlend in2="BackgroundImageFix" result="effect1_dropShadow_601_4503"/><feBlend in="SourceGraphic" in2="effect1_dropShadow_601_4503" result="shape"/></filter></defs></svg>