<svg xmlns="http://www.w3.org/2000/svg" width="80" height="80" fill="none"><g filter="url(#a)"><rect width="64" height="64" x="8" y="6" fill="#212529" rx="5"/><path fill="#fff" d="M36.467 33.507c0 .093-.094.16-.227.16s-.24 0-.24-.16.107-.16.227-.16.24.066.24.16m-1.334-.2c0 .093 0 .2.187.226a.2.2 0 0 0 .267-.093c0-.093 0-.187-.187-.227s-.24 0-.267.094m1.894-.067a.19.19 0 0 0-.187.213c.013.107.12.147.253.12.134-.026.2-.12.187-.213s-.12-.133-.253-.12m2.84-16.907a10.44 10.44 0 0 0-10.534 10.76 11.05 11.05 0 0 0 7.294 10.574c.546.093.746-.254.746-.534v-2.666s-3.013.666-3.653-1.334c0 0-.48-1.333-1.187-1.613 0 0-.986-.693.067-.68a2.23 2.23 0 0 1 1.653 1.133 2.253 2.253 0 0 0 3.147.92c.05-.556.29-1.079.68-1.48-2.4-.28-4.827-.626-4.827-4.88a3.39 3.39 0 0 1 1.014-2.6 4.28 4.28 0 0 1 .106-2.986c.907-.294 2.974 1.186 2.974 1.186a9.95 9.95 0 0 1 5.4 0s2.066-1.48 2.973-1.186c.402.948.44 2.012.107 2.986a3.48 3.48 0 0 1 1.106 2.6c0 4.267-2.533 4.6-4.933 4.88a2.67 2.67 0 0 1 .667 2v3.694a.56.56 0 0 0 .746.533 10.96 10.96 0 0 0 7.254-10.547 10.67 10.67 0 0 0-6.656-9.978 10.7 10.7 0 0 0-4.144-.782M33.52 31.547v.226a.16.16 0 0 0 .113.047.16.16 0 0 0 .114-.047v-.24c0-.093-.174-.04-.227.014m-.467-.36s0 .133.094.173a.12.12 0 0 0 .186 0s0-.133-.093-.173-.16-.04-.187 0m1.334 1.573v.28c0 .093.226.107.28 0 .053-.107 0-.187 0-.28s-.174-.067-.227 0zm-.494-.653v.266c0 .107.187.147.254.107a.213.213 0 0 0 0-.28c-.067-.107-.174-.147-.254-.093"/><path fill="#e5e5e5" d="M26.176 61.102q-.972 0-1.68-.317a2.52 2.52 0 0 1-1.085-.942q-.378-.625-.42-1.516a40 40 0 0 1 0-1.884q.042-.87.43-1.474.39-.604 1.096-.922t1.66-.317q.767 0 1.361.194.594.184.993.502.41.318.615.696a1.6 1.6 0 0 1 .225.748.17.17 0 0 1-.061.153.2.2 0 0 1-.154.062h-1.495a.4.4 0 0 1-.174-.03.4.4 0 0 1-.092-.114 1.4 1.4 0 0 0-.215-.317 1.1 1.1 0 0 0-.38-.297q-.234-.123-.624-.123-.584 0-.921.307-.328.308-.359.983a27 27 0 0 0 0 1.782q.03.717.379 1.034.348.318.922.318.39 0 .686-.133.306-.134.481-.41.174-.286.174-.727v-.194h-.962a.28.28 0 0 1-.195-.072.28.28 0 0 1-.072-.195v-.758a.25.25 0 0 1 .072-.184.27.27 0 0 1 .195-.082h2.58q.113 0 .184.082a.25.25 0 0 1 .072.184v1.168q0 .88-.4 1.505a2.6 2.6 0 0 1-1.136.963q-.727.327-1.7.327M30.73 61a.25.25 0 0 1-.184-.072.25.25 0 0 1-.072-.184v-4.813a.25.25 0 0 1 .072-.184.25.25 0 0 1 .184-.072h1.209q.102 0 .174.072.081.072.081.184v4.813a.23.23 0 0 1-.081.184.24.24 0 0 1-.174.072zm-.01-6.093a.25.25 0 0 1-.184-.071.25.25 0 0 1-.072-.185v-.911a.25.25 0 0 1 .072-.184.23.23 0 0 1 .184-.082h1.219q.112 0 .184.082a.23.23 0 0 1 .082.184v.911a.23.23 0 0 1-.082.184.25.25 0 0 1-.184.072h-1.22ZM36.118 61q-.655 0-1.137-.205a1.58 1.58 0 0 1-.727-.655q-.255-.45-.256-1.157v-1.966H33.2a.3.3 0 0 1-.195-.072.25.25 0 0 1-.072-.184v-.83a.25.25 0 0 1 .072-.184.3.3 0 0 1 .195-.072h.798v-1.69a.25.25 0 0 1 .072-.184.27.27 0 0 1 .184-.071h1.188a.25.25 0 0 1 .184.071.25.25 0 0 1 .072.185v1.69h1.28a.25.25 0 0 1 .184.07.25.25 0 0 1 .072.185v.83a.25.25 0 0 1-.072.184.25.25 0 0 1-.184.072h-1.28v1.822q0 .35.133.553.134.205.45.205h.79a.25.25 0 0 1 .184.072.25.25 0 0 1 .071.184v.891a.25.25 0 0 1-.071.184.25.25 0 0 1-.185.072zm2.312 0a.25.25 0 0 1-.184-.072.25.25 0 0 1-.072-.184v-6.758a.25.25 0 0 1 .072-.185.25.25 0 0 1 .184-.071h1.31a.25.25 0 0 1 .185.071.25.25 0 0 1 .072.185v2.283q.276-.318.676-.502.41-.195.942-.194.594 0 1.054.266.472.266.738.788.266.513.266 1.26v2.857a.25.25 0 0 1-.072.184.25.25 0 0 1-.184.072h-1.32a.27.27 0 0 1-.185-.072.25.25 0 0 1-.072-.184v-2.795q0-.481-.235-.738-.225-.266-.676-.266-.42 0-.676.266-.255.256-.256.738v2.795a.25.25 0 0 1-.072.184.25.25 0 0 1-.184.072zm8.36.102a2.05 2.05 0 0 1-1.044-.266 1.82 1.82 0 0 1-.707-.778q-.256-.523-.256-1.27v-2.857a.25.25 0 0 1 .072-.184.25.25 0 0 1 .184-.072h1.28a.25.25 0 0 1 .184.072.25.25 0 0 1 .072.184v2.796q0 1.003.901 1.003.42 0 .666-.256.256-.266.256-.747V55.93a.25.25 0 0 1 .071-.184.25.25 0 0 1 .185-.072h1.28a.25.25 0 0 1 .184.072.25.25 0 0 1 .072.184v4.813a.25.25 0 0 1-.072.184.25.25 0 0 1-.184.072h-1.188a.27.27 0 0 1-.184-.072.25.25 0 0 1-.072-.184v-.39a1.7 1.7 0 0 1-.697.564q-.42.184-1.003.184Zm7.86 0q-.573 0-.962-.194a2 2 0 0 1-.625-.492v.328a.23.23 0 0 1-.082.184.24.24 0 0 1-.174.072H51.65a.25.25 0 0 1-.184-.072.25.25 0 0 1-.072-.184v-6.758a.25.25 0 0 1 .072-.185.25.25 0 0 1 .184-.071h1.25a.25.25 0 0 1 .184.071.25.25 0 0 1 .071.185v2.191a1.8 1.8 0 0 1 .615-.43 2.1 2.1 0 0 1 .88-.174q.513 0 .902.174.399.165.675.481.277.318.43.758.153.441.175.993a7 7 0 0 1 0 .717 3.3 3.3 0 0 1-.185 1.024 2.3 2.3 0 0 1-.43.758 1.85 1.85 0 0 1-.665.47q-.39.154-.901.154Zm-.553-1.372q.349 0 .543-.143a.77.77 0 0 0 .277-.39q.092-.245.112-.542a5 5 0 0 0 0-.635 2 2 0 0 0-.112-.543.77.77 0 0 0-.277-.389q-.194-.143-.543-.143a.9.9 0 0 0-.522.143.83.83 0 0 0-.307.359q-.102.215-.113.47a7 7 0 0 0 0 .769q.01.276.103.512.091.235.297.389.204.143.542.143"/></g><defs><filter id="a" width="80" height="80" x="0" y="0" color-interpolation-filters="sRGB" filterUnits="userSpaceOnUse"><feFlood flood-opacity="0" result="BackgroundImageFix"/><feColorMatrix in="SourceAlpha" result="hardAlpha" values="0 0 0 0 0 0 0 0 0 0 0 0 0 0 0 0 0 0 127 0"/><feOffset dy="2"/><feGaussianBlur stdDeviation="4"/><feColorMatrix values="0 0 0 0 0 0 0 0 0 0 0 0 0 0 0 0 0 0 0.75 0"/><feBlend in2="BackgroundImageFix" result="effect1_dropShadow_601_4608"/><feBlend in="SourceGraphic" in2="effect1_dropShadow_601_4608" result="shape"/></filter></defs></svg>