<svg xmlns="http://www.w3.org/2000/svg" width="80" height="80" fill="none"><g filter="url(#a)"><rect width="64" height="64" x="8" y="6" fill="#212529" rx="5"/><path fill="#fc6d26" d="M53.95 28.808 52.38 24.1l-3.104-9.34a.54.54 0 0 0-.51-.36.54.54 0 0 0-.508.36l-3.104 9.334h-10.31l-3.104-9.336a.53.53 0 0 0-.508-.358.53.53 0 0 0-.508.36l-3.1 9.334-1.568 4.714a1.03 1.03 0 0 0 .386 1.166l13.56 9.624 13.556-9.624a1.03 1.03 0 0 0 .392-1.166"/><path fill="#e24329" d="m40 39.592 5.156-15.5h-10.31z"/><path fill="#fc6d26" d="m40 39.592-5.158-15.5h-7.216z"/><path fill="#fca326" d="m27.62 24.098-1.568 4.708a1.03 1.03 0 0 0 .386 1.166L40 39.6 27.62 24.1z"/><path fill="#e24329" d="M27.624 24.098h7.224l-3.108-9.334a.54.54 0 0 0-.508-.36.54.54 0 0 0-.51.36z"/><path fill="#fc6d26" d="m40 39.592 5.156-15.5h7.228z"/><path fill="#fca326" d="m52.38 24.098 1.566 4.708a1.03 1.03 0 0 1-.386 1.166L40 39.592l12.376-15.494z"/><path fill="#e24329" d="M52.38 24.098h-7.22l3.102-9.334a.53.53 0 0 1 .51-.36c.23 0 .434.146.508.36l3.104 9.334z"/><path fill="#e5e5e5" d="M28.176 61.102q-.972 0-1.68-.317a2.5 2.5 0 0 1-1.085-.942q-.378-.625-.42-1.516a40 40 0 0 1 0-1.884q.042-.87.43-1.474.39-.604 1.096-.922t1.66-.317q.767 0 1.361.194.594.184.993.502.41.318.615.696a1.6 1.6 0 0 1 .225.748.17.17 0 0 1-.061.153.2.2 0 0 1-.154.062h-1.495a.4.4 0 0 1-.174-.03.4.4 0 0 1-.092-.114 1.4 1.4 0 0 0-.215-.317 1.1 1.1 0 0 0-.38-.297q-.234-.123-.624-.123-.584 0-.921.307-.328.308-.359.983a27 27 0 0 0 0 1.782q.03.717.379 1.034.348.318.922.318.39 0 .686-.133.306-.134.481-.41.174-.286.174-.727v-.194h-.962a.28.28 0 0 1-.195-.072.28.28 0 0 1-.072-.195v-.758a.25.25 0 0 1 .072-.184.27.27 0 0 1 .195-.082h2.58q.113 0 .184.082a.25.25 0 0 1 .072.184v1.168q0 .88-.4 1.505a2.6 2.6 0 0 1-1.136.963q-.727.327-1.7.327M32.73 61a.25.25 0 0 1-.184-.072.25.25 0 0 1-.072-.184v-4.813a.25.25 0 0 1 .072-.184.25.25 0 0 1 .184-.072h1.209q.102 0 .174.072.081.072.081.184v4.813a.23.23 0 0 1-.081.184.24.24 0 0 1-.175.072zm-.01-6.093a.25.25 0 0 1-.184-.071.25.25 0 0 1-.072-.185v-.911a.25.25 0 0 1 .072-.184.23.23 0 0 1 .184-.082h1.218q.114 0 .185.082a.23.23 0 0 1 .082.184v.911a.23.23 0 0 1-.082.184.25.25 0 0 1-.184.072zM38.118 61q-.655 0-1.137-.205a1.58 1.58 0 0 1-.727-.655q-.255-.45-.256-1.157v-1.966H35.2a.3.3 0 0 1-.195-.072.25.25 0 0 1-.072-.184v-.83a.25.25 0 0 1 .072-.184.3.3 0 0 1 .195-.072h.798v-1.69a.25.25 0 0 1 .072-.184.27.27 0 0 1 .184-.071h1.188a.25.25 0 0 1 .184.071.25.25 0 0 1 .072.185v1.69h1.28a.25.25 0 0 1 .184.07.25.25 0 0 1 .072.185v.83a.25.25 0 0 1-.072.184.25.25 0 0 1-.184.072h-1.28v1.822q0 .35.133.553.134.205.45.205h.79a.25.25 0 0 1 .184.072.25.25 0 0 1 .071.184v.891a.25.25 0 0 1-.071.184.25.25 0 0 1-.185.072zm2.312 0a.25.25 0 0 1-.184-.072.25.25 0 0 1-.072-.184v-6.758a.25.25 0 0 1 .072-.185.25.25 0 0 1 .184-.071h1.209a.25.25 0 0 1 .184.071.25.25 0 0 1 .072.185v6.758a.25.25 0 0 1-.072.184.25.25 0 0 1-.184.072zm4.272.102q-.553 0-.994-.204a1.8 1.8 0 0 1-.686-.574 1.36 1.36 0 0 1-.256-.809q0-.727.594-1.147.594-.43 1.577-.583l1.28-.195v-.143q0-.369-.154-.564-.153-.194-.563-.194a.9.9 0 0 0-.47.113.8.8 0 0 0-.277.307.3.3 0 0 1-.256.133H43.35a.24.24 0 0 1-.174-.061.2.2 0 0 1-.051-.164q0-.184.133-.42.143-.246.43-.482.287-.235.737-.389.45-.153 1.086-.153.665 0 1.136.153.471.154.758.43.297.277.44.656.144.369.144.819v3.113a.23.23 0 0 1-.082.184.24.24 0 0 1-.174.072h-1.188a.25.25 0 0 1-.184-.072.25.25 0 0 1-.072-.184v-.358a1.5 1.5 0 0 1-.359.358 1.7 1.7 0 0 1-.532.256q-.297.102-.696.102m.48-1.167q.298 0 .533-.123a.9.9 0 0 0 .38-.4 1.5 1.5 0 0 0 .143-.685v-.144l-.87.154q-.483.082-.707.256-.215.164-.215.39a.45.45 0 0 0 .102.296.7.7 0 0 0 .266.195q.164.06.369.061Zm7.218 1.167q-.573 0-.962-.194a2 2 0 0 1-.625-.492v.328a.23.23 0 0 1-.082.184.24.24 0 0 1-.174.072H49.4a.25.25 0 0 1-.184-.072.25.25 0 0 1-.072-.184v-6.758a.25.25 0 0 1 .072-.185.25.25 0 0 1 .184-.071h1.25a.25.25 0 0 1 .184.071.25.25 0 0 1 .071.185v2.191a1.8 1.8 0 0 1 .615-.43 2.1 2.1 0 0 1 .88-.174q.513 0 .902.174.399.165.675.481.277.318.43.758.153.441.175.993a7 7 0 0 1 0 .717 3.3 3.3 0 0 1-.185 1.024 2.3 2.3 0 0 1-.43.758 1.85 1.85 0 0 1-.665.47q-.39.154-.901.154Zm-.553-1.372q.349 0 .543-.143a.77.77 0 0 0 .277-.39q.092-.245.112-.542a5 5 0 0 0 0-.635 2 2 0 0 0-.112-.543.77.77 0 0 0-.277-.389q-.194-.143-.543-.143a.9.9 0 0 0-.522.143.83.83 0 0 0-.307.359q-.102.215-.113.47a7 7 0 0 0 0 .769q.01.276.103.512.091.235.297.389.204.143.542.143"/></g><defs><filter id="a" width="80" height="80" x="0" y="0" color-interpolation-filters="sRGB" filterUnits="userSpaceOnUse"><feFlood flood-opacity="0" result="BackgroundImageFix"/><feColorMatrix in="SourceAlpha" result="hardAlpha" values="0 0 0 0 0 0 0 0 0 0 0 0 0 0 0 0 0 0 127 0"/><feOffset dy="2"/><feGaussianBlur stdDeviation="4"/><feColorMatrix values="0 0 0 0 0 0 0 0 0 0 0 0 0 0 0 0 0 0 0.75 0"/><feBlend in2="BackgroundImageFix" result="effect1_dropShadow_601_4593"/><feBlend in="SourceGraphic" in2="effect1_dropShadow_601_4593" result="shape"/></filter></defs></svg>