<svg xmlns="http://www.w3.org/2000/svg" width="80" height="80" fill="none"><g filter="url(#a)"><rect width="64" height="64" x="8" y="6" fill="#212529" rx="5"/><path fill="#ea4335" d="m45.282 19.227 2.781-2.781.185-1.172c-5.068-4.609-13.126-4.086-17.695 1.09-1.27 1.439-2.211 3.231-2.713 5.083l.996-.14 5.563-.918.43-.44c2.474-2.717 6.658-3.083 9.515-.77z"/><path fill="#4285f4" d="M52.026 21.365a12.53 12.53 0 0 0-3.778-6.09l-3.904 3.903a6.94 6.94 0 0 1 2.548 5.505v.693a3.475 3.475 0 0 1 3.474 3.474c0 1.92-1.555 3.436-3.474 3.436h-6.959l-.683.742v4.167l.683.654h6.959c4.991.04 9.069-3.936 9.108-8.928a9.04 9.04 0 0 0-3.974-7.556"/><path fill="#34a853" d="M32.984 37.85h6.949v-5.564h-6.95a3.4 3.4 0 0 1-1.424-.312l-.986.303-2.801 2.781-.244.947c1.57 1.186 3.487 1.853 5.456 1.845"/><path fill="#fbbc05" d="M32.984 19.803a9.038 9.038 0 0 0-5.456 16.202l4.03-4.031a3.474 3.474 0 1 1 4.598-4.597l4.03-4.03a9.03 9.03 0 0 0-7.202-3.544"/><path fill="#e5e5e5" d="M28.796 55.082q-.779 0-1.343-.254a2 2 0 0 1-.869-.754q-.303-.499-.335-1.212a32 32 0 0 1 0-1.507q.032-.696.344-1.179t.876-.737q.565-.255 1.327-.254.614 0 1.089.156.475.147.794.401.329.254.492.557.172.303.18.598a.13.13 0 0 1-.05.123.17.17 0 0 1-.122.049h-1.196a.3.3 0 0 1-.139-.025.3.3 0 0 1-.074-.09 1.1 1.1 0 0 0-.172-.254.85.85 0 0 0-.303-.237 1.1 1.1 0 0 0-.5-.099q-.465 0-.736.246-.262.246-.287.786-.024.705 0 1.425.024.574.303.828t.737.254q.31 0 .549-.107a.84.84 0 0 0 .385-.328q.14-.228.139-.581v-.156h-.77a.23.23 0 0 1-.155-.057.23.23 0 0 1-.058-.156v-.606a.2.2 0 0 1 .057-.147.2.2 0 0 1 .156-.066h2.064q.09 0 .147.066a.2.2 0 0 1 .058.147v.934q0 .704-.32 1.204t-.909.77q-.581.262-1.36.262Zm5.452 0q-.688 0-1.163-.221a1.66 1.66 0 0 1-.72-.63 2.2 2.2 0 0 1-.28-.992 7 7 0 0 1 0-.737q.033-.582.296-.99.261-.41.729-.632.474-.22 1.138-.22.672 0 1.138.22.476.222.737.631.263.41.295.991a7 7 0 0 1 0 .737 2.1 2.1 0 0 1-.286.991 1.6 1.6 0 0 1-.721.63q-.467.222-1.163.222m0-1q.369 0 .532-.22.172-.222.197-.664a5 5 0 0 0 .008-.327 5 5 0 0 0-.008-.328q-.024-.435-.197-.655-.163-.23-.532-.23-.36 0-.532.23-.172.221-.189.655a5 5 0 0 0-.008.328q0 .204.008.327.017.442.189.664.171.22.532.22m4.999 1q-.689 0-1.163-.221a1.66 1.66 0 0 1-.721-.63 2.2 2.2 0 0 1-.278-.992 7 7 0 0 1 0-.737q.032-.582.294-.99.262-.41.73-.632.474-.22 1.138-.22.671 0 1.138.22.476.222.737.631.262.41.295.991a7 7 0 0 1 0 .737 2.1 2.1 0 0 1-.287.991 1.6 1.6 0 0 1-.72.63q-.468.222-1.163.222m0-1q.368 0 .532-.22.172-.222.197-.664.008-.122.008-.327c0-.205-.003-.246-.008-.328q-.025-.435-.197-.655-.165-.23-.532-.23-.36 0-.533.23-.171.221-.188.655a5 5 0 0 0-.008.328q0 .204.008.327.016.442.188.664.173.22.533.22m5.072 2.72q-.63 0-1.048-.164a2.1 2.1 0 0 1-.655-.393 1.6 1.6 0 0 1-.344-.459 1 1 0 0 1-.115-.352.17.17 0 0 1 .057-.147.23.23 0 0 1 .156-.058h1.04q.074 0 .123.033a.27.27 0 0 1 .09.131q.04.09.107.188a.5.5 0 0 0 .196.156.8.8 0 0 0 .352.066q.245 0 .41-.082a.5.5 0 0 0 .245-.254 1.1 1.1 0 0 0 .082-.467v-.549a1.4 1.4 0 0 1-.483.336 1.9 1.9 0 0 1-.712.123q-.419 0-.737-.123a1.3 1.3 0 0 1-.533-.368 1.8 1.8 0 0 1-.336-.598 3.2 3.2 0 0 1-.139-.811 6 6 0 0 1 0-.426q.025-.442.14-.795.114-.351.327-.605.221-.255.54-.386a1.8 1.8 0 0 1 .738-.139q.442 0 .753.172.32.165.524.418v-.303a.2.2 0 0 1 .058-.14.2.2 0 0 1 .147-.065h.942q.09 0 .147.066a.18.18 0 0 1 .066.139v3.94q0 .622-.254 1.048t-.729.647-1.155.22Zm-.057-2.957a.73.73 0 0 0 .426-.114.66.66 0 0 0 .237-.295 1 1 0 0 0 .09-.385q.009-.09.009-.254t-.009-.246a1 1 0 0 0-.09-.393.6.6 0 0 0-.237-.287.73.73 0 0 0-.426-.114.74.74 0 0 0-.434.114.67.67 0 0 0-.23.312 1.8 1.8 0 0 0-.081.434q-.009.18 0 .368.016.238.081.434.075.197.23.312a.75.75 0 0 0 .434.114M47.626 55a.2.2 0 0 1-.147-.057.2.2 0 0 1-.057-.148V49.39a.2.2 0 0 1 .057-.148.2.2 0 0 1 .147-.057h.967a.2.2 0 0 1 .147.057.2.2 0 0 1 .057.148v5.405a.2.2 0 0 1-.057.148.2.2 0 0 1-.147.057zm4.105.082q-.967 0-1.54-.524-.573-.525-.598-1.556v-.287q.024-.647.287-1.106a1.76 1.76 0 0 1 .737-.704 2.4 2.4 0 0 1 1.105-.246q.72 0 1.188.287.475.286.712.778.238.492.238 1.122v.197q0 .09-.066.147a.2.2 0 0 1-.139.057h-2.62v.058q.007.237.081.434a.62.62 0 0 0 .606.426q.165 0 .27-.05a1 1 0 0 0 .189-.122q.074-.074.115-.123a.4.4 0 0 1 .114-.098.34.34 0 0 1 .148-.025h1.015q.083 0 .131.05.058.04.05.122a.7.7 0 0 1-.14.336 1.7 1.7 0 0 1-.385.393q-.245.189-.622.311a2.8 2.8 0 0 1-.877.123Zm-.697-2.645h1.385v-.017q0-.262-.082-.459a.6.6 0 0 0-.238-.303.65.65 0 0 0-.377-.106.65.65 0 0 0-.376.106.7.7 0 0 0-.23.303 1.2 1.2 0 0 0-.082.46zM31.171 65.082q-.778 0-1.335-.254a1.97 1.97 0 0 1-.86-.745q-.303-.492-.336-1.22a30 30 0 0 1 0-1.458q.032-.713.344-1.204.311-.5.868-.754.556-.262 1.319-.262.54 0 .999.14.459.13.802.392.344.255.533.623.196.36.205.819a.13.13 0 0 1-.05.123.17.17 0 0 1-.122.049h-1.106a.3.3 0 0 1-.164-.041.4.4 0 0 1-.098-.172q-.115-.434-.377-.59a1.14 1.14 0 0 0-.63-.163q-.45 0-.713.253-.262.246-.287.828-.024.67 0 1.376.025.581.287.835.262.246.713.246.376 0 .638-.164t.369-.59q.033-.123.09-.164a.28.28 0 0 1 .172-.049h1.106q.074 0 .123.05a.13.13 0 0 1 .049.122 1.8 1.8 0 0 1-.205.827 1.9 1.9 0 0 1-.533.623 2.6 2.6 0 0 1-.802.393 3.6 3.6 0 0 1-1 .13ZM34.685 65a.2.2 0 0 1-.147-.057.2.2 0 0 1-.057-.148V59.39a.2.2 0 0 1 .057-.148.2.2 0 0 1 .147-.057h.967a.2.2 0 0 1 .147.057.2.2 0 0 1 .058.148v5.405a.2.2 0 0 1-.058.148.2.2 0 0 1-.147.057zm4.154.082q-.688 0-1.163-.221a1.66 1.66 0 0 1-.72-.63 2.2 2.2 0 0 1-.28-.992 7 7 0 0 1 0-.737q.034-.582.295-.99.262-.41.73-.632.475-.22 1.138-.22.672 0 1.138.22.476.222.737.631.262.41.295.991a7 7 0 0 1 0 .737 2.1 2.1 0 0 1-.287.991 1.6 1.6 0 0 1-.72.63q-.468.222-1.163.222m0-1q.368 0 .532-.22.172-.222.197-.664.008-.122.008-.327c0-.205-.003-.246-.008-.328q-.025-.435-.197-.655-.164-.23-.532-.23-.36 0-.532.23-.172.221-.189.655a5 5 0 0 0-.008.328q0 .204.008.327.017.442.188.664.173.22.533.22m4.548 1a1.64 1.64 0 0 1-.835-.213 1.46 1.46 0 0 1-.565-.623q-.205-.417-.205-1.015v-2.285a.2.2 0 0 1 .057-.148.2.2 0 0 1 .148-.057h1.023a.2.2 0 0 1 .148.057.2.2 0 0 1 .057.148v2.236q0 .802.72.802.337 0 .533-.204.205-.213.205-.598v-2.236a.2.2 0 0 1 .057-.148.2.2 0 0 1 .148-.057H45.9a.2.2 0 0 1 .148.057.2.2 0 0 1 .057.148v3.85a.2.2 0 0 1-.057.147.2.2 0 0 1-.148.057h-.95a.22.22 0 0 1-.147-.057.2.2 0 0 1-.057-.148v-.311a1.37 1.37 0 0 1-.557.45 2 2 0 0 1-.803.148Zm5.271 0q-.394 0-.712-.123a1.6 1.6 0 0 1-.54-.377 1.8 1.8 0 0 1-.345-.606 2.9 2.9 0 0 1-.139-.819 6 6 0 0 1 0-.573q.017-.443.14-.795.122-.351.343-.605.222-.255.54-.386.32-.139.713-.139a1.64 1.64 0 0 1 1.204.483V59.39a.2.2 0 0 1 .058-.148.2.2 0 0 1 .147-.057h1a.2.2 0 0 1 .139.057.2.2 0 0 1 .065.148v5.405a.2.2 0 0 1-.065.148.2.2 0 0 1-.14.057h-.925a.2.2 0 0 1-.148-.057.2.2 0 0 1-.057-.148v-.262q-.195.239-.508.393-.31.156-.77.156m.443-1.098q.278 0 .434-.114a.7.7 0 0 0 .237-.311q.083-.188.09-.41a6 6 0 0 0 0-.614 1 1 0 0 0-.09-.377.66.66 0 0 0-.245-.287.73.73 0 0 0-.426-.114.74.74 0 0 0-.434.114.6.6 0 0 0-.221.312 1.8 1.8 0 0 0-.082.434 2.5 2.5 0 0 0 0 .508q.016.237.082.434a.6.6 0 0 0 .22.31q.165.115.435.115"/></g><defs><filter id="a" width="80" height="80" x="0" y="0" color-interpolation-filters="sRGB" filterUnits="userSpaceOnUse"><feFlood flood-opacity="0" result="BackgroundImageFix"/><feColorMatrix in="SourceAlpha" result="hardAlpha" values="0 0 0 0 0 0 0 0 0 0 0 0 0 0 0 0 0 0 127 0"/><feOffset dy="2"/><feGaussianBlur stdDeviation="4"/><feColorMatrix values="0 0 0 0 0 0 0 0 0 0 0 0 0 0 0 0 0 0 0.75 0"/><feBlend in2="BackgroundImageFix" result="effect1_dropShadow_603_1480"/><feBlend in="SourceGraphic" in2="effect1_dropShadow_603_1480" result="shape"/></filter></defs></svg>