<svg xmlns="http://www.w3.org/2000/svg" width="80" height="80" fill="none"><g filter="url(#a)"><rect width="64" height="64" x="8" y="6" fill="#212529" rx="5"/><path fill="#e535ab" fill-rule="evenodd" d="m42.73 14.663 6.573 3.794c.185-.196.4-.37.646-.512a2.855 2.855 0 0 1 3.893 1.045 2.855 2.855 0 0 1-1.804 4.195v7.592a2.84 2.84 0 0 1 1.795 4.193 2.853 2.853 0 0 1-4.597.473l-6.531 3.771A2.852 2.852 0 0 1 40 42.96a2.846 2.846 0 0 1-2.733-3.654l-6.57-3.793a2.85 2.85 0 1 1-2.735-4.736v-7.592a2.853 2.853 0 0 1-1.804-4.195 2.853 2.853 0 0 1 4.537-.536l6.573-3.796A2.846 2.846 0 0 1 40 11a2.846 2.846 0 0 1 2.73 3.663m-.684 1.169 6.587 3.803a2.845 2.845 0 0 0 2.05 3.544v7.6l-.11.03-8.603-14.901zm-4.014.077L29.43 30.811l-.112-.03v-7.602a2.844 2.844 0 0 0 2.049-3.548l6.585-3.803.081.081Zm2.764.675 8.602 14.898a2.83 2.83 0 0 0-.802 1.39H31.404a2.85 2.85 0 0 0-.8-1.386l8.603-14.9a2.86 2.86 0 0 0 1.589-.002m1.31 21.61 6.545-3.78a3 3 0 0 1-.052-.186H31.4l-.03.11 6.577 3.797A2.84 2.84 0 0 1 40 37.264a2.84 2.84 0 0 1 2.106.93" clip-rule="evenodd"/><path fill="#e5e5e5" d="M23.176 61.102q-.972 0-1.68-.317a2.5 2.5 0 0 1-1.085-.942q-.378-.625-.42-1.516a40 40 0 0 1 0-1.884q.042-.87.43-1.474.39-.604 1.096-.922t1.66-.317q.767 0 1.361.194.594.184.993.502.41.318.615.696a1.6 1.6 0 0 1 .225.748.17.17 0 0 1-.061.153.2.2 0 0 1-.154.062h-1.495a.4.4 0 0 1-.174-.03.4.4 0 0 1-.092-.114 1.4 1.4 0 0 0-.215-.317 1.1 1.1 0 0 0-.38-.297q-.234-.123-.624-.123-.584 0-.921.307-.328.308-.359.983a27 27 0 0 0 0 1.782q.03.717.379 1.034.348.318.922.318.39 0 .686-.133.306-.134.481-.41.174-.286.174-.727v-.194h-.962a.28.28 0 0 1-.195-.072.28.28 0 0 1-.072-.195v-.758a.25.25 0 0 1 .072-.184.27.27 0 0 1 .195-.082h2.58q.113 0 .184.082a.25.25 0 0 1 .072.184v1.168q0 .88-.4 1.505a2.6 2.6 0 0 1-1.136.963q-.727.327-1.7.327M27.73 61a.25.25 0 0 1-.184-.072.25.25 0 0 1-.072-.184v-4.813q0-.102.072-.174a.23.23 0 0 1 .184-.082h1.178q.112 0 .184.082a.24.24 0 0 1 .072.174v.41q.276-.318.655-.492.39-.174.87-.174h.451q.102 0 .174.072.082.072.082.184v1.055q0 .103-.082.184a.24.24 0 0 1-.174.072h-.993q-.42 0-.656.235-.225.225-.225.646v2.621a.23.23 0 0 1-.082.184A.25.25 0 0 1 29 61zm5.902.102q-.553 0-.994-.204a1.8 1.8 0 0 1-.686-.574 1.36 1.36 0 0 1-.256-.809q0-.727.594-1.147.594-.43 1.577-.583l1.28-.195v-.143q0-.369-.154-.564-.153-.194-.563-.194a.9.9 0 0 0-.47.113.8.8 0 0 0-.277.307.3.3 0 0 1-.256.133H32.28a.24.24 0 0 1-.174-.061.2.2 0 0 1-.051-.164q0-.184.133-.42.143-.246.43-.482.287-.235.737-.389.45-.153 1.086-.153.665 0 1.136.153.471.154.758.43.297.277.44.656.144.369.144.819v3.113a.23.23 0 0 1-.082.184.24.24 0 0 1-.174.072h-1.188a.25.25 0 0 1-.184-.072.25.25 0 0 1-.072-.184v-.358a1.5 1.5 0 0 1-.359.358 1.7 1.7 0 0 1-.532.256q-.297.102-.696.102m.48-1.167q.298 0 .533-.123a.9.9 0 0 0 .38-.4 1.5 1.5 0 0 0 .143-.685v-.144l-.87.154q-.483.082-.707.256-.216.164-.215.39a.45.45 0 0 0 .102.296.7.7 0 0 0 .266.195q.164.06.369.061Zm4.218 3.01a.25.25 0 0 1-.184-.071.25.25 0 0 1-.072-.184v-6.76a.25.25 0 0 1 .072-.184.25.25 0 0 1 .184-.072h1.157q.103 0 .174.072.082.072.082.184v.38q.235-.319.625-.523.39-.215.962-.215.513 0 .902.164.388.154.665.46t.43.748q.164.44.185 1.014a8 8 0 0 1 0 .758 3.4 3.4 0 0 1-.175.993 2.2 2.2 0 0 1-.43.747q-.277.307-.675.482-.39.163-.901.163a2.1 2.1 0 0 1-.881-.174 1.7 1.7 0 0 1-.615-.512v2.274a.25.25 0 0 1-.071.184.25.25 0 0 1-.185.072zm2.448-3.215q.348 0 .542-.143a.77.77 0 0 0 .277-.39q.092-.245.112-.542a5 5 0 0 0 0-.635 2 2 0 0 0-.112-.543.77.77 0 0 0-.277-.389q-.194-.143-.542-.143-.339 0-.543.154a.8.8 0 0 0-.297.378 1.6 1.6 0 0 0-.103.512 7 7 0 0 0 0 .768q.01.257.113.482a.9.9 0 0 0 .307.358.94.94 0 0 0 .523.133M44.79 61a.25.25 0 0 1-.184-.072.25.25 0 0 1-.072-.184v-6.758a.25.25 0 0 1 .072-.185.25.25 0 0 1 .184-.071h1.31a.25.25 0 0 1 .185.071.25.25 0 0 1 .072.185v2.283q.276-.318.676-.502.41-.195.942-.194.594 0 1.054.266.471.266.738.788.266.513.266 1.26v2.857a.25.25 0 0 1-.072.184.25.25 0 0 1-.184.072h-1.32a.27.27 0 0 1-.185-.072.25.25 0 0 1-.072-.184v-2.795q0-.481-.235-.738-.225-.266-.676-.266-.42 0-.676.266-.255.256-.256.738v2.795a.25.25 0 0 1-.072.184.25.25 0 0 1-.184.072zm10.152 1.946a.25.25 0 0 1-.184-.072.25.25 0 0 1-.072-.184v-2.274a1.6 1.6 0 0 1-.614.512 2.1 2.1 0 0 1-.881.174q-.502 0-.901-.163a1.9 1.9 0 0 1-.676-.482 2.2 2.2 0 0 1-.43-.747 3.4 3.4 0 0 1-.174-.993 8 8 0 0 1 0-.758q.03-.574.184-1.014a2.2 2.2 0 0 1 .43-.748 1.75 1.75 0 0 1 .666-.46q.399-.165.901-.164.573 0 .962.215.39.204.625.522v-.379a.25.25 0 0 1 .072-.184.27.27 0 0 1 .184-.072h1.157a.25.25 0 0 1 .185.072.25.25 0 0 1 .071.184v6.759a.25.25 0 0 1-.071.184.25.25 0 0 1-.185.072zm-1.198-3.216a.94.94 0 0 0 .522-.133.9.9 0 0 0 .307-.358q.103-.225.113-.482a3.6 3.6 0 0 0 0-.768 1.6 1.6 0 0 0-.102-.512.8.8 0 0 0-.297-.378q-.205-.154-.543-.154-.337 0-.543.143a.83.83 0 0 0-.287.39 2.2 2.2 0 0 0-.102.542 5 5 0 0 0 0 .635q.021.297.102.543a.83.83 0 0 0 .287.389q.206.143.543.143M57.91 61a.25.25 0 0 1-.184-.072.25.25 0 0 1-.072-.184v-6.758a.25.25 0 0 1 .072-.185.25.25 0 0 1 .184-.071h1.209a.25.25 0 0 1 .184.071.25.25 0 0 1 .072.185v6.758a.25.25 0 0 1-.072.184.25.25 0 0 1-.184.072z"/></g><defs><filter id="a" width="80" height="80" x="0" y="0" color-interpolation-filters="sRGB" filterUnits="userSpaceOnUse"><feFlood flood-opacity="0" result="BackgroundImageFix"/><feColorMatrix in="SourceAlpha" result="hardAlpha" values="0 0 0 0 0 0 0 0 0 0 0 0 0 0 0 0 0 0 127 0"/><feOffset dy="2"/><feGaussianBlur stdDeviation="4"/><feColorMatrix values="0 0 0 0 0 0 0 0 0 0 0 0 0 0 0 0 0 0 0.75 0"/><feBlend in2="BackgroundImageFix" result="effect1_dropShadow_603_624"/><feBlend in="SourceGraphic" in2="effect1_dropShadow_603_624" result="shape"/></filter></defs></svg>