<svg xmlns="http://www.w3.org/2000/svg" width="80" height="80" fill="none"><g filter="url(#a)"><rect width="64" height="64" x="8" y="6" fill="#212529" rx="5"/><g clip-path="url(#b)"><path fill="#f7df1e" d="M51.2 11H28.8a4.8 4.8 0 0 0-4.8 4.8v22.4a4.8 4.8 0 0 0 4.8 4.8h22.4a4.8 4.8 0 0 0 4.8-4.8V15.8a4.8 4.8 0 0 0-4.8-4.8"/><path fill="#000" d="M44.25 34.125c.625 1.063 1.5 1.813 2.938 1.813 1.25 0 2.062-.626 2.062-1.5 0-1-.813-1.376-2.188-2l-.75-.313c-2.187-.938-3.624-2.063-3.624-4.5 0-2.25 1.687-4 4.374-4 1.938 0 3.313.688 4.25 2.438L49 27.563c-.5-.938-1.063-1.313-1.938-1.313-.874 0-1.437.563-1.437 1.313 0 .875.563 1.25 1.875 1.812l.75.313c2.563 1.125 4 2.187 4 4.75 0 2.687-2.125 4.187-5 4.187-2.813 0-4.625-1.313-5.5-3.063zm-10.625.25c.5.813.875 1.563 1.938 1.563 1 0 1.624-.376 1.624-1.876V23.688h3v10.25c0 3.124-1.812 4.5-4.5 4.5-2.437 0-3.812-1.25-4.5-2.75z"/></g><path fill="#e5e5e5" d="M20.055 60.082q-.465 0-.892-.115a2.4 2.4 0 0 1-.746-.36 1.8 1.8 0 0 1-.524-.59 1.85 1.85 0 0 1-.205-.819q0-.074.05-.123a.16.16 0 0 1 .13-.057h1.106q.115 0 .172.057.066.058.107.172a.85.85 0 0 0 .155.377.75.75 0 0 0 .287.213q.18.066.401.066.41 0 .63-.262.222-.27.222-.787v-2.367h-2.654a.22.22 0 0 1-.147-.057.2.2 0 0 1-.057-.147v-.811a.2.2 0 0 1 .057-.148.22.22 0 0 1 .147-.057h3.964a.2.2 0 0 1 .148.057.2.2 0 0 1 .065.148v3.423q0 .713-.31 1.204a2 2 0 0 1-.853.737q-.54.246-1.253.246m4.677 0q-.442 0-.795-.164a1.46 1.46 0 0 1-.549-.459 1.1 1.1 0 0 1-.204-.647q0-.58.475-.917.475-.344 1.26-.467l1.025-.155v-.115q0-.295-.123-.45t-.45-.156a.7.7 0 0 0-.377.09.64.64 0 0 0-.221.246.24.24 0 0 1-.205.106h-.918a.2.2 0 0 1-.139-.049.17.17 0 0 1-.04-.13.7.7 0 0 1 .106-.337 1.5 1.5 0 0 1 .344-.385q.23-.188.59-.31.36-.124.867-.124.533 0 .91.123.376.123.606.344.237.222.352.524.114.295.114.656v2.49q0 .09-.065.147a.2.2 0 0 1-.14.057h-.95a.2.2 0 0 1-.147-.057.2.2 0 0 1-.057-.148v-.286a1.2 1.2 0 0 1-.287.286q-.18.132-.426.205a1.7 1.7 0 0 1-.556.082m.384-.934q.238 0 .426-.098a.7.7 0 0 0 .303-.32q.115-.22.115-.548v-.115l-.696.123q-.385.066-.565.205-.172.13-.172.311 0 .14.082.237a.6.6 0 0 0 .213.156q.13.05.294.05ZM29.68 60q-.123 0-.18-.057a.7.7 0 0 1-.099-.148l-1.547-3.8a.2.2 0 0 1-.017-.074q0-.074.05-.123a.2.2 0 0 1 .139-.057h.925q.105 0 .164.057a.3.3 0 0 1 .074.115l.925 2.515.934-2.515a.3.3 0 0 1 .073-.114q.058-.058.164-.058h.926q.073 0 .13.057a.16.16 0 0 1 .058.123.2.2 0 0 1-.016.074l-1.548 3.8a.4.4 0 0 1-.099.148q-.057.057-.188.057zm4.45.082q-.443 0-.795-.164a1.46 1.46 0 0 1-.549-.459 1.1 1.1 0 0 1-.205-.647q0-.58.475-.917.475-.344 1.262-.467l1.023-.155v-.115q0-.295-.123-.45-.122-.156-.45-.156a.7.7 0 0 0-.377.09.64.64 0 0 0-.22.246.24.24 0 0 1-.206.106h-.917a.2.2 0 0 1-.14-.049.17.17 0 0 1-.04-.13.7.7 0 0 1 .106-.337 1.5 1.5 0 0 1 .344-.385q.23-.188.59-.31.36-.124.868-.124.532 0 .91.123.376.123.605.344.238.222.353.524.114.295.114.656v2.49q0 .09-.065.147a.2.2 0 0 1-.14.057h-.95a.2.2 0 0 1-.147-.057.2.2 0 0 1-.057-.148v-.286a1.2 1.2 0 0 1-.287.286q-.18.132-.426.205a1.7 1.7 0 0 1-.557.082Zm.384-.934q.237 0 .426-.098a.7.7 0 0 0 .303-.32q.114-.22.115-.548v-.115l-.696.123q-.385.066-.566.205-.171.13-.171.311 0 .14.081.237a.6.6 0 0 0 .213.156q.132.05.295.05Zm4.921.934q-.532 0-.909-.115a2.2 2.2 0 0 1-.606-.295 1.4 1.4 0 0 1-.344-.352.74.74 0 0 1-.123-.32.17.17 0 0 1 .057-.147.2.2 0 0 1 .14-.065h.933a.1.1 0 0 1 .041.008.4.4 0 0 1 .05.033q.105.057.212.147.107.082.246.148a.8.8 0 0 0 .336.065q.23 0 .385-.09a.29.29 0 0 0 .155-.27.3.3 0 0 0-.073-.213q-.074-.09-.303-.172a4.3 4.3 0 0 0-.672-.164 3.5 3.5 0 0 1-.745-.254 1.3 1.3 0 0 1-.492-.418 1.1 1.1 0 0 1-.172-.63q0-.328.213-.63.213-.304.623-.492.409-.197 1.007-.197.475 0 .82.115.35.106.589.278.246.173.368.353.123.18.131.327a.2.2 0 0 1-.049.148.18.18 0 0 1-.13.057h-.853a.3.3 0 0 1-.065-.008l-.057-.033a1 1 0 0 1-.197-.131 1.2 1.2 0 0 0-.23-.148.7.7 0 0 0-.327-.065.54.54 0 0 0-.344.098.327.327 0 0 0-.057.45q.074.09.286.164.222.075.68.164.565.09.901.295.336.197.475.467.14.262.14.557a1.1 1.1 0 0 1-.238.696q-.23.303-.688.475-.459.165-1.114.164m4.732 0q-.606 0-1.073-.221a1.8 1.8 0 0 1-.745-.64 2 2 0 0 1-.295-1.015 5 5 0 0 1-.009-.327q0-.206.009-.336.024-.598.294-1.016.27-.426.738-.647a2.5 2.5 0 0 1 1.08-.22q.566 0 .967.163.402.156.655.393.255.238.377.492.13.245.14.434a.18.18 0 0 1-.058.147.22.22 0 0 1-.148.057h-1.04a.2.2 0 0 1-.139-.04.4.4 0 0 1-.09-.123q-.098-.255-.254-.36a.64.64 0 0 0-.385-.107q-.327 0-.508.213-.171.213-.188.655-.008.327 0 .581.016.451.189.656.18.204.507.204.254 0 .402-.106.147-.106.237-.36a.4.4 0 0 1 .09-.123.2.2 0 0 1 .14-.041h1.04q.081 0 .147.065a.16.16 0 0 1 .057.14 1.1 1.1 0 0 1-.082.327 1.84 1.84 0 0 1-.639.77 2.1 2.1 0 0 1-.597.278 2.8 2.8 0 0 1-.82.107ZM47.245 60a.2.2 0 0 1-.148-.057.2.2 0 0 1-.057-.148v-3.85a.2.2 0 0 1 .057-.138.2.2 0 0 1 .148-.066h.942q.09 0 .147.066a.2.2 0 0 1 .057.139v.328q.222-.254.525-.394a1.7 1.7 0 0 1 .696-.139h.36a.2.2 0 0 1 .14.057.2.2 0 0 1 .065.148v.843a.2.2 0 0 1-.066.148.2.2 0 0 1-.139.057h-.794q-.336 0-.524.189-.18.18-.18.516v2.096q0 .09-.066.148a.2.2 0 0 1-.148.057zm3.719 0a.2.2 0 0 1-.148-.057.2.2 0 0 1-.057-.148v-3.85a.2.2 0 0 1 .057-.147.2.2 0 0 1 .148-.057h.966a.2.2 0 0 1 .14.057.2.2 0 0 1 .065.148v3.85q0 .09-.065.147a.2.2 0 0 1-.14.057zm-.008-4.873a.2.2 0 0 1-.148-.057.2.2 0 0 1-.057-.148v-.729a.2.2 0 0 1 .057-.147.2.2 0 0 1 .148-.066h.974q.09 0 .148.066a.2.2 0 0 1 .065.147v.73q0 .09-.065.147a.2.2 0 0 1-.148.057zm2.6 6.43a.2.2 0 0 1-.148-.058.2.2 0 0 1-.057-.148v-5.405a.2.2 0 0 1 .057-.148.2.2 0 0 1 .147-.057h.926a.2.2 0 0 1 .139.057.2.2 0 0 1 .066.148v.303q.188-.255.5-.418.31-.171.769-.172.41 0 .72.131.312.123.533.369t.344.598q.13.352.148.81a6 6 0 0 1 0 .607 2.7 2.7 0 0 1-.14.794 1.7 1.7 0 0 1-.344.598 1.55 1.55 0 0 1-.54.385 1.9 1.9 0 0 1-.721.13q-.4 0-.704-.138a1.4 1.4 0 0 1-.492-.41v1.818a.2.2 0 0 1-.057.148.2.2 0 0 1-.148.057zm1.957-2.573q.278 0 .434-.114a.6.6 0 0 0 .22-.311q.075-.197.091-.434.015-.255 0-.508a1.5 1.5 0 0 0-.09-.434.6.6 0 0 0-.221-.312q-.156-.114-.434-.114-.27 0-.434.123a.65.65 0 0 0-.238.303 1.2 1.2 0 0 0-.082.41 6 6 0 0 0 0 .613q.009.205.09.385.083.172.246.287.164.105.418.106M60.672 60a2.3 2.3 0 0 1-.91-.164 1.26 1.26 0 0 1-.58-.524q-.206-.36-.206-.925v-1.573h-.638a.23.23 0 0 1-.156-.057.2.2 0 0 1-.057-.148v-.663a.2.2 0 0 1 .057-.148.23.23 0 0 1 .156-.057h.639V54.39a.2.2 0 0 1 .057-.148.22.22 0 0 1 .147-.057h.95a.2.2 0 0 1 .148.057.2.2 0 0 1 .057.148v1.351h1.024a.2.2 0 0 1 .147.057.2.2 0 0 1 .058.148v.663a.2.2 0 0 1-.058.148.2.2 0 0 1-.147.057h-1.024v1.458a.8.8 0 0 0 .107.442q.105.164.36.164h.63a.2.2 0 0 1 .148.057.2.2 0 0 1 .057.148v.712a.2.2 0 0 1-.057.148.2.2 0 0 1-.148.057z"/></g><defs><clipPath id="b"><path fill="#fff" d="M24 11h32v32H24z"/></clipPath><filter id="a" width="80" height="80" x="0" y="0" color-interpolation-filters="sRGB" filterUnits="userSpaceOnUse"><feFlood flood-opacity="0" result="BackgroundImageFix"/><feColorMatrix in="SourceAlpha" result="hardAlpha" values="0 0 0 0 0 0 0 0 0 0 0 0 0 0 0 0 0 0 127 0"/><feOffset dy="2"/><feGaussianBlur stdDeviation="4"/><feColorMatrix values="0 0 0 0 0 0 0 0 0 0 0 0 0 0 0 0 0 0 0.75 0"/><feBlend in2="BackgroundImageFix" result="effect1_dropShadow_601_4942"/><feBlend in="SourceGraphic" in2="effect1_dropShadow_601_4942" result="shape"/></filter></defs></svg>