<svg xmlns="http://www.w3.org/2000/svg" width="80" height="80" fill="none"><g filter="url(#a)"><rect width="64" height="64" x="8" y="6" fill="#212529" rx="5"/><g fill-rule="evenodd" clip-path="url(#b)" clip-rule="evenodd"><path fill="#fff" d="M42.416 19.608 42.384 11h-4.8l.032 8.608 2.4 3.296zm-4.8 14.752V43h4.8v-8.64l-2.4-3.296z"/><path fill="#00f2e6" d="m42.416 34.36 5.056 6.976 3.872-2.816-5.056-6.976-3.872-1.248zm-4.8-14.752-5.088-6.976-3.872 2.816 5.056 6.976 3.904 1.248z"/><path fill="#00b9f1" d="m33.712 22.424-8.192-2.656-1.472 4.544L32.24 27l3.872-1.28zm10.176 5.824 2.4 3.296L54.48 34.2l1.472-4.544L47.76 27z"/><path fill="#d63aff" d="m47.76 27 8.192-2.688-1.472-4.544-8.192 2.656-2.4 3.296zm-15.52 0-8.192 2.656L25.52 34.2l8.192-2.656 2.4-3.296z"/><path fill="#fb015b" d="m33.712 31.544-5.056 6.976 3.872 2.816 5.088-6.976v-4.064zm12.576-9.12 5.056-6.976-3.872-2.816-5.056 6.976v4.064z"/></g><path fill="#e5e5e5" d="M32.195 61.102q-.584 0-1.116-.143a3 3 0 0 1-.932-.45 2.3 2.3 0 0 1-.655-.738 2.3 2.3 0 0 1-.257-1.024q0-.091.062-.153a.2.2 0 0 1 .164-.072h1.382q.144 0 .215.072.083.071.133.215.053.286.195.47a.93.93 0 0 0 .358.267q.226.082.502.082.512 0 .789-.328.276-.338.276-.983v-2.96h-3.318a.27.27 0 0 1-.184-.07.25.25 0 0 1-.072-.185v-1.014a.25.25 0 0 1 .072-.184.27.27 0 0 1 .184-.072h4.956a.25.25 0 0 1 .185.072.23.23 0 0 1 .082.184v4.28q0 .891-.39 1.506a2.5 2.5 0 0 1-1.064.921q-.676.307-1.567.307M37.724 61a.37.37 0 0 1-.277-.102.4.4 0 0 1-.123-.236l-1.116-6.543a.1.1 0 0 1-.01-.041v-.031q0-.082.061-.143a.22.22 0 0 1 .154-.072h1.27q.286 0 .317.225l.666 4.004.737-2.365a.7.7 0 0 1 .102-.174q.072-.103.236-.103h.737q.174 0 .246.103.072.092.092.174l.737 2.355.666-3.994q.03-.225.317-.225h1.27q.093 0 .154.072.06.06.061.143v.072l-1.116 6.543a.4.4 0 0 1-.123.236.37.37 0 0 1-.276.102h-.973q-.174 0-.266-.092a.5.5 0 0 1-.123-.174l-1.034-2.929-1.035 2.929a.5.5 0 0 1-.123.174q-.082.092-.255.092zm9.186 0a.25.25 0 0 1-.185-.072.25.25 0 0 1-.071-.184V55.44H44.83a.25.25 0 0 1-.184-.072.27.27 0 0 1-.072-.184v-1.096a.25.25 0 0 1 .072-.184.25.25 0 0 1 .184-.072h5.51a.25.25 0 0 1 .184.072.25.25 0 0 1 .071.184v1.096q0 .102-.071.184a.25.25 0 0 1-.185.072h-1.823v5.304a.25.25 0 0 1-.071.184.25.25 0 0 1-.185.072z"/></g><defs><clipPath id="b"><path fill="#fff" d="M24 11h32v32H24z"/></clipPath><filter id="a" width="80" height="80" x="0" y="0" color-interpolation-filters="sRGB" filterUnits="userSpaceOnUse"><feFlood flood-opacity="0" result="BackgroundImageFix"/><feColorMatrix in="SourceAlpha" result="hardAlpha" values="0 0 0 0 0 0 0 0 0 0 0 0 0 0 0 0 0 0 127 0"/><feOffset dy="2"/><feGaussianBlur stdDeviation="4"/><feColorMatrix values="0 0 0 0 0 0 0 0 0 0 0 0 0 0 0 0 0 0 0.75 0"/><feBlend in2="BackgroundImageFix" result="effect1_dropShadow_603_928"/><feBlend in="SourceGraphic" in2="effect1_dropShadow_603_928" result="shape"/></filter></defs></svg>