<svg xmlns="http://www.w3.org/2000/svg" width="80" height="80" fill="none"><g filter="url(#a)"><rect width="64" height="64" x="8" y="6" fill="#212529" rx="5"/><g clip-path="url(#b)"><path fill="#0535c1" d="M39.972 42.944c8.821 0 15.972-7.15 15.972-15.972S48.794 11 39.972 11 24 18.15 24 26.972s7.15 15.972 15.972 15.972"/><path fill="url(#c)" d="M50.5 22.192h-.956a2.949 2.949 0 1 0-2.781 3.933h3.736a1.967 1.967 0 0 0 0-3.933Z"/><path fill="#fff176" d="M35.616 17.716h8.35v7.26h-8.35z"/><path fill="#fff" d="M34.709 28.787h9.982v9.983h-9.983v-9.983Z"/><path fill="#f4481e" d="M45.78 24.25h1.452v2.903h-14.52V24.25h1.452v-5.81l5.808-3.63 5.808 3.63zm-2.904 0v-4.2l-2.904-1.815-2.904 1.815v4.199z"/><path fill="#f4481e" d="m32.067 40.854 2.46-16.605h10.89l2.46 16.605a15.9 15.9 0 0 1-7.905 2.09 15.9 15.9 0 0 1-7.905-2.09m11.157-11.595-6.832 2.22-.83 5.604 8.416-2.735-.754-5.09Z"/><path fill="url(#d)" d="m45.766 27.153 2.03 13.7a15.9 15.9 0 0 1-7.905 2.09 15.9 15.9 0 0 1-7.905-2.09l2.03-13.7h-1.304V24.25h1.452v-5.81l5.808-3.63 5.808 3.63v5.809h1.452v2.903z"/><path fill="url(#e)" d="M39.972 24.25h-5.808v-5.81l5.808-3.63z"/><path fill="url(#f)" d="M39.972 42.944a15.96 15.96 0 0 1-7.905-2.09l1.82-13.7h6.085z"/><path fill="url(#g)" d="M39.972 24.25h-7.26v2.904h7.26z"/><path fill="url(#h)" d="M39.972 42.944c8.821 0 15.972-7.15 15.972-15.972S48.794 11 39.972 11 24 18.15 24 26.972s7.15 15.972 15.972 15.972"/><path fill="url(#i)" d="M35.616 25.883h-1.103a3.4 3.4 0 0 0-3.208-2.269 3.404 3.404 0 0 0-3.403 3.403 3.404 3.404 0 0 0 3.403 3.404h4.31a2.27 2.27 0 0 0 0-4.538Z"/><g opacity=".1"><path fill="#fff" d="M39.972 11.167c8.794 0 15.925 7.106 15.97 15.888l.002-.083c0-8.82-7.151-15.972-15.972-15.972S24 18.151 24 26.972l.002.083c.045-8.782 7.176-15.888 15.97-15.888"/><path fill="#263238" d="M55.942 26.888c-.045 8.783-7.176 15.889-15.97 15.889s-15.925-7.106-15.97-15.889l-.002.084c0 8.82 7.151 15.972 15.972 15.972s15.972-7.151 15.972-15.972z"/></g><path fill="url(#j)" d="M39.972 42.944c8.821 0 15.972-7.15 15.972-15.972S48.794 11 39.972 11 24 18.15 24 26.972s7.15 15.972 15.972 15.972"/></g><path fill="#e5e5e5" d="M17.278 60a.2.2 0 0 1-.147-.057.2.2 0 0 1-.058-.148v-5.323a.2.2 0 0 1 .058-.148.2.2 0 0 1 .147-.057h1.081a.2.2 0 0 1 .14.057.19.19 0 0 1 .065.148v4.291h2.473q.09 0 .148.066a.19.19 0 0 1 .065.147v.82q0 .09-.065.147a.2.2 0 0 1-.148.057zm4.797 0a.2.2 0 0 1-.148-.057.2.2 0 0 1-.057-.148v-3.85a.2.2 0 0 1 .057-.147.2.2 0 0 1 .148-.057h.966a.2.2 0 0 1 .14.057.19.19 0 0 1 .065.148v3.85q0 .09-.066.147a.2.2 0 0 1-.139.057zm-.008-4.873a.2.2 0 0 1-.148-.057.2.2 0 0 1-.057-.148v-.729a.2.2 0 0 1 .057-.147.19.19 0 0 1 .148-.066h.974q.09 0 .148.066a.19.19 0 0 1 .065.147v.73q0 .09-.065.147a.2.2 0 0 1-.148.057zm4.227 6.675q-.63 0-1.048-.164a2.1 2.1 0 0 1-.656-.393 1.6 1.6 0 0 1-.344-.459 1 1 0 0 1-.114-.352.17.17 0 0 1 .057-.147.23.23 0 0 1 .156-.058h1.04q.074 0 .123.033a.27.27 0 0 1 .09.131q.041.09.106.188a.5.5 0 0 0 .197.156.8.8 0 0 0 .352.066q.246 0 .41-.082a.5.5 0 0 0 .245-.254A1.1 1.1 0 0 0 26.99 60v-.549a1.4 1.4 0 0 1-.483.336 1.9 1.9 0 0 1-.713.123q-.417 0-.737-.123a1.3 1.3 0 0 1-.532-.368 1.8 1.8 0 0 1-.336-.598 3.2 3.2 0 0 1-.14-.811 6 6 0 0 1 0-.426q.026-.443.14-.795a1.8 1.8 0 0 1 .328-.605q.22-.255.54-.386a1.8 1.8 0 0 1 .737-.139q.442 0 .754.172a1.6 1.6 0 0 1 .524.418v-.303a.2.2 0 0 1 .057-.14.19.19 0 0 1 .148-.065h.941q.09 0 .148.066a.18.18 0 0 1 .066.139v3.94q0 .621-.254 1.048-.255.426-.73.647-.473.22-1.154.22Zm-.057-2.957a.73.73 0 0 0 .425-.114.66.66 0 0 0 .238-.295q.082-.18.09-.385.008-.09.008-.254t-.008-.246a1 1 0 0 0-.09-.393.6.6 0 0 0-.238-.287.73.73 0 0 0-.425-.114.74.74 0 0 0-.434.114.67.67 0 0 0-.23.312 1.8 1.8 0 0 0-.082.434q-.008.18 0 .368.016.238.082.434.075.197.23.312a.74.74 0 0 0 .434.114M29.6 60a.2.2 0 0 1-.148-.057.2.2 0 0 1-.057-.148V54.39a.2.2 0 0 1 .057-.148.2.2 0 0 1 .148-.057h1.048a.2.2 0 0 1 .148.057.2.2 0 0 1 .057.148v1.826q.221-.254.54-.401.328-.156.754-.156.475 0 .844.213.375.213.59.63.212.411.212 1.008v2.285a.2.2 0 0 1-.057.148.2.2 0 0 1-.148.057h-1.056a.22.22 0 0 1-.148-.057.2.2 0 0 1-.057-.148V57.56q0-.384-.188-.59-.18-.212-.54-.212a.72.72 0 0 0-.541.213q-.205.204-.205.59v2.235a.2.2 0 0 1-.057.148.2.2 0 0 1-.148.057H29.6Zm7.26 0q-.523 0-.909-.164a1.26 1.26 0 0 1-.581-.524q-.205-.36-.205-.925v-1.573h-.639a.23.23 0 0 1-.155-.057.2.2 0 0 1-.058-.148v-.663a.2.2 0 0 1 .058-.148.23.23 0 0 1 .155-.057h.64V54.39a.2.2 0 0 1 .056-.148.22.22 0 0 1 .148-.057h.95a.2.2 0 0 1 .147.057.2.2 0 0 1 .058.148v1.351h1.023a.2.2 0 0 1 .148.057.2.2 0 0 1 .057.148v.663a.2.2 0 0 1-.057.148.2.2 0 0 1-.148.057h-1.023v1.458q0 .279.106.442.106.164.36.164h.631a.2.2 0 0 1 .148.057.2.2 0 0 1 .057.148v.712a.2.2 0 0 1-.058.148.2.2 0 0 1-.147.057zm1.85 0a.2.2 0 0 1-.148-.057.2.2 0 0 1-.057-.148V54.39a.2.2 0 0 1 .057-.148.2.2 0 0 1 .148-.057h1.048a.2.2 0 0 1 .147.057.2.2 0 0 1 .058.148v1.826q.22-.254.54-.401.328-.156.754-.156.475 0 .843.213.377.213.59.63.213.411.213 1.008v2.285a.2.2 0 0 1-.057.148.2.2 0 0 1-.148.057h-1.056a.22.22 0 0 1-.148-.057.2.2 0 0 1-.057-.148V57.56q0-.384-.188-.59-.18-.212-.54-.212a.72.72 0 0 0-.541.213q-.205.204-.205.59v2.235a.2.2 0 0 1-.058.148.2.2 0 0 1-.147.057H38.71Zm7.136.082q-.687 0-1.163-.221a1.66 1.66 0 0 1-.72-.63 2.2 2.2 0 0 1-.279-.992 8 8 0 0 1 0-.737q.033-.582.295-.99.263-.41.729-.632.475-.22 1.138-.22.672 0 1.139.22.475.222.737.631t.295.991a7 7 0 0 1 0 .737 2.1 2.1 0 0 1-.287.991 1.6 1.6 0 0 1-.72.63q-.468.222-1.164.222m0-1q.368 0 .533-.22.172-.222.196-.664.008-.122.008-.327c0-.205-.002-.246-.008-.328q-.024-.435-.196-.655-.165-.23-.533-.23-.36 0-.532.23-.172.221-.188.655a5 5 0 0 0-.009.328q0 .204.009.327.015.442.188.664.172.22.532.22m4.549 1a1.64 1.64 0 0 1-.836-.213 1.46 1.46 0 0 1-.565-.623q-.204-.418-.204-1.015v-2.285a.2.2 0 0 1 .057-.148.2.2 0 0 1 .147-.057h1.024a.2.2 0 0 1 .147.057.2.2 0 0 1 .058.148v2.236q0 .802.72.802.336 0 .533-.204.204-.213.205-.598v-2.236a.2.2 0 0 1 .057-.148.2.2 0 0 1 .147-.057h1.024a.2.2 0 0 1 .148.057.2.2 0 0 1 .057.148v3.85a.2.2 0 0 1-.058.147.2.2 0 0 1-.147.057h-.95a.22.22 0 0 1-.147-.057.2.2 0 0 1-.058-.148v-.311a1.37 1.37 0 0 1-.557.45 2 2 0 0 1-.802.148m5.435 0a3.1 3.1 0 0 1-.91-.115 2.2 2.2 0 0 1-.605-.295 1.4 1.4 0 0 1-.344-.352.74.74 0 0 1-.123-.32.17.17 0 0 1 .057-.147.2.2 0 0 1 .14-.065h.933a.1.1 0 0 1 .041.008.4.4 0 0 1 .05.033q.105.057.212.147.106.082.246.148a.8.8 0 0 0 .336.065q.228 0 .385-.09a.29.29 0 0 0 .155-.27.3.3 0 0 0-.074-.213q-.074-.09-.303-.172a4.3 4.3 0 0 0-.671-.164 3.5 3.5 0 0 1-.745-.254 1.3 1.3 0 0 1-.492-.418 1.12 1.12 0 0 1-.172-.63q0-.328.213-.63.213-.304.623-.492.409-.197 1.007-.197.475 0 .819.115.352.106.59.278.245.173.368.353t.131.327a.19.19 0 0 1-.049.148.18.18 0 0 1-.131.057h-.852a.3.3 0 0 1-.065-.008 1 1 0 0 1-.058-.033 1 1 0 0 1-.196-.131 1.2 1.2 0 0 0-.23-.148.7.7 0 0 0-.327-.065.54.54 0 0 0-.344.098.327.327 0 0 0-.057.45q.073.09.286.164.221.075.68.164.566.09.9.295.337.197.476.467.14.262.14.557a1.1 1.1 0 0 1-.238.696q-.23.303-.688.475-.459.165-1.114.164m4.74 0q-.967 0-1.54-.524-.574-.525-.598-1.556v-.287q.024-.647.287-1.106a1.76 1.76 0 0 1 .737-.704 2.4 2.4 0 0 1 1.105-.246q.72 0 1.188.287.475.286.712.778.238.492.238 1.122v.197q0 .09-.066.147a.2.2 0 0 1-.139.057h-2.62v.058q.007.237.081.434a.62.62 0 0 0 .606.426q.165 0 .27-.05a.9.9 0 0 0 .19-.122q.073-.074.114-.123a.4.4 0 0 1 .114-.098.34.34 0 0 1 .148-.025h1.015q.083 0 .131.05.058.04.05.122a.7.7 0 0 1-.14.336 1.7 1.7 0 0 1-.385.393q-.244.189-.622.311a2.8 2.8 0 0 1-.876.123m-.697-2.645h1.385v-.017q0-.262-.082-.459a.6.6 0 0 0-.238-.303.65.65 0 0 0-.377-.106.65.65 0 0 0-.376.106.7.7 0 0 0-.23.303 1.2 1.2 0 0 0-.082.46z"/></g><defs><radialGradient id="c" cx="0" cy="0" r="1" gradientTransform="translate(97.124 104.397)scale(852.767)" gradientUnits="userSpaceOnUse"><stop stop-color="#fff" stop-opacity=".1"/><stop offset="1" stop-color="#fff" stop-opacity="0"/></radialGradient><radialGradient id="h" cx="0" cy="0" r="1" gradientTransform="translate(486.839 476.874)scale(3193.55)" gradientUnits="userSpaceOnUse"><stop stop-color="#fff" stop-opacity=".1"/><stop offset="1" stop-color="#fff" stop-opacity="0"/></radialGradient><radialGradient id="i" cx="0" cy="0" r="1" gradientTransform="translate(95.445 120.733)scale(983.964)" gradientUnits="userSpaceOnUse"><stop stop-color="#fff" stop-opacity=".1"/><stop offset="1" stop-color="#fff" stop-opacity="0"/></radialGradient><radialGradient id="j" cx="0" cy="0" r="1" gradientTransform="translate(486.839 476.874)scale(3193.55)" gradientUnits="userSpaceOnUse"><stop stop-color="#fff" stop-opacity=".1"/><stop offset="1" stop-color="#fff" stop-opacity="0"/></radialGradient><linearGradient id="d" x1="611.037" x2="1729.42" y1="587.531" y2="2430.42" gradientUnits="userSpaceOnUse"><stop stop-color="#fff" stop-opacity=".1"/><stop offset="1" stop-color="#fff" stop-opacity="0"/></linearGradient><linearGradient id="e" x1="434.551" x2="145.465" y1="635.423" y2="494.693" gradientUnits="userSpaceOnUse"><stop stop-color="#262626" stop-opacity=".1"/><stop offset="1" stop-color="#262626" stop-opacity="0"/></linearGradient><linearGradient id="f" x1="526.378" x2="-286.119" y1="233.788" y2="1180.96" gradientUnits="userSpaceOnUse"><stop stop-color="#262626" stop-opacity=".1"/><stop offset="1" stop-color="#262626" stop-opacity="0"/></linearGradient><linearGradient id="g" x1="39.972" x2="-686.037" y1="169.454" y2="169.454" gradientUnits="userSpaceOnUse"><stop stop-color="#262626" stop-opacity=".1"/><stop offset="1" stop-color="#262626" stop-opacity="0"/></linearGradient><clipPath id="b"><path fill="#fff" d="M24 11h32v32H24z"/></clipPath><filter id="a" width="80" height="80" x="0" y="0" color-interpolation-filters="sRGB" filterUnits="userSpaceOnUse"><feFlood flood-opacity="0" result="BackgroundImageFix"/><feColorMatrix in="SourceAlpha" result="hardAlpha" values="0 0 0 0 0 0 0 0 0 0 0 0 0 0 0 0 0 0 127 0"/><feOffset dy="2"/><feGaussianBlur stdDeviation="4"/><feColorMatrix values="0 0 0 0 0 0 0 0 0 0 0 0 0 0 0 0 0 0 0.75 0"/><feBlend in2="BackgroundImageFix" result="effect1_dropShadow_602_1463"/><feBlend in="SourceGraphic" in2="effect1_dropShadow_602_1463" result="shape"/></filter></defs></svg>