<svg xmlns="http://www.w3.org/2000/svg" width="80" height="80" fill="none"><g filter="url(#a)"><rect width="64" height="64" x="8" y="6" fill="#212529" rx="5"/><path stroke="#42a5f5" d="M40 40.763c7.6 0 13.763-6.162 13.763-13.763 0-7.6-6.162-13.763-13.763-13.763-7.6 0-13.763 6.162-13.763 13.763 0 7.6 6.162 13.763 13.763 13.763Z"/><path fill="#42a5f5" fill-rule="evenodd" d="M40.17 18.525a8.7 8.7 0 0 0-6.112 2.493 8.44 8.44 0 0 0-2.531 6.015 8.44 8.44 0 0 0 2.531 6.015 8.7 8.7 0 0 0 6.111 2.492 8.72 8.72 0 0 0 6.113-2.49 8.44 8.44 0 0 0 2.533-6.017 8.44 8.44 0 0 0-2.533-6.015 8.72 8.72 0 0 0-6.113-2.491v-.002Zm2.48 2.555a3.13 3.13 0 0 1 2.196.895 3.02 3.02 0 0 1 0 4.322 3.13 3.13 0 0 1-2.197.895 3.13 3.13 0 0 1-2.195-.894 3.015 3.015 0 0 1-.675-3.33c.156-.37.385-.707.673-.992a3.1 3.1 0 0 1 1.007-.663 3.2 3.2 0 0 1 1.19-.233Z" clip-rule="evenodd"/><path fill="#42a5f5" d="M49.904 20.073c1.715 0 3.105-1.368 3.105-3.056s-1.39-3.056-3.105-3.056-3.105 1.369-3.105 3.056 1.39 3.056 3.105 3.056"/><path fill="#e5e5e5" d="M31.473 61a.25.25 0 0 1-.184-.072.25.25 0 0 1-.072-.184v-6.656a.25.25 0 0 1 .072-.184.25.25 0 0 1 .184-.072h1.352q.102 0 .174.072a.23.23 0 0 1 .081.184v5.366h3.093q.112 0 .184.082a.23.23 0 0 1 .082.184v1.024a.23.23 0 0 1-.082.184.25.25 0 0 1-.184.072zm7.627.102a2.05 2.05 0 0 1-1.044-.266 1.8 1.8 0 0 1-.707-.778q-.255-.523-.256-1.27v-2.857a.25.25 0 0 1 .072-.184.25.25 0 0 1 .184-.072h1.28a.25.25 0 0 1 .184.072.25.25 0 0 1 .072.184v2.796q0 1.003.901 1.003.42 0 .666-.256.256-.266.256-.747V55.93a.25.25 0 0 1 .071-.184.25.25 0 0 1 .185-.072h1.28a.25.25 0 0 1 .184.072.25.25 0 0 1 .072.184v4.813a.25.25 0 0 1-.072.184.25.25 0 0 1-.184.072h-1.188a.27.27 0 0 1-.184-.072.25.25 0 0 1-.072-.184v-.39a1.7 1.7 0 0 1-.697.564q-.42.184-1.003.184Zm6.202 0q-.553 0-.994-.204a1.8 1.8 0 0 1-.686-.574 1.36 1.36 0 0 1-.256-.809q0-.727.594-1.147.594-.43 1.577-.583l1.28-.195v-.143q0-.369-.154-.564-.153-.194-.563-.194a.9.9 0 0 0-.47.113.8.8 0 0 0-.277.307.3.3 0 0 1-.256.133H43.95a.24.24 0 0 1-.174-.061.2.2 0 0 1-.051-.164q0-.184.133-.42.143-.246.43-.482.287-.235.737-.389.45-.153 1.086-.153.665 0 1.136.153.471.154.758.43.297.277.44.656.144.369.144.819v3.113a.23.23 0 0 1-.082.184.24.24 0 0 1-.174.072h-1.188a.25.25 0 0 1-.184-.072.25.25 0 0 1-.072-.184v-.358a1.5 1.5 0 0 1-.359.358 1.7 1.7 0 0 1-.532.256q-.297.102-.696.102m.48-1.167q.298 0 .533-.123a.9.9 0 0 0 .38-.4 1.5 1.5 0 0 0 .143-.685v-.144l-.87.154q-.483.082-.707.256-.215.164-.215.39a.45.45 0 0 0 .102.296.7.7 0 0 0 .266.195q.164.06.369.061Z"/></g><defs><filter id="a" width="80" height="80" x="0" y="0" color-interpolation-filters="sRGB" filterUnits="userSpaceOnUse"><feFlood flood-opacity="0" result="BackgroundImageFix"/><feColorMatrix in="SourceAlpha" result="hardAlpha" values="0 0 0 0 0 0 0 0 0 0 0 0 0 0 0 0 0 0 127 0"/><feOffset dy="2"/><feGaussianBlur stdDeviation="4"/><feColorMatrix values="0 0 0 0 0 0 0 0 0 0 0 0 0 0 0 0 0 0 0.75 0"/><feBlend in2="BackgroundImageFix" result="effect1_dropShadow_608_677"/><feBlend in="SourceGraphic" in2="effect1_dropShadow_608_677" result="shape"/></filter></defs></svg>