<svg xmlns="http://www.w3.org/2000/svg" width="80" height="80" fill="none"><g filter="url(#a)"><rect width="64" height="64" x="8" y="6" fill="#212529" rx="5"/><path fill="#fff" d="M48.977 36.999c-1.106 1.653-2.28 3.266-4.066 3.293-1.787.04-2.36-1.053-4.387-1.053-2.04 0-2.667 1.026-4.36 1.093-1.747.067-3.067-1.76-4.187-3.373-2.28-3.294-4.026-9.36-1.68-13.44 1.16-2.027 3.24-3.307 5.494-3.347 1.706-.027 3.333 1.16 4.386 1.16 1.04 0 3.014-1.427 5.08-1.213.867.04 3.294.346 4.854 2.64-.12.08-2.894 1.706-2.867 5.08.04 4.026 3.533 5.373 3.573 5.386-.04.094-.56 1.92-1.84 3.774m-7.613-21.334c.973-1.106 2.587-1.946 3.92-2 .173 1.56-.453 3.134-1.387 4.254-.92 1.133-2.44 2.013-3.933 1.893-.2-1.533.547-3.133 1.4-4.147"/><path fill="#e5e5e5" d="M30.473 61a.27.27 0 0 1-.184-.072.25.25 0 0 1-.072-.184v-6.656a.25.25 0 0 1 .072-.184.27.27 0 0 1 .184-.072h1.106q.163 0 .245.092a.4.4 0 0 1 .113.133l1.802 3.236 1.803-3.236a1 1 0 0 1 .102-.133q.082-.092.256-.092h1.096a.25.25 0 0 1 .184.072.23.23 0 0 1 .082.184v6.656a.23.23 0 0 1-.082.184.25.25 0 0 1-.184.072h-1.219a.28.28 0 0 1-.194-.072.25.25 0 0 1-.072-.184v-3.84l-1.157 2.14a.5.5 0 0 1-.123.164.33.33 0 0 1-.225.072h-.533a.33.33 0 0 1-.225-.072.6.6 0 0 1-.133-.164l-1.157-2.14v3.84a.25.25 0 0 1-.072.184.25.25 0 0 1-.184.072h-1.23Zm9.699.102q-.553 0-.994-.204a1.83 1.83 0 0 1-.686-.574 1.36 1.36 0 0 1-.256-.809q0-.727.594-1.147.594-.43 1.577-.583l1.28-.195v-.143q0-.369-.154-.564-.153-.194-.563-.194a.9.9 0 0 0-.47.113.8.8 0 0 0-.277.307.3.3 0 0 1-.256.133H38.82a.24.24 0 0 1-.174-.061.2.2 0 0 1-.051-.164q0-.184.133-.42.143-.246.43-.482.287-.235.737-.389.45-.153 1.086-.153.665 0 1.136.153.471.154.758.43.297.277.44.656.144.369.144.819v3.113a.23.23 0 0 1-.082.184.24.24 0 0 1-.174.072h-1.188a.25.25 0 0 1-.184-.072.25.25 0 0 1-.072-.184v-.358a1.5 1.5 0 0 1-.359.358 1.7 1.7 0 0 1-.532.256q-.297.102-.696.102m.48-1.167q.298 0 .533-.123a.9.9 0 0 0 .38-.4 1.5 1.5 0 0 0 .143-.685v-.144l-.87.154q-.483.082-.707.256-.215.164-.215.39a.45.45 0 0 0 .102.296.7.7 0 0 0 .266.195q.164.06.369.061Zm6.41 1.167q-.759 0-1.342-.276t-.932-.799q-.338-.532-.368-1.27a7 7 0 0 1-.01-.41q0-.255.01-.419.03-.747.368-1.27.339-.532.922-.809a3.2 3.2 0 0 1 1.352-.276q.705 0 1.208.205.501.195.819.491.318.297.471.614.164.307.174.543a.22.22 0 0 1-.072.185.27.27 0 0 1-.184.071h-1.3a.26.26 0 0 1-.174-.051.5.5 0 0 1-.113-.154q-.123-.316-.317-.45a.8.8 0 0 0-.482-.133q-.409 0-.635.266-.214.266-.235.82-.01.409 0 .726.02.564.235.82.225.255.635.255.319 0 .502-.133.184-.133.297-.45a.5.5 0 0 1 .113-.154.26.26 0 0 1 .174-.051h1.3q.102 0 .184.082a.2.2 0 0 1 .072.174 1.4 1.4 0 0 1-.102.41 2.3 2.3 0 0 1-.799.962q-.307.215-.747.348a3.6 3.6 0 0 1-1.024.133"/></g><defs><filter id="a" width="80" height="80" x="0" y="0" color-interpolation-filters="sRGB" filterUnits="userSpaceOnUse"><feFlood flood-opacity="0" result="BackgroundImageFix"/><feColorMatrix in="SourceAlpha" result="hardAlpha" values="0 0 0 0 0 0 0 0 0 0 0 0 0 0 0 0 0 0 127 0"/><feOffset dy="2"/><feGaussianBlur stdDeviation="4"/><feColorMatrix values="0 0 0 0 0 0 0 0 0 0 0 0 0 0 0 0 0 0 0.75 0"/><feBlend in2="BackgroundImageFix" result="effect1_dropShadow_603_576"/><feBlend in="SourceGraphic" in2="effect1_dropShadow_603_576" result="shape"/></filter></defs></svg>