<svg xmlns="http://www.w3.org/2000/svg" width="80" height="80" fill="none"><g filter="url(#a)"><rect width="64" height="64" x="8" y="6" fill="#212529" rx="5"/><g clip-path="url(#b)"><path fill="#fff" fill-rule="evenodd" d="M24 21.667a5.333 5.333 0 0 1 5.333-5.334h21.334A5.333 5.333 0 0 1 56 21.667v10.666a5.333 5.333 0 0 1-5.333 5.334H29.333A5.333 5.333 0 0 1 24 32.333zM29.333 19a2.667 2.667 0 0 0-2.666 2.667v10.666A2.667 2.667 0 0 0 29.333 35h21.334a2.667 2.667 0 0 0 2.666-2.667V21.667A2.667 2.667 0 0 0 50.667 19zm2.245 2.735a1.33 1.33 0 0 1 1.489.465L36 26.11l2.933-3.911a1.333 1.333 0 0 1 2.4.8v8a1.333 1.333 0 1 1-2.666 0v-4l-1.6 2.133a1.333 1.333 0 0 1-2.134 0L33.333 27v4a1.333 1.333 0 1 1-2.666 0v-8c0-.574.367-1.084.911-1.265M48 23a1.333 1.333 0 1 0-2.667 0v4.781l-.39-.39a1.333 1.333 0 1 0-1.886 1.885l2.667 2.667c.52.52 1.365.52 1.886 0l2.666-2.667a1.333 1.333 0 1 0-1.886-1.886l-.39.391z" clip-rule="evenodd"/></g><path fill="#e5e5e5" d="M19.278 60a.22.22 0 0 1-.147-.057.2.2 0 0 1-.058-.148v-5.323a.2.2 0 0 1 .058-.148.22.22 0 0 1 .147-.057h.885q.13 0 .196.074a.3.3 0 0 1 .09.106l1.442 2.588 1.441-2.588a1 1 0 0 1 .082-.106q.066-.075.205-.074h.876a.2.2 0 0 1 .147.057.19.19 0 0 1 .066.148v5.323q0 .09-.066.148a.2.2 0 0 1-.147.057h-.975a.23.23 0 0 1-.155-.057.2.2 0 0 1-.057-.148v-3.071l-.926 1.712a.4.4 0 0 1-.098.13.26.26 0 0 1-.18.058h-.426a.26.26 0 0 1-.18-.057.5.5 0 0 1-.107-.131l-.925-1.712v3.071a.2.2 0 0 1-.058.148.2.2 0 0 1-.147.057zm7.757.082a1.9 1.9 0 0 1-.794-.164 1.46 1.46 0 0 1-.549-.459 1.1 1.1 0 0 1-.205-.647q0-.58.475-.917.475-.344 1.262-.467l1.023-.155v-.115q0-.295-.122-.45-.123-.156-.451-.156a.7.7 0 0 0-.377.09.64.64 0 0 0-.22.246.24.24 0 0 1-.206.106h-.917a.2.2 0 0 1-.14-.049.17.17 0 0 1-.04-.13.7.7 0 0 1 .106-.337q.116-.196.344-.385.23-.188.59-.31.36-.124.868-.124.532 0 .91.123.376.123.605.344.238.222.352.524.115.295.115.656v2.49q0 .09-.065.147a.2.2 0 0 1-.14.057h-.95a.2.2 0 0 1-.147-.057.2.2 0 0 1-.057-.148v-.286a1.2 1.2 0 0 1-.287.286q-.18.132-.426.205a1.7 1.7 0 0 1-.557.082m.385-.934q.237 0 .426-.098a.7.7 0 0 0 .303-.32q.114-.22.115-.548v-.115l-.697.123q-.384.066-.565.205-.172.13-.172.311a.36.36 0 0 0 .082.237.6.6 0 0 0 .213.156q.132.05.295.05Zm3.373.852a.2.2 0 0 1-.147-.057.2.2 0 0 1-.058-.148v-3.85a.2.2 0 0 1 .058-.138.19.19 0 0 1 .147-.066h.942q.09 0 .147.066a.2.2 0 0 1 .058.139v.328q.22-.254.524-.394a1.7 1.7 0 0 1 .696-.139h.36a.2.2 0 0 1 .14.057.19.19 0 0 1 .065.148v.843a.2.2 0 0 1-.065.148.2.2 0 0 1-.14.057h-.794q-.336 0-.524.189-.18.18-.18.516v2.096q0 .09-.066.148a.2.2 0 0 1-.147.057zm3.72 0a.2.2 0 0 1-.148-.057.2.2 0 0 1-.058-.148V54.39a.2.2 0 0 1 .058-.148.2.2 0 0 1 .147-.057h.95a.2.2 0 0 1 .14.057.19.19 0 0 1 .065.148v2.743l1.138-1.253a.6.6 0 0 1 .107-.098.3.3 0 0 1 .164-.04h1.097q.074 0 .123.056a.16.16 0 0 1 .057.123.2.2 0 0 1-.016.074.15.15 0 0 1-.05.066l-1.473 1.589 1.679 2.039q.065.066.065.13a.18.18 0 0 1-.057.132.18.18 0 0 1-.131.049h-1.122q-.123 0-.18-.041a2 2 0 0 1-.107-.098l-1.294-1.556v1.49q0 .09-.066.148a.2.2 0 0 1-.139.057h-.95Zm5.99.082q-.394 0-.712-.123a1.6 1.6 0 0 1-.54-.377 1.8 1.8 0 0 1-.345-.606 2.9 2.9 0 0 1-.14-.819 6 6 0 0 1 0-.573q.018-.443.14-.795.123-.351.344-.605.222-.255.54-.386.32-.139.713-.139a1.64 1.64 0 0 1 1.204.483V54.39a.2.2 0 0 1 .057-.148.2.2 0 0 1 .148-.057h1a.2.2 0 0 1 .138.057.19.19 0 0 1 .066.148v5.405q0 .09-.066.148a.2.2 0 0 1-.139.057h-.925a.2.2 0 0 1-.148-.057.2.2 0 0 1-.057-.148v-.262q-.196.238-.508.393-.31.156-.77.156m.443-1.098q.278 0 .434-.114a.7.7 0 0 0 .237-.311 1.1 1.1 0 0 0 .09-.41 6 6 0 0 0 0-.614 1 1 0 0 0-.09-.377.66.66 0 0 0-.246-.287.73.73 0 0 0-.425-.114.74.74 0 0 0-.435.114.6.6 0 0 0-.22.312 1.8 1.8 0 0 0-.083.434 2.7 2.7 0 0 0 0 .508q.017.237.082.434a.6.6 0 0 0 .221.31.74.74 0 0 0 .434.115Zm5.15 1.098q-.688 0-1.163-.221a1.66 1.66 0 0 1-.72-.63 2.2 2.2 0 0 1-.28-.992 7 7 0 0 1 0-.737q.033-.582.295-.99.262-.41.73-.632.474-.22 1.138-.22.672 0 1.138.22.476.222.737.631.262.41.295.991a7 7 0 0 1 0 .737 2.1 2.1 0 0 1-.286.991 1.6 1.6 0 0 1-.721.63q-.468.222-1.163.222m0-1q.369 0 .532-.22.172-.222.197-.664.008-.122.008-.327c0-.205-.003-.246-.008-.328q-.025-.435-.197-.655-.163-.23-.532-.23-.36 0-.532.23-.172.221-.189.655a5 5 0 0 0-.008.328q0 .204.008.327.017.442.188.664.173.22.533.22m4.043.918q-.123 0-.18-.057a.4.4 0 0 1-.09-.148l-1.18-3.792a.2.2 0 0 1-.016-.082q0-.074.058-.123a.18.18 0 0 1 .13-.057h.844q.107 0 .164.057a.25.25 0 0 1 .082.115l.688 2.343.737-2.335a.3.3 0 0 1 .074-.114.24.24 0 0 1 .18-.066h.54q.115 0 .173.066.064.057.081.114l.738 2.334.688-2.342a.3.3 0 0 1 .073-.114.25.25 0 0 1 .172-.058h.844q.074 0 .123.057a.16.16 0 0 1 .057.123.4.4 0 0 1-.008.082l-1.18 3.792a.3.3 0 0 1-.09.148q-.057.057-.18.057h-.737a.26.26 0 0 1-.18-.057.3.3 0 0 1-.09-.148l-.754-2.244-.753 2.244a.3.3 0 0 1-.09.148.26.26 0 0 1-.18.057zm5.88 0a.2.2 0 0 1-.148-.057.2.2 0 0 1-.057-.148v-3.85a.2.2 0 0 1 .057-.147.2.2 0 0 1 .148-.057h.942a.2.2 0 0 1 .147.057.2.2 0 0 1 .058.148v.311a1.7 1.7 0 0 1 .556-.426q.345-.171.811-.172.475 0 .836.213.368.213.573.63.213.411.213 1.008v2.285q0 .09-.066.148a.2.2 0 0 1-.139.057h-1.032a.22.22 0 0 1-.147-.057.2.2 0 0 1-.057-.148V57.56q0-.384-.189-.59-.18-.212-.54-.212a.72.72 0 0 0-.541.213q-.197.204-.197.59v2.235q0 .09-.065.148a.2.2 0 0 1-.14.057H56.02Z"/></g><defs><clipPath id="b"><path fill="#fff" d="M24 11h32v32H24z"/></clipPath><filter id="a" width="80" height="80" x="0" y="0" color-interpolation-filters="sRGB" filterUnits="userSpaceOnUse"><feFlood flood-opacity="0" result="BackgroundImageFix"/><feColorMatrix in="SourceAlpha" result="hardAlpha" values="0 0 0 0 0 0 0 0 0 0 0 0 0 0 0 0 0 0 127 0"/><feOffset dy="2"/><feGaussianBlur stdDeviation="4"/><feColorMatrix values="0 0 0 0 0 0 0 0 0 0 0 0 0 0 0 0 0 0 0.75 0"/><feBlend in2="BackgroundImageFix" result="effect1_dropShadow_602_867"/><feBlend in="SourceGraphic" in2="effect1_dropShadow_602_867" result="shape"/></filter></defs></svg>