<svg xmlns="http://www.w3.org/2000/svg" width="64" height="64" fill="none"><path fill="#000" d="M10.667 48q-1.134 0-1.899-.768Q8 46.467 8 45.333t.768-1.898q.765-.768 1.899-.768h42.666q1.134 0 1.899.768.768.765.768 1.898t-.768 1.899q-.765.768-1.899.768zm0-13.333q-1.134 0-1.899-.768Q8 33.134 8 32c0-1.134.256-1.39.768-1.901q.765-.766 1.899-.766h42.666q1.134 0 1.899.766Q56 30.866 56 32c0 1.134-.256 1.388-.768 1.899q-.765.768-1.899.768zm0-13.334q-1.134 0-1.899-.765Q8 19.8 8 18.667t.768-1.902Q9.533 16 10.667 16h42.666q1.134 0 1.899.765.768.768.768 1.902t-.768 1.901q-.765.765-1.899.765z"/></svg>