<svg xmlns="http://www.w3.org/2000/svg" width="80" height="80" fill="none"><g filter="url(#a)"><rect width="64" height="64" x="8" y="6" fill="#212529" rx="5"/><path fill="#864f00" d="M52.024 20.19a2.424 2.424 0 0 0-3.86-.464l-5.608-3.24a2.427 2.427 0 1 0-4.66 0l-5.61 3.238a2.428 2.428 0 1 0-2.332 4.038v9.168l7.94 4.584a2.428 2.428 0 1 0 4.661 0l7.93-4.584v-9.166a2.426 2.426 0 0 0 1.534-3.575zm-13.555-2.704.075.075-2.488 4.31.851.834 2.637-4.568c.444.13.915.13 1.358 0l5.056 8.765.851-.834-4.904-8.507.074-.074 5.61 3.24a2.424 2.424 0 0 0 1.746 3.032v8.26H31.109v-8.257a2.423 2.423 0 0 0 1.753-3.038zm1.756 18.28a2.42 2.42 0 0 0-1.756.748l-5.785-3.34H47.76l-5.78 3.34a2.42 2.42 0 0 0-1.754-.749Z"/><path fill="#ffa11a" d="M51.126 30.492a2.43 2.43 0 0 0-1.892-.227l-2.423-4.2-3.24 3.185-7.513-7.38-4.847 8.395a2.427 2.427 0 1 0 1.003.574l4.099-7.1 7.258 7.13 2.986-2.934 1.676 2.906a2.428 2.428 0 1 0 2.893-.348Z"/><path fill="#e5e5e5" d="M14.973 61a.27.27 0 0 1-.184-.072.25.25 0 0 1-.072-.184v-6.656a.25.25 0 0 1 .072-.184.27.27 0 0 1 .184-.072h1.106q.163 0 .245.092a.4.4 0 0 1 .113.133l1.802 3.236 1.803-3.236a1 1 0 0 1 .102-.133q.082-.092.256-.092h1.096a.25.25 0 0 1 .184.072.23.23 0 0 1 .082.184v6.656a.23.23 0 0 1-.082.184.25.25 0 0 1-.184.072h-1.219a.28.28 0 0 1-.194-.072.25.25 0 0 1-.072-.184v-3.84l-1.157 2.14a.5.5 0 0 1-.123.164.33.33 0 0 1-.225.072h-.533a.33.33 0 0 1-.225-.072.6.6 0 0 1-.133-.164l-1.157-2.14v3.84a.25.25 0 0 1-.072.184.25.25 0 0 1-.184.072h-1.23Zm10.559.102q-1.21 0-1.925-.655-.717-.655-.748-1.946v-.358q.03-.81.358-1.382.339-.584.922-.881.594-.307 1.383-.307.9 0 1.484.358.594.359.891.973t.297 1.403v.246a.23.23 0 0 1-.082.184.24.24 0 0 1-.174.072h-3.277v.071q.01.298.103.543a.77.77 0 0 0 .758.532.8.8 0 0 0 .337-.06q.143-.073.236-.155a2 2 0 0 0 .143-.153.5.5 0 0 1 .144-.123q.06-.03.184-.03h1.27q.102 0 .164.06.071.052.061.154-.01.174-.174.42a2.2 2.2 0 0 1-.481.492 2.6 2.6 0 0 1-.779.389 3.6 3.6 0 0 1-1.095.153m-.87-3.307h1.73v-.02q0-.329-.102-.574a.75.75 0 0 0-.297-.379.8.8 0 0 0-.471-.133.8.8 0 0 0-.471.133.86.86 0 0 0-.287.379 1.5 1.5 0 0 0-.103.573v.02ZM29.41 61a.25.25 0 0 1-.184-.072.25.25 0 0 1-.072-.184v-4.813q0-.102.072-.174a.23.23 0 0 1 .184-.082h1.178q.112 0 .184.082a.24.24 0 0 1 .072.174v.41q.276-.318.655-.492.39-.174.87-.174h.451q.102 0 .174.072.082.072.082.184v1.055q0 .103-.082.184a.24.24 0 0 1-.174.072h-.993q-.42 0-.656.235-.225.225-.225.646v2.621a.23.23 0 0 1-.082.184.25.25 0 0 1-.184.072zm6.802.102q-.759 0-1.342-.276t-.932-.799q-.338-.532-.368-1.27a7 7 0 0 1-.01-.41q0-.255.01-.419.03-.747.368-1.27a2.17 2.17 0 0 1 .922-.809 3.2 3.2 0 0 1 1.352-.276q.705 0 1.208.205.501.195.819.491.318.297.471.614.164.307.174.543a.22.22 0 0 1-.072.185.27.27 0 0 1-.184.071h-1.3a.26.26 0 0 1-.174-.051.5.5 0 0 1-.113-.154q-.123-.316-.317-.45a.8.8 0 0 0-.482-.133q-.409 0-.635.266-.214.266-.235.82-.01.409 0 .726.02.564.235.82.225.255.635.255.319 0 .502-.133.184-.133.297-.45a.5.5 0 0 1 .113-.154.26.26 0 0 1 .174-.051h1.3q.102 0 .184.082a.2.2 0 0 1 .072.174 1.4 1.4 0 0 1-.102.41 2.3 2.3 0 0 1-.799.962q-.307.215-.747.348a3.6 3.6 0 0 1-1.024.133m5.548 0a2.05 2.05 0 0 1-1.044-.266 1.8 1.8 0 0 1-.707-.778q-.256-.523-.256-1.27v-2.857a.25.25 0 0 1 .072-.184.25.25 0 0 1 .184-.072h1.28a.25.25 0 0 1 .184.072.25.25 0 0 1 .072.184v2.796q0 1.003.901 1.003.42 0 .666-.256.256-.266.256-.747V55.93a.25.25 0 0 1 .071-.184.25.25 0 0 1 .185-.072h1.28a.25.25 0 0 1 .184.072.25.25 0 0 1 .072.184v4.813a.25.25 0 0 1-.072.184.25.25 0 0 1-.184.072h-1.188a.27.27 0 0 1-.184-.072.25.25 0 0 1-.072-.184v-.39a1.7 1.7 0 0 1-.697.564q-.42.184-1.003.184ZM46.62 61a.25.25 0 0 1-.184-.072.25.25 0 0 1-.072-.184v-4.813q0-.102.072-.174a.23.23 0 0 1 .184-.082h1.178q.112 0 .184.082a.24.24 0 0 1 .072.174v.41q.276-.318.655-.492.39-.174.87-.174h.451q.102 0 .174.072.082.072.082.184v1.055q0 .103-.082.184a.24.24 0 0 1-.174.072h-.993q-.42 0-.656.235-.225.225-.225.646v2.621a.23.23 0 0 1-.082.184.25.25 0 0 1-.184.072zm4.65 0a.25.25 0 0 1-.184-.072.25.25 0 0 1-.072-.184v-4.813a.25.25 0 0 1 .072-.184.25.25 0 0 1 .184-.072h1.208q.103 0 .175.072.081.072.081.184v4.813a.23.23 0 0 1-.081.184.24.24 0 0 1-.175.072zm-.01-6.093a.25.25 0 0 1-.184-.071.25.25 0 0 1-.072-.185v-.911a.25.25 0 0 1 .072-.184.23.23 0 0 1 .184-.082h1.218q.113 0 .185.082a.23.23 0 0 1 .082.184v.911a.23.23 0 0 1-.082.184.25.25 0 0 1-.184.072zm4.63 6.195a2.05 2.05 0 0 1-1.044-.266 1.8 1.8 0 0 1-.707-.778q-.256-.523-.256-1.27v-2.857a.25.25 0 0 1 .072-.184.25.25 0 0 1 .184-.072h1.28a.25.25 0 0 1 .184.072.25.25 0 0 1 .072.184v2.796q0 1.003.901 1.003.42 0 .666-.256.256-.266.256-.747V55.93a.25.25 0 0 1 .071-.184.25.25 0 0 1 .185-.072h1.28a.25.25 0 0 1 .184.072.25.25 0 0 1 .072.184v4.813a.25.25 0 0 1-.072.184.25.25 0 0 1-.184.072h-1.188a.27.27 0 0 1-.184-.072.25.25 0 0 1-.072-.184v-.39a1.7 1.7 0 0 1-.697.564q-.42.184-1.003.184Zm6.795 0q-.665 0-1.136-.143a2.8 2.8 0 0 1-.758-.369 1.7 1.7 0 0 1-.43-.44q-.143-.235-.154-.4a.21.21 0 0 1 .072-.184.25.25 0 0 1 .174-.082h1.168a.1.1 0 0 1 .05.01l.062.042q.134.071.266.184.135.102.308.184a1 1 0 0 0 .42.082.95.95 0 0 0 .48-.112.37.37 0 0 0 .195-.338q0-.164-.092-.267-.092-.112-.379-.215a5.4 5.4 0 0 0-.84-.204 4.4 4.4 0 0 1-.931-.318 1.6 1.6 0 0 1-.615-.522 1.4 1.4 0 0 1-.215-.789q0-.409.267-.788.265-.379.778-.614.511-.246 1.26-.246.593 0 1.023.143.441.133.738.348.306.215.46.44t.164.41a.24.24 0 0 1-.061.185.23.23 0 0 1-.164.071H63.73a.3.3 0 0 1-.082-.01l-.072-.041a1.3 1.3 0 0 1-.245-.164 1.5 1.5 0 0 0-.287-.184.9.9 0 0 0-.41-.082q-.276 0-.43.123a.41.41 0 0 0-.072.563q.092.112.359.205.276.092.85.205.705.113 1.126.368.42.246.594.584.174.327.174.696 0 .492-.297.87-.286.38-.86.595-.573.204-1.393.204"/></g><defs><filter id="a" width="80" height="80" x="0" y="0" color-interpolation-filters="sRGB" filterUnits="userSpaceOnUse"><feFlood flood-opacity="0" result="BackgroundImageFix"/><feColorMatrix in="SourceAlpha" result="hardAlpha" values="0 0 0 0 0 0 0 0 0 0 0 0 0 0 0 0 0 0 127 0"/><feOffset dy="2"/><feGaussianBlur stdDeviation="4"/><feColorMatrix values="0 0 0 0 0 0 0 0 0 0 0 0 0 0 0 0 0 0 0.75 0"/><feBlend in2="BackgroundImageFix" result="effect1_dropShadow_603_695"/><feBlend in="SourceGraphic" in2="effect1_dropShadow_603_695" result="shape"/></filter></defs></svg>