<svg xmlns="http://www.w3.org/2000/svg" width="80" height="80" fill="none"><g filter="url(#a)"><rect width="64" height="64" x="8" y="6" fill="#212529" rx="5"/><path fill="#599636" d="m38.727 15.16.693 1.303c.156.24.325.453.524.651a18 18 0 0 1 1.627 1.84c1.175 1.543 1.968 3.257 2.534 5.11.34 1.132.524 2.293.538 3.467.056 3.51-1.147 6.525-3.573 9.03a10.3 10.3 0 0 1-1.275 1.09c-.24 0-.354-.184-.453-.354-.18-.315-.3-.66-.355-1.02a5 5 0 0 1-.113-1.287v-.198c-.02-.042-.232-19.532-.147-19.632"/><path fill="#6cac48" d="M38.727 15.117c-.029-.057-.057-.014-.085.014.013.284-.086.538-.24.78-.171.24-.397.424-.624.623-1.258 1.09-2.25 2.406-3.042 3.878-1.056 1.981-1.6 4.105-1.755 6.34-.07.807.255 3.652.51 4.473.693 2.18 1.939 4.006 3.552 5.591.397.382.82.736 1.26 1.076.127 0 .14-.114.17-.198a4 4 0 0 0 .127-.552l.284-2.123z"/><path fill="#c2bfbf" d="M39.42 38.513c.029-.324.184-.594.354-.863-.17-.07-.297-.21-.396-.368a2.6 2.6 0 0 1-.211-.467c-.198-.594-.24-1.218-.297-1.825v-.368c-.071.057-.086.538-.086.61a14 14 0 0 1-.255 1.91c-.042.255-.07.509-.227.736 0 .028 0 .056.014.099.255.75.325 1.514.368 2.293v.284c0 .34-.014.268.268.382.113.042.24.057.354.141.085 0 .099-.07.099-.127l-.043-.467V39.18c-.013-.227.029-.453.057-.666h.001Z"/><path fill="#e5e5e5" d="M16.473 61a.27.27 0 0 1-.184-.072.25.25 0 0 1-.072-.184v-6.656a.25.25 0 0 1 .072-.184.27.27 0 0 1 .184-.072h1.106q.163 0 .245.092a.4.4 0 0 1 .113.133l1.802 3.236 1.803-3.236a1 1 0 0 1 .102-.133q.082-.092.256-.092h1.096a.25.25 0 0 1 .184.072.23.23 0 0 1 .082.184v6.656a.23.23 0 0 1-.082.184.25.25 0 0 1-.184.072h-1.219a.28.28 0 0 1-.194-.072.25.25 0 0 1-.072-.184v-3.84l-1.157 2.14a.5.5 0 0 1-.123.164.33.33 0 0 1-.225.072h-.533a.33.33 0 0 1-.225-.072.6.6 0 0 1-.133-.164l-1.157-2.14v3.84a.25.25 0 0 1-.072.184.25.25 0 0 1-.184.072h-1.23Zm10.62.102q-.86 0-1.454-.276a2.08 2.08 0 0 1-.901-.789q-.307-.521-.348-1.239a9 9 0 0 1 0-.921q.04-.727.369-1.24.327-.51.91-.788.595-.276 1.424-.276.84 0 1.424.276.594.277.921.789t.369 1.239a9 9 0 0 1 0 .922q-.04.716-.359 1.238a2 2 0 0 1-.9.789q-.584.276-1.455.276m0-1.249q.461 0 .666-.276.215-.277.246-.83.01-.153.01-.41 0-.256-.01-.409-.03-.543-.246-.82-.206-.286-.666-.286-.45 0-.665.287-.215.276-.236.819-.01.153-.01.41 0 .255.01.41.02.552.236.829.215.276.665.276M31.08 61a.25.25 0 0 1-.184-.072.25.25 0 0 1-.072-.184v-4.813a.25.25 0 0 1 .072-.184.25.25 0 0 1 .184-.072h1.178a.25.25 0 0 1 .184.072.25.25 0 0 1 .072.184v.39q.266-.318.696-.533a2.24 2.24 0 0 1 1.014-.215q.594 0 1.044.266.461.266.717.788.267.513.266 1.26v2.857a.23.23 0 0 1-.082.184.24.24 0 0 1-.174.072h-1.29a.27.27 0 0 1-.184-.072.25.25 0 0 1-.072-.184v-2.795q0-.481-.235-.738-.225-.266-.676-.266-.42 0-.676.266-.246.256-.246.738v2.795a.23.23 0 0 1-.082.184.24.24 0 0 1-.174.072zm8.925 2.253q-.788 0-1.31-.205a2.6 2.6 0 0 1-.82-.492 2 2 0 0 1-.43-.573q-.132-.276-.143-.44a.21.21 0 0 1 .072-.185.28.28 0 0 1 .194-.071h1.3a.27.27 0 0 1 .154.04.33.33 0 0 1 .113.165q.051.112.133.235a.64.64 0 0 0 .246.195q.164.081.44.082.308 0 .512-.103a.6.6 0 0 0 .307-.317q.103-.215.103-.584v-.686a1.8 1.8 0 0 1-.604.42 2.3 2.3 0 0 1-.891.153q-.523 0-.922-.153a1.65 1.65 0 0 1-.666-.461 2.3 2.3 0 0 1-.42-.748 4 4 0 0 1-.173-1.013 7 7 0 0 1 0-.533q.03-.553.174-.993a2.2 2.2 0 0 1 .41-.758q.276-.318.675-.481a2.3 2.3 0 0 1 .922-.174q.552 0 .942.215.399.204.655.522v-.379q0-.102.072-.174a.23.23 0 0 1 .184-.082h1.178q.112 0 .184.082a.22.22 0 0 1 .082.174v4.926q0 .778-.317 1.31a2.03 2.03 0 0 1-.912.81q-.594.276-1.444.276m-.071-3.697q.328 0 .532-.143a.82.82 0 0 0 .297-.369q.102-.225.113-.481.01-.113.01-.318 0-.204-.01-.307a1.3 1.3 0 0 0-.113-.491.76.76 0 0 0-.297-.359q-.204-.143-.532-.143-.338 0-.543.143a.83.83 0 0 0-.287.39 2.2 2.2 0 0 0-.102.542q-.01.225 0 .461.021.297.102.543a.83.83 0 0 0 .287.389q.205.143.543.143m6.47 1.546q-.861 0-1.455-.276a2.08 2.08 0 0 1-.901-.789q-.307-.521-.348-1.239a9 9 0 0 1 0-.921q.04-.727.368-1.24.329-.51.912-.788.594-.276 1.423-.276.84 0 1.424.276.593.277.921.789t.369 1.239a9 9 0 0 1 0 .922q-.041.716-.359 1.238a2 2 0 0 1-.9.789q-.584.276-1.455.276Zm0-1.249q.46 0 .665-.276.215-.277.246-.83.01-.153.01-.41 0-.256-.01-.409-.03-.543-.246-.82-.205-.286-.666-.286-.45 0-.665.287-.215.276-.236.819-.01.153-.01.41 0 .255.01.41.02.552.236.829.215.276.665.276ZM50.502 61a.25.25 0 0 1-.184-.072.25.25 0 0 1-.072-.184v-6.656a.25.25 0 0 1 .072-.184.25.25 0 0 1 .184-.072h2.662q1.005 0 1.71.328.706.316 1.086.942.378.614.41 1.526a34 34 0 0 1 0 1.567q-.042.951-.41 1.576-.359.625-1.055.932-.685.297-1.69.297zm1.577-1.475h1.085q.44 0 .727-.133a.92.92 0 0 0 .44-.44q.155-.297.164-.778a8 8 0 0 0 .02-.533 5 5 0 0 0 0-.47 7 7 0 0 0-.02-.523q-.02-.696-.368-1.014-.338-.327-1.014-.327H52.08zM57.833 61a.25.25 0 0 1-.184-.072.25.25 0 0 1-.072-.184v-6.656a.25.25 0 0 1 .072-.184.25.25 0 0 1 .184-.072h3.123q.88 0 1.444.246.563.246.83.706.276.451.276 1.075 0 .37-.144.656a1.5 1.5 0 0 1-.337.46q-.195.185-.37.267.39.184.687.604.307.42.307.983 0 .676-.307 1.167-.297.481-.88.748-.574.256-1.414.256zm1.577-1.331h1.433q.441 0 .666-.256a.86.86 0 0 0 .225-.584.84.84 0 0 0-.235-.604q-.225-.246-.656-.246H59.41zm0-2.99h1.341q.42 0 .625-.215a.75.75 0 0 0 .215-.553.7.7 0 0 0-.215-.533q-.205-.215-.625-.215H59.41z"/></g><defs><filter id="a" width="80" height="80" x="0" y="0" color-interpolation-filters="sRGB" filterUnits="userSpaceOnUse"><feFlood flood-opacity="0" result="BackgroundImageFix"/><feColorMatrix in="SourceAlpha" result="hardAlpha" values="0 0 0 0 0 0 0 0 0 0 0 0 0 0 0 0 0 0 127 0"/><feOffset dy="2"/><feGaussianBlur stdDeviation="4"/><feColorMatrix values="0 0 0 0 0 0 0 0 0 0 0 0 0 0 0 0 0 0 0.75 0"/><feBlend in2="BackgroundImageFix" result="effect1_dropShadow_603_792"/><feBlend in="SourceGraphic" in2="effect1_dropShadow_603_792" result="shape"/></filter></defs></svg>