<svg xmlns="http://www.w3.org/2000/svg" width="80" height="80" fill="none"><g filter="url(#a)"><rect width="64" height="64" x="8" y="6" fill="#212529" rx="5"/><path fill="#5d87a1" fill-rule="evenodd" d="M32.785 17.865a3 3 0 0 0-.785.1V18h.038q.276.416.612.785c.154.306.288.611.441.917l.038-.039a1.08 1.08 0 0 0 .4-.957 4 4 0 0 1-.23-.4c-.115-.191-.364-.287-.517-.44" clip-rule="evenodd"/><path fill="#00758f" fill-rule="evenodd" d="M51.78 34.553a8.85 8.85 0 0 0-3.712.536c-.287.115-.745.115-.785.478.154.153.172.4.307.613.262.443.599.838.995 1.167.4.306.8.611 1.225.879.745.461 1.588.728 2.314 1.187.422.268.842.612 1.264.9.21.153.343.4.611.5v-.058a4 4 0 0 0-.291-.613c-.191-.19-.383-.363-.575-.554a9.1 9.1 0 0 0-1.99-1.932c-.613-.422-1.953-1-2.2-1.7l-.039-.039a7.7 7.7 0 0 0 1.321-.308c.65-.172 1.243-.133 1.912-.3.307-.077.862-.268.862-.268v-.3c-.342-.34-.587-.795-.947-1.116a25 25 0 0 0-3.122-2.328c-.587-.379-1.344-.623-1.969-.946-.226-.114-.6-.17-.737-.36a7.6 7.6 0 0 1-.776-1.457 47 47 0 0 1-1.551-3.293 20 20 0 0 0-.965-2.157A19.1 19.1 0 0 0 35.609 16a9 9 0 0 0-2.421-.776c-.474-.02-.946-.057-1.419-.075a7.6 7.6 0 0 1-.869-.664c-1.082-.685-3.862-2.157-4.658-.208-.51 1.231.758 2.441 1.193 3.066.367.44.69.916.965 1.419.133.322.171.663.3 1q.417 1.299.987 2.538.305.613.7 1.172c.153.209.417.3.474.645-.21.45-.356.928-.436 1.419a8.34 8.34 0 0 0 .549 6.358c.3.473 1.022 1.514 1.987 1.116.851-.34.662-1.419.908-2.364.056-.229.019-.379.132-.53v.184s.483 1.061.723 1.6a10.8 10.8 0 0 0 2.4 2.59c.37.323.669.721.876 1.167V36h.427a1.05 1.05 0 0 0-.427-.788q-.525-.541-.959-1.16a25 25 0 0 1-2.064-3.519c-.3-.6-.553-1.258-.793-1.857-.11-.231-.11-.58-.295-.7a7.3 7.3 0 0 0-.884 1.313 11.4 11.4 0 0 0-.517 2.921c-.073.02-.037 0-.073.038-.589-.155-.792-.792-1.014-1.332a8.76 8.76 0 0 1-.166-5.164c.128-.405.683-1.681.461-2.068-.111-.369-.48-.58-.682-.871a8 8 0 0 1-.663-1.237c-.439-1.076-.661-2.276-1.139-3.36a10.4 10.4 0 0 0-.921-1.489 9.6 9.6 0 0 1-1.015-1.507c-.092-.213-.221-.561-.074-.793a.3.3 0 0 1 .259-.252c.238-.212.921.058 1.16.174a9.2 9.2 0 0 1 1.824.967c.258.194.866.685.866.685h.18c.612.133 1.3.037 1.876.21.97.323 1.895.767 2.755 1.32a17 17 0 0 1 5.969 6.545c.23.439.327.842.537 1.3.4.94.9 1.9 1.3 2.814.353.904.81 1.765 1.36 2.564.286.4 1.435.612 1.952.822q.674.233 1.32.535c.651.4 1.3.861 1.913 1.3.305.23 1.262.708 1.32 1.091" clip-rule="evenodd"/><path fill="#e5e5e5" d="M23.473 61a.27.27 0 0 1-.184-.072.25.25 0 0 1-.072-.184v-6.656a.25.25 0 0 1 .072-.184.27.27 0 0 1 .184-.072h1.106q.163 0 .245.092a.4.4 0 0 1 .113.133l1.802 3.236 1.803-3.236a1 1 0 0 1 .102-.133q.082-.092.256-.092h1.096a.25.25 0 0 1 .184.072.23.23 0 0 1 .082.184v6.656a.23.23 0 0 1-.082.184.25.25 0 0 1-.184.072h-1.219a.28.28 0 0 1-.194-.072.25.25 0 0 1-.072-.184v-3.84l-1.157 2.14a.5.5 0 0 1-.123.164.33.33 0 0 1-.225.072h-.533a.33.33 0 0 1-.225-.072.6.6 0 0 1-.133-.164l-1.157-2.14v3.84a.25.25 0 0 1-.072.184.25.25 0 0 1-.184.072h-1.23Zm9.094 1.946a.21.21 0 0 1-.215-.215v-.062a1 1 0 0 1 .031-.072l.799-1.925-1.966-4.649a.3.3 0 0 1-.031-.123.3.3 0 0 1 .082-.153.2.2 0 0 1 .154-.072h1.167q.134 0 .194.072.072.061.093.143l1.177 2.98 1.198-2.98a.6.6 0 0 1 .103-.143q.071-.072.204-.072h1.147q.093 0 .154.072.072.061.072.143 0 .052-.031.133l-2.898 6.708a.35.35 0 0 1-.102.143q-.072.072-.205.072zm7.902-1.844q-1.023 0-1.7-.286-.675-.297-1.023-.768a1.78 1.78 0 0 1-.369-1.004q0-.081.061-.143a.23.23 0 0 1 .164-.072h1.29a.37.37 0 0 1 .215.051.5.5 0 0 1 .144.133q.083.154.225.297.154.143.39.236.245.082.603.082.594 0 .891-.184.307-.184.307-.502a.47.47 0 0 0-.163-.369q-.165-.153-.533-.266a8 8 0 0 0-.962-.246 6.3 6.3 0 0 1-1.332-.42q-.542-.266-.829-.686-.287-.43-.287-1.065 0-.624.348-1.116.359-.492.994-.768t1.505-.276q.707 0 1.239.184.543.185.911.491.369.308.553.656.195.338.205.665 0 .082-.061.154a.2.2 0 0 1-.154.061H41.75a.4.4 0 0 1-.194-.04.4.4 0 0 1-.144-.134q-.06-.225-.327-.389-.255-.174-.676-.174-.45 0-.707.164-.245.154-.245.481a.53.53 0 0 0 .133.359q.143.152.46.266.329.113.892.235.93.174 1.505.44.573.257.84.677.266.409.266 1.034 0 .696-.4 1.208-.389.502-1.085.768-.696.267-1.598.266Zm8.675.564a.35.35 0 0 1-.256-.093 2 2 0 0 1-.133-.143l-.348-.46a2.9 2.9 0 0 1-.912.132q-.942 0-1.638-.307a2.47 2.47 0 0 1-1.086-.921q-.39-.626-.42-1.557a38 38 0 0 1 0-1.771q.031-.922.43-1.547a2.5 2.5 0 0 1 1.096-.952q.697-.318 1.618-.317.932 0 1.628.317.697.319 1.096.952.4.625.43 1.547a20 20 0 0 1 0 1.771q-.061 1.27-.737 1.966l.747 1.065a.2.2 0 0 1 .03.102.17.17 0 0 1-.05.144.2.2 0 0 1-.154.072zm-1.649-2.038q.544 0 .88-.328.35-.327.37-1.044a18 18 0 0 0 0-1.68q-.01-.48-.175-.778a1.04 1.04 0 0 0-.44-.45 1.36 1.36 0 0 0-.635-.144q-.348 0-.624.143a1.04 1.04 0 0 0-.44.451q-.165.297-.175.778a35 35 0 0 0 0 1.68q.02.716.359 1.044.348.328.88.328M52.123 61a.25.25 0 0 1-.184-.072.25.25 0 0 1-.072-.184v-6.656a.25.25 0 0 1 .072-.184.25.25 0 0 1 .184-.072h1.352q.102 0 .174.072a.23.23 0 0 1 .081.184v5.366h3.093q.112 0 .184.082a.23.23 0 0 1 .082.184v1.024a.23.23 0 0 1-.082.184.25.25 0 0 1-.184.072z"/></g><defs><filter id="a" width="80" height="80" x="0" y="0" color-interpolation-filters="sRGB" filterUnits="userSpaceOnUse"><feFlood flood-opacity="0" result="BackgroundImageFix"/><feColorMatrix in="SourceAlpha" result="hardAlpha" values="0 0 0 0 0 0 0 0 0 0 0 0 0 0 0 0 0 0 127 0"/><feOffset dy="2"/><feGaussianBlur stdDeviation="4"/><feColorMatrix values="0 0 0 0 0 0 0 0 0 0 0 0 0 0 0 0 0 0 0.75 0"/><feBlend in2="BackgroundImageFix" result="effect1_dropShadow_603_782"/><feBlend in="SourceGraphic" in2="effect1_dropShadow_603_782" result="shape"/></filter></defs></svg>