<svg xmlns="http://www.w3.org/2000/svg" width="80" height="80" fill="none"><g filter="url(#a)"><rect width="64" height="64" x="8" y="6" fill="#212529" rx="5"/><path fill="#76d04b" d="M39.336 40.822a1.32 1.32 0 0 0 1.325 0l10.976-6.333a1.33 1.33 0 0 0 .663-1.148V20.664a1.33 1.33 0 0 0-.662-1.148l-10.976-6.338a1.33 1.33 0 0 0-1.326 0l-10.973 6.338a1.33 1.33 0 0 0-.663 1.148v12.678a1.32 1.32 0 0 0 .663 1.147z"/><path fill="#4f4d3f" d="m47.106 23.978-.489-.282a6.5 6.5 0 0 0 .638-5.275s-1.27 3.56-3.823 3.442l-2.99-1.72a.8.8 0 0 0-.367-.107h-.069a.8.8 0 0 0-.368.107l-2.99 1.72c-2.553.118-3.823-3.442-3.823-3.442a6.5 6.5 0 0 0 .64 5.279l-.49.282a.81.81 0 0 0-.4.7L32.586 35a.4.4 0 0 0 .2.348.39.39 0 0 0 .4 0l3.96-2.268a.81.81 0 0 0 .4-.7v-4.818a.8.8 0 0 1 .4-.7l1.686-.971a.78.78 0 0 1 .8 0l1.686.97a.8.8 0 0 1 .4.7v4.825a.81.81 0 0 0 .4.7l3.96 2.268a.39.39 0 0 0 .4 0A.4.4 0 0 0 47.5 35l.013-10.326a.8.8 0 0 0-.4-.7z"/><path fill="#e5e5e5" d="M16.473 61a.25.25 0 0 1-.184-.072.25.25 0 0 1-.072-.184v-6.656a.25.25 0 0 1 .072-.184.25.25 0 0 1 .184-.072h1.085q.174 0 .246.082a.5.5 0 0 1 .102.113l2.499 3.942v-3.881a.25.25 0 0 1 .072-.184.25.25 0 0 1 .184-.072h1.229a.25.25 0 0 1 .184.072.25.25 0 0 1 .072.184v6.656a.27.27 0 0 1-.072.184.25.25 0 0 1-.184.072h-1.096q-.164 0-.246-.082a1 1 0 0 1-.092-.113l-2.498-3.788v3.727a.25.25 0 0 1-.072.184.25.25 0 0 1-.184.072h-1.23Zm9.51.102q-.86 0-1.454-.276a2.1 2.1 0 0 1-.901-.789q-.307-.521-.348-1.239a9 9 0 0 1 0-.921q.04-.727.368-1.24.329-.51.912-.788.594-.276 1.423-.276.84 0 1.424.276.593.277.921.789t.369 1.239a9 9 0 0 1 0 .922q-.04.716-.359 1.238a2 2 0 0 1-.9.789q-.584.276-1.455.276m0-1.249q.461 0 .666-.276.215-.277.246-.83.01-.153.01-.41 0-.256-.01-.409-.03-.543-.246-.82-.205-.286-.666-.286-.45 0-.665.287-.216.276-.236.819-.01.153-.01.41 0 .255.01.41.02.552.236.829.215.276.665.276m5.718 1.25q-.492 0-.891-.154a1.95 1.95 0 0 1-.676-.471 2.3 2.3 0 0 1-.43-.758 3.6 3.6 0 0 1-.174-1.024 7 7 0 0 1 0-.717q.021-.553.174-.993.154-.44.43-.758a1.8 1.8 0 0 1 .676-.481q.4-.174.89-.174a2.05 2.05 0 0 1 1.506.604v-2.191a.25.25 0 0 1 .072-.185.25.25 0 0 1 .184-.071h1.25q.102 0 .173.071.082.072.082.185v6.758a.23.23 0 0 1-.082.184.24.24 0 0 1-.174.072h-1.157a.25.25 0 0 1-.184-.072.25.25 0 0 1-.072-.184v-.328a1.9 1.9 0 0 1-.635.492q-.39.195-.962.194Zm.553-1.373q.348 0 .542-.143a.9.9 0 0 0 .297-.39q.103-.235.113-.511a8 8 0 0 0 0-.768 1.2 1.2 0 0 0-.113-.471.83.83 0 0 0-.307-.359q-.205-.143-.532-.143-.338 0-.543.143a.77.77 0 0 0-.276.39 2.2 2.2 0 0 0-.103.542q-.03.318 0 .635.021.297.102.543a.77.77 0 0 0 .277.389q.205.143.543.143m6.378 1.372q-1.209 0-1.925-.655-.717-.655-.748-1.946v-.358q.03-.81.358-1.382.339-.584.922-.881.594-.307 1.383-.307.9 0 1.484.358.594.359.891.973t.297 1.403v.246a.23.23 0 0 1-.082.184.24.24 0 0 1-.174.072h-3.277v.071q.01.298.103.543a.77.77 0 0 0 .758.532.8.8 0 0 0 .337-.06q.143-.073.236-.155a2 2 0 0 0 .143-.153.5.5 0 0 1 .144-.123q.06-.03.184-.03h1.27q.102 0 .164.06.071.052.061.154-.01.174-.174.42a2.2 2.2 0 0 1-.481.492 2.6 2.6 0 0 1-.779.389 3.6 3.6 0 0 1-1.095.153m-.87-3.307h1.73v-.02q0-.329-.102-.574a.75.75 0 0 0-.297-.379.8.8 0 0 0-.472-.133.8.8 0 0 0-.47.133.86.86 0 0 0-.287.379 1.5 1.5 0 0 0-.103.573v.02ZM42.51 61a.25.25 0 0 1-.184-.072.25.25 0 0 1-.072-.184v-4.813a.25.25 0 0 1 .072-.184.25.25 0 0 1 .184-.072h1.116a.25.25 0 0 1 .185.072.25.25 0 0 1 .071.184v.348q.205-.276.574-.48a1.8 1.8 0 0 1 .87-.226q1.178-.02 1.618.89.235-.388.676-.634.44-.256.963-.256.532 0 .952.246.43.235.686.737.255.491.256 1.28v2.908a.23.23 0 0 1-.082.184.24.24 0 0 1-.174.072h-1.188a.28.28 0 0 1-.194-.072.25.25 0 0 1-.072-.184v-2.837q0-.357-.103-.563a.65.65 0 0 0-.276-.307.84.84 0 0 0-.768 0 .7.7 0 0 0-.287.307q-.102.206-.102.563v2.837a.25.25 0 0 1-.072.184.25.25 0 0 1-.184.072h-1.188a.25.25 0 0 1-.184-.072.25.25 0 0 1-.072-.184v-2.837q0-.357-.113-.563a.7.7 0 0 0-.286-.307.82.82 0 0 0-.758 0 .7.7 0 0 0-.287.307q-.102.205-.102.553v2.847a.23.23 0 0 1-.082.184.25.25 0 0 1-.184.072zm11.633.102q-.86 0-1.454-.276a2.1 2.1 0 0 1-.901-.789q-.307-.521-.348-1.239a9 9 0 0 1 0-.921q.04-.727.369-1.24.328-.51.91-.788.595-.276 1.424-.276.84 0 1.424.276.593.277.921.789t.369 1.239a9 9 0 0 1 0 .922q-.04.716-.359 1.238a2 2 0 0 1-.9.789q-.584.276-1.455.276m0-1.249q.461 0 .666-.276.215-.277.246-.83.01-.153.01-.41 0-.256-.01-.409-.03-.543-.246-.82-.206-.286-.666-.286-.45 0-.665.287-.215.276-.236.819-.01.153-.01.41 0 .255.01.41.02.552.236.829.215.276.665.276M58.13 61a.25.25 0 0 1-.184-.072.25.25 0 0 1-.072-.184v-4.813a.25.25 0 0 1 .072-.184.25.25 0 0 1 .184-.072h1.178a.25.25 0 0 1 .184.072.25.25 0 0 1 .072.184v.39q.266-.318.696-.533a2.24 2.24 0 0 1 1.014-.215q.594 0 1.044.266.462.266.717.788.267.513.266 1.26v2.857a.23.23 0 0 1-.082.184.24.24 0 0 1-.174.072h-1.29a.27.27 0 0 1-.184-.072.25.25 0 0 1-.072-.184v-2.795q0-.481-.235-.738-.225-.266-.676-.266-.42 0-.676.266-.246.256-.246.738v2.795a.23.23 0 0 1-.082.184.24.24 0 0 1-.174.072z"/></g><defs><filter id="a" width="80" height="80" x="0" y="0" color-interpolation-filters="sRGB" filterUnits="userSpaceOnUse"><feFlood flood-opacity="0" result="BackgroundImageFix"/><feColorMatrix in="SourceAlpha" result="hardAlpha" values="0 0 0 0 0 0 0 0 0 0 0 0 0 0 0 0 0 0 127 0"/><feOffset dy="2"/><feGaussianBlur stdDeviation="4"/><feColorMatrix values="0 0 0 0 0 0 0 0 0 0 0 0 0 0 0 0 0 0 0.75 0"/><feBlend in2="BackgroundImageFix" result="effect1_dropShadow_602_1610"/><feBlend in="SourceGraphic" in2="effect1_dropShadow_602_1610" result="shape"/></filter></defs></svg>