<svg xmlns="http://www.w3.org/2000/svg" width="80" height="80" fill="none"><g filter="url(#a)"><rect width="64" height="64" x="8" y="6" fill="#212529" rx="5"/><g clip-path="url(#b)"><path fill="#e3695f" d="m40 11 16 16-16 16-16-16z"/><path fill="#fff" d="M35.237 19.481v6.752l-7.176.94 9.411 1.232v-2.552l7.292 8.665v-6.752l7.176-.939-9.411-1.232v2.551z"/></g><path fill="#e5e5e5" d="M19.778 60a.2.2 0 0 1-.147-.057.2.2 0 0 1-.058-.148v-5.323a.2.2 0 0 1 .058-.148.2.2 0 0 1 .147-.057h.868q.14 0 .197.066a.4.4 0 0 1 .082.09l1.998 3.153v-3.104a.2.2 0 0 1 .057-.148.2.2 0 0 1 .148-.057h.983a.2.2 0 0 1 .147.057.2.2 0 0 1 .057.148v5.323a.22.22 0 0 1-.057.148.2.2 0 0 1-.147.057h-.877q-.131 0-.196-.066a1 1 0 0 1-.074-.09l-1.998-3.03v2.981a.2.2 0 0 1-.058.148.2.2 0 0 1-.147.057zm7.607.082q-.69 0-1.164-.221a1.66 1.66 0 0 1-.72-.63 2.2 2.2 0 0 1-.279-.992 7 7 0 0 1 0-.737q.033-.582.295-.99.262-.41.73-.632.474-.22 1.137-.22.672 0 1.139.22.475.222.737.631t.295.991a7 7 0 0 1 0 .737 2.1 2.1 0 0 1-.287.991 1.6 1.6 0 0 1-.72.63q-.468.222-1.163.222m0-1q.368 0 .532-.22.171-.222.196-.664.009-.122.009-.327c0-.205-.003-.246-.009-.328q-.024-.435-.196-.655-.165-.23-.533-.23-.36 0-.532.23-.171.221-.188.655a5 5 0 0 0-.008.328q0 .204.008.327.015.442.188.664.172.22.532.22Zm3.188.918a.2.2 0 0 1-.147-.057.2.2 0 0 1-.057-.148v-3.85a.2.2 0 0 1 .057-.138.19.19 0 0 1 .147-.066h.942q.09 0 .148.066a.2.2 0 0 1 .057.139v.328q.22-.254.524-.394.312-.139.696-.139h.36a.2.2 0 0 1 .14.057.19.19 0 0 1 .065.148v.843a.2.2 0 0 1-.065.148.2.2 0 0 1-.14.057h-.794q-.335 0-.524.189-.18.18-.18.516v2.096q0 .09-.066.148a.2.2 0 0 1-.147.057zm3.72 0a.2.2 0 0 1-.148-.057.2.2 0 0 1-.057-.148v-3.85a.2.2 0 0 1 .057-.147.2.2 0 0 1 .147-.057h.893a.2.2 0 0 1 .148.057.2.2 0 0 1 .057.148v.278a1.4 1.4 0 0 1 .459-.384q.294-.172.696-.18.941-.017 1.294.712.188-.312.54-.508.353-.205.77-.205.426 0 .762.197.344.188.548.59.205.393.205 1.023v2.326a.2.2 0 0 1-.065.148.2.2 0 0 1-.14.057h-.95a.23.23 0 0 1-.155-.057.2.2 0 0 1-.057-.148v-2.268q0-.287-.082-.45a.5.5 0 0 0-.222-.246.67.67 0 0 0-.614 0 .56.56 0 0 0-.23.245q-.081.165-.081.45v2.27a.2.2 0 0 1-.057.147.2.2 0 0 1-.148.057h-.95a.2.2 0 0 1-.147-.057.2.2 0 0 1-.058-.148v-2.268a.94.94 0 0 0-.09-.45.56.56 0 0 0-.229-.246.65.65 0 0 0-.606 0 .56.56 0 0 0-.23.245 1 1 0 0 0-.081.442v2.277q0 .09-.066.148a.2.2 0 0 1-.147.057h-.967Zm8.566.082q-.442 0-.794-.164a1.46 1.46 0 0 1-.549-.459 1.1 1.1 0 0 1-.204-.647q0-.58.475-.917.475-.344 1.26-.467l1.025-.155v-.115q0-.295-.123-.45t-.45-.156a.7.7 0 0 0-.378.09.64.64 0 0 0-.22.246.24.24 0 0 1-.205.106h-.918q-.09 0-.139-.049a.17.17 0 0 1-.04-.13.7.7 0 0 1 .106-.337 1.5 1.5 0 0 1 .344-.385q.23-.188.59-.31.36-.124.867-.124.532 0 .91.123.376.123.606.344.237.222.352.524.114.295.114.656v2.49q0 .09-.065.147a.2.2 0 0 1-.14.057h-.95a.2.2 0 0 1-.147-.057.2.2 0 0 1-.057-.148v-.286a1.2 1.2 0 0 1-.287.286q-.18.132-.426.205a1.7 1.7 0 0 1-.556.082Zm.385-.934q.238 0 .426-.098a.7.7 0 0 0 .303-.32q.115-.22.115-.548v-.115l-.696.123q-.385.066-.565.205-.172.13-.172.311 0 .14.082.237a.6.6 0 0 0 .212.156q.132.05.295.05Zm3.373.852a.2.2 0 0 1-.147-.057.2.2 0 0 1-.057-.148V54.39a.2.2 0 0 1 .057-.148.2.2 0 0 1 .147-.057h.967a.2.2 0 0 1 .147.057.2.2 0 0 1 .058.148v5.405a.2.2 0 0 1-.058.148.2.2 0 0 1-.147.057zm2.624 0a.2.2 0 0 1-.148-.057.2.2 0 0 1-.057-.148v-3.85a.2.2 0 0 1 .057-.147.2.2 0 0 1 .148-.057h.966a.2.2 0 0 1 .14.057.19.19 0 0 1 .065.148v3.85q0 .09-.066.147a.2.2 0 0 1-.139.057zm-.008-4.873a.2.2 0 0 1-.148-.057.2.2 0 0 1-.057-.148v-.729a.2.2 0 0 1 .057-.147.19.19 0 0 1 .148-.066h.974q.09 0 .148.066a.19.19 0 0 1 .065.147v.73q0 .09-.065.147a.2.2 0 0 1-.148.057zM51.54 60a.22.22 0 0 1-.147-.057.2.2 0 0 1-.058-.148v-.639a.34.34 0 0 1 .033-.155.7.7 0 0 1 .098-.123l1.917-2.08h-1.77a.23.23 0 0 1-.155-.058.2.2 0 0 1-.057-.147v-.647a.2.2 0 0 1 .057-.148.23.23 0 0 1 .156-.057h3.292a.2.2 0 0 1 .14.057.19.19 0 0 1 .065.148v.696q0 .074-.033.131a1 1 0 0 1-.082.115l-1.867 2.056h1.941a.2.2 0 0 1 .148.057.2.2 0 0 1 .057.147v.647a.2.2 0 0 1-.057.148.2.2 0 0 1-.148.057zm6.412.082q-.966 0-1.54-.524-.573-.525-.598-1.556v-.287q.025-.647.287-1.106a1.76 1.76 0 0 1 .737-.704 2.4 2.4 0 0 1 1.106-.246q.72 0 1.187.287.475.286.713.778.237.492.237 1.122v.197q0 .09-.065.147a.2.2 0 0 1-.14.057h-2.62v.058q.007.237.082.434a.62.62 0 0 0 .606.426.64.64 0 0 0 .27-.05.9.9 0 0 0 .188-.122q.075-.074.115-.123a.4.4 0 0 1 .115-.098.34.34 0 0 1 .147-.025h1.016a.17.17 0 0 1 .13.05q.058.04.05.122a.7.7 0 0 1-.14.336 1.7 1.7 0 0 1-.384.393q-.246.189-.623.311a2.8 2.8 0 0 1-.876.123m-.696-2.645h1.384v-.017q0-.262-.082-.459a.6.6 0 0 0-.238-.303.65.65 0 0 0-.376-.106.65.65 0 0 0-.377.106.7.7 0 0 0-.23.303 1.2 1.2 0 0 0-.081.46z"/></g><defs><clipPath id="b"><path fill="#fff" d="M24 11h32v32H24z"/></clipPath><filter id="a" width="80" height="80" x="0" y="0" color-interpolation-filters="sRGB" filterUnits="userSpaceOnUse"><feFlood flood-opacity="0" result="BackgroundImageFix"/><feColorMatrix in="SourceAlpha" result="hardAlpha" values="0 0 0 0 0 0 0 0 0 0 0 0 0 0 0 0 0 0 127 0"/><feOffset dy="2"/><feGaussianBlur stdDeviation="4"/><feColorMatrix values="0 0 0 0 0 0 0 0 0 0 0 0 0 0 0 0 0 0 0.75 0"/><feBlend in2="BackgroundImageFix" result="effect1_dropShadow_602_270"/><feBlend in="SourceGraphic" in2="effect1_dropShadow_602_270" result="shape"/></filter></defs></svg>