<svg xmlns="http://www.w3.org/2000/svg" width="80" height="80" fill="none"><g filter="url(#a)"><rect width="64" height="64" x="8" y="6" fill="#212529" rx="5"/><path fill="#f9ad00" d="M54 21.75h-8.749V13H54zm-9.626 0h-8.75V13h8.75zm-9.625 0H26V13h8.749zM54 31.375h-8.749v-8.75H54z"/><path fill="#4e4e4e" d="M44.374 31.375h-8.75v-8.75h8.75zm0 9.625h-8.75v-8.75h8.75zM54 41h-8.749v-8.75H54zm-19.251 0H26v-8.75h8.749z"/><path fill="#e5e5e5" d="M25.973 61a.25.25 0 0 1-.184-.072.25.25 0 0 1-.072-.184v-6.656a.25.25 0 0 1 .072-.184.25.25 0 0 1 .184-.072h2.867q.85 0 1.475.266.634.255.983.779.358.522.358 1.32 0 .79-.358 1.3-.348.513-.983.759-.625.245-1.475.245h-1.219v2.243a.23.23 0 0 1-.081.184.25.25 0 0 1-.185.072zm1.618-3.912h1.198q.44 0 .696-.225.267-.225.266-.686a.98.98 0 0 0-.225-.655q-.225-.267-.737-.267H27.59v1.833ZM32.78 61a.25.25 0 0 1-.185-.072.25.25 0 0 1-.072-.184v-4.813a.25.25 0 0 1 .072-.184.25.25 0 0 1 .184-.072h1.178a.25.25 0 0 1 .184.072.25.25 0 0 1 .072.184v.39q.266-.318.696-.533a2.24 2.24 0 0 1 1.014-.215q.594 0 1.044.266a1.8 1.8 0 0 1 .717.788q.266.513.266 1.26v2.857a.23.23 0 0 1-.082.184.24.24 0 0 1-.174.072h-1.29a.27.27 0 0 1-.184-.072.25.25 0 0 1-.072-.184v-2.795q0-.481-.235-.738-.225-.266-.676-.266-.42 0-.676.266-.246.256-.246.738v2.795a.23.23 0 0 1-.082.184.24.24 0 0 1-.174.072h-1.28Zm6.57 1.946a.25.25 0 0 1-.185-.072.25.25 0 0 1-.072-.184v-6.76a.25.25 0 0 1 .072-.184.25.25 0 0 1 .184-.072h1.157q.103 0 .174.072.082.072.082.184v.38q.236-.319.625-.523.39-.215.962-.215.513 0 .902.164.388.154.665.46t.43.748q.164.44.185 1.014a8 8 0 0 1 0 .758q-.021.553-.174.993a2.2 2.2 0 0 1-.43.747q-.277.307-.676.482-.39.163-.902.163a2.1 2.1 0 0 1-.88-.174 1.7 1.7 0 0 1-.615-.512v2.274a.25.25 0 0 1-.071.184.25.25 0 0 1-.185.072zm2.447-3.216q.348 0 .542-.143a.77.77 0 0 0 .277-.39q.092-.245.112-.542a5 5 0 0 0 0-.635 2 2 0 0 0-.112-.543.77.77 0 0 0-.277-.389q-.194-.143-.543-.143-.338 0-.542.154a.8.8 0 0 0-.297.378 1.6 1.6 0 0 0-.103.512 7 7 0 0 0 0 .768q.01.257.113.482a.9.9 0 0 0 .307.358.94.94 0 0 0 .523.133M45.81 61a.25.25 0 0 1-.184-.072.25.25 0 0 1-.072-.184v-4.813a.25.25 0 0 1 .072-.184.25.25 0 0 1 .184-.072h1.116a.25.25 0 0 1 .185.072.25.25 0 0 1 .071.184v.348q.205-.276.574-.48a1.8 1.8 0 0 1 .87-.226q1.178-.02 1.618.89.235-.388.676-.634.44-.256.962-.256.533 0 .953.246.43.235.686.737.255.491.256 1.28v2.908a.23.23 0 0 1-.082.184.24.24 0 0 1-.174.072h-1.188a.28.28 0 0 1-.194-.072.25.25 0 0 1-.072-.184v-2.837q0-.357-.103-.563a.65.65 0 0 0-.276-.307.84.84 0 0 0-.768 0 .7.7 0 0 0-.287.307q-.102.206-.102.563v2.837a.25.25 0 0 1-.072.184.25.25 0 0 1-.184.072h-1.188a.25.25 0 0 1-.184-.072.25.25 0 0 1-.072-.184v-2.837q0-.357-.113-.563a.7.7 0 0 0-.286-.307.82.82 0 0 0-.758 0 .7.7 0 0 0-.287.307q-.102.205-.102.553v2.847a.23.23 0 0 1-.082.184.25.25 0 0 1-.184.072z"/></g><defs><filter id="a" width="80" height="80" x="0" y="0" color-interpolation-filters="sRGB" filterUnits="userSpaceOnUse"><feFlood flood-opacity="0" result="BackgroundImageFix"/><feColorMatrix in="SourceAlpha" result="hardAlpha" values="0 0 0 0 0 0 0 0 0 0 0 0 0 0 0 0 0 0 127 0"/><feOffset dy="2"/><feGaussianBlur stdDeviation="4"/><feColorMatrix values="0 0 0 0 0 0 0 0 0 0 0 0 0 0 0 0 0 0 0.75 0"/><feBlend in2="BackgroundImageFix" result="effect1_dropShadow_602_353"/><feBlend in="SourceGraphic" in2="effect1_dropShadow_602_353" result="shape"/></filter></defs></svg>