<svg xmlns="http://www.w3.org/2000/svg" width="80" height="80" fill="none"><g filter="url(#a)"><rect width="64" height="64" x="8" y="6" fill="#212529" rx="5"/><g clip-path="url(#b)"><path fill="#ff6c37" d="M55.87 29.032c1.119-8.767-5.072-16.781-13.822-17.901s-16.797 5.07-17.917 13.821 5.07 16.781 13.821 17.917c8.767 1.12 16.781-5.07 17.917-13.837Z"/><path fill="#fff" d="m45.775 21.273-6.75 6.75-1.904-1.903c6.638-6.639 7.294-6.063 8.654-4.847"/><path fill="#ff6c37" d="M39.024 28.184a.14.14 0 0 1-.112-.048l-1.92-1.904a.155.155 0 0 1 0-.224c6.751-6.75 7.455-6.11 8.879-4.83a.14.14 0 0 1 .048.111c0 .048-.016.08-.048.112l-6.75 6.735c-.017.032-.065.048-.097.048m-1.68-2.064 1.68 1.68 6.511-6.51c-1.184-1.057-1.984-1.377-8.19 4.83Z"/><path fill="#fff" d="m40.96 29.96-1.84-1.84 6.75-6.75c1.809 1.823-.895 4.782-4.91 8.59"/><path fill="#ff6c37" d="M40.96 30.12a.14.14 0 0 1-.112-.049l-1.84-1.84c-.032-.031-.032-.063-.032-.111s.016-.08.048-.112l6.751-6.751a.155.155 0 0 1 .224 0c.416.384.64.928.624 1.488-.032 1.775-2.048 4.031-5.535 7.326a.26.26 0 0 1-.128.048Zm-1.616-2c1.024 1.04 1.456 1.456 1.616 1.615 2.688-2.56 5.295-5.183 5.311-6.99a1.7 1.7 0 0 0-.416-1.152l-6.51 6.527Z"/><path fill="#fff" d="m37.153 26.168 1.36 1.36q.047.048 0 .096c-.017.016-.017.016-.033.016l-2.815.608a.28.28 0 0 1-.304-.224.24.24 0 0 1 .064-.208l1.632-1.632c.032-.032.08-.048.096-.016"/><path fill="#ff6c37" d="M35.617 28.408a.417.417 0 0 1-.416-.432c0-.112.048-.224.128-.304l1.632-1.632a.243.243 0 0 1 .32 0l1.36 1.36c.095.08.095.224 0 .32a.26.26 0 0 1-.113.064l-2.815.608c-.032 0-.064.016-.096.016m1.488-2.064-1.568 1.568c-.032.032-.048.08-.016.128.016.048.064.064.112.048l2.64-.576z"/><path fill="#fff" d="M49.342 17.53a2.584 2.584 0 0 0-3.663.08 2.583 2.583 0 0 0 .08 3.663c.848.816 2.128.96 3.135.352l-1.823-1.824z"/><path fill="#ff6c37" d="M47.55 22.153a2.751 2.751 0 1 1 1.904-4.735.14.14 0 0 1 .048.112c0 .048-.016.08-.048.112l-2.16 2.16 1.696 1.695a.155.155 0 0 1 0 .224l-.032.032a2.7 2.7 0 0 1-1.407.4Zm0-5.167a2.407 2.407 0 0 0-2.415 2.431 2.407 2.407 0 0 0 2.432 2.416 2.3 2.3 0 0 0 1.071-.256l-1.68-1.664a.14.14 0 0 1-.047-.112c0-.048.016-.08.048-.112l2.143-2.143a2.37 2.37 0 0 0-1.551-.56Z"/><path fill="#fff" d="m49.39 17.578-.032-.032-2.287 2.255 1.808 1.808c.175-.112.351-.24.495-.384a2.564 2.564 0 0 0 .016-3.647"/><path fill="#ff6c37" d="M48.895 21.785a.14.14 0 0 1-.112-.048l-1.824-1.824a.14.14 0 0 1-.048-.112c0-.048.016-.08.048-.111l2.271-2.272a.155.155 0 0 1 .224 0l.048.032a2.766 2.766 0 0 1 .016 3.887 2.6 2.6 0 0 1-.528.416c-.047.016-.08.032-.096.032Zm-1.6-1.984 1.615 1.616c.129-.08.257-.192.353-.288.911-.912.96-2.4.08-3.36z"/><path fill="#fff" d="M46.047 21.56a.985.985 0 0 0-1.392 0l-6.03 6.032 1.007 1.008 6.383-5.6c.416-.351.448-.975.096-1.391-.032-.016-.048-.032-.064-.048Z"/><path fill="#ff6c37" d="M39.616 28.76a.14.14 0 0 1-.112-.048l-1.008-1.008a.155.155 0 0 1 0-.224l6.031-6.031a1.14 1.14 0 0 1 1.616 0 1.14 1.14 0 0 1 0 1.616l-.048.048-6.383 5.599q-.024.048-.096.048m-.768-1.168.784.784 6.27-5.503c.353-.288.385-.816.097-1.168s-.816-.384-1.168-.096a.2.2 0 0 1-.064.048z"/><path fill="#fff" d="M34.001 34.455c-.064.032-.096.096-.08.16l.272 1.151a.306.306 0 0 1-.208.4.32.32 0 0 1-.352-.096l-1.76-1.743 5.744-5.743 1.983.032 1.344 1.343c-.32.272-2.256 2.144-6.943 4.496"/><path fill="#ff6c37" d="M33.873 36.326a.44.44 0 0 1-.336-.144l-1.743-1.743a.14.14 0 0 1-.048-.112c0-.048.016-.08.048-.112l5.743-5.743a.17.17 0 0 1 .111-.048l1.984.032c.048 0 .08.016.112.048l1.344 1.344c.032.032.048.08.048.128 0 .047-.016.08-.064.111l-.112.096c-1.696 1.488-4 2.976-6.863 4.4l.272 1.136a.505.505 0 0 1-.24.543.55.55 0 0 1-.256.064m-1.76-2 1.648 1.633c.048.08.144.111.224.063.08-.047.112-.143.064-.224l-.272-1.151a.29.29 0 0 1 .16-.336c2.832-1.424 5.12-2.896 6.799-4.351l-1.184-1.184-1.84-.032-5.599 5.583Z"/><path fill="#fff" d="m30.514 35.702 1.376-1.375 2.047 2.047-3.263-.224a.255.255 0 0 1-.224-.288c0-.064.016-.128.064-.16"/><path fill="#ff6c37" d="m33.937 36.518-3.28-.224c-.24-.016-.4-.224-.383-.464.016-.096.048-.192.128-.256l1.375-1.375a.155.155 0 0 1 .224 0l2.048 2.047c.048.048.064.112.032.176q-.048.096-.144.096m-2.047-1.967-1.264 1.263c-.048.032-.048.112 0 .144.016.016.032.032.064.032l2.831.192zm5.167-5.231a.16.16 0 0 1-.16-.16c0-.048.016-.08.048-.112l1.551-1.552a.155.155 0 0 1 .224 0l1.008 1.008c.048.048.064.096.048.16a.18.18 0 0 1-.128.112l-2.56.544zm1.551-1.488-1.055 1.056 1.727-.368z"/><path fill="#fff" d="M39.6 28.616 37.84 29a.238.238 0 0 1-.224-.4l.976-.976z"/><path fill="#ff6c37" d="M37.808 29.16a.396.396 0 0 1-.4-.4.46.46 0 0 1 .112-.288l.976-.976a.155.155 0 0 1 .224 0l1.008 1.008c.048.048.064.096.048.16a.18.18 0 0 1-.128.112l-1.76.384zm.8-1.328-.864.864c-.032.032-.032.064-.016.096s.048.048.096.048l1.472-.32zm10.798-8.718c-.032-.096-.144-.144-.24-.112s-.144.143-.112.24c0 .015.016.031.016.047a.6.6 0 0 1-.064.608.194.194 0 0 0 .016.256.18.18 0 0 0 .256-.032c.24-.304.288-.688.128-1.007"/></g><path fill="#e5e5e5" d="M17.973 61a.25.25 0 0 1-.184-.072.25.25 0 0 1-.072-.184v-6.656a.25.25 0 0 1 .072-.184.25.25 0 0 1 .184-.072h2.867q.85 0 1.475.266.634.255.983.779.358.522.358 1.32 0 .79-.358 1.3-.348.513-.983.759-.625.245-1.475.245h-1.219v2.243a.23.23 0 0 1-.081.184.25.25 0 0 1-.185.072zm1.618-3.912h1.198q.44 0 .696-.225.267-.225.266-.686a.98.98 0 0 0-.225-.655q-.225-.267-.737-.267H19.59v1.833Zm7.392 4.014q-.86 0-1.454-.276a2.1 2.1 0 0 1-.901-.789q-.307-.521-.348-1.239a9 9 0 0 1 0-.921q.04-.727.368-1.24.329-.51.912-.788.594-.276 1.423-.276.84 0 1.424.276.593.277.921.789.328.511.369 1.239a9 9 0 0 1 0 .922q-.04.716-.359 1.238a2 2 0 0 1-.9.789q-.584.276-1.455.276m0-1.249q.461 0 .666-.276.215-.277.246-.83.01-.153.01-.41 0-.255-.01-.409-.03-.543-.246-.82-.205-.285-.666-.286-.45 0-.665.287-.216.276-.236.819-.01.153-.01.41 0 .255.01.41.02.552.236.829.215.276.665.276m5.923 1.25q-.666 0-1.137-.144a2.8 2.8 0 0 1-.758-.369 1.7 1.7 0 0 1-.43-.44q-.144-.235-.154-.4a.21.21 0 0 1 .072-.184.25.25 0 0 1 .174-.082h1.168a.1.1 0 0 1 .05.01l.062.042q.134.071.266.184.135.102.308.184a1 1 0 0 0 .42.082.95.95 0 0 0 .48-.112.37.37 0 0 0 .195-.338q0-.164-.092-.267-.092-.112-.379-.215a5.4 5.4 0 0 0-.84-.204 4.4 4.4 0 0 1-.931-.318 1.6 1.6 0 0 1-.615-.522 1.4 1.4 0 0 1-.215-.789q0-.409.267-.788.265-.379.778-.614.512-.246 1.26-.246.593 0 1.023.143.441.133.738.348.306.216.46.44.154.225.164.41a.24.24 0 0 1-.061.185.23.23 0 0 1-.164.071H33.95a.3.3 0 0 1-.082-.01l-.072-.041a1.3 1.3 0 0 1-.245-.164 1.5 1.5 0 0 0-.287-.184.9.9 0 0 0-.41-.082q-.276 0-.43.123a.41.41 0 0 0-.072.563q.093.112.359.205.276.092.85.205.705.113 1.126.368.42.246.594.584.174.327.174.696 0 .492-.297.87-.285.38-.86.595-.573.204-1.392.204ZM39.068 61q-.656 0-1.137-.205a1.58 1.58 0 0 1-.727-.655q-.256-.45-.256-1.157v-1.966h-.798a.3.3 0 0 1-.195-.072.25.25 0 0 1-.072-.184v-.83a.25.25 0 0 1 .072-.184.3.3 0 0 1 .195-.072h.798v-1.69a.25.25 0 0 1 .072-.184.27.27 0 0 1 .184-.071h1.188a.25.25 0 0 1 .184.071.25.25 0 0 1 .072.185v1.69h1.28a.25.25 0 0 1 .184.07.25.25 0 0 1 .072.185v.83a.25.25 0 0 1-.072.184.25.25 0 0 1-.184.072h-1.28v1.822q0 .35.133.553.134.205.45.205h.79a.25.25 0 0 1 .184.072.25.25 0 0 1 .071.184v.891a.25.25 0 0 1-.071.184.25.25 0 0 1-.185.072zm2.312 0a.25.25 0 0 1-.184-.072.25.25 0 0 1-.072-.184v-4.813a.25.25 0 0 1 .072-.184.25.25 0 0 1 .184-.072h1.116a.25.25 0 0 1 .185.072.25.25 0 0 1 .071.184v.348q.205-.276.574-.48a1.8 1.8 0 0 1 .87-.226q1.178-.02 1.618.89.235-.388.676-.634.44-.256.962-.256.533 0 .953.246.43.235.686.737.255.491.256 1.28v2.908a.23.23 0 0 1-.082.184.24.24 0 0 1-.174.072h-1.188a.28.28 0 0 1-.194-.072.25.25 0 0 1-.072-.184v-2.837q0-.357-.103-.563a.65.65 0 0 0-.276-.307.84.84 0 0 0-.768 0 .7.7 0 0 0-.287.307q-.102.206-.102.563v2.837a.25.25 0 0 1-.072.184.25.25 0 0 1-.184.072h-1.188a.25.25 0 0 1-.184-.072.25.25 0 0 1-.072-.184v-2.837q0-.357-.113-.563a.7.7 0 0 0-.286-.307.82.82 0 0 0-.758 0 .7.7 0 0 0-.287.307q-.102.205-.102.553v2.847a.23.23 0 0 1-.082.184.25.25 0 0 1-.184.072zm10.712.102q-.553 0-.994-.204a1.8 1.8 0 0 1-.686-.574 1.36 1.36 0 0 1-.256-.809q0-.727.594-1.147.594-.43 1.577-.583l1.28-.195v-.143q0-.369-.154-.564-.153-.194-.563-.194a.9.9 0 0 0-.47.113.8.8 0 0 0-.277.307.3.3 0 0 1-.256.133H50.74a.24.24 0 0 1-.174-.061.2.2 0 0 1-.051-.164q0-.184.133-.42.143-.246.43-.482.287-.235.737-.389.45-.153 1.086-.153.665 0 1.136.153.471.154.758.43.297.277.44.656.144.369.144.819v3.113a.23.23 0 0 1-.082.184.24.24 0 0 1-.174.072h-1.188a.25.25 0 0 1-.184-.072.25.25 0 0 1-.072-.184v-.358a1.5 1.5 0 0 1-.359.358 1.7 1.7 0 0 1-.532.256q-.297.102-.696.102m.48-1.167q.298 0 .533-.123a.9.9 0 0 0 .38-.4 1.5 1.5 0 0 0 .143-.685v-.144l-.87.154q-.483.082-.707.256-.216.164-.215.39a.45.45 0 0 0 .102.296.7.7 0 0 0 .266.195q.164.06.369.061ZM56.79 61a.25.25 0 0 1-.184-.072.25.25 0 0 1-.072-.184v-4.813a.25.25 0 0 1 .072-.184.25.25 0 0 1 .184-.072h1.178a.25.25 0 0 1 .184.072.25.25 0 0 1 .072.184v.39q.266-.318.696-.533a2.24 2.24 0 0 1 1.014-.215q.594 0 1.044.266.461.266.717.788.267.513.266 1.26v2.857a.23.23 0 0 1-.082.184.24.24 0 0 1-.174.072h-1.29a.27.27 0 0 1-.184-.072.25.25 0 0 1-.072-.184v-2.795q0-.481-.235-.738-.225-.266-.676-.266-.42 0-.676.266-.246.256-.246.738v2.795a.23.23 0 0 1-.082.184.24.24 0 0 1-.174.072z"/></g><defs><clipPath id="b"><path fill="#fff" d="M24 11h32v32H24z"/></clipPath><filter id="a" width="80" height="80" x="0" y="0" color-interpolation-filters="sRGB" filterUnits="userSpaceOnUse"><feFlood flood-opacity="0" result="BackgroundImageFix"/><feColorMatrix in="SourceAlpha" result="hardAlpha" values="0 0 0 0 0 0 0 0 0 0 0 0 0 0 0 0 0 0 127 0"/><feOffset dy="2"/><feGaussianBlur stdDeviation="4"/><feColorMatrix values="0 0 0 0 0 0 0 0 0 0 0 0 0 0 0 0 0 0 0.75 0"/><feBlend in2="BackgroundImageFix" result="effect1_dropShadow_601_4662"/><feBlend in="SourceGraphic" in2="effect1_dropShadow_601_4662" result="shape"/></filter></defs></svg>