<svg xmlns="http://www.w3.org/2000/svg" width="80" height="80" fill="none"><g filter="url(#a)"><rect width="64" height="64" x="8" y="6" fill="#212529" rx="5"/><g clip-path="url(#b)"><path fill="#000" d="M55.395 30.162c-.186-.563-.673-.956-1.304-1.05-.297-.045-.637-.026-1.04.057a9.4 9.4 0 0 1-1.603.211c1.435-2.422 2.601-5.185 3.273-7.785 1.086-4.205.506-6.12-.173-6.987-1.794-2.293-4.413-3.525-7.572-3.563a13.4 13.4 0 0 0-3.936.552 14.7 14.7 0 0 0-2.302-.211c-1.52-.024-2.862.307-4.01.988a18 18 0 0 0-2.831-.711c-2.77-.455-5-.1-6.633 1.053-1.976 1.396-2.893 3.822-2.723 7.21.054 1.075.655 4.348 1.603 7.452.544 1.783 1.125 3.265 1.726 4.403.851 1.614 1.762 2.565 2.786 2.906.573.19 1.615.325 2.711-.588.139.168.324.335.57.49.313.198.695.358 1.076.454 1.375.344 2.662.258 3.76-.224.008.195.013.382.017.543.008.262.015.518.024.758.065 1.62.176 2.881.502 3.763.018.049.042.123.068.201.163.5.436 1.335 1.13 1.99.717.677 1.586.885 2.382.885.399 0 .78-.052 1.113-.124 1.19-.255 2.543-.644 3.52-2.036.925-1.316 1.375-3.299 1.456-6.423l.03-.253.019-.165.218.019.056.004c1.212.055 2.695-.202 3.605-.625.72-.334 3.025-1.55 2.482-3.194"/><path fill="#336791" d="M53.322 30.482c-3.605.743-3.853-.477-3.853-.477 3.806-5.648 5.398-12.817 4.024-14.571-3.745-4.786-10.23-2.523-10.338-2.464l-.035.006a13 13 0 0 0-2.405-.25c-1.63-.027-2.868.427-3.807 1.139 0 0-11.567-4.765-11.03 5.993.115 2.289 3.281 17.318 7.058 12.779a70 70 0 0 1 2.713-3.064 3.5 3.5 0 0 0 2.287.584l.065-.055c-.02.206-.011.408.026.647-.973 1.087-.688 1.277-2.632 1.678-1.968.405-.812 1.127-.057 1.316.915.229 3.032.553 4.462-1.45l-.057.229c.381.305.649 1.986.604 3.51s-.075 2.569.225 3.386.6 2.655 3.157 2.107c2.136-.458 3.243-1.644 3.397-3.623.11-1.407.356-1.199.372-2.456l.198-.596c.23-1.907.037-2.522 1.353-2.236l.32.028c.968.044 2.236-.156 2.98-.502 1.603-.743 2.553-1.985.973-1.659Z"/><path fill="#fff" d="M37.585 20.882c-.325-.045-.619-.003-.768.11a.28.28 0 0 0-.116.187c-.019.134.075.282.133.358.163.216.4.365.637.398a1 1 0 0 0 .102.007c.393 0 .75-.307.782-.533.04-.283-.371-.472-.77-.527m10.762.008c-.031-.221-.426-.284-.8-.232s-.738.22-.708.443c.025.173.337.469.707.469a1 1 0 0 0 .094-.007.9.9 0 0 0 .514-.281c.131-.138.207-.291.193-.391Z"/><path fill="#fff" d="M54.522 30.397c-.138-.415-.58-.55-1.315-.397-2.183.45-2.964.138-3.221-.051 1.696-2.584 3.092-5.708 3.845-8.623.356-1.38.553-2.663.57-3.707.017-1.148-.178-1.99-.581-2.505-1.624-2.076-4.009-3.19-6.895-3.22-1.984-.023-3.66.485-3.985.628a10 10 0 0 0-2.243-.288c-1.49-.024-2.777.333-3.843 1.06a17 17 0 0 0-3.123-.82c-2.53-.407-4.54-.098-5.975.918-1.712 1.213-2.502 3.381-2.349 6.444.052 1.03.639 4.2 1.565 7.236 1.22 3.996 2.546 6.258 3.94 6.723.164.054.352.093.56.093.509 0 1.133-.23 1.782-1.01a64 64 0 0 1 2.456-2.78c.548.295 1.15.46 1.766.476l.005.048c-.124.147-.225.275-.312.385-.427.542-.516.655-1.89.938-.39.08-1.429.294-1.444 1.022-.017.795 1.227 1.13 1.369 1.165q.742.184 1.423.184c1.103 0 2.075-.363 2.85-1.064-.023 2.834.095 5.628.435 6.479.279.697.96 2.4 3.111 2.399q.473.002 1.045-.119c2.245-.48 3.22-1.473 3.597-3.66.202-1.17.548-3.961.711-5.459.344.107.787.157 1.265.156.998 0 2.15-.212 2.871-.547.811-.376 2.275-1.3 2.01-2.104m-5.347-10.119c-.007.442-.068.844-.132 1.263-.07.45-.142.916-.16 1.482-.017.55.051 1.122.118 1.675.134 1.118.272 2.268-.262 3.404a4 4 0 0 1-.236-.486c-.066-.161-.21-.42-.41-.777-.775-1.39-2.592-4.648-1.662-5.977.277-.396.98-.803 2.744-.584m-2.138-7.489c2.586.057 4.631 1.024 6.08 2.875 1.11 1.42-.113 7.879-3.654 13.45l-.152-.19c.915-1.512.736-3.007.577-4.332-.066-.544-.127-1.058-.112-1.54.016-.512.084-.951.15-1.375.08-.523.162-1.064.14-1.702a.7.7 0 0 0 .014-.24c-.058-.611-.756-2.441-2.179-4.098-.778-.906-1.913-1.92-3.463-2.604a11.7 11.7 0 0 1 2.599-.244m-14.47 19.518c-.715.86-1.21.695-1.372.64-1.058-.353-2.286-2.589-3.368-6.136-.937-3.069-1.485-6.154-1.528-7.02-.137-2.736.527-4.644 1.972-5.669 2.352-1.668 6.219-.67 7.773-.163l-.068.065c-2.55 2.575-2.49 6.975-2.483 7.243 0 .104.008.251.02.453.044.74.126 2.117-.092 3.677-.203 1.45.244 2.868 1.225 3.892q.153.159.318.3a66 66 0 0 0-2.397 2.718m2.724-3.636c-.79-.825-1.15-1.973-.985-3.15.23-1.648.145-3.083.1-3.854l-.016-.277c.372-.33 2.099-1.255 3.33-.973.561.129.904.511 1.046 1.17.736 3.406.097 4.826-.416 5.966-.106.236-.206.458-.291.688l-.066.177c-.168.45-.324.867-.42 1.264-.841-.003-1.66-.362-2.282-1.011m.13 4.594a2 2 0 0 1-.596-.256c.108-.051.3-.12.634-.19 1.617-.332 1.867-.567 2.412-1.26.125-.158.267-.338.463-.557.292-.328.426-.272.668-.171.197.08.388.327.466.598.037.128.078.371-.057.56-1.139 1.595-2.799 1.574-3.99 1.276m8.46 7.873c-1.978.424-2.678-.585-3.14-1.739-.297-.745-.444-4.103-.34-7.812a.4.4 0 0 0-.019-.142 2 2 0 0 0-.055-.262c-.155-.54-.531-.99-.983-1.178-.179-.074-.508-.21-.904-.11.085-.347.23-.74.39-1.165l.066-.178c.075-.202.169-.41.268-.632.538-1.194 1.274-2.829.475-6.522-.3-1.384-1.298-2.06-2.813-1.902-.908.093-1.738.46-2.153.67q-.133.067-.246.131c.115-1.394.552-3.999 2.187-5.647 1.028-1.038 2.399-1.55 4.068-1.523 3.29.054 5.4 1.742 6.59 3.15 1.026 1.211 1.582 2.433 1.803 3.091-1.667-.17-2.8.16-3.376.982-1.25 1.787.684 5.257 1.614 6.924.17.306.318.57.364.682.303.734.695 1.224.981 1.582.088.11.173.216.238.308-.505.146-1.412.482-1.33 2.164-.066.843-.54 4.793-.781 6.189-.318 1.843-.996 2.53-2.904 2.939m8.255-9.447c-.516.24-1.38.42-2.201.458-.907.043-1.369-.101-1.477-.19-.051-1.048.339-1.157.752-1.273q.097-.026.189-.057.057.046.125.091c.729.481 2.028.533 3.863.154l.02-.004c-.247.232-.67.542-1.271.821"/></g><path fill="#e5e5e5" d="M16.76 60a.2.2 0 0 1-.144-.056.2.2 0 0 1-.056-.144v-5.2q0-.088.056-.144a.2.2 0 0 1 .144-.056H19q.665 0 1.152.208.496.2.768.608.28.408.28 1.032 0 .616-.28 1.016a1.6 1.6 0 0 1-.768.592q-.488.192-1.152.192h-.952V59.8a.18.18 0 0 1-.064.144.2.2 0 0 1-.144.056zm1.264-3.056h.936q.344 0 .544-.176.208-.176.208-.536a.77.77 0 0 0-.176-.512q-.176-.208-.576-.208h-.936zm5.775 3.136q-.672 0-1.136-.216a1.6 1.6 0 0 1-.704-.616 2.1 2.1 0 0 1-.272-.968 7 7 0 0 1 0-.72q.033-.568.288-.968.256-.4.712-.616.464-.216 1.112-.216.657 0 1.112.216.465.216.72.616.257.4.288.968a7 7 0 0 1 0 .72 2.06 2.06 0 0 1-.28.968 1.56 1.56 0 0 1-.704.616q-.455.216-1.136.216m0-.976q.36 0 .52-.216.168-.216.192-.648.009-.12.008-.32c-.001-.2-.002-.24-.008-.32q-.024-.424-.192-.64-.16-.224-.52-.224-.352 0-.52.224-.168.216-.184.64-.008.12-.008.32c0 .2.003.24.008.32q.016.432.184.648.169.216.52.216m4.627.976q-.519 0-.888-.112a2.2 2.2 0 0 1-.592-.288 1.4 1.4 0 0 1-.336-.344.7.7 0 0 1-.12-.312.16.16 0 0 1 .056-.144.2.2 0 0 1 .136-.064h.912a.1.1 0 0 1 .04.008.4.4 0 0 1 .048.032q.105.056.208.144.105.08.24.144t.328.064a.74.74 0 0 0 .376-.088.29.29 0 0 0 .152-.264.3.3 0 0 0-.072-.208q-.072-.089-.296-.168a4 4 0 0 0-.656-.16 3.4 3.4 0 0 1-.728-.248 1.26 1.26 0 0 1-.48-.408 1.1 1.1 0 0 1-.168-.616q0-.32.208-.616t.608-.48q.4-.192.984-.192.465 0 .8.112.345.105.576.272.24.168.36.344a.65.65 0 0 1 .128.32.18.18 0 0 1-.048.144.18.18 0 0 1-.128.056h-.832a.3.3 0 0 1-.064-.008l-.056-.032a1 1 0 0 1-.192-.128 1.2 1.2 0 0 0-.224-.144.7.7 0 0 0-.32-.064.53.53 0 0 0-.336.096.32.32 0 0 0-.056.44q.072.088.28.16.216.072.664.16.552.088.88.288.328.192.464.456.136.255.136.544 0 .384-.232.68-.224.296-.672.464-.448.16-1.088.16m4.815-.08q-.513 0-.888-.16a1.23 1.23 0 0 1-.568-.512q-.2-.352-.2-.904v-1.536h-.624a.22.22 0 0 1-.152-.056.2.2 0 0 1-.056-.144v-.648q0-.088.056-.144a.22.22 0 0 1 .152-.056h.624v-1.32q0-.088.056-.144a.21.21 0 0 1 .144-.056h.928q.087 0 .144.056a.2.2 0 0 1 .056.144v1.32h1q.087 0 .144.056a.2.2 0 0 1 .056.144v.648a.2.2 0 0 1-.056.144.2.2 0 0 1-.144.056h-1v1.424a.8.8 0 0 0 .104.432q.103.16.352.16h.616q.087 0 .144.056a.2.2 0 0 1 .056.144v.696a.2.2 0 0 1-.056.144.2.2 0 0 1-.144.056zm3.646 1.76q-.615 0-1.024-.16a2 2 0 0 1-.64-.384 1.5 1.5 0 0 1-.336-.448 1 1 0 0 1-.112-.344.16.16 0 0 1 .056-.144.22.22 0 0 1 .152-.056h1.016q.072 0 .12.032.056.04.088.128.04.088.104.184a.5.5 0 0 0 .192.152.8.8 0 0 0 .344.064q.24 0 .4-.08a.48.48 0 0 0 .24-.248q.08-.168.08-.456v-.536a1.4 1.4 0 0 1-.472.328q-.288.12-.696.12t-.72-.12-.52-.36a1.8 1.8 0 0 1-.328-.584 3 3 0 0 1-.136-.792 5 5 0 0 1 0-.416q.024-.432.136-.776t.32-.592a1.4 1.4 0 0 1 .528-.376q.312-.136.72-.136.432 0 .736.168.312.16.512.408v-.296q0-.08.056-.136a.18.18 0 0 1 .144-.064h.92a.18.18 0 0 1 .144.064.17.17 0 0 1 .064.136v3.848q0 .608-.248 1.024a1.6 1.6 0 0 1-.712.632q-.464.216-1.128.216m-.056-2.888a.7.7 0 0 0 .416-.112.64.64 0 0 0 .232-.288 1 1 0 0 0 .088-.376q.008-.088.008-.248a3 3 0 0 0-.008-.24 1 1 0 0 0-.088-.384.6.6 0 0 0-.232-.28.7.7 0 0 0-.416-.112.73.73 0 0 0-.424.112.65.65 0 0 0-.224.304 1.7 1.7 0 0 0-.08.424 4 4 0 0 0 0 .36q.015.232.08.424a.65.65 0 0 0 .224.304.73.73 0 0 0 .424.112M40.117 60a.2.2 0 0 1-.144-.056.2.2 0 0 1-.056-.144v-3.76q0-.08.056-.136a.18.18 0 0 1 .144-.064h.92a.18.18 0 0 1 .144.064.19.19 0 0 1 .056.136v.32q.216-.247.512-.384.305-.136.68-.136h.352q.08 0 .136.056a.18.18 0 0 1 .064.144v.824a.2.2 0 0 1-.064.144.19.19 0 0 1-.136.056h-.776q-.327 0-.512.184-.176.175-.176.504V59.8a.18.18 0 0 1-.064.144.2.2 0 0 1-.144.056zm5.322.08q-.944 0-1.504-.512t-.584-1.52v-.28q.024-.631.28-1.08a1.7 1.7 0 0 1 .72-.688q.465-.24 1.08-.24.704 0 1.16.28.464.28.696.76t.232 1.096v.192a.18.18 0 0 1-.064.144.19.19 0 0 1-.136.056h-2.56v.056q.008.232.08.424a.6.6 0 0 0 .592.416.6.6 0 0 0 .264-.048.8.8 0 0 0 .184-.12q.072-.072.112-.12a.4.4 0 0 1 .112-.096.3.3 0 0 1 .144-.024h.992q.08 0 .128.048.055.04.048.12-.007.136-.136.328-.128.192-.376.384a2 2 0 0 1-.608.304q-.367.12-.856.12m-.68-2.584h1.352v-.016q0-.256-.08-.448a.6.6 0 0 0-.232-.296.64.64 0 0 0-.368-.104.64.64 0 0 0-.368.104.67.67 0 0 0-.224.296q-.08.192-.08.448zm5.686 2.584q-.8 0-1.328-.224-.528-.232-.8-.6a1.4 1.4 0 0 1-.288-.784q0-.064.048-.112a.18.18 0 0 1 .128-.056h1.008a.3.3 0 0 1 .168.04q.063.04.112.104.063.12.176.232.12.112.304.184.192.064.472.064.464 0 .696-.144.24-.144.24-.392a.37.37 0 0 0-.128-.288q-.129-.12-.416-.208a6 6 0 0 0-.752-.192 5 5 0 0 1-1.04-.328 1.63 1.63 0 0 1-.648-.536q-.224-.336-.224-.832 0-.488.272-.872.28-.384.776-.6t1.176-.216q.552 0 .968.144.424.144.712.384t.432.512q.151.265.16.52a.18.18 0 0 1-.048.12.16.16 0 0 1-.12.048h-1.056a.34.34 0 0 1-.152-.032.3.3 0 0 1-.112-.104q-.048-.176-.256-.304-.2-.136-.528-.136-.352 0-.552.128-.192.12-.192.376 0 .16.104.28.113.12.36.208.256.088.696.184.727.135 1.176.344.448.2.656.528.208.32.208.808 0 .544-.312.944-.304.392-.848.6a3.5 3.5 0 0 1-1.248.208m6.777.44a.27.27 0 0 1-.2-.072 2 2 0 0 1-.104-.112l-.272-.36a2.3 2.3 0 0 1-.712.104q-.736 0-1.28-.24-.537-.24-.848-.72-.304-.487-.328-1.216a29 29 0 0 1 0-1.384q.024-.72.336-1.208.312-.496.856-.744t1.264-.248q.728 0 1.272.248.544.247.856.744.312.488.336 1.208a15 15 0 0 1 0 1.384q-.048.991-.576 1.536l.584.832a.15.15 0 0 1 .024.08.13.13 0 0 1-.04.112.15.15 0 0 1-.12.056zm-1.288-1.592q.423 0 .688-.256.272-.256.288-.816a14 14 0 0 0 0-1.312q-.008-.375-.136-.608a.8.8 0 0 0-.344-.352 1.06 1.06 0 0 0-.496-.112q-.273 0-.488.112a.8.8 0 0 0-.344.352q-.128.232-.136.608a27 27 0 0 0 0 1.312q.015.56.28.816.271.256.688.256M59.549 60a.2.2 0 0 1-.144-.056.2.2 0 0 1-.056-.144v-5.2q0-.088.056-.144a.2.2 0 0 1 .144-.056h1.056q.08 0 .136.056a.18.18 0 0 1 .064.144v4.192h2.416a.18.18 0 0 1 .144.064.18.18 0 0 1 .064.144v.8a.18.18 0 0 1-.064.144.2.2 0 0 1-.144.056z"/></g><defs><clipPath id="b"><path fill="#fff" d="M24 11h32v32H24z"/></clipPath><filter id="a" width="80" height="80" x="0" y="0" color-interpolation-filters="sRGB" filterUnits="userSpaceOnUse"><feFlood flood-opacity="0" result="BackgroundImageFix"/><feColorMatrix in="SourceAlpha" result="hardAlpha" values="0 0 0 0 0 0 0 0 0 0 0 0 0 0 0 0 0 0 127 0"/><feOffset dy="2"/><feGaussianBlur stdDeviation="4"/><feColorMatrix values="0 0 0 0 0 0 0 0 0 0 0 0 0 0 0 0 0 0 0.75 0"/><feBlend in2="BackgroundImageFix" result="effect1_dropShadow_603_777"/><feBlend in="SourceGraphic" in2="effect1_dropShadow_603_777" result="shape"/></filter></defs></svg>