<svg xmlns="http://www.w3.org/2000/svg" width="80" height="80" fill="none"><g filter="url(#a)"><rect width="64" height="64" x="8" y="6" fill="#212529" rx="5"/><path fill="url(#b)" fill-rule="evenodd" d="M27.174 37.589a1.16 1.16 0 0 1-.928-.423 1.23 1.23 0 0 1-.21-1.052l4.197-18.334a1.8 1.8 0 0 1 1.681-1.37h20.912a1.16 1.16 0 0 1 .928.423 1.24 1.24 0 0 1 .21 1.052l-4.2 18.335a1.8 1.8 0 0 1-1.681 1.37z" clip-rule="evenodd"/><path fill="url(#c)" fill-rule="evenodd" d="M31.914 16.646h20.912a.913.913 0 0 1 .908 1.187l-4.2 18.334a1.58 1.58 0 0 1-1.451 1.187H27.174a.912.912 0 0 1-.908-1.187l4.2-18.334a1.57 1.57 0 0 1 1.448-1.187" clip-rule="evenodd"/><path fill="#2c5591" fill-rule="evenodd" d="M40.04 32.544h5.086a1.118 1.118 0 0 1 0 2.234H40.04a1.118 1.118 0 0 1 0-2.234m3.3-4.966c-.147.245-.35.45-.592.6l-9.439 6.775a1.224 1.224 0 0 1-1.438-1.977l8.512-6.164v-.126L35.035 21a1.224 1.224 0 0 1 1.782-1.672l6.418 6.827a1.166 1.166 0 0 1 .104 1.423Z" clip-rule="evenodd"/><path fill="#fff" fill-rule="evenodd" d="M43.1 27.342a1.75 1.75 0 0 1-.59.6l-9.436 6.776a1.225 1.225 0 0 1-1.439-1.977l8.513-6.164v-.127L34.8 20.761a1.224 1.224 0 0 1 1.783-1.672L43 25.916a1.16 1.16 0 0 1 .1 1.426m-3.2 5.07h5.086a1.06 1.06 0 0 1 0 2.118H39.9a1.06 1.06 0 0 1 0-2.118" clip-rule="evenodd"/><path fill="#e5e5e5" d="M18.24 60a.2.2 0 0 1-.148-.057.2.2 0 0 1-.057-.148v-5.323a.2.2 0 0 1 .057-.148.2.2 0 0 1 .148-.057h2.293q.68 0 1.18.213.507.205.785.622.287.418.287 1.057 0 .63-.287 1.04a1.64 1.64 0 0 1-.786.606q-.5.197-1.18.197h-.974v1.793a.2.2 0 0 1-.065.148.2.2 0 0 1-.148.057zm1.294-3.129h.958q.352 0 .557-.18.213-.18.213-.549a.78.78 0 0 0-.18-.524q-.18-.213-.59-.213h-.958zm5.912 3.21q-.688 0-1.163-.22a1.66 1.66 0 0 1-.72-.63 2.2 2.2 0 0 1-.279-.992 7 7 0 0 1 0-.737q.033-.582.295-.99.262-.41.729-.632.474-.22 1.138-.22.672 0 1.138.22.476.222.738.631t.294.991a7 7 0 0 1 0 .737 2.1 2.1 0 0 1-.286.991 1.6 1.6 0 0 1-.72.63q-.468.222-1.164.222Zm0-.998q.369 0 .532-.221.172-.222.197-.664.008-.122.008-.327c0-.205-.003-.246-.008-.328q-.024-.435-.197-.655-.163-.23-.532-.23-.36 0-.532.23-.172.221-.189.655a5 5 0 0 0-.008.328q0 .204.008.327.017.442.189.664.172.22.532.22ZM29.49 60q-.123 0-.18-.057a.4.4 0 0 1-.09-.148l-1.18-3.792a.2.2 0 0 1-.016-.082q0-.074.057-.123a.18.18 0 0 1 .131-.057h.844q.106 0 .163.057a.26.26 0 0 1 .082.115l.688 2.343.737-2.335a.3.3 0 0 1 .074-.114.24.24 0 0 1 .18-.066h.54q.116 0 .173.066a.25.25 0 0 1 .082.114l.737 2.334.688-2.342a.3.3 0 0 1 .073-.114.25.25 0 0 1 .172-.058h.844q.074 0 .123.057a.16.16 0 0 1 .057.123.4.4 0 0 1-.008.082l-1.18 3.792a.3.3 0 0 1-.09.148q-.057.057-.18.057h-.737a.26.26 0 0 1-.18-.057.3.3 0 0 1-.09-.148l-.753-2.244-.754 2.244a.3.3 0 0 1-.09.148.26.26 0 0 1-.18.057zm7.512.082q-.966 0-1.54-.524-.573-.525-.597-1.556v-.287q.024-.647.286-1.106a1.76 1.76 0 0 1 .737-.704 2.4 2.4 0 0 1 1.106-.246q.72 0 1.188.287.475.286.712.778t.238 1.122v.197q0 .09-.066.147a.2.2 0 0 1-.14.057h-2.62v.058q.009.237.082.434a.62.62 0 0 0 .606.426q.165 0 .27-.05a.9.9 0 0 0 .189-.122q.074-.074.114-.123a.4.4 0 0 1 .115-.098.34.34 0 0 1 .147-.025h1.016q.082 0 .13.05.06.04.05.122-.008.14-.14.336a1.7 1.7 0 0 1-.384.393q-.246.189-.622.311a2.8 2.8 0 0 1-.877.123m-.696-2.645h1.384v-.017q0-.262-.082-.459a.6.6 0 0 0-.237-.303.65.65 0 0 0-.377-.106.65.65 0 0 0-.377.106.7.7 0 0 0-.23.303 1.2 1.2 0 0 0-.081.46zM40.104 60a.2.2 0 0 1-.147-.057.2.2 0 0 1-.058-.148v-3.85a.2.2 0 0 1 .058-.138.19.19 0 0 1 .147-.066h.942q.09 0 .147.066a.2.2 0 0 1 .058.139v.328q.22-.254.524-.394a1.7 1.7 0 0 1 .696-.139h.36a.2.2 0 0 1 .14.057.19.19 0 0 1 .065.148v.843a.2.2 0 0 1-.065.148.2.2 0 0 1-.14.057h-.794q-.336 0-.524.189-.18.18-.18.516v2.096q0 .09-.066.148a.2.2 0 0 1-.147.057zm5.267.082q-.533 0-.909-.115a2.2 2.2 0 0 1-.606-.295 1.4 1.4 0 0 1-.344-.352.74.74 0 0 1-.123-.32.17.17 0 0 1 .057-.147.2.2 0 0 1 .14-.065h.933a.1.1 0 0 1 .041.008.4.4 0 0 1 .05.033q.105.057.212.147.106.082.246.148a.8.8 0 0 0 .336.065q.23 0 .385-.09a.29.29 0 0 0 .155-.27.3.3 0 0 0-.073-.213q-.074-.09-.303-.172a4.3 4.3 0 0 0-.672-.164 3.5 3.5 0 0 1-.745-.254 1.3 1.3 0 0 1-.492-.418 1.12 1.12 0 0 1-.172-.63q0-.328.213-.63.213-.304.623-.492.41-.197 1.007-.197.475 0 .82.115.35.106.589.278.246.173.368.353.123.18.131.327a.19.19 0 0 1-.049.148.18.18 0 0 1-.13.057h-.852a.3.3 0 0 1-.066-.008 1 1 0 0 1-.057-.033 1 1 0 0 1-.197-.131 1.2 1.2 0 0 0-.23-.148.7.7 0 0 0-.327-.065.54.54 0 0 0-.344.098.327.327 0 0 0-.057.45q.074.09.286.164.222.075.68.164.565.09.901.295.336.197.475.467.14.262.14.557a1.1 1.1 0 0 1-.238.696q-.23.303-.688.475-.459.165-1.114.164m2.98-.082a.2.2 0 0 1-.148-.057.2.2 0 0 1-.058-.148V54.39a.2.2 0 0 1 .058-.148.2.2 0 0 1 .147-.057h1.048a.2.2 0 0 1 .148.057.2.2 0 0 1 .057.148v1.826q.222-.254.54-.401.329-.156.754-.156.475 0 .844.213.375.213.59.63.212.411.212 1.008v2.285a.2.2 0 0 1-.057.148.2.2 0 0 1-.147.057h-1.057a.22.22 0 0 1-.147-.057.2.2 0 0 1-.058-.148V57.56q0-.384-.188-.59-.18-.212-.54-.212a.72.72 0 0 0-.541.213q-.205.204-.205.59v2.235a.2.2 0 0 1-.057.148.2.2 0 0 1-.148.057H48.35Zm7.087.082q-.967 0-1.54-.524-.574-.525-.598-1.556v-.287q.024-.647.287-1.106a1.76 1.76 0 0 1 .737-.704 2.4 2.4 0 0 1 1.105-.246q.72 0 1.188.287.475.286.713.778.237.492.237 1.122v.197q0 .09-.066.147a.2.2 0 0 1-.139.057h-2.62v.058q.007.237.081.434a.62.62 0 0 0 .606.426q.165 0 .27-.05a.9.9 0 0 0 .19-.122q.072-.074.114-.123a.4.4 0 0 1 .114-.098.34.34 0 0 1 .148-.025h1.015q.083 0 .131.05.058.04.05.122a.7.7 0 0 1-.14.336 1.7 1.7 0 0 1-.385.393q-.244.189-.622.311a2.8 2.8 0 0 1-.876.123m-.697-2.645h1.385v-.017q0-.262-.082-.459a.6.6 0 0 0-.238-.303.65.65 0 0 0-.377-.106.65.65 0 0 0-.376.106.7.7 0 0 0-.23.303 1.2 1.2 0 0 0-.081.46zM58.54 60a.2.2 0 0 1-.148-.057.2.2 0 0 1-.057-.148V54.39a.2.2 0 0 1 .057-.148.2.2 0 0 1 .148-.057h.966a.2.2 0 0 1 .147.057.2.2 0 0 1 .058.148v5.405a.2.2 0 0 1-.058.148.2.2 0 0 1-.147.057zm2.343 0a.2.2 0 0 1-.147-.057.2.2 0 0 1-.058-.148V54.39a.2.2 0 0 1 .058-.148.2.2 0 0 1 .147-.057h.966a.2.2 0 0 1 .148.057.2.2 0 0 1 .057.148v5.405a.2.2 0 0 1-.057.148.2.2 0 0 1-.148.057z"/></g><defs><linearGradient id="b" x1="47.325" x2="31.26" y1="33.543" y2="19.193" gradientUnits="userSpaceOnUse"><stop stop-color="#5391fe"/><stop offset="1" stop-color="#3e6dbf"/></linearGradient><linearGradient id="c" x1="31.1" x2="47.001" y1="19.002" y2="33.292" gradientUnits="userSpaceOnUse"><stop stop-color="#5391fe"/><stop offset="1" stop-color="#3e6dbf"/></linearGradient><filter id="a" width="80" height="80" x="0" y="0" color-interpolation-filters="sRGB" filterUnits="userSpaceOnUse"><feFlood flood-opacity="0" result="BackgroundImageFix"/><feColorMatrix in="SourceAlpha" result="hardAlpha" values="0 0 0 0 0 0 0 0 0 0 0 0 0 0 0 0 0 0 127 0"/><feOffset dy="2"/><feGaussianBlur stdDeviation="4"/><feColorMatrix values="0 0 0 0 0 0 0 0 0 0 0 0 0 0 0 0 0 0 0.75 0"/><feBlend in2="BackgroundImageFix" result="effect1_dropShadow_603_552"/><feBlend in="SourceGraphic" in2="effect1_dropShadow_603_552" result="shape"/></filter></defs></svg>