<svg xmlns="http://www.w3.org/2000/svg" width="80" height="80" fill="none"><g filter="url(#a)"><rect width="64" height="64" x="8" y="6" fill="#212529" rx="5"/><path fill="#56b3b4" d="M45.714 19.571h1.143a.57.57 0 0 1 0 1.142h-1.143a.57.57 0 1 1 0-1.142"/><path fill="#ea5e5e" d="M28.571 37.857h5.714a.571.571 0 0 1 0 1.142h-5.714a.57.57 0 1 1 0-1.142"/><path fill="#bf85bf" d="M42.286 28.714h3.43a.57.57 0 0 1 0 1.142h-3.43a.57.57 0 1 1 0-1.142"/><path fill="#ea5e5e" d="M35.429 28.714h4.57a.571.571 0 0 1 0 1.142h-4.57a.57.57 0 1 1 0-1.142"/><path fill="#56b3b4" d="M28.571 28.714h4.572a.571.571 0 0 1 0 1.142h-4.572a.57.57 0 1 1 0-1.142"/><path fill="#bf85bf" d="M28.571 33.286h5.714a.571.571 0 1 1 0 1.142h-5.714a.571.571 0 0 1 0-1.142m0-9.143h5.714a.571.571 0 1 1 0 1.142h-5.714a.571.571 0 0 1 0-1.142"/><path fill="#f7ba3e" d="M34.286 17.286h11.428a.57.57 0 1 1 0 1.142H34.286a.571.571 0 0 1 0-1.142"/><path fill="#ea5e5e" d="M28.571 17.286H32a.571.571 0 1 1 0 1.143h-3.429a.57.57 0 0 1-.571-.572.57.57 0 0 1 .571-.571"/><path fill="#f7ba3e" d="M33.143 35.571h1.143a.571.571 0 0 1 0 1.142h-1.143a.57.57 0 1 1 0-1.142"/><path fill="#56b3b4" d="M33.143 21.857h1.143a.571.571 0 0 1 0 1.142h-1.143a.57.57 0 1 1 0-1.142m-4.572 13.714h2.286a.571.571 0 0 1 0 1.142h-2.286a.571.571 0 0 1 0-1.142"/><path fill="#f7ba3e" d="M28.571 21.857h2.286a.571.571 0 0 1 0 1.143h-2.286a.571.571 0 1 1 0-1.143"/><path fill="#4d616e" d="M43.429 35.571h1.143a.571.571 0 0 1 0 1.142h-1.143a.57.57 0 1 1 0-1.142m-6.858 0h4.571a.571.571 0 0 1 0 1.142h-4.571a.571.571 0 0 1 0-1.142m10.286 0h4.57a.57.57 0 0 1 0 1.142h-4.57a.571.571 0 1 1 0-1.142" opacity=".5"/><path fill="#56b3b4" d="M37.714 26.429h9.143a.57.57 0 1 1 0 1.142h-9.143a.571.571 0 0 1 0-1.142"/><path fill="#f7ba3e" d="M32 26.429h3.429a.57.57 0 1 1 0 1.142H32a.571.571 0 0 1 0-1.142"/><path fill="#ea5e5e" d="M28.571 26.429h1.143a.57.57 0 1 1 .001 1.142h-1.144a.571.571 0 0 1 0-1.142"/><path fill="#bf85bf" d="M38.857 19.571h4.57a.571.571 0 1 1 .002 1.143h-4.572a.571.571 0 1 1 0-1.143"/><path fill="#56b3b4" d="M28.571 19.571h8a.571.571 0 0 1 0 1.142h-8a.571.571 0 0 1 0-1.142"/><path fill="#f7ba3e" d="M32 31h10.286a.571.571 0 0 1 0 1.142H32A.571.571 0 0 1 32 31"/><path fill="#bf85bf" d="M28.571 31h1.143a.57.57 0 0 1 0 1.142h-1.143a.572.572 0 0 1 0-1.142"/><path fill="#ea5e5e" d="M42.286 21.857H48A.57.57 0 0 1 48 23h-5.714a.57.57 0 1 1 0-1.143"/><path fill="#f7ba3e" d="M42.286 24.143H48a.57.57 0 1 1 0 1.142h-5.714a.571.571 0 0 1 0-1.142"/><path fill="#56b3b4" d="M28.571 15h13.715a.572.572 0 0 1 0 1.142H28.571a.572.572 0 0 1 0-1.142"/><path fill="#4d616e" d="M44.571 15h6.857a.57.57 0 1 1 .001 1.142h-6.858a.57.57 0 0 1 0-1.142m0 16h2.286a.57.57 0 0 1 0 1.142h-2.286a.57.57 0 0 1 0-1.142m4.572 0h2.286a.57.57 0 0 1 0 1.142h-2.286a.571.571 0 0 1 0-1.142M48 28.714h3.429a.57.57 0 0 1 0 1.142H48a.57.57 0 1 1 0-1.142m0-11.428h3.429a.57.57 0 1 1 0 1.142H48a.571.571 0 0 1 0-1.142m1.143 9.143h2.286a.57.57 0 1 1 0 1.142h-2.286a.572.572 0 0 1-.404-.975.57.57 0 0 1 .404-.167m0-6.858h2.286a.57.57 0 1 1 0 1.143h-2.286a.57.57 0 1 1 0-1.143m1.143 2.286h1.143a.57.57 0 0 1 0 1.142h-1.143a.57.57 0 1 1 0-1.142m0 2.286h1.143a.57.57 0 1 1 0 1.142h-1.143a.571.571 0 0 1 0-1.142m-9.143 9.143h10.286a.57.57 0 1 1 0 1.142H41.143a.57.57 0 0 1 0-1.142m-4.572 0h2.286a.571.571 0 1 1 0 1.142h-2.286a.571.571 0 0 1 0-1.142m9.143 4.571h5.714a.57.57 0 0 1 0 1.142h-5.714a.57.57 0 1 1 0-1.142m-9.143 0h6.857a.571.571 0 0 1 0 1.142h-6.857a.57.57 0 1 1 0-1.142m0-16H40A.571.571 0 0 1 40 23h-3.429a.571.571 0 1 1 0-1.143m0 2.286H40a.571.571 0 1 1 0 1.142h-3.429a.571.571 0 0 1 0-1.142" opacity=".5"/><path fill="#e5e5e5" d="M20.473 61a.25.25 0 0 1-.184-.072.25.25 0 0 1-.072-.184v-6.656a.25.25 0 0 1 .072-.184.25.25 0 0 1 .184-.072h2.867q.85 0 1.475.266.634.255.983.779.358.522.358 1.32 0 .79-.358 1.3-.348.513-.983.759-.625.245-1.475.245h-1.219v2.243a.23.23 0 0 1-.081.184.25.25 0 0 1-.185.072zm1.618-3.912h1.198q.44 0 .696-.225.267-.225.266-.686a.98.98 0 0 0-.225-.655q-.225-.267-.737-.267H22.09v1.833ZM27.28 61a.25.25 0 0 1-.185-.072.25.25 0 0 1-.072-.184v-4.813q0-.102.072-.174a.23.23 0 0 1 .184-.082h1.178q.112 0 .184.082a.24.24 0 0 1 .072.174v.41q.276-.318.655-.492.39-.174.87-.174h.451q.102 0 .174.072.082.072.082.184v1.055q0 .103-.082.184a.24.24 0 0 1-.174.072h-.993q-.42 0-.656.235-.225.225-.225.646v2.621a.23.23 0 0 1-.082.184.25.25 0 0 1-.184.072zm6.81.102q-1.208 0-1.924-.655-.717-.655-.748-1.946v-.358q.03-.81.358-1.382.339-.584.922-.881.594-.307 1.383-.307.9 0 1.484.358.594.359.891.973t.297 1.403v.246a.23.23 0 0 1-.082.184.24.24 0 0 1-.174.072H33.22v.071q.01.298.103.543a.77.77 0 0 0 .758.532.8.8 0 0 0 .337-.06q.144-.073.236-.155a2 2 0 0 0 .143-.153.5.5 0 0 1 .144-.123q.06-.03.184-.03h1.27q.102 0 .164.06.071.052.061.154-.01.174-.174.42a2.2 2.2 0 0 1-.481.492 2.6 2.6 0 0 1-.779.389 3.6 3.6 0 0 1-1.095.153Zm-.87-3.307h1.73v-.02q0-.329-.102-.574a.75.75 0 0 0-.296-.379.8.8 0 0 0-.471-.133.8.8 0 0 0-.471.133.86.86 0 0 0-.287.379 1.5 1.5 0 0 0-.103.573v.02ZM40.428 61q-.656 0-1.137-.205a1.58 1.58 0 0 1-.727-.655q-.255-.45-.256-1.157v-1.966h-.798a.3.3 0 0 1-.195-.072.25.25 0 0 1-.072-.184v-.83a.25.25 0 0 1 .072-.184.3.3 0 0 1 .195-.072h.798v-1.69a.25.25 0 0 1 .072-.184.27.27 0 0 1 .184-.071h1.188a.25.25 0 0 1 .184.071.25.25 0 0 1 .072.185v1.69h1.28a.25.25 0 0 1 .184.07.25.25 0 0 1 .072.185v.83a.25.25 0 0 1-.072.184.25.25 0 0 1-.184.072h-1.28v1.822q0 .35.133.553.134.205.45.205h.79a.25.25 0 0 1 .184.072.25.25 0 0 1 .071.184v.891a.25.25 0 0 1-.071.184.25.25 0 0 1-.185.072zm4.78 0q-.656 0-1.137-.205a1.58 1.58 0 0 1-.727-.655q-.255-.45-.256-1.157v-1.966h-.798a.3.3 0 0 1-.195-.072.25.25 0 0 1-.072-.184v-.83a.25.25 0 0 1 .072-.184.3.3 0 0 1 .195-.072h.798v-1.69a.25.25 0 0 1 .072-.184.27.27 0 0 1 .184-.071h1.188a.25.25 0 0 1 .185.071.25.25 0 0 1 .071.185v1.69h1.28a.25.25 0 0 1 .184.07.25.25 0 0 1 .072.185v.83a.25.25 0 0 1-.072.184.25.25 0 0 1-.184.072h-1.28v1.822q0 .35.133.553.134.205.45.205h.79a.25.25 0 0 1 .184.072.25.25 0 0 1 .071.184v.891a.25.25 0 0 1-.071.184.25.25 0 0 1-.185.072zm2.312 0a.25.25 0 0 1-.184-.072.25.25 0 0 1-.072-.184v-4.813a.25.25 0 0 1 .072-.184.25.25 0 0 1 .184-.072h1.208q.103 0 .175.072.081.072.081.184v4.813a.23.23 0 0 1-.081.184.24.24 0 0 1-.175.072zm-.01-6.093a.25.25 0 0 1-.184-.071.25.25 0 0 1-.072-.185v-.911a.25.25 0 0 1 .072-.184.23.23 0 0 1 .184-.082h1.218q.113 0 .185.082a.23.23 0 0 1 .082.184v.911a.23.23 0 0 1-.082.184.25.25 0 0 1-.184.072zm5.182 6.195q-1.209 0-1.925-.655-.717-.655-.748-1.946v-.358q.03-.81.358-1.382.339-.584.922-.881.594-.307 1.383-.307.9 0 1.484.358.594.359.891.973t.297 1.403v.246a.23.23 0 0 1-.082.184.24.24 0 0 1-.174.072h-3.277v.071q.01.298.103.543a.77.77 0 0 0 .758.532.8.8 0 0 0 .337-.06q.144-.073.236-.155a2 2 0 0 0 .143-.153.5.5 0 0 1 .144-.123q.06-.03.184-.03h1.27q.102 0 .164.06.071.052.061.154-.01.174-.174.42a2.2 2.2 0 0 1-.481.492 2.6 2.6 0 0 1-.779.389 3.6 3.6 0 0 1-1.095.153m-.87-3.307h1.73v-.02q0-.329-.102-.574a.75.75 0 0 0-.297-.379.8.8 0 0 0-.471-.133.8.8 0 0 0-.471.133.86.86 0 0 0-.287.379 1.5 1.5 0 0 0-.103.573zM56.57 61a.25.25 0 0 1-.184-.072.25.25 0 0 1-.072-.184v-4.813q0-.102.072-.174a.23.23 0 0 1 .184-.082h1.178q.112 0 .184.082a.24.24 0 0 1 .072.174v.41q.277-.318.655-.492.39-.174.87-.174h.451q.102 0 .174.072.082.072.082.184v1.055q0 .103-.082.184a.24.24 0 0 1-.174.072h-.993q-.42 0-.656.235-.225.225-.225.646v2.621a.23.23 0 0 1-.082.184.25.25 0 0 1-.184.072z"/></g><defs><filter id="a" width="80" height="80" x="0" y="0" color-interpolation-filters="sRGB" filterUnits="userSpaceOnUse"><feFlood flood-opacity="0" result="BackgroundImageFix"/><feColorMatrix in="SourceAlpha" result="hardAlpha" values="0 0 0 0 0 0 0 0 0 0 0 0 0 0 0 0 0 0 127 0"/><feOffset dy="2"/><feGaussianBlur stdDeviation="4"/><feColorMatrix values="0 0 0 0 0 0 0 0 0 0 0 0 0 0 0 0 0 0 0.75 0"/><feBlend in2="BackgroundImageFix" result="effect1_dropShadow_602_491"/><feBlend in="SourceGraphic" in2="effect1_dropShadow_602_491" result="shape"/></filter></defs></svg>