<svg xmlns="http://www.w3.org/2000/svg" width="80" height="80" fill="none"><g filter="url(#a)"><rect width="64" height="64" x="8" y="6" fill="#212529" rx="5"/><path fill="#efcca3" d="M49.514 23.846c-.052-.938.209-1.825-.209-2.554-1.043-1.825-3.649-2.867-8.863-2.867v-.053.052c-5.735 0-8.185 1.043-9.227 2.867a5.6 5.6 0 0 0-.469 2.554 9.5 9.5 0 0 0-.261 2.45c.156 1.147.261 2.294.417 3.336.156.886 1.408 1.564 1.564 2.4.313 2.242 2.294 3.284 8.028 3.284v.261h-.1v-.26c5.213 0 7.4-1.044 7.716-3.285.1-.834 1.147-1.512 1.3-2.4.156-1.043.209-2.19.365-3.336a11.8 11.8 0 0 0-.261-2.449"/><path fill="#ccac8d" d="M40.182 24.68a3.24 3.24 0 0 1 2.19 1.147c.73.626 1.929 1.043 2.45 1.616a4.7 4.7 0 0 1 1.408 1.98c.2.732.305 1.485.313 2.243 0 .26.156.209.573 0a9 9 0 0 0 2.19-1.877c-.156.886-1.251 1.668-1.355 2.5-.313 2.242-2.5 3.336-7.872 3.336h.313"/><path fill="#ccac8d" d="M43.519 22.908c.209.678.886 3.024-.469 2.242.494.388.828.945.938 1.564a1.83 1.83 0 0 0 1.3 1.408c.9.134 1.817-.091 2.554-.626a2.96 2.96 0 0 0 .678-3.284 2.43 2.43 0 0 0-2.137-1.616c-.983-.262-3.073-.47-2.864.312"/><path fill="#000" d="M46.178 27.339a1.929 1.929 0 1 0 0-3.858 1.929 1.929 0 0 0 0 3.858"/><path fill="#fff" d="M45.656 25.045a.52.52 0 1 0 0-1.042.52.52 0 0 0 0 1.042"/><path fill="#efcca3" d="M43.206 25.306c.98.688 1.89 1.474 2.711 2.346.938 1.2.938 1.408.938 1.408l-.678.313a7.1 7.1 0 0 0-2.137-2.5c-1.2-.678-1.355-1.251-1.355-1.251z"/><path fill="#ccac8d" d="M40.235 24.68a3.6 3.6 0 0 0-2.346 1.147c-.73.626-2.033 1.043-2.5 1.616a4.8 4.8 0 0 0-1.46 1.98 9 9 0 0 0-.313 2.243c0 .26.052.313-.626 0a8 8 0 0 1-2.19-1.877c.156.886 1.251 1.668 1.355 2.5.313 2.19 2.5 3.284 7.872 3.284h.365"/><path fill="#56332b" d="M45.239 28.277a6.55 6.55 0 0 0-5.11-2.607 6.64 6.64 0 0 0-5.108 2.607 3.86 3.86 0 0 0-1.043 3.18c0 4.64 1.616 3.232 2.71 3.806a7.5 7.5 0 0 0 3.39.313 7.4 7.4 0 0 0 3.389-.313c1.095-.573 2.71.834 2.71-3.806a3.39 3.39 0 0 0-.938-3.18"/><path fill="#442823" d="M40.026 26.974a9.6 9.6 0 0 1-.469 2.554l.573-.156z"/><path fill="#442823" d="M40.182 26.974a9.6 9.6 0 0 0 .469 2.554l-.573-.156z"/><path fill="#56332b" d="M38.358 26.453c-.209-.521.573-1.355 1.825-1.355s2.033.834 1.825 1.355c-.208.52-1.043.678-1.825.678-.835-.001-1.617-.157-1.825-.678"/><path fill="#000" d="M40.182 26.974c0-.1.73-.1 1.147-.365 0 0-.834.26-.991.156a.66.66 0 0 1-.209-.365.66.66 0 0 1-.209.365c-.156.1-1.095-.156-1.095-.156q.614.135 1.2.365v.417q-.05 1.022.1 2.033c.156.209.1-1.46.1-2.033a1.3 1.3 0 0 1-.043-.417"/><path fill="#7f4a41" d="M40.182 29.945a3.35 3.35 0 0 1 1.616.678 3.12 3.12 0 0 0-1.616-1.095 3.04 3.04 0 0 0-1.825 1.2 3.3 3.3 0 0 1 1.825-.783"/><path fill="#442823" d="M40.078 33.8a9 9 0 0 1-2.4-.469c-.156-.052-.313.052-.469 0a6.17 6.17 0 0 1-3.18-2.137v.21c0 4.64 1.616 3.231 2.711 3.805 1.09.364 2.25.471 3.39.313a7.4 7.4 0 0 0 3.388-.313c1.095-.573 2.711.834 2.711-3.806v-.469A5.9 5.9 0 0 1 43 33.282c-.156.052-.417-.052-.573-.052a7 7 0 0 1-2.349.57"/><path fill="#442823" d="M37.941 31.3s-.573 1.668-.156 2.4l-.521-.209q.257-1.12.677-2.191m4.379 0s.573 1.668.156 2.4l.524-.209a10.6 10.6 0 0 0-.68-2.191"/><path fill="#ccac8d" d="M36.585 22.908c-.21.678-.886 3.024.469 2.242a2.56 2.56 0 0 0-.938 1.564 1.83 1.83 0 0 1-1.3 1.408 3.48 3.48 0 0 1-2.558-.622 2.96 2.96 0 0 1-.678-3.284 2.43 2.43 0 0 1 2.137-1.616c.992-.266 3.077-.474 2.868.308"/><path fill="#000" d="M40.13 29.528a3.39 3.39 0 0 1 2.45 2.867v-.1a3.05 3.05 0 0 0-2.45-2.919 3 3 0 0 0-2.45 2.919v.1a3.46 3.46 0 0 1 2.45-2.867"/><path fill="#331712" d="M40.624 26.441c.084-.021.116-.175.073-.342s-.146-.286-.23-.264c-.083.021-.115.174-.072.342.043.167.146.285.229.264m-.866-.248c.05-.165.026-.32-.057-.346-.082-.025-.19.088-.241.253-.052.165-.026.32.056.345.082.026.19-.087.242-.252"/><path fill="#000" d="M34.031 27.339a1.93 1.93 0 1 0 0-3.858 1.93 1.93 0 0 0 0 3.858"/><path fill="#fff" d="M34.552 25.045a.521.521 0 1 0 0-1.042.521.521 0 0 0 0 1.042"/><path fill="#7f4a41" d="M40.7 25.41s-.521.209-.626.26a2.5 2.5 0 0 1-.626-.26z"/><path fill="#efcca3" d="M36.9 25.306a17.7 17.7 0 0 0-2.711 2.346c-.938 1.2-.938 1.408-.938 1.408l.678.313a7.1 7.1 0 0 1 2.137-2.5c1.2-.678 1.355-1.251 1.355-1.251z"/><path fill="#ccac8d" d="M33.092 21.813a4.52 4.52 0 0 1-1.929 2.294 2.19 2.19 0 0 0 1.929-2.294m13.816 0a4.52 4.52 0 0 0 1.929 2.294 2.19 2.19 0 0 1-1.929-2.294m-3.598 3.023a5.16 5.16 0 0 0-3.076-1.408h.156a3.85 3.85 0 0 0-3.024 1.408 4.83 4.83 0 0 1 3.024-1.043c1.05.076 2.06.436 2.92 1.043m-1.564-2.867a2.46 2.46 0 0 0-1.564-.938h.156a1.79 1.79 0 0 0-1.512.938c.396-.416.939-.66 1.512-.678a1.9 1.9 0 0 1 1.408.678m-7.716 6.777a2.55 2.55 0 0 1-1.772.21h-.208a3.7 3.7 0 0 1-.886-1.513 2.27 2.27 0 0 0 2.867 1.303Zm12.096 0a2.55 2.55 0 0 0 1.773.21h-.209a1.75 1.75 0 0 0 1.095-1.513 2.02 2.02 0 0 1-2.659 1.303"/><path fill="#ccac8d" d="M35.23 21.709a4.75 4.75 0 0 1 2.242.1c.938.313.209 1.564.365 1.616a2.87 2.87 0 0 1 2.242-.73c1.773.1 1.981.886 2.242.73.261-.1-.261-2.19 2.45-1.72 0 0-2.763-.73-2.659 1.251a3.68 3.68 0 0 0-3.858-.1s.573-1.929-3.024-1.147M34.5 19s-2.4 2.972-2.711 4.118c-.365 1.147-.626 5.943-.938 6.621l-1.095-4.694 2.033-4.9zm11.156 0s2.4 2.972 2.711 4.118c.365 1.147.626 5.943.938 6.621l1.095-4.694-2.033-4.9z"/><path fill="#56332b" d="M45.5 19a11.6 11.6 0 0 1 3.284 4.588c.73 2.45.417 5.474.991 5.839.834.521 1.72-2.607 2.033-2.919.469-.521 2.085-1.877 2.19-2.137s-3.232-3.91-4.744-4.64c-1.669-.838-3.854-.942-3.754-.731"/><path fill="#442823" d="M47.69 20.3a15.4 15.4 0 0 1 2.972 8.654l1.2-2.45A16.6 16.6 0 0 0 47.69 20.3"/><path fill="#56332b" d="M34.5 19a11.6 11.6 0 0 0-3.284 4.588c-.73 2.45-.417 5.474-.99 5.839-.835.521-1.72-2.607-2.034-2.919-.469-.521-2.085-1.877-2.19-2.137s3.232-3.91 4.744-4.64c1.67-.838 3.854-.942 3.754-.731"/><path fill="#442823" d="M32.31 20.3a15.4 15.4 0 0 0-2.972 8.654L28.14 26.5a16.6 16.6 0 0 1 4.17-6.2"/><path fill="#ccac8d" d="M30.642 29.007c.082.555.277 1.087.573 1.564.365.365.1-.313.1-.313s-.365-.209-.313-1.72-.36.47-.36.47Zm18.768 0a4.1 4.1 0 0 1-.573 1.564c-.365.365-.1-.313-.1-.313s.365-.21.313-1.72c-.057-1.46.36.469.36.469"/><path fill="#442823" d="M37.889 28.277a.156.156 0 1 0 0-.312.156.156 0 0 0 0 .312m-1.043 1.095a.156.156 0 1 0 0-.312.156.156 0 0 0 0 .312m-.313-1.095a.156.156 0 1 0 0-.312.156.156 0 0 0 0 .312m5.631 0a.156.156 0 1 0 0-.312.156.156 0 0 0 0 .312m.99 1.095a.156.156 0 1 0 0-.312.156.156 0 0 0 0 .312m.313-1.095a.156.156 0 1 0 0-.312.156.156 0 0 0 0 .312"/><path fill="#e5e5e5" d="M30.973 61a.25.25 0 0 1-.184-.072.25.25 0 0 1-.072-.184v-6.656a.25.25 0 0 1 .072-.184.25.25 0 0 1 .184-.072h2.867q.85 0 1.475.266.634.255.983.779.357.522.358 1.32 0 .79-.358 1.3-.349.513-.983.759-.625.245-1.475.245h-1.219v2.243a.23.23 0 0 1-.082.184.25.25 0 0 1-.184.072zm1.618-3.912h1.198q.44 0 .696-.225.266-.225.266-.686a.98.98 0 0 0-.225-.655q-.225-.267-.737-.267H32.59zm6.889 4.014a2.05 2.05 0 0 1-1.044-.266 1.82 1.82 0 0 1-.707-.778q-.256-.522-.256-1.27v-2.857a.25.25 0 0 1 .072-.184.25.25 0 0 1 .184-.072h1.28a.25.25 0 0 1 .184.072.25.25 0 0 1 .072.184v2.796q0 1.003.901 1.003.42 0 .666-.256.255-.266.256-.747V55.93a.25.25 0 0 1 .071-.184.25.25 0 0 1 .185-.072h1.28a.25.25 0 0 1 .184.072.25.25 0 0 1 .072.184v4.813a.25.25 0 0 1-.072.184.25.25 0 0 1-.184.072h-1.188a.27.27 0 0 1-.184-.072.25.25 0 0 1-.072-.184v-.39a1.7 1.7 0 0 1-.697.564q-.42.184-1.003.184Zm7.215 2.15q-.788 0-1.31-.204a2.6 2.6 0 0 1-.82-.492 2 2 0 0 1-.43-.573q-.132-.276-.143-.44a.21.21 0 0 1 .072-.185.28.28 0 0 1 .194-.071h1.3a.27.27 0 0 1 .154.04.33.33 0 0 1 .113.165q.05.112.133.235a.64.64 0 0 0 .246.195q.165.081.44.082.308 0 .512-.103a.6.6 0 0 0 .307-.317q.103-.215.103-.584v-.686a1.8 1.8 0 0 1-.604.42 2.3 2.3 0 0 1-.891.153q-.523 0-.922-.153a1.65 1.65 0 0 1-.666-.461 2.3 2.3 0 0 1-.42-.748 4 4 0 0 1-.173-1.013 7 7 0 0 1 0-.533q.03-.553.174-.993a2.2 2.2 0 0 1 .41-.758q.276-.318.675-.481a2.3 2.3 0 0 1 .922-.174q.552 0 .942.215.4.204.655.522v-.379q0-.102.072-.174a.23.23 0 0 1 .184-.082h1.178q.112 0 .184.082a.22.22 0 0 1 .082.174v4.926q0 .778-.317 1.31a2.03 2.03 0 0 1-.912.81q-.594.276-1.444.276Zm-.071-3.696q.328 0 .532-.143a.82.82 0 0 0 .297-.369q.102-.225.113-.481.01-.112.01-.318 0-.204-.01-.307a1.3 1.3 0 0 0-.113-.491.76.76 0 0 0-.297-.359q-.205-.143-.532-.143-.339 0-.543.143a.83.83 0 0 0-.287.39 2.2 2.2 0 0 0-.102.542q-.01.225 0 .461.021.297.102.543a.83.83 0 0 0 .287.389q.204.143.543.143"/></g><defs><filter id="a" width="80" height="80" x="0" y="0" color-interpolation-filters="sRGB" filterUnits="userSpaceOnUse"><feFlood flood-opacity="0" result="BackgroundImageFix"/><feColorMatrix in="SourceAlpha" result="hardAlpha" values="0 0 0 0 0 0 0 0 0 0 0 0 0 0 0 0 0 0 127 0"/><feOffset dy="2"/><feGaussianBlur stdDeviation="4"/><feColorMatrix values="0 0 0 0 0 0 0 0 0 0 0 0 0 0 0 0 0 0 0.75 0"/><feBlend in2="BackgroundImageFix" result="effect1_dropShadow_602_412"/><feBlend in="SourceGraphic" in2="effect1_dropShadow_602_412" result="shape"/></filter></defs></svg>