<svg xmlns="http://www.w3.org/2000/svg" width="80" height="80" fill="none"><g filter="url(#a)"><rect width="64" height="64" x="8" y="6" fill="#212529" rx="5"/><path fill="#61dafb" d="M53.467 21.756c0-1.749-2.19-3.406-5.547-4.433.774-3.422.43-6.145-1.087-7.016-.35-.205-.759-.302-1.205-.302v1.2c.247 0 .446.049.613.14.732.42 1.05 2.018.801 4.073A17 17 0 0 1 46.768 17a26 26 0 0 0-3.416-.587 26.5 26.5 0 0 0-2.238-2.69c1.754-1.63 3.4-2.523 4.519-2.523V10c-1.48 0-3.416 1.055-5.375 2.884-1.958-1.819-3.895-2.863-5.375-2.863v1.2c1.114 0 2.766.888 4.52 2.508a25 25 0 0 0-2.222 2.684c-1.216.13-2.368.328-3.422.592a16 16 0 0 1-.28-1.56c-.253-2.055.06-3.653.785-4.078.162-.097.372-.14.62-.14v-1.2c-.453 0-.862.097-1.217.301-1.512.872-1.85 3.589-1.07 7-3.347 1.033-5.526 2.685-5.526 4.428 0 1.748 2.19 3.406 5.547 4.433-.775 3.422-.43 6.145 1.087 7.016.35.205.759.301 1.21.301 1.48 0 3.417-1.054 5.375-2.883 1.959 1.818 3.896 2.862 5.375 2.862.452 0 .861-.097 1.216-.301 1.512-.872 1.851-3.59 1.07-7 3.337-1.028 5.516-2.685 5.516-4.428m-7.005-3.589c-.2.694-.447 1.41-.727 2.125a29 29 0 0 0-1.48-2.55 24 24 0 0 1 2.207.425m-2.465 5.73a29 29 0 0 1-1.296 2.056 28 28 0 0 1-4.853.005 28 28 0 0 1-2.421-4.186 28.6 28.6 0 0 1 2.41-4.202 28 28 0 0 1 4.853-.005 28 28 0 0 1 2.421 4.186c-.339.72-.71 1.441-1.114 2.146m1.738-.7q.424 1.054.743 2.142a24 24 0 0 1-2.217.43 30 30 0 0 0 1.474-2.571ZM40.28 28.94q-.751-.777-1.495-1.722c.484.021.98.038 1.48.038q.76.001 1.495-.038a21 21 0 0 1-1.48 1.722m-4.002-3.17a24 24 0 0 1-2.206-.424c.199-.694.446-1.41.726-2.126.22.43.452.861.705 1.292q.38.645.775 1.259Zm3.976-11.196q.751.776 1.495 1.722a33 33 0 0 0-1.48-.038q-.759-.001-1.495.038.694-.9 1.48-1.722m-3.982 3.17a30 30 0 0 0-1.474 2.566 23 23 0 0 1-.742-2.142 26 26 0 0 1 2.216-.425Zm-4.869 6.735c-1.905-.812-3.137-1.877-3.137-2.722s1.232-1.915 3.137-2.723c.463-.199.969-.376 1.49-.543.307 1.055.71 2.152 1.211 3.277a25.5 25.5 0 0 0-1.194 3.26 16 16 0 0 1-1.507-.549m2.895 7.689c-.732-.42-1.05-2.018-.802-4.073.06-.506.156-1.039.274-1.582a26 26 0 0 0 3.417.587c.726.995 1.48 1.899 2.238 2.69-1.754 1.63-3.4 2.523-4.52 2.523a1.3 1.3 0 0 1-.607-.145m12.762-4.1c.253 2.055-.06 3.653-.786 4.078-.161.097-.371.14-.619.14-1.113 0-2.765-.888-4.519-2.507a25.4 25.4 0 0 0 2.222-2.685 25 25 0 0 0 3.422-.592q.188.816.28 1.566m2.071-3.589c-.463.2-.968.377-1.49.544a26 26 0 0 0-1.21-3.277 26 26 0 0 0 1.194-3.26q.8.25 1.511.549c1.905.812 3.137 1.877 3.137 2.722-.005.845-1.237 1.915-3.142 2.722"/><path fill="#61dafb" d="M40.264 24.215a2.459 2.459 0 1 0 0-4.918 2.459 2.459 0 0 0 0 4.918M28.27 37.74h-.812v1.398H27v-3.456h1.144q.584 0 .897.266.315.265.316.774a.93.93 0 0 1-.176.562q-.174.24-.484.358l.812 1.467v.029h-.49l-.75-1.398Zm-.812-.373h.7q.34 0 .539-.175a.6.6 0 0 0 .202-.47q0-.321-.193-.492-.19-.17-.55-.173h-.698zm3.536 1.818q-.522 0-.85-.342-.327-.343-.327-.918v-.08q0-.382.145-.682a1.14 1.14 0 0 1 .408-.47q.263-.17.57-.17.5 0 .778.33t.278.944v.183h-1.74q.01.38.22.614a.7.7 0 0 0 .542.233.76.76 0 0 0 .394-.095 1 1 0 0 0 .282-.252l.268.21q-.322.495-.968.495m-.054-2.302a.58.58 0 0 0-.447.195q-.18.192-.223.54h1.287v-.032q-.02-.335-.18-.518a.55.55 0 0 0-.437-.185m3.151 2.255a1 1 0 0 1-.061-.27.98.98 0 0 1-.731.317.91.91 0 0 1-.624-.213.7.7 0 0 1-.243-.546q0-.402.304-.622.306-.223.86-.223h.427v-.202a.5.5 0 0 0-.138-.365q-.138-.138-.406-.138a.64.64 0 0 0-.394.119q-.159.119-.159.287h-.441q0-.193.135-.37a.94.94 0 0 1 .37-.285q.235-.105.515-.105.444 0 .695.224.252.22.261.61v1.181q0 .354.09.563v.038zm-.728-.335a.8.8 0 0 0 .391-.107.65.65 0 0 0 .269-.277v-.527h-.345q-.807 0-.807.472a.4.4 0 0 0 .138.323.53.53 0 0 0 .354.116m2.817.024a.63.63 0 0 0 .41-.143.5.5 0 0 0 .195-.356h.415a.8.8 0 0 1-.152.42 1 1 0 0 1-.375.319 1.1 1.1 0 0 1-.493.118q-.525 0-.836-.349-.308-.35-.308-.959v-.073q0-.375.137-.667.138-.292.395-.453.258-.162.61-.162.43 0 .716.26a.92.92 0 0 1 .306.67h-.415a.6.6 0 0 0-.608-.569.62.62 0 0 0-.52.242q-.182.24-.182.696v.083q0 .443.183.683.182.24.522.24m2.11-2.879v.622h.479v.34h-.48v1.592q0 .153.065.232.063.076.218.076.075 0 .209-.028v.356a1.3 1.3 0 0 1-.337.047q-.294 0-.444-.178t-.15-.505v-1.593h-.467v-.34h.468v-.62h.439Zm4.924 3.19h-.458l-1.74-2.663v2.663h-.457v-3.456h.458l1.744 2.675v-2.675h.453zm2.326 0a1 1 0 0 1-.062-.27.98.98 0 0 1-.73.317.91.91 0 0 1-.625-.213.7.7 0 0 1-.242-.546q0-.402.304-.622.306-.223.859-.223h.427v-.202a.5.5 0 0 0-.138-.365q-.137-.138-.405-.138a.64.64 0 0 0-.394.119q-.16.119-.16.287h-.44q0-.193.135-.37a.94.94 0 0 1 .37-.285q.234-.105.515-.105.443 0 .695.224.252.22.261.61v1.181q0 .354.09.563v.038zm-.729-.335a.8.8 0 0 0 .392-.107.65.65 0 0 0 .268-.277v-.527h-.344q-.807 0-.807.472a.4.4 0 0 0 .138.323.53.53 0 0 0 .353.116m2.383-2.855v.622h.48v.34h-.48v1.592q0 .153.064.232.065.076.218.076.076 0 .21-.028v.356a1.3 1.3 0 0 1-.338.047q-.294 0-.444-.178t-.149-.505v-1.593h-.468v-.34h.468v-.62h.44Zm1.471 3.19h-.439V36.57h.44v2.568Zm-.474-3.25q0-.105.064-.18.067-.073.194-.073.128 0 .195.073a.26.26 0 0 1 .067.18.25.25 0 0 1-.067.179q-.066.07-.194.071t-.195-.071a.26.26 0 0 1-.064-.178Zm2.027 2.654.636-1.972h.448l-.92 2.568h-.335l-.93-2.568h.448zm2.539.643q-.522 0-.85-.342-.327-.343-.327-.918v-.08q0-.382.145-.682.147-.3.408-.47.262-.17.57-.17.5 0 .778.33.277.33.277.944v.183h-1.74q.01.38.222.614a.7.7 0 0 0 .54.233.77.77 0 0 0 .395-.095 1 1 0 0 0 .282-.252l.268.21q-.323.495-.968.495m-.055-2.302a.58.58 0 0 0-.446.195q-.18.192-.223.54h1.286v-.032q-.018-.335-.18-.518a.55.55 0 0 0-.437-.185"/><path fill="#e5e5e5" d="M28.801 55a.2.2 0 0 1-.147-.057.2.2 0 0 1-.058-.148v-5.323a.2.2 0 0 1 .058-.148.2.2 0 0 1 .147-.057h2.228q1.056 0 1.662.491.614.483.614 1.376 0 .582-.286.983-.279.402-.737.606l1.13 2.015a.2.2 0 0 1 .025.09q0 .066-.058.123a.17.17 0 0 1-.123.049h-1.08q-.156 0-.23-.074a.7.7 0 0 1-.107-.147l-.933-1.802h-.844v1.818a.2.2 0 0 1-.057.148.2.2 0 0 1-.147.057zm1.261-3.178h.95q.385 0 .574-.188.196-.189.196-.516a.72.72 0 0 0-.188-.516q-.18-.197-.582-.197h-.95zm6.016 3.26q-.966 0-1.54-.524-.572-.525-.597-1.556v-.287q.024-.647.286-1.106a1.76 1.76 0 0 1 .738-.704 2.4 2.4 0 0 1 1.105-.246q.72 0 1.188.287.475.286.712.778.238.492.238 1.122v.197q0 .09-.066.147a.2.2 0 0 1-.139.057h-2.62v.058q.007.237.081.434a.62.62 0 0 0 .606.426q.165 0 .27-.05a.9.9 0 0 0 .189-.122q.074-.074.114-.123a.4.4 0 0 1 .115-.098.34.34 0 0 1 .148-.025h1.015q.082 0 .131.05.057.04.05.122-.01.14-.14.336a1.7 1.7 0 0 1-.385.393q-.246.189-.622.311a2.8 2.8 0 0 1-.877.123m-.696-2.645h1.384v-.017q0-.262-.082-.459a.6.6 0 0 0-.237-.303.65.65 0 0 0-.377-.106.65.65 0 0 0-.377.106.7.7 0 0 0-.229.303 1.2 1.2 0 0 0-.082.46zm4.871 2.645a1.9 1.9 0 0 1-.794-.164 1.46 1.46 0 0 1-.549-.459 1.1 1.1 0 0 1-.205-.647q0-.58.475-.917.475-.344 1.262-.467l1.023-.155v-.115q0-.295-.123-.45-.122-.156-.45-.156a.7.7 0 0 0-.377.09.64.64 0 0 0-.22.246.24.24 0 0 1-.206.106h-.917a.2.2 0 0 1-.14-.049.17.17 0 0 1-.04-.13.7.7 0 0 1 .106-.337 1.5 1.5 0 0 1 .344-.385q.23-.188.59-.31.36-.124.868-.124.532 0 .91.123.376.123.605.344.238.222.352.524.115.295.115.656v2.49q0 .09-.065.147a.2.2 0 0 1-.14.057h-.95a.2.2 0 0 1-.147-.057.2.2 0 0 1-.057-.148v-.286a1.2 1.2 0 0 1-.287.286q-.18.132-.426.205a1.7 1.7 0 0 1-.557.082m.385-.934q.238 0 .426-.098a.7.7 0 0 0 .303-.32q.115-.22.115-.548v-.115l-.696.123q-.385.066-.566.205-.171.13-.172.311a.36.36 0 0 0 .082.237.6.6 0 0 0 .213.156q.132.05.295.05Zm5.126.934q-.606 0-1.073-.221a1.8 1.8 0 0 1-.745-.64 2 2 0 0 1-.295-1.015 5 5 0 0 1-.008-.327q0-.206.008-.336.024-.598.295-1.016.27-.426.737-.647a2.5 2.5 0 0 1 1.08-.22q.567 0 .967.163.402.156.655.393.255.238.377.492.13.245.14.434a.18.18 0 0 1-.058.147.22.22 0 0 1-.147.057h-1.04a.2.2 0 0 1-.14-.04.4.4 0 0 1-.09-.123q-.098-.255-.254-.36a.64.64 0 0 0-.385-.107q-.327 0-.507.213-.172.213-.189.655-.008.327 0 .581.017.451.189.656.18.204.507.204.254 0 .402-.106.147-.106.237-.36a.4.4 0 0 1 .09-.123.2.2 0 0 1 .14-.041h1.04q.081 0 .147.065a.16.16 0 0 1 .057.14 1.1 1.1 0 0 1-.082.327 1.84 1.84 0 0 1-.639.77 2.1 2.1 0 0 1-.597.278 2.8 2.8 0 0 1-.82.107ZM50.816 55a2.3 2.3 0 0 1-.91-.164 1.26 1.26 0 0 1-.58-.524q-.206-.36-.206-.925v-1.573h-.638a.23.23 0 0 1-.156-.057.2.2 0 0 1-.057-.148v-.663a.2.2 0 0 1 .057-.148.23.23 0 0 1 .156-.057h.638V49.39a.2.2 0 0 1 .058-.148.22.22 0 0 1 .147-.057h.95a.2.2 0 0 1 .148.057.2.2 0 0 1 .057.148v1.351h1.024a.2.2 0 0 1 .147.057.2.2 0 0 1 .057.148v.663a.2.2 0 0 1-.057.148.2.2 0 0 1-.147.057H50.48v1.458a.8.8 0 0 0 .106.442q.107.164.36.164h.631a.2.2 0 0 1 .148.057.2.2 0 0 1 .057.148v.712a.2.2 0 0 1-.057.148.2.2 0 0 1-.148.057zM27.569 65a.2.2 0 0 1-.147-.057.2.2 0 0 1-.058-.148v-5.323a.2.2 0 0 1 .058-.148.2.2 0 0 1 .147-.057h.868q.14 0 .197.066a.4.4 0 0 1 .082.09l1.998 3.153v-3.104a.2.2 0 0 1 .058-.148.2.2 0 0 1 .147-.057h.983a.2.2 0 0 1 .147.057.2.2 0 0 1 .057.148v5.323a.22.22 0 0 1-.057.148.2.2 0 0 1-.147.057h-.877q-.13 0-.196-.066a1 1 0 0 1-.074-.09l-1.998-3.03v2.981a.2.2 0 0 1-.058.148.2.2 0 0 1-.147.057zm6.87.082q-.443 0-.795-.164a1.46 1.46 0 0 1-.548-.459 1.1 1.1 0 0 1-.205-.647q0-.58.475-.917.474-.344 1.261-.467l1.024-.155v-.115q0-.296-.123-.45-.123-.156-.45-.156a.7.7 0 0 0-.377.09.64.64 0 0 0-.221.246.24.24 0 0 1-.205.106h-.917q-.09 0-.14-.049a.17.17 0 0 1-.04-.13q0-.149.106-.337a1.5 1.5 0 0 1 .344-.385q.23-.188.59-.31.36-.124.868-.124.532 0 .909.123.376.123.606.344.238.222.352.524.114.295.115.656v2.49q0 .09-.066.147a.2.2 0 0 1-.14.057h-.95a.2.2 0 0 1-.147-.057.2.2 0 0 1-.057-.148v-.286a1.2 1.2 0 0 1-.287.286q-.18.132-.425.205a1.7 1.7 0 0 1-.557.082m.385-.934q.237 0 .425-.098a.7.7 0 0 0 .303-.32q.115-.22.115-.548v-.115l-.696.123q-.385.066-.565.205-.172.13-.172.311 0 .14.082.237a.6.6 0 0 0 .213.156q.13.05.295.05Zm5.314.852a2.3 2.3 0 0 1-.909-.164 1.26 1.26 0 0 1-.581-.524q-.205-.36-.205-.925v-1.573h-.639a.23.23 0 0 1-.155-.057.2.2 0 0 1-.058-.148v-.663a.2.2 0 0 1 .058-.148.23.23 0 0 1 .155-.057h.639V59.39a.2.2 0 0 1 .057-.148.22.22 0 0 1 .148-.057h.95a.2.2 0 0 1 .147.057.2.2 0 0 1 .058.148v1.351h1.023a.2.2 0 0 1 .148.057.2.2 0 0 1 .057.148v.663a.2.2 0 0 1-.057.148.2.2 0 0 1-.148.057h-1.023v1.458q0 .279.106.442.106.164.36.164h.631a.2.2 0 0 1 .148.057.2.2 0 0 1 .057.148v.712a.2.2 0 0 1-.057.148.2.2 0 0 1-.148.057zm1.85 0a.2.2 0 0 1-.148-.057.2.2 0 0 1-.057-.148v-3.85a.2.2 0 0 1 .057-.147.2.2 0 0 1 .148-.057h.966a.2.2 0 0 1 .14.057.19.19 0 0 1 .065.148v3.85q0 .09-.066.147a.2.2 0 0 1-.139.057zm-.008-4.873a.2.2 0 0 1-.148-.057.2.2 0 0 1-.057-.148v-.729a.2.2 0 0 1 .057-.147.19.19 0 0 1 .148-.066h.974q.09 0 .148.066a.19.19 0 0 1 .065.147v.73q0 .09-.066.147a.2.2 0 0 1-.147.057zM45.633 65q-.123 0-.18-.057a.7.7 0 0 1-.099-.148l-1.548-3.8a.2.2 0 0 1-.016-.074q0-.074.049-.123a.2.2 0 0 1 .14-.057h.925q.106 0 .163.057a.3.3 0 0 1 .074.115l.925 2.515.934-2.515a.3.3 0 0 1 .074-.114q.057-.058.164-.058h.925q.075 0 .131.057a.16.16 0 0 1 .058.123.2.2 0 0 1-.017.074l-1.548 3.8a.4.4 0 0 1-.098.148q-.057.057-.188.057h-.869Zm5.16.082q-.965 0-1.539-.524-.573-.524-.598-1.556v-.287q.025-.647.287-1.106a1.76 1.76 0 0 1 .737-.704 2.4 2.4 0 0 1 1.106-.246q.72 0 1.187.287.475.286.713.778.237.492.237 1.122v.197q0 .09-.065.147a.2.2 0 0 1-.14.057H50.1v.058q.007.237.082.434a.62.62 0 0 0 .606.426.64.64 0 0 0 .27-.05.9.9 0 0 0 .188-.122q.075-.074.115-.123a.4.4 0 0 1 .114-.098.34.34 0 0 1 .148-.025h1.016a.17.17 0 0 1 .13.05q.058.04.05.122a.7.7 0 0 1-.14.336 1.7 1.7 0 0 1-.384.393q-.246.189-.623.311a2.8 2.8 0 0 1-.876.123Zm-.695-2.645h1.384v-.017q0-.262-.082-.459a.6.6 0 0 0-.238-.303.65.65 0 0 0-.376-.106.65.65 0 0 0-.377.106.7.7 0 0 0-.23.303 1.2 1.2 0 0 0-.081.46z"/></g><defs><filter id="a" width="80" height="80" x="0" y="0" color-interpolation-filters="sRGB" filterUnits="userSpaceOnUse"><feFlood flood-opacity="0" result="BackgroundImageFix"/><feColorMatrix in="SourceAlpha" result="hardAlpha" values="0 0 0 0 0 0 0 0 0 0 0 0 0 0 0 0 0 0 127 0"/><feOffset dy="2"/><feGaussianBlur stdDeviation="4"/><feColorMatrix values="0 0 0 0 0 0 0 0 0 0 0 0 0 0 0 0 0 0 0.75 0"/><feBlend in2="BackgroundImageFix" result="effect1_dropShadow_602_1879"/><feBlend in="SourceGraphic" in2="effect1_dropShadow_602_1879" result="shape"/></filter></defs></svg>