<svg xmlns="http://www.w3.org/2000/svg" width="80" height="80" fill="none"><g filter="url(#a)"><rect width="64" height="64" x="8" y="6" fill="#212529" rx="5"/><path fill="#764abc" d="M45.787 32.556a2.114 2.114 0 0 0 1.909-2.177c-.038-1.126-.993-2.027-2.138-2.027h-.077a2.115 2.115 0 0 0-2.061 2.177 2.14 2.14 0 0 0 .61 1.389c-1.297 2.515-3.282 4.354-6.26 5.893-2.024 1.05-4.123 1.426-6.223 1.163-1.718-.225-3.054-.976-3.894-2.214-1.222-1.84-1.336-3.829-.305-5.818.725-1.426 1.87-2.477 2.596-3.003a20 20 0 0 1-.497-1.914c-5.535 3.941-4.962 9.27-3.283 11.786 1.26 1.876 3.818 3.04 6.643 3.04.763 0 1.527-.075 2.29-.263 4.887-.938 8.59-3.79 10.69-8.032m6.719-4.654c-2.901-3.34-7.177-5.18-12.064-5.18h-.61a2.1 2.1 0 0 0-1.871-1.126h-.077a2.115 2.115 0 0 0-2.061 2.177c.038 1.126.992 2.027 2.138 2.027h.076a2.15 2.15 0 0 0 1.87-1.276h.688c2.901 0 5.65.825 8.132 2.44 1.908 1.238 3.283 2.852 4.046 4.804.65 1.576.61 3.115-.076 4.429-1.07 1.989-2.863 3.077-5.23 3.077-1.527 0-2.978-.45-3.742-.788a23 23 0 0 1-1.718 1.352C43.65 40.587 45.33 41 46.932 41c3.665 0 6.376-1.99 7.406-3.979 1.107-2.177 1.031-5.93-1.832-9.12Zm-19.394 5.292c.038 1.126.993 2.027 2.138 2.027h.077a2.115 2.115 0 0 0 2.061-2.177c-.038-1.126-.993-2.027-2.138-2.027h-.076c-.077 0-.191 0-.267.037-1.566-2.552-2.215-5.33-1.985-8.332.152-2.252.916-4.204 2.252-5.818 1.107-1.389 3.245-2.064 4.696-2.101 4.046-.076 5.764 4.879 5.879 6.868.496.113 1.336.376 1.908.563-.458-6.08-4.275-9.233-7.94-9.233-3.436 0-6.605 2.44-7.865 6.043-1.756 4.804-.61 9.42 1.527 13.061-.19.263-.305.676-.267 1.089"/><path fill="#e5e5e5" d="M24.473 61a.25.25 0 0 1-.184-.072.25.25 0 0 1-.072-.184v-6.656a.25.25 0 0 1 .072-.184.25.25 0 0 1 .184-.072h2.785q1.32 0 2.079.614.768.605.768 1.72 0 .727-.359 1.23a2.2 2.2 0 0 1-.921.757l1.413 2.52q.03.06.03.112a.22.22 0 0 1-.071.154.2.2 0 0 1-.154.061h-1.351q-.195 0-.287-.092a1 1 0 0 1-.133-.184l-1.167-2.253H26.05v2.273a.25.25 0 0 1-.072.184.25.25 0 0 1-.184.072zm1.577-3.973h1.188q.481 0 .716-.236.246-.235.246-.645 0-.399-.235-.645-.226-.246-.727-.246H26.05zm7.522 4.075q-1.21 0-1.925-.655-.717-.655-.748-1.946v-.358q.03-.81.358-1.382.339-.584.922-.881.594-.307 1.383-.307.9 0 1.484.358.594.359.891.973t.297 1.403v.246a.23.23 0 0 1-.082.184.24.24 0 0 1-.174.072h-3.277v.071q.01.298.103.543a.77.77 0 0 0 .758.532.8.8 0 0 0 .337-.06q.144-.073.236-.155a2 2 0 0 0 .143-.153.5.5 0 0 1 .144-.123q.06-.03.184-.03h1.27q.102 0 .164.06.071.052.061.154-.01.174-.174.42a2.2 2.2 0 0 1-.481.492 2.6 2.6 0 0 1-.779.389 3.6 3.6 0 0 1-1.095.153m-.87-3.307h1.73v-.02q0-.329-.102-.574a.75.75 0 0 0-.297-.379.8.8 0 0 0-.471-.133.8.8 0 0 0-.471.133.86.86 0 0 0-.287.379 1.5 1.5 0 0 0-.103.573zm6.479 3.307a2.5 2.5 0 0 1-.891-.153 1.95 1.95 0 0 1-.676-.471 2.3 2.3 0 0 1-.43-.758 3.6 3.6 0 0 1-.174-1.024 7 7 0 0 1 0-.717q.021-.553.174-.993t.43-.758a1.8 1.8 0 0 1 .676-.481q.4-.174.89-.174a2.05 2.05 0 0 1 1.506.604v-2.191a.25.25 0 0 1 .072-.185.25.25 0 0 1 .184-.071h1.25q.102 0 .173.071.082.072.082.185v6.758a.23.23 0 0 1-.082.184.24.24 0 0 1-.174.072h-1.157a.25.25 0 0 1-.184-.072.25.25 0 0 1-.072-.184v-.328a1.9 1.9 0 0 1-.635.492q-.39.194-.962.194m.553-1.372q.348 0 .542-.143a.9.9 0 0 0 .297-.39q.103-.234.113-.511a8 8 0 0 0 0-.768 1.2 1.2 0 0 0-.113-.471.83.83 0 0 0-.307-.359q-.205-.143-.532-.143-.339 0-.543.143a.77.77 0 0 0-.277.39 2.2 2.2 0 0 0-.102.542q-.03.318 0 .635.021.297.102.543a.77.77 0 0 0 .277.389q.204.143.543.143m5.876 1.372a2.05 2.05 0 0 1-1.044-.266 1.82 1.82 0 0 1-.707-.778q-.256-.522-.256-1.27v-2.857a.25.25 0 0 1 .072-.184.25.25 0 0 1 .184-.072h1.28a.25.25 0 0 1 .184.072.25.25 0 0 1 .072.184v2.796q0 1.003.901 1.003.42 0 .666-.256.256-.266.256-.747V55.93a.25.25 0 0 1 .071-.184.25.25 0 0 1 .185-.072h1.28a.25.25 0 0 1 .184.072.25.25 0 0 1 .072.184v4.813a.25.25 0 0 1-.072.184.25.25 0 0 1-.184.072h-1.188a.27.27 0 0 1-.184-.072.25.25 0 0 1-.072-.184v-.39a1.7 1.7 0 0 1-.697.564q-.42.184-1.003.184ZM50 61a.25.25 0 0 1-.165-.061.25.25 0 0 1-.05-.236.2.2 0 0 1 .04-.092l1.71-2.345-1.556-2.202a1 1 0 0 1-.052-.082.3.3 0 0 1-.01-.081q0-.093.072-.154a.23.23 0 0 1 .164-.072h1.249q.134 0 .195.062a.5.5 0 0 1 .102.112l.952 1.321.942-1.31q.042-.052.103-.113.071-.072.205-.072h1.198q.091 0 .153.072.072.06.072.154a.3.3 0 0 1-.01.081.2.2 0 0 1-.041.082l-1.598 2.202 1.73 2.345a.2.2 0 0 1 .052.082q.01.04.01.082a.226.226 0 0 1-.235.225h-1.3q-.124 0-.185-.051a1 1 0 0 1-.102-.113l-1.035-1.403-1.044 1.403-.103.103q-.06.06-.194.061z"/></g><defs><filter id="a" width="80" height="80" x="0" y="0" color-interpolation-filters="sRGB" filterUnits="userSpaceOnUse"><feFlood flood-opacity="0" result="BackgroundImageFix"/><feColorMatrix in="SourceAlpha" result="hardAlpha" values="0 0 0 0 0 0 0 0 0 0 0 0 0 0 0 0 0 0 127 0"/><feOffset dy="2"/><feGaussianBlur stdDeviation="4"/><feColorMatrix values="0 0 0 0 0 0 0 0 0 0 0 0 0 0 0 0 0 0 0.75 0"/><feBlend in2="BackgroundImageFix" result="effect1_dropShadow_603_616"/><feBlend in="SourceGraphic" in2="effect1_dropShadow_603_616" result="shape"/></filter></defs></svg>