<svg xmlns="http://www.w3.org/2000/svg" width="80" height="80" fill="none"><g filter="url(#a)"><rect width="64" height="64" x="8" y="6" fill="#212529" rx="5"/><path fill="url(#b)" d="M50.713 22.22a9.15 9.15 0 0 0-1.193-4.535c-2.016-2.075-6.4-2.556-7.492-.01-1.119 2.61 1.88 5.514 3.19 5.284 1.667-.294-.295-4.12-.295-4.12 2.551 4.807 1.962 3.335-2.649 7.751s-9.32 13.732-10.008 14.125a1 1 0 0 1-.093.05h18.088a.43.43 0 0 0 .383-.624l-4.729-9.36a.43.43 0 0 1 .167-.565 9.21 9.21 0 0 0 4.631-7.997Z"/><path fill="url(#c)" d="M50.713 22.22a9.15 9.15 0 0 0-1.193-4.535c-2.016-2.075-6.4-2.556-7.492-.01-1.119 2.61 1.88 5.514 3.19 5.284 1.667-.294-.295-4.12-.295-4.12 2.551 4.807 1.962 3.335-2.649 7.751s-9.32 13.732-10.008 14.125a1 1 0 0 1-.093.05h18.088a.43.43 0 0 0 .383-.624l-4.729-9.36a.43.43 0 0 1 .167-.565 9.21 9.21 0 0 0 4.631-7.997Z"/><path fill="url(#d)" d="M32.266 40.715c.687-.392 5.4-9.714 10.008-14.13s5.2-2.944 2.649-7.752c0 0-9.763 13.688-13.3 20.458"/><path fill="url(#e)" d="M33.639 28.449C40.233 16.326 41.1 15.1 44.531 15.1a6.25 6.25 0 0 1 4.8 2.262A9.21 9.21 0 0 0 41.636 13h-11.2a.427.427 0 0 0-.427.427V36a68 68 0 0 1 3.63-7.551"/><path fill="url(#f)" d="M42.274 26.585C37.662 31 32.953 40.322 32.266 40.715a2.08 2.08 0 0 1-2.453-.245c-.653-.73-1.668-1.913 3.827-12.02C40.233 16.326 41.1 15.1 44.53 15.1a6.25 6.25 0 0 1 4.8 2.262c.065.1.129.211.192.32-2.016-2.076-6.4-2.557-7.492-.01-1.12 2.61 1.879 5.513 3.189 5.283 1.668-.294-.294-4.12-.294-4.12 2.55 4.806 1.96 3.334-2.651 7.75"/><path fill="url(#g)" d="M34.179 28.99c6.594-12.124 7.457-13.346 10.892-13.346a6.3 6.3 0 0 1 4.121 1.556 6.26 6.26 0 0 0-4.661-2.1c-3.434 0-4.3 1.222-10.892 13.345-5.494 10.111-4.479 11.293-3.826 12.024q.14.153.314.265c-.574-.834-.827-2.772 4.052-11.745Z" opacity=".3"/><path fill="#e5e5e5" d="M24.473 61a.25.25 0 0 1-.184-.072.25.25 0 0 1-.072-.184v-6.656a.25.25 0 0 1 .072-.184.25.25 0 0 1 .184-.072h2.785q1.32 0 2.079.614.768.605.768 1.72 0 .727-.359 1.23a2.2 2.2 0 0 1-.921.757l1.413 2.52q.03.06.03.112a.22.22 0 0 1-.071.154.2.2 0 0 1-.154.061h-1.351q-.195 0-.287-.092a1 1 0 0 1-.133-.184l-1.167-2.253H26.05v2.273a.25.25 0 0 1-.072.184.25.25 0 0 1-.184.072zm1.577-3.973h1.188q.481 0 .716-.236.246-.235.246-.645 0-.399-.235-.645-.226-.246-.727-.246H26.05zm7.583 4.075q-.86 0-1.454-.276a2.1 2.1 0 0 1-.901-.789q-.307-.521-.348-1.239a9 9 0 0 1 0-.921q.04-.727.369-1.24.327-.51.91-.788.595-.276 1.424-.276.84 0 1.424.276.593.277.921.789.328.511.369 1.239a9 9 0 0 1 0 .922q-.041.716-.359 1.238a2 2 0 0 1-.9.789q-.584.276-1.455.276m0-1.249q.461 0 .666-.276.215-.277.246-.83.01-.153.01-.41 0-.255-.01-.409-.03-.543-.246-.82-.206-.285-.666-.286-.45 0-.665.287-.215.276-.236.819-.01.153-.01.41 0 .255.01.41.02.552.236.829.215.276.665.276M37.62 61a.25.25 0 0 1-.184-.072.25.25 0 0 1-.072-.184v-6.758a.25.25 0 0 1 .072-.185.25.25 0 0 1 .184-.071h1.209a.25.25 0 0 1 .184.071.25.25 0 0 1 .072.185v6.758a.25.25 0 0 1-.072.184.25.25 0 0 1-.184.072zm2.93 0a.25.25 0 0 1-.184-.072.25.25 0 0 1-.072-.184v-6.758a.25.25 0 0 1 .072-.185.25.25 0 0 1 .184-.071h1.209a.25.25 0 0 1 .184.071.25.25 0 0 1 .072.185v6.758a.25.25 0 0 1-.072.184.25.25 0 0 1-.184.072zm4.63.102a2.05 2.05 0 0 1-1.044-.266 1.8 1.8 0 0 1-.707-.778q-.256-.523-.256-1.27v-2.857a.25.25 0 0 1 .072-.184.25.25 0 0 1 .184-.072h1.28a.25.25 0 0 1 .184.072.25.25 0 0 1 .072.184v2.796q0 1.003.901 1.003.42 0 .666-.256.255-.266.256-.747V55.93a.25.25 0 0 1 .071-.184.25.25 0 0 1 .185-.072h1.28a.25.25 0 0 1 .184.072.25.25 0 0 1 .072.184v4.813a.25.25 0 0 1-.072.184.25.25 0 0 1-.184.072h-1.188a.27.27 0 0 1-.184-.072.25.25 0 0 1-.072-.184v-.39a1.7 1.7 0 0 1-.697.564q-.42.184-1.003.184Zm4.86 1.844a.25.25 0 0 1-.184-.072.25.25 0 0 1-.072-.184v-6.76a.25.25 0 0 1 .072-.184.25.25 0 0 1 .184-.072h1.157q.103 0 .174.072.082.072.082.184v.38q.235-.319.625-.523.39-.215.962-.215.513 0 .902.164.388.154.665.46t.43.748q.164.44.185 1.014a8 8 0 0 1 0 .758 3.4 3.4 0 0 1-.175.993 2.2 2.2 0 0 1-.43.747q-.277.307-.675.482-.39.163-.901.163a2.1 2.1 0 0 1-.881-.174 1.7 1.7 0 0 1-.615-.512v2.274a.25.25 0 0 1-.071.184.25.25 0 0 1-.185.072zm2.447-3.216q.349 0 .543-.143a.77.77 0 0 0 .277-.39q.092-.245.112-.542a5 5 0 0 0 0-.635 2 2 0 0 0-.112-.543.77.77 0 0 0-.277-.389q-.194-.143-.543-.143-.338 0-.542.154a.8.8 0 0 0-.297.378 1.6 1.6 0 0 0-.103.512 7 7 0 0 0 0 .768q.01.257.113.482a.9.9 0 0 0 .307.358.94.94 0 0 0 .522.133"/></g><defs><linearGradient id="b" x1="37.146" x2="44.701" y1="27.913" y2="29.679" gradientUnits="userSpaceOnUse"><stop stop-color="#ff6533"/><stop offset=".157" stop-color="#ff5633"/><stop offset=".434" stop-color="#ff4333"/><stop offset=".714" stop-color="#ff3733"/><stop offset="1" stop-color="#f33"/></linearGradient><linearGradient id="c" x1="35.963" x2="49.504" y1="25.409" y2="35.908" gradientUnits="userSpaceOnUse"><stop stop-color="#bf3338"/><stop offset="1" stop-color="#f33"/></linearGradient><linearGradient id="d" x1="36.406" x2="38.368" y1="27.476" y2="29.536" gradientUnits="userSpaceOnUse"><stop stop-color="#ff6533"/><stop offset=".157" stop-color="#ff5633"/><stop offset=".434" stop-color="#ff4333"/><stop offset=".714" stop-color="#ff3733"/><stop offset="1" stop-color="#f33"/></linearGradient><linearGradient id="e" x1="39.974" x2="39.385" y1="31.023" y2="22.584" gradientUnits="userSpaceOnUse"><stop stop-color="#ff6533"/><stop offset=".157" stop-color="#ff5633"/><stop offset=".434" stop-color="#ff4333"/><stop offset=".714" stop-color="#ff3733"/><stop offset="1" stop-color="#f33"/></linearGradient><linearGradient id="f" x1="37.423" x2="40.211" y1="27.331" y2="29.227" gradientUnits="userSpaceOnUse"><stop stop-color="#fbb040"/><stop offset="1" stop-color="#fb8840"/></linearGradient><linearGradient id="g" x1="40.279" x2="37.434" y1="16.614" y2="47.915" gradientUnits="userSpaceOnUse"><stop stop-color="#fff"/><stop offset="1" stop-color="#fff" stop-opacity="0"/></linearGradient><filter id="a" width="80" height="80" x="0" y="0" color-interpolation-filters="sRGB" filterUnits="userSpaceOnUse"><feFlood flood-opacity="0" result="BackgroundImageFix"/><feColorMatrix in="SourceAlpha" result="hardAlpha" values="0 0 0 0 0 0 0 0 0 0 0 0 0 0 0 0 0 0 127 0"/><feOffset dy="2"/><feGaussianBlur stdDeviation="4"/><feColorMatrix values="0 0 0 0 0 0 0 0 0 0 0 0 0 0 0 0 0 0 0.75 0"/><feBlend in2="BackgroundImageFix" result="effect1_dropShadow_602_1072"/><feBlend in="SourceGraphic" in2="effect1_dropShadow_602_1072" result="shape"/></filter></defs></svg>