<svg xmlns="http://www.w3.org/2000/svg" width="80" height="80" fill="none"><g filter="url(#a)"><rect width="64" height="64" x="8" y="6" fill="#212529" rx="5"/><path fill="#8c3123" d="m28.916 16.542-2.129 1.065v18.686l2.129 1.058.013-.015v-20.78z"/><path fill="#e05243" d="M40.31 34.639 28.916 37.35V16.542l11.394 2.653z"/><path fill="#8c3123" d="m35.167 30.392 4.833.616.03-.07.027-7.925-.057-.062-4.833.607z"/><path fill="#8c3123" d="m40 34.67 11.083 2.687.017-.028V16.561l-.017-.019-11.084 2.683V34.67Z"/><path fill="#e05243" d="m44.834 30.392-4.835.616V22.95l4.835.607v6.834Z"/><path fill="#5e1f18" d="M44.834 20.252 40 21.134l-4.833-.882 4.826-1.265 4.84 1.265Z"/><path fill="#f2b0a9" d="M44.834 33.69 40 32.801l-4.833.887 4.827 1.347 4.84-1.347Z"/><path fill="#8c3123" d="M35.167 20.252 40 19.056l.039-.012v-8.012l-.04-.032-4.832 2.417z"/><path fill="#e05243" d="m44.834 20.252-4.835-1.196V11l4.835 2.417z"/><path fill="#8c3123" d="m40 42.94-4.834-2.415V33.69L40 34.885l.07.08-.019 7.836z"/><path fill="#e05243" d="m40 42.94 4.833-2.415V33.69L40 34.885zm11.083-26.398 2.13 1.065v18.686l-2.13 1.064z"/><path fill="#e5e5e5" d="M36.39 61.102q-1.025 0-1.7-.286-.676-.297-1.024-.768a1.78 1.78 0 0 1-.369-1.004q0-.081.061-.143a.23.23 0 0 1 .164-.072h1.29a.37.37 0 0 1 .216.051.5.5 0 0 1 .143.133q.082.154.225.297.154.143.39.236.244.082.603.082.594 0 .891-.184.307-.184.307-.502a.47.47 0 0 0-.163-.369q-.164-.153-.533-.266a8 8 0 0 0-.962-.246 6.3 6.3 0 0 1-1.332-.42q-.542-.266-.829-.686-.287-.43-.287-1.065 0-.624.348-1.116.359-.492.994-.768t1.505-.276q.706 0 1.239.184.543.185.911.491.369.308.553.656.195.338.205.665 0 .082-.061.154a.2.2 0 0 1-.154.061H37.67a.4.4 0 0 1-.194-.04.4.4 0 0 1-.144-.134q-.06-.225-.327-.389-.256-.174-.676-.174-.45 0-.707.164-.245.154-.245.481a.53.53 0 0 0 .133.359q.143.152.46.266.329.113.892.235.931.174 1.505.44.573.257.84.677.266.409.266 1.034 0 .696-.4 1.208-.389.502-1.085.768-.696.267-1.598.266m6.718 0q-.798 0-1.362-.184a2.9 2.9 0 0 1-.922-.491 2.2 2.2 0 0 1-.532-.646 1.6 1.6 0 0 1-.184-.665q0-.093.061-.154a.25.25 0 0 1 .164-.061h1.331q.123 0 .195.051a.4.4 0 0 1 .133.143q.082.195.235.318.165.123.39.174.225.04.491.04.522 0 .809-.235a.82.82 0 0 0 .297-.665q0-.44-.277-.625-.276-.194-.788-.194h-1.137a.25.25 0 0 1-.184-.072.25.25 0 0 1-.072-.184v-.574a.44.44 0 0 1 .164-.348l1.68-1.423h-2.847a.27.27 0 0 1-.184-.072.25.25 0 0 1-.072-.184v-.963a.25.25 0 0 1 .072-.184.27.27 0 0 1 .184-.072h4.71a.25.25 0 0 1 .184.072.23.23 0 0 1 .082.184v.87a.4.4 0 0 1-.05.205.6.6 0 0 1-.113.133l-1.557 1.444.072.02q.584.072 1.044.318.461.235.727.666.267.43.267 1.095 0 .697-.4 1.209-.39.502-1.065.778t-1.546.276"/></g><defs><filter id="a" width="80" height="80" x="0" y="0" color-interpolation-filters="sRGB" filterUnits="userSpaceOnUse"><feFlood flood-opacity="0" result="BackgroundImageFix"/><feColorMatrix in="SourceAlpha" result="hardAlpha" values="0 0 0 0 0 0 0 0 0 0 0 0 0 0 0 0 0 0 127 0"/><feOffset dy="2"/><feGaussianBlur stdDeviation="4"/><feColorMatrix values="0 0 0 0 0 0 0 0 0 0 0 0 0 0 0 0 0 0 0.75 0"/><feBlend in2="BackgroundImageFix" result="effect1_dropShadow_603_1553"/><feBlend in="SourceGraphic" in2="effect1_dropShadow_603_1553" result="shape"/></filter></defs></svg>