<svg xmlns="http://www.w3.org/2000/svg" width="80" height="80" fill="none"><g filter="url(#a)"><rect width="64" height="64" x="8" y="6" fill="#212529" rx="5"/><path fill="#cd6799" d="M50.11 28.572a5.8 5.8 0 0 0-2.537.588 5.4 5.4 0 0 1-.568-1.314 3.5 3.5 0 0 1-.051-1.1 10 10 0 0 1 .332-1.192c-.005-.051-.061-.292-.624-.3s-1.048.107-1.1.256q-.147.408-.235.834a19.7 19.7 0 0 1-1.713 3.294 3.2 3.2 0 0 1-.44-2.066 10 10 0 0 1 .332-1.192c-.005-.051-.061-.292-.624-.3s-1.048.107-1.1.256-.118.5-.235.834-1.483 3.386-1.841 4.173a27 27 0 0 1-.628 1.279v.005c-.077.138-.16.266-.2.266a1.7 1.7 0 0 1 .01-.869c.2-1.059.69-2.705.685-2.762 0-.031.092-.317-.317-.465a.51.51 0 0 0-.578.1c-.036 0-.061.087-.061.087s.445-1.851-.85-1.851a3.86 3.86 0 0 0-2.474 1.683c-.348.189-1.09.593-1.882 1.028-.3.169-.614.338-.905.5-.02-.02-.041-.046-.061-.066-1.575-1.678-4.47-2.862-4.345-5.107.046-.818.327-2.966 5.559-5.575 4.306-2.122 7.733-1.534 8.326-.23.849 1.862-1.836 5.319-6.285 5.82a3.35 3.35 0 0 1-2.813-.711c-.235-.256-.271-.271-.358-.22-.143.077-.051.307 0 .44a2.63 2.63 0 0 0 1.606 1.263 8.55 8.55 0 0 0 5.217-.517c2.7-1.043 4.8-3.943 4.184-6.372-.62-2.465-4.71-3.278-8.582-1.9a19.5 19.5 0 0 0-6.595 3.783c-2.133 1.995-2.47 3.728-2.332 4.455.5 2.578 4.05 4.255 5.472 5.5l-.194.107c-.711.353-3.421 1.77-4.1 3.268-.767 1.7.123 2.915.71 3.079a4.37 4.37 0 0 0 4.71-1.908 4.72 4.72 0 0 0 .424-4.353.1.1 0 0 0-.02-.031l.557-.327a27 27 0 0 1 1.028-.578 6.7 6.7 0 0 0-.363 1.862c-.07.973.227 1.937.834 2.7a.92.92 0 0 0 .675.22c.6 0 .875-.5 1.176-1.094.368-.726.7-1.57.7-1.57s-.414 2.281.71 2.281c.41 0 .824-.532 1.009-.8v.005s.01-.015.03-.051l.067-.107v-.01c.164-.286.532-.936 1.079-2.015.706-1.391 1.386-3.13 1.386-3.13q.099.574.27 1.13.248.674.584 1.309c-.164.23-.266.358-.266.358l.005.005c-.133.174-.276.363-.435.547a16 16 0 0 0-1.314 1.647.447.447 0 0 0 .123.6c.21.11.45.15.685.113.353-.02.7-.1 1.028-.235a3.5 3.5 0 0 0 .885-.465 1.98 1.98 0 0 0 .849-1.744 3.5 3.5 0 0 0-.322-1.233q.075-.107.148-.215a23 23 0 0 0 1.534-2.649q.099.574.27 1.13.206.583.5 1.125a4.86 4.86 0 0 0-1.496 1.922c-.322.931-.072 1.35.4 1.447.258.018.516-.035.747-.153a3.4 3.4 0 0 0 .946-.486 2.13 2.13 0 0 0 1.043-1.729 3.3 3.3 0 0 0-.235-1.023 5.36 5.36 0 0 1 2.716-.312c2.434.286 2.915 1.805 2.823 2.445a1.62 1.62 0 0 1-.772 1.094c-.17.107-.225.143-.21.22.02.113.1.107.245.087A1.9 1.9 0 0 0 54 31.7c.077-1.5-1.355-3.145-3.887-3.13zM31.33 34.9c-.808.88-1.933 1.212-2.42.931-.521-.3-.316-1.6.676-2.532a13 13 0 0 1 1.9-1.417c.118-.072.292-.174.5-.3l.056-.031.123-.077a3.5 3.5 0 0 1-.835 3.426m5.88-4c-.28.685-.868 2.44-1.226 2.342-.307-.082-.5-1.412-.061-2.726a6.2 6.2 0 0 1 .956-1.754c.44-.491.926-.655 1.043-.455a9 9 0 0 1-.711 2.593Zm4.854 2.322c-.118.061-.23.1-.281.072-.036-.02.05-.1.05-.1s.61-.655.85-.951c.138-.174.3-.378.476-.609v.066c0 .782-.757 1.309-1.094 1.524zm3.744-.854c-.087-.061-.072-.266.22-.905a3.4 3.4 0 0 1 .834-1.074q.08.228.082.471a1.55 1.55 0 0 1-1.135 1.509z"/><path fill="#e5e5e5" d="M30.89 61.102q-1.025 0-1.7-.286-.676-.297-1.024-.768a1.8 1.8 0 0 1-.369-1.004q0-.081.061-.143a.23.23 0 0 1 .164-.072h1.29a.37.37 0 0 1 .215.051.5.5 0 0 1 .144.133q.082.154.225.297.154.143.39.236.245.082.603.082.594 0 .891-.184.307-.184.307-.502a.47.47 0 0 0-.163-.369q-.165-.153-.533-.266a8 8 0 0 0-.962-.246 6.3 6.3 0 0 1-1.332-.42q-.542-.266-.829-.686-.287-.43-.287-1.065 0-.624.348-1.116.359-.492.994-.768t1.505-.276q.706 0 1.239.184.543.185.911.491.369.308.553.656.195.338.205.665 0 .082-.061.154a.2.2 0 0 1-.154.061H32.17a.4.4 0 0 1-.194-.04.4.4 0 0 1-.144-.134q-.06-.225-.327-.389-.256-.174-.676-.174-.45 0-.707.164-.245.154-.245.481a.53.53 0 0 0 .133.359q.143.152.46.266.33.113.891.235.932.174 1.506.44.573.257.84.677.266.409.266 1.034 0 .696-.4 1.208-.389.502-1.085.768-.696.267-1.598.266m5.592 0q-.553 0-.994-.204a1.8 1.8 0 0 1-.686-.574 1.36 1.36 0 0 1-.256-.809q0-.727.594-1.147.594-.43 1.577-.583l1.28-.195v-.143q0-.369-.154-.564-.153-.194-.563-.194a.9.9 0 0 0-.47.113.8.8 0 0 0-.277.307.3.3 0 0 1-.256.133H35.13a.24.24 0 0 1-.174-.061.2.2 0 0 1-.051-.164q0-.184.133-.42.143-.246.43-.482.287-.235.737-.389.45-.153 1.086-.153.665 0 1.136.153.471.154.758.43.297.277.44.656.144.369.144.819v3.113a.23.23 0 0 1-.082.184.24.24 0 0 1-.174.072h-1.188a.25.25 0 0 1-.184-.072.25.25 0 0 1-.072-.184v-.358a1.5 1.5 0 0 1-.359.358 1.7 1.7 0 0 1-.532.256q-.297.102-.696.102m.48-1.167q.298 0 .533-.123a.9.9 0 0 0 .38-.4 1.5 1.5 0 0 0 .143-.685v-.144l-.87.154q-.483.082-.707.256-.215.164-.215.39a.45.45 0 0 0 .102.296.7.7 0 0 0 .266.195q.164.06.369.061Zm6.153 1.167q-.665 0-1.136-.143a2.8 2.8 0 0 1-.758-.369 1.7 1.7 0 0 1-.43-.44q-.143-.235-.154-.4a.21.21 0 0 1 .072-.184.25.25 0 0 1 .174-.082h1.168a.1.1 0 0 1 .05.01l.062.042q.134.071.266.184.135.102.308.184a1 1 0 0 0 .42.082.95.95 0 0 0 .48-.112.37.37 0 0 0 .195-.338q0-.164-.092-.267-.092-.112-.379-.215a5.4 5.4 0 0 0-.84-.204 4.4 4.4 0 0 1-.931-.318 1.6 1.6 0 0 1-.615-.522 1.4 1.4 0 0 1-.215-.789q0-.409.267-.788.266-.379.778-.614.512-.246 1.26-.246.593 0 1.023.143.441.133.738.348.306.215.46.44t.164.41a.24.24 0 0 1-.061.185.23.23 0 0 1-.164.071H44.16a.3.3 0 0 1-.082-.01l-.072-.041a1.3 1.3 0 0 1-.245-.164 1.5 1.5 0 0 0-.287-.184.9.9 0 0 0-.41-.082q-.276 0-.43.123a.41.41 0 0 0-.072.563q.093.112.359.205.277.092.85.205.706.113 1.126.368.42.246.594.584.174.327.174.696 0 .492-.297.87-.285.38-.86.595-.573.204-1.393.204m5.66 0q-.665 0-1.136-.143a2.8 2.8 0 0 1-.758-.369 1.7 1.7 0 0 1-.43-.44q-.144-.235-.154-.4a.21.21 0 0 1 .072-.184.25.25 0 0 1 .174-.082h1.168a.1.1 0 0 1 .05.01l.062.042q.134.071.266.184.135.102.308.184a1 1 0 0 0 .42.082.95.95 0 0 0 .48-.112.37.37 0 0 0 .195-.338q0-.164-.092-.267-.092-.112-.379-.215a5.4 5.4 0 0 0-.84-.204 4.4 4.4 0 0 1-.931-.318 1.6 1.6 0 0 1-.615-.522 1.4 1.4 0 0 1-.215-.789q0-.409.267-.788.266-.379.778-.614.512-.246 1.26-.246.593 0 1.023.143.441.133.738.348.306.215.46.44t.164.41a.24.24 0 0 1-.061.185.23.23 0 0 1-.164.071H49.82a.3.3 0 0 1-.082-.01l-.072-.041a1.3 1.3 0 0 1-.245-.164 1.5 1.5 0 0 0-.287-.184.9.9 0 0 0-.41-.082q-.276 0-.43.123a.41.41 0 0 0-.072.563q.092.112.359.205.276.092.85.205.705.113 1.126.368.42.246.594.584.174.327.174.696 0 .492-.297.87-.285.38-.86.595-.573.204-1.392.204Z"/></g><defs><filter id="a" width="80" height="80" x="0" y="0" color-interpolation-filters="sRGB" filterUnits="userSpaceOnUse"><feFlood flood-opacity="0" result="BackgroundImageFix"/><feColorMatrix in="SourceAlpha" result="hardAlpha" values="0 0 0 0 0 0 0 0 0 0 0 0 0 0 0 0 0 0 127 0"/><feOffset dy="2"/><feGaussianBlur stdDeviation="4"/><feColorMatrix values="0 0 0 0 0 0 0 0 0 0 0 0 0 0 0 0 0 0 0.75 0"/><feBlend in2="BackgroundImageFix" result="effect1_dropShadow_601_5333"/><feBlend in="SourceGraphic" in2="effect1_dropShadow_601_5333" result="shape"/></filter></defs></svg>