<svg xmlns="http://www.w3.org/2000/svg" width="80" height="80" fill="none"><g filter="url(#a)"><rect width="64" height="64" x="8" y="6" fill="#212529" rx="5"/><g clip-path="url(#b)"><path fill="#76b3e1" d="M55.422 18.747s-10.217-7.518-18.12-5.783l-.579.193c-1.157.385-2.12.963-2.699 1.735l-.385.578-2.892 5.012 5.012.964c2.12 1.35 4.82 1.927 7.325 1.35l8.868 1.734z"/><path fill="url(#c)" d="M55.422 18.747s-10.217-7.518-18.12-5.783l-.579.193c-1.157.385-2.12.963-2.699 1.735l-.385.578-2.892 5.012 5.012.964c2.12 1.35 4.82 1.927 7.325 1.35l8.868 1.734z" opacity=".3"/><path fill="#518ac8" d="m34.024 18.747-.771.193c-3.277.964-4.241 4.048-2.506 6.747 1.928 2.506 5.976 3.855 9.253 2.891l11.952-4.048s-10.217-7.518-17.928-5.783"/><path fill="url(#d)" d="m34.024 18.747-.771.193c-3.277.964-4.241 4.048-2.506 6.747 1.928 2.506 5.976 3.855 9.253 2.891l11.952-4.048s-10.217-7.518-17.928-5.783" opacity=".3"/><path fill="url(#e)" d="M49.831 27.422a8.675 8.675 0 0 0-9.253-2.892l-11.952 3.856-3.855 6.747 21.59 3.662 3.856-6.94c.77-1.349.578-2.891-.386-4.433"/><path fill="url(#f)" d="M45.976 34.169a8.67 8.67 0 0 0-9.253-2.892L24.77 35.132s10.217 7.711 18.12 5.784l.579-.193c3.277-.964 4.434-4.048 2.506-6.554Z"/></g><path fill="#e5e5e5" d="M30.39 61.102q-1.025 0-1.7-.286-.676-.297-1.024-.768a1.78 1.78 0 0 1-.369-1.004q0-.081.061-.143a.23.23 0 0 1 .164-.072h1.29a.37.37 0 0 1 .215.051.5.5 0 0 1 .144.133q.082.154.225.297.154.143.39.236.245.082.603.082.594 0 .891-.184.307-.184.307-.502a.47.47 0 0 0-.163-.369q-.164-.153-.533-.266a8 8 0 0 0-.962-.246 6.3 6.3 0 0 1-1.332-.42q-.542-.266-.829-.686-.287-.43-.287-1.065 0-.624.348-1.116.359-.492.994-.768t1.505-.276q.707 0 1.239.184.543.185.911.491.369.308.553.656.195.338.205.665 0 .082-.061.154a.2.2 0 0 1-.154.061H31.67a.4.4 0 0 1-.194-.04.4.4 0 0 1-.144-.134q-.06-.225-.327-.389-.256-.174-.676-.174-.45 0-.707.164-.245.154-.245.481a.53.53 0 0 0 .133.359q.143.152.46.266.33.113.891.235.932.174 1.506.44.573.257.84.677.266.409.266 1.034 0 .696-.4 1.208-.389.502-1.085.768-.696.267-1.598.266m6.513 0q-.86 0-1.454-.276a2.08 2.08 0 0 1-.901-.789q-.307-.521-.348-1.239a9 9 0 0 1 0-.921q.04-.727.368-1.24.329-.51.912-.788.594-.276 1.423-.276.84 0 1.424.276.593.277.921.789t.369 1.239a9 9 0 0 1 0 .922q-.041.716-.359 1.238a2 2 0 0 1-.9.789q-.584.276-1.455.276m0-1.249q.461 0 .666-.276.215-.277.246-.83.01-.153.01-.41 0-.256-.01-.409-.03-.543-.246-.82-.206-.286-.666-.286-.45 0-.665.287-.215.276-.236.819-.01.153-.01.41 0 .255.01.41.02.552.236.829.215.276.665.276M40.89 61a.25.25 0 0 1-.184-.072.25.25 0 0 1-.072-.184v-6.758a.25.25 0 0 1 .072-.185.25.25 0 0 1 .184-.071h1.21a.25.25 0 0 1 .184.071.25.25 0 0 1 .072.185v6.758a.25.25 0 0 1-.072.184.25.25 0 0 1-.184.072zm3.28 0a.25.25 0 0 1-.184-.072.25.25 0 0 1-.072-.184v-4.813a.25.25 0 0 1 .072-.184.25.25 0 0 1 .184-.072h1.209q.102 0 .174.072.082.072.082.184v4.813a.23.23 0 0 1-.082.184.24.24 0 0 1-.174.072zm-.01-6.093a.25.25 0 0 1-.184-.071.25.25 0 0 1-.072-.185v-.911a.25.25 0 0 1 .072-.184.23.23 0 0 1 .184-.082h1.219q.112 0 .184.082a.23.23 0 0 1 .082.184v.911a.23.23 0 0 1-.082.184.25.25 0 0 1-.184.072zm4.66 6.195q-.49 0-.89-.153a1.95 1.95 0 0 1-.676-.471 2.3 2.3 0 0 1-.43-.758 3.6 3.6 0 0 1-.174-1.024 7 7 0 0 1 0-.717q.021-.553.174-.993.154-.44.43-.758a1.8 1.8 0 0 1 .676-.481q.4-.174.89-.174a2.05 2.05 0 0 1 1.506.604v-2.191a.25.25 0 0 1 .072-.185.25.25 0 0 1 .184-.071h1.25q.102 0 .173.071.082.072.082.185v6.758a.23.23 0 0 1-.082.184.24.24 0 0 1-.174.072h-1.157a.25.25 0 0 1-.184-.072.25.25 0 0 1-.072-.184v-.328a1.9 1.9 0 0 1-.635.492q-.39.195-.962.194Zm.554-1.372q.348 0 .542-.143a.9.9 0 0 0 .297-.39q.103-.235.113-.511a8 8 0 0 0 0-.768 1.2 1.2 0 0 0-.113-.471.83.83 0 0 0-.307-.359q-.205-.143-.532-.143-.339 0-.543.143a.77.77 0 0 0-.277.39 2.2 2.2 0 0 0-.102.542q-.03.318 0 .635.021.297.102.543a.77.77 0 0 0 .277.389q.204.143.543.143"/></g><defs><linearGradient id="c" x1="29.301" x2="53.301" y1="12.578" y2="24.241" gradientUnits="userSpaceOnUse"><stop offset=".1" stop-color="#76b3e1"/><stop offset=".3" stop-color="#dcf2fd"/><stop offset="1" stop-color="#76b3e1"/></linearGradient><linearGradient id="d" x1="42.468" x2="38.265" y1="18.284" y2="32.279" gradientUnits="userSpaceOnUse"><stop stop-color="#76b3e1"/><stop offset=".5" stop-color="#4377bb"/><stop offset="1" stop-color="#1f3b77"/></linearGradient><linearGradient id="e" x1="27.547" x2="51.817" y1="24.376" y2="40.877" gradientUnits="userSpaceOnUse"><stop stop-color="#315aa9"/><stop offset=".5" stop-color="#518ac8"/><stop offset="1" stop-color="#315aa9"/></linearGradient><linearGradient id="f" x1="38.496" x2="28.703" y1="26.361" y2="62.275" gradientUnits="userSpaceOnUse"><stop stop-color="#4377bb"/><stop offset=".5" stop-color="#1a336b"/><stop offset="1" stop-color="#1a336b"/></linearGradient><clipPath id="b"><path fill="#fff" d="M24 12h32v29.937H24z"/></clipPath><filter id="a" width="80" height="80" x="0" y="0" color-interpolation-filters="sRGB" filterUnits="userSpaceOnUse"><feFlood flood-opacity="0" result="BackgroundImageFix"/><feColorMatrix in="SourceAlpha" result="hardAlpha" values="0 0 0 0 0 0 0 0 0 0 0 0 0 0 0 0 0 0 127 0"/><feOffset dy="2"/><feGaussianBlur stdDeviation="4"/><feColorMatrix values="0 0 0 0 0 0 0 0 0 0 0 0 0 0 0 0 0 0 0.75 0"/><feBlend in2="BackgroundImageFix" result="effect1_dropShadow_602_1771"/><feBlend in="SourceGraphic" in2="effect1_dropShadow_602_1771" result="shape"/></filter></defs></svg>