<svg xmlns="http://www.w3.org/2000/svg" width="80" height="80" fill="none"><g filter="url(#a)"><rect width="64" height="64" x="8" y="6" fill="#212529" rx="5"/><path fill="#0f80cc" d="M47.192 14.242h-17.57a2.147 2.147 0 0 0-2.14 2.14V35.76a2.147 2.147 0 0 0 2.14 2.14h11.573c-.132-5.757 1.835-16.931 5.997-23.657Z"/><path fill="url(#b)" d="M46.554 14.867H29.623a1.52 1.52 0 0 0-1.516 1.516v17.962a42 42 0 0 1 13.569-2.684 123.6 123.6 0 0 1 4.878-16.794"/><path fill="#003b57" d="M51.29 13.608c-1.2-1.073-2.66-.642-4.1.634q-.32.286-.638.625A25.4 25.4 0 0 0 41.1 26c.269.586.48 1.196.634 1.822.036.14.069.272.1.384.062.265.1.437.1.437s-.022-.083-.113-.346l-.059-.17-.038-.094c-.16-.373-.6-1.16-.8-1.5-.167.493-.315.954-.438 1.371.415.893.72 1.833.908 2.8 0 0-.03-.115-.171-.515a19 19 0 0 0-.9-1.708 4 4 0 0 0-.264 1.724c.22.44.386.904.493 1.383.334 1.283.566 2.846.566 2.846l.02.263a26 26 0 0 0 .065 3.205c.05 1.055.246 2.099.584 3.1l.18-.1a13.9 13.9 0 0 1-.478-4.628c.188-3.304.84-6.566 1.938-9.688 2.01-5.308 4.8-9.568 7.35-11.6-2.326 2.1-5.474 8.9-6.417 11.418a45.7 45.7 0 0 0-2.254 8A6.2 6.2 0 0 1 45.39 31s1.233-1.521 2.674-3.693q-1.396.291-2.755.733c-.7.294-.889.394-.889.394a24 24 0 0 1 4.215-2.007c2.676-4.215 5.592-10.2 2.656-12.824"/><path fill="#e5e5e5" d="M26.39 61.102q-1.025 0-1.7-.286-.676-.297-1.024-.768a1.8 1.8 0 0 1-.369-1.004q0-.081.061-.143a.23.23 0 0 1 .164-.072h1.29a.37.37 0 0 1 .215.051.5.5 0 0 1 .144.133q.082.154.225.297.154.143.39.236.245.082.603.082.594 0 .891-.184.307-.184.307-.502a.47.47 0 0 0-.163-.369q-.164-.153-.533-.266a8 8 0 0 0-.962-.246 6.3 6.3 0 0 1-1.332-.42q-.542-.266-.829-.686-.287-.43-.287-1.065 0-.624.348-1.116.359-.492.994-.768t1.505-.276q.707 0 1.239.184.543.185.911.491.369.308.553.656.195.338.205.665 0 .082-.061.154a.2.2 0 0 1-.154.061H27.67a.4.4 0 0 1-.194-.04.4.4 0 0 1-.144-.134q-.06-.225-.327-.389-.256-.174-.676-.174-.45 0-.707.164-.245.154-.245.481a.53.53 0 0 0 .133.359q.143.152.46.266.33.113.891.235.932.174 1.506.44.573.257.84.677.266.409.266 1.034 0 .696-.4 1.208-.389.502-1.085.768-.696.267-1.598.266m8.674.564a.35.35 0 0 1-.256-.093 2 2 0 0 1-.133-.143l-.348-.46a2.9 2.9 0 0 1-.912.132q-.942 0-1.638-.307a2.47 2.47 0 0 1-1.086-.921q-.39-.626-.42-1.557a38 38 0 0 1 0-1.771q.031-.922.43-1.547a2.5 2.5 0 0 1 1.096-.952q.697-.318 1.618-.317.932 0 1.628.317.697.319 1.096.952.4.625.43 1.547a20 20 0 0 1 0 1.771q-.061 1.27-.737 1.966l.747 1.065a.2.2 0 0 1 .03.102.17.17 0 0 1-.05.144.2.2 0 0 1-.154.072zm-1.649-2.038q.544 0 .88-.328.35-.327.37-1.044a18 18 0 0 0 0-1.68q-.01-.48-.175-.778a1.04 1.04 0 0 0-.44-.45 1.36 1.36 0 0 0-.635-.144q-.348 0-.624.143a1.04 1.04 0 0 0-.44.451q-.165.297-.175.778a35 35 0 0 0 0 1.68q.02.716.359 1.044.348.328.88.328M38.043 61a.25.25 0 0 1-.184-.072.25.25 0 0 1-.072-.184v-6.656a.25.25 0 0 1 .072-.184.25.25 0 0 1 .184-.072h1.352q.102 0 .174.072a.23.23 0 0 1 .081.184v5.366h3.093q.112 0 .184.082a.23.23 0 0 1 .082.184v1.024a.23.23 0 0 1-.082.184.25.25 0 0 1-.184.072zm5.997 0a.25.25 0 0 1-.184-.072.25.25 0 0 1-.072-.184v-4.813a.25.25 0 0 1 .072-.184.25.25 0 0 1 .184-.072h1.209q.102 0 .174.072.081.072.081.184v4.813a.23.23 0 0 1-.081.184.24.24 0 0 1-.175.072zm-.01-6.093a.25.25 0 0 1-.184-.071.25.25 0 0 1-.072-.185v-.911a.25.25 0 0 1 .072-.184.23.23 0 0 1 .184-.082h1.218q.114 0 .185.082a.23.23 0 0 1 .082.184v.911a.23.23 0 0 1-.082.184.25.25 0 0 1-.184.072zM49.428 61q-.655 0-1.137-.205a1.58 1.58 0 0 1-.727-.655q-.255-.45-.256-1.157v-1.966h-.798a.3.3 0 0 1-.195-.072.25.25 0 0 1-.072-.184v-.83a.25.25 0 0 1 .072-.184.3.3 0 0 1 .195-.072h.798v-1.69a.25.25 0 0 1 .072-.184.27.27 0 0 1 .184-.071h1.188a.25.25 0 0 1 .184.071.25.25 0 0 1 .072.185v1.69h1.28a.25.25 0 0 1 .184.07.25.25 0 0 1 .072.185v.83a.25.25 0 0 1-.072.184.25.25 0 0 1-.184.072h-1.28v1.822q0 .35.133.553.134.205.45.205h.79a.25.25 0 0 1 .184.072.25.25 0 0 1 .071.184v.891a.25.25 0 0 1-.071.184.25.25 0 0 1-.185.072zm4.514.102q-1.209 0-1.925-.655-.717-.655-.748-1.946v-.358q.03-.81.358-1.382.339-.584.922-.881.594-.307 1.383-.307.9 0 1.484.358.594.359.891.973t.297 1.403v.246a.23.23 0 0 1-.082.184.24.24 0 0 1-.174.072h-3.277v.071q.01.298.103.543a.77.77 0 0 0 .758.532.8.8 0 0 0 .337-.06q.144-.073.236-.155a2 2 0 0 0 .143-.153.5.5 0 0 1 .144-.123q.06-.03.184-.03h1.27q.102 0 .164.06.071.052.061.154-.01.174-.174.42a2.2 2.2 0 0 1-.481.492 2.6 2.6 0 0 1-.779.389 3.6 3.6 0 0 1-1.095.153m-.87-3.307h1.73v-.02q0-.329-.102-.574a.75.75 0 0 0-.297-.379.8.8 0 0 0-.471-.133.8.8 0 0 0-.471.133.86.86 0 0 0-.287.379 1.5 1.5 0 0 0-.103.573z"/></g><defs><linearGradient id="b" x1="37.309" x2="37.309" y1="15.306" y2="33.305" gradientUnits="userSpaceOnUse"><stop stop-color="#97d9f6"/><stop offset=".92" stop-color="#0f80cc"/><stop offset="1" stop-color="#0f80cc"/></linearGradient><filter id="a" width="80" height="80" x="0" y="0" color-interpolation-filters="sRGB" filterUnits="userSpaceOnUse"><feFlood flood-opacity="0" result="BackgroundImageFix"/><feColorMatrix in="SourceAlpha" result="hardAlpha" values="0 0 0 0 0 0 0 0 0 0 0 0 0 0 0 0 0 0 127 0"/><feOffset dy="2"/><feGaussianBlur stdDeviation="4"/><feColorMatrix values="0 0 0 0 0 0 0 0 0 0 0 0 0 0 0 0 0 0 0.75 0"/><feBlend in2="BackgroundImageFix" result="effect1_dropShadow_603_787"/><feBlend in="SourceGraphic" in2="effect1_dropShadow_603_787" result="shape"/></filter></defs></svg>