<svg xmlns="http://www.w3.org/2000/svg" width="80" height="80" fill="none"><g filter="url(#a)"><rect width="64" height="64" x="8" y="6" fill="#212529" rx="5"/><path fill="#0288d1" d="M37.744 13.447c-.21.813-.37 1.605-.506 2.406a11.6 11.6 0 0 0-3.213 1.274c-.647-.458-1.307-.9-2.005-1.307l-3.199 3.177q.574.976 1.23 1.897a11.7 11.7 0 0 0-1.495 3.382c-.704.127-1.403.271-2.107.458v4.514c.656.175 1.306.31 1.963.427.27 1.3.76 2.545 1.448 3.68a22 22 0 0 0-1.035 1.63l3.195 3.195a23 23 0 0 0 1.56-.997 11.6 11.6 0 0 0 3.773 1.572q.162.907.395 1.798h4.535a27 27 0 0 0 .403-1.84 11.7 11.7 0 0 0 3.662-1.596 34 34 0 0 0 1.644 1.057l3.193-3.198a26 26 0 0 0-1.136-1.756 11.7 11.7 0 0 0 1.355-3.523c.717-.133 1.43-.275 2.148-.464V24.73a25 25 0 0 0-2.286-.484 11.8 11.8 0 0 0-1.394-3.222q.706-.986 1.324-2.03l-3.204-3.189c-.725.428-1.415.888-2.09 1.37a11.5 11.5 0 0 0-3.123-1.289 26 26 0 0 0-.514-2.439zm2.144 5.294h.025a8.4 8.4 0 0 1 2.923.518c.215.078.422.163.63.27a8.58 8.58 0 0 1 4.343 4.518 8.5 8.5 0 0 1 .057 6.327 8.6 8.6 0 0 1-4.463 4.69l-.057.038a8.55 8.55 0 0 1-6.716.064v-.015a8.6 8.6 0 0 1-4.662-4.786l-.042-.114a8.53 8.53 0 0 1 .325-6.713 8.6 8.6 0 0 1 4.306-4.11 8.5 8.5 0 0 1 3.331-.687m2.78 2.072a1.177 1.177 0 0 0-1.127 1.566c.062.17.162.324.293.448l-1.084 1.88a2.4 2.4 0 0 0-1.07-.196 2.35 2.35 0 0 0-1.95 1.262l-2.326-.913v-.024a1.084 1.084 0 1 0-.204.53l2.324.913a2.35 2.35 0 0 0 .792 2.397l-1.084 1.692a1.42 1.42 0 0 0-1.505.277 1.445 1.445 0 1 0 1.975.015l1.084-1.686a2.35 2.35 0 0 0 2.728-.494l1.356 1.012a1.716 1.716 0 1 0 3.201.448 1.717 1.717 0 0 0-2.882-.882l-1.352-1.005a2.34 2.34 0 0 0-.618-3.063l1.085-1.879a1.178 1.178 0 1 0 .367-2.298z"/><path fill="#e5e5e5" d="M30.39 61.102q-1.025 0-1.7-.286-.676-.297-1.024-.768a1.8 1.8 0 0 1-.369-1.004q0-.081.061-.143a.23.23 0 0 1 .164-.072h1.29a.37.37 0 0 1 .215.051.5.5 0 0 1 .144.133q.082.154.225.297.154.143.39.236.245.082.603.082.594 0 .891-.184.307-.184.307-.502a.47.47 0 0 0-.163-.369q-.164-.153-.533-.266a8 8 0 0 0-.962-.246 6.3 6.3 0 0 1-1.332-.42q-.542-.266-.829-.686-.287-.43-.287-1.065 0-.624.348-1.116.359-.492.994-.768t1.505-.276q.707 0 1.239.184.543.185.911.491.369.308.553.656.195.338.205.665 0 .082-.061.154a.2.2 0 0 1-.154.061H31.67a.4.4 0 0 1-.194-.04.4.4 0 0 1-.144-.134q-.06-.225-.327-.389-.256-.174-.676-.174-.45 0-.707.164-.245.154-.245.481a.53.53 0 0 0 .133.359q.143.152.46.266.33.113.891.235.932.174 1.506.44.573.257.84.677.266.409.266 1.034 0 .696-.4 1.208-.389.502-1.085.768-.696.267-1.598.266M36.258 61q-.154 0-.226-.072a1 1 0 0 1-.123-.184l-1.935-4.751a.2.2 0 0 1-.02-.093q0-.092.061-.153a.24.24 0 0 1 .174-.072h1.157q.133 0 .205.072a.34.34 0 0 1 .092.143l1.157 3.144 1.168-3.144a.34.34 0 0 1 .092-.143q.072-.072.205-.072h1.157q.092 0 .164.072.07.06.071.154a.2.2 0 0 1-.02.092l-1.936 4.751a.6.6 0 0 1-.122.184q-.072.072-.236.072zm6.616 2.253q-.788 0-1.31-.205a2.6 2.6 0 0 1-.82-.492 2 2 0 0 1-.43-.573q-.132-.276-.143-.44a.21.21 0 0 1 .072-.185.28.28 0 0 1 .194-.071h1.3a.27.27 0 0 1 .154.04.33.33 0 0 1 .113.165q.05.112.133.235a.64.64 0 0 0 .246.195q.165.081.44.082.308 0 .512-.103a.6.6 0 0 0 .307-.317q.103-.215.103-.584v-.686a1.8 1.8 0 0 1-.604.42 2.3 2.3 0 0 1-.891.153q-.523 0-.922-.153a1.65 1.65 0 0 1-.666-.461 2.3 2.3 0 0 1-.42-.748 4 4 0 0 1-.173-1.013 7 7 0 0 1 0-.533q.03-.553.174-.993a2.2 2.2 0 0 1 .41-.758q.276-.318.675-.481a2.3 2.3 0 0 1 .922-.174q.552 0 .942.215.4.204.655.522v-.379q0-.102.072-.174a.23.23 0 0 1 .184-.082h1.178q.112 0 .184.082a.22.22 0 0 1 .082.174v4.926q0 .778-.317 1.31a2.03 2.03 0 0 1-.912.81q-.594.276-1.444.276m-.071-3.697q.328 0 .532-.143a.8.8 0 0 0 .297-.369q.102-.225.113-.481.01-.113.01-.318 0-.204-.01-.307a1.3 1.3 0 0 0-.113-.491.76.76 0 0 0-.297-.359q-.205-.143-.532-.143-.339 0-.543.143a.83.83 0 0 0-.287.39 2.2 2.2 0 0 0-.102.542q-.01.225 0 .461.021.297.102.543a.83.83 0 0 0 .287.389q.204.143.543.143m6.47 1.546q-.861 0-1.455-.276a2.1 2.1 0 0 1-.901-.789q-.307-.521-.348-1.239a9 9 0 0 1 0-.921q.04-.727.368-1.24.328-.51.912-.788.594-.276 1.423-.276.84 0 1.424.276.593.277.921.789t.369 1.239a9 9 0 0 1 0 .922q-.041.716-.359 1.238a2 2 0 0 1-.9.789q-.585.276-1.455.276Zm0-1.249q.46 0 .665-.276.215-.277.246-.83.01-.153.01-.41 0-.256-.01-.409-.03-.543-.246-.82-.206-.286-.666-.286-.45 0-.665.287-.215.276-.236.819-.01.153-.01.41 0 .255.01.41.02.552.236.829.215.276.665.276Z"/></g><defs><filter id="a" width="80" height="80" x="0" y="0" color-interpolation-filters="sRGB" filterUnits="userSpaceOnUse"><feFlood flood-opacity="0" result="BackgroundImageFix"/><feColorMatrix in="SourceAlpha" result="hardAlpha" values="0 0 0 0 0 0 0 0 0 0 0 0 0 0 0 0 0 0 127 0"/><feOffset dy="2"/><feGaussianBlur stdDeviation="4"/><feColorMatrix values="0 0 0 0 0 0 0 0 0 0 0 0 0 0 0 0 0 0 0.75 0"/><feBlend in2="BackgroundImageFix" result="effect1_dropShadow_602_985"/><feBlend in="SourceGraphic" in2="effect1_dropShadow_602_985" result="shape"/></filter></defs></svg>