<svg xmlns="http://www.w3.org/2000/svg" width="80" height="80" fill="none"><g filter="url(#a)"><rect width="64" height="64" x="8" y="6" fill="#212529" rx="5"/><g clip-path="url(#b)"><path fill="#8f8f8f" d="M35.504 19.877h-.487v.485h.487zm0 4.131h-.487v.486h.487zm0-2.106h-.487v.485h.487zm5.428-3.889h-5.915v.486h5.915zm0 1.864h-5.185v.485h5.185zm0 2.025h-5.185v.485h5.185zm0 2.106h-5.185v.486h5.185z"/><path fill="#8f8f8f" d="M41.337 16.555a.405.405 0 0 1 .405.404v8.345a.407.407 0 0 1-.405.406h-6.805a.406.406 0 0 1-.405-.406V16.96a.405.405 0 0 1 .405-.404h6.805Zm0-.325h-6.805a.73.73 0 0 0-.73.73v8.344a.73.73 0 0 0 .73.73h6.805a.73.73 0 0 0 .729-.73V16.96a.73.73 0 0 0-.73-.729Zm-5.833 14.988h-.487v.486h.487zm0 2.025h-.487v.486h.487zm0 2.107h-.487v.485h.487zm5.428-5.995h-5.915v.486h5.915zm0 1.867h-5.185v.478h5.185zm0 4.131h-5.185v.479h5.185zm0-2.106h-5.185v.478h5.185z"/><path fill="#8f8f8f" d="M41.337 27.896a.405.405 0 0 1 .405.405v8.345a.406.406 0 0 1-.405.403h-6.805a.406.406 0 0 1-.405-.405v-8.345a.405.405 0 0 1 .405-.405h6.805zm0-.326h-6.805a.73.73 0 0 0-.73.729v8.345a.73.73 0 0 0 .73.729h6.805a.73.73 0 0 0 .729-.73V28.3a.73.73 0 0 0-.73-.724v-.005Zm4.293-6.397H43.2v.404h2.43v10.694H43.2v.405h2.835V21.173z"/><path fill="#ef312d" d="M27.93 36.826a4 4 0 0 1 .2-.132c-.005-1.775-.02-5.067-.076-6.721 0-1.086 0-2.547-2.288-3.022 2.286-.475 2.288-1.935 2.288-3.021.063-1.82.074-5.624.077-7.207q-.06-.037-.12-.079c-.863-.614-1.368-1.593-1.523-2.74-.274.45-.448 1.009-.463 1.7a666 666 0 0 1-.24 8.326c-.056 1.538-.997 1.83-1.49 1.878a3 3 0 0 1-.295.003v2.28c.105-.004.202 0 .295 0 .492.048 1.434.34 1.49 1.879.025.682.166 4.774.24 8.325a3.4 3.4 0 0 0 .356 1.506c.113-1.246.627-2.313 1.55-2.975Z"/><path fill="#f6ad53" d="M28.011 16.644q.06.042.12.08v-.715s-.324-2.35 3.078-2.026v-1.945s-3.45-.218-4.721 1.866c.155 1.147.66 2.125 1.523 2.74m3.199 25.219v-1.945c-3.403.324-3.078-2.025-3.078-2.025v-1.2a4 4 0 0 0-.2.132c-.924.663-1.438 1.73-1.551 2.981 1.171 2.29 4.83 2.057 4.83 2.057Z"/><path fill="#ef312d" d="M55.705 25.776c-.492-.049-1.434-.341-1.49-1.879a641 641 0 0 1-.24-8.326 3.5 3.5 0 0 0-.278-1.341c-.17 1.099-.671 2.033-1.506 2.63a4 4 0 0 1-.32.202c.003 1.743.019 5.145.075 6.835 0 1.086 0 2.546 2.288 3.021-2.285.475-2.288 1.936-2.288 3.022-.056 1.697-.072 5.118-.076 6.855q.21.11.402.247c.788.564 1.278 1.427 1.475 2.447.147-.391.224-.805.228-1.223.074-3.551.215-7.643.24-8.325.056-1.538.997-1.831 1.49-1.879.093-.005.188-.007.295-.003v-2.28a3 3 0 0 1-.295-.003"/><path fill="#f6ad53" d="M53.697 14.23c-1.075-2.467-4.907-2.224-4.907-2.224v1.945c3.403-.323 3.078 2.026 3.078 2.026v1.085a4 4 0 0 0 .322-.2c.836-.599 1.337-1.533 1.507-2.632m-1.425 22.811a3.5 3.5 0 0 0-.402-.246v1.067s.324 2.349-3.078 2.025v1.945s3.953.251 4.957-2.342c-.196-1.021-.69-1.884-1.477-2.449"/></g><path fill="#e5e5e5" d="M18.55 61a.25.25 0 0 1-.185-.072.25.25 0 0 1-.071-.184V55.44H16.47a.25.25 0 0 1-.184-.072.27.27 0 0 1-.072-.184v-1.096a.25.25 0 0 1 .072-.184.25.25 0 0 1 .184-.072h5.51a.25.25 0 0 1 .183.072.25.25 0 0 1 .072.184v1.096a.27.27 0 0 1-.072.184.25.25 0 0 1-.184.072h-1.823v5.304a.25.25 0 0 1-.071.184.25.25 0 0 1-.185.072zm5.067 1.946a.21.21 0 0 1-.215-.215v-.062a1 1 0 0 1 .031-.072l.799-1.925-1.966-4.649a.3.3 0 0 1-.031-.123.3.3 0 0 1 .082-.153.2.2 0 0 1 .154-.072h1.167q.133 0 .194.072.072.061.093.143l1.177 2.98 1.198-2.98a.6.6 0 0 1 .103-.143q.072-.072.205-.072h1.146q.093 0 .154.072.072.061.072.143 0 .052-.031.133l-2.898 6.708a.35.35 0 0 1-.102.143q-.072.072-.205.072zm5.373 0a.25.25 0 0 1-.184-.072.25.25 0 0 1-.072-.184v-6.76a.25.25 0 0 1 .072-.184.25.25 0 0 1 .184-.072h1.157q.103 0 .174.072.082.072.082.184v.38q.236-.319.625-.523.39-.215.963-.215.51 0 .9.164.39.154.666.46t.43.748q.164.44.185 1.014a8 8 0 0 1 0 .758q-.021.553-.174.993a2.2 2.2 0 0 1-.43.747q-.277.307-.676.482-.39.163-.902.163a2.1 2.1 0 0 1-.88-.174 1.7 1.7 0 0 1-.615-.512v2.274a.25.25 0 0 1-.071.184.25.25 0 0 1-.185.072zm2.448-3.216q.348 0 .542-.143a.77.77 0 0 0 .277-.39q.092-.245.112-.542a5 5 0 0 0 0-.635 2 2 0 0 0-.112-.543.77.77 0 0 0-.277-.389q-.194-.143-.543-.143-.338 0-.542.154a.8.8 0 0 0-.297.378 1.6 1.6 0 0 0-.103.512 7 7 0 0 0 0 .768q.01.257.113.482a.9.9 0 0 0 .307.358.94.94 0 0 0 .523.133m6.214 1.372q-1.209 0-1.925-.655-.717-.655-.748-1.946v-.358q.03-.81.358-1.382.339-.584.922-.881.594-.307 1.383-.307.9 0 1.484.358.594.359.891.973t.297 1.403v.246a.23.23 0 0 1-.082.184.24.24 0 0 1-.174.072h-3.277v.071q.01.298.103.543a.77.77 0 0 0 .758.532.8.8 0 0 0 .337-.06q.144-.073.236-.155a2 2 0 0 0 .143-.153.5.5 0 0 1 .144-.123q.06-.03.184-.03h1.27q.102 0 .164.06.071.052.061.154-.01.174-.174.42a2.2 2.2 0 0 1-.481.492 2.6 2.6 0 0 1-.779.389 3.6 3.6 0 0 1-1.095.153m-.87-3.307h1.73v-.02q0-.329-.102-.574a.75.75 0 0 0-.297-.379.8.8 0 0 0-.471-.133.8.8 0 0 0-.472.133.86.86 0 0 0-.286.379 1.5 1.5 0 0 0-.103.573v.02Zm7.533 3.307q-.942 0-1.638-.307a2.4 2.4 0 0 1-1.085-.921q-.39-.626-.43-1.557a38 38 0 0 1 0-1.771q.04-.922.43-1.547a2.5 2.5 0 0 1 1.095-.952q.697-.317 1.628-.317.922 0 1.618.317.707.319 1.106.952.4.625.43 1.547a20 20 0 0 1 0 1.771q-.04.931-.43 1.557-.389.614-1.085.921t-1.639.307m0-1.474q.543 0 .881-.328.348-.327.369-1.044a17 17 0 0 0 0-1.68q-.02-.48-.185-.778a1 1 0 0 0-.43-.45 1.36 1.36 0 0 0-.635-.144q-.348 0-.624.143a1.04 1.04 0 0 0-.44.451q-.165.297-.185.778a35 35 0 0 0 0 1.68q.03.716.369 1.044t.88.328M48.933 61a.25.25 0 0 1-.184-.072.25.25 0 0 1-.072-.184v-6.656a.25.25 0 0 1 .072-.184.25.25 0 0 1 .184-.072h2.785q1.32 0 2.079.614.768.605.768 1.72 0 .727-.359 1.23a2.2 2.2 0 0 1-.921.757l1.413 2.52q.03.06.03.112a.22.22 0 0 1-.071.154.2.2 0 0 1-.154.061h-1.351q-.195 0-.287-.092a1 1 0 0 1-.133-.184l-1.167-2.253H50.51v2.273a.25.25 0 0 1-.072.184.25.25 0 0 1-.184.072zm1.577-3.973h1.188q.481 0 .716-.236.246-.235.246-.645 0-.399-.235-.645-.226-.246-.727-.246H50.51zM56.013 61a.27.27 0 0 1-.184-.072.25.25 0 0 1-.072-.184v-6.656a.25.25 0 0 1 .072-.184.27.27 0 0 1 .184-.072h1.106q.163 0 .245.092a.4.4 0 0 1 .113.133l1.802 3.236 1.803-3.236a1 1 0 0 1 .102-.133q.082-.092.256-.092h1.096a.25.25 0 0 1 .184.072.23.23 0 0 1 .082.184v6.656a.23.23 0 0 1-.082.184.25.25 0 0 1-.184.072h-1.219a.28.28 0 0 1-.194-.072.25.25 0 0 1-.072-.184v-3.84l-1.157 2.14a.5.5 0 0 1-.123.164.33.33 0 0 1-.225.072h-.533a.33.33 0 0 1-.225-.072.6.6 0 0 1-.133-.164l-1.157-2.14v3.84a.25.25 0 0 1-.072.184.25.25 0 0 1-.184.072h-1.23Z"/></g><defs><clipPath id="b"><path fill="#fff" d="M24 12h32v29.87H24z"/></clipPath><filter id="a" width="80" height="80" x="0" y="0" color-interpolation-filters="sRGB" filterUnits="userSpaceOnUse"><feFlood flood-opacity="0" result="BackgroundImageFix"/><feColorMatrix in="SourceAlpha" result="hardAlpha" values="0 0 0 0 0 0 0 0 0 0 0 0 0 0 0 0 0 0 127 0"/><feOffset dy="2"/><feGaussianBlur stdDeviation="4"/><feColorMatrix values="0 0 0 0 0 0 0 0 0 0 0 0 0 0 0 0 0 0 0.75 0"/><feBlend in2="BackgroundImageFix" result="effect1_dropShadow_603_897"/><feBlend in="SourceGraphic" in2="effect1_dropShadow_603_897" result="shape"/></filter></defs></svg>