<svg xmlns="http://www.w3.org/2000/svg" width="80" height="80" fill="none"><g filter="url(#a)"><rect width="64" height="64" x="8" y="6" fill="#212529" rx="5"/><g clip-path="url(#b)"><path fill="#52218a" d="M28.623 36.05a1.33 1.33 0 0 1-1.38.218L24.82 35.25a1.33 1.33 0 0 1-.82-1.223v-14.22a1.33 1.33 0 0 1 .82-1.224l2.423-1c.464-.194.998-.11 1.38.217l.544.45a.737.737 0 0 0-1.167.6v16.133a.737.737 0 0 0 1.167.6z"/><path fill="#6c33af" d="M24.82 35.25a1.33 1.33 0 0 1-.82-1.223v-.11a.77.77 0 0 0 1.333.517L46 11.584a2 2 0 0 1 2.273-.387l6.594 3.174A2 2 0 0 1 56 16.174v.077a1.263 1.263 0 0 0-2.063-.977l-24.77 20.31-.544.467c-.382.326-.916.41-1.38.216l-2.423-1.016Z"/><path fill="#854cc7" d="M24.82 18.584a1.33 1.33 0 0 0-.82 1.224v.11a.77.77 0 0 1 1.333-.517L46 42.25a2 2 0 0 0 2.273.387l6.594-3.174A2 2 0 0 0 56 37.661v-.077a1.263 1.263 0 0 1-2.063.977l-24.77-20.31-.544-.467a1.33 1.33 0 0 0-1.38-.2z"/><path fill="#b179f1" d="M48.273 42.637A2 2 0 0 1 46 42.251a1.173 1.173 0 0 0 2-.83v-29a1.173 1.173 0 0 0-2-.837 2 2 0 0 1 2.273-.387l6.594 3.17A2 2 0 0 1 56 16.171v21.493a2 2 0 0 1-1.133 1.803z"/></g><path fill="#e5e5e5" d="M15.747 60a.32.32 0 0 1-.221-.074.4.4 0 0 1-.115-.172l-1.67-5.241a.2.2 0 0 1-.017-.074q0-.066.05-.115a.18.18 0 0 1 .13-.057h1.016q.13 0 .204.074.075.073.09.139l1.155 3.784 1.163-3.784a.5.5 0 0 1 .09-.14.28.28 0 0 1 .205-.073h1.016q.073 0 .123.057a.15.15 0 0 1 .057.115.2.2 0 0 1-.017.074l-1.67 5.241a.4.4 0 0 1-.115.172q-.074.075-.221.074zm4.035 0a.2.2 0 0 1-.147-.057.2.2 0 0 1-.058-.148v-3.85a.2.2 0 0 1 .058-.147.2.2 0 0 1 .147-.057h.967a.2.2 0 0 1 .139.057.19.19 0 0 1 .065.148v3.85q0 .09-.065.147a.2.2 0 0 1-.14.057zm-.008-4.873a.2.2 0 0 1-.147-.057.2.2 0 0 1-.058-.148v-.729a.2.2 0 0 1 .058-.147.19.19 0 0 1 .147-.066h.975q.09 0 .147.066a.19.19 0 0 1 .066.147v.73q0 .09-.066.147a.2.2 0 0 1-.147.057zm4.043 4.955q-.531 0-.909-.115a2.2 2.2 0 0 1-.606-.295 1.4 1.4 0 0 1-.344-.352.74.74 0 0 1-.122-.32.17.17 0 0 1 .057-.147.2.2 0 0 1 .14-.065h.933a.1.1 0 0 1 .04.008.3.3 0 0 1 .05.033q.106.057.213.147.106.082.246.148a.8.8 0 0 0 .335.065q.23 0 .385-.09a.29.29 0 0 0 .156-.27.3.3 0 0 0-.074-.213q-.073-.09-.303-.172a4.3 4.3 0 0 0-.671-.164 3.5 3.5 0 0 1-.746-.254 1.3 1.3 0 0 1-.491-.418 1.12 1.12 0 0 1-.172-.63q0-.328.213-.63.213-.304.622-.492.41-.197 1.008-.197.475 0 .819.115.35.106.59.278.245.173.368.353t.13.327a.19.19 0 0 1-.048.148.18.18 0 0 1-.131.057h-.852a.3.3 0 0 1-.066-.008 1 1 0 0 1-.057-.033 1 1 0 0 1-.197-.131 1.2 1.2 0 0 0-.229-.148.7.7 0 0 0-.327-.065.54.54 0 0 0-.344.098.327.327 0 0 0-.057.45q.072.09.286.164.22.075.68.164.565.09.9.295.336.197.476.467.138.262.139.557a1.1 1.1 0 0 1-.238.696q-.23.303-.688.475-.458.165-1.114.164m4.34 0a1.64 1.64 0 0 1-.836-.213 1.46 1.46 0 0 1-.565-.623q-.205-.418-.205-1.015v-2.285a.2.2 0 0 1 .057-.148.2.2 0 0 1 .148-.057h1.023a.2.2 0 0 1 .148.057.2.2 0 0 1 .057.148v2.236q0 .802.72.802.337 0 .533-.204.205-.213.205-.598v-2.236a.2.2 0 0 1 .057-.148.2.2 0 0 1 .148-.057h1.023a.2.2 0 0 1 .148.057.2.2 0 0 1 .057.148v3.85a.2.2 0 0 1-.057.147.2.2 0 0 1-.148.057h-.95a.22.22 0 0 1-.147-.057.2.2 0 0 1-.057-.148v-.311a1.37 1.37 0 0 1-.557.45 2 2 0 0 1-.803.148Zm4.96 0q-.443 0-.795-.164a1.46 1.46 0 0 1-.549-.459 1.1 1.1 0 0 1-.205-.647q0-.58.475-.917.475-.344 1.261-.467l1.024-.155v-.115q0-.295-.123-.45-.122-.156-.45-.156a.7.7 0 0 0-.377.09.64.64 0 0 0-.22.246.24.24 0 0 1-.206.106h-.917a.2.2 0 0 1-.14-.049.17.17 0 0 1-.04-.13q0-.149.106-.337a1.5 1.5 0 0 1 .344-.385q.23-.188.59-.31.36-.124.868-.124.532 0 .91.123.375.123.605.344.238.222.352.524.115.295.115.656v2.49q0 .09-.065.147a.2.2 0 0 1-.14.057h-.95a.2.2 0 0 1-.147-.057.2.2 0 0 1-.057-.148v-.286a1.2 1.2 0 0 1-.287.286q-.18.132-.426.205a1.7 1.7 0 0 1-.557.082Zm.384-.934q.237 0 .426-.098a.7.7 0 0 0 .303-.32q.114-.22.115-.548v-.115l-.697.123q-.385.066-.565.205-.171.13-.172.311a.36.36 0 0 0 .082.237.6.6 0 0 0 .213.156q.132.05.295.05Zm3.373.852a.2.2 0 0 1-.147-.057.2.2 0 0 1-.058-.148V54.39a.2.2 0 0 1 .058-.148.2.2 0 0 1 .147-.057h.966a.2.2 0 0 1 .148.057.2.2 0 0 1 .057.148v5.405a.2.2 0 0 1-.057.148.2.2 0 0 1-.148.057zm6.11.082q-.82 0-1.36-.23-.54-.237-.819-.614a1.42 1.42 0 0 1-.294-.802q0-.066.049-.115a.18.18 0 0 1 .13-.057h1.033q.114 0 .172.04a.4.4 0 0 1 .114.107q.066.123.18.238a1 1 0 0 0 .312.188q.196.066.483.066.475 0 .712-.148.246-.147.246-.401a.37.37 0 0 0-.13-.295q-.132-.123-.427-.213a6 6 0 0 0-.77-.196 5 5 0 0 1-1.064-.336 1.7 1.7 0 0 1-.664-.549q-.23-.344-.229-.852 0-.5.279-.892a1.9 1.9 0 0 1 .794-.615q.508-.22 1.204-.22a3 3 0 0 1 .99.147q.435.147.73.393.294.245.442.524.155.27.164.532a.2.2 0 0 1-.05.123.17.17 0 0 1-.122.05h-1.081a.35.35 0 0 1-.156-.034.3.3 0 0 1-.114-.106q-.049-.18-.263-.311-.204-.14-.54-.14-.36 0-.565.132-.197.122-.197.384 0 .164.107.287a.9.9 0 0 0 .368.213q.262.09.713.188.745.139 1.204.353.459.204.671.54.213.327.213.827 0 .558-.32.967-.31.4-.867.614a3.6 3.6 0 0 1-1.278.213M48.357 60q-.523 0-.909-.164a1.26 1.26 0 0 1-.581-.524q-.205-.36-.205-.925v-1.573h-.639a.23.23 0 0 1-.155-.057.2.2 0 0 1-.058-.148v-.663a.2.2 0 0 1 .058-.148.23.23 0 0 1 .155-.057h.64V54.39a.2.2 0 0 1 .056-.148.22.22 0 0 1 .148-.057h.95a.2.2 0 0 1 .147.057.2.2 0 0 1 .058.148v1.351h1.023a.2.2 0 0 1 .148.057.2.2 0 0 1 .057.148v.663a.2.2 0 0 1-.057.148.2.2 0 0 1-.148.057h-1.023v1.458q0 .279.106.442.106.164.36.164h.631a.2.2 0 0 1 .148.057.2.2 0 0 1 .057.148v.712a.2.2 0 0 1-.057.148.2.2 0 0 1-.148.057zm3.21.082a1.64 1.64 0 0 1-.836-.213 1.46 1.46 0 0 1-.565-.623q-.205-.418-.205-1.015v-2.285a.2.2 0 0 1 .057-.148.2.2 0 0 1 .148-.057h1.024a.2.2 0 0 1 .147.057.2.2 0 0 1 .057.148v2.236q0 .802.721.802.336 0 .532-.204.205-.213.205-.598v-2.236a.2.2 0 0 1 .058-.148.2.2 0 0 1 .147-.057h1.024a.2.2 0 0 1 .147.057.2.2 0 0 1 .057.148v3.85a.2.2 0 0 1-.057.147.2.2 0 0 1-.147.057h-.95a.22.22 0 0 1-.148-.057.2.2 0 0 1-.057-.148v-.311a1.37 1.37 0 0 1-.557.45 2 2 0 0 1-.803.148Zm5.27 0q-.393 0-.712-.123a1.6 1.6 0 0 1-.54-.377 1.8 1.8 0 0 1-.344-.606 2.9 2.9 0 0 1-.14-.819 6 6 0 0 1 0-.573q.017-.443.14-.795.122-.351.344-.605.22-.255.54-.386.319-.139.713-.139a1.64 1.64 0 0 1 1.204.483V54.39a.2.2 0 0 1 .057-.148.2.2 0 0 1 .147-.057h1a.2.2 0 0 1 .139.057.19.19 0 0 1 .065.148v5.405a.2.2 0 0 1-.065.148.2.2 0 0 1-.14.057h-.925a.2.2 0 0 1-.147-.057.2.2 0 0 1-.058-.148v-.262q-.195.238-.508.393-.31.156-.77.156m.443-1.098q.278 0 .434-.114a.7.7 0 0 0 .238-.311q.081-.188.09-.41a6 6 0 0 0 0-.614 1 1 0 0 0-.09-.377.66.66 0 0 0-.246-.287.73.73 0 0 0-.426-.114.74.74 0 0 0-.434.114.6.6 0 0 0-.221.312 1.8 1.8 0 0 0-.082.434 2.5 2.5 0 0 0 0 .508q.015.237.082.434a.6.6 0 0 0 .22.31q.165.115.435.115M60.62 60a.2.2 0 0 1-.147-.057.2.2 0 0 1-.057-.148v-3.85a.2.2 0 0 1 .057-.147.2.2 0 0 1 .147-.057h.967a.2.2 0 0 1 .139.057.19.19 0 0 1 .065.148v3.85q0 .09-.065.147a.2.2 0 0 1-.14.057zm-.008-4.873a.2.2 0 0 1-.147-.057.2.2 0 0 1-.058-.148v-.729a.2.2 0 0 1 .058-.147.19.19 0 0 1 .147-.066h.975q.09 0 .147.066a.19.19 0 0 1 .066.147v.73q0 .09-.066.147a.2.2 0 0 1-.147.057zm4.194 4.955q-.689 0-1.163-.221a1.66 1.66 0 0 1-.721-.63 2.2 2.2 0 0 1-.278-.992 7 7 0 0 1 0-.737q.032-.582.294-.99.262-.41.73-.632.474-.22 1.138-.22.671 0 1.138.22.476.222.737.631.262.41.295.991a7 7 0 0 1 0 .737 2.1 2.1 0 0 1-.287.991 1.6 1.6 0 0 1-.72.63q-.468.222-1.163.222m0-1q.368 0 .532-.22.172-.222.197-.664a5 5 0 0 0 .008-.327 5 5 0 0 0-.008-.328q-.025-.435-.197-.655-.165-.23-.532-.23-.36 0-.533.23-.171.221-.188.655a5 5 0 0 0-.008.328q0 .204.008.327.016.442.188.664.172.22.533.22"/></g><defs><clipPath id="b"><path fill="#fff" d="M24 11h32v32H24z"/></clipPath><filter id="a" width="80" height="80" x="0" y="0" color-interpolation-filters="sRGB" filterUnits="userSpaceOnUse"><feFlood flood-opacity="0" result="BackgroundImageFix"/><feColorMatrix in="SourceAlpha" result="hardAlpha" values="0 0 0 0 0 0 0 0 0 0 0 0 0 0 0 0 0 0 127 0"/><feOffset dy="2"/><feGaussianBlur stdDeviation="4"/><feColorMatrix values="0 0 0 0 0 0 0 0 0 0 0 0 0 0 0 0 0 0 0.75 0"/><feBlend in2="BackgroundImageFix" result="effect1_dropShadow_601_5057"/><feBlend in="SourceGraphic" in2="effect1_dropShadow_601_5057" result="shape"/></filter></defs></svg>