<svg xmlns="http://www.w3.org/2000/svg" width="80" height="80" fill="none"><g filter="url(#a)"><rect width="64" height="64" x="8" y="6" fill="#212529" rx="5"/><path fill="#0065a9" d="m53.01 16.03-5.766-2.776a1.74 1.74 0 0 0-1.989.338L26.38 30.8a1.166 1.166 0 0 0-.003 1.724l1.541 1.4a1.165 1.165 0 0 0 1.489.066l22.735-17.24a1.158 1.158 0 0 1 1.858.922v-.067a1.75 1.75 0 0 0-.99-1.575"/><path fill="#007acc" d="m53.01 37.97-5.766 2.777a1.745 1.745 0 0 1-1.989-.338L26.38 23.199a1.166 1.166 0 0 1-.003-1.723l1.541-1.4a1.165 1.165 0 0 1 1.492-.066l22.732 17.24A1.158 1.158 0 0 0 54 36.328v.072a1.75 1.75 0 0 1-.99 1.57"/><path fill="#1f9cf0" d="M47.244 40.747a1.74 1.74 0 0 1-1.989-.338A1.024 1.024 0 0 0 47 39.684V14.316a1.025 1.025 0 0 0-1.749-.724 1.74 1.74 0 0 1 1.989-.34l5.765 2.773A1.75 1.75 0 0 1 54 17.6v18.8a1.75 1.75 0 0 1-.991 1.576z"/><path fill="#e5e5e5" d="M24.185 61a.4.4 0 0 1-.277-.092.5.5 0 0 1-.143-.215l-2.089-6.554a.3.3 0 0 1-.02-.092q0-.082.061-.143a.23.23 0 0 1 .164-.072h1.27q.163 0 .256.092.092.093.112.174l1.444 4.731 1.454-4.73a.6.6 0 0 1 .113-.175.35.35 0 0 1 .256-.092h1.27q.092 0 .153.072.072.06.072.143a.3.3 0 0 1-.02.092l-2.09 6.554a.5.5 0 0 1-.143.215q-.092.092-.276.092zm7.484.102q-1.023 0-1.7-.286-.675-.297-1.023-.768a1.8 1.8 0 0 1-.369-1.004q0-.081.061-.143a.23.23 0 0 1 .164-.072h1.29a.37.37 0 0 1 .216.051.5.5 0 0 1 .143.133q.082.154.225.297.154.143.39.236.245.082.603.082.594 0 .891-.184.307-.184.307-.502a.47.47 0 0 0-.163-.369q-.164-.153-.533-.266a8 8 0 0 0-.962-.246 6.3 6.3 0 0 1-1.332-.42q-.542-.266-.829-.686-.287-.43-.287-1.065 0-.624.348-1.116.359-.492.994-.768t1.505-.276q.706 0 1.239.184.543.185.911.491.369.308.553.656.195.338.205.665 0 .082-.061.154a.2.2 0 0 1-.154.061H32.95a.4.4 0 0 1-.194-.04.4.4 0 0 1-.144-.134q-.06-.225-.327-.389-.256-.174-.676-.174-.45 0-.707.164-.245.154-.245.481a.53.53 0 0 0 .133.359q.143.152.46.266.329.113.892.235.931.174 1.505.44.573.257.84.677.266.409.266 1.034 0 .696-.4 1.208-.389.502-1.085.768-.696.267-1.598.266Zm6.442 0q-.758 0-1.34-.276-.584-.276-.933-.799-.338-.532-.368-1.27a7 7 0 0 1-.01-.41q0-.255.01-.419.03-.747.368-1.27a2.17 2.17 0 0 1 .922-.809 3.2 3.2 0 0 1 1.352-.276q.705 0 1.208.205.501.195.819.491.318.297.471.614.164.307.174.543a.22.22 0 0 1-.072.185.27.27 0 0 1-.184.071h-1.3a.26.26 0 0 1-.174-.051.5.5 0 0 1-.113-.154q-.123-.316-.318-.45a.8.8 0 0 0-.48-.133q-.411 0-.636.266-.214.266-.235.82-.01.409 0 .726.02.564.235.82.225.255.635.255.319 0 .502-.133.184-.133.297-.45a.5.5 0 0 1 .113-.154.26.26 0 0 1 .174-.051h1.3q.102 0 .184.082a.2.2 0 0 1 .072.174 1.4 1.4 0 0 1-.102.41 2.3 2.3 0 0 1-.799.962q-.307.215-.748.348a3.6 3.6 0 0 1-1.023.133Zm6.112 0q-.86 0-1.454-.276a2.1 2.1 0 0 1-.901-.789q-.307-.521-.348-1.239a9 9 0 0 1 0-.921q.04-.727.368-1.24.328-.51.912-.788.594-.276 1.423-.276.84 0 1.424.276.593.277.921.789t.369 1.239a9 9 0 0 1 0 .922q-.041.716-.359 1.238a2 2 0 0 1-.9.789q-.584.276-1.455.276m0-1.249q.461 0 .666-.276.215-.277.246-.83.01-.153.01-.41 0-.256-.01-.409-.03-.543-.246-.82-.206-.286-.666-.286-.45 0-.665.287-.215.276-.236.819-.01.153-.01.41 0 .255.01.41.02.552.236.829.215.276.665.276m5.718 1.25q-.492 0-.891-.154a1.95 1.95 0 0 1-.676-.471 2.3 2.3 0 0 1-.43-.758 3.6 3.6 0 0 1-.174-1.024 7 7 0 0 1 0-.717q.021-.553.174-.993.154-.44.43-.758a1.8 1.8 0 0 1 .676-.481q.4-.174.89-.174a2.05 2.05 0 0 1 1.506.604v-2.191a.25.25 0 0 1 .072-.185.25.25 0 0 1 .184-.071h1.25q.102 0 .173.071.082.072.082.185v6.758a.23.23 0 0 1-.082.184.24.24 0 0 1-.174.072h-1.157a.25.25 0 0 1-.184-.072.25.25 0 0 1-.072-.184v-.328a1.9 1.9 0 0 1-.635.492q-.39.195-.962.194Zm.553-1.373q.348 0 .542-.143a.9.9 0 0 0 .297-.39q.103-.235.113-.511a8 8 0 0 0 0-.768 1.2 1.2 0 0 0-.113-.471.83.83 0 0 0-.307-.359q-.204-.143-.532-.143-.339 0-.543.143a.77.77 0 0 0-.276.39 2.2 2.2 0 0 0-.103.542q-.03.318 0 .635.021.297.102.543a.77.77 0 0 0 .277.389q.204.143.543.143m6.378 1.372q-1.209 0-1.925-.655-.717-.655-.748-1.946v-.358q.03-.81.358-1.382.339-.584.922-.881.594-.307 1.383-.307.9 0 1.484.358.594.359.891.973t.297 1.403v.246a.23.23 0 0 1-.082.184.24.24 0 0 1-.174.072h-3.277v.071q.01.298.103.543a.77.77 0 0 0 .758.532.8.8 0 0 0 .337-.06q.144-.073.236-.155a2 2 0 0 0 .143-.153.5.5 0 0 1 .144-.123q.06-.03.184-.03h1.27q.102 0 .164.06.071.052.061.154-.01.174-.174.42a2.2 2.2 0 0 1-.481.492 2.6 2.6 0 0 1-.779.389 3.6 3.6 0 0 1-1.095.153m-.87-3.307h1.73v-.02q0-.329-.102-.574a.75.75 0 0 0-.297-.379.8.8 0 0 0-.471-.133.8.8 0 0 0-.471.133.86.86 0 0 0-.287.379 1.5 1.5 0 0 0-.103.573z"/></g><defs><filter id="a" width="80" height="80" x="0" y="0" color-interpolation-filters="sRGB" filterUnits="userSpaceOnUse"><feFlood flood-opacity="0" result="BackgroundImageFix"/><feColorMatrix in="SourceAlpha" result="hardAlpha" values="0 0 0 0 0 0 0 0 0 0 0 0 0 0 0 0 0 0 127 0"/><feOffset dy="2"/><feGaussianBlur stdDeviation="4"/><feColorMatrix values="0 0 0 0 0 0 0 0 0 0 0 0 0 0 0 0 0 0 0.75 0"/><feBlend in2="BackgroundImageFix" result="effect1_dropShadow_601_4623"/><feBlend in="SourceGraphic" in2="effect1_dropShadow_601_4623" result="shape"/></filter></defs></svg>