<svg xmlns="http://www.w3.org/2000/svg" width="80" height="80" fill="none"><g filter="url(#a)"><rect width="64" height="64" x="8" y="6" fill="#212529" rx="5"/><path fill="url(#b)" d="m40 13.043-12.1 6.989v13.979L40 41l12.106-6.989V20.032z"/><path fill="#6f95db" d="M40 20.133 34 23.6v6.932L40 34l6-3.466V23.6z"/><path fill="#fff" fill-opacity=".1" d="m40 13-12.131 7.037 12.13 6.605 12.132-6.562zm0 14.548-12.131 6.433 12.13 6.993 12.089-7.037z"/><path fill="#e5e5e5" d="M18.864 61a.37.37 0 0 1-.277-.102.4.4 0 0 1-.123-.236l-1.116-6.543a.1.1 0 0 1-.01-.041v-.031q0-.082.061-.143a.22.22 0 0 1 .154-.072h1.27q.286 0 .317.225l.666 4.004.737-2.365a.7.7 0 0 1 .102-.174q.072-.103.236-.103h.737q.174 0 .246.103.072.092.092.174l.737 2.355.666-3.994q.03-.225.317-.225h1.27q.093 0 .154.072.06.06.061.143v.072l-1.116 6.543a.4.4 0 0 1-.123.236.37.37 0 0 1-.276.102h-.973q-.174 0-.266-.092a.5.5 0 0 1-.123-.174l-1.034-2.929-1.035 2.929a.5.5 0 0 1-.122.174q-.082.092-.256.092zm9.508.102q-1.21 0-1.925-.655-.717-.655-.748-1.946v-.358q.03-.81.358-1.382.339-.584.922-.881.594-.307 1.383-.307.9 0 1.484.358.594.359.891.973t.297 1.403v.246a.23.23 0 0 1-.082.184.24.24 0 0 1-.174.072h-3.277v.071q.01.298.103.543a.77.77 0 0 0 .758.532.8.8 0 0 0 .337-.06q.143-.073.236-.155a2 2 0 0 0 .143-.153.5.5 0 0 1 .144-.123q.06-.03.184-.03h1.27q.102 0 .164.06.071.052.061.154-.01.174-.174.42a2.2 2.2 0 0 1-.481.492 2.6 2.6 0 0 1-.779.389 3.6 3.6 0 0 1-1.095.153m-.87-3.307h1.73v-.02q0-.329-.102-.574a.75.75 0 0 0-.297-.379.8.8 0 0 0-.471-.133.8.8 0 0 0-.471.133.86.86 0 0 0-.287.379 1.5 1.5 0 0 0-.103.573v.02Zm7.749 3.307q-.575 0-.963-.194a2 2 0 0 1-.625-.492v.328a.23.23 0 0 1-.082.184.24.24 0 0 1-.174.072H32.25a.25.25 0 0 1-.184-.072.25.25 0 0 1-.072-.184v-6.758a.25.25 0 0 1 .072-.185.25.25 0 0 1 .184-.071h1.25a.25.25 0 0 1 .184.071.25.25 0 0 1 .071.185v2.191a1.8 1.8 0 0 1 .615-.43 2.1 2.1 0 0 1 .88-.174q.513 0 .902.174.399.165.675.481.277.318.43.758.154.441.175.993a7 7 0 0 1 0 .717 3.3 3.3 0 0 1-.185 1.024 2.3 2.3 0 0 1-.43.758 1.85 1.85 0 0 1-.665.47q-.39.154-.901.154m-.553-1.372q.348 0 .542-.143a.77.77 0 0 0 .277-.39q.092-.245.112-.542a5 5 0 0 0 0-.635 2 2 0 0 0-.112-.543.77.77 0 0 0-.277-.389q-.194-.143-.543-.143a.9.9 0 0 0-.522.143.83.83 0 0 0-.307.359q-.102.215-.113.47a7 7 0 0 0 0 .769q.01.276.103.512.091.235.297.389.204.143.542.143Zm4.012 3.216a.25.25 0 0 1-.184-.072.25.25 0 0 1-.072-.184v-6.76a.25.25 0 0 1 .072-.184.25.25 0 0 1 .184-.072h1.157q.104 0 .174.072.082.072.082.184v.38q.236-.319.625-.523.39-.215.963-.215.51 0 .9.164.39.154.666.46t.43.748q.164.44.185 1.014a8 8 0 0 1 0 .758 3.4 3.4 0 0 1-.175.993 2.2 2.2 0 0 1-.43.747q-.277.307-.675.482-.39.163-.901.163a2.1 2.1 0 0 1-.881-.174 1.7 1.7 0 0 1-.615-.512v2.274a.25.25 0 0 1-.071.184.25.25 0 0 1-.185.072zm2.447-3.216q.35 0 .543-.143a.77.77 0 0 0 .277-.39q.092-.245.112-.542a5 5 0 0 0 0-.635 2 2 0 0 0-.112-.543.77.77 0 0 0-.277-.389q-.194-.143-.543-.143-.338 0-.542.154a.8.8 0 0 0-.297.378 1.6 1.6 0 0 0-.103.512 7 7 0 0 0 0 .768q.01.257.113.482a.9.9 0 0 0 .307.358.94.94 0 0 0 .523.133Zm5.355 1.372q-.553 0-.994-.204a1.83 1.83 0 0 1-.686-.574 1.36 1.36 0 0 1-.256-.809q0-.727.594-1.147.594-.43 1.577-.583l1.28-.195v-.143q0-.369-.154-.564-.153-.194-.563-.194a.9.9 0 0 0-.47.113.8.8 0 0 0-.277.307.3.3 0 0 1-.256.133H45.16a.24.24 0 0 1-.174-.061.2.2 0 0 1-.051-.164q0-.184.133-.42.143-.246.43-.482.287-.235.737-.389.45-.153 1.086-.153.665 0 1.136.153.471.154.758.43.297.277.44.656.144.369.144.819v3.113a.23.23 0 0 1-.082.184.24.24 0 0 1-.174.072h-1.188a.25.25 0 0 1-.184-.072.25.25 0 0 1-.072-.184v-.358a1.5 1.5 0 0 1-.359.358 1.7 1.7 0 0 1-.532.256q-.297.102-.696.102m.48-1.167q.298 0 .533-.123a.9.9 0 0 0 .38-.4 1.5 1.5 0 0 0 .143-.685v-.144l-.87.154q-.483.082-.707.256-.215.164-.215.39a.45.45 0 0 0 .102.296.7.7 0 0 0 .266.195q.164.06.369.061Zm6.41 1.167q-.759 0-1.342-.276t-.932-.799q-.338-.532-.368-1.27a7 7 0 0 1-.01-.41q0-.255.01-.419.03-.747.368-1.27a2.17 2.17 0 0 1 .922-.809 3.2 3.2 0 0 1 1.352-.276q.705 0 1.208.205.501.195.819.491.318.297.471.614.164.307.174.543a.22.22 0 0 1-.072.185.27.27 0 0 1-.184.071h-1.3a.26.26 0 0 1-.174-.051.5.5 0 0 1-.113-.154q-.123-.316-.318-.45a.8.8 0 0 0-.48-.133q-.411 0-.636.266-.214.266-.235.82-.01.409 0 .726.02.564.235.82.225.255.635.255.319 0 .502-.133.184-.133.297-.45a.5.5 0 0 1 .113-.154.26.26 0 0 1 .174-.051h1.3q.103 0 .184.082a.2.2 0 0 1 .072.174 1.4 1.4 0 0 1-.102.41 2.3 2.3 0 0 1-.799.962q-.307.215-.748.348a3.6 3.6 0 0 1-1.023.133M57.25 61a.25.25 0 0 1-.184-.072.25.25 0 0 1-.072-.184v-6.758a.25.25 0 0 1 .072-.185.25.25 0 0 1 .184-.071h1.188a.24.24 0 0 1 .174.071q.082.072.082.185v3.43l1.423-1.567a.7.7 0 0 1 .134-.123.35.35 0 0 1 .204-.05h1.372q.093 0 .154.07a.2.2 0 0 1 .072.154.3.3 0 0 1-.02.093.2.2 0 0 1-.062.082l-1.843 1.986 2.099 2.55q.082.083.082.164a.226.226 0 0 1-.236.225H60.67q-.153 0-.225-.051a2 2 0 0 1-.133-.123l-1.618-1.946v1.864a.23.23 0 0 1-.082.184.24.24 0 0 1-.174.072z"/></g><defs><radialGradient id="b" cx="0" cy="0" r="1" gradientTransform="matrix(12.9451 0 0 14.9477 39.905 26.161)" gradientUnits="userSpaceOnUse"><stop stop-color="#93b4e7"/><stop offset=".593" stop-color="#b9d1f8"/><stop offset="1" stop-color="#9cb6e0"/></radialGradient><filter id="a" width="80" height="80" x="0" y="0" color-interpolation-filters="sRGB" filterUnits="userSpaceOnUse"><feFlood flood-opacity="0" result="BackgroundImageFix"/><feColorMatrix in="SourceAlpha" result="hardAlpha" values="0 0 0 0 0 0 0 0 0 0 0 0 0 0 0 0 0 0 127 0"/><feOffset dy="2"/><feGaussianBlur stdDeviation="4"/><feColorMatrix values="0 0 0 0 0 0 0 0 0 0 0 0 0 0 0 0 0 0 0.75 0"/><feBlend in2="BackgroundImageFix" result="effect1_dropShadow_602_1018"/><feBlend in="SourceGraphic" in2="effect1_dropShadow_602_1018" result="shape"/></filter></defs></svg>