<svg xmlns="http://www.w3.org/2000/svg" width="80" height="80" fill="none"><g filter="url(#a)"><rect width="64" height="64" x="8" y="6" fill="#212529" rx="5"/><g clip-path="url(#b)"><path fill="#ccc" d="M24 17.667h10.667V13h-9.334C24.6 13 24 13.6 24 14.333z"/><path fill="#999" d="M45.333 13H34.667v4.667h10.666z"/><path fill="#666" d="M56 17.667H45.333V13h9.334C55.4 13 56 13.6 56 14.333z"/><path fill="url(#c)" d="M54.667 37H25.333C24.6 37 24 36.4 24 35.667V17h32v18.667C56 36.4 55.4 37 54.667 37"/><g filter="url(#d)"><path fill="url(#e)" d="m34.133 25.2-5.866 5.867c-.334.333-.334.8 0 1.066l1.2 1.2c.333.334.8.334 1.066 0l5.867-5.866c.333-.334.333-.8 0-1.067l-1.2-1.2c-.267-.267-.8-.267-1.067 0"/><mask id="g" width="9" height="9" x="28" y="25" maskUnits="userSpaceOnUse" style="mask-type:alpha"><path fill="url(#f)" d="m34.133 25.2-5.866 5.867c-.334.333-.334.8 0 1.066l1.2 1.2c.333.334.8.334 1.066 0l5.867-5.866c.333-.334.333-.8 0-1.067l-1.2-1.2c-.267-.267-.8-.267-1.067 0"/></mask><g mask="url(#g)"><g filter="url(#h)"><path fill="url(#i)" d="M30.533 20.533 36.4 26.4c.333.333.333.8 0 1.067l-1.2 1.2c-.333.333-.8.333-1.067 0L28.267 22.8c-.334-.333-.334-.8 0-1.067l1.2-1.2c.266-.266.8-.266 1.066 0"/></g><path fill="url(#j)" d="M30.533 20.533 36.4 26.4c.333.333.333.8 0 1.067l-1.2 1.2c-.333.333-.8.333-1.067 0L28.267 22.8c-.334-.333-.334-.8 0-1.067l1.2-1.2c.266-.266.8-.266 1.066 0"/></g></g><g filter="url(#k)"><path fill="url(#l)" d="M50.667 30.333H40c-.4 0-.667.267-.667.667v2c0 .4.267.667.667.667h10.667c.4 0 .666-.267.666-.667v-2c0-.4-.266-.667-.666-.667"/></g></g><path fill="#e5e5e5" d="M22.64 55a.3.3 0 0 1-.222-.082.33.33 0 0 1-.098-.188l-.893-5.234a.1.1 0 0 1-.008-.032v-.025q0-.066.049-.115a.17.17 0 0 1 .123-.057h1.015q.23 0 .254.18l.533 3.203.59-1.892a.5.5 0 0 1 .081-.14q.057-.082.189-.082h.59q.139 0 .196.082.057.074.074.14l.59 1.883.532-3.194q.024-.18.253-.18h1.016q.074 0 .123.057a.16.16 0 0 1 .049.115v.057l-.893 5.234a.33.33 0 0 1-.098.188.3.3 0 0 1-.221.082h-.778q-.14 0-.213-.074a.4.4 0 0 1-.098-.139l-.828-2.342-.827 2.342a.4.4 0 0 1-.098.14q-.066.073-.205.073zm5.995 0a.2.2 0 0 1-.148-.057.2.2 0 0 1-.057-.148v-3.85a.2.2 0 0 1 .058-.147.2.2 0 0 1 .147-.057h.966a.2.2 0 0 1 .14.057.2.2 0 0 1 .065.148v3.85q0 .09-.065.147a.2.2 0 0 1-.14.057zm-.008-4.873a.2.2 0 0 1-.148-.057.2.2 0 0 1-.057-.148v-.729a.2.2 0 0 1 .057-.147.2.2 0 0 1 .148-.066h.974q.09 0 .148.066a.2.2 0 0 1 .065.147v.73q0 .09-.065.147a.2.2 0 0 1-.148.057zm2.6 4.873a.2.2 0 0 1-.148-.057.2.2 0 0 1-.058-.148v-3.85a.2.2 0 0 1 .058-.147.2.2 0 0 1 .147-.057h.942a.2.2 0 0 1 .148.057.2.2 0 0 1 .057.148v.311q.213-.254.557-.426t.81-.172q.476 0 .836.213.369.213.573.63.213.411.213 1.008v2.285a.2.2 0 0 1-.065.148.2.2 0 0 1-.14.057h-1.031a.22.22 0 0 1-.148-.057.2.2 0 0 1-.057-.148V52.56q0-.384-.189-.59-.18-.212-.54-.212a.72.72 0 0 0-.54.213q-.198.204-.197.59v2.235q0 .09-.066.148a.2.2 0 0 1-.139.057h-1.024Zm6.638.082q-.394 0-.712-.123a1.6 1.6 0 0 1-.541-.377 1.8 1.8 0 0 1-.344-.606 2.9 2.9 0 0 1-.14-.819 6 6 0 0 1 0-.573q.017-.443.14-.795.123-.351.344-.605.221-.255.54-.386.32-.139.713-.139a1.64 1.64 0 0 1 1.204.483V49.39a.2.2 0 0 1 .057-.148.2.2 0 0 1 .148-.057h.999a.2.2 0 0 1 .14.057.2.2 0 0 1 .065.148v5.405q0 .09-.066.148a.2.2 0 0 1-.139.057h-.926a.2.2 0 0 1-.147-.057.2.2 0 0 1-.057-.148v-.262q-.196.238-.508.393-.31.156-.77.156m.442-1.098q.279 0 .434-.114a.7.7 0 0 0 .238-.311 1.1 1.1 0 0 0 .09-.41 6 6 0 0 0 0-.614 1 1 0 0 0-.09-.377.66.66 0 0 0-.246-.287.73.73 0 0 0-.426-.114.74.74 0 0 0-.434.114.6.6 0 0 0-.22.312 1.8 1.8 0 0 0-.083.434 2.7 2.7 0 0 0 0 .508q.016.237.082.434a.6.6 0 0 0 .221.31.74.74 0 0 0 .434.115m5.15 1.098q-.687 0-1.162-.221a1.66 1.66 0 0 1-.721-.63 2.2 2.2 0 0 1-.278-.992 7 7 0 0 1 0-.737q.032-.582.294-.99.262-.41.73-.632.475-.22 1.138-.22.671 0 1.138.22.476.222.737.631.262.41.295.991a7 7 0 0 1 0 .737 2.1 2.1 0 0 1-.287.991 1.6 1.6 0 0 1-.72.63q-.468.222-1.163.222Zm0-1q.37 0 .533-.22.172-.222.197-.664.008-.122.008-.327c0-.205-.003-.246-.008-.328q-.025-.435-.197-.655-.165-.23-.532-.23-.36 0-.533.23-.171.221-.188.655a5 5 0 0 0-.008.328q0 .204.008.327.016.442.188.664.173.22.533.22Zm4.044.918q-.123 0-.18-.057a.4.4 0 0 1-.09-.148l-1.18-3.792a.2.2 0 0 1-.016-.082q0-.074.058-.123a.18.18 0 0 1 .13-.057h.844q.107 0 .164.057a.26.26 0 0 1 .082.115l.688 2.343.737-2.335a.3.3 0 0 1 .074-.114.24.24 0 0 1 .18-.066h.54q.115 0 .172.066a.25.25 0 0 1 .082.114l.737 2.334.688-2.342a.3.3 0 0 1 .074-.114.25.25 0 0 1 .172-.058h.844q.074 0 .122.057a.16.16 0 0 1 .058.123.4.4 0 0 1-.008.082l-1.18 3.792a.3.3 0 0 1-.09.148q-.057.057-.18.057h-.737a.26.26 0 0 1-.18-.057.3.3 0 0 1-.09-.148l-.754-2.244-.753 2.244a.3.3 0 0 1-.09.148.26.26 0 0 1-.18.057zm7.316.082a3.1 3.1 0 0 1-.91-.115 2.2 2.2 0 0 1-.605-.295 1.4 1.4 0 0 1-.344-.352.74.74 0 0 1-.123-.32.17.17 0 0 1 .057-.147.2.2 0 0 1 .14-.065h.933a.1.1 0 0 1 .041.008.4.4 0 0 1 .05.033q.105.057.212.147.107.082.246.148a.8.8 0 0 0 .336.065q.228 0 .384-.09a.29.29 0 0 0 .156-.27.3.3 0 0 0-.074-.213q-.073-.09-.303-.172a4.3 4.3 0 0 0-.671-.164 3.5 3.5 0 0 1-.745-.254 1.3 1.3 0 0 1-.492-.418 1.1 1.1 0 0 1-.172-.63q0-.328.213-.63.213-.304.623-.492.409-.197 1.007-.197.475 0 .819.115.352.106.59.278.245.173.368.353t.131.327a.2.2 0 0 1-.049.148.18.18 0 0 1-.131.057h-.852a.3.3 0 0 1-.065-.008l-.058-.033a1 1 0 0 1-.196-.131 1.2 1.2 0 0 0-.23-.148.7.7 0 0 0-.327-.065.54.54 0 0 0-.344.098.327.327 0 0 0-.057.45q.073.09.286.164.222.075.68.164.566.09.9.295.337.197.476.467.14.262.14.557a1.1 1.1 0 0 1-.238.696q-.23.303-.688.475-.459.165-1.114.164M25.202 65a2.3 2.3 0 0 1-.91-.164 1.26 1.26 0 0 1-.58-.524q-.205-.36-.205-.925v-1.573h-.64a.23.23 0 0 1-.155-.057.2.2 0 0 1-.057-.148v-.663a.2.2 0 0 1 .057-.148.23.23 0 0 1 .156-.057h.639V59.39a.2.2 0 0 1 .057-.148.22.22 0 0 1 .147-.057h.95a.2.2 0 0 1 .148.057.2.2 0 0 1 .057.148v1.351h1.024a.2.2 0 0 1 .147.057.2.2 0 0 1 .058.148v.663a.2.2 0 0 1-.058.148.2.2 0 0 1-.147.057h-1.024v1.458a.8.8 0 0 0 .107.442q.105.164.36.164h.63a.2.2 0 0 1 .148.057.2.2 0 0 1 .057.148v.712a.2.2 0 0 1-.057.148.2.2 0 0 1-.147.057zm3.61.082q-.966 0-1.54-.524-.573-.524-.597-1.556v-.287q.024-.647.286-1.106a1.76 1.76 0 0 1 .737-.704 2.4 2.4 0 0 1 1.106-.246q.72 0 1.188.287.475.286.712.778.238.492.238 1.122v.197q0 .09-.066.147a.2.2 0 0 1-.14.057h-2.62v.058q.009.237.082.434a.62.62 0 0 0 .606.426q.165 0 .27-.05a1 1 0 0 0 .189-.122q.073-.074.114-.123a.4.4 0 0 1 .115-.098.34.34 0 0 1 .147-.025h1.016a.17.17 0 0 1 .13.05q.059.04.05.122-.008.14-.14.336a1.7 1.7 0 0 1-.384.393q-.246.189-.622.311a2.8 2.8 0 0 1-.877.123m-.696-2.645H29.5v-.017q0-.262-.082-.459a.6.6 0 0 0-.237-.303.65.65 0 0 0-.377-.106.65.65 0 0 0-.377.106.7.7 0 0 0-.23.303 1.2 1.2 0 0 0-.081.46zM31.914 65a.2.2 0 0 1-.147-.057.2.2 0 0 1-.058-.148v-3.85a.2.2 0 0 1 .058-.138.2.2 0 0 1 .147-.066h.942q.09 0 .147.066a.2.2 0 0 1 .058.139v.328q.22-.254.524-.394a1.7 1.7 0 0 1 .696-.139h.36a.2.2 0 0 1 .14.057.2.2 0 0 1 .065.148v.843a.2.2 0 0 1-.065.148.2.2 0 0 1-.14.057h-.794q-.336 0-.524.189-.18.18-.18.516v2.096q0 .09-.066.148a.2.2 0 0 1-.147.057zm3.72 0a.2.2 0 0 1-.148-.057.2.2 0 0 1-.058-.148v-3.85a.2.2 0 0 1 .058-.147.2.2 0 0 1 .147-.057h.893a.2.2 0 0 1 .147.057.2.2 0 0 1 .058.148v.278a1.4 1.4 0 0 1 .458-.384 1.4 1.4 0 0 1 .696-.18q.943-.017 1.294.712.189-.312.541-.508a1.5 1.5 0 0 1 .77-.205q.426 0 .761.197.345.188.55.59.204.393.204 1.023v2.326q0 .09-.066.148A.2.2 0 0 1 41.8 65h-.95a.23.23 0 0 1-.155-.057.2.2 0 0 1-.058-.148v-2.268a1 1 0 0 0-.082-.45.5.5 0 0 0-.22-.246.67.67 0 0 0-.615 0 .56.56 0 0 0-.23.245q-.081.165-.081.45v2.27a.2.2 0 0 1-.057.147.2.2 0 0 1-.148.057h-.95a.2.2 0 0 1-.147-.057.2.2 0 0 1-.058-.148v-2.268a.94.94 0 0 0-.09-.45.56.56 0 0 0-.23-.246.65.65 0 0 0-.605 0 .56.56 0 0 0-.23.245 1 1 0 0 0-.081.442v2.277q0 .09-.066.148A.2.2 0 0 1 36.6 65zm7.493 0a.2.2 0 0 1-.147-.057.2.2 0 0 1-.057-.148v-3.85a.2.2 0 0 1 .057-.147.2.2 0 0 1 .147-.057h.967a.2.2 0 0 1 .139.057.2.2 0 0 1 .066.148v3.85q0 .09-.066.147a.2.2 0 0 1-.14.057zm-.008-4.873a.2.2 0 0 1-.147-.057.2.2 0 0 1-.058-.148v-.729a.2.2 0 0 1 .058-.147.2.2 0 0 1 .147-.066h.975q.09 0 .147.066a.2.2 0 0 1 .066.147v.73q0 .09-.066.147a.2.2 0 0 1-.147.057zM45.72 65a.2.2 0 0 1-.148-.057.2.2 0 0 1-.057-.148v-3.85a.2.2 0 0 1 .057-.147.2.2 0 0 1 .148-.057h.942a.2.2 0 0 1 .147.057.2.2 0 0 1 .057.148v.311q.213-.254.557-.426t.811-.172q.475 0 .835.213.369.213.574.63.213.411.213 1.008v2.285q0 .09-.066.148a.2.2 0 0 1-.14.057h-1.031a.22.22 0 0 1-.147-.057.2.2 0 0 1-.058-.148V62.56q0-.384-.188-.59-.18-.212-.54-.212a.72.72 0 0 0-.541.213q-.197.204-.197.59v2.235a.2.2 0 0 1-.065.148.2.2 0 0 1-.14.057H45.72Zm6.327.082q-.442 0-.794-.164a1.46 1.46 0 0 1-.549-.459 1.1 1.1 0 0 1-.205-.647q0-.58.475-.917.476-.344 1.262-.467l1.023-.155v-.115q0-.296-.122-.45-.123-.156-.45-.156a.7.7 0 0 0-.378.09.64.64 0 0 0-.22.246.24.24 0 0 1-.206.106h-.917q-.09 0-.139-.049a.17.17 0 0 1-.04-.13q0-.149.105-.337a1.5 1.5 0 0 1 .345-.385 1.9 1.9 0 0 1 .59-.31q.36-.124.867-.124.532 0 .91.123.376.123.605.344.238.222.353.524.114.295.114.656v2.49q0 .09-.065.147a.2.2 0 0 1-.14.057h-.95a.2.2 0 0 1-.147-.057.2.2 0 0 1-.057-.148v-.286a1.2 1.2 0 0 1-.287.286q-.18.132-.426.205a1.7 1.7 0 0 1-.557.082m.385-.934a.9.9 0 0 0 .426-.098.7.7 0 0 0 .303-.32q.115-.22.115-.548v-.115l-.696.123q-.385.066-.565.205-.172.13-.172.311 0 .14.081.237a.6.6 0 0 0 .213.156q.132.05.295.05Zm3.373.852a.2.2 0 0 1-.147-.057.2.2 0 0 1-.057-.148V59.39a.2.2 0 0 1 .057-.148.2.2 0 0 1 .147-.057h.967a.2.2 0 0 1 .147.057.2.2 0 0 1 .057.148v5.405a.2.2 0 0 1-.057.148.2.2 0 0 1-.147.057z"/></g><defs><linearGradient id="c" x1="48.297" x2="31.881" y1="40.884" y2="12.45" gradientUnits="userSpaceOnUse"><stop stop-color="#333"/><stop offset="1" stop-color="#4d4d4d"/></linearGradient><linearGradient id="e" x1="33.685" x2="30.989" y1="31.664" y2="26.995" gradientUnits="userSpaceOnUse"><stop stop-color="#999"/><stop offset="1" stop-color="#b3b3b3"/></linearGradient><linearGradient id="f" x1="33.685" x2="30.989" y1="31.664" y2="26.995" gradientUnits="userSpaceOnUse"><stop stop-color="#999"/><stop offset="1" stop-color="#b3b3b3"/></linearGradient><linearGradient id="i" x1="34.85" x2="29.825" y1="29.022" y2="20.319" gradientUnits="userSpaceOnUse"><stop stop-color="#ccc"/><stop offset="1" stop-color="#e6e6e6"/></linearGradient><linearGradient id="j" x1="34.85" x2="29.825" y1="29.022" y2="20.319" gradientUnits="userSpaceOnUse"><stop stop-color="#ccc"/><stop offset="1" stop-color="#e6e6e6"/></linearGradient><linearGradient id="l" x1="47.433" x2="43.233" y1="35.637" y2="28.363" gradientUnits="userSpaceOnUse"><stop stop-color="#ccc"/><stop offset="1" stop-color="#e6e6e6"/></linearGradient><filter id="a" width="80" height="80" x="0" y="0" color-interpolation-filters="sRGB" filterUnits="userSpaceOnUse"><feFlood flood-opacity="0" result="BackgroundImageFix"/><feColorMatrix in="SourceAlpha" result="hardAlpha" values="0 0 0 0 0 0 0 0 0 0 0 0 0 0 0 0 0 0 127 0"/><feOffset dy="2"/><feGaussianBlur stdDeviation="4"/><feColorMatrix values="0 0 0 0 0 0 0 0 0 0 0 0 0 0 0 0 0 0 0.75 0"/><feBlend in2="BackgroundImageFix" result="effect1_dropShadow_603_533"/><feBlend in="SourceGraphic" in2="effect1_dropShadow_603_533" result="shape"/></filter><filter id="d" width="14.633" height="14.583" x="25.017" y="23" color-interpolation-filters="sRGB" filterUnits="userSpaceOnUse"><feFlood flood-opacity="0" result="BackgroundImageFix"/><feColorMatrix in="SourceAlpha" result="hardAlpha" values="0 0 0 0 0 0 0 0 0 0 0 0 0 0 0 0 0 0 127 0"/><feOffset dy=".5"/><feGaussianBlur stdDeviation=".5"/><feColorMatrix values="0 0 0 0 0 0 0 0 0 0 0 0 0 0 0 0 0 0 0.1 0"/><feBlend in2="BackgroundImageFix" result="effect1_dropShadow_603_533"/><feColorMatrix in="SourceAlpha" result="hardAlpha" values="0 0 0 0 0 0 0 0 0 0 0 0 0 0 0 0 0 0 127 0"/><feOffset dy="1"/><feGaussianBlur stdDeviation="1.5"/><feColorMatrix values="0 0 0 0 0 0 0 0 0 0 0 0 0 0 0 0 0 0 0.2 0"/><feBlend in2="effect1_dropShadow_603_533" result="effect2_dropShadow_603_533"/><feBlend in="SourceGraphic" in2="effect2_dropShadow_603_533" result="shape"/></filter><filter id="h" width="14.633" height="14.583" x="25.017" y="18.333" color-interpolation-filters="sRGB" filterUnits="userSpaceOnUse"><feFlood flood-opacity="0" result="BackgroundImageFix"/><feColorMatrix in="SourceAlpha" result="hardAlpha" values="0 0 0 0 0 0 0 0 0 0 0 0 0 0 0 0 0 0 127 0"/><feOffset dy=".5"/><feGaussianBlur stdDeviation=".5"/><feColorMatrix values="0 0 0 0 0 0 0 0 0 0 0 0 0 0 0 0 0 0 0.1 0"/><feBlend in2="BackgroundImageFix" result="effect1_dropShadow_603_533"/><feColorMatrix in="SourceAlpha" result="hardAlpha" values="0 0 0 0 0 0 0 0 0 0 0 0 0 0 0 0 0 0 127 0"/><feOffset dy="1"/><feGaussianBlur stdDeviation="1.5"/><feColorMatrix values="0 0 0 0 0 0 0 0 0 0 0 0 0 0 0 0 0 0 0.2 0"/><feBlend in2="effect1_dropShadow_603_533" result="effect2_dropShadow_603_533"/><feBlend in="SourceGraphic" in2="effect2_dropShadow_603_533" result="shape"/></filter><filter id="k" width="18" height="9.333" x="36.333" y="28.333" color-interpolation-filters="sRGB" filterUnits="userSpaceOnUse"><feFlood flood-opacity="0" result="BackgroundImageFix"/><feColorMatrix in="SourceAlpha" result="hardAlpha" values="0 0 0 0 0 0 0 0 0 0 0 0 0 0 0 0 0 0 127 0"/><feOffset dy=".5"/><feGaussianBlur stdDeviation=".5"/><feColorMatrix values="0 0 0 0 0 0 0 0 0 0 0 0 0 0 0 0 0 0 0.1 0"/><feBlend in2="BackgroundImageFix" result="effect1_dropShadow_603_533"/><feColorMatrix in="SourceAlpha" result="hardAlpha" values="0 0 0 0 0 0 0 0 0 0 0 0 0 0 0 0 0 0 127 0"/><feOffset dy="1"/><feGaussianBlur stdDeviation="1.5"/><feColorMatrix values="0 0 0 0 0 0 0 0 0 0 0 0 0 0 0 0 0 0 0.2 0"/><feBlend in2="effect1_dropShadow_603_533" result="effect2_dropShadow_603_533"/><feBlend in="SourceGraphic" in2="effect2_dropShadow_603_533" result="shape"/></filter><clipPath id="b"><path fill="#fff" d="M24 13h32v24H24z"/></clipPath></defs></svg>