<svg xmlns="http://www.w3.org/2000/svg" width="80" height="80" fill="none"><g filter="url(#a)"><rect width="64" height="64" x="8" y="6" fill="#212529" rx="5"/><g clip-path="url(#b)"><path fill="#00adef" fill-rule="evenodd" d="M55.059 27.94c.52 0 .941.422.941.942v13.176a.94.94 0 0 1-.941.941 1 1 0 0 1-.126-.007l-15.06-2.056a.94.94 0 0 1-.814-.933V28.882c0-.52.422-.941.941-.941h15.059Zm-18.824 0c.52 0 .941.422.941.942v10.575a.94.94 0 0 1-1.069.932l-11.294-1.567a.94.94 0 0 1-.813-.931v-9.01c0-.519.422-.94.941-.94h11.294Zm-.128-14.33a.93.93 0 0 1 .745.222.94.94 0 0 1 .324.71v10.574a.94.94 0 0 1-.941.942H24.94a.94.94 0 0 1-.94-.942v-9.008a.94.94 0 0 1 .812-.932zm18.826-2.602a.95.95 0 0 1 .745.224.95.95 0 0 1 .322.708v13.176a.94.94 0 0 1-.941.941H40a.94.94 0 0 1-.941-.94V13.994a.94.94 0 0 1 .815-.932z" clip-rule="evenodd"/></g><path fill="#e5e5e5" d="M19.364 61a.37.37 0 0 1-.277-.102.4.4 0 0 1-.123-.236l-1.116-6.543a.1.1 0 0 1-.01-.041v-.031q0-.082.061-.143a.22.22 0 0 1 .154-.072h1.27q.286 0 .317.225l.666 4.004.737-2.365a.7.7 0 0 1 .102-.174q.072-.103.236-.103h.737q.174 0 .246.103.072.092.092.174l.737 2.355.666-3.994q.03-.225.317-.225h1.27q.093 0 .154.072.06.06.061.143v.072l-1.116 6.543a.4.4 0 0 1-.123.236.37.37 0 0 1-.276.102h-.973q-.174 0-.266-.092a.5.5 0 0 1-.123-.174l-1.034-2.929-1.035 2.929a.5.5 0 0 1-.122.174q-.082.092-.256.092zm7.496 0a.25.25 0 0 1-.184-.072.25.25 0 0 1-.072-.184v-4.813a.25.25 0 0 1 .072-.184.25.25 0 0 1 .184-.072h1.209q.102 0 .174.072.081.072.082.184v4.813a.23.23 0 0 1-.082.184.24.24 0 0 1-.174.072zm-.01-6.093a.25.25 0 0 1-.184-.071.25.25 0 0 1-.072-.185v-.911a.25.25 0 0 1 .072-.184.23.23 0 0 1 .184-.082h1.218q.113 0 .185.082a.23.23 0 0 1 .082.184v.911a.23.23 0 0 1-.082.184.25.25 0 0 1-.184.072h-1.22ZM30.1 61a.25.25 0 0 1-.184-.072.25.25 0 0 1-.072-.184v-4.813a.25.25 0 0 1 .072-.184.25.25 0 0 1 .184-.072h1.178a.25.25 0 0 1 .184.072.25.25 0 0 1 .072.184v.39q.266-.318.696-.533a2.24 2.24 0 0 1 1.014-.215q.594 0 1.044.266.462.266.717.788.267.513.266 1.26v2.857a.23.23 0 0 1-.082.184.24.24 0 0 1-.174.072h-1.29a.27.27 0 0 1-.184-.072.25.25 0 0 1-.072-.184v-2.795q0-.481-.235-.738-.225-.266-.676-.266-.42 0-.676.266-.246.256-.246.738v2.795a.23.23 0 0 1-.082.184.24.24 0 0 1-.174.072zm8.3.102q-.49 0-.89-.153a1.95 1.95 0 0 1-.676-.471 2.3 2.3 0 0 1-.43-.758q-.154-.45-.174-1.024a7 7 0 0 1 0-.717q.021-.553.174-.993.154-.44.43-.758a1.8 1.8 0 0 1 .676-.481q.4-.174.89-.174a2.05 2.05 0 0 1 1.506.604v-2.191a.25.25 0 0 1 .072-.185.25.25 0 0 1 .184-.071h1.25q.102 0 .173.071.082.072.082.185v6.758a.23.23 0 0 1-.082.184.24.24 0 0 1-.174.072h-1.157a.25.25 0 0 1-.184-.072.25.25 0 0 1-.072-.184v-.328a1.9 1.9 0 0 1-.635.492q-.39.195-.962.194Zm.554-1.372q.348 0 .542-.143a.9.9 0 0 0 .297-.39q.103-.235.113-.511a8 8 0 0 0 0-.768 1.2 1.2 0 0 0-.113-.471.83.83 0 0 0-.307-.359q-.204-.143-.532-.143-.339 0-.543.143a.77.77 0 0 0-.276.39 2.2 2.2 0 0 0-.103.542q-.03.318 0 .635.02.297.103.543a.77.77 0 0 0 .276.389q.204.143.543.143m6.44 1.372q-.861 0-1.455-.276a2.08 2.08 0 0 1-.901-.789q-.307-.521-.348-1.239a9 9 0 0 1 0-.921q.04-.727.369-1.24.328-.51.91-.788.595-.276 1.424-.276.84 0 1.424.276.593.277.921.789t.369 1.239a9 9 0 0 1 0 .922q-.04.716-.359 1.238a2 2 0 0 1-.9.789q-.584.276-1.455.276Zm0-1.249q.46 0 .665-.276.215-.277.246-.83.01-.153.01-.41 0-.256-.01-.409-.03-.543-.246-.82-.205-.286-.666-.286-.45 0-.665.287-.215.276-.236.819-.01.153-.01.41 0 .255.01.41.02.552.236.829.215.276.665.276ZM50.448 61q-.153 0-.225-.072a.5.5 0 0 1-.113-.184l-1.474-4.741a.3.3 0 0 1-.021-.102q0-.093.072-.154a.23.23 0 0 1 .163-.072h1.055q.133 0 .205.072a.3.3 0 0 1 .102.143l.86 2.929.922-2.919a.34.34 0 0 1 .092-.143.3.3 0 0 1 .226-.082h.675q.144 0 .215.082a.3.3 0 0 1 .103.144l.922 2.918.86-2.929a.34.34 0 0 1 .092-.143.32.32 0 0 1 .215-.072h1.055q.092 0 .153.072.072.06.072.154a.5.5 0 0 1-.01.102l-1.475 4.741a.37.37 0 0 1-.113.184q-.07.072-.225.072h-.921a.33.33 0 0 1-.226-.072.37.37 0 0 1-.112-.184l-.942-2.806-.943 2.806a.37.37 0 0 1-.112.184.33.33 0 0 1-.225.072zm9.147.102q-.666 0-1.137-.143a2.8 2.8 0 0 1-.758-.369 1.7 1.7 0 0 1-.43-.44q-.144-.235-.154-.4a.21.21 0 0 1 .072-.184.25.25 0 0 1 .174-.082h1.168a.1.1 0 0 1 .05.01 1 1 0 0 1 .062.042q.134.071.266.184.135.102.308.184a1 1 0 0 0 .42.082.95.95 0 0 0 .48-.112.37.37 0 0 0 .195-.338q0-.164-.092-.267-.092-.112-.379-.215a5.4 5.4 0 0 0-.84-.204 4.4 4.4 0 0 1-.931-.318 1.6 1.6 0 0 1-.615-.522 1.4 1.4 0 0 1-.215-.789q0-.409.267-.788.266-.379.778-.614.511-.246 1.26-.246.593 0 1.023.143.441.133.738.348.306.215.46.44t.164.41a.24.24 0 0 1-.061.185.23.23 0 0 1-.164.071H60.64a.3.3 0 0 1-.082-.01 1 1 0 0 1-.072-.041 1.3 1.3 0 0 1-.245-.164 1.5 1.5 0 0 0-.287-.184.9.9 0 0 0-.41-.082q-.276 0-.43.123a.41.41 0 0 0-.072.563q.092.112.359.205.276.092.85.205.705.113 1.126.368.42.246.594.584.174.327.174.696 0 .492-.297.87-.285.38-.86.595-.573.204-1.392.204Z"/></g><defs><clipPath id="b"><path fill="#fff" d="M24 11h32v32H24z"/></clipPath><filter id="a" width="80" height="80" x="0" y="0" color-interpolation-filters="sRGB" filterUnits="userSpaceOnUse"><feFlood flood-opacity="0" result="BackgroundImageFix"/><feColorMatrix in="SourceAlpha" result="hardAlpha" values="0 0 0 0 0 0 0 0 0 0 0 0 0 0 0 0 0 0 127 0"/><feOffset dy="2"/><feGaussianBlur stdDeviation="4"/><feColorMatrix values="0 0 0 0 0 0 0 0 0 0 0 0 0 0 0 0 0 0 0.75 0"/><feBlend in2="BackgroundImageFix" result="effect1_dropShadow_602_1938"/><feBlend in="SourceGraphic" in2="effect1_dropShadow_602_1938" result="shape"/></filter></defs></svg>