<svg xmlns="http://www.w3.org/2000/svg" width="80" height="80" fill="none"><g filter="url(#a)"><rect width="64" height="64" x="8" y="6" fill="#212529" rx="5"/><path fill="#2188b6" d="M52.208 35.409a10.5 10.5 0 0 0-3.96 1.822 23.7 23.7 0 0 1-5.834 2.642c-.252.294-.6.489-.983.55a62 62 0 0 1-6.447.577c-1.163.009-1.876-.3-2.074-.776a1.574 1.574 0 0 1 .866-2.074 4 4 0 0 1-.514-.38c-.171-.17-.352-.513-.406-.387-.225.55-.343 1.894-.947 2.5-.83.839-2.4.559-3.328.072-1.02-.541.072-1.813.072-1.813a.73.73 0 0 1-.992-.343 4.85 4.85 0 0 1-.667-2.95 5.37 5.37 0 0 1 1.749-2.894 9.3 9.3 0 0 1 .658-4.4 10.45 10.45 0 0 1 3.165-3.661s-1.938-2.147-1.216-4.077c.469-1.262.658-1.253.812-1.308a3.6 3.6 0 0 0 1.452-.857 5.27 5.27 0 0 1 4.41-1.7S39.2 12.4 40.277 13.09c.596.914 1.109 1.88 1.533 2.886 0 0 1.28-.748 1.425-.47a11.34 11.34 0 0 1 .523 6.133 14 14 0 0 1-2.6 5.41c-.135.226 1.55.939 2.615 3.888.983 2.7.108 4.96.262 5.212.027.045.036.063.036.063s1.127.09 3.39-1.308A8.5 8.5 0 0 1 51.74 33.3a1.08 1.08 0 0 1 .469 2.109Z"/><path fill="#e5e5e5" d="M30.816 61a.27.27 0 0 1-.184-.072.25.25 0 0 1-.072-.184v-2.202l-2.376-4.382-.02-.051a.19.19 0 0 1 .051-.205.23.23 0 0 1 .164-.072h1.28q.153 0 .235.082a.3.3 0 0 1 .113.133l1.475 2.642 1.474-2.642a.5.5 0 0 1 .113-.133.36.36 0 0 1 .246-.082h1.28q.092 0 .153.072a.2.2 0 0 1 .051.204.2.2 0 0 1-.01.052l-2.386 4.382v2.202a.25.25 0 0 1-.072.184.25.25 0 0 1-.184.072zm5.346.102q-.553 0-.994-.204a1.8 1.8 0 0 1-.686-.574 1.36 1.36 0 0 1-.256-.809q0-.727.594-1.147.594-.43 1.577-.583l1.28-.195v-.143q0-.369-.154-.564-.153-.194-.563-.194a.9.9 0 0 0-.47.113.8.8 0 0 0-.277.307.3.3 0 0 1-.256.133H34.81a.24.24 0 0 1-.174-.061.2.2 0 0 1-.051-.164q0-.184.133-.42.143-.246.43-.482.287-.235.737-.389.45-.153 1.086-.153.665 0 1.136.153.471.154.758.43.297.277.44.656.144.369.144.819v3.113a.23.23 0 0 1-.082.184.24.24 0 0 1-.174.072h-1.188a.25.25 0 0 1-.184-.072.25.25 0 0 1-.072-.184v-.358a1.5 1.5 0 0 1-.359.358 1.7 1.7 0 0 1-.532.256q-.297.102-.696.102m.48-1.167q.298 0 .533-.123a.9.9 0 0 0 .38-.4 1.5 1.5 0 0 0 .143-.685v-.144l-.87.154q-.483.082-.707.256-.216.164-.215.39a.45.45 0 0 0 .102.296.7.7 0 0 0 .266.195q.164.06.369.061ZM40.86 61a.25.25 0 0 1-.184-.072.25.25 0 0 1-.072-.184v-4.813q0-.102.072-.174a.23.23 0 0 1 .184-.082h1.178q.112 0 .184.082a.24.24 0 0 1 .072.174v.41q.276-.318.655-.492.39-.174.87-.174h.451q.102 0 .174.072.082.072.082.184v1.055q0 .103-.082.184a.24.24 0 0 1-.174.072h-.993q-.42 0-.656.235-.225.225-.225.646v2.621a.23.23 0 0 1-.082.184.25.25 0 0 1-.184.072zm4.65 0a.25.25 0 0 1-.184-.072.25.25 0 0 1-.072-.184v-4.813a.25.25 0 0 1 .072-.184.25.25 0 0 1 .184-.072h1.178a.25.25 0 0 1 .184.072.25.25 0 0 1 .072.184v.39q.266-.318.696-.533a2.24 2.24 0 0 1 1.014-.215q.594 0 1.044.266.461.266.717.788.267.513.266 1.26v2.857a.23.23 0 0 1-.082.184.24.24 0 0 1-.174.072h-1.29a.27.27 0 0 1-.184-.072.25.25 0 0 1-.072-.184v-2.795q0-.481-.235-.738-.225-.266-.676-.266-.42 0-.676.266-.246.256-.246.738v2.795a.23.23 0 0 1-.082.184.24.24 0 0 1-.174.072z"/></g><defs><filter id="a" width="80" height="80" x="0" y="0" color-interpolation-filters="sRGB" filterUnits="userSpaceOnUse"><feFlood flood-opacity="0" result="BackgroundImageFix"/><feColorMatrix in="SourceAlpha" result="hardAlpha" values="0 0 0 0 0 0 0 0 0 0 0 0 0 0 0 0 0 0 127 0"/><feOffset dy="2"/><feGaussianBlur stdDeviation="4"/><feColorMatrix values="0 0 0 0 0 0 0 0 0 0 0 0 0 0 0 0 0 0 0.75 0"/><feBlend in2="BackgroundImageFix" result="effect1_dropShadow_602_279"/><feBlend in="SourceGraphic" in2="effect1_dropShadow_602_279" result="shape"/></filter></defs></svg>