<svg width="91" height="101" fill="none" xmlns="http://www.w3.org/2000/svg"><g filter="url(#a)"><rect x="8" y="6" width="75" height="85" rx="5" fill="#212529"/><g clip-path="url(#b)"><path d="M34.205 48.34H45.47l2.886 5.08H25.5l8.026-13.908 3.363-5.824 2.887 5.004-5.571 9.648Zm4.202-17.285 2.772-4.804 15.69 27.168h-5.556L38.406 31.055Zm4.315-7.477h5.55L65.5 53.42h-5.556L42.722 23.58Z" fill="url(#c)"/></g><path d="M22.422 69.422a.272.272 0 0 1-.18-.072.272.272 0 0 1-.072-.18c0-.04.004-.076.012-.108l2.82-7.704a.464.464 0 0 1 .145-.228.466.466 0 0 1 .324-.108h1.776c.136 0 .24.036.311.108.08.064.133.14.157.228l2.808 7.704a.238.238 0 0 1 .024.108.252.252 0 0 1-.085.18.244.244 0 0 1-.18.072h-1.476c-.12 0-.212-.028-.276-.084a.528.528 0 0 1-.108-.168l-.468-1.224H24.75l-.456 1.224a.528.528 0 0 1-.108.168c-.055.056-.151.084-.288.084h-1.476Zm2.82-3.204h2.232l-1.128-3.168-1.104 3.168Zm6.418 3.204a.292.292 0 0 1-.216-.084.292.292 0 0 1-.084-.216v-5.64c0-.088.028-.16.084-.216a.292.292 0 0 1 .216-.084h1.308c.088 0 .16.028.216.084a.292.292 0 0 1 .084.216v.408c.16-.216.384-.404.672-.564a2.075 2.075 0 0 1 1.02-.264c.92-.016 1.552.332 1.896 1.044.184-.304.448-.552.792-.744.344-.2.72-.3 1.128-.3.416 0 .788.096 1.116.288.336.184.604.472.804.864.2.384.3.884.3 1.5v3.408c0 .088-.032.16-.096.216a.278.278 0 0 1-.204.084h-1.392a.335.335 0 0 1-.228-.084.292.292 0 0 1-.084-.216v-3.324c0-.28-.04-.5-.12-.66a.757.757 0 0 0-.324-.36.985.985 0 0 0-.9 0 .82.82 0 0 0-.336.36c-.08.16-.12.38-.12.66v3.324c0 .088-.028.16-.084.216a.292.292 0 0 1-.216.084H35.5a.292.292 0 0 1-.216-.084.292.292 0 0 1-.084-.216v-3.324c0-.28-.044-.5-.132-.66a.82.82 0 0 0-.336-.36.96.96 0 0 0-.888 0 .82.82 0 0 0-.336.36c-.08.16-.12.376-.12.648v3.336c0 .088-.032.16-.096.216a.292.292 0 0 1-.216.084H31.66Zm10.98 2.28a.292.292 0 0 1-.215-.084.292.292 0 0 1-.084-.216v-7.92c0-.088.028-.16.084-.216a.292.292 0 0 1 .216-.084h1.356c.08 0 .148.028.204.084a.274.274 0 0 1 .096.216v.444c.184-.248.428-.452.732-.612.304-.168.68-.252 1.128-.252.4 0 .752.064 1.056.192.304.12.564.3.78.54.216.24.384.532.504.876.128.344.2.74.216 1.188a8.935 8.935 0 0 1 0 .888c-.016.432-.084.82-.204 1.164-.12.344-.288.636-.504.876a2.27 2.27 0 0 1-.792.564 2.704 2.704 0 0 1-1.056.192 2.45 2.45 0 0 1-1.032-.204 2.013 2.013 0 0 1-.72-.6v2.664c0 .088-.028.16-.084.216a.292.292 0 0 1-.216.084H42.64Zm2.869-3.768c.272 0 .484-.056.636-.168a.905.905 0 0 0 .324-.456c.072-.192.116-.404.132-.636a5.772 5.772 0 0 0 0-.744 2.243 2.243 0 0 0-.132-.636.905.905 0 0 0-.324-.456c-.152-.112-.364-.168-.636-.168-.264 0-.476.06-.636.18a.954.954 0 0 0-.348.444 1.82 1.82 0 0 0-.12.6 8.451 8.451 0 0 0 0 .9c.008.2.052.388.132.564.08.168.2.308.36.42.16.104.364.156.612.156Zm4.702 1.488a.292.292 0 0 1-.216-.084.292.292 0 0 1-.084-.216v-7.92c0-.088.028-.16.084-.216a.292.292 0 0 1 .216-.084h1.416c.088 0 .16.028.216.084a.292.292 0 0 1 .084.216v7.92c0 .088-.028.16-.084.216a.292.292 0 0 1-.216.084h-1.416Zm3.844 0a.292.292 0 0 1-.216-.084.292.292 0 0 1-.084-.216v-5.64c0-.088.028-.16.084-.216a.292.292 0 0 1 .216-.084h1.416c.08 0 .148.028.204.084a.274.274 0 0 1 .096.216v5.64c0 .088-.032.16-.096.216a.278.278 0 0 1-.204.084h-1.416Zm-.012-7.14a.292.292 0 0 1-.216-.084.292.292 0 0 1-.084-.216v-1.068c0-.088.028-.16.084-.216a.274.274 0 0 1 .216-.096h1.428c.088 0 .16.032.216.096a.274.274 0 0 1 .096.216v1.068c0 .088-.032.16-.096.216a.292.292 0 0 1-.216.084h-1.428Zm4.142 7.14a.32.32 0 0 1-.216-.084.292.292 0 0 1-.084-.216v-4.368h-.912a.292.292 0 0 1-.216-.084.292.292 0 0 1-.084-.216v-.972c0-.088.028-.16.084-.216a.292.292 0 0 1 .216-.084h.912v-.384c0-.544.104-.98.312-1.308.216-.336.52-.576.912-.72.392-.152.86-.228 1.404-.228h.936c.08 0 .148.028.204.084a.274.274 0 0 1 .096.216v.972c0 .088-.032.16-.096.216a.278.278 0 0 1-.204.084h-.84c-.272 0-.464.064-.576.192-.104.128-.156.312-.156.552v.324h1.452c.08 0 .148.028.204.084a.274.274 0 0 1 .096.216v.972c0 .088-.032.16-.096.216a.278.278 0 0 1-.204.084h-1.452v4.368c0 .088-.028.16-.084.216a.292.292 0 0 1-.216.084h-1.392Zm5.464 2.28a.244.244 0 0 1-.252-.252v-.072a.658.658 0 0 1 .036-.084l.936-2.256-2.304-5.448a.378.378 0 0 1-.036-.144.358.358 0 0 1 .096-.18.227.227 0 0 1 .18-.084h1.368c.104 0 .18.028.228.084a.322.322 0 0 1 .108.168l1.38 3.492 1.404-3.492a.64.64 0 0 1 .12-.168c.056-.056.136-.084.24-.084h1.344c.072 0 .132.028.18.084a.216.216 0 0 1 .084.168.47.47 0 0 1-.036.156l-3.396 7.86a.409.409 0 0 1-.12.168c-.056.056-.136.084-.24.084h-1.32Z" fill="#fff"/></g><defs><linearGradient id="c" x1="65.5" y1="30.195" x2="31.842" y2="55.304" gradientUnits="userSpaceOnUse"><stop stop-color="#F90"/><stop offset="1" stop-color="#FFC300"/></linearGradient><clipPath id="b"><path fill="#fff" transform="translate(25.5 23.578)" d="M0 0h40v29.844H0z"/></clipPath><filter id="a" x="0" y="0" width="91" height="101" filterUnits="userSpaceOnUse" color-interpolation-filters="sRGB"><feFlood flood-opacity="0" result="BackgroundImageFix"/><feColorMatrix in="SourceAlpha" values="0 0 0 0 0 0 0 0 0 0 0 0 0 0 0 0 0 0 127 0" result="hardAlpha"/><feOffset dy="2"/><feGaussianBlur stdDeviation="4"/><feColorMatrix values="0 0 0 0 0 0 0 0 0 0 0 0 0 0 0 0 0 0 0.75 0"/><feBlend in2="BackgroundImageFix" result="effect1_dropShadow_505_1457"/><feBlend in="SourceGraphic" in2="effect1_dropShadow_505_1457" result="shape"/></filter></defs></svg>