<svg width="91" height="101" fill="none" xmlns="http://www.w3.org/2000/svg"><g filter="url(#a)"><rect x="8" y="6" width="75" height="85" rx="5" fill="#212529"/><g clip-path="url(#b)" fill="#fff"><path d="M45.02 21.087c-.076.004-.358.027-.63.048-3.398.251-6.844 1.509-9.668 3.527a18.614 18.614 0 0 0-2.494 2.114c-4.727 4.73-6.674 11.5-5.196 18.076.605 2.698 1.896 5.413 3.609 7.595 2.688 3.429 6.372 5.845 10.504 6.892 1.682.428 3.08.601 4.843.601 1.74 0 3.02-.156 4.68-.56 2.382-.585 4.475-1.547 6.568-3.011 2.005-1.407 3.87-3.378 5.21-5.502 1.726-2.746 2.708-5.777 2.95-9.104.05-.7.02-2.433-.055-3.147-.15-1.417-.53-3.286-.75-3.677-.09-.153-.337-.35-.52-.415a1.336 1.336 0 0 0-.324-.037.944.944 0 0 0-.938.924c0 .12.055.405.133.714.673 2.617.727 5.492.153 8.115-.734 3.361-2.372 6.324-4.843 8.754-1.152 1.132-2.263 1.968-3.7 2.79-3.355 1.92-7.524 2.647-11.436 1.995-2.97-.493-5.55-1.635-8-3.541-1.151-.897-2.555-2.376-3.425-3.612-1.502-2.135-2.447-4.384-2.936-6.998-.248-1.332-.333-3.099-.217-4.536a17.068 17.068 0 0 1 1.651-6.127c.428-.894.693-1.36 1.206-2.131a17.856 17.856 0 0 1 3.966-4.241 17.346 17.346 0 0 1 6.09-2.998 16.731 16.731 0 0 1 3.28-.543c4.278-.306 8.437.924 11.825 3.503.252.19.517.398.588.462l.13.113-.051.142c-.262.734-.068 1.649.482 2.287.282.327.792.632 1.224.734.295.072.808.072 1.107 0 .758-.18 1.465-.829 1.69-1.55.25-.805.105-1.6-.412-2.245-.57-.714-1.553-1.034-2.46-.796l-.197.051-.279-.23c-1.132-.949-2.501-1.826-3.942-2.522-2.338-1.132-4.686-1.74-7.36-1.904-.514-.03-1.727-.037-2.057-.01Z"/><path d="M43.008 32.268c-.36.93-1.142 2.97-1.744 4.53l-2.742 7.119a962.737 962.737 0 0 1-1.662 4.306c-.01.017.945.027 2.117.027h2.138l.125-.35c.072-.19.323-.863.558-1.495l.428-1.146h3.208c2.555 0 3.208-.01 3.198-.044-.034-.092-.558-1.587-.836-2.386l-.3-.85-2.123-.016-2.12-.017 1.379-3.803c.83-2.283 1.39-3.779 1.4-3.745.014.03.564 1.597 1.227 3.48.662 1.883 1.757 4.982 2.43 6.889l1.22 3.466 2.127.01c1.169.003 2.127 0 2.127-.007s-.275-.73-.615-1.604c-.34-.877-1.067-2.763-1.617-4.193-.551-1.431-1.17-3.035-1.377-3.569-.204-.533-.56-1.457-.792-2.055-.23-.599-.832-2.165-1.342-3.484-.51-1.318-.955-2.477-.992-2.576l-.065-.176h-4.706l-.65 1.689Z"/></g><path d="M27.022 75.94a.272.272 0 0 1-.18-.072.272.272 0 0 1-.072-.18c0-.04.004-.076.012-.108l2.82-7.704a.464.464 0 0 1 .144-.228.466.466 0 0 1 .324-.108h1.776c.136 0 .24.036.312.108.08.064.132.14.156.228l2.808 7.704a.238.238 0 0 1 .024.108.252.252 0 0 1-.084.18.244.244 0 0 1-.18.072h-1.476c-.12 0-.212-.028-.276-.084a.528.528 0 0 1-.108-.168l-.468-1.224H29.35l-.456 1.224a.528.528 0 0 1-.108.168c-.056.056-.152.084-.288.084h-1.476Zm2.82-3.204h2.232l-1.128-3.168-1.104 3.168Zm6.418 5.484a.292.292 0 0 1-.216-.084.292.292 0 0 1-.084-.216V70c0-.088.028-.16.084-.216a.292.292 0 0 1 .216-.084h1.356c.08 0 .148.028.204.084a.274.274 0 0 1 .096.216v.444c.184-.248.428-.452.732-.612.304-.168.68-.252 1.128-.252.4 0 .752.064 1.056.192.304.12.564.3.78.54.216.24.384.532.504.876.128.344.2.74.216 1.188a8.935 8.935 0 0 1 0 .888c-.016.432-.084.82-.204 1.164-.12.344-.288.636-.504.876a2.27 2.27 0 0 1-.792.564 2.704 2.704 0 0 1-1.056.192 2.45 2.45 0 0 1-1.032-.204 2.013 2.013 0 0 1-.72-.6v2.664c0 .088-.028.16-.084.216a.292.292 0 0 1-.216.084H36.26Zm2.868-3.768c.272 0 .484-.056.636-.168a.905.905 0 0 0 .324-.456c.072-.192.116-.404.132-.636a5.772 5.772 0 0 0 0-.744 2.243 2.243 0 0 0-.132-.636.905.905 0 0 0-.324-.456c-.152-.112-.364-.168-.636-.168-.264 0-.476.06-.636.18a.954.954 0 0 0-.348.444 1.82 1.82 0 0 0-.12.6 8.451 8.451 0 0 0 0 .9c.008.2.052.388.132.564.08.168.2.308.36.42.16.104.364.156.612.156Zm7.354 1.608c-.672 0-1.24-.108-1.704-.324a2.434 2.434 0 0 1-1.056-.924c-.24-.408-.376-.892-.408-1.452-.008-.16-.012-.34-.012-.54 0-.208.004-.388.012-.54.032-.568.176-1.052.432-1.452.256-.4.612-.708 1.068-.924.464-.216 1.02-.324 1.668-.324.656 0 1.212.108 1.668.324.464.216.824.524 1.08.924.256.4.4.884.432 1.452.008.152.012.332.012.54 0 .2-.004.38-.012.54-.032.56-.172 1.044-.42 1.452-.24.4-.592.708-1.056.924-.456.216-1.024.324-1.704.324Zm0-1.464c.36 0 .62-.108.78-.324.168-.216.264-.54.288-.972.008-.12.012-.28.012-.48 0-.2-.004-.36-.012-.48-.024-.424-.12-.744-.288-.96-.16-.224-.42-.336-.78-.336-.352 0-.612.112-.78.336-.168.216-.26.536-.276.96a7.57 7.57 0 0 0-.012.48c0 .2.004.36.012.48.016.432.108.756.276.972.168.216.428.324.78.324Zm4.672 1.344a.292.292 0 0 1-.216-.084.292.292 0 0 1-.084-.216v-7.92c0-.088.029-.16.084-.216a.292.292 0 0 1 .216-.084h1.416c.088 0 .16.028.216.084a.292.292 0 0 1 .084.216v7.92c0 .088-.027.16-.084.216a.292.292 0 0 1-.215.084h-1.416Zm3.434 0a.292.292 0 0 1-.216-.084.292.292 0 0 1-.084-.216v-7.92c0-.088.028-.16.084-.216a.292.292 0 0 1 .216-.084h1.416c.088 0 .16.028.216.084a.292.292 0 0 1 .084.216v7.92c0 .088-.028.16-.084.216a.292.292 0 0 1-.216.084h-1.416Zm6.086.12c-.672 0-1.24-.108-1.704-.324a2.434 2.434 0 0 1-1.056-.924c-.24-.408-.376-.892-.408-1.452-.008-.16-.012-.34-.012-.54 0-.208.004-.388.012-.54.032-.568.176-1.052.432-1.452.256-.4.612-.708 1.068-.924.464-.216 1.02-.324 1.668-.324.656 0 1.212.108 1.668.324.464.216.824.524 1.08.924.256.4.4.884.432 1.452.008.152.012.332.012.54 0 .2-.004.38-.012.54-.032.56-.172 1.044-.42 1.452-.24.4-.592.708-1.056.924-.456.216-1.024.324-1.704.324Zm0-1.464c.36 0 .62-.108.78-.324.168-.216.264-.54.288-.972.008-.12.012-.28.012-.48 0-.2-.004-.36-.012-.48-.024-.424-.12-.744-.288-.96-.16-.224-.42-.336-.78-.336-.352 0-.612.112-.78.336-.168.216-.26.536-.276.96a7.57 7.57 0 0 0-.012.48c0 .2.004.36.012.48.016.432.108.756.276.972.168.216.428.324.78.324Z" fill="#fff"/></g><defs><clipPath id="b"><path fill="#fff" transform="translate(25.5 21.06)" d="M0 0h40v38.88H0z"/></clipPath><filter id="a" x="0" y="0" width="91" height="101" filterUnits="userSpaceOnUse" color-interpolation-filters="sRGB"><feFlood flood-opacity="0" result="BackgroundImageFix"/><feColorMatrix in="SourceAlpha" values="0 0 0 0 0 0 0 0 0 0 0 0 0 0 0 0 0 0 127 0" result="hardAlpha"/><feOffset dy="2"/><feGaussianBlur stdDeviation="4"/><feColorMatrix values="0 0 0 0 0 0 0 0 0 0 0 0 0 0 0 0 0 0 0.75 0"/><feBlend in2="BackgroundImageFix" result="effect1_dropShadow_505_549"/><feBlend in="SourceGraphic" in2="effect1_dropShadow_505_549" result="shape"/></filter></defs></svg>