<svg width="91" height="101" fill="none" xmlns="http://www.w3.org/2000/svg"><g filter="url(#a)"><rect x="8" y="6" width="75" height="85" rx="5" fill="#212529"/><g clip-path="url(#b)"><path d="M65.433 30.735c0-.755-.162-1.421-.489-1.994-.32-.563-.8-1.034-1.444-1.407-5.317-3.066-10.638-6.122-15.953-9.19-1.433-.827-2.822-.797-4.244.042-2.116 1.248-12.71 7.317-15.868 9.146-1.3.753-1.933 1.905-1.933 3.402-.002 6.165 0 12.33-.002 18.494 0 .738.155 1.392.467 1.956.32.58.808 1.065 1.466 1.446 3.158 1.829 13.754 7.898 15.87 9.146 1.422.84 2.811.87 4.245.042 5.314-3.069 10.636-6.124 15.953-9.19.66-.381 1.146-.866 1.467-1.446.311-.563.466-1.217.467-1.955 0 0 0-12.327-.002-18.492" fill="#5C8DBC"/><path d="M45.528 39.921 25.967 51.184c.32.58.808 1.065 1.466 1.446 3.158 1.829 13.754 7.898 15.87 9.146 1.422.84 2.811.87 4.245.042 5.314-3.068 10.636-6.124 15.953-9.19.66-.38 1.146-.866 1.467-1.445L45.528 39.92" fill="#1A4674"/><path d="M39.734 43.257a6.6 6.6 0 0 0 11.488-.038l-5.694-3.298-5.794 3.336" fill="#1A4674"/><path d="M65.433 30.735c0-.754-.162-1.421-.489-1.994l-19.416 11.18 19.44 11.262c.311-.564.466-1.218.467-1.956 0 0 0-12.327-.002-18.492" fill="#1B598E"/><path d="M64.364 40.726h-1.52v1.52h-1.519v-1.52h-1.519v-1.519h1.52v-1.519h1.519v1.52h1.519v1.518Zm-5.543 0H57.3v1.52h-1.518v-1.52h-1.52v-1.519h1.52v-1.519h1.519v1.52h1.519v1.518Z" fill="#fff"/><path d="M51.222 43.219a6.6 6.6 0 0 1-11.488.038 6.604 6.604 0 0 1 11.444-6.59l5.773-3.323c-2.294-3.96-6.578-6.625-11.484-6.625-7.324 0-13.261 5.938-13.261 13.262a13.256 13.256 0 0 0 13.262 13.262c4.93 0 9.232-2.692 11.517-6.685l-5.763-3.339Z" fill="#fff"/></g><path d="M38.282 77.622c-.76 0-1.412-.124-1.956-.372a2.893 2.893 0 0 1-1.26-1.092c-.296-.48-.46-1.076-.492-1.788a43.458 43.458 0 0 1 0-2.136c.032-.696.2-1.284.504-1.764a2.856 2.856 0 0 1 1.272-1.104c.544-.256 1.188-.384 1.932-.384a5.02 5.02 0 0 1 1.464.204c.448.128.84.32 1.176.576.336.248.596.552.78.912.192.352.292.752.3 1.2a.196.196 0 0 1-.072.18.244.244 0 0 1-.18.072h-1.62a.409.409 0 0 1-.24-.06.564.564 0 0 1-.144-.252c-.112-.424-.296-.712-.552-.864-.248-.16-.556-.24-.924-.24-.44 0-.788.124-1.044.372-.256.24-.396.644-.42 1.212a28.229 28.229 0 0 0 0 2.016c.024.568.164.976.42 1.224.256.24.604.36 1.044.36.368 0 .68-.08.936-.24.256-.16.436-.448.54-.864.032-.12.076-.2.132-.24a.41.41 0 0 1 .252-.072h1.62c.072 0 .132.024.18.072.056.048.08.108.072.18a2.637 2.637 0 0 1-.3 1.212 2.73 2.73 0 0 1-.78.912 3.84 3.84 0 0 1-1.176.576 5.313 5.313 0 0 1-1.464.192Zm7.298-.516a.292.292 0 0 1-.216-.084.292.292 0 0 1-.084-.216V74.61h-2.136a.335.335 0 0 1-.228-.084.292.292 0 0 1-.084-.216v-.876c0-.088.028-.16.084-.216a.335.335 0 0 1 .228-.084h2.136v-2.136c0-.088.028-.16.084-.216a.292.292 0 0 1 .216-.084h.984c.08 0 .148.028.204.084a.274.274 0 0 1 .096.216v2.136h2.124c.088 0 .16.028.216.084a.292.292 0 0 1 .084.216v.876c0 .088-.028.16-.084.216a.292.292 0 0 1-.216.084h-2.124v2.196c0 .088-.032.16-.096.216a.278.278 0 0 1-.204.084h-.984Zm7.289 0a.292.292 0 0 1-.216-.084.292.292 0 0 1-.084-.216V74.61h-2.136a.335.335 0 0 1-.228-.084.292.292 0 0 1-.084-.216v-.876c0-.088.028-.16.084-.216a.335.335 0 0 1 .228-.084h2.136v-2.136c0-.088.028-.16.084-.216a.292.292 0 0 1 .216-.084h.984c.08 0 .148.028.204.084a.274.274 0 0 1 .096.216v2.136h2.124c.088 0 .16.028.216.084a.292.292 0 0 1 .084.216v.876c0 .088-.028.16-.084.216a.292.292 0 0 1-.216.084h-2.124v2.196c0 .088-.032.16-.096.216a.278.278 0 0 1-.204.084h-.984Z" fill="#fff"/></g><defs><clipPath id="b"><path fill="#fff" transform="translate(25.5 17.498)" d="M0 0h40v45.005H0z"/></clipPath><filter id="a" x="0" y="0" width="91" height="101" filterUnits="userSpaceOnUse" color-interpolation-filters="sRGB"><feFlood flood-opacity="0" result="BackgroundImageFix"/><feColorMatrix in="SourceAlpha" values="0 0 0 0 0 0 0 0 0 0 0 0 0 0 0 0 0 0 127 0" result="hardAlpha"/><feOffset dy="2"/><feGaussianBlur stdDeviation="4"/><feColorMatrix values="0 0 0 0 0 0 0 0 0 0 0 0 0 0 0 0 0 0 0.75 0"/><feBlend in2="BackgroundImageFix" result="effect1_dropShadow_505_266"/><feBlend in="SourceGraphic" in2="effect1_dropShadow_505_266" result="shape"/></filter></defs></svg>