<svg width="91" height="101" fill="none" xmlns="http://www.w3.org/2000/svg"><g filter="url(#a)"><rect x="8" y="6" width="75" height="85" rx="5" fill="#212529"/><g clip-path="url(#b)"><path d="M65.322 30.82c0-.749-.16-1.411-.484-1.98-.319-.558-.795-1.026-1.435-1.397-5.278-3.043-10.562-6.077-15.838-9.124-1.423-.821-2.802-.791-4.214.042-2.1 1.239-12.62 7.265-15.754 9.08-1.29.748-1.919 1.892-1.92 3.378l-.001 18.362c0 .733.154 1.382.463 1.942.319.575.802 1.057 1.456 1.435 3.135 1.816 13.655 7.842 15.755 9.08 1.413.834 2.792.864 4.215.043 5.277-3.047 10.56-6.081 15.84-9.125.654-.378 1.137-.86 1.456-1.435.31-.56.463-1.209.463-1.942 0 0 0-12.238-.002-18.359Z" fill="#A179DC"/><path d="M45.56 39.94 26.14 51.123c.318.576.801 1.057 1.455 1.435C30.73 54.374 41.25 60.4 43.35 61.64c1.413.834 2.792.863 4.215.042 5.277-3.047 10.56-6.081 15.84-9.124.654-.379 1.137-.86 1.456-1.436l-19.3-11.18Z" fill="#280068"/><path d="M65.322 30.82c0-.749-.16-1.411-.484-1.98L45.56 39.94l19.3 11.181c.31-.56.463-1.209.463-1.942 0 0 0-12.238-.002-18.359" fill="#390091"/><path d="M56.995 35.76v2.09h2.09v-2.09h1.045v2.09h2.09v1.045h-2.09v2.09h2.09v1.046h-2.09v2.09h-1.045v-2.09h-2.09v2.09H55.95v-2.09h-2.09v-1.046h2.09v-2.09h-2.09V37.85h2.09v-2.09h1.045Zm2.09 3.135h-2.09v2.09h2.09v-2.09Z" fill="#fff"/><path d="M45.603 25.263c5.452 0 10.212 2.96 12.761 7.361l-.024-.042-6.415 3.694a7.334 7.334 0 0 0-6.238-3.614h-.084a7.339 7.339 0 1 0 6.395 10.936l-.03.054 6.404 3.71c-2.522 4.364-7.216 7.316-12.605 7.374l-.164.001c-5.469 0-10.242-2.979-12.785-7.403A14.67 14.67 0 0 1 30.866 40c0-8.14 6.598-14.738 14.737-14.738Z" fill="#fff"/></g><path d="M41.458 77.622c-.76 0-1.412-.124-1.956-.372a2.893 2.893 0 0 1-1.26-1.092c-.296-.48-.46-1.076-.492-1.788a43.458 43.458 0 0 1 0-2.136c.032-.696.2-1.284.504-1.764a2.856 2.856 0 0 1 1.272-1.104c.544-.256 1.188-.384 1.932-.384a5.02 5.02 0 0 1 1.464.204c.448.128.84.32 1.176.576.336.248.596.552.78.912.192.352.292.752.3 1.2a.196.196 0 0 1-.072.18.244.244 0 0 1-.18.072h-1.62a.409.409 0 0 1-.24-.06.564.564 0 0 1-.144-.252c-.112-.424-.296-.712-.552-.864-.248-.16-.556-.24-.924-.24-.44 0-.788.124-1.044.372-.256.24-.396.644-.42 1.212a28.229 28.229 0 0 0 0 2.016c.024.568.164.976.42 1.224.256.24.604.36 1.044.36.368 0 .68-.08.936-.24.256-.16.436-.448.54-.864.032-.12.076-.2.132-.24a.41.41 0 0 1 .252-.072h1.62c.072 0 .132.024.18.072.056.048.08.108.072.18a2.637 2.637 0 0 1-.3 1.212 2.73 2.73 0 0 1-.78.912 3.84 3.84 0 0 1-1.176.576 5.313 5.313 0 0 1-1.464.192Zm5.894-.588a.287.287 0 0 1-.192-.072.243.243 0 0 1-.06-.192l.168-1.152h-.852a.278.278 0 0 1-.204-.084.303.303 0 0 1-.072-.204v-.936c0-.088.024-.156.072-.204a.278.278 0 0 1 .204-.084h1.08l.228-1.536h-.996a.278.278 0 0 1-.204-.084.303.303 0 0 1-.072-.204v-.936c0-.088.024-.156.072-.204a.278.278 0 0 1 .204-.084h1.224l.18-1.164a.416.416 0 0 1 .084-.168.24.24 0 0 1 .192-.084h.948c.072 0 .132.028.18.084a.227.227 0 0 1 .084.18l-.18 1.152h1.236l.18-1.164a.416.416 0 0 1 .084-.168.24.24 0 0 1 .192-.084h.948c.072 0 .132.028.18.084a.227.227 0 0 1 .084.18l-.18 1.152h.852c.08 0 .148.028.204.084a.254.254 0 0 1 .084.204v.936c0 .08-.028.148-.084.204a.278.278 0 0 1-.204.084h-1.068l-.228 1.536h.984c.08 0 .148.028.204.084a.254.254 0 0 1 .084.204v.936c0 .08-.028.148-.084.204a.278.278 0 0 1-.204.084h-1.212l-.168 1.164c-.024.168-.124.252-.3.252h-.948a.244.244 0 0 1-.18-.072.287.287 0 0 1-.072-.192l.168-1.152h-1.224l-.168 1.164c-.024.168-.124.252-.3.252h-.948Zm1.644-2.928h1.224l.228-1.536h-1.224l-.228 1.536Z" fill="#fff"/></g><defs><clipPath id="b"><path fill="#fff" transform="translate(25.5 17.498)" d="M0 0h40v45.005H0z"/></clipPath><filter id="a" x="0" y="0" width="91" height="101" filterUnits="userSpaceOnUse" color-interpolation-filters="sRGB"><feFlood flood-opacity="0" result="BackgroundImageFix"/><feColorMatrix in="SourceAlpha" values="0 0 0 0 0 0 0 0 0 0 0 0 0 0 0 0 0 0 127 0" result="hardAlpha"/><feOffset dy="2"/><feGaussianBlur stdDeviation="4"/><feColorMatrix values="0 0 0 0 0 0 0 0 0 0 0 0 0 0 0 0 0 0 0.75 0"/><feBlend in2="BackgroundImageFix" result="effect1_dropShadow_505_279"/><feBlend in="SourceGraphic" in2="effect1_dropShadow_505_279" result="shape"/></filter></defs></svg>