<svg width="91" height="101" fill="none" xmlns="http://www.w3.org/2000/svg"><g filter="url(#a)"><rect x="8" y="6" width="75" height="85" rx="5" fill="#212529"/><g clip-path="url(#b)"><path d="m36.52 30.89-2.585-2.585.011 18.687.031.874c.013.41.09.874.217 1.355l20.485 7.223 5.12-2.268.002-.007-23.28-23.279Z" fill="#00D2B8"/><path d="m34.194 49.22.001.002c-.001-.008-.005-.018-.005-.026 0 .008 0 .016.004.025Zm25.605 4.956-5.12 2.268-20.484-7.222c.391 1.501 1.258 3.189 2.19 4.112l6.685 6.647L57.934 60l1.867-5.83-.002.006Z" fill="#55DDCA"/><path d="M25.974 40.33c-.662.707-.333 2.165.733 3.238l4.596 4.635 2.89 1.018a6.16 6.16 0 0 1-.215-1.355l-.031-.874-.011-18.687-7.962 12.026Z" fill="#0081C6"/><path d="M54.847 28.545a6.398 6.398 0 0 0-1.36-.212l-.923-.032-18.629.003L59.804 54.17h.002l2.272-5.126-7.231-20.5Z" fill="#0079B3"/><path d="m54.823 28.54.025.006-.001-.001c-.006-.003-.014-.003-.024-.005Zm4.133 2.2c-.939-.947-2.604-1.807-4.108-2.194l7.23 20.498-2.272 5.126h-.002l5.551-1.774.012-15.22-6.411-6.437Z" fill="#00A4E4"/><path d="m53.834 25.672-4.634-4.6c-1.071-1.061-2.53-1.392-3.234-.732l-12.03 7.963 18.628-.002.923.032c.418.013.88.089 1.36.212l-1.013-2.873Z" fill="#00D2B8"/></g><path d="M33.28 75a.292.292 0 0 1-.215-.084.292.292 0 0 1-.084-.216v-7.8c0-.088.028-.16.084-.216a.292.292 0 0 1 .216-.084h3.12c.784 0 1.452.128 2.004.384.552.248.976.616 1.272 1.104.296.48.456 1.076.48 1.788.008.352.012.66.012.924s-.004.568-.012.912c-.032.744-.192 1.36-.48 1.848-.28.488-.692.852-1.236 1.092-.536.232-1.196.348-1.98.348h-3.18Zm1.849-1.728H36.4c.344 0 .628-.052.852-.156.232-.112.404-.284.516-.516.12-.232.184-.536.192-.912.016-.232.024-.44.024-.624a6.351 6.351 0 0 0 0-.552c0-.184-.008-.388-.024-.612-.016-.544-.16-.94-.432-1.188-.264-.256-.66-.384-1.188-.384h-1.212v4.944Zm8.181 1.848c-.431 0-.82-.08-1.163-.24a2.145 2.145 0 0 1-.804-.672c-.2-.28-.3-.596-.3-.948 0-.568.232-1.016.696-1.344.464-.336 1.08-.564 1.848-.684l1.5-.228v-.168c0-.288-.06-.508-.18-.66-.12-.152-.34-.228-.66-.228-.224 0-.408.044-.553.132a.942.942 0 0 0-.324.36.345.345 0 0 1-.3.156h-1.343c-.088 0-.156-.024-.204-.072a.243.243 0 0 1-.06-.192c0-.144.051-.308.155-.492.112-.192.28-.38.505-.564.224-.184.512-.336.864-.456s.776-.18 1.271-.18c.52 0 .964.06 1.332.18.368.12.664.288.888.504.233.216.404.472.517.768.111.288.168.608.168.96V74.7c0 .088-.032.16-.096.216a.278.278 0 0 1-.205.084H45.47a.292.292 0 0 1-.215-.084.292.292 0 0 1-.085-.216v-.42a1.742 1.742 0 0 1-.42.42 2.055 2.055 0 0 1-.623.3c-.233.08-.505.12-.817.12Zm.564-1.368c.232 0 .44-.048.624-.144.193-.104.34-.26.445-.468.111-.216.168-.484.168-.804v-.168l-1.02.18c-.377.064-.653.164-.828.3-.169.128-.252.28-.252.456 0 .136.04.252.12.348.08.096.184.172.312.228.128.048.272.072.431.072ZM48.817 75a.292.292 0 0 1-.216-.084.292.292 0 0 1-.084-.216v-5.64c0-.08.028-.148.084-.204a.274.274 0 0 1 .216-.096h1.38c.088 0 .16.032.216.096a.278.278 0 0 1 .084.204v.48c.216-.248.472-.44.768-.576a2.47 2.47 0 0 1 1.02-.204h.528c.08 0 .148.028.204.084a.274.274 0 0 1 .096.216v1.236c0 .08-.032.152-.096.216a.278.278 0 0 1-.204.084h-1.164c-.328 0-.584.092-.768.276-.176.176-.264.428-.264.756V74.7c0 .088-.032.16-.096.216a.292.292 0 0 1-.216.084h-1.488Zm8.34 0c-.511 0-.955-.08-1.331-.24a1.849 1.849 0 0 1-.852-.768c-.2-.352-.3-.804-.3-1.356v-2.304h-.936a.335.335 0 0 1-.228-.084.292.292 0 0 1-.084-.216v-.972c0-.088.028-.16.084-.216a.335.335 0 0 1 .228-.084h.936v-1.98c0-.088.028-.16.084-.216a.32.32 0 0 1 .216-.084h1.392c.088 0 .16.028.216.084a.292.292 0 0 1 .084.216v1.98h1.5c.088 0 .16.028.216.084a.292.292 0 0 1 .084.216v.972c0 .088-.028.16-.084.216a.292.292 0 0 1-.216.084h-1.5v2.136c0 .272.052.488.156.648.104.16.28.24.528.24h.924c.088 0 .16.028.216.084a.292.292 0 0 1 .084.216V74.7c0 .088-.028.16-.084.216a.292.292 0 0 1-.216.084h-1.116Z" fill="#fff"/></g><defs><clipPath id="b"><path fill="#fff" transform="translate(25.5 20)" d="M0 0h40v40H0z"/></clipPath><filter id="a" x="0" y="0" width="91" height="101" filterUnits="userSpaceOnUse" color-interpolation-filters="sRGB"><feFlood flood-opacity="0" result="BackgroundImageFix"/><feColorMatrix in="SourceAlpha" values="0 0 0 0 0 0 0 0 0 0 0 0 0 0 0 0 0 0 127 0" result="hardAlpha"/><feOffset dy="2"/><feGaussianBlur stdDeviation="4"/><feColorMatrix values="0 0 0 0 0 0 0 0 0 0 0 0 0 0 0 0 0 0 0.75 0"/><feBlend in2="BackgroundImageFix" result="effect1_dropShadow_505_251"/><feBlend in="SourceGraphic" in2="effect1_dropShadow_505_251" result="shape"/></filter></defs></svg>