<svg width="91" height="101" fill="none" xmlns="http://www.w3.org/2000/svg"><g filter="url(#a)"><rect x="8" y="6" width="75" height="85" rx="5" fill="#212529"/><g clip-path="url(#b)"><path d="m36.605 32.823 8.634-4.985a.699.699 0 0 1 .699 0l8.635 4.985a.7.7 0 0 1 .349.605v9.97a.7.7 0 0 1-.35.606l-8.634 4.985a.698.698 0 0 1-.699 0l-8.634-4.985a.698.698 0 0 1-.35-.605v-9.97a.7.7 0 0 1 .35-.606" fill="#8080F2"/><path d="M67.974 37.596 57.646 19.63c-.375-.65-1.068-1.129-1.818-1.129H35.172c-.75 0-1.443.48-1.818 1.129L23.026 37.557a2.137 2.137 0 0 0 0 2.12l10.328 17.82c.375.65 1.068.981 1.818.981h20.656c.75 0 1.443-.322 1.818-.972l10.328-17.849a2.026 2.026 0 0 0 0-2.06Zm-8.552 8.64a.758.758 0 0 1-.388.641l-13.155 7.59a.748.748 0 0 1-.744 0l-13.166-7.59a.759.759 0 0 1-.389-.64v-15.18c0-.265.158-.51.387-.642l13.155-7.59a.747.747 0 0 1 .744 0l13.166 7.59c.23.133.39.377.39.641v15.18Z" fill="#4B32C3"/></g><path d="M29.05 74.5a.292.292 0 0 1-.216-.084.292.292 0 0 1-.084-.216v-7.8c0-.088.028-.16.084-.216a.292.292 0 0 1 .216-.084h5.604c.088 0 .16.028.216.084a.292.292 0 0 1 .084.216v1.128c0 .088-.028.16-.084.216a.292.292 0 0 1-.216.084h-3.828v1.62h3.564c.088 0 .16.032.216.096a.292.292 0 0 1 .084.216v1.044a.32.32 0 0 1-.084.216.292.292 0 0 1-.216.084h-3.564v1.668h3.924c.088 0 .16.028.216.084a.292.292 0 0 1 .084.216V74.2c0 .088-.028.16-.084.216a.292.292 0 0 1-.216.084h-5.7Zm9.8.12c-.52 0-.964-.056-1.332-.168a3.28 3.28 0 0 1-.888-.432 2.028 2.028 0 0 1-.504-.516c-.112-.184-.172-.34-.18-.468a.242.242 0 0 1 .084-.216.287.287 0 0 1 .204-.096h1.368c.024 0 .044.004.06.012s.04.024.072.048c.104.056.208.128.312.216.104.08.224.152.36.216.136.064.3.096.492.096.224 0 .412-.044.564-.132a.43.43 0 0 0 .228-.396.449.449 0 0 0-.108-.312c-.072-.088-.22-.172-.444-.252-.216-.08-.544-.16-.984-.24a5.128 5.128 0 0 1-1.092-.372 1.884 1.884 0 0 1-.72-.612c-.168-.256-.252-.564-.252-.924 0-.32.104-.628.312-.924.208-.296.512-.536.912-.72.4-.192.892-.288 1.476-.288.464 0 .864.056 1.2.168.344.104.632.24.864.408.24.168.42.34.54.516.12.176.184.336.192.48a.275.275 0 0 1-.072.216.264.264 0 0 1-.192.084h-1.248a.395.395 0 0 1-.096-.012.785.785 0 0 1-.084-.048 1.503 1.503 0 0 1-.288-.192 1.733 1.733 0 0 0-.336-.216 1.069 1.069 0 0 0-.48-.096c-.216 0-.384.048-.504.144a.48.48 0 0 0-.084.66c.072.088.212.168.42.24.216.072.548.152.996.24.552.088.992.232 1.32.432.328.192.56.42.696.684.136.256.204.528.204.816 0 .384-.116.724-.348 1.02-.224.296-.56.528-1.008.696-.448.16-.992.24-1.632.24Zm4.365-.12a.292.292 0 0 1-.216-.084.292.292 0 0 1-.084-.216v-7.92c0-.088.028-.16.084-.216a.292.292 0 0 1 .216-.084h1.416c.088 0 .16.028.216.084a.292.292 0 0 1 .084.216v7.92c0 .088-.028.16-.084.216a.292.292 0 0 1-.216.084h-1.416Zm3.844 0a.292.292 0 0 1-.216-.084.292.292 0 0 1-.084-.216v-5.64c0-.088.028-.16.084-.216a.292.292 0 0 1 .216-.084h1.416c.08 0 .148.028.204.084a.274.274 0 0 1 .096.216v5.64c0 .088-.032.16-.096.216a.278.278 0 0 1-.204.084h-1.416Zm-.012-7.14a.292.292 0 0 1-.216-.084.292.292 0 0 1-.084-.216v-1.068c0-.088.028-.16.084-.216a.274.274 0 0 1 .216-.096h1.428c.088 0 .16.032.216.096a.274.274 0 0 1 .096.216v1.068c0 .088-.032.16-.096.216a.292.292 0 0 1-.216.084h-1.428Zm3.809 7.14a.292.292 0 0 1-.216-.084.292.292 0 0 1-.084-.216v-5.64c0-.088.028-.16.084-.216a.292.292 0 0 1 .216-.084h1.38c.088 0 .16.028.216.084a.292.292 0 0 1 .084.216v.456c.208-.248.48-.456.816-.624.336-.168.732-.252 1.188-.252.464 0 .872.104 1.224.312.36.208.64.516.84.924.208.4.312.892.312 1.476V74.2c0 .088-.032.16-.096.216a.278.278 0 0 1-.204.084h-1.512a.32.32 0 0 1-.216-.084.292.292 0 0 1-.084-.216v-3.276c0-.376-.092-.664-.276-.864-.176-.208-.44-.312-.792-.312-.328 0-.592.104-.792.312-.192.2-.288.488-.288.864V74.2c0 .088-.032.16-.096.216a.278.278 0 0 1-.204.084h-1.5Zm10.532 0c-.512 0-.956-.08-1.332-.24a1.849 1.849 0 0 1-.852-.768c-.2-.352-.3-.804-.3-1.356v-2.304h-.936a.335.335 0 0 1-.228-.084.292.292 0 0 1-.084-.216v-.972c0-.088.028-.16.084-.216a.335.335 0 0 1 .228-.084h.936v-1.98c0-.088.028-.16.084-.216a.32.32 0 0 1 .216-.084h1.392c.088 0 .16.028.216.084a.292.292 0 0 1 .084.216v1.98h1.5c.088 0 .16.028.216.084a.292.292 0 0 1 .084.216v.972c0 .088-.028.16-.084.216a.292.292 0 0 1-.216.084h-1.5v2.136c0 .272.052.488.156.648.104.16.28.24.528.24h.924c.088 0 .16.028.216.084a.292.292 0 0 1 .084.216V74.2c0 .088-.028.16-.084.216a.292.292 0 0 1-.216.084h-1.116Z" fill="#fff"/></g><defs><clipPath id="b"><path fill="#fff" transform="translate(22.742 18.5)" d="M0 0h45.517v40H0z"/></clipPath><filter id="a" x="0" y="0" width="91" height="101" filterUnits="userSpaceOnUse" color-interpolation-filters="sRGB"><feFlood flood-opacity="0" result="BackgroundImageFix"/><feColorMatrix in="SourceAlpha" values="0 0 0 0 0 0 0 0 0 0 0 0 0 0 0 0 0 0 127 0" result="hardAlpha"/><feOffset dy="2"/><feGaussianBlur stdDeviation="4"/><feColorMatrix values="0 0 0 0 0 0 0 0 0 0 0 0 0 0 0 0 0 0 0.75 0"/><feBlend in2="BackgroundImageFix" result="effect1_dropShadow_505_1680"/><feBlend in="SourceGraphic" in2="effect1_dropShadow_505_1680" result="shape"/></filter></defs></svg>