<svg width="91" height="101" fill="none" xmlns="http://www.w3.org/2000/svg"><g filter="url(#a)"><rect x="8" y="6" width="75" height="85" rx="5" fill="#212529"/><g clip-path="url(#b)"><path d="M25.76 44.463v-4.451h5.558v-.26H25.76V35.69h5.91v-.26H25.5v9.294h6.222v-.26H25.76Zm10.973-6.43-2.303 3.033-2.252-3.033h-.339l2.434 3.228-2.668 3.462h.312l2.512-3.267 2.526 3.267h.325l-2.681-3.462 2.447-3.228h-.313Zm1.328 8.981V42.85h.026c.156.608.464 1.096.924 1.465.46.368 1.046.553 1.757.553.46 0 .868-.093 1.224-.28.356-.187.653-.44.892-.762.238-.32.42-.694.546-1.119a4.7 4.7 0 0 0 .19-1.34c0-.504-.066-.968-.196-1.393a3.333 3.333 0 0 0-.566-1.107 2.604 2.604 0 0 0-.898-.729 2.654 2.654 0 0 0-1.192-.26c-.338 0-.653.05-.943.15-.29.1-.55.24-.775.423a2.868 2.868 0 0 0-.585.644c-.165.247-.291.518-.378.813h-.026v-1.874h-.26v8.981h.26Zm2.707-2.395c-.815 0-1.47-.28-1.965-.84-.495-.559-.742-1.364-.742-2.414 0-.434.06-.846.182-1.236s.297-.734.527-1.029a2.473 2.473 0 0 1 1.998-.963c.434 0 .814.087 1.14.26.325.174.594.41.806.71.213.3.374.642.482 1.028.108.386.163.796.163 1.23 0 .39-.05.78-.15 1.165-.1.386-.254.733-.462 1.042-.208.308-.475.56-.8.755-.326.195-.719.292-1.179.292Zm4.283.105v-3.788c0-.365.052-.72.156-1.068.104-.347.265-.653.482-.917.217-.265.492-.473.826-.625.334-.152.731-.215 1.191-.189v-.26c-.399-.009-.748.034-1.048.13-.299.095-.557.226-.774.39-.217.165-.39.358-.52.58-.13.22-.227.46-.287.71h-.026v-1.654h-.26v6.69h.26Zm2.98-3.294h5.598a4.63 4.63 0 0 0-.137-1.327 3.303 3.303 0 0 0-.52-1.133 2.652 2.652 0 0 0-.925-.794c-.377-.2-.826-.3-1.347-.3-.373 0-.738.079-1.093.235a2.717 2.717 0 0 0-.938.684c-.268.299-.485.666-.65 1.1a4.157 4.157 0 0 0-.248 1.483c0 .495.057.957.17 1.386.112.43.286.803.52 1.12.235.317.536.562.905.735.369.174.813.256 1.334.248.764 0 1.406-.215 1.927-.645.52-.43.828-1.034.924-1.815h-.26c-.113.737-.402 1.29-.866 1.66-.464.368-1.048.552-1.75.552-.478 0-.882-.082-1.211-.247a2.192 2.192 0 0 1-.807-.677 2.95 2.95 0 0 1-.462-1.009 5.425 5.425 0 0 1-.163-1.256Zm5.337-.26h-5.336c.026-.469.113-.89.26-1.263.148-.373.34-.692.58-.956.238-.265.516-.467.832-.606a2.517 2.517 0 0 1 1.022-.208c.434 0 .816.08 1.146.241.33.16.605.38.826.657.221.278.389.601.501.97.113.369.17.757.17 1.165Zm5.663-1.158h.26c0-.747-.217-1.29-.65-1.627-.435-.339-1.025-.508-1.771-.508-.417 0-.768.052-1.054.156-.287.104-.521.239-.703.404a1.451 1.451 0 0 0-.39.546c-.079.2-.118.39-.118.573 0 .364.065.655.195.872.13.217.335.386.612.508.191.086.408.164.651.234.243.07.525.143.846.221l.846.209c.278.069.523.162.735.28.213.117.387.266.521.448.135.183.202.421.202.716 0 .287-.067.53-.202.73a1.627 1.627 0 0 1-.514.487 2.29 2.29 0 0 1-.696.274 3.474 3.474 0 0 1-.749.084c-.79 0-1.395-.175-1.816-.527-.42-.351-.63-.904-.63-1.66h-.261c0 .842.228 1.459.683 1.849.456.39 1.13.586 2.024.586.287 0 .575-.033.866-.098.29-.065.55-.171.78-.319.229-.145.42-.341.56-.573.144-.234.215-.52.215-.859 0-.32-.063-.581-.188-.78-.126-.2-.291-.365-.495-.495a2.623 2.623 0 0 0-.69-.306 40.729 40.729 0 0 0-.775-.215c-.318-.084-.637-.166-.956-.247a5.811 5.811 0 0 1-.762-.248 1.291 1.291 0 0 1-.54-.41c-.134-.178-.202-.431-.202-.761 0-.06.018-.17.052-.325.035-.157.118-.315.248-.476.13-.16.33-.303.599-.43.269-.125.637-.188 1.106-.188.321 0 .614.035.879.104.264.07.492.18.683.332.19.152.338.345.442.58.105.234.157.52.157.859Zm6.026 0h.26c0-.747-.216-1.29-.65-1.627-.434-.339-1.024-.508-1.77-.508-.417 0-.768.052-1.055.156-.286.104-.52.239-.703.404a1.45 1.45 0 0 0-.39.546c-.078.2-.117.39-.117.573 0 .364.065.655.195.872.13.217.334.386.612.508.19.086.408.164.65.234.244.07.526.143.847.221l.846.209c.278.069.523.162.735.28.213.117.386.266.52.448.135.183.203.421.203.716 0 .287-.068.53-.202.73a1.628 1.628 0 0 1-.514.487c-.209.126-.44.217-.697.274a3.472 3.472 0 0 1-.748.084c-.79 0-1.395-.175-1.816-.527-.42-.351-.631-.904-.631-1.66h-.26c0 .842.227 1.459.683 1.849.455.39 1.13.586 2.024.586.286 0 .575-.033.865-.098.291-.065.552-.171.781-.319.229-.145.42-.341.56-.573.143-.234.215-.52.215-.859 0-.32-.063-.581-.189-.78-.126-.2-.29-.365-.494-.495a2.625 2.625 0 0 0-.69-.306 40.72 40.72 0 0 0-.775-.215c-.318-.084-.637-.166-.956-.247a5.811 5.811 0 0 1-.762-.248 1.29 1.29 0 0 1-.54-.41c-.135-.178-.202-.431-.202-.761 0-.06.017-.17.052-.325.035-.157.117-.315.247-.476.13-.16.33-.303.6-.43.268-.125.637-.188 1.106-.188.32 0 .614.035.878.104.265.07.493.18.684.332.19.152.338.345.442.58.104.234.157.52.157.859Z" fill="#fff"/></g><path d="M22.599 73.125a.292.292 0 0 1-.216-.084.292.292 0 0 1-.084-.216v-7.8c0-.088.028-.16.084-.216a.292.292 0 0 1 .216-.084h5.604c.088 0 .16.028.216.084a.292.292 0 0 1 .084.216v1.128c0 .088-.028.16-.084.216a.292.292 0 0 1-.216.084h-3.828v1.62h3.564c.088 0 .16.032.216.096a.292.292 0 0 1 .084.216v1.044a.32.32 0 0 1-.084.216.292.292 0 0 1-.216.084h-3.564v1.668h3.924c.088 0 .16.028.216.084a.292.292 0 0 1 .084.216v1.128c0 .088-.028.16-.084.216a.292.292 0 0 1-.216.084h-5.7Zm6.98 0a.287.287 0 0 1-.192-.072.287.287 0 0 1-.06-.276.264.264 0 0 1 .048-.108l2.004-2.748-1.824-2.58a.63.63 0 0 1-.06-.096.395.395 0 0 1-.012-.096c0-.072.028-.132.084-.18a.264.264 0 0 1 .192-.084h1.464c.104 0 .18.024.228.072a.576.576 0 0 1 .12.132l1.116 1.548 1.104-1.536c.032-.04.072-.084.12-.132.056-.056.136-.084.24-.084h1.404c.072 0 .132.028.18.084a.227.227 0 0 1 .084.18.395.395 0 0 1-.012.096.27.27 0 0 1-.048.096l-1.872 2.58 2.028 2.748a.212.212 0 0 1 .06.096.395.395 0 0 1 .012.096.264.264 0 0 1-.276.264h-1.524c-.096 0-.168-.02-.216-.06a1.636 1.636 0 0 1-.12-.132l-1.212-1.644-1.224 1.644-.12.12c-.048.048-.124.072-.228.072h-1.488Zm7.607 2.28a.292.292 0 0 1-.216-.084.292.292 0 0 1-.084-.216v-7.92c0-.088.028-.16.084-.216a.292.292 0 0 1 .216-.084h1.356c.08 0 .148.028.204.084a.274.274 0 0 1 .096.216v.444c.184-.248.428-.452.732-.612.304-.168.68-.252 1.128-.252.4 0 .752.064 1.056.192.304.12.564.3.78.54.216.24.384.532.504.876.128.344.2.74.216 1.188a8.935 8.935 0 0 1 0 .888c-.016.432-.084.82-.204 1.164-.12.344-.288.636-.504.876a2.27 2.27 0 0 1-.792.564 2.704 2.704 0 0 1-1.056.192 2.45 2.45 0 0 1-1.032-.204 2.013 2.013 0 0 1-.72-.6v2.664c0 .088-.028.16-.084.216a.292.292 0 0 1-.216.084h-1.464Zm2.868-3.768c.272 0 .484-.056.636-.168a.905.905 0 0 0 .324-.456c.072-.192.116-.404.132-.636a5.772 5.772 0 0 0 0-.744 2.243 2.243 0 0 0-.132-.636.905.905 0 0 0-.324-.456c-.152-.112-.364-.168-.636-.168-.264 0-.476.06-.636.18a.954.954 0 0 0-.348.444 1.82 1.82 0 0 0-.12.6 8.451 8.451 0 0 0 0 .9c.008.2.052.388.132.564.08.168.2.308.36.42.16.104.364.156.612.156Zm4.702 1.488a.292.292 0 0 1-.216-.084.292.292 0 0 1-.084-.216v-5.64c0-.08.028-.148.084-.204a.274.274 0 0 1 .216-.096h1.38c.088 0 .16.032.216.096a.278.278 0 0 1 .084.204v.48c.216-.248.472-.44.768-.576a2.47 2.47 0 0 1 1.02-.204h.528c.08 0 .148.028.204.084a.274.274 0 0 1 .096.216v1.236c0 .08-.032.152-.096.216a.278.278 0 0 1-.204.084h-1.164c-.328 0-.584.092-.768.276-.176.176-.264.428-.264.756v3.072c0 .088-.032.16-.096.216a.292.292 0 0 1-.216.084h-1.488Zm7.982.12c-.944 0-1.696-.256-2.256-.768-.56-.512-.852-1.272-.876-2.28v-.42c.024-.632.164-1.172.42-1.62a2.58 2.58 0 0 1 1.08-1.032c.464-.24 1.004-.36 1.62-.36.704 0 1.284.14 1.74.42.464.28.812.66 1.044 1.14.232.48.348 1.028.348 1.644v.288c0 .088-.032.16-.096.216a.278.278 0 0 1-.204.084h-3.84V70.641c.008.232.048.444.12.636a.977.977 0 0 0 .336.456.905.905 0 0 0 .552.168c.16 0 .292-.024.396-.072.112-.056.204-.116.276-.18a2.84 2.84 0 0 0 .168-.18.564.564 0 0 1 .168-.144.501.501 0 0 1 .216-.036h1.488a.26.26 0 0 1 .192.072c.056.04.08.1.072.18-.008.136-.076.3-.204.492a2.527 2.527 0 0 1-.564.576c-.24.184-.544.336-.912.456s-.796.18-1.284.18Zm-1.02-3.876h2.028v-.024c0-.256-.04-.48-.12-.672a.881.881 0 0 0-.348-.444.954.954 0 0 0-.552-.156c-.216 0-.4.052-.552.156a1.01 1.01 0 0 0-.336.444c-.08.192-.12.416-.12.672v.024Zm7.833 3.876c-.52 0-.964-.056-1.332-.168a3.28 3.28 0 0 1-.888-.432 2.028 2.028 0 0 1-.504-.516c-.112-.184-.172-.34-.18-.468a.242.242 0 0 1 .084-.216.287.287 0 0 1 .204-.096h1.368c.024 0 .044.004.06.012s.04.024.072.048c.104.056.208.128.312.216.104.08.224.152.36.216.136.064.3.096.492.096.224 0 .412-.044.564-.132a.43.43 0 0 0 .228-.396.449.449 0 0 0-.108-.312c-.072-.088-.22-.172-.444-.252-.216-.08-.544-.16-.984-.24a5.128 5.128 0 0 1-1.092-.372 1.884 1.884 0 0 1-.72-.612c-.168-.256-.252-.564-.252-.924 0-.32.104-.628.312-.924.208-.296.512-.536.912-.72.4-.192.892-.288 1.476-.288.464 0 .864.056 1.2.168.344.104.632.24.864.408.24.168.42.34.54.516.12.176.184.336.192.48a.275.275 0 0 1-.072.216.264.264 0 0 1-.192.084h-1.248a.395.395 0 0 1-.096-.012.785.785 0 0 1-.084-.048 1.503 1.503 0 0 1-.288-.192 1.733 1.733 0 0 0-.336-.216 1.069 1.069 0 0 0-.48-.096c-.216 0-.384.048-.504.144a.48.48 0 0 0-.084.66c.072.088.212.168.42.24.216.072.548.152.996.24.552.088.992.232 1.32.432.328.192.56.42.696.684.136.256.204.528.204.816 0 .384-.116.724-.348 1.02-.224.296-.56.528-1.008.696-.448.16-.992.24-1.632.24Zm6.633 0c-.52 0-.964-.056-1.332-.168a3.28 3.28 0 0 1-.888-.432 2.028 2.028 0 0 1-.504-.516c-.112-.184-.172-.34-.18-.468a.242.242 0 0 1 .084-.216.287.287 0 0 1 .204-.096h1.368c.024 0 .044.004.06.012s.04.024.072.048c.104.056.208.128.312.216.104.08.224.152.36.216.136.064.3.096.492.096.224 0 .412-.044.564-.132a.43.43 0 0 0 .228-.396.449.449 0 0 0-.108-.312c-.072-.088-.22-.172-.444-.252-.216-.08-.544-.16-.984-.24a5.128 5.128 0 0 1-1.092-.372 1.884 1.884 0 0 1-.72-.612c-.168-.256-.252-.564-.252-.924 0-.32.104-.628.312-.924.208-.296.512-.536.912-.72.4-.192.892-.288 1.476-.288.464 0 .864.056 1.2.168.344.104.632.24.864.408.24.168.42.34.54.516.12.176.184.336.192.48a.275.275 0 0 1-.072.216.264.264 0 0 1-.192.084h-1.248a.395.395 0 0 1-.096-.012.785.785 0 0 1-.084-.048 1.503 1.503 0 0 1-.288-.192 1.733 1.733 0 0 0-.336-.216 1.069 1.069 0 0 0-.48-.096c-.216 0-.384.048-.504.144a.48.48 0 0 0-.084.66c.072.088.212.168.42.24.216.072.548.152.996.24.552.088.992.232 1.32.432.328.192.56.42.696.684.136.256.204.528.204.816 0 .384-.116.724-.348 1.02-.224.296-.56.528-1.008.696-.448.16-.992.24-1.632.24Z" fill="#fff"/></g><defs><clipPath id="b"><path fill="#fff" transform="translate(25.5 21.875)" d="M0 0h40v36.25H0z"/></clipPath><filter id="a" x="0" y="0" width="91" height="101" filterUnits="userSpaceOnUse" color-interpolation-filters="sRGB"><feFlood flood-opacity="0" result="BackgroundImageFix"/><feColorMatrix in="SourceAlpha" values="0 0 0 0 0 0 0 0 0 0 0 0 0 0 0 0 0 0 127 0" result="hardAlpha"/><feOffset dy="2"/><feGaussianBlur stdDeviation="4"/><feColorMatrix values="0 0 0 0 0 0 0 0 0 0 0 0 0 0 0 0 0 0 0.75 0"/><feBlend in2="BackgroundImageFix" result="effect1_dropShadow_505_621"/><feBlend in="SourceGraphic" in2="effect1_dropShadow_505_621" result="shape"/></filter></defs></svg>