<svg width="91" height="101" fill="none" xmlns="http://www.w3.org/2000/svg"><g filter="url(#a)"><rect x="8" y="6" width="75" height="85" rx="5" fill="#212529"/><g clip-path="url(#b)"><path d="m63.957 29.2 1.24-3.212-.054-.199-12.267 3.232c1.308-1.892.859-3.409.859-3.409s-3.918 2.502-6.88 2.436c-2.962-.065-3.917-.856-8.46.593-4.542 1.448-5.826 5.893-7.143 6.848-1.317.955-5.448 4.065-5.448 4.065l.009.055 3.725-1.186s-1.022.963-3.193 3.888l-.101-.094.004.02s1.744 2.667 3.456 2.174c.172-.05.366-.132.578-.24.69.384 1.589.76 2.582.865 0 0-.672-.782-1.233-1.671l.465-.302-.074.051 1.419.522-.157-1.334.014-.01 1.394.513-.173-1.213c.174-.091.35-.178.529-.26l1.453-5.496 6.008-4.099-.478 1.202c-1.218 2.995-3.505 3.703-3.505 3.703l-.955.361c-.71.84-1.009 1.047-1.252 3.864.572-.144 1.119-.179 1.614-.045 2.567.692 3.457 3.785 2.765 4.641-.173.215-.586.58-1.105 1.01H38.55l-.014.845c-.036.028-.072.055-.106.083h-1.06l-.013.824-.277.21c-.996.02-2.258-.849-2.258-.849 0 .791.658 2.008.658 2.008s.044-.02.117-.057l-.1.074s2.666 1.777 4.345 1.119c1.492-.586 5.357-3.633 8.693-5.075l10.095-2.66 1.331-3.449-7.694 2.027v-3.097l9.028-2.379 1.33-3.449-10.355 2.73v-3.1L63.957 29.2Z" fill="#fff"/></g><path d="M25.476 67.388a.292.292 0 0 1-.216-.084.292.292 0 0 1-.084-.216v-7.8c0-.088.028-.16.084-.216a.292.292 0 0 1 .216-.084h5.508c.088 0 .16.028.216.084a.274.274 0 0 1 .096.216V60.5c0 .088-.032.16-.096.216a.292.292 0 0 1-.216.084h-3.696v1.764h3.456c.088 0 .16.032.216.096a.274.274 0 0 1 .096.216v1.2c0 .08-.032.152-.096.216a.292.292 0 0 1-.216.084h-3.456v2.712c0 .088-.028.16-.084.216a.292.292 0 0 1-.216.084h-1.512Zm8.6.12c-.432 0-.82-.08-1.164-.24a2.145 2.145 0 0 1-.804-.672c-.2-.28-.3-.596-.3-.948 0-.568.232-1.016.696-1.344.464-.336 1.08-.564 1.848-.684l1.5-.228v-.168c0-.288-.06-.508-.18-.66-.12-.152-.34-.228-.66-.228-.224 0-.408.044-.552.132a.942.942 0 0 0-.324.36.345.345 0 0 1-.3.156h-1.344c-.088 0-.156-.024-.204-.072a.243.243 0 0 1-.06-.192c0-.144.052-.308.156-.492.112-.192.28-.38.504-.564.224-.184.512-.336.864-.456s.776-.18 1.272-.18c.52 0 .964.06 1.332.18.368.12.664.288.888.504.232.216.404.472.516.768.112.288.168.608.168.96v3.648c0 .088-.032.16-.096.216a.278.278 0 0 1-.204.084h-1.392a.292.292 0 0 1-.216-.084.292.292 0 0 1-.084-.216v-.42a1.742 1.742 0 0 1-.42.42 2.055 2.055 0 0 1-.624.3c-.232.08-.504.12-.816.12Zm.564-1.368c.232 0 .44-.048.624-.144.192-.104.34-.26.444-.468.112-.216.168-.484.168-.804v-.168l-1.02.18c-.376.064-.652.164-.828.3-.168.128-.252.28-.252.456 0 .136.04.252.12.348.08.096.184.172.312.228.128.048.272.072.432.072Zm7.21 1.368c-.52 0-.964-.056-1.332-.168a3.28 3.28 0 0 1-.888-.432 2.028 2.028 0 0 1-.504-.516c-.112-.184-.172-.34-.18-.468a.242.242 0 0 1 .084-.216.287.287 0 0 1 .204-.096h1.368c.024 0 .044.004.06.012s.04.024.072.048c.104.056.208.128.312.216.104.08.224.152.36.216.136.064.3.096.492.096.224 0 .412-.044.564-.132a.43.43 0 0 0 .228-.396.449.449 0 0 0-.108-.312c-.072-.088-.22-.172-.444-.252-.216-.08-.544-.16-.984-.24a5.128 5.128 0 0 1-1.092-.372 1.884 1.884 0 0 1-.72-.612c-.168-.256-.252-.564-.252-.924 0-.32.104-.628.312-.924.208-.296.512-.536.912-.72.4-.192.892-.288 1.476-.288.464 0 .864.056 1.2.168.344.104.632.24.864.408.24.168.42.34.54.516.12.176.184.336.192.48a.275.275 0 0 1-.072.216.264.264 0 0 1-.192.084h-1.248a.395.395 0 0 1-.096-.012.785.785 0 0 1-.084-.048 1.503 1.503 0 0 1-.288-.192 1.733 1.733 0 0 0-.336-.216 1.069 1.069 0 0 0-.48-.096c-.216 0-.384.048-.504.144a.48.48 0 0 0-.084.66c.072.088.212.168.42.24.216.072.548.152.996.24.552.088.992.232 1.32.432.328.192.56.42.696.684.136.256.204.528.204.816 0 .384-.116.724-.348 1.02-.224.296-.56.528-1.008.696-.448.16-.992.24-1.632.24Zm7.222-.12c-.512 0-.956-.08-1.332-.24a1.849 1.849 0 0 1-.852-.768c-.2-.352-.3-.804-.3-1.356V62.72h-.936a.335.335 0 0 1-.228-.084.292.292 0 0 1-.084-.216v-.972c0-.088.028-.16.084-.216a.335.335 0 0 1 .228-.084h.936v-1.98c0-.088.028-.16.084-.216a.32.32 0 0 1 .216-.084h1.392c.088 0 .16.028.216.084a.292.292 0 0 1 .084.216v1.98h1.5c.088 0 .16.028.216.084a.292.292 0 0 1 .084.216v.972c0 .088-.028.16-.084.216a.292.292 0 0 1-.216.084h-1.5v2.136c0 .272.052.488.156.648.104.16.28.24.528.24h.924c.088 0 .16.028.216.084a.292.292 0 0 1 .084.216v1.044c0 .088-.028.16-.084.216a.292.292 0 0 1-.216.084h-1.116Zm2.71 0a.292.292 0 0 1-.217-.084.292.292 0 0 1-.084-.216v-5.64c0-.088.028-.16.084-.216a.292.292 0 0 1 .216-.084h1.416c.08 0 .148.028.204.084a.274.274 0 0 1 .096.216v5.64c0 .088-.032.16-.096.216a.278.278 0 0 1-.204.084h-1.416Zm-.013-7.14a.292.292 0 0 1-.216-.084.292.292 0 0 1-.084-.216V58.88c0-.088.028-.16.084-.216a.274.274 0 0 1 .216-.096h1.428c.088 0 .16.032.216.096a.274.274 0 0 1 .096.216v1.068c0 .088-.032.16-.096.216a.292.292 0 0 1-.216.084H51.77Zm4.142 7.14a.32.32 0 0 1-.216-.084.292.292 0 0 1-.084-.216V62.72H54.7a.292.292 0 0 1-.216-.084.292.292 0 0 1-.084-.216v-.972c0-.088.028-.16.084-.216a.292.292 0 0 1 .216-.084h.912v-.384c0-.544.104-.98.312-1.308.216-.336.52-.576.912-.72.392-.152.86-.228 1.404-.228h.936c.08 0 .148.028.204.084a.274.274 0 0 1 .096.216v.972c0 .088-.032.16-.096.216a.278.278 0 0 1-.204.084h-.84c-.272 0-.464.064-.576.192-.104.128-.156.312-.156.552v.324h1.452c.08 0 .148.028.204.084a.274.274 0 0 1 .096.216v.972c0 .088-.032.16-.096.216a.278.278 0 0 1-.204.084h-1.452v4.368c0 .088-.028.16-.084.216a.292.292 0 0 1-.216.084h-1.392Zm5.465 2.28a.244.244 0 0 1-.252-.252v-.072a.658.658 0 0 1 .036-.084l.936-2.256-2.304-5.448a.378.378 0 0 1-.036-.144.358.358 0 0 1 .096-.18.227.227 0 0 1 .18-.084H61.4c.104 0 .18.028.228.084a.322.322 0 0 1 .108.168l1.38 3.492L64.52 61.4a.64.64 0 0 1 .12-.168c.056-.056.136-.084.24-.084h1.344c.072 0 .132.028.18.084a.216.216 0 0 1 .084.168.47.47 0 0 1-.036.156l-3.396 7.86a.409.409 0 0 1-.12.168c-.056.056-.136.084-.24.084h-1.32Z" fill="#fff"/></g><defs><clipPath id="b"><path fill="#fff" transform="translate(25.5 25.612)" d="M0 0h40v25.776H0z"/></clipPath><filter id="a" x="0" y="0" width="91" height="101" filterUnits="userSpaceOnUse" color-interpolation-filters="sRGB"><feFlood flood-opacity="0" result="BackgroundImageFix"/><feColorMatrix in="SourceAlpha" values="0 0 0 0 0 0 0 0 0 0 0 0 0 0 0 0 0 0 127 0" result="hardAlpha"/><feOffset dy="2"/><feGaussianBlur stdDeviation="4"/><feColorMatrix values="0 0 0 0 0 0 0 0 0 0 0 0 0 0 0 0 0 0 0.75 0"/><feBlend in2="BackgroundImageFix" result="effect1_dropShadow_505_1027"/><feBlend in="SourceGraphic" in2="effect1_dropShadow_505_1027" result="shape"/></filter></defs></svg>