<svg width="91" height="101" fill="none" xmlns="http://www.w3.org/2000/svg"><g filter="url(#a)"><rect x="8" y="6" width="75" height="85" rx="5" fill="#212529"/><g clip-path="url(#b)"><path d="M33.124 47.622 25.5 39.998l24.754-24.752H65.5L33.124 47.622ZM65.5 38.087H50.254l-5.71 5.71 7.623 7.625" fill="#42A5F5" fill-opacity=".8"/><path d="m44.544 59.043 5.71 5.711H65.5L52.167 51.422" fill="#0D47A1"/><path d="m36.938 51.426 7.611-7.614 7.612 7.612-7.612 7.614-7.611-7.612Z" fill="#42A5F5"/><path d="m44.55 59.038 7.611-7.612 1.063 1.062-7.612 7.612-1.063-1.062Z" fill="url(#c)"/><path d="m44.544 59.044 11.311-3.908-3.688-3.716" fill="url(#d)"/></g><path d="M25.488 79.754a.292.292 0 0 1-.216-.084.292.292 0 0 1-.084-.216v-7.8c0-.088.028-.16.084-.216a.292.292 0 0 1 .216-.084h5.508c.088 0 .16.028.216.084a.274.274 0 0 1 .096.216v1.212c0 .088-.032.16-.096.216a.292.292 0 0 1-.216.084H27.3v1.764h3.456c.088 0 .16.032.216.096a.274.274 0 0 1 .096.216v1.2c0 .08-.032.152-.096.216a.292.292 0 0 1-.216.084H27.3v2.712c0 .088-.028.16-.084.216a.292.292 0 0 1-.216.084h-1.512Zm7.274 0a.292.292 0 0 1-.216-.084.292.292 0 0 1-.084-.216v-7.92c0-.088.028-.16.084-.216a.292.292 0 0 1 .216-.084h1.416c.088 0 .16.028.216.084a.292.292 0 0 1 .084.216v7.92c0 .088-.028.16-.084.216a.292.292 0 0 1-.216.084h-1.416Zm5.425.12c-.456 0-.863-.104-1.223-.312a2.138 2.138 0 0 1-.828-.912c-.2-.408-.3-.904-.3-1.488v-3.348c0-.088.028-.16.084-.216a.292.292 0 0 1 .215-.084h1.5c.089 0 .16.028.217.084a.292.292 0 0 1 .084.216v3.276c0 .784.352 1.176 1.056 1.176.328 0 .588-.1.78-.3.2-.208.3-.5.3-.876v-3.276c0-.088.027-.16.084-.216a.292.292 0 0 1 .215-.084h1.5c.088 0 .16.028.216.084a.292.292 0 0 1 .084.216v5.64c0 .088-.027.16-.084.216a.292.292 0 0 1-.216.084H40.48a.32.32 0 0 1-.215-.084.292.292 0 0 1-.085-.216v-.456c-.208.288-.48.508-.816.66-.328.144-.72.216-1.175.216Zm8.588-.12c-.512 0-.956-.08-1.332-.24a1.849 1.849 0 0 1-.852-.768c-.2-.352-.3-.804-.3-1.356v-2.304h-.936a.335.335 0 0 1-.228-.084.292.292 0 0 1-.084-.216v-.972c0-.088.028-.16.084-.216a.335.335 0 0 1 .228-.084h.936v-1.98c0-.088.028-.16.084-.216a.32.32 0 0 1 .216-.084h1.392c.088 0 .16.028.216.084a.292.292 0 0 1 .084.216v1.98h1.5c.088 0 .16.028.216.084a.292.292 0 0 1 .084.216v.972c0 .088-.028.16-.084.216a.292.292 0 0 1-.216.084h-1.5v2.136c0 .272.052.488.156.648.104.16.28.24.528.24h.924c.088 0 .16.028.216.084a.292.292 0 0 1 .084.216v1.044c0 .088-.028.16-.084.216a.292.292 0 0 1-.216.084h-1.116Zm5.602 0c-.512 0-.956-.08-1.332-.24a1.849 1.849 0 0 1-.852-.768c-.2-.352-.3-.804-.3-1.356v-2.304h-.936a.335.335 0 0 1-.228-.084.292.292 0 0 1-.084-.216v-.972c0-.088.028-.16.084-.216a.335.335 0 0 1 .228-.084h.936v-1.98c0-.088.028-.16.084-.216a.32.32 0 0 1 .216-.084h1.392c.088 0 .16.028.216.084a.292.292 0 0 1 .084.216v1.98h1.5c.088 0 .16.028.216.084a.292.292 0 0 1 .084.216v.972c0 .088-.028.16-.084.216a.292.292 0 0 1-.216.084h-1.5v2.136c0 .272.052.488.156.648.104.16.28.24.528.24h.924c.088 0 .16.028.216.084a.292.292 0 0 1 .084.216v1.044c0 .088-.028.16-.084.216a.292.292 0 0 1-.216.084h-1.116Zm5.29.12c-.945 0-1.697-.256-2.257-.768s-.852-1.272-.876-2.28v-.42c.024-.632.164-1.172.42-1.62a2.58 2.58 0 0 1 1.08-1.032c.464-.24 1.004-.36 1.62-.36.704 0 1.284.14 1.74.42.464.28.812.66 1.044 1.14.232.48.348 1.028.348 1.644v.288c0 .088-.032.16-.096.216a.278.278 0 0 1-.204.084h-3.84V77.27c.008.232.048.444.12.636a.977.977 0 0 0 .336.456.905.905 0 0 0 .552.168c.16 0 .292-.024.396-.072.112-.056.204-.116.276-.18a2.84 2.84 0 0 0 .168-.18.564.564 0 0 1 .168-.144.501.501 0 0 1 .216-.036h1.488a.26.26 0 0 1 .192.072c.056.04.08.1.072.18-.008.136-.076.3-.204.492a2.527 2.527 0 0 1-.564.576c-.24.184-.544.336-.912.456s-.796.18-1.284.18Zm-1.02-3.876h2.027v-.024c0-.256-.04-.48-.12-.672a.881.881 0 0 0-.348-.444.954.954 0 0 0-.552-.156c-.216 0-.4.052-.552.156a1.01 1.01 0 0 0-.336.444c-.08.192-.12.416-.12.672v.024Zm5.564 3.756a.292.292 0 0 1-.216-.084.292.292 0 0 1-.084-.216v-5.64c0-.08.028-.148.084-.204a.274.274 0 0 1 .216-.096h1.38c.088 0 .16.032.216.096a.278.278 0 0 1 .084.204v.48c.216-.248.472-.44.768-.576a2.47 2.47 0 0 1 1.02-.204h.528c.08 0 .148.028.204.084a.274.274 0 0 1 .096.216v1.236c0 .08-.032.152-.096.216a.278.278 0 0 1-.204.084h-1.164c-.328 0-.584.092-.768.276-.176.176-.264.428-.264.756v3.072c0 .088-.032.16-.096.216a.292.292 0 0 1-.216.084h-1.488Z" fill="#fff"/></g><defs><linearGradient id="c" x1="48.357" y1="55.23" x2="49.419" y2="56.293" gradientUnits="userSpaceOnUse"><stop offset=".2" stop-opacity=".15"/><stop offset=".85" stop-color="#616161" stop-opacity=".01"/></linearGradient><linearGradient id="d" x1="44.546" y1="55.232" x2="55.858" y2="55.232" gradientUnits="userSpaceOnUse"><stop offset=".2" stop-opacity=".55"/><stop offset=".85" stop-color="#616161" stop-opacity=".01"/></linearGradient><clipPath id="b"><path fill="#fff" transform="translate(25.5 15.246)" d="M0 0h40v49.509H0z"/></clipPath><filter id="a" x="0" y="0" width="91" height="101" filterUnits="userSpaceOnUse" color-interpolation-filters="sRGB"><feFlood flood-opacity="0" result="BackgroundImageFix"/><feColorMatrix in="SourceAlpha" values="0 0 0 0 0 0 0 0 0 0 0 0 0 0 0 0 0 0 127 0" result="hardAlpha"/><feOffset dy="2"/><feGaussianBlur stdDeviation="4"/><feColorMatrix values="0 0 0 0 0 0 0 0 0 0 0 0 0 0 0 0 0 0 0.75 0"/><feBlend in2="BackgroundImageFix" result="effect1_dropShadow_505_239"/><feBlend in="SourceGraphic" in2="effect1_dropShadow_505_239" result="shape"/></filter></defs></svg>