<svg width="91" height="101" fill="none" xmlns="http://www.w3.org/2000/svg"><g filter="url(#a)"><rect x="8" y="6" width="75" height="85" rx="5" fill="#212529"/><g clip-path="url(#b)"><path d="M50.881 26.27h1.22l3.478-3.478.171-1.475c-6.47-5.71-16.347-5.096-22.058 1.375a15.603 15.603 0 0 0-3.367 6.249c.387-.16.817-.185 1.22-.074L38.5 27.72s.354-.585.536-.548a8.675 8.675 0 0 1 11.871-.902h-.025Z" fill="#EA4335"/><path d="M60.532 28.94a15.664 15.664 0 0 0-4.721-7.611l-4.88 4.879a8.673 8.673 0 0 1 3.185 6.88v.867a4.342 4.342 0 1 1 0 8.686h-8.687l-.867.878v5.21l.867.866h8.687a11.3 11.3 0 0 0 10.876-7.944 11.303 11.303 0 0 0-4.46-12.71Z" fill="#4285F4"/><path d="M36.73 49.547h8.687v-6.953H36.73c-.618 0-1.23-.133-1.794-.391l-1.22.377-3.501 3.477-.305 1.221a11.242 11.242 0 0 0 6.82 2.269Z" fill="#34A853"/><path d="M36.73 26.989a11.295 11.295 0 0 0-6.819 20.25l5.038-5.038a4.342 4.342 0 1 1 5.746-5.746l5.039-5.038a11.292 11.292 0 0 0-9.004-4.428Z" fill="#FBBC05"/></g><path d="M29.083 64.715c-.76 0-1.416-.124-1.968-.372a2.957 2.957 0 0 1-1.272-1.104c-.296-.488-.46-1.08-.492-1.776a47.073 47.073 0 0 1 0-2.208c.032-.68.2-1.256.504-1.728a2.895 2.895 0 0 1 1.284-1.08c.552-.248 1.2-.372 1.944-.372.6 0 1.132.076 1.596.228.464.144.852.34 1.164.588.32.248.56.52.72.816.168.296.256.588.264.876a.196.196 0 0 1-.072.18.244.244 0 0 1-.18.072h-1.752a.466.466 0 0 1-.204-.036.456.456 0 0 1-.108-.132 1.608 1.608 0 0 0-.252-.372 1.249 1.249 0 0 0-.444-.348c-.184-.096-.428-.144-.732-.144-.456 0-.816.12-1.08.36-.256.24-.396.624-.42 1.152a30.284 30.284 0 0 0 0 2.088c.024.56.172.964.444 1.212s.632.372 1.08.372c.304 0 .572-.052.804-.156.24-.104.428-.264.564-.48.136-.224.204-.508.204-.852v-.228h-1.128a.335.335 0 0 1-.228-.084.335.335 0 0 1-.084-.228v-.888c0-.088.028-.16.084-.216a.311.311 0 0 1 .228-.096h3.024c.088 0 .16.032.216.096a.292.292 0 0 1 .084.216v1.368c0 .688-.156 1.276-.468 1.764-.312.488-.756.864-1.332 1.128-.568.256-1.232.384-1.992.384Zm7.99 0c-.673 0-1.24-.108-1.705-.324a2.434 2.434 0 0 1-1.056-.924c-.24-.408-.376-.892-.408-1.452-.008-.16-.012-.34-.012-.54 0-.208.004-.388.012-.54.032-.568.176-1.052.432-1.452.256-.4.612-.708 1.068-.924.464-.216 1.02-.324 1.668-.324.656 0 1.212.108 1.668.324.464.216.824.524 1.08.924.256.4.4.884.432 1.452.008.152.012.332.012.54 0 .2-.004.38-.012.54-.032.56-.172 1.044-.42 1.452-.24.4-.592.708-1.056.924-.456.216-1.024.324-1.704.324Zm0-1.464c.36 0 .62-.108.78-.324.167-.216.263-.54.287-.972.008-.12.012-.28.012-.48 0-.2-.004-.36-.012-.48-.024-.424-.12-.744-.288-.96-.16-.224-.42-.336-.78-.336-.352 0-.612.112-.78.336-.168.216-.26.536-.276.96a7.57 7.57 0 0 0-.012.48c0 .2.004.36.012.48.016.432.108.756.276.972.168.216.428.324.78.324Zm7.323 1.464c-.672 0-1.24-.108-1.704-.324a2.434 2.434 0 0 1-1.056-.924c-.24-.408-.376-.892-.408-1.452-.008-.16-.012-.34-.012-.54 0-.208.004-.388.012-.54.032-.568.176-1.052.432-1.452.256-.4.612-.708 1.068-.924.464-.216 1.02-.324 1.668-.324.656 0 1.212.108 1.668.324.464.216.824.524 1.08.924.256.4.4.884.432 1.452.008.152.012.332.012.54 0 .2-.004.38-.012.54-.032.56-.172 1.044-.42 1.452-.24.4-.592.708-1.056.924-.456.216-1.024.324-1.704.324Zm0-1.464c.36 0 .62-.108.78-.324.168-.216.264-.54.288-.972.008-.12.012-.28.012-.48 0-.2-.004-.36-.012-.48-.024-.424-.12-.744-.288-.96-.16-.224-.42-.336-.78-.336-.352 0-.612.112-.78.336-.168.216-.26.536-.276.96a7.57 7.57 0 0 0-.012.48c0 .2.004.36.012.48.016.432.108.756.276.972.168.216.428.324.78.324Zm7.432 3.984c-.616 0-1.128-.08-1.536-.24-.4-.16-.72-.352-.96-.576a2.305 2.305 0 0 1-.504-.672c-.104-.216-.16-.388-.168-.516a.242.242 0 0 1 .085-.216.335.335 0 0 1 .227-.084h1.524c.072 0 .133.016.18.048.056.04.1.104.133.192.04.088.092.18.156.276a.746.746 0 0 0 .287.228c.128.064.3.096.517.096.24 0 .44-.04.6-.12a.712.712 0 0 0 .36-.372c.08-.168.12-.396.12-.684v-.804c-.184.2-.42.364-.708.492-.288.12-.636.18-1.044.18-.409 0-.769-.06-1.08-.18a1.93 1.93 0 0 1-.78-.54 2.657 2.657 0 0 1-.492-.876 4.648 4.648 0 0 1-.204-1.188 8.115 8.115 0 0 1 0-.624 4.58 4.58 0 0 1 .204-1.164c.111-.344.272-.64.48-.888.215-.248.48-.436.791-.564a2.681 2.681 0 0 1 1.08-.204c.433 0 .8.084 1.105.252.312.16.568.364.767.612v-.444c0-.08.028-.148.084-.204a.274.274 0 0 1 .217-.096h1.38c.087 0 .16.032.215.096a.261.261 0 0 1 .097.204v5.772c0 .608-.124 1.12-.372 1.536a2.375 2.375 0 0 1-1.069.948c-.464.216-1.028.324-1.692.324Zm-.084-4.332c.257 0 .465-.056.624-.168a.964.964 0 0 0 .349-.432c.08-.176.123-.364.132-.564.008-.088.012-.212.012-.372s-.005-.28-.012-.36a1.52 1.52 0 0 0-.132-.576.894.894 0 0 0-.349-.42c-.16-.112-.367-.168-.623-.168-.264 0-.476.056-.636.168a.977.977 0 0 0-.337.456 2.565 2.565 0 0 0-.12.636 6.077 6.077 0 0 0 0 .54c.017.232.056.444.12.636a.977.977 0 0 0 .337.456c.16.112.371.168.636.168Zm4.93 1.692a.292.292 0 0 1-.216-.084.292.292 0 0 1-.084-.216v-7.92c0-.088.028-.16.084-.216a.292.292 0 0 1 .216-.084h1.416c.088 0 .16.028.216.084a.292.292 0 0 1 .084.216v7.92c0 .088-.028.16-.084.216a.292.292 0 0 1-.216.084h-1.416Zm6.014.12c-.944 0-1.696-.256-2.256-.768-.56-.512-.852-1.272-.876-2.28v-.42c.024-.632.164-1.172.42-1.62a2.58 2.58 0 0 1 1.08-1.032c.464-.24 1.004-.36 1.62-.36.704 0 1.284.14 1.74.42.464.28.812.66 1.044 1.14.232.48.348 1.028.348 1.644v.288c0 .088-.032.16-.096.216a.278.278 0 0 1-.204.084h-3.84V62.111c.008.232.048.444.12.636a.977.977 0 0 0 .336.456.905.905 0 0 0 .552.168c.16 0 .292-.024.396-.072.112-.056.204-.116.276-.18a2.84 2.84 0 0 0 .168-.18.564.564 0 0 1 .168-.144.501.501 0 0 1 .216-.036h1.488a.26.26 0 0 1 .192.072c.056.04.08.1.072.18-.008.136-.076.3-.204.492a2.527 2.527 0 0 1-.564.576c-.24.184-.544.336-.912.456s-.796.18-1.284.18Zm-1.02-3.876h2.028v-.024c0-.256-.04-.48-.12-.672a.881.881 0 0 0-.348-.444.954.954 0 0 0-.552-.156c-.216 0-.4.052-.552.156a1.01 1.01 0 0 0-.336.444c-.08.192-.12.416-.12.672v.024ZM32.563 77.715c-.76 0-1.412-.124-1.956-.372a2.893 2.893 0 0 1-1.26-1.092c-.296-.48-.46-1.076-.492-1.788a43.458 43.458 0 0 1 0-2.136c.032-.696.2-1.284.504-1.764a2.856 2.856 0 0 1 1.272-1.104c.544-.256 1.188-.384 1.932-.384a5.02 5.02 0 0 1 1.464.204c.448.128.84.32 1.176.576.336.248.596.552.78.912.192.352.292.752.3 1.2a.196.196 0 0 1-.072.18.244.244 0 0 1-.18.072h-1.62a.409.409 0 0 1-.24-.06.564.564 0 0 1-.144-.252c-.112-.424-.296-.712-.552-.864-.248-.16-.556-.24-.924-.24-.44 0-.788.124-1.044.372-.256.24-.396.644-.42 1.212a28.229 28.229 0 0 0 0 2.016c.024.568.164.976.42 1.224.256.24.604.36 1.044.36.368 0 .68-.08.936-.24.256-.16.436-.448.54-.864.032-.12.076-.2.132-.24a.41.41 0 0 1 .252-.072h1.62c.072 0 .132.024.18.072.056.048.08.108.072.18a2.637 2.637 0 0 1-.3 1.212 2.73 2.73 0 0 1-.78.912 3.84 3.84 0 0 1-1.176.576 5.313 5.313 0 0 1-1.464.192Zm5.15-.12a.292.292 0 0 1-.216-.084.292.292 0 0 1-.084-.216v-7.92c0-.088.028-.16.084-.216a.292.292 0 0 1 .216-.084h1.416c.088 0 .16.028.216.084a.292.292 0 0 1 .084.216v7.92c0 .088-.028.16-.084.216a.292.292 0 0 1-.216.084h-1.416Zm6.086.12c-.672 0-1.24-.108-1.704-.324a2.434 2.434 0 0 1-1.056-.924c-.24-.408-.376-.892-.408-1.452-.008-.16-.012-.34-.012-.54 0-.208.004-.388.012-.54.032-.568.176-1.052.432-1.452.256-.4.612-.708 1.068-.924.464-.216 1.02-.324 1.668-.324.656 0 1.212.108 1.668.324.464.216.824.524 1.08.924.256.4.4.884.432 1.452.008.152.012.332.012.54 0 .2-.004.38-.012.54-.032.56-.172 1.044-.42 1.452-.24.4-.592.708-1.056.924-.456.216-1.024.324-1.704.324Zm0-1.464c.36 0 .62-.108.78-.324.168-.216.264-.54.288-.972.008-.12.012-.28.012-.48 0-.2-.004-.36-.012-.48-.024-.424-.12-.744-.288-.96-.16-.224-.42-.336-.78-.336-.352 0-.612.112-.78.336-.168.216-.26.536-.276.96a7.57 7.57 0 0 0-.012.48c0 .2.004.36.012.48.016.432.108.756.276.972.168.216.428.324.78.324Zm6.664 1.464c-.456 0-.864-.104-1.224-.312a2.138 2.138 0 0 1-.828-.912c-.2-.408-.3-.904-.3-1.488v-3.348c0-.088.028-.16.084-.216a.292.292 0 0 1 .216-.084h1.5c.088 0 .16.028.216.084a.292.292 0 0 1 .084.216v3.276c0 .784.352 1.176 1.056 1.176.328 0 .588-.1.78-.3.2-.208.3-.5.3-.876v-3.276c0-.088.028-.16.084-.216a.292.292 0 0 1 .216-.084h1.5c.088 0 .16.028.216.084a.292.292 0 0 1 .084.216v5.64c0 .088-.028.16-.084.216a.292.292 0 0 1-.216.084h-1.392a.32.32 0 0 1-.216-.084.292.292 0 0 1-.084-.216v-.456c-.208.288-.48.508-.816.66-.328.144-.72.216-1.176.216Zm7.723 0c-.384 0-.732-.06-1.044-.18a2.283 2.283 0 0 1-.792-.552 2.678 2.678 0 0 1-.504-.888 4.176 4.176 0 0 1-.204-1.2 8.035 8.035 0 0 1 0-.84c.016-.432.084-.82.204-1.164.12-.344.288-.64.504-.888.216-.248.48-.436.792-.564.312-.136.66-.204 1.044-.204.4 0 .744.068 1.032.204.288.128.532.296.732.504v-2.568c0-.088.028-.16.084-.216a.292.292 0 0 1 .216-.084h1.464c.08 0 .148.028.204.084a.274.274 0 0 1 .096.216v7.92c0 .088-.032.16-.096.216a.278.278 0 0 1-.204.084h-1.356a.292.292 0 0 1-.216-.084.292.292 0 0 1-.084-.216v-.384c-.192.232-.44.424-.744.576-.304.152-.68.228-1.128.228Zm.648-1.608c.272 0 .484-.056.636-.168.16-.12.276-.272.348-.456.08-.184.124-.384.132-.6a9.15 9.15 0 0 0 0-.9 1.4 1.4 0 0 0-.132-.552.968.968 0 0 0-.36-.42c-.16-.112-.368-.168-.624-.168-.264 0-.476.056-.636.168a.905.905 0 0 0-.324.456 2.565 2.565 0 0 0-.12.636 3.853 3.853 0 0 0 0 .744c.016.232.056.444.12.636a.905.905 0 0 0 .324.456c.16.112.372.168.636.168Z" fill="#fff"/></g><defs><clipPath id="b"><path fill="#fff" transform="translate(25.5 17.405)" d="M0 0h40v32.19H0z"/></clipPath><filter id="a" x="0" y="0" width="91" height="101" filterUnits="userSpaceOnUse" color-interpolation-filters="sRGB"><feFlood flood-opacity="0" result="BackgroundImageFix"/><feColorMatrix in="SourceAlpha" values="0 0 0 0 0 0 0 0 0 0 0 0 0 0 0 0 0 0 127 0" result="hardAlpha"/><feOffset dy="2"/><feGaussianBlur stdDeviation="4"/><feColorMatrix values="0 0 0 0 0 0 0 0 0 0 0 0 0 0 0 0 0 0 0.75 0"/><feBlend in2="BackgroundImageFix" result="effect1_dropShadow_505_90"/><feBlend in="SourceGraphic" in2="effect1_dropShadow_505_90" result="shape"/></filter></defs></svg>