<svg width="91" height="101" fill="none" xmlns="http://www.w3.org/2000/svg"><g filter="url(#a)"><rect x="8" y="6" width="75" height="85" rx="5" fill="#212529"/><path d="M58.5 43.5c-.031 1.174-2.299 1.989-1.375 3.155 2.038.286 1.111 1.636 2.228 2.096-1.974 3.213-5.158 3.614-8.187 1.603a3.61 3.61 0 0 0-2.686-.529c-.462.741.226.828.666.935 2.125.424 4.277 3.715 11.482.58.96-.404.815-1.593.398-2.528.8-.34.848-1.227.965-2.368.785-2.569-1.788-2.35-3.49-2.944Zm-11.329-5.584a9.672 9.672 0 0 0-3.027 1.267c1.206.708 1.685 1.553 3.027 1.29 1.343-.264 1.318-1.126.79-2.133a.794.794 0 0 0-.79-.424ZM52.843 21c-1.64.075-3.05 4.468-4.723 7.581-4.807 2-6.011-.593-7.581-.167C37.865 22.965 33.895 17.5 32.823 24c.236 4.907-1.723 5.313-1.55 12.316 0 0-3.5 7.033-2.068 13.256A8.308 8.308 0 0 0 36.115 56c.25-1.794 3.061-5.839 2.291-6.782-1.922-2.356-1.318-8.126 3.55-8.72.667-4.854 3.968-3.94 3.625-5.344-1.058-4.398 3.508-2.345 4.274-.904 1.375 2.285 2.346 4.531 3.471 5.595a11.64 11.64 0 0 0 3.488 2.136c-.409-.25-3.909-3.216-4.934-5.595a15.68 15.68 0 0 1-.554-4.654c1.777-.278 2.493 2.71 4.422 5.422a.554.554 0 0 1 0 .482c-.265-.14-.358-.492-.678-.535-.291 0-.526.413-.526.922 0 .508.384.69.912.928a4.444 4.444 0 0 0 2.24 2.099l-2.375-6.949c-.087-4.352.375-8.703-2.148-13.056a.957.957 0 0 0-.33-.045Zm.022 1.387c.131 0 .25.087.361.29 1.317 2.473 1.365 8.28 1.355 10.334-.625-1.422-1.56-3.815-4.513-4.544 0 0 1.725-6.06 2.797-6.08Zm-17.686.553c.6 0 1.282.35 2.072 1.793 1.267 2.307 2.174 3.842 2.615 4.642.903 1.625-.395.34-.8 4.514a1.975 1.975 0 0 1-1 1.639 13.563 13.563 0 0 1-2.897-6.338c-1.26 1.875.816 4.766.852 7.242a5.324 5.324 0 0 1-2.826.035c-.65-.325-.864-4.287.341-7.363 1-2.563.527-5.82.973-5.963.307-.097.31-.198.67-.201ZM27.925 74.5a.292.292 0 0 1-.216-.084.292.292 0 0 1-.084-.216v-7.8c0-.088.028-.16.084-.216a.292.292 0 0 1 .216-.084h1.548c.088 0 .16.028.216.084a.292.292 0 0 1 .084.216v2.892h2.964V66.4c0-.088.028-.16.084-.216a.292.292 0 0 1 .216-.084h1.548c.088 0 .16.028.216.084a.292.292 0 0 1 .084.216v7.8c0 .088-.028.16-.084.216a.292.292 0 0 1-.216.084h-1.548a.292.292 0 0 1-.216-.084.292.292 0 0 1-.084-.216v-2.988h-2.964V74.2c0 .088-.028.16-.084.216a.292.292 0 0 1-.216.084h-1.548Zm10.802.12c-.456 0-.864-.104-1.224-.312a2.138 2.138 0 0 1-.828-.912c-.2-.408-.3-.904-.3-1.488V68.56c0-.088.028-.16.084-.216a.292.292 0 0 1 .216-.084h1.5c.088 0 .16.028.216.084a.292.292 0 0 1 .084.216v3.276c0 .784.352 1.176 1.056 1.176.328 0 .588-.1.78-.3.2-.208.3-.5.3-.876V68.56c0-.088.028-.16.084-.216a.292.292 0 0 1 .216-.084h1.5c.088 0 .16.028.216.084a.292.292 0 0 1 .084.216v5.64c0 .088-.028.16-.084.216a.292.292 0 0 1-.216.084h-1.392a.32.32 0 0 1-.216-.084.292.292 0 0 1-.084-.216v-.456c-.208.288-.48.508-.816.66-.328.144-.72.216-1.176.216Zm7.963 0c-.52 0-.964-.056-1.332-.168a3.28 3.28 0 0 1-.888-.432 2.028 2.028 0 0 1-.504-.516c-.112-.184-.172-.34-.18-.468a.242.242 0 0 1 .084-.216.287.287 0 0 1 .204-.096h1.368c.024 0 .044.004.06.012s.04.024.072.048c.104.056.208.128.312.216.104.08.224.152.36.216.136.064.3.096.492.096.224 0 .412-.044.564-.132a.43.43 0 0 0 .228-.396.449.449 0 0 0-.108-.312c-.072-.088-.22-.172-.444-.252-.216-.08-.544-.16-.984-.24a5.128 5.128 0 0 1-1.092-.372 1.884 1.884 0 0 1-.72-.612c-.168-.256-.252-.564-.252-.924 0-.32.104-.628.312-.924.208-.296.512-.536.912-.72.4-.192.892-.288 1.476-.288.464 0 .864.056 1.2.168.344.104.632.24.864.408.24.168.42.34.54.516.12.176.184.336.192.48a.275.275 0 0 1-.072.216.264.264 0 0 1-.192.084h-1.248a.395.395 0 0 1-.096-.012.785.785 0 0 1-.084-.048 1.503 1.503 0 0 1-.288-.192 1.733 1.733 0 0 0-.336-.216 1.069 1.069 0 0 0-.48-.096c-.216 0-.384.048-.504.144a.48.48 0 0 0-.084.66c.072.088.212.168.42.24.216.072.548.152.996.24.552.088.992.232 1.32.432.328.192.56.42.696.684.136.256.204.528.204.816 0 .384-.116.724-.348 1.02-.224.296-.56.528-1.008.696-.448.16-.992.24-1.632.24Zm4.365-.12a.292.292 0 0 1-.216-.084.292.292 0 0 1-.084-.216v-7.92c0-.088.028-.16.084-.216a.292.292 0 0 1 .216-.084h1.392c.08 0 .148.028.204.084a.274.274 0 0 1 .096.216v4.02l1.668-1.836a.877.877 0 0 1 .156-.144.409.409 0 0 1 .24-.06h1.608c.072 0 .132.028.18.084a.227.227 0 0 1 .084.18.295.295 0 0 1-.024.108.218.218 0 0 1-.072.096l-2.16 2.328 2.46 2.988c.064.064.096.128.096.192a.264.264 0 0 1-.276.264h-1.644c-.12 0-.208-.02-.264-.06a2.769 2.769 0 0 1-.156-.144l-1.896-2.28V74.2c0 .088-.032.16-.096.216a.278.278 0 0 1-.204.084h-1.392Zm7.872 2.28a.244.244 0 0 1-.252-.252v-.072a.658.658 0 0 1 .036-.084l.936-2.256-2.304-5.448a.378.378 0 0 1-.036-.144.358.358 0 0 1 .096-.18.227.227 0 0 1 .18-.084h1.368c.104 0 .18.028.228.084a.322.322 0 0 1 .108.168l1.38 3.492 1.404-3.492a.64.64 0 0 1 .12-.168c.056-.056.136-.084.24-.084h1.344c.072 0 .132.028.18.084a.216.216 0 0 1 .084.168.47.47 0 0 1-.036.156l-3.396 7.86a.409.409 0 0 1-.12.168c-.056.056-.136.084-.24.084h-1.32Z" fill="#fff"/></g><defs><filter id="a" x="0" y="0" width="91" height="101" filterUnits="userSpaceOnUse" color-interpolation-filters="sRGB"><feFlood flood-opacity="0" result="BackgroundImageFix"/><feColorMatrix in="SourceAlpha" values="0 0 0 0 0 0 0 0 0 0 0 0 0 0 0 0 0 0 127 0" result="hardAlpha"/><feOffset dy="2"/><feGaussianBlur stdDeviation="4"/><feColorMatrix values="0 0 0 0 0 0 0 0 0 0 0 0 0 0 0 0 0 0 0.75 0"/><feBlend in2="BackgroundImageFix" result="effect1_dropShadow_505_308"/><feBlend in="SourceGraphic" in2="effect1_dropShadow_505_308" result="shape"/></filter></defs></svg>