<svg width="91" height="101" fill="none" xmlns="http://www.w3.org/2000/svg"><g filter="url(#a)"><rect x="8" y="6" width="75" height="85" rx="5" fill="#212529"/><path fill-rule="evenodd" clip-rule="evenodd" d="m36.004 39.627.255.056-.895 2.839h-8.1v-.285h.396c.442 0 .758-.145.948-.432.108-.165.16-.548.16-1.143v-6.751c0-.653-.071-1.061-.216-1.224-.2-.227-.497-.34-.892-.34h-.395v-.287h4.737v.287c-.556-.005-.946.045-1.17.152-.223.108-.376.245-.458.411-.081.163-.123.558-.123 1.18v6.572c0 .427.042.719.123.88.06.108.156.186.285.239.129.05.529.077 1.203.077h.764c.803 0 1.366-.058 1.69-.177.324-.119.619-.33.887-.63.266-.3.535-.776.801-1.424Z" fill="#fff"/><path fill-rule="evenodd" clip-rule="evenodd" d="M37.252 37.663h-3.153l-.551 1.286c-.138.315-.205.551-.205.709 0 .123.06.232.176.326.119.094.373.156.767.184v.222H31.72v-.222c.34-.061.56-.139.66-.236.205-.19.43-.582.679-1.17l2.865-6.701h.21l2.834 6.773c.228.545.435.897.622 1.06.186.161.446.254.778.274v.221h-3.214v-.221c.324-.016.544-.072.658-.164a.414.414 0 0 0 .173-.336c0-.176-.082-.453-.242-.834l-.492-1.17Zm-.168-.445-1.382-3.29-1.416 3.29h2.798Z" fill="#fff"/><path fill-rule="evenodd" clip-rule="evenodd" d="m47.18 31.99.117 2.474H47c-.056-.435-.133-.746-.234-.934-.159-.3-.374-.52-.64-.664-.267-.143-.618-.215-1.053-.215h-1.486v8.059c0 .647.071 1.05.21 1.213.196.218.501.326.91.326h.367v.287H40.6v-.287h.374c.446 0 .762-.135.948-.406.114-.165.172-.544.172-1.133V32.65h-1.268c-.491 0-.842.037-1.049.109-.27.098-.501.29-.692.568-.191.281-.306.658-.343 1.136h-.294l.124-2.474h8.608Z" fill="#fff"/><path fill-rule="evenodd" clip-rule="evenodd" d="M48.46 35.449v3.996h2.223c.578 0 .962-.087 1.156-.26.26-.229.402-.63.433-1.209h.274v3.52h-.274c-.07-.49-.14-.806-.21-.946a.941.941 0 0 0-.44-.41c-.203-.099-.516-.15-.939-.15h-2.222v3.334c0 .448.02.721.059.818a.48.48 0 0 0 .208.231c.1.056.29.084.568.084h1.715c.57 0 .988-.038 1.246-.12.259-.079.506-.234.745-.468.308-.308.624-.774.947-1.395h.298l-.87 2.536h-7.795v-.275h.36c.236 0 .468-.06.676-.173a.629.629 0 0 0 .326-.357c.056-.16.084-.486.084-.977v-6.57c0-.642-.063-1.036-.194-1.186-.178-.199-.475-.298-.893-.298h-.359v-.278h7.794l.112 2.215h-.292c-.105-.532-.22-.896-.346-1.095a1.192 1.192 0 0 0-.563-.455c-.199-.074-.55-.112-1.051-.112H48.46Z" fill="#fff"/><path fill-rule="evenodd" clip-rule="evenodd" d="m58.955 36.701 2.248 3.35c.622.927 1.083 1.512 1.386 1.757.3.245.683.38 1.146.406v.284h-4.492v-.284c.297-.005.519-.037.663-.095a.632.632 0 0 0 .267-.21.493.493 0 0 0 .102-.29.999.999 0 0 0-.068-.356c-.037-.087-.18-.314-.424-.68l-1.777-2.685-2.192 2.809c-.232.3-.372.498-.416.598a.725.725 0 0 0-.072.313.5.5 0 0 0 .209.409c.14.108.405.171.795.187v.285h-3.713v-.285c.264-.026.488-.082.68-.163a3.93 3.93 0 0 0 .91-.54c.289-.227.619-.575.987-1.044l2.472-3.117-2.06-3.02c-.562-.817-1.039-1.355-1.429-1.608a2.572 2.572 0 0 0-1.352-.406v-.287h4.841v.287c-.411.016-.693.082-.846.2-.15.119-.226.25-.226.393 0 .192.123.469.369.835l1.607 2.401 1.86-2.356c.216-.276.348-.466.398-.57a.77.77 0 0 0 .074-.318.451.451 0 0 0-.095-.285.602.602 0 0 0-.292-.226c-.12-.045-.364-.069-.733-.074v-.287h3.713v.287a2.25 2.25 0 0 0-.72.137c-.276.118-.532.28-.764.48-.232.2-.558.571-.98 1.112L58.955 36.7Z" fill="#fff"/><path d="M29.76 74.5a.292.292 0 0 1-.217-.084.292.292 0 0 1-.084-.216v-7.8c0-.088.028-.16.084-.216a.292.292 0 0 1 .216-.084h1.584c.08 0 .148.028.204.084a.274.274 0 0 1 .096.216v6.288h3.624c.088 0 .16.032.216.096a.274.274 0 0 1 .096.216v1.2c0 .088-.032.16-.096.216a.292.292 0 0 1-.216.084H29.76Zm8.6.12c-.433 0-.82-.08-1.165-.24a2.145 2.145 0 0 1-.804-.672c-.2-.28-.3-.596-.3-.948 0-.568.232-1.016.696-1.344.464-.336 1.08-.564 1.848-.684l1.5-.228v-.168c0-.288-.06-.508-.18-.66-.12-.152-.34-.228-.66-.228-.224 0-.408.044-.552.132a.942.942 0 0 0-.324.36.345.345 0 0 1-.3.156h-1.344c-.088 0-.156-.024-.204-.072a.243.243 0 0 1-.06-.192c0-.144.052-.308.156-.492.112-.192.28-.38.504-.564.224-.184.512-.336.864-.456s.776-.18 1.272-.18c.52 0 .964.06 1.332.18.368.12.664.288.888.504.232.216.404.472.516.768.112.288.168.608.168.96V74.2c0 .088-.032.16-.096.216a.278.278 0 0 1-.204.084H40.52a.292.292 0 0 1-.216-.084.292.292 0 0 1-.084-.216v-.42a1.742 1.742 0 0 1-.42.42 2.055 2.055 0 0 1-.624.3c-.232.08-.504.12-.816.12Zm.563-1.368c.232 0 .44-.048.624-.144.192-.104.34-.26.444-.468.112-.216.168-.484.168-.804v-.168l-1.02.18c-.376.064-.652.164-.828.3-.168.128-.252.28-.252.456 0 .136.04.252.12.348.08.096.184.172.312.228.128.048.272.072.432.072Zm7.788 1.248c-.512 0-.956-.08-1.332-.24a1.849 1.849 0 0 1-.852-.768c-.2-.352-.3-.804-.3-1.356v-2.304h-.936a.335.335 0 0 1-.228-.084.292.292 0 0 1-.085-.216v-.972c0-.088.029-.16.084-.216a.335.335 0 0 1 .229-.084h.936v-1.98c0-.088.028-.16.084-.216a.32.32 0 0 1 .215-.084h1.392c.089 0 .16.028.217.084a.292.292 0 0 1 .084.216v1.98h1.5c.087 0 .16.028.215.084a.292.292 0 0 1 .085.216v.972c0 .088-.029.16-.084.216a.292.292 0 0 1-.217.084h-1.5v2.136c0 .272.052.488.156.648.104.16.28.24.529.24h.924c.087 0 .16.028.215.084a.292.292 0 0 1 .084.216V74.2c0 .088-.027.16-.084.216a.292.292 0 0 1-.215.084H46.71Zm5.29.12c-.945 0-1.697-.256-2.257-.768s-.852-1.272-.876-2.28v-.42c.024-.632.164-1.172.42-1.62a2.58 2.58 0 0 1 1.08-1.032c.464-.24 1.004-.36 1.62-.36.704 0 1.284.14 1.74.42.464.28.812.66 1.044 1.14.232.48.348 1.028.348 1.644v.288c0 .088-.032.16-.096.216a.278.278 0 0 1-.204.084h-3.84V72.016c.008.232.048.444.12.636a.977.977 0 0 0 .336.456.905.905 0 0 0 .552.168c.16 0 .292-.024.396-.072.112-.056.204-.116.276-.18a2.84 2.84 0 0 0 .168-.18.564.564 0 0 1 .168-.144.501.501 0 0 1 .216-.036H54.7a.26.26 0 0 1 .192.072c.056.04.08.1.072.18-.008.136-.076.3-.204.492a2.527 2.527 0 0 1-.564.576c-.24.184-.544.336-.912.456s-.796.18-1.284.18Zm-1.02-3.876h2.027v-.024c0-.256-.04-.48-.12-.672a.881.881 0 0 0-.348-.444.954.954 0 0 0-.552-.156c-.216 0-.4.052-.552.156a1.01 1.01 0 0 0-.336.444c-.08.192-.12.416-.12.672v.024Zm4.801 3.756a.287.287 0 0 1-.192-.072.287.287 0 0 1-.06-.276.264.264 0 0 1 .048-.108l2.004-2.748-1.824-2.58a.63.63 0 0 1-.06-.096.395.395 0 0 1-.012-.096c0-.072.028-.132.084-.18a.264.264 0 0 1 .192-.084h1.464c.104 0 .18.024.228.072a.576.576 0 0 1 .12.132l1.116 1.548 1.104-1.536c.032-.04.072-.084.12-.132.056-.056.136-.084.24-.084h1.404c.072 0 .132.028.18.084a.227.227 0 0 1 .084.18.395.395 0 0 1-.012.096.27.27 0 0 1-.048.096l-1.872 2.58 2.028 2.748a.212.212 0 0 1 .06.096.395.395 0 0 1 .012.096.264.264 0 0 1-.276.264H60.39c-.096 0-.168-.02-.216-.06a1.636 1.636 0 0 1-.12-.132l-1.212-1.644-1.224 1.644-.12.12c-.048.048-.124.072-.228.072h-1.488Z" fill="#fff"/></g><defs><filter id="a" x="0" y="0" width="91" height="101" filterUnits="userSpaceOnUse" color-interpolation-filters="sRGB"><feFlood flood-opacity="0" result="BackgroundImageFix"/><feColorMatrix in="SourceAlpha" values="0 0 0 0 0 0 0 0 0 0 0 0 0 0 0 0 0 0 127 0" result="hardAlpha"/><feOffset dy="2"/><feGaussianBlur stdDeviation="4"/><feColorMatrix values="0 0 0 0 0 0 0 0 0 0 0 0 0 0 0 0 0 0 0.75 0"/><feBlend in2="BackgroundImageFix" result="effect1_dropShadow_505_1125"/><feBlend in="SourceGraphic" in2="effect1_dropShadow_505_1125" result="shape"/></filter></defs></svg>