<svg width="91" height="101" fill="none" xmlns="http://www.w3.org/2000/svg"><g filter="url(#a)"><rect x="8" y="6" width="75" height="85" rx="5" fill="#212529"/><g clip-path="url(#b)"><path d="M62.745 48.827h-34.37c-1.558 0-2.875-1.318-2.875-2.875V27.03c0-1.557 1.317-2.874 2.874-2.874h34.252c1.557 0 2.874 1.317 2.874 2.874v18.922c0 1.557-1.198 2.875-2.755 2.875Zm-34.37-22.755c-.48 0-.959.48-.959.958v18.922c0 .6.48.959.958.959h34.252c.599 0 .958-.48.958-.959V27.03c0-.599-.48-.958-.958-.958H28.374Zm2.873 17.006V29.904h3.833l3.832 4.791 3.833-4.79h3.832v13.173h-3.833v-7.545l-3.832 4.79-3.832-4.79v7.545h-3.833Zm24.072 0-5.748-6.347h3.832v-6.827h3.833v6.707h3.832l-5.748 6.467Z" fill="#fff"/></g><path d="M15.808 68.844a.32.32 0 0 1-.216-.084.292.292 0 0 1-.084-.216v-7.8c0-.088.028-.16.084-.216a.32.32 0 0 1 .216-.084h1.296c.128 0 .224.036.288.108a.496.496 0 0 1 .132.156l2.112 3.792 2.112-3.792a1.18 1.18 0 0 1 .12-.156c.064-.072.164-.108.3-.108h1.284c.088 0 .16.028.216.084a.274.274 0 0 1 .096.216v7.8c0 .088-.032.16-.096.216a.292.292 0 0 1-.216.084h-1.428a.335.335 0 0 1-.228-.084.292.292 0 0 1-.084-.216v-4.5l-1.356 2.508a.552.552 0 0 1-.144.192.387.387 0 0 1-.264.084h-.624a.387.387 0 0 1-.264-.084.716.716 0 0 1-.156-.192l-1.356-2.508v4.5c0 .088-.028.16-.084.216a.292.292 0 0 1-.216.084h-1.44Zm11.366.12c-.432 0-.82-.08-1.164-.24a2.145 2.145 0 0 1-.804-.672c-.2-.28-.3-.596-.3-.948 0-.568.232-1.016.696-1.344.464-.336 1.08-.564 1.848-.684l1.5-.228v-.168c0-.288-.06-.508-.18-.66-.12-.152-.34-.228-.66-.228-.224 0-.408.044-.552.132a.942.942 0 0 0-.324.36.345.345 0 0 1-.3.156H25.59a.276.276 0 0 1-.204-.072.243.243 0 0 1-.06-.192c0-.144.052-.308.156-.492.112-.192.28-.38.504-.564.224-.184.512-.336.864-.456s.776-.18 1.272-.18c.52 0 .964.06 1.332.18.368.12.664.288.888.504.232.216.404.472.516.768.112.288.168.608.168.96v3.648c0 .088-.032.16-.096.216a.277.277 0 0 1-.204.084h-1.392a.292.292 0 0 1-.216-.084.292.292 0 0 1-.084-.216v-.42a1.742 1.742 0 0 1-.42.42 2.055 2.055 0 0 1-.624.3c-.232.08-.504.12-.816.12Zm.564-1.368c.232 0 .44-.048.624-.144.192-.104.34-.26.444-.468.112-.216.168-.484.168-.804v-.168l-1.02.18c-.376.064-.652.164-.828.3-.168.128-.252.28-.252.456 0 .136.04.252.12.348.08.096.184.172.312.228.128.048.272.072.432.072Zm4.942 1.248a.292.292 0 0 1-.216-.084.292.292 0 0 1-.084-.216v-5.64c0-.08.028-.148.084-.204a.274.274 0 0 1 .216-.096h1.38c.088 0 .16.032.216.096a.278.278 0 0 1 .084.204v.48c.216-.248.472-.44.768-.576a2.47 2.47 0 0 1 1.02-.204h.528c.08 0 .148.028.204.084a.274.274 0 0 1 .096.216v1.236c0 .08-.032.152-.096.216a.278.278 0 0 1-.204.084h-1.164c-.328 0-.584.092-.768.276-.176.176-.264.428-.264.756v3.072c0 .088-.032.16-.096.216a.292.292 0 0 1-.216.084H32.68Zm5.45 0a.292.292 0 0 1-.217-.084.292.292 0 0 1-.084-.216v-7.92c0-.088.028-.16.084-.216a.292.292 0 0 1 .216-.084h1.392c.08 0 .148.028.204.084a.274.274 0 0 1 .096.216v4.02l1.668-1.836a.877.877 0 0 1 .156-.144.409.409 0 0 1 .24-.06h1.608c.072 0 .132.028.18.084a.227.227 0 0 1 .084.18.295.295 0 0 1-.024.108.218.218 0 0 1-.072.096l-2.16 2.328 2.46 2.988c.064.064.096.128.096.192a.264.264 0 0 1-.276.264h-1.644c-.12 0-.208-.02-.264-.06a2.769 2.769 0 0 1-.156-.144l-1.896-2.28v2.184c0 .088-.032.16-.096.216a.278.278 0 0 1-.204.084H38.13Zm8.777.12c-.384 0-.732-.06-1.044-.18a2.283 2.283 0 0 1-.792-.552 2.678 2.678 0 0 1-.504-.888 4.176 4.176 0 0 1-.204-1.2 8.035 8.035 0 0 1 0-.84c.016-.432.084-.82.204-1.164.12-.344.288-.64.504-.888.216-.248.48-.436.792-.564.312-.136.66-.204 1.044-.204.4 0 .744.068 1.032.204.288.128.532.296.732.504v-2.568c0-.088.028-.16.084-.216a.292.292 0 0 1 .216-.084h1.464c.08 0 .148.028.204.084a.274.274 0 0 1 .096.216v7.92c0 .088-.032.16-.096.216a.278.278 0 0 1-.204.084H49.08a.292.292 0 0 1-.216-.084.292.292 0 0 1-.084-.216v-.384c-.192.232-.44.424-.744.576-.304.152-.68.228-1.128.228Zm.648-1.608c.272 0 .484-.056.636-.168.16-.12.276-.272.348-.456.08-.184.124-.384.132-.6a9.15 9.15 0 0 0 0-.9 1.4 1.4 0 0 0-.132-.552.968.968 0 0 0-.36-.42c-.16-.112-.368-.168-.624-.168-.264 0-.476.056-.636.168a.905.905 0 0 0-.324.456 2.565 2.565 0 0 0-.12.636 3.853 3.853 0 0 0 0 .744c.016.232.056.444.12.636a.905.905 0 0 0 .324.456c.16.112.372.168.636.168Zm7.546 1.608c-.672 0-1.24-.108-1.704-.324a2.434 2.434 0 0 1-1.056-.924c-.24-.408-.376-.892-.408-1.452-.008-.16-.012-.34-.012-.54 0-.208.004-.388.012-.54.032-.568.176-1.052.432-1.452.256-.4.612-.708 1.068-.924.464-.216 1.02-.324 1.668-.324.656 0 1.212.108 1.668.324.464.216.824.524 1.08.924.256.4.4.884.432 1.452.008.152.012.332.012.54 0 .2-.004.38-.012.54-.032.56-.172 1.044-.42 1.452-.24.4-.592.708-1.056.924-.456.216-1.024.324-1.704.324Zm0-1.464c.36 0 .62-.108.78-.324.168-.216.264-.54.288-.972.008-.12.012-.28.012-.48 0-.2-.004-.36-.012-.48-.024-.424-.12-.744-.288-.96-.16-.224-.42-.336-.78-.336-.352 0-.612.112-.78.336-.168.216-.26.536-.276.96a7.57 7.57 0 0 0-.012.48c0 .2.004.36.012.48.016.432.108.756.276.972.168.216.428.324.78.324Zm5.925 1.344c-.12 0-.208-.028-.264-.084a.58.58 0 0 1-.132-.216l-1.728-5.556a.321.321 0 0 1-.024-.12c0-.072.028-.132.084-.18a.264.264 0 0 1 .192-.084h1.236c.104 0 .184.028.24.084a.367.367 0 0 1 .12.168l1.008 3.432 1.08-3.42a.399.399 0 0 1 .108-.168.357.357 0 0 1 .264-.096h.792c.112 0 .196.032.252.096a.367.367 0 0 1 .12.168l1.08 3.42 1.008-3.432a.399.399 0 0 1 .108-.168.369.369 0 0 1 .252-.084h1.236c.072 0 .132.028.18.084a.227.227 0 0 1 .084.18.61.61 0 0 1-.012.12l-1.728 5.556a.43.43 0 0 1-.132.216c-.056.056-.144.084-.264.084h-1.08a.387.387 0 0 1-.264-.084.43.43 0 0 1-.132-.216l-1.104-3.288-1.104 3.288a.43.43 0 0 1-.132.216.387.387 0 0 1-.264.084h-1.08Zm8.615 0a.292.292 0 0 1-.216-.084.292.292 0 0 1-.084-.216v-5.64c0-.088.028-.16.084-.216a.292.292 0 0 1 .216-.084h1.38c.088 0 .16.028.216.084a.292.292 0 0 1 .084.216v.456c.208-.248.48-.456.816-.624.336-.168.732-.252 1.188-.252.464 0 .872.104 1.224.312.36.208.64.516.84.924.208.4.312.892.312 1.476v3.348c0 .088-.032.16-.096.216a.278.278 0 0 1-.204.084h-1.512a.32.32 0 0 1-.216-.084.292.292 0 0 1-.084-.216v-3.276c0-.376-.092-.664-.276-.864-.176-.208-.44-.312-.792-.312-.328 0-.592.104-.792.312-.192.2-.288.488-.288.864v3.276c0 .088-.032.16-.096.216a.278.278 0 0 1-.204.084h-1.5Z" fill="#fff"/></g><defs><clipPath id="b"><path fill="#fff" transform="translate(25.5 24.156)" d="M0 0h40v24.688H0z"/></clipPath><filter id="a" x="0" y="0" width="91" height="101" filterUnits="userSpaceOnUse" color-interpolation-filters="sRGB"><feFlood flood-opacity="0" result="BackgroundImageFix"/><feColorMatrix in="SourceAlpha" values="0 0 0 0 0 0 0 0 0 0 0 0 0 0 0 0 0 0 127 0" result="hardAlpha"/><feOffset dy="2"/><feGaussianBlur stdDeviation="4"/><feColorMatrix values="0 0 0 0 0 0 0 0 0 0 0 0 0 0 0 0 0 0 0.75 0"/><feBlend in2="BackgroundImageFix" result="effect1_dropShadow_505_1733"/><feBlend in="SourceGraphic" in2="effect1_dropShadow_505_1733" result="shape"/></filter></defs></svg>