<svg width="91" height="101" fill="none" xmlns="http://www.w3.org/2000/svg"><g filter="url(#a)"><rect x="8" y="6" width="75" height="85" rx="5" fill="#212529"/><path d="M60.53 29.987a3.03 3.03 0 0 0-4.825-.58l-7.01-4.049a3.035 3.035 0 1 0-5.825 0l-7.013 4.047a3.036 3.036 0 1 0-2.914 5.048v11.46l9.925 5.73a3.035 3.035 0 1 0 5.826 0l9.913-5.73V34.455a3.033 3.033 0 0 0 1.918-4.468h.005Zm-16.943-3.38.093.094-3.11 5.387 1.064 1.043 3.297-5.71a3.043 3.043 0 0 0 1.697 0l6.32 10.957 1.063-1.043-6.13-10.633a4.53 4.53 0 0 0 .093-.093l7.011 4.05a3.031 3.031 0 0 0 2.184 3.79v10.325H34.386V34.452a3.03 3.03 0 0 0 2.192-3.796l7.01-4.048Zm2.195 22.85a3.026 3.026 0 0 0-2.195.935l-7.231-4.174h18.843l-7.225 4.174a3.027 3.027 0 0 0-2.192-.935Z" fill="#864F00"/><path d="M59.408 42.865a3.034 3.034 0 0 0-2.366-.283l-3.028-5.25-4.05 3.98-9.392-9.224-6.058 10.493a3.034 3.034 0 1 0 1.253.717l5.124-8.875 9.072 8.913 3.733-3.667L55.79 43.3a3.036 3.036 0 1 0 3.617-.435Z" fill="#FFA11A"/><path d="M16.435 74.5a.32.32 0 0 1-.216-.084.292.292 0 0 1-.084-.216v-7.8c0-.088.028-.16.084-.216a.32.32 0 0 1 .216-.084h1.296c.128 0 .224.036.288.108a.496.496 0 0 1 .132.156l2.112 3.792 2.112-3.792a1.18 1.18 0 0 1 .12-.156c.064-.072.164-.108.3-.108h1.284c.088 0 .16.028.216.084a.274.274 0 0 1 .096.216v7.8c0 .088-.032.16-.096.216a.292.292 0 0 1-.216.084H22.65a.335.335 0 0 1-.228-.084.292.292 0 0 1-.084-.216v-4.5l-1.356 2.508a.552.552 0 0 1-.144.192.387.387 0 0 1-.264.084h-.624a.387.387 0 0 1-.264-.084.716.716 0 0 1-.156-.192L18.175 69.7v4.5c0 .088-.028.16-.084.216a.292.292 0 0 1-.216.084h-1.44Zm12.374.12c-.944 0-1.696-.256-2.256-.768-.56-.512-.852-1.272-.876-2.28v-.42c.024-.632.164-1.172.42-1.62a2.58 2.58 0 0 1 1.08-1.032c.464-.24 1.004-.36 1.62-.36.704 0 1.284.14 1.74.42.464.28.812.66 1.044 1.14.232.48.348 1.028.348 1.644v.288c0 .088-.032.16-.096.216a.278.278 0 0 1-.204.084h-3.84V72.016c.008.232.048.444.12.636a.977.977 0 0 0 .336.456.905.905 0 0 0 .552.168c.16 0 .292-.024.396-.072.112-.056.204-.116.276-.18a2.84 2.84 0 0 0 .168-.18.564.564 0 0 1 .168-.144.501.501 0 0 1 .216-.036h1.488a.26.26 0 0 1 .192.072c.056.04.08.1.072.18-.008.136-.076.3-.204.492a2.527 2.527 0 0 1-.564.576c-.24.184-.544.336-.912.456s-.796.18-1.284.18Zm-1.02-3.876h2.028v-.024c0-.256-.04-.48-.12-.672a.881.881 0 0 0-.348-.444.954.954 0 0 0-.552-.156c-.216 0-.4.052-.552.156a1.01 1.01 0 0 0-.336.444c-.08.192-.12.416-.12.672v.024Zm5.565 3.756a.292.292 0 0 1-.216-.084.292.292 0 0 1-.084-.216v-5.64c0-.08.028-.148.084-.204a.274.274 0 0 1 .216-.096h1.38c.088 0 .16.032.216.096a.278.278 0 0 1 .084.204v.48c.216-.248.472-.44.768-.576a2.47 2.47 0 0 1 1.02-.204h.528c.08 0 .148.028.204.084a.274.274 0 0 1 .096.216v1.236c0 .08-.032.152-.096.216a.278.278 0 0 1-.204.084h-1.164c-.328 0-.584.092-.768.276-.176.176-.264.428-.264.756V74.2c0 .088-.032.16-.096.216a.292.292 0 0 1-.216.084h-1.488Zm7.97.12c-.592 0-1.116-.108-1.572-.324a2.646 2.646 0 0 1-1.092-.936c-.264-.416-.408-.912-.432-1.488a7.93 7.93 0 0 1-.012-.48c0-.2.004-.364.012-.492.024-.584.168-1.08.432-1.488a2.537 2.537 0 0 1 1.08-.948c.464-.216.992-.324 1.584-.324.552 0 1.024.08 1.416.24.392.152.712.344.96.576.248.232.432.472.552.72.128.24.196.452.204.636a.259.259 0 0 1-.084.216.32.32 0 0 1-.216.084h-1.524a.31.31 0 0 1-.204-.06.553.553 0 0 1-.132-.18c-.096-.248-.22-.424-.372-.528-.144-.104-.332-.156-.564-.156-.32 0-.568.104-.744.312-.168.208-.26.528-.276.96-.008.32-.008.604 0 .852.016.44.108.76.276.96.176.2.424.3.744.3.248 0 .444-.052.588-.156.144-.104.26-.28.348-.528.04-.08.084-.14.132-.18a.31.31 0 0 1 .204-.06h1.524c.08 0 .152.032.216.096a.228.228 0 0 1 .084.204 1.613 1.613 0 0 1-.12.48 2.543 2.543 0 0 1-.336.564c-.152.2-.352.388-.6.564-.24.168-.532.304-.876.408a4.159 4.159 0 0 1-1.2.156Zm6.502 0c-.456 0-.864-.104-1.224-.312a2.138 2.138 0 0 1-.828-.912c-.2-.408-.3-.904-.3-1.488V68.56c0-.088.028-.16.084-.216a.292.292 0 0 1 .216-.084h1.5c.088 0 .16.028.216.084a.292.292 0 0 1 .084.216v3.276c0 .784.352 1.176 1.056 1.176.328 0 .588-.1.78-.3.2-.208.3-.5.3-.876V68.56c0-.088.028-.16.084-.216a.292.292 0 0 1 .216-.084h1.5c.088 0 .16.028.216.084a.292.292 0 0 1 .084.216v5.64c0 .088-.028.16-.084.216a.292.292 0 0 1-.216.084h-1.392a.32.32 0 0 1-.216-.084.292.292 0 0 1-.084-.216v-.456c-.208.288-.48.508-.816.66-.328.144-.72.216-1.176.216Zm5.696-.12a.292.292 0 0 1-.216-.084.292.292 0 0 1-.084-.216v-5.64c0-.08.028-.148.084-.204a.274.274 0 0 1 .216-.096h1.38c.088 0 .16.032.216.096a.278.278 0 0 1 .084.204v.48c.216-.248.472-.44.768-.576a2.47 2.47 0 0 1 1.02-.204h.528c.08 0 .148.028.204.084a.274.274 0 0 1 .096.216v1.236c0 .08-.032.152-.096.216a.278.278 0 0 1-.204.084h-1.164c-.328 0-.584.092-.768.276-.176.176-.264.428-.264.756V74.2c0 .088-.032.16-.096.216a.292.292 0 0 1-.216.084h-1.488Zm5.449 0a.292.292 0 0 1-.216-.084.292.292 0 0 1-.084-.216v-5.64c0-.088.028-.16.084-.216a.292.292 0 0 1 .216-.084h1.416c.08 0 .148.028.204.084a.274.274 0 0 1 .096.216v5.64c0 .088-.032.16-.096.216a.278.278 0 0 1-.204.084H58.97Zm-.012-7.14a.292.292 0 0 1-.216-.084.292.292 0 0 1-.084-.216v-1.068c0-.088.028-.16.084-.216a.274.274 0 0 1 .216-.096h1.428c.088 0 .16.032.216.096a.274.274 0 0 1 .096.216v1.068c0 .088-.032.16-.096.216a.292.292 0 0 1-.216.084h-1.428Zm5.426 7.26c-.456 0-.864-.104-1.224-.312a2.138 2.138 0 0 1-.828-.912c-.2-.408-.3-.904-.3-1.488V68.56c0-.088.028-.16.084-.216a.292.292 0 0 1 .216-.084h1.5c.088 0 .16.028.216.084a.292.292 0 0 1 .084.216v3.276c0 .784.352 1.176 1.056 1.176.328 0 .588-.1.78-.3.2-.208.3-.5.3-.876V68.56c0-.088.028-.16.084-.216a.292.292 0 0 1 .216-.084h1.5c.088 0 .16.028.216.084a.292.292 0 0 1 .084.216v5.64c0 .088-.028.16-.084.216a.292.292 0 0 1-.216.084h-1.392a.32.32 0 0 1-.216-.084.292.292 0 0 1-.084-.216v-.456c-.208.288-.48.508-.816.66-.328.144-.72.216-1.176.216Zm7.963 0c-.52 0-.964-.056-1.332-.168a3.28 3.28 0 0 1-.888-.432 2.028 2.028 0 0 1-.504-.516c-.112-.184-.172-.34-.18-.468a.242.242 0 0 1 .084-.216.287.287 0 0 1 .204-.096H71.1c.024 0 .044.004.06.012s.04.024.072.048c.104.056.208.128.312.216.104.08.224.152.36.216.136.064.3.096.492.096.224 0 .412-.044.564-.132a.43.43 0 0 0 .228-.396.449.449 0 0 0-.108-.312c-.072-.088-.22-.172-.444-.252-.216-.08-.544-.16-.984-.24a5.128 5.128 0 0 1-1.092-.372 1.884 1.884 0 0 1-.72-.612c-.168-.256-.252-.564-.252-.924 0-.32.104-.628.312-.924.208-.296.512-.536.912-.72.4-.192.892-.288 1.476-.288.464 0 .864.056 1.2.168.344.104.632.24.864.408.24.168.42.34.54.516.12.176.184.336.192.48a.275.275 0 0 1-.072.216.264.264 0 0 1-.192.084h-1.248a.395.395 0 0 1-.096-.012.785.785 0 0 1-.084-.048 1.503 1.503 0 0 1-.288-.192 1.733 1.733 0 0 0-.336-.216 1.069 1.069 0 0 0-.48-.096c-.216 0-.384.048-.504.144a.48.48 0 0 0-.084.66c.072.088.212.168.42.24.216.072.548.152.996.24.552.088.992.232 1.32.432.328.192.56.42.696.684.136.256.204.528.204.816 0 .384-.116.724-.348 1.02-.224.296-.56.528-1.008.696-.448.16-.992.24-1.632.24Z" fill="#fff"/></g><defs><filter id="a" x="0" y="0" width="91" height="101" filterUnits="userSpaceOnUse" color-interpolation-filters="sRGB"><feFlood flood-opacity="0" result="BackgroundImageFix"/><feColorMatrix in="SourceAlpha" values="0 0 0 0 0 0 0 0 0 0 0 0 0 0 0 0 0 0 127 0" result="hardAlpha"/><feOffset dy="2"/><feGaussianBlur stdDeviation="4"/><feColorMatrix values="0 0 0 0 0 0 0 0 0 0 0 0 0 0 0 0 0 0 0.75 0"/><feBlend in2="BackgroundImageFix" result="effect1_dropShadow_505_362"/><feBlend in="SourceGraphic" in2="effect1_dropShadow_505_362" result="shape"/></filter></defs></svg>