<svg width="91" height="101" fill="none" xmlns="http://www.w3.org/2000/svg"><g filter="url(#a)"><rect x="8" y="6" width="75" height="85" rx="5" fill="#212529"/><path d="M26.892 43H24.12c-.096 0-.144-.048-.144-.144v-.612c0-.096.048-.144.144-.144h.804v-5.976h-.012l-2.28 5.664a.526.526 0 0 1-.528.36.526.526 0 0 1-.528-.36l-2.28-5.664h-.024V42.1h.804c.104 0 .156.048.156.144v.612c0 .096-.052.144-.156.144h-2.76c-.104 0-.156-.048-.156-.144v-.612c0-.096.052-.144.156-.144h.912v-6.816h-.912c-.104 0-.156-.048-.156-.144v-.612c0-.096.052-.144.156-.144h1.848c.272 0 .46.136.564.408l1.788 4.32.564 1.512h.048c.224-.624.408-1.12.552-1.488l1.8-4.344c.104-.272.296-.408.576-.408h1.836c.096 0 .144.048.144.144v.612c0 .096-.048.144-.144.144h-.924V42.1h.924c.096 0 .144.048.144.144v.612c0 .096-.048.144-.144.144Zm5.936-.756c-.56.56-1.276.84-2.148.84-.872 0-1.588-.276-2.148-.828-.56-.56-.84-1.3-.84-2.22 0-.928.284-1.664.852-2.208.568-.544 1.28-.816 2.136-.816.864 0 1.576.276 2.136.828.568.544.852 1.276.852 2.196 0 .912-.28 1.648-.84 2.208ZM28.7 40.036c0 .656.192 1.188.576 1.596.384.408.852.612 1.404.612.56 0 1.032-.204 1.416-.612.384-.408.576-.94.576-1.596 0-.656-.196-1.184-.588-1.584a1.86 1.86 0 0 0-1.392-.6c-.544 0-1.012.2-1.404.6-.392.4-.588.928-.588 1.584ZM40.944 43h-1.14c-.345 0-.517-.168-.517-.504V39.34c0-.464-.111-.824-.335-1.08-.224-.256-.552-.384-.984-.384-.617 0-1.097.252-1.44.756-.04.048-.093.136-.157.264v3.3h.636c.105 0 .157.048.157.144v.516c0 .096-.053.144-.157.144h-2.291c-.105 0-.157-.048-.157-.144v-.516c0-.096.053-.144.157-.144h.66V37.9h-.66c-.105 0-.157-.048-.157-.144v-.516c0-.096.053-.144.157-.144h1.404c.104 0 .156.048.156.144l-.025.816h.037c.416-.696 1.06-1.044 1.931-1.044.64 0 1.14.188 1.5.564.36.376.544.884.553 1.524v3.096h.672c.103 0 .155.048.155.144v.516c0 .096-.051.144-.155.144Zm3.606 2.808c-.4 0-.704-.028-.912-.084a6.218 6.218 0 0 1-.492-.156 1.926 1.926 0 0 1-.312-.132 2.5 2.5 0 0 1-.252-.132c-.352-.232-.484-.4-.396-.504l.312-.444c.048-.072.116-.076.204-.012.008 0 .032.016.072.048l.132.108c.048.032.108.068.18.108.08.048.168.088.264.12.096.04.2.076.312.108.264.072.556.108.876.108.576 0 1.036-.14 1.38-.42.352-.272.528-.704.528-1.296V41.86a2.055 2.055 0 0 1-.72.864c-.328.24-.74.36-1.236.36-.816 0-1.472-.284-1.968-.852-.488-.568-.732-1.304-.732-2.208 0-.904.248-1.632.744-2.184.504-.552 1.156-.828 1.956-.828.496 0 .912.116 1.248.348.344.224.592.5.744.828h.024l-.012-.948c0-.096.048-.144.144-.144h1.416c.096 0 .144.048.144.144v.516c0 .096-.048.144-.144.144h-.648v5.328c0 .856-.264 1.5-.792 1.932-.52.432-1.208.648-2.064.648Zm-1.776-5.76c0 .656.176 1.188.528 1.596.352.4.792.6 1.32.6s.964-.2 1.308-.6c.352-.4.528-.936.528-1.608s-.176-1.204-.528-1.596a1.664 1.664 0 0 0-1.308-.588c-.528 0-.968.2-1.32.6-.352.4-.528.932-.528 1.596Zm11.23 2.196c-.56.56-1.276.84-2.148.84-.872 0-1.588-.276-2.148-.828-.56-.56-.84-1.3-.84-2.22 0-.928.284-1.664.852-2.208.568-.544 1.28-.816 2.136-.816.864 0 1.576.276 2.136.828.568.544.852 1.276.852 2.196 0 .912-.28 1.648-.84 2.208Zm-4.128-2.208c0 .656.192 1.188.576 1.596.384.408.852.612 1.404.612.56 0 1.032-.204 1.416-.612.384-.408.576-.94.576-1.596 0-.656-.196-1.184-.588-1.584a1.86 1.86 0 0 0-1.392-.6c-.544 0-1.012.2-1.404.6-.392.4-.588.928-.588 1.584Zm10.972 2.208c-.56.56-1.276.84-2.148.84-.872 0-1.588-.276-2.148-.828-.56-.56-.84-1.3-.84-2.22 0-.928.284-1.664.852-2.208.568-.544 1.28-.816 2.136-.816.864 0 1.576.276 2.136.828.568.544.852 1.276.852 2.196 0 .912-.28 1.648-.84 2.208Zm-4.128-2.208c0 .656.192 1.188.576 1.596.384.408.852.612 1.404.612.56 0 1.032-.204 1.416-.612.384-.408.576-.94.576-1.596 0-.656-.196-1.184-.588-1.584a1.86 1.86 0 0 0-1.392-.6c-.544 0-1.012.2-1.404.6-.392.4-.588.928-.588 1.584Zm8.523 3.048c-.536 0-.964-.1-1.284-.3-.32-.2-.52-.388-.6-.564h-.024l.024.624c0 .104-.056.156-.168.156h-.408c-.104 0-.156-.052-.156-.156v-1.8c0-.104.052-.156.156-.156h.468c.112 0 .168.052.168.156v.24c.08.24.248.46.504.66.304.24.684.36 1.14.36.896 0 1.344-.312 1.344-.936 0-.216-.124-.388-.372-.516a3.758 3.758 0 0 0-.912-.336 17.404 17.404 0 0 1-1.056-.3 2.19 2.19 0 0 1-.9-.54 1.325 1.325 0 0 1-.372-.96c0-.52.188-.932.564-1.236.376-.312.856-.468 1.44-.468.792 0 1.36.232 1.704.696h.024a59.236 59.236 0 0 1-.024-.444c0-.104.052-.156.156-.156h.384c.104 0 .156.052.156.156v1.668c0 .104-.052.156-.156.156h-.468c-.112 0-.168-.052-.168-.156v-.168c0-.216-.128-.428-.384-.636-.248-.216-.572-.324-.972-.324s-.712.084-.936.252a.787.787 0 0 0-.336.66c0 .264.124.472.372.624.256.144.564.26.924.348.36.08.72.172 1.08.276.36.104.664.276.912.516.256.24.384.572.384.996 0 .424-.184.8-.552 1.128-.36.32-.912.48-1.656.48Zm8.512-2.916h-4.32c.032.664.24 1.176.624 1.536.392.36.832.54 1.32.54.488 0 .904-.104 1.248-.312.352-.208.588-.412.708-.612.064-.08.136-.092.216-.036l.324.324c.048.048.072.092.072.132 0 .032-.02.076-.06.132a1.73 1.73 0 0 1-.216.264c-.112.12-.272.256-.48.408-.2.152-.464.28-.792.384a3.32 3.32 0 0 1-1.032.156c-.84 0-1.544-.276-2.112-.828-.56-.552-.84-1.292-.84-2.22 0-.936.28-1.672.84-2.208.56-.544 1.244-.816 2.052-.816.816 0 1.456.264 1.92.792.464.52.696 1.224.696 2.112v.096c0 .104-.056.156-.168.156Zm-.828-.732c-.024-.496-.18-.892-.468-1.188-.288-.296-.672-.444-1.152-.444-.48 0-.892.136-1.236.408-.344.272-.548.68-.612 1.224h3.468Z" fill="#FC3333"/><path d="M16.16 70a.32.32 0 0 1-.216-.084.292.292 0 0 1-.085-.216v-7.8c0-.088.028-.16.085-.216a.32.32 0 0 1 .216-.084h1.296c.128 0 .224.036.288.108a.496.496 0 0 1 .131.156l2.113 3.792 2.111-3.792a1.18 1.18 0 0 1 .12-.156c.064-.072.165-.108.3-.108h1.285c.088 0 .16.028.216.084a.274.274 0 0 1 .096.216v7.8c0 .088-.032.16-.096.216a.292.292 0 0 1-.216.084h-1.428a.335.335 0 0 1-.229-.084.292.292 0 0 1-.083-.216v-4.5l-1.357 2.508a.552.552 0 0 1-.143.192.387.387 0 0 1-.265.084h-.623a.387.387 0 0 1-.264-.084.716.716 0 0 1-.156-.192L17.899 65.2v4.5c0 .088-.027.16-.084.216A.292.292 0 0 1 17.6 70h-1.44Zm12.445.12c-.672 0-1.24-.108-1.704-.324a2.434 2.434 0 0 1-1.056-.924c-.24-.408-.376-.892-.408-1.452-.008-.16-.012-.34-.012-.54 0-.208.004-.388.012-.54.032-.568.176-1.052.432-1.452.256-.4.612-.708 1.068-.924.464-.216 1.02-.324 1.668-.324.656 0 1.212.108 1.668.324.464.216.824.524 1.08.924.256.4.4.884.432 1.452.008.152.012.332.012.54 0 .2-.004.38-.012.54-.032.56-.172 1.044-.42 1.452-.24.4-.592.708-1.056.924-.456.216-1.024.324-1.704.324Zm0-1.464c.36 0 .62-.108.78-.324.168-.216.264-.54.288-.972.008-.12.012-.28.012-.48 0-.2-.004-.36-.012-.48-.024-.424-.12-.744-.288-.96-.16-.224-.42-.336-.78-.336-.352 0-.612.112-.78.336-.168.216-.26.536-.276.96a7.57 7.57 0 0 0-.012.48c0 .2.004.36.012.48.016.432.108.756.276.972.168.216.428.324.78.324ZM33.278 70a.292.292 0 0 1-.216-.084.292.292 0 0 1-.084-.216v-5.64c0-.088.027-.16.084-.216a.292.292 0 0 1 .216-.084h1.38c.087 0 .16.028.215.084a.292.292 0 0 1 .085.216v.456c.208-.248.48-.456.816-.624.335-.168.731-.252 1.188-.252.463 0 .871.104 1.223.312.36.208.64.516.84.924.209.4.313.892.313 1.476V69.7c0 .088-.032.16-.096.216a.278.278 0 0 1-.204.084h-1.512a.32.32 0 0 1-.217-.084.292.292 0 0 1-.084-.216v-3.276c0-.376-.092-.664-.276-.864-.175-.208-.44-.312-.791-.312-.328 0-.593.104-.793.312-.192.2-.288.488-.288.864V69.7c0 .088-.032.16-.096.216a.278.278 0 0 1-.203.084h-1.5Zm10.459 2.64c-.616 0-1.128-.08-1.536-.24-.4-.16-.72-.352-.96-.576a2.305 2.305 0 0 1-.504-.672c-.104-.216-.16-.388-.168-.516a.242.242 0 0 1 .084-.216.335.335 0 0 1 .228-.084h1.524c.072 0 .132.016.18.048.056.04.1.104.132.192.04.088.092.18.156.276a.746.746 0 0 0 .288.228c.128.064.3.096.516.096.24 0 .44-.04.6-.12a.712.712 0 0 0 .36-.372c.08-.168.12-.396.12-.684v-.804c-.184.2-.42.364-.708.492-.288.12-.636.18-1.044.18-.408 0-.768-.06-1.08-.18a1.93 1.93 0 0 1-.78-.54 2.657 2.657 0 0 1-.492-.876 4.648 4.648 0 0 1-.204-1.188 8.115 8.115 0 0 1 0-.624 4.58 4.58 0 0 1 .204-1.164c.112-.344.272-.64.48-.888.216-.248.48-.436.792-.564a2.681 2.681 0 0 1 1.08-.204c.432 0 .8.084 1.104.252.312.16.568.364.768.612v-.444c0-.08.028-.148.084-.204a.274.274 0 0 1 .216-.096h1.38c.088 0 .16.032.216.096a.261.261 0 0 1 .096.204v5.772c0 .608-.124 1.12-.372 1.536a2.375 2.375 0 0 1-1.068.948c-.464.216-1.028.324-1.692.324Zm-.084-4.332c.256 0 .464-.056.624-.168a.964.964 0 0 0 .348-.432c.08-.176.124-.364.132-.564.008-.088.012-.212.012-.372s-.004-.28-.012-.36a1.52 1.52 0 0 0-.132-.576.894.894 0 0 0-.348-.42c-.16-.112-.368-.168-.624-.168-.264 0-.476.056-.636.168a.977.977 0 0 0-.336.456 2.565 2.565 0 0 0-.12.636 6.077 6.077 0 0 0 0 .54c.016.232.056.444.12.636a.977.977 0 0 0 .336.456c.16.112.372.168.636.168Zm7.581 1.812c-.672 0-1.24-.108-1.704-.324a2.434 2.434 0 0 1-1.056-.924c-.24-.408-.376-.892-.408-1.452-.008-.16-.012-.34-.012-.54 0-.208.004-.388.012-.54.032-.568.176-1.052.432-1.452.256-.4.612-.708 1.068-.924.464-.216 1.02-.324 1.668-.324.656 0 1.212.108 1.668.324.464.216.824.524 1.08.924.256.4.4.884.432 1.452.008.152.012.332.012.54 0 .2-.004.38-.012.54-.032.56-.172 1.044-.42 1.452-.24.4-.592.708-1.056.924-.456.216-1.024.324-1.704.324Zm0-1.464c.36 0 .62-.108.78-.324.168-.216.264-.54.288-.972.008-.12.012-.28.012-.48 0-.2-.004-.36-.012-.48-.024-.424-.12-.744-.288-.96-.16-.224-.42-.336-.78-.336-.352 0-.612.112-.78.336-.168.216-.26.536-.276.96a7.57 7.57 0 0 0-.012.48c0 .2.004.36.012.48.016.432.108.756.276.972.168.216.428.324.78.324Zm7.324 1.464c-.672 0-1.24-.108-1.704-.324a2.434 2.434 0 0 1-1.056-.924c-.24-.408-.376-.892-.408-1.452-.008-.16-.012-.34-.012-.54 0-.208.004-.388.012-.54.032-.568.176-1.052.432-1.452.256-.4.612-.708 1.068-.924.464-.216 1.02-.324 1.668-.324.656 0 1.212.108 1.668.324.464.216.824.524 1.08.924.256.4.4.884.432 1.452.008.152.012.332.012.54 0 .2-.004.38-.012.54-.032.56-.172 1.044-.42 1.452-.24.4-.592.708-1.056.924-.456.216-1.024.324-1.704.324Zm0-1.464c.36 0 .62-.108.78-.324.168-.216.264-.54.288-.972.008-.12.012-.28.012-.48 0-.2-.004-.36-.012-.48-.024-.424-.12-.744-.288-.96-.16-.224-.42-.336-.78-.336-.352 0-.612.112-.78.336-.168.216-.26.536-.276.96a7.57 7.57 0 0 0-.012.48c0 .2.004.36.012.48.016.432.108.756.276.972.168.216.428.324.78.324Zm6.94 1.464c-.52 0-.963-.056-1.331-.168a3.28 3.28 0 0 1-.888-.432 2.028 2.028 0 0 1-.504-.516c-.112-.184-.172-.34-.18-.468a.242.242 0 0 1 .084-.216.287.287 0 0 1 .204-.096h1.368c.024 0 .044.004.06.012s.04.024.072.048c.104.056.208.128.312.216.104.08.224.152.36.216.136.064.3.096.492.096.224 0 .412-.044.564-.132a.43.43 0 0 0 .228-.396.449.449 0 0 0-.108-.312c-.072-.088-.22-.172-.444-.252-.216-.08-.544-.16-.984-.24a5.128 5.128 0 0 1-1.092-.372 1.884 1.884 0 0 1-.72-.612c-.168-.256-.252-.564-.252-.924 0-.32.104-.628.312-.924.208-.296.512-.536.912-.72.4-.192.892-.288 1.476-.288.464 0 .864.056 1.2.168.344.104.632.24.864.408.24.168.42.34.54.516.12.176.184.336.192.48a.275.275 0 0 1-.072.216.264.264 0 0 1-.192.084h-1.248a.395.395 0 0 1-.096-.012.785.785 0 0 1-.084-.048 1.503 1.503 0 0 1-.288-.192 1.733 1.733 0 0 0-.336-.216 1.069 1.069 0 0 0-.48-.096c-.216 0-.384.048-.504.144a.48.48 0 0 0-.084.66c.072.088.212.168.42.24.216.072.548.152.996.24.552.088.992.232 1.32.432.328.192.56.42.696.684.136.256.204.528.204.816 0 .384-.116.724-.348 1.02-.224.296-.56.528-1.008.696-.448.16-.992.24-1.632.24Zm6.945 0c-.944 0-1.695-.256-2.255-.768-.56-.512-.853-1.272-.877-2.28v-.42c.024-.632.164-1.172.42-1.62A2.58 2.58 0 0 1 70.811 64c.464-.24 1.004-.36 1.62-.36.704 0 1.285.14 1.74.42.464.28.813.66 1.044 1.14.233.48.349 1.028.349 1.644v.288c0 .088-.032.16-.096.216a.278.278 0 0 1-.205.084h-3.84V67.516c.008.232.049.444.12.636a.977.977 0 0 0 .336.456.905.905 0 0 0 .552.168c.16 0 .293-.024.397-.072.111-.056.203-.116.275-.18a2.84 2.84 0 0 0 .169-.18.564.564 0 0 1 .167-.144.501.501 0 0 1 .217-.036h1.487a.26.26 0 0 1 .192.072c.056.04.08.1.073.18-.008.136-.076.3-.204.492a2.527 2.527 0 0 1-.564.576c-.24.184-.544.336-.912.456s-.796.18-1.284.18Zm-1.02-3.876h2.028v-.024c0-.256-.04-.48-.12-.672a.881.881 0 0 0-.347-.444.954.954 0 0 0-.552-.156c-.216 0-.4.052-.553.156a1.01 1.01 0 0 0-.336.444c-.08.192-.12.416-.12.672v.024Z" fill="#fff"/></g><defs><filter id="a" x="0" y="0" width="91" height="101" filterUnits="userSpaceOnUse" color-interpolation-filters="sRGB"><feFlood flood-opacity="0" result="BackgroundImageFix"/><feColorMatrix in="SourceAlpha" values="0 0 0 0 0 0 0 0 0 0 0 0 0 0 0 0 0 0 127 0" result="hardAlpha"/><feOffset dy="2"/><feGaussianBlur stdDeviation="4"/><feColorMatrix values="0 0 0 0 0 0 0 0 0 0 0 0 0 0 0 0 0 0 0.75 0"/><feBlend in2="BackgroundImageFix" result="effect1_dropShadow_505_960"/><feBlend in="SourceGraphic" in2="effect1_dropShadow_505_960" result="shape"/></filter></defs></svg>