<svg width="91" height="101" fill="none" xmlns="http://www.w3.org/2000/svg"><g filter="url(#a)"><rect x="8" y="6" width="75" height="85" rx="5" fill="#212529"/><g clip-path="url(#b)" fill="#00546B"><path d="M62.32 49.157c-2.175-.054-3.86.163-5.274.76-.407.164-1.06.164-1.114.68.217.218.244.571.435.87.326.544.897 1.278 1.413 1.659.571.434 1.142.87 1.74 1.25 1.06.652 2.256 1.033 3.29 1.685.598.38 1.195.87 1.793 1.278.3.217.49.57.87.706v-.081c-.19-.245-.244-.598-.434-.87-.272-.272-.544-.517-.816-.788-.788-1.06-1.767-1.985-2.827-2.746-.87-.598-2.773-1.413-3.126-2.419l-.055-.054c.598-.055 1.305-.272 1.876-.435.924-.245 1.767-.19 2.718-.435.435-.109.87-.245 1.305-.38v-.245c-.489-.49-.842-1.142-1.359-1.604-1.386-1.196-2.909-2.365-4.485-3.343-.843-.544-1.93-.898-2.828-1.36-.326-.163-.87-.244-1.06-.516-.49-.598-.761-1.386-1.114-2.093-.788-1.495-1.55-3.153-2.23-4.73-.489-1.06-.788-2.12-1.386-3.098-2.8-4.621-5.845-7.421-10.52-10.167-1.006-.57-2.202-.815-3.48-1.114-.68-.027-1.36-.082-2.039-.109-.435-.19-.87-.706-1.25-.951-1.55-.979-5.546-3.099-6.688-.299-.734 1.767 1.088 3.506 1.713 4.404.462.625 1.06 1.331 1.386 2.038.19.462.245.952.435 1.44.436 1.196.843 2.529 1.414 3.643.3.57.625 1.169 1.006 1.685.217.3.598.435.68.925-.38.543-.408 1.359-.626 2.038-.979 3.072-.598 6.877.788 9.133.435.68 1.469 2.175 2.855 1.604 1.223-.49.951-2.038 1.305-3.398.081-.326.027-.543.19-.76v.054c.38.76.761 1.495 1.115 2.256.842 1.332 2.31 2.718 3.533 3.642.653.49 1.17 1.332 1.985 1.631v-.082H43.4c-.163-.244-.408-.353-.625-.543-.49-.49-1.034-1.087-1.414-1.631-1.142-1.523-2.148-3.208-3.045-4.947-.435-.843-.815-1.767-1.169-2.61-.163-.326-.163-.815-.435-.978-.408.598-1.006 1.114-1.305 1.848-.516 1.169-.57 2.61-.76 4.105-.11.027-.055 0-.11.054-.87-.218-1.168-1.114-1.495-1.876-.815-1.93-.951-5.028-.244-7.257.19-.571 1.006-2.365.68-2.909-.164-.516-.708-.815-1.007-1.223a10.945 10.945 0 0 1-.978-1.74c-.653-1.522-.979-3.207-1.686-4.73-.326-.706-.896-1.44-1.359-2.092-.516-.734-1.087-1.25-1.495-2.12-.136-.3-.326-.789-.109-1.115.055-.217.163-.299.38-.353.354-.3 1.36.081 1.713.244 1.006.408 1.849.789 2.692 1.36.38.271.788.788 1.277.924h.571c.87.19 1.849.054 2.664.299 1.441.462 2.746 1.141 3.915 1.875 3.561 2.256 6.497 5.464 8.482 9.297.326.624.462 1.196.76 1.848.572 1.332 1.279 2.69 1.85 3.996.57 1.277 1.114 2.582 1.93 3.642.407.57 2.038.87 2.772 1.169.544.245 1.387.462 1.876.761.924.57 1.848 1.223 2.718 1.848.435.327 1.794 1.006 1.876 1.55Z"/><path d="M34.591 25.535c-.462 0-.788.055-1.114.137v.054h.054c.218.435.598.734.87 1.114.218.435.408.87.626 1.305l.054-.054c.38-.272.57-.707.57-1.36-.162-.19-.19-.38-.326-.57-.163-.272-.516-.408-.734-.626Z"/></g><path d="M26.273 74.186a.32.32 0 0 1-.216-.084.292.292 0 0 1-.084-.216v-7.8c0-.088.028-.16.084-.216a.32.32 0 0 1 .216-.084h1.296c.128 0 .224.036.288.108a.496.496 0 0 1 .132.156l2.112 3.792 2.112-3.792a1.18 1.18 0 0 1 .12-.156c.064-.072.164-.108.3-.108h1.284c.088 0 .16.028.216.084a.274.274 0 0 1 .096.216v7.8c0 .088-.032.16-.096.216a.292.292 0 0 1-.216.084h-1.428a.335.335 0 0 1-.228-.084.292.292 0 0 1-.084-.216v-4.5l-1.356 2.508a.552.552 0 0 1-.144.192.387.387 0 0 1-.264.084h-.624a.387.387 0 0 1-.264-.084.716.716 0 0 1-.156-.192l-1.356-2.508v4.5c0 .088-.028.16-.084.216a.292.292 0 0 1-.216.084h-1.44Zm10.658 2.28a.244.244 0 0 1-.252-.252v-.072a.658.658 0 0 1 .036-.084l.936-2.256-2.304-5.448a.378.378 0 0 1-.036-.144.358.358 0 0 1 .096-.18.227.227 0 0 1 .18-.084h1.368c.104 0 .18.028.228.084a.322.322 0 0 1 .108.168l1.38 3.492 1.404-3.492a.64.64 0 0 1 .12-.168c.056-.056.136-.084.24-.084h1.344c.072 0 .132.028.18.084a.216.216 0 0 1 .084.168.47.47 0 0 1-.036.156l-3.396 7.86a.409.409 0 0 1-.12.168c-.056.056-.136.084-.24.084h-1.32Zm9.26-2.16c-.8 0-1.464-.112-1.992-.336-.528-.232-.928-.532-1.2-.9a2.084 2.084 0 0 1-.432-1.176.23.23 0 0 1 .072-.168.264.264 0 0 1 .192-.084h1.512c.112 0 .196.02.252.06a.62.62 0 0 1 .168.156c.064.12.152.236.264.348.12.112.272.204.456.276.192.064.428.096.708.096.464 0 .812-.072 1.044-.216.24-.144.36-.34.36-.588a.548.548 0 0 0-.192-.432c-.128-.12-.336-.224-.624-.312a9.384 9.384 0 0 0-1.128-.288 7.324 7.324 0 0 1-1.56-.492c-.424-.208-.748-.476-.972-.804-.224-.336-.336-.752-.336-1.248 0-.488.136-.924.408-1.308.28-.384.668-.684 1.164-.9.496-.216 1.084-.324 1.764-.324.552 0 1.036.072 1.452.216.424.144.78.336 1.068.576.288.24.504.496.648.768.152.264.232.524.24.78a.272.272 0 0 1-.072.18.244.244 0 0 1-.18.072H47.69a.504.504 0 0 1-.228-.048.442.442 0 0 1-.168-.156c-.048-.176-.176-.328-.384-.456-.2-.136-.464-.204-.792-.204-.352 0-.628.064-.828.192-.192.12-.288.308-.288.564 0 .16.052.3.156.42.112.12.292.224.54.312.256.088.604.18 1.044.276.728.136 1.316.308 1.764.516.448.2.776.464.984.792.208.32.312.724.312 1.212 0 .544-.156 1.016-.468 1.416-.304.392-.728.692-1.272.9-.544.208-1.168.312-1.872.312Zm10.165.66a.405.405 0 0 1-.3-.108 2.594 2.594 0 0 1-.156-.168l-.408-.54a3.372 3.372 0 0 1-1.068.156c-.736 0-1.376-.12-1.92-.36-.536-.24-.96-.6-1.272-1.08-.304-.488-.468-1.096-.492-1.824a44.387 44.387 0 0 1 0-2.076c.024-.72.192-1.324.504-1.812.312-.496.74-.868 1.284-1.116.544-.248 1.176-.372 1.896-.372.728 0 1.364.124 1.908.372.544.248.972.62 1.284 1.116.312.488.48 1.092.504 1.812a22.991 22.991 0 0 1 0 2.076c-.048.992-.336 1.76-.864 2.304l.876 1.248a.227.227 0 0 1 .036.12.193.193 0 0 1-.06.168.227.227 0 0 1-.18.084h-1.572Zm-1.932-2.388c.424 0 .768-.128 1.032-.384.272-.256.416-.664.432-1.224a20.454 20.454 0 0 0 0-1.968c-.008-.376-.076-.68-.204-.912a1.22 1.22 0 0 0-.516-.528 1.593 1.593 0 0 0-.744-.168c-.272 0-.516.056-.732.168a1.22 1.22 0 0 0-.516.528c-.128.232-.196.536-.204.912a40.877 40.877 0 0 0 0 1.968c.016.56.156.968.42 1.224.272.256.616.384 1.032.384Zm5.423 1.608a.292.292 0 0 1-.216-.084.292.292 0 0 1-.084-.216v-7.8c0-.088.028-.16.084-.216a.292.292 0 0 1 .216-.084h1.584c.08 0 .148.028.204.084a.274.274 0 0 1 .096.216v6.288h3.624c.088 0 .16.032.216.096a.274.274 0 0 1 .096.216v1.2c0 .088-.032.16-.096.216a.292.292 0 0 1-.216.084h-5.508Z" fill="#fff"/></g><defs><clipPath id="b"><path fill="#fff" transform="translate(25.5 18.814)" d="M0 0h40v39.373H0z"/></clipPath><filter id="a" x="0" y="0" width="91" height="101" filterUnits="userSpaceOnUse" color-interpolation-filters="sRGB"><feFlood flood-opacity="0" result="BackgroundImageFix"/><feColorMatrix in="SourceAlpha" values="0 0 0 0 0 0 0 0 0 0 0 0 0 0 0 0 0 0 127 0" result="hardAlpha"/><feOffset dy="2"/><feGaussianBlur stdDeviation="4"/><feColorMatrix values="0 0 0 0 0 0 0 0 0 0 0 0 0 0 0 0 0 0 0.75 0"/><feBlend in2="BackgroundImageFix" result="effect1_dropShadow_505_992"/><feBlend in="SourceGraphic" in2="effect1_dropShadow_505_992" result="shape"/></filter></defs></svg>