<svg width="91" height="101" fill="none" xmlns="http://www.w3.org/2000/svg"><g filter="url(#a)"><rect x="8" y="6" width="75" height="85" rx="5" fill="#212529"/><g clip-path="url(#b)"><path fill-rule="evenodd" clip-rule="evenodd" d="M46.868 21.926c-.262 0-.506.056-.73.131.477.319.74.74.871 1.218.01.066.028.113.037.178.01.057.02.113.02.17.037.824-.216.927-.395 1.414a2.002 2.002 0 0 0 .132 1.847c.028.065.065.14.112.206-.356-2.371 1.622-2.727 1.987-3.468.028-.647-.506-1.078-.928-1.378a2.072 2.072 0 0 0-1.106-.318Zm2.98.534c-.037.216-.009.16-.018.272-.01.075-.01.168-.019.243-.019.075-.037.15-.065.225-.02.075-.047.15-.075.225-.038.075-.066.141-.103.216-.029.037-.047.075-.075.112l-.057.085c-.047.065-.093.13-.14.187-.056.056-.103.122-.169.169v.01c-.056.046-.112.102-.178.15-.197.149-.422.262-.628.402-.066.047-.131.084-.187.14a1.374 1.374 0 0 0-.178.15c-.066.057-.113.113-.17.179-.046.056-.102.122-.14.187a2.402 2.402 0 0 0-.131.197c-.037.075-.066.14-.103.216-.028.075-.056.14-.075.215a3.061 3.061 0 0 0-.066.235c-.009.037-.009.084-.018.121-.01.038-.01.075-.02.113 0 .075-.008.16-.008.234 0 .056 0 .113.009.169 0 .075.01.15.028.234.01.075.028.15.047.225.028.075.047.15.075.225.019.047.047.094.065.131l-2.155-.834a23.345 23.345 0 0 0-1.087-.281l-.59-.14a17.39 17.39 0 0 0-1.706-.254c-.02 0-.029-.01-.047-.01a16.736 16.736 0 0 0-2.906-.037c-.571.038-1.143.113-1.715.207-.14.018-.281.046-.421.075-.291.056-.572.121-.844.187l-.422.112c-.14.057-.271.122-.403.178l-.309.141c-.019.01-.038.01-.047.019-.093.047-.178.084-.262.131-.028.01-.047.019-.066.028a4.128 4.128 0 0 0-.29.15c-.066.028-.132.066-.188.094a.802.802 0 0 1-.084.047c-.085.047-.169.093-.244.14-.084.047-.16.094-.225.14-.065.048-.131.085-.187.132-.01.01-.019.01-.028.019a2.137 2.137 0 0 0-.178.13l-.02.02-.14.112c-.018.01-.037.028-.056.038-.047.037-.094.084-.14.121-.01.02-.029.029-.038.038-.056.056-.113.103-.169.16-.01 0-.01.009-.019.018a2.68 2.68 0 0 0-.168.16c-.01.009-.01.018-.019.018a2.21 2.21 0 0 0-.14.15c-.02.019-.047.038-.066.056-.047.057-.103.113-.16.169-.009.019-.028.028-.037.047-.075.075-.14.15-.216.225l-.027.028c-.15.16-.31.319-.479.46a5.3 5.3 0 0 1-.524.411c-.182.128-.37.247-.563.357a5.675 5.675 0 0 1-.59.28c-.2.085-.403.16-.61.226-.393.084-.796.243-1.143.271-.075 0-.159.02-.234.029-.084.018-.16.037-.234.056l-.225.084c-.075.028-.15.066-.225.103-.066.047-.14.085-.206.131a1.509 1.509 0 0 0-.188.16c-.066.047-.131.112-.187.169-.057.065-.113.121-.16.187-.047.075-.103.14-.14.215a1.66 1.66 0 0 0-.131.216c-.038.084-.075.16-.104.244-.03.08-.057.162-.084.243-.019.075-.037.15-.047.225 0 .01-.01.02-.01.029-.018.084-.018.196-.027.252-.01.066-.019.122-.019.188 0 .037 0 .084.01.122.009.065.018.122.037.178.019.056.037.112.066.169v.009c.028.056.065.112.102.169.038.056.076.112.122.168.047.047.104.103.16.15.056.056.112.103.178.15.225.197.281.263.572.413.046.028.093.047.15.075.009 0 .018.009.028.009 0 .019 0 .028.009.047.01.075.028.15.047.225.018.077.043.152.075.225.028.056.047.112.075.169.01.018.019.037.028.046.038.075.075.14.113.206l.14.197c.047.057.103.122.16.178.056.057.112.103.177.16 0 0 .01.009.02.009a2 2 0 0 0 .168.131c.065.047.131.085.206.122.066.038.14.075.216.103.056.028.121.047.187.066.01.01.019.01.037.019.038.009.085.018.122.028-.028.506-.037.984.038 1.152.084.188.497-.384.909-1.04-.056.647-.094 1.406 0 1.63.103.235.665-.496 1.153-1.302 6.645-1.537 12.708 3.056 13.346 9.54-.122-1.011-1.369-1.574-1.94-1.433-.282.694-.76 1.584-1.528 2.137a6.007 6.007 0 0 0-.094-1.874 6.06 6.06 0 0 1-1.162 2.361c-.89.066-1.78-.365-2.25-1.012-.037-.028-.046-.084-.074-.122-.028-.066-.056-.131-.075-.197a.781.781 0 0 1-.056-.196c-.01-.066-.01-.132-.01-.207v-.14a1.49 1.49 0 0 1 .047-.197c.019-.066.038-.131.066-.197.037-.066.065-.131.112-.197.16-.45.16-.815-.131-1.03a1.065 1.065 0 0 0-.178-.094c-.038-.01-.085-.028-.122-.038-.028-.01-.047-.019-.075-.028a1.481 1.481 0 0 0-.197-.047.712.712 0 0 0-.197-.028 1.515 1.515 0 0 0-.206-.019c-.047 0-.094.01-.14.01-.075 0-.14.01-.207.028-.065.01-.13.019-.196.037-.066.02-.132.038-.197.066-.066.028-.122.056-.188.084-.056.028-.112.066-.178.094-2.183 1.425-.88 4.761.61 5.726-.563.103-1.135.225-1.294.347l-.019.019c.404.244.825.45 1.266.628.6.197 1.237.375 1.518.45v.01c.776.158 1.57.215 2.362.168 4.151-.29 7.553-3.45 8.172-7.61.019.084.038.159.056.243.029.169.066.347.085.525v.01c.018.084.028.168.037.243v.038c.01.084.02.168.02.243.008.103.018.206.018.31v.15c0 .047.01.103.01.15 0 .056-.01.112-.01.168v.131c0 .066-.01.122-.01.188 0 .037 0 .075-.01.122 0 .065-.008.13-.008.206-.01.028-.01.056-.01.084l-.028.216c0 .028 0 .056-.01.084-.009.094-.027.178-.037.272v.019c-.019.084-.037.178-.056.262v.028l-.056.253c0 .01-.01.028-.01.038-.019.084-.037.168-.065.253v.028c-.028.094-.057.178-.075.262-.01.01-.01.02-.01.02l-.084.28c-.038.094-.066.178-.103.272-.038.094-.066.188-.103.272l-.113.272h-.009c-.038.084-.075.178-.122.262-.01.028-.019.047-.028.066-.01.01-.01.019-.019.028a8.87 8.87 0 0 1-2.633 3.149 3.22 3.22 0 0 0-.225.16c-.02.018-.047.027-.066.046a4 4 0 0 1-.206.14l.028.057h.01l.393-.056h.01c.243-.038.487-.085.73-.132.066-.01.141-.028.207-.047.047-.009.084-.018.13-.028.066-.009.132-.028.198-.037.056-.019.112-.028.168-.047a17.775 17.775 0 0 0 2.718-.9 15.01 15.01 0 0 1-5.82 4.752 15.415 15.415 0 0 0 3.196-.553 14.973 14.973 0 0 0 8.857-7.076 14.96 14.96 0 0 1-2.521 6.026 14.76 14.76 0 0 0 2.502-2.08 14.856 14.856 0 0 0 3.946-7.967c.32 1.484.411 3.007.271 4.518 6.767-9.438.563-19.222-2.033-21.8-.01-.018-.02-.028-.02-.046-.008.009-.008.009-.008.018 0-.01 0-.01-.01-.019 0 .113-.01.225-.019.338-.028.215-.056.422-.093.628-.047.206-.103.412-.16.618a7.806 7.806 0 0 1-.224.6c-.087.194-.18.385-.282.572a7.174 7.174 0 0 1-.722 1.04c-.14.169-.29.319-.44.469a6 6 0 0 1-.272.234l-.215.188a5.213 5.213 0 0 1-.525.365 6.53 6.53 0 0 1-.553.319c-.197.093-.394.178-.59.262a6.58 6.58 0 0 1-.61.197 7.53 7.53 0 0 1-.628.14c-.215.038-.43.057-.637.076-.15.009-.3.018-.45.018-.215 0-.43-.018-.637-.037a4.732 4.732 0 0 1-.637-.094 4.788 4.788 0 0 1-.628-.16h-.01c.207-.018.413-.037.619-.074a6.81 6.81 0 0 0 1.237-.338c.206-.075.403-.168.59-.262.197-.094.375-.197.563-.31.178-.121.356-.243.525-.374.168-.13.327-.272.478-.422.159-.14.3-.3.44-.46.137-.163.268-.332.394-.505.019-.028.037-.066.056-.094a6.467 6.467 0 0 0 .778-1.621c.066-.197.112-.404.16-.61.037-.215.074-.421.093-.628.019-.215.037-.43.037-.637 0-.15-.009-.3-.018-.45-.019-.215-.047-.421-.075-.628a6.8 6.8 0 0 0-.14-.628c-.066-.196-.132-.403-.207-.6a6.459 6.459 0 0 0-.263-.58 10.476 10.476 0 0 0-.318-.553c-.12-.176-.245-.348-.375-.516a19.925 19.925 0 0 0-.431-.478 5.853 5.853 0 0 0-.244-.234c-.42-.326-.854-.633-1.303-.919a1.716 1.716 0 0 0-.187-.093c-.31-.197-.6-.3-.89-.394Z" fill="#E0234E"/></g><path d="M32.665 74.32a.292.292 0 0 1-.216-.084.292.292 0 0 1-.084-.216v-7.8c0-.088.028-.16.084-.216a.292.292 0 0 1 .216-.084h1.272c.136 0 .232.032.288.096.064.056.104.1.12.132l2.928 4.62V66.22c0-.088.028-.16.084-.216a.292.292 0 0 1 .216-.084h1.44c.088 0 .16.028.216.084a.292.292 0 0 1 .084.216v7.8a.32.32 0 0 1-.084.216.292.292 0 0 1-.216.084H37.73c-.128 0-.224-.032-.288-.096a1.618 1.618 0 0 1-.108-.132l-2.928-4.44v4.368c0 .088-.028.16-.084.216a.292.292 0 0 1-.216.084h-1.44Zm11.073.12c-.944 0-1.696-.256-2.256-.768-.56-.512-.852-1.272-.876-2.28v-.42c.024-.632.164-1.172.42-1.62a2.58 2.58 0 0 1 1.08-1.032c.464-.24 1.004-.36 1.62-.36.704 0 1.284.14 1.74.42.464.28.812.66 1.044 1.14.232.48.348 1.028.348 1.644v.288c0 .088-.032.16-.096.216a.278.278 0 0 1-.204.084h-3.84V71.836c.008.232.048.444.12.636a.977.977 0 0 0 .336.456.905.905 0 0 0 .552.168c.16 0 .292-.024.396-.072.112-.056.204-.116.276-.18a2.84 2.84 0 0 0 .168-.18.564.564 0 0 1 .168-.144.501.501 0 0 1 .216-.036h1.488a.26.26 0 0 1 .192.072c.056.04.08.1.072.18-.008.136-.076.3-.204.492a2.527 2.527 0 0 1-.564.576c-.24.184-.544.336-.912.456s-.796.18-1.284.18Zm-1.02-3.876h2.028v-.024c0-.256-.04-.48-.12-.672a.881.881 0 0 0-.348-.444.954.954 0 0 0-.552-.156c-.216 0-.4.052-.552.156a1.01 1.01 0 0 0-.336.444c-.08.192-.12.416-.12.672v.024Zm7.833 3.876c-.52 0-.964-.056-1.332-.168a3.28 3.28 0 0 1-.888-.432 2.028 2.028 0 0 1-.504-.516c-.112-.184-.172-.34-.18-.468a.242.242 0 0 1 .084-.216.287.287 0 0 1 .204-.096h1.368c.024 0 .044.004.06.012s.04.024.072.048c.104.056.208.128.312.216.104.08.224.152.36.216.136.064.3.096.492.096.224 0 .412-.044.564-.132a.43.43 0 0 0 .228-.396.449.449 0 0 0-.108-.312c-.072-.088-.22-.172-.444-.252-.216-.08-.544-.16-.984-.24a5.128 5.128 0 0 1-1.092-.372 1.884 1.884 0 0 1-.72-.612c-.168-.256-.252-.564-.252-.924 0-.32.104-.628.312-.924.208-.296.512-.536.912-.72.4-.192.892-.288 1.476-.288.464 0 .864.056 1.2.168.344.104.632.24.864.408.24.168.42.34.54.516.12.176.184.336.192.48a.275.275 0 0 1-.072.216.264.264 0 0 1-.192.084h-1.248a.395.395 0 0 1-.096-.012.785.785 0 0 1-.084-.048 1.503 1.503 0 0 1-.288-.192 1.733 1.733 0 0 0-.336-.216 1.069 1.069 0 0 0-.48-.096c-.216 0-.384.048-.504.144a.48.48 0 0 0-.084.66c.072.088.212.168.42.24.216.072.548.152.996.24.552.088.992.232 1.32.432.328.192.56.42.696.684.136.256.204.528.204.816 0 .384-.116.724-.348 1.02-.224.296-.56.528-1.008.696-.448.16-.992.24-1.632.24Zm7.222-.12c-.512 0-.956-.08-1.332-.24a1.849 1.849 0 0 1-.852-.768c-.2-.352-.3-.804-.3-1.356v-2.304h-.936a.335.335 0 0 1-.228-.084.292.292 0 0 1-.084-.216v-.972c0-.088.028-.16.084-.216a.335.335 0 0 1 .228-.084h.936V66.1c0-.088.028-.16.084-.216a.32.32 0 0 1 .216-.084h1.392c.088 0 .16.028.216.084a.292.292 0 0 1 .084.216v1.98h1.5c.088 0 .16.028.216.084a.292.292 0 0 1 .084.216v.972c0 .088-.028.16-.084.216a.292.292 0 0 1-.216.084h-1.5v2.136c0 .272.052.488.156.648.104.16.28.24.528.24h.924c.088 0 .16.028.216.084a.292.292 0 0 1 .084.216v1.044c0 .088-.028.16-.084.216a.292.292 0 0 1-.216.084h-1.116Z" fill="#fff"/></g><defs><clipPath id="b"><path fill="#fff" transform="translate(25.5 20.68)" d="M0 0h40v38.64H0z"/></clipPath><filter id="a" x="0" y="0" width="91" height="101" filterUnits="userSpaceOnUse" color-interpolation-filters="sRGB"><feFlood flood-opacity="0" result="BackgroundImageFix"/><feColorMatrix in="SourceAlpha" values="0 0 0 0 0 0 0 0 0 0 0 0 0 0 0 0 0 0 127 0" result="hardAlpha"/><feOffset dy="2"/><feGaussianBlur stdDeviation="4"/><feColorMatrix values="0 0 0 0 0 0 0 0 0 0 0 0 0 0 0 0 0 0 0.75 0"/><feBlend in2="BackgroundImageFix" result="effect1_dropShadow_505_598"/><feBlend in="SourceGraphic" in2="effect1_dropShadow_505_598" result="shape"/></filter></defs></svg>