<svg width="91" height="101" fill="none" xmlns="http://www.w3.org/2000/svg"><g filter="url(#a)"><rect x="8" y="6" width="75" height="85" rx="5" fill="#212529"/><g clip-path="url(#b)"><path d="M64.839 33.128h-8.665v-8.664h8.665v8.664ZM55.306 33.128h-8.664v-8.664h8.664v8.664ZM45.775 33.128h-8.664v-8.664h8.664v8.664ZM64.839 42.659h-8.665v-8.664h8.665v8.664Z" fill="#F9AD00"/><path d="M55.306 42.659h-8.664v-8.664h8.664v8.664ZM55.306 52.19h-8.664v-8.665h8.664v8.665ZM64.839 52.19h-8.665v-8.665h8.665v8.665ZM45.775 52.19h-8.664v-8.665h8.664v8.665ZM29.65 36.994c.24 0 .462.032.666.096.208.06.386.154.534.282.148.128.264.29.348.486.084.192.126.422.126.69 0 .256-.036.48-.108.672a1.343 1.343 0 0 1-.306.486 1.263 1.263 0 0 1-.48.288c-.184.064-.39.096-.618.096-.172 0-.332-.026-.48-.078v.996c-.04.012-.104.024-.192.036a1.506 1.506 0 0 1-.51.006.401.401 0 0 1-.174-.072.324.324 0 0 1-.108-.15.66.66 0 0 1-.036-.24v-2.88c0-.108.022-.196.066-.264a.776.776 0 0 1 .192-.186 1.59 1.59 0 0 1 .462-.192 2.45 2.45 0 0 1 .618-.072Zm.012 2.292c.412 0 .618-.246.618-.738 0-.256-.052-.446-.156-.57-.1-.124-.246-.186-.438-.186a.644.644 0 0 0-.204.03.705.705 0 0 0-.156.06v1.32c.048.024.1.044.156.06a.653.653 0 0 0 .18.024Zm4.008-1.134c0-.124-.036-.214-.108-.27a.412.412 0 0 0-.282-.09c-.08 0-.16.01-.24.03a.6.6 0 0 0-.198.09v2.082a1.866 1.866 0 0 1-.696.036.373.373 0 0 1-.288-.216.71.71 0 0 1-.036-.246v-1.8c0-.108.022-.196.066-.264a.776.776 0 0 1 .192-.186c.136-.096.306-.174.51-.234.208-.06.438-.09.69-.09.452 0 .8.1 1.044.3.244.196.366.47.366.822v1.878a1.866 1.866 0 0 1-.696.036.373.373 0 0 1-.288-.216.71.71 0 0 1-.036-.246v-1.416Zm2.988-1.158c.24 0 .462.032.666.096.208.06.386.154.534.282.148.128.264.29.348.486.084.192.126.422.126.69 0 .256-.036.48-.108.672a1.343 1.343 0 0 1-.306.486 1.263 1.263 0 0 1-.48.288c-.184.064-.39.096-.618.096-.172 0-.332-.026-.48-.078v.996c-.04.012-.104.024-.192.036a1.506 1.506 0 0 1-.51.006.401.401 0 0 1-.174-.072.324.324 0 0 1-.108-.15.66.66 0 0 1-.036-.24v-2.88c0-.108.022-.196.066-.264a.776.776 0 0 1 .192-.186 1.59 1.59 0 0 1 .462-.192 2.45 2.45 0 0 1 .618-.072Zm.012 2.292c.412 0 .618-.246.618-.738 0-.256-.052-.446-.156-.57-.1-.124-.246-.186-.438-.186a.644.644 0 0 0-.204.03.705.705 0 0 0-.156.06v1.32c.048.024.1.044.156.06a.653.653 0 0 0 .18.024Zm3.558-2.292c.164 0 .324.024.48.072.16.044.298.112.414.204.12-.08.254-.146.402-.198.152-.052.334-.078.546-.078.152 0 .3.02.444.06.148.04.278.104.39.192a.871.871 0 0 1 .276.342c.068.14.102.312.102.516v1.89a1.866 1.866 0 0 1-.696.036.373.373 0 0 1-.288-.216.71.71 0 0 1-.036-.246v-1.434c0-.12-.034-.206-.102-.258a.421.421 0 0 0-.276-.084.45.45 0 0 0-.18.042.473.473 0 0 0-.144.078.197.197 0 0 1 .006.048v2.034c-.044.012-.11.024-.198.036a1.822 1.822 0 0 1-.498 0 .373.373 0 0 1-.288-.216.71.71 0 0 1-.036-.246v-1.434c0-.12-.038-.206-.114-.258a.417.417 0 0 0-.264-.084.44.44 0 0 0-.186.036c-.052.02-.096.04-.132.06v2.106a1.866 1.866 0 0 1-.696.036.373.373 0 0 1-.288-.216.71.71 0 0 1-.036-.246v-1.812c0-.108.022-.194.066-.258a.836.836 0 0 1 .192-.18c.136-.096.304-.174.504-.234.204-.06.416-.09.636-.09Z" fill="#898989"/></g><path d="M29.46 68.71a.292.292 0 0 1-.216-.084.292.292 0 0 1-.084-.217v-7.8c0-.087.028-.16.084-.215a.292.292 0 0 1 .216-.084h3.36c.664 0 1.24.103 1.728.311.496.2.88.505 1.152.912.28.408.42.925.42 1.548 0 .616-.14 1.124-.42 1.525-.272.4-.656.696-1.152.888-.488.192-1.064.287-1.728.287h-1.428v2.628c0 .088-.032.16-.096.216a.292.292 0 0 1-.216.085h-1.62Zm1.896-4.584h1.404c.344 0 .616-.089.816-.265.208-.175.312-.444.312-.803 0-.304-.088-.56-.264-.769-.176-.208-.464-.312-.864-.312h-1.404v2.149Zm6.082 4.584a.292.292 0 0 1-.216-.084.292.292 0 0 1-.084-.217v-5.64c0-.087.028-.16.084-.215a.292.292 0 0 1 .216-.085h1.38c.088 0 .16.029.216.084a.292.292 0 0 1 .084.217v.455c.208-.248.48-.456.816-.623.336-.168.732-.252 1.188-.252.464 0 .872.103 1.224.311.36.209.64.517.84.925.208.4.312.892.312 1.475v3.348c0 .088-.032.16-.096.216a.278.278 0 0 1-.204.085h-1.512a.32.32 0 0 1-.216-.084.292.292 0 0 1-.084-.217v-3.276c0-.376-.092-.663-.276-.864-.176-.208-.44-.312-.792-.312-.328 0-.592.104-.792.312-.192.2-.288.488-.288.864v3.276c0 .088-.032.16-.096.216a.278.278 0 0 1-.204.085h-1.5Zm7.699 2.28a.292.292 0 0 1-.216-.084.292.292 0 0 1-.084-.217v-7.92c0-.087.028-.16.084-.215a.292.292 0 0 1 .216-.085h1.356c.08 0 .148.029.204.084a.274.274 0 0 1 .096.217v.444c.184-.248.428-.453.732-.612.304-.168.68-.252 1.128-.252.4 0 .752.063 1.056.191.304.12.564.3.78.54.216.24.384.532.504.877.128.344.2.74.216 1.188a8.935 8.935 0 0 1 0 .888c-.016.431-.084.82-.204 1.163-.12.344-.288.636-.504.876a2.27 2.27 0 0 1-.792.565 2.704 2.704 0 0 1-1.056.191 2.45 2.45 0 0 1-1.032-.203 2.013 2.013 0 0 1-.72-.6v2.663c0 .089-.028.16-.084.217a.292.292 0 0 1-.216.084h-1.464Zm2.868-3.768c.272 0 .484-.056.636-.168a.905.905 0 0 0 .324-.457c.072-.191.116-.403.132-.635a5.772 5.772 0 0 0 0-.745 2.243 2.243 0 0 0-.132-.635.905.905 0 0 0-.324-.456c-.152-.113-.364-.169-.636-.169-.264 0-.476.06-.636.18a.954.954 0 0 0-.348.445 1.82 1.82 0 0 0-.12.6 8.451 8.451 0 0 0 0 .9c.008.2.052.388.132.564.08.168.2.308.36.42.16.103.364.156.612.156Zm4.702 1.488a.292.292 0 0 1-.216-.084.292.292 0 0 1-.084-.217v-5.64c0-.087.028-.16.084-.215a.292.292 0 0 1 .216-.085h1.308c.088 0 .16.029.216.084a.292.292 0 0 1 .084.217v.407c.16-.215.384-.404.672-.563a2.075 2.075 0 0 1 1.02-.264c.92-.017 1.552.331 1.896 1.044.184-.304.448-.552.792-.744.344-.2.72-.3 1.128-.3.416 0 .788.096 1.116.288.336.184.604.471.804.864.2.383.3.883.3 1.5v3.407c0 .088-.032.16-.096.216a.278.278 0 0 1-.204.085h-1.392a.335.335 0 0 1-.228-.084.292.292 0 0 1-.084-.217v-3.324c0-.28-.04-.5-.12-.66a.757.757 0 0 0-.324-.36.985.985 0 0 0-.9 0 .82.82 0 0 0-.336.36c-.08.16-.12.38-.12.66v3.325c0 .088-.028.16-.084.216a.292.292 0 0 1-.216.084h-1.392a.292.292 0 0 1-.216-.084.292.292 0 0 1-.084-.217v-3.324c0-.28-.044-.5-.132-.66a.82.82 0 0 0-.336-.36.96.96 0 0 0-.888 0 .82.82 0 0 0-.336.36c-.08.16-.12.377-.12.648v3.337c0 .088-.032.16-.096.216a.292.292 0 0 1-.216.084h-1.416Z" fill="#fff"/></g><defs><clipPath id="b"><path fill="#fff" transform="translate(25.5 24.29)" d="M0 0h40v28.419H0z"/></clipPath><filter id="a" x="0" y="0" width="91" height="101" filterUnits="userSpaceOnUse" color-interpolation-filters="sRGB"><feFlood flood-opacity="0" result="BackgroundImageFix"/><feColorMatrix in="SourceAlpha" values="0 0 0 0 0 0 0 0 0 0 0 0 0 0 0 0 0 0 127 0" result="hardAlpha"/><feOffset dy="2"/><feGaussianBlur stdDeviation="4"/><feColorMatrix values="0 0 0 0 0 0 0 0 0 0 0 0 0 0 0 0 0 0 0.75 0"/><feBlend in2="BackgroundImageFix" result="effect1_dropShadow_505_324"/><feBlend in="SourceGraphic" in2="effect1_dropShadow_505_324" result="shape"/></filter></defs></svg>