<svg width="91" height="101" fill="none" xmlns="http://www.w3.org/2000/svg"><g filter="url(#a)"><rect x="8" y="6" width="75" height="85" rx="5" fill="#212529"/><g clip-path="url(#b)" fill-rule="evenodd" clip-rule="evenodd"><path d="M33.321 34.271c.054.04.147.067.054.147-.067.093-.147.173-.2.28-.053.094-.093.12-.173.054.106-.174.213-.334.319-.481Zm26.783 13.984c0 .039.013.065.013.106.027-.053.027-.08.04-.106h-.053Zm0 .119v-.013.013Zm-2.718 5.204-2.32-12.862c-.039-.013-.092-.04-.186-.066.027.053.04.093.054.133.066-.013.093-.013.12-.026 0-.013 0-.026.013-.04l2.32 12.862-.001-.001ZM54.987 37.82c-.013.04-.013.08-.013.12 0-.04 0-.081.014-.12Zm.013.266c-.013 0-.013 0-.026-.014v.013c.014.013.014.013.027 0v.001Zm-.026.106V38.1c-.039.013-.079.013-.133.026.067.026.134.04.134.066v.001Z" fill="#DD3735"/><path d="M65.353 34.952c-.026-.52-.04-1.041-.093-1.561-.093-.708-.186-1.428-.346-2.122-.12-.573-.32-1.12-.52-1.668-.253-.64-.506-1.294-.826-1.907-.52-.988-1.199-1.869-1.825-2.79-.415-.587-.947-1.067-1.347-1.667-.227-.347-.56-.64-.893-.906a23.113 23.113 0 0 0-1.652-1.189 16.504 16.504 0 0 0-1.306-.827c-.36-.201-.746-.361-1.12-.535-.426-.2-.839-.44-1.318-.534-.12-.025-.227-.065-.347-.106-.306-.106-.6-.226-.907-.32-.465-.147-.919-.32-1.398-.44-.465-.12-.945-.2-1.425-.267-.533-.079-1.079-.107-1.612-.159-.347-.04-.693-.08-1.026-.093-.507-.026-1.026-.026-1.532-.04-.254-.013-.52-.04-.773-.026-.386.013-.773.053-1.16.106-.372.04-.745.106-1.105.16-.439.054-.878.08-1.318.134-.413.054-.84.134-1.252.2-.147.028-.294.08-.441.107-.319.067-.652.094-.972.2-.572.175-1.146.375-1.706.588-.52.214-1.026.44-1.519.707-.506.28-.986.613-1.465.934-.454.307-.907.627-1.347.974-.425.334-.825.707-1.212 1.08-.213.213-.387.468-.587.707-.332.388-.665.761-.985 1.162-.266.334-.507.68-.76 1.027a16.99 16.99 0 0 0-1.198 1.921c-.147.267-.28.534-.413.8-.2.4-.413.788-.6 1.201-.133.28-.24.588-.32.895-.185.654-.372 1.321-.545 1.974-.16.588-.2 1.201-.213 1.802-.014.533.04 1.054.093 1.588.013.133-.066.293.093.4-.053.146-.013.227.066.253-.093.147.04.24-.012.374-.014.027.04.08.065.12 0 .04-.012.094 0 .134.014.12.068.24.068.373 0 .093.08.2.106.294.013.04 0 .106-.027.133-.08.093-.067.173.053.227.068.173.04.253.028.334.026.12-.014.16 0 .187.106.213.146.453.16.693 0 .054.026.107.053.174.013 0 0 .253 0 .253.066-.04.12-.053.186-.08.04.174.08.335.133.482.067.106.067.159.04.172.054.24.08.466.173.693 0-.253-.025-.506-.066-.746.186.066.346.133.453.133.014-.04.027-.093.04-.12-.08-.08-.146-.2-.226-.28.027.106 0 .147 0 .188-.053-.028-.12-.055-.186-.082.053-.065.106-.133.186-.212 0-.12-.066-.228-.253-.214.08-.027.16-.066.253-.093.147-.08-.013-.227-.013-.414.013-.226-.12-.453-.16-.693-.067-.373-.053-.934-.093-1.308-.08-.066-.147.107-.16.12.04.32.08.64.106.96-.08-.266-.133-.56-.2-.88-.013.093-.026.133-.026.187-.066.066-.014.147.026.24-.093-.04-.2-.026-.2-.026v.373c-.132-.133-.172-.24-.239-.334-.026-.106-.04-.212-.066-.319.026-.067 0-.107 0-.147a8.308 8.308 0 0 1-.04-.32c.013-.014-.014-.213-.014-.213.107.012.174.025.24.025-.133-.172-.04-.28.014-.386.027-.054.12-.066.147-.12.106-.2.28-.36.28-.614 0-.12.04-.253.053-.374.027-.227.053-.454.066-.68.027-.294 0-.588.067-.868.108-.466.24-.933.387-1.4.107-.335.227-.654.36-.988.2-.52.386-1.04.64-1.534.36-.72.772-1.415 1.172-2.121.253-.44.52-.855.8-1.281.266-.414.532-.84.84-1.228.426-.547.893-1.055 1.412-1.508.533-.48 1.04-.974 1.612-1.414a16.196 16.196 0 0 1 2.37-1.522c.68-.36 1.387-.641 2.093-.908.453-.173.946-.253 1.413-.4a5.605 5.605 0 0 1 1.625-.267c.36-.014.706-.054 1.066-.094.32-.025.64-.052.986-.092-.04.053-.054.08-.067.106-.146.214-.306.427-.453.64-.12.174-.253.361-.373.534-.213.281-.44.561-.64.855-.306.44-.586.894-.906 1.334-.319.427-.666.827-.999 1.24-.44.575-.853 1.161-1.292 1.735-.4.547-.825 1.069-1.212 1.615-.347.48-.653.988-.987 1.48-.492.735-.985 1.455-1.478 2.189-.387.56-.773 1.107-1.173 1.668-.027.04-.067.052-.106.08-.106.172-.106.266-.147.346-.106.2-.213.4-.333.587-.067.107-.16.2-.24.307-.013-.16.213-.24.106-.44-.066.106-.133.2-.2.306l-.16.32c.054.04.148.067.054.146-.04.068-.08.147-.12.214a.483.483 0 0 0 .147-.133c0 .147-.08.266-.147.386-.053.106-.186.187-.28.267.014.014.107.054.12.067.12-.04.16-.107.174-.067.04-.053.08-.093.093-.133a.482.482 0 0 1 .266-.294c.054-.027.093-.067.133-.106.4-.414.813-.814 1.173-1.255.56-.68 1.066-1.387 1.6-2.08.226-.295.493-.588.732-.869.04.307.013.6 0 .881-.04.493-.067.988-.106 1.494-.014.2 0 .4-.014.6 0 .054-.04.094-.04.147 0 .133.04.28.04.414-.04.494-.094.974-.134 1.467-.014.107.04.214.066.308-.066.72.08 1.48-.04 2.241.093-.147.12-.24.12-.333.013-.08 0-.16 0-.253v-.134c.013-.24.066-.494.04-.734a2.483 2.483 0 0 1 .027-.774c.026-.106-.014-.24.053-.373v.2c-.013.76.014 1.52-.092 2.28-.014.067.04.188-.107.174-.12.24.027.414-.106.547-.027.027.025.147.039.227-.054.16-.054.16.026.174.013.293.04.56.053.84.213-.506.107-1.028.2-1.548.014.213.028.427.014.653 0 .348-.013.681-.026 1.028 0 .067-.014.133-.027.2-.04.188-.053.374-.12.547-.053.134-.026.334-.026.494v.508c.053.226-.014.346.026.48-.04.134-.053.174-.04.214l.04.2c.267-.027.147.173.253.28-.08.107-.053.147-.053.2 0 .12-.013.228-.026.348 0 .307-.014.613-.014.907 0 .04.014.08.014.12 0 .027-.014.374-.014.374.027.04 0 .08-.04.12-.013 0-.053-1.695-.053-1.695h-.2c-.026.8.04 1.52-.106 2.268-.16.013-.213.04-.387.04-.413 0-.826 0-1.24.013-.493 0-.972.013-1.465.013-.24 0-.492.027-.732.027-.32 0-.654-.04-.973-.04-.493 0-.973.04-1.466.054-.36.013-.719.013-1.078.027-.24.012-.481.025-.72.052-.107.013-.2.053-.334.093-.04 0-.133-.013-.212 0-.134.027-.253.107-.387.134-.2.04-.254.093-.227.294v.133c-.014.026.293-.04.293-.04-.027 0-.04.08-.08.146.107-.04.173-.067.24-.093.2.094.373.04.533.081.519.133 1.052.187 1.584.24.347.026.68.04 1.027.053.492.026.985.053 1.478.053.413 0 .813-.04 1.225-.04.573 0 1.147.026 1.72.04.12 0 .253-.014.386-.014h.972c.867-.026 1.732-.04 2.599-.066.493-.014 1-.04 1.492-.054l1.52-.04c.586-.014 1.172-.014 1.745-.026.44 0 .866-.015 1.307-.028.492-.013.998-.053 1.491-.079.267-.014.534-.04.8-.067.32-.026.654-.066.973-.08.48-.027.973-.04 1.453-.067.6-.04 1.199-.092 1.811-.106.56-.026 1.133-.013 1.693-.026.493-.014.986-.04 1.493-.054l.84-.04s.56-.014.84-.041c.479-.026.958-.08 1.438-.093.306-.013.613 0 .92-.013.492-.014.998-.04 1.491-.04.186 0 .386.026.626.04-.106.093-.173.146-.253.213.053.014.106.04.16.067a.36.36 0 0 1-.213.066c-.027.067-.054.094-.08.228h.24c-.094 0-.174.12-.267.2-.107-.028-.2 0-.253.147.093.052.08.092.066.147-.16.052-.28.106-.212.279-.054.026-.12.053-.188.093-.065.107-.186.133-.16.28.054.013.107.04.147.053-.067.027-.133.067-.2.093-.24.147-.132.214-.08.28-.04.027-.08.054-.12.067.027.12.067.147.08.147-.053.04-.12.093-.2.16-.04.12-.093.173-.146.253-.054.08-.08.188-.147.267-.28.307-.48.669-.84.908-.133.094-.253.214-.373.334-.24.227-.453.48-.706.694-.332.28-.678.533-1.039.787-.439.306-.878.613-1.318.907-.24.16-.507.28-.76.426-.253.147-.493.28-.746.427-.16.107-.307.253-.48.334-.44.188-.906.347-1.36.52-.44.188-.759.348-1.092.468a7.503 7.503 0 0 1-.946.253c-.106.027-.226 0-.346.014-.227.04-.453.094-.68.12-.587.08-1.173.134-1.759.214-.347.04-.68.106-1.026.147-.24.013-.493-.014-.733-.014-.173 0-.36.04-.533.014-.28-.04-.56-.106-.84-.16-.065-.013-.16-.04-.212-.013-.106.054-.2-.026-.307 0-.066.014-.133-.04-.2-.04-.054-.013-.12.014-.187 0-.147-.04-.28-.093-.44-.08-.16.013-.32-.067-.492-.106-.24-.054-.466-.107-.707-.16a1.2 1.2 0 0 1-.266-.12c-.346 0-.573-.014-.787-.095-.186-.065-.359-.16-.559-.132-.053.013-.093-.013-.147-.013-.04-.054-.08-.16-.119-.16-.266.013-.426-.214-.653-.28-.12-.041-.213-.175-.333-.215-.293-.12-.532-.373-.865-.413-.107-.013-.213-.067-.334-.106.04.053.066.093.107.133-.387-.188-.746-.4-1.106-.6-.053-.014-.093-.067-.133-.094l-.36-.24c-.2.04-.28-.04-.333-.067-.36-.253-.773-.414-1.12-.694-.146-.12-.318-.2-.425-.347a2.105 2.105 0 0 0-.667-.52c-.2-.106-.385-.227-.572-.347-.093-.067-.187-.147-.187-.293 0-.094-.04-.188-.16-.134-.053-.08-.106-.173-.173-.2-.16-.066-.266-.187-.386-.294-.12-.106-.213-.253-.36-.306-.266-.106-.426-.333-.586-.52-.373-.44-.707-.922-1.053-1.387-.027-.041-.08-.068-.12-.108.053.147.12.267.186.4a.798.798 0 0 1-.305-.24c-.014.014.918 1.548.918 1.548.082.12.147.24.227.36a.412.412 0 0 1-.4-.213c-.12-.213-.253-.346-.52-.32a2.318 2.318 0 0 1-.065-.293c-.054 0-.094 0-.187-.013.187.293.347.546.52.84-.068-.04-.107-.067-.134-.08.239.253.412.574.718.734.067.307.414.453.494.747-.066-.014-.12-.027-.188-.04-.106-.134-.226-.267-.346-.414a.67.67 0 0 0 .12.24c.16.2.307.4.493.574.067.068.16.095.16.215.106.053.147.066.186.066.028.08-.012.2.147.174.107.2.213.2.36.133.173.174.267.188.387.081 0 .066.013.133.013.187.053-.027.04-.067.04-.134.066.053.107.08.133.106.133.188.253.36.44.508.253.213.48.44.718.64.467.388.988.708 1.507 1.001.64.36 1.253.748 1.906 1.094.785.414 1.625.695 2.49.895.32.066.627.133.948.212.278.081.559.201.839.268.426.093.865.173 1.292.253.092.013.187.027.293.04.12.027.266-.027.293.014.066.106.12.053.2.04.093-.027.2-.027.306-.027.373.013.733.093 1.106.066.08 0 .2-.067.267.066.12-.053.186-.053.24-.066.014.12 0 .12-.026.133-.027.013-.067.027-.12.067.48.093.932.106 1.331 0a4.477 4.477 0 0 0 1.867-.227c.053.067.093.16.173.027.026-.04.093-.054.147-.067.12-.027.266-.08.372-.04.12.04.16-.067.253-.067.161 0 .307-.013.454-.04.08-.013.16-.053.253-.08a.645.645 0 0 0-.293-.068c.16-.08.306-.146.453-.212-.026.04-.053.093-.106.093h.186c-.04 0-.094.12-.16.2.479-.12.918-.227 1.345-.335-.147-.28.16-.185.266-.346-.133.04-.266.08-.4.106.454-.226.92-.426 1.373-.626-.066.08-.147.12-.266.187.08.013.133.013.173.026.213.067.16-.133.226-.254.253 0 .36-.039.48-.08.133-.04.266-.08.4-.133.212-.093.412-.212.626-.319.04-.014.106 0 .16 0 .146-.094.2-.174.24-.16.186.026.318-.041.372-.213.093-.068.16-.12.226-.161.293-.16.572-.32.866-.48.106 0 .16 0 .186-.014.174-.081.334-.173.494-.267-.04-.013-.133-.066-.133-.066.132-.027.172-.04.253-.067.319-.375.76-.628 1.092-.922.147-.013.147-.053.147-.08.053-.066.106-.146.172-.2.294-.266.613-.493.88-.773.386-.388.759-.789 1.105-1.202.32-.374.64-.747.907-1.16.373-.574.692-1.162 1.026-1.763.24-.426.453-.853.693-1.28.026-.04.08-.093.12-.093.36-.041.72-.066 1.066-.107.08-.013.173-.066.253-.106-.04-.067-.067-.147-.106-.214-.054-.08-.134-.147-.188-.228-.052-.066-.092-.147-.132-.226-.04-.066-.08-.12-.12-.187a4.846 4.846 0 0 1-.228-.453c-.013-.04-.04-.106-.026-.147.24-.52.333-1.08.56-1.6.225-.535.293-1.135.4-1.709.092-.547.146-1.093.212-1.64.04-.387.094-.76.106-1.148.081-.613.054-1.187.04-1.762-.013-.506-.04-1.026-.065-1.534l-.002-.001Zm-33.43 16.424c-.093-.106-.173-.227-.266-.333l.04-.04c.145.16.292.32.439.494-.08-.04-.174-.067-.213-.12Zm.213.12c.04-.013.08-.013.12-.026.04.067.067.147.106.227-.186-.014-.28-.094-.226-.2Zm13.858 5.51v-.04c.253-.026.492-.053.746-.08v.04c-.254.04-.493.066-.746.08Zm3.357-.346c-.186.04-.386.067-.572.094-.067.013-.147.08-.174-.04-.026.013-.053.013-.08.027.066.2.227.04.36.12-.294.04-.572.066-.853.106v-.026c.081-.014.174-.027.253-.04v-.04a3.891 3.891 0 0 0-.4-.027c-.039 0-.092.053-.132.067-.053.013-.107.026-.173.026-.227.014-.453.014-.667.027-.013 0-.04-.013-.053-.013v-.04l2.664-.36c.014.026.014.053.027.08-.08 0-.133.027-.2.04Zm.2-.133c.307-.04.588-.066.88-.106-.612.173-.812.2-.88.106ZM37.946 29.588c.425-.587.866-1.175 1.292-1.774.133-.175.24-.362.373-.535.04-.054.093-.08.16-.134l-.014-.025c.053-.068.107-.122.134-.174.067-.107.107-.227.16-.347a.195.195 0 0 1 .054-.052c.187.093.187-.107.253-.174.12-.134.24-.28.346-.414.08-.106.16-.2.227-.32.013-.04-.027-.106-.04-.16h-.04c.04-.026.08-.066.12-.093.013 0 .013 0 .026-.014.08-.12.16-.24.24-.347.16-.212.333-.426.52-.612-.027.065-.054.133-.08.186.013 0 .013.014.026.014.16-.214.333-.414.493-.628-.013-.013-.026-.027-.04-.027-.066.067-.12.134-.187.2-.013-.013-.026-.026-.04-.026.134-.174.267-.347.4-.547.027.04.054.093.106.2.054-.133.108-.226.147-.32-.04.04-.093.08-.133.12l-.04-.04.24-.36c.253-.36.506-.733.76-1.094.093-.133.212-.24.293-.374.253-.506.653-.907.96-1.374.066-.093.16-.173.24-.253.065-.081.12-.054.172.013.36.454.72.92 1.079 1.374.267.334.533.654.787 1 .306.428.6.855.906 1.282.346.494.693.987 1.026 1.494.506.747.986 1.495 1.492 2.241.373.547.746 1.082 1.106 1.628h-.68c-.627-.012-1.267-.065-1.892-.04-.853.041-1.719.135-2.572.201-1.08.094-2.172.107-3.25.107-.388 0-.774.054-1.16.08-.466.027-.92.054-1.386.067-.547.027-1.078.04-1.625.054-.307.013-.627 0-.96 0v-.003Zm15.282 6.137v.12c-.013 0-.026.014-.053.014-.053-.187-.106-.388-.173-.575-.133-.387-.28-.774-.52-1.12-.267-.374-.506-.76-.774-1.147-.066-.094-.16-.174-.24-.254-.28-.307-.56-.627-.92-.854a10.874 10.874 0 0 0-1.665-.854 3.726 3.726 0 0 1-.466-.24h.32l2.277-.041c.494-.013.974-.013 1.466-.04.12 0 .187.041.254.147.119.2.239.4.372.6.014.027.04.067.04.107 0 .294 0 .6.014.894.013.307.04.6.053.908 0 .307-.027.627-.014.947.014.454.027.921.027 1.387h.002Zm-14.337-4.468c.626-.027 1.225-.067 1.839-.094.479-.026.972-.04 1.451-.066.2-.013.387-.026.587 0-.213.107-.427.214-.613.347-.24.16-.466.373-.706.547a4 4 0 0 0-.654.613c-.253.307-.533.574-.8.867-.187.214-.4.414-.56.64-.226.294-.425.613-.639.948.067-1.268.147-2.522.093-3.803l.002.001Zm8.701 12.835c-.427.107-.866.227-1.306.28-.373.054-.76.041-1.146.041-.347 0-.68-.013-1.027-.04-.386-.04-.772-.08-1.145-.254-.321-.147-.654-.28-.973-.44-.32-.16-.64-.346-.88-.64-.173-.214-.413-.388-.627-.574a.63.63 0 0 0 .28.386c-.066.08-.16.041-.293-.173-.04.027-.08.04-.107.053.041-.093.08-.187.12-.266-.053-.107-.12-.227-.173-.335-.106-.173-.212-.359-.306-.533-.027-.04-.027-.08-.053-.12a2.975 2.975 0 0 1-.188-.24c-.106-.16-.199-.333-.332-.493 0 .04.014.08.014.133-.014 0-.027.014-.027.014l-.28-.681c-.014 0-.014 0-.027.013l.24.881c-.014 0-.027.013-.041.013-.04-.053-.08-.106-.106-.172-.027-.108-.107-.108-.173-.068-.04.027-.067.12-.053.16.093.227.2.454.306.68.027.08.054.148.094.228.013.026.053.053.053.093.054.106.094.213.16.307.12.16.254.32.373.48.12.16.226.334.333.493.013.027.053.027.066.04.067.2.293.347.453.267.04.307.373.414.507.708-.16-.067-.28-.12-.387-.174-.014.013-.014.026-.027.053.16.08.32.16.466.253.134.081.267.16.387.253.16.147.347.228.572.28-.012-.04-.025-.053-.025-.053.372.173.76.36 1.052.506a2011.5 2011.5 0 0 1-4.398.081c0-.253-.013-.494-.013-.747 0-.107.027-.2.013-.307-.04-.613-.04-1.227-.12-1.828-.08-.64-.08-1.267-.066-1.909.013-.346-.013-.706-.027-1.053 0-.467 0-.922.014-1.387 0-.067.027-.12.054-.188h.04c.013.028 0 .068.026.081.04.04.107.107.134.093.08-.053.2-.106.226-.187.066-.16.093-.333.093-.493 0-.12.054-.2.107-.28.027-.04.04-.08.067-.133-.053-.04-.106-.067-.173-.12.053-.147.04-.32.24-.4.026-.014.026-.081.04-.12.013-.109.026-.229.04-.335.027.04.04.053.066.08.014-.027.027-.04.027-.04 0-.054-.013-.16 0-.16.16-.027.093-.2.173-.28.013-.015-.013-.055-.013-.081 0-.027 0-.066.013-.066.186-.04.16-.24.28-.334.04-.027.053-.066.106-.134.106.187-.08.28-.093.414.225-.134.292-.454.16-.547a.788.788 0 0 0 .146-.147c.147-.16.306-.307.44-.467.093-.12.146-.266.24-.386.053-.067.16-.12.24-.16.24-.133.465-.28.612-.507.027-.027.067-.053.106-.08.04-.027.12-.027.134-.067.014-.026-.026-.093-.053-.133.053-.027.106-.08.213-.134-.04.08-.054.134-.08.188l.065.065c.12-.093.307-.2.427-.28 0-.012-.067-.065-.067-.065-.08.04-.2.106-.319.16.026-.04.026-.067.04-.08.187-.12.373-.24.573-.334.466-.213.933-.426 1.4-.626.08-.04.186-.014.28-.014.039 0 .065 0 .105-.013.213-.067.427-.133.64-.187.093-.026.199-.04.294-.04.398.013.798.013 1.198.04.173.013.333.053.493.106.2.068.412.16.6.253.225.122.439.255.652.401.387.254.746.534 1.133.76.373.228.666.535.906.882.294.413.626.787.76 1.294l.199.88c.04.16.133.32.093.507-.067.334-.12.681-.173 1.015-.026.134-.053.268-.04.4.026.415-.134.774-.293 1.148-.054.12-.134.24-.2.374a.404.404 0 0 0 .106.053l.12-.24c.014 0 .014 0 .027.014-.067.186-.12.387-.188.574-.158.413-.319.84-.518 1.24-.107.227-.294.414-.427.628-.133.186-.24.386-.372.56-.12.147-.24.294-.4.4-.36.267-.733.534-1.12.747-.239.147-.519.227-.785.294l.003-.002Zm-7.102-.708-.013.013c-.028-.013-.068-.026-.094-.053l-.32-.48c-.027-.04-.04-.08-.027-.133.147.226.294.44.453.653h.001Zm8.289 1.828c.599-.254 1.092-.613 1.544-1.027.067-.067.134-.134.214-.188.56-.346.972-.827 1.345-1.36.427-.614.707-1.307 1.054-1.961.026-.054.052-.107.08-.147-.028 1.521.146 3.015.345 4.523l-4.583.16Zm13.51-.4c-.013.026-.04.053-.053.08-.014-.027-.014-.067-.027-.121-.08.214-.253.107-.373.107-.72.014-1.452.014-2.172.014-.693 0-1.399 0-2.092.012-.226 0-.466.053-.693.067-.546.026-1.092.04-1.639.053-.04 0-.08-.066-.147-.12a.914.914 0 0 1-.08.12c-.014-.026-.04-.052-.067-.092a.776.776 0 0 1-.04.106h-.039c-.027-.186-.08-.36-.08-.546 0-.4.04-.8.053-1.201.014-.187 0-.36 0-.534l.147.106c.026-.052.053-.092.08-.132 0 0-.027-.014-.053-.04.025-.014.052-.04.052-.054.013-.04.04-.08.04-.106 0-.094-.027-.174-.04-.253.013 0 .026 0 .04-.014l.08.4h.04c-.053-.093.12-.174-.026-.28-.013-.014.013-.093.013-.133-.04-.08-.066-.16-.106-.267a.325.325 0 0 1 .093-.04c-.053-.027-.093-.053-.133-.066.133-.12.133-.188.013-.32.027-.013.053-.013.053-.026 0-.12 0-.24-.026-.36-.027-.134.04-.293-.16-.374.013.04.027.067.053.106 0 0-.04.014-.08.04-.173-.16-.066-.374-.106-.614.093.027.16.054.226.081-.026-.094-.093-.2-.133-.32h-.054v-.882c0 .014.093.014.147.028 0-.014.013-.027.013-.04-.041-.054-.094-.107-.147-.174l.026-.027c-.106-.132-.053-.319-.053-.36v-.933c.134.133-.066.306.134.386v-.133h-.014c-.013-.2-.013-.4-.026-.6h-.026c-.014.027-.014.04-.028.067h-.026l.08-3.189c.133.173.28.334.373.507.306.56.706 1.041 1.08 1.548.32.44.612.92.905 1.374.36.547.706 1.094 1.066 1.64.267.415.547.829.826 1.229.253.36.52.707.786 1.054.226.307.466.614.693.92.267.374.533.748.8 1.108.132.186.28.373.425.56.081.106.2.187.28.253-.012 0-.026 0-.052-.013.04.053.066.093.093.12.147.08.16.16.08.28l.001-.002Zm.68-3.335v-.094c0 .026.013.066 0 .093Zm.453-5.884c-.014 0-.093-.08-.107-.094-.013.04 0 .08-.026.134-.014-.04-.107-.027-.107-.066-.014.186.08.373.066.56.04-.027.2-.04.24-.08.014.013.04.026.054.026-.267.2-.2.4-.08.628.026.053.106.16.026.267-.026.026.014.106.027.173h.039v.025l-.12.04c-.026-.04-.186-.119-.186-.186v.681c.133.04.133.227.186.32a.4.4 0 0 0 .055-.106l.013.013c-.014.08-.027.16-.053.24-.027.12-.054.226-.066.346 0 .013.025.04.025.053-.146.335-.066.707-.119 1.054-.04.253 0 .521-.027.787a6.699 6.699 0 0 1-.133.694c-.014.04-.041.053-.107.08.026-.16.013-.267-.014-.413-.014 0-.187-.094-.2-.094 0 .188.106.44.146.654-.04-.014-.2-.107-.212-.107-.028.16-.028.374-.04.547-.014.134-.134.253-.148.4 0 .081.093.134.08.267h.107c0-.266.12-.506.12-.786h.04c.013.026.053.053.04.066-.027.147-.08.307-.067.454 0 .08.066.16.04.253-.026.081-.04.16-.053.28-.014-.066-.027-.093-.027-.133-.013 0-.133-.013-.147-.013-.013.08.094.16.08.227-.013.013-.026.013-.053.026l-.44-.64c-.347-.507-.693-1.015-1.04-1.535a3.188 3.188 0 0 1-.24-.4 18.691 18.691 0 0 0-1.372-2.042c-.386-.493-.694-1.028-1.053-1.547-.333-.493-.666-.974-.999-1.468-.12-.16-.266-.306-.373-.48-.346-.547-.653-1.107-.999-1.654-.293-.454-.612-.895-.92-1.335-.105-.147-.212-.307-.32-.467a.186.186 0 0 1-.026-.092 20.152 20.152 0 0 1-.066-.868c0-.266.026-.533.026-.814v-.24c0-.067.013-.12.013-.187.013-.013.026-.04.04-.053-.387 0-.787-.014-1.173 0-.253.013-.386-.094-.56-.28-.506-.574-.879-1.228-1.319-1.842a82.068 82.068 0 0 0-1.265-1.735c-.347-.467-.694-.92-1.04-1.387-.387-.534-.76-1.068-1.16-1.601-.48-.64-.972-1.281-1.465-1.921-.228-.294-.481-.574-.734-.881.173.027.334.053.493.067l.64.04c.48.04.96.066 1.438.132.4.054.8.134 1.214.2.88.147 1.745.388 2.585.668.493.16.972.374 1.453.574 1.078.44 2.105.974 3.117 1.534.32.174.507.453.746.707.347.36.694.72 1.026 1.094.386.44.745.894 1.12 1.348.332.4.678.8 1.012 1.2.106.12.187.267.28.4.212.321.452.628.639.975.132.254.212.548.306.828.132.413.266.813.4 1.227.092.307.172.628.239.947.053.214.04.44.106.653.08.282 0 .587.08.868.014.027.026.067.04.094.054.053.094.106.014.186-.013.014-.013.066 0 .107.027-.027.04-.053.067-.093 0 .026.013.04.013.053 0 .052-.014.106 0 .16 0 .026.026.065.04.092.026-.027.052-.04.105-.08.12.453.134.907.134 1.374 0 .44.08.881-.106 1.308.04-.147-.054-.281-.014-.414l.006.003Z" fill="#DD3A0A"/><path d="M54.908 40.782c.012 0 .026.014.026.014l-.014-.015c0-.013 0-.013-.013 0v.001Zm2.104 13.183c-.147.106-.293.2-.48.24-.014-.013-.014-.027-.027-.04.147-.094.306-.187.453-.28.014.025.04.052.054.079ZM32.03 35.885c.147-.186.294-.373.453-.56.012.014.119.04.132.054-.146.187-.346.44-.493.64-.027-.027-.067-.12-.093-.134h.001Zm-3.785 6.54c-.106-.228-.212-.468-.319-.694a.46.46 0 0 1 .12-.054c.147.212.212.466.32.694 0 0-.106.053-.12.053Zm3.399-6.406c-.08.12-.16.254-.24.375-.013-.014-.16.053-.173.04.08-.12.28-.335.36-.454.013.013.026.027.053.04Zm23.944 18.494c.013 0 .013-.013.026-.013.094.013.2.026.307.026-.175.12-.281.106-.334-.013h.001ZM31.668 36.58c.014-.04.04-.08.067-.12a.259.259 0 0 0 .066-.014c.054-.093.054-.16.108-.24-.014-.013-.027-.013-.04-.027-.08.055-.16.122-.24.175.026.026.026.04.026.067-.106-.014-.146.04-.2.186-.013.04-.08.054-.146.106-.014.028-.027.094-.054.16l.014.015a.2.2 0 0 1-.067.04c-.08.08-.173.147-.253.227-.013.04-.026.08-.026.12.093-.093.253-.267.373-.374l.014.014c.053-.08.093-.16.146-.24.013.013.013.026.027.04-.04.107-.08.226-.12.333-.028.013-.068.04-.068.027-.053.04-.093.093-.147.133l-.24.16c-.133.12-.266.226-.413.347-.093.147-.186.28-.293.453.16-.04.2.027.187.161.186.026.2-.12.253-.227.013-.027.027-.08.053-.094.12-.106.254-.2.387-.306.027-.027.027-.081.027-.12 0-.014-.068-.014-.108-.028.12-.133.294-.36.413-.506.067-.04.134-.094.134-.134-.014-.147.08-.187.187-.24-.054-.04-.067-.08-.067-.093v-.001Z" fill="#DD3735"/><path d="M31.936 36.433c-.054.093-.107.173-.16.267l-.08-.041c-.053.306-.24.573-.426.626.053.027.106.054.147.04.039-.013.065-.08.092-.12l.36-.52.12-.2-.053-.054v.002Zm-4.437 5.857c.067 0 .134.013.213.013 0-.053.067-.04.067-.093h.04c0 .067.014.12.014.187h-.28c-.013-.013-.067-.094-.053-.107Zm-.106-.614c-.04-.04-.107-.08-.107-.12-.013-.052.027-.119.066-.186.028.094.04.174.067.267-.014.013-.027.027-.027.04Zm.333-.854c.053.135.106.282.16.415a.42.42 0 0 0-.106.053c-.054-.133-.12-.28-.174-.413a.332.332 0 0 1 .12-.054Zm29.66 12.756c.066-.026.146-.04.254-.065-.12.092-.214.16-.294.24-.013-.014-.027-.028-.04-.028.027-.053.053-.093.08-.147ZM41.01 25.386c.08-.054.147-.094.226-.147l.027.026c-.081.106-.147.213-.24.347-.014-.093-.014-.147-.028-.213-.013 0 0 0 .014-.013h.001Zm3.904 6.75c.12-.053.24-.106.386-.173-.013.08-.013.133-.013.187a.468.468 0 0 0-.134-.027c-.08.014-.227.12-.293.134-.013 0 .053-.107.053-.12Zm9.995 11.315c.026.133.28.2.026.333.04.028.08.04.12.068a.1.1 0 0 1-.027.054c-.027.012-.08.04-.106.025-.014 0-.04-.053-.04-.08 0-.12.013-.24.026-.4Z" fill="#DD3735"/></g><path d="M22.013 75.247a.292.292 0 0 1-.216-.084.292.292 0 0 1-.084-.216v-7.8c0-.088.028-.16.084-.216a.292.292 0 0 1 .216-.084h3.36c.664 0 1.24.104 1.728.312.496.2.88.504 1.152.912.28.408.42.924.42 1.548 0 .616-.14 1.124-.42 1.524-.272.4-.656.696-1.152.888-.488.192-1.064.288-1.728.288h-1.428v2.628c0 .088-.032.16-.096.216a.292.292 0 0 1-.216.084h-1.62Zm1.896-4.584h1.404c.344 0 .616-.088.816-.264.208-.176.312-.444.312-.804 0-.304-.088-.56-.264-.768-.176-.208-.464-.312-.864-.312h-1.404v2.148Zm8.663 4.704c-.672 0-1.24-.108-1.704-.324a2.434 2.434 0 0 1-1.056-.924c-.24-.408-.376-.892-.408-1.452-.008-.16-.012-.34-.012-.54 0-.208.004-.388.012-.54.032-.568.176-1.052.432-1.452.256-.4.612-.708 1.068-.924.464-.216 1.02-.324 1.668-.324.656 0 1.212.108 1.668.324.464.216.824.524 1.08.924.256.4.4.884.432 1.452.008.152.012.332.012.54 0 .2-.004.38-.012.54-.032.56-.172 1.044-.42 1.452-.24.4-.592.708-1.056.924-.456.216-1.024.324-1.704.324Zm0-1.464c.36 0 .62-.108.78-.324.168-.216.264-.54.288-.972.008-.12.012-.28.012-.48 0-.2-.004-.36-.012-.48-.024-.424-.12-.744-.288-.96-.16-.224-.42-.336-.78-.336-.352 0-.612.112-.78.336-.168.216-.26.536-.276.96a7.57 7.57 0 0 0-.012.48c0 .2.004.36.012.48.016.432.108.756.276.972.168.216.428.324.78.324Zm6.94 1.464c-.52 0-.964-.056-1.332-.168a3.28 3.28 0 0 1-.888-.432 2.028 2.028 0 0 1-.504-.516c-.112-.184-.172-.34-.18-.468a.242.242 0 0 1 .084-.216.287.287 0 0 1 .204-.096h1.368c.024 0 .044.004.06.012s.04.024.072.048c.104.056.208.128.312.216.104.08.224.152.36.216.136.064.3.096.492.096.224 0 .412-.044.564-.132a.43.43 0 0 0 .228-.396.449.449 0 0 0-.108-.312c-.072-.088-.22-.172-.444-.252-.216-.08-.544-.16-.984-.24a5.128 5.128 0 0 1-1.092-.372 1.884 1.884 0 0 1-.72-.612c-.168-.256-.252-.564-.252-.924 0-.32.104-.628.312-.924.208-.296.512-.536.912-.72.4-.192.892-.288 1.476-.288.464 0 .864.056 1.2.168.344.104.632.24.864.408.24.168.42.34.54.516.12.176.184.336.192.48a.275.275 0 0 1-.072.216.264.264 0 0 1-.192.084h-1.248a.395.395 0 0 1-.096-.012.785.785 0 0 1-.084-.048 1.503 1.503 0 0 1-.288-.192 1.733 1.733 0 0 0-.336-.216 1.069 1.069 0 0 0-.48-.096c-.216 0-.384.048-.504.144a.48.48 0 0 0-.084.66c.072.088.212.168.42.24.216.072.548.152.996.24.552.088.992.232 1.32.432.328.192.56.42.696.684.136.256.204.528.204.816 0 .384-.116.724-.348 1.02-.224.296-.56.528-1.008.696-.448.16-.992.24-1.632.24Zm7.222-.12c-.512 0-.956-.08-1.332-.24a1.849 1.849 0 0 1-.852-.768c-.2-.352-.3-.804-.3-1.356v-2.304h-.936a.335.335 0 0 1-.228-.084.292.292 0 0 1-.084-.216v-.972c0-.088.028-.16.084-.216a.335.335 0 0 1 .228-.084h.936v-1.98c0-.088.028-.16.084-.216a.32.32 0 0 1 .216-.084h1.392c.088 0 .16.028.216.084a.292.292 0 0 1 .084.216v1.98h1.5c.088 0 .16.028.216.084a.292.292 0 0 1 .084.216v.972c0 .088-.028.16-.084.216a.292.292 0 0 1-.216.084h-1.5v2.136c0 .272.052.488.156.648.104.16.28.24.528.24h.924c.088 0 .16.028.216.084a.292.292 0 0 1 .084.216v1.044c0 .088-.028.16-.084.216a.292.292 0 0 1-.216.084h-1.116Zm5.985.12c-.76 0-1.412-.124-1.956-.372a2.893 2.893 0 0 1-1.26-1.092c-.295-.48-.46-1.076-.492-1.788a43.458 43.458 0 0 1 0-2.136c.032-.696.2-1.284.505-1.764a2.856 2.856 0 0 1 1.272-1.104c.544-.256 1.188-.384 1.931-.384a5.02 5.02 0 0 1 1.465.204c.448.128.84.32 1.175.576.337.248.596.552.78.912.192.352.292.752.3 1.2a.196.196 0 0 1-.072.18.244.244 0 0 1-.18.072h-1.62a.409.409 0 0 1-.24-.06.564.564 0 0 1-.143-.252c-.112-.424-.296-.712-.552-.864-.248-.16-.556-.24-.924-.24-.44 0-.788.124-1.044.372-.257.24-.397.644-.42 1.212a28.229 28.229 0 0 0 0 2.016c.023.568.163.976.42 1.224.255.24.603.36 1.044.36.367 0 .68-.08.936-.24.256-.16.436-.448.54-.864.032-.12.076-.2.132-.24a.41.41 0 0 1 .252-.072h1.62c.072 0 .131.024.18.072.055.048.08.108.072.18a2.637 2.637 0 0 1-.3 1.212 2.73 2.73 0 0 1-.78.912 3.84 3.84 0 0 1-1.176.576 5.313 5.313 0 0 1-1.465.192Zm7.418 0c-.52 0-.964-.056-1.332-.168a3.28 3.28 0 0 1-.888-.432 2.028 2.028 0 0 1-.504-.516c-.112-.184-.172-.34-.18-.468a.242.242 0 0 1 .084-.216.287.287 0 0 1 .204-.096h1.368c.024 0 .044.004.06.012s.04.024.072.048c.104.056.208.128.312.216.104.08.224.152.36.216.136.064.3.096.492.096.224 0 .412-.044.564-.132a.43.43 0 0 0 .228-.396.449.449 0 0 0-.108-.312c-.072-.088-.22-.172-.444-.252-.216-.08-.544-.16-.984-.24a5.128 5.128 0 0 1-1.092-.372 1.884 1.884 0 0 1-.72-.612c-.168-.256-.252-.564-.252-.924 0-.32.104-.628.312-.924.208-.296.512-.536.912-.72.4-.192.892-.288 1.476-.288.464 0 .864.056 1.2.168.344.104.632.24.864.408.24.168.42.34.54.516.12.176.184.336.192.48a.275.275 0 0 1-.072.216.264.264 0 0 1-.192.084h-1.248a.395.395 0 0 1-.096-.012.785.785 0 0 1-.084-.048 1.503 1.503 0 0 1-.288-.192 1.733 1.733 0 0 0-.336-.216 1.069 1.069 0 0 0-.48-.096c-.216 0-.384.048-.504.144a.48.48 0 0 0-.084.66c.072.088.212.168.42.24.216.072.548.152.996.24.552.088.992.232 1.32.432.328.192.56.42.696.684.136.256.204.528.204.816 0 .384-.116.724-.348 1.02-.224.296-.56.528-1.008.696-.448.16-.992.24-1.632.24Zm6.633 0c-.52 0-.964-.056-1.332-.168a3.28 3.28 0 0 1-.888-.432 2.028 2.028 0 0 1-.504-.516c-.112-.184-.172-.34-.18-.468a.242.242 0 0 1 .084-.216.287.287 0 0 1 .204-.096h1.368c.024 0 .044.004.06.012s.04.024.072.048c.104.056.208.128.312.216.104.08.224.152.36.216.136.064.3.096.492.096.224 0 .412-.044.564-.132a.43.43 0 0 0 .228-.396.449.449 0 0 0-.108-.312c-.072-.088-.22-.172-.444-.252-.216-.08-.544-.16-.984-.24a5.128 5.128 0 0 1-1.092-.372 1.884 1.884 0 0 1-.72-.612c-.168-.256-.252-.564-.252-.924 0-.32.104-.628.312-.924.208-.296.512-.536.912-.72.4-.192.892-.288 1.476-.288.464 0 .864.056 1.2.168.344.104.632.24.864.408.24.168.42.34.54.516.12.176.184.336.192.48a.275.275 0 0 1-.072.216.264.264 0 0 1-.192.084h-1.248a.395.395 0 0 1-.096-.012.785.785 0 0 1-.084-.048 1.503 1.503 0 0 1-.288-.192 1.733 1.733 0 0 0-.336-.216 1.069 1.069 0 0 0-.48-.096c-.216 0-.384.048-.504.144a.48.48 0 0 0-.084.66c.072.088.212.168.42.24.216.072.548.152.996.24.552.088.992.232 1.32.432.328.192.56.42.696.684.136.256.204.528.204.816 0 .384-.116.724-.348 1.02-.224.296-.56.528-1.008.696-.448.16-.992.24-1.632.24Z" fill="#fff"/></g><defs><clipPath id="b"><path fill="#fff" transform="translate(25.5 17.753)" d="M0 0h40v39.494H0z"/></clipPath><filter id="a" x="0" y="0" width="91" height="101" filterUnits="userSpaceOnUse" color-interpolation-filters="sRGB"><feFlood flood-opacity="0" result="BackgroundImageFix"/><feColorMatrix in="SourceAlpha" values="0 0 0 0 0 0 0 0 0 0 0 0 0 0 0 0 0 0 127 0" result="hardAlpha"/><feOffset dy="2"/><feGaussianBlur stdDeviation="4"/><feColorMatrix values="0 0 0 0 0 0 0 0 0 0 0 0 0 0 0 0 0 0 0.75 0"/><feBlend in2="BackgroundImageFix" result="effect1_dropShadow_505_1148"/><feBlend in="SourceGraphic" in2="effect1_dropShadow_505_1148" result="shape"/></filter></defs></svg>