<svg width="91" height="101" fill="none" xmlns="http://www.w3.org/2000/svg"><g filter="url(#a)"><rect x="8" y="6" width="75" height="85" rx="5" fill="#212529"/><g clip-path="url(#b)"><path d="M55.024 26.12h1.904c.534 0 .953.418.953.951a.943.943 0 0 1-.953.953h-1.904a.943.943 0 0 1-.953-.953c0-.533.42-.952.953-.952Z" fill="#56B3B4"/><path d="M26.452 56.595h9.524c.534 0 .953.42.953.953 0 .533-.42.952-.953.952h-9.524a.943.943 0 0 1-.952-.952c0-.534.419-.953.952-.953Z" fill="#EA5E5E"/><path d="M49.31 41.357h5.714c.533 0 .952.42.952.953 0 .533-.42.952-.952.952h-5.715a.943.943 0 0 1-.952-.952c0-.534.419-.953.952-.953Z" fill="#BF85BF"/><path d="M37.881 41.357h7.62c.532 0 .952.42.952.953a.943.943 0 0 1-.953.952h-7.619a.943.943 0 0 1-.952-.952c0-.534.419-.953.952-.953Z" fill="#EA5E5E"/><path d="M26.452 41.357h7.62c.533 0 .952.42.952.953a.943.943 0 0 1-.953.952h-7.619a.943.943 0 0 1-.952-.952c0-.534.419-.953.952-.953Z" fill="#56B3B4"/><path d="M26.452 48.976h9.524c.534 0 .953.42.953.953 0 .533-.42.952-.953.952h-9.524a.943.943 0 0 1-.952-.953c0-.533.419-.952.952-.952ZM26.452 33.738h9.524c.534 0 .953.42.953.952 0 .534-.42.953-.953.953h-9.524a.943.943 0 0 1-.952-.953c0-.533.419-.952.952-.952Z" fill="#BF85BF"/><path d="M35.976 22.31h19.048c.533 0 .952.419.952.952a.943.943 0 0 1-.952.952H35.976a.943.943 0 0 1-.952-.952c0-.533.419-.952.952-.952Z" fill="#F7BA3E"/><path d="M26.452 22.31h5.715c.533 0 .952.419.952.952a.943.943 0 0 1-.952.952h-5.715a.943.943 0 0 1-.952-.952c0-.533.419-.952.952-.952Z" fill="#EA5E5E"/><path d="M34.072 52.786h1.904c.534 0 .953.419.953.952 0 .533-.42.952-.953.952h-1.904a.943.943 0 0 1-.953-.952c0-.533.42-.952.953-.952Z" fill="#F7BA3E"/><path d="M34.072 29.928h1.904c.534 0 .953.42.953.953 0 .533-.42.952-.953.952h-1.904a.943.943 0 0 1-.953-.952c0-.534.42-.953.953-.953ZM26.452 52.786h3.81c.533 0 .952.419.952.952 0 .533-.419.952-.952.952h-3.81a.943.943 0 0 1-.952-.952c0-.533.419-.952.952-.952Z" fill="#56B3B4"/><path d="M26.452 29.928h3.81c.533 0 .952.42.952.953 0 .533-.419.952-.952.952h-3.81a.943.943 0 0 1-.952-.952c0-.534.419-.953.952-.953Z" fill="#F7BA3E"/><path opacity=".5" d="M51.214 52.786h1.905c.533 0 .952.419.952.952a.943.943 0 0 1-.952.952h-1.905a.943.943 0 0 1-.952-.952c0-.533.419-.952.952-.952ZM39.786 52.786h7.619c.533 0 .952.419.952.952a.943.943 0 0 1-.952.952h-7.62a.943.943 0 0 1-.951-.952c0-.533.418-.952.952-.952ZM56.928 52.786h7.62c.533 0 .952.419.952.952 0 .533-.42.952-.953.952H56.93a.943.943 0 0 1-.953-.952c0-.533.42-.952.953-.952Z" fill="#D0D4D8"/><path d="M41.69 37.548H56.93c.533 0 .952.419.952.952a.943.943 0 0 1-.952.952H41.69a.943.943 0 0 1-.953-.952c0-.533.42-.952.953-.952Z" fill="#56B3B4"/><path d="M32.167 37.548h5.714c.533 0 .952.419.952.952a.943.943 0 0 1-.952.952h-5.714a.943.943 0 0 1-.953-.952c0-.533.42-.952.953-.952Z" fill="#F7BA3E"/><path d="M26.452 37.548h1.905c.534 0 .953.419.953.952a.943.943 0 0 1-.953.952h-1.905a.943.943 0 0 1-.952-.952c0-.533.419-.952.952-.952Z" fill="#EA5E5E"/><path d="M43.595 26.12h7.62c.533 0 .952.418.952.951 0 .534-.42.953-.953.953h-7.619a.943.943 0 0 1-.952-.953c0-.533.42-.952.952-.952Z" fill="#BF85BF"/><path d="M26.452 26.12h13.334c.533 0 .952.418.952.951 0 .534-.419.953-.952.953H26.452a.943.943 0 0 1-.952-.953c0-.533.419-.952.952-.952Z" fill="#56B3B4"/><path d="M32.167 45.167H49.31c.533 0 .952.419.952.952 0 .534-.42.953-.952.953H32.167a.943.943 0 0 1-.953-.953c0-.533.42-.952.953-.952Z" fill="#F7BA3E"/><path d="M26.452 45.167h1.905c.534 0 .953.419.953.952a.943.943 0 0 1-.953.953h-1.905a.943.943 0 0 1-.952-.953c0-.533.419-.952.952-.952Z" fill="#BF85BF"/><path d="M49.31 29.928h9.523c.534 0 .953.42.953.953a.943.943 0 0 1-.953.952H49.31a.943.943 0 0 1-.952-.952c0-.534.419-.953.952-.953Z" fill="#EA5E5E"/><path d="M49.31 33.738h9.523c.534 0 .953.42.953.952a.943.943 0 0 1-.953.953H49.31a.943.943 0 0 1-.952-.953c0-.533.419-.952.952-.952Z" fill="#F7BA3E"/><path d="M26.452 18.5H49.31c.534 0 .953.419.953.952a.943.943 0 0 1-.953.953H26.453a.943.943 0 0 1-.952-.953c0-.533.419-.952.952-.952Z" fill="#56B3B4"/><path opacity=".5" d="M53.119 18.5h11.428c.534 0 .953.419.953.952a.943.943 0 0 1-.953.953H53.12a.943.943 0 0 1-.953-.953c0-.533.42-.952.953-.952ZM53.119 45.167h3.81c.533 0 .952.419.952.952 0 .534-.42.953-.953.953h-3.81a.943.943 0 0 1-.952-.953c0-.533.42-.952.953-.952ZM60.738 45.167h3.81c.533 0 .952.419.952.952a.943.943 0 0 1-.953.953h-3.809a.943.943 0 0 1-.952-.953c0-.533.419-.952.952-.952ZM58.833 41.357h5.715c.533 0 .952.42.952.953a.943.943 0 0 1-.953.952h-5.714a.943.943 0 0 1-.952-.952c0-.534.419-.953.952-.953ZM58.833 22.31h5.715c.533 0 .952.419.952.952a.943.943 0 0 1-.953.952h-5.714a.943.943 0 0 1-.952-.952c0-.533.419-.952.952-.952ZM60.738 37.548h3.81c.533 0 .952.419.952.952a.943.943 0 0 1-.953.952h-3.809a.943.943 0 0 1-.952-.952c0-.533.419-.952.952-.952ZM60.738 26.12h3.81c.533 0 .952.418.952.951a.943.943 0 0 1-.953.953h-3.809a.943.943 0 0 1-.952-.953c0-.533.419-.952.952-.952ZM62.643 29.928h1.905c.533 0 .952.42.952.953 0 .533-.42.952-.952.952h-1.905a.943.943 0 0 1-.953-.952c0-.534.42-.953.953-.953ZM62.643 33.738h1.905c.533 0 .952.42.952.952 0 .534-.42.953-.952.953h-1.905a.943.943 0 0 1-.953-.953c0-.533.42-.952.953-.952ZM47.404 48.976h17.143c.534 0 .953.42.953.953 0 .533-.42.952-.953.952H47.405a.943.943 0 0 1-.953-.953c0-.533.42-.952.953-.952ZM39.786 48.976h3.81c.533 0 .952.42.952.953 0 .533-.42.952-.953.952h-3.81a.943.943 0 0 1-.951-.953c0-.533.418-.952.952-.952ZM55.024 56.595h9.523c.534 0 .953.42.953.953 0 .533-.42.952-.953.952h-9.523a.943.943 0 0 1-.953-.952c0-.534.42-.953.953-.953ZM39.786 56.595h11.428c.534 0 .953.42.953.953a.943.943 0 0 1-.953.952H39.786a.943.943 0 0 1-.953-.952c0-.534.42-.953.953-.953ZM39.786 29.928H45.5c.533 0 .953.42.953.953a.943.943 0 0 1-.953.952h-5.714a.943.943 0 0 1-.953-.952c0-.534.42-.953.953-.953ZM39.786 33.738H45.5c.533 0 .953.42.953.952a.943.943 0 0 1-.953.953h-5.714a.943.943 0 0 1-.953-.953c0-.533.42-.952.953-.952Z" fill="#D0D4D8"/></g><path d="M22.699 74.5a.292.292 0 0 1-.216-.084.292.292 0 0 1-.084-.216v-7.8c0-.088.028-.16.084-.216a.292.292 0 0 1 .216-.084h3.36c.664 0 1.24.104 1.728.312.496.2.88.504 1.152.912.28.408.42.924.42 1.548 0 .616-.14 1.124-.42 1.524-.272.4-.656.696-1.152.888-.488.192-1.064.288-1.728.288H24.63V74.2c0 .088-.032.16-.096.216a.292.292 0 0 1-.216.084h-1.62Zm1.896-4.584h1.404c.344 0 .616-.088.816-.264.208-.176.312-.444.312-.804 0-.304-.088-.56-.264-.768-.176-.208-.464-.312-.864-.312h-1.404v2.148Zm6.081 4.584a.292.292 0 0 1-.216-.084.292.292 0 0 1-.084-.216v-5.64c0-.08.028-.148.084-.204a.274.274 0 0 1 .216-.096h1.38c.088 0 .16.032.216.096a.278.278 0 0 1 .084.204v.48c.216-.248.472-.44.768-.576a2.47 2.47 0 0 1 1.02-.204h.528c.08 0 .148.028.204.084a.274.274 0 0 1 .096.216v1.236c0 .08-.032.152-.096.216a.278.278 0 0 1-.204.084h-1.164c-.328 0-.584.092-.768.276-.176.176-.264.428-.264.756V74.2c0 .088-.032.16-.096.216a.292.292 0 0 1-.216.084h-1.488Zm7.982.12c-.944 0-1.696-.256-2.256-.768-.56-.512-.852-1.272-.876-2.28v-.42c.024-.632.164-1.172.42-1.62a2.58 2.58 0 0 1 1.08-1.032c.464-.24 1.004-.36 1.62-.36.704 0 1.284.14 1.74.42.464.28.812.66 1.044 1.14.232.48.348 1.028.348 1.644v.288c0 .088-.032.16-.096.216a.278.278 0 0 1-.204.084h-3.84V72.016c.008.232.048.444.12.636a.977.977 0 0 0 .336.456.905.905 0 0 0 .552.168c.16 0 .292-.024.396-.072.112-.056.204-.116.276-.18a2.84 2.84 0 0 0 .168-.18.564.564 0 0 1 .168-.144.501.501 0 0 1 .216-.036h1.488a.26.26 0 0 1 .192.072c.056.04.08.1.072.18-.008.136-.076.3-.204.492a2.527 2.527 0 0 1-.564.576c-.24.184-.544.336-.912.456s-.796.18-1.284.18Zm-1.02-3.876h2.028v-.024c0-.256-.04-.48-.12-.672a.881.881 0 0 0-.348-.444.954.954 0 0 0-.552-.156c-.216 0-.4.052-.552.156a1.01 1.01 0 0 0-.336.444c-.08.192-.12.416-.12.672v.024Zm8.446 3.756c-.512 0-.956-.08-1.332-.24a1.849 1.849 0 0 1-.852-.768c-.2-.352-.3-.804-.3-1.356v-2.304h-.936a.335.335 0 0 1-.228-.084.292.292 0 0 1-.084-.216v-.972c0-.088.028-.16.084-.216a.335.335 0 0 1 .228-.084h.936v-1.98c0-.088.028-.16.084-.216a.32.32 0 0 1 .216-.084h1.392c.088 0 .16.028.216.084a.292.292 0 0 1 .084.216v1.98h1.5c.088 0 .16.028.216.084a.292.292 0 0 1 .084.216v.972c0 .088-.028.16-.084.216a.292.292 0 0 1-.216.084h-1.5v2.136c0 .272.052.488.156.648.104.16.28.24.528.24h.924c.088 0 .16.028.216.084a.292.292 0 0 1 .084.216V74.2c0 .088-.028.16-.084.216a.292.292 0 0 1-.216.084h-1.116Zm5.601 0c-.512 0-.956-.08-1.332-.24a1.849 1.849 0 0 1-.852-.768c-.2-.352-.3-.804-.3-1.356v-2.304h-.936a.335.335 0 0 1-.228-.084.292.292 0 0 1-.084-.216v-.972c0-.088.028-.16.084-.216a.335.335 0 0 1 .228-.084h.936v-1.98c0-.088.028-.16.084-.216a.32.32 0 0 1 .216-.084h1.392c.088 0 .16.028.216.084a.292.292 0 0 1 .084.216v1.98h1.5c.088 0 .16.028.216.084a.292.292 0 0 1 .084.216v.972c0 .088-.028.16-.084.216a.292.292 0 0 1-.216.084h-1.5v2.136c0 .272.052.488.156.648.104.16.28.24.528.24h.924c.088 0 .16.028.216.084a.292.292 0 0 1 .084.216V74.2c0 .088-.028.16-.084.216a.292.292 0 0 1-.216.084h-1.116Zm2.71 0a.292.292 0 0 1-.216-.084.292.292 0 0 1-.084-.216v-5.64c0-.088.028-.16.084-.216a.292.292 0 0 1 .216-.084h1.416c.08 0 .148.028.204.084a.274.274 0 0 1 .096.216v5.64c0 .088-.032.16-.096.216a.278.278 0 0 1-.204.084h-1.416Zm-.012-7.14a.292.292 0 0 1-.216-.084.292.292 0 0 1-.084-.216v-1.068c0-.088.028-.16.084-.216a.274.274 0 0 1 .216-.096h1.428c.088 0 .16.032.216.096a.274.274 0 0 1 .096.216v1.068c0 .088-.032.16-.096.216a.292.292 0 0 1-.216.084h-1.428Zm6.072 7.26c-.944 0-1.696-.256-2.256-.768-.56-.512-.852-1.272-.876-2.28v-.42c.024-.632.164-1.172.42-1.62a2.58 2.58 0 0 1 1.08-1.032c.464-.24 1.004-.36 1.62-.36.704 0 1.284.14 1.74.42.464.28.812.66 1.044 1.14.232.48.348 1.028.348 1.644v.288c0 .088-.032.16-.096.216a.278.278 0 0 1-.204.084h-3.84V72.016c.008.232.048.444.12.636a.977.977 0 0 0 .336.456.905.905 0 0 0 .552.168c.16 0 .292-.024.396-.072.112-.056.204-.116.276-.18a2.84 2.84 0 0 0 .168-.18.564.564 0 0 1 .168-.144.501.501 0 0 1 .216-.036h1.488a.26.26 0 0 1 .192.072c.056.04.08.1.072.18-.008.136-.076.3-.204.492a2.527 2.527 0 0 1-.564.576c-.24.184-.544.336-.912.456s-.796.18-1.284.18Zm-1.02-3.876h2.028v-.024c0-.256-.04-.48-.12-.672a.881.881 0 0 0-.348-.444.954.954 0 0 0-.552-.156c-.216 0-.4.052-.552.156a1.01 1.01 0 0 0-.336.444c-.08.192-.12.416-.12.672v.024ZM65 74.5a.292.292 0 0 1-.216-.084.292.292 0 0 1-.084-.216v-5.64c0-.08.028-.148.084-.204A.274.274 0 0 1 65 68.26h1.38c.088 0 .16.032.216.096a.278.278 0 0 1 .084.204v.48c.216-.248.472-.44.768-.576a2.47 2.47 0 0 1 1.02-.204h.528c.08 0 .148.028.204.084a.274.274 0 0 1 .096.216v1.236c0 .08-.032.152-.096.216a.278.278 0 0 1-.204.084h-1.164c-.328 0-.584.092-.768.276-.176.176-.264.428-.264.756V74.2c0 .088-.032.16-.096.216a.292.292 0 0 1-.216.084H65Z" fill="#fff"/></g><defs><clipPath id="b"><path fill="#fff" transform="translate(25.5 18.5)" d="M0 0h40v40H0z"/></clipPath><filter id="a" x="0" y="0" width="91" height="101" filterUnits="userSpaceOnUse" color-interpolation-filters="sRGB"><feFlood flood-opacity="0" result="BackgroundImageFix"/><feColorMatrix in="SourceAlpha" values="0 0 0 0 0 0 0 0 0 0 0 0 0 0 0 0 0 0 127 0" result="hardAlpha"/><feOffset dy="2"/><feGaussianBlur stdDeviation="4"/><feColorMatrix values="0 0 0 0 0 0 0 0 0 0 0 0 0 0 0 0 0 0 0.75 0"/><feBlend in2="BackgroundImageFix" result="effect1_dropShadow_505_1631"/><feBlend in="SourceGraphic" in2="effect1_dropShadow_505_1631" result="shape"/></filter></defs></svg>