<svg width="91" height="101" fill="none" xmlns="http://www.w3.org/2000/svg"><g filter="url(#a)"><rect x="8" y="6" width="75" height="85" rx="5" fill="#212529"/><g clip-path="url(#b)"><path d="M59.062 34.406c-.062-1.375.125-2.593-.5-3.625-1.5-2.562-5.25-4.062-12.75-4.062v.218h-.156.156v-.218c-7.5 0-11.437 1.5-12.937 4.093-.594 1.063-.531 2.25-.625 3.625-.063 1.094-.563 2.25-.344 3.5.25 1.626.344 3.25.594 4.75.187 1.22 1.875 2.25 2.031 3.407.438 3.187 3.75 4.656 11.25 4.656V51h-.187.218v-.25c7.5 0 10.688-1.469 11.094-4.656.156-1.188 1.719-2.188 1.906-3.407.25-1.5.344-3.124.594-4.75.219-1.25-.281-2.437-.344-3.53Z" fill="#EFCCA3"/><path d="M45.688 35.531c1.343.032 2.28.875 3.156 1.657 1.031.906 2.781 1.53 3.5 2.312.718.781 1.656 1.563 2 2.781.343 1.219.437 2.782.437 3.188 0 .406.219.312.844 0 1.469-.719 3.094-2.657 3.094-2.657-.188 1.22-1.782 2.313-1.938 3.47C56.406 49.468 53.313 51 45.656 51h-.031.188" fill="#CCAC8D"/><path d="M50.625 33.094c.281.968 1.281 4.25-.656 3.156 0 0 .812.469 1.312 2.25.532 1.781 1.813 2 1.813 2s2.093.406 3.656-.938c1.313-1.125 1.531-3.125.969-4.656-.563-1.5-1.563-1.969-3.032-2.281-1.468-.344-4.406-.625-4.062.469Z" fill="#CCAC8D"/><path d="M54.344 39.406a2.75 2.75 0 1 0 0-5.5 2.75 2.75 0 0 0 0 5.5Z" fill="#000"/><path d="M53.625 36.156a.719.719 0 1 0 0-1.437.719.719 0 0 0 0 1.437Z" fill="#fff"/><path d="M50.156 36.531s2.469 1.688 3.813 3.344c1.343 1.656 1.312 1.969 1.312 1.969l-.968.437s-1.376-2.593-3.063-3.562c-1.719-.969-1.906-1.782-1.906-1.782l.812-.406Z" fill="#EFCCA3"/><path d="M45.781 35.531c-1.343.032-2.343.875-3.25 1.657-1.031.906-2.843 1.53-3.562 2.312-.719.781-1.688 1.563-2.032 2.781-.343 1.219-.468 2.782-.468 3.188 0 .406.062.437-.844 0-1.469-.688-3.094-2.657-3.094-2.657.188 1.22 1.782 2.313 1.938 3.47C34.906 49.468 38 51 45.656 51h.157" fill="#CCAC8D"/><path d="M53.031 40.813c-1.5-1.844-3.906-3.563-7.25-3.563h-.031c-3.344 0-5.75 1.719-7.25 3.563-1.563 1.906-1.438 2.656-1.438 4.468 0 6.563 2.313 4.688 3.844 5.5 1.563.782 3.188.532 4.844.532h.031c1.688 0 3.281.218 4.844-.563 1.531-.781 3.844 1.156 3.844-5.406.03-1.813.125-2.625-1.438-4.532Z" fill="#56332B"/><path d="M45.625 38.875s-.219 3.031-.656 3.625l.812-.188-.156-3.437Z" fill="#442823"/><path d="M45.844 38.875s.218 3.031.656 3.625l-.813-.188.157-3.437Z" fill="#442823"/><path d="M43.219 38.156c-.313-.718.813-1.875 2.594-1.906 1.781 0 2.906 1.156 2.593 1.906-.312.75-1.437.969-2.593 1-1.125-.031-2.282-.25-2.594-1Z" fill="#56332B"/><path d="M45.813 38.875c0-.125 1.062-.156 1.624-.531 0 0-1.156.375-1.406.218-.25-.124-.312-.5-.312-.5s-.094.376-.282.5c-.218.126-1.53-.218-1.53-.218s1.75.437 1.75.531c0 .094-.032.406-.032.625 0 .781 0 2.719.125 2.875.188.281.125-2.094.125-2.875-.031-.25-.031-.5-.063-.625Z" fill="#000"/><path d="M45.875 43.063c.531 0 1.469.374 2.313.968-.813-.906-1.782-1.531-2.313-1.531-.563 0-1.75.688-2.594 1.688.875-.688 2-1.126 2.594-1.126Z" fill="#7F4A41"/><path d="M45.656 48.594c-1.187 0-2.343-.375-3.406-.657-.219-.062-.438.094-.656.032-1.969-.625-3.563-1.688-4.532-3.032v.313c0 6.563 2.313 4.719 3.844 5.5 1.563.781 3.188.531 4.844.531h.031c1.688 0 3.282.219 4.844-.562 1.531-.782 3.844 1.125 3.844-5.438 0-.25 0-.5.031-.718-.906 1.468-2.563 2.624-4.625 3.312-.188.063-.625-.094-.813-.063-1.124.376-2.124.782-3.406.782Z" fill="#442823"/><path d="M42.688 45.063s-.782 2.343-.25 3.374l-.72-.312s.532-2.375.97-3.063Zm6.187 0s.781 2.343.25 3.374l.719-.312s-.563-2.375-.969-3.063Z" fill="#442823"/><path d="M40.688 33.094c-.282.968-1.282 4.25.656 3.156 0 0-.813.469-1.313 2.25-.5 1.781-1.812 2-1.812 2s-2.094.406-3.657-.938c-1.312-1.125-1.53-3.125-.968-4.656.562-1.531 1.562-1.969 3.031-2.281 1.469-.344 4.375-.625 4.063.469Z" fill="#CCAC8D"/><path d="M45.781 42.5c.844 0 3.469 1.813 3.5 4.031v-.125c0-2.312-2.125-4.156-3.5-4.156s-3.5 1.875-3.5 4.156v.125c.032-2.218 2.657-4.031 3.5-4.031Z" fill="#000"/><path d="M46.464 38.173c.133-.034.19-.265.125-.516-.065-.25-.226-.426-.36-.392-.133.035-.19.266-.125.517.065.25.226.426.36.391ZM44.857 38.169c.132.04.301-.127.378-.374.076-.247.032-.48-.1-.522-.132-.04-.301.127-.378.374-.077.247-.032.48.1.522Z" fill="#331712"/><path d="M37.125 39.406a2.75 2.75 0 1 0 0-5.5 2.75 2.75 0 0 0 0 5.5Z" fill="#000"/><path d="M37.844 36.156a.719.719 0 1 0 0-1.437.719.719 0 0 0 0 1.437Z" fill="#fff"/><path d="M46.594 36.688c0-.032-.719.312-.907.343-.187-.03-.906-.375-.906-.343h1.813Z" fill="#7F4A41"/><path d="M41.125 36.531s-2.469 1.688-3.812 3.344C35.969 41.531 36 41.844 36 41.844l.969.437s1.375-2.593 3.062-3.562c1.688-.969 1.907-1.782 1.907-1.782l-.813-.406Z" fill="#EFCCA3"/><path d="M35.719 31.531s-.844 2.313-2.719 3.282c0 0 2.938-.344 2.719-3.282Zm19.718 0s.844 2.313 2.72 3.282c0 0-2.938-.344-2.72-3.282Zm-5.343 4.313s-1.844-1.938-4.313-2h.062c-2.5.062-4.312 2-4.312 2 2.157-1.5 4-1.469 4.313-1.469-.032 0 2.093-.031 4.25 1.469Zm-2.157-4.063S47 30.47 45.75 30.438h.063c-.938.03-2.157 1.343-2.157 1.343 1.063-1.031 2.157-1 2.157-1s1.03-.031 2.124 1Zm-10.812 9.594s-1.469.719-2.531.281h-.032c-.937-.531-1.406-2.125-1.406-2.125s.938 2.813 3.969 1.844Zm17.125 0s1.469.719 2.531.281c1.25-.531 1.438-2.125 1.438-2.125s-.938 2.813-3.969 1.844Z" fill="#CCAC8D"/><path d="M38.813 31.375c.812-.156 2.156-.188 3.218.156 1.344.469.25 2.188.532 2.282.28.093.656-1.188 3.156-1.063 2.531.125 2.812 1.25 3.156 1.063.344-.188-.344-3.126 3.438-2.438 0 0-3.97-1.063-3.782 1.813 0 0-2.281-1.75-5.468-.188.03 0 .843-2.688-4.25-1.625Zm13.843 0c.063 0 .094.031.125.031.032 0-.031-.031-.125-.031ZM37.72 27.531s-3.375 4.25-3.875 5.875c-.5 1.657-.875 8.438-1.313 9.407l-1.562-6.688 2.875-6.969 3.875-1.625Zm15.875 0s3.375 4.25 3.875 5.875c.5 1.657.875 8.438 1.312 9.407l1.563-6.688-2.875-6.969-3.875-1.625Z" fill="#CCAC8D"/><path d="M53.438 27.531s3.625 3.031 4.687 6.531c1.063 3.5.625 7.75 1.438 8.282 1.156.75 2.468-3.72 2.906-4.188.687-.75 2.969-2.656 3.125-3 .156-.344-4.625-5.562-6.719-6.594-2.531-1.187-5.656-1.28-5.437-1.03Z" fill="#56332B"/><path d="M56.531 29.406s4.282 5.469 4.219 12.282l1.719-3.5c-.032 0-1.532-4.47-5.938-8.782Z" fill="#442823"/><path d="M37.719 27.531s-3.625 3.031-4.688 6.531c-1.062 3.5-.625 7.75-1.437 8.282-1.157.75-2.47-3.72-2.907-4.188-.687-.75-2.968-2.656-3.125-3-.156-.344 4.625-5.562 6.72-6.594 2.53-1.187 5.655-1.28 5.437-1.03Z" fill="#56332B"/><path d="M34.625 29.406s-4.281 5.469-4.219 12.282l-1.687-3.5s1.5-4.47 5.906-8.782Z" fill="#442823"/><path d="M32.313 41.813s.312 1.687.812 2.218c.5.532.156-.406.156-.406s-.531-.281-.437-2.437c.093-2.157-.532.625-.532.625Zm26.656 0s-.313 1.687-.813 2.218c-.5.532-.156-.406-.156-.406s.531-.281.438-2.437c-.094-2.157.53.625.53.625Z" fill="#CCAC8D"/><path d="M42.531 40.781a.25.25 0 1 0 0-.5.25.25 0 0 0 0 .5ZM41.094 42.281a.25.25 0 1 0 0-.5.25.25 0 0 0 0 .5ZM40.625 40.781a.25.25 0 1 0 0-.5.25.25 0 0 0 0 .5ZM48.625 40.781a.25.25 0 1 0 0-.5.25.25 0 0 0 0 .5ZM50.063 42.281a.25.25 0 1 0 0-.5.25.25 0 0 0 0 .5ZM50.531 40.781a.25.25 0 1 0 0-.5.25.25 0 0 0 0 .5Z" fill="#442823"/></g><path d="M34.939 74.5a.292.292 0 0 1-.216-.084.292.292 0 0 1-.084-.216v-7.8c0-.088.028-.16.084-.216a.292.292 0 0 1 .216-.084h3.36c.664 0 1.24.104 1.728.312.496.2.88.504 1.152.912.28.408.42.924.42 1.548 0 .616-.14 1.124-.42 1.524-.272.4-.656.696-1.152.888-.488.192-1.064.288-1.728.288H36.87V74.2c0 .088-.032.16-.096.216a.292.292 0 0 1-.216.084h-1.62Zm1.896-4.584h1.404c.344 0 .616-.088.816-.264.208-.176.312-.444.312-.804 0-.304-.088-.56-.264-.768-.176-.208-.464-.312-.864-.312h-1.404v2.148Zm8.073 4.704c-.456 0-.864-.104-1.224-.312a2.138 2.138 0 0 1-.828-.912c-.2-.408-.3-.904-.3-1.488V68.56c0-.088.028-.16.084-.216a.292.292 0 0 1 .216-.084h1.5c.088 0 .16.028.216.084a.292.292 0 0 1 .084.216v3.276c0 .784.352 1.176 1.056 1.176.328 0 .588-.1.78-.3.2-.208.3-.5.3-.876V68.56c0-.088.028-.16.084-.216a.292.292 0 0 1 .216-.084h1.5c.088 0 .16.028.216.084a.292.292 0 0 1 .084.216v5.64c0 .088-.028.16-.084.216a.292.292 0 0 1-.216.084H47.2a.32.32 0 0 1-.216-.084.292.292 0 0 1-.084-.216v-.456c-.208.288-.48.508-.816.66-.328.144-.72.216-1.176.216Zm8.456 2.52c-.616 0-1.128-.08-1.536-.24-.4-.16-.72-.352-.96-.576a2.305 2.305 0 0 1-.504-.672c-.104-.216-.16-.388-.168-.516a.242.242 0 0 1 .084-.216.335.335 0 0 1 .228-.084h1.524c.072 0 .132.016.18.048.056.04.1.104.132.192.04.088.092.18.156.276a.746.746 0 0 0 .288.228c.128.064.3.096.516.096.24 0 .44-.04.6-.12a.712.712 0 0 0 .36-.372c.08-.168.12-.396.12-.684v-.804c-.184.2-.42.364-.708.492-.288.12-.636.18-1.044.18-.408 0-.768-.06-1.08-.18a1.93 1.93 0 0 1-.78-.54 2.657 2.657 0 0 1-.492-.876 4.648 4.648 0 0 1-.204-1.188 8.115 8.115 0 0 1 0-.624 4.58 4.58 0 0 1 .204-1.164c.112-.344.272-.64.48-.888.216-.248.48-.436.792-.564a2.681 2.681 0 0 1 1.08-.204c.432 0 .8.084 1.104.252.312.16.568.364.768.612v-.444c0-.08.028-.148.084-.204a.274.274 0 0 1 .216-.096h1.38c.088 0 .16.032.216.096a.261.261 0 0 1 .096.204v5.772c0 .608-.124 1.12-.372 1.536a2.375 2.375 0 0 1-1.068.948c-.464.216-1.028.324-1.692.324Zm-.084-4.332c.256 0 .464-.056.624-.168a.964.964 0 0 0 .348-.432c.08-.176.124-.364.132-.564.008-.088.012-.212.012-.372s-.004-.28-.012-.36a1.52 1.52 0 0 0-.132-.576.894.894 0 0 0-.348-.42c-.16-.112-.368-.168-.624-.168-.264 0-.476.056-.636.168a.977.977 0 0 0-.336.456 2.565 2.565 0 0 0-.12.636 6.077 6.077 0 0 0 0 .54c.016.232.056.444.12.636a.977.977 0 0 0 .336.456c.16.112.372.168.636.168Z" fill="#fff"/></g><defs><clipPath id="b"><path fill="#fff" transform="translate(25.5 18.5)" d="M0 0h40v40H0z"/></clipPath><filter id="a" x="0" y="0" width="91" height="101" filterUnits="userSpaceOnUse" color-interpolation-filters="sRGB"><feFlood flood-opacity="0" result="BackgroundImageFix"/><feColorMatrix in="SourceAlpha" values="0 0 0 0 0 0 0 0 0 0 0 0 0 0 0 0 0 0 127 0" result="hardAlpha"/><feOffset dy="2"/><feGaussianBlur stdDeviation="4"/><feColorMatrix values="0 0 0 0 0 0 0 0 0 0 0 0 0 0 0 0 0 0 0.75 0"/><feBlend in2="BackgroundImageFix" result="effect1_dropShadow_505_1039"/><feBlend in="SourceGraphic" in2="effect1_dropShadow_505_1039" result="shape"/></filter></defs></svg>