<svg width="91" height="101" fill="none" xmlns="http://www.w3.org/2000/svg"><g filter="url(#a)"><rect x="8" y="6" width="75" height="85" rx="5" fill="#212529"/><g clip-path="url(#b)"><path d="m54.912 43.74 1.155-2.92H59.4l-1.582-4.428 1.979-5.004 5.666 15.047h-4.179l-.968-2.695h-5.404Z" fill="#fff" fill-opacity=".91"/><path d="m51.347 45.612 6.066-15.047h-4.022l-4.15 9.724-2.95-9.723h-3.092l-3.169 9.723-2.234-4.43-2.023 6.23 2.054 3.523h3.958l2.863-8.72 2.73 8.72h3.969Z" fill="#771887"/><path d="M29.318 40.447h2.477c.75 0 1.419-.084 2.005-.251l.64-1.974 1.79-5.517a4.377 4.377 0 0 0-.466-.613c-.92-1.018-2.265-1.526-4.036-1.526H25.5v15.046h3.818v-5.165Zm3.279-6.42c.359.362.538.846.538 1.451 0 .61-.158 1.095-.473 1.453-.347.398-.984.597-1.913.597h-1.431v-4.043h1.442c.865 0 1.478.18 1.837.542Z" fill="#fff" fill-opacity=".91"/></g><path d="M33.497 74.5a.292.292 0 0 1-.216-.084.292.292 0 0 1-.084-.216v-7.8c0-.088.028-.16.084-.216a.292.292 0 0 1 .216-.084h3.36c.664 0 1.24.104 1.728.312.496.2.88.504 1.152.912.28.408.42.924.42 1.548 0 .616-.14 1.124-.42 1.524-.272.4-.656.696-1.152.888-.488.192-1.064.288-1.728.288H35.43V74.2c0 .088-.032.16-.096.216a.292.292 0 0 1-.216.084h-1.62Zm1.896-4.584h1.404c.344 0 .616-.088.816-.264.208-.176.312-.444.312-.804 0-.304-.088-.56-.264-.768-.176-.208-.464-.312-.864-.312h-1.404v2.148Zm7.234 4.584a.438.438 0 0 1-.324-.12.489.489 0 0 1-.144-.276l-1.308-7.668a.107.107 0 0 1-.012-.048v-.036a.23.23 0 0 1 .072-.168.252.252 0 0 1 .18-.084h1.488c.224 0 .348.088.372.264l.78 4.692.864-2.772a.794.794 0 0 1 .12-.204c.056-.08.148-.12.276-.12h.864c.136 0 .232.04.288.12.056.072.092.14.108.204l.864 2.76.78-4.68c.024-.176.148-.264.372-.264h1.488c.072 0 .132.028.18.084a.23.23 0 0 1 .072.168V66.436L48.7 74.104a.489.489 0 0 1-.144.276.438.438 0 0 1-.324.12h-1.14c-.136 0-.24-.036-.312-.108a.601.601 0 0 1-.144-.204l-1.212-3.432-1.212 3.432a.601.601 0 0 1-.144.204c-.064.072-.164.108-.3.108h-1.14Zm7.786 0a.272.272 0 0 1-.18-.072.272.272 0 0 1-.072-.18c0-.04.004-.076.012-.108l2.82-7.704a.464.464 0 0 1 .144-.228.466.466 0 0 1 .324-.108h1.776c.136 0 .24.036.312.108.08.064.132.14.156.228l2.808 7.704a.238.238 0 0 1 .024.108.252.252 0 0 1-.084.18.244.244 0 0 1-.18.072h-1.476c-.12 0-.212-.028-.276-.084a.528.528 0 0 1-.108-.168l-.468-1.224H52.74l-.456 1.224a.528.528 0 0 1-.108.168c-.056.056-.152.084-.288.084h-1.476Zm2.82-3.204h2.232l-1.128-3.168-1.104 3.168Z" fill="#fff"/></g><defs><clipPath id="b"><path fill="#fff" transform="translate(25.5 18.5)" d="M0 0h40v40H0z"/></clipPath><filter id="a" x="0" y="0" width="91" height="101" filterUnits="userSpaceOnUse" color-interpolation-filters="sRGB"><feFlood flood-opacity="0" result="BackgroundImageFix"/><feColorMatrix in="SourceAlpha" values="0 0 0 0 0 0 0 0 0 0 0 0 0 0 0 0 0 0 127 0" result="hardAlpha"/><feOffset dy="2"/><feGaussianBlur stdDeviation="4"/><feColorMatrix values="0 0 0 0 0 0 0 0 0 0 0 0 0 0 0 0 0 0 0.75 0"/><feBlend in2="BackgroundImageFix" result="effect1_dropShadow_505_515"/><feBlend in="SourceGraphic" in2="effect1_dropShadow_505_515" result="shape"/></filter></defs></svg>