<svg width="91" height="101" fill="none" xmlns="http://www.w3.org/2000/svg"><g filter="url(#a)"><rect x="8" y="6" width="75" height="85" rx="5" fill="#212529"/><g clip-path="url(#b)" fill="#61DAFB"><path d="M58.587 32.11c0-1.748-2.19-3.405-5.547-4.433.775-3.422.43-6.144-1.087-7.016-.35-.204-.759-.3-1.205-.3v1.199c.247 0 .447.048.613.14.732.42 1.05 2.017.802 4.073-.06.505-.156 1.038-.274 1.582a26.082 26.082 0 0 0-3.417-.587c-.726-.995-1.48-1.9-2.238-2.69 1.754-1.63 3.4-2.523 4.52-2.523v-1.2c-1.48 0-3.417 1.054-5.375 2.884-1.959-1.819-3.896-2.863-5.375-2.863v1.2c1.113 0 2.765.888 4.519 2.507-.753.791-1.507 1.69-2.222 2.685-1.216.13-2.367.328-3.422.592a16.235 16.235 0 0 1-.28-1.56c-.252-2.056.06-3.654.786-4.079.161-.096.371-.14.619-.14v-1.2c-.452 0-.861.098-1.216.302-1.512.872-1.851 3.589-1.071 7-3.347 1.033-5.526 2.684-5.526 4.428 0 1.748 2.19 3.405 5.547 4.433-.774 3.422-.43 6.144 1.087 7.016.35.204.759.301 1.21.301 1.48 0 3.417-1.054 5.376-2.884 1.958 1.819 3.895 2.863 5.375 2.863.451 0 .86-.097 1.216-.302 1.511-.871 1.85-3.588 1.07-7 3.336-1.027 5.515-2.684 5.515-4.427Zm-7.005-3.588c-.2.694-.447 1.41-.727 2.125a29.062 29.062 0 0 0-1.48-2.55 24.25 24.25 0 0 1 2.207.425Zm-2.464 5.73a28.66 28.66 0 0 1-1.297 2.055 28.013 28.013 0 0 1-4.853.006 28.047 28.047 0 0 1-2.421-4.186 28.66 28.66 0 0 1 2.41-4.202 27.972 27.972 0 0 1 4.853-.006 28.067 28.067 0 0 1 2.421 4.186c-.339.721-.71 1.442-1.113 2.147Zm1.737-.7c.283.702.53 1.416.743 2.142-.705.172-1.447.317-2.217.43a29.755 29.755 0 0 0 1.474-2.571ZM45.4 39.294c-.5-.516-1-1.092-1.496-1.721.484.021.98.037 1.48.037.506 0 1.006-.01 1.496-.037-.462.6-.956 1.174-1.48 1.721Zm-4.003-3.169a24.268 24.268 0 0 1-2.206-.425c.2-.694.447-1.41.726-2.125.221.43.453.861.705 1.291.253.43.511.85.775 1.26Zm3.976-11.196c.5.517 1 1.092 1.496 1.722a33.18 33.18 0 0 0-1.48-.038c-.506 0-1.006.01-1.495.038.461-.6.955-1.175 1.48-1.722Zm-3.981 3.169a29.772 29.772 0 0 0-1.475 2.566 23.033 23.033 0 0 1-.742-2.141 26.087 26.087 0 0 1 2.217-.425Zm-4.87 6.736c-1.904-.812-3.136-1.878-3.136-2.722 0-.845 1.232-1.916 3.136-2.723.463-.199.969-.376 1.49-.543.307 1.054.711 2.152 1.211 3.276a25.473 25.473 0 0 0-1.194 3.26 16.375 16.375 0 0 1-1.507-.548Zm2.895 7.689c-.732-.42-1.05-2.018-.802-4.073.06-.506.156-1.039.275-1.582 1.054.258 2.206.457 3.416.586.727.996 1.48 1.9 2.239 2.69-1.755 1.63-3.4 2.524-4.52 2.524a1.284 1.284 0 0 1-.608-.145Zm12.762-4.1c.253 2.055-.06 3.653-.785 4.078-.162.097-.372.14-.62.14-1.113 0-2.765-.888-4.519-2.507.754-.791 1.507-1.69 2.222-2.685a25.107 25.107 0 0 0 3.422-.592c.124.544.22 1.065.28 1.566Zm2.072-3.589c-.463.2-.969.377-1.49.544A25.857 25.857 0 0 0 51.55 32.1c.495-1.12.893-2.211 1.194-3.26.533.166 1.038.35 1.512.548 1.904.813 3.137 1.878 3.137 2.723-.006.844-1.238 1.915-3.142 2.722Z"/><path d="M45.384 34.57a2.459 2.459 0 1 0 0-4.918 2.459 2.459 0 0 0 0 4.917ZM33.39 48.094h-.811v1.398h-.458v-3.456h1.143c.39 0 .689.089.898.266.21.177.315.435.315.773a.926.926 0 0 1-.175.563c-.116.16-.277.28-.484.358l.811 1.467v.029h-.489l-.75-1.398Zm-.811-.373h.7c.226 0 .406-.059.538-.176a.592.592 0 0 0 .202-.47c0-.213-.064-.377-.192-.49-.127-.115-.31-.172-.55-.174h-.698v1.31Zm3.536 1.818c-.348 0-.632-.114-.85-.342-.218-.23-.327-.535-.327-.918v-.081c0-.255.048-.482.144-.681a1.14 1.14 0 0 1 .409-.47c.175-.114.365-.17.57-.17.333 0 .593.109.778.329.185.22.277.535.277.944v.183h-1.74c.007.253.08.458.221.615a.703.703 0 0 0 .542.233.765.765 0 0 0 .393-.095.99.99 0 0 0 .283-.252l.268.209c-.215.33-.538.496-.968.496Zm-.055-2.302a.584.584 0 0 0-.446.194c-.12.129-.195.309-.223.542h1.286v-.034c-.012-.223-.072-.395-.18-.517a.55.55 0 0 0-.437-.185Zm3.152 2.255a.923.923 0 0 1-.062-.271.98.98 0 0 1-.73.318.914.914 0 0 1-.625-.214.7.7 0 0 1-.242-.545c0-.268.101-.475.304-.622.204-.15.49-.223.859-.223h.427v-.202a.49.49 0 0 0-.138-.366c-.091-.091-.227-.137-.405-.137a.64.64 0 0 0-.394.118c-.106.08-.16.175-.16.288h-.44c0-.129.044-.252.134-.37a.938.938 0 0 1 .37-.286c.157-.069.329-.104.516-.104.296 0 .527.074.695.223.168.147.255.35.261.61v1.182c0 .236.03.423.09.562v.038h-.46Zm-.729-.335a.772.772 0 0 0 .392-.107.647.647 0 0 0 .268-.278v-.527H38.8c-.538 0-.807.158-.807.473a.4.4 0 0 0 .138.322.53.53 0 0 0 .353.117Zm2.817.024a.632.632 0 0 0 .411-.143.5.5 0 0 0 .195-.356h.415a.797.797 0 0 1-.152.42.998.998 0 0 1-.375.318 1.07 1.07 0 0 1-.494.119c-.35 0-.628-.116-.835-.349-.206-.234-.309-.554-.309-.959v-.073c0-.25.046-.473.138-.667.092-.195.223-.346.394-.453.172-.108.376-.162.61-.162.288 0 .527.086.717.259a.922.922 0 0 1 .306.671h-.415a.598.598 0 0 0-.608-.57.617.617 0 0 0-.52.243c-.121.16-.182.392-.182.695v.083c0 .296.06.524.182.684.122.16.296.24.522.24Zm2.11-2.88v.623h.48v.339h-.48v1.592c0 .103.022.18.064.233.043.05.116.076.219.076.05 0 .12-.01.208-.029v.356a1.274 1.274 0 0 1-.337.048c-.196 0-.344-.06-.443-.178-.1-.119-.15-.287-.15-.506v-1.592h-.467v-.34h.467v-.621h.44Zm4.925 3.19h-.458l-1.74-2.662v2.663h-.458v-3.456h.458l1.744 2.675v-2.675h.454v3.456Zm2.326 0a.919.919 0 0 1-.062-.27.98.98 0 0 1-.731.318.913.913 0 0 1-.624-.214.7.7 0 0 1-.242-.545c0-.268.1-.475.303-.622.204-.15.49-.223.86-.223h.427v-.202a.489.489 0 0 0-.138-.366c-.092-.091-.227-.137-.406-.137a.64.64 0 0 0-.394.118c-.106.08-.159.175-.159.288h-.441c0-.129.045-.252.135-.37a.94.94 0 0 1 .37-.286c.157-.069.329-.104.515-.104.296 0 .528.074.696.223.167.147.254.35.26.61v1.182c0 .236.03.423.091.562v.038h-.46Zm-.729-.334a.772.772 0 0 0 .392-.107.647.647 0 0 0 .268-.278v-.527h-.344c-.538 0-.807.158-.807.473a.4.4 0 0 0 .137.322.53.53 0 0 0 .354.117Zm2.383-2.855v.622h.48v.339h-.48v1.592c0 .103.021.18.064.233.043.05.115.076.218.076.05 0 .12-.01.209-.029v.356a1.276 1.276 0 0 1-.337.048c-.196 0-.344-.06-.444-.178-.1-.119-.15-.287-.15-.506v-1.592h-.467v-.34h.468v-.621h.439Zm1.471 3.19h-.439v-2.568h.44v2.568Zm-.475-3.25c0-.07.022-.13.065-.18.044-.049.109-.073.194-.073.086 0 .15.024.195.073a.26.26 0 0 1 .066.18c0 .072-.022.131-.066.178-.044.048-.11.072-.195.072s-.15-.024-.194-.072a.257.257 0 0 1-.065-.178Zm2.027 2.654.636-1.972h.449l-.921 2.568h-.335l-.93-2.568h.449l.652 1.972Zm2.54.643c-.349 0-.632-.114-.85-.342-.218-.23-.328-.535-.328-.918v-.081c0-.255.049-.482.145-.681.098-.201.234-.358.408-.47.176-.114.366-.17.57-.17.334 0 .593.109.779.329.184.22.277.535.277.944v.183h-1.74c.007.253.08.458.221.615a.703.703 0 0 0 .541.233.766.766 0 0 0 .394-.095.993.993 0 0 0 .283-.252l.268.209c-.215.33-.538.496-.968.496Zm-.055-2.302a.584.584 0 0 0-.446.194c-.12.129-.195.309-.223.542h1.286v-.034c-.013-.223-.073-.395-.18-.517a.55.55 0 0 0-.437-.185Z"/></g><path d="M29.091 64.54a.292.292 0 0 1-.216-.084.292.292 0 0 1-.084-.216v-7.8c0-.088.028-.16.084-.216a.292.292 0 0 1 .216-.084h3.264c1.032 0 1.844.24 2.436.72.6.472.9 1.144.9 2.016 0 .568-.14 1.048-.42 1.44a2.554 2.554 0 0 1-1.08.888l1.656 2.952a.299.299 0 0 1 .036.132.252.252 0 0 1-.084.18.244.244 0 0 1-.18.072h-1.584c-.152 0-.264-.036-.336-.108a1.02 1.02 0 0 1-.156-.216l-1.368-2.64H30.94v2.664c0 .088-.028.16-.084.216a.292.292 0 0 1-.216.084h-1.548Zm1.848-4.656h1.392c.376 0 .656-.092.84-.276.192-.184.288-.436.288-.756 0-.312-.092-.564-.276-.756-.176-.192-.46-.288-.852-.288H30.94v2.076Zm8.815 4.776c-.944 0-1.696-.256-2.256-.768-.56-.512-.852-1.272-.876-2.28v-.42c.024-.632.164-1.172.42-1.62a2.58 2.58 0 0 1 1.08-1.032c.464-.24 1.004-.36 1.62-.36.704 0 1.284.14 1.74.42.464.28.812.66 1.044 1.14.232.48.348 1.028.348 1.644v.288c0 .088-.032.16-.096.216a.278.278 0 0 1-.204.084h-3.84V62.056c.008.232.048.444.12.636a.977.977 0 0 0 .336.456.905.905 0 0 0 .552.168c.16 0 .292-.024.396-.072.112-.056.204-.116.276-.18a2.84 2.84 0 0 0 .168-.18.564.564 0 0 1 .168-.144.501.501 0 0 1 .216-.036h1.488a.26.26 0 0 1 .192.072c.056.04.08.1.072.18-.008.136-.076.3-.204.492a2.527 2.527 0 0 1-.564.576c-.24.184-.544.336-.912.456s-.796.18-1.284.18Zm-1.02-3.876h2.028v-.024c0-.256-.04-.48-.12-.672a.881.881 0 0 0-.348-.444.954.954 0 0 0-.552-.156c-.216 0-.4.052-.552.156a1.01 1.01 0 0 0-.336.444c-.08.192-.12.416-.12.672v.024Zm7.137 3.876c-.432 0-.82-.08-1.164-.24a2.145 2.145 0 0 1-.804-.672c-.2-.28-.3-.596-.3-.948 0-.568.232-1.016.696-1.344.464-.336 1.08-.564 1.848-.684l1.5-.228v-.168c0-.288-.06-.508-.18-.66-.12-.152-.34-.228-.66-.228-.224 0-.408.044-.552.132a.942.942 0 0 0-.324.36.345.345 0 0 1-.3.156h-1.344c-.088 0-.156-.024-.204-.072a.243.243 0 0 1-.06-.192c0-.144.052-.308.156-.492.112-.192.28-.38.504-.564.224-.184.512-.336.864-.456s.776-.18 1.272-.18c.52 0 .964.06 1.332.18.368.12.664.288.888.504.232.216.404.472.516.768.112.288.168.608.168.96v3.648c0 .088-.032.16-.096.216a.278.278 0 0 1-.204.084h-1.392a.292.292 0 0 1-.216-.084.292.292 0 0 1-.084-.216v-.42a1.742 1.742 0 0 1-.42.42 2.055 2.055 0 0 1-.624.3c-.232.08-.504.12-.816.12Zm.564-1.368c.232 0 .44-.048.624-.144.192-.104.34-.26.444-.468.112-.216.168-.484.168-.804v-.168l-1.02.18c-.376.064-.652.164-.828.3-.168.128-.252.28-.252.456 0 .136.04.252.12.348.08.096.184.172.312.228.128.048.272.072.432.072Zm7.51 1.368c-.592 0-1.116-.108-1.572-.324a2.646 2.646 0 0 1-1.092-.936c-.264-.416-.408-.912-.432-1.488a7.93 7.93 0 0 1-.012-.48c0-.2.004-.364.012-.492.024-.584.168-1.08.432-1.488a2.537 2.537 0 0 1 1.08-.948c.464-.216.992-.324 1.584-.324.552 0 1.024.08 1.416.24.392.152.712.344.96.576.248.232.432.472.552.72.128.24.196.452.204.636a.259.259 0 0 1-.084.216.32.32 0 0 1-.216.084h-1.524a.31.31 0 0 1-.204-.06.553.553 0 0 1-.132-.18c-.096-.248-.22-.424-.372-.528-.144-.104-.332-.156-.564-.156-.32 0-.568.104-.744.312-.168.208-.26.528-.276.96-.008.32-.008.604 0 .852.016.44.108.76.276.96.176.2.424.3.744.3.248 0 .444-.052.588-.156.144-.104.26-.28.348-.528.04-.08.084-.14.132-.18a.31.31 0 0 1 .204-.06h1.524c.08 0 .152.032.216.096a.228.228 0 0 1 .084.204 1.613 1.613 0 0 1-.12.48 2.543 2.543 0 0 1-.336.564c-.152.2-.352.388-.6.564-.24.168-.532.304-.876.408a4.159 4.159 0 0 1-1.2.156Zm7.402-.12c-.512 0-.956-.08-1.332-.24a1.849 1.849 0 0 1-.852-.768c-.2-.352-.3-.804-.3-1.356v-2.304h-.936a.335.335 0 0 1-.228-.084.292.292 0 0 1-.084-.216V58.6c0-.088.028-.16.084-.216a.335.335 0 0 1 .228-.084h.936v-1.98c0-.088.028-.16.084-.216a.32.32 0 0 1 .216-.084h1.392c.088 0 .16.028.216.084a.292.292 0 0 1 .084.216v1.98h1.5c.088 0 .16.028.216.084a.292.292 0 0 1 .084.216v.972c0 .088-.028.16-.084.216a.292.292 0 0 1-.216.084h-1.5v2.136c0 .272.052.488.156.648.104.16.28.24.528.24h.924c.088 0 .16.028.216.084a.292.292 0 0 1 .084.216v1.044c0 .088-.028.16-.084.216a.292.292 0 0 1-.216.084h-1.116Zm-34.06 13a.292.292 0 0 1-.216-.084.292.292 0 0 1-.085-.216v-7.8c0-.088.029-.16.084-.216a.292.292 0 0 1 .216-.084h1.272c.137 0 .233.032.288.096.064.056.105.1.12.132l2.928 4.62V69.44c0-.088.029-.16.085-.216a.292.292 0 0 1 .215-.084h1.44c.088 0 .16.028.216.084a.292.292 0 0 1 .084.216v7.8a.32.32 0 0 1-.084.216.292.292 0 0 1-.215.084H32.35c-.128 0-.224-.032-.288-.096a1.618 1.618 0 0 1-.107-.132l-2.928-4.44v4.368c0 .088-.029.16-.085.216a.292.292 0 0 1-.215.084h-1.44Zm10.065.12c-.432 0-.82-.08-1.164-.24a2.145 2.145 0 0 1-.805-.672c-.2-.28-.3-.596-.3-.948 0-.568.233-1.016.697-1.344.463-.336 1.08-.564 1.847-.684l1.5-.228v-.168c0-.288-.06-.508-.18-.66-.12-.152-.34-.228-.66-.228-.224 0-.407.044-.551.132a.942.942 0 0 0-.325.36.345.345 0 0 1-.3.156h-1.343c-.089 0-.157-.024-.205-.072a.243.243 0 0 1-.06-.192c0-.144.053-.308.157-.492.112-.192.28-.38.504-.564.224-.184.511-.336.864-.456.352-.12.776-.18 1.272-.18.52 0 .964.06 1.332.18.367.12.663.288.888.504.231.216.403.472.515.768.113.288.169.608.169.96v3.648c0 .088-.032.16-.096.216a.278.278 0 0 1-.204.084H39.51a.292.292 0 0 1-.216-.084.292.292 0 0 1-.084-.216v-.42a1.742 1.742 0 0 1-.42.42 2.055 2.055 0 0 1-.623.3c-.233.08-.505.12-.816.12Zm.564-1.368c.232 0 .44-.048.623-.144.192-.104.34-.26.444-.468.113-.216.169-.484.169-.804v-.168l-1.02.18c-.377.064-.652.164-.828.3-.169.128-.253.28-.253.456 0 .136.04.252.12.348.08.096.184.172.313.228.127.048.271.072.431.072Zm7.787 1.248c-.512 0-.956-.08-1.332-.24a1.849 1.849 0 0 1-.852-.768c-.2-.352-.3-.804-.3-1.356v-2.304h-.936a.335.335 0 0 1-.228-.084.292.292 0 0 1-.084-.216V71.6c0-.088.028-.16.084-.216a.335.335 0 0 1 .228-.084h.936v-1.98c0-.088.028-.16.084-.216a.32.32 0 0 1 .216-.084h1.392c.088 0 .16.028.216.084a.292.292 0 0 1 .084.216v1.98h1.5c.088 0 .16.028.216.084a.292.292 0 0 1 .084.216v.972c0 .088-.028.16-.084.216a.292.292 0 0 1-.216.084h-1.5v2.136c0 .272.052.488.156.648.104.16.28.24.528.24h.924c.088 0 .16.028.216.084a.292.292 0 0 1 .084.216v1.044c0 .088-.028.16-.084.216a.292.292 0 0 1-.216.084h-1.116Zm2.71 0a.292.292 0 0 1-.217-.084.292.292 0 0 1-.084-.216V71.6c0-.088.028-.16.084-.216a.292.292 0 0 1 .216-.084h1.416c.08 0 .148.028.204.084a.274.274 0 0 1 .096.216v5.64c0 .088-.032.16-.096.216a.278.278 0 0 1-.204.084h-1.416ZM48.4 70.4a.292.292 0 0 1-.216-.084.292.292 0 0 1-.084-.216v-1.068c0-.088.028-.16.084-.216a.274.274 0 0 1 .216-.096h1.428c.088 0 .16.032.216.096a.274.274 0 0 1 .096.216V70.1c0 .088-.032.16-.096.216a.292.292 0 0 1-.216.084H48.4Zm5.354 7.14c-.12 0-.208-.028-.264-.084a1.016 1.016 0 0 1-.144-.216l-2.268-5.568a.238.238 0 0 1-.024-.108c0-.072.024-.132.072-.18a.278.278 0 0 1 .204-.084h1.356c.104 0 .184.028.24.084a.399.399 0 0 1 .108.168l1.356 3.684 1.368-3.684a.399.399 0 0 1 .108-.168c.056-.056.136-.084.24-.084h1.356c.072 0 .136.028.192.084a.227.227 0 0 1 .084.18c0 .04-.008.076-.024.108l-2.268 5.568a.64.64 0 0 1-.144.216c-.056.056-.148.084-.276.084h-1.272Zm7.563.12c-.944 0-1.697-.256-2.257-.768s-.852-1.272-.876-2.28v-.42c.025-.632.165-1.172.42-1.62a2.58 2.58 0 0 1 1.08-1.032c.465-.24 1.005-.36 1.62-.36.704 0 1.285.14 1.74.42.465.28.813.66 1.044 1.14.233.48.349 1.028.349 1.644v.288c0 .088-.032.16-.096.216a.278.278 0 0 1-.204.084h-3.84V75.056c.008.232.047.444.12.636a.977.977 0 0 0 .335.456.905.905 0 0 0 .552.168c.16 0 .292-.024.396-.072.112-.056.204-.116.276-.18a2.84 2.84 0 0 0 .169-.18.564.564 0 0 1 .167-.144.501.501 0 0 1 .217-.036h1.487a.26.26 0 0 1 .192.072c.056.04.08.1.073.18-.009.136-.077.3-.205.492a2.527 2.527 0 0 1-.563.576c-.24.184-.544.336-.913.456-.367.12-.796.18-1.284.18Zm-1.02-3.876h2.028v-.024c0-.256-.04-.48-.12-.672a.881.881 0 0 0-.349-.444.954.954 0 0 0-.552-.156c-.215 0-.4.052-.552.156a1.01 1.01 0 0 0-.336.444c-.08.192-.12.416-.12.672v.024Z" fill="#fff"/></g><defs><clipPath id="b"><path fill="#fff" transform="translate(25.5 17.46)" d="M0 0h40v32.08H0z"/></clipPath><filter id="a" x="0" y="0" width="91" height="101" filterUnits="userSpaceOnUse" color-interpolation-filters="sRGB"><feFlood flood-opacity="0" result="BackgroundImageFix"/><feColorMatrix in="SourceAlpha" values="0 0 0 0 0 0 0 0 0 0 0 0 0 0 0 0 0 0 127 0" result="hardAlpha"/><feOffset dy="2"/><feGaussianBlur stdDeviation="4"/><feColorMatrix values="0 0 0 0 0 0 0 0 0 0 0 0 0 0 0 0 0 0 0.75 0"/><feBlend in2="BackgroundImageFix" result="effect1_dropShadow_505_216"/><feBlend in="SourceGraphic" in2="effect1_dropShadow_505_216" result="shape"/></filter></defs></svg>