<svg width="91" height="101" fill="none" xmlns="http://www.w3.org/2000/svg"><g filter="url(#a)"><rect x="8" y="6" width="75" height="85" rx="5" fill="#212529"/><path fill-rule="evenodd" clip-rule="evenodd" d="m58.313 26.234-6.485 12.344 6.484 12.344 2.657-1.484v-21.72l-2.657-1.484Z" fill="#E25444"/><path fill-rule="evenodd" clip-rule="evenodd" d="m58.313 26.234-12.97 1.485-6.6 10.86 6.6 10.858 12.97 1.485V26.234Z" fill="#7B1D13"/><path fill-rule="evenodd" clip-rule="evenodd" d="m32.14 26.234-2.109.938v22.812l2.11.938 13.203-12.344L32.14 26.234Z" fill="#58150D"/><path fill-rule="evenodd" clip-rule="evenodd" d="m32.112 26.208 13.25 3.68v17.71l-13.25 3.332V26.208Z" fill="#E25444"/><path fill-rule="evenodd" clip-rule="evenodd" d="m45.368 31.834-5.625-.903 5.625-6.39 5.612 6.39-5.612.902Z" fill="#58150D"/><path fill-rule="evenodd" clip-rule="evenodd" d="m50.98 30.93-5.619.917-5.618-.916v-6.39M45.368 45.236l-5.625 1.042 5.625 5.486 5.612-5.486-5.612-1.042Z" fill="#58150D"/><path fill-rule="evenodd" clip-rule="evenodd" d="m45.344 19.75-5.625 2.969v8.203l5.642-1.589-.017-9.583ZM45.361 33.847l-5.618.611v8.19l5.618.644v-9.445ZM45.361 47.667l-5.618-1.41v8.053l5.618 2.94v-9.583Z" fill="#7B1D13"/><path fill-rule="evenodd" clip-rule="evenodd" d="m50.98 46.258-5.619 1.409v9.583l5.619-2.94v-8.052ZM45.361 33.847l5.619.611v8.19l-5.619.644v-9.445ZM45.344 19.75l5.625 2.969v8.203l-5.625-1.563V19.75Z" fill="#E25444"/><path d="M41.544 74.62c-.8 0-1.464-.112-1.992-.336-.528-.232-.928-.532-1.2-.9a2.084 2.084 0 0 1-.432-1.176.23.23 0 0 1 .072-.168.264.264 0 0 1 .192-.084h1.512c.112 0 .196.02.252.06a.62.62 0 0 1 .168.156c.064.12.152.236.264.348.12.112.272.204.456.276.192.064.428.096.708.096.464 0 .812-.072 1.044-.216.24-.144.36-.34.36-.588a.548.548 0 0 0-.192-.432c-.128-.12-.336-.224-.624-.312a9.384 9.384 0 0 0-1.128-.288 7.324 7.324 0 0 1-1.56-.492c-.424-.208-.748-.476-.972-.804-.224-.336-.336-.752-.336-1.248 0-.488.136-.924.408-1.308.28-.384.668-.684 1.164-.9.496-.216 1.084-.324 1.764-.324.552 0 1.036.072 1.452.216.424.144.78.336 1.068.576.288.24.504.496.648.768.152.264.232.524.24.78a.272.272 0 0 1-.072.18.244.244 0 0 1-.18.072h-1.584a.504.504 0 0 1-.228-.048.442.442 0 0 1-.168-.156c-.048-.176-.176-.328-.384-.456-.2-.136-.464-.204-.792-.204-.352 0-.628.064-.828.192-.192.12-.288.308-.288.564 0 .16.052.3.156.42.112.12.292.224.54.312.256.088.604.18 1.044.276.728.136 1.316.308 1.764.516.448.2.776.464.984.792.208.32.312.724.312 1.212 0 .544-.156 1.016-.468 1.416-.304.392-.728.692-1.272.9-.544.208-1.168.312-1.872.312Zm7.874 0c-.624 0-1.156-.072-1.596-.216-.44-.152-.8-.344-1.08-.576a2.551 2.551 0 0 1-.624-.756 1.884 1.884 0 0 1-.216-.78c0-.072.024-.132.072-.18a.287.287 0 0 1 .192-.072h1.56c.096 0 .172.02.228.06a.458.458 0 0 1 .156.168.927.927 0 0 0 .276.372c.128.096.28.164.456.204.176.032.368.048.576.048.408 0 .724-.092.948-.276.232-.192.348-.452.348-.78 0-.344-.108-.588-.324-.732-.216-.152-.524-.228-.924-.228h-1.332a.292.292 0 0 1-.216-.084.292.292 0 0 1-.084-.216v-.672a.51.51 0 0 1 .192-.408l1.968-1.668h-3.336a.32.32 0 0 1-.216-.084.292.292 0 0 1-.084-.216V66.4c0-.088.028-.16.084-.216a.32.32 0 0 1 .216-.084h5.52c.088 0 .16.028.216.084a.274.274 0 0 1 .096.216v1.02a.486.486 0 0 1-.192.396l-1.824 1.692.084.024c.456.056.864.18 1.224.372.36.184.644.444.852.78.208.336.312.764.312 1.284 0 .544-.156 1.016-.468 1.416-.304.392-.72.696-1.248.912-.528.216-1.132.324-1.812.324Z" fill="#fff"/></g><defs><filter id="a" x="0" y="0" width="91" height="101" filterUnits="userSpaceOnUse" color-interpolation-filters="sRGB"><feFlood flood-opacity="0" result="BackgroundImageFix"/><feColorMatrix in="SourceAlpha" values="0 0 0 0 0 0 0 0 0 0 0 0 0 0 0 0 0 0 127 0" result="hardAlpha"/><feOffset dy="2"/><feGaussianBlur stdDeviation="4"/><feColorMatrix values="0 0 0 0 0 0 0 0 0 0 0 0 0 0 0 0 0 0 0.75 0"/><feBlend in2="BackgroundImageFix" result="effect1_dropShadow_505_1468"/><feBlend in="SourceGraphic" in2="effect1_dropShadow_505_1468" result="shape"/></filter></defs></svg>