<svg width="91" height="101" fill="none" xmlns="http://www.w3.org/2000/svg"><g filter="url(#a)"><rect x="8" y="6" width="75" height="85" rx="5" fill="#212529"/><g clip-path="url(#b)"><path d="M57.799 31.252v14.404l-12.24 7.242-.11.1v5.384l.11.105 17.238-9.958V28.457l-.163-.04-4.86 2.717.025.118Z" fill="#2F406A"/><path d="m33.28 45.774 12.279 7.124v5.588L28.203 48.49V28.497l.178-.027 4.846 2.817.053.161v14.326Z" fill="#2379BD"/><path d="m33.28 31.448-5.077-2.951L45.52 18.5l17.277 9.957-4.998 2.795-12.28-7.006-12.24 7.202Z" fill="#03AFEF"/><path d="m45.348 44.127-.133-.136v-5.409l.133-.069.033-.133 4.637-2.705.142.032v5.573l-4.812 2.847Z" fill="#2F406A"/><path d="M40.456 41.454v-5.787l.135-.007 4.717 2.745.04.108v5.614l-4.892-2.673Z" fill="#2379BD"/><path d="m45.268 32.82-4.812 2.847 4.892 2.846 4.812-2.806-4.892-2.887Z" fill="#03AFEF"/><path d="m39.36 47.655-.132-.135v-5.41l.133-.068.032-.133 4.637-2.705.142.031v5.574l-4.811 2.846Z" fill="#2F406A"/><path d="M34.47 44.982v-5.787l.134-.007 4.717 2.746.04.108v5.613l-4.892-2.673Z" fill="#2379BD"/><path d="m39.28 36.349-4.81 2.846 4.89 2.847 4.812-2.807-4.891-2.886Z" fill="#03AFEF"/><path d="m51.763 47.789-.133-.136v-5.409l.133-.069.033-.133 4.637-2.705.142.032v5.573l-4.812 2.847Z" fill="#2F406A"/><path d="M46.872 45.116v-5.787l.135-.007 4.717 2.745.04.109v5.613l-4.892-2.673Z" fill="#2379BD"/><path d="m51.683 36.482-4.81 2.847 4.89 2.847 4.812-2.807-4.892-2.887Z" fill="#03AFEF"/><path d="m45.776 51.317-.133-.136v-5.409l.133-.068.032-.134 4.638-2.705.141.032v5.573l-4.811 2.847Z" fill="#2F406A"/><path d="M40.884 48.644v-5.787l.135-.006 4.717 2.745.04.108v5.613l-4.892-2.673Z" fill="#2379BD"/><path d="m45.696 40.01-4.812 2.847 4.892 2.847 4.811-2.807-4.891-2.886Z" fill="#03AFEF"/><path d="m45.348 36.456-.133-.136v-5.41l.133-.068.033-.133 4.637-2.705.142.032v5.573l-4.812 2.846Z" fill="#2F406A"/><path d="M40.456 33.782v-5.787l.135-.006 4.717 2.745.04.108v5.613l-4.892-2.673Z" fill="#2379BD"/><path d="m45.268 25.149-4.812 2.846 4.892 2.847 4.812-2.806-4.892-2.887Z" fill="#03AFEF"/><path d="m39.36 39.984-.132-.136v-5.409l.133-.069.032-.133 4.637-2.705.142.032v5.573l-4.811 2.847Z" fill="#2F406A"/><path d="M34.47 37.31v-5.786l.134-.007 4.717 2.745.04.108v5.614l-4.892-2.673Z" fill="#2379BD"/><path d="m39.28 28.677-4.81 2.847 4.89 2.846 4.812-2.806-4.891-2.887Z" fill="#03AFEF"/><path d="m51.763 40.117-.133-.135v-5.41l.133-.068.033-.133 4.637-2.705.142.032v5.573l-4.812 2.846Z" fill="#2F406A"/><path d="M46.872 37.444v-5.787l.135-.006 4.717 2.745.04.108v5.613l-4.892-2.673Z" fill="#2379BD"/><path d="m51.683 28.81-4.81 2.848 4.89 2.846 4.812-2.806-4.892-2.887Z" fill="#03AFEF"/><path d="m45.776 43.646-.133-.136v-5.409l.133-.069.032-.133 4.638-2.705.141.032v5.573l-4.811 2.847Z" fill="#2F406A"/><path d="M40.884 40.973v-5.787l.135-.007 4.717 2.745.04.108v5.614l-4.892-2.673Z" fill="#2379BD"/><path d="m45.696 32.339-4.812 2.847 4.892 2.846 4.811-2.806-4.891-2.887Z" fill="#03AFEF"/></g><path d="M20.17 74.62c-.8 0-1.465-.112-1.993-.336-.528-.232-.928-.532-1.2-.9a2.084 2.084 0 0 1-.432-1.176.23.23 0 0 1 .072-.168.264.264 0 0 1 .192-.084h1.512c.112 0 .196.02.252.06a.62.62 0 0 1 .168.156c.064.12.152.236.264.348.12.112.272.204.456.276.192.064.428.096.708.096.464 0 .812-.072 1.044-.216.24-.144.36-.34.36-.588a.548.548 0 0 0-.192-.432c-.128-.12-.336-.224-.624-.312a9.384 9.384 0 0 0-1.128-.288 7.324 7.324 0 0 1-1.56-.492c-.424-.208-.748-.476-.972-.804-.224-.336-.336-.752-.336-1.248 0-.488.136-.924.408-1.308.28-.384.668-.684 1.164-.9.496-.216 1.084-.324 1.764-.324.552 0 1.036.072 1.452.216.424.144.78.336 1.068.576.288.24.504.496.648.768.152.264.232.524.24.78a.272.272 0 0 1-.072.18.244.244 0 0 1-.18.072H21.67a.504.504 0 0 1-.228-.048.442.442 0 0 1-.168-.156c-.048-.176-.176-.328-.384-.456-.2-.136-.464-.204-.792-.204-.352 0-.628.064-.828.192-.192.12-.288.308-.288.564 0 .16.052.3.156.42.112.12.292.224.54.312.256.088.604.18 1.044.276.728.136 1.316.308 1.764.516.448.2.776.464.984.792.208.32.312.724.312 1.212 0 .544-.156 1.016-.468 1.416-.304.392-.728.692-1.272.9-.544.208-1.168.312-1.872.312Zm7.56 0c-.943 0-1.695-.256-2.255-.768-.56-.512-.852-1.272-.876-2.28v-.42c.024-.632.164-1.172.42-1.62a2.58 2.58 0 0 1 1.08-1.032c.464-.24 1.004-.36 1.62-.36.704 0 1.284.14 1.74.42.464.28.812.66 1.044 1.14.232.48.348 1.028.348 1.644v.288c0 .088-.032.16-.096.216a.278.278 0 0 1-.204.084h-3.84V72.016c.008.232.048.444.12.636a.977.977 0 0 0 .336.456.905.905 0 0 0 .552.168c.16 0 .292-.024.396-.072.112-.056.204-.116.276-.18a2.84 2.84 0 0 0 .168-.18.564.564 0 0 1 .168-.144.501.501 0 0 1 .216-.036h1.488a.26.26 0 0 1 .192.072c.056.04.08.1.072.18-.008.136-.076.3-.204.492a2.527 2.527 0 0 1-.564.576c-.24.184-.544.336-.912.456s-.796.18-1.284.18Zm-1.02-3.876h2.029v-.024c0-.256-.04-.48-.12-.672a.881.881 0 0 0-.348-.444.954.954 0 0 0-.552-.156c-.216 0-.4.052-.552.156a1.01 1.01 0 0 0-.336.444c-.08.192-.12.416-.12.672v.024Zm9.658 6.036a.292.292 0 0 1-.216-.084.292.292 0 0 1-.084-.216v-2.664a1.886 1.886 0 0 1-.72.6 2.45 2.45 0 0 1-1.032.204 2.76 2.76 0 0 1-1.056-.192 2.27 2.27 0 0 1-.792-.564 2.543 2.543 0 0 1-.504-.876 3.972 3.972 0 0 1-.204-1.164 8.935 8.935 0 0 1 0-.888c.024-.448.096-.844.216-1.188s.288-.636.504-.876c.216-.24.476-.42.78-.54a2.76 2.76 0 0 1 1.056-.192c.448 0 .824.084 1.128.252.304.16.548.364.732.612v-.444c0-.088.028-.16.084-.216a.32.32 0 0 1 .216-.084h1.356c.088 0 .16.028.216.084a.292.292 0 0 1 .084.216v7.92c0 .088-.028.16-.084.216a.292.292 0 0 1-.216.084h-1.464Zm-1.404-3.768c.248 0 .452-.052.612-.156.16-.112.28-.252.36-.42.08-.176.124-.364.132-.564a4.242 4.242 0 0 0 0-.9 1.82 1.82 0 0 0-.12-.6.954.954 0 0 0-.348-.444c-.16-.12-.372-.18-.636-.18s-.476.056-.636.168a.977.977 0 0 0-.336.456 2.565 2.565 0 0 0-.12.636 5.772 5.772 0 0 0 0 .744c.016.232.056.444.12.636a.977.977 0 0 0 .336.456c.16.112.372.168.636.168Zm6.874 1.608c-.456 0-.864-.104-1.224-.312a2.138 2.138 0 0 1-.828-.912c-.2-.408-.3-.904-.3-1.488V68.56c0-.088.028-.16.084-.216a.292.292 0 0 1 .216-.084h1.5c.088 0 .16.028.216.084a.292.292 0 0 1 .084.216v3.276c0 .784.352 1.176 1.056 1.176.328 0 .588-.1.78-.3.2-.208.3-.5.3-.876V68.56c0-.088.028-.16.084-.216a.292.292 0 0 1 .216-.084h1.5c.088 0 .16.028.216.084a.292.292 0 0 1 .084.216v5.64c0 .088-.028.16-.084.216a.292.292 0 0 1-.216.084H44.13a.32.32 0 0 1-.216-.084.292.292 0 0 1-.084-.216v-.456c-.208.288-.48.508-.816.66-.328.144-.72.216-1.176.216Zm8.275 0c-.944 0-1.696-.256-2.256-.768-.56-.512-.852-1.272-.876-2.28v-.42c.024-.632.164-1.172.42-1.62a2.58 2.58 0 0 1 1.08-1.032c.464-.24 1.004-.36 1.62-.36.704 0 1.284.14 1.74.42.464.28.812.66 1.044 1.14.232.48.348 1.028.348 1.644v.288c0 .088-.032.16-.096.216a.278.278 0 0 1-.204.084h-3.84V72.016c.008.232.048.444.12.636a.977.977 0 0 0 .336.456.905.905 0 0 0 .552.168c.16 0 .292-.024.396-.072.112-.056.204-.116.276-.18a2.84 2.84 0 0 0 .168-.18.564.564 0 0 1 .168-.144.501.501 0 0 1 .216-.036h1.488a.26.26 0 0 1 .192.072c.056.04.08.1.072.18-.008.136-.076.3-.204.492a2.527 2.527 0 0 1-.564.576c-.24.184-.544.336-.912.456s-.796.18-1.284.18Zm-1.02-3.876h2.028v-.024c0-.256-.04-.48-.12-.672a.881.881 0 0 0-.348-.444.954.954 0 0 0-.552-.156c-.216 0-.4.052-.552.156a1.01 1.01 0 0 0-.336.444c-.08.192-.12.416-.12.672v.024Zm5.565 3.756a.292.292 0 0 1-.216-.084.292.292 0 0 1-.084-.216v-7.92c0-.088.028-.16.084-.216a.292.292 0 0 1 .216-.084h1.416c.088 0 .16.028.216.084a.292.292 0 0 1 .084.216v7.92c0 .088-.028.16-.084.216a.292.292 0 0 1-.216.084h-1.416Zm3.844 0a.292.292 0 0 1-.216-.084.292.292 0 0 1-.084-.216v-5.64c0-.088.028-.16.084-.216a.292.292 0 0 1 .216-.084h1.416c.08 0 .148.028.204.084a.274.274 0 0 1 .096.216v5.64c0 .088-.032.16-.096.216a.278.278 0 0 1-.204.084h-1.416Zm-.012-7.14a.292.292 0 0 1-.216-.084.292.292 0 0 1-.084-.216v-1.068c0-.088.028-.16.084-.216a.274.274 0 0 1 .216-.096h1.428c.088 0 .16.032.216.096a.274.274 0 0 1 .096.216v1.068c0 .088-.032.16-.096.216a.292.292 0 0 1-.216.084H58.49Zm3.381 7.14a.32.32 0 0 1-.216-.084.292.292 0 0 1-.084-.216v-.936c0-.088.016-.164.048-.228.04-.064.088-.124.144-.18l2.808-3.048H61.98a.335.335 0 0 1-.228-.084.292.292 0 0 1-.084-.216v-.948c0-.088.028-.16.084-.216a.335.335 0 0 1 .228-.084h4.824c.08 0 .148.028.204.084a.274.274 0 0 1 .096.216v1.02a.38.38 0 0 1-.048.192 1.092 1.092 0 0 1-.12.168L64.2 72.952h2.844c.088 0 .16.028.216.084a.292.292 0 0 1 .084.216v.948c0 .088-.028.16-.084.216a.292.292 0 0 1-.216.084h-5.172Zm9.395.12c-.944 0-1.696-.256-2.256-.768-.56-.512-.852-1.272-.876-2.28v-.42c.024-.632.164-1.172.42-1.62a2.58 2.58 0 0 1 1.08-1.032c.464-.24 1.004-.36 1.62-.36.704 0 1.284.14 1.74.42.464.28.812.66 1.044 1.14.232.48.348 1.028.348 1.644v.288c0 .088-.032.16-.096.216a.278.278 0 0 1-.204.084h-3.84V72.016c.008.232.048.444.12.636a.977.977 0 0 0 .336.456.905.905 0 0 0 .552.168c.16 0 .292-.024.396-.072.112-.056.204-.116.276-.18a2.84 2.84 0 0 0 .168-.18.564.564 0 0 1 .168-.144.501.501 0 0 1 .216-.036h1.488a.26.26 0 0 1 .192.072c.056.04.08.1.072.18-.008.136-.076.3-.204.492a2.527 2.527 0 0 1-.564.576c-.24.184-.544.336-.912.456s-.796.18-1.284.18Zm-1.02-3.876h2.028v-.024c0-.256-.04-.48-.12-.672a.881.881 0 0 0-.348-.444.954.954 0 0 0-.552-.156c-.216 0-.4.052-.552.156a1.01 1.01 0 0 0-.336.444c-.08.192-.12.416-.12.672v.024Z" fill="#fff"/></g><defs><clipPath id="b"><path fill="#fff" transform="translate(28.203 18.5)" d="M0 0h34.595v40H0z"/></clipPath><filter id="a" x="0" y="0" width="91" height="101" filterUnits="userSpaceOnUse" color-interpolation-filters="sRGB"><feFlood flood-opacity="0" result="BackgroundImageFix"/><feColorMatrix in="SourceAlpha" values="0 0 0 0 0 0 0 0 0 0 0 0 0 0 0 0 0 0 127 0" result="hardAlpha"/><feOffset dy="2"/><feGaussianBlur stdDeviation="4"/><feColorMatrix values="0 0 0 0 0 0 0 0 0 0 0 0 0 0 0 0 0 0 0.75 0"/><feBlend in2="BackgroundImageFix" result="effect1_dropShadow_505_905"/><feBlend in="SourceGraphic" in2="effect1_dropShadow_505_905" result="shape"/></filter></defs></svg>