<svg width="91" height="101" fill="none" xmlns="http://www.w3.org/2000/svg"><g filter="url(#a)"><rect x="8" y="6" width="75" height="85" rx="5" fill="#212529"/><g clip-path="url(#b)"><path d="M39.88 29.677h-.608v.607h.608v-.607ZM39.88 34.842h-.608v.607h.608v-.607ZM39.88 32.209h-.608v.607h.608v-.608ZM46.665 27.347h-7.393v.608h7.393v-.608ZM46.665 29.677h-6.48v.607h6.48v-.607ZM46.665 32.209h-6.48v.607h6.48v-.608ZM46.665 34.842h-6.48v.607h6.48v-.607Z" fill="#8F8F8F"/><path d="M47.17 25.525a.507.507 0 0 1 .507.506v10.43a.507.507 0 0 1-.506.508h-8.506a.508.508 0 0 1-.507-.507V26.03a.506.506 0 0 1 .507-.505h8.506Zm0-.406h-8.505a.911.911 0 0 0-.912.912v10.43a.911.911 0 0 0 .912.912h8.506a.911.911 0 0 0 .911-.911V26.03a.911.911 0 0 0-.911-.91ZM39.88 43.854h-.608v.607h.608v-.607ZM39.88 46.385h-.608v.608h.608v-.608ZM39.88 49.018h-.608v.608h.608v-.608ZM46.665 41.525h-7.393v.608h7.393v-.608ZM46.665 43.859h-6.48v.597h6.48v-.597ZM46.665 49.023h-6.48v.598h6.48v-.598ZM46.665 46.39h-6.48v.598h6.48v-.598Z" fill="#8F8F8F"/><path d="M47.17 39.702a.507.507 0 0 1 .507.506v10.431a.507.507 0 0 1-.506.504h-8.506a.507.507 0 0 1-.507-.507V40.205a.507.507 0 0 1 .507-.506h8.506v.003Zm0-.409h-8.505a.911.911 0 0 0-.912.912v10.431a.911.911 0 0 0 .912.911h8.506a.911.911 0 0 0 .911-.911V40.205a.911.911 0 0 0-.911-.905v-.007ZM52.538 31.297H49.5v.506h3.038V45.17H49.5v.507H53.044v-14.38h-.506Z" fill="#8F8F8F"/><path d="M30.413 50.863c.081-.058.165-.112.25-.164-.007-2.218-.026-6.334-.096-8.402 0-1.357 0-3.183-2.86-3.777 2.857-.594 2.86-2.419 2.86-3.777.079-2.274.093-7.03.097-9.007-.05-.033-.101-.064-.15-.1-1.078-.768-1.71-1.99-1.903-3.424-.344.563-.561 1.26-.58 2.124-.092 4.44-.269 9.552-.299 10.407-.071 1.923-1.248 2.29-1.863 2.349a4.085 4.085 0 0 1-.369.004v2.849c.131-.005.253 0 .369 0 .615.06 1.792.426 1.863 2.348.03.854.207 5.968.3 10.407.002.653.154 1.297.444 1.883.14-1.558.784-2.891 1.937-3.72Z" fill="#EF312D"/><path d="M30.514 25.637c.049.035.1.066.15.098v-.893s-.405-2.936 3.848-2.532V19.88s-4.314-.273-5.902 2.332c.194 1.434.826 2.657 1.904 3.426ZM34.513 57.16v-2.431c-4.254.404-3.848-2.532-3.848-2.532v-1.5a4.925 4.925 0 0 0-.25.165c-1.155.83-1.798 2.163-1.94 3.727 1.465 2.861 6.038 2.571 6.038 2.571Z" fill="#F6AD53"/><path d="M65.132 37.05c-.616-.06-1.793-.425-1.864-2.347-.03-.854-.207-5.968-.3-10.408a4.367 4.367 0 0 0-.346-1.676c-.214 1.373-.84 2.54-1.883 3.288-.129.091-.263.175-.401.251.005 2.18.024 6.432.095 8.545 0 1.357 0 3.182 2.86 3.776-2.857.594-2.86 2.42-2.86 3.777-.07 2.122-.09 6.397-.095 8.569.174.091.342.194.503.308.984.706 1.596 1.784 1.843 3.059.184-.489.28-1.006.285-1.528.092-4.44.27-9.554.3-10.407.07-1.922 1.247-2.288 1.863-2.348.116-.006.235-.009.368-.004v-2.85c-.13.004-.252.002-.368-.004Z" fill="#EF312D"/><path d="M62.621 22.619c-1.343-3.084-6.134-2.78-6.134-2.78v2.431c4.254-.404 3.848 2.532 3.848 2.532v1.357c.138-.076.273-.16.402-.25 1.045-.75 1.671-1.917 1.884-3.29ZM60.84 51.133a4.301 4.301 0 0 0-.502-.308v1.333s.405 2.937-3.848 2.532v2.431s4.94.314 6.196-2.927c-.245-1.277-.861-2.356-1.846-3.06Z" fill="#F6AD53"/></g><path d="M20.65 73.169a.292.292 0 0 1-.216-.084.292.292 0 0 1-.084-.216v-6.216h-2.136a.292.292 0 0 1-.216-.084.32.32 0 0 1-.084-.216v-1.284c0-.088.028-.16.084-.216a.292.292 0 0 1 .216-.084h6.456c.088 0 .16.028.216.084a.292.292 0 0 1 .084.216v1.284a.32.32 0 0 1-.084.216.292.292 0 0 1-.216.084h-2.136v6.216c0 .088-.028.16-.084.216a.292.292 0 0 1-.216.084H20.65Zm5.939 2.28a.244.244 0 0 1-.252-.252v-.072a.658.658 0 0 1 .036-.084l.936-2.256-2.304-5.448a.378.378 0 0 1-.036-.144.358.358 0 0 1 .096-.18.227.227 0 0 1 .18-.084h1.368c.104 0 .18.028.228.084a.322.322 0 0 1 .108.168l1.38 3.492 1.404-3.492a.64.64 0 0 1 .12-.168c.056-.056.136-.084.24-.084h1.344c.072 0 .132.028.18.084a.216.216 0 0 1 .084.168.47.47 0 0 1-.036.156l-3.396 7.86a.409.409 0 0 1-.12.168c-.056.056-.136.084-.24.084h-1.32Zm6.296 0a.292.292 0 0 1-.216-.084.292.292 0 0 1-.084-.216v-7.92c0-.088.028-.16.084-.216a.292.292 0 0 1 .216-.084h1.356c.08 0 .148.028.204.084a.274.274 0 0 1 .096.216v.444c.184-.248.428-.452.732-.612.304-.168.68-.252 1.128-.252.4 0 .752.064 1.056.192.304.12.564.3.78.54.216.24.384.532.504.876.128.344.2.74.216 1.188a8.935 8.935 0 0 1 0 .888c-.016.432-.084.82-.204 1.164-.12.344-.288.636-.504.876a2.27 2.27 0 0 1-.792.564 2.704 2.704 0 0 1-1.056.192 2.45 2.45 0 0 1-1.032-.204 2.013 2.013 0 0 1-.72-.6v2.664c0 .088-.028.16-.084.216a.292.292 0 0 1-.216.084h-1.464Zm2.868-3.768c.272 0 .484-.056.636-.168a.905.905 0 0 0 .324-.456c.072-.192.116-.404.132-.636a5.772 5.772 0 0 0 0-.744 2.243 2.243 0 0 0-.132-.636.905.905 0 0 0-.324-.456c-.152-.112-.364-.168-.636-.168-.264 0-.476.06-.636.18a.954.954 0 0 0-.348.444 1.82 1.82 0 0 0-.12.6 8.451 8.451 0 0 0 0 .9c.008.2.052.388.132.564.08.168.2.308.36.42.16.104.364.156.612.156Zm7.282 1.608c-.944 0-1.696-.256-2.256-.768-.56-.512-.852-1.272-.876-2.28v-.42c.024-.632.164-1.172.42-1.62a2.58 2.58 0 0 1 1.08-1.032c.464-.24 1.004-.36 1.62-.36.704 0 1.284.14 1.74.42.464.28.812.66 1.044 1.14.232.48.348 1.028.348 1.644v.288c0 .088-.032.16-.096.216a.278.278 0 0 1-.204.084h-3.84V70.685c.008.232.048.444.12.636a.977.977 0 0 0 .336.456.905.905 0 0 0 .552.168c.16 0 .292-.024.396-.072.112-.056.204-.116.276-.18a2.84 2.84 0 0 0 .168-.18.564.564 0 0 1 .168-.144.501.501 0 0 1 .216-.036h1.488a.26.26 0 0 1 .192.072c.056.04.08.1.072.18-.008.136-.076.3-.204.492a2.527 2.527 0 0 1-.564.576c-.24.184-.544.336-.912.456s-.796.18-1.284.18Zm-1.02-3.876h2.028v-.024c0-.256-.04-.48-.12-.672a.881.881 0 0 0-.348-.444.954.954 0 0 0-.552-.156c-.216 0-.4.052-.552.156a1.01 1.01 0 0 0-.336.444c-.08.192-.12.416-.12.672v.024Zm8.83 3.876c-.737 0-1.377-.12-1.92-.36-.545-.24-.969-.6-1.273-1.08-.304-.488-.472-1.096-.504-1.824a44.387 44.387 0 0 1 0-2.076c.032-.72.2-1.324.504-1.812.312-.496.74-.868 1.284-1.116.544-.248 1.18-.372 1.908-.372.72 0 1.352.124 1.896.372.552.248.984.62 1.296 1.116.312.488.48 1.092.504 1.812a22.991 22.991 0 0 1 0 2.076c-.032.728-.2 1.336-.504 1.824-.304.48-.728.84-1.272 1.08-.544.24-1.184.36-1.92.36Zm0-1.728c.423 0 .767-.128 1.031-.384.272-.256.416-.664.432-1.224a20.454 20.454 0 0 0 0-1.968c-.016-.376-.088-.68-.216-.912a1.154 1.154 0 0 0-.504-.528 1.593 1.593 0 0 0-.744-.168c-.272 0-.516.056-.732.168a1.22 1.22 0 0 0-.516.528c-.128.232-.2.536-.216.912a40.877 40.877 0 0 0 0 1.968c.024.56.168.968.432 1.224s.608.384 1.032.384Zm5.41 1.608a.292.292 0 0 1-.216-.084.292.292 0 0 1-.084-.216v-7.8c0-.088.028-.16.084-.216a.292.292 0 0 1 .216-.084h3.264c1.032 0 1.844.24 2.436.72.6.472.9 1.144.9 2.016 0 .568-.14 1.048-.42 1.44a2.554 2.554 0 0 1-1.08.888l1.656 2.952a.299.299 0 0 1 .036.132.252.252 0 0 1-.084.18.244.244 0 0 1-.18.072H61.2c-.152 0-.264-.036-.336-.108a1.02 1.02 0 0 1-.156-.216l-1.368-2.64h-1.236v2.664c0 .088-.028.16-.084.216a.292.292 0 0 1-.216.084h-1.548Zm1.848-4.656h1.392c.376 0 .656-.092.84-.276.192-.184.288-.436.288-.756 0-.312-.092-.564-.276-.756-.176-.192-.46-.288-.852-.288h-1.392v2.076Zm6.45 4.656a.32.32 0 0 1-.217-.084.292.292 0 0 1-.084-.216v-7.8c0-.088.028-.16.084-.216a.32.32 0 0 1 .216-.084h1.296c.128 0 .224.036.288.108a.496.496 0 0 1 .132.156l2.112 3.792 2.112-3.792a1.18 1.18 0 0 1 .12-.156c.064-.072.164-.108.3-.108h1.284c.088 0 .16.028.216.084a.274.274 0 0 1 .096.216v7.8c0 .088-.032.16-.096.216a.292.292 0 0 1-.216.084h-1.428a.335.335 0 0 1-.228-.084.292.292 0 0 1-.084-.216v-4.5L69.1 70.877a.552.552 0 0 1-.144.192.387.387 0 0 1-.264.084h-.624a.387.387 0 0 1-.264-.084.716.716 0 0 1-.156-.192l-1.356-2.508v4.5c0 .088-.028.16-.084.216a.292.292 0 0 1-.216.084h-1.44Z" fill="#fff"/></g><defs><clipPath id="b"><path fill="#fff" transform="translate(25.5 19.831)" d="M0 0h40v37.337H0z"/></clipPath><filter id="a" x="0" y="0" width="91" height="101" filterUnits="userSpaceOnUse" color-interpolation-filters="sRGB"><feFlood flood-opacity="0" result="BackgroundImageFix"/><feColorMatrix in="SourceAlpha" values="0 0 0 0 0 0 0 0 0 0 0 0 0 0 0 0 0 0 127 0" result="hardAlpha"/><feOffset dy="2"/><feGaussianBlur stdDeviation="4"/><feColorMatrix values="0 0 0 0 0 0 0 0 0 0 0 0 0 0 0 0 0 0 0.75 0"/><feBlend in2="BackgroundImageFix" result="effect1_dropShadow_505_872"/><feBlend in="SourceGraphic" in2="effect1_dropShadow_505_872" result="shape"/></filter></defs></svg>