<svg width="91" height="101" fill="none" xmlns="http://www.w3.org/2000/svg"><g filter="url(#a)"><rect x="8" y="6" width="75" height="85" rx="5" fill="#212529"/><g clip-path="url(#b)"><path d="M25.5 22.333h13.333V16.5H27.167c-.917 0-1.667.75-1.667 1.667v4.166Z" fill="#CCC"/><path d="M52.167 16.5H38.833v5.833h13.334V16.5Z" fill="#999"/><path d="M65.5 22.333H52.166V16.5h11.667c.917 0 1.667.75 1.667 1.667v4.166Z" fill="#666"/><path d="M63.833 46.5H27.167c-.917 0-1.667-.75-1.667-1.667V21.5h40v23.333c0 .917-.75 1.667-1.667 1.667Z" fill="url(#c)"/><g filter="url(#d)"><path d="m38.167 31.75-7.334 7.333c-.416.417-.416 1 0 1.334l1.5 1.5c.417.416 1 .416 1.334 0L41 34.583c.417-.416.417-1 0-1.333l-1.5-1.5c-.333-.333-1-.333-1.333 0Z" fill="url(#e)"/><mask id="g" style="mask-type:alpha" maskUnits="userSpaceOnUse" x="30" y="31" width="12" height="12"><path d="m38.167 31.75-7.334 7.333c-.416.417-.416 1 0 1.334l1.5 1.5c.417.416 1 .416 1.334 0L41 34.583c.417-.416.417-1 0-1.333l-1.5-1.5c-.333-.333-1-.333-1.333 0Z" fill="url(#f)"/></mask><g mask="url(#g)"><g filter="url(#h)"><path d="M33.667 25.917 41 33.25c.417.417.417 1 0 1.333l-1.5 1.5c-.416.417-1 .417-1.333 0l-7.334-7.333c-.416-.417-.416-1 0-1.333l1.5-1.5c.334-.334 1-.334 1.334 0Z" fill="url(#i)"/></g><path d="M33.667 25.917 41 33.25c.417.417.417 1 0 1.333l-1.5 1.5c-.416.417-1 .417-1.333 0l-7.334-7.333c-.416-.417-.416-1 0-1.333l1.5-1.5c.334-.334 1-.334 1.334 0Z" fill="url(#j)"/></g></g><g filter="url(#k)"><path d="M58.833 38.167H45.5c-.5 0-.834.333-.834.833v2.5c0 .5.334.833.834.833h13.333c.5 0 .834-.333.834-.833V39c0-.5-.334-.833-.834-.833Z" fill="url(#l)"/></g></g><path d="M21.34 65.5a.438.438 0 0 1-.324-.12.489.489 0 0 1-.144-.276l-1.308-7.668a.107.107 0 0 1-.012-.048v-.036a.23.23 0 0 1 .072-.168.252.252 0 0 1 .18-.084h1.488c.224 0 .348.088.372.264l.78 4.692.864-2.772a.794.794 0 0 1 .12-.204c.056-.08.148-.12.276-.12h.864c.136 0 .232.04.288.12.056.072.092.14.108.204l.864 2.76.78-4.68c.024-.176.148-.264.372-.264h1.488c.072 0 .132.028.18.084a.23.23 0 0 1 .072.168V57.436l-1.308 7.668a.489.489 0 0 1-.144.276.438.438 0 0 1-.324.12h-1.14c-.136 0-.24-.036-.312-.108a.602.602 0 0 1-.144-.204l-1.212-3.432-1.212 3.432a.601.601 0 0 1-.144.204c-.064.072-.164.108-.3.108h-1.14Zm8.785 0a.292.292 0 0 1-.216-.084.292.292 0 0 1-.084-.216v-5.64c0-.088.028-.16.084-.216a.292.292 0 0 1 .216-.084h1.416c.08 0 .148.028.204.084a.274.274 0 0 1 .096.216v5.64c0 .088-.032.16-.096.216a.278.278 0 0 1-.204.084h-1.416Zm-.012-7.14a.292.292 0 0 1-.216-.084.292.292 0 0 1-.084-.216v-1.068c0-.088.028-.16.084-.216a.274.274 0 0 1 .216-.096h1.428c.088 0 .16.032.216.096a.274.274 0 0 1 .096.216v1.068c0 .088-.032.16-.096.216a.292.292 0 0 1-.216.084h-1.428Zm3.81 7.14a.292.292 0 0 1-.217-.084.292.292 0 0 1-.084-.216v-5.64c0-.088.028-.16.084-.216a.292.292 0 0 1 .216-.084h1.38c.088 0 .16.028.216.084a.292.292 0 0 1 .084.216v.456c.208-.248.48-.456.816-.624.336-.168.732-.252 1.188-.252.464 0 .872.104 1.224.312.36.208.64.516.84.924.208.4.312.892.312 1.476V65.2c0 .088-.032.16-.096.216a.278.278 0 0 1-.204.084H38.17a.32.32 0 0 1-.216-.084.292.292 0 0 1-.084-.216v-3.276c0-.376-.092-.664-.276-.864-.176-.208-.44-.312-.792-.312-.328 0-.592.104-.792.312-.192.2-.288.488-.288.864V65.2c0 .088-.032.16-.096.216a.278.278 0 0 1-.204.084h-1.5Zm9.726.12c-.384 0-.732-.06-1.044-.18a2.283 2.283 0 0 1-.792-.552A2.678 2.678 0 0 1 41.31 64a4.176 4.176 0 0 1-.204-1.2 8.035 8.035 0 0 1 0-.84c.016-.432.084-.82.204-1.164.12-.344.288-.64.504-.888.216-.248.48-.436.792-.564.312-.136.66-.204 1.044-.204.4 0 .744.068 1.032.204.288.128.532.296.732.504V57.28c0-.088.028-.16.084-.216a.292.292 0 0 1 .216-.084h1.464c.08 0 .148.028.204.084a.274.274 0 0 1 .096.216v7.92c0 .088-.032.16-.096.216a.278.278 0 0 1-.204.084h-1.356a.292.292 0 0 1-.216-.084.292.292 0 0 1-.084-.216v-.384c-.192.232-.44.424-.744.576-.304.152-.68.228-1.128.228Zm.648-1.608c.272 0 .484-.056.636-.168.16-.12.276-.272.348-.456.08-.184.124-.384.132-.6a9.15 9.15 0 0 0 0-.9 1.4 1.4 0 0 0-.132-.552.968.968 0 0 0-.36-.42c-.16-.112-.368-.168-.624-.168-.264 0-.476.056-.636.168a.905.905 0 0 0-.324.456 2.565 2.565 0 0 0-.12.636 3.853 3.853 0 0 0 0 .744c.016.232.056.444.12.636a.905.905 0 0 0 .324.456c.16.112.372.168.636.168Zm7.547 1.608c-.672 0-1.24-.108-1.704-.324a2.434 2.434 0 0 1-1.056-.924c-.24-.408-.376-.892-.408-1.452-.008-.16-.012-.34-.012-.54 0-.208.004-.388.012-.54.032-.568.176-1.052.432-1.452.256-.4.612-.708 1.068-.924.464-.216 1.02-.324 1.668-.324.656 0 1.212.108 1.668.324.464.216.824.524 1.08.924.256.4.4.884.432 1.452.008.152.012.332.012.54 0 .2-.004.38-.012.54-.032.56-.172 1.044-.42 1.452-.24.4-.592.708-1.056.924-.456.216-1.024.324-1.704.324Zm0-1.464c.36 0 .62-.108.78-.324.168-.216.264-.54.288-.972.008-.12.012-.28.012-.48 0-.2-.004-.36-.012-.48-.024-.424-.12-.744-.288-.96-.16-.224-.42-.336-.78-.336-.352 0-.612.112-.78.336-.168.216-.26.536-.276.96a7.57 7.57 0 0 0-.012.48c0 .2.004.36.012.48.016.432.108.756.276.972.168.216.428.324.78.324Zm5.924 1.344c-.12 0-.208-.028-.264-.084a.58.58 0 0 1-.132-.216l-1.728-5.556a.321.321 0 0 1-.024-.12c0-.072.028-.132.084-.18a.264.264 0 0 1 .192-.084h1.236c.104 0 .184.028.24.084a.367.367 0 0 1 .12.168l1.008 3.432 1.08-3.42a.399.399 0 0 1 .108-.168.357.357 0 0 1 .264-.096h.792c.112 0 .196.032.252.096a.367.367 0 0 1 .12.168l1.08 3.42 1.008-3.432a.399.399 0 0 1 .108-.168.369.369 0 0 1 .252-.084H64.8c.072 0 .132.028.18.084a.227.227 0 0 1 .084.18.61.61 0 0 1-.012.12L63.324 65.2a.43.43 0 0 1-.132.216c-.056.056-.144.084-.264.084h-1.08a.387.387 0 0 1-.264-.084.43.43 0 0 1-.132-.216l-1.104-3.288-1.104 3.288a.43.43 0 0 1-.132.216.387.387 0 0 1-.264.084h-1.08Zm10.719.12c-.52 0-.964-.056-1.332-.168a3.28 3.28 0 0 1-.888-.432 2.028 2.028 0 0 1-.504-.516c-.112-.184-.172-.34-.18-.468a.242.242 0 0 1 .084-.216.287.287 0 0 1 .204-.096h1.368c.024 0 .044.004.06.012s.04.024.072.048c.104.056.208.128.312.216.104.08.224.152.36.216.136.064.3.096.492.096.224 0 .412-.044.564-.132a.43.43 0 0 0 .228-.396.449.449 0 0 0-.108-.312c-.072-.088-.22-.172-.444-.252-.216-.08-.544-.16-.984-.24a5.128 5.128 0 0 1-1.092-.372 1.884 1.884 0 0 1-.72-.612c-.168-.256-.252-.564-.252-.924 0-.32.104-.628.312-.924.208-.296.512-.536.912-.72.4-.192.892-.288 1.476-.288.464 0 .864.056 1.2.168.344.104.632.24.864.408.24.168.42.34.54.516.12.176.184.336.192.48a.275.275 0 0 1-.072.216.264.264 0 0 1-.192.084H69.71a.395.395 0 0 1-.096-.012.785.785 0 0 1-.084-.048 1.503 1.503 0 0 1-.288-.192 1.733 1.733 0 0 0-.336-.216 1.069 1.069 0 0 0-.48-.096c-.216 0-.384.048-.504.144a.48.48 0 0 0-.084.66c.072.088.212.168.42.24.216.072.548.152.996.24.552.088.992.232 1.32.432.328.192.56.42.696.684.136.256.204.528.204.816 0 .384-.116.724-.348 1.02-.224.296-.56.528-1.008.696-.448.16-.992.24-1.632.24ZM22.455 78.5a.292.292 0 0 1-.216-.084.292.292 0 0 1-.084-.216v-6.216h-2.136a.292.292 0 0 1-.216-.084.32.32 0 0 1-.084-.216V70.4c0-.088.028-.16.084-.216a.292.292 0 0 1 .216-.084h6.456c.088 0 .16.028.216.084a.292.292 0 0 1 .084.216v1.284a.32.32 0 0 1-.084.216.292.292 0 0 1-.216.084h-2.136V78.2c0 .088-.028.16-.084.216a.292.292 0 0 1-.216.084h-1.584Zm7.104.12c-.944 0-1.696-.256-2.256-.768-.56-.512-.852-1.272-.876-2.28v-.42c.024-.632.164-1.172.42-1.62a2.58 2.58 0 0 1 1.08-1.032c.464-.24 1.004-.36 1.62-.36.704 0 1.284.14 1.74.42.464.28.812.66 1.044 1.14.232.48.348 1.028.348 1.644v.288c0 .088-.032.16-.096.216a.278.278 0 0 1-.204.084h-3.84V76.016c.008.232.048.444.12.636a.977.977 0 0 0 .336.456.905.905 0 0 0 .552.168c.16 0 .292-.024.396-.072.112-.056.204-.116.276-.18a2.84 2.84 0 0 0 .168-.18.564.564 0 0 1 .168-.144.501.501 0 0 1 .216-.036h1.488a.26.26 0 0 1 .192.072c.056.04.08.1.072.18-.008.136-.076.3-.204.492a2.527 2.527 0 0 1-.564.576c-.24.184-.544.336-.912.456s-.796.18-1.284.18Zm-1.02-3.876h2.028v-.024c0-.256-.04-.48-.12-.672a.881.881 0 0 0-.348-.444.954.954 0 0 0-.552-.156c-.216 0-.4.052-.552.156a1.01 1.01 0 0 0-.336.444c-.08.192-.12.416-.12.672v.024Zm5.565 3.756a.292.292 0 0 1-.216-.084.292.292 0 0 1-.084-.216v-5.64c0-.08.028-.148.084-.204a.274.274 0 0 1 .216-.096h1.38c.088 0 .16.032.216.096a.278.278 0 0 1 .084.204v.48c.216-.248.472-.44.768-.576a2.47 2.47 0 0 1 1.02-.204h.528c.08 0 .148.028.204.084a.274.274 0 0 1 .096.216v1.236c0 .08-.032.152-.096.216a.278.278 0 0 1-.204.084h-1.164c-.328 0-.584.092-.768.276-.176.176-.264.428-.264.756V78.2c0 .088-.032.16-.096.216a.292.292 0 0 1-.216.084h-1.488Zm5.449 0a.292.292 0 0 1-.216-.084.292.292 0 0 1-.084-.216v-5.64c0-.088.028-.16.084-.216a.292.292 0 0 1 .216-.084h1.308c.088 0 .16.028.216.084a.292.292 0 0 1 .084.216v.408c.16-.216.384-.404.672-.564a2.075 2.075 0 0 1 1.02-.264c.92-.016 1.552.332 1.896 1.044.184-.304.448-.552.792-.744.344-.2.72-.3 1.128-.3.416 0 .788.096 1.116.288.336.184.604.472.804.864.2.384.3.884.3 1.5V78.2c0 .088-.032.16-.096.216a.278.278 0 0 1-.204.084h-1.392a.335.335 0 0 1-.228-.084.292.292 0 0 1-.084-.216v-3.324c0-.28-.04-.5-.12-.66a.757.757 0 0 0-.324-.36.985.985 0 0 0-.9 0 .82.82 0 0 0-.336.36c-.08.16-.12.38-.12.66V78.2c0 .088-.028.16-.084.216a.292.292 0 0 1-.216.084h-1.392a.292.292 0 0 1-.216-.084.292.292 0 0 1-.084-.216v-3.324c0-.28-.044-.5-.132-.66a.82.82 0 0 0-.336-.36.96.96 0 0 0-.888 0 .82.82 0 0 0-.336.36c-.08.16-.12.376-.12.648V78.2c0 .088-.032.16-.096.216a.292.292 0 0 1-.216.084h-1.416Zm10.98 0a.292.292 0 0 1-.216-.084.292.292 0 0 1-.084-.216v-5.64c0-.088.028-.16.084-.216a.292.292 0 0 1 .216-.084h1.416c.08 0 .148.028.204.084a.274.274 0 0 1 .096.216v5.64c0 .088-.032.16-.096.216a.278.278 0 0 1-.204.084h-1.416Zm-.012-7.14a.292.292 0 0 1-.216-.084.292.292 0 0 1-.084-.216v-1.068c0-.088.028-.16.084-.216a.274.274 0 0 1 .216-.096h1.428c.088 0 .16.032.216.096a.274.274 0 0 1 .096.216v1.068c0 .088-.032.16-.096.216a.292.292 0 0 1-.216.084h-1.428Zm3.81 7.14a.292.292 0 0 1-.217-.084.292.292 0 0 1-.084-.216v-5.64c0-.088.028-.16.084-.216a.292.292 0 0 1 .216-.084h1.38c.088 0 .16.028.216.084a.292.292 0 0 1 .084.216v.456c.208-.248.48-.456.816-.624.336-.168.732-.252 1.188-.252.464 0 .872.104 1.224.312.36.208.64.516.84.924.208.4.312.892.312 1.476V78.2c0 .088-.032.16-.096.216a.278.278 0 0 1-.204.084h-1.512a.32.32 0 0 1-.216-.084.292.292 0 0 1-.084-.216v-3.276c0-.376-.092-.664-.276-.864-.176-.208-.44-.312-.792-.312-.328 0-.592.104-.792.312-.192.2-.288.488-.288.864V78.2c0 .088-.032.16-.096.216a.278.278 0 0 1-.204.084h-1.5Zm9.27.12c-.431 0-.82-.08-1.163-.24a2.145 2.145 0 0 1-.805-.672c-.2-.28-.3-.596-.3-.948 0-.568.233-1.016.697-1.344.463-.336 1.08-.564 1.847-.684l1.5-.228v-.168c0-.288-.06-.508-.18-.66-.12-.152-.34-.228-.66-.228-.224 0-.408.044-.552.132a.942.942 0 0 0-.324.36.345.345 0 0 1-.3.156h-1.343c-.089 0-.157-.024-.205-.072a.243.243 0 0 1-.06-.192c0-.144.053-.308.157-.492.112-.192.28-.38.504-.564.224-.184.511-.336.864-.456.352-.12.776-.18 1.271-.18.52 0 .964.06 1.332.18.368.12.665.288.888.504.232.216.404.472.516.768.112.288.169.608.169.96V78.2c0 .088-.032.16-.096.216a.278.278 0 0 1-.205.084h-1.392a.292.292 0 0 1-.215-.084.292.292 0 0 1-.085-.216v-.42a1.742 1.742 0 0 1-.42.42 2.055 2.055 0 0 1-.623.3c-.233.08-.505.12-.817.12Zm.564-1.368c.232 0 .44-.048.624-.144.192-.104.34-.26.445-.468.112-.216.168-.484.168-.804v-.168l-1.02.18c-.377.064-.653.164-.829.3-.167.128-.252.28-.252.456 0 .136.04.252.12.348.08.096.184.172.313.228.127.048.271.072.431.072Zm4.943 1.248a.292.292 0 0 1-.216-.084.292.292 0 0 1-.084-.216v-7.92c0-.088.028-.16.084-.216a.292.292 0 0 1 .216-.084h1.416c.088 0 .16.028.216.084a.292.292 0 0 1 .084.216v7.92c0 .088-.028.16-.084.216a.292.292 0 0 1-.216.084h-1.416Z" fill="#fff"/></g><defs><linearGradient id="e" x1="37.606" y1="39.83" x2="34.237" y2="33.994" gradientUnits="userSpaceOnUse"><stop stop-color="#999"/><stop offset="1" stop-color="#B3B3B3"/></linearGradient><linearGradient id="c" x1="55.872" y1="51.355" x2="35.351" y2="15.812" gradientUnits="userSpaceOnUse"><stop stop-color="#333"/><stop offset="1" stop-color="#4D4D4D"/></linearGradient><linearGradient id="f" x1="37.606" y1="39.83" x2="34.237" y2="33.994" gradientUnits="userSpaceOnUse"><stop stop-color="#999"/><stop offset="1" stop-color="#B3B3B3"/></linearGradient><linearGradient id="i" x1="39.062" y1="36.528" x2="32.781" y2="25.648" gradientUnits="userSpaceOnUse"><stop stop-color="#CCC"/><stop offset="1" stop-color="#E6E6E6"/></linearGradient><linearGradient id="j" x1="39.062" y1="36.528" x2="32.781" y2="25.648" gradientUnits="userSpaceOnUse"><stop stop-color="#CCC"/><stop offset="1" stop-color="#E6E6E6"/></linearGradient><linearGradient id="l" x1="54.791" y1="44.796" x2="49.542" y2="35.704" gradientUnits="userSpaceOnUse"><stop stop-color="#CCC"/><stop offset="1" stop-color="#E6E6E6"/></linearGradient><filter id="h" x="27.521" y="23.667" width="16.791" height="16.729" filterUnits="userSpaceOnUse" color-interpolation-filters="sRGB"><feFlood flood-opacity="0" result="BackgroundImageFix"/><feColorMatrix in="SourceAlpha" values="0 0 0 0 0 0 0 0 0 0 0 0 0 0 0 0 0 0 127 0" result="hardAlpha"/><feOffset dy=".5"/><feGaussianBlur stdDeviation=".5"/><feColorMatrix values="0 0 0 0 0 0 0 0 0 0 0 0 0 0 0 0 0 0 0.1 0"/><feBlend in2="BackgroundImageFix" result="effect1_dropShadow_505_1208"/><feColorMatrix in="SourceAlpha" values="0 0 0 0 0 0 0 0 0 0 0 0 0 0 0 0 0 0 127 0" result="hardAlpha"/><feOffset dy="1"/><feGaussianBlur stdDeviation="1.5"/><feColorMatrix values="0 0 0 0 0 0 0 0 0 0 0 0 0 0 0 0 0 0 0.2 0"/><feBlend in2="effect1_dropShadow_505_1208" result="effect2_dropShadow_505_1208"/><feBlend in="SourceGraphic" in2="effect2_dropShadow_505_1208" result="shape"/></filter><filter id="k" x="41.666" y="36.167" width="21" height="10.167" filterUnits="userSpaceOnUse" color-interpolation-filters="sRGB"><feFlood flood-opacity="0" result="BackgroundImageFix"/><feColorMatrix in="SourceAlpha" values="0 0 0 0 0 0 0 0 0 0 0 0 0 0 0 0 0 0 127 0" result="hardAlpha"/><feOffset dy=".5"/><feGaussianBlur stdDeviation=".5"/><feColorMatrix values="0 0 0 0 0 0 0 0 0 0 0 0 0 0 0 0 0 0 0.1 0"/><feBlend in2="BackgroundImageFix" result="effect1_dropShadow_505_1208"/><feColorMatrix in="SourceAlpha" values="0 0 0 0 0 0 0 0 0 0 0 0 0 0 0 0 0 0 127 0" result="hardAlpha"/><feOffset dy="1"/><feGaussianBlur stdDeviation="1.5"/><feColorMatrix values="0 0 0 0 0 0 0 0 0 0 0 0 0 0 0 0 0 0 0.2 0"/><feBlend in2="effect1_dropShadow_505_1208" result="effect2_dropShadow_505_1208"/><feBlend in="SourceGraphic" in2="effect2_dropShadow_505_1208" result="shape"/></filter><filter id="a" x="0" y="0" width="91" height="101" filterUnits="userSpaceOnUse" color-interpolation-filters="sRGB"><feFlood flood-opacity="0" result="BackgroundImageFix"/><feColorMatrix in="SourceAlpha" values="0 0 0 0 0 0 0 0 0 0 0 0 0 0 0 0 0 0 127 0" result="hardAlpha"/><feOffset dy="2"/><feGaussianBlur stdDeviation="4"/><feColorMatrix values="0 0 0 0 0 0 0 0 0 0 0 0 0 0 0 0 0 0 0.75 0"/><feBlend in2="BackgroundImageFix" result="effect1_dropShadow_505_1208"/><feBlend in="SourceGraphic" in2="effect1_dropShadow_505_1208" result="shape"/></filter><filter id="d" x="27.521" y="29.5" width="16.791" height="16.729" filterUnits="userSpaceOnUse" color-interpolation-filters="sRGB"><feFlood flood-opacity="0" result="BackgroundImageFix"/><feColorMatrix in="SourceAlpha" values="0 0 0 0 0 0 0 0 0 0 0 0 0 0 0 0 0 0 127 0" result="hardAlpha"/><feOffset dy=".5"/><feGaussianBlur stdDeviation=".5"/><feColorMatrix values="0 0 0 0 0 0 0 0 0 0 0 0 0 0 0 0 0 0 0.1 0"/><feBlend in2="BackgroundImageFix" result="effect1_dropShadow_505_1208"/><feColorMatrix in="SourceAlpha" values="0 0 0 0 0 0 0 0 0 0 0 0 0 0 0 0 0 0 127 0" result="hardAlpha"/><feOffset dy="1"/><feGaussianBlur stdDeviation="1.5"/><feColorMatrix values="0 0 0 0 0 0 0 0 0 0 0 0 0 0 0 0 0 0 0.2 0"/><feBlend in2="effect1_dropShadow_505_1208" result="effect2_dropShadow_505_1208"/><feBlend in="SourceGraphic" in2="effect2_dropShadow_505_1208" result="shape"/></filter><clipPath id="b"><path fill="#fff" transform="translate(25.5 16.5)" d="M0 0h40v30H0z"/></clipPath></defs></svg>