<svg width="80" height="80" viewBox="0 0 80 80" fill="none" xmlns="http://www.w3.org/2000/svg">
<g filter="url(#filter0_d_601_4835)">
<rect x="8" y="6" width="64" height="64" rx="5" fill="#212529"/>
<path d="M40.0048 39.3103L29.3168 33.1394V20.8137L39.9959 14.6479L50.6836 20.8186V33.1447L40.0048 39.3103ZM52.0384 20.0365L39.9959 13.0835L27.9619 20.0315V33.9215L40.0048 40.8746L52.0384 33.9269V20.0365Z" fill="#33363B"/>
<path d="M31.0959 21.8385C30.3124 23.2015 28.5657 23.6667 27.2029 22.8832C25.8399 22.0997 25.3746 20.3532 26.1582 18.9902C26.9416 17.6272 28.6883 17.1621 30.0512 17.9455C31.4142 18.7372 31.8794 20.4755 31.0959 21.8385Z" fill="#7EBC59"/>
<path d="M48.9043 21.8385C48.1207 20.4755 48.586 18.7372 49.9488 17.9455C51.312 17.1621 53.0503 17.6272 53.842 18.9902C54.6254 20.3532 54.1603 22.0915 52.7973 22.8832C51.4344 23.6667 49.6877 23.2015 48.9043 21.8385Z" fill="#7EBC59"/>
<path d="M39.9999 42.9604C38.4248 42.9604 37.1516 41.6872 37.1516 40.112C37.1516 38.5368 38.4248 37.2637 39.9999 37.2637C41.5752 37.2637 42.8483 38.5368 42.8483 40.112C42.8483 41.6791 41.5752 42.9604 39.9999 42.9604Z" fill="#7EBC59"/>
<path d="M39.2071 16.5843C39.4589 16.657 39.7248 16.6967 40.0001 16.6967C40.2764 16.6967 40.5431 16.6568 40.7956 16.5837L49.398 31.483C49.2054 31.6664 49.0354 31.8797 48.8961 32.1219C48.7578 32.3627 48.6591 32.6154 48.5968 32.8728H31.4038C31.3413 32.6157 31.2427 32.3629 31.1041 32.1219C30.9643 31.8813 30.7947 31.6693 30.6031 31.4866L39.2071 16.5843ZM52.7892 31.0773C52.0909 30.6758 51.2922 30.6029 50.5737 30.8098L41.9692 15.9069C42.511 15.3886 42.8484 14.6587 42.8484 13.8483C42.8484 12.2731 41.5753 11 40.0001 11C38.425 11 37.1518 12.2731 37.1518 13.8483C37.1518 14.6597 37.4901 15.3902 38.0329 15.9086L29.4286 30.8113C28.7097 30.6026 27.911 30.6749 27.2111 31.0773C25.8481 31.869 25.383 33.6073 26.1664 34.9703C26.95 36.3332 28.6883 36.7984 30.0594 36.0149C30.7586 35.6089 31.2208 34.9534 31.4001 34.2276H48.5994C48.7783 34.9558 49.2408 35.6124 49.9409 36.0149C51.3038 36.7984 53.0504 36.3332 53.8339 34.9703C54.6256 33.6073 54.1603 31.869 52.7892 31.0773Z" fill="#368CBF"/>
<path d="M25.8072 61C25.7526 61 25.7014 60.9795 25.6536 60.9386C25.6126 60.8908 25.5922 60.8396 25.5922 60.785C25.5922 60.7508 25.5956 60.7201 25.6024 60.6928L28.0088 54.1187C28.0293 54.0436 28.0702 53.9788 28.1317 53.9242C28.1999 53.8627 28.2921 53.832 28.4082 53.832H29.9237C30.0397 53.832 30.1285 53.8627 30.1899 53.9242C30.2582 53.9788 30.3026 54.0436 30.323 54.1187L32.7192 60.6928C32.7329 60.7201 32.7397 60.7508 32.7397 60.785C32.7397 60.8396 32.7158 60.8908 32.668 60.9386C32.627 60.9795 32.5758 61 32.5144 61H31.2549C31.1525 61 31.074 60.9761 31.0194 60.9283C30.9716 60.8737 30.9409 60.8259 30.9272 60.785L30.5278 59.7405H27.7938L27.4046 60.785C27.391 60.8259 27.3603 60.8737 27.3125 60.9283C27.2647 60.9761 27.1828 61 27.0667 61H25.8072ZM28.2136 58.2659H30.1182L29.1557 55.5626L28.2136 58.2659ZM33.6902 61C33.6151 61 33.5536 60.9761 33.5058 60.9283C33.4581 60.8805 33.4342 60.8191 33.4342 60.744V53.9856C33.4342 53.9105 33.4581 53.8491 33.5058 53.8013C33.5536 53.7535 33.6151 53.7296 33.6902 53.7296H34.8985C34.9736 53.7296 35.035 53.7535 35.0828 53.8013C35.1306 53.8491 35.1545 53.9105 35.1545 53.9856V60.744C35.1545 60.8191 35.1306 60.8805 35.0828 60.9283C35.035 60.9761 34.9736 61 34.8985 61H33.6902ZM39.088 61C38.6511 61 38.2722 60.9317 37.9514 60.7952C37.6373 60.6518 37.395 60.4334 37.2243 60.1398C37.0537 59.8395 36.9683 59.4538 36.9683 58.9827V57.0166H36.1696C36.0945 57.0166 36.0297 56.9927 35.975 56.945C35.9273 56.8972 35.9034 56.8357 35.9034 56.7606V55.9312C35.9034 55.8561 35.9273 55.7947 35.975 55.7469C36.0297 55.6991 36.0945 55.6752 36.1696 55.6752H36.9683V53.9856C36.9683 53.9105 36.9922 53.8491 37.04 53.8013C37.0946 53.7535 37.1561 53.7296 37.2243 53.7296H38.4122C38.4873 53.7296 38.5487 53.7535 38.5965 53.8013C38.6443 53.8491 38.6682 53.9105 38.6682 53.9856V55.6752H39.9482C40.0233 55.6752 40.0847 55.6991 40.1325 55.7469C40.1803 55.7947 40.2042 55.8561 40.2042 55.9312V56.7606C40.2042 56.8357 40.1803 56.8972 40.1325 56.945C40.0847 56.9927 40.0233 57.0166 39.9482 57.0166H38.6682V58.8394C38.6682 59.0715 38.7125 59.2558 38.8013 59.3923C38.89 59.5289 39.0402 59.5971 39.2518 59.5971H40.0403C40.1154 59.5971 40.1769 59.621 40.2246 59.6688C40.2724 59.7166 40.2963 59.778 40.2963 59.8531V60.744C40.2963 60.8191 40.2724 60.8805 40.2246 60.9283C40.1769 60.9761 40.1154 61 40.0403 61H39.088ZM42.7416 61.1024C42.373 61.1024 42.0419 61.0341 41.7483 60.8976C41.4616 60.7542 41.2329 60.5631 41.0622 60.3242C40.8916 60.0852 40.8062 59.8156 40.8062 59.5152C40.8062 59.0305 41.0042 58.6482 41.4002 58.3683C41.7961 58.0816 42.3218 57.887 42.9771 57.7846L44.2571 57.5901V57.4467C44.2571 57.201 44.2059 57.0132 44.1035 56.8835C44.0011 56.7538 43.8134 56.689 43.5403 56.689C43.3492 56.689 43.1922 56.7265 43.0693 56.8016C42.9532 56.8767 42.8611 56.9791 42.7928 57.1088C42.7314 57.1975 42.646 57.2419 42.5368 57.2419H41.3899C41.3148 57.2419 41.2568 57.2214 41.2158 57.1805C41.1749 57.1327 41.1578 57.0781 41.1646 57.0166C41.1646 56.8938 41.209 56.7538 41.2978 56.5968C41.3933 56.433 41.5367 56.2725 41.7278 56.1155C41.919 55.9585 42.1647 55.8288 42.4651 55.7264C42.7655 55.624 43.1273 55.5728 43.5506 55.5728C43.9943 55.5728 44.3732 55.624 44.6872 55.7264C45.0012 55.8288 45.2538 55.9722 45.445 56.1565C45.6429 56.3408 45.7897 56.5593 45.8853 56.8118C45.9809 57.0576 46.0286 57.3307 46.0286 57.631V60.744C46.0286 60.8191 46.0013 60.8805 45.9467 60.9283C45.8989 60.9761 45.8409 61 45.7726 61H44.5848C44.5097 61 44.4483 60.9761 44.4005 60.9283C44.3527 60.8805 44.3288 60.8191 44.3288 60.744V60.3856C44.2401 60.5153 44.1206 60.6348 43.9704 60.744C43.8202 60.8532 43.6427 60.9386 43.4379 61C43.2399 61.0683 43.0078 61.1024 42.7416 61.1024ZM43.2229 59.935C43.4209 59.935 43.5983 59.8941 43.7554 59.8122C43.9192 59.7234 44.0455 59.5903 44.1342 59.4128C44.2298 59.2285 44.2776 58.9998 44.2776 58.7267V58.5834L43.4072 58.737C43.0863 58.7916 42.8508 58.8769 42.7006 58.993C42.5573 59.1022 42.4856 59.2319 42.4856 59.3821C42.4856 59.4981 42.5197 59.5971 42.588 59.679C42.6563 59.761 42.745 59.8258 42.8542 59.8736C42.9635 59.9146 43.0863 59.935 43.2229 59.935ZM47.4402 61C47.3651 61 47.3036 60.9761 47.2558 60.9283C47.2081 60.8805 47.1842 60.8191 47.1842 60.744V55.9312C47.1842 55.8561 47.2081 55.7947 47.2558 55.7469C47.3036 55.6991 47.3651 55.6752 47.4402 55.6752H48.6485C48.7167 55.6752 48.7748 55.6991 48.8226 55.7469C48.8772 55.7947 48.9045 55.8561 48.9045 55.9312V60.744C48.9045 60.8191 48.8772 60.8805 48.8226 60.9283C48.7748 60.9761 48.7167 61 48.6485 61H47.4402ZM47.4299 54.9072C47.3548 54.9072 47.2934 54.8833 47.2456 54.8355C47.1978 54.7877 47.1739 54.7263 47.1739 54.6512V53.7398C47.1739 53.6647 47.1978 53.6033 47.2456 53.5555C47.2934 53.5009 47.3548 53.4736 47.4299 53.4736H48.6485C48.7236 53.4736 48.785 53.5009 48.8328 53.5555C48.8874 53.6033 48.9147 53.6647 48.9147 53.7398V54.6512C48.9147 54.7263 48.8874 54.7877 48.8328 54.8355C48.785 54.8833 48.7236 54.9072 48.6485 54.9072H47.4299ZM50.6802 61C50.6051 61 50.5436 60.9761 50.4958 60.9283C50.4481 60.8805 50.4242 60.8191 50.4242 60.744V55.9312C50.4242 55.8629 50.4481 55.8049 50.4958 55.7571C50.5436 55.7025 50.6051 55.6752 50.6802 55.6752H51.8578C51.9329 55.6752 51.9943 55.7025 52.0421 55.7571C52.0899 55.8049 52.1138 55.8629 52.1138 55.9312V56.3408C52.2981 56.1292 52.5165 55.9653 52.7691 55.8493C53.0285 55.7332 53.3187 55.6752 53.6395 55.6752H54.0901C54.1583 55.6752 54.2164 55.6991 54.2642 55.7469C54.3188 55.7947 54.3461 55.8561 54.3461 55.9312V56.9859C54.3461 57.0542 54.3188 57.1156 54.2642 57.1702C54.2164 57.218 54.1583 57.2419 54.0901 57.2419H53.0968C52.8169 57.2419 52.5985 57.3204 52.4414 57.4774C52.2913 57.6276 52.2162 57.8427 52.2162 58.1226V60.744C52.2162 60.8191 52.1889 60.8805 52.1342 60.9283C52.0865 60.9761 52.025 61 51.9499 61H50.6802Z" fill="#E5E5E5"/>
</g>
<defs>
<filter id="filter0_d_601_4835" x="0" y="0" width="80" height="80" filterUnits="userSpaceOnUse" color-interpolation-filters="sRGB">
<feFlood flood-opacity="0" result="BackgroundImageFix"/>
<feColorMatrix in="SourceAlpha" type="matrix" values="0 0 0 0 0 0 0 0 0 0 0 0 0 0 0 0 0 0 127 0" result="hardAlpha"/>
<feOffset dy="2"/>
<feGaussianBlur stdDeviation="4"/>
<feColorMatrix type="matrix" values="0 0 0 0 0 0 0 0 0 0 0 0 0 0 0 0 0 0 0.75 0"/>
<feBlend mode="normal" in2="BackgroundImageFix" result="effect1_dropShadow_601_4835"/>
<feBlend mode="normal" in="SourceGraphic" in2="effect1_dropShadow_601_4835" result="shape"/>
</filter>
</defs>
</svg>
