<svg width="80" height="80" viewBox="0 0 80 80" fill="none" xmlns="http://www.w3.org/2000/svg">
<g filter="url(#filter0_d_603_1523)">
<rect x="8" y="6" width="64" height="64" rx="5" fill="#212529"/>
<g clip-path="url(#clip0_603_1523)">
<path d="M30.9636 34.8095H39.977L42.2857 38.873H42.2207H24L30.4205 27.7472L33.1112 23.0882L35.4212 27.091L30.9636 34.8095ZM34.3252 20.9813L36.5432 17.138L49.0957 38.8729H44.6504L34.3252 20.9813ZM37.7777 15H42.2171L56 38.873H51.555L37.7777 15Z" fill="url(#paint0_linear_603_1523)"/>
</g>
<path d="M20.3072 61C20.2526 61 20.2014 60.9795 20.1536 60.9386C20.1126 60.8908 20.0922 60.8396 20.0922 60.785C20.0922 60.7508 20.0956 60.7201 20.1024 60.6928L22.5088 54.1187C22.5293 54.0436 22.5702 53.9788 22.6317 53.9242C22.6999 53.8627 22.7921 53.832 22.9082 53.832H24.4237C24.5397 53.832 24.6285 53.8627 24.6899 53.9242C24.7582 53.9788 24.8026 54.0436 24.823 54.1187L27.2192 60.6928C27.2329 60.7201 27.2397 60.7508 27.2397 60.785C27.2397 60.8396 27.2158 60.8908 27.168 60.9386C27.127 60.9795 27.0758 61 27.0144 61H25.7549C25.6525 61 25.574 60.9761 25.5194 60.9283C25.4716 60.8737 25.4409 60.8259 25.4272 60.785L25.0278 59.7405H22.2938L21.9046 60.785C21.891 60.8259 21.8603 60.8737 21.8125 60.9283C21.7647 60.9761 21.6828 61 21.5667 61H20.3072ZM22.7136 58.2659H24.6182L23.6557 55.5626L22.7136 58.2659ZM28.1902 61C28.1151 61 28.0536 60.9761 28.0058 60.9283C27.9581 60.8805 27.9342 60.8191 27.9342 60.744V55.9312C27.9342 55.8561 27.9581 55.7947 28.0058 55.7469C28.0536 55.6991 28.1151 55.6752 28.1902 55.6752H29.3063C29.3814 55.6752 29.4429 55.6991 29.4906 55.7469C29.5384 55.7947 29.5623 55.8561 29.5623 55.9312V56.2794C29.6989 56.095 29.89 55.9346 30.1358 55.7981C30.3815 55.6547 30.6717 55.5796 31.0062 55.5728C31.7912 55.5591 32.3305 55.8561 32.6241 56.4637C32.7811 56.2043 33.0064 55.9926 33.2999 55.8288C33.5935 55.6581 33.9143 55.5728 34.2625 55.5728C34.6175 55.5728 34.9349 55.6547 35.2148 55.8186C35.5015 55.9756 35.7302 56.2213 35.9009 56.5558C36.0715 56.8835 36.1569 57.3102 36.1569 57.8358V60.744C36.1569 60.8191 36.1296 60.8805 36.075 60.9283C36.0272 60.9761 35.9691 61 35.9009 61H34.713C34.6379 61 34.5731 60.9761 34.5185 60.9283C34.4707 60.8805 34.4468 60.8191 34.4468 60.744V57.9075C34.4468 57.6686 34.4127 57.4809 34.3444 57.3443C34.2761 57.201 34.184 57.0986 34.0679 57.0371C33.9519 56.9757 33.8187 56.945 33.6686 56.945C33.5457 56.945 33.4228 56.9757 33.2999 57.0371C33.1839 57.0986 33.0883 57.201 33.0132 57.3443C32.9449 57.4809 32.9108 57.6686 32.9108 57.9075V60.744C32.9108 60.8191 32.8869 60.8805 32.8391 60.9283C32.7913 60.9761 32.7299 61 32.6548 61H31.467C31.3919 61 31.3304 60.9761 31.2826 60.9283C31.2349 60.8805 31.211 60.8191 31.211 60.744V57.9075C31.211 57.6686 31.1734 57.4809 31.0983 57.3443C31.0232 57.201 30.9277 57.0986 30.8116 57.0371C30.6955 56.9757 30.5658 56.945 30.4225 56.945C30.2996 56.945 30.1767 56.9757 30.0538 57.0371C29.9378 57.0986 29.8422 57.201 29.7671 57.3443C29.6989 57.4809 29.6647 57.6652 29.6647 57.8973V60.744C29.6647 60.8191 29.6374 60.8805 29.5828 60.9283C29.535 60.9761 29.4736 61 29.3985 61H28.1902ZM37.5602 62.9456C37.4851 62.9456 37.4236 62.9217 37.3758 62.8739C37.3281 62.8261 37.3042 62.7647 37.3042 62.6896V55.9312C37.3042 55.8561 37.3281 55.7947 37.3758 55.7469C37.4236 55.6991 37.4851 55.6752 37.5602 55.6752H38.7173C38.7855 55.6752 38.8436 55.6991 38.8914 55.7469C38.946 55.7947 38.9733 55.8561 38.9733 55.9312V56.3101C39.1303 56.0985 39.3385 55.9244 39.5979 55.7878C39.8573 55.6445 40.1782 55.5728 40.5605 55.5728C40.9018 55.5728 41.2022 55.6274 41.4616 55.7366C41.721 55.839 41.9429 55.9926 42.1272 56.1974C42.3115 56.4022 42.4549 56.6514 42.5573 56.945C42.6665 57.2385 42.7279 57.5764 42.7416 57.9587C42.7484 58.0953 42.7518 58.2215 42.7518 58.3376C42.7518 58.4537 42.7484 58.5799 42.7416 58.7165C42.7279 59.0851 42.6699 59.4162 42.5675 59.7098C42.4651 60.0033 42.3218 60.2525 42.1374 60.4573C41.9531 60.6621 41.7278 60.8225 41.4616 60.9386C41.2022 61.0478 40.9018 61.1024 40.5605 61.1024C40.226 61.1024 39.9324 61.0444 39.6798 60.9283C39.4341 60.8054 39.2293 60.6348 39.0654 60.4163V62.6896C39.0654 62.7647 39.0415 62.8261 38.9938 62.8739C38.946 62.9217 38.8845 62.9456 38.8094 62.9456H37.5602ZM40.0075 59.7302C40.2396 59.7302 40.4205 59.6825 40.5502 59.5869C40.6799 59.4913 40.7721 59.3616 40.8267 59.1978C40.8882 59.0339 40.9257 58.853 40.9394 58.655C40.953 58.4434 40.953 58.2318 40.9394 58.0202C40.9257 57.8222 40.8882 57.6413 40.8267 57.4774C40.7721 57.3136 40.6799 57.1839 40.5502 57.0883C40.4205 56.9927 40.2396 56.945 40.0075 56.945C39.7822 56.945 39.6013 56.9962 39.4648 57.0986C39.3283 57.1941 39.2293 57.3204 39.1678 57.4774C39.1064 57.6345 39.0723 57.8051 39.0654 57.9894C39.0586 58.1191 39.0552 58.2454 39.0552 58.3683C39.0552 58.4912 39.0586 58.6209 39.0654 58.7574C39.0723 58.9281 39.1098 59.0885 39.1781 59.2387C39.2463 59.3821 39.3487 59.5015 39.4853 59.5971C39.6218 59.6859 39.7959 59.7302 40.0075 59.7302ZM44.0202 61C43.9451 61 43.8836 60.9761 43.8358 60.9283C43.7881 60.8805 43.7642 60.8191 43.7642 60.744V53.9856C43.7642 53.9105 43.7881 53.8491 43.8358 53.8013C43.8836 53.7535 43.9451 53.7296 44.0202 53.7296H45.2285C45.3036 53.7296 45.365 53.7535 45.4128 53.8013C45.4606 53.8491 45.4845 53.9105 45.4845 53.9856V60.744C45.4845 60.8191 45.4606 60.8805 45.4128 60.9283C45.365 60.9761 45.3036 61 45.2285 61H44.0202ZM47.3002 61C47.2251 61 47.1636 60.9761 47.1158 60.9283C47.0681 60.8805 47.0442 60.8191 47.0442 60.744V55.9312C47.0442 55.8561 47.0681 55.7947 47.1158 55.7469C47.1636 55.6991 47.2251 55.6752 47.3002 55.6752H48.5085C48.5767 55.6752 48.6348 55.6991 48.6826 55.7469C48.7372 55.7947 48.7645 55.8561 48.7645 55.9312V60.744C48.7645 60.8191 48.7372 60.8805 48.6826 60.9283C48.6348 60.9761 48.5767 61 48.5085 61H47.3002ZM47.2899 54.9072C47.2148 54.9072 47.1534 54.8833 47.1056 54.8355C47.0578 54.7877 47.0339 54.7263 47.0339 54.6512V53.7398C47.0339 53.6647 47.0578 53.6033 47.1056 53.5555C47.1534 53.5009 47.2148 53.4736 47.2899 53.4736H48.5085C48.5836 53.4736 48.645 53.5009 48.6928 53.5555C48.7474 53.6033 48.7747 53.6647 48.7747 53.7398V54.6512C48.7747 54.7263 48.7474 54.7877 48.6928 54.8355C48.645 54.8833 48.5836 54.9072 48.5085 54.9072H47.2899ZM50.8243 61C50.7561 61 50.6946 60.9761 50.64 60.9283C50.5922 60.8805 50.5683 60.8191 50.5683 60.744V57.0166H49.7901C49.715 57.0166 49.6535 56.9927 49.6058 56.945C49.558 56.8972 49.5341 56.8357 49.5341 56.7606V55.9312C49.5341 55.8561 49.558 55.7947 49.6058 55.7469C49.6535 55.6991 49.715 55.6752 49.7901 55.6752H50.5683V55.3475C50.5683 54.8833 50.6571 54.5113 50.8346 54.2314C51.0189 53.9446 51.2783 53.7398 51.6128 53.617C51.9473 53.4873 52.3467 53.4224 52.8109 53.4224H53.6096C53.6779 53.4224 53.7359 53.4463 53.7837 53.4941C53.8383 53.5419 53.8656 53.6033 53.8656 53.6784V54.5078C53.8656 54.5829 53.8383 54.6444 53.7837 54.6922C53.7359 54.7399 53.6779 54.7638 53.6096 54.7638H52.8928C52.6607 54.7638 52.4969 54.8185 52.4013 54.9277C52.3125 55.0369 52.2682 55.1939 52.2682 55.3987V55.6752H53.5072C53.5755 55.6752 53.6335 55.6991 53.6813 55.7469C53.7359 55.7947 53.7632 55.8561 53.7632 55.9312V56.7606C53.7632 56.8357 53.7359 56.8972 53.6813 56.945C53.6335 56.9927 53.5755 57.0166 53.5072 57.0166H52.2682V60.744C52.2682 60.8191 52.2443 60.8805 52.1965 60.9283C52.1487 60.9761 52.0873 61 52.0122 61H50.8243ZM55.4874 62.9456C55.426 62.9456 55.3748 62.9251 55.3338 62.8842C55.2929 62.8432 55.2724 62.792 55.2724 62.7306C55.2724 62.7169 55.2724 62.6964 55.2724 62.6691C55.2792 62.6486 55.2895 62.6247 55.3031 62.5974L56.1018 60.6723L54.1358 56.0234C54.1153 55.9756 54.105 55.9346 54.105 55.9005C54.1187 55.839 54.146 55.7878 54.187 55.7469C54.2279 55.6991 54.2791 55.6752 54.3406 55.6752H55.5079C55.5967 55.6752 55.6615 55.6991 55.7025 55.7469C55.7503 55.7878 55.781 55.8356 55.7946 55.8902L56.9722 58.8701L58.1703 55.8902C58.1976 55.8356 58.2318 55.7878 58.2727 55.7469C58.3205 55.6991 58.3888 55.6752 58.4775 55.6752H59.6244C59.6858 55.6752 59.737 55.6991 59.778 55.7469C59.8258 55.7878 59.8497 55.8356 59.8497 55.8902C59.8497 55.9244 59.8394 55.9687 59.819 56.0234L56.921 62.7306C56.9006 62.7852 56.8664 62.833 56.8186 62.8739C56.7709 62.9217 56.7026 62.9456 56.6138 62.9456H55.4874Z" fill="#E5E5E5"/>
</g>
<defs>
<filter id="filter0_d_603_1523" x="0" y="0" width="80" height="80" filterUnits="userSpaceOnUse" color-interpolation-filters="sRGB">
<feFlood flood-opacity="0" result="BackgroundImageFix"/>
<feColorMatrix in="SourceAlpha" type="matrix" values="0 0 0 0 0 0 0 0 0 0 0 0 0 0 0 0 0 0 127 0" result="hardAlpha"/>
<feOffset dy="2"/>
<feGaussianBlur stdDeviation="4"/>
<feColorMatrix type="matrix" values="0 0 0 0 0 0 0 0 0 0 0 0 0 0 0 0 0 0 0.75 0"/>
<feBlend mode="normal" in2="BackgroundImageFix" result="effect1_dropShadow_603_1523"/>
<feBlend mode="normal" in="SourceGraphic" in2="effect1_dropShadow_603_1523" result="shape"/>
</filter>
<linearGradient id="paint0_linear_603_1523" x1="56" y1="20.2931" x2="29.0738" y2="40.3809" gradientUnits="userSpaceOnUse">
<stop stop-color="#FF9900"/>
<stop offset="1" stop-color="#FFC300"/>
</linearGradient>
<clipPath id="clip0_603_1523">
<rect width="32" height="23.875" fill="white" transform="translate(24 15)"/>
</clipPath>
</defs>
</svg>
