<svg width="80" height="80" viewBox="0 0 80 80" fill="none" xmlns="http://www.w3.org/2000/svg">
<g filter="url(#filter0_d_603_604)">
<rect x="8" y="6" width="64" height="64" rx="5" fill="#212529"/>
<path d="M43.796 18.1428H42.5293V16.8761H43.796M37.468 18.1428H36.2027V16.8761H37.4693M44.4667 14.5494L46.124 12.8908C46.2399 12.7699 46.3046 12.6089 46.3046 12.4414C46.3046 12.274 46.2399 12.113 46.124 11.9921C46.0031 11.8762 45.8421 11.8115 45.6747 11.8115C45.5072 11.8115 45.3462 11.8762 45.2253 11.9921L43.3533 13.8668C42.3094 13.3532 41.1621 13.0846 39.9987 13.0814C38.8301 13.0817 37.6778 13.3547 36.6333 13.8788L34.7467 11.9921C34.6281 11.8764 34.469 11.8116 34.3033 11.8116C34.1377 11.8116 33.9785 11.8764 33.86 11.9921C33.7999 12.0505 33.7522 12.1204 33.7196 12.1975C33.6869 12.2747 33.6701 12.3576 33.6701 12.4414C33.6701 12.5252 33.6869 12.6082 33.7196 12.6853C33.7522 12.7625 33.7999 12.8324 33.86 12.8908L35.52 14.5494C33.6333 15.9414 32.4067 18.1428 32.4067 20.6734H47.5933C47.5933 18.1428 46.3267 15.9281 44.4667 14.5494ZM50.7573 21.9401C50.254 21.9401 49.7713 22.14 49.4152 22.4957C49.0592 22.8515 48.859 23.3341 48.8587 23.8374V32.6961C48.8587 33.1997 49.0587 33.6826 49.4148 34.0387C49.7708 34.3947 50.2538 34.5948 50.7573 34.5948C51.2607 34.5944 51.7432 34.3942 52.099 34.0382C52.4548 33.6822 52.6547 33.1994 52.6547 32.6961V23.8374C52.6543 23.3343 52.4543 22.8519 52.0986 22.4962C51.7428 22.1405 51.2604 21.9405 50.7573 21.9401ZM29.2427 21.9401C28.7393 21.9401 28.2566 22.14 27.9006 22.4957C27.5445 22.8515 27.3443 23.3341 27.344 23.8374V32.6961C27.344 33.1997 27.544 33.6826 27.9001 34.0387C28.2562 34.3947 28.7391 34.5948 29.2427 34.5948C29.746 34.5944 30.2286 34.3942 30.5844 34.0382C30.9401 33.6822 31.14 33.1994 31.14 32.6961V23.8374C31.1396 23.3343 30.9396 22.8519 30.5839 22.4962C30.2281 22.1405 29.7458 21.9405 29.2427 21.9401ZM32.4053 34.5948C32.4053 34.9307 32.5388 35.2529 32.7763 35.4904C33.0139 35.728 33.3361 35.8614 33.672 35.8614H34.9373V40.2894C34.9373 40.7928 35.1372 41.2755 35.493 41.6315C35.8487 41.9876 36.3313 42.1877 36.8347 42.1881C37.3382 42.1881 37.8212 41.9881 38.1772 41.632C38.5333 41.2759 38.7333 40.793 38.7333 40.2894V35.8601H41.264V40.2894C41.264 40.793 41.464 41.2759 41.8201 41.632C42.1762 41.9881 42.6591 42.1881 43.1627 42.1881C43.6662 42.1881 44.1492 41.9881 44.5052 41.632C44.8613 41.2759 45.0613 40.793 45.0613 40.2894V35.8601H46.3267C46.6624 35.8601 46.9844 35.7268 47.2219 35.4896C47.4594 35.2523 47.593 34.9305 47.5933 34.5948V21.9401H32.4053V34.5948Z" fill="#8BC34A"/>
<path d="M19.8072 61C19.7526 61 19.7014 60.9795 19.6536 60.9386C19.6126 60.8908 19.5922 60.8396 19.5922 60.785C19.5922 60.7508 19.5956 60.7201 19.6024 60.6928L22.0088 54.1187C22.0293 54.0436 22.0702 53.9788 22.1317 53.9242C22.1999 53.8627 22.2921 53.832 22.4082 53.832H23.9237C24.0397 53.832 24.1285 53.8627 24.1899 53.9242C24.2582 53.9788 24.3026 54.0436 24.323 54.1187L26.7192 60.6928C26.7329 60.7201 26.7397 60.7508 26.7397 60.785C26.7397 60.8396 26.7158 60.8908 26.668 60.9386C26.627 60.9795 26.5758 61 26.5144 61H25.2549C25.1525 61 25.074 60.9761 25.0194 60.9283C24.9716 60.8737 24.9409 60.8259 24.9272 60.785L24.5278 59.7405H21.7938L21.4046 60.785C21.391 60.8259 21.3603 60.8737 21.3125 60.9283C21.2647 60.9761 21.1828 61 21.0667 61H19.8072ZM22.2136 58.2659H24.1182L23.1557 55.5626L22.2136 58.2659ZM27.6902 61C27.6151 61 27.5536 60.9761 27.5058 60.9283C27.4581 60.8805 27.4342 60.8191 27.4342 60.744V55.9312C27.4342 55.8561 27.4581 55.7947 27.5058 55.7469C27.5536 55.6991 27.6151 55.6752 27.6902 55.6752H28.8678C28.9429 55.6752 29.0043 55.6991 29.0521 55.7469C29.0999 55.7947 29.1238 55.8561 29.1238 55.9312V56.3203C29.3013 56.1087 29.5334 55.9312 29.8201 55.7878C30.1068 55.6445 30.4447 55.5728 30.8338 55.5728C31.2298 55.5728 31.5779 55.6615 31.8783 55.839C32.1855 56.0165 32.4245 56.2794 32.5951 56.6275C32.7726 56.9689 32.8614 57.3887 32.8614 57.887V60.744C32.8614 60.8191 32.8341 60.8805 32.7794 60.9283C32.7317 60.9761 32.6736 61 32.6054 61H31.3151C31.2469 61 31.1854 60.9761 31.1308 60.9283C31.083 60.8805 31.0591 60.8191 31.0591 60.744V57.9485C31.0591 57.6276 30.9806 57.3819 30.8236 57.2112C30.6734 57.0337 30.4481 56.945 30.1478 56.945C29.8679 56.945 29.6426 57.0337 29.4719 57.2112C29.3081 57.3819 29.2262 57.6276 29.2262 57.9485V60.744C29.2262 60.8191 29.1989 60.8805 29.1442 60.9283C29.0965 60.9761 29.0384 61 28.9702 61H27.6902ZM35.9907 61.1024C35.663 61.1024 35.3661 61.0512 35.0998 60.9488C34.8404 60.8396 34.6151 60.6826 34.424 60.4778C34.2397 60.2661 34.0963 60.0135 33.9939 59.72C33.8915 59.4196 33.8335 59.0783 33.8198 58.696C33.813 58.5595 33.8096 58.44 33.8096 58.3376C33.8096 58.2284 33.813 58.1089 33.8198 57.9792C33.8335 57.6106 33.8915 57.2795 33.9939 56.9859C34.0963 56.6924 34.2397 56.4398 34.424 56.2282C34.6083 56.0165 34.8336 55.8561 35.0998 55.7469C35.3661 55.6308 35.663 55.5728 35.9907 55.5728C36.3321 55.5728 36.6256 55.6308 36.8714 55.7469C37.1171 55.8561 37.3253 55.9995 37.496 56.177V53.9856C37.496 53.9105 37.5199 53.8491 37.5677 53.8013C37.6155 53.7535 37.6769 53.7296 37.752 53.7296H39.0013C39.0695 53.7296 39.1276 53.7535 39.1754 53.8013C39.23 53.8491 39.2573 53.9105 39.2573 53.9856V60.744C39.2573 60.8191 39.23 60.8805 39.1754 60.9283C39.1276 60.9761 39.0695 61 39.0013 61H37.8442C37.7691 61 37.7076 60.9761 37.6598 60.9283C37.6121 60.8805 37.5882 60.8191 37.5882 60.744V60.4163C37.4243 60.6143 37.2127 60.7781 36.9533 60.9078C36.6939 61.0375 36.373 61.1024 35.9907 61.1024ZM36.5437 59.7302C36.7758 59.7302 36.9567 59.6825 37.0864 59.5869C37.2229 59.4845 37.3219 59.3548 37.3834 59.1978C37.4516 59.0407 37.4892 58.8701 37.496 58.6858C37.5028 58.5492 37.5062 58.4195 37.5062 58.2966C37.5062 58.1738 37.5028 58.0475 37.496 57.9178C37.4892 57.7471 37.4516 57.5901 37.3834 57.4467C37.3151 57.2965 37.2127 57.1771 37.0762 57.0883C36.9396 56.9927 36.7621 56.945 36.5437 56.945C36.3184 56.945 36.1375 56.9927 36.001 57.0883C35.8713 57.1839 35.7791 57.3136 35.7245 57.4774C35.6699 57.6413 35.6357 57.8222 35.6221 58.0202C35.6016 58.2318 35.6016 58.4434 35.6221 58.655C35.6357 58.853 35.6699 59.0339 35.7245 59.1978C35.7791 59.3616 35.8713 59.4913 36.001 59.5869C36.1375 59.6825 36.3184 59.7302 36.5437 59.7302ZM40.7202 61C40.6451 61 40.5836 60.9761 40.5358 60.9283C40.4881 60.8805 40.4642 60.8191 40.4642 60.744V55.9312C40.4642 55.8629 40.4881 55.8049 40.5358 55.7571C40.5836 55.7025 40.6451 55.6752 40.7202 55.6752H41.8978C41.9729 55.6752 42.0343 55.7025 42.0821 55.7571C42.1299 55.8049 42.1538 55.8629 42.1538 55.9312V56.3408C42.3381 56.1292 42.5565 55.9653 42.8091 55.8493C43.0685 55.7332 43.3587 55.6752 43.6795 55.6752H44.1301C44.1983 55.6752 44.2564 55.6991 44.3042 55.7469C44.3588 55.7947 44.3861 55.8561 44.3861 55.9312V56.9859C44.3861 57.0542 44.3588 57.1156 44.3042 57.1702C44.2564 57.218 44.1983 57.2419 44.1301 57.2419H43.1368C42.8569 57.2419 42.6385 57.3204 42.4814 57.4774C42.3313 57.6276 42.2562 57.8427 42.2562 58.1226V60.744C42.2562 60.8191 42.2289 60.8805 42.1742 60.9283C42.1265 60.9761 42.065 61 41.9899 61H40.7202ZM47.5932 61.1024C47.0198 61.1024 46.5351 61.0102 46.1391 60.8259C45.75 60.6416 45.4496 60.3788 45.238 60.0374C45.0332 59.6893 44.9171 59.2763 44.8898 58.7984C44.883 58.6619 44.8796 58.5083 44.8796 58.3376C44.8796 58.1601 44.883 58.0065 44.8898 57.8768C44.9171 57.3921 45.04 56.9791 45.2585 56.6378C45.4769 56.2964 45.7807 56.0336 46.1698 55.8493C46.5658 55.665 47.0402 55.5728 47.5932 55.5728C48.153 55.5728 48.6274 55.665 49.0166 55.8493C49.4125 56.0336 49.7197 56.2964 49.9382 56.6378C50.1566 56.9791 50.2795 57.3921 50.3068 57.8768C50.3136 58.0065 50.317 58.1601 50.317 58.3376C50.317 58.5083 50.3136 58.6619 50.3068 58.7984C50.2795 59.2763 50.16 59.6893 49.9484 60.0374C49.7436 60.3788 49.4432 60.6416 49.0473 60.8259C48.6582 61.0102 48.1735 61.1024 47.5932 61.1024ZM47.5932 59.8531C47.9004 59.8531 48.1223 59.761 48.2588 59.5766C48.4022 59.3923 48.4841 59.1158 48.5046 58.7472C48.5114 58.6448 48.5148 58.5083 48.5148 58.3376C48.5148 58.1669 48.5114 58.0304 48.5046 57.928C48.4841 57.5662 48.4022 57.2931 48.2588 57.1088C48.1223 56.9177 47.9004 56.8221 47.5932 56.8221C47.2928 56.8221 47.071 56.9177 46.9276 57.1088C46.7842 57.2931 46.7057 57.5662 46.6921 57.928C46.6853 58.0304 46.6818 58.1669 46.6818 58.3376C46.6818 58.5083 46.6853 58.6448 46.6921 58.7472C46.7057 59.1158 46.7842 59.3923 46.9276 59.5766C47.071 59.761 47.2928 59.8531 47.5932 59.8531ZM51.5802 61C51.5051 61 51.4436 60.9761 51.3958 60.9283C51.3481 60.8805 51.3242 60.8191 51.3242 60.744V55.9312C51.3242 55.8561 51.3481 55.7947 51.3958 55.7469C51.4436 55.6991 51.5051 55.6752 51.5802 55.6752H52.7885C52.8567 55.6752 52.9148 55.6991 52.9626 55.7469C53.0172 55.7947 53.0445 55.8561 53.0445 55.9312V60.744C53.0445 60.8191 53.0172 60.8805 52.9626 60.9283C52.9148 60.9761 52.8567 61 52.7885 61H51.5802ZM51.5699 54.9072C51.4948 54.9072 51.4334 54.8833 51.3856 54.8355C51.3378 54.7877 51.3139 54.7263 51.3139 54.6512V53.7398C51.3139 53.6647 51.3378 53.6033 51.3856 53.5555C51.4334 53.5009 51.4948 53.4736 51.5699 53.4736H52.7885C52.8636 53.4736 52.925 53.5009 52.9728 53.5555C53.0274 53.6033 53.0547 53.6647 53.0547 53.7398V54.6512C53.0547 54.7263 53.0274 54.7877 52.9728 54.8355C52.925 54.8833 52.8636 54.9072 52.7885 54.9072H51.5699ZM56.2307 61.1024C55.903 61.1024 55.6061 61.0512 55.3398 60.9488C55.0804 60.8396 54.8551 60.6826 54.664 60.4778C54.4797 60.2661 54.3363 60.0135 54.2339 59.72C54.1315 59.4196 54.0735 59.0783 54.0598 58.696C54.053 58.5595 54.0496 58.44 54.0496 58.3376C54.0496 58.2284 54.053 58.1089 54.0598 57.9792C54.0735 57.6106 54.1315 57.2795 54.2339 56.9859C54.3363 56.6924 54.4797 56.4398 54.664 56.2282C54.8483 56.0165 55.0736 55.8561 55.3398 55.7469C55.6061 55.6308 55.903 55.5728 56.2307 55.5728C56.5721 55.5728 56.8656 55.6308 57.1114 55.7469C57.3571 55.8561 57.5653 55.9995 57.736 56.177V53.9856C57.736 53.9105 57.7599 53.8491 57.8077 53.8013C57.8555 53.7535 57.9169 53.7296 57.992 53.7296H59.2413C59.3095 53.7296 59.3676 53.7535 59.4154 53.8013C59.47 53.8491 59.4973 53.9105 59.4973 53.9856V60.744C59.4973 60.8191 59.47 60.8805 59.4154 60.9283C59.3676 60.9761 59.3095 61 59.2413 61H58.0842C58.0091 61 57.9476 60.9761 57.8998 60.9283C57.8521 60.8805 57.8282 60.8191 57.8282 60.744V60.4163C57.6643 60.6143 57.4527 60.7781 57.1933 60.9078C56.9339 61.0375 56.613 61.1024 56.2307 61.1024ZM56.7837 59.7302C57.0158 59.7302 57.1967 59.6825 57.3264 59.5869C57.4629 59.4845 57.5619 59.3548 57.6234 59.1978C57.6916 59.0407 57.7292 58.8701 57.736 58.6858C57.7428 58.5492 57.7462 58.4195 57.7462 58.2966C57.7462 58.1738 57.7428 58.0475 57.736 57.9178C57.7292 57.7471 57.6916 57.5901 57.6234 57.4467C57.5551 57.2965 57.4527 57.1771 57.3162 57.0883C57.1796 56.9927 57.0021 56.945 56.7837 56.945C56.5584 56.945 56.3775 56.9927 56.241 57.0883C56.1113 57.1839 56.0191 57.3136 55.9645 57.4774C55.9099 57.6413 55.8757 57.8222 55.8621 58.0202C55.8416 58.2318 55.8416 58.4434 55.8621 58.655C55.8757 58.853 55.9099 59.0339 55.9645 59.1978C56.0191 59.3616 56.1113 59.4913 56.241 59.5869C56.3775 59.6825 56.5584 59.7302 56.7837 59.7302Z" fill="#E5E5E5"/>
</g>
<defs>
<filter id="filter0_d_603_604" x="0" y="0" width="80" height="80" filterUnits="userSpaceOnUse" color-interpolation-filters="sRGB">
<feFlood flood-opacity="0" result="BackgroundImageFix"/>
<feColorMatrix in="SourceAlpha" type="matrix" values="0 0 0 0 0 0 0 0 0 0 0 0 0 0 0 0 0 0 127 0" result="hardAlpha"/>
<feOffset dy="2"/>
<feGaussianBlur stdDeviation="4"/>
<feColorMatrix type="matrix" values="0 0 0 0 0 0 0 0 0 0 0 0 0 0 0 0 0 0 0.75 0"/>
<feBlend mode="normal" in2="BackgroundImageFix" result="effect1_dropShadow_603_604"/>
<feBlend mode="normal" in="SourceGraphic" in2="effect1_dropShadow_603_604" result="shape"/>
</filter>
</defs>
</svg>
