<svg width="80" height="80" viewBox="0 0 80 80" fill="none" xmlns="http://www.w3.org/2000/svg">
<g filter="url(#filter0_d_603_620)">
<rect x="8" y="6" width="64" height="64" rx="5" fill="#212529"/>
<g clip-path="url(#clip0_603_620)">
<path d="M40 11C31.1627 11 24 18.164 24 27C24 35.8373 31.1627 43 40 43C48.836 43 56 35.8373 56 27C56.0006 25.492 55.7883 23.9914 55.3693 22.5427C55.2908 22.3519 55.1416 22.1989 54.9529 22.1155C54.7642 22.0321 54.5506 22.0249 54.3567 22.0952C54.1627 22.1656 54.0035 22.3082 53.9122 22.4932C53.8209 22.6782 53.8046 22.8913 53.8667 23.088H53.864C54.2173 24.3453 54.4 25.6587 54.4 27C54.4052 28.8918 54.0351 30.7659 53.3112 32.5138C52.5873 34.2616 51.524 35.8485 50.1827 37.1827C48.8486 38.524 47.2616 39.5874 45.5138 40.3114C43.7659 41.0353 41.8918 41.4053 40 41.4C38.1082 41.4052 36.2341 41.0352 34.4863 40.3112C32.7384 39.5873 31.1515 38.524 29.8173 37.1827C28.4759 35.8486 27.4125 34.2617 26.6886 32.5138C25.9646 30.766 25.5947 28.8919 25.6 27C25.5948 25.1082 25.9649 23.2341 26.6888 21.4863C27.4127 19.7384 28.476 18.1515 29.8173 16.8173C31.1514 15.4759 32.7383 14.4125 34.4862 13.6886C36.234 12.9647 38.1082 12.5947 40 12.6C43.4347 12.6 46.684 13.7947 49.2773 15.9867C49.1134 16.4027 49.0971 16.8623 49.2311 17.2889C49.3651 17.7155 49.6413 18.0833 50.0136 18.3309C50.3859 18.5784 50.8319 18.6909 51.2771 18.6494C51.7223 18.608 52.1399 18.4152 52.4601 18.1031C52.7804 17.791 52.9839 17.3786 53.0369 16.9346C53.0898 16.4906 52.9889 16.0419 52.751 15.6633C52.5132 15.2847 52.1527 14.9991 51.7297 14.8541C51.3067 14.7091 50.8468 14.7136 50.4267 14.8667C47.5281 12.3677 43.8271 10.9952 40 11ZM38.08 18.84L32.48 33.376H35.9867L36.9027 30.912H42.1947L41.236 28.1893H37.752L40.0187 21.9347L44.0507 33.3747H47.5587L41.96 18.84H38.08Z" fill="white"/>
</g>
<path d="M23.8072 61C23.7526 61 23.7014 60.9795 23.6536 60.9386C23.6126 60.8908 23.5922 60.8396 23.5922 60.785C23.5922 60.7508 23.5956 60.7201 23.6024 60.6928L26.0088 54.1187C26.0293 54.0436 26.0702 53.9788 26.1317 53.9242C26.1999 53.8627 26.2921 53.832 26.4082 53.832H27.9237C28.0397 53.832 28.1285 53.8627 28.1899 53.9242C28.2582 53.9788 28.3026 54.0436 28.323 54.1187L30.7192 60.6928C30.7329 60.7201 30.7397 60.7508 30.7397 60.785C30.7397 60.8396 30.7158 60.8908 30.668 60.9386C30.627 60.9795 30.5758 61 30.5144 61H29.2549C29.1525 61 29.074 60.9761 29.0194 60.9283C28.9716 60.8737 28.9409 60.8259 28.9272 60.785L28.5278 59.7405H25.7938L25.4046 60.785C25.391 60.8259 25.3603 60.8737 25.3125 60.9283C25.2647 60.9761 25.1828 61 25.0667 61H23.8072ZM26.2136 58.2659H28.1182L27.1557 55.5626L26.2136 58.2659ZM31.6902 62.9456C31.6151 62.9456 31.5536 62.9217 31.5058 62.8739C31.4581 62.8261 31.4342 62.7647 31.4342 62.6896V55.9312C31.4342 55.8561 31.4581 55.7947 31.5058 55.7469C31.5536 55.6991 31.6151 55.6752 31.6902 55.6752H32.8473C32.9155 55.6752 32.9736 55.6991 33.0214 55.7469C33.076 55.7947 33.1033 55.8561 33.1033 55.9312V56.3101C33.2603 56.0985 33.4685 55.9244 33.7279 55.7878C33.9873 55.6445 34.3082 55.5728 34.6905 55.5728C35.0318 55.5728 35.3322 55.6274 35.5916 55.7366C35.851 55.839 36.0729 55.9926 36.2572 56.1974C36.4415 56.4022 36.5849 56.6514 36.6873 56.945C36.7965 57.2385 36.8579 57.5764 36.8716 57.9587C36.8784 58.0953 36.8818 58.2215 36.8818 58.3376C36.8818 58.4537 36.8784 58.5799 36.8716 58.7165C36.8579 59.0851 36.7999 59.4162 36.6975 59.7098C36.5951 60.0033 36.4518 60.2525 36.2674 60.4573C36.0831 60.6621 35.8578 60.8225 35.5916 60.9386C35.3322 61.0478 35.0318 61.1024 34.6905 61.1024C34.356 61.1024 34.0624 61.0444 33.8098 60.9283C33.5641 60.8054 33.3593 60.6348 33.1954 60.4163V62.6896C33.1954 62.7647 33.1715 62.8261 33.1238 62.8739C33.076 62.9217 33.0145 62.9456 32.9394 62.9456H31.6902ZM34.1375 59.7302C34.3696 59.7302 34.5505 59.6825 34.6802 59.5869C34.8099 59.4913 34.9021 59.3616 34.9567 59.1978C35.0182 59.0339 35.0557 58.853 35.0694 58.655C35.083 58.4434 35.083 58.2318 35.0694 58.0202C35.0557 57.8222 35.0182 57.6413 34.9567 57.4774C34.9021 57.3136 34.8099 57.1839 34.6802 57.0883C34.5505 56.9927 34.3696 56.945 34.1375 56.945C33.9122 56.945 33.7313 56.9962 33.5948 57.0986C33.4583 57.1941 33.3593 57.3204 33.2978 57.4774C33.2364 57.6345 33.2023 57.8051 33.1954 57.9894C33.1886 58.1191 33.1852 58.2454 33.1852 58.3683C33.1852 58.4912 33.1886 58.6209 33.1954 58.7574C33.2023 58.9281 33.2398 59.0885 33.3081 59.2387C33.3763 59.3821 33.4787 59.5015 33.6153 59.5971C33.7518 59.6859 33.9259 59.7302 34.1375 59.7302ZM40.4132 61.1024C39.8398 61.1024 39.3551 61.0102 38.9591 60.8259C38.57 60.6416 38.2696 60.3788 38.058 60.0374C37.8532 59.6893 37.7371 59.2763 37.7098 58.7984C37.703 58.6619 37.6996 58.5083 37.6996 58.3376C37.6996 58.1601 37.703 58.0065 37.7098 57.8768C37.7371 57.3921 37.86 56.9791 38.0785 56.6378C38.2969 56.2964 38.6007 56.0336 38.9898 55.8493C39.3858 55.665 39.8602 55.5728 40.4132 55.5728C40.973 55.5728 41.4474 55.665 41.8366 55.8493C42.2325 56.0336 42.5397 56.2964 42.7582 56.6378C42.9766 56.9791 43.0995 57.3921 43.1268 57.8768C43.1336 58.0065 43.137 58.1601 43.137 58.3376C43.137 58.5083 43.1336 58.6619 43.1268 58.7984C43.0995 59.2763 42.98 59.6893 42.7684 60.0374C42.5636 60.3788 42.2632 60.6416 41.8673 60.8259C41.4782 61.0102 40.9935 61.1024 40.4132 61.1024ZM40.4132 59.8531C40.7204 59.8531 40.9423 59.761 41.0788 59.5766C41.2222 59.3923 41.3041 59.1158 41.3246 58.7472C41.3314 58.6448 41.3348 58.5083 41.3348 58.3376C41.3348 58.1669 41.3314 58.0304 41.3246 57.928C41.3041 57.5662 41.2222 57.2931 41.0788 57.1088C40.9423 56.9177 40.7204 56.8221 40.4132 56.8221C40.1128 56.8221 39.891 56.9177 39.7476 57.1088C39.6042 57.2931 39.5257 57.5662 39.5121 57.928C39.5053 58.0304 39.5018 58.1669 39.5018 58.3376C39.5018 58.5083 39.5053 58.6448 39.5121 58.7472C39.5257 59.1158 39.6042 59.3923 39.7476 59.5766C39.891 59.761 40.1128 59.8531 40.4132 59.8531ZM44.4002 61C44.3251 61 44.2636 60.9761 44.2158 60.9283C44.1681 60.8805 44.1442 60.8191 44.1442 60.744V53.9856C44.1442 53.9105 44.1681 53.8491 44.2158 53.8013C44.2636 53.7535 44.3251 53.7296 44.4002 53.7296H45.6085C45.6836 53.7296 45.745 53.7535 45.7928 53.8013C45.8406 53.8491 45.8645 53.9105 45.8645 53.9856V60.744C45.8645 60.8191 45.8406 60.8805 45.7928 60.9283C45.745 60.9761 45.6836 61 45.6085 61H44.4002ZM47.3302 61C47.2551 61 47.1936 60.9761 47.1458 60.9283C47.0981 60.8805 47.0742 60.8191 47.0742 60.744V53.9856C47.0742 53.9105 47.0981 53.8491 47.1458 53.8013C47.1936 53.7535 47.2551 53.7296 47.3302 53.7296H48.5385C48.6136 53.7296 48.675 53.7535 48.7228 53.8013C48.7706 53.8491 48.7945 53.9105 48.7945 53.9856V60.744C48.7945 60.8191 48.7706 60.8805 48.7228 60.9283C48.675 60.9761 48.6136 61 48.5385 61H47.3302ZM52.5232 61.1024C51.9498 61.1024 51.4651 61.0102 51.0691 60.8259C50.68 60.6416 50.3796 60.3788 50.168 60.0374C49.9632 59.6893 49.8471 59.2763 49.8198 58.7984C49.813 58.6619 49.8096 58.5083 49.8096 58.3376C49.8096 58.1601 49.813 58.0065 49.8198 57.8768C49.8471 57.3921 49.97 56.9791 50.1885 56.6378C50.4069 56.2964 50.7107 56.0336 51.0998 55.8493C51.4958 55.665 51.9702 55.5728 52.5232 55.5728C53.083 55.5728 53.5574 55.665 53.9466 55.8493C54.3425 56.0336 54.6497 56.2964 54.8682 56.6378C55.0866 56.9791 55.2095 57.3921 55.2368 57.8768C55.2436 58.0065 55.247 58.1601 55.247 58.3376C55.247 58.5083 55.2436 58.6619 55.2368 58.7984C55.2095 59.2763 55.09 59.6893 54.8784 60.0374C54.6736 60.3788 54.3732 60.6416 53.9773 60.8259C53.5882 61.0102 53.1035 61.1024 52.5232 61.1024ZM52.5232 59.8531C52.8304 59.8531 53.0523 59.761 53.1888 59.5766C53.3322 59.3923 53.4141 59.1158 53.4346 58.7472C53.4414 58.6448 53.4448 58.5083 53.4448 58.3376C53.4448 58.1669 53.4414 58.0304 53.4346 57.928C53.4141 57.5662 53.3322 57.2931 53.1888 57.1088C53.0523 56.9177 52.8304 56.8221 52.5232 56.8221C52.2228 56.8221 52.001 56.9177 51.8576 57.1088C51.7142 57.2931 51.6357 57.5662 51.6221 57.928C51.6153 58.0304 51.6118 58.1669 51.6118 58.3376C51.6118 58.5083 51.6153 58.6448 51.6221 58.7472C51.6357 59.1158 51.7142 59.3923 51.8576 59.5766C52.001 59.761 52.2228 59.8531 52.5232 59.8531Z" fill="#E5E5E5"/>
</g>
<defs>
<filter id="filter0_d_603_620" x="0" y="0" width="80" height="80" filterUnits="userSpaceOnUse" color-interpolation-filters="sRGB">
<feFlood flood-opacity="0" result="BackgroundImageFix"/>
<feColorMatrix in="SourceAlpha" type="matrix" values="0 0 0 0 0 0 0 0 0 0 0 0 0 0 0 0 0 0 127 0" result="hardAlpha"/>
<feOffset dy="2"/>
<feGaussianBlur stdDeviation="4"/>
<feColorMatrix type="matrix" values="0 0 0 0 0 0 0 0 0 0 0 0 0 0 0 0 0 0 0.75 0"/>
<feBlend mode="normal" in2="BackgroundImageFix" result="effect1_dropShadow_603_620"/>
<feBlend mode="normal" in="SourceGraphic" in2="effect1_dropShadow_603_620" result="shape"/>
</filter>
<clipPath id="clip0_603_620">
<rect width="32" height="32" fill="white" transform="translate(24 11)"/>
</clipPath>
</defs>
</svg>
