<svg width="80" height="80" viewBox="0 0 80 80" fill="none" xmlns="http://www.w3.org/2000/svg">
<g filter="url(#filter0_d_602_205)">
<rect x="8" y="6" width="64" height="64" rx="5" fill="#212529"/>
<path d="M31.7824 38.9665H35.6452L36.8382 34.8764H42.8028L43.9957 38.9665H48.0858L40.0193 14.9375L31.7824 38.9665ZM40.0193 25.3898L42.0643 31.9793H37.9743L40.0193 25.3898ZM55.9818 34.2516L55.5842 32.6042L47.1769 31.7521L48.2562 34.6492L55.9818 34.2516ZM32.8049 31.9793L24.3976 32.8314L24 34.4788L31.7824 34.8764L32.8049 31.9793Z" fill="#DD3835"/>
<path d="M13.7457 60C13.702 60 13.6611 59.9836 13.6228 59.9509C13.5901 59.9126 13.5737 59.8717 13.5737 59.828C13.5737 59.8007 13.5764 59.7761 13.5819 59.7543L15.5065 54.4963C15.5229 54.4363 15.5557 54.3844 15.6048 54.3407C15.6594 54.2916 15.7331 54.267 15.826 54.267H17.0381C17.1309 54.267 17.2019 54.2916 17.251 54.3407C17.3056 54.3844 17.3411 54.4363 17.3575 54.4963L19.274 59.7543C19.2849 59.7761 19.2903 59.8007 19.2903 59.828C19.2903 59.8717 19.2712 59.9126 19.233 59.9509C19.2002 59.9836 19.1593 60 19.1102 60H18.1028C18.0209 60 17.9581 59.9809 17.9144 59.9427C17.8762 59.899 17.8516 59.8608 17.8407 59.828L17.5213 58.9926H15.3346L15.0233 59.828C15.0124 59.8608 14.9879 59.899 14.9496 59.9427C14.9114 59.9809 14.8459 60 14.7531 60H13.7457ZM15.6704 57.8133H17.1937L16.4238 55.6511L15.6704 57.8133ZM21.3621 60.0819C21.0509 60.0819 20.7724 60.0109 20.5267 59.869C20.2865 59.727 20.0981 59.5195 19.9616 59.2465C19.8251 58.9681 19.7568 58.6295 19.7568 58.231V55.9459C19.7568 55.8859 19.7759 55.8367 19.8142 55.7985C19.8524 55.7603 19.9015 55.7412 19.9616 55.7412H20.9853C21.0454 55.7412 21.0945 55.7603 21.1328 55.7985C21.171 55.8367 21.1901 55.8859 21.1901 55.9459V58.1818C21.1901 58.7169 21.4303 58.9844 21.9108 58.9844C22.1347 58.9844 22.3121 58.9162 22.4432 58.7797C22.5797 58.6377 22.6479 58.4384 22.6479 58.1818V55.9459C22.6479 55.8859 22.667 55.8367 22.7052 55.7985C22.7435 55.7603 22.7926 55.7412 22.8527 55.7412H23.8764C23.9365 55.7412 23.9856 55.7603 24.0238 55.7985C24.062 55.8367 24.0812 55.8859 24.0812 55.9459V59.7953C24.0812 59.8553 24.062 59.9045 24.0238 59.9427C23.9856 59.9809 23.9365 60 23.8764 60H22.9264C22.8718 60 22.8226 59.9809 22.7789 59.9427C22.7407 59.9045 22.7216 59.8553 22.7216 59.7953V59.484C22.5797 59.6806 22.394 59.8307 22.1647 59.9345C21.9408 60.0328 21.6733 60.0819 21.3621 60.0819ZM27.223 60C26.8736 60 26.5706 59.9454 26.314 59.8362C26.0628 59.7215 25.869 59.5468 25.7325 59.312C25.596 59.0718 25.5277 58.7633 25.5277 58.3866V56.8141H24.8889C24.8288 56.8141 24.777 56.795 24.7333 56.7568C24.6951 56.7185 24.676 56.6694 24.676 56.6093V55.9459C24.676 55.8859 24.6951 55.8367 24.7333 55.7985C24.777 55.7603 24.8288 55.7412 24.8889 55.7412H25.5277V54.3898C25.5277 54.3298 25.5468 54.2807 25.585 54.2424C25.6287 54.2042 25.6779 54.1851 25.7325 54.1851H26.6825C26.7426 54.1851 26.7917 54.2042 26.8299 54.2424C26.8681 54.2807 26.8873 54.3298 26.8873 54.3898V55.7412H27.911C27.9711 55.7412 28.0202 55.7603 28.0584 55.7985C28.0966 55.8367 28.1158 55.8859 28.1158 55.9459V56.6093C28.1158 56.6694 28.0966 56.7185 28.0584 56.7568C28.0202 56.795 27.9711 56.8141 27.911 56.8141H26.8873V58.2719C26.8873 58.4576 26.9227 58.605 26.9937 58.7142C27.0647 58.8234 27.1848 58.878 27.3541 58.878H27.9847C28.0448 58.878 28.0939 58.8971 28.1321 58.9353C28.1704 58.9735 28.1895 59.0227 28.1895 59.0827V59.7953C28.1895 59.8553 28.1704 59.9045 28.1321 59.9427C28.0939 59.9809 28.0448 60 27.9847 60H27.223ZM30.8823 60.0819C30.4237 60.0819 30.036 60.0082 29.7193 59.8608C29.4081 59.7133 29.1679 59.5031 28.9986 59.2301C28.8348 58.9517 28.742 58.6214 28.7202 58.2392C28.7147 58.13 28.712 58.0071 28.712 57.8706C28.712 57.7286 28.7147 57.6058 28.7202 57.5021C28.742 57.1144 28.8403 56.7841 29.015 56.5111C29.1897 56.2381 29.4327 56.0279 29.7439 55.8804C30.0606 55.733 30.4401 55.6593 30.8823 55.6593C31.33 55.6593 31.7095 55.733 32.0207 55.8804C32.3374 56.0279 32.5831 56.2381 32.7578 56.5111C32.9325 56.7841 33.0308 57.1144 33.0527 57.5021C33.0581 57.6058 33.0609 57.7286 33.0609 57.8706C33.0609 58.0071 33.0581 58.13 33.0527 58.2392C33.0308 58.6214 32.9353 58.9517 32.766 59.2301C32.6022 59.5031 32.362 59.7133 32.0453 59.8608C31.7341 60.0082 31.3464 60.0819 30.8823 60.0819ZM30.8823 59.0827C31.128 59.0827 31.3055 59.009 31.4147 58.8616C31.5293 58.7142 31.5948 58.493 31.6112 58.1982C31.6167 58.1163 31.6194 58.0071 31.6194 57.8706C31.6194 57.7341 31.6167 57.6249 31.6112 57.543C31.5948 57.2536 31.5293 57.0352 31.4147 56.8878C31.3055 56.7349 31.128 56.6585 30.8823 56.6585C30.6421 56.6585 30.4646 56.7349 30.35 56.8878C30.2353 57.0352 30.1725 57.2536 30.1616 57.543C30.1561 57.6249 30.1534 57.7341 30.1534 57.8706C30.1534 58.0071 30.1561 58.1163 30.1616 58.1982C30.1725 58.493 30.2353 58.7142 30.35 58.8616C30.4646 59.009 30.6421 59.0827 30.8823 59.0827ZM34.0711 61.5561C34.011 61.5561 33.9619 61.537 33.9237 61.4988C33.8855 61.4606 33.8664 61.4114 33.8664 61.3513V55.9459C33.8664 55.8859 33.8855 55.8367 33.9237 55.7985C33.9619 55.7603 34.011 55.7412 34.0711 55.7412H34.9966C35.0512 55.7412 35.0976 55.7603 35.1358 55.7985C35.1795 55.8367 35.2013 55.8859 35.2013 55.9459V56.249C35.3269 56.0797 35.4934 55.9405 35.7009 55.8313C35.9084 55.7166 36.165 55.6593 36.4708 55.6593C36.7438 55.6593 36.984 55.703 37.1915 55.7903C37.399 55.8722 37.5764 55.9951 37.7238 56.1589C37.8713 56.3227 37.9859 56.522 38.0678 56.7568C38.1552 56.9915 38.2043 57.2618 38.2152 57.5676C38.2207 57.6768 38.2234 57.7778 38.2234 57.8706C38.2234 57.9634 38.2207 58.0644 38.2152 58.1736C38.2043 58.4685 38.1579 58.7333 38.076 58.9681C37.9941 59.2028 37.8795 59.4021 37.732 59.5659C37.5846 59.7297 37.4044 59.858 37.1915 59.9509C36.984 60.0382 36.7438 60.0819 36.4708 60.0819C36.2032 60.0819 35.9685 60.0355 35.7664 59.9427C35.5699 59.8444 35.4061 59.7079 35.275 59.5332V61.3513C35.275 61.4114 35.2559 61.4606 35.2177 61.4988C35.1795 61.537 35.1303 61.5561 35.0703 61.5561H34.0711ZM36.0285 58.9844C36.2142 58.9844 36.3588 58.9462 36.4626 58.8698C36.5663 58.7933 36.64 58.6896 36.6837 58.5586C36.7329 58.4275 36.7629 58.2828 36.7738 58.1245C36.7847 57.9552 36.7847 57.786 36.7738 57.6167C36.7629 57.4584 36.7329 57.3137 36.6837 57.1826C36.64 57.0516 36.5663 56.9479 36.4626 56.8714C36.3588 56.795 36.2142 56.7568 36.0285 56.7568C35.8483 56.7568 35.7036 56.7977 35.5944 56.8796C35.4852 56.9561 35.4061 57.0571 35.3569 57.1826C35.3078 57.3082 35.2805 57.4447 35.275 57.5921C35.2696 57.6959 35.2668 57.7969 35.2668 57.8952C35.2668 57.9935 35.2696 58.0972 35.275 58.2064C35.2805 58.3429 35.3105 58.4712 35.3651 58.5913C35.4197 58.706 35.5016 58.8015 35.6108 58.878C35.72 58.9489 35.8593 58.9844 36.0285 58.9844ZM39.2378 60C39.1778 60 39.1286 59.9809 39.0904 59.9427C39.0522 59.9045 39.0331 59.8553 39.0331 59.7953V55.9459C39.0331 55.8914 39.0522 55.8449 39.0904 55.8067C39.1286 55.763 39.1778 55.7412 39.2378 55.7412H40.1797C40.2398 55.7412 40.2889 55.763 40.3271 55.8067C40.3653 55.8449 40.3844 55.8914 40.3844 55.9459V56.2736C40.5319 56.1043 40.7066 55.9732 40.9086 55.8804C41.1161 55.7876 41.3481 55.7412 41.6048 55.7412H41.9651C42.0197 55.7412 42.0661 55.7603 42.1043 55.7985C42.148 55.8367 42.1699 55.8859 42.1699 55.9459V56.7895C42.1699 56.8441 42.148 56.8933 42.1043 56.9369C42.0661 56.9752 42.0197 56.9943 41.9651 56.9943H41.1707C40.9468 56.9943 40.7721 57.0571 40.6465 57.1826C40.5264 57.3028 40.4663 57.4747 40.4663 57.6986V59.7953C40.4663 59.8553 40.4445 59.9045 40.4008 59.9427C40.3626 59.9809 40.3135 60 40.2534 60H39.2378ZM44.6858 60.0819C44.0415 60.0819 43.5283 59.9072 43.1461 59.5577C42.7639 59.2083 42.5646 58.6896 42.5482 58.0016C42.5482 57.9634 42.5482 57.9143 42.5482 57.8542C42.5482 57.7942 42.5482 57.7478 42.5482 57.715C42.5646 57.2837 42.6601 56.9151 42.8349 56.6093C43.015 56.2981 43.2607 56.0633 43.572 55.905C43.8886 55.7412 44.2572 55.6593 44.6776 55.6593C45.1581 55.6593 45.5539 55.7548 45.8652 55.9459C46.1818 56.1371 46.4193 56.3964 46.5777 56.724C46.736 57.0516 46.8152 57.4256 46.8152 57.846V58.0426C46.8152 58.1026 46.7934 58.1518 46.7497 58.19C46.7115 58.2282 46.665 58.2473 46.6104 58.2473H43.9896C43.9896 58.2528 43.9896 58.261 43.9896 58.2719C43.9896 58.2828 43.9896 58.2938 43.9896 58.3047C43.9951 58.463 44.0224 58.6077 44.0715 58.7387C44.1207 58.8698 44.1971 58.9735 44.3009 59.05C44.4046 59.1264 44.5302 59.1646 44.6776 59.1646C44.7868 59.1646 44.8769 59.1482 44.9479 59.1155C45.0243 59.0773 45.0871 59.0363 45.1362 58.9926C45.1854 58.9435 45.2236 58.9025 45.2509 58.8698C45.3 58.8152 45.3383 58.7824 45.3656 58.7715C45.3983 58.7551 45.4475 58.7469 45.513 58.7469H46.5285C46.5831 58.7469 46.6268 58.7633 46.6596 58.7961C46.6978 58.8234 46.7142 58.8643 46.7087 58.9189C46.7033 59.0117 46.6569 59.1237 46.5695 59.2547C46.4821 59.3858 46.3538 59.5168 46.1846 59.6478C46.0208 59.7734 45.8133 59.8771 45.5621 59.959C45.311 60.041 45.0189 60.0819 44.6858 60.0819ZM43.9896 57.4365H45.3738V57.4201C45.3738 57.2454 45.3465 57.0926 45.2919 56.9615C45.2427 56.8305 45.1635 56.7295 45.0543 56.6585C44.9506 56.5875 44.825 56.552 44.6776 56.552C44.5302 56.552 44.4046 56.5875 44.3009 56.6585C44.2026 56.7295 44.1261 56.8305 44.0715 56.9615C44.0169 57.0926 43.9896 57.2454 43.9896 57.4201V57.4365ZM48.239 60C48.1844 60 48.1352 59.9809 48.0916 59.9427C48.0533 59.9045 48.0342 59.8553 48.0342 59.7953V56.8141H47.4118C47.3517 56.8141 47.3026 56.795 47.2644 56.7568C47.2261 56.7185 47.207 56.6694 47.207 56.6093V55.9459C47.207 55.8859 47.2261 55.8367 47.2644 55.7985C47.3026 55.7603 47.3517 55.7412 47.4118 55.7412H48.0342V55.4791C48.0342 55.1078 48.1052 54.8103 48.2472 54.5864C48.3946 54.3571 48.6021 54.1933 48.8696 54.095C49.1371 53.9913 49.4566 53.9394 49.8278 53.9394H51.9245C51.9791 53.9394 52.0255 53.9585 52.0637 53.9967C52.1074 54.035 52.1292 54.0841 52.1292 54.1442V54.8075C52.1292 54.8676 52.1074 54.9167 52.0637 54.955C52.0255 54.9932 51.9791 55.0123 51.9245 55.0123H49.8934C49.7077 55.0123 49.5767 55.056 49.5002 55.1433C49.4293 55.2307 49.3938 55.3563 49.3938 55.5201V55.7412H51.9245C51.9791 55.7412 52.0255 55.7603 52.0637 55.7985C52.1074 55.8367 52.1292 55.8859 52.1292 55.9459V59.7953C52.1292 59.8553 52.1074 59.9045 52.0637 59.9427C52.0255 59.9809 51.9791 60 51.9245 60H50.9744C50.9144 60 50.8652 59.9809 50.827 59.9427C50.7888 59.9045 50.7697 59.8553 50.7697 59.7953V56.8141H49.3938V59.7953C49.3938 59.8553 49.3747 59.9045 49.3364 59.9427C49.2982 59.9809 49.2491 60 49.189 60H48.239ZM52.9137 60C52.8645 60 52.8208 59.9836 52.7826 59.9509C52.7499 59.9126 52.7335 59.869 52.7335 59.8198C52.7335 59.8034 52.7362 59.7843 52.7417 59.7625C52.7471 59.7352 52.7581 59.7106 52.7744 59.6888L54.1422 57.8133L52.8973 56.0524C52.8809 56.0306 52.8673 56.0087 52.8563 55.9869C52.8509 55.9651 52.8481 55.9432 52.8481 55.9214C52.8481 55.8722 52.8673 55.8313 52.9055 55.7985C52.9437 55.7603 52.9874 55.7412 53.0365 55.7412H54.0357C54.1067 55.7412 54.1585 55.7576 54.1913 55.7903C54.2295 55.8231 54.2568 55.8531 54.2732 55.8804L55.0349 56.9369L55.7884 55.8886C55.8102 55.8613 55.8375 55.8313 55.8703 55.7985C55.9085 55.7603 55.9631 55.7412 56.0341 55.7412H56.9923C57.0414 55.7412 57.0824 55.7603 57.1151 55.7985C57.1534 55.8313 57.1725 55.8722 57.1725 55.9214C57.1725 55.9432 57.1697 55.9651 57.1643 55.9869C57.1588 56.0087 57.1479 56.0306 57.1315 56.0524L55.8539 57.8133L57.238 59.6888C57.2598 59.7106 57.2735 59.7325 57.2789 59.7543C57.2844 59.7761 57.2871 59.798 57.2871 59.8198C57.2871 59.869 57.268 59.9126 57.2298 59.9509C57.197 59.9836 57.1534 60 57.0988 60H56.0586C55.9931 60 55.944 59.9863 55.9112 59.959C55.8784 59.9263 55.8511 59.8963 55.8293 59.869L55.0021 58.7469L54.1667 59.869C54.1449 59.8908 54.1176 59.9181 54.0848 59.9509C54.0521 59.9836 54.0002 60 53.9292 60H52.9137ZM59.7061 60.0819C59.0618 60.0819 58.5486 59.9072 58.1664 59.5577C57.7842 59.2083 57.5849 58.6896 57.5685 58.0016C57.5685 57.9634 57.5685 57.9143 57.5685 57.8542C57.5685 57.7942 57.5685 57.7478 57.5685 57.715C57.5849 57.2837 57.6805 56.9151 57.8552 56.6093C58.0354 56.2981 58.2811 56.0633 58.5923 55.905C58.909 55.7412 59.2775 55.6593 59.6979 55.6593C60.1784 55.6593 60.5743 55.7548 60.8855 55.9459C61.2022 56.1371 61.4397 56.3964 61.598 56.724C61.7564 57.0516 61.8355 57.4256 61.8355 57.846V58.0426C61.8355 58.1026 61.8137 58.1518 61.77 58.19C61.7318 58.2282 61.6854 58.2473 61.6308 58.2473H59.01C59.01 58.2528 59.01 58.261 59.01 58.2719C59.01 58.2828 59.01 58.2938 59.01 58.3047C59.0154 58.463 59.0427 58.6077 59.0919 58.7387C59.141 58.8698 59.2175 58.9735 59.3212 59.05C59.4249 59.1264 59.5505 59.1646 59.6979 59.1646C59.8071 59.1646 59.8972 59.1482 59.9682 59.1155C60.0446 59.0773 60.1074 59.0363 60.1566 58.9926C60.2057 58.9435 60.2439 58.9025 60.2712 58.8698C60.3204 58.8152 60.3586 58.7824 60.3859 58.7715C60.4187 58.7551 60.4678 58.7469 60.5333 58.7469H61.5489C61.6035 58.7469 61.6472 58.7633 61.6799 58.7961C61.7181 58.8234 61.7345 58.8643 61.7291 58.9189C61.7236 59.0117 61.6772 59.1237 61.5898 59.2547C61.5025 59.3858 61.3742 59.5168 61.2049 59.6478C61.0411 59.7734 60.8336 59.8771 60.5825 59.959C60.3313 60.041 60.0392 60.0819 59.7061 60.0819ZM59.01 57.4365H60.3941V57.4201C60.3941 57.2454 60.3668 57.0926 60.3122 56.9615C60.263 56.8305 60.1839 56.7295 60.0747 56.6585C59.9709 56.5875 59.8454 56.552 59.6979 56.552C59.5505 56.552 59.4249 56.5875 59.3212 56.6585C59.2229 56.7295 59.1465 56.8305 59.0919 56.9615C59.0373 57.0926 59.01 57.2454 59.01 57.4201V57.4365ZM62.8081 60C62.748 60 62.6989 59.9809 62.6607 59.9427C62.6224 59.9045 62.6033 59.8553 62.6033 59.7953V55.9459C62.6033 55.8914 62.6224 55.8449 62.6607 55.8067C62.6989 55.763 62.748 55.7412 62.8081 55.7412H63.7499C63.81 55.7412 63.8591 55.763 63.8974 55.8067C63.9356 55.8449 63.9547 55.8914 63.9547 55.9459V56.2736C64.1021 56.1043 64.2768 55.9732 64.4788 55.8804C64.6863 55.7876 64.9184 55.7412 65.175 55.7412H65.5354C65.59 55.7412 65.6364 55.7603 65.6746 55.7985C65.7183 55.8367 65.7401 55.8859 65.7401 55.9459V56.7895C65.7401 56.8441 65.7183 56.8933 65.6746 56.9369C65.6364 56.9752 65.59 56.9943 65.5354 56.9943H64.7409C64.5171 56.9943 64.3423 57.0571 64.2168 57.1826C64.0966 57.3028 64.0366 57.4747 64.0366 57.6986V59.7953C64.0366 59.8553 64.0147 59.9045 63.9711 59.9427C63.9328 59.9809 63.8837 60 63.8236 60H62.8081Z" fill="#E5E5E5"/>
</g>
<defs>
<filter id="filter0_d_602_205" x="0" y="0" width="80" height="80" filterUnits="userSpaceOnUse" color-interpolation-filters="sRGB">
<feFlood flood-opacity="0" result="BackgroundImageFix"/>
<feColorMatrix in="SourceAlpha" type="matrix" values="0 0 0 0 0 0 0 0 0 0 0 0 0 0 0 0 0 0 127 0" result="hardAlpha"/>
<feOffset dy="2"/>
<feGaussianBlur stdDeviation="4"/>
<feColorMatrix type="matrix" values="0 0 0 0 0 0 0 0 0 0 0 0 0 0 0 0 0 0 0.75 0"/>
<feBlend mode="normal" in2="BackgroundImageFix" result="effect1_dropShadow_602_205"/>
<feBlend mode="normal" in="SourceGraphic" in2="effect1_dropShadow_602_205" result="shape"/>
</filter>
</defs>
</svg>
