<svg width="80" height="80" viewBox="0 0 80 80" fill="none" xmlns="http://www.w3.org/2000/svg">
<g filter="url(#filter0_d_603_1512)">
<rect x="8" y="6" width="64" height="64" rx="5" fill="#212529"/>
<path d="M50.179 33.7768C51.3054 33.6396 53.7894 33.3444 54.2317 33.914C54.6737 34.4731 53.7369 36.8258 53.3158 37.87C53.1895 38.1866 53.4632 38.3131 53.7474 38.0706C55.6 36.5092 56.0843 33.2492 55.7054 32.7746C55.3263 32.3106 52.0738 31.9095 50.0947 33.3022C49.7894 33.5236 49.8421 33.8191 50.179 33.7768Z" fill="#FF9900"/>
<path d="M39.9684 39.4837C44.2948 39.4837 49.3262 38.1227 52.7895 35.5592C53.3578 35.1373 52.8631 34.4939 52.2841 34.7575C48.4 36.4032 44.1789 37.2051 40.3368 37.2051C34.6421 37.2051 29.1368 35.6333 24.6739 33.0381C24.2841 32.806 23.9895 33.2068 24.3157 33.5023C28.4422 37.2367 33.9052 39.4837 39.9684 39.4837Z" fill="#FF9900"/>
<path d="M33.0948 27.4049C33.0948 27.7953 33.1368 28.1116 33.2104 28.3437C33.304 28.6048 33.4167 28.8587 33.5475 29.1032C33.6 29.1877 33.6211 29.2722 33.6211 29.346C33.6211 29.4516 33.5579 29.5572 33.421 29.6626L32.7579 30.1057C32.6632 30.1688 32.5683 30.2006 32.4842 30.2006C32.3789 30.2006 32.2737 30.1477 32.1685 30.0528C32.0266 29.9 31.8996 29.734 31.7894 29.557C31.6717 29.3542 31.5628 29.1466 31.463 28.9345C30.6421 29.9051 29.6104 30.3905 28.3684 30.3905C27.4841 30.3905 26.7791 30.1372 26.2632 29.631C25.7474 29.1245 25.4841 28.4491 25.4841 27.6054C25.4841 26.7085 25.7999 25.9806 26.442 25.4322C27.0841 24.8835 27.9368 24.6093 29.0212 24.6093C29.379 24.6093 29.7474 24.6409 30.1369 24.6936C30.5263 24.7465 30.9263 24.8308 31.3474 24.9257V24.1556C31.3474 23.3539 31.1789 22.7947 30.8525 22.4677C30.5158 22.1406 29.9473 21.9826 29.1368 21.9826C28.7684 21.9826 28.3895 22.0246 28 22.1195C27.613 22.212 27.2331 22.3319 26.8631 22.4784C26.7434 22.532 26.6204 22.5779 26.4947 22.6155C26.4211 22.6364 26.3684 22.6471 26.3262 22.6471C26.179 22.6471 26.1051 22.5417 26.1051 22.3201V21.8032C26.1051 21.6344 26.1265 21.5077 26.179 21.4341C26.2314 21.3601 26.3262 21.2862 26.4736 21.2122C26.842 21.0224 27.2842 20.8643 27.7999 20.7376C28.3157 20.6006 28.8633 20.537 29.4421 20.537C30.6948 20.537 31.6104 20.822 32.1999 21.3916C32.7789 21.9612 33.0737 22.8265 33.0737 23.9868V27.4049H33.0948ZM28.8211 29.0085C29.1684 29.0085 29.5264 28.9451 29.9053 28.8186C30.2841 28.6919 30.621 28.4598 30.9051 28.1434C31.0737 27.9429 31.2 27.7214 31.2631 27.4682C31.3263 27.215 31.3683 26.9091 31.3683 26.5505V26.1074C31.0491 26.0296 30.7258 25.9697 30.4 25.9282C30.0718 25.8863 29.7413 25.8651 29.4105 25.8646C28.7053 25.8646 28.1894 26.0018 27.8421 26.2866C27.4948 26.5716 27.3263 26.9724 27.3263 27.4998C27.3263 27.9956 27.4526 28.3649 27.7158 28.6181C27.9684 28.8818 28.3368 29.0085 28.8209 29.0085H28.8211ZM37.2736 30.1477C37.0841 30.1477 36.9578 30.1161 36.8736 30.0423C36.7895 29.9789 36.7157 29.8311 36.6526 29.6308L34.179 21.4761C34.1158 21.2649 34.0842 21.128 34.0842 21.0541C34.0842 20.8854 34.1683 20.7905 34.3368 20.7905H35.3683C35.5684 20.7905 35.7054 20.822 35.779 20.8958C35.8632 20.9592 35.9262 21.107 35.9895 21.3074L37.758 28.291L39.4001 21.3074C39.4526 21.0962 39.5157 20.9592 39.6 20.8958C39.6842 20.8325 39.8314 20.7905 40.0211 20.7905H40.8631C41.0632 20.7905 41.2 20.822 41.2842 20.8958C41.3685 20.9592 41.4421 21.107 41.4841 21.3074L43.1473 28.3755L44.9685 21.3074C45.0314 21.0962 45.105 20.9592 45.1789 20.8958C45.2631 20.8325 45.3999 20.7905 45.5895 20.7905H46.5683C46.7368 20.7905 46.8315 20.8747 46.8315 21.0541C46.8315 21.1068 46.8211 21.1595 46.8104 21.2229C46.794 21.3128 46.7693 21.4011 46.7368 21.4866L44.2001 29.6417C44.1367 29.8526 44.0631 29.9896 43.9789 30.053C43.8948 30.1163 43.7578 30.1586 43.5789 30.1586H42.6737C42.4736 30.1586 42.3366 30.1268 42.2526 30.053C42.1685 29.9792 42.0947 29.842 42.0527 29.631L40.4211 22.8267L38.8 29.6205C38.7473 29.8315 38.6841 29.9687 38.5999 30.0425C38.5158 30.1163 38.3684 30.1479 38.179 30.1479L37.2736 30.1477ZM50.8 30.4327C50.2526 30.4327 49.7051 30.3693 49.1788 30.2428C48.6526 30.1161 48.2421 29.9789 47.9684 29.8206C47.7999 29.7257 47.6842 29.6201 47.642 29.5254C47.601 29.4322 47.5796 29.3317 47.5788 29.2299V28.6919C47.5788 28.4705 47.6631 28.3649 47.821 28.3649C47.8841 28.3649 47.9473 28.3755 48.0104 28.3964C48.0736 28.4178 48.1683 28.4598 48.2737 28.502C48.6455 28.6659 49.0336 28.7896 49.4316 28.8711C49.8526 28.9556 50.2632 28.9978 50.6841 28.9978C51.3474 28.9978 51.8632 28.8818 52.221 28.6497C52.579 28.4176 52.7684 28.0801 52.7684 27.6474C52.7684 27.3522 52.6737 27.1096 52.4842 26.9091C52.2948 26.7085 51.9368 26.5293 51.421 26.3606L49.8948 25.8857C49.1264 25.6432 48.5578 25.2845 48.2105 24.8097C47.8632 24.3454 47.6842 23.8285 47.6842 23.2801C47.6842 22.837 47.779 22.4466 47.9684 22.1091C48.1578 21.7716 48.4104 21.4761 48.7264 21.244C49.0421 21.0014 49.3999 20.822 49.821 20.6955C50.2421 20.5688 50.6841 20.5161 51.1473 20.5161C51.379 20.5161 51.6211 20.5268 51.8526 20.5584C52.0947 20.5899 52.3157 20.6322 52.5367 20.6744C52.7473 20.7271 52.9474 20.7798 53.1368 20.8429C53.3263 20.9065 53.4737 20.9697 53.5788 21.033C53.7263 21.1175 53.8317 21.2018 53.8948 21.2967C53.9579 21.3812 53.9895 21.4972 53.9895 21.6449V22.1409C53.9895 22.3625 53.9052 22.4786 53.7474 22.4786C53.6631 22.4786 53.5264 22.4363 53.3474 22.3518C52.7473 22.0777 52.0736 21.9405 51.3263 21.9405C50.7264 21.9405 50.2526 22.0355 49.9264 22.2358C49.6 22.4363 49.4316 22.7422 49.4316 23.1749C49.4316 23.4701 49.5368 23.7232 49.7474 23.9237C49.9579 24.1242 50.3473 24.3248 50.9051 24.504L52.4 24.9788C53.1579 25.2214 53.7051 25.5591 54.0315 25.9915C54.3579 26.424 54.5158 26.9197 54.5158 27.4684C54.5158 27.922 54.4211 28.3335 54.2421 28.6921C54.0527 29.0507 53.8001 29.3673 53.4737 29.6205C53.1473 29.8842 52.7579 30.0741 52.3052 30.2113C51.8316 30.3589 51.3367 30.4327 50.8 30.4327Z" fill="white"/>
<path d="M31.2457 60C31.202 60 31.1611 59.9836 31.1228 59.9509C31.0901 59.9126 31.0737 59.8717 31.0737 59.828C31.0737 59.8007 31.0764 59.7761 31.0819 59.7543L33.0065 54.4963C33.0229 54.4363 33.0557 54.3844 33.1048 54.3407C33.1594 54.2916 33.2331 54.267 33.326 54.267H34.5381C34.6309 54.267 34.7019 54.2916 34.751 54.3407C34.8056 54.3844 34.8411 54.4363 34.8575 54.4963L36.774 59.7543C36.7849 59.7761 36.7903 59.8007 36.7903 59.828C36.7903 59.8717 36.7712 59.9126 36.733 59.9509C36.7002 59.9836 36.6593 60 36.6102 60H35.6028C35.5209 60 35.4581 59.9809 35.4144 59.9427C35.3762 59.899 35.3516 59.8608 35.3407 59.828L35.0213 58.9926H32.8346L32.5233 59.828C32.5124 59.8608 32.4879 59.899 32.4496 59.9427C32.4114 59.9809 32.3459 60 32.2531 60H31.2457ZM33.1704 57.8133H34.6937L33.9238 55.6511L33.1704 57.8133ZM38.1132 60C38.0204 60 37.9467 59.9727 37.8921 59.9181C37.8375 59.8635 37.8047 59.8007 37.7938 59.7297L36.9011 54.4963C36.8956 54.4854 36.8929 54.4745 36.8929 54.4636C36.8929 54.4526 36.8929 54.4445 36.8929 54.439C36.8929 54.3953 36.9093 54.3571 36.942 54.3243C36.9803 54.2861 37.0212 54.267 37.0649 54.267H38.0804C38.2333 54.267 38.318 54.3271 38.3343 54.4472L38.8667 57.6495L39.4564 55.7576C39.4727 55.7139 39.5 55.6675 39.5383 55.6184C39.5765 55.5638 39.6393 55.5365 39.7266 55.5365H40.3163C40.4091 55.5365 40.4747 55.5638 40.5129 55.6184C40.5511 55.6675 40.5757 55.7139 40.5866 55.7576L41.1763 57.6413L41.7086 54.4472C41.725 54.3271 41.8096 54.267 41.9625 54.267H42.9781C43.0272 54.267 43.0682 54.2861 43.1009 54.3243C43.1337 54.3571 43.1501 54.3953 43.1501 54.439C43.1501 54.4445 43.1501 54.4526 43.1501 54.4636C43.1501 54.4745 43.1501 54.4854 43.1501 54.4963L42.2573 59.7297C42.2464 59.8007 42.2137 59.8635 42.1591 59.9181C42.1045 59.9727 42.0308 60 41.9379 60H41.1599C41.0671 60 40.9961 59.9754 40.9469 59.9263C40.8978 59.8771 40.865 59.8307 40.8487 59.7871L40.0215 57.4447L39.1943 59.7871C39.1779 59.8307 39.1451 59.8771 39.096 59.9263C39.0523 59.9754 38.9841 60 38.8913 60H38.1132ZM46.0999 60.0819C45.5539 60.0819 45.1007 60.0055 44.7403 59.8526C44.38 59.6942 44.107 59.4895 43.9213 59.2383C43.7357 58.9872 43.6374 58.7196 43.6265 58.4357C43.6265 58.392 43.6429 58.3538 43.6756 58.321C43.7138 58.2828 43.7575 58.2637 43.8067 58.2637H44.8386C44.915 58.2637 44.9724 58.2774 45.0106 58.3047C45.0543 58.332 45.0925 58.3675 45.1253 58.4111C45.1689 58.493 45.229 58.5722 45.3054 58.6487C45.3873 58.7251 45.4911 58.7879 45.6167 58.837C45.7477 58.8807 45.9088 58.9025 46.0999 58.9025C46.4165 58.9025 46.6541 58.8534 46.8124 58.7551C46.9762 58.6568 47.0581 58.5231 47.0581 58.3538C47.0581 58.2337 47.0144 58.1354 46.9271 58.059C46.8397 57.9771 46.6977 57.9061 46.5012 57.846C46.3101 57.7805 46.0535 57.715 45.7313 57.6495C45.3164 57.5621 44.9615 57.4502 44.6666 57.3137C44.3772 57.1717 44.1561 56.9888 44.0032 56.765C43.8503 56.5356 43.7739 56.2517 43.7739 55.9132C43.7739 55.5801 43.8667 55.2826 44.0524 55.0205C44.2435 54.7584 44.5083 54.5537 44.8468 54.4062C45.1853 54.2588 45.5866 54.1851 46.0507 54.1851C46.4275 54.1851 46.7578 54.2342 47.0417 54.3325C47.3311 54.4308 47.5741 54.5618 47.7706 54.7256C47.9672 54.8894 48.1146 55.0642 48.2129 55.2498C48.3166 55.43 48.3712 55.6074 48.3767 55.7821C48.3767 55.8258 48.3603 55.8668 48.3275 55.905C48.2948 55.9378 48.2538 55.9541 48.2047 55.9541H47.1236C47.0636 55.9541 47.0117 55.9432 46.968 55.9214C46.9243 55.8995 46.8861 55.864 46.8533 55.8149C46.8206 55.6948 46.7332 55.591 46.5913 55.5037C46.4548 55.4109 46.2746 55.3645 46.0507 55.3645C45.8105 55.3645 45.6221 55.4081 45.4856 55.4955C45.3546 55.5774 45.2891 55.7057 45.2891 55.8804C45.2891 55.9896 45.3245 56.0852 45.3955 56.1671C45.472 56.249 45.5948 56.32 45.7641 56.38C45.9388 56.4401 46.1763 56.5029 46.4766 56.5684C46.9735 56.6612 47.3748 56.7786 47.6805 56.9206C47.9863 57.0571 48.2102 57.2372 48.3521 57.4611C48.4941 57.6795 48.5651 57.9552 48.5651 58.2883C48.5651 58.6596 48.4586 58.9817 48.2456 59.2547C48.0382 59.5222 47.7488 59.727 47.3775 59.869C47.0062 60.0109 46.5803 60.0819 46.0999 60.0819Z" fill="#E5E5E5"/>
</g>
<defs>
<filter id="filter0_d_603_1512" x="0" y="0" width="80" height="80" filterUnits="userSpaceOnUse" color-interpolation-filters="sRGB">
<feFlood flood-opacity="0" result="BackgroundImageFix"/>
<feColorMatrix in="SourceAlpha" type="matrix" values="0 0 0 0 0 0 0 0 0 0 0 0 0 0 0 0 0 0 127 0" result="hardAlpha"/>
<feOffset dy="2"/>
<feGaussianBlur stdDeviation="4"/>
<feColorMatrix type="matrix" values="0 0 0 0 0 0 0 0 0 0 0 0 0 0 0 0 0 0 0.75 0"/>
<feBlend mode="normal" in2="BackgroundImageFix" result="effect1_dropShadow_603_1512"/>
<feBlend mode="normal" in="SourceGraphic" in2="effect1_dropShadow_603_1512" result="shape"/>
</filter>
</defs>
</svg>
