<svg width="80" height="80" viewBox="0 0 80 80" fill="none" xmlns="http://www.w3.org/2000/svg">
<g filter="url(#filter0_d_602_1026)">
<rect x="8" y="6" width="64" height="64" rx="5" fill="#212529"/>
<path d="M37.0161 15.0251C36.107 15.684 35.1564 16.2836 34.1701 16.8201V17.0001C34.2702 16.9826 34.3657 16.9452 34.4511 16.8901C34.5741 16.8901 34.6511 16.9271 34.6511 17.0481L34.8511 16.9381H34.9511V17.0241C34.3465 17.6184 33.675 18.1405 32.9501 18.5801L33.0601 18.7511H32.9601L32.7511 18.6791C32.7511 18.7411 32.6651 18.7791 32.4701 18.7891V18.8891L32.6891 19.1321C32.5896 19.1297 32.4915 19.1083 32.4001 19.0691C32.133 19.1256 31.8812 19.239 31.6619 19.4015C31.4426 19.5641 31.2608 19.772 31.1291 20.0111L31.2391 20.1821C31.4232 19.9836 31.6371 19.8149 31.8731 19.6821L31.8971 19.9491C31.7976 19.9688 31.7025 20.006 31.6161 20.0591L31.8491 20.4011C32.2745 19.9329 32.7628 19.5261 33.3001 19.1921C33.5671 19.2641 33.7001 19.3391 33.7001 19.4351H33.9001C35.1878 18.4509 36.6219 17.6748 38.1501 17.1351V17.3201C37.8831 17.7111 37.7111 17.9061 37.6151 17.9201C37.6285 18.0474 37.6747 18.169 37.7491 18.2731C37.2439 19.9258 36.6086 21.5358 35.8491 23.0881C33.717 28.3501 31.2575 33.4735 28.4851 38.4281C28.5035 38.5236 28.5409 38.6144 28.5951 38.6951C28.9294 38.641 29.2496 38.521 29.5371 38.3421H29.6471V38.5271H29.8321L30.0381 38.3851C30.0381 38.4471 30.1101 38.4711 30.2381 38.4571V38.6421C30.2128 38.9473 30.1026 39.2393 29.9201 39.4851C29.6206 39.9185 29.4014 40.4022 29.2731 40.9131V41.0001H29.4581C30.1814 40.2115 30.7934 39.3276 31.2771 38.3731C33.1221 37.8773 34.914 37.2018 36.6271 36.3561C37.644 36.3279 38.6282 35.991 39.4491 35.3901V35.2901L38.9841 35.4241H38.8741V35.3241C39.5373 35.2706 40.1787 35.0616 40.7461 34.7141C42.5171 33.3471 43.8461 32.3821 44.7581 31.8061C47.5581 29.7541 48.8751 27.7751 48.7171 25.8951C48.2078 25.0467 47.5869 24.2704 46.8711 23.5871C46.8471 23.3201 47.2711 22.9641 48.1281 22.4741L50.5591 20.3341C51.1962 19.3255 51.5346 18.1571 51.5351 16.9641L51.4841 16.6001C51.3841 15.5141 50.6041 14.6341 49.1141 13.9631C47.6519 13.2357 46.0225 12.9105 44.3931 13.0211C41.8602 13.3595 39.3833 14.032 37.0271 15.0211L37.0161 15.0251ZM39.1561 22.7071C39.3411 21.7071 39.5471 21.1321 39.7791 20.9981L41.8071 16.4501C41.7831 16.1691 42.2071 15.9501 43.1021 15.8031L43.3961 15.7791L43.4201 16.0461C44.3001 15.9121 44.8381 15.8371 45.0441 15.8131C46.6441 15.6791 47.4861 15.9981 47.5611 16.7891H47.7461L47.7091 16.3241H47.9091C48.1077 16.4025 48.2822 16.5317 48.4151 16.6988C48.5479 16.8659 48.6345 17.065 48.6661 17.2761C48.6524 17.6343 48.5042 17.9742 48.2511 18.2281C48.1281 18.2281 48.0511 18.1561 48.0421 17.9611H47.8421L47.7941 18.5121C46.9761 19.7341 46.3941 20.3581 46.0231 20.3841C45.6931 20.8355 45.4854 21.0688 45.4001 21.0841C44.7638 21.6863 44.059 22.2115 43.3001 22.6491C41.852 23.0776 40.4419 23.6252 39.0841 24.2861C38.9625 24.2283 38.8267 24.2067 38.6931 24.2241V24.0501C38.7043 23.5649 38.8712 23.0962 39.1691 22.7131L39.1561 22.7071ZM32.5561 19.2641V19.3501C32.4566 19.3698 32.3615 19.407 32.2751 19.4601H32.1751V19.2881L32.5561 19.2641ZM38.4351 19.1281L38.4591 19.3951C38.3731 19.3951 38.2501 19.5291 38.1061 19.7861V19.6001C38.2419 19.4726 38.3351 19.3064 38.3731 19.1241L38.4351 19.1281ZM37.5351 21.0281L37.5721 21.3941H37.4721L37.4431 21.0301L37.5351 21.0281ZM37.3021 21.6891C37.2781 21.9891 37.2021 22.1541 37.0351 22.1651H36.9351C37.0283 22.027 37.0829 21.8664 37.0931 21.7001L37.3021 21.6891ZM36.9021 22.6411V22.7271L36.7311 23.0211H36.5461V22.9401C36.5847 22.9449 36.6239 22.9403 36.6604 22.9268C36.6969 22.9132 36.7296 22.8911 36.7558 22.8623C36.782 22.8335 36.8008 22.7988 36.8108 22.7612C36.8208 22.7236 36.8216 22.6841 36.8131 22.6461H36.9011L36.9021 22.6411ZM36.4871 23.4971L36.4391 23.9491H36.3391L36.3021 23.4971H36.4871ZM38.6271 24.8641V25.0351L38.2471 25.0721V24.9011L38.6271 24.8641ZM36.8101 27.4811C38.5981 27.1894 40.3419 26.6726 42.0001 25.9431L42.5751 25.8951C43.044 25.811 43.5256 25.8286 43.9871 25.9468C44.4486 26.065 44.8793 26.281 45.2501 26.5801L45.2871 26.9461C44.8481 28.2171 44.3591 28.9461 43.8351 29.1821L41.3931 31.1241C40.4574 31.797 39.4741 32.4012 38.4511 32.9321C36.7724 34.0007 34.9556 34.8351 33.0511 35.4121H32.9411C33.0411 35.0701 34.3211 32.4321 36.8141 27.4701L36.8101 27.4811ZM39.4471 26.4431V26.5291L39.0561 26.5661V26.4801L39.4471 26.4431ZM33.3641 32.3431C33.2411 32.9661 33.0971 33.2851 32.9731 33.2951V33.2091C32.9658 33.0432 32.9983 32.8779 33.0678 32.7271C33.1374 32.5762 33.2421 32.4442 33.3731 32.3421L33.3641 32.3431ZM35.8061 35.7881C37.8545 34.9781 39.8117 33.9541 41.6451 32.7331V32.9041C41.6451 32.9761 41.3781 33.2041 40.8271 33.6131C39.8169 34.0469 38.858 34.5916 37.9681 35.2371C36.2081 35.8471 35.3411 36.2271 35.3551 36.3741C34.3038 36.767 33.2757 37.2198 32.2761 37.7301C32.1013 37.7249 31.9301 37.679 31.7761 37.5961C31.762 37.4382 31.7952 37.2796 31.8714 37.1406C31.9476 37.0015 32.0634 36.8882 32.2041 36.8151C32.4707 36.7881 32.7397 36.8305 32.9851 36.9381C33.4711 36.7222 33.9786 36.5583 34.4991 36.4491V36.2641L33.9241 36.3121C34.451 35.9897 35.0125 35.7278 35.5981 35.5311L35.8921 35.5071V35.6001C35.4031 35.6371 35.1221 35.8001 35.0601 36.0521C35.0596 36.0768 35.0649 36.1013 35.0754 36.1236C35.086 36.1459 35.1015 36.1655 35.1209 36.1808C35.1403 36.1961 35.1629 36.2067 35.1871 36.2118C35.2112 36.2169 35.2362 36.2163 35.2601 36.2101C35.4574 36.0982 35.6376 35.9584 35.7951 35.7951L35.8061 35.7881ZM32.8061 33.5681V33.6541C32.8119 33.6795 32.8118 33.7059 32.8059 33.7313C32.7999 33.7566 32.7882 33.7803 32.7717 33.8005C32.7552 33.8206 32.7344 33.8367 32.7107 33.8476C32.687 33.8585 32.6612 33.8638 32.6351 33.8631V33.7771C32.6316 33.7535 32.6327 33.7294 32.6385 33.7062C32.6442 33.683 32.6545 33.6612 32.6687 33.6419C32.6829 33.6227 32.7008 33.6065 32.7213 33.5942C32.7418 33.5818 32.7645 33.5737 32.7881 33.5701L32.8061 33.5681ZM37.3751 34.8141C36.9103 34.9321 36.4683 35.1264 36.0671 35.3891H35.9671V35.2041C36.4212 35.1739 36.8483 34.9778 37.1671 34.6531C37.1921 34.6495 37.2176 34.651 37.2419 34.6577C37.2662 34.6644 37.2889 34.676 37.3086 34.6919C37.3282 34.7078 37.3443 34.7275 37.356 34.75C37.3676 34.7724 37.3744 34.7969 37.3761 34.8221L37.3751 34.8141ZM32.6241 36.1451L32.9181 36.1211V36.2211C32.818 36.2387 32.7225 36.2761 32.6371 36.3311H32.4531C32.4579 36.2859 32.4771 36.2434 32.5079 36.2099C32.5387 36.1764 32.5794 36.1537 32.6241 36.1451Z" fill="#F4D44B"/>
<path d="M26.4728 61C26.3977 61 26.3363 60.9761 26.2885 60.9283C26.2407 60.8805 26.2168 60.8191 26.2168 60.744V54.088C26.2168 54.0129 26.2407 53.9515 26.2885 53.9037C26.3363 53.8559 26.3977 53.832 26.4728 53.832H29.596C30.1831 53.832 30.6644 53.9139 31.0398 54.0778C31.4153 54.2416 31.6918 54.4771 31.8693 54.7843C32.0536 55.0847 32.1458 55.4431 32.1458 55.8595C32.1458 56.1053 32.098 56.3237 32.0024 56.5149C31.9137 56.6992 31.801 56.8528 31.6645 56.9757C31.5348 57.0986 31.4119 57.1873 31.2958 57.2419C31.5553 57.3648 31.7839 57.5662 31.9819 57.8461C32.1867 58.126 32.2891 58.4537 32.2891 58.8291C32.2891 59.2797 32.1867 59.6688 31.9819 59.9965C31.7839 60.3173 31.4904 60.5665 31.1013 60.744C30.719 60.9147 30.2479 61 29.6882 61H26.4728ZM28.0498 59.6688H29.4834C29.7769 59.6688 29.9988 59.5835 30.149 59.4128C30.2991 59.2421 30.3742 59.0476 30.3742 58.8291C30.3742 58.5902 30.2957 58.3888 30.1387 58.225C29.9885 58.0611 29.7701 57.9792 29.4834 57.9792H28.0498V59.6688ZM28.0498 56.6787H29.3912C29.6711 56.6787 29.8793 56.607 30.0158 56.4637C30.1592 56.3203 30.2309 56.136 30.2309 55.9107C30.2309 55.6923 30.1592 55.5148 30.0158 55.3782C29.8793 55.2349 29.6711 55.1632 29.3912 55.1632H28.0498V56.6787ZM34.9116 61.1024C34.543 61.1024 34.2119 61.0341 33.9183 60.8976C33.6316 60.7542 33.4029 60.5631 33.2322 60.3242C33.0616 60.0852 32.9762 59.8156 32.9762 59.5152C32.9762 59.0305 33.1742 58.6482 33.5702 58.3683C33.9661 58.0816 34.4918 57.887 35.1471 57.7846L36.4271 57.5901V57.4467C36.4271 57.201 36.3759 57.0132 36.2735 56.8835C36.1711 56.7538 35.9834 56.689 35.7103 56.689C35.5192 56.689 35.3622 56.7265 35.2393 56.8016C35.1232 56.8767 35.0311 56.9791 34.9628 57.1088C34.9014 57.1975 34.816 57.2419 34.7068 57.2419H33.5599C33.4848 57.2419 33.4268 57.2214 33.3858 57.1805C33.3449 57.1327 33.3278 57.0781 33.3346 57.0166C33.3346 56.8938 33.379 56.7538 33.4678 56.5968C33.5633 56.433 33.7067 56.2725 33.8978 56.1155C34.089 55.9585 34.3347 55.8288 34.6351 55.7264C34.9355 55.624 35.2973 55.5728 35.7206 55.5728C36.1643 55.5728 36.5432 55.624 36.8572 55.7264C37.1712 55.8288 37.4238 55.9722 37.615 56.1565C37.8129 56.3408 37.9597 56.5593 38.0553 56.8118C38.1509 57.0576 38.1986 57.3307 38.1986 57.631V60.744C38.1986 60.8191 38.1713 60.8805 38.1167 60.9283C38.0689 60.9761 38.0109 61 37.9426 61H36.7548C36.6797 61 36.6183 60.9761 36.5705 60.9283C36.5227 60.8805 36.4988 60.8191 36.4988 60.744V60.3856C36.4101 60.5153 36.2906 60.6348 36.1404 60.744C35.9902 60.8532 35.8127 60.9386 35.6079 61C35.4099 61.0683 35.1778 61.1024 34.9116 61.1024ZM35.3929 59.935C35.5909 59.935 35.7683 59.8941 35.9254 59.8122C36.0892 59.7234 36.2155 59.5903 36.3042 59.4128C36.3998 59.2285 36.4476 58.9998 36.4476 58.7267V58.5834L35.5772 58.737C35.2563 58.7916 35.0208 58.8769 34.8706 58.993C34.7273 59.1022 34.6556 59.2319 34.6556 59.3821C34.6556 59.4981 34.6897 59.5971 34.758 59.679C34.8263 59.761 34.915 59.8258 35.0242 59.8736C35.1335 59.9146 35.2563 59.935 35.3929 59.935ZM42.6105 61.1024C42.2282 61.1024 41.9073 61.0375 41.6479 60.9078C41.3953 60.7781 41.1871 60.6143 41.0233 60.4163V60.744C41.0233 60.8191 40.996 60.8805 40.9414 60.9283C40.8936 60.9761 40.8355 61 40.7673 61H39.6102C39.5351 61 39.4736 60.9761 39.4258 60.9283C39.3781 60.8805 39.3542 60.8191 39.3542 60.744V53.9856C39.3542 53.9105 39.3781 53.8491 39.4258 53.8013C39.4736 53.7535 39.5351 53.7296 39.6102 53.7296H40.8594C40.9345 53.7296 40.996 53.7535 41.0438 53.8013C41.0915 53.8491 41.1154 53.9105 41.1154 53.9856V56.177C41.2793 55.9995 41.4841 55.8561 41.7298 55.7469C41.9824 55.6308 42.276 55.5728 42.6105 55.5728C42.9518 55.5728 43.2522 55.6308 43.5116 55.7469C43.7778 55.8561 44.0031 56.0165 44.1874 56.2282C44.3718 56.4398 44.5151 56.6924 44.6175 56.9859C44.7199 57.2795 44.7779 57.6106 44.7916 57.9792C44.7984 58.1089 44.8018 58.2284 44.8018 58.3376C44.8018 58.44 44.7984 58.5595 44.7916 58.696C44.7779 59.0783 44.7165 59.4196 44.6073 59.72C44.5049 60.0135 44.3615 60.2661 44.1772 60.4778C43.9929 60.6826 43.771 60.8396 43.5116 60.9488C43.2522 61.0512 42.9518 61.1024 42.6105 61.1024ZM42.0575 59.7302C42.2896 59.7302 42.4705 59.6825 42.6002 59.5869C42.7299 59.4913 42.8221 59.3616 42.8767 59.1978C42.9382 59.0339 42.9757 58.853 42.9894 58.655C43.003 58.4434 43.003 58.2318 42.9894 58.0202C42.9757 57.8222 42.9382 57.6413 42.8767 57.4774C42.8221 57.3136 42.7299 57.1839 42.6002 57.0883C42.4705 56.9927 42.2896 56.945 42.0575 56.945C41.8459 56.945 41.6718 56.9927 41.5353 57.0883C41.3987 57.1771 41.2963 57.2965 41.2281 57.4467C41.1598 57.5901 41.1223 57.7471 41.1154 57.9178C41.1086 58.0475 41.1052 58.1738 41.1052 58.2966C41.1052 58.4195 41.1086 58.5492 41.1154 58.6858C41.1223 58.8701 41.1564 59.0407 41.2178 59.1978C41.2793 59.3548 41.3783 59.4845 41.5148 59.5869C41.6513 59.6825 41.8322 59.7302 42.0575 59.7302ZM48.2718 61.1024C47.4662 61.1024 46.8245 60.8839 46.3466 60.447C45.8688 60.0101 45.6196 59.3616 45.5991 58.5014C45.5991 58.4537 45.5991 58.3922 45.5991 58.3171C45.5991 58.242 45.5991 58.184 45.5991 58.143C45.6196 57.6037 45.7391 57.1429 45.9575 56.7606C46.1828 56.3715 46.49 56.078 46.8791 55.88C47.2751 55.6752 47.7359 55.5728 48.2615 55.5728C48.8623 55.5728 49.3572 55.6923 49.7463 55.9312C50.1423 56.1701 50.4392 56.4944 50.6372 56.904C50.8352 57.3136 50.9342 57.7812 50.9342 58.3069V58.5526C50.9342 58.6277 50.9069 58.6892 50.8522 58.737C50.8045 58.7847 50.7464 58.8086 50.6782 58.8086H47.4014C47.4014 58.8155 47.4014 58.8257 47.4014 58.8394C47.4014 58.853 47.4014 58.8667 47.4014 58.8803C47.4082 59.0783 47.4423 59.2592 47.5038 59.423C47.5652 59.5869 47.6608 59.7166 47.7905 59.8122C47.9202 59.9077 48.0772 59.9555 48.2615 59.9555C48.3981 59.9555 48.5107 59.935 48.5994 59.8941C48.695 59.8463 48.7735 59.7951 48.835 59.7405C48.8964 59.679 48.9442 59.6278 48.9783 59.5869C49.0398 59.5186 49.0875 59.4777 49.1217 59.464C49.1626 59.4435 49.2241 59.4333 49.306 59.4333H50.5758C50.644 59.4333 50.6986 59.4538 50.7396 59.4947C50.7874 59.5289 50.8079 59.5801 50.801 59.6483C50.7942 59.7644 50.7362 59.9043 50.627 60.0682C50.5177 60.232 50.3573 60.3958 50.1457 60.5597C49.9409 60.7167 49.6815 60.8464 49.3674 60.9488C49.0534 61.0512 48.6882 61.1024 48.2718 61.1024ZM47.4014 57.7949H49.1319V57.7744C49.1319 57.5559 49.0978 57.3648 49.0295 57.201C48.9681 57.0371 48.8691 56.9108 48.7326 56.8221C48.6029 56.7333 48.4458 56.689 48.2615 56.689C48.0772 56.689 47.9202 56.7333 47.7905 56.8221C47.6676 56.9108 47.572 57.0371 47.5038 57.201C47.4355 57.3648 47.4014 57.5559 47.4014 57.7744V57.7949ZM52.1502 61C52.0751 61 52.0136 60.9761 51.9658 60.9283C51.9181 60.8805 51.8942 60.8191 51.8942 60.744V53.9856C51.8942 53.9105 51.9181 53.8491 51.9658 53.8013C52.0136 53.7535 52.0751 53.7296 52.1502 53.7296H53.3585C53.4336 53.7296 53.495 53.7535 53.5428 53.8013C53.5906 53.8491 53.6145 53.9105 53.6145 53.9856V60.744C53.6145 60.8191 53.5906 60.8805 53.5428 60.9283C53.495 60.9761 53.4336 61 53.3585 61H52.1502Z" fill="#E5E5E5"/>
</g>
<defs>
<filter id="filter0_d_602_1026" x="0" y="0" width="80" height="80" filterUnits="userSpaceOnUse" color-interpolation-filters="sRGB">
<feFlood flood-opacity="0" result="BackgroundImageFix"/>
<feColorMatrix in="SourceAlpha" type="matrix" values="0 0 0 0 0 0 0 0 0 0 0 0 0 0 0 0 0 0 127 0" result="hardAlpha"/>
<feOffset dy="2"/>
<feGaussianBlur stdDeviation="4"/>
<feColorMatrix type="matrix" values="0 0 0 0 0 0 0 0 0 0 0 0 0 0 0 0 0 0 0.75 0"/>
<feBlend mode="normal" in2="BackgroundImageFix" result="effect1_dropShadow_602_1026"/>
<feBlend mode="normal" in="SourceGraphic" in2="effect1_dropShadow_602_1026" result="shape"/>
</filter>
</defs>
</svg>
