<svg width="80" height="80" viewBox="0 0 80 80" fill="none" xmlns="http://www.w3.org/2000/svg">
<g filter="url(#filter0_d_601_5080)">
<rect x="8" y="6" width="64" height="64" rx="5" fill="#212529"/>
<g clip-path="url(#clip0_601_5080)">
<path d="M54.0743 34.9999C54.2975 34.6134 54.4361 34.178 54.4361 33.7869V20.2129C54.4361 19.8219 54.2976 19.3865 54.0744 19L40.218 27L54.0743 34.9999Z" fill="#00599C"/>
<path d="M41.4494 42.7066L53.2049 35.9197C53.5436 35.7241 53.8513 35.3865 54.0745 35L40.2181 27L26.3618 35C26.5849 35.3865 26.8928 35.7242 27.2314 35.9197L38.9868 42.7066C39.664 43.0977 40.7723 43.0977 41.4494 42.7066Z" fill="#004482"/>
<path d="M54.0745 19C53.8513 18.6134 53.5434 18.2758 53.2049 18.0802L41.4494 11.2933C40.7722 10.9022 39.664 10.9022 38.9868 11.2933L27.2313 18.0802C26.554 18.4712 26 19.431 26 20.213V33.787C26 34.178 26.1386 34.6135 26.3618 35L40.2181 27L54.0745 19Z" fill="#659AD2"/>
<path d="M40.218 36.4787C34.9914 36.4787 30.7393 32.2266 30.7393 27C30.7393 21.7734 34.9914 17.5212 40.218 17.5212C43.5906 17.5212 46.7359 19.3361 48.4265 22.2576L44.3243 24.6314C43.4782 23.1691 41.9046 22.2606 40.218 22.2606C37.6046 22.2606 35.4786 24.3866 35.4786 27C35.4786 29.6132 37.6046 31.7393 40.218 31.7393C41.9048 31.7393 43.4784 30.8309 44.3246 29.3683L48.4268 31.7419C46.7362 34.6637 43.5907 36.4787 40.218 36.4787Z" fill="white"/>
<path d="M49.6969 26.4733H48.6437V25.4202H47.5906V26.4733H46.5374V27.5265H47.5906V28.5797H48.6437V27.5265H49.6969V26.4733Z" fill="white"/>
<path d="M53.6464 26.4733H52.5931V25.4202H51.5401V26.4733H50.4868V27.5265H51.5401V28.5797H52.5931V27.5265H53.6464V26.4733Z" fill="white"/>
</g>
<path d="M33.6557 61.1024C33.0071 61.1024 32.4508 60.9966 31.9866 60.785C31.5292 60.5733 31.1708 60.2627 30.9114 59.8531C30.6588 59.4435 30.5188 58.9349 30.4915 58.3274C30.4847 58.0475 30.4813 57.7471 30.4813 57.4262C30.4813 57.1054 30.4847 56.7982 30.4915 56.5046C30.5188 55.9107 30.6622 55.409 30.9216 54.9994C31.181 54.5829 31.5428 54.2689 32.007 54.0573C32.4713 53.8388 33.0208 53.7296 33.6557 53.7296C34.1062 53.7296 34.5227 53.7876 34.905 53.9037C35.2873 54.0129 35.6218 54.1767 35.9085 54.3952C36.1952 54.6068 36.4171 54.8662 36.5741 55.1734C36.7379 55.4738 36.8233 55.8151 36.8301 56.1974C36.8369 56.2589 36.8164 56.3101 36.7686 56.351C36.7277 56.392 36.6765 56.4125 36.615 56.4125H35.2326C35.1439 56.4125 35.0756 56.3954 35.0278 56.3613C34.9801 56.3203 34.9391 56.2486 34.905 56.1462C34.8094 55.7844 34.6524 55.5387 34.4339 55.409C34.2223 55.2724 33.9595 55.2042 33.6454 55.2042C33.27 55.2042 32.973 55.31 32.7546 55.5216C32.5361 55.7264 32.4166 56.0711 32.3962 56.5558C32.3757 57.1156 32.3757 57.6891 32.3962 58.2762C32.4166 58.7609 32.5361 59.109 32.7546 59.3206C32.973 59.5254 33.27 59.6278 33.6454 59.6278C33.9595 59.6278 34.2257 59.5596 34.4442 59.423C34.6626 59.2865 34.8162 59.0407 34.905 58.6858C34.9323 58.5834 34.9698 58.5151 35.0176 58.481C35.0722 58.44 35.1439 58.4195 35.2326 58.4195H36.615C36.6765 58.4195 36.7277 58.44 36.7686 58.481C36.8164 58.5219 36.8369 58.5731 36.8301 58.6346C36.8233 59.0169 36.7379 59.3616 36.5741 59.6688C36.4171 59.9692 36.1952 60.2286 35.9085 60.447C35.6218 60.6587 35.2873 60.8225 34.905 60.9386C34.5227 61.0478 34.1062 61.1024 33.6557 61.1024ZM39.8831 60.6621C39.808 60.6621 39.7466 60.6382 39.6988 60.5904C39.651 60.5426 39.6271 60.4812 39.6271 60.4061V58.5322H37.8044C37.7293 58.5322 37.6645 58.5083 37.6098 58.4605C37.5621 58.4127 37.5382 58.3513 37.5382 58.2762V57.5286C37.5382 57.4535 37.5621 57.3921 37.6098 57.3443C37.6645 57.2965 37.7293 57.2726 37.8044 57.2726H39.6271V55.4499C39.6271 55.3748 39.651 55.3134 39.6988 55.2656C39.7466 55.2178 39.808 55.1939 39.8831 55.1939H40.7228C40.7911 55.1939 40.8491 55.2178 40.8969 55.2656C40.9515 55.3134 40.9788 55.3748 40.9788 55.4499V57.2726H42.7913C42.8664 57.2726 42.9278 57.2965 42.9756 57.3443C43.0234 57.3921 43.0473 57.4535 43.0473 57.5286V58.2762C43.0473 58.3513 43.0234 58.4127 42.9756 58.4605C42.9278 58.5083 42.8664 58.5322 42.7913 58.5322H40.9788V60.4061C40.9788 60.4812 40.9515 60.5426 40.8969 60.5904C40.8491 60.6382 40.7911 60.6621 40.7228 60.6621H39.8831ZM46.1031 60.6621C46.028 60.6621 45.9666 60.6382 45.9188 60.5904C45.871 60.5426 45.8471 60.4812 45.8471 60.4061V58.5322H44.0244C43.9493 58.5322 43.8845 58.5083 43.8298 58.4605C43.7821 58.4127 43.7582 58.3513 43.7582 58.2762V57.5286C43.7582 57.4535 43.7821 57.3921 43.8298 57.3443C43.8845 57.2965 43.9493 57.2726 44.0244 57.2726H45.8471V55.4499C45.8471 55.3748 45.871 55.3134 45.9188 55.2656C45.9666 55.2178 46.028 55.1939 46.1031 55.1939H46.9428C47.0111 55.1939 47.0691 55.2178 47.1169 55.2656C47.1715 55.3134 47.1988 55.3748 47.1988 55.4499V57.2726H49.0113C49.0864 57.2726 49.1478 57.2965 49.1956 57.3443C49.2434 57.3921 49.2673 57.4535 49.2673 57.5286V58.2762C49.2673 58.3513 49.2434 58.4127 49.1956 58.4605C49.1478 58.5083 49.0864 58.5322 49.0113 58.5322H47.1988V60.4061C47.1988 60.4812 47.1715 60.5426 47.1169 60.5904C47.0691 60.6382 47.0111 60.6621 46.9428 60.6621H46.1031Z" fill="#E5E5E5"/>
</g>
<defs>
<filter id="filter0_d_601_5080" x="0" y="0" width="80" height="80" filterUnits="userSpaceOnUse" color-interpolation-filters="sRGB">
<feFlood flood-opacity="0" result="BackgroundImageFix"/>
<feColorMatrix in="SourceAlpha" type="matrix" values="0 0 0 0 0 0 0 0 0 0 0 0 0 0 0 0 0 0 127 0" result="hardAlpha"/>
<feOffset dy="2"/>
<feGaussianBlur stdDeviation="4"/>
<feColorMatrix type="matrix" values="0 0 0 0 0 0 0 0 0 0 0 0 0 0 0 0 0 0 0.75 0"/>
<feBlend mode="normal" in2="BackgroundImageFix" result="effect1_dropShadow_601_5080"/>
<feBlend mode="normal" in="SourceGraphic" in2="effect1_dropShadow_601_5080" result="shape"/>
</filter>
<clipPath id="clip0_601_5080">
<rect width="28.4362" height="32" fill="white" transform="translate(26 11)"/>
</clipPath>
</defs>
</svg>
