<svg width="80" height="80" viewBox="0 0 80 80" fill="none" xmlns="http://www.w3.org/2000/svg">
<g filter="url(#filter0_d_601_5156)">
<rect x="8" y="6" width="64" height="64" rx="5" fill="#212529"/>
<g clip-path="url(#clip0_601_5156)">
<path d="M54.3966 20.3836C54.3963 19.8469 54.2816 19.3727 54.0494 18.9657C53.8214 18.5655 53.48 18.23 53.022 17.9648C49.2414 15.7849 45.4572 13.6117 41.6779 11.4296C40.659 10.8414 39.6711 10.8628 38.6598 11.4595C37.155 12.3469 29.6211 16.6633 27.3761 17.9636C26.4516 18.4988 26.0017 19.3179 26.0014 20.3826C26 24.7665 26.0014 29.1503 26 33.5343C26 34.0592 26.1101 34.5242 26.332 34.925C26.5601 35.3374 26.9063 35.682 27.3749 35.9533C29.62 37.2536 37.1549 41.5696 38.6593 42.4573C39.6711 43.0543 40.659 43.0756 41.6782 42.4872C45.4577 40.3049 49.2421 38.1318 53.0232 35.9519C53.4918 35.6808 53.838 35.3359 54.0661 34.9239C54.2877 34.523 54.398 34.058 54.398 33.533C54.398 33.533 54.398 24.7676 54.3966 20.3836Z" fill="#A179DC"/>
<path d="M40.2425 26.9158L26.332 34.9251C26.5601 35.3374 26.9064 35.6821 27.3749 35.9533C29.62 37.2537 37.1549 41.5697 38.6594 42.4573C39.6711 43.0543 40.659 43.0757 41.6783 42.4872C45.4577 40.305 49.2421 38.1319 53.0233 35.952C53.4918 35.6809 53.838 35.336 54.0661 34.924L40.2425 26.9158Z" fill="#280068"/>
<path d="M54.3965 20.3837C54.3963 19.847 54.2815 19.3728 54.0494 18.9658L40.2424 26.9158L54.0661 34.924C54.2877 34.5232 54.3978 34.0582 54.398 33.5332C54.398 33.5332 54.398 24.7677 54.3965 20.3837Z" fill="#390091"/>
<path d="M48.4324 23.9216V25.4187H49.9295V23.9216H50.678V25.4187H52.1751V26.1672H50.678V27.6643H52.1751V28.4129H50.678V29.9099H49.9295V28.4129H48.4324V29.9099H47.6838V28.4129H46.1868V27.6643H47.6838V26.1672H46.1868V25.4187H47.6838V23.9216H48.4324ZM49.9295 26.1672H48.4324V27.6643H49.9295V26.1672Z" fill="white"/>
<path d="M40.2729 16.4028C44.1778 16.4028 47.587 18.5235 49.4131 21.6757L49.3953 21.6454L44.801 24.2908C43.8958 22.7581 42.2364 21.7239 40.3329 21.7026L40.2729 21.7022C37.3701 21.7022 35.0167 24.0555 35.0167 26.9583C35.0167 27.9076 35.2698 28.7975 35.7099 29.566C36.6159 31.1477 38.3191 32.2146 40.2729 32.2146C42.2388 32.2146 43.9517 31.1342 44.8531 29.5356L44.8312 29.5739L49.4186 32.2315C47.6125 35.357 44.25 37.4712 40.3905 37.5133L40.2729 37.5139C36.3557 37.5139 32.9368 35.3802 31.1153 32.2113C30.2261 30.6643 29.7173 28.8708 29.7173 26.9583C29.7173 21.1288 34.4431 16.4028 40.2729 16.4028Z" fill="white"/>
</g>
<path d="M36.1557 61.1024C35.5071 61.1024 34.9508 60.9966 34.4866 60.785C34.0292 60.5733 33.6708 60.2627 33.4114 59.8531C33.1588 59.4435 33.0188 58.9349 32.9915 58.3274C32.9847 58.0475 32.9813 57.7471 32.9813 57.4262C32.9813 57.1054 32.9847 56.7982 32.9915 56.5046C33.0188 55.9107 33.1622 55.409 33.4216 54.9994C33.681 54.5829 34.0428 54.2689 34.507 54.0573C34.9713 53.8388 35.5208 53.7296 36.1557 53.7296C36.6062 53.7296 37.0227 53.7876 37.405 53.9037C37.7873 54.0129 38.1218 54.1767 38.4085 54.3952C38.6952 54.6068 38.9171 54.8662 39.0741 55.1734C39.2379 55.4738 39.3233 55.8151 39.3301 56.1974C39.3369 56.2589 39.3164 56.3101 39.2686 56.351C39.2277 56.392 39.1765 56.4125 39.115 56.4125H37.7326C37.6439 56.4125 37.5756 56.3954 37.5278 56.3613C37.4801 56.3203 37.4391 56.2486 37.405 56.1462C37.3094 55.7844 37.1524 55.5387 36.9339 55.409C36.7223 55.2724 36.4595 55.2042 36.1454 55.2042C35.77 55.2042 35.473 55.31 35.2546 55.5216C35.0361 55.7264 34.9166 56.0711 34.8962 56.5558C34.8757 57.1156 34.8757 57.6891 34.8962 58.2762C34.9166 58.7609 35.0361 59.109 35.2546 59.3206C35.473 59.5254 35.77 59.6278 36.1454 59.6278C36.4595 59.6278 36.7257 59.5596 36.9442 59.423C37.1626 59.2865 37.3162 59.0407 37.405 58.6858C37.4323 58.5834 37.4698 58.5151 37.5176 58.481C37.5722 58.44 37.6439 58.4195 37.7326 58.4195H39.115C39.1765 58.4195 39.2277 58.44 39.2686 58.481C39.3164 58.5219 39.3369 58.5731 39.3301 58.6346C39.3233 59.0169 39.2379 59.3616 39.0741 59.6688C38.9171 59.9692 38.6952 60.2286 38.4085 60.447C38.1218 60.6587 37.7873 60.8225 37.405 60.9386C37.0227 61.0478 36.6062 61.1024 36.1557 61.1024ZM41.185 60.6006C41.1236 60.6006 41.069 60.5802 41.0212 60.5392C40.9802 60.4914 40.9632 60.4368 40.97 60.3754L41.1134 59.3923H40.3863C40.3181 59.3923 40.26 59.3684 40.2122 59.3206C40.1713 59.2729 40.1508 59.2148 40.1508 59.1466V58.3478C40.1508 58.2727 40.1713 58.2147 40.2122 58.1738C40.26 58.126 40.3181 58.1021 40.3863 58.1021H41.3079L41.5025 56.7914H40.6526C40.5843 56.7914 40.5263 56.7675 40.4785 56.7197C40.4375 56.6719 40.417 56.6139 40.417 56.5456V55.7469C40.417 55.6718 40.4375 55.6138 40.4785 55.5728C40.5263 55.525 40.5843 55.5011 40.6526 55.5011H41.697L41.8506 54.5078C41.8643 54.4532 41.8882 54.4054 41.9223 54.3645C41.9633 54.3167 42.0179 54.2928 42.0862 54.2928H42.8951C42.9566 54.2928 43.0078 54.3167 43.0487 54.3645C43.0965 54.4054 43.1204 54.4566 43.1204 54.5181L42.9668 55.5011H44.0215L44.1751 54.5078C44.1888 54.4532 44.2127 54.4054 44.2468 54.3645C44.2878 54.3167 44.3424 54.2928 44.4106 54.2928H45.2196C45.281 54.2928 45.3322 54.3167 45.3732 54.3645C45.421 54.4054 45.4449 54.4566 45.4449 54.5181L45.2913 55.5011H46.0183C46.0866 55.5011 46.1446 55.525 46.1924 55.5728C46.2402 55.6138 46.2641 55.6718 46.2641 55.7469V56.5456C46.2641 56.6139 46.2402 56.6719 46.1924 56.7197C46.1446 56.7675 46.0866 56.7914 46.0183 56.7914H45.107L44.9124 58.1021H45.7521C45.8203 58.1021 45.8784 58.126 45.9262 58.1738C45.9739 58.2147 45.9978 58.2727 45.9978 58.3478V59.1466C45.9978 59.2148 45.9739 59.2729 45.9262 59.3206C45.8784 59.3684 45.8203 59.3923 45.7521 59.3923H44.7178L44.5745 60.3856C44.554 60.529 44.4687 60.6006 44.3185 60.6006H43.5095C43.4481 60.6006 43.3969 60.5802 43.3559 60.5392C43.315 60.4914 43.2945 60.4368 43.2945 60.3754L43.4378 59.3923H42.3934L42.25 60.3856C42.2295 60.529 42.1442 60.6006 41.994 60.6006H41.185ZM42.5879 58.1021H43.6324L43.827 56.7914H42.7825L42.5879 58.1021Z" fill="#E5E5E5"/>
</g>
<defs>
<filter id="filter0_d_601_5156" x="0" y="0" width="80" height="80" filterUnits="userSpaceOnUse" color-interpolation-filters="sRGB">
<feFlood flood-opacity="0" result="BackgroundImageFix"/>
<feColorMatrix in="SourceAlpha" type="matrix" values="0 0 0 0 0 0 0 0 0 0 0 0 0 0 0 0 0 0 127 0" result="hardAlpha"/>
<feOffset dy="2"/>
<feGaussianBlur stdDeviation="4"/>
<feColorMatrix type="matrix" values="0 0 0 0 0 0 0 0 0 0 0 0 0 0 0 0 0 0 0.75 0"/>
<feBlend mode="normal" in2="BackgroundImageFix" result="effect1_dropShadow_601_5156"/>
<feBlend mode="normal" in="SourceGraphic" in2="effect1_dropShadow_601_5156" result="shape"/>
</filter>
<clipPath id="clip0_601_5156">
<rect width="28.4444" height="32" fill="white" transform="translate(26 11)"/>
</clipPath>
</defs>
</svg>
