<svg width="80" height="80" viewBox="0 0 80 80" fill="none" xmlns="http://www.w3.org/2000/svg">
<g filter="url(#filter0_d_601_5315)">
<rect x="8" y="6" width="64" height="64" rx="5" fill="#212529"/>
<path d="M30 39L28 14H52L50 39L40 42L30 39Z" fill="#1172B8"/>
<path d="M50 16H40V40.5L48 38L50 16Z" fill="#33AADD"/>
<path d="M43.5 28.5H33.5L33 25L41 22.5H33L32.5 19.5H48L47.5 23L41 25.5H47L46 35L40 37L34 35L33.5 30H36.5L37 32.5L40 33.5L43 32.5L43.5 28.5Z" fill="white"/>
<path d="M34.1557 61.1024C33.5071 61.1024 32.9508 60.9966 32.4866 60.785C32.0292 60.5733 31.6708 60.2627 31.4114 59.8531C31.1588 59.4435 31.0188 58.9349 30.9915 58.3274C30.9847 58.0475 30.9813 57.7471 30.9813 57.4262C30.9813 57.1054 30.9847 56.7982 30.9915 56.5046C31.0188 55.9107 31.1622 55.409 31.4216 54.9994C31.681 54.5829 32.0428 54.2689 32.507 54.0573C32.9713 53.8388 33.5208 53.7296 34.1557 53.7296C34.6062 53.7296 35.0227 53.7876 35.405 53.9037C35.7873 54.0129 36.1218 54.1767 36.4085 54.3952C36.6952 54.6068 36.9171 54.8662 37.0741 55.1734C37.2379 55.4738 37.3233 55.8151 37.3301 56.1974C37.3369 56.2589 37.3164 56.3101 37.2686 56.351C37.2277 56.392 37.1765 56.4125 37.115 56.4125H35.7326C35.6439 56.4125 35.5756 56.3954 35.5278 56.3613C35.4801 56.3203 35.4391 56.2486 35.405 56.1462C35.3094 55.7844 35.1524 55.5387 34.9339 55.409C34.7223 55.2724 34.4595 55.2042 34.1454 55.2042C33.77 55.2042 33.473 55.31 33.2546 55.5216C33.0361 55.7264 32.9166 56.0711 32.8962 56.5558C32.8757 57.1156 32.8757 57.6891 32.8962 58.2762C32.9166 58.7609 33.0361 59.109 33.2546 59.3206C33.473 59.5254 33.77 59.6278 34.1454 59.6278C34.4595 59.6278 34.7257 59.5596 34.9442 59.423C35.1626 59.2865 35.3162 59.0407 35.405 58.6858C35.4323 58.5834 35.4698 58.5151 35.5176 58.481C35.5722 58.44 35.6439 58.4195 35.7326 58.4195H37.115C37.1765 58.4195 37.2277 58.44 37.2686 58.481C37.3164 58.5219 37.3369 58.5731 37.3301 58.6346C37.3233 59.0169 37.2379 59.3616 37.0741 59.6688C36.9171 59.9692 36.6952 60.2286 36.4085 60.447C36.1218 60.6587 35.7873 60.8225 35.405 60.9386C35.0227 61.0478 34.6062 61.1024 34.1557 61.1024ZM40.4855 61.1024C40.0418 61.1024 39.6629 61.0546 39.3489 60.959C39.0417 60.8566 38.7891 60.7338 38.5911 60.5904C38.4 60.447 38.2566 60.3003 38.161 60.1501C38.0655 59.9931 38.0143 59.8599 38.0074 59.7507C38.0006 59.6756 38.0245 59.6142 38.0791 59.5664C38.1337 59.5118 38.1918 59.4845 38.2532 59.4845H39.4206C39.441 59.4845 39.4581 59.4879 39.4718 59.4947C39.4854 59.5015 39.5059 59.5152 39.5332 59.5357C39.6219 59.5835 39.7107 59.6449 39.7994 59.72C39.8882 59.7883 39.9906 59.8497 40.1066 59.9043C40.2227 59.9589 40.3626 59.9862 40.5265 59.9862C40.7176 59.9862 40.8781 59.9487 41.0078 59.8736C41.1375 59.7985 41.2023 59.6859 41.2023 59.5357C41.2023 59.4265 41.1716 59.3377 41.1102 59.2694C41.0487 59.1943 40.9224 59.1227 40.7313 59.0544C40.547 58.9861 40.2671 58.9179 39.8916 58.8496C39.5366 58.7677 39.226 58.6619 38.9598 58.5322C38.6935 58.3956 38.4887 58.2215 38.3454 58.0099C38.202 57.7915 38.1303 57.5286 38.1303 57.2214C38.1303 56.9484 38.2191 56.6855 38.3966 56.433C38.5741 56.1804 38.8335 55.9756 39.1748 55.8186C39.5161 55.6547 39.936 55.5728 40.4343 55.5728C40.8303 55.5728 41.1716 55.6206 41.4583 55.7162C41.7519 55.8049 41.9976 55.921 42.1956 56.0643C42.4004 56.2077 42.554 56.3545 42.6564 56.5046C42.7588 56.6548 42.8134 56.7914 42.8202 56.9142C42.8271 56.9825 42.8066 57.0439 42.7588 57.0986C42.711 57.1463 42.6564 57.1702 42.595 57.1702H41.53C41.5027 57.1702 41.4754 57.1668 41.4481 57.16C41.4208 57.1463 41.3969 57.1327 41.3764 57.119C41.2945 57.0781 41.2126 57.0235 41.1306 56.9552C41.0487 56.8869 40.9531 56.8255 40.8439 56.7709C40.7347 56.7163 40.5982 56.689 40.4343 56.689C40.25 56.689 40.1066 56.7299 40.0042 56.8118C39.9018 56.8938 39.8506 56.9996 39.8506 57.1293C39.8506 57.218 39.8779 57.2999 39.9326 57.375C39.994 57.4501 40.1135 57.5184 40.291 57.5798C40.4753 57.6413 40.7586 57.7095 41.1409 57.7846C41.6119 57.8597 41.9874 57.9826 42.2673 58.1533C42.5472 58.3171 42.7451 58.5117 42.8612 58.737C42.9773 58.9554 43.0353 59.1875 43.0353 59.4333C43.0353 59.761 42.9363 60.0511 42.7383 60.3037C42.5472 60.5563 42.2605 60.7542 41.8782 60.8976C41.4959 61.0341 41.0317 61.1024 40.4855 61.1024ZM46.1455 61.1024C45.7018 61.1024 45.3229 61.0546 45.0089 60.959C44.7017 60.8566 44.4491 60.7338 44.2511 60.5904C44.06 60.447 43.9166 60.3003 43.821 60.1501C43.7255 59.9931 43.6743 59.8599 43.6674 59.7507C43.6606 59.6756 43.6845 59.6142 43.7391 59.5664C43.7937 59.5118 43.8518 59.4845 43.9132 59.4845H45.0806C45.101 59.4845 45.1181 59.4879 45.1318 59.4947C45.1454 59.5015 45.1659 59.5152 45.1932 59.5357C45.2819 59.5835 45.3707 59.6449 45.4594 59.72C45.5482 59.7883 45.6506 59.8497 45.7666 59.9043C45.8827 59.9589 46.0226 59.9862 46.1865 59.9862C46.3776 59.9862 46.5381 59.9487 46.6678 59.8736C46.7975 59.7985 46.8623 59.6859 46.8623 59.5357C46.8623 59.4265 46.8316 59.3377 46.7702 59.2694C46.7087 59.1943 46.5824 59.1227 46.3913 59.0544C46.207 58.9861 45.9271 58.9179 45.5516 58.8496C45.1966 58.7677 44.886 58.6619 44.6198 58.5322C44.3535 58.3956 44.1487 58.2215 44.0054 58.0099C43.862 57.7915 43.7903 57.5286 43.7903 57.2214C43.7903 56.9484 43.8791 56.6855 44.0566 56.433C44.2341 56.1804 44.4935 55.9756 44.8348 55.8186C45.1761 55.6547 45.596 55.5728 46.0943 55.5728C46.4903 55.5728 46.8316 55.6206 47.1183 55.7162C47.4119 55.8049 47.6576 55.921 47.8556 56.0643C48.0604 56.2077 48.214 56.3545 48.3164 56.5046C48.4188 56.6548 48.4734 56.7914 48.4802 56.9142C48.4871 56.9825 48.4666 57.0439 48.4188 57.0986C48.371 57.1463 48.3164 57.1702 48.255 57.1702H47.19C47.1627 57.1702 47.1354 57.1668 47.1081 57.16C47.0808 57.1463 47.0569 57.1327 47.0364 57.119C46.9545 57.0781 46.8726 57.0235 46.7906 56.9552C46.7087 56.8869 46.6131 56.8255 46.5039 56.7709C46.3947 56.7163 46.2582 56.689 46.0943 56.689C45.91 56.689 45.7666 56.7299 45.6642 56.8118C45.5618 56.8938 45.5106 56.9996 45.5106 57.1293C45.5106 57.218 45.5379 57.2999 45.5926 57.375C45.654 57.4501 45.7735 57.5184 45.951 57.5798C46.1353 57.6413 46.4186 57.7095 46.8009 57.7846C47.2719 57.8597 47.6474 57.9826 47.9273 58.1533C48.2072 58.3171 48.4051 58.5117 48.5212 58.737C48.6373 58.9554 48.6953 59.1875 48.6953 59.4333C48.6953 59.761 48.5963 60.0511 48.3983 60.3037C48.2072 60.5563 47.9205 60.7542 47.5382 60.8976C47.1559 61.0341 46.6917 61.1024 46.1455 61.1024Z" fill="#E5E5E5"/>
</g>
<defs>
<filter id="filter0_d_601_5315" x="0" y="0" width="80" height="80" filterUnits="userSpaceOnUse" color-interpolation-filters="sRGB">
<feFlood flood-opacity="0" result="BackgroundImageFix"/>
<feColorMatrix in="SourceAlpha" type="matrix" values="0 0 0 0 0 0 0 0 0 0 0 0 0 0 0 0 0 0 127 0" result="hardAlpha"/>
<feOffset dy="2"/>
<feGaussianBlur stdDeviation="4"/>
<feColorMatrix type="matrix" values="0 0 0 0 0 0 0 0 0 0 0 0 0 0 0 0 0 0 0.75 0"/>
<feBlend mode="normal" in2="BackgroundImageFix" result="effect1_dropShadow_601_5315"/>
<feBlend mode="normal" in="SourceGraphic" in2="effect1_dropShadow_601_5315" result="shape"/>
</filter>
</defs>
</svg>
