<svg width="80" height="80" viewBox="0 0 80 80" fill="none" xmlns="http://www.w3.org/2000/svg">
<g filter="url(#filter0_d_602_260)">
<rect x="8" y="6" width="64" height="64" rx="5" fill="#212529"/>
<path d="M40.3247 13.783L29.5652 20.2641V33.8429L40.3247 40.3236L51.0815 33.8429V20.2638L40.3247 13.7827V13.783ZM46.7782 31.2506L40.3247 35.139L33.8685 31.2508V22.8566L40.3247 26.7453L46.7782 22.8566V31.2508V31.2506Z" fill="#40B97B"/>
<path d="M24.9238 60.0819C24.4051 60.0819 23.9601 59.9973 23.5889 59.828C23.223 59.6588 22.9364 59.4103 22.7289 59.0827C22.5269 58.7551 22.415 58.3484 22.3931 57.8624C22.3877 57.6386 22.3849 57.3983 22.3849 57.1417C22.3849 56.8851 22.3877 56.6394 22.3931 56.4046C22.415 55.9296 22.5296 55.5283 22.7371 55.2007C22.9446 54.8676 23.234 54.6164 23.6052 54.4472C23.9765 54.2725 24.416 54.1851 24.9238 54.1851C25.2842 54.1851 25.6172 54.2315 25.923 54.3243C26.2288 54.4117 26.4963 54.5427 26.7256 54.7174C26.9549 54.8867 27.1324 55.0942 27.258 55.3399C27.389 55.5801 27.4573 55.8531 27.4627 56.1589C27.4682 56.208 27.4518 56.249 27.4136 56.2817C27.3808 56.3145 27.3399 56.3309 27.2907 56.3309H26.1851C26.1141 56.3309 26.0595 56.3172 26.0213 56.2899C25.9831 56.2572 25.9503 56.1998 25.923 56.1179C25.8466 55.8286 25.721 55.632 25.5463 55.5283C25.377 55.4191 25.1668 55.3645 24.9156 55.3645C24.6153 55.3645 24.3778 55.4491 24.2031 55.6184C24.0284 55.7822 23.9328 56.0579 23.9165 56.4455C23.9001 56.8933 23.9001 57.3519 23.9165 57.8215C23.9328 58.2091 24.0284 58.4876 24.2031 58.6568C24.3778 58.8206 24.6153 58.9025 24.9156 58.9025C25.1668 58.9025 25.3797 58.8479 25.5545 58.7387C25.7292 58.6295 25.852 58.433 25.923 58.1491C25.9448 58.0672 25.9749 58.0126 26.0131 57.9853C26.0568 57.9525 26.1141 57.9361 26.1851 57.9361H27.2907C27.3399 57.9361 27.3808 57.9525 27.4136 57.9853C27.4518 58.018 27.4682 58.059 27.4627 58.1081C27.4573 58.4139 27.389 58.6896 27.258 58.9353C27.1324 59.1755 26.9549 59.383 26.7256 59.5577C26.4963 59.727 26.2288 59.858 25.923 59.9509C25.6172 60.0382 25.2842 60.0819 24.9238 60.0819ZM29.9865 60.0819C29.6316 60.0819 29.3285 60.0437 29.0774 59.9672C28.8317 59.8853 28.6297 59.7871 28.4713 59.6724C28.3184 59.5577 28.2038 59.4403 28.1273 59.3202C28.0509 59.1946 28.0099 59.0882 28.0045 59.0008C27.999 58.9408 28.0181 58.8916 28.0618 58.8534C28.1055 58.8097 28.1519 58.7879 28.201 58.7879H29.1347C29.1511 58.7879 29.1647 58.7906 29.1757 58.7961C29.1866 58.8015 29.203 58.8124 29.2248 58.8288C29.2958 58.867 29.3668 58.9162 29.4377 58.9763C29.5087 59.0309 29.5906 59.08 29.6834 59.1237C29.7763 59.1673 29.8882 59.1892 30.0192 59.1892C30.1721 59.1892 30.3004 59.1592 30.4042 59.0991C30.5079 59.039 30.5598 58.9489 30.5598 58.8288C30.5598 58.7415 30.5352 58.6705 30.4861 58.6159C30.4369 58.5558 30.3359 58.4985 30.183 58.4439C30.0356 58.3893 29.8117 58.3347 29.5114 58.2801C29.2275 58.2146 28.9791 58.1299 28.7662 58.0262C28.5532 57.917 28.3894 57.7778 28.2748 57.6085C28.1601 57.4338 28.1028 57.2236 28.1028 56.9779C28.1028 56.7595 28.1737 56.5493 28.3157 56.3473C28.4577 56.1452 28.6651 55.9814 28.9381 55.8559C29.2111 55.7248 29.5469 55.6593 29.9455 55.6593C30.2622 55.6593 30.5352 55.6975 30.7645 55.774C30.9993 55.8449 31.1959 55.9378 31.3542 56.0524C31.518 56.1671 31.6408 56.2845 31.7227 56.4046C31.8046 56.5247 31.8483 56.6339 31.8538 56.7322C31.8592 56.7868 31.8429 56.8359 31.8046 56.8796C31.7664 56.9178 31.7227 56.9369 31.6736 56.9369H30.8218C30.8 56.9369 30.7782 56.9342 30.7563 56.9287C30.7345 56.9178 30.7154 56.9069 30.699 56.896C30.6335 56.8632 30.568 56.8196 30.5024 56.765C30.4369 56.7103 30.3605 56.6612 30.2731 56.6175C30.1858 56.5738 30.0766 56.552 29.9455 56.552C29.7981 56.552 29.6834 56.5848 29.6015 56.6503C29.5196 56.7158 29.4787 56.8004 29.4787 56.9042C29.4787 56.9752 29.5005 57.0407 29.5442 57.1007C29.5933 57.1608 29.6889 57.2154 29.8309 57.2645C29.9783 57.3137 30.2049 57.3683 30.5106 57.4283C30.8874 57.4884 31.1877 57.5867 31.4115 57.7232C31.6354 57.8542 31.7937 58.0098 31.8865 58.19C31.9794 58.3647 32.0258 58.5504 32.0258 58.7469C32.0258 59.009 31.9466 59.2411 31.7883 59.4431C31.6354 59.6451 31.4061 59.8034 31.1003 59.9181C30.7945 60.0273 30.4233 60.0819 29.9865 60.0819ZM34.5134 60.0819C34.1585 60.0819 33.8554 60.0437 33.6043 59.9672C33.3586 59.8853 33.1565 59.7871 32.9982 59.6724C32.8453 59.5577 32.7307 59.4403 32.6542 59.3202C32.5778 59.1946 32.5368 59.0882 32.5314 59.0008C32.5259 58.9408 32.545 58.8916 32.5887 58.8534C32.6324 58.8097 32.6788 58.7879 32.7279 58.7879H33.6616C33.678 58.7879 33.6916 58.7906 33.7025 58.7961C33.7135 58.8015 33.7298 58.8124 33.7517 58.8288C33.8227 58.867 33.8936 58.9162 33.9646 58.9763C34.0356 59.0309 34.1175 59.08 34.2103 59.1237C34.3031 59.1673 34.4151 59.1892 34.5461 59.1892C34.699 59.1892 34.8273 59.1592 34.931 59.0991C35.0348 59.039 35.0867 58.9489 35.0867 58.8288C35.0867 58.7415 35.0621 58.6705 35.0129 58.6159C34.9638 58.5558 34.8628 58.4985 34.7099 58.4439C34.5625 58.3893 34.3386 58.3347 34.0383 58.2801C33.7544 58.2146 33.506 58.1299 33.293 58.0262C33.0801 57.917 32.9163 57.7778 32.8016 57.6085C32.687 57.4338 32.6297 57.2236 32.6297 56.9779C32.6297 56.7595 32.7006 56.5493 32.8426 56.3473C32.9846 56.1452 33.192 55.9814 33.465 55.8559C33.738 55.7248 34.0738 55.6593 34.4724 55.6593C34.7891 55.6593 35.0621 55.6975 35.2914 55.774C35.5262 55.8449 35.7227 55.9378 35.8811 56.0524C36.0449 56.1671 36.1677 56.2845 36.2496 56.4046C36.3315 56.5247 36.3752 56.6339 36.3807 56.7322C36.3861 56.7868 36.3698 56.8359 36.3315 56.8796C36.2933 56.9178 36.2496 56.9369 36.2005 56.9369H35.3487C35.3269 56.9369 35.3051 56.9342 35.2832 56.9287C35.2614 56.9178 35.2423 56.9069 35.2259 56.896C35.1604 56.8632 35.0948 56.8196 35.0293 56.765C34.9638 56.7103 34.8874 56.6612 34.8 56.6175C34.7126 56.5738 34.6034 56.552 34.4724 56.552C34.325 56.552 34.2103 56.5848 34.1284 56.6503C34.0465 56.7158 34.0056 56.8004 34.0056 56.9042C34.0056 56.9752 34.0274 57.0407 34.0711 57.1007C34.1202 57.1608 34.2158 57.2154 34.3577 57.2645C34.5052 57.3137 34.7318 57.3683 35.0375 57.4283C35.4143 57.4884 35.7146 57.5867 35.9384 57.7232C36.1623 57.8542 36.3206 58.0098 36.4134 58.19C36.5063 58.3647 36.5527 58.5504 36.5527 58.7469C36.5527 59.009 36.4735 59.2411 36.3152 59.4431C36.1623 59.6451 35.933 59.8034 35.6272 59.9181C35.3214 60.0273 34.9502 60.0819 34.5134 60.0819ZM37.4923 60C37.4323 60 37.3831 59.9809 37.3449 59.9427C37.3067 59.9045 37.2876 59.8553 37.2876 59.7953V55.9459C37.2876 55.8859 37.3067 55.8367 37.3449 55.7985C37.3831 55.7603 37.4323 55.7412 37.4923 55.7412H38.4342C38.4943 55.7412 38.5434 55.7603 38.5816 55.7985C38.6198 55.8367 38.6389 55.8859 38.6389 55.9459V56.2572C38.7809 56.0879 38.9665 55.946 39.1959 55.8313C39.4252 55.7166 39.6955 55.6593 40.0067 55.6593C40.3234 55.6593 40.6018 55.7303 40.8421 55.8722C41.0878 56.0142 41.2789 56.2244 41.4154 56.5029C41.5573 56.7759 41.6283 57.1117 41.6283 57.5102V59.7953C41.6283 59.8553 41.6065 59.9045 41.5628 59.9427C41.5246 59.9809 41.4781 60 41.4235 60H40.3916C40.337 60 40.2879 59.9809 40.2442 59.9427C40.206 59.9045 40.1869 59.8553 40.1869 59.7953V57.5594C40.1869 57.3028 40.1241 57.1062 39.9985 56.9697C39.8784 56.8277 39.6982 56.7568 39.4579 56.7568C39.2341 56.7568 39.0539 56.8277 38.9174 56.9697C38.7864 57.1062 38.7208 57.3028 38.7208 57.5594V59.7953C38.7208 59.8553 38.699 59.9045 38.6553 59.9427C38.6171 59.9809 38.5707 60 38.5161 60H37.4923ZM43.82 60.0819C43.5251 60.0819 43.2603 60.0273 43.0255 59.9181C42.7962 59.8034 42.6133 59.6506 42.4768 59.4595C42.3403 59.2684 42.272 59.0527 42.272 58.8124C42.272 58.4248 42.4304 58.119 42.7471 57.8952C43.0637 57.6658 43.4842 57.5102 44.0083 57.4283L45.0321 57.2727V57.1581C45.0321 56.9615 44.9911 56.8114 44.9092 56.7076C44.8273 56.6039 44.6772 56.552 44.4588 56.552C44.3059 56.552 44.1803 56.582 44.082 56.6421C43.9892 56.7022 43.9155 56.7841 43.8609 56.8878C43.8118 56.9588 43.7435 56.9943 43.6562 56.9943H42.7389C42.6788 56.9943 42.6324 56.9779 42.5996 56.9451C42.5669 56.9069 42.5532 56.8632 42.5587 56.8141C42.5587 56.7158 42.5942 56.6039 42.6652 56.4783C42.7416 56.3473 42.8563 56.2189 43.0091 56.0934C43.162 55.9678 43.3586 55.8641 43.5988 55.7821C43.8391 55.7002 44.1284 55.6593 44.467 55.6593C44.8219 55.6593 45.1249 55.7002 45.3761 55.7821C45.6272 55.8641 45.8292 55.9787 45.9821 56.1261C46.1405 56.2736 46.2578 56.4483 46.3343 56.6503C46.4107 56.8468 46.4489 57.0652 46.4489 57.3055V59.7953C46.4489 59.8553 46.4271 59.9045 46.3834 59.9427C46.3452 59.9809 46.2988 60 46.2442 60H45.2942C45.2341 60 45.185 59.9809 45.1467 59.9427C45.1085 59.9045 45.0894 59.8553 45.0894 59.7953V59.5086C45.0184 59.6123 44.9229 59.7079 44.8028 59.7953C44.6826 59.8826 44.5407 59.9509 44.3769 60C44.2185 60.0546 44.0329 60.0819 43.82 60.0819ZM44.2049 59.1482C44.3632 59.1482 44.5052 59.1155 44.6308 59.05C44.7618 58.979 44.8628 58.8725 44.9338 58.7306C45.0102 58.5831 45.0485 58.4002 45.0485 58.1818V58.0672L44.3523 58.19C44.0957 58.2337 43.9073 58.3019 43.7872 58.3948C43.6725 58.4821 43.6152 58.5859 43.6152 58.706C43.6152 58.7988 43.6425 58.878 43.6971 58.9435C43.7517 59.009 43.8227 59.0609 43.91 59.0991C43.9974 59.1319 44.0957 59.1482 44.2049 59.1482ZM47.5779 60C47.5178 60 47.4687 59.9809 47.4305 59.9427C47.3922 59.9045 47.3731 59.8553 47.3731 59.7953V55.9459C47.3731 55.8859 47.3922 55.8367 47.4305 55.7985C47.4687 55.7603 47.5178 55.7412 47.5779 55.7412H48.5197C48.5798 55.7412 48.6289 55.7603 48.6671 55.7985C48.7054 55.8367 48.7245 55.8859 48.7245 55.9459V56.2572C48.8664 56.0879 49.0521 55.946 49.2814 55.8313C49.5107 55.7166 49.781 55.6593 50.0922 55.6593C50.4089 55.6593 50.6873 55.7303 50.9276 55.8722C51.1733 56.0142 51.3644 56.2244 51.5009 56.5029C51.6428 56.7759 51.7138 57.1117 51.7138 57.5102V59.7953C51.7138 59.8553 51.692 59.9045 51.6483 59.9427C51.6101 59.9809 51.5637 60 51.5091 60H50.4771C50.4225 60 50.3734 59.9809 50.3297 59.9427C50.2915 59.9045 50.2724 59.8553 50.2724 59.7953V57.5594C50.2724 57.3028 50.2096 57.1062 50.084 56.9697C49.9639 56.8277 49.7837 56.7568 49.5435 56.7568C49.3196 56.7568 49.1394 56.8277 49.0029 56.9697C48.8719 57.1062 48.8064 57.3028 48.8064 57.5594V59.7953C48.8064 59.8553 48.7845 59.9045 48.7409 59.9427C48.7026 59.9809 48.6562 60 48.6016 60H47.5779ZM54.6426 60.0819C54.1839 60.0819 53.7963 60.0082 53.4796 59.8608C53.1684 59.7133 52.9281 59.5031 52.7589 59.2301C52.5951 58.9517 52.5023 58.6214 52.4804 58.2392C52.475 58.13 52.4722 58.0071 52.4722 57.8706C52.4722 57.7286 52.475 57.6058 52.4804 57.5021C52.5023 57.1144 52.6005 56.7841 52.7753 56.5111C52.95 56.2381 53.193 56.0279 53.5042 55.8804C53.8209 55.733 54.2003 55.6593 54.6426 55.6593C55.0903 55.6593 55.4698 55.733 55.781 55.8804C56.0977 56.0279 56.3434 56.2381 56.5181 56.5111C56.6928 56.7841 56.7911 57.1144 56.8129 57.5021C56.8184 57.6058 56.8211 57.7286 56.8211 57.8706C56.8211 58.0071 56.8184 58.13 56.8129 58.2392C56.7911 58.6214 56.6955 58.9517 56.5263 59.2301C56.3625 59.5031 56.1222 59.7133 55.8056 59.8608C55.4943 60.0082 55.1067 60.0819 54.6426 60.0819ZM54.6426 59.0827C54.8883 59.0827 55.0657 59.009 55.1749 58.8616C55.2896 58.7142 55.3551 58.493 55.3715 58.1982C55.377 58.1163 55.3797 58.0071 55.3797 57.8706C55.3797 57.7341 55.377 57.6249 55.3715 57.543C55.3551 57.2536 55.2896 57.0352 55.1749 56.8878C55.0657 56.7349 54.8883 56.6585 54.6426 56.6585C54.4023 56.6585 54.2249 56.7349 54.1102 56.8878C53.9956 57.0352 53.9328 57.2536 53.9219 57.543C53.9164 57.6249 53.9137 57.7341 53.9137 57.8706C53.9137 58.0071 53.9164 58.1163 53.9219 58.1982C53.9328 58.493 53.9956 58.7142 54.1102 58.8616C54.2249 59.009 54.4023 59.0827 54.6426 59.0827Z" fill="#E5E5E5"/>
</g>
<defs>
<filter id="filter0_d_602_260" x="0" y="0" width="80" height="80" filterUnits="userSpaceOnUse" color-interpolation-filters="sRGB">
<feFlood flood-opacity="0" result="BackgroundImageFix"/>
<feColorMatrix in="SourceAlpha" type="matrix" values="0 0 0 0 0 0 0 0 0 0 0 0 0 0 0 0 0 0 127 0" result="hardAlpha"/>
<feOffset dy="2"/>
<feGaussianBlur stdDeviation="4"/>
<feColorMatrix type="matrix" values="0 0 0 0 0 0 0 0 0 0 0 0 0 0 0 0 0 0 0.75 0"/>
<feBlend mode="normal" in2="BackgroundImageFix" result="effect1_dropShadow_602_260"/>
<feBlend mode="normal" in="SourceGraphic" in2="effect1_dropShadow_602_260" result="shape"/>
</filter>
</defs>
</svg>
