<svg width="80" height="80" viewBox="0 0 80 80" fill="none" xmlns="http://www.w3.org/2000/svg">
<g filter="url(#filter0_d_601_4949)">
<rect x="8" y="6" width="64" height="64" rx="5" fill="#212529"/>
<path d="M40.824 13.0879C40.4836 13.0893 40.1573 13.2238 39.9147 13.4626L39.9014 13.4719L31.384 18.3946L39.88 26.8906V26.8959L50.0907 37.1079L52.0374 33.6012L45.0187 16.7479L41.7427 13.4719C41.6223 13.3503 41.479 13.2538 41.3211 13.1879C41.1632 13.122 40.9938 13.088 40.8227 13.0879H40.824Z" fill="#66C3FA"/>
<path d="M31.4039 18.3746L26.4839 26.8853L26.4746 26.8986C26.3547 27.019 26.2598 27.1618 26.1953 27.3189C26.1307 27.4761 26.0979 27.6444 26.0986 27.8143C26.0994 27.9842 26.1337 28.1522 26.1996 28.3088C26.2655 28.4653 26.3617 28.6073 26.4826 28.7266L30.5599 32.808L46.5106 39.0826L50.1173 37.08L50.0199 36.9826L49.9946 36.9853L39.9946 26.9693H39.9826L31.4039 18.3746Z" fill="#215896"/>
<path d="M31.3826 18.3787L40.0732 27.0787H40.0866L50.0879 37.092L53.8959 36.3667L53.9012 25.1013L49.8812 21.1613C49.0012 20.2987 47.6479 19.7427 46.2879 19.5587L46.2906 19.516L31.3839 18.38L31.3826 18.3787Z" fill="#235997"/>
<path d="M31.3933 18.3894L40.0893 27.0854V27.0974L50.0973 37.1054L49.3693 40.9121H38.104L34.1653 36.8894C33.3026 36.0094 32.748 34.6547 32.5653 33.2947L32.5213 33.2987L31.3933 18.3894Z" fill="#58B6F0"/>
<path d="M29.4728 61C29.3977 61 29.3363 60.9761 29.2885 60.9283C29.2407 60.8805 29.2168 60.8191 29.2168 60.744V54.088C29.2168 54.0129 29.2407 53.9515 29.2885 53.9037C29.3363 53.8559 29.3977 53.832 29.4728 53.832H32.1352C32.8042 53.832 33.3742 53.9412 33.8453 54.1597C34.3163 54.3713 34.6781 54.6853 34.9307 55.1018C35.1833 55.5114 35.3198 56.0199 35.3403 56.6275C35.3471 56.9279 35.3506 57.1907 35.3506 57.416C35.3506 57.6413 35.3471 57.9007 35.3403 58.1942C35.313 58.8291 35.1765 59.3548 34.9307 59.7712C34.6918 60.1876 34.3402 60.4982 33.876 60.703C33.4186 60.901 32.8554 61 32.1864 61H29.4728ZM31.0498 59.5254H32.1352C32.4287 59.5254 32.6711 59.4811 32.8622 59.3923C33.0602 59.2967 33.207 59.15 33.3026 58.952C33.405 58.754 33.4596 58.4946 33.4664 58.1738C33.4801 57.9758 33.4869 57.7983 33.4869 57.6413C33.4937 57.4843 33.4937 57.3273 33.4869 57.1702C33.4869 57.0132 33.4801 56.8391 33.4664 56.648C33.4527 56.1838 33.3299 55.8459 33.0978 55.6342C32.8725 55.4158 32.5346 55.3066 32.084 55.3066H31.0498V59.5254ZM38.0316 61.1024C37.663 61.1024 37.3319 61.0341 37.0383 60.8976C36.7516 60.7542 36.5229 60.5631 36.3522 60.3242C36.1816 60.0852 36.0962 59.8156 36.0962 59.5152C36.0962 59.0305 36.2942 58.6482 36.6902 58.3683C37.0861 58.0816 37.6118 57.887 38.2671 57.7846L39.5471 57.5901V57.4467C39.5471 57.201 39.4959 57.0132 39.3935 56.8835C39.2911 56.7538 39.1034 56.689 38.8303 56.689C38.6392 56.689 38.4822 56.7265 38.3593 56.8016C38.2432 56.8767 38.1511 56.9791 38.0828 57.1088C38.0214 57.1975 37.936 57.2419 37.8268 57.2419H36.6799C36.6048 57.2419 36.5468 57.2214 36.5058 57.1805C36.4649 57.1327 36.4478 57.0781 36.4546 57.0166C36.4546 56.8938 36.499 56.7538 36.5878 56.5968C36.6833 56.433 36.8267 56.2725 37.0178 56.1155C37.209 55.9585 37.4547 55.8288 37.7551 55.7264C38.0555 55.624 38.4173 55.5728 38.8406 55.5728C39.2843 55.5728 39.6632 55.624 39.9772 55.7264C40.2912 55.8288 40.5438 55.9722 40.735 56.1565C40.9329 56.3408 41.0797 56.5593 41.1753 56.8118C41.2709 57.0576 41.3186 57.3307 41.3186 57.631V60.744C41.3186 60.8191 41.2913 60.8805 41.2367 60.9283C41.1889 60.9761 41.1309 61 41.0626 61H39.8748C39.7997 61 39.7383 60.9761 39.6905 60.9283C39.6427 60.8805 39.6188 60.8191 39.6188 60.744V60.3856C39.5301 60.5153 39.4106 60.6348 39.2604 60.744C39.1102 60.8532 38.9327 60.9386 38.7279 61C38.5299 61.0683 38.2978 61.1024 38.0316 61.1024ZM38.5129 59.935C38.7109 59.935 38.8883 59.8941 39.0454 59.8122C39.2092 59.7234 39.3355 59.5903 39.4242 59.4128C39.5198 59.2285 39.5676 58.9998 39.5676 58.7267V58.5834L38.6972 58.737C38.3763 58.7916 38.1408 58.8769 37.9906 58.993C37.8473 59.1022 37.7756 59.2319 37.7756 59.3821C37.7756 59.4981 37.8097 59.5971 37.878 59.679C37.9463 59.761 38.035 59.8258 38.1442 59.8736C38.2535 59.9146 38.3763 59.935 38.5129 59.935ZM42.7302 61C42.6551 61 42.5936 60.9761 42.5458 60.9283C42.4981 60.8805 42.4742 60.8191 42.4742 60.744V55.9312C42.4742 55.8629 42.4981 55.8049 42.5458 55.7571C42.5936 55.7025 42.6551 55.6752 42.7302 55.6752H43.9078C43.9829 55.6752 44.0443 55.7025 44.0921 55.7571C44.1399 55.8049 44.1638 55.8629 44.1638 55.9312V56.3408C44.3481 56.1292 44.5665 55.9653 44.8191 55.8493C45.0785 55.7332 45.3687 55.6752 45.6895 55.6752H46.1401C46.2083 55.6752 46.2664 55.6991 46.3142 55.7469C46.3688 55.7947 46.3961 55.8561 46.3961 55.9312V56.9859C46.3961 57.0542 46.3688 57.1156 46.3142 57.1702C46.2664 57.218 46.2083 57.2419 46.1401 57.2419H45.1468C44.8669 57.2419 44.6485 57.3204 44.4914 57.4774C44.3413 57.6276 44.2662 57.8427 44.2662 58.1226V60.744C44.2662 60.8191 44.2389 60.8805 44.1842 60.9283C44.1365 60.9761 44.075 61 43.9999 61H42.7302ZM49.848 61C49.4111 61 49.0322 60.9317 48.7114 60.7952C48.3973 60.6518 48.155 60.4334 47.9843 60.1398C47.8137 59.8395 47.7283 59.4538 47.7283 58.9827V57.0166H46.9296C46.8545 57.0166 46.7897 56.9927 46.735 56.945C46.6873 56.8972 46.6634 56.8357 46.6634 56.7606V55.9312C46.6634 55.8561 46.6873 55.7947 46.735 55.7469C46.7897 55.6991 46.8545 55.6752 46.9296 55.6752H47.7283V53.9856C47.7283 53.9105 47.7522 53.8491 47.8 53.8013C47.8546 53.7535 47.9161 53.7296 47.9843 53.7296H49.1722C49.2473 53.7296 49.3087 53.7535 49.3565 53.8013C49.4043 53.8491 49.4282 53.9105 49.4282 53.9856V55.6752H50.7082C50.7833 55.6752 50.8447 55.6991 50.8925 55.7469C50.9403 55.7947 50.9642 55.8561 50.9642 55.9312V56.7606C50.9642 56.8357 50.9403 56.8972 50.8925 56.945C50.8447 56.9927 50.7833 57.0166 50.7082 57.0166H49.4282V58.8394C49.4282 59.0715 49.4725 59.2558 49.5613 59.3923C49.65 59.5289 49.8002 59.5971 50.0118 59.5971H50.8003C50.8754 59.5971 50.9369 59.621 50.9846 59.6688C51.0324 59.7166 51.0563 59.778 51.0563 59.8531V60.744C51.0563 60.8191 51.0324 60.8805 50.9846 60.9283C50.9369 60.9761 50.8754 61 50.8003 61H49.848Z" fill="#E5E5E5"/>
</g>
<defs>
<filter id="filter0_d_601_4949" x="0" y="0" width="80" height="80" filterUnits="userSpaceOnUse" color-interpolation-filters="sRGB">
<feFlood flood-opacity="0" result="BackgroundImageFix"/>
<feColorMatrix in="SourceAlpha" type="matrix" values="0 0 0 0 0 0 0 0 0 0 0 0 0 0 0 0 0 0 127 0" result="hardAlpha"/>
<feOffset dy="2"/>
<feGaussianBlur stdDeviation="4"/>
<feColorMatrix type="matrix" values="0 0 0 0 0 0 0 0 0 0 0 0 0 0 0 0 0 0 0.75 0"/>
<feBlend mode="normal" in2="BackgroundImageFix" result="effect1_dropShadow_601_4949"/>
<feBlend mode="normal" in="SourceGraphic" in2="effect1_dropShadow_601_4949" result="shape"/>
</filter>
</defs>
</svg>
