<svg width="80" height="80" viewBox="0 0 80 80" fill="none" xmlns="http://www.w3.org/2000/svg">
<g filter="url(#filter0_d_602_752)">
<rect x="8" y="6" width="64" height="64" rx="5" fill="#212529"/>
<path fill-rule="evenodd" clip-rule="evenodd" d="M33.1157 29.2197C33.4948 28.9724 33.808 28.3543 33.6185 27.9175C33.0992 28.14 33.124 28.651 33.1157 29.2197ZM38.9839 30.6373C39.396 30.5054 39.7916 30.0439 39.569 29.5658C39.2476 29.7884 39.0416 30.0933 38.9839 30.6373L38.9839 30.6373Z" fill="#E3E3F8"/>
<path fill-rule="evenodd" clip-rule="evenodd" d="M27.4537 37.4616C27.4537 37.9808 27.5855 38.5412 27.9482 38.739C29.2833 39.489 33.9647 38.9039 35.5553 38.5495C36.3877 38.3599 37.0636 37.7418 37.8465 37.4039C39.6103 36.6374 40.8877 36.0193 42.2971 34.989C43.3191 34.239 44.9427 32.1291 45.1158 30.8681L43.7229 30.555C43.6899 31.9725 43.3685 32.294 42.1075 32.6236C41.2586 32.8544 39.602 32.9039 38.7366 32.7555C37.591 32.5659 37.0718 31.9643 36.5526 31.2802C35.5471 29.9451 36.7751 29.0137 35.1844 28.9231C33.5114 30.9753 30.5608 29.5 29.2668 29.294C28.7147 30.0934 27.4207 35.2857 27.4372 36.4725C28.2366 36.2006 28.7394 36.4973 29.4564 36.7775C31.9949 37.7583 29.7778 38.6237 28.7641 38.3682C28.0718 38.2033 27.8575 37.75 27.4537 37.4616ZM30.7751 25.6181C31.8053 25.8159 32.7202 26.2445 33.5938 26.6813C35.0196 27.3901 35.2751 27.2912 35.407 28.2802C35.4234 28.4616 35.3905 28.5604 35.9097 28.7253C36.7833 28.9973 35.407 28.511 37.7476 28.5192C39.1405 28.5275 42.3301 29.0879 43.3603 29.739C43.7888 30.011 43.7064 30.3572 45.157 30.3159C45.1405 28.6099 44.6872 26.0632 44.0196 24.4973C43.2037 22.6016 42.124 22.3132 39.9235 21.6044C38.6377 21.1923 34.863 20.739 33.6927 21.4643C32.5965 22.1483 32.3905 22.9643 31.3685 24.3984C31.0718 24.8187 30.9646 25.1401 30.7751 25.6181Z" fill="#FDFDFD"/>
<path fill-rule="evenodd" clip-rule="evenodd" d="M39.8492 29.1208C40.6734 29.4587 39.808 31.6428 38.6624 31.1153C38.2915 30.0686 39.1733 29.4752 39.4124 29.0054C38.9178 28.9313 37.5085 28.7087 37.0882 28.8653C36.5442 29.0714 36.4206 30.2335 36.7008 30.7774C38.0195 33.3653 43.8464 32.8131 43.2283 30.8021C42.981 29.9862 42.7503 29.8543 41.9179 29.5741C41.2503 29.3516 40.5827 29.1208 39.8492 29.1208ZM29.4893 28.8324C30.1486 29.467 31.6404 29.5659 32.6046 29.6153C32.7283 28.3379 32.8354 27.3818 33.8574 27.456C34.3601 28.14 34.0964 28.9477 33.5689 29.467C34.4673 29.4587 34.9865 28.7829 34.8547 27.8021C34.0964 27.2582 31.797 26.1703 30.6431 26.0137C30.3217 26.3598 29.5305 28.2554 29.4893 28.8324Z" fill="#FDFDFD"/>
<path fill-rule="evenodd" clip-rule="evenodd" d="M27.9398 36.9916C28.4838 36.9422 29.9013 37.3543 30.0167 37.8158C29.1349 37.923 28.014 37.8405 27.9398 36.9916ZM27.4535 37.4614C27.8574 37.7499 28.0717 38.2032 28.764 38.368C29.7777 38.6235 31.9948 37.7581 29.4563 36.7774C28.7393 36.4971 28.2365 36.2004 27.4371 36.4724C27.4206 35.2856 28.7145 30.0933 29.2667 29.2938C30.5607 29.4999 33.5112 30.9752 35.1843 28.9229C36.775 29.0136 35.547 29.9449 36.5525 31.2801C37.0717 31.9642 37.5909 32.5658 38.7365 32.7554C39.6019 32.9037 41.2585 32.8543 42.1074 32.6235C43.3684 32.2938 43.6898 31.9724 43.7228 30.5548L45.1157 30.868C44.9426 32.129 43.319 34.2389 42.297 34.9889C40.8876 36.0191 39.6102 36.6372 37.8464 37.4037C37.0634 37.7416 36.3876 38.3598 35.5552 38.5493C33.9645 38.9037 29.2832 39.4889 27.948 38.7389C27.5854 38.5411 27.4535 37.9807 27.4535 37.4614ZM38.9838 30.6372C39.0415 30.0933 39.2475 29.7883 39.5689 29.5658C39.7915 30.0438 39.3959 30.5054 38.9838 30.6372ZM39.8492 29.1208C40.5827 29.1208 41.2503 29.3515 41.9179 29.574C42.7503 29.8543 42.981 29.9861 43.2283 30.8021C43.8464 32.8131 38.0195 33.3653 36.7008 30.7773C36.4206 30.2334 36.5442 29.0713 37.0882 28.8653C37.5085 28.7087 38.9178 28.9312 39.4124 29.0054C39.1733 29.4751 38.2915 30.0686 38.6624 31.1153C39.808 31.6427 40.6733 29.4587 39.8492 29.1208ZM33.1156 29.2197C33.1239 28.651 33.0992 28.14 33.6184 27.9175C33.8079 28.3543 33.4948 28.9724 33.1156 29.2197ZM29.4893 28.8323C29.5305 28.2554 30.3217 26.3598 30.6431 26.0136C31.797 26.1702 34.0964 27.2581 34.8547 27.8021C34.9865 28.7828 34.4673 29.4587 33.5689 29.4669C34.0964 28.9477 34.3601 28.14 33.8574 27.4559C32.8354 27.3817 32.7283 28.3378 32.6046 29.6153C31.6404 29.5658 30.1486 29.4669 29.4893 28.8323ZM28.6651 28.1729C28.3601 27.3323 28.3601 26.0218 29.6541 25.9147L28.9948 27.7526C28.8217 28.1482 28.8217 28.0576 28.6651 28.1729ZM30.775 25.618C30.9645 25.14 31.0717 24.8185 31.3684 24.3982C32.3904 22.9641 32.5964 22.1482 33.6926 21.4641C34.8629 20.7389 38.6376 21.1922 39.9233 21.6043C42.1239 22.313 43.2036 22.6015 44.0195 24.4971C44.6871 26.0631 45.1404 28.6098 45.1569 30.3158C43.7063 30.357 43.7887 30.0109 43.3602 29.7389C42.3299 29.0878 39.1404 28.5273 37.7475 28.5191C35.4069 28.5109 36.7832 28.9971 35.9096 28.7251C35.3904 28.5603 35.4233 28.4614 35.4069 28.2801C35.275 27.2911 35.0195 27.39 33.5937 26.6812C32.72 26.2444 31.8052 25.8158 30.775 25.618ZM45.3629 25.2142C45.2063 24.6949 45.4948 24.7279 45.9975 24.3735C46.286 24.1674 46.5168 23.9532 46.8712 23.7554C48.1981 23.0136 50.6706 22.89 51.7256 23.7718C52.1541 24.1262 52.8547 24.8185 52.7475 25.7251C52.525 27.5301 51.2887 28.5191 50.275 29.3433C49.2448 30.1839 47.5305 31.0493 45.7585 30.4724C45.6102 30.1098 45.7256 27.8103 45.5525 26.9614C45.3959 26.2032 45.4783 26.1207 45.9151 25.6674C47.2008 24.3323 49.9865 23.3598 51.569 24.5054C52.2366 24.9999 52.047 25.1894 52.3931 25.5685C52.8217 25.107 52.0223 23.5576 49.0717 23.6565C47.069 23.7224 46.2036 25.2883 45.3629 25.2142ZM33.3629 20.5246C33.4041 19.379 34.459 17.0053 35.514 16.1812C36.7915 15.1922 38.1266 14.2608 40.0882 15.3735C40.5744 15.6455 40.5497 15.7856 40.5992 16.4614C40.6404 17.1125 40.5827 17.3515 40.4179 17.879C39.1157 22.0823 38.0277 19.6674 33.8574 20.6647C34.014 19.2966 35.2008 18.0768 35.8602 17.4422C36.9893 16.346 37.8052 15.6372 39.503 15.868C39.9728 16.6509 40.0222 17.1455 39.4536 18.0603C38.6953 19.2801 38.5058 19.2059 38.6211 20.0383C39.2146 19.89 39.3959 19.313 39.6679 18.7361C41.3244 15.2746 38.9178 14.8542 37.4426 15.4889C36.4536 15.9092 34.6898 17.8542 34.1129 19.0246C33.9975 19.2553 33.8739 19.5521 33.7667 19.8075L33.3629 20.5246ZM39.8904 20.6977C40.0635 19.6674 41.0854 19.4119 41.0854 16.2389C41.0854 14.8707 39.4041 13.6427 37.2036 14.5575C35.3162 15.3323 35.0277 15.9257 34.0222 17.4422C33.0744 18.8762 33.1074 20.4504 32.2915 21.7773C32.0525 22.1565 31.8382 22.2883 31.5744 22.6674C31.3849 22.9477 31.2448 23.3021 31.0552 23.6317C30.6678 24.2663 30.2722 24.7279 29.959 25.4861C28.97 25.5109 28.1376 25.5273 28.0387 26.5493C27.9068 27.9504 28.5662 28.2966 28.5662 28.824C28.5579 29.3927 26.2502 35.129 26.8931 38.5493C27.0744 39.4889 27.6926 39.4971 28.6816 39.6125C31.0634 39.901 34.1541 39.8021 36.2887 38.9449L40.1624 37.0905C41.1431 36.5383 42.7915 35.4916 43.525 34.7252C44.0442 34.1894 44.3162 33.7361 44.7613 33.1015C45.3712 32.2114 45.3876 32.2279 45.5195 31.0164C46.3272 31.1647 47.8354 31.5191 48.3382 31.9559C48.2805 32.5246 48.0003 32.2526 48.0003 32.7636C48.3217 32.7719 48.8574 32.368 48.9893 31.923C48.6514 31.4284 48.297 31.5109 47.8107 31.1153C48.1981 30.8103 48.8986 30.6702 49.4344 30.4477C50.5882 29.9697 52.558 28.5191 53.0442 27.2004C53.4316 26.1372 53.1431 24.3652 52.5168 23.6729C51.8574 22.9477 50.3245 22.5768 49.0717 22.5768C47.58 22.5768 46.0387 23.6482 44.8354 24.1098C44.3739 23.7059 44.3409 23.2444 44.003 22.7993C43.6157 22.2718 41.0937 20.9532 39.8904 20.6977Z" fill="#020202"/>
<path fill-rule="evenodd" clip-rule="evenodd" d="M45.363 25.2141C46.2036 25.2883 47.069 23.7224 49.0718 23.6564C52.0223 23.5575 52.8218 25.107 52.3932 25.5685C52.0471 25.1894 52.2366 24.9998 51.569 24.5053C49.9866 23.3597 47.2009 24.3323 45.9152 25.6674C45.4784 26.1207 45.396 26.2031 45.5525 26.9614C45.7256 27.8103 45.6102 30.1097 45.7586 30.4724C47.5306 31.0493 49.2449 30.1839 50.2751 29.3433C51.2888 28.5191 52.5251 27.5301 52.7476 25.7251C52.8548 24.8185 52.1542 24.1262 51.7256 23.7718C50.6707 22.8899 48.1982 23.0136 46.8712 23.7553C46.5168 23.9531 46.2861 24.1674 45.9976 24.3735C45.4949 24.7279 45.2064 24.6949 45.363 25.2141Z" fill="#FDF2F2"/>
<path fill-rule="evenodd" clip-rule="evenodd" d="M33.363 20.5246L33.7669 19.8076C33.874 19.5521 33.9977 19.2554 34.113 19.0246C34.69 17.8543 36.4537 15.9092 37.4427 15.4889C38.918 14.8543 41.3246 15.2746 39.668 18.7362C39.396 19.3131 39.2147 19.89 38.6213 20.0384C38.5059 19.2059 38.6955 19.2801 39.4537 18.0603C40.0224 17.1455 39.9729 16.651 39.5032 15.868C37.8054 15.6372 36.9894 16.346 35.8603 17.4422C35.201 18.0768 34.0141 19.2966 33.8575 20.6647C38.0279 19.6675 39.1158 22.0823 40.418 17.879C40.5828 17.3515 40.6405 17.1125 40.5993 16.4614C40.5499 15.7856 40.5746 15.6455 40.0883 15.3735C38.1268 14.2609 36.7916 15.1922 35.5141 16.1812C34.4592 17.0054 33.4042 19.379 33.363 20.5246Z" fill="#FEF3F3"/>
<path fill-rule="evenodd" clip-rule="evenodd" d="M28.6653 28.173C28.8219 28.0577 28.8219 28.1483 28.995 27.7527L29.6543 25.9148C28.3603 26.0219 28.3603 27.3324 28.6653 28.173Z" fill="#EFEFEF"/>
<path fill-rule="evenodd" clip-rule="evenodd" d="M30.0169 37.8158C29.9015 37.3542 28.4839 36.9421 27.9399 36.9916C28.0141 37.8405 29.135 37.9229 30.0169 37.8158Z" fill="#FAF1F1"/>
<path d="M15.2781 60C15.218 60 15.1689 59.9809 15.1306 59.9427C15.0924 59.9045 15.0733 59.8553 15.0733 59.7953V54.4718C15.0733 54.4117 15.0924 54.3625 15.1306 54.3243C15.1689 54.2861 15.218 54.267 15.2781 54.267H19.1028C19.1628 54.267 19.212 54.2861 19.2502 54.3243C19.2884 54.3625 19.3075 54.4117 19.3075 54.4718V55.2416C19.3075 55.3017 19.2884 55.3508 19.2502 55.389C19.212 55.4272 19.1628 55.4464 19.1028 55.4464H16.4902V56.552H18.9226C18.9827 56.552 19.0318 56.5738 19.07 56.6175C19.1082 56.6558 19.1273 56.7049 19.1273 56.765V57.4775C19.1273 57.5321 19.1082 57.5812 19.07 57.6249C19.0318 57.6631 18.9827 57.6822 18.9226 57.6822H16.4902V58.8206H19.1683C19.2284 58.8206 19.2775 58.8397 19.3157 58.878C19.3539 58.9162 19.373 58.9653 19.373 59.0254V59.7953C19.373 59.8553 19.3539 59.9045 19.3157 59.9427C19.2775 59.9809 19.2284 60 19.1683 60H15.2781ZM21.7788 60.0819C21.5167 60.0819 21.2792 60.041 21.0663 59.959C20.8588 59.8717 20.6786 59.7461 20.5257 59.5823C20.3783 59.4131 20.2636 59.211 20.1817 58.9763C20.0998 58.736 20.0534 58.463 20.0425 58.1573C20.0371 58.0481 20.0343 57.9525 20.0343 57.8706C20.0343 57.7832 20.0371 57.6877 20.0425 57.5839C20.0534 57.2891 20.0998 57.0243 20.1817 56.7895C20.2636 56.5547 20.3783 56.3527 20.5257 56.1835C20.6731 56.0142 20.8533 55.8859 21.0663 55.7985C21.2792 55.7057 21.5167 55.6593 21.7788 55.6593C22.0518 55.6593 22.2866 55.7057 22.4831 55.7985C22.6797 55.8859 22.8462 56.0006 22.9827 56.1425V54.3898C22.9827 54.3298 23.0018 54.2807 23.0401 54.2424C23.0783 54.2042 23.1274 54.1851 23.1875 54.1851H24.1867C24.2413 54.1851 24.2877 54.2042 24.3259 54.2424C24.3696 54.2807 24.3914 54.3298 24.3914 54.3898V59.7953C24.3914 59.8553 24.3696 59.9045 24.3259 59.9427C24.2877 59.9809 24.2413 60 24.1867 60H23.2612C23.2011 60 23.152 59.9809 23.1138 59.9427C23.0755 59.9045 23.0564 59.8553 23.0564 59.7953V59.5332C22.9254 59.6915 22.7561 59.8226 22.5487 59.9263C22.3412 60.03 22.0846 60.0819 21.7788 60.0819ZM22.2211 58.9844C22.4067 58.9844 22.5514 58.9462 22.6551 58.8698C22.7643 58.7879 22.8435 58.6841 22.8926 58.5586C22.9472 58.433 22.9773 58.2965 22.9827 58.1491C22.9882 58.0399 22.9909 57.9361 22.9909 57.8378C22.9909 57.7396 22.9882 57.6386 22.9827 57.5348C22.9773 57.3983 22.9472 57.2727 22.8926 57.1581C22.838 57.038 22.7561 56.9424 22.6469 56.8714C22.5377 56.795 22.3958 56.7568 22.2211 56.7568C22.0409 56.7568 21.8962 56.795 21.787 56.8714C21.6832 56.9479 21.6095 57.0516 21.5659 57.1826C21.5222 57.3137 21.4949 57.4584 21.484 57.6167C21.4676 57.786 21.4676 57.9552 21.484 58.1245C21.4949 58.2828 21.5222 58.4275 21.5659 58.5586C21.6095 58.6896 21.6832 58.7933 21.787 58.8698C21.8962 58.9462 22.0409 58.9844 22.2211 58.9844ZM25.5614 60C25.5014 60 25.4522 59.9809 25.414 59.9427C25.3758 59.9045 25.3567 59.8553 25.3567 59.7953V55.9459C25.3567 55.8859 25.3758 55.8367 25.414 55.7985C25.4522 55.7603 25.5014 55.7412 25.5614 55.7412H26.5278C26.5824 55.7412 26.6289 55.7603 26.6671 55.7985C26.7108 55.8367 26.7326 55.8859 26.7326 55.9459V59.7953C26.7326 59.8553 26.7108 59.9045 26.6671 59.9427C26.6289 59.9809 26.5824 60 26.5278 60H25.5614ZM25.5532 55.127C25.4932 55.127 25.444 55.1078 25.4058 55.0696C25.3676 55.0314 25.3485 54.9823 25.3485 54.9222V54.1933C25.3485 54.1332 25.3676 54.0841 25.4058 54.0459C25.444 54.0022 25.4932 53.9804 25.5532 53.9804H26.5278C26.5879 53.9804 26.637 54.0022 26.6753 54.0459C26.7189 54.0841 26.7408 54.1332 26.7408 54.1933V54.9222C26.7408 54.9823 26.7189 55.0314 26.6753 55.0696C26.637 55.1078 26.5879 55.127 26.5278 55.127H25.5532ZM29.8706 60C29.5212 60 29.2182 59.9454 28.9616 59.8362C28.7104 59.7215 28.5166 59.5468 28.3801 59.312C28.2436 59.0718 28.1753 58.7633 28.1753 58.3866V56.8141H27.5365C27.4764 56.8141 27.4246 56.795 27.3809 56.7568C27.3427 56.7185 27.3236 56.6694 27.3236 56.6093V55.9459C27.3236 55.8859 27.3427 55.8367 27.3809 55.7985C27.4246 55.7603 27.4764 55.7412 27.5365 55.7412H28.1753V54.3898C28.1753 54.3298 28.1944 54.2807 28.2326 54.2424C28.2763 54.2042 28.3255 54.1851 28.3801 54.1851H29.3301C29.3902 54.1851 29.4393 54.2042 29.4775 54.2424C29.5157 54.2807 29.5349 54.3298 29.5349 54.3898V55.7412H30.5586C30.6187 55.7412 30.6678 55.7603 30.706 55.7985C30.7442 55.8367 30.7634 55.8859 30.7634 55.9459V56.6093C30.7634 56.6694 30.7442 56.7185 30.706 56.7568C30.6678 56.795 30.6187 56.8141 30.5586 56.8141H29.5349V58.2719C29.5349 58.4576 29.5703 58.605 29.6413 58.7142C29.7123 58.8234 29.8324 58.878 30.0017 58.878H30.6323C30.6924 58.878 30.7415 58.8971 30.7797 58.9353C30.818 58.9735 30.8371 59.0227 30.8371 59.0827V59.7953C30.8371 59.8553 30.818 59.9045 30.7797 59.9427C30.7415 59.9809 30.6924 60 30.6323 60H29.8706ZM33.5299 60.0819C33.0713 60.0819 32.6836 60.0082 32.3669 59.8608C32.0557 59.7133 31.8155 59.5031 31.6462 59.2301C31.4824 58.9517 31.3896 58.6214 31.3678 58.2392C31.3623 58.13 31.3596 58.0071 31.3596 57.8706C31.3596 57.7286 31.3623 57.6058 31.3678 57.5021C31.3896 57.1144 31.4879 56.7841 31.6626 56.5111C31.8373 56.2381 32.0803 56.0279 32.3915 55.8804C32.7082 55.733 33.0877 55.6593 33.5299 55.6593C33.9776 55.6593 34.3571 55.733 34.6683 55.8804C34.985 56.0279 35.2307 56.2381 35.4054 56.5111C35.5801 56.7841 35.6784 57.1144 35.7003 57.5021C35.7057 57.6058 35.7085 57.7286 35.7085 57.8706C35.7085 58.0071 35.7057 58.13 35.7003 58.2392C35.6784 58.6214 35.5829 58.9517 35.4136 59.2301C35.2498 59.5031 35.0096 59.7133 34.6929 59.8608C34.3817 60.0082 33.994 60.0819 33.5299 60.0819ZM33.5299 59.0827C33.7756 59.0827 33.9531 59.009 34.0623 58.8616C34.1769 58.7142 34.2424 58.493 34.2588 58.1982C34.2643 58.1163 34.267 58.0071 34.267 57.8706C34.267 57.7341 34.2643 57.6249 34.2588 57.543C34.2424 57.2536 34.1769 57.0352 34.0623 56.8878C33.9531 56.7349 33.7756 56.6585 33.5299 56.6585C33.2897 56.6585 33.1122 56.7349 32.9976 56.8878C32.8829 57.0352 32.8201 57.2536 32.8092 57.543C32.8037 57.6249 32.801 57.7341 32.801 57.8706C32.801 58.0071 32.8037 58.1163 32.8092 58.1982C32.8201 58.493 32.8829 58.7142 32.9976 58.8616C33.1122 59.009 33.2897 59.0827 33.5299 59.0827ZM36.7187 60C36.6586 60 36.6095 59.9809 36.5713 59.9427C36.5331 59.9045 36.514 59.8553 36.514 59.7953V55.9459C36.514 55.8914 36.5331 55.8449 36.5713 55.8067C36.6095 55.763 36.6586 55.7412 36.7187 55.7412H37.6606C37.7206 55.7412 37.7698 55.763 37.808 55.8067C37.8462 55.8449 37.8653 55.8914 37.8653 55.9459V56.2736C38.0127 56.1043 38.1874 55.9732 38.3895 55.8804C38.5969 55.7876 38.829 55.7412 39.0856 55.7412H39.446C39.5006 55.7412 39.547 55.7603 39.5852 55.7985C39.6289 55.8367 39.6507 55.8859 39.6507 55.9459V56.7895C39.6507 56.8441 39.6289 56.8933 39.5852 56.9369C39.547 56.9752 39.5006 56.9943 39.446 56.9943H38.6515C38.4277 56.9943 38.253 57.0571 38.1274 57.1826C38.0073 57.3028 37.9472 57.4747 37.9472 57.6986V59.7953C37.9472 59.8553 37.9254 59.9045 37.8817 59.9427C37.8435 59.9809 37.7943 60 37.7343 60H36.7187ZM42.1585 60.0819C41.7544 60.0819 41.3968 60.0082 41.0856 59.8608C40.7744 59.7133 40.5259 59.5004 40.3403 59.2219C40.1601 58.938 40.0618 58.5995 40.0454 58.2064C40.04 58.119 40.0373 58.0098 40.0373 57.8788C40.0373 57.7423 40.04 57.6304 40.0454 57.543C40.0618 57.1444 40.1601 56.8059 40.3403 56.5274C40.5205 56.2435 40.7662 56.0279 41.0774 55.8804C41.3941 55.733 41.7544 55.6593 42.1585 55.6593C42.5352 55.6593 42.8573 55.7139 43.1249 55.8231C43.3924 55.9268 43.6108 56.0579 43.7801 56.2162C43.9493 56.3746 44.0749 56.5384 44.1568 56.7076C44.2442 56.8714 44.2906 57.0161 44.2961 57.1417C44.3015 57.1963 44.2824 57.2454 44.2387 57.2891C44.195 57.3273 44.1459 57.3464 44.0913 57.3464H43.0512C42.9911 57.3464 42.9447 57.3328 42.9119 57.3055C42.8792 57.2782 42.8492 57.2372 42.8219 57.1826C42.7563 57.0134 42.6717 56.8933 42.568 56.8223C42.4697 56.7513 42.3414 56.7158 42.183 56.7158C41.9646 56.7158 41.7954 56.7868 41.6753 56.9287C41.5606 57.0707 41.4978 57.2891 41.4869 57.5839C41.4814 57.8023 41.4814 57.9962 41.4869 58.1654C41.4978 58.4657 41.5606 58.6841 41.6753 58.8206C41.7954 58.9571 41.9646 59.0254 42.183 59.0254C42.3523 59.0254 42.4861 58.9899 42.5843 58.9189C42.6826 58.8479 42.7618 58.7278 42.8219 58.5586C42.8492 58.504 42.8792 58.463 42.9119 58.4357C42.9447 58.4084 42.9911 58.3948 43.0512 58.3948H44.0913C44.1459 58.3948 44.195 58.4166 44.2387 58.4603C44.2824 58.4985 44.3015 58.5449 44.2961 58.5995C44.2906 58.6923 44.2633 58.8015 44.2142 58.9271C44.165 59.0472 44.0886 59.1755 43.9848 59.312C43.8811 59.4485 43.7446 59.5768 43.5753 59.697C43.4115 59.8116 43.2122 59.9045 42.9775 59.9754C42.7427 60.0464 42.4697 60.0819 42.1585 60.0819ZM47.0466 60.0819C46.588 60.0819 46.2003 60.0082 45.8836 59.8608C45.5724 59.7133 45.3322 59.5031 45.1629 59.2301C44.9991 58.9517 44.9063 58.6214 44.8845 58.2392C44.879 58.13 44.8763 58.0071 44.8763 57.8706C44.8763 57.7286 44.879 57.6058 44.8845 57.5021C44.9063 57.1144 45.0046 56.7841 45.1793 56.5111C45.354 56.2381 45.597 56.0279 45.9082 55.8804C46.2249 55.733 46.6044 55.6593 47.0466 55.6593C47.4943 55.6593 47.8738 55.733 48.185 55.8804C48.5017 56.0279 48.7474 56.2381 48.9221 56.5111C49.0968 56.7841 49.1951 57.1144 49.217 57.5021C49.2224 57.6058 49.2252 57.7286 49.2252 57.8706C49.2252 58.0071 49.2224 58.13 49.217 58.2392C49.1951 58.6214 49.0996 58.9517 48.9303 59.2301C48.7665 59.5031 48.5263 59.7133 48.2096 59.8608C47.8984 60.0082 47.5107 60.0819 47.0466 60.0819ZM47.0466 59.0827C47.2923 59.0827 47.4698 59.009 47.579 58.8616C47.6936 58.7142 47.7591 58.493 47.7755 58.1982C47.781 58.1163 47.7837 58.0071 47.7837 57.8706C47.7837 57.7341 47.781 57.6249 47.7755 57.543C47.7591 57.2536 47.6936 57.0352 47.579 56.8878C47.4698 56.7349 47.2923 56.6585 47.0466 56.6585C46.8064 56.6585 46.6289 56.7349 46.5143 56.8878C46.3996 57.0352 46.3368 57.2536 46.3259 57.543C46.3204 57.6249 46.3177 57.7341 46.3177 57.8706C46.3177 58.0071 46.3204 58.1163 46.3259 58.1982C46.3368 58.493 46.3996 58.7142 46.5143 58.8616C46.6289 59.009 46.8064 59.0827 47.0466 59.0827ZM50.2354 60C50.1753 60 50.1262 59.9809 50.088 59.9427C50.0498 59.9045 50.0306 59.8553 50.0306 59.7953V55.9459C50.0306 55.8859 50.0498 55.8367 50.088 55.7985C50.1262 55.7603 50.1753 55.7412 50.2354 55.7412H51.1772C51.2373 55.7412 51.2864 55.7603 51.3247 55.7985C51.3629 55.8367 51.382 55.8859 51.382 55.9459V56.2572C51.524 56.0879 51.7096 55.946 51.9389 55.8313C52.1682 55.7166 52.4385 55.6593 52.7497 55.6593C53.0664 55.6593 53.3449 55.7303 53.5851 55.8722C53.8308 56.0142 54.0219 56.2244 54.1584 56.5029C54.3004 56.7759 54.3713 57.1117 54.3713 57.5102V59.7953C54.3713 59.8553 54.3495 59.9045 54.3058 59.9427C54.2676 59.9809 54.2212 60 54.1666 60H53.1347C53.0801 60 53.0309 59.9809 52.9872 59.9427C52.949 59.9045 52.9299 59.8553 52.9299 59.7953V57.5594C52.9299 57.3028 52.8671 57.1062 52.7415 56.9697C52.6214 56.8277 52.4412 56.7568 52.201 56.7568C51.9771 56.7568 51.797 56.8277 51.6605 56.9697C51.5294 57.1062 51.4639 57.3028 51.4639 57.5594V59.7953C51.4639 59.8553 51.4421 59.9045 51.3984 59.9427C51.3602 59.9809 51.3137 60 51.2591 60H50.2354ZM55.9253 60C55.8707 60 55.8216 59.9809 55.7779 59.9427C55.7397 59.9045 55.7206 59.8553 55.7206 59.7953V56.8141H55.0981C55.0381 56.8141 54.9889 56.795 54.9507 56.7568C54.9125 56.7185 54.8934 56.6694 54.8934 56.6093V55.9459C54.8934 55.8859 54.9125 55.8367 54.9507 55.7985C54.9889 55.7603 55.0381 55.7412 55.0981 55.7412H55.7206V55.4791C55.7206 55.1078 55.7916 54.8103 55.9335 54.5864C56.0809 54.3571 56.2884 54.1933 56.556 54.095C56.8235 53.9913 57.1429 53.9394 57.5142 53.9394H59.6108C59.6654 53.9394 59.7118 53.9585 59.7501 53.9967C59.7937 54.035 59.8156 54.0841 59.8156 54.1442V54.8075C59.8156 54.8676 59.7937 54.9167 59.7501 54.955C59.7118 54.9932 59.6654 55.0123 59.6108 55.0123H57.5797C57.3941 55.0123 57.263 55.056 57.1866 55.1433C57.1156 55.2307 57.0801 55.3563 57.0801 55.5201V55.7412H59.6108C59.6654 55.7412 59.7118 55.7603 59.7501 55.7985C59.7937 55.8367 59.8156 55.8859 59.8156 55.9459V59.7953C59.8156 59.8553 59.7937 59.9045 59.7501 59.9427C59.7118 59.9809 59.6654 60 59.6108 60H58.6608C58.6007 60 58.5516 59.9809 58.5134 59.9427C58.4752 59.9045 58.456 59.8553 58.456 59.7953V56.8141H57.0801V59.7953C57.0801 59.8553 57.061 59.9045 57.0228 59.9427C56.9846 59.9809 56.9354 60 56.8754 60H55.9253ZM62.8605 61.8018C62.4401 61.8018 62.0906 61.7472 61.8122 61.638C61.5392 61.5288 61.3208 61.3978 61.157 61.2449C60.9986 61.092 60.884 60.9391 60.813 60.7862C60.742 60.6388 60.7038 60.5214 60.6983 60.4341C60.6929 60.374 60.712 60.3249 60.7556 60.2866C60.7993 60.2484 60.8512 60.2293 60.9113 60.2293H61.9514C62.0005 60.2293 62.0415 60.2402 62.0742 60.2621C62.1125 60.2894 62.1425 60.3331 62.1643 60.3931C62.1916 60.4532 62.2271 60.516 62.2708 60.5815C62.3199 60.647 62.3855 60.6989 62.4674 60.7371C62.5547 60.7808 62.6721 60.8026 62.8195 60.8026C62.9833 60.8026 63.1198 60.7753 63.229 60.7207C63.3382 60.6716 63.4201 60.587 63.4747 60.4668C63.5293 60.3522 63.5566 60.1966 63.5566 60V59.4513C63.431 59.5878 63.27 59.6997 63.0734 59.7871C62.8769 59.869 62.6393 59.9099 62.3609 59.9099C62.0824 59.9099 61.8367 59.869 61.6238 59.7871C61.4108 59.7052 61.2334 59.5823 61.0914 59.4185C60.9495 59.2547 60.8375 59.0554 60.7556 58.8206C60.6792 58.5859 60.6328 58.3156 60.6164 58.0098C60.611 57.8679 60.611 57.7259 60.6164 57.5839C60.6328 57.2891 60.6792 57.0243 60.7556 56.7895C60.8321 56.5547 60.9413 56.3527 61.0832 56.1835C61.2307 56.0142 61.4108 55.8859 61.6238 55.7985C61.8367 55.7057 62.0824 55.6593 62.3609 55.6593C62.6557 55.6593 62.9069 55.7166 63.1144 55.8313C63.3273 55.9405 63.502 56.0797 63.6385 56.249V55.9459C63.6385 55.8914 63.6576 55.8449 63.6959 55.8067C63.7341 55.763 63.7832 55.7412 63.8433 55.7412H64.7851C64.8452 55.7412 64.8943 55.763 64.9325 55.8067C64.9762 55.8449 64.9981 55.8914 64.9981 55.9459V59.8853C64.9981 60.3003 64.9134 60.6497 64.7442 60.9337C64.5749 61.2176 64.3319 61.4332 64.0153 61.5807C63.6986 61.7281 63.3137 61.8018 62.8605 61.8018ZM62.8031 58.8452C62.9779 58.8452 63.1198 58.807 63.229 58.7306C63.3382 58.6541 63.4174 58.5558 63.4665 58.4357C63.5211 58.3156 63.5512 58.1873 63.5566 58.0508C63.5621 57.9907 63.5648 57.9061 63.5648 57.7969C63.5648 57.6877 63.5621 57.6058 63.5566 57.5512C63.5512 57.4092 63.5211 57.2782 63.4665 57.1581C63.4174 57.038 63.3382 56.9424 63.229 56.8714C63.1198 56.795 62.9779 56.7568 62.8031 56.7568C62.623 56.7568 62.4783 56.795 62.3691 56.8714C62.2653 56.9479 62.1889 57.0516 62.1398 57.1826C62.0961 57.3137 62.0688 57.4584 62.0579 57.6167C62.0524 57.7368 62.0524 57.8597 62.0579 57.9853C62.0688 58.1436 62.0961 58.2883 62.1398 58.4193C62.1889 58.5504 62.2653 58.6541 62.3691 58.7306C62.4783 58.807 62.623 58.8452 62.8031 58.8452Z" fill="#E5E5E5"/>
</g>
<defs>
<filter id="filter0_d_602_752" x="0" y="0" width="80" height="80" filterUnits="userSpaceOnUse" color-interpolation-filters="sRGB">
<feFlood flood-opacity="0" result="BackgroundImageFix"/>
<feColorMatrix in="SourceAlpha" type="matrix" values="0 0 0 0 0 0 0 0 0 0 0 0 0 0 0 0 0 0 127 0" result="hardAlpha"/>
<feOffset dy="2"/>
<feGaussianBlur stdDeviation="4"/>
<feColorMatrix type="matrix" values="0 0 0 0 0 0 0 0 0 0 0 0 0 0 0 0 0 0 0.75 0"/>
<feBlend mode="normal" in2="BackgroundImageFix" result="effect1_dropShadow_602_752"/>
<feBlend mode="normal" in="SourceGraphic" in2="effect1_dropShadow_602_752" result="shape"/>
</filter>
</defs>
</svg>
