<svg width="80" height="80" viewBox="0 0 80 80" fill="none" xmlns="http://www.w3.org/2000/svg">
<g filter="url(#filter0_d_602_927)">
<rect x="8" y="6" width="64" height="64" rx="5" fill="#212529"/>
<path d="M34.728 17.4827L25.2107 27L34.728 36.5173L38.3414 32.9293L32.4107 27L38.3387 21.0707L34.728 17.4827Z" fill="#FFCA28"/>
<path d="M43.3907 25.1466C44.9378 25.1466 46.192 23.4764 46.192 21.416C46.192 19.3556 44.9378 17.6853 43.3907 17.6853C41.8436 17.6853 40.5894 19.3556 40.5894 21.416C40.5894 23.4764 41.8436 25.1466 43.3907 25.1466Z" stroke="#FFCA28" stroke-width="1.455"/>
<path d="M51.4881 16.5359L53.4481 17.4559L43.0707 37.4626L41.1107 36.5426L51.4881 16.5359Z" fill="#FFCA28"/>
<path d="M51.1334 36.328C52.6805 36.328 53.9347 34.6578 53.9347 32.5974C53.9347 30.537 52.6805 28.8667 51.1334 28.8667C49.5862 28.8667 48.332 30.537 48.332 32.5974C48.332 34.6578 49.5862 36.328 51.1334 36.328Z" stroke="#FFCA28" stroke-width="1.455"/>
<path d="M32.9728 61C32.8977 61 32.8363 60.9761 32.7885 60.9283C32.7407 60.8805 32.7168 60.8191 32.7168 60.744V54.088C32.7168 54.0129 32.7407 53.9515 32.7885 53.9037C32.8363 53.8559 32.8977 53.832 32.9728 53.832H37.7549C37.83 53.832 37.8914 53.8559 37.9392 53.9037C37.987 53.9515 38.0109 54.0129 38.0109 54.088V55.0506C38.0109 55.1257 37.987 55.1871 37.9392 55.2349C37.8914 55.2827 37.83 55.3066 37.7549 55.3066H34.4883V56.689H37.5296C37.6047 56.689 37.6661 56.7163 37.7139 56.7709C37.7617 56.8187 37.7856 56.8801 37.7856 56.9552V57.8461C37.7856 57.9143 37.7617 57.9758 37.7139 58.0304C37.6661 58.0782 37.6047 58.1021 37.5296 58.1021H34.4883V59.5254H37.8368C37.9119 59.5254 37.9733 59.5493 38.0211 59.5971C38.0689 59.6449 38.0928 59.7063 38.0928 59.7814V60.744C38.0928 60.8191 38.0689 60.8805 38.0211 60.9283C37.9733 60.9761 37.9119 61 37.8368 61H32.9728ZM38.6133 62.9456C38.5382 62.9456 38.4767 62.9217 38.429 62.8739C38.3812 62.8261 38.3573 62.7647 38.3573 62.6896V61.8602C38.3573 61.7851 38.3812 61.7236 38.429 61.6758C38.4767 61.6281 38.5382 61.6042 38.6133 61.6042H38.9922C39.1628 61.6042 39.2925 61.57 39.3813 61.5018C39.47 61.4403 39.5315 61.3516 39.5656 61.2355C39.5997 61.1263 39.6168 61 39.6168 60.8566V55.9312C39.6168 55.8561 39.6407 55.7947 39.6885 55.7469C39.7431 55.6991 39.8045 55.6752 39.8728 55.6752H41.1426C41.2177 55.6752 41.2791 55.6991 41.3269 55.7469C41.3747 55.7947 41.3986 55.8561 41.3986 55.9312V60.8976C41.3986 61.3413 41.3098 61.7134 41.1323 62.0138C40.9617 62.321 40.7125 62.5531 40.3848 62.7101C40.0571 62.8671 39.6578 62.9456 39.1867 62.9456H38.6133ZM39.8626 54.9072C39.7943 54.9072 39.7329 54.8833 39.6782 54.8355C39.6305 54.7877 39.6066 54.7263 39.6066 54.6512V53.7398C39.6066 53.6647 39.6305 53.6033 39.6782 53.5555C39.7329 53.5009 39.7943 53.4736 39.8626 53.4736H41.1528C41.2211 53.4736 41.2791 53.5009 41.3269 53.5555C41.3815 53.6033 41.4088 53.6647 41.4088 53.7398V54.6512C41.4088 54.7263 41.3815 54.7877 41.3269 54.8355C41.2791 54.8833 41.2211 54.9072 41.1528 54.9072H39.8626ZM44.9855 61.1024C44.5418 61.1024 44.1629 61.0546 43.8489 60.959C43.5417 60.8566 43.2891 60.7338 43.0911 60.5904C42.9 60.447 42.7566 60.3003 42.661 60.1501C42.5655 59.9931 42.5143 59.8599 42.5074 59.7507C42.5006 59.6756 42.5245 59.6142 42.5791 59.5664C42.6337 59.5118 42.6918 59.4845 42.7532 59.4845H43.9206C43.941 59.4845 43.9581 59.4879 43.9718 59.4947C43.9854 59.5015 44.0059 59.5152 44.0332 59.5357C44.1219 59.5835 44.2107 59.6449 44.2994 59.72C44.3882 59.7883 44.4906 59.8497 44.6066 59.9043C44.7227 59.9589 44.8626 59.9862 45.0265 59.9862C45.2176 59.9862 45.3781 59.9487 45.5078 59.8736C45.6375 59.7985 45.7023 59.6859 45.7023 59.5357C45.7023 59.4265 45.6716 59.3377 45.6102 59.2694C45.5487 59.1943 45.4224 59.1227 45.2313 59.0544C45.047 58.9861 44.7671 58.9179 44.3916 58.8496C44.0366 58.7677 43.726 58.6619 43.4598 58.5322C43.1935 58.3956 42.9887 58.2215 42.8454 58.0099C42.702 57.7915 42.6303 57.5286 42.6303 57.2214C42.6303 56.9484 42.7191 56.6855 42.8966 56.433C43.0741 56.1804 43.3335 55.9756 43.6748 55.8186C44.0161 55.6547 44.436 55.5728 44.9343 55.5728C45.3303 55.5728 45.6716 55.6206 45.9583 55.7162C46.2519 55.8049 46.4976 55.921 46.6956 56.0643C46.9004 56.2077 47.054 56.3545 47.1564 56.5046C47.2588 56.6548 47.3134 56.7914 47.3202 56.9142C47.3271 56.9825 47.3066 57.0439 47.2588 57.0986C47.211 57.1463 47.1564 57.1702 47.095 57.1702H46.03C46.0027 57.1702 45.9754 57.1668 45.9481 57.16C45.9208 57.1463 45.8969 57.1327 45.8764 57.119C45.7945 57.0781 45.7126 57.0235 45.6306 56.9552C45.5487 56.8869 45.4531 56.8255 45.3439 56.7709C45.2347 56.7163 45.0982 56.689 44.9343 56.689C44.75 56.689 44.6066 56.7299 44.5042 56.8118C44.4018 56.8938 44.3506 56.9996 44.3506 57.1293C44.3506 57.218 44.3779 57.2999 44.4326 57.375C44.494 57.4501 44.6135 57.5184 44.791 57.5798C44.9753 57.6413 45.2586 57.7095 45.6409 57.7846C46.1119 57.8597 46.4874 57.9826 46.7673 58.1533C47.0472 58.3171 47.2451 58.5117 47.3612 58.737C47.4773 58.9554 47.5353 59.1875 47.5353 59.4333C47.5353 59.761 47.4363 60.0511 47.2383 60.3037C47.0472 60.5563 46.7605 60.7542 46.3782 60.8976C45.9959 61.0341 45.5317 61.1024 44.9855 61.1024Z" fill="#E5E5E5"/>
</g>
<defs>
<filter id="filter0_d_602_927" x="0" y="0" width="80" height="80" filterUnits="userSpaceOnUse" color-interpolation-filters="sRGB">
<feFlood flood-opacity="0" result="BackgroundImageFix"/>
<feColorMatrix in="SourceAlpha" type="matrix" values="0 0 0 0 0 0 0 0 0 0 0 0 0 0 0 0 0 0 127 0" result="hardAlpha"/>
<feOffset dy="2"/>
<feGaussianBlur stdDeviation="4"/>
<feColorMatrix type="matrix" values="0 0 0 0 0 0 0 0 0 0 0 0 0 0 0 0 0 0 0.75 0"/>
<feBlend mode="normal" in2="BackgroundImageFix" result="effect1_dropShadow_602_927"/>
<feBlend mode="normal" in="SourceGraphic" in2="effect1_dropShadow_602_927" result="shape"/>
</filter>
</defs>
</svg>
