<svg width="80" height="80" viewBox="0 0 80 80" fill="none" xmlns="http://www.w3.org/2000/svg">
<g filter="url(#filter0_d_602_477)">
<rect x="8" y="6" width="64" height="64" rx="5" fill="#212529"/>
<path d="M33.7456 23.0085L39.8169 19.5033C39.9688 19.4156 40.1561 19.4156 40.308 19.5033L46.3794 23.0085C46.5312 23.0963 46.625 23.2584 46.625 23.4339V30.4443C46.625 30.6197 46.5312 30.7819 46.3794 30.8698L40.308 34.375C40.1561 34.4628 39.9688 34.4628 39.8169 34.375L33.7456 30.8698C33.5936 30.7821 33.5 30.6198 33.5 30.4443V23.4339C33.5001 23.2584 33.5938 23.0963 33.7456 23.0085Z" fill="#8080F2"/>
<path d="M55.8021 26.3646L48.5404 13.7312C48.2766 13.2744 47.7893 12.9375 47.2619 12.9375H32.7383C32.2107 12.9375 31.7233 13.2744 31.4595 13.7312L24.1978 26.3367C23.9341 26.7936 23.9341 27.3703 24.1978 27.8272L31.4595 40.357C31.7233 40.8138 32.2107 41.0473 32.7383 41.0473H47.2618C47.7892 41.0473 48.2766 40.8208 48.5403 40.3639L55.802 27.8136C56.066 27.357 56.066 26.8214 55.8021 26.3646ZM49.789 32.4396C49.789 32.6253 49.6772 32.7971 49.5162 32.8901L40.2664 38.2268C40.1055 38.3196 39.904 38.3196 39.7431 38.2268L30.4861 32.8901C30.3252 32.7971 30.2127 32.6254 30.2127 32.4396V21.766C30.2127 21.5801 30.3236 21.4085 30.4846 21.3155L39.734 15.9788C39.8949 15.8858 40.0962 15.8858 40.2571 15.9788L49.5147 21.3155C49.6757 21.4085 49.789 21.5801 49.789 21.766V32.4396Z" fill="#4B32C3"/>
<path d="M25.4728 61C25.3977 61 25.3363 60.9761 25.2885 60.9283C25.2407 60.8805 25.2168 60.8191 25.2168 60.744V54.088C25.2168 54.0129 25.2407 53.9515 25.2885 53.9037C25.3363 53.8559 25.3977 53.832 25.4728 53.832H30.2549C30.33 53.832 30.3914 53.8559 30.4392 53.9037C30.487 53.9515 30.5109 54.0129 30.5109 54.088V55.0506C30.5109 55.1257 30.487 55.1871 30.4392 55.2349C30.3914 55.2827 30.33 55.3066 30.2549 55.3066H26.9883V56.689H30.0296C30.1047 56.689 30.1661 56.7163 30.2139 56.7709C30.2617 56.8187 30.2856 56.8801 30.2856 56.9552V57.8461C30.2856 57.9143 30.2617 57.9758 30.2139 58.0304C30.1661 58.0782 30.1047 58.1021 30.0296 58.1021H26.9883V59.5254H30.3368C30.4119 59.5254 30.4733 59.5493 30.5211 59.5971C30.5689 59.6449 30.5928 59.7063 30.5928 59.7814V60.744C30.5928 60.8191 30.5689 60.8805 30.5211 60.9283C30.4733 60.9761 30.4119 61 30.3368 61H25.4728ZM33.8355 61.1024C33.3918 61.1024 33.0129 61.0546 32.6989 60.959C32.3917 60.8566 32.1391 60.7338 31.9411 60.5904C31.75 60.447 31.6066 60.3003 31.511 60.1501C31.4155 59.9931 31.3643 59.8599 31.3574 59.7507C31.3506 59.6756 31.3745 59.6142 31.4291 59.5664C31.4837 59.5118 31.5418 59.4845 31.6032 59.4845H32.7706C32.791 59.4845 32.8081 59.4879 32.8218 59.4947C32.8354 59.5015 32.8559 59.5152 32.8832 59.5357C32.9719 59.5835 33.0607 59.6449 33.1494 59.72C33.2382 59.7883 33.3406 59.8497 33.4566 59.9043C33.5727 59.9589 33.7126 59.9862 33.8765 59.9862C34.0676 59.9862 34.2281 59.9487 34.3578 59.8736C34.4875 59.7985 34.5523 59.6859 34.5523 59.5357C34.5523 59.4265 34.5216 59.3377 34.4602 59.2694C34.3987 59.1943 34.2724 59.1227 34.0813 59.0544C33.897 58.9861 33.6171 58.9179 33.2416 58.8496C32.8866 58.7677 32.576 58.6619 32.3098 58.5322C32.0435 58.3956 31.8387 58.2215 31.6954 58.0099C31.552 57.7915 31.4803 57.5286 31.4803 57.2214C31.4803 56.9484 31.5691 56.6855 31.7466 56.433C31.9241 56.1804 32.1835 55.9756 32.5248 55.8186C32.8661 55.6547 33.286 55.5728 33.7843 55.5728C34.1803 55.5728 34.5216 55.6206 34.8083 55.7162C35.1019 55.8049 35.3476 55.921 35.5456 56.0643C35.7504 56.2077 35.904 56.3545 36.0064 56.5046C36.1088 56.6548 36.1634 56.7914 36.1702 56.9142C36.1771 56.9825 36.1566 57.0439 36.1088 57.0986C36.061 57.1463 36.0064 57.1702 35.945 57.1702H34.88C34.8527 57.1702 34.8254 57.1668 34.7981 57.16C34.7708 57.1463 34.7469 57.1327 34.7264 57.119C34.6445 57.0781 34.5626 57.0235 34.4806 56.9552C34.3987 56.8869 34.3031 56.8255 34.1939 56.7709C34.0847 56.7163 33.9482 56.689 33.7843 56.689C33.6 56.689 33.4566 56.7299 33.3542 56.8118C33.2518 56.8938 33.2006 56.9996 33.2006 57.1293C33.2006 57.218 33.2279 57.2999 33.2826 57.375C33.344 57.4501 33.4635 57.5184 33.641 57.5798C33.8253 57.6413 34.1086 57.7095 34.4909 57.7846C34.9619 57.8597 35.3374 57.9826 35.6173 58.1533C35.8972 58.3171 36.0951 58.5117 36.2112 58.737C36.3273 58.9554 36.3853 59.1875 36.3853 59.4333C36.3853 59.761 36.2863 60.0511 36.0883 60.3037C35.8972 60.5563 35.6105 60.7542 35.2282 60.8976C34.8459 61.0341 34.3817 61.1024 33.8355 61.1024ZM37.5602 61C37.4851 61 37.4236 60.9761 37.3758 60.9283C37.3281 60.8805 37.3042 60.8191 37.3042 60.744V53.9856C37.3042 53.9105 37.3281 53.8491 37.3758 53.8013C37.4236 53.7535 37.4851 53.7296 37.5602 53.7296H38.7685C38.8436 53.7296 38.905 53.7535 38.9528 53.8013C39.0006 53.8491 39.0245 53.9105 39.0245 53.9856V60.744C39.0245 60.8191 39.0006 60.8805 38.9528 60.9283C38.905 60.9761 38.8436 61 38.7685 61H37.5602ZM40.8402 61C40.7651 61 40.7036 60.9761 40.6558 60.9283C40.6081 60.8805 40.5842 60.8191 40.5842 60.744V55.9312C40.5842 55.8561 40.6081 55.7947 40.6558 55.7469C40.7036 55.6991 40.7651 55.6752 40.8402 55.6752H42.0485C42.1167 55.6752 42.1748 55.6991 42.2226 55.7469C42.2772 55.7947 42.3045 55.8561 42.3045 55.9312V60.744C42.3045 60.8191 42.2772 60.8805 42.2226 60.9283C42.1748 60.9761 42.1167 61 42.0485 61H40.8402ZM40.8299 54.9072C40.7548 54.9072 40.6934 54.8833 40.6456 54.8355C40.5978 54.7877 40.5739 54.7263 40.5739 54.6512V53.7398C40.5739 53.6647 40.5978 53.6033 40.6456 53.5555C40.6934 53.5009 40.7548 53.4736 40.8299 53.4736H42.0485C42.1236 53.4736 42.185 53.5009 42.2328 53.5555C42.2874 53.6033 42.3147 53.6647 42.3147 53.7398V54.6512C42.3147 54.7263 42.2874 54.7877 42.2328 54.8355C42.185 54.8833 42.1236 54.9072 42.0485 54.9072H40.8299ZM44.0802 61C44.0051 61 43.9436 60.9761 43.8958 60.9283C43.8481 60.8805 43.8242 60.8191 43.8242 60.744V55.9312C43.8242 55.8561 43.8481 55.7947 43.8958 55.7469C43.9436 55.6991 44.0051 55.6752 44.0802 55.6752H45.2578C45.3329 55.6752 45.3943 55.6991 45.4421 55.7469C45.4899 55.7947 45.5138 55.8561 45.5138 55.9312V56.3203C45.6913 56.1087 45.9234 55.9312 46.2101 55.7878C46.4968 55.6445 46.8347 55.5728 47.2238 55.5728C47.6198 55.5728 47.9679 55.6615 48.2683 55.839C48.5755 56.0165 48.8145 56.2794 48.9851 56.6275C49.1626 56.9689 49.2514 57.3887 49.2514 57.887V60.744C49.2514 60.8191 49.2241 60.8805 49.1694 60.9283C49.1217 60.9761 49.0636 61 48.9954 61H47.7051C47.6369 61 47.5754 60.9761 47.5208 60.9283C47.473 60.8805 47.4491 60.8191 47.4491 60.744V57.9485C47.4491 57.6276 47.3706 57.3819 47.2136 57.2112C47.0634 57.0337 46.8381 56.945 46.5378 56.945C46.2579 56.945 46.0326 57.0337 45.8619 57.2112C45.6981 57.3819 45.6162 57.6276 45.6162 57.9485V60.744C45.6162 60.8191 45.5889 60.8805 45.5342 60.9283C45.4865 60.9761 45.4284 61 45.3602 61H44.0802ZM53.068 61C52.6311 61 52.2522 60.9317 51.9314 60.7952C51.6173 60.6518 51.375 60.4334 51.2043 60.1398C51.0337 59.8395 50.9483 59.4538 50.9483 58.9827V57.0166H50.1496C50.0745 57.0166 50.0097 56.9927 49.955 56.945C49.9073 56.8972 49.8834 56.8357 49.8834 56.7606V55.9312C49.8834 55.8561 49.9073 55.7947 49.955 55.7469C50.0097 55.6991 50.0745 55.6752 50.1496 55.6752H50.9483V53.9856C50.9483 53.9105 50.9722 53.8491 51.02 53.8013C51.0746 53.7535 51.1361 53.7296 51.2043 53.7296H52.3922C52.4673 53.7296 52.5287 53.7535 52.5765 53.8013C52.6243 53.8491 52.6482 53.9105 52.6482 53.9856V55.6752H53.9282C54.0033 55.6752 54.0647 55.6991 54.1125 55.7469C54.1603 55.7947 54.1842 55.8561 54.1842 55.9312V56.7606C54.1842 56.8357 54.1603 56.8972 54.1125 56.945C54.0647 56.9927 54.0033 57.0166 53.9282 57.0166H52.6482V58.8394C52.6482 59.0715 52.6925 59.2558 52.7813 59.3923C52.87 59.5289 53.0202 59.5971 53.2318 59.5971H54.0203C54.0954 59.5971 54.1569 59.621 54.2046 59.6688C54.2524 59.7166 54.2763 59.778 54.2763 59.8531V60.744C54.2763 60.8191 54.2524 60.8805 54.2046 60.9283C54.1569 60.9761 54.0954 61 54.0203 61H53.068Z" fill="#E5E5E5"/>
</g>
<defs>
<filter id="filter0_d_602_477" x="0" y="0" width="80" height="80" filterUnits="userSpaceOnUse" color-interpolation-filters="sRGB">
<feFlood flood-opacity="0" result="BackgroundImageFix"/>
<feColorMatrix in="SourceAlpha" type="matrix" values="0 0 0 0 0 0 0 0 0 0 0 0 0 0 0 0 0 0 127 0" result="hardAlpha"/>
<feOffset dy="2"/>
<feGaussianBlur stdDeviation="4"/>
<feColorMatrix type="matrix" values="0 0 0 0 0 0 0 0 0 0 0 0 0 0 0 0 0 0 0.75 0"/>
<feBlend mode="normal" in2="BackgroundImageFix" result="effect1_dropShadow_602_477"/>
<feBlend mode="normal" in="SourceGraphic" in2="effect1_dropShadow_602_477" result="shape"/>
</filter>
</defs>
</svg>
