<svg width="80" height="80" viewBox="0 0 80 80" fill="none" xmlns="http://www.w3.org/2000/svg">
<g filter="url(#filter0_d_602_1931)">
<rect x="8" y="6" width="64" height="64" rx="5" fill="#212529"/>
<path d="M48.292 29.547C50.26 29.678 52.021 28.334 52.407 26.402C51.932 25.667 51.12 25.225 50.246 25.225C47.974 25.173 46.755 27.876 48.293 29.548L48.292 29.547ZM39.115 18.697L44.474 15.593L42.766 14.63L35.375 18.911L35.964 19.239L37.083 19.868L39.115 18.692V18.697ZM45.161 15.307C45.25 15.334 45.322 15.407 45.349 15.495L47.833 23.088C47.88 23.219 47.828 23.36 47.708 23.432C45.74 24.588 44.792 26.921 45.391 29.125C46.047 31.516 48.328 33.078 50.792 32.828C50.927 32.817 51.057 32.901 51.099 33.031L53.662 40.834C53.703 40.965 53.651 41.105 53.537 41.178L45.678 45.949C45.641 45.97 45.594 45.985 45.547 45.985C45.479 46.001 45.407 45.985 45.344 45.944L42.579 44.147C42.531 44.116 42.495 44.07 42.47 44.018L37.074 31.122L28.855 35.997C28.839 36.008 28.818 36.018 28.803 36.029C28.719 36.065 28.62 36.054 28.542 36.008L26.683 34.915C26.547 34.842 26.495 34.67 26.568 34.534L34.521 18.785C34.546 18.728 34.598 18.681 34.656 18.654L42.615 14.045C42.703 13.993 42.812 13.988 42.907 14.04L45.161 15.307ZM36.839 20.407L34.907 19.318L27.214 34.547L28.61 35.37L35.241 26.355C35.304 26.266 35.408 26.219 35.512 26.235C35.616 26.246 35.704 26.312 35.747 26.412L42.975 43.708L44.908 44.959L36.845 20.407H36.839ZM50.245 30.964C47.989 30.964 46.458 28.672 47.322 26.588C48.182 24.505 50.885 23.969 52.478 25.563C53.073 26.156 53.406 26.959 53.406 27.798C53.411 29.547 51.994 30.964 50.245 30.964Z" fill="white"/>
<path d="M30.6725 60C30.6125 60 30.5633 59.9809 30.5251 59.9427C30.4869 59.9045 30.4678 59.8553 30.4678 59.7953V54.4718C30.4678 54.4117 30.4869 54.3625 30.5251 54.3243C30.5633 54.2861 30.6125 54.267 30.6725 54.267H34.4972C34.5573 54.267 34.6064 54.2861 34.6447 54.3243C34.6829 54.3625 34.702 54.4117 34.702 54.4718V55.2416C34.702 55.3017 34.6829 55.3508 34.6447 55.389C34.6064 55.4272 34.5573 55.4464 34.4972 55.4464H31.8846V56.552H34.3171C34.3771 56.552 34.4263 56.5738 34.4645 56.6175C34.5027 56.6558 34.5218 56.7049 34.5218 56.765V57.4775C34.5218 57.5321 34.5027 57.5812 34.4645 57.6249C34.4263 57.6631 34.3771 57.6822 34.3171 57.6822H31.8846V58.8206H34.5628C34.6228 58.8206 34.672 58.8397 34.7102 58.878C34.7484 58.9162 34.7675 58.9653 34.7675 59.0254V59.7953C34.7675 59.8553 34.7484 59.9045 34.7102 59.9427C34.672 59.9809 34.6228 60 34.5628 60H30.6725ZM35.4364 60C35.3873 60 35.3436 59.9836 35.3054 59.9509C35.2726 59.9126 35.2562 59.869 35.2562 59.8198C35.2562 59.8034 35.259 59.7843 35.2644 59.7625C35.2699 59.7352 35.2808 59.7106 35.2972 59.6888L36.6649 57.8133L35.42 56.0524C35.4037 56.0306 35.39 56.0087 35.3791 55.9869C35.3736 55.9651 35.3709 55.9432 35.3709 55.9214C35.3709 55.8722 35.39 55.8313 35.4282 55.7985C35.4664 55.7603 35.5101 55.7412 35.5593 55.7412H36.5584C36.6294 55.7412 36.6813 55.7576 36.7141 55.7903C36.7523 55.8231 36.7796 55.8531 36.796 55.8804L37.5576 56.9369L38.3111 55.8886C38.3329 55.8613 38.3602 55.8313 38.393 55.7985C38.4312 55.7603 38.4858 55.7412 38.5568 55.7412H39.515C39.5642 55.7412 39.6051 55.7603 39.6379 55.7985C39.6761 55.8313 39.6952 55.8722 39.6952 55.9214C39.6952 55.9432 39.6925 55.9651 39.687 55.9869C39.6816 56.0087 39.6706 56.0306 39.6543 56.0524L38.3766 57.8133L39.7607 59.6888C39.7826 59.7106 39.7962 59.7325 39.8017 59.7543C39.8071 59.7761 39.8099 59.798 39.8099 59.8198C39.8099 59.869 39.7908 59.9126 39.7525 59.9509C39.7198 59.9836 39.6761 60 39.6215 60H38.5814C38.5159 60 38.4667 59.9863 38.434 59.959C38.4012 59.9263 38.3739 59.8963 38.3521 59.869L37.5249 58.7469L36.6895 59.869C36.6676 59.8908 36.6403 59.9181 36.6076 59.9509C36.5748 59.9836 36.523 60 36.452 60H35.4364ZM40.628 61.5561C40.5679 61.5561 40.5188 61.537 40.4806 61.4988C40.4423 61.4606 40.4232 61.4114 40.4232 61.3513V55.9459C40.4232 55.8859 40.4423 55.8367 40.4806 55.7985C40.5188 55.7603 40.5679 55.7412 40.628 55.7412H41.5534C41.608 55.7412 41.6545 55.7603 41.6927 55.7985C41.7364 55.8367 41.7582 55.8859 41.7582 55.9459V56.249C41.8838 56.0797 42.0503 55.9405 42.2578 55.8313C42.4653 55.7166 42.7219 55.6593 43.0276 55.6593C43.3006 55.6593 43.5409 55.703 43.7484 55.7903C43.9558 55.8722 44.1333 55.9951 44.2807 56.1589C44.4281 56.3227 44.5428 56.522 44.6247 56.7568C44.7121 56.9915 44.7612 57.2618 44.7721 57.5676C44.7776 57.6768 44.7803 57.7778 44.7803 57.8706C44.7803 57.9634 44.7776 58.0644 44.7721 58.1736C44.7612 58.4685 44.7148 58.7333 44.6329 58.9681C44.551 59.2028 44.4363 59.4021 44.2889 59.5659C44.1415 59.7297 43.9613 59.858 43.7484 59.9509C43.5409 60.0382 43.3006 60.0819 43.0276 60.0819C42.7601 60.0819 42.5253 60.0355 42.3233 59.9427C42.1267 59.8444 41.9629 59.7079 41.8319 59.5332V61.3513C41.8319 61.4114 41.8128 61.4606 41.7746 61.4988C41.7364 61.537 41.6872 61.5561 41.6272 61.5561H40.628ZM42.5854 58.9844C42.771 58.9844 42.9157 58.9462 43.0195 58.8698C43.1232 58.7933 43.1969 58.6896 43.2406 58.5586C43.2897 58.4275 43.3198 58.2828 43.3307 58.1245C43.3416 57.9552 43.3416 57.786 43.3307 57.6167C43.3198 57.4584 43.2897 57.3137 43.2406 57.1826C43.1969 57.0516 43.1232 56.9479 43.0195 56.8714C42.9157 56.795 42.771 56.7568 42.5854 56.7568C42.4052 56.7568 42.2605 56.7977 42.1513 56.8796C42.0421 56.9561 41.9629 57.0571 41.9138 57.1826C41.8647 57.3082 41.8374 57.4447 41.8319 57.5921C41.8264 57.6959 41.8237 57.7969 41.8237 57.8952C41.8237 57.9935 41.8264 58.0972 41.8319 58.2064C41.8374 58.3429 41.8674 58.4712 41.922 58.5913C41.9766 58.706 42.0585 58.8015 42.1677 58.878C42.2769 58.9489 42.4161 58.9844 42.5854 58.9844ZM47.6047 60.0819C47.1461 60.0819 46.7584 60.0082 46.4417 59.8608C46.1305 59.7133 45.8903 59.5031 45.721 59.2301C45.5572 58.9517 45.4644 58.6214 45.4425 58.2392C45.4371 58.13 45.4344 58.0071 45.4344 57.8706C45.4344 57.7286 45.4371 57.6058 45.4425 57.5021C45.4644 57.1144 45.5627 56.7841 45.7374 56.5111C45.9121 56.2381 46.1551 56.0279 46.4663 55.8804C46.783 55.733 47.1624 55.6593 47.6047 55.6593C48.0524 55.6593 48.4319 55.733 48.7431 55.8804C49.0598 56.0279 49.3055 56.2381 49.4802 56.5111C49.6549 56.7841 49.7532 57.1144 49.7751 57.5021C49.7805 57.6058 49.7832 57.7286 49.7832 57.8706C49.7832 58.0071 49.7805 58.13 49.7751 58.2392C49.7532 58.6214 49.6577 58.9517 49.4884 59.2301C49.3246 59.5031 49.0844 59.7133 48.7677 59.8608C48.4565 60.0082 48.0688 60.0819 47.6047 60.0819ZM47.6047 59.0827C47.8504 59.0827 48.0279 59.009 48.1371 58.8616C48.2517 58.7142 48.3172 58.493 48.3336 58.1982C48.3391 58.1163 48.3418 58.0071 48.3418 57.8706C48.3418 57.7341 48.3391 57.6249 48.3336 57.543C48.3172 57.2536 48.2517 57.0352 48.1371 56.8878C48.0279 56.7349 47.8504 56.6585 47.6047 56.6585C47.3645 56.6585 47.187 56.7349 47.0724 56.8878C46.9577 57.0352 46.8949 57.2536 46.884 57.543C46.8785 57.6249 46.8758 57.7341 46.8758 57.8706C46.8758 58.0071 46.8785 58.1163 46.884 58.1982C46.8949 58.493 46.9577 58.7142 47.0724 58.8616C47.187 59.009 47.3645 59.0827 47.6047 59.0827Z" fill="#E5E5E5"/>
</g>
<defs>
<filter id="filter0_d_602_1931" x="0" y="0" width="80" height="80" filterUnits="userSpaceOnUse" color-interpolation-filters="sRGB">
<feFlood flood-opacity="0" result="BackgroundImageFix"/>
<feColorMatrix in="SourceAlpha" type="matrix" values="0 0 0 0 0 0 0 0 0 0 0 0 0 0 0 0 0 0 127 0" result="hardAlpha"/>
<feOffset dy="2"/>
<feGaussianBlur stdDeviation="4"/>
<feColorMatrix type="matrix" values="0 0 0 0 0 0 0 0 0 0 0 0 0 0 0 0 0 0 0.75 0"/>
<feBlend mode="normal" in2="BackgroundImageFix" result="effect1_dropShadow_602_1931"/>
<feBlend mode="normal" in="SourceGraphic" in2="effect1_dropShadow_602_1931" result="shape"/>
</filter>
</defs>
</svg>
