<svg width="80" height="80" viewBox="0 0 80 80" fill="none" xmlns="http://www.w3.org/2000/svg">
<g filter="url(#filter0_d_602_1861)">
<rect x="8" y="6" width="64" height="64" rx="5" fill="#212529"/>
<path d="M24.2083 29.5706V26.0092H28.6547V25.801H24.2083V22.552H28.9359V22.3438H24V29.7788H28.9775V29.5706H24.2083ZM32.9867 24.4264L31.1435 26.8527L29.342 24.4264H29.0713L31.0185 27.0089L28.8838 29.7788H29.1337L31.1435 27.1651L33.1637 29.7788H33.424L31.2789 27.0089L33.2366 24.4264H32.9867ZM34.0488 31.6116V28.2793H34.0696C34.1946 28.7653 34.441 29.1558 34.809 29.4508C35.1769 29.7459 35.6455 29.8934 36.2148 29.8934C36.5827 29.8934 36.909 29.8187 37.1936 29.6695C37.4783 29.5202 37.716 29.3172 37.9069 29.0603C38.0978 28.8035 38.2436 28.5049 38.3443 28.1648C38.445 27.8246 38.4953 27.4671 38.4953 27.0922C38.4953 26.6896 38.4432 26.3182 38.3391 25.978C38.2349 25.6378 38.084 25.3428 37.8861 25.0929C37.6883 24.8429 37.4487 24.6486 37.1676 24.5097C36.8864 24.3709 36.5688 24.3014 36.2148 24.3014C35.944 24.3014 35.6924 24.3414 35.4598 24.4212C35.2272 24.501 35.0207 24.6138 34.8402 24.7596C34.6597 24.9054 34.5035 25.0772 34.3716 25.2751C34.2397 25.4729 34.1391 25.6899 34.0696 25.9259H34.0488V24.4264H33.8405V31.6116H34.0488ZM36.2148 29.6955C35.5622 29.6955 35.0381 29.4716 34.6424 29.0239C34.2467 28.5761 34.0488 27.9322 34.0488 27.0922C34.0488 26.7451 34.0974 26.4153 34.1946 26.1029C34.2918 25.7905 34.4324 25.5163 34.6163 25.2803C34.8003 25.0443 35.0277 24.8568 35.2984 24.718C35.5692 24.5791 35.8746 24.5097 36.2148 24.5097C36.5619 24.5097 36.8656 24.5791 37.1259 24.718C37.3863 24.8568 37.6015 25.046 37.7716 25.2855C37.9416 25.525 38.0701 25.7992 38.1568 26.1081C38.2436 26.4171 38.287 26.7451 38.287 27.0922C38.287 27.4046 38.2471 27.7153 38.1673 28.0242C38.0874 28.3331 37.9642 28.6108 37.7976 28.8573C37.631 29.1037 37.4175 29.305 37.1572 29.4612C36.8968 29.6174 36.5827 29.6955 36.2148 29.6955ZM39.6407 29.7788V26.7486C39.6407 26.457 39.6824 26.1724 39.7657 25.8947C39.849 25.617 39.9774 25.3723 40.151 25.1605C40.3245 24.9488 40.545 24.7822 40.8122 24.6607C41.0795 24.5392 41.3971 24.4889 41.7651 24.5097V24.3014C41.4457 24.2945 41.1663 24.3292 40.9268 24.4056C40.6873 24.4819 40.4807 24.5861 40.3072 24.718C40.1336 24.8499 39.9948 25.0043 39.8907 25.1814C39.7865 25.3584 39.7102 25.5476 39.6616 25.7489H39.6407V24.4264H39.4325V29.7788H39.6407ZM42.0254 27.1443H46.5031C46.517 26.7763 46.4805 26.4223 46.3938 26.0821C46.307 25.7419 46.1681 25.44 45.9772 25.1762C45.7863 24.9124 45.5399 24.7006 45.2379 24.541C44.9359 24.3813 44.5766 24.3014 44.1601 24.3014C43.8616 24.3014 43.57 24.3639 43.2854 24.4889C43.0008 24.6138 42.7508 24.7961 42.5356 25.0356C42.3204 25.2751 42.1469 25.5684 42.015 25.9155C41.8831 26.2626 41.8171 26.6583 41.8171 27.1026C41.8171 27.4983 41.8622 27.868 41.9525 28.2116C42.0427 28.5553 42.1816 28.8538 42.369 29.1072C42.5565 29.3606 42.7977 29.5567 43.0927 29.6955C43.3878 29.8344 43.7436 29.9003 44.1601 29.8934C44.771 29.8934 45.2847 29.7216 45.7013 29.3779C46.1178 29.0343 46.3642 28.5501 46.4406 27.9253H46.2323C46.1421 28.5154 45.9113 28.9579 45.5399 29.253C45.1685 29.548 44.7016 29.6955 44.1393 29.6955C43.7575 29.6955 43.4346 29.6296 43.1708 29.4977C42.907 29.3658 42.6918 29.1853 42.5252 28.9562C42.3586 28.7271 42.2354 28.4581 42.1555 28.1492C42.0757 27.8402 42.0323 27.5053 42.0254 27.1443ZM46.2948 26.936H42.0254C42.0462 26.5611 42.1156 26.2244 42.2336 25.9259C42.3517 25.6274 42.5061 25.3723 42.697 25.1605C42.8879 24.9488 43.1101 24.7874 43.3635 24.6763C43.6169 24.5652 43.8894 24.5097 44.1809 24.5097C44.528 24.5097 44.8335 24.5739 45.0973 24.7024C45.3611 24.8308 45.5815 25.0061 45.7585 25.2282C45.9356 25.4504 46.0692 25.709 46.1595 26.004C46.2497 26.2991 46.2948 26.6097 46.2948 26.936ZM50.8246 26.0092H51.0329C51.0329 25.4122 50.8593 24.9783 50.5122 24.7076C50.1651 24.4368 49.693 24.3014 49.096 24.3014C48.7628 24.3014 48.4816 24.3431 48.2525 24.4264C48.0234 24.5097 47.836 24.6173 47.6902 24.7492C47.5444 24.8811 47.4403 25.0269 47.3778 25.1866C47.3153 25.3462 47.2841 25.499 47.2841 25.6448C47.2841 25.9363 47.3362 26.1689 47.4403 26.3424C47.5444 26.516 47.7076 26.6514 47.9297 26.7486C48.0824 26.818 48.256 26.8805 48.4504 26.936C48.6448 26.9915 48.8704 27.0506 49.1272 27.113C49.3563 27.1686 49.5819 27.2241 49.8041 27.2796C50.0263 27.3352 50.2224 27.4098 50.3925 27.5035C50.5625 27.5972 50.7014 27.717 50.809 27.8628C50.9166 28.0086 50.9704 28.1995 50.9704 28.4355C50.9704 28.6646 50.9166 28.859 50.809 29.0187C50.7014 29.1783 50.5643 29.3085 50.3977 29.4092C50.231 29.5098 50.0453 29.5827 49.8405 29.6278C49.6358 29.673 49.4362 29.6955 49.2418 29.6955C48.61 29.6955 48.1258 29.5549 47.7891 29.2738C47.4524 28.9926 47.2841 28.5501 47.2841 27.9461H47.0758C47.0758 28.6195 47.2581 29.1124 47.6225 29.4248C47.987 29.7372 48.5267 29.8934 49.2418 29.8934C49.4709 29.8934 49.7017 29.8673 49.9343 29.8153C50.1668 29.7632 50.3751 29.6782 50.5591 29.5602C50.743 29.4421 50.8923 29.2894 51.0068 29.102C51.1214 28.9145 51.1787 28.6854 51.1787 28.4147C51.1787 28.1578 51.1283 27.9496 51.0277 27.7899C50.927 27.6302 50.7951 27.4983 50.632 27.3942C50.4688 27.2901 50.2848 27.2085 50.0801 27.1495C49.8753 27.0905 49.6687 27.0332 49.4605 26.9777C49.1689 26.9013 48.9138 26.8353 48.6951 26.7798C48.4764 26.7243 48.2733 26.6583 48.0859 26.582C47.9054 26.5056 47.7614 26.3963 47.6538 26.2539C47.5462 26.1116 47.4924 25.9086 47.4924 25.6448C47.4924 25.5962 47.5062 25.5094 47.534 25.3844C47.5618 25.2595 47.6277 25.1328 47.7319 25.0043C47.836 24.8759 47.9957 24.7614 48.2109 24.6607C48.4261 24.56 48.7211 24.5097 49.096 24.5097C49.3529 24.5097 49.5872 24.5375 49.7989 24.593C50.0106 24.6486 50.1929 24.7371 50.3456 24.8586C50.4983 24.98 50.6163 25.1345 50.6996 25.3219C50.7829 25.5094 50.8246 25.7385 50.8246 26.0092ZM55.6459 26.0092H55.8542C55.8542 25.4122 55.6807 24.9783 55.3335 24.7076C54.9864 24.4368 54.5144 24.3014 53.9173 24.3014C53.5841 24.3014 53.303 24.3431 53.0739 24.4264C52.8448 24.5097 52.6573 24.6173 52.5116 24.7492C52.3658 24.8811 52.2616 25.0269 52.1992 25.1866C52.1367 25.3462 52.1054 25.499 52.1054 25.6448C52.1054 25.9363 52.1575 26.1689 52.2616 26.3424C52.3658 26.516 52.5289 26.6514 52.7511 26.7486C52.9038 26.818 53.0773 26.8805 53.2717 26.936C53.4661 26.9915 53.6917 27.0506 53.9486 27.113C54.1777 27.1686 54.4033 27.2241 54.6254 27.2796C54.8476 27.3352 55.0437 27.4098 55.2138 27.5035C55.3839 27.5972 55.5227 27.717 55.6303 27.8628C55.7379 28.0086 55.7917 28.1995 55.7917 28.4355C55.7917 28.6646 55.7379 28.859 55.6303 29.0187C55.5227 29.1783 55.3856 29.3085 55.219 29.4092C55.0524 29.5098 54.8667 29.5827 54.6619 29.6278C54.4571 29.673 54.2575 29.6955 54.0631 29.6955C53.4314 29.6955 52.9472 29.5549 52.6105 29.2738C52.2738 28.9926 52.1054 28.5501 52.1054 27.9461H51.8972C51.8972 28.6195 52.0794 29.1124 52.4439 29.4248C52.8083 29.7372 53.3481 29.8934 54.0631 29.8934C54.2922 29.8934 54.523 29.8673 54.7556 29.8153C54.9882 29.7632 55.1964 29.6782 55.3804 29.5602C55.5644 29.4421 55.7136 29.2894 55.8282 29.102C55.9427 28.9145 56 28.6854 56 28.4147C56 28.1578 55.9497 27.9496 55.849 27.7899C55.7483 27.6302 55.6164 27.4983 55.4533 27.3942C55.2902 27.2901 55.1062 27.2085 54.9014 27.1495C54.6966 27.0905 54.4901 27.0332 54.2818 26.9777C53.9902 26.9013 53.7351 26.8353 53.5164 26.7798C53.2978 26.7243 53.0947 26.6583 52.9073 26.582C52.7268 26.5056 52.5827 26.3963 52.4751 26.2539C52.3675 26.1116 52.3137 25.9086 52.3137 25.6448C52.3137 25.5962 52.3276 25.5094 52.3554 25.3844C52.3831 25.2595 52.4491 25.1328 52.5532 25.0043C52.6573 24.8759 52.817 24.7614 53.0322 24.6607C53.2474 24.56 53.5425 24.5097 53.9173 24.5097C54.1742 24.5097 54.4085 24.5375 54.6202 24.593C54.832 24.6486 55.0142 24.7371 55.1669 24.8586C55.3197 24.98 55.4377 25.1345 55.521 25.3219C55.6043 25.5094 55.6459 25.7385 55.6459 26.0092Z" fill="white"/>
<path d="M19.9728 61C19.8977 61 19.8363 60.9761 19.7885 60.9283C19.7407 60.8805 19.7168 60.8191 19.7168 60.744V54.088C19.7168 54.0129 19.7407 53.9515 19.7885 53.9037C19.8363 53.8559 19.8977 53.832 19.9728 53.832H24.7549C24.83 53.832 24.8914 53.8559 24.9392 53.9037C24.987 53.9515 25.0109 54.0129 25.0109 54.088V55.0506C25.0109 55.1257 24.987 55.1871 24.9392 55.2349C24.8914 55.2827 24.83 55.3066 24.7549 55.3066H21.4883V56.689H24.5296C24.6047 56.689 24.6661 56.7163 24.7139 56.7709C24.7617 56.8187 24.7856 56.8801 24.7856 56.9552V57.8461C24.7856 57.9143 24.7617 57.9758 24.7139 58.0304C24.6661 58.0782 24.6047 58.1021 24.5296 58.1021H21.4883V59.5254H24.8368C24.9119 59.5254 24.9733 59.5493 25.0211 59.5971C25.0689 59.6449 25.0928 59.7063 25.0928 59.7814V60.744C25.0928 60.8191 25.0689 60.8805 25.0211 60.9283C24.9733 60.9761 24.9119 61 24.8368 61H19.9728ZM25.9291 61C25.8677 61 25.8131 60.9795 25.7653 60.9386C25.7243 60.8908 25.7038 60.8362 25.7038 60.7747C25.7038 60.7542 25.7073 60.7303 25.7141 60.703C25.7209 60.6689 25.7346 60.6382 25.755 60.6109L27.4651 58.2659L25.9086 56.0643C25.8882 56.037 25.8711 56.0097 25.8574 55.9824C25.8506 55.9551 25.8472 55.9278 25.8472 55.9005C25.8472 55.839 25.8711 55.7878 25.9189 55.7469C25.9667 55.6991 26.0213 55.6752 26.0827 55.6752H27.332C27.4207 55.6752 27.4856 55.6957 27.5266 55.7366C27.5743 55.7776 27.6085 55.8151 27.629 55.8493L28.5813 57.1702L29.5234 55.8595C29.5507 55.8254 29.5848 55.7878 29.6258 55.7469C29.6735 55.6991 29.7418 55.6752 29.8306 55.6752H31.0286C31.0901 55.6752 31.1413 55.6991 31.1822 55.7469C31.23 55.7878 31.2539 55.839 31.2539 55.9005C31.2539 55.9278 31.2505 55.9551 31.2437 55.9824C31.2369 56.0097 31.2232 56.037 31.2027 56.0643L29.6053 58.2659L31.3358 60.6109C31.3631 60.6382 31.3802 60.6655 31.387 60.6928C31.3939 60.7201 31.3973 60.7474 31.3973 60.7747C31.3973 60.8362 31.3734 60.8908 31.3256 60.9386C31.2846 60.9795 31.23 61 31.1618 61H29.8613C29.7794 61 29.7179 60.9829 29.677 60.9488C29.636 60.9078 29.6019 60.8703 29.5746 60.8362L28.5403 59.4333L27.4958 60.8362C27.4685 60.8635 27.4344 60.8976 27.3934 60.9386C27.3525 60.9795 27.2876 61 27.1989 61H25.9291ZM32.4202 62.9456C32.3451 62.9456 32.2836 62.9217 32.2358 62.8739C32.1881 62.8261 32.1642 62.7647 32.1642 62.6896V55.9312C32.1642 55.8561 32.1881 55.7947 32.2358 55.7469C32.2836 55.6991 32.3451 55.6752 32.4202 55.6752H33.5773C33.6455 55.6752 33.7036 55.6991 33.7514 55.7469C33.806 55.7947 33.8333 55.8561 33.8333 55.9312V56.3101C33.9903 56.0985 34.1985 55.9244 34.4579 55.7878C34.7173 55.6445 35.0382 55.5728 35.4205 55.5728C35.7618 55.5728 36.0622 55.6274 36.3216 55.7366C36.581 55.839 36.8029 55.9926 36.9872 56.1974C37.1715 56.4022 37.3149 56.6514 37.4173 56.945C37.5265 57.2385 37.5879 57.5764 37.6016 57.9587C37.6084 58.0953 37.6118 58.2215 37.6118 58.3376C37.6118 58.4537 37.6084 58.5799 37.6016 58.7165C37.5879 59.0851 37.5299 59.4162 37.4275 59.7098C37.3251 60.0033 37.1818 60.2525 36.9974 60.4573C36.8131 60.6621 36.5878 60.8225 36.3216 60.9386C36.0622 61.0478 35.7618 61.1024 35.4205 61.1024C35.086 61.1024 34.7924 61.0444 34.5398 60.9283C34.2941 60.8054 34.0893 60.6348 33.9254 60.4163V62.6896C33.9254 62.7647 33.9015 62.8261 33.8538 62.8739C33.806 62.9217 33.7445 62.9456 33.6694 62.9456H32.4202ZM34.8675 59.7302C35.0996 59.7302 35.2805 59.6825 35.4102 59.5869C35.5399 59.4913 35.6321 59.3616 35.6867 59.1978C35.7482 59.0339 35.7857 58.853 35.7994 58.655C35.813 58.4434 35.813 58.2318 35.7994 58.0202C35.7857 57.8222 35.7482 57.6413 35.6867 57.4774C35.6321 57.3136 35.5399 57.1839 35.4102 57.0883C35.2805 56.9927 35.0996 56.945 34.8675 56.945C34.6422 56.945 34.4613 56.9962 34.3248 57.0986C34.1883 57.1941 34.0893 57.3204 34.0278 57.4774C33.9664 57.6345 33.9323 57.8051 33.9254 57.9894C33.9186 58.1191 33.9152 58.2454 33.9152 58.3683C33.9152 58.4912 33.9186 58.6209 33.9254 58.7574C33.9323 58.9281 33.9698 59.0885 34.0381 59.2387C34.1063 59.3821 34.2087 59.5015 34.3453 59.5971C34.4818 59.6859 34.6559 59.7302 34.8675 59.7302ZM38.8802 61C38.8051 61 38.7436 60.9761 38.6958 60.9283C38.6481 60.8805 38.6242 60.8191 38.6242 60.744V55.9312C38.6242 55.8629 38.6481 55.8049 38.6958 55.7571C38.7436 55.7025 38.8051 55.6752 38.8802 55.6752H40.0578C40.1329 55.6752 40.1943 55.7025 40.2421 55.7571C40.2899 55.8049 40.3138 55.8629 40.3138 55.9312V56.3408C40.4981 56.1292 40.7165 55.9653 40.9691 55.8493C41.2285 55.7332 41.5187 55.6752 41.8395 55.6752H42.2901C42.3583 55.6752 42.4164 55.6991 42.4642 55.7469C42.5188 55.7947 42.5461 55.8561 42.5461 55.9312V56.9859C42.5461 57.0542 42.5188 57.1156 42.4642 57.1702C42.4164 57.218 42.3583 57.2419 42.2901 57.2419H41.2968C41.0169 57.2419 40.7985 57.3204 40.6414 57.4774C40.4913 57.6276 40.4162 57.8427 40.4162 58.1226V60.744C40.4162 60.8191 40.3889 60.8805 40.3342 60.9283C40.2865 60.9761 40.225 61 40.1499 61H38.8802ZM45.6918 61.1024C44.8862 61.1024 44.2445 60.8839 43.7666 60.447C43.2888 60.0101 43.0396 59.3616 43.0191 58.5014C43.0191 58.4537 43.0191 58.3922 43.0191 58.3171C43.0191 58.242 43.0191 58.184 43.0191 58.143C43.0396 57.6037 43.1591 57.1429 43.3775 56.7606C43.6028 56.3715 43.91 56.078 44.2991 55.88C44.6951 55.6752 45.1559 55.5728 45.6815 55.5728C46.2823 55.5728 46.7772 55.6923 47.1663 55.9312C47.5623 56.1701 47.8592 56.4944 48.0572 56.904C48.2552 57.3136 48.3542 57.7812 48.3542 58.3069V58.5526C48.3542 58.6277 48.3269 58.6892 48.2722 58.737C48.2245 58.7847 48.1664 58.8086 48.0982 58.8086H44.8214C44.8214 58.8155 44.8214 58.8257 44.8214 58.8394C44.8214 58.853 44.8214 58.8667 44.8214 58.8803C44.8282 59.0783 44.8623 59.2592 44.9238 59.423C44.9852 59.5869 45.0808 59.7166 45.2105 59.8122C45.3402 59.9077 45.4972 59.9555 45.6815 59.9555C45.8181 59.9555 45.9307 59.935 46.0194 59.8941C46.115 59.8463 46.1935 59.7951 46.255 59.7405C46.3164 59.679 46.3642 59.6278 46.3983 59.5869C46.4598 59.5186 46.5075 59.4777 46.5417 59.464C46.5826 59.4435 46.6441 59.4333 46.726 59.4333H47.9958C48.064 59.4333 48.1186 59.4538 48.1596 59.4947C48.2074 59.5289 48.2279 59.5801 48.221 59.6483C48.2142 59.7644 48.1562 59.9043 48.047 60.0682C47.9377 60.232 47.7773 60.3958 47.5657 60.5597C47.3609 60.7167 47.1015 60.8464 46.7874 60.9488C46.4734 61.0512 46.1082 61.1024 45.6918 61.1024ZM44.8214 57.7949H46.5519V57.7744C46.5519 57.5559 46.5178 57.3648 46.4495 57.201C46.3881 57.0371 46.2891 56.9108 46.1526 56.8221C46.0229 56.7333 45.8658 56.689 45.6815 56.689C45.4972 56.689 45.3402 56.7333 45.2105 56.8221C45.0876 56.9108 44.992 57.0371 44.9238 57.201C44.8555 57.3648 44.8214 57.5559 44.8214 57.7744V57.7949ZM51.5055 61.1024C51.0618 61.1024 50.6829 61.0546 50.3689 60.959C50.0617 60.8566 49.8091 60.7338 49.6111 60.5904C49.42 60.447 49.2766 60.3003 49.181 60.1501C49.0855 59.9931 49.0343 59.8599 49.0274 59.7507C49.0206 59.6756 49.0445 59.6142 49.0991 59.5664C49.1537 59.5118 49.2118 59.4845 49.2732 59.4845H50.4406C50.461 59.4845 50.4781 59.4879 50.4918 59.4947C50.5054 59.5015 50.5259 59.5152 50.5532 59.5357C50.6419 59.5835 50.7307 59.6449 50.8194 59.72C50.9082 59.7883 51.0106 59.8497 51.1266 59.9043C51.2427 59.9589 51.3826 59.9862 51.5465 59.9862C51.7376 59.9862 51.8981 59.9487 52.0278 59.8736C52.1575 59.7985 52.2223 59.6859 52.2223 59.5357C52.2223 59.4265 52.1916 59.3377 52.1302 59.2694C52.0687 59.1943 51.9424 59.1227 51.7513 59.0544C51.567 58.9861 51.2871 58.9179 50.9116 58.8496C50.5566 58.7677 50.246 58.6619 49.9798 58.5322C49.7135 58.3956 49.5087 58.2215 49.3654 58.0099C49.222 57.7915 49.1503 57.5286 49.1503 57.2214C49.1503 56.9484 49.2391 56.6855 49.4166 56.433C49.5941 56.1804 49.8535 55.9756 50.1948 55.8186C50.5361 55.6547 50.956 55.5728 51.4543 55.5728C51.8503 55.5728 52.1916 55.6206 52.4783 55.7162C52.7719 55.8049 53.0176 55.921 53.2156 56.0643C53.4204 56.2077 53.574 56.3545 53.6764 56.5046C53.7788 56.6548 53.8334 56.7914 53.8402 56.9142C53.8471 56.9825 53.8266 57.0439 53.7788 57.0986C53.731 57.1463 53.6764 57.1702 53.615 57.1702H52.55C52.5227 57.1702 52.4954 57.1668 52.4681 57.16C52.4408 57.1463 52.4169 57.1327 52.3964 57.119C52.3145 57.0781 52.2326 57.0235 52.1506 56.9552C52.0687 56.8869 51.9731 56.8255 51.8639 56.7709C51.7547 56.7163 51.6182 56.689 51.4543 56.689C51.27 56.689 51.1266 56.7299 51.0242 56.8118C50.9218 56.8938 50.8706 56.9996 50.8706 57.1293C50.8706 57.218 50.8979 57.2999 50.9526 57.375C51.014 57.4501 51.1335 57.5184 51.311 57.5798C51.4953 57.6413 51.7786 57.7095 52.1609 57.7846C52.6319 57.8597 53.0074 57.9826 53.2873 58.1533C53.5672 58.3171 53.7651 58.5117 53.8812 58.737C53.9973 58.9554 54.0553 59.1875 54.0553 59.4333C54.0553 59.761 53.9563 60.0511 53.7583 60.3037C53.5672 60.5563 53.2805 60.7542 52.8982 60.8976C52.5159 61.0341 52.0517 61.1024 51.5055 61.1024ZM57.1655 61.1024C56.7218 61.1024 56.3429 61.0546 56.0289 60.959C55.7217 60.8566 55.4691 60.7338 55.2711 60.5904C55.08 60.447 54.9366 60.3003 54.841 60.1501C54.7455 59.9931 54.6943 59.8599 54.6874 59.7507C54.6806 59.6756 54.7045 59.6142 54.7591 59.5664C54.8137 59.5118 54.8718 59.4845 54.9332 59.4845H56.1006C56.121 59.4845 56.1381 59.4879 56.1518 59.4947C56.1654 59.5015 56.1859 59.5152 56.2132 59.5357C56.3019 59.5835 56.3907 59.6449 56.4794 59.72C56.5682 59.7883 56.6706 59.8497 56.7866 59.9043C56.9027 59.9589 57.0426 59.9862 57.2065 59.9862C57.3976 59.9862 57.5581 59.9487 57.6878 59.8736C57.8175 59.7985 57.8823 59.6859 57.8823 59.5357C57.8823 59.4265 57.8516 59.3377 57.7902 59.2694C57.7287 59.1943 57.6024 59.1227 57.4113 59.0544C57.227 58.9861 56.9471 58.9179 56.5716 58.8496C56.2166 58.7677 55.906 58.6619 55.6398 58.5322C55.3735 58.3956 55.1687 58.2215 55.0254 58.0099C54.882 57.7915 54.8103 57.5286 54.8103 57.2214C54.8103 56.9484 54.8991 56.6855 55.0766 56.433C55.2541 56.1804 55.5135 55.9756 55.8548 55.8186C56.1961 55.6547 56.616 55.5728 57.1143 55.5728C57.5103 55.5728 57.8516 55.6206 58.1383 55.7162C58.4319 55.8049 58.6776 55.921 58.8756 56.0643C59.0804 56.2077 59.234 56.3545 59.3364 56.5046C59.4388 56.6548 59.4934 56.7914 59.5002 56.9142C59.5071 56.9825 59.4866 57.0439 59.4388 57.0986C59.391 57.1463 59.3364 57.1702 59.275 57.1702H58.21C58.1827 57.1702 58.1554 57.1668 58.1281 57.16C58.1008 57.1463 58.0769 57.1327 58.0564 57.119C57.9745 57.0781 57.8926 57.0235 57.8106 56.9552C57.7287 56.8869 57.6331 56.8255 57.5239 56.7709C57.4147 56.7163 57.2782 56.689 57.1143 56.689C56.93 56.689 56.7866 56.7299 56.6842 56.8118C56.5818 56.8938 56.5306 56.9996 56.5306 57.1293C56.5306 57.218 56.5579 57.2999 56.6126 57.375C56.674 57.4501 56.7935 57.5184 56.971 57.5798C57.1553 57.6413 57.4386 57.7095 57.8209 57.7846C58.2919 57.8597 58.6674 57.9826 58.9473 58.1533C59.2272 58.3171 59.4251 58.5117 59.5412 58.737C59.6573 58.9554 59.7153 59.1875 59.7153 59.4333C59.7153 59.761 59.6163 60.0511 59.4183 60.3037C59.2272 60.5563 58.9405 60.7542 58.5582 60.8976C58.1759 61.0341 57.7117 61.1024 57.1655 61.1024Z" fill="#E5E5E5"/>
</g>
<defs>
<filter id="filter0_d_602_1861" x="0" y="0" width="80" height="80" filterUnits="userSpaceOnUse" color-interpolation-filters="sRGB">
<feFlood flood-opacity="0" result="BackgroundImageFix"/>
<feColorMatrix in="SourceAlpha" type="matrix" values="0 0 0 0 0 0 0 0 0 0 0 0 0 0 0 0 0 0 127 0" result="hardAlpha"/>
<feOffset dy="2"/>
<feGaussianBlur stdDeviation="4"/>
<feColorMatrix type="matrix" values="0 0 0 0 0 0 0 0 0 0 0 0 0 0 0 0 0 0 0.75 0"/>
<feBlend mode="normal" in2="BackgroundImageFix" result="effect1_dropShadow_602_1861"/>
<feBlend mode="normal" in="SourceGraphic" in2="effect1_dropShadow_602_1861" result="shape"/>
</filter>
</defs>
</svg>
