<svg width="80" height="80" viewBox="0 0 80 80" fill="none" xmlns="http://www.w3.org/2000/svg">
<g filter="url(#filter0_d_602_1874)">
<rect x="8" y="6" width="64" height="64" rx="5" fill="#212529"/>
<path d="M54.9928 19.6017L56 16.993L55.9562 16.8314L45.9916 19.4568C47.0541 17.9199 46.6891 16.6875 46.6891 16.6875C46.6891 16.6875 43.507 18.7196 41.1005 18.6665C38.6941 18.6133 37.9183 17.971 34.2284 19.1482C30.5385 20.3243 29.4958 23.935 28.4261 24.7107C27.3563 25.4864 24 28.0128 24 28.0128L24.0073 28.0576L27.0331 27.0942C27.0331 27.0942 26.2031 27.8762 24.44 30.2524C24.44 30.2524 24.4098 30.2242 24.3576 30.1763L24.3608 30.193C24.3608 30.193 25.7777 32.3585 27.1686 31.9582C27.3083 31.9175 27.4658 31.8508 27.6378 31.7632C28.1977 32.0749 28.9286 32.3815 29.7356 32.4659C29.7356 32.4659 29.1893 31.831 28.7336 31.1084C28.8567 31.0292 28.9828 30.9468 29.1111 30.8634L29.0516 30.9051L30.2038 31.3284L30.0766 30.2451C30.0807 30.243 30.0839 30.2399 30.088 30.2378L31.2204 30.6538L31.0796 29.6685C31.2235 29.5934 31.3663 29.5225 31.5092 29.4568L32.6895 24.9922L37.5701 21.663L37.1822 22.639C36.1928 25.0725 34.3348 25.647 34.3348 25.647L33.559 25.941C32.9824 26.6229 32.7395 26.7908 32.5414 29.0794C33.0064 28.9626 33.4506 28.9345 33.8531 29.0429C35.9384 29.6049 36.6609 32.1177 36.0989 32.8131C35.9582 32.9873 35.6235 33.2844 35.2012 33.6337H34.3546L34.3431 34.3198C34.3139 34.3427 34.2847 34.3646 34.2566 34.3875H33.3953L33.3849 35.0569C33.3088 35.1153 33.2327 35.1716 33.1597 35.2269C32.3506 35.2436 31.3257 34.5377 31.3257 34.5377C31.3257 35.18 31.8605 36.1684 31.8605 36.1684C31.8605 36.1684 31.896 36.1517 31.9554 36.1225C31.9033 36.1611 31.8741 36.1819 31.8741 36.1819C31.8741 36.1819 34.0397 37.626 35.4035 37.0911C36.6161 36.6157 39.7555 34.1404 42.4653 32.9685L50.6658 30.8081L51.747 28.0065L45.4974 29.6529V27.1369L52.8303 25.2049L53.9116 22.4033L45.4995 24.62V22.103L54.9928 19.6017Z" fill="white"/>
<path d="M22.4728 61C22.3977 61 22.3363 60.9761 22.2885 60.9283C22.2407 60.8805 22.2168 60.8191 22.2168 60.744V54.088C22.2168 54.0129 22.2407 53.9515 22.2885 53.9037C22.3363 53.8559 22.3977 53.832 22.4728 53.832H27.173C27.2481 53.832 27.3095 53.8559 27.3573 53.9037C27.4119 53.9515 27.4392 54.0129 27.4392 54.088V55.1222C27.4392 55.1973 27.4119 55.2588 27.3573 55.3066C27.3095 55.3543 27.2481 55.3782 27.173 55.3782H24.019V56.8835H26.9682C27.0433 56.8835 27.1047 56.9108 27.1525 56.9654C27.2071 57.0132 27.2344 57.0747 27.2344 57.1498V58.1738C27.2344 58.242 27.2071 58.3035 27.1525 58.3581C27.1047 58.4059 27.0433 58.4298 26.9682 58.4298H24.019V60.744C24.019 60.8191 23.9951 60.8805 23.9474 60.9283C23.8996 60.9761 23.8381 61 23.763 61H22.4728ZM29.8116 61.1024C29.443 61.1024 29.1119 61.0341 28.8183 60.8976C28.5316 60.7542 28.3029 60.5631 28.1322 60.3242C27.9616 60.0852 27.8762 59.8156 27.8762 59.5152C27.8762 59.0305 28.0742 58.6482 28.4702 58.3683C28.8661 58.0816 29.3918 57.887 30.0471 57.7846L31.3271 57.5901V57.4467C31.3271 57.201 31.2759 57.0132 31.1735 56.8835C31.0711 56.7538 30.8834 56.689 30.6103 56.689C30.4192 56.689 30.2622 56.7265 30.1393 56.8016C30.0232 56.8767 29.9311 56.9791 29.8628 57.1088C29.8014 57.1975 29.716 57.2419 29.6068 57.2419H28.4599C28.3848 57.2419 28.3268 57.2214 28.2858 57.1805C28.2449 57.1327 28.2278 57.0781 28.2346 57.0166C28.2346 56.8938 28.279 56.7538 28.3678 56.5968C28.4633 56.433 28.6067 56.2725 28.7978 56.1155C28.989 55.9585 29.2347 55.8288 29.5351 55.7264C29.8355 55.624 30.1973 55.5728 30.6206 55.5728C31.0643 55.5728 31.4432 55.624 31.7572 55.7264C32.0712 55.8288 32.3238 55.9722 32.515 56.1565C32.7129 56.3408 32.8597 56.5593 32.9553 56.8118C33.0509 57.0576 33.0986 57.3307 33.0986 57.631V60.744C33.0986 60.8191 33.0713 60.8805 33.0167 60.9283C32.9689 60.9761 32.9109 61 32.8426 61H31.6548C31.5797 61 31.5183 60.9761 31.4705 60.9283C31.4227 60.8805 31.3988 60.8191 31.3988 60.744V60.3856C31.3101 60.5153 31.1906 60.6348 31.0404 60.744C30.8902 60.8532 30.7127 60.9386 30.5079 61C30.3099 61.0683 30.0778 61.1024 29.8116 61.1024ZM30.2929 59.935C30.4909 59.935 30.6683 59.8941 30.8254 59.8122C30.9892 59.7234 31.1155 59.5903 31.2042 59.4128C31.2998 59.2285 31.3476 58.9998 31.3476 58.7267V58.5834L30.4772 58.737C30.1563 58.7916 29.9208 58.8769 29.7706 58.993C29.6273 59.1022 29.5556 59.2319 29.5556 59.3821C29.5556 59.4981 29.5897 59.5971 29.658 59.679C29.7263 59.761 29.815 59.8258 29.9242 59.8736C30.0335 59.9146 30.1563 59.935 30.2929 59.935ZM36.4455 61.1024C36.0018 61.1024 35.6229 61.0546 35.3089 60.959C35.0017 60.8566 34.7491 60.7338 34.5511 60.5904C34.36 60.447 34.2166 60.3003 34.121 60.1501C34.0255 59.9931 33.9743 59.8599 33.9674 59.7507C33.9606 59.6756 33.9845 59.6142 34.0391 59.5664C34.0937 59.5118 34.1518 59.4845 34.2132 59.4845H35.3806C35.401 59.4845 35.4181 59.4879 35.4318 59.4947C35.4454 59.5015 35.4659 59.5152 35.4932 59.5357C35.5819 59.5835 35.6707 59.6449 35.7594 59.72C35.8482 59.7883 35.9506 59.8497 36.0666 59.9043C36.1827 59.9589 36.3226 59.9862 36.4865 59.9862C36.6776 59.9862 36.8381 59.9487 36.9678 59.8736C37.0975 59.7985 37.1623 59.6859 37.1623 59.5357C37.1623 59.4265 37.1316 59.3377 37.0702 59.2694C37.0087 59.1943 36.8824 59.1227 36.6913 59.0544C36.507 58.9861 36.2271 58.9179 35.8516 58.8496C35.4966 58.7677 35.186 58.6619 34.9198 58.5322C34.6535 58.3956 34.4487 58.2215 34.3054 58.0099C34.162 57.7915 34.0903 57.5286 34.0903 57.2214C34.0903 56.9484 34.1791 56.6855 34.3566 56.433C34.5341 56.1804 34.7935 55.9756 35.1348 55.8186C35.4761 55.6547 35.896 55.5728 36.3943 55.5728C36.7903 55.5728 37.1316 55.6206 37.4183 55.7162C37.7119 55.8049 37.9576 55.921 38.1556 56.0643C38.3604 56.2077 38.514 56.3545 38.6164 56.5046C38.7188 56.6548 38.7734 56.7914 38.7802 56.9142C38.7871 56.9825 38.7666 57.0439 38.7188 57.0986C38.671 57.1463 38.6164 57.1702 38.555 57.1702H37.49C37.4627 57.1702 37.4354 57.1668 37.4081 57.16C37.3808 57.1463 37.3569 57.1327 37.3364 57.119C37.2545 57.0781 37.1726 57.0235 37.0906 56.9552C37.0087 56.8869 36.9131 56.8255 36.8039 56.7709C36.6947 56.7163 36.5582 56.689 36.3943 56.689C36.21 56.689 36.0666 56.7299 35.9642 56.8118C35.8618 56.8938 35.8106 56.9996 35.8106 57.1293C35.8106 57.218 35.8379 57.2999 35.8926 57.375C35.954 57.4501 36.0735 57.5184 36.251 57.5798C36.4353 57.6413 36.7186 57.7095 37.1009 57.7846C37.5719 57.8597 37.9474 57.9826 38.2273 58.1533C38.5072 58.3171 38.7051 58.5117 38.8212 58.737C38.9373 58.9554 38.9953 59.1875 38.9953 59.4333C38.9953 59.761 38.8963 60.0511 38.6983 60.3037C38.5072 60.5563 38.2205 60.7542 37.8382 60.8976C37.4559 61.0341 36.9917 61.1024 36.4455 61.1024ZM42.608 61C42.1711 61 41.7922 60.9317 41.4714 60.7952C41.1573 60.6518 40.915 60.4334 40.7443 60.1398C40.5737 59.8395 40.4883 59.4538 40.4883 58.9827V57.0166H39.6896C39.6145 57.0166 39.5497 56.9927 39.495 56.945C39.4473 56.8972 39.4234 56.8357 39.4234 56.7606V55.9312C39.4234 55.8561 39.4473 55.7947 39.495 55.7469C39.5497 55.6991 39.6145 55.6752 39.6896 55.6752H40.4883V53.9856C40.4883 53.9105 40.5122 53.8491 40.56 53.8013C40.6146 53.7535 40.6761 53.7296 40.7443 53.7296H41.9322C42.0073 53.7296 42.0687 53.7535 42.1165 53.8013C42.1643 53.8491 42.1882 53.9105 42.1882 53.9856V55.6752H43.4682C43.5433 55.6752 43.6047 55.6991 43.6525 55.7469C43.7003 55.7947 43.7242 55.8561 43.7242 55.9312V56.7606C43.7242 56.8357 43.7003 56.8972 43.6525 56.945C43.6047 56.9927 43.5433 57.0166 43.4682 57.0166H42.1882V58.8394C42.1882 59.0715 42.2325 59.2558 42.3213 59.3923C42.41 59.5289 42.5602 59.5971 42.7718 59.5971H43.5603C43.6354 59.5971 43.6969 59.621 43.7446 59.6688C43.7924 59.7166 43.8163 59.778 43.8163 59.8531V60.744C43.8163 60.8191 43.7924 60.8805 43.7446 60.9283C43.6969 60.9761 43.6354 61 43.5603 61H42.608ZM44.9202 61C44.8451 61 44.7836 60.9761 44.7358 60.9283C44.6881 60.8805 44.6642 60.8191 44.6642 60.744V55.9312C44.6642 55.8561 44.6881 55.7947 44.7358 55.7469C44.7836 55.6991 44.8451 55.6752 44.9202 55.6752H46.1285C46.1967 55.6752 46.2548 55.6991 46.3026 55.7469C46.3572 55.7947 46.3845 55.8561 46.3845 55.9312V60.744C46.3845 60.8191 46.3572 60.8805 46.3026 60.9283C46.2548 60.9761 46.1967 61 46.1285 61H44.9202ZM44.9099 54.9072C44.8348 54.9072 44.7734 54.8833 44.7256 54.8355C44.6778 54.7877 44.6539 54.7263 44.6539 54.6512V53.7398C44.6539 53.6647 44.6778 53.6033 44.7256 53.5555C44.7734 53.5009 44.8348 53.4736 44.9099 53.4736H46.1285C46.2036 53.4736 46.265 53.5009 46.3128 53.5555C46.3674 53.6033 46.3947 53.6647 46.3947 53.7398V54.6512C46.3947 54.7263 46.3674 54.7877 46.3128 54.8355C46.265 54.8833 46.2036 54.9072 46.1285 54.9072H44.9099ZM48.4443 61C48.3761 61 48.3146 60.9761 48.26 60.9283C48.2122 60.8805 48.1883 60.8191 48.1883 60.744V57.0166H47.4101C47.335 57.0166 47.2735 56.9927 47.2258 56.945C47.178 56.8972 47.1541 56.8357 47.1541 56.7606V55.9312C47.1541 55.8561 47.178 55.7947 47.2258 55.7469C47.2735 55.6991 47.335 55.6752 47.4101 55.6752H48.1883V55.3475C48.1883 54.8833 48.2771 54.5113 48.4546 54.2314C48.6389 53.9446 48.8983 53.7398 49.2328 53.617C49.5673 53.4873 49.9667 53.4224 50.4309 53.4224H51.2296C51.2979 53.4224 51.3559 53.4463 51.4037 53.4941C51.4583 53.5419 51.4856 53.6033 51.4856 53.6784V54.5078C51.4856 54.5829 51.4583 54.6444 51.4037 54.6922C51.3559 54.7399 51.2979 54.7638 51.2296 54.7638H50.5128C50.2807 54.7638 50.1169 54.8185 50.0213 54.9277C49.9325 55.0369 49.8882 55.1939 49.8882 55.3987V55.6752H51.1272C51.1955 55.6752 51.2535 55.6991 51.3013 55.7469C51.3559 55.7947 51.3832 55.8561 51.3832 55.9312V56.7606C51.3832 56.8357 51.3559 56.8972 51.3013 56.945C51.2535 56.9927 51.1955 57.0166 51.1272 57.0166H49.8882V60.744C49.8882 60.8191 49.8643 60.8805 49.8165 60.9283C49.7687 60.9761 49.7073 61 49.6322 61H48.4443ZM53.1074 62.9456C53.046 62.9456 52.9948 62.9251 52.9538 62.8842C52.9129 62.8432 52.8924 62.792 52.8924 62.7306C52.8924 62.7169 52.8924 62.6964 52.8924 62.6691C52.8992 62.6486 52.9095 62.6247 52.9231 62.5974L53.7218 60.6723L51.7558 56.0234C51.7353 55.9756 51.725 55.9346 51.725 55.9005C51.7387 55.839 51.766 55.7878 51.807 55.7469C51.8479 55.6991 51.8991 55.6752 51.9606 55.6752H53.1279C53.2167 55.6752 53.2815 55.6991 53.3225 55.7469C53.3703 55.7878 53.401 55.8356 53.4146 55.8902L54.5922 58.8701L55.7903 55.8902C55.8176 55.8356 55.8518 55.7878 55.8927 55.7469C55.9405 55.6991 56.0088 55.6752 56.0975 55.6752H57.2444C57.3058 55.6752 57.357 55.6991 57.398 55.7469C57.4458 55.7878 57.4697 55.8356 57.4697 55.8902C57.4697 55.9244 57.4594 55.9687 57.439 56.0234L54.541 62.7306C54.5206 62.7852 54.4864 62.833 54.4386 62.8739C54.3909 62.9217 54.3226 62.9456 54.2338 62.9456H53.1074Z" fill="#E5E5E5"/>
</g>
<defs>
<filter id="filter0_d_602_1874" x="0" y="0" width="80" height="80" filterUnits="userSpaceOnUse" color-interpolation-filters="sRGB">
<feFlood flood-opacity="0" result="BackgroundImageFix"/>
<feColorMatrix in="SourceAlpha" type="matrix" values="0 0 0 0 0 0 0 0 0 0 0 0 0 0 0 0 0 0 127 0" result="hardAlpha"/>
<feOffset dy="2"/>
<feGaussianBlur stdDeviation="4"/>
<feColorMatrix type="matrix" values="0 0 0 0 0 0 0 0 0 0 0 0 0 0 0 0 0 0 0.75 0"/>
<feBlend mode="normal" in2="BackgroundImageFix" result="effect1_dropShadow_602_1874"/>
<feBlend mode="normal" in="SourceGraphic" in2="effect1_dropShadow_602_1874" result="shape"/>
</filter>
</defs>
</svg>
