<svg width="80" height="80" viewBox="0 0 80 80" fill="none" xmlns="http://www.w3.org/2000/svg">
<g filter="url(#filter0_d_601_5176)">
<rect x="8" y="6" width="64" height="64" rx="5" fill="#212529"/>
<path fill-rule="evenodd" clip-rule="evenodd" d="M40 27C40 24.7909 41.7909 23 44 23C46.2091 23 48 24.7909 48 27C48 29.2091 46.2091 31 44 31C41.7909 31 40 29.2091 40 27Z" fill="#1ABCFE"/>
<path fill-rule="evenodd" clip-rule="evenodd" d="M32 35C32 32.7909 33.7909 31 36 31H40V35C40 37.2091 38.2091 39 36 39C33.7909 39 32 37.2091 32 35Z" fill="#0ACF83"/>
<path fill-rule="evenodd" clip-rule="evenodd" d="M40 15V23H44C46.2091 23 48 21.2091 48 19C48 16.7909 46.2091 15 44 15H40Z" fill="#FF7262"/>
<path fill-rule="evenodd" clip-rule="evenodd" d="M32 19C32 21.2091 33.7909 23 36 23H40V15H36C33.7909 15 32 16.7909 32 19Z" fill="#F24E1E"/>
<path fill-rule="evenodd" clip-rule="evenodd" d="M32 27C32 29.2091 33.7909 31 36 31H40V23H36C33.7909 23 32 24.7909 32 27Z" fill="#A259FF"/>
<path d="M24.9728 61C24.8977 61 24.8363 60.9761 24.7885 60.9283C24.7407 60.8805 24.7168 60.8191 24.7168 60.744V54.088C24.7168 54.0129 24.7407 53.9515 24.7885 53.9037C24.8363 53.8559 24.8977 53.832 24.9728 53.832H29.673C29.7481 53.832 29.8095 53.8559 29.8573 53.9037C29.9119 53.9515 29.9392 54.0129 29.9392 54.088V55.1222C29.9392 55.1973 29.9119 55.2588 29.8573 55.3066C29.8095 55.3543 29.7481 55.3782 29.673 55.3782H26.519V56.8835H29.4682C29.5433 56.8835 29.6047 56.9108 29.6525 56.9654C29.7071 57.0132 29.7344 57.0747 29.7344 57.1498V58.1738C29.7344 58.242 29.7071 58.3035 29.6525 58.3581C29.6047 58.4059 29.5433 58.4298 29.4682 58.4298H26.519V60.744C26.519 60.8191 26.4951 60.8805 26.4474 60.9283C26.3996 60.9761 26.3381 61 26.263 61H24.9728ZM31.4002 61C31.3251 61 31.2636 60.9761 31.2158 60.9283C31.1681 60.8805 31.1442 60.8191 31.1442 60.744V55.9312C31.1442 55.8561 31.1681 55.7947 31.2158 55.7469C31.2636 55.6991 31.3251 55.6752 31.4002 55.6752H32.6085C32.6767 55.6752 32.7348 55.6991 32.7826 55.7469C32.8372 55.7947 32.8645 55.8561 32.8645 55.9312V60.744C32.8645 60.8191 32.8372 60.8805 32.7826 60.9283C32.7348 60.9761 32.6767 61 32.6085 61H31.4002ZM31.3899 54.9072C31.3148 54.9072 31.2534 54.8833 31.2056 54.8355C31.1578 54.7877 31.1339 54.7263 31.1339 54.6512V53.7398C31.1339 53.6647 31.1578 53.6033 31.2056 53.5555C31.2534 53.5009 31.3148 53.4736 31.3899 53.4736H32.6085C32.6836 53.4736 32.745 53.5009 32.7928 53.5555C32.8474 53.6033 32.8747 53.6647 32.8747 53.7398V54.6512C32.8747 54.7263 32.8474 54.7877 32.7928 54.8355C32.745 54.8833 32.6836 54.9072 32.6085 54.9072H31.3899ZM36.6754 63.2528C36.1497 63.2528 35.7128 63.1845 35.3646 63.048C35.0233 62.9115 34.7502 62.7476 34.5454 62.5565C34.3475 62.3653 34.2041 62.1742 34.1154 61.983C34.0266 61.7987 33.9788 61.6519 33.972 61.5427C33.9652 61.4676 33.9891 61.4062 34.0437 61.3584C34.0983 61.3106 34.1631 61.2867 34.2382 61.2867H35.5387C35.6002 61.2867 35.6514 61.3004 35.6923 61.3277C35.7401 61.3618 35.7777 61.4164 35.805 61.4915C35.8391 61.5666 35.8835 61.6451 35.9381 61.727C35.9995 61.809 36.0814 61.8738 36.1838 61.9216C36.2931 61.9762 36.4398 62.0035 36.6242 62.0035C36.829 62.0035 36.9996 61.9694 37.1362 61.9011C37.2727 61.8397 37.3751 61.7339 37.4434 61.5837C37.5116 61.4403 37.5458 61.2458 37.5458 61V60.3139C37.3887 60.4846 37.1874 60.6245 36.9416 60.7338C36.6958 60.8362 36.3989 60.8874 36.0507 60.8874C35.7026 60.8874 35.3954 60.8362 35.1291 60.7338C34.8629 60.6314 34.641 60.4778 34.4635 60.273C34.286 60.0682 34.1461 59.819 34.0437 59.5254C33.9481 59.2319 33.8901 58.894 33.8696 58.5117C33.8628 58.3342 33.8628 58.1567 33.8696 57.9792C33.8901 57.6106 33.9481 57.2795 34.0437 56.9859C34.1393 56.6924 34.2758 56.4398 34.4533 56.2282C34.6376 56.0165 34.8629 55.8561 35.1291 55.7469C35.3954 55.6308 35.7026 55.5728 36.0507 55.5728C36.4194 55.5728 36.7334 55.6445 36.9928 55.7878C37.259 55.9244 37.4775 56.0985 37.6482 56.3101V55.9312C37.6482 55.8629 37.6721 55.8049 37.7198 55.7571C37.7676 55.7025 37.8291 55.6752 37.9042 55.6752H39.0818C39.1569 55.6752 39.2183 55.7025 39.2661 55.7571C39.3207 55.8049 39.348 55.8629 39.348 55.9312V60.8566C39.348 61.3755 39.2422 61.8124 39.0306 62.1674C38.8189 62.5223 38.5151 62.792 38.1192 62.9763C37.7233 63.1606 37.242 63.2528 36.6754 63.2528ZM36.6037 59.5562C36.8221 59.5562 36.9996 59.5084 37.1362 59.4128C37.2727 59.3172 37.3717 59.1943 37.4331 59.0442C37.5014 58.894 37.5389 58.7335 37.5458 58.5629C37.5526 58.4878 37.556 58.382 37.556 58.2454C37.556 58.1089 37.5526 58.0065 37.5458 57.9382C37.5389 57.7607 37.5014 57.5969 37.4331 57.4467C37.3717 57.2965 37.2727 57.1771 37.1362 57.0883C36.9996 56.9927 36.8221 56.945 36.6037 56.945C36.3784 56.945 36.1975 56.9927 36.061 57.0883C35.9313 57.1839 35.8357 57.3136 35.7742 57.4774C35.7196 57.6413 35.6855 57.8222 35.6718 58.0202C35.665 58.1703 35.665 58.3239 35.6718 58.481C35.6855 58.6789 35.7196 58.8598 35.7742 59.0237C35.8357 59.1875 35.9313 59.3172 36.061 59.4128C36.1975 59.5084 36.3784 59.5562 36.6037 59.5562ZM40.8102 61C40.7351 61 40.6736 60.9761 40.6258 60.9283C40.5781 60.8805 40.5542 60.8191 40.5542 60.744V55.9312C40.5542 55.8561 40.5781 55.7947 40.6258 55.7469C40.6736 55.6991 40.7351 55.6752 40.8102 55.6752H41.9263C42.0014 55.6752 42.0629 55.6991 42.1106 55.7469C42.1584 55.7947 42.1823 55.8561 42.1823 55.9312V56.2794C42.3189 56.095 42.51 55.9346 42.7558 55.7981C43.0015 55.6547 43.2917 55.5796 43.6262 55.5728C44.4112 55.5591 44.9505 55.8561 45.2441 56.4637C45.4011 56.2043 45.6264 55.9926 45.9199 55.8288C46.2135 55.6581 46.5343 55.5728 46.8825 55.5728C47.2375 55.5728 47.5549 55.6547 47.8348 55.8186C48.1215 55.9756 48.3502 56.2213 48.5209 56.5558C48.6915 56.8835 48.7769 57.3102 48.7769 57.8358V60.744C48.7769 60.8191 48.7496 60.8805 48.695 60.9283C48.6472 60.9761 48.5891 61 48.5209 61H47.333C47.2579 61 47.1931 60.9761 47.1385 60.9283C47.0907 60.8805 47.0668 60.8191 47.0668 60.744V57.9075C47.0668 57.6686 47.0327 57.4809 46.9644 57.3443C46.8961 57.201 46.804 57.0986 46.6879 57.0371C46.5719 56.9757 46.4387 56.945 46.2886 56.945C46.1657 56.945 46.0428 56.9757 45.9199 57.0371C45.8039 57.0986 45.7083 57.201 45.6332 57.3443C45.5649 57.4809 45.5308 57.6686 45.5308 57.9075V60.744C45.5308 60.8191 45.5069 60.8805 45.4591 60.9283C45.4113 60.9761 45.3499 61 45.2748 61H44.087C44.0119 61 43.9504 60.9761 43.9026 60.9283C43.8549 60.8805 43.831 60.8191 43.831 60.744V57.9075C43.831 57.6686 43.7934 57.4809 43.7183 57.3443C43.6432 57.201 43.5477 57.0986 43.4316 57.0371C43.3155 56.9757 43.1858 56.945 43.0425 56.945C42.9196 56.945 42.7967 56.9757 42.6738 57.0371C42.5578 57.0986 42.4622 57.201 42.3871 57.3443C42.3189 57.4809 42.2847 57.6652 42.2847 57.8973V60.744C42.2847 60.8191 42.2574 60.8805 42.2028 60.9283C42.155 60.9761 42.0936 61 42.0185 61H40.8102ZM51.5216 61.1024C51.153 61.1024 50.8219 61.0341 50.5283 60.8976C50.2416 60.7542 50.0129 60.5631 49.8422 60.3242C49.6716 60.0852 49.5862 59.8156 49.5862 59.5152C49.5862 59.0305 49.7842 58.6482 50.1802 58.3683C50.5761 58.0816 51.1018 57.887 51.7571 57.7846L53.0371 57.5901V57.4467C53.0371 57.201 52.9859 57.0132 52.8835 56.8835C52.7811 56.7538 52.5934 56.689 52.3203 56.689C52.1292 56.689 51.9722 56.7265 51.8493 56.8016C51.7332 56.8767 51.6411 56.9791 51.5728 57.1088C51.5114 57.1975 51.426 57.2419 51.3168 57.2419H50.1699C50.0948 57.2419 50.0368 57.2214 49.9958 57.1805C49.9549 57.1327 49.9378 57.0781 49.9446 57.0166C49.9446 56.8938 49.989 56.7538 50.0778 56.5968C50.1733 56.433 50.3167 56.2725 50.5078 56.1155C50.699 55.9585 50.9447 55.8288 51.2451 55.7264C51.5455 55.624 51.9073 55.5728 52.3306 55.5728C52.7743 55.5728 53.1532 55.624 53.4672 55.7264C53.7812 55.8288 54.0338 55.9722 54.225 56.1565C54.4229 56.3408 54.5697 56.5593 54.6653 56.8118C54.7609 57.0576 54.8086 57.3307 54.8086 57.631V60.744C54.8086 60.8191 54.7813 60.8805 54.7267 60.9283C54.6789 60.9761 54.6209 61 54.5526 61H53.3648C53.2897 61 53.2283 60.9761 53.1805 60.9283C53.1327 60.8805 53.1088 60.8191 53.1088 60.744V60.3856C53.0201 60.5153 52.9006 60.6348 52.7504 60.744C52.6002 60.8532 52.4227 60.9386 52.2179 61C52.0199 61.0683 51.7878 61.1024 51.5216 61.1024ZM52.0029 59.935C52.2009 59.935 52.3783 59.8941 52.5354 59.8122C52.6992 59.7234 52.8255 59.5903 52.9142 59.4128C53.0098 59.2285 53.0576 58.9998 53.0576 58.7267V58.5834L52.1872 58.737C51.8663 58.7916 51.6308 58.8769 51.4806 58.993C51.3373 59.1022 51.2656 59.2319 51.2656 59.3821C51.2656 59.4981 51.2997 59.5971 51.368 59.679C51.4363 59.761 51.525 59.8258 51.6342 59.8736C51.7435 59.9146 51.8663 59.935 52.0029 59.935Z" fill="#E5E5E5"/>
</g>
<defs>
<filter id="filter0_d_601_5176" x="0" y="0" width="80" height="80" filterUnits="userSpaceOnUse" color-interpolation-filters="sRGB">
<feFlood flood-opacity="0" result="BackgroundImageFix"/>
<feColorMatrix in="SourceAlpha" type="matrix" values="0 0 0 0 0 0 0 0 0 0 0 0 0 0 0 0 0 0 127 0" result="hardAlpha"/>
<feOffset dy="2"/>
<feGaussianBlur stdDeviation="4"/>
<feColorMatrix type="matrix" values="0 0 0 0 0 0 0 0 0 0 0 0 0 0 0 0 0 0 0.75 0"/>
<feBlend mode="normal" in2="BackgroundImageFix" result="effect1_dropShadow_601_5176"/>
<feBlend mode="normal" in="SourceGraphic" in2="effect1_dropShadow_601_5176" result="shape"/>
</filter>
</defs>
</svg>
