<svg width="80" height="80" viewBox="0 0 80 80" fill="none" xmlns="http://www.w3.org/2000/svg">
<g filter="url(#filter0_d_602_1919)">
<rect x="8" y="6" width="64" height="64" rx="5" fill="#212529"/>
<path d="M39.3831 32.316L42.7441 29.042H51.0931L43.6971 36.438L39.3831 32.316Z" fill="#40D0FD"/>
<path d="M28.907 30.1251L33.106 34.4241L51.093 16.2871H42.744L28.907 30.1251Z" fill="#41D0FD"/>
<path d="M35.176 36.4789L39.435 40.6749L43.697 36.4379L39.383 32.3159L35.176 36.4789Z" fill="#1FBCFD"/>
<path d="M39.4351 40.675L43.6971 36.438L50.9891 43.813H42.5931L39.4351 40.675Z" fill="#095A9D"/>
<path d="M39.4351 40.6749L43.4061 39.3539L42.0681 38.0569L39.4351 40.6749Z" fill="#0E5199"/>
<path d="M22.9228 61C22.8477 61 22.7863 60.9761 22.7385 60.9283C22.6907 60.8805 22.6668 60.8191 22.6668 60.744V54.088C22.6668 54.0129 22.6907 53.9515 22.7385 53.9037C22.7863 53.8559 22.8477 53.832 22.9228 53.832H27.623C27.6981 53.832 27.7595 53.8559 27.8073 53.9037C27.8619 53.9515 27.8892 54.0129 27.8892 54.088V55.1222C27.8892 55.1973 27.8619 55.2588 27.8073 55.3066C27.7595 55.3543 27.6981 55.3782 27.623 55.3782H24.469V56.8835H27.4182C27.4933 56.8835 27.5547 56.9108 27.6025 56.9654C27.6571 57.0132 27.6844 57.0747 27.6844 57.1498V58.1738C27.6844 58.242 27.6571 58.3035 27.6025 58.3581C27.5547 58.4059 27.4933 58.4298 27.4182 58.4298H24.469V60.744C24.469 60.8191 24.4451 60.8805 24.3974 60.9283C24.3496 60.9761 24.2881 61 24.213 61H22.9228ZM29.1302 61C29.0551 61 28.9936 60.9761 28.9458 60.9283C28.8981 60.8805 28.8742 60.8191 28.8742 60.744V53.9856C28.8742 53.9105 28.8981 53.8491 28.9458 53.8013C28.9936 53.7535 29.0551 53.7296 29.1302 53.7296H30.3385C30.4136 53.7296 30.475 53.7535 30.5228 53.8013C30.5706 53.8491 30.5945 53.9105 30.5945 53.9856V60.744C30.5945 60.8191 30.5706 60.8805 30.5228 60.9283C30.475 60.9761 30.4136 61 30.3385 61H29.1302ZM33.76 61.1024C33.3709 61.1024 33.0227 61.0137 32.7155 60.8362C32.4151 60.6587 32.1796 60.3993 32.009 60.0579C31.8383 59.7098 31.753 59.2865 31.753 58.7882V55.9312C31.753 55.8561 31.7769 55.7947 31.8246 55.7469C31.8724 55.6991 31.9339 55.6752 32.009 55.6752H33.289C33.3641 55.6752 33.4255 55.6991 33.4733 55.7469C33.5211 55.7947 33.545 55.8561 33.545 55.9312V58.7267C33.545 59.3957 33.8453 59.7302 34.4461 59.7302C34.726 59.7302 34.9478 59.6449 35.1117 59.4742C35.2823 59.2967 35.3677 59.0476 35.3677 58.7267V55.9312C35.3677 55.8561 35.3916 55.7947 35.4394 55.7469C35.4871 55.6991 35.5486 55.6752 35.6237 55.6752H36.9037C36.9788 55.6752 37.0402 55.6991 37.088 55.7469C37.1358 55.7947 37.1597 55.8561 37.1597 55.9312V60.744C37.1597 60.8191 37.1358 60.8805 37.088 60.9283C37.0402 60.9761 36.9788 61 36.9037 61H35.7158C35.6476 61 35.5861 60.9761 35.5315 60.9283C35.4837 60.8805 35.4598 60.8191 35.4598 60.744V60.3549C35.2823 60.6006 35.0502 60.7884 34.7635 60.9181C34.4836 61.041 34.1491 61.1024 33.76 61.1024ZM41.088 61C40.6511 61 40.2722 60.9317 39.9514 60.7952C39.6373 60.6518 39.395 60.4334 39.2243 60.1398C39.0537 59.8395 38.9683 59.4538 38.9683 58.9827V57.0166H38.1696C38.0945 57.0166 38.0297 56.9927 37.975 56.945C37.9273 56.8972 37.9034 56.8357 37.9034 56.7606V55.9312C37.9034 55.8561 37.9273 55.7947 37.975 55.7469C38.0297 55.6991 38.0945 55.6752 38.1696 55.6752H38.9683V53.9856C38.9683 53.9105 38.9922 53.8491 39.04 53.8013C39.0946 53.7535 39.1561 53.7296 39.2243 53.7296H40.4122C40.4873 53.7296 40.5487 53.7535 40.5965 53.8013C40.6443 53.8491 40.6682 53.9105 40.6682 53.9856V55.6752H41.9482C42.0233 55.6752 42.0847 55.6991 42.1325 55.7469C42.1803 55.7947 42.2042 55.8561 42.2042 55.9312V56.7606C42.2042 56.8357 42.1803 56.8972 42.1325 56.945C42.0847 56.9927 42.0233 57.0166 41.9482 57.0166H40.6682V58.8394C40.6682 59.0715 40.7125 59.2558 40.8013 59.3923C40.89 59.5289 41.0402 59.5971 41.2518 59.5971H42.0403C42.1154 59.5971 42.1769 59.621 42.2246 59.6688C42.2724 59.7166 42.2963 59.778 42.2963 59.8531V60.744C42.2963 60.8191 42.2724 60.8805 42.2246 60.9283C42.1769 60.9761 42.1154 61 42.0403 61H41.088ZM45.868 61C45.4311 61 45.0522 60.9317 44.7314 60.7952C44.4173 60.6518 44.175 60.4334 44.0043 60.1398C43.8337 59.8395 43.7483 59.4538 43.7483 58.9827V57.0166H42.9496C42.8745 57.0166 42.8097 56.9927 42.755 56.945C42.7073 56.8972 42.6834 56.8357 42.6834 56.7606V55.9312C42.6834 55.8561 42.7073 55.7947 42.755 55.7469C42.8097 55.6991 42.8745 55.6752 42.9496 55.6752H43.7483V53.9856C43.7483 53.9105 43.7722 53.8491 43.82 53.8013C43.8746 53.7535 43.9361 53.7296 44.0043 53.7296H45.1922C45.2673 53.7296 45.3287 53.7535 45.3765 53.8013C45.4243 53.8491 45.4482 53.9105 45.4482 53.9856V55.6752H46.7282C46.8033 55.6752 46.8647 55.6991 46.9125 55.7469C46.9603 55.7947 46.9842 55.8561 46.9842 55.9312V56.7606C46.9842 56.8357 46.9603 56.8972 46.9125 56.945C46.8647 56.9927 46.8033 57.0166 46.7282 57.0166H45.4482V58.8394C45.4482 59.0715 45.4925 59.2558 45.5813 59.3923C45.67 59.5289 45.8202 59.5971 46.0318 59.5971H46.8203C46.8954 59.5971 46.9569 59.621 47.0046 59.6688C47.0524 59.7166 47.0763 59.778 47.0763 59.8531V60.744C47.0763 60.8191 47.0524 60.8805 47.0046 60.9283C46.9569 60.9761 46.8954 61 46.8203 61H45.868ZM50.3818 61.1024C49.5762 61.1024 48.9345 60.8839 48.4566 60.447C47.9788 60.0101 47.7296 59.3616 47.7091 58.5014C47.7091 58.4537 47.7091 58.3922 47.7091 58.3171C47.7091 58.242 47.7091 58.184 47.7091 58.143C47.7296 57.6037 47.8491 57.1429 48.0675 56.7606C48.2928 56.3715 48.6 56.078 48.9891 55.88C49.3851 55.6752 49.8459 55.5728 50.3715 55.5728C50.9723 55.5728 51.4672 55.6923 51.8563 55.9312C52.2523 56.1701 52.5492 56.4944 52.7472 56.904C52.9452 57.3136 53.0442 57.7812 53.0442 58.3069V58.5526C53.0442 58.6277 53.0169 58.6892 52.9622 58.737C52.9145 58.7847 52.8564 58.8086 52.7882 58.8086H49.5114C49.5114 58.8155 49.5114 58.8257 49.5114 58.8394C49.5114 58.853 49.5114 58.8667 49.5114 58.8803C49.5182 59.0783 49.5523 59.2592 49.6138 59.423C49.6752 59.5869 49.7708 59.7166 49.9005 59.8122C50.0302 59.9077 50.1872 59.9555 50.3715 59.9555C50.5081 59.9555 50.6207 59.935 50.7094 59.8941C50.805 59.8463 50.8835 59.7951 50.945 59.7405C51.0064 59.679 51.0542 59.6278 51.0883 59.5869C51.1498 59.5186 51.1975 59.4777 51.2317 59.464C51.2726 59.4435 51.3341 59.4333 51.416 59.4333H52.6858C52.754 59.4333 52.8086 59.4538 52.8496 59.4947C52.8974 59.5289 52.9179 59.5801 52.911 59.6483C52.9042 59.7644 52.8462 59.9043 52.737 60.0682C52.6277 60.232 52.4673 60.3958 52.2557 60.5597C52.0509 60.7167 51.7915 60.8464 51.4774 60.9488C51.1634 61.0512 50.7982 61.1024 50.3818 61.1024ZM49.5114 57.7949H51.2419V57.7744C51.2419 57.5559 51.2078 57.3648 51.1395 57.201C51.0781 57.0371 50.9791 56.9108 50.8426 56.8221C50.7129 56.7333 50.5558 56.689 50.3715 56.689C50.1872 56.689 50.0302 56.7333 49.9005 56.8221C49.7776 56.9108 49.682 57.0371 49.6138 57.201C49.5455 57.3648 49.5114 57.5559 49.5114 57.7744V57.7949ZM54.2602 61C54.1851 61 54.1236 60.9761 54.0758 60.9283C54.0281 60.8805 54.0042 60.8191 54.0042 60.744V55.9312C54.0042 55.8629 54.0281 55.8049 54.0758 55.7571C54.1236 55.7025 54.1851 55.6752 54.2602 55.6752H55.4378C55.5129 55.6752 55.5743 55.7025 55.6221 55.7571C55.6699 55.8049 55.6938 55.8629 55.6938 55.9312V56.3408C55.8781 56.1292 56.0965 55.9653 56.3491 55.8493C56.6085 55.7332 56.8987 55.6752 57.2195 55.6752H57.6701C57.7383 55.6752 57.7964 55.6991 57.8442 55.7469C57.8988 55.7947 57.9261 55.8561 57.9261 55.9312V56.9859C57.9261 57.0542 57.8988 57.1156 57.8442 57.1702C57.7964 57.218 57.7383 57.2419 57.6701 57.2419H56.6768C56.3969 57.2419 56.1785 57.3204 56.0214 57.4774C55.8713 57.6276 55.7962 57.8427 55.7962 58.1226V60.744C55.7962 60.8191 55.7689 60.8805 55.7142 60.9283C55.6665 60.9761 55.605 61 55.5299 61H54.2602Z" fill="#E5E5E5"/>
</g>
<defs>
<filter id="filter0_d_602_1919" x="0" y="0" width="80" height="80" filterUnits="userSpaceOnUse" color-interpolation-filters="sRGB">
<feFlood flood-opacity="0" result="BackgroundImageFix"/>
<feColorMatrix in="SourceAlpha" type="matrix" values="0 0 0 0 0 0 0 0 0 0 0 0 0 0 0 0 0 0 127 0" result="hardAlpha"/>
<feOffset dy="2"/>
<feGaussianBlur stdDeviation="4"/>
<feColorMatrix type="matrix" values="0 0 0 0 0 0 0 0 0 0 0 0 0 0 0 0 0 0 0.75 0"/>
<feBlend mode="normal" in2="BackgroundImageFix" result="effect1_dropShadow_602_1919"/>
<feBlend mode="normal" in="SourceGraphic" in2="effect1_dropShadow_602_1919" result="shape"/>
</filter>
</defs>
</svg>
