<svg width="80" height="80" viewBox="0 0 80 80" fill="none" xmlns="http://www.w3.org/2000/svg">
<g filter="url(#filter0_d_601_4503)">
<rect x="8" y="6" width="64" height="64" rx="5" fill="#212529"/>
<path d="M26.5854 28.4132C25.8049 27.6327 25.8049 26.3673 26.5854 25.5868L38.5868 13.5854C39.3673 12.8049 40.6327 12.8049 41.4132 13.5854L53.4146 25.5868C54.1951 26.3673 54.1951 27.6327 53.4146 28.4132L41.4132 40.4146C40.6327 41.1951 39.3673 41.1951 38.5868 40.4146L26.5854 28.4132Z" fill="#EE513B"/>
<path d="M36.1489 16.0615L34.9336 17.2769L38.0725 20.4158C37.9455 20.6882 37.8746 20.992 37.8746 21.3124C37.8746 22.222 38.4461 22.9981 39.2496 23.3012V30.9798C38.4461 31.2829 37.8746 32.059 37.8746 32.9686C37.8746 34.1422 38.826 35.0936 39.9996 35.0936C41.1732 35.0936 42.1246 34.1422 42.1246 32.9686C42.1246 32.144 41.6549 31.429 40.9684 31.0768V23.3117L43.9689 26.3122C43.8481 26.5791 43.7809 26.8754 43.7809 27.1874C43.7809 28.361 44.7323 29.3124 45.9059 29.3124C47.0795 29.3124 48.0309 28.361 48.0309 27.1874C48.0309 26.0138 47.0795 25.0624 45.9059 25.0624C45.6778 25.0624 45.4582 25.0983 45.2522 25.1648L42.0297 21.9423C42.0914 21.7433 42.1246 21.5317 42.1246 21.3124C42.1246 20.1388 41.1732 19.1874 39.9996 19.1874C39.7803 19.1874 39.5688 19.2206 39.3697 19.2823L36.1489 16.0615Z" fill="white"/>
<path d="M35.6762 61.1024C35.0276 61.1024 34.4678 60.9966 33.9968 60.785C33.5326 60.5665 33.1708 60.2525 32.9114 59.8429C32.6588 59.4265 32.5188 58.9213 32.4915 58.3274C32.4847 58.0338 32.4813 57.7232 32.4813 57.3955C32.4813 57.061 32.4847 56.7436 32.4915 56.4432C32.5188 55.8629 32.6622 55.3714 32.9216 54.9686C33.181 54.5659 33.5462 54.2587 34.0173 54.047C34.4883 53.8354 35.0413 53.7296 35.6762 53.7296C36.1882 53.7296 36.6421 53.7945 37.0381 53.9242C37.434 54.047 37.7651 54.2143 38.0314 54.4259C38.3044 54.6375 38.5092 54.8697 38.6458 55.1222C38.7891 55.3748 38.8642 55.624 38.871 55.8698C38.8779 55.9312 38.8574 55.9824 38.8096 56.0234C38.7686 56.0643 38.7174 56.0848 38.656 56.0848H37.161C37.0859 56.0848 37.0278 56.0746 36.9869 56.0541C36.9527 56.0268 36.922 55.9892 36.8947 55.9414C36.8469 55.839 36.7753 55.7332 36.6797 55.624C36.5909 55.5079 36.4646 55.409 36.3008 55.327C36.1438 55.2451 35.9356 55.2042 35.6762 55.2042C35.287 55.2042 34.9798 55.3066 34.7546 55.5114C34.5361 55.7162 34.4166 56.0438 34.3962 56.4944C34.3757 57.0815 34.3757 57.6754 34.3962 58.2762C34.4166 58.754 34.5429 59.0988 34.775 59.3104C35.0071 59.522 35.3143 59.6278 35.6966 59.6278C35.9561 59.6278 36.1847 59.5835 36.3827 59.4947C36.5875 59.406 36.7479 59.2694 36.864 59.0851C36.9801 58.894 37.0381 58.6516 37.0381 58.3581V58.1635H36.0755C36.0004 58.1635 35.9356 58.1396 35.881 58.0918C35.8332 58.0372 35.8093 57.9724 35.8093 57.8973V57.1395C35.8093 57.0644 35.8332 57.003 35.881 56.9552C35.9356 56.9006 36.0004 56.8733 36.0755 56.8733H38.656C38.7311 56.8733 38.7925 56.9006 38.8403 56.9552C38.8881 57.003 38.912 57.0644 38.912 57.1395V58.3069C38.912 58.894 38.7789 59.3957 38.5126 59.8122C38.2464 60.2286 37.8675 60.5494 37.376 60.7747C36.8913 60.9932 36.3247 61.1024 35.6762 61.1024ZM40.2302 61C40.1551 61 40.0936 60.9761 40.0458 60.9283C39.9981 60.8805 39.9742 60.8191 39.9742 60.744V55.9312C39.9742 55.8561 39.9981 55.7947 40.0458 55.7469C40.0936 55.6991 40.1551 55.6752 40.2302 55.6752H41.4385C41.5067 55.6752 41.5648 55.6991 41.6126 55.7469C41.6672 55.7947 41.6945 55.8561 41.6945 55.9312V60.744C41.6945 60.8191 41.6672 60.8805 41.6126 60.9283C41.5648 60.9761 41.5067 61 41.4385 61H40.2302ZM40.2199 54.9072C40.1448 54.9072 40.0834 54.8833 40.0356 54.8355C39.9878 54.7877 39.9639 54.7263 39.9639 54.6512V53.7398C39.9639 53.6647 39.9878 53.6033 40.0356 53.5555C40.0834 53.5009 40.1448 53.4736 40.2199 53.4736H41.4385C41.5136 53.4736 41.575 53.5009 41.6228 53.5555C41.6774 53.6033 41.7047 53.6647 41.7047 53.7398V54.6512C41.7047 54.7263 41.6774 54.7877 41.6228 54.8355C41.575 54.8833 41.5136 54.9072 41.4385 54.9072H40.2199ZM45.618 61C45.1811 61 44.8022 60.9317 44.4814 60.7952C44.1673 60.6518 43.925 60.4334 43.7543 60.1398C43.5837 59.8395 43.4983 59.4538 43.4983 58.9827V57.0166H42.6996C42.6245 57.0166 42.5597 56.9927 42.505 56.945C42.4573 56.8972 42.4334 56.8357 42.4334 56.7606V55.9312C42.4334 55.8561 42.4573 55.7947 42.505 55.7469C42.5597 55.6991 42.6245 55.6752 42.6996 55.6752H43.4983V53.9856C43.4983 53.9105 43.5222 53.8491 43.57 53.8013C43.6246 53.7535 43.6861 53.7296 43.7543 53.7296H44.9422C45.0173 53.7296 45.0787 53.7535 45.1265 53.8013C45.1743 53.8491 45.1982 53.9105 45.1982 53.9856V55.6752H46.4782C46.5533 55.6752 46.6147 55.6991 46.6625 55.7469C46.7103 55.7947 46.7342 55.8561 46.7342 55.9312V56.7606C46.7342 56.8357 46.7103 56.8972 46.6625 56.945C46.6147 56.9927 46.5533 57.0166 46.4782 57.0166H45.1982V58.8394C45.1982 59.0715 45.2425 59.2558 45.3313 59.3923C45.42 59.5289 45.5702 59.5971 45.7818 59.5971H46.5703C46.6454 59.5971 46.7069 59.621 46.7546 59.6688C46.8024 59.7166 46.8263 59.778 46.8263 59.8531V60.744C46.8263 60.8191 46.8024 60.8805 46.7546 60.9283C46.7069 60.9761 46.6454 61 46.5703 61H45.618Z" fill="#E5E5E5"/>
</g>
<defs>
<filter id="filter0_d_601_4503" x="0" y="0" width="80" height="80" filterUnits="userSpaceOnUse" color-interpolation-filters="sRGB">
<feFlood flood-opacity="0" result="BackgroundImageFix"/>
<feColorMatrix in="SourceAlpha" type="matrix" values="0 0 0 0 0 0 0 0 0 0 0 0 0 0 0 0 0 0 127 0" result="hardAlpha"/>
<feOffset dy="2"/>
<feGaussianBlur stdDeviation="4"/>
<feColorMatrix type="matrix" values="0 0 0 0 0 0 0 0 0 0 0 0 0 0 0 0 0 0 0.75 0"/>
<feBlend mode="normal" in2="BackgroundImageFix" result="effect1_dropShadow_601_4503"/>
<feBlend mode="normal" in="SourceGraphic" in2="effect1_dropShadow_601_4503" result="shape"/>
</filter>
</defs>
</svg>
