<svg width="80" height="80" viewBox="0 0 80 80" fill="none" xmlns="http://www.w3.org/2000/svg">
<g filter="url(#filter0_d_601_4608)">
<rect x="8" y="6" width="64" height="64" rx="5" fill="#212529"/>
<path d="M36.4666 33.5067C36.4666 33.6 36.3733 33.6667 36.24 33.6667C36.1066 33.6667 36 33.6667 36 33.5067C36 33.3467 36.1066 33.3467 36.2266 33.3467C36.3466 33.3467 36.4666 33.4133 36.4666 33.5067ZM35.1333 33.3067C35.1333 33.4 35.1333 33.5067 35.32 33.5333C35.3677 33.5563 35.4226 33.5593 35.4726 33.5419C35.5226 33.5244 35.5636 33.4877 35.5866 33.44C35.5866 33.3467 35.5866 33.2533 35.4 33.2133C35.2133 33.1733 35.16 33.2133 35.1333 33.3067ZM37.0266 33.24C36.9066 33.24 36.8266 33.3467 36.84 33.4533C36.8533 33.56 36.96 33.6 37.0933 33.5733C37.2266 33.5467 37.2933 33.4533 37.28 33.36C37.2666 33.2667 37.16 33.2267 37.0266 33.24ZM39.8666 16.3334C38.4604 16.3201 37.0661 16.5911 35.7672 17.1301C34.4683 17.669 33.2917 18.4648 32.308 19.4697C31.3243 20.4746 30.5537 21.6679 30.0425 22.9779C29.5314 24.288 29.2901 25.6877 29.3333 27.0933C29.2961 29.3959 29.9789 31.6525 31.2865 33.5481C32.5941 35.4437 34.461 36.8836 36.6266 37.6667C37.1733 37.76 37.3732 37.4133 37.3732 37.1333C37.3732 36.8533 37.3732 35.3467 37.3732 34.4667C37.3732 34.4667 34.36 35.1333 33.72 33.1333C33.72 33.1333 33.24 31.8 32.5333 31.52C32.5333 31.52 31.5466 30.8267 32.6 30.84C32.9449 30.8865 33.2742 31.0133 33.5614 31.2101C33.8485 31.4069 34.0855 31.6684 34.2533 31.9733C34.3928 32.2468 34.5867 32.4889 34.8231 32.6847C35.0596 32.8805 35.3335 33.026 35.6282 33.1121C35.9228 33.1983 36.232 33.2233 36.5366 33.1857C36.8413 33.1481 37.1351 33.0485 37.3999 32.8933C37.4505 32.3367 37.6905 31.8143 38.0799 31.4133C35.68 31.1333 33.2533 30.7867 33.2533 26.5333C33.2278 26.0528 33.305 25.5724 33.4797 25.1241C33.6545 24.6759 33.9227 24.2699 34.2666 23.9334C33.9421 22.9573 33.98 21.8971 34.3733 20.9467C35.28 20.6534 37.3466 22.1334 37.3466 22.1334C39.1122 21.6354 40.9811 21.6354 42.7466 22.1334C42.7466 22.1334 44.8133 20.6534 45.7199 20.9467C46.1218 21.8952 46.1597 22.9586 45.8266 23.9334C46.1827 24.2652 46.4651 24.6681 46.6558 25.116C46.8463 25.5639 46.9409 26.0467 46.9333 26.5333C46.9333 30.8 44.3999 31.1333 41.9999 31.4133C42.2411 31.6839 42.4247 32.0008 42.5394 32.3447C42.6539 32.6885 42.6972 33.0521 42.6666 33.4133C42.6666 34.9067 42.6666 36.7467 42.6666 37.1067C42.6658 37.1967 42.6866 37.2856 42.7274 37.3659C42.7683 37.4461 42.8278 37.5155 42.9011 37.5677C42.9743 37.6201 43.0593 37.654 43.1483 37.6665C43.2375 37.6792 43.3285 37.67 43.4133 37.64C45.575 36.8637 47.4381 35.428 48.7395 33.5356C50.0411 31.6432 50.7151 29.3896 50.6666 27.0933C50.6791 25.6735 50.408 24.2654 49.8693 22.9516C49.3305 21.6379 48.5347 20.4449 47.5288 19.4427C46.523 18.4405 45.327 17.6493 44.0112 17.1153C42.6955 16.5814 41.2864 16.3156 39.8666 16.3334ZM33.52 31.5467C33.52 31.5467 33.52 31.6933 33.52 31.7733C33.5348 31.7883 33.5525 31.8001 33.5719 31.8081C33.5914 31.8163 33.6122 31.8204 33.6333 31.8204C33.6543 31.8204 33.6752 31.8163 33.6947 31.8081C33.7141 31.8001 33.7318 31.7883 33.7466 31.7733C33.7466 31.7733 33.7466 31.6267 33.7466 31.5333C33.7466 31.44 33.5733 31.4933 33.52 31.5467ZM33.0533 31.1867C33.0533 31.1867 33.0533 31.32 33.1466 31.36C33.1579 31.374 33.1721 31.3852 33.1882 31.3929C33.2044 31.4005 33.2221 31.4047 33.24 31.4047C33.2578 31.4047 33.2755 31.4005 33.2917 31.3929C33.3078 31.3852 33.322 31.374 33.3333 31.36C33.3333 31.36 33.3333 31.2267 33.24 31.1867C33.1466 31.1467 33.08 31.1467 33.0533 31.1867ZM34.3866 32.76C34.3866 32.76 34.3866 32.9467 34.3866 33.04C34.3866 33.1333 34.6133 33.1467 34.6666 33.04C34.72 32.9333 34.6666 32.8533 34.6666 32.76C34.6666 32.6667 34.4933 32.6933 34.44 32.76H34.3866ZM33.8933 32.1067C33.8933 32.1067 33.8933 32.2667 33.8933 32.3733C33.8933 32.48 34.08 32.52 34.1466 32.48C34.1804 32.4412 34.199 32.3915 34.199 32.34C34.199 32.2885 34.1804 32.2388 34.1466 32.2C34.08 32.0933 33.9733 32.0533 33.8933 32.1067Z" fill="white"/>
<path d="M26.1762 61.1024C25.5276 61.1024 24.9678 60.9966 24.4968 60.785C24.0326 60.5665 23.6708 60.2525 23.4114 59.8429C23.1588 59.4265 23.0188 58.9213 22.9915 58.3274C22.9847 58.0338 22.9813 57.7232 22.9813 57.3955C22.9813 57.061 22.9847 56.7436 22.9915 56.4432C23.0188 55.8629 23.1622 55.3714 23.4216 54.9686C23.681 54.5659 24.0462 54.2587 24.5173 54.047C24.9883 53.8354 25.5413 53.7296 26.1762 53.7296C26.6882 53.7296 27.1421 53.7945 27.5381 53.9242C27.934 54.047 28.2651 54.2143 28.5314 54.4259C28.8044 54.6375 29.0092 54.8697 29.1458 55.1222C29.2891 55.3748 29.3642 55.624 29.371 55.8698C29.3779 55.9312 29.3574 55.9824 29.3096 56.0234C29.2686 56.0643 29.2174 56.0848 29.156 56.0848H27.661C27.5859 56.0848 27.5278 56.0746 27.4869 56.0541C27.4527 56.0268 27.422 55.9892 27.3947 55.9414C27.3469 55.839 27.2753 55.7332 27.1797 55.624C27.0909 55.5079 26.9646 55.409 26.8008 55.327C26.6438 55.2451 26.4356 55.2042 26.1762 55.2042C25.787 55.2042 25.4798 55.3066 25.2546 55.5114C25.0361 55.7162 24.9166 56.0438 24.8962 56.4944C24.8757 57.0815 24.8757 57.6754 24.8962 58.2762C24.9166 58.754 25.0429 59.0988 25.275 59.3104C25.5071 59.522 25.8143 59.6278 26.1966 59.6278C26.4561 59.6278 26.6847 59.5835 26.8827 59.4947C27.0875 59.406 27.2479 59.2694 27.364 59.0851C27.4801 58.894 27.5381 58.6516 27.5381 58.3581V58.1635H26.5755C26.5004 58.1635 26.4356 58.1396 26.381 58.0918C26.3332 58.0372 26.3093 57.9724 26.3093 57.8973V57.1395C26.3093 57.0644 26.3332 57.003 26.381 56.9552C26.4356 56.9006 26.5004 56.8733 26.5755 56.8733H29.156C29.2311 56.8733 29.2925 56.9006 29.3403 56.9552C29.3881 57.003 29.412 57.0644 29.412 57.1395V58.3069C29.412 58.894 29.2789 59.3957 29.0126 59.8122C28.7464 60.2286 28.3675 60.5494 27.876 60.7747C27.3913 60.9932 26.8247 61.1024 26.1762 61.1024ZM30.7302 61C30.6551 61 30.5936 60.9761 30.5458 60.9283C30.4981 60.8805 30.4742 60.8191 30.4742 60.744V55.9312C30.4742 55.8561 30.4981 55.7947 30.5458 55.7469C30.5936 55.6991 30.6551 55.6752 30.7302 55.6752H31.9385C32.0067 55.6752 32.0648 55.6991 32.1126 55.7469C32.1672 55.7947 32.1945 55.8561 32.1945 55.9312V60.744C32.1945 60.8191 32.1672 60.8805 32.1126 60.9283C32.0648 60.9761 32.0067 61 31.9385 61H30.7302ZM30.7199 54.9072C30.6448 54.9072 30.5834 54.8833 30.5356 54.8355C30.4878 54.7877 30.4639 54.7263 30.4639 54.6512V53.7398C30.4639 53.6647 30.4878 53.6033 30.5356 53.5555C30.5834 53.5009 30.6448 53.4736 30.7199 53.4736H31.9385C32.0136 53.4736 32.075 53.5009 32.1228 53.5555C32.1774 53.6033 32.2047 53.6647 32.2047 53.7398V54.6512C32.2047 54.7263 32.1774 54.7877 32.1228 54.8355C32.075 54.8833 32.0136 54.9072 31.9385 54.9072H30.7199ZM36.118 61C35.6811 61 35.3022 60.9317 34.9814 60.7952C34.6673 60.6518 34.425 60.4334 34.2543 60.1398C34.0837 59.8395 33.9983 59.4538 33.9983 58.9827V57.0166H33.1996C33.1245 57.0166 33.0597 56.9927 33.005 56.945C32.9573 56.8972 32.9334 56.8357 32.9334 56.7606V55.9312C32.9334 55.8561 32.9573 55.7947 33.005 55.7469C33.0597 55.6991 33.1245 55.6752 33.1996 55.6752H33.9983V53.9856C33.9983 53.9105 34.0222 53.8491 34.07 53.8013C34.1246 53.7535 34.1861 53.7296 34.2543 53.7296H35.4422C35.5173 53.7296 35.5787 53.7535 35.6265 53.8013C35.6743 53.8491 35.6982 53.9105 35.6982 53.9856V55.6752H36.9782C37.0533 55.6752 37.1147 55.6991 37.1625 55.7469C37.2103 55.7947 37.2342 55.8561 37.2342 55.9312V56.7606C37.2342 56.8357 37.2103 56.8972 37.1625 56.945C37.1147 56.9927 37.0533 57.0166 36.9782 57.0166H35.6982V58.8394C35.6982 59.0715 35.7425 59.2558 35.8313 59.3923C35.92 59.5289 36.0702 59.5971 36.2818 59.5971H37.0703C37.1454 59.5971 37.2069 59.621 37.2546 59.6688C37.3024 59.7166 37.3263 59.778 37.3263 59.8531V60.744C37.3263 60.8191 37.3024 60.8805 37.2546 60.9283C37.2069 60.9761 37.1454 61 37.0703 61H36.118ZM38.4302 61C38.3551 61 38.2936 60.9761 38.2458 60.9283C38.1981 60.8805 38.1742 60.8191 38.1742 60.744V53.9856C38.1742 53.9105 38.1981 53.8491 38.2458 53.8013C38.2936 53.7535 38.3551 53.7296 38.4302 53.7296H39.7409C39.816 53.7296 39.8774 53.7535 39.9252 53.8013C39.973 53.8491 39.9969 53.9105 39.9969 53.9856V56.2691C40.1812 56.0575 40.4065 55.8902 40.6727 55.7674C40.9458 55.6377 41.2598 55.5728 41.6148 55.5728C42.0107 55.5728 42.3623 55.6615 42.6695 55.839C42.9835 56.0165 43.2293 56.2794 43.4068 56.6275C43.5843 56.9689 43.673 57.3887 43.673 57.887V60.744C43.673 60.8191 43.6491 60.8805 43.6014 60.9283C43.5536 60.9761 43.4921 61 43.417 61H42.0961C42.0278 61 41.9664 60.9761 41.9118 60.9283C41.864 60.8805 41.8401 60.8191 41.8401 60.744V57.9485C41.8401 57.6276 41.7616 57.3819 41.6046 57.2112C41.4544 57.0337 41.2291 56.945 40.9287 56.945C40.6488 56.945 40.4235 57.0337 40.2529 57.2112C40.0822 57.3819 39.9969 57.6276 39.9969 57.9485V60.744C39.9969 60.8191 39.973 60.8805 39.9252 60.9283C39.8774 60.9761 39.816 61 39.7409 61H38.4302ZM46.79 61.1024C46.4009 61.1024 46.0527 61.0137 45.7455 60.8362C45.4451 60.6587 45.2096 60.3993 45.039 60.0579C44.8683 59.7098 44.783 59.2865 44.783 58.7882V55.9312C44.783 55.8561 44.8069 55.7947 44.8546 55.7469C44.9024 55.6991 44.9639 55.6752 45.039 55.6752H46.319C46.3941 55.6752 46.4555 55.6991 46.5033 55.7469C46.5511 55.7947 46.575 55.8561 46.575 55.9312V58.7267C46.575 59.3957 46.8753 59.7302 47.4761 59.7302C47.756 59.7302 47.9778 59.6449 48.1417 59.4742C48.3123 59.2967 48.3977 59.0476 48.3977 58.7267V55.9312C48.3977 55.8561 48.4216 55.7947 48.4694 55.7469C48.5171 55.6991 48.5786 55.6752 48.6537 55.6752H49.9337C50.0088 55.6752 50.0702 55.6991 50.118 55.7469C50.1658 55.7947 50.1897 55.8561 50.1897 55.9312V60.744C50.1897 60.8191 50.1658 60.8805 50.118 60.9283C50.0702 60.9761 50.0088 61 49.9337 61H48.7458C48.6776 61 48.6161 60.9761 48.5615 60.9283C48.5137 60.8805 48.4898 60.8191 48.4898 60.744V60.3549C48.3123 60.6006 48.0802 60.7884 47.7935 60.9181C47.5136 61.041 47.1791 61.1024 46.79 61.1024ZM54.6505 61.1024C54.2682 61.1024 53.9473 61.0375 53.6879 60.9078C53.4353 60.7781 53.2271 60.6143 53.0633 60.4163V60.744C53.0633 60.8191 53.036 60.8805 52.9814 60.9283C52.9336 60.9761 52.8755 61 52.8073 61H51.6502C51.5751 61 51.5136 60.9761 51.4658 60.9283C51.4181 60.8805 51.3942 60.8191 51.3942 60.744V53.9856C51.3942 53.9105 51.4181 53.8491 51.4658 53.8013C51.5136 53.7535 51.5751 53.7296 51.6502 53.7296H52.8994C52.9745 53.7296 53.036 53.7535 53.0838 53.8013C53.1315 53.8491 53.1554 53.9105 53.1554 53.9856V56.177C53.3193 55.9995 53.5241 55.8561 53.7698 55.7469C54.0224 55.6308 54.316 55.5728 54.6505 55.5728C54.9918 55.5728 55.2922 55.6308 55.5516 55.7469C55.8178 55.8561 56.0431 56.0165 56.2274 56.2282C56.4118 56.4398 56.5551 56.6924 56.6575 56.9859C56.7599 57.2795 56.8179 57.6106 56.8316 57.9792C56.8384 58.1089 56.8418 58.2284 56.8418 58.3376C56.8418 58.44 56.8384 58.5595 56.8316 58.696C56.8179 59.0783 56.7565 59.4196 56.6473 59.72C56.5449 60.0135 56.4015 60.2661 56.2172 60.4778C56.0329 60.6826 55.811 60.8396 55.5516 60.9488C55.2922 61.0512 54.9918 61.1024 54.6505 61.1024ZM54.0975 59.7302C54.3296 59.7302 54.5105 59.6825 54.6402 59.5869C54.7699 59.4913 54.8621 59.3616 54.9167 59.1978C54.9782 59.0339 55.0157 58.853 55.0294 58.655C55.043 58.4434 55.043 58.2318 55.0294 58.0202C55.0157 57.8222 54.9782 57.6413 54.9167 57.4774C54.8621 57.3136 54.7699 57.1839 54.6402 57.0883C54.5105 56.9927 54.3296 56.945 54.0975 56.945C53.8859 56.945 53.7118 56.9927 53.5753 57.0883C53.4387 57.1771 53.3363 57.2965 53.2681 57.4467C53.1998 57.5901 53.1623 57.7471 53.1554 57.9178C53.1486 58.0475 53.1452 58.1738 53.1452 58.2966C53.1452 58.4195 53.1486 58.5492 53.1554 58.6858C53.1623 58.8701 53.1964 59.0407 53.2578 59.1978C53.3193 59.3548 53.4183 59.4845 53.5548 59.5869C53.6913 59.6825 53.8722 59.7302 54.0975 59.7302Z" fill="#E5E5E5"/>
</g>
<defs>
<filter id="filter0_d_601_4608" x="0" y="0" width="80" height="80" filterUnits="userSpaceOnUse" color-interpolation-filters="sRGB">
<feFlood flood-opacity="0" result="BackgroundImageFix"/>
<feColorMatrix in="SourceAlpha" type="matrix" values="0 0 0 0 0 0 0 0 0 0 0 0 0 0 0 0 0 0 127 0" result="hardAlpha"/>
<feOffset dy="2"/>
<feGaussianBlur stdDeviation="4"/>
<feColorMatrix type="matrix" values="0 0 0 0 0 0 0 0 0 0 0 0 0 0 0 0 0 0 0.75 0"/>
<feBlend mode="normal" in2="BackgroundImageFix" result="effect1_dropShadow_601_4608"/>
<feBlend mode="normal" in="SourceGraphic" in2="effect1_dropShadow_601_4608" result="shape"/>
</filter>
</defs>
</svg>
