<svg width="80" height="80" viewBox="0 0 80 80" fill="none" xmlns="http://www.w3.org/2000/svg">
<g filter="url(#filter0_d_601_4593)">
<rect x="8" y="6" width="64" height="64" rx="5" fill="#212529"/>
<path d="M53.9499 28.8079L52.3799 24.0999L49.2759 14.7599C49.2391 14.6542 49.1702 14.5626 49.0787 14.498C48.9873 14.4334 48.8779 14.3991 48.7659 14.3999C48.6543 14.3996 48.5453 14.4341 48.4543 14.4986C48.3632 14.5631 48.2946 14.6545 48.2579 14.7599L45.1539 24.0939H34.8439L31.7399 14.7579C31.7032 14.6527 31.6344 14.5616 31.5433 14.4974C31.4522 14.4332 31.3433 14.3991 31.2319 14.3999C31.1202 14.3993 31.0111 14.4336 30.92 14.4982C30.8289 14.5628 30.7603 14.6543 30.7239 14.7599L27.6239 24.0939L26.0559 28.8079C25.9865 29.018 25.9866 29.2447 26.0561 29.4547C26.1256 29.6647 26.2609 29.8468 26.4419 29.9739L40.0019 39.5979L53.5579 29.9739C53.7397 29.8474 53.876 29.6657 53.9466 29.4557C54.0172 29.2457 54.0184 29.0186 53.9499 28.8079Z" fill="#FC6D26"/>
<path d="M39.9999 39.592L45.1559 24.092H34.8459L39.9999 39.592Z" fill="#E24329"/>
<path d="M40 39.592L34.842 24.092H27.626L40 39.592Z" fill="#FC6D26"/>
<path d="M27.62 24.0979L26.052 28.8059C25.9826 29.0159 25.9827 29.2427 26.0522 29.4527C26.1217 29.6627 26.257 29.8448 26.438 29.9719L40 39.5999L27.62 24.0999V24.0979Z" fill="#FCA326"/>
<path d="M27.624 24.0981H34.848L31.74 14.7641C31.7034 14.6586 31.6347 14.5673 31.5437 14.5027C31.4526 14.4382 31.3436 14.4037 31.232 14.4041C31.1201 14.4033 31.0107 14.4376 30.9192 14.5022C30.8277 14.5667 30.7588 14.6583 30.722 14.7641L27.624 24.0981Z" fill="#E24329"/>
<path d="M40 39.592L45.156 24.092H52.384L40 39.592Z" fill="#FC6D26"/>
<path d="M52.38 24.0979L53.946 28.8059C54.0157 29.0159 54.0158 29.2428 53.9463 29.4529C53.8767 29.663 53.7413 29.845 53.56 29.9719L40 39.5919L52.376 24.0979H52.38Z" fill="#FCA326"/>
<path d="M52.3799 24.0981H45.1599L48.2619 14.7641C48.2984 14.6582 48.3673 14.5664 48.4588 14.5018C48.5504 14.4372 48.6599 14.403 48.7719 14.4041C49.0019 14.4041 49.2059 14.5501 49.2799 14.7641L52.3839 24.0981H52.3799Z" fill="#E24329"/>
<path d="M28.1762 61.1024C27.5276 61.1024 26.9678 60.9966 26.4968 60.785C26.0326 60.5665 25.6708 60.2525 25.4114 59.8429C25.1588 59.4265 25.0188 58.9213 24.9915 58.3274C24.9847 58.0338 24.9813 57.7232 24.9813 57.3955C24.9813 57.061 24.9847 56.7436 24.9915 56.4432C25.0188 55.8629 25.1622 55.3714 25.4216 54.9686C25.681 54.5659 26.0462 54.2587 26.5173 54.047C26.9883 53.8354 27.5413 53.7296 28.1762 53.7296C28.6882 53.7296 29.1421 53.7945 29.5381 53.9242C29.934 54.047 30.2651 54.2143 30.5314 54.4259C30.8044 54.6375 31.0092 54.8697 31.1458 55.1222C31.2891 55.3748 31.3642 55.624 31.371 55.8698C31.3779 55.9312 31.3574 55.9824 31.3096 56.0234C31.2686 56.0643 31.2174 56.0848 31.156 56.0848H29.661C29.5859 56.0848 29.5278 56.0746 29.4869 56.0541C29.4527 56.0268 29.422 55.9892 29.3947 55.9414C29.3469 55.839 29.2753 55.7332 29.1797 55.624C29.0909 55.5079 28.9646 55.409 28.8008 55.327C28.6438 55.2451 28.4356 55.2042 28.1762 55.2042C27.787 55.2042 27.4798 55.3066 27.2546 55.5114C27.0361 55.7162 26.9166 56.0438 26.8962 56.4944C26.8757 57.0815 26.8757 57.6754 26.8962 58.2762C26.9166 58.754 27.0429 59.0988 27.275 59.3104C27.5071 59.522 27.8143 59.6278 28.1966 59.6278C28.4561 59.6278 28.6847 59.5835 28.8827 59.4947C29.0875 59.406 29.2479 59.2694 29.364 59.0851C29.4801 58.894 29.5381 58.6516 29.5381 58.3581V58.1635H28.5755C28.5004 58.1635 28.4356 58.1396 28.381 58.0918C28.3332 58.0372 28.3093 57.9724 28.3093 57.8973V57.1395C28.3093 57.0644 28.3332 57.003 28.381 56.9552C28.4356 56.9006 28.5004 56.8733 28.5755 56.8733H31.156C31.2311 56.8733 31.2925 56.9006 31.3403 56.9552C31.3881 57.003 31.412 57.0644 31.412 57.1395V58.3069C31.412 58.894 31.2789 59.3957 31.0126 59.8122C30.7464 60.2286 30.3675 60.5494 29.876 60.7747C29.3913 60.9932 28.8247 61.1024 28.1762 61.1024ZM32.7302 61C32.6551 61 32.5936 60.9761 32.5458 60.9283C32.4981 60.8805 32.4742 60.8191 32.4742 60.744V55.9312C32.4742 55.8561 32.4981 55.7947 32.5458 55.7469C32.5936 55.6991 32.6551 55.6752 32.7302 55.6752H33.9385C34.0067 55.6752 34.0648 55.6991 34.1126 55.7469C34.1672 55.7947 34.1945 55.8561 34.1945 55.9312V60.744C34.1945 60.8191 34.1672 60.8805 34.1126 60.9283C34.0648 60.9761 34.0067 61 33.9385 61H32.7302ZM32.7199 54.9072C32.6448 54.9072 32.5834 54.8833 32.5356 54.8355C32.4878 54.7877 32.4639 54.7263 32.4639 54.6512V53.7398C32.4639 53.6647 32.4878 53.6033 32.5356 53.5555C32.5834 53.5009 32.6448 53.4736 32.7199 53.4736H33.9385C34.0136 53.4736 34.075 53.5009 34.1228 53.5555C34.1774 53.6033 34.2047 53.6647 34.2047 53.7398V54.6512C34.2047 54.7263 34.1774 54.7877 34.1228 54.8355C34.075 54.8833 34.0136 54.9072 33.9385 54.9072H32.7199ZM38.118 61C37.6811 61 37.3022 60.9317 36.9814 60.7952C36.6673 60.6518 36.425 60.4334 36.2543 60.1398C36.0837 59.8395 35.9983 59.4538 35.9983 58.9827V57.0166H35.1996C35.1245 57.0166 35.0597 56.9927 35.005 56.945C34.9573 56.8972 34.9334 56.8357 34.9334 56.7606V55.9312C34.9334 55.8561 34.9573 55.7947 35.005 55.7469C35.0597 55.6991 35.1245 55.6752 35.1996 55.6752H35.9983V53.9856C35.9983 53.9105 36.0222 53.8491 36.07 53.8013C36.1246 53.7535 36.1861 53.7296 36.2543 53.7296H37.4422C37.5173 53.7296 37.5787 53.7535 37.6265 53.8013C37.6743 53.8491 37.6982 53.9105 37.6982 53.9856V55.6752H38.9782C39.0533 55.6752 39.1147 55.6991 39.1625 55.7469C39.2103 55.7947 39.2342 55.8561 39.2342 55.9312V56.7606C39.2342 56.8357 39.2103 56.8972 39.1625 56.945C39.1147 56.9927 39.0533 57.0166 38.9782 57.0166H37.6982V58.8394C37.6982 59.0715 37.7425 59.2558 37.8313 59.3923C37.92 59.5289 38.0702 59.5971 38.2818 59.5971H39.0703C39.1454 59.5971 39.2069 59.621 39.2546 59.6688C39.3024 59.7166 39.3263 59.778 39.3263 59.8531V60.744C39.3263 60.8191 39.3024 60.8805 39.2546 60.9283C39.2069 60.9761 39.1454 61 39.0703 61H38.118ZM40.4302 61C40.3551 61 40.2936 60.9761 40.2458 60.9283C40.1981 60.8805 40.1742 60.8191 40.1742 60.744V53.9856C40.1742 53.9105 40.1981 53.8491 40.2458 53.8013C40.2936 53.7535 40.3551 53.7296 40.4302 53.7296H41.6385C41.7136 53.7296 41.775 53.7535 41.8228 53.8013C41.8706 53.8491 41.8945 53.9105 41.8945 53.9856V60.744C41.8945 60.8191 41.8706 60.8805 41.8228 60.9283C41.775 60.9761 41.7136 61 41.6385 61H40.4302ZM44.7016 61.1024C44.333 61.1024 44.0019 61.0341 43.7083 60.8976C43.4216 60.7542 43.1929 60.5631 43.0222 60.3242C42.8516 60.0852 42.7662 59.8156 42.7662 59.5152C42.7662 59.0305 42.9642 58.6482 43.3602 58.3683C43.7561 58.0816 44.2818 57.887 44.9371 57.7846L46.2171 57.5901V57.4467C46.2171 57.201 46.1659 57.0132 46.0635 56.8835C45.9611 56.7538 45.7734 56.689 45.5003 56.689C45.3092 56.689 45.1522 56.7265 45.0293 56.8016C44.9132 56.8767 44.8211 56.9791 44.7528 57.1088C44.6914 57.1975 44.606 57.2419 44.4968 57.2419H43.3499C43.2748 57.2419 43.2168 57.2214 43.1758 57.1805C43.1349 57.1327 43.1178 57.0781 43.1246 57.0166C43.1246 56.8938 43.169 56.7538 43.2578 56.5968C43.3533 56.433 43.4967 56.2725 43.6878 56.1155C43.879 55.9585 44.1247 55.8288 44.4251 55.7264C44.7255 55.624 45.0873 55.5728 45.5106 55.5728C45.9543 55.5728 46.3332 55.624 46.6472 55.7264C46.9612 55.8288 47.2138 55.9722 47.405 56.1565C47.6029 56.3408 47.7497 56.5593 47.8453 56.8118C47.9409 57.0576 47.9886 57.3307 47.9886 57.631V60.744C47.9886 60.8191 47.9613 60.8805 47.9067 60.9283C47.8589 60.9761 47.8009 61 47.7326 61H46.5448C46.4697 61 46.4083 60.9761 46.3605 60.9283C46.3127 60.8805 46.2888 60.8191 46.2888 60.744V60.3856C46.2001 60.5153 46.0806 60.6348 45.9304 60.744C45.7802 60.8532 45.6027 60.9386 45.3979 61C45.1999 61.0683 44.9678 61.1024 44.7016 61.1024ZM45.1829 59.935C45.3809 59.935 45.5583 59.8941 45.7154 59.8122C45.8792 59.7234 46.0055 59.5903 46.0942 59.4128C46.1898 59.2285 46.2376 58.9998 46.2376 58.7267V58.5834L45.3672 58.737C45.0463 58.7916 44.8108 58.8769 44.6606 58.993C44.5173 59.1022 44.4456 59.2319 44.4456 59.3821C44.4456 59.4981 44.4797 59.5971 44.548 59.679C44.6163 59.761 44.705 59.8258 44.8142 59.8736C44.9235 59.9146 45.0463 59.935 45.1829 59.935ZM52.4005 61.1024C52.0182 61.1024 51.6973 61.0375 51.4379 60.9078C51.1853 60.7781 50.9771 60.6143 50.8133 60.4163V60.744C50.8133 60.8191 50.786 60.8805 50.7314 60.9283C50.6836 60.9761 50.6255 61 50.5573 61H49.4002C49.3251 61 49.2636 60.9761 49.2158 60.9283C49.1681 60.8805 49.1442 60.8191 49.1442 60.744V53.9856C49.1442 53.9105 49.1681 53.8491 49.2158 53.8013C49.2636 53.7535 49.3251 53.7296 49.4002 53.7296H50.6494C50.7245 53.7296 50.786 53.7535 50.8338 53.8013C50.8815 53.8491 50.9054 53.9105 50.9054 53.9856V56.177C51.0693 55.9995 51.2741 55.8561 51.5198 55.7469C51.7724 55.6308 52.066 55.5728 52.4005 55.5728C52.7418 55.5728 53.0422 55.6308 53.3016 55.7469C53.5678 55.8561 53.7931 56.0165 53.9774 56.2282C54.1618 56.4398 54.3051 56.6924 54.4075 56.9859C54.5099 57.2795 54.5679 57.6106 54.5816 57.9792C54.5884 58.1089 54.5918 58.2284 54.5918 58.3376C54.5918 58.44 54.5884 58.5595 54.5816 58.696C54.5679 59.0783 54.5065 59.4196 54.3973 59.72C54.2949 60.0135 54.1515 60.2661 53.9672 60.4778C53.7829 60.6826 53.561 60.8396 53.3016 60.9488C53.0422 61.0512 52.7418 61.1024 52.4005 61.1024ZM51.8475 59.7302C52.0796 59.7302 52.2605 59.6825 52.3902 59.5869C52.5199 59.4913 52.6121 59.3616 52.6667 59.1978C52.7282 59.0339 52.7657 58.853 52.7794 58.655C52.793 58.4434 52.793 58.2318 52.7794 58.0202C52.7657 57.8222 52.7282 57.6413 52.6667 57.4774C52.6121 57.3136 52.5199 57.1839 52.3902 57.0883C52.2605 56.9927 52.0796 56.945 51.8475 56.945C51.6359 56.945 51.4618 56.9927 51.3253 57.0883C51.1887 57.1771 51.0863 57.2965 51.0181 57.4467C50.9498 57.5901 50.9123 57.7471 50.9054 57.9178C50.8986 58.0475 50.8952 58.1738 50.8952 58.2966C50.8952 58.4195 50.8986 58.5492 50.9054 58.6858C50.9123 58.8701 50.9464 59.0407 51.0078 59.1978C51.0693 59.3548 51.1683 59.4845 51.3048 59.5869C51.4413 59.6825 51.6222 59.7302 51.8475 59.7302Z" fill="#E5E5E5"/>
</g>
<defs>
<filter id="filter0_d_601_4593" x="0" y="0" width="80" height="80" filterUnits="userSpaceOnUse" color-interpolation-filters="sRGB">
<feFlood flood-opacity="0" result="BackgroundImageFix"/>
<feColorMatrix in="SourceAlpha" type="matrix" values="0 0 0 0 0 0 0 0 0 0 0 0 0 0 0 0 0 0 127 0" result="hardAlpha"/>
<feOffset dy="2"/>
<feGaussianBlur stdDeviation="4"/>
<feColorMatrix type="matrix" values="0 0 0 0 0 0 0 0 0 0 0 0 0 0 0 0 0 0 0.75 0"/>
<feBlend mode="normal" in2="BackgroundImageFix" result="effect1_dropShadow_601_4593"/>
<feBlend mode="normal" in="SourceGraphic" in2="effect1_dropShadow_601_4593" result="shape"/>
</filter>
</defs>
</svg>
