<svg width="80" height="80" viewBox="0 0 80 80" fill="none" xmlns="http://www.w3.org/2000/svg">
<g filter="url(#filter0_d_603_1480)">
<rect x="8" y="6" width="64" height="64" rx="5" fill="#212529"/>
<path d="M45.2815 19.2273L48.0631 16.4457L48.2485 15.2744C43.1796 10.6653 35.122 11.1879 30.5526 16.3649C29.2833 17.8028 28.3417 19.5954 27.8396 21.4466L28.8358 21.3062L34.399 20.3888L34.8285 19.9496C37.3031 17.2318 41.4872 16.8662 44.3445 19.1786L45.2815 19.2273Z" fill="#EA4335"/>
<path d="M52.0256 21.3647C51.3863 19.0102 50.0736 16.8935 48.2485 15.2744L44.3445 19.1784C45.993 20.5254 46.9321 22.5547 46.8919 24.683V25.376C48.8108 25.376 50.3665 26.9317 50.3665 28.8505C50.3665 30.7695 48.8108 32.2862 46.8919 32.2862H39.933L39.2498 33.0279V37.1954L39.933 37.8493H46.8919C51.8831 37.8882 55.9609 33.9125 55.9998 28.9213C56.0233 25.8959 54.5316 23.0597 52.0256 21.3647Z" fill="#4285F4"/>
<path d="M32.9837 37.8496H39.9328V32.2864H32.9837C32.4886 32.2862 32.0091 32.1799 31.5588 31.9741L30.573 32.2766L27.7718 35.0582L27.5278 36.005C29.0987 37.1911 31.0153 37.8581 32.9837 37.8496Z" fill="#34A853"/>
<path d="M32.9838 19.8033C27.9924 19.833 23.9704 23.9035 24.0002 28.8948C24.0168 31.682 25.3185 34.3058 27.5279 36.0049L31.5589 31.974C29.81 31.1839 29.0329 29.1258 29.823 27.377C30.613 25.6283 32.6713 24.8512 34.4199 25.6412C35.1905 25.9893 35.8077 26.6065 36.1558 27.377L40.1868 23.3462C38.4717 21.104 35.8067 19.7932 32.9838 19.8033Z" fill="#FBBC05"/>
<path d="M28.7957 55.0819C28.277 55.0819 27.8292 54.9973 27.4525 54.828C27.0812 54.6533 26.7918 54.4021 26.5844 54.0745C26.3823 53.7415 26.2704 53.3374 26.2486 52.8624C26.2431 52.6276 26.2404 52.3792 26.2404 52.1171C26.2404 51.8496 26.2431 51.5957 26.2486 51.3555C26.2704 50.8913 26.3851 50.4982 26.5926 50.1761C26.8 49.854 27.0921 49.6083 27.4689 49.439C27.8456 49.2697 28.2879 49.1851 28.7957 49.1851C29.2052 49.1851 29.5683 49.237 29.8849 49.3407C30.2016 49.439 30.4664 49.5728 30.6794 49.742C30.8978 49.9113 31.0616 50.0969 31.1708 50.2989C31.2854 50.501 31.3455 50.7003 31.3509 50.8968C31.3564 50.946 31.34 50.9869 31.3018 51.0197C31.269 51.0524 31.2281 51.0688 31.179 51.0688H29.9832C29.9232 51.0688 29.8767 51.0606 29.844 51.0442C29.8167 51.0224 29.7921 50.9924 29.7703 50.9541C29.7321 50.8722 29.6747 50.7876 29.5983 50.7002C29.5273 50.6074 29.4263 50.5283 29.2953 50.4627C29.1697 50.3972 29.0031 50.3645 28.7957 50.3645C28.4844 50.3645 28.2387 50.4464 28.0586 50.6102C27.8838 50.774 27.7883 51.036 27.7719 51.3964C27.7555 51.866 27.7555 52.341 27.7719 52.8215C27.7883 53.2037 27.8893 53.4794 28.0749 53.6487C28.2606 53.8179 28.5063 53.9025 28.812 53.9025C29.0195 53.9025 29.2024 53.8671 29.3608 53.7961C29.5246 53.7251 29.6529 53.6159 29.7457 53.4685C29.8385 53.3156 29.8849 53.1218 29.8849 52.887V52.7314H29.1151C29.055 52.7314 29.0031 52.7123 28.9595 52.674C28.9212 52.6304 28.9021 52.5785 28.9021 52.5184V51.9124C28.9021 51.8523 28.9212 51.8032 28.9595 51.765C29.0031 51.7213 29.055 51.6994 29.1151 51.6994H31.179C31.239 51.6994 31.2882 51.7213 31.3264 51.765C31.3646 51.8032 31.3837 51.8523 31.3837 51.9124V52.846C31.3837 53.3156 31.2772 53.7169 31.0643 54.05C30.8514 54.383 30.5483 54.6396 30.1552 54.8198C29.7675 54.9945 29.3144 55.0819 28.7957 55.0819ZM34.248 55.0819C33.7893 55.0819 33.4017 55.0082 33.085 54.8608C32.7738 54.7133 32.5335 54.5031 32.3643 54.2301C32.2005 53.9517 32.1076 53.6214 32.0858 53.2392C32.0803 53.13 32.0776 53.0071 32.0776 52.8706C32.0776 52.7286 32.0803 52.6058 32.0858 52.5021C32.1076 52.1144 32.2059 51.7841 32.3806 51.5111C32.5554 51.2381 32.7983 51.0279 33.1096 50.8804C33.4262 50.733 33.8057 50.6593 34.248 50.6593C34.6957 50.6593 35.0752 50.733 35.3864 50.8804C35.7031 51.0279 35.9488 51.2381 36.1235 51.5111C36.2982 51.7841 36.3965 52.1144 36.4183 52.5021C36.4238 52.6058 36.4265 52.7286 36.4265 52.8706C36.4265 53.0071 36.4238 53.13 36.4183 53.2392C36.3965 53.6214 36.3009 53.9517 36.1317 54.2301C35.9679 54.5031 35.7276 54.7133 35.4109 54.8608C35.0997 55.0082 34.7121 55.0819 34.248 55.0819ZM34.248 54.0827C34.4937 54.0827 34.6711 54.009 34.7803 53.8616C34.895 53.7142 34.9605 53.493 34.9769 53.1982C34.9823 53.1163 34.9851 53.0071 34.9851 52.8706C34.9851 52.7341 34.9823 52.6249 34.9769 52.543C34.9605 52.2536 34.895 52.0352 34.7803 51.8878C34.6711 51.7349 34.4937 51.6585 34.248 51.6585C34.0077 51.6585 33.8303 51.7349 33.7156 51.8878C33.601 52.0352 33.5382 52.2536 33.5272 52.543C33.5218 52.6249 33.5191 52.7341 33.5191 52.8706C33.5191 53.0071 33.5218 53.1163 33.5272 53.1982C33.5382 53.493 33.601 53.7142 33.7156 53.8616C33.8303 54.009 34.0077 54.0827 34.248 54.0827ZM39.2467 55.0819C38.7881 55.0819 38.4004 55.0082 38.0838 54.8608C37.7725 54.7133 37.5323 54.5031 37.363 54.2301C37.1992 53.9517 37.1064 53.6214 37.0846 53.2392C37.0791 53.13 37.0764 53.0071 37.0764 52.8706C37.0764 52.7286 37.0791 52.6058 37.0846 52.5021C37.1064 52.1144 37.2047 51.7841 37.3794 51.5111C37.5541 51.2381 37.7971 51.0279 38.1083 50.8804C38.425 50.733 38.8045 50.6593 39.2467 50.6593C39.6945 50.6593 40.0739 50.733 40.3852 50.8804C40.7018 51.0279 40.9475 51.2381 41.1223 51.5111C41.297 51.7841 41.3953 52.1144 41.4171 52.5021C41.4226 52.6058 41.4253 52.7286 41.4253 52.8706C41.4253 53.0071 41.4226 53.13 41.4171 53.2392C41.3953 53.6214 41.2997 53.9517 41.1304 54.2301C40.9666 54.5031 40.7264 54.7133 40.4097 54.8608C40.0985 55.0082 39.7108 55.0819 39.2467 55.0819ZM39.2467 54.0827C39.4924 54.0827 39.6699 54.009 39.7791 53.8616C39.8938 53.7142 39.9593 53.493 39.9757 53.1982C39.9811 53.1163 39.9838 53.0071 39.9838 52.8706C39.9838 52.7341 39.9811 52.6249 39.9757 52.543C39.9593 52.2536 39.8938 52.0352 39.7791 51.8878C39.6699 51.7349 39.4924 51.6585 39.2467 51.6585C39.0065 51.6585 38.8291 51.7349 38.7144 51.8878C38.5997 52.0352 38.5369 52.2536 38.526 52.543C38.5206 52.6249 38.5178 52.7341 38.5178 52.8706C38.5178 53.0071 38.5206 53.1163 38.526 53.1982C38.5369 53.493 38.5997 53.7142 38.7144 53.8616C38.8291 54.009 39.0065 54.0827 39.2467 54.0827ZM44.3192 56.8018C43.8988 56.8018 43.5494 56.7472 43.2709 56.638C42.9979 56.5288 42.7795 56.3978 42.6157 56.2449C42.4574 56.092 42.3427 55.9391 42.2717 55.7862C42.2008 55.6388 42.1625 55.5214 42.1571 55.4341C42.1516 55.374 42.1707 55.3249 42.2144 55.2866C42.2581 55.2484 42.31 55.2293 42.37 55.2293H43.4101C43.4593 55.2293 43.5002 55.2402 43.533 55.2621C43.5712 55.2894 43.6012 55.3331 43.6231 55.3931C43.6504 55.4532 43.6859 55.516 43.7296 55.5815C43.7787 55.647 43.8442 55.6989 43.9261 55.7371C44.0135 55.7808 44.1309 55.8026 44.2783 55.8026C44.4421 55.8026 44.5786 55.7753 44.6878 55.7207C44.797 55.6716 44.8789 55.587 44.9335 55.4668C44.9881 55.3522 45.0154 55.1966 45.0154 55V54.4513C44.8898 54.5878 44.7287 54.6997 44.5322 54.7871C44.3356 54.869 44.0981 54.9099 43.8196 54.9099C43.5412 54.9099 43.2955 54.869 43.0825 54.7871C42.8696 54.7052 42.6922 54.5823 42.5502 54.4185C42.4082 54.2547 42.2963 54.0554 42.2144 53.8206C42.138 53.5859 42.0916 53.3156 42.0752 53.0098C42.0697 52.8679 42.0697 52.7259 42.0752 52.5839C42.0916 52.2891 42.138 52.0243 42.2144 51.7895C42.2908 51.5547 42.4 51.3527 42.542 51.1835C42.6894 51.0142 42.8696 50.8859 43.0825 50.7985C43.2955 50.7057 43.5412 50.6593 43.8196 50.6593C44.1145 50.6593 44.3656 50.7166 44.5731 50.8313C44.7861 50.9405 44.9608 51.0797 45.0973 51.249V50.9459C45.0973 50.8914 45.1164 50.8449 45.1546 50.8067C45.1928 50.763 45.242 50.7412 45.302 50.7412H46.2439C46.3039 50.7412 46.3531 50.763 46.3913 50.8067C46.435 50.8449 46.4568 50.8914 46.4568 50.9459V54.8853C46.4568 55.3003 46.3722 55.6497 46.2029 55.9337C46.0337 56.2176 45.7907 56.4332 45.474 56.5807C45.1573 56.7281 44.7724 56.8018 44.3192 56.8018ZM44.2619 53.8452C44.4366 53.8452 44.5786 53.807 44.6878 53.7306C44.797 53.6541 44.8762 53.5558 44.9253 53.4357C44.9799 53.3156 45.0099 53.1873 45.0154 53.0508C45.0208 52.9907 45.0236 52.9061 45.0236 52.7969C45.0236 52.6877 45.0208 52.6058 45.0154 52.5512C45.0099 52.4092 44.9799 52.2782 44.9253 52.1581C44.8762 52.038 44.797 51.9424 44.6878 51.8714C44.5786 51.795 44.4366 51.7568 44.2619 51.7568C44.0817 51.7568 43.937 51.795 43.8278 51.8714C43.7241 51.9479 43.6477 52.0516 43.5985 52.1826C43.5548 52.3137 43.5275 52.4584 43.5166 52.6167C43.5112 52.7368 43.5112 52.8597 43.5166 52.9853C43.5275 53.1436 43.5548 53.2883 43.5985 53.4193C43.6477 53.5504 43.7241 53.6541 43.8278 53.7306C43.937 53.807 44.0817 53.8452 44.2619 53.8452ZM47.6263 55C47.5662 55 47.5171 54.9809 47.4788 54.9427C47.4406 54.9045 47.4215 54.8553 47.4215 54.7953V49.3898C47.4215 49.3298 47.4406 49.2807 47.4788 49.2424C47.5171 49.2042 47.5662 49.1851 47.6263 49.1851H48.5927C48.6527 49.1851 48.7019 49.2042 48.7401 49.2424C48.7783 49.2807 48.7974 49.3298 48.7974 49.3898V54.7953C48.7974 54.8553 48.7783 54.9045 48.7401 54.9427C48.7019 54.9809 48.6527 55 48.5927 55H47.6263ZM51.7305 55.0819C51.0863 55.0819 50.573 54.9072 50.1908 54.5577C49.8086 54.2083 49.6093 53.6896 49.593 53.0016C49.593 52.9634 49.593 52.9143 49.593 52.8542C49.593 52.7942 49.593 52.7478 49.593 52.715C49.6093 52.2837 49.7049 51.9151 49.8796 51.6093C50.0598 51.2981 50.3055 51.0633 50.6167 50.905C50.9334 50.7412 51.3019 50.6593 51.7224 50.6593C52.2028 50.6593 52.5987 50.7548 52.9099 50.9459C53.2266 51.1371 53.4641 51.3964 53.6224 51.724C53.7808 52.0516 53.8599 52.4256 53.8599 52.846V53.0426C53.8599 53.1026 53.8381 53.1518 53.7944 53.19C53.7562 53.2282 53.7098 53.2473 53.6552 53.2473H51.0344C51.0344 53.2528 51.0344 53.261 51.0344 53.2719C51.0344 53.2828 51.0344 53.2938 51.0344 53.3047C51.0399 53.463 51.0672 53.6077 51.1163 53.7387C51.1654 53.8698 51.2419 53.9735 51.3456 54.05C51.4494 54.1264 51.5749 54.1646 51.7224 54.1646C51.8316 54.1646 51.9216 54.1482 51.9926 54.1155C52.0691 54.0773 52.1319 54.0363 52.181 53.9926C52.2301 53.9435 52.2684 53.9025 52.2957 53.8698C52.3448 53.8152 52.383 53.7824 52.4103 53.7715C52.4431 53.7551 52.4922 53.7469 52.5577 53.7469H53.5733C53.6279 53.7469 53.6716 53.7633 53.7043 53.7961C53.7426 53.8234 53.7589 53.8643 53.7535 53.9189C53.748 54.0117 53.7016 54.1237 53.6142 54.2547C53.5269 54.3858 53.3986 54.5168 53.2293 54.6478C53.0655 54.7734 52.858 54.8771 52.6069 54.959C52.3557 55.041 52.0636 55.0819 51.7305 55.0819ZM51.0344 52.4365H52.4185V52.4201C52.4185 52.2454 52.3912 52.0926 52.3366 51.9615C52.2875 51.8305 52.2083 51.7295 52.0991 51.6585C51.9954 51.5875 51.8698 51.552 51.7224 51.552C51.5749 51.552 51.4494 51.5875 51.3456 51.6585C51.2473 51.7295 51.1709 51.8305 51.1163 51.9615C51.0617 52.0926 51.0344 52.2454 51.0344 52.4201V52.4365ZM31.1707 65.0819C30.652 65.0819 30.207 64.9973 29.8357 64.828C29.4699 64.6588 29.1833 64.4103 28.9758 64.0827C28.7738 63.7551 28.6618 63.3484 28.64 62.8624C28.6345 62.6386 28.6318 62.3983 28.6318 62.1417C28.6318 61.8851 28.6345 61.6394 28.64 61.4046C28.6618 60.9296 28.7765 60.5283 28.984 60.2007C29.1915 59.8676 29.4808 59.6164 29.8521 59.4472C30.2234 59.2725 30.6629 59.1851 31.1707 59.1851C31.5311 59.1851 31.8641 59.2315 32.1699 59.3243C32.4756 59.4117 32.7432 59.5427 32.9725 59.7174C33.2018 59.8867 33.3793 60.0942 33.5049 60.3399C33.6359 60.5801 33.7041 60.8531 33.7096 61.1589C33.7151 61.208 33.6987 61.249 33.6605 61.2817C33.6277 61.3145 33.5868 61.3309 33.5376 61.3309H32.432C32.361 61.3309 32.3064 61.3172 32.2682 61.2899C32.2299 61.2572 32.1972 61.1998 32.1699 61.1179C32.0934 60.8286 31.9679 60.632 31.7931 60.5283C31.6239 60.4191 31.4137 60.3645 31.1625 60.3645C30.8622 60.3645 30.6247 60.4491 30.45 60.6184C30.2753 60.7822 30.1797 61.0579 30.1633 61.4455C30.147 61.8933 30.147 62.3519 30.1633 62.8215C30.1797 63.2091 30.2753 63.4876 30.45 63.6568C30.6247 63.8206 30.8622 63.9025 31.1625 63.9025C31.4137 63.9025 31.6266 63.8479 31.8013 63.7387C31.9761 63.6295 32.0989 63.433 32.1699 63.1491C32.1917 63.0672 32.2218 63.0126 32.26 62.9853C32.3037 62.9525 32.361 62.9361 32.432 62.9361H33.5376C33.5868 62.9361 33.6277 62.9525 33.6605 62.9853C33.6987 63.018 33.7151 63.059 33.7096 63.1081C33.7041 63.4139 33.6359 63.6896 33.5049 63.9353C33.3793 64.1755 33.2018 64.383 32.9725 64.5577C32.7432 64.727 32.4756 64.858 32.1699 64.9509C31.8641 65.0382 31.5311 65.0819 31.1707 65.0819ZM34.6854 65C34.6254 65 34.5762 64.9809 34.538 64.9427C34.4998 64.9045 34.4807 64.8553 34.4807 64.7953V59.3898C34.4807 59.3298 34.4998 59.2807 34.538 59.2424C34.5762 59.2042 34.6254 59.1851 34.6854 59.1851H35.6518C35.7119 59.1851 35.761 59.2042 35.7993 59.2424C35.8375 59.2807 35.8566 59.3298 35.8566 59.3898V64.7953C35.8566 64.8553 35.8375 64.9045 35.7993 64.9427C35.761 64.9809 35.7119 65 35.6518 65H34.6854ZM38.8388 65.0819C38.3802 65.0819 37.9925 65.0082 37.6759 64.8608C37.3646 64.7133 37.1244 64.5031 36.9551 64.2301C36.7913 63.9517 36.6985 63.6214 36.6767 63.2392C36.6712 63.13 36.6685 63.0071 36.6685 62.8706C36.6685 62.7286 36.6712 62.6058 36.6767 62.5021C36.6985 62.1144 36.7968 61.7841 36.9715 61.5111C37.1462 61.2381 37.3892 61.0279 37.7004 60.8804C38.0171 60.733 38.3966 60.6593 38.8388 60.6593C39.2866 60.6593 39.666 60.733 39.9773 60.8804C40.2939 61.0279 40.5396 61.2381 40.7144 61.5111C40.8891 61.7841 40.9874 62.1144 41.0092 62.5021C41.0147 62.6058 41.0174 62.7286 41.0174 62.8706C41.0174 63.0071 41.0147 63.13 41.0092 63.2392C40.9874 63.6214 40.8918 63.9517 40.7225 64.2301C40.5587 64.5031 40.3185 64.7133 40.0018 64.8608C39.6906 65.0082 39.3029 65.0819 38.8388 65.0819ZM38.8388 64.0827C39.0845 64.0827 39.262 64.009 39.3712 63.8616C39.4859 63.7142 39.5514 63.493 39.5678 63.1982C39.5732 63.1163 39.5759 63.0071 39.5759 62.8706C39.5759 62.7341 39.5732 62.6249 39.5678 62.543C39.5514 62.2536 39.4859 62.0352 39.3712 61.8878C39.262 61.7349 39.0845 61.6585 38.8388 61.6585C38.5986 61.6585 38.4212 61.7349 38.3065 61.8878C38.1918 62.0352 38.129 62.2536 38.1181 62.543C38.1127 62.6249 38.1099 62.7341 38.1099 62.8706C38.1099 63.0071 38.1127 63.1163 38.1181 63.1982C38.129 63.493 38.1918 63.7142 38.3065 63.8616C38.4212 64.009 38.5986 64.0827 38.8388 64.0827ZM43.3872 65.0819C43.076 65.0819 42.7975 65.0109 42.5518 64.869C42.3116 64.727 42.1232 64.5195 41.9867 64.2465C41.8502 63.9681 41.7819 63.6295 41.7819 63.231V60.9459C41.7819 60.8859 41.801 60.8367 41.8393 60.7985C41.8775 60.7603 41.9266 60.7412 41.9867 60.7412H43.0104C43.0705 60.7412 43.1196 60.7603 43.1579 60.7985C43.1961 60.8367 43.2152 60.8859 43.2152 60.9459V63.1818C43.2152 63.7169 43.4554 63.9844 43.9359 63.9844C44.1598 63.9844 44.3372 63.9162 44.4683 63.7797C44.6048 63.6377 44.673 63.4384 44.673 63.1818V60.9459C44.673 60.8859 44.6921 60.8367 44.7303 60.7985C44.7686 60.7603 44.8177 60.7412 44.8778 60.7412H45.9015C45.9616 60.7412 46.0107 60.7603 46.0489 60.7985C46.0871 60.8367 46.1063 60.8859 46.1063 60.9459V64.7953C46.1063 64.8553 46.0871 64.9045 46.0489 64.9427C46.0107 64.9809 45.9616 65 45.9015 65H44.9515C44.8969 65 44.8477 64.9809 44.804 64.9427C44.7658 64.9045 44.7467 64.8553 44.7467 64.7953V64.484C44.6048 64.6806 44.4191 64.8307 44.1898 64.9345C43.9659 65.0328 43.6984 65.0819 43.3872 65.0819ZM48.6585 65.0819C48.3964 65.0819 48.1589 65.041 47.9459 64.959C47.7385 64.8717 47.5583 64.7461 47.4054 64.5823C47.258 64.4131 47.1433 64.211 47.0614 63.9763C46.9795 63.736 46.9331 63.463 46.9222 63.1573C46.9167 63.0481 46.914 62.9525 46.914 62.8706C46.914 62.7832 46.9167 62.6877 46.9222 62.5839C46.9331 62.2891 46.9795 62.0243 47.0614 61.7895C47.1433 61.5547 47.258 61.3527 47.4054 61.1835C47.5528 61.0142 47.733 60.8859 47.9459 60.7985C48.1589 60.7057 48.3964 60.6593 48.6585 60.6593C48.9315 60.6593 49.1662 60.7057 49.3628 60.7985C49.5594 60.8859 49.7259 61.0006 49.8624 61.1425V59.3898C49.8624 59.3298 49.8815 59.2807 49.9197 59.2424C49.9579 59.2042 50.0071 59.1851 50.0671 59.1851H51.0663C51.1209 59.1851 51.1673 59.2042 51.2056 59.2424C51.2492 59.2807 51.2711 59.3298 51.2711 59.3898V64.7953C51.2711 64.8553 51.2492 64.9045 51.2056 64.9427C51.1673 64.9809 51.1209 65 51.0663 65H50.1409C50.0808 65 50.0317 64.9809 49.9934 64.9427C49.9552 64.9045 49.9361 64.8553 49.9361 64.7953V64.5332C49.8051 64.6915 49.6358 64.8226 49.4283 64.9263C49.2208 65.03 48.9642 65.0819 48.6585 65.0819ZM49.1007 63.9844C49.2864 63.9844 49.4311 63.9462 49.5348 63.8698C49.644 63.7879 49.7232 63.6841 49.7723 63.5586C49.8269 63.433 49.8569 63.2965 49.8624 63.1491C49.8679 63.0399 49.8706 62.9361 49.8706 62.8378C49.8706 62.7396 49.8679 62.6386 49.8624 62.5348C49.8569 62.3983 49.8269 62.2727 49.7723 62.1581C49.7177 62.038 49.6358 61.9424 49.5266 61.8714C49.4174 61.795 49.2754 61.7568 49.1007 61.7568C48.9205 61.7568 48.7759 61.795 48.6667 61.8714C48.5629 61.9479 48.4892 62.0516 48.4455 62.1826C48.4018 62.3137 48.3745 62.4584 48.3636 62.6167C48.3472 62.786 48.3472 62.9552 48.3636 63.1245C48.3745 63.2828 48.4018 63.4275 48.4455 63.5586C48.4892 63.6896 48.5629 63.7933 48.6667 63.8698C48.7759 63.9462 48.9205 63.9844 49.1007 63.9844Z" fill="#E5E5E5"/>
</g>
<defs>
<filter id="filter0_d_603_1480" x="0" y="0" width="80" height="80" filterUnits="userSpaceOnUse" color-interpolation-filters="sRGB">
<feFlood flood-opacity="0" result="BackgroundImageFix"/>
<feColorMatrix in="SourceAlpha" type="matrix" values="0 0 0 0 0 0 0 0 0 0 0 0 0 0 0 0 0 0 127 0" result="hardAlpha"/>
<feOffset dy="2"/>
<feGaussianBlur stdDeviation="4"/>
<feColorMatrix type="matrix" values="0 0 0 0 0 0 0 0 0 0 0 0 0 0 0 0 0 0 0.75 0"/>
<feBlend mode="normal" in2="BackgroundImageFix" result="effect1_dropShadow_603_1480"/>
<feBlend mode="normal" in="SourceGraphic" in2="effect1_dropShadow_603_1480" result="shape"/>
</filter>
</defs>
</svg>
