<svg width="80" height="80" viewBox="0 0 80 80" fill="none" xmlns="http://www.w3.org/2000/svg">
<g filter="url(#filter0_d_603_624)">
<rect x="8" y="6" width="64" height="64" rx="5" fill="#212529"/>
<path fill-rule="evenodd" clip-rule="evenodd" d="M42.7307 14.6626L49.3025 18.4569C49.4876 18.2609 49.7037 18.0879 49.9489 17.9454C51.3119 17.1619 53.0503 17.6271 53.8419 18.9901C54.6254 20.3531 54.1602 22.0915 52.7973 22.8831C52.5539 23.023 52.2984 23.1231 52.0383 23.1854V30.777C52.2956 30.8394 52.5483 30.9389 52.7891 31.0773C54.1602 31.8689 54.6254 33.6073 53.8338 34.9703C53.0503 36.3333 51.3037 36.7985 49.9408 36.015C49.6694 35.859 49.4336 35.6648 49.2362 35.4431L42.7045 39.2143C42.7979 39.4965 42.8484 39.7983 42.8484 40.112C42.8484 41.679 41.5752 42.9604 40.0001 42.9604C38.4249 42.9604 37.1517 41.6872 37.1517 40.112C37.1517 39.8321 37.1919 39.5616 37.2669 39.3061L30.6969 35.5128C30.5138 35.705 30.3007 35.8748 30.0594 36.015C28.6882 36.7985 26.9498 36.3333 26.1663 34.9703C25.3828 33.6073 25.848 31.8689 27.211 31.0773C27.452 30.9387 27.7047 30.8392 27.9619 30.7768V23.1854C27.7017 23.1231 27.4462 23.023 27.2028 22.8831C25.8399 22.0996 25.3747 20.3531 26.1582 18.9901C26.9417 17.6271 28.6882 17.1619 30.0512 17.9454C30.2951 18.0871 30.5102 18.259 30.6946 18.4537L37.2681 14.6584C37.1924 14.4017 37.1517 14.1299 37.1517 13.8484C37.1517 12.2732 38.4249 11 40.0001 11C41.5752 11 42.8484 12.2732 42.8484 13.8484C42.8484 14.1314 42.8073 14.4047 42.7307 14.6626ZM42.046 15.8317L48.6334 19.635C48.4298 20.3502 48.5046 21.1432 48.9042 21.8385C49.3052 22.536 49.9585 22.9984 50.6834 23.1786V30.7798C50.6465 30.7888 50.6097 30.7986 50.5732 30.8092L41.9695 15.9076C41.9955 15.8828 42.021 15.8575 42.046 15.8317ZM38.0324 15.9093L29.4289 30.8106C29.3917 30.7998 29.3543 30.7898 29.3167 30.7805V23.1786C30.0416 22.9984 30.6949 22.536 31.0959 21.8385C31.4963 21.1418 31.5706 20.3471 31.3654 19.6308L37.951 15.8285C37.9776 15.856 38.0047 15.8829 38.0324 15.9093ZM40.7959 16.5844L49.3975 31.4823C49.205 31.6659 49.0353 31.8797 48.8961 32.1219C48.7577 32.3627 48.6582 32.6155 48.5958 32.8728H31.4044C31.3421 32.6156 31.2426 32.3629 31.104 32.1219C30.9642 31.8813 30.7949 31.6686 30.6034 31.4859L39.2066 16.5851C39.4584 16.6578 39.7246 16.6967 40.0001 16.6967C40.2764 16.6967 40.5434 16.6575 40.7959 16.5844ZM42.1065 38.1931L48.6512 34.4144C48.6315 34.3528 48.614 34.2905 48.5986 34.2276H31.4008C31.3917 34.2645 31.3818 34.3013 31.3713 34.3378L37.948 38.135C38.4659 37.5976 39.1934 37.2637 40.0001 37.2637C40.8354 37.2637 41.5859 37.6218 42.1065 38.1931Z" fill="#E535AB"/>
<path d="M23.1762 61.1024C22.5276 61.1024 21.9678 60.9966 21.4968 60.785C21.0326 60.5665 20.6708 60.2525 20.4114 59.8429C20.1588 59.4265 20.0188 58.9213 19.9915 58.3274C19.9847 58.0338 19.9813 57.7232 19.9813 57.3955C19.9813 57.061 19.9847 56.7436 19.9915 56.4432C20.0188 55.8629 20.1622 55.3714 20.4216 54.9686C20.681 54.5659 21.0462 54.2587 21.5173 54.047C21.9883 53.8354 22.5413 53.7296 23.1762 53.7296C23.6882 53.7296 24.1421 53.7945 24.5381 53.9242C24.934 54.047 25.2651 54.2143 25.5314 54.4259C25.8044 54.6375 26.0092 54.8697 26.1458 55.1222C26.2891 55.3748 26.3642 55.624 26.371 55.8698C26.3779 55.9312 26.3574 55.9824 26.3096 56.0234C26.2686 56.0643 26.2174 56.0848 26.156 56.0848H24.661C24.5859 56.0848 24.5278 56.0746 24.4869 56.0541C24.4527 56.0268 24.422 55.9892 24.3947 55.9414C24.3469 55.839 24.2753 55.7332 24.1797 55.624C24.0909 55.5079 23.9646 55.409 23.8008 55.327C23.6438 55.2451 23.4356 55.2042 23.1762 55.2042C22.787 55.2042 22.4798 55.3066 22.2546 55.5114C22.0361 55.7162 21.9166 56.0438 21.8962 56.4944C21.8757 57.0815 21.8757 57.6754 21.8962 58.2762C21.9166 58.754 22.0429 59.0988 22.275 59.3104C22.5071 59.522 22.8143 59.6278 23.1966 59.6278C23.4561 59.6278 23.6847 59.5835 23.8827 59.4947C24.0875 59.406 24.2479 59.2694 24.364 59.0851C24.4801 58.894 24.5381 58.6516 24.5381 58.3581V58.1635H23.5755C23.5004 58.1635 23.4356 58.1396 23.381 58.0918C23.3332 58.0372 23.3093 57.9724 23.3093 57.8973V57.1395C23.3093 57.0644 23.3332 57.003 23.381 56.9552C23.4356 56.9006 23.5004 56.8733 23.5755 56.8733H26.156C26.2311 56.8733 26.2925 56.9006 26.3403 56.9552C26.3881 57.003 26.412 57.0644 26.412 57.1395V58.3069C26.412 58.894 26.2789 59.3957 26.0126 59.8122C25.7464 60.2286 25.3675 60.5494 24.876 60.7747C24.3913 60.9932 23.8247 61.1024 23.1762 61.1024ZM27.7302 61C27.6551 61 27.5936 60.9761 27.5458 60.9283C27.4981 60.8805 27.4742 60.8191 27.4742 60.744V55.9312C27.4742 55.8629 27.4981 55.8049 27.5458 55.7571C27.5936 55.7025 27.6551 55.6752 27.7302 55.6752H28.9078C28.9829 55.6752 29.0443 55.7025 29.0921 55.7571C29.1399 55.8049 29.1638 55.8629 29.1638 55.9312V56.3408C29.3481 56.1292 29.5665 55.9653 29.8191 55.8493C30.0785 55.7332 30.3687 55.6752 30.6895 55.6752H31.1401C31.2083 55.6752 31.2664 55.6991 31.3142 55.7469C31.3688 55.7947 31.3961 55.8561 31.3961 55.9312V56.9859C31.3961 57.0542 31.3688 57.1156 31.3142 57.1702C31.2664 57.218 31.2083 57.2419 31.1401 57.2419H30.1468C29.8669 57.2419 29.6485 57.3204 29.4914 57.4774C29.3413 57.6276 29.2662 57.8427 29.2662 58.1226V60.744C29.2662 60.8191 29.2389 60.8805 29.1842 60.9283C29.1365 60.9761 29.075 61 28.9999 61H27.7302ZM33.6316 61.1024C33.263 61.1024 32.9319 61.0341 32.6383 60.8976C32.3516 60.7542 32.1229 60.5631 31.9522 60.3242C31.7816 60.0852 31.6962 59.8156 31.6962 59.5152C31.6962 59.0305 31.8942 58.6482 32.2902 58.3683C32.6861 58.0816 33.2118 57.887 33.8671 57.7846L35.1471 57.5901V57.4467C35.1471 57.201 35.0959 57.0132 34.9935 56.8835C34.8911 56.7538 34.7034 56.689 34.4303 56.689C34.2392 56.689 34.0822 56.7265 33.9593 56.8016C33.8432 56.8767 33.7511 56.9791 33.6828 57.1088C33.6214 57.1975 33.536 57.2419 33.4268 57.2419H32.2799C32.2048 57.2419 32.1468 57.2214 32.1058 57.1805C32.0649 57.1327 32.0478 57.0781 32.0546 57.0166C32.0546 56.8938 32.099 56.7538 32.1878 56.5968C32.2833 56.433 32.4267 56.2725 32.6178 56.1155C32.809 55.9585 33.0547 55.8288 33.3551 55.7264C33.6555 55.624 34.0173 55.5728 34.4406 55.5728C34.8843 55.5728 35.2632 55.624 35.5772 55.7264C35.8912 55.8288 36.1438 55.9722 36.335 56.1565C36.5329 56.3408 36.6797 56.5593 36.7753 56.8118C36.8709 57.0576 36.9186 57.3307 36.9186 57.631V60.744C36.9186 60.8191 36.8913 60.8805 36.8367 60.9283C36.7889 60.9761 36.7309 61 36.6626 61H35.4748C35.3997 61 35.3383 60.9761 35.2905 60.9283C35.2427 60.8805 35.2188 60.8191 35.2188 60.744V60.3856C35.1301 60.5153 35.0106 60.6348 34.8604 60.744C34.7102 60.8532 34.5327 60.9386 34.3279 61C34.1299 61.0683 33.8978 61.1024 33.6316 61.1024ZM34.1129 59.935C34.3109 59.935 34.4883 59.8941 34.6454 59.8122C34.8092 59.7234 34.9355 59.5903 35.0242 59.4128C35.1198 59.2285 35.1676 58.9998 35.1676 58.7267V58.5834L34.2972 58.737C33.9763 58.7916 33.7408 58.8769 33.5906 58.993C33.4473 59.1022 33.3756 59.2319 33.3756 59.3821C33.3756 59.4981 33.4097 59.5971 33.478 59.679C33.5463 59.761 33.635 59.8258 33.7442 59.8736C33.8535 59.9146 33.9763 59.935 34.1129 59.935ZM38.3302 62.9456C38.2551 62.9456 38.1936 62.9217 38.1458 62.8739C38.0981 62.8261 38.0742 62.7647 38.0742 62.6896V55.9312C38.0742 55.8561 38.0981 55.7947 38.1458 55.7469C38.1936 55.6991 38.2551 55.6752 38.3302 55.6752H39.4873C39.5555 55.6752 39.6136 55.6991 39.6614 55.7469C39.716 55.7947 39.7433 55.8561 39.7433 55.9312V56.3101C39.9003 56.0985 40.1085 55.9244 40.3679 55.7878C40.6273 55.6445 40.9482 55.5728 41.3305 55.5728C41.6718 55.5728 41.9722 55.6274 42.2316 55.7366C42.491 55.839 42.7129 55.9926 42.8972 56.1974C43.0815 56.4022 43.2249 56.6514 43.3273 56.945C43.4365 57.2385 43.4979 57.5764 43.5116 57.9587C43.5184 58.0953 43.5218 58.2215 43.5218 58.3376C43.5218 58.4537 43.5184 58.5799 43.5116 58.7165C43.4979 59.0851 43.4399 59.4162 43.3375 59.7098C43.2351 60.0033 43.0918 60.2525 42.9074 60.4573C42.7231 60.6621 42.4978 60.8225 42.2316 60.9386C41.9722 61.0478 41.6718 61.1024 41.3305 61.1024C40.996 61.1024 40.7024 61.0444 40.4498 60.9283C40.2041 60.8054 39.9993 60.6348 39.8354 60.4163V62.6896C39.8354 62.7647 39.8115 62.8261 39.7638 62.8739C39.716 62.9217 39.6545 62.9456 39.5794 62.9456H38.3302ZM40.7775 59.7302C41.0096 59.7302 41.1905 59.6825 41.3202 59.5869C41.4499 59.4913 41.5421 59.3616 41.5967 59.1978C41.6582 59.0339 41.6957 58.853 41.7094 58.655C41.723 58.4434 41.723 58.2318 41.7094 58.0202C41.6957 57.8222 41.6582 57.6413 41.5967 57.4774C41.5421 57.3136 41.4499 57.1839 41.3202 57.0883C41.1905 56.9927 41.0096 56.945 40.7775 56.945C40.5522 56.945 40.3713 56.9962 40.2348 57.0986C40.0983 57.1941 39.9993 57.3204 39.9378 57.4774C39.8764 57.6345 39.8423 57.8051 39.8354 57.9894C39.8286 58.1191 39.8252 58.2454 39.8252 58.3683C39.8252 58.4912 39.8286 58.6209 39.8354 58.7574C39.8423 58.9281 39.8798 59.0885 39.9481 59.2387C40.0163 59.3821 40.1187 59.5015 40.2553 59.5971C40.3918 59.6859 40.5659 59.7302 40.7775 59.7302ZM44.7902 61C44.7151 61 44.6536 60.9761 44.6058 60.9283C44.5581 60.8805 44.5342 60.8191 44.5342 60.744V53.9856C44.5342 53.9105 44.5581 53.8491 44.6058 53.8013C44.6536 53.7535 44.7151 53.7296 44.7902 53.7296H46.1009C46.176 53.7296 46.2374 53.7535 46.2852 53.8013C46.333 53.8491 46.3569 53.9105 46.3569 53.9856V56.2691C46.5412 56.0575 46.7665 55.8902 47.0327 55.7674C47.3058 55.6377 47.6198 55.5728 47.9748 55.5728C48.3707 55.5728 48.7223 55.6615 49.0295 55.839C49.3435 56.0165 49.5893 56.2794 49.7668 56.6275C49.9443 56.9689 50.033 57.3887 50.033 57.887V60.744C50.033 60.8191 50.0091 60.8805 49.9614 60.9283C49.9136 60.9761 49.8521 61 49.777 61H48.4561C48.3878 61 48.3264 60.9761 48.2718 60.9283C48.224 60.8805 48.2001 60.8191 48.2001 60.744V57.9485C48.2001 57.6276 48.1216 57.3819 47.9646 57.2112C47.8144 57.0337 47.5891 56.945 47.2887 56.945C47.0088 56.945 46.7835 57.0337 46.6129 57.2112C46.4422 57.3819 46.3569 57.6276 46.3569 57.9485V60.744C46.3569 60.8191 46.333 60.8805 46.2852 60.9283C46.2374 60.9761 46.176 61 46.1009 61H44.7902ZM54.942 62.9456C54.8669 62.9456 54.8055 62.9217 54.7577 62.8739C54.7099 62.8261 54.686 62.7647 54.686 62.6896V60.4163C54.529 60.6348 54.3242 60.8054 54.0716 60.9283C53.819 61.0444 53.5255 61.1024 53.191 61.1024C52.8565 61.1024 52.5561 61.0478 52.2898 60.9386C52.0236 60.8225 51.7983 60.6621 51.614 60.4573C51.4297 60.2525 51.2863 60.0033 51.1839 59.7098C51.0815 59.4162 51.0235 59.0851 51.0098 58.7165C51.003 58.5799 50.9996 58.4537 50.9996 58.3376C50.9996 58.2215 51.003 58.0953 51.0098 57.9587C51.0303 57.5764 51.0918 57.2385 51.1942 56.945C51.2966 56.6514 51.4399 56.4022 51.6242 56.1974C51.8086 55.9926 52.0304 55.839 52.2898 55.7366C52.5561 55.6274 52.8565 55.5728 53.191 55.5728C53.5733 55.5728 53.8941 55.6445 54.1535 55.7878C54.4129 55.9244 54.6211 56.0985 54.7782 56.3101V55.9312C54.7782 55.8561 54.8021 55.7947 54.8498 55.7469C54.9045 55.6991 54.9659 55.6752 55.0342 55.6752H56.1913C56.2664 55.6752 56.3278 55.6991 56.3756 55.7469C56.4234 55.7947 56.4473 55.8561 56.4473 55.9312V62.6896C56.4473 62.7647 56.4234 62.8261 56.3756 62.8739C56.3278 62.9217 56.2664 62.9456 56.1913 62.9456H54.942ZM53.7439 59.7302C53.9555 59.7302 54.1296 59.6859 54.2662 59.5971C54.4027 59.5015 54.5051 59.3821 54.5734 59.2387C54.6416 59.0885 54.6792 58.9281 54.686 58.7574C54.6997 58.6209 54.7065 58.4912 54.7065 58.3683C54.7065 58.2454 54.6997 58.1191 54.686 57.9894C54.6792 57.8051 54.645 57.6345 54.5836 57.4774C54.5222 57.3204 54.4232 57.1941 54.2866 57.0986C54.1501 56.9962 53.9692 56.945 53.7439 56.945C53.5186 56.945 53.3377 56.9927 53.2012 57.0883C53.0715 57.1839 52.9759 57.3136 52.9145 57.4774C52.8599 57.6413 52.8257 57.8222 52.8121 58.0202C52.7984 58.2318 52.7984 58.4434 52.8121 58.655C52.8257 58.853 52.8599 59.0339 52.9145 59.1978C52.9759 59.3616 53.0715 59.4913 53.2012 59.5869C53.3377 59.6825 53.5186 59.7302 53.7439 59.7302ZM57.9102 61C57.8351 61 57.7736 60.9761 57.7258 60.9283C57.6781 60.8805 57.6542 60.8191 57.6542 60.744V53.9856C57.6542 53.9105 57.6781 53.8491 57.7258 53.8013C57.7736 53.7535 57.8351 53.7296 57.9102 53.7296H59.1185C59.1936 53.7296 59.255 53.7535 59.3028 53.8013C59.3506 53.8491 59.3745 53.9105 59.3745 53.9856V60.744C59.3745 60.8191 59.3506 60.8805 59.3028 60.9283C59.255 60.9761 59.1936 61 59.1185 61H57.9102Z" fill="#E5E5E5"/>
</g>
<defs>
<filter id="filter0_d_603_624" x="0" y="0" width="80" height="80" filterUnits="userSpaceOnUse" color-interpolation-filters="sRGB">
<feFlood flood-opacity="0" result="BackgroundImageFix"/>
<feColorMatrix in="SourceAlpha" type="matrix" values="0 0 0 0 0 0 0 0 0 0 0 0 0 0 0 0 0 0 127 0" result="hardAlpha"/>
<feOffset dy="2"/>
<feGaussianBlur stdDeviation="4"/>
<feColorMatrix type="matrix" values="0 0 0 0 0 0 0 0 0 0 0 0 0 0 0 0 0 0 0.75 0"/>
<feBlend mode="normal" in2="BackgroundImageFix" result="effect1_dropShadow_603_624"/>
<feBlend mode="normal" in="SourceGraphic" in2="effect1_dropShadow_603_624" result="shape"/>
</filter>
</defs>
</svg>
