<svg width="80" height="80" viewBox="0 0 80 80" fill="none" xmlns="http://www.w3.org/2000/svg">
<g filter="url(#filter0_d_601_5314)">
<rect x="8" y="6" width="64" height="64" rx="5" fill="#212529"/>
<path d="M30 39L28 14H52L50 39L40 42L30 39Z" fill="#E44D26"/>
<path d="M50 16H40V40.5L48 38L50 16Z" fill="#F16529"/>
<path d="M33.5 28.5L32.5 19H48L47.5 22H35.5L36 25.5H47L46 35L40 37L34 35L33.5 30H36.5L37 32.5L40 33.5L43 32.5L43.5 28.5H33.5Z" fill="white"/>
<path d="M28.4728 61C28.3977 61 28.3363 60.9761 28.2885 60.9283C28.2407 60.8805 28.2168 60.8191 28.2168 60.744V54.088C28.2168 54.0129 28.2407 53.9515 28.2885 53.9037C28.3363 53.8559 28.3977 53.832 28.4728 53.832H29.7938C29.8689 53.832 29.9303 53.8559 29.9781 53.9037C30.0259 53.9515 30.0498 54.0129 30.0498 54.088V56.5558H32.579V54.088C32.579 54.0129 32.6029 53.9515 32.6507 53.9037C32.6985 53.8559 32.7599 53.832 32.835 53.832H34.156C34.2311 53.832 34.2925 53.8559 34.3403 53.9037C34.3881 53.9515 34.412 54.0129 34.412 54.088V60.744C34.412 60.8191 34.3881 60.8805 34.3403 60.9283C34.2925 60.9761 34.2311 61 34.156 61H32.835C32.7599 61 32.6985 60.9761 32.6507 60.9283C32.6029 60.8805 32.579 60.8191 32.579 60.744V58.1942H30.0498V60.744C30.0498 60.8191 30.0259 60.8805 29.9781 60.9283C29.9303 60.9761 29.8689 61 29.7938 61H28.4728ZM38.458 61C38.0211 61 37.6422 60.9317 37.3214 60.7952C37.0073 60.6518 36.765 60.4334 36.5943 60.1398C36.4237 59.8395 36.3383 59.4538 36.3383 58.9827V57.0166H35.5396C35.4645 57.0166 35.3997 56.9927 35.345 56.945C35.2973 56.8972 35.2734 56.8357 35.2734 56.7606V55.9312C35.2734 55.8561 35.2973 55.7947 35.345 55.7469C35.3997 55.6991 35.4645 55.6752 35.5396 55.6752H36.3383V53.9856C36.3383 53.9105 36.3622 53.8491 36.41 53.8013C36.4646 53.7535 36.5261 53.7296 36.5943 53.7296H37.7822C37.8573 53.7296 37.9187 53.7535 37.9665 53.8013C38.0143 53.8491 38.0382 53.9105 38.0382 53.9856V55.6752H39.3182C39.3933 55.6752 39.4547 55.6991 39.5025 55.7469C39.5503 55.7947 39.5742 55.8561 39.5742 55.9312V56.7606C39.5742 56.8357 39.5503 56.8972 39.5025 56.945C39.4547 56.9927 39.3933 57.0166 39.3182 57.0166H38.0382V58.8394C38.0382 59.0715 38.0825 59.2558 38.1713 59.3923C38.26 59.5289 38.4102 59.5971 38.6218 59.5971H39.4103C39.4854 59.5971 39.5469 59.621 39.5946 59.6688C39.6424 59.7166 39.6663 59.778 39.6663 59.8531V60.744C39.6663 60.8191 39.6424 60.8805 39.5946 60.9283C39.5469 60.9761 39.4854 61 39.4103 61H38.458ZM40.7702 61C40.6951 61 40.6336 60.9761 40.5858 60.9283C40.5381 60.8805 40.5142 60.8191 40.5142 60.744V55.9312C40.5142 55.8561 40.5381 55.7947 40.5858 55.7469C40.6336 55.6991 40.6951 55.6752 40.7702 55.6752H41.8863C41.9614 55.6752 42.0229 55.6991 42.0706 55.7469C42.1184 55.7947 42.1423 55.8561 42.1423 55.9312V56.2794C42.2789 56.095 42.47 55.9346 42.7158 55.7981C42.9615 55.6547 43.2517 55.5796 43.5862 55.5728C44.3712 55.5591 44.9105 55.8561 45.2041 56.4637C45.3611 56.2043 45.5864 55.9926 45.8799 55.8288C46.1735 55.6581 46.4943 55.5728 46.8425 55.5728C47.1975 55.5728 47.5149 55.6547 47.7948 55.8186C48.0815 55.9756 48.3102 56.2213 48.4809 56.5558C48.6515 56.8835 48.7369 57.3102 48.7369 57.8358V60.744C48.7369 60.8191 48.7096 60.8805 48.655 60.9283C48.6072 60.9761 48.5491 61 48.4809 61H47.293C47.2179 61 47.1531 60.9761 47.0985 60.9283C47.0507 60.8805 47.0268 60.8191 47.0268 60.744V57.9075C47.0268 57.6686 46.9927 57.4809 46.9244 57.3443C46.8561 57.201 46.764 57.0986 46.6479 57.0371C46.5319 56.9757 46.3987 56.945 46.2486 56.945C46.1257 56.945 46.0028 56.9757 45.8799 57.0371C45.7639 57.0986 45.6683 57.201 45.5932 57.3443C45.5249 57.4809 45.4908 57.6686 45.4908 57.9075V60.744C45.4908 60.8191 45.4669 60.8805 45.4191 60.9283C45.3713 60.9761 45.3099 61 45.2348 61H44.047C43.9719 61 43.9104 60.9761 43.8626 60.9283C43.8149 60.8805 43.791 60.8191 43.791 60.744V57.9075C43.791 57.6686 43.7534 57.4809 43.6783 57.3443C43.6032 57.201 43.5077 57.0986 43.3916 57.0371C43.2755 56.9757 43.1458 56.945 43.0025 56.945C42.8796 56.945 42.7567 56.9757 42.6338 57.0371C42.5178 57.0986 42.4222 57.201 42.3471 57.3443C42.2789 57.4809 42.2447 57.6652 42.2447 57.8973V60.744C42.2447 60.8191 42.2174 60.8805 42.1628 60.9283C42.115 60.9761 42.0536 61 41.9785 61H40.7702ZM50.1402 61C50.0651 61 50.0036 60.9761 49.9558 60.9283C49.9081 60.8805 49.8842 60.8191 49.8842 60.744V53.9856C49.8842 53.9105 49.9081 53.8491 49.9558 53.8013C50.0036 53.7535 50.0651 53.7296 50.1402 53.7296H51.3485C51.4236 53.7296 51.485 53.7535 51.5328 53.8013C51.5806 53.8491 51.6045 53.9105 51.6045 53.9856V60.744C51.6045 60.8191 51.5806 60.8805 51.5328 60.9283C51.485 60.9761 51.4236 61 51.3485 61H50.1402Z" fill="#E5E5E5"/>
</g>
<defs>
<filter id="filter0_d_601_5314" x="0" y="0" width="80" height="80" filterUnits="userSpaceOnUse" color-interpolation-filters="sRGB">
<feFlood flood-opacity="0" result="BackgroundImageFix"/>
<feColorMatrix in="SourceAlpha" type="matrix" values="0 0 0 0 0 0 0 0 0 0 0 0 0 0 0 0 0 0 127 0" result="hardAlpha"/>
<feOffset dy="2"/>
<feGaussianBlur stdDeviation="4"/>
<feColorMatrix type="matrix" values="0 0 0 0 0 0 0 0 0 0 0 0 0 0 0 0 0 0 0.75 0"/>
<feBlend mode="normal" in2="BackgroundImageFix" result="effect1_dropShadow_601_5314"/>
<feBlend mode="normal" in="SourceGraphic" in2="effect1_dropShadow_601_5314" result="shape"/>
</filter>
</defs>
</svg>
