<svg width="80" height="80" viewBox="0 0 80 80" fill="none" xmlns="http://www.w3.org/2000/svg">
<g filter="url(#filter0_d_602_849)">
<rect x="8" y="6" width="64" height="64" rx="5" fill="#212529"/>
<path d="M41.4439 14.9161C42.7812 15.4494 43.3106 17.5561 42.6106 19.6348C41.9186 21.7041 40.2839 22.9641 38.9412 22.4401C37.6079 21.9214 37.0692 19.8108 37.7572 17.7254C38.4399 15.6494 40.0946 14.4014 41.4439 14.9161ZM48.9239 19.2348C50.0546 20.1521 49.7906 22.2041 48.3559 23.8441C46.8826 25.4774 44.7959 26.0708 43.6706 25.1708C42.5332 24.2641 42.8079 22.2174 44.2639 20.5894C45.7172 18.9441 47.8026 18.3494 48.9239 19.2348ZM33.0679 16.4961C34.5572 16.6721 35.6412 18.5401 35.5519 20.6508C35.3919 22.7628 34.1186 24.3428 32.6399 24.1721C31.1626 24.0028 30.0826 22.1521 30.2039 20.0321C30.3266 17.9121 31.6279 16.3348 33.0679 16.4961ZM51.8999 27.3694C52.7612 28.5361 52.0465 30.4521 50.2705 31.6174C48.4945 32.7828 46.3532 32.7734 45.4666 31.5774C44.5812 30.3828 45.3119 28.4894 47.0612 27.2948C48.8452 26.1628 51.0039 26.1681 51.9012 27.3694M43.6412 37.6388C43.1159 38.6468 41.7346 39.2988 40.5986 39.1881C38.2306 38.9641 37.0386 35.9054 34.9586 34.7028C32.8759 33.5014 29.5679 34.0601 28.2652 32.0668C27.5132 30.9494 27.5772 29.1734 28.3652 28.1214C29.4532 26.6708 31.8092 26.9161 33.5772 26.4148C35.9039 25.7921 38.5506 23.6241 40.6546 24.8374C42.7466 26.0454 42.2786 29.4161 42.8146 31.7494C43.2399 33.6961 44.5532 35.8908 43.6412 37.6388Z" fill="white"/>
<path d="M27.7781 60C27.718 60 27.6689 59.9809 27.6306 59.9427C27.5924 59.9045 27.5733 59.8553 27.5733 59.7953V54.4718C27.5733 54.4117 27.5924 54.3625 27.6306 54.3243C27.6689 54.2861 27.718 54.267 27.7781 54.267H28.8346C28.8946 54.267 28.9438 54.2861 28.982 54.3243C29.0202 54.3625 29.0393 54.4117 29.0393 54.4718V56.4455H31.0622V54.4718C31.0622 54.4117 31.0813 54.3625 31.1196 54.3243C31.1578 54.2861 31.2069 54.267 31.267 54.267H32.3235C32.3836 54.267 32.4327 54.2861 32.4709 54.3243C32.5091 54.3625 32.5282 54.4117 32.5282 54.4718V59.7953C32.5282 59.8553 32.5091 59.9045 32.4709 59.9427C32.4327 59.9809 32.3836 60 32.3235 60H31.267C31.2069 60 31.1578 59.9809 31.1196 59.9427C31.0813 59.9045 31.0622 59.8553 31.0622 59.7953V57.7559H29.0393V59.7953C29.0393 59.8553 29.0202 59.9045 28.982 59.9427C28.9438 59.9809 28.8946 60 28.8346 60H27.7781ZM35.15 60.0819C34.8388 60.0819 34.5603 60.0109 34.3146 59.869C34.0744 59.727 33.886 59.5195 33.7495 59.2465C33.613 58.9681 33.5448 58.6295 33.5448 58.231V55.9459C33.5448 55.8859 33.5639 55.8367 33.6021 55.7985C33.6403 55.7603 33.6895 55.7412 33.7495 55.7412H34.7733C34.8333 55.7412 34.8825 55.7603 34.9207 55.7985C34.9589 55.8367 34.978 55.8859 34.978 55.9459V58.1818C34.978 58.7169 35.2183 58.9844 35.6987 58.9844C35.9226 58.9844 36.1 58.9162 36.2311 58.7797C36.3676 58.6377 36.4358 58.4384 36.4358 58.1818V55.9459C36.4358 55.8859 36.4549 55.8367 36.4932 55.7985C36.5314 55.7603 36.5805 55.7412 36.6406 55.7412H37.6643C37.7244 55.7412 37.7735 55.7603 37.8118 55.7985C37.85 55.8367 37.8691 55.8859 37.8691 55.9459V59.7953C37.8691 59.8553 37.85 59.9045 37.8118 59.9427C37.7735 59.9809 37.7244 60 37.6643 60H36.7143C36.6597 60 36.6106 59.9809 36.5669 59.9427C36.5287 59.9045 36.5095 59.8553 36.5095 59.7953V59.484C36.3676 59.6806 36.1819 59.8307 35.9526 59.9345C35.7288 60.0328 35.4612 60.0819 35.15 60.0819ZM40.5851 60.0819C40.2302 60.0819 39.9272 60.0437 39.676 59.9672C39.4303 59.8853 39.2283 59.7871 39.0699 59.6724C38.9171 59.5577 38.8024 59.4403 38.726 59.3202C38.6495 59.1946 38.6086 59.0882 38.6031 59.0008C38.5977 58.9408 38.6168 58.8916 38.6604 58.8534C38.7041 58.8097 38.7505 58.7879 38.7997 58.7879H39.7333C39.7497 58.7879 39.7634 58.7906 39.7743 58.7961C39.7852 58.8015 39.8016 58.8124 39.8234 58.8288C39.8944 58.867 39.9654 58.9162 40.0364 58.9763C40.1073 59.0309 40.1892 59.08 40.2821 59.1237C40.3749 59.1673 40.4868 59.1892 40.6179 59.1892C40.7707 59.1892 40.899 59.1592 41.0028 59.0991C41.1065 59.039 41.1584 58.9489 41.1584 58.8288C41.1584 58.7415 41.1338 58.6705 41.0847 58.6159C41.0355 58.5558 40.9345 58.4985 40.7817 58.4439C40.6342 58.3893 40.4104 58.3347 40.1101 58.2801C39.8262 58.2146 39.5777 58.1299 39.3648 58.0262C39.1518 57.917 38.988 57.7778 38.8734 57.6085C38.7587 57.4338 38.7014 57.2236 38.7014 56.9779C38.7014 56.7595 38.7724 56.5493 38.9143 56.3473C39.0563 56.1452 39.2638 55.9814 39.5368 55.8559C39.8098 55.7248 40.1456 55.6593 40.5441 55.6593C40.8608 55.6593 41.1338 55.6975 41.3631 55.774C41.5979 55.8449 41.7945 55.9378 41.9528 56.0524C42.1166 56.1671 42.2395 56.2845 42.3214 56.4046C42.4033 56.5247 42.447 56.6339 42.4524 56.7322C42.4579 56.7868 42.4415 56.8359 42.4033 56.8796C42.3651 56.9178 42.3214 56.9369 42.2722 56.9369H41.4205C41.3986 56.9369 41.3768 56.9342 41.355 56.9287C41.3331 56.9178 41.314 56.9069 41.2976 56.896C41.2321 56.8632 41.1666 56.8196 41.1011 56.765C41.0355 56.7103 40.9591 56.6612 40.8717 56.6175C40.7844 56.5738 40.6752 56.552 40.5441 56.552C40.3967 56.552 40.2821 56.5848 40.2002 56.6503C40.1183 56.7158 40.0773 56.8004 40.0773 56.9042C40.0773 56.9752 40.0992 57.0407 40.1428 57.1007C40.192 57.1608 40.2875 57.2154 40.4295 57.2645C40.5769 57.3137 40.8035 57.3683 41.1093 57.4283C41.486 57.4884 41.7863 57.5867 42.0102 57.7232C42.234 57.8542 42.3924 58.0098 42.4852 58.19C42.578 58.3647 42.6244 58.5504 42.6244 58.7469C42.6244 59.009 42.5452 59.2411 42.3869 59.4431C42.234 59.6451 42.0047 59.8034 41.6989 59.9181C41.3932 60.0273 41.0219 60.0819 40.5851 60.0819ZM43.5641 60C43.504 60 43.4549 59.9809 43.4167 59.9427C43.3784 59.9045 43.3593 59.8553 43.3593 59.7953V54.3898C43.3593 54.3298 43.3784 54.2807 43.4167 54.2424C43.4549 54.2042 43.504 54.1851 43.5641 54.1851H44.5141C44.5687 54.1851 44.6151 54.2042 44.6534 54.2424C44.697 54.2807 44.7189 54.3298 44.7189 54.3898V57.1335L45.8573 55.8804C45.89 55.8422 45.9255 55.8094 45.9638 55.7821C46.002 55.7548 46.0566 55.7412 46.1276 55.7412H47.225C47.2742 55.7412 47.3151 55.7603 47.3479 55.7985C47.3861 55.8313 47.4052 55.8722 47.4052 55.9214C47.4052 55.9432 47.3997 55.9678 47.3888 55.9951C47.3779 56.0224 47.3615 56.0442 47.3397 56.0606L45.8655 57.6495L47.5444 59.6888C47.5881 59.7325 47.6099 59.7761 47.6099 59.8198C47.6099 59.869 47.5908 59.9126 47.5526 59.9509C47.5199 59.9836 47.4762 60 47.4216 60H46.2995C46.2176 60 46.1576 59.9863 46.1194 59.959C46.0811 59.9263 46.0457 59.8935 46.0129 59.8608L44.7189 58.3047V59.7953C44.7189 59.8553 44.697 59.9045 44.6534 59.9427C44.6151 59.9809 44.5687 60 44.5141 60H43.5641ZM48.9366 61.5561C48.8875 61.5561 48.8465 61.5397 48.8137 61.507C48.781 61.4742 48.7646 61.4332 48.7646 61.3841C48.7646 61.3732 48.7646 61.3568 48.7646 61.335C48.7701 61.3186 48.7783 61.2995 48.7892 61.2776L49.428 59.7379L47.8555 56.0197C47.8391 55.9814 47.8309 55.9487 47.8309 55.9214C47.8419 55.8722 47.8637 55.8313 47.8965 55.7985C47.9292 55.7603 47.9702 55.7412 48.0193 55.7412H48.953C49.024 55.7412 49.0758 55.7603 49.1086 55.7985C49.1468 55.8313 49.1714 55.8695 49.1823 55.9132L50.1241 58.2965L51.0824 55.9132C51.1042 55.8695 51.1315 55.8313 51.1643 55.7985C51.2025 55.7603 51.2571 55.7412 51.3281 55.7412H52.2454C52.2945 55.7412 52.3354 55.7603 52.3682 55.7985C52.4064 55.8313 52.4255 55.8695 52.4255 55.9132C52.4255 55.9405 52.4173 55.976 52.401 56.0197L50.0832 61.3841C50.0668 61.4278 50.0395 61.466 50.0013 61.4988C49.9631 61.537 49.9085 61.5561 49.8375 61.5561H48.9366Z" fill="#E5E5E5"/>
</g>
<defs>
<filter id="filter0_d_602_849" x="0" y="0" width="80" height="80" filterUnits="userSpaceOnUse" color-interpolation-filters="sRGB">
<feFlood flood-opacity="0" result="BackgroundImageFix"/>
<feColorMatrix in="SourceAlpha" type="matrix" values="0 0 0 0 0 0 0 0 0 0 0 0 0 0 0 0 0 0 127 0" result="hardAlpha"/>
<feOffset dy="2"/>
<feGaussianBlur stdDeviation="4"/>
<feColorMatrix type="matrix" values="0 0 0 0 0 0 0 0 0 0 0 0 0 0 0 0 0 0 0.75 0"/>
<feBlend mode="normal" in2="BackgroundImageFix" result="effect1_dropShadow_602_849"/>
<feBlend mode="normal" in="SourceGraphic" in2="effect1_dropShadow_602_849" result="shape"/>
</filter>
</defs>
</svg>
