<svg width="80" height="80" viewBox="0 0 80 80" fill="none" xmlns="http://www.w3.org/2000/svg">
<g filter="url(#filter0_d_601_4942)">
<rect x="8" y="6" width="64" height="64" rx="5" fill="#212529"/>
<g clip-path="url(#clip0_601_4942)">
<path d="M51.2 11H28.8C26.149 11 24 13.149 24 15.8V38.2C24 40.851 26.149 43 28.8 43H51.2C53.851 43 56 40.851 56 38.2V15.8C56 13.149 53.851 11 51.2 11Z" fill="#F7DF1E"/>
<path d="M44.25 34.125C44.875 35.1875 45.75 35.9375 47.1875 35.9375C48.4375 35.9375 49.25 35.3125 49.25 34.4375C49.25 33.4375 48.4375 33.0625 47.0625 32.4375L46.3125 32.125C44.125 31.1875 42.6875 30.0625 42.6875 27.625C42.6875 25.375 44.375 23.625 47.0625 23.625C49 23.625 50.375 24.3125 51.3125 26.0625L49 27.5625C48.5 26.625 47.9375 26.25 47.0625 26.25C46.1875 26.25 45.625 26.8125 45.625 27.5625C45.625 28.4375 46.1875 28.8125 47.5 29.375L48.25 29.6875C50.8125 30.8125 52.25 31.875 52.25 34.4375C52.25 37.125 50.125 38.625 47.25 38.625C44.4375 38.625 42.625 37.3125 41.75 35.5625L44.25 34.125ZM33.625 34.375C34.125 35.1875 34.5 35.9375 35.5625 35.9375C36.5625 35.9375 37.1875 35.5625 37.1875 34.0625V23.6875H40.1875V33.9375C40.1875 37.0625 38.375 38.4375 35.6875 38.4375C33.25 38.4375 31.875 37.1875 31.1875 35.6875L33.625 34.375Z" fill="black"/>
</g>
<path d="M20.0553 60.0819C19.7441 60.0819 19.4465 60.0437 19.1626 59.9672C18.8841 59.8853 18.6357 59.7652 18.4173 59.6069C18.1989 59.4485 18.0242 59.252 17.8931 59.0172C17.7675 58.7824 17.6993 58.5094 17.6884 58.1982C17.6884 58.1491 17.7048 58.1081 17.7375 58.0753C17.7703 58.0371 17.8139 58.018 17.8685 58.018H18.9742C19.0506 58.018 19.108 58.0371 19.1462 58.0753C19.1899 58.1136 19.2254 58.1709 19.2527 58.2473C19.28 58.4002 19.3318 58.5258 19.4083 58.6241C19.4847 58.7169 19.5803 58.7879 19.6949 58.837C19.815 58.8807 19.9488 58.9025 20.0962 58.9025C20.3692 58.9025 20.5794 58.8152 20.7269 58.6405C20.8743 58.4603 20.948 58.1982 20.948 57.8542V55.4873H18.2944C18.2398 55.4873 18.1907 55.4682 18.147 55.43C18.1088 55.3918 18.0897 55.3426 18.0897 55.2826V54.4718C18.0897 54.4117 18.1088 54.3625 18.147 54.3243C18.1907 54.2861 18.2398 54.267 18.2944 54.267H22.2584C22.3184 54.267 22.3676 54.2861 22.4058 54.3243C22.4495 54.3625 22.4713 54.4117 22.4713 54.4718V57.8952C22.4713 58.3702 22.3676 58.7715 22.1601 59.0991C21.9526 59.4212 21.6687 59.6669 21.3084 59.8362C20.948 60 20.5303 60.0819 20.0553 60.0819ZM24.7315 60.0819C24.4367 60.0819 24.1719 60.0273 23.9371 59.9181C23.7078 59.8034 23.5249 59.6506 23.3884 59.4595C23.2519 59.2684 23.1836 59.0527 23.1836 58.8124C23.1836 58.4248 23.3419 58.119 23.6586 57.8952C23.9753 57.6658 24.3957 57.5102 24.9199 57.4283L25.9436 57.2727V57.1581C25.9436 56.9615 25.9027 56.8114 25.8208 56.7076C25.7389 56.6039 25.5887 56.552 25.3703 56.552C25.2175 56.552 25.0919 56.582 24.9936 56.6421C24.9008 56.7022 24.8271 56.7841 24.7725 56.8878C24.7233 56.9588 24.6551 56.9943 24.5677 56.9943H23.6504C23.5904 56.9943 23.544 56.9779 23.5112 56.9451C23.4784 56.9069 23.4648 56.8632 23.4703 56.8141C23.4703 56.7158 23.5057 56.6039 23.5767 56.4783C23.6532 56.3473 23.7678 56.2189 23.9207 56.0934C24.0736 55.9678 24.2701 55.8641 24.5104 55.7821C24.7506 55.7002 25.04 55.6593 25.3785 55.6593C25.7334 55.6593 26.0365 55.7002 26.2876 55.7821C26.5388 55.8641 26.7408 55.9787 26.8937 56.1261C27.052 56.2736 27.1694 56.4483 27.2458 56.6503C27.3223 56.8468 27.3605 57.0652 27.3605 57.3055V59.7953C27.3605 59.8553 27.3387 59.9045 27.295 59.9427C27.2568 59.9809 27.2104 60 27.1558 60H26.2057C26.1457 60 26.0965 59.9809 26.0583 59.9427C26.0201 59.9045 26.001 59.8553 26.001 59.7953V59.5086C25.93 59.6123 25.8344 59.7079 25.7143 59.7953C25.5942 59.8826 25.4522 59.9509 25.2884 60C25.1301 60.0546 24.9445 60.0819 24.7315 60.0819ZM25.1164 59.1482C25.2748 59.1482 25.4167 59.1155 25.5423 59.05C25.6734 58.979 25.7744 58.8725 25.8454 58.7306C25.9218 58.5831 25.96 58.4002 25.96 58.1818V58.0672L25.2639 58.19C25.0072 58.2337 24.8189 58.3019 24.6988 58.3948C24.5841 58.4821 24.5268 58.5859 24.5268 58.706C24.5268 58.7988 24.5541 58.878 24.6087 58.9435C24.6633 59.009 24.7342 59.0609 24.8216 59.0991C24.909 59.1319 25.0072 59.1482 25.1164 59.1482ZM29.6799 60C29.598 60 29.5379 59.9809 29.4997 59.9427C29.4615 59.899 29.4287 59.8499 29.4014 59.7953L27.8535 55.9951C27.8426 55.9732 27.8371 55.9487 27.8371 55.9214C27.8371 55.8722 27.8535 55.8313 27.8863 55.7985C27.9245 55.7603 27.9709 55.7412 28.0255 55.7412H28.951C29.0219 55.7412 29.0765 55.7603 29.1148 55.7985C29.153 55.8367 29.1776 55.875 29.1885 55.9132L30.1139 58.4275L31.0476 55.9132C31.0585 55.875 31.0831 55.8367 31.1213 55.7985C31.1595 55.7603 31.2141 55.7412 31.2851 55.7412H32.2106C32.2597 55.7412 32.3034 55.7603 32.3416 55.7985C32.3798 55.8313 32.399 55.8722 32.399 55.9214C32.399 55.9487 32.3935 55.9732 32.3826 55.9951L30.8347 59.7953C30.8128 59.8499 30.7801 59.899 30.7364 59.9427C30.6982 59.9809 30.6354 60 30.548 60H29.6799ZM34.1292 60.0819C33.8344 60.0819 33.5696 60.0273 33.3348 59.9181C33.1055 59.8034 32.9226 59.6506 32.7861 59.4595C32.6496 59.2684 32.5813 59.0527 32.5813 58.8124C32.5813 58.4248 32.7396 58.119 33.0563 57.8952C33.373 57.6658 33.7934 57.5102 34.3176 57.4283L35.3413 57.2727V57.1581C35.3413 56.9615 35.3004 56.8114 35.2185 56.7076C35.1366 56.6039 34.9864 56.552 34.768 56.552C34.6152 56.552 34.4896 56.582 34.3913 56.6421C34.2985 56.7022 34.2248 56.7841 34.1702 56.8878C34.121 56.9588 34.0528 56.9943 33.9654 56.9943H33.0481C32.9881 56.9943 32.9417 56.9779 32.9089 56.9451C32.8761 56.9069 32.8625 56.8632 32.868 56.8141C32.868 56.7158 32.9034 56.6039 32.9744 56.4783C33.0509 56.3473 33.1655 56.2189 33.3184 56.0934C33.4713 55.9678 33.6678 55.8641 33.9081 55.7821C34.1483 55.7002 34.4377 55.6593 34.7762 55.6593C35.1311 55.6593 35.4342 55.7002 35.6853 55.7821C35.9365 55.8641 36.1385 55.9787 36.2914 56.1261C36.4497 56.2736 36.5671 56.4483 36.6435 56.6503C36.72 56.8468 36.7582 57.0652 36.7582 57.3055V59.7953C36.7582 59.8553 36.7364 59.9045 36.6927 59.9427C36.6545 59.9809 36.6081 60 36.5535 60H35.6034C35.5434 60 35.4942 59.9809 35.456 59.9427C35.4178 59.9045 35.3987 59.8553 35.3987 59.7953V59.5086C35.3277 59.6123 35.2321 59.7079 35.112 59.7953C34.9919 59.8826 34.8499 59.9509 34.6861 60C34.5278 60.0546 34.3422 60.0819 34.1292 60.0819ZM34.5141 59.1482C34.6725 59.1482 34.8144 59.1155 34.94 59.05C35.0711 58.979 35.1721 58.8725 35.2431 58.7306C35.3195 58.5831 35.3577 58.4002 35.3577 58.1818V58.0672L34.6616 58.19C34.4049 58.2337 34.2166 58.3019 34.0965 58.3948C33.9818 58.4821 33.9245 58.5859 33.9245 58.706C33.9245 58.7988 33.9518 58.878 34.0064 58.9435C34.061 59.009 34.1319 59.0609 34.2193 59.0991C34.3067 59.1319 34.4049 59.1482 34.5141 59.1482ZM39.4351 60.0819C39.0802 60.0819 38.7771 60.0437 38.526 59.9672C38.2803 59.8853 38.0782 59.7871 37.9199 59.6724C37.767 59.5577 37.6524 59.4403 37.5759 59.3202C37.4995 59.1946 37.4585 59.0882 37.4531 59.0008C37.4476 58.9408 37.4667 58.8916 37.5104 58.8534C37.5541 58.8097 37.6005 58.7879 37.6496 58.7879H38.5833C38.5997 58.7879 38.6133 58.7906 38.6242 58.7961C38.6352 58.8015 38.6515 58.8124 38.6734 58.8288C38.7444 58.867 38.8153 58.9162 38.8863 58.9763C38.9573 59.0309 39.0392 59.08 39.132 59.1237C39.2248 59.1673 39.3368 59.1892 39.4678 59.1892C39.6207 59.1892 39.749 59.1592 39.8527 59.0991C39.9565 59.039 40.0084 58.9489 40.0084 58.8288C40.0084 58.7415 39.9838 58.6705 39.9346 58.6159C39.8855 58.5558 39.7845 58.4985 39.6316 58.4439C39.4842 58.3893 39.2603 58.3347 38.96 58.2801C38.6761 58.2146 38.4277 58.1299 38.2147 58.0262C38.0018 57.917 37.838 57.7778 37.7233 57.6085C37.6087 57.4338 37.5514 57.2236 37.5514 56.9779C37.5514 56.7595 37.6223 56.5493 37.7643 56.3473C37.9063 56.1452 38.1137 55.9814 38.3867 55.8559C38.6597 55.7248 38.9955 55.6593 39.3941 55.6593C39.7108 55.6593 39.9838 55.6975 40.2131 55.774C40.4479 55.8449 40.6444 55.9378 40.8028 56.0524C40.9666 56.1671 41.0894 56.2845 41.1713 56.4046C41.2532 56.5247 41.2969 56.6339 41.3024 56.7322C41.3078 56.7868 41.2915 56.8359 41.2532 56.8796C41.215 56.9178 41.1713 56.9369 41.1222 56.9369H40.2704C40.2486 56.9369 40.2268 56.9342 40.2049 56.9287C40.1831 56.9178 40.164 56.9069 40.1476 56.896C40.0821 56.8632 40.0165 56.8196 39.951 56.765C39.8855 56.7103 39.8091 56.6612 39.7217 56.6175C39.6343 56.5738 39.5251 56.552 39.3941 56.552C39.2467 56.552 39.132 56.5848 39.0501 56.6503C38.9682 56.7158 38.9273 56.8004 38.9273 56.9042C38.9273 56.9752 38.9491 57.0407 38.9928 57.1007C39.0419 57.1608 39.1375 57.2154 39.2794 57.2645C39.4269 57.3137 39.6535 57.3683 39.9592 57.4283C40.336 57.4884 40.6363 57.5867 40.8601 57.7232C41.084 57.8542 41.2423 58.0098 41.3351 58.19C41.428 58.3647 41.4744 58.5504 41.4744 58.7469C41.4744 59.009 41.3952 59.2411 41.2369 59.4431C41.084 59.6451 40.8547 59.8034 40.5489 59.9181C40.2431 60.0273 39.8719 60.0819 39.4351 60.0819ZM44.1667 60.0819C43.7627 60.0819 43.405 60.0082 43.0938 59.8608C42.7826 59.7133 42.5342 59.5004 42.3485 59.2219C42.1683 58.938 42.0701 58.5995 42.0537 58.2064C42.0482 58.119 42.0455 58.0098 42.0455 57.8788C42.0455 57.7423 42.0482 57.6304 42.0537 57.543C42.0701 57.1444 42.1683 56.8059 42.3485 56.5274C42.5287 56.2435 42.7744 56.0279 43.0856 55.8804C43.4023 55.733 43.7627 55.6593 44.1667 55.6593C44.5434 55.6593 44.8656 55.7139 45.1331 55.8231C45.4007 55.9268 45.6191 56.0579 45.7883 56.2162C45.9576 56.3746 46.0832 56.5384 46.1651 56.7076C46.2524 56.8714 46.2988 57.0161 46.3043 57.1417C46.3098 57.1963 46.2906 57.2454 46.247 57.2891C46.2033 57.3273 46.1541 57.3464 46.0995 57.3464H45.0594C44.9994 57.3464 44.9529 57.3328 44.9202 57.3055C44.8874 57.2782 44.8574 57.2372 44.8301 57.1826C44.7646 57.0134 44.6799 56.8933 44.5762 56.8223C44.4779 56.7513 44.3496 56.7158 44.1913 56.7158C43.9729 56.7158 43.8036 56.7868 43.6835 56.9287C43.5688 57.0707 43.506 57.2891 43.4951 57.5839C43.4897 57.8023 43.4897 57.9962 43.4951 58.1654C43.506 58.4657 43.5688 58.6841 43.6835 58.8206C43.8036 58.9571 43.9729 59.0254 44.1913 59.0254C44.3605 59.0254 44.4943 58.9899 44.5926 58.9189C44.6909 58.8479 44.77 58.7278 44.8301 58.5586C44.8574 58.504 44.8874 58.463 44.9202 58.4357C44.9529 58.4084 44.9994 58.3948 45.0594 58.3948H46.0995C46.1541 58.3948 46.2033 58.4166 46.247 58.4603C46.2906 58.4985 46.3098 58.5449 46.3043 58.5995C46.2988 58.6923 46.2715 58.8015 46.2224 58.9271C46.1733 59.0472 46.0968 59.1755 45.9931 59.312C45.8893 59.4485 45.7528 59.5768 45.5836 59.697C45.4198 59.8116 45.2205 59.9045 44.9857 59.9754C44.7509 60.0464 44.4779 60.0819 44.1667 60.0819ZM47.2449 60C47.1848 60 47.1357 59.9809 47.0974 59.9427C47.0592 59.9045 47.0401 59.8553 47.0401 59.7953V55.9459C47.0401 55.8914 47.0592 55.8449 47.0974 55.8067C47.1357 55.763 47.1848 55.7412 47.2449 55.7412H48.1867C48.2468 55.7412 48.2959 55.763 48.3341 55.8067C48.3724 55.8449 48.3915 55.8914 48.3915 55.9459V56.2736C48.5389 56.1043 48.7136 55.9732 48.9156 55.8804C49.1231 55.7876 49.3552 55.7412 49.6118 55.7412H49.9721C50.0267 55.7412 50.0731 55.7603 50.1114 55.7985C50.155 55.8367 50.1769 55.8859 50.1769 55.9459V56.7895C50.1769 56.8441 50.155 56.8933 50.1114 56.9369C50.0731 56.9752 50.0267 56.9943 49.9721 56.9943H49.1777C48.9538 56.9943 48.7791 57.0571 48.6535 57.1826C48.5334 57.3028 48.4734 57.4747 48.4734 57.6986V59.7953C48.4734 59.8553 48.4515 59.9045 48.4078 59.9427C48.3696 59.9809 48.3205 60 48.2604 60H47.2449ZM50.964 60C50.9039 60 50.8548 59.9809 50.8165 59.9427C50.7783 59.9045 50.7592 59.8553 50.7592 59.7953V55.9459C50.7592 55.8859 50.7783 55.8367 50.8165 55.7985C50.8548 55.7603 50.9039 55.7412 50.964 55.7412H51.9304C51.985 55.7412 52.0314 55.7603 52.0696 55.7985C52.1133 55.8367 52.1351 55.8859 52.1351 55.9459V59.7953C52.1351 59.8553 52.1133 59.9045 52.0696 59.9427C52.0314 59.9809 51.985 60 51.9304 60H50.964ZM50.9558 55.127C50.8957 55.127 50.8466 55.1078 50.8083 55.0696C50.7701 55.0314 50.751 54.9823 50.751 54.9222V54.1933C50.751 54.1332 50.7701 54.0841 50.8083 54.0459C50.8466 54.0022 50.8957 53.9804 50.9558 53.9804H51.9304C51.9904 53.9804 52.0396 54.0022 52.0778 54.0459C52.1215 54.0841 52.1433 54.1332 52.1433 54.1933V54.9222C52.1433 54.9823 52.1215 55.0314 52.0778 55.0696C52.0396 55.1078 51.9904 55.127 51.9304 55.127H50.9558ZM53.5553 61.5561C53.4953 61.5561 53.4461 61.537 53.4079 61.4988C53.3697 61.4606 53.3506 61.4114 53.3506 61.3513V55.9459C53.3506 55.8859 53.3697 55.8367 53.4079 55.7985C53.4461 55.7603 53.4953 55.7412 53.5553 55.7412H54.4808C54.5354 55.7412 54.5818 55.7603 54.62 55.7985C54.6637 55.8367 54.6855 55.8859 54.6855 55.9459V56.249C54.8111 56.0797 54.9777 55.9405 55.1851 55.8313C55.3926 55.7166 55.6492 55.6593 55.955 55.6593C56.228 55.6593 56.4682 55.703 56.6757 55.7903C56.8832 55.8722 57.0606 55.9951 57.2081 56.1589C57.3555 56.3227 57.4701 56.522 57.552 56.7568C57.6394 56.9915 57.6885 57.2618 57.6995 57.5676C57.7049 57.6768 57.7077 57.7778 57.7077 57.8706C57.7077 57.9634 57.7049 58.0644 57.6995 58.1736C57.6885 58.4685 57.6421 58.7333 57.5602 58.9681C57.4783 59.2028 57.3637 59.4021 57.2163 59.5659C57.0688 59.7297 56.8887 59.858 56.6757 59.9509C56.4682 60.0382 56.228 60.0819 55.955 60.0819C55.6875 60.0819 55.4527 60.0355 55.2507 59.9427C55.0541 59.8444 54.8903 59.7079 54.7593 59.5332V61.3513C54.7593 61.4114 54.7401 61.4606 54.7019 61.4988C54.6637 61.537 54.6146 61.5561 54.5545 61.5561H53.5553ZM55.5127 58.9844C55.6984 58.9844 55.8431 58.9462 55.9468 58.8698C56.0505 58.7933 56.1243 58.6896 56.1679 58.5586C56.2171 58.4275 56.2471 58.2828 56.258 58.1245C56.2689 57.9552 56.2689 57.786 56.258 57.6167C56.2471 57.4584 56.2171 57.3137 56.1679 57.1826C56.1243 57.0516 56.0505 56.9479 55.9468 56.8714C55.8431 56.795 55.6984 56.7568 55.5127 56.7568C55.3326 56.7568 55.1879 56.7977 55.0787 56.8796C54.9695 56.9561 54.8903 57.0571 54.8412 57.1826C54.792 57.3082 54.7647 57.4447 54.7593 57.5921C54.7538 57.6959 54.7511 57.7969 54.7511 57.8952C54.7511 57.9935 54.7538 58.0972 54.7593 58.2064C54.7647 58.3429 54.7947 58.4712 54.8493 58.5913C54.9039 58.706 54.9858 58.8015 55.095 58.878C55.2042 58.9489 55.3435 58.9844 55.5127 58.9844ZM60.6719 60C60.3224 60 60.0194 59.9454 59.7628 59.8362C59.5116 59.7215 59.3178 59.5468 59.1813 59.312C59.0448 59.0718 58.9765 58.7633 58.9765 58.3866V56.8141H58.3377C58.2776 56.8141 58.2258 56.795 58.1821 56.7568C58.1439 56.7185 58.1248 56.6694 58.1248 56.6093V55.9459C58.1248 55.8859 58.1439 55.8367 58.1821 55.7985C58.2258 55.7603 58.2776 55.7412 58.3377 55.7412H58.9765V54.3898C58.9765 54.3298 58.9956 54.2807 59.0339 54.2424C59.0775 54.2042 59.1267 54.1851 59.1813 54.1851H60.1313C60.1914 54.1851 60.2405 54.2042 60.2787 54.2424C60.317 54.2807 60.3361 54.3298 60.3361 54.3898V55.7412H61.3598C61.4199 55.7412 61.469 55.7603 61.5072 55.7985C61.5455 55.8367 61.5646 55.8859 61.5646 55.9459V56.6093C61.5646 56.6694 61.5455 56.7185 61.5072 56.7568C61.469 56.795 61.4199 56.8141 61.3598 56.8141H60.3361V58.2719C60.3361 58.4576 60.3716 58.605 60.4425 58.7142C60.5135 58.8234 60.6336 58.878 60.8029 58.878H61.4335C61.4936 58.878 61.5427 58.8971 61.5809 58.9353C61.6192 58.9735 61.6383 59.0227 61.6383 59.0827V59.7953C61.6383 59.8553 61.6192 59.9045 61.5809 59.9427C61.5427 59.9809 61.4936 60 61.4335 60H60.6719Z" fill="#E5E5E5"/>
</g>
<defs>
<filter id="filter0_d_601_4942" x="0" y="0" width="80" height="80" filterUnits="userSpaceOnUse" color-interpolation-filters="sRGB">
<feFlood flood-opacity="0" result="BackgroundImageFix"/>
<feColorMatrix in="SourceAlpha" type="matrix" values="0 0 0 0 0 0 0 0 0 0 0 0 0 0 0 0 0 0 127 0" result="hardAlpha"/>
<feOffset dy="2"/>
<feGaussianBlur stdDeviation="4"/>
<feColorMatrix type="matrix" values="0 0 0 0 0 0 0 0 0 0 0 0 0 0 0 0 0 0 0.75 0"/>
<feBlend mode="normal" in2="BackgroundImageFix" result="effect1_dropShadow_601_4942"/>
<feBlend mode="normal" in="SourceGraphic" in2="effect1_dropShadow_601_4942" result="shape"/>
</filter>
<clipPath id="clip0_601_4942">
<rect width="32" height="32" fill="white" transform="translate(24 11)"/>
</clipPath>
</defs>
</svg>
