<svg width="80" height="80" viewBox="0 0 80 80" fill="none" xmlns="http://www.w3.org/2000/svg">
<g filter="url(#filter0_d_603_928)">
<rect x="8" y="6" width="64" height="64" rx="5" fill="#212529"/>
<g clip-path="url(#clip0_603_928)">
<path fill-rule="evenodd" clip-rule="evenodd" d="M42.416 19.608L42.384 11H37.584L37.616 19.608L40.016 22.904L42.416 19.608ZM37.616 34.36V43H42.416V34.36L40.016 31.064L37.616 34.36Z" fill="white"/>
<path fill-rule="evenodd" clip-rule="evenodd" d="M42.416 34.3601L47.472 41.3361L51.344 38.5201L46.288 31.5441L42.416 30.2961V34.3601ZM37.616 19.6081L32.528 12.6321L28.656 15.4481L33.712 22.4241L37.616 23.6721V19.6081Z" fill="#00F2E6"/>
<path fill-rule="evenodd" clip-rule="evenodd" d="M33.7121 22.4241L25.5201 19.7681L24.0481 24.3121L32.2401 27.0001L36.1121 25.7201L33.7121 22.4241ZM43.8881 28.2481L46.2881 31.5441L54.4801 34.2001L55.9521 29.6561L47.7601 27.0001L43.8881 28.2481Z" fill="#00B9F1"/>
<path fill-rule="evenodd" clip-rule="evenodd" d="M47.7601 27.0001L55.9521 24.3121L54.4801 19.7681L46.2881 22.4241L43.8881 25.7201L47.7601 27.0001ZM32.2401 27.0001L24.0481 29.6561L25.5201 34.2001L33.7121 31.5441L36.1121 28.2481L32.2401 27.0001Z" fill="#D63AFF"/>
<path fill-rule="evenodd" clip-rule="evenodd" d="M33.712 31.5441L28.656 38.5201L32.528 41.3361L37.616 34.3601V30.2961L33.712 31.5441ZM46.288 22.4241L51.344 15.4481L47.472 12.6321L42.416 19.6081V23.6721L46.288 22.4241Z" fill="#FB015B"/>
</g>
<path d="M32.1949 61.1024C31.8058 61.1024 31.4337 61.0546 31.0787 60.959C30.7306 60.8566 30.4199 60.7065 30.1469 60.5085C29.8738 60.3105 29.6554 60.0647 29.4915 59.7712C29.3345 59.4777 29.2492 59.1363 29.2355 58.7472C29.2355 58.6858 29.256 58.6346 29.297 58.5936C29.3379 58.5458 29.3925 58.5219 29.4608 58.5219H30.8432C30.9388 58.5219 31.0105 58.5458 31.0582 58.5936C31.1129 58.6414 31.1572 58.7131 31.1914 58.8086C31.2255 58.9998 31.2903 59.1568 31.3859 59.2797C31.4815 59.3957 31.601 59.4845 31.7443 59.5459C31.8945 59.6005 32.0618 59.6278 32.2461 59.6278C32.5874 59.6278 32.8502 59.5186 33.0346 59.3002C33.2189 59.0749 33.311 58.7472 33.311 58.3171V55.3578H29.9933C29.925 55.3578 29.8636 55.3339 29.809 55.2861C29.7612 55.2383 29.7373 55.1769 29.7373 55.1018V54.088C29.7373 54.0129 29.7612 53.9515 29.809 53.9037C29.8636 53.8559 29.925 53.832 29.9933 53.832H34.9494C35.0245 53.832 35.086 53.8559 35.1338 53.9037C35.1884 53.9515 35.2157 54.0129 35.2157 54.088V58.3683C35.2157 58.9622 35.086 59.464 34.8266 59.8736C34.5671 60.2764 34.2122 60.5836 33.7616 60.7952C33.311 61 32.7888 61.1024 32.1949 61.1024ZM37.7237 61C37.6076 61 37.5155 60.9659 37.4472 60.8976C37.3789 60.8293 37.338 60.7508 37.3243 60.6621L36.2082 54.1187C36.2013 54.1051 36.1979 54.0914 36.1979 54.0778C36.1979 54.0641 36.1979 54.0539 36.1979 54.047C36.1979 53.9924 36.2184 53.9446 36.2594 53.9037C36.3071 53.8559 36.3583 53.832 36.413 53.832H37.6827C37.8739 53.832 37.9797 53.9071 38.0002 54.0573L38.6658 58.0611L39.403 55.6957C39.4235 55.6411 39.4577 55.583 39.5054 55.5216C39.5532 55.4533 39.6317 55.4192 39.741 55.4192H40.4782C40.5943 55.4192 40.6762 55.4533 40.724 55.5216C40.7718 55.583 40.8025 55.6411 40.8162 55.6957L41.5534 58.0509L42.219 54.0573C42.2395 53.9071 42.3453 53.832 42.5365 53.832H43.8062C43.8677 53.832 43.9189 53.8559 43.9598 53.9037C44.0008 53.9446 44.0213 53.9924 44.0213 54.047C44.0213 54.0539 44.0213 54.0641 44.0213 54.0778C44.0213 54.0914 44.0213 54.1051 44.0213 54.1187L42.9051 60.6621C42.8915 60.7508 42.8505 60.8293 42.7822 60.8976C42.714 60.9659 42.6218 61 42.5058 61H41.533C41.4169 61 41.3282 60.9693 41.2667 60.9078C41.2053 60.8464 41.1643 60.7884 41.1438 60.7338L40.1096 57.8051L39.0754 60.7338C39.0549 60.7884 39.0139 60.8464 38.9525 60.9078C38.8979 60.9693 38.8125 61 38.6965 61H37.7237ZM46.9098 61C46.8347 61 46.7732 60.9761 46.7254 60.9283C46.6777 60.8805 46.6538 60.8191 46.6538 60.744V55.4397H44.831C44.7559 55.4397 44.6945 55.4158 44.6467 55.368C44.5989 55.3134 44.575 55.2519 44.575 55.1837V54.088C44.575 54.0129 44.5989 53.9515 44.6467 53.9037C44.6945 53.8559 44.7559 53.832 44.831 53.832H50.3402C50.4153 53.832 50.4767 53.8559 50.5245 53.9037C50.5723 53.9515 50.5962 54.0129 50.5962 54.088V55.1837C50.5962 55.2519 50.5723 55.3134 50.5245 55.368C50.4767 55.4158 50.4153 55.4397 50.3402 55.4397H48.5174V60.744C48.5174 60.8191 48.4935 60.8805 48.4458 60.9283C48.398 60.9761 48.3365 61 48.2614 61H46.9098Z" fill="#E5E5E5"/>
</g>
<defs>
<filter id="filter0_d_603_928" x="0" y="0" width="80" height="80" filterUnits="userSpaceOnUse" color-interpolation-filters="sRGB">
<feFlood flood-opacity="0" result="BackgroundImageFix"/>
<feColorMatrix in="SourceAlpha" type="matrix" values="0 0 0 0 0 0 0 0 0 0 0 0 0 0 0 0 0 0 127 0" result="hardAlpha"/>
<feOffset dy="2"/>
<feGaussianBlur stdDeviation="4"/>
<feColorMatrix type="matrix" values="0 0 0 0 0 0 0 0 0 0 0 0 0 0 0 0 0 0 0.75 0"/>
<feBlend mode="normal" in2="BackgroundImageFix" result="effect1_dropShadow_603_928"/>
<feBlend mode="normal" in="SourceGraphic" in2="effect1_dropShadow_603_928" result="shape"/>
</filter>
<clipPath id="clip0_603_928">
<rect width="32" height="32" fill="white" transform="translate(24 11)"/>
</clipPath>
</defs>
</svg>
