<svg width="80" height="80" viewBox="0 0 80 80" fill="none" xmlns="http://www.w3.org/2000/svg">
<g filter="url(#filter0_d_602_832)">
<rect x="8" y="6" width="64" height="64" rx="5" fill="#212529"/>
<path d="M33.2625 26.7411H33.0215C32.9255 27.7241 32.7905 28.9196 31.094 28.9196H30.313C29.8605 28.9196 29.841 28.8516 29.841 28.5336V23.4156C29.841 23.0881 29.841 22.9531 30.747 22.9531H31.065V22.6641C30.718 22.6931 29.8505 22.6931 29.455 22.6931C29.0795 22.6931 28.3275 22.6931 28 22.6641V22.9531H28.2215C28.964 22.9531 28.983 23.0591 28.983 23.4061V28.4661C28.983 28.8131 28.964 28.9196 28.2215 28.9196H28V29.2181H33.0025L33.2625 26.7411Z" fill="white"/>
<path d="M33.0989 22.654C33.0599 22.539 33.0409 22.5 32.9154 22.5C32.7904 22.5 32.7614 22.5385 32.7229 22.654L31.1709 26.587C31.1034 26.7505 30.9879 27.0495 30.3904 27.0495V27.2905H31.8844V27.0495C31.5854 27.0495 31.4024 26.9145 31.4024 26.7215C31.4024 26.6735 31.4124 26.654 31.4314 26.5865L31.7589 25.758H33.6674L34.0529 26.741C34.0729 26.7767 34.0859 26.8159 34.0914 26.8565C34.0914 27.0495 33.7254 27.0495 33.5419 27.0495V27.2905H35.4409V27.0495H35.3059C34.8529 27.0495 34.8049 26.982 34.7374 26.7895L33.0989 22.654ZM32.7134 23.339L33.5709 25.517H31.8554L32.7134 23.339Z" fill="white"/>
<path d="M40.8194 22.7214H34.9494L34.7759 24.8804H35.0074C35.1424 23.3289 35.2864 23.0104 36.7424 23.0104C36.9154 23.0104 37.1664 23.0104 37.2624 23.0304C37.4649 23.0684 37.4649 23.1744 37.4649 23.3964V28.4564C37.4649 28.7844 37.4649 28.9194 36.4529 28.9194H36.0674V29.2179C36.4624 29.1889 37.4359 29.1889 37.8794 29.1889C38.3229 29.1889 39.3154 29.1889 39.7109 29.2179V28.9194H39.3254C38.3134 28.9194 38.3134 28.7844 38.3134 28.4564V23.3964C38.3134 23.2034 38.3134 23.0684 38.4869 23.0299C38.5929 23.0109 38.8529 23.0109 39.0359 23.0109C40.4819 23.0109 40.6264 23.3289 40.7609 24.8809H41.0024L40.8194 22.7214Z" fill="white"/>
<path d="M45.9856 28.9101H45.7446C45.5036 30.3846 45.2821 31.0881 43.6341 31.0881H42.3616C41.9086 31.0881 41.8891 31.0206 41.8891 30.7026V28.1386H42.7471C43.6821 28.1386 43.7881 28.4471 43.7881 29.2661H44.0291V26.7216H43.7881C43.7881 27.5411 43.6821 27.8396 42.7471 27.8396H41.8891V25.5361C41.8891 25.2181 41.9086 25.1511 42.3616 25.1511H43.5951C45.0701 25.1511 45.3206 25.6811 45.4751 27.0206H45.7156L45.4456 24.8616H40.0486V25.1506H40.2706C41.0126 25.1506 41.0321 25.2566 41.0321 25.6036V30.6351C41.0321 30.9821 41.0126 31.0881 40.2706 31.0881H40.0486V31.3866H45.5811L45.9861 28.9096L45.9856 28.9101Z" fill="white"/>
<path d="M48.8864 25.5071L50.207 23.5796C50.4095 23.2711 50.7369 22.9626 51.5949 22.9531V22.6641H49.301V22.9531C49.687 22.9631 49.899 23.1746 49.899 23.3966C49.899 23.4926 49.8795 23.5121 49.812 23.6181L48.7129 25.2376L47.4795 23.3866C47.46 23.3581 47.412 23.2806 47.412 23.2421C47.412 23.1266 47.6239 22.9626 48.0289 22.9531V22.6641C47.7009 22.6931 46.9975 22.6931 46.6315 22.6931C46.3325 22.6931 45.735 22.6831 45.3785 22.6641V22.9531H45.5615C46.0915 22.9531 46.2745 23.0206 46.458 23.2906L48.2215 25.9606L46.6504 28.2831C46.5154 28.4761 46.2265 28.9196 45.2625 28.9196V29.2181H47.5564V28.9196C47.1134 28.9096 46.9494 28.6496 46.9494 28.4761C46.9494 28.3891 46.9784 28.3511 47.0459 28.2446L48.405 26.2301L49.9275 28.5241C49.947 28.5626 49.976 28.6011 49.976 28.6301C49.976 28.7461 49.764 28.9101 49.3495 28.9196V29.2181C49.687 29.1891 50.3905 29.1891 50.747 29.1891C51.152 29.1891 51.595 29.1991 52 29.2181V28.9196H51.8169C51.3154 28.9196 51.1134 28.8711 50.9109 28.5726L48.8864 25.5071Z" fill="white"/>
<path d="M28.7781 60C28.718 60 28.6689 59.9809 28.6306 59.9427C28.5924 59.9045 28.5733 59.8553 28.5733 59.7953V54.4718C28.5733 54.4117 28.5924 54.3625 28.6306 54.3243C28.6689 54.2861 28.718 54.267 28.7781 54.267H29.8591C29.9137 54.267 29.9601 54.2861 29.9984 54.3243C30.042 54.3625 30.0639 54.4117 30.0639 54.4718V58.7633H32.5373C32.5973 58.7633 32.6465 58.7852 32.6847 58.8288C32.7284 58.867 32.7502 58.9162 32.7502 58.9763V59.7953C32.7502 59.8553 32.7284 59.9045 32.6847 59.9427C32.6465 59.9809 32.5973 60 32.5373 60H28.7781ZM34.6477 60.0819C34.3528 60.0819 34.088 60.0273 33.8532 59.9181C33.6239 59.8034 33.441 59.6506 33.3045 59.4595C33.168 59.2684 33.0997 59.0527 33.0997 58.8124C33.0997 58.4248 33.2581 58.119 33.5748 57.8952C33.8914 57.6658 34.3119 57.5102 34.836 57.4283L35.8598 57.2727V57.1581C35.8598 56.9615 35.8188 56.8114 35.7369 56.7076C35.655 56.6039 35.5049 56.552 35.2865 56.552C35.1336 56.552 35.008 56.582 34.9097 56.6421C34.8169 56.7022 34.7432 56.7841 34.6886 56.8878C34.6395 56.9588 34.5712 56.9943 34.4839 56.9943H33.5666C33.5065 56.9943 33.4601 56.9779 33.4273 56.9451C33.3946 56.9069 33.3809 56.8632 33.3864 56.8141C33.3864 56.7158 33.4219 56.6039 33.4929 56.4783C33.5693 56.3473 33.684 56.2189 33.8368 56.0934C33.9897 55.9678 34.1863 55.8641 34.4265 55.7821C34.6668 55.7002 34.9561 55.6593 35.2947 55.6593C35.6496 55.6593 35.9526 55.7002 36.2038 55.7821C36.4549 55.8641 36.6569 55.9787 36.8098 56.1261C36.9682 56.2736 37.0855 56.4483 37.162 56.6503C37.2384 56.8468 37.2766 57.0652 37.2766 57.3055V59.7953C37.2766 59.8553 37.2548 59.9045 37.2111 59.9427C37.1729 59.9809 37.1265 60 37.0719 60H36.1219C36.0618 60 36.0127 59.9809 35.9744 59.9427C35.9362 59.9045 35.9171 59.8553 35.9171 59.7953V59.5086C35.8461 59.6123 35.7506 59.7079 35.6305 59.7953C35.5103 59.8826 35.3684 59.9509 35.2046 60C35.0462 60.0546 34.8606 60.0819 34.6477 60.0819ZM35.0326 59.1482C35.1909 59.1482 35.3329 59.1155 35.4585 59.05C35.5895 58.979 35.6905 58.8725 35.7615 58.7306C35.8379 58.5831 35.8762 58.4002 35.8762 58.1818V58.0672L35.18 58.19C34.9234 58.2337 34.735 58.3019 34.6149 58.3948C34.5002 58.4821 34.4429 58.5859 34.4429 58.706C34.4429 58.7988 34.4702 58.878 34.5248 58.9435C34.5794 59.009 34.6504 59.0609 34.7377 59.0991C34.8251 59.1319 34.9234 59.1482 35.0326 59.1482ZM40.3474 60C39.9979 60 39.6949 59.9454 39.4383 59.8362C39.1871 59.7215 38.9933 59.5468 38.8568 59.312C38.7203 59.0718 38.6521 58.7633 38.6521 58.3866V56.8141H38.0132C37.9532 56.8141 37.9013 56.795 37.8576 56.7568C37.8194 56.7185 37.8003 56.6694 37.8003 56.6093V55.9459C37.8003 55.8859 37.8194 55.8367 37.8576 55.7985C37.9013 55.7603 37.9532 55.7412 38.0132 55.7412H38.6521V54.3898C38.6521 54.3298 38.6712 54.2807 38.7094 54.2424C38.7531 54.2042 38.8022 54.1851 38.8568 54.1851H39.8068C39.8669 54.1851 39.916 54.2042 39.9543 54.2424C39.9925 54.2807 40.0116 54.3298 40.0116 54.3898V55.7412H41.0353C41.0954 55.7412 41.1445 55.7603 41.1828 55.7985C41.221 55.8367 41.2401 55.8859 41.2401 55.9459V56.6093C41.2401 56.6694 41.221 56.7185 41.1828 56.7568C41.1445 56.795 41.0954 56.8141 41.0353 56.8141H40.0116V58.2719C40.0116 58.4576 40.0471 58.605 40.1181 58.7142C40.189 58.8234 40.3092 58.878 40.4784 58.878H41.1091C41.1691 58.878 41.2183 58.8971 41.2565 58.9353C41.2947 58.9735 41.3138 59.0227 41.3138 59.0827V59.7953C41.3138 59.8553 41.2947 59.9045 41.2565 59.9427C41.2183 59.9809 41.1691 60 41.1091 60H40.3474ZM43.9575 60.0819C43.3132 60.0819 42.8 59.9072 42.4178 59.5577C42.0356 59.2083 41.8363 58.6896 41.8199 58.0016C41.8199 57.9634 41.8199 57.9143 41.8199 57.8542C41.8199 57.7942 41.8199 57.7478 41.8199 57.715C41.8363 57.2837 41.9319 56.9151 42.1066 56.6093C42.2868 56.2981 42.5325 56.0633 42.8437 55.905C43.1604 55.7412 43.5289 55.6593 43.9493 55.6593C44.4298 55.6593 44.8257 55.7548 45.1369 55.9459C45.4536 56.1371 45.6911 56.3964 45.8494 56.724C46.0077 57.0516 46.0869 57.4256 46.0869 57.846V58.0426C46.0869 58.1026 46.0651 58.1518 46.0214 58.19C45.9832 58.2282 45.9368 58.2473 45.8822 58.2473H43.2614C43.2614 58.2528 43.2614 58.261 43.2614 58.2719C43.2614 58.2828 43.2614 58.2938 43.2614 58.3047C43.2668 58.463 43.2941 58.6077 43.3433 58.7387C43.3924 58.8698 43.4688 58.9735 43.5726 59.05C43.6763 59.1264 43.8019 59.1646 43.9493 59.1646C44.0585 59.1646 44.1486 59.1482 44.2196 59.1155C44.296 59.0773 44.3588 59.0363 44.408 58.9926C44.4571 58.9435 44.4953 58.9025 44.5226 58.8698C44.5718 58.8152 44.61 58.7824 44.6373 58.7715C44.67 58.7551 44.7192 58.7469 44.7847 58.7469H45.8003C45.8549 58.7469 45.8985 58.7633 45.9313 58.7961C45.9695 58.8234 45.9859 58.8643 45.9804 58.9189C45.975 59.0117 45.9286 59.1237 45.8412 59.2547C45.7539 59.3858 45.6255 59.5168 45.4563 59.6478C45.2925 59.7734 45.085 59.8771 44.8338 59.959C44.5827 60.041 44.2906 60.0819 43.9575 60.0819ZM43.2614 57.4365H44.6455V57.4201C44.6455 57.2454 44.6182 57.0926 44.5636 56.9615C44.5144 56.8305 44.4353 56.7295 44.3261 56.6585C44.2223 56.5875 44.0967 56.552 43.9493 56.552C43.8019 56.552 43.6763 56.5875 43.5726 56.6585C43.4743 56.7295 43.3979 56.8305 43.3433 56.9615C43.2887 57.0926 43.2614 57.2454 43.2614 57.4201V57.4365ZM46.5388 60C46.4896 60 46.4459 59.9836 46.4077 59.9509C46.375 59.9126 46.3586 59.869 46.3586 59.8198C46.3586 59.8034 46.3613 59.7843 46.3668 59.7625C46.3722 59.7352 46.3832 59.7106 46.3995 59.6888L47.7673 57.8133L46.5224 56.0524C46.506 56.0306 46.4924 56.0087 46.4814 55.9869C46.476 55.9651 46.4732 55.9432 46.4732 55.9214C46.4732 55.8722 46.4924 55.8313 46.5306 55.7985C46.5688 55.7603 46.6125 55.7412 46.6616 55.7412H47.6608C47.7318 55.7412 47.7836 55.7576 47.8164 55.7903C47.8546 55.8231 47.8819 55.8531 47.8983 55.8804L48.66 56.9369L49.4135 55.8886C49.4353 55.8613 49.4626 55.8313 49.4954 55.7985C49.5336 55.7603 49.5882 55.7412 49.6592 55.7412H50.6174C50.6665 55.7412 50.7075 55.7603 50.7402 55.7985C50.7785 55.8313 50.7976 55.8722 50.7976 55.9214C50.7976 55.9432 50.7948 55.9651 50.7894 55.9869C50.7839 56.0087 50.773 56.0306 50.7566 56.0524L49.479 57.8133L50.8631 59.6888C50.8849 59.7106 50.8986 59.7325 50.904 59.7543C50.9095 59.7761 50.9122 59.798 50.9122 59.8198C50.9122 59.869 50.8931 59.9126 50.8549 59.9509C50.8221 59.9836 50.7785 60 50.7239 60H49.6837C49.6182 60 49.5691 59.9863 49.5363 59.959C49.5035 59.9263 49.4762 59.8963 49.4544 59.869L48.6272 58.7469L47.7918 59.869C47.77 59.8908 47.7427 59.9181 47.7099 59.9509C47.6772 59.9836 47.6253 60 47.5543 60H46.5388Z" fill="#E5E5E5"/>
</g>
<defs>
<filter id="filter0_d_602_832" x="0" y="0" width="80" height="80" filterUnits="userSpaceOnUse" color-interpolation-filters="sRGB">
<feFlood flood-opacity="0" result="BackgroundImageFix"/>
<feColorMatrix in="SourceAlpha" type="matrix" values="0 0 0 0 0 0 0 0 0 0 0 0 0 0 0 0 0 0 127 0" result="hardAlpha"/>
<feOffset dy="2"/>
<feGaussianBlur stdDeviation="4"/>
<feColorMatrix type="matrix" values="0 0 0 0 0 0 0 0 0 0 0 0 0 0 0 0 0 0 0.75 0"/>
<feBlend mode="normal" in2="BackgroundImageFix" result="effect1_dropShadow_602_832"/>
<feBlend mode="normal" in="SourceGraphic" in2="effect1_dropShadow_602_832" result="shape"/>
</filter>
</defs>
</svg>
