<svg width="80" height="80" viewBox="0 0 80 80" fill="none" xmlns="http://www.w3.org/2000/svg">
<g filter="url(#filter0_d_602_1463)">
<rect x="8" y="6" width="64" height="64" rx="5" fill="#212529"/>
<g clip-path="url(#clip0_602_1463)">
<path d="M39.9721 42.9442C48.7932 42.9442 55.9442 35.7932 55.9442 26.9721C55.9442 18.1509 48.7932 11 39.9721 11C31.1509 11 24 18.1509 24 26.9721C24 35.7932 31.1509 42.9442 39.9721 42.9442Z" fill="#0535C1"/>
<path d="M50.4991 22.1925H49.5435C49.1384 21.0463 48.0469 20.2263 46.763 20.2263C45.1349 20.2263 43.8137 21.5475 43.8137 23.1756C43.8137 24.8037 45.1349 26.1252 46.763 26.1252H50.4991C51.5849 26.1247 52.465 25.2445 52.4653 24.1587C52.4648 23.073 51.5848 22.193 50.4991 22.1925Z" fill="url(#paint0_radial_602_1463)"/>
<path d="M35.616 17.7156H43.9651V24.9757H35.616V17.7156Z" fill="#FFF176"/>
<path d="M34.7085 28.7869H44.6911V38.7695H34.7085V28.7869Z" fill="white"/>
<path d="M45.7799 24.2496H47.2318V27.1534H32.7119V24.2496H34.1638V18.4414L39.972 14.8115L45.7799 18.4414V24.2496ZM42.8758 24.2496V20.051L39.972 18.2364L37.0679 20.051V24.2496H42.8758Z" fill="#F4481E"/>
<path d="M32.0671 40.8538L34.5272 24.2493H45.4172L47.877 40.8538C45.5462 42.184 42.848 42.9439 39.9722 42.9439C37.0964 42.9439 34.3981 42.184 32.0671 40.8538ZM43.2237 29.2589L36.3918 31.4789L35.5615 37.0831L43.9778 34.3481L43.2237 29.2587V29.2589Z" fill="#F4481E"/>
<path d="M45.766 27.1534L47.7957 40.8539C45.4649 42.1841 42.7667 42.9439 39.8909 42.9439C37.0151 42.9439 34.3168 42.1841 31.9858 40.8539L34.0157 27.1534H32.7119V24.2496H34.1638V18.4414L39.972 14.8115L45.7799 18.4414V24.2496H47.2318V27.1534H45.7663H45.766Z" fill="url(#paint1_linear_602_1463)"/>
<path d="M39.972 24.2496H34.1638V18.4414L39.972 14.8115V24.2496Z" fill="url(#paint2_linear_602_1463)"/>
<path d="M39.9722 42.9438C37.2004 42.9454 34.4759 42.2251 32.0671 40.8538L33.8871 27.1533H39.9719V42.9438H39.9722Z" fill="url(#paint3_linear_602_1463)"/>
<path d="M39.9722 24.2495H32.7121V27.1536H39.9722V24.2495Z" fill="url(#paint4_linear_602_1463)"/>
<path d="M39.9721 42.9442C48.7932 42.9442 55.9442 35.7932 55.9442 26.9721C55.9442 18.1509 48.7932 11 39.9721 11C31.1509 11 24 18.1509 24 26.9721C24 35.7932 31.1509 42.9442 39.9721 42.9442Z" fill="url(#paint5_radial_602_1463)"/>
<path d="M35.6158 25.8829H34.5131C34.046 24.5603 32.7868 23.6143 31.3052 23.6143C29.4267 23.6143 27.9021 25.1389 27.9021 27.0174C27.9021 28.8959 29.4267 30.4205 31.3052 30.4205H35.6158C36.8681 30.4205 37.8847 29.4042 37.8847 28.1518C37.8847 26.8995 36.8681 25.8829 35.6158 25.8829Z" fill="url(#paint6_radial_602_1463)"/>
<g opacity="0.1">
<path d="M39.9721 11.1669C48.7658 11.1669 55.8968 18.2726 55.9423 27.0554C55.9423 27.0282 55.9439 27.0009 55.9439 26.9721C55.9439 18.1512 48.793 11 39.9721 11C31.1512 11 24 18.1512 24 26.9721C24 26.9993 24.0019 27.0265 24.0019 27.0554C24.0471 18.2726 31.1784 11.1669 39.9721 11.1669Z" fill="white"/>
<path d="M55.9423 26.8884C55.8968 35.6712 48.7658 42.7769 39.9721 42.7769C31.1784 42.7769 24.0471 35.6712 24.0019 26.8884C24.0019 26.9176 24 26.9448 24 26.972C24 35.7929 31.1512 42.9438 39.9721 42.9438C48.793 42.9438 55.9439 35.7929 55.9439 26.972C55.9439 26.9448 55.9423 26.9176 55.9423 26.8884Z" fill="#263238"/>
</g>
<path d="M39.9721 42.9442C48.7932 42.9442 55.9442 35.7932 55.9442 26.9721C55.9442 18.1509 48.7932 11 39.9721 11C31.1509 11 24 18.1509 24 26.9721C24 35.7932 31.1509 42.9442 39.9721 42.9442Z" fill="url(#paint7_radial_602_1463)"/>
</g>
<path d="M17.2781 60C17.218 60 17.1689 59.9809 17.1306 59.9427C17.0924 59.9045 17.0733 59.8553 17.0733 59.7953V54.4718C17.0733 54.4117 17.0924 54.3625 17.1306 54.3243C17.1689 54.2861 17.218 54.267 17.2781 54.267H18.3591C18.4137 54.267 18.4601 54.2861 18.4984 54.3243C18.542 54.3625 18.5639 54.4117 18.5639 54.4718V58.7633H21.0373C21.0973 58.7633 21.1465 58.7852 21.1847 58.8288C21.2284 58.867 21.2502 58.9162 21.2502 58.9763V59.7953C21.2502 59.8553 21.2284 59.9045 21.1847 59.9427C21.1465 59.9809 21.0973 60 21.0373 60H17.2781ZM22.0748 60C22.0147 60 21.9656 59.9809 21.9273 59.9427C21.8891 59.9045 21.87 59.8553 21.87 59.7953V55.9459C21.87 55.8859 21.8891 55.8367 21.9273 55.7985C21.9656 55.7603 22.0147 55.7412 22.0748 55.7412H23.0412C23.0958 55.7412 23.1422 55.7603 23.1804 55.7985C23.2241 55.8367 23.2459 55.8859 23.2459 55.9459V59.7953C23.2459 59.8553 23.2241 59.9045 23.1804 59.9427C23.1422 59.9809 23.0958 60 23.0412 60H22.0748ZM22.0666 55.127C22.0065 55.127 21.9574 55.1078 21.9192 55.0696C21.8809 55.0314 21.8618 54.9823 21.8618 54.9222V54.1933C21.8618 54.1332 21.8809 54.0841 21.9192 54.0459C21.9574 54.0022 22.0065 53.9804 22.0666 53.9804H23.0412C23.1012 53.9804 23.1504 54.0022 23.1886 54.0459C23.2323 54.0841 23.2541 54.1332 23.2541 54.1933V54.9222C23.2541 54.9823 23.2323 55.0314 23.1886 55.0696C23.1504 55.1078 23.1012 55.127 23.0412 55.127H22.0666ZM26.2939 61.8018C25.8735 61.8018 25.524 61.7472 25.2456 61.638C24.9726 61.5288 24.7542 61.3978 24.5904 61.2449C24.432 61.092 24.3174 60.9391 24.2464 60.7862C24.1754 60.6388 24.1372 60.5214 24.1317 60.4341C24.1263 60.374 24.1454 60.3249 24.1891 60.2866C24.2327 60.2484 24.2846 60.2293 24.3447 60.2293H25.3848C25.4339 60.2293 25.4749 60.2402 25.5077 60.2621C25.5459 60.2894 25.5759 60.3331 25.5977 60.3931C25.625 60.4532 25.6605 60.516 25.7042 60.5815C25.7534 60.647 25.8189 60.6989 25.9008 60.7371C25.9881 60.7808 26.1055 60.8026 26.2529 60.8026C26.4167 60.8026 26.5532 60.7753 26.6624 60.7207C26.7716 60.6716 26.8535 60.587 26.9081 60.4668C26.9627 60.3522 26.99 60.1966 26.99 60V59.4513C26.8645 59.5878 26.7034 59.6997 26.5068 59.7871C26.3103 59.869 26.0728 59.9099 25.7943 59.9099C25.5158 59.9099 25.2701 59.869 25.0572 59.7871C24.8443 59.7052 24.6668 59.5823 24.5249 59.4185C24.3829 59.2547 24.271 59.0554 24.1891 58.8206C24.1126 58.5859 24.0662 58.3156 24.0498 58.0098C24.0444 57.8679 24.0444 57.7259 24.0498 57.5839C24.0662 57.2891 24.1126 57.0243 24.1891 56.7895C24.2655 56.5547 24.3747 56.3527 24.5167 56.1835C24.6641 56.0142 24.8443 55.8859 25.0572 55.7985C25.2701 55.7057 25.5158 55.6593 25.7943 55.6593C26.0891 55.6593 26.3403 55.7166 26.5478 55.8313C26.7607 55.9405 26.9354 56.0797 27.0719 56.249V55.9459C27.0719 55.8914 27.0911 55.8449 27.1293 55.8067C27.1675 55.763 27.2166 55.7412 27.2767 55.7412H28.2185C28.2786 55.7412 28.3277 55.763 28.366 55.8067C28.4096 55.8449 28.4315 55.8914 28.4315 55.9459V59.8853C28.4315 60.3003 28.3469 60.6497 28.1776 60.9337C28.0083 61.2176 27.7654 61.4332 27.4487 61.5807C27.132 61.7281 26.7471 61.8018 26.2939 61.8018ZM26.2366 58.8452C26.4113 58.8452 26.5532 58.807 26.6624 58.7306C26.7716 58.6541 26.8508 58.5558 26.9 58.4357C26.9546 58.3156 26.9846 58.1873 26.99 58.0508C26.9955 57.9907 26.9982 57.9061 26.9982 57.7969C26.9982 57.6877 26.9955 57.6058 26.99 57.5512C26.9846 57.4092 26.9546 57.2782 26.9 57.1581C26.8508 57.038 26.7716 56.9424 26.6624 56.8714C26.5532 56.795 26.4113 56.7568 26.2366 56.7568C26.0564 56.7568 25.9117 56.795 25.8025 56.8714C25.6988 56.9479 25.6223 57.0516 25.5732 57.1826C25.5295 57.3137 25.5022 57.4584 25.4913 57.6167C25.4858 57.7368 25.4858 57.8597 25.4913 57.9853C25.5022 58.1436 25.5295 58.2883 25.5732 58.4193C25.6223 58.5504 25.6988 58.6541 25.8025 58.7306C25.9117 58.807 26.0564 58.8452 26.2366 58.8452ZM29.6009 60C29.5409 60 29.4917 59.9809 29.4535 59.9427C29.4153 59.9045 29.3962 59.8553 29.3962 59.7953V54.3898C29.3962 54.3298 29.4153 54.2807 29.4535 54.2424C29.4917 54.2042 29.5409 54.1851 29.6009 54.1851H30.6492C30.7093 54.1851 30.7584 54.2042 30.7967 54.2424C30.8349 54.2807 30.854 54.3298 30.854 54.3898V56.2162C31.0014 56.047 31.1816 55.9132 31.3945 55.8149C31.6129 55.7112 31.8641 55.6593 32.148 55.6593C32.4647 55.6593 32.7459 55.7303 32.9916 55.8722C33.2427 56.0142 33.4393 56.2244 33.5813 56.5029C33.7232 56.7759 33.7942 57.1117 33.7942 57.5102V59.7953C33.7942 59.8553 33.7751 59.9045 33.7369 59.9427C33.6987 59.9809 33.6495 60 33.5895 60H32.5329C32.4783 60 32.4292 59.9809 32.3855 59.9427C32.3473 59.9045 32.3282 59.8553 32.3282 59.7953V57.5594C32.3282 57.3028 32.2654 57.1062 32.1398 56.9697C32.0197 56.8277 31.8395 56.7568 31.5993 56.7568C31.3754 56.7568 31.1952 56.8277 31.0587 56.9697C30.9222 57.1062 30.854 57.3028 30.854 57.5594V59.7953C30.854 59.8553 30.8349 59.9045 30.7967 59.9427C30.7584 59.9809 30.7093 60 30.6492 60H29.6009ZM36.8614 60C36.512 60 36.209 59.9454 35.9523 59.8362C35.7012 59.7215 35.5073 59.5468 35.3708 59.312C35.2343 59.0718 35.1661 58.7633 35.1661 58.3866V56.8141H34.5273C34.4672 56.8141 34.4153 56.795 34.3717 56.7568C34.3334 56.7185 34.3143 56.6694 34.3143 56.6093V55.9459C34.3143 55.8859 34.3334 55.8367 34.3717 55.7985C34.4153 55.7603 34.4672 55.7412 34.5273 55.7412H35.1661V54.3898C35.1661 54.3298 35.1852 54.2807 35.2234 54.2424C35.2671 54.2042 35.3162 54.1851 35.3708 54.1851H36.3209C36.3809 54.1851 36.4301 54.2042 36.4683 54.2424C36.5065 54.2807 36.5256 54.3298 36.5256 54.3898V55.7412H37.5494C37.6094 55.7412 37.6586 55.7603 37.6968 55.7985C37.735 55.8367 37.7541 55.8859 37.7541 55.9459V56.6093C37.7541 56.6694 37.735 56.7185 37.6968 56.7568C37.6586 56.795 37.6094 56.8141 37.5494 56.8141H36.5256V58.2719C36.5256 58.4576 36.5611 58.605 36.6321 58.7142C36.7031 58.8234 36.8232 58.878 36.9925 58.878H37.6231C37.6832 58.878 37.7323 58.8971 37.7705 58.9353C37.8087 58.9735 37.8278 59.0227 37.8278 59.0827V59.7953C37.8278 59.8553 37.8087 59.9045 37.7705 59.9427C37.7323 59.9809 37.6832 60 37.6231 60H36.8614ZM38.7107 60C38.6506 60 38.6015 59.9809 38.5633 59.9427C38.5251 59.9045 38.506 59.8553 38.506 59.7953V54.3898C38.506 54.3298 38.5251 54.2807 38.5633 54.2424C38.6015 54.2042 38.6506 54.1851 38.7107 54.1851H39.759C39.8191 54.1851 39.8682 54.2042 39.9064 54.2424C39.9447 54.2807 39.9638 54.3298 39.9638 54.3898V56.2162C40.1112 56.047 40.2914 55.9132 40.5043 55.8149C40.7227 55.7112 40.9739 55.6593 41.2578 55.6593C41.5745 55.6593 41.8557 55.7303 42.1014 55.8722C42.3525 56.0142 42.5491 56.2244 42.691 56.5029C42.833 56.7759 42.904 57.1117 42.904 57.5102V59.7953C42.904 59.8553 42.8849 59.9045 42.8467 59.9427C42.8084 59.9809 42.7593 60 42.6992 60H41.6427C41.5881 60 41.539 59.9809 41.4953 59.9427C41.4571 59.9045 41.438 59.8553 41.438 59.7953V57.5594C41.438 57.3028 41.3752 57.1062 41.2496 56.9697C41.1295 56.8277 40.9493 56.7568 40.7091 56.7568C40.4852 56.7568 40.305 56.8277 40.1685 56.9697C40.032 57.1062 39.9638 57.3028 39.9638 57.5594V59.7953C39.9638 59.8553 39.9447 59.9045 39.9064 59.9427C39.8682 59.9809 39.8191 60 39.759 60H38.7107ZM45.8474 60.0819C45.3888 60.0819 45.0011 60.0082 44.6844 59.8608C44.3732 59.7133 44.133 59.5031 43.9637 59.2301C43.7999 58.9517 43.7071 58.6214 43.6852 58.2392C43.6798 58.13 43.677 58.0071 43.677 57.8706C43.677 57.7286 43.6798 57.6058 43.6852 57.5021C43.7071 57.1144 43.8054 56.7841 43.9801 56.5111C44.1548 56.2381 44.3978 56.0279 44.709 55.8804C45.0257 55.733 45.4051 55.6593 45.8474 55.6593C46.2951 55.6593 46.6746 55.733 46.9858 55.8804C47.3025 56.0279 47.5482 56.2381 47.7229 56.5111C47.8976 56.7841 47.9959 57.1144 48.0177 57.5021C48.0232 57.6058 48.0259 57.7286 48.0259 57.8706C48.0259 58.0071 48.0232 58.13 48.0177 58.2392C47.9959 58.6214 47.9004 58.9517 47.7311 59.2301C47.5673 59.5031 47.3271 59.7133 47.0104 59.8608C46.6992 60.0082 46.3115 60.0819 45.8474 60.0819ZM45.8474 59.0827C46.0931 59.0827 46.2705 59.009 46.3797 58.8616C46.4944 58.7142 46.5599 58.493 46.5763 58.1982C46.5818 58.1163 46.5845 58.0071 46.5845 57.8706C46.5845 57.7341 46.5818 57.6249 46.5763 57.543C46.5599 57.2536 46.4944 57.0352 46.3797 56.8878C46.2705 56.7349 46.0931 56.6585 45.8474 56.6585C45.6072 56.6585 45.4297 56.7349 45.315 56.8878C45.2004 57.0352 45.1376 57.2536 45.1267 57.543C45.1212 57.6249 45.1185 57.7341 45.1185 57.8706C45.1185 58.0071 45.1212 58.1163 45.1267 58.1982C45.1376 58.493 45.2004 58.7142 45.315 58.8616C45.4297 59.009 45.6072 59.0827 45.8474 59.0827ZM50.3957 60.0819C50.0845 60.0819 49.806 60.0109 49.5603 59.869C49.3201 59.727 49.1317 59.5195 48.9952 59.2465C48.8587 58.9681 48.7905 58.6295 48.7905 58.231V55.9459C48.7905 55.8859 48.8096 55.8367 48.8478 55.7985C48.886 55.7603 48.9352 55.7412 48.9952 55.7412H50.019C50.079 55.7412 50.1282 55.7603 50.1664 55.7985C50.2046 55.8367 50.2237 55.8859 50.2237 55.9459V58.1818C50.2237 58.7169 50.464 58.9844 50.9445 58.9844C51.1683 58.9844 51.3458 58.9162 51.4768 58.7797C51.6133 58.6377 51.6816 58.4384 51.6816 58.1818V55.9459C51.6816 55.8859 51.7007 55.8367 51.7389 55.7985C51.7771 55.7603 51.8262 55.7412 51.8863 55.7412H52.9101C52.9701 55.7412 53.0193 55.7603 53.0575 55.7985C53.0957 55.8367 53.1148 55.8859 53.1148 55.9459V59.7953C53.1148 59.8553 53.0957 59.9045 53.0575 59.9427C53.0193 59.9809 52.9701 60 52.9101 60H51.96C51.9054 60 51.8563 59.9809 51.8126 59.9427C51.7744 59.9045 51.7553 59.8553 51.7553 59.7953V59.484C51.6133 59.6806 51.4277 59.8307 51.1983 59.9345C50.9745 60.0328 50.7069 60.0819 50.3957 60.0819ZM55.8308 60.0819C55.4759 60.0819 55.1729 60.0437 54.9217 59.9672C54.676 59.8853 54.474 59.7871 54.3157 59.6724C54.1628 59.5577 54.0481 59.4403 53.9717 59.3202C53.8952 59.1946 53.8543 59.0882 53.8488 59.0008C53.8434 58.9408 53.8625 58.8916 53.9062 58.8534C53.9498 58.8097 53.9963 58.7879 54.0454 58.7879H54.9791C54.9954 58.7879 55.0091 58.7906 55.02 58.7961C55.0309 58.8015 55.0473 58.8124 55.0691 58.8288C55.1401 58.867 55.2111 58.9162 55.2821 58.9763C55.3531 59.0309 55.435 59.08 55.5278 59.1237C55.6206 59.1673 55.7325 59.1892 55.8636 59.1892C56.0165 59.1892 56.1448 59.1592 56.2485 59.0991C56.3522 59.039 56.4041 58.9489 56.4041 58.8288C56.4041 58.7415 56.3795 58.6705 56.3304 58.6159C56.2813 58.5558 56.1803 58.4985 56.0274 58.4439C55.88 58.3893 55.6561 58.3347 55.3558 58.2801C55.0719 58.2146 54.8234 58.1299 54.6105 58.0262C54.3976 57.917 54.2338 57.7778 54.1191 57.6085C54.0044 57.4338 53.9471 57.2236 53.9471 56.9779C53.9471 56.7595 54.0181 56.5493 54.1601 56.3473C54.302 56.1452 54.5095 55.9814 54.7825 55.8559C55.0555 55.7248 55.3913 55.6593 55.7899 55.6593C56.1065 55.6593 56.3795 55.6975 56.6089 55.774C56.8436 55.8449 57.0402 55.9378 57.1985 56.0524C57.3623 56.1671 57.4852 56.2845 57.5671 56.4046C57.649 56.5247 57.6927 56.6339 57.6981 56.7322C57.7036 56.7868 57.6872 56.8359 57.649 56.8796C57.6108 56.9178 57.5671 56.9369 57.518 56.9369H56.6662C56.6444 56.9369 56.6225 56.9342 56.6007 56.9287C56.5788 56.9178 56.5597 56.9069 56.5433 56.896C56.4778 56.8632 56.4123 56.8196 56.3468 56.765C56.2813 56.7103 56.2048 56.6612 56.1175 56.6175C56.0301 56.5738 55.9209 56.552 55.7899 56.552C55.6424 56.552 55.5278 56.5848 55.4459 56.6503C55.364 56.7158 55.323 56.8004 55.323 56.9042C55.323 56.9752 55.3449 57.0407 55.3886 57.1007C55.4377 57.1608 55.5332 57.2154 55.6752 57.2645C55.8226 57.3137 56.0492 57.3683 56.355 57.4283C56.7317 57.4884 57.032 57.5867 57.2559 57.7232C57.4797 57.8542 57.6381 58.0098 57.7309 58.19C57.8237 58.3647 57.8701 58.5504 57.8701 58.7469C57.8701 59.009 57.791 59.2411 57.6326 59.4431C57.4797 59.6451 57.2504 59.8034 56.9447 59.9181C56.6389 60.0273 56.2676 60.0819 55.8308 60.0819ZM60.5706 60.0819C59.9264 60.0819 59.4131 59.9072 59.0309 59.5577C58.6487 59.2083 58.4494 58.6896 58.4331 58.0016C58.4331 57.9634 58.4331 57.9143 58.4331 57.8542C58.4331 57.7942 58.4331 57.7478 58.4331 57.715C58.4494 57.2837 58.545 56.9151 58.7197 56.6093C58.8999 56.2981 59.1456 56.0633 59.4568 55.905C59.7735 55.7412 60.142 55.6593 60.5625 55.6593C61.0429 55.6593 61.4388 55.7548 61.75 55.9459C62.0667 56.1371 62.3042 56.3964 62.4625 56.724C62.6209 57.0516 62.7 57.4256 62.7 57.846V58.0426C62.7 58.1026 62.6782 58.1518 62.6345 58.19C62.5963 58.2282 62.5499 58.2473 62.4953 58.2473H59.8745C59.8745 58.2528 59.8745 58.261 59.8745 58.2719C59.8745 58.2828 59.8745 58.2938 59.8745 58.3047C59.88 58.463 59.9073 58.6077 59.9564 58.7387C60.0055 58.8698 60.082 58.9735 60.1857 59.05C60.2895 59.1264 60.415 59.1646 60.5625 59.1646C60.6717 59.1646 60.7617 59.1482 60.8327 59.1155C60.9092 59.0773 60.972 59.0363 61.0211 58.9926C61.0702 58.9435 61.1085 58.9025 61.1358 58.8698C61.1849 58.8152 61.2231 58.7824 61.2504 58.7715C61.2832 58.7551 61.3323 58.7469 61.3978 58.7469H62.4134C62.468 58.7469 62.5117 58.7633 62.5444 58.7961C62.5827 58.8234 62.599 58.8643 62.5936 58.9189C62.5881 59.0117 62.5417 59.1237 62.4543 59.2547C62.367 59.3858 62.2387 59.5168 62.0694 59.6478C61.9056 59.7734 61.6981 59.8771 61.447 59.959C61.1958 60.041 60.9037 60.0819 60.5706 60.0819ZM59.8745 57.4365H61.2586V57.4201C61.2586 57.2454 61.2313 57.0926 61.1767 56.9615C61.1276 56.8305 61.0484 56.7295 60.9392 56.6585C60.8355 56.5875 60.7099 56.552 60.5625 56.552C60.415 56.552 60.2895 56.5875 60.1857 56.6585C60.0874 56.7295 60.011 56.8305 59.9564 56.9615C59.9018 57.0926 59.8745 57.2454 59.8745 57.4201V57.4365Z" fill="#E5E5E5"/>
</g>
<defs>
<filter id="filter0_d_602_1463" x="0" y="0" width="80" height="80" filterUnits="userSpaceOnUse" color-interpolation-filters="sRGB">
<feFlood flood-opacity="0" result="BackgroundImageFix"/>
<feColorMatrix in="SourceAlpha" type="matrix" values="0 0 0 0 0 0 0 0 0 0 0 0 0 0 0 0 0 0 127 0" result="hardAlpha"/>
<feOffset dy="2"/>
<feGaussianBlur stdDeviation="4"/>
<feColorMatrix type="matrix" values="0 0 0 0 0 0 0 0 0 0 0 0 0 0 0 0 0 0 0.75 0"/>
<feBlend mode="normal" in2="BackgroundImageFix" result="effect1_dropShadow_602_1463"/>
<feBlend mode="normal" in="SourceGraphic" in2="effect1_dropShadow_602_1463" result="shape"/>
</filter>
<radialGradient id="paint0_radial_602_1463" cx="0" cy="0" r="1" gradientUnits="userSpaceOnUse" gradientTransform="translate(97.1241 104.397) scale(852.767 852.767)">
<stop stop-color="white" stop-opacity="0.1"/>
<stop offset="1" stop-color="white" stop-opacity="0"/>
</radialGradient>
<linearGradient id="paint1_linear_602_1463" x1="611.037" y1="587.531" x2="1729.42" y2="2430.42" gradientUnits="userSpaceOnUse">
<stop stop-color="white" stop-opacity="0.1"/>
<stop offset="1" stop-color="white" stop-opacity="0"/>
</linearGradient>
<linearGradient id="paint2_linear_602_1463" x1="434.551" y1="635.423" x2="145.465" y2="494.693" gradientUnits="userSpaceOnUse">
<stop stop-color="#262626" stop-opacity="0.1"/>
<stop offset="1" stop-color="#262626" stop-opacity="0"/>
</linearGradient>
<linearGradient id="paint3_linear_602_1463" x1="526.378" y1="233.788" x2="-286.119" y2="1180.96" gradientUnits="userSpaceOnUse">
<stop stop-color="#262626" stop-opacity="0.1"/>
<stop offset="1" stop-color="#262626" stop-opacity="0"/>
</linearGradient>
<linearGradient id="paint4_linear_602_1463" x1="39.9722" y1="169.454" x2="-686.037" y2="169.454" gradientUnits="userSpaceOnUse">
<stop stop-color="#262626" stop-opacity="0.1"/>
<stop offset="1" stop-color="#262626" stop-opacity="0"/>
</linearGradient>
<radialGradient id="paint5_radial_602_1463" cx="0" cy="0" r="1" gradientUnits="userSpaceOnUse" gradientTransform="translate(486.839 476.874) scale(3193.55)">
<stop stop-color="white" stop-opacity="0.1"/>
<stop offset="1" stop-color="white" stop-opacity="0"/>
</radialGradient>
<radialGradient id="paint6_radial_602_1463" cx="0" cy="0" r="1" gradientUnits="userSpaceOnUse" gradientTransform="translate(95.4449 120.733) scale(983.964 983.964)">
<stop stop-color="white" stop-opacity="0.1"/>
<stop offset="1" stop-color="white" stop-opacity="0"/>
</radialGradient>
<radialGradient id="paint7_radial_602_1463" cx="0" cy="0" r="1" gradientUnits="userSpaceOnUse" gradientTransform="translate(486.839 476.874) scale(3193.55)">
<stop stop-color="white" stop-opacity="0.1"/>
<stop offset="1" stop-color="white" stop-opacity="0"/>
</radialGradient>
<clipPath id="clip0_602_1463">
<rect width="32" height="32" fill="white" transform="translate(24 11)"/>
</clipPath>
</defs>
</svg>
