<svg width="80" height="80" viewBox="0 0 80 80" fill="none" xmlns="http://www.w3.org/2000/svg">
<g filter="url(#filter0_d_603_591)">
<rect x="8" y="6" width="64" height="64" rx="5" fill="#212529"/>
<path fill-rule="evenodd" clip-rule="evenodd" d="M36.1132 19.7576L36.0652 16.4883L38.0105 15.349L40.899 13.4038L42.0863 13.3555L43.3218 14.6834L43.9873 19.0957L43.085 20.7082L39.3383 20.6119L36.1132 19.7576Z" fill="white"/>
<path fill-rule="evenodd" clip-rule="evenodd" d="M32.2706 29.1037L33.2655 26.3039L35.2109 23.9812L36.2058 21.9879L36.6348 21.3257L43.7469 20.2346L45.171 22.4648L49.1545 31.996L47.7782 33.7008L44.1724 39.7295L43.3219 39.9179L36.7274 40.1065L32.1265 34.9842L31.3682 30.7162L32.2706 29.1037V29.1037Z" fill="white"/>
<path fill-rule="evenodd" clip-rule="evenodd" d="M41.3763 21.8473C41.3763 21.8473 41.1395 21.7991 41.8016 21.6549C42.4673 21.5144 42.4708 21.3738 42.6557 21.1814C42.8445 20.9928 42.9408 20.5637 42.9408 20.0904C42.9408 19.6171 43.1775 18.2412 43.1292 17.864C43.0851 17.483 42.2749 16.0627 41.9457 15.8705C41.613 15.6819 37.9144 15.3489 37.9144 15.3489L36.7752 16.2515L35.9209 17.054L36.1132 19.6171C36.1132 19.6171 35.8728 20.4232 35.9209 20.7524C35.9691 21.0853 36.446 21.4663 36.6346 21.6549C36.8232 21.8473 37.5334 22.6091 37.77 22.842C38.0104 23.0788 38.0585 23.3155 38.6243 23.1268C39.1939 22.9382 39.5267 22.9382 39.9559 22.6053C40.3812 22.2724 41.3763 21.8473 41.3763 21.8473V21.8473Z" fill="#F6D330"/>
<path fill-rule="evenodd" clip-rule="evenodd" d="M39.1942 17.816C39.3384 17.435 39.527 16.725 39.8562 16.4883C40.1889 16.2515 40.9029 16.0556 41.3284 16.1073C41.7574 16.1554 42.5599 16.5807 42.7521 16.9134C42.9409 17.2463 42.9409 18.574 42.9409 18.574L42.8446 19.6651L42.1826 19.6171L40.7588 19.0473H40.5221C40.5221 19.0473 40.2854 19.1398 39.5715 18.7626C38.8613 18.3818 39.0499 18.1969 39.1942 17.816V17.816ZM37.6778 18.8589C37.7 18.8367 37.7444 18.8071 37.8036 18.7738C38.092 18.6147 38.7207 18.3818 38.7207 18.3818C38.7207 18.3818 39.3346 16.8211 38.8132 16.2034C38.2954 15.5858 37.1563 15.6819 37.1563 15.6819C37.1563 15.6819 35.9249 16.3921 35.9692 16.6768C36.0173 16.9617 36.0653 17.9565 36.1135 18.0971C36.1579 18.2414 36.3502 19.7577 36.3502 19.7577L36.7755 19.5691L37.3932 19.0957C37.3931 19.0957 37.5372 19.0032 37.6778 18.8589V18.8589Z" fill="white"/>
<path fill-rule="evenodd" clip-rule="evenodd" d="M46.7355 33.1831L47.4233 33.2349C47.5232 33.2424 47.623 33.2459 47.723 33.2497C48.2333 33.2681 48.681 33.3458 49.1581 33.4051C49.4727 33.4423 49.994 33.642 50.031 34.0376C50.0828 34.6221 49.9127 35.2654 50.408 35.506C50.9149 35.85 52.0464 36.6452 52.0464 36.6452L52.3795 37.2589L51.3847 38.1615L46.4989 41.1018L44.2724 40.3436V38.5424L44.3648 36.1237L44.1281 33.9415L44.5055 33.0872L45.4559 32.8023L46.7355 33.1831V33.1831ZM32.6073 32.118C32.5592 32.0735 31.6937 32.329 31.6383 32.3399C31.2352 32.399 30.7249 32.6765 30.7249 33.1167C30.7249 33.3423 30.7065 33.5754 30.6029 33.7788C30.5215 33.9377 30.3366 34.178 30.3402 34.23C30.2773 34.4038 30.1628 34.6479 30.0037 34.7515C29.8188 34.77 28.9977 34.8441 28.9977 34.8441H28.2838L27.8585 35.3617L28.1914 36.7415L28.0951 37.8288L27.7659 39.064L28.5684 39.4893L34.6413 41.1018L36.0172 40.6765L36.7273 38.9197L36.583 38.2576L35.9211 36.9299C35.9211 36.9297 33.0363 32.7394 32.6073 32.118V32.118Z" fill="#F6D330"/>
<path fill-rule="evenodd" clip-rule="evenodd" d="M35.6991 17.2315C35.5993 13.9216 36.89 12.4605 39.5713 12.4125C42.2491 12.3607 43.9281 13.7735 44.2721 15.6265C44.6123 17.4757 44.4164 19.913 45.1005 21.178C45.7812 22.4465 46.2176 23.4192 47.39 24.8801C48.5586 26.341 49.2872 27.8278 49.6277 29.6325C49.9714 31.4338 50.1639 32.2844 49.2872 33.2126C48.4108 34.1371 46.8538 35.6462 45.6849 33.9412C45.097 33.0869 45.0341 32.0255 46.0254 31.8C46.6577 31.6519 47.1126 31.7001 47.5824 31.9441C48.0559 32.1883 48.1668 32.0734 47.6009 31.6519C47.0311 31.2303 46.9167 31.6186 47.1126 30.9381C47.3088 30.2574 47.564 29.0332 47.0313 27.687C46.7836 27.0658 45.944 25.3645 45.1561 24.9465C45.0858 24.9058 44.8789 24.8208 45.0194 24.9946C45.2302 25.2573 46.3656 26.9289 46.6873 27.9238C47.0313 28.9927 47.0792 30.0135 46.9019 30.6607C46.7246 31.3116 46.4137 31.5704 46.0402 31.5704C45.6666 31.5704 45.3265 31.7479 45.3265 30.8899C45.3265 30.0282 45.4153 28.7299 44.9529 27.6314C44.4906 26.5367 43.9283 25.7822 43.8065 25.3199C43.6881 24.8575 43.418 23.6149 42.8597 22.9085C42.2974 22.2021 42.0534 21.7398 42.3454 20.9336C42.6376 20.1311 42.4193 19.9128 41.8351 19.7426C41.2507 19.5727 40.4703 19.3284 40.278 18.9365C40.082 18.5482 40.2041 17.7678 40.6406 17.5755C41.0805 17.3795 41.8092 17.6457 41.8351 18.208C41.861 18.7665 41.5909 19.0587 41.6652 19.1807C41.7391 19.3027 42.1272 19.4988 42.3235 19.2806C42.5157 19.0587 42.5677 18.378 42.3714 17.7457C42.1752 17.1132 42.0793 16.6731 41.3727 16.5288C40.6665 16.3807 40.3484 16.4289 40.0081 16.869C39.6678 17.3054 39.52 18.0118 39.6198 18.5259C39.7159 19.0363 39.5198 18.7441 39.1797 18.7182C38.8394 18.6959 38.9356 18.67 38.5953 18.6959C38.255 18.7182 38.3772 18.4999 38.3511 18.1338C38.3289 17.7676 38.2809 17.0132 37.7667 16.721C37.2563 16.4289 36.3799 16.7692 36.4019 17.9897C36.4278 19.2066 36.842 19.7908 37.0863 19.3507C37.3303 18.9142 37.2083 19.1326 36.9642 18.9365C36.7202 18.7442 36.55 17.9379 36.8163 17.6975C37.0863 17.4535 37.4007 17.4535 37.5745 17.5978C37.7447 17.7457 38.0109 18.2339 37.9628 18.5482C37.9147 18.8663 37.8888 18.8885 37.5745 19.1103C37.2564 19.3284 37.1344 19.5245 36.7683 19.7649C36.4021 20.0089 36.258 20.5712 36.5502 20.7155C36.8424 20.8634 36.8683 20.8375 37.1087 21.2037C37.3527 21.57 37.7669 21.74 38.7914 21.57C39.8122 21.3998 40.2337 21.1558 41.0068 20.8856C41.5691 20.6932 41.3729 20.7155 41.5691 20.4973C41.7613 20.2792 42.0794 20.5935 41.7872 20.7895C41.4951 20.9856 40.8365 21.1778 40.3486 21.348C39.864 21.5218 39.3019 22.0064 38.2811 21.9583C37.2566 21.9101 37.963 21.9324 37.6449 21.9101C37.3305 21.8842 37.1825 21.9324 37.5229 22.1764C37.8668 22.4206 37.841 22.4945 38.1331 22.5906C38.4253 22.6905 38.8136 22.6905 39.2796 22.5204C39.742 22.3466 40.9109 21.8361 41.2769 21.592C41.6395 21.348 41.9315 21.6661 41.5691 21.9101C41.203 22.1542 41.1031 22.0803 40.7628 22.2984C40.4226 22.5204 39.7901 22.8828 39.3759 23.2747C38.9617 23.663 38.8656 23.6889 38.3514 23.7112C37.8411 23.7371 37.523 23.2009 37.3047 22.9568C37.0866 22.7126 37.1087 22.5685 36.8424 22.2762C36.5761 21.984 36.5502 22.0542 36.5021 22.3723C36.4539 22.6904 36.0879 23.4929 35.7698 24.0293C35.4553 24.5655 35.4294 25.2239 35.4776 25.6862C35.5257 26.1486 35.4037 26.1966 35.0413 26.7328C34.6751 27.269 34.0648 28.8519 33.9687 29.3624C33.8724 29.8728 33.7506 30.9231 33.7985 31.5297C33.8467 32.14 33.6765 32.262 33.2364 31.8478C32.8 31.4336 32.6519 30.9713 32.6779 30.361C32.7002 29.8396 32.7704 29.4733 32.837 29.2811C32.9036 29.0888 32.8406 28.9557 32.7002 29.1924C32.4005 29.7101 32.3858 30.6052 32.4598 30.9233C32.53 31.2377 32.5559 31.7998 33.3586 32.5542C34.1648 33.3087 35.3335 34.3554 36.3063 35.0618C37.2826 35.7682 37.623 36.6448 36.1843 37.2773C37.0868 38.4978 37.5748 39.1301 37.1829 39.9327C37.989 39.4703 37.6784 38.3794 37.2901 38.0871C36.898 37.7949 37.1347 37.5695 37.4751 37.7914C37.8154 38.0096 37.9374 38.446 39.28 38.4238C40.6187 38.398 42.0612 38.2649 42.8677 37.0923C43.6702 35.9236 43.8256 36.9074 43.6293 37.5917C43.4371 38.2722 42.9561 39.8108 43.7107 39.6665C43.807 38.7639 44.0288 37.9837 44.0288 37.011C44.0288 36.0345 44.125 35.5648 44.0512 34.1521C43.977 32.7909 44.5651 32.6985 45.1718 32.6985C45.782 32.6985 45.5858 33.0904 45.1976 33.0645C44.8057 33.0388 44.3948 33.1867 44.3692 34.1853C44.3433 35.1838 44.3692 35.0877 44.5391 35.9865C44.7092 36.889 44.7353 37.1553 44.5874 38.1538C44.4431 39.1526 44.3209 39.6886 44.9793 40.299C45.6339 40.9093 46.6323 40.7355 47.1466 40.347C47.657 39.9587 48.6298 39.0564 49.5062 38.7641C50.3866 38.4719 51.3112 38.2538 51.7992 37.7655C52.2839 37.2774 52.1617 36.9371 51.6512 36.6707C51.1409 36.4007 50.6525 36.5227 50.2644 36.0863C49.8721 35.6462 49.6798 34.6734 49.8241 34.1594C49.972 33.6491 50.1422 33.8672 50.1422 34.2334C50.1422 34.5995 50.1646 34.9398 50.5307 35.402C50.8967 35.8643 51.2369 36.0863 51.8214 36.4487C52.4058 36.8149 52.7718 37.3993 52.0395 37.9133C51.3109 38.4236 50.8965 38.7159 50.2863 38.96C49.6797 39.2042 48.6813 39.7884 48.0707 40.3952C47.4604 41.0054 47.1202 41.5416 45.9258 41.5416C44.7348 41.5416 44.1875 41.2531 43.8325 40.5429C43.5883 40.0548 43.4661 40.1289 42.9078 40.103C42.3455 40.0807 40.4704 40.0548 39.0097 40.0807C37.5488 40.103 37.0607 40.347 36.4023 40.8832C35.7477 41.4195 35.5035 41.8338 34.2609 41.4195C33.0183 41.0051 32.3599 40.5429 30.5106 40.1769C28.6576 39.8108 29.6563 39.9808 28.5356 39.7368C27.415 39.4964 27.4889 38.96 27.637 38.52C27.7812 38.0836 28.1473 37.3993 27.8292 36.5007C27.5148 35.5981 27.637 34.6735 28.4874 34.6735C29.3417 34.6735 30.1444 34.8437 30.4846 33.7229C30.8249 32.6023 30.9247 33.4789 30.8249 33.7711C30.7288 34.0633 30.6806 34.8658 29.9261 34.988C29.1716 35.1098 29.0016 34.9398 28.5354 34.9398C28.0732 34.9398 27.8808 35.2579 28.1212 35.7941C28.3653 36.3302 28.6352 36.8888 28.5872 37.3511C28.5354 37.8133 28.4873 37.9837 28.1471 38.4236C27.8068 38.86 27.8549 39.082 28.4652 39.2263C29.0716 39.3743 30.1702 39.6664 31.191 39.9106C32.2154 40.1508 32.2895 40.1508 34.0647 40.617C35.8436 41.0791 36.3319 40.2507 36.4762 39.2522C36.6241 38.2534 35.9399 37.303 35.3074 36.3524C34.6749 35.4018 33.9941 34.3076 33.1655 33.3089C32.3371 32.3103 31.8489 32.2363 31.4347 32.4546C31.0203 32.6766 30.9464 32.6284 30.9242 32.0663C30.8983 31.5078 30.8501 31.1418 31.3125 30.3132C31.7748 29.4848 32.189 28.5822 32.6773 27.1953C33.1654 25.8084 33.6018 25.5385 34.4304 24.3439C35.2589 23.1531 34.8927 23.6152 35.4771 22.8127C36.0615 22.0066 35.8913 22.1543 35.8433 20.8858C35.7952 19.6208 35.7472 18.8885 35.6991 17.2315V17.2315ZM33.3727 27.136C33.4985 27.2878 33.676 26.929 33.861 26.7922C33.9407 26.7203 34.0009 26.6292 34.0358 26.5277C34.0707 26.4261 34.0793 26.3173 34.0607 26.2115C34.0422 26.097 33.8571 26.1338 33.8203 26.1745C33.7057 26.289 33.7315 26.4741 33.6501 26.6332C33.5576 26.8254 33.247 26.9808 33.3727 27.136V27.136ZM43.8432 22.0469C44.1058 22.2689 44.2685 22.4613 44.4126 22.1321C44.5608 21.8029 44.5608 21.6697 44.2057 21.5366C43.8543 21.3996 43.6954 21.2555 43.5362 21.0742C43.3773 20.8893 43.3219 21.2037 43.4512 21.5107C43.6101 21.888 43.7025 21.9324 43.8432 22.0469V22.0469ZM38.3546 19.0253C38.1733 18.9883 37.9552 19.0031 37.833 19.1473C37.7848 19.1955 37.8071 19.3323 37.8921 19.3693C38.003 19.4174 38.077 19.3065 38.0993 19.2214C38.1104 19.1843 38.1252 19.1364 38.1622 19.1252C38.2103 19.0993 38.2806 19.1216 38.3323 19.0993C38.3916 19.0771 38.3694 19.0253 38.3546 19.0253V19.0253ZM39.2164 19.0587C39.2904 19.1696 39.4236 19.1696 39.5344 19.2177C39.5935 19.2436 39.7157 19.2806 39.7526 19.1955C39.8378 18.9255 39.4715 19.0105 39.3014 19.0105C39.2645 19.0105 39.1793 18.9996 39.2164 19.0587ZM40.9919 17.8788C41.1582 17.8861 41.3838 18.1821 41.4059 18.5261C41.4094 18.5779 41.5502 18.5741 41.5797 18.5225C41.6576 18.3857 41.6021 18.2339 41.5651 18.0712C41.5352 17.9381 41.3764 17.8013 41.2432 17.742C41.1544 17.6975 41.0619 17.6829 40.9436 17.6975C40.914 17.7125 40.8106 17.8677 40.9919 17.8788V17.8788ZM37.3635 17.7938C37.2118 17.8048 37.2674 17.9231 37.2747 18.0193C37.4855 18.1376 37.5039 18.4039 37.5483 18.6148C37.5519 18.6961 37.6739 18.6592 37.6851 18.6334C37.7775 18.4632 37.6628 18.2709 37.6223 18.0712C37.5853 17.9676 37.5151 17.8493 37.4188 17.779C37.4042 17.7643 37.3781 17.7938 37.3635 17.7938ZM42.016 14.062C41.8643 13.94 41.6275 13.8919 41.5575 14.0916C41.4836 14.2617 41.513 14.4355 41.4722 14.6205C41.4722 14.6796 41.3983 14.6944 41.3578 14.7498C41.2985 14.82 41.3133 14.9088 41.3428 14.9347C41.4836 15.079 41.7423 14.7941 41.931 14.6944C42.0715 14.6055 42.2747 14.7203 42.4304 14.6205C42.4745 14.5909 42.4893 14.5205 42.445 14.4651C42.3452 14.2913 42.1714 14.1915 42.016 14.062Z" fill="black"/>
<path fill-rule="evenodd" clip-rule="evenodd" d="M46.4025 33.4272C46.4249 33.3272 46.4764 33.1313 46.5726 33.1018C46.606 33.0906 46.6356 33.1054 46.6465 33.1388C46.6686 33.2015 46.602 33.5605 46.6281 33.6418C46.6576 33.7268 46.7574 33.7157 46.8278 33.6936C46.9941 33.638 47.0904 33.4421 47.083 33.4237C47.083 33.4162 47.0791 33.4162 47.072 33.4162C47.0461 33.4237 47.0237 33.5161 46.9498 33.538C46.9018 33.553 46.8648 33.5455 46.8499 33.4975C46.8353 33.4457 46.8982 33.0759 46.8683 32.9907C46.8427 32.9057 46.7574 32.8835 46.6761 32.9094C46.4948 32.9686 46.4173 33.2459 46.3693 33.4087H46.3655L46.3914 33.0277L46.1657 33.1018L46.1548 33.8895L46.3656 33.8191C46.3694 33.6823 46.3766 33.5269 46.4025 33.4272V33.4272ZM47.3791 33.5121C47.5601 33.453 47.6414 33.2386 47.634 33.2125C47.6305 33.2052 47.6268 33.2014 47.6194 33.2014C47.6044 33.2088 47.5714 33.3309 47.4676 33.3641C47.4231 33.379 47.3826 33.3677 47.3717 33.3383C47.3567 33.2938 47.3678 33.2163 47.3678 33.1496L47.3753 32.7945L47.623 32.7131L47.6195 32.628L47.3718 32.7093L47.3828 32.3728L47.161 32.4986L47.1497 33.2494C47.1497 33.3307 47.1426 33.4009 47.1572 33.4381C47.1866 33.5344 47.2865 33.5455 47.3791 33.5121V33.5121Z" fill="black"/>
<path d="M26.4728 61C26.3977 61 26.3363 60.9761 26.2885 60.9283C26.2407 60.8805 26.2168 60.8191 26.2168 60.744V54.088C26.2168 54.0129 26.2407 53.9515 26.2885 53.9037C26.3363 53.8559 26.3977 53.832 26.4728 53.832H27.8245C27.8927 53.832 27.9508 53.8559 27.9986 53.9037C28.0532 53.9515 28.0805 54.0129 28.0805 54.088V59.4538H31.173C31.2481 59.4538 31.3095 59.4811 31.3573 59.5357C31.4119 59.5835 31.4392 59.6449 31.4392 59.72V60.744C31.4392 60.8191 31.4119 60.8805 31.3573 60.9283C31.3095 60.9761 31.2481 61 31.173 61H26.4728ZM32.4702 61C32.3951 61 32.3336 60.9761 32.2858 60.9283C32.2381 60.8805 32.2142 60.8191 32.2142 60.744V55.9312C32.2142 55.8561 32.2381 55.7947 32.2858 55.7469C32.3336 55.6991 32.3951 55.6752 32.4702 55.6752H33.6785C33.7467 55.6752 33.8048 55.6991 33.8526 55.7469C33.9072 55.7947 33.9345 55.8561 33.9345 55.9312V60.744C33.9345 60.8191 33.9072 60.8805 33.8526 60.9283C33.8048 60.9761 33.7467 61 33.6785 61H32.4702ZM32.4599 54.9072C32.3848 54.9072 32.3234 54.8833 32.2756 54.8355C32.2278 54.7877 32.2039 54.7263 32.2039 54.6512V53.7398C32.2039 53.6647 32.2278 53.6033 32.2756 53.5555C32.3234 53.5009 32.3848 53.4736 32.4599 53.4736H33.6785C33.7536 53.4736 33.815 53.5009 33.8628 53.5555C33.9174 53.6033 33.9447 53.6647 33.9447 53.7398V54.6512C33.9447 54.7263 33.9174 54.7877 33.8628 54.8355C33.815 54.8833 33.7536 54.9072 33.6785 54.9072H32.4599ZM35.7102 61C35.6351 61 35.5736 60.9761 35.5258 60.9283C35.4781 60.8805 35.4542 60.8191 35.4542 60.744V55.9312C35.4542 55.8561 35.4781 55.7947 35.5258 55.7469C35.5736 55.6991 35.6351 55.6752 35.7102 55.6752H36.8878C36.9629 55.6752 37.0243 55.6991 37.0721 55.7469C37.1199 55.7947 37.1438 55.8561 37.1438 55.9312V56.3203C37.3213 56.1087 37.5534 55.9312 37.8401 55.7878C38.1268 55.6445 38.4647 55.5728 38.8538 55.5728C39.2498 55.5728 39.5979 55.6615 39.8983 55.839C40.2055 56.0165 40.4445 56.2794 40.6151 56.6275C40.7926 56.9689 40.8814 57.3887 40.8814 57.887V60.744C40.8814 60.8191 40.8541 60.8805 40.7994 60.9283C40.7517 60.9761 40.6936 61 40.6254 61H39.3351C39.2669 61 39.2054 60.9761 39.1508 60.9283C39.103 60.8805 39.0791 60.8191 39.0791 60.744V57.9485C39.0791 57.6276 39.0006 57.3819 38.8436 57.2112C38.6934 57.0337 38.4681 56.945 38.1678 56.945C37.8879 56.945 37.6626 57.0337 37.4919 57.2112C37.3281 57.3819 37.2462 57.6276 37.2462 57.9485V60.744C37.2462 60.8191 37.2189 60.8805 37.1642 60.9283C37.1165 60.9761 37.0584 61 36.9902 61H35.7102ZM43.98 61.1024C43.5909 61.1024 43.2427 61.0137 42.9355 60.8362C42.6351 60.6587 42.3996 60.3993 42.229 60.0579C42.0583 59.7098 41.973 59.2865 41.973 58.7882V55.9312C41.973 55.8561 41.9969 55.7947 42.0446 55.7469C42.0924 55.6991 42.1539 55.6752 42.229 55.6752H43.509C43.5841 55.6752 43.6455 55.6991 43.6933 55.7469C43.7411 55.7947 43.765 55.8561 43.765 55.9312V58.7267C43.765 59.3957 44.0653 59.7302 44.6661 59.7302C44.946 59.7302 45.1678 59.6449 45.3317 59.4742C45.5023 59.2967 45.5877 59.0476 45.5877 58.7267V55.9312C45.5877 55.8561 45.6116 55.7947 45.6594 55.7469C45.7071 55.6991 45.7686 55.6752 45.8437 55.6752H47.1237C47.1988 55.6752 47.2602 55.6991 47.308 55.7469C47.3558 55.7947 47.3797 55.8561 47.3797 55.9312V60.744C47.3797 60.8191 47.3558 60.8805 47.308 60.9283C47.2602 60.9761 47.1988 61 47.1237 61H45.9358C45.8676 61 45.8061 60.9761 45.7515 60.9283C45.7037 60.8805 45.6798 60.8191 45.6798 60.744V60.3549C45.5023 60.6006 45.2702 60.7884 44.9835 60.9181C44.7036 61.041 44.3691 61.1024 43.98 61.1024ZM48.3691 61C48.3077 61 48.2531 60.9795 48.2053 60.9386C48.1643 60.8908 48.1438 60.8362 48.1438 60.7747C48.1438 60.7542 48.1473 60.7303 48.1541 60.703C48.1609 60.6689 48.1746 60.6382 48.195 60.6109L49.9051 58.2659L48.3486 56.0643C48.3282 56.037 48.3111 56.0097 48.2974 55.9824C48.2906 55.9551 48.2872 55.9278 48.2872 55.9005C48.2872 55.839 48.3111 55.7878 48.3589 55.7469C48.4067 55.6991 48.4613 55.6752 48.5227 55.6752H49.772C49.8607 55.6752 49.9256 55.6957 49.9666 55.7366C50.0143 55.7776 50.0485 55.8151 50.069 55.8493L51.0213 57.1702L51.9634 55.8595C51.9907 55.8254 52.0248 55.7878 52.0658 55.7469C52.1135 55.6991 52.1818 55.6752 52.2706 55.6752H53.4686C53.5301 55.6752 53.5813 55.6991 53.6222 55.7469C53.67 55.7878 53.6939 55.839 53.6939 55.9005C53.6939 55.9278 53.6905 55.9551 53.6837 55.9824C53.6769 56.0097 53.6632 56.037 53.6427 56.0643L52.0453 58.2659L53.7758 60.6109C53.8031 60.6382 53.8202 60.6655 53.827 60.6928C53.8339 60.7201 53.8373 60.7474 53.8373 60.7747C53.8373 60.8362 53.8134 60.8908 53.7656 60.9386C53.7246 60.9795 53.67 61 53.6018 61H52.3013C52.2194 61 52.1579 60.9829 52.117 60.9488C52.076 60.9078 52.0419 60.8703 52.0146 60.8362L50.9803 59.4333L49.9358 60.8362C49.9085 60.8635 49.8744 60.8976 49.8334 60.9386C49.7925 60.9795 49.7276 61 49.6389 61H48.3691Z" fill="#E5E5E5"/>
</g>
<defs>
<filter id="filter0_d_603_591" x="0" y="0" width="80" height="80" filterUnits="userSpaceOnUse" color-interpolation-filters="sRGB">
<feFlood flood-opacity="0" result="BackgroundImageFix"/>
<feColorMatrix in="SourceAlpha" type="matrix" values="0 0 0 0 0 0 0 0 0 0 0 0 0 0 0 0 0 0 127 0" result="hardAlpha"/>
<feOffset dy="2"/>
<feGaussianBlur stdDeviation="4"/>
<feColorMatrix type="matrix" values="0 0 0 0 0 0 0 0 0 0 0 0 0 0 0 0 0 0 0.75 0"/>
<feBlend mode="normal" in2="BackgroundImageFix" result="effect1_dropShadow_603_591"/>
<feBlend mode="normal" in="SourceGraphic" in2="effect1_dropShadow_603_591" result="shape"/>
</filter>
</defs>
</svg>
