<svg width="80" height="80" viewBox="0 0 80 80" fill="none" xmlns="http://www.w3.org/2000/svg">
<g filter="url(#filter0_d_603_576)">
<rect x="8" y="6" width="64" height="64" rx="5" fill="#212529"/>
<path d="M48.9772 36.9986C47.8706 38.652 46.6972 40.2653 44.9106 40.2919C43.1239 40.3319 42.5506 39.2386 40.5239 39.2386C38.4839 39.2386 37.8572 40.2653 36.1639 40.332C34.4172 40.3986 33.0972 38.5719 31.9772 36.9586C29.6972 33.6653 27.9506 27.5986 30.2972 23.5186C31.4572 21.4919 33.5372 20.212 35.7906 20.172C37.4972 20.1453 39.1239 21.332 40.1772 21.332C41.2172 21.332 43.1906 19.9053 45.2572 20.1186C46.1239 20.1586 48.5506 20.4653 50.1106 22.7586C49.9906 22.8386 47.2172 24.4653 47.2439 27.8386C47.2839 31.8653 50.7772 33.212 50.8172 33.2253C50.7772 33.3186 50.2572 35.1453 48.9772 36.9986ZM41.3639 15.6653C42.3372 14.5586 43.9506 13.7186 45.2839 13.6653C45.4572 15.2253 44.8306 16.7986 43.8972 17.9186C42.9772 19.052 41.4572 19.932 39.9639 19.812C39.7639 18.2786 40.5106 16.6786 41.3639 15.6653Z" fill="white"/>
<path d="M30.4728 61C30.4045 61 30.3431 60.9761 30.2885 60.9283C30.2407 60.8805 30.2168 60.8191 30.2168 60.744V54.088C30.2168 54.0129 30.2407 53.9515 30.2885 53.9037C30.3431 53.8559 30.4045 53.832 30.4728 53.832H31.5787C31.6879 53.832 31.7699 53.8627 31.8245 53.9242C31.8859 53.9788 31.9235 54.0231 31.9371 54.0573L33.7394 57.2931L35.5416 54.0573C35.5621 54.0231 35.5962 53.9788 35.644 53.9242C35.6986 53.8627 35.7839 53.832 35.9 53.832H36.9957C37.0708 53.832 37.1322 53.8559 37.18 53.9037C37.2346 53.9515 37.2619 54.0129 37.2619 54.088V60.744C37.2619 60.8191 37.2346 60.8805 37.18 60.9283C37.1322 60.9761 37.0708 61 36.9957 61H35.7771C35.702 61 35.6372 60.9761 35.5826 60.9283C35.5348 60.8805 35.5109 60.8191 35.5109 60.744V56.904L34.3538 59.0442C34.3265 59.1056 34.2855 59.1602 34.2309 59.208C34.1763 59.2558 34.1012 59.2797 34.0056 59.2797H33.4731C33.3775 59.2797 33.3025 59.2558 33.2478 59.208C33.1932 59.1602 33.1489 59.1056 33.1147 59.0442L31.9576 56.904V60.744C31.9576 60.8191 31.9337 60.8805 31.8859 60.9283C31.8381 60.9761 31.7767 61 31.7016 61H30.4728ZM40.1716 61.1024C39.803 61.1024 39.4719 61.0341 39.1783 60.8976C38.8916 60.7542 38.6629 60.5631 38.4922 60.3242C38.3216 60.0852 38.2362 59.8156 38.2362 59.5152C38.2362 59.0305 38.4342 58.6482 38.8302 58.3683C39.2261 58.0816 39.7518 57.887 40.4071 57.7846L41.6871 57.5901V57.4467C41.6871 57.201 41.6359 57.0132 41.5335 56.8835C41.4311 56.7538 41.2434 56.689 40.9703 56.689C40.7792 56.689 40.6222 56.7265 40.4993 56.8016C40.3832 56.8767 40.2911 56.9791 40.2228 57.1088C40.1614 57.1975 40.076 57.2419 39.9668 57.2419H38.8199C38.7448 57.2419 38.6868 57.2214 38.6458 57.1805C38.6049 57.1327 38.5878 57.0781 38.5946 57.0166C38.5946 56.8938 38.639 56.7538 38.7278 56.5968C38.8233 56.433 38.9667 56.2725 39.1578 56.1155C39.349 55.9585 39.5947 55.8288 39.8951 55.7264C40.1955 55.624 40.5573 55.5728 40.9806 55.5728C41.4243 55.5728 41.8032 55.624 42.1172 55.7264C42.4312 55.8288 42.6838 55.9722 42.875 56.1565C43.0729 56.3408 43.2197 56.5593 43.3153 56.8118C43.4109 57.0576 43.4586 57.3307 43.4586 57.631V60.744C43.4586 60.8191 43.4313 60.8805 43.3767 60.9283C43.3289 60.9761 43.2709 61 43.2026 61H42.0148C41.9397 61 41.8783 60.9761 41.8305 60.9283C41.7827 60.8805 41.7588 60.8191 41.7588 60.744V60.3856C41.6701 60.5153 41.5506 60.6348 41.4004 60.744C41.2502 60.8532 41.0727 60.9386 40.8679 61C40.6699 61.0683 40.4378 61.1024 40.1716 61.1024ZM40.6529 59.935C40.8509 59.935 41.0283 59.8941 41.1854 59.8122C41.3492 59.7234 41.4755 59.5903 41.5642 59.4128C41.6598 59.2285 41.7076 58.9998 41.7076 58.7267V58.5834L40.8372 58.737C40.5163 58.7916 40.2808 58.8769 40.1306 58.993C39.9873 59.1022 39.9156 59.2319 39.9156 59.3821C39.9156 59.4981 39.9497 59.5971 40.018 59.679C40.0863 59.761 40.175 59.8258 40.2842 59.8736C40.3935 59.9146 40.5163 59.935 40.6529 59.935ZM47.0615 61.1024C46.5563 61.1024 46.1092 61.0102 45.7201 60.8259C45.331 60.6416 45.0203 60.3754 44.7882 60.0272C44.563 59.6722 44.4401 59.249 44.4196 58.7574C44.4128 58.6482 44.4094 58.5117 44.4094 58.3478C44.4094 58.1772 44.4128 58.0372 44.4196 57.928C44.4401 57.4297 44.563 57.0064 44.7882 56.6582C45.0135 56.3033 45.3207 56.0336 45.7098 55.8493C46.1058 55.665 46.5563 55.5728 47.0615 55.5728C47.5326 55.5728 47.9353 55.6411 48.2698 55.7776C48.6043 55.9073 48.8774 56.0711 49.089 56.2691C49.3007 56.4671 49.4577 56.6719 49.5601 56.8835C49.6693 57.0883 49.7273 57.2692 49.7342 57.4262C49.741 57.4945 49.7171 57.5559 49.6625 57.6106C49.6079 57.6583 49.5464 57.6822 49.4782 57.6822H48.1777C48.1026 57.6822 48.0446 57.6652 48.0036 57.631C47.9626 57.5969 47.9251 57.5457 47.891 57.4774C47.809 57.2658 47.7032 57.1156 47.5735 57.0269C47.4506 56.9381 47.2902 56.8938 47.0922 56.8938C46.8192 56.8938 46.6075 56.9825 46.4574 57.16C46.314 57.3375 46.2355 57.6106 46.2218 57.9792C46.215 58.2523 46.215 58.4946 46.2218 58.7062C46.2355 59.0817 46.314 59.3548 46.4574 59.5254C46.6075 59.6961 46.8192 59.7814 47.0922 59.7814C47.3039 59.7814 47.4711 59.7371 47.594 59.6483C47.7169 59.5596 47.8159 59.4094 47.891 59.1978C47.9251 59.1295 47.9626 59.0783 48.0036 59.0442C48.0446 59.01 48.1026 58.993 48.1777 58.993H49.4782C49.5464 58.993 49.6079 59.0203 49.6625 59.0749C49.7171 59.1227 49.741 59.1807 49.7342 59.249C49.7273 59.365 49.6932 59.5015 49.6318 59.6586C49.5703 59.8087 49.4747 59.9692 49.345 60.1398C49.2153 60.3105 49.0447 60.4709 48.833 60.6211C48.6282 60.7645 48.3791 60.8805 48.0855 60.9693C47.792 61.058 47.4506 61.1024 47.0615 61.1024Z" fill="#E5E5E5"/>
</g>
<defs>
<filter id="filter0_d_603_576" x="0" y="0" width="80" height="80" filterUnits="userSpaceOnUse" color-interpolation-filters="sRGB">
<feFlood flood-opacity="0" result="BackgroundImageFix"/>
<feColorMatrix in="SourceAlpha" type="matrix" values="0 0 0 0 0 0 0 0 0 0 0 0 0 0 0 0 0 0 127 0" result="hardAlpha"/>
<feOffset dy="2"/>
<feGaussianBlur stdDeviation="4"/>
<feColorMatrix type="matrix" values="0 0 0 0 0 0 0 0 0 0 0 0 0 0 0 0 0 0 0.75 0"/>
<feBlend mode="normal" in2="BackgroundImageFix" result="effect1_dropShadow_603_576"/>
<feBlend mode="normal" in="SourceGraphic" in2="effect1_dropShadow_603_576" result="shape"/>
</filter>
</defs>
</svg>
