<svg width="80" height="80" viewBox="0 0 80 80" fill="none" xmlns="http://www.w3.org/2000/svg">
<g filter="url(#filter0_d_602_867)">
<rect x="8" y="6" width="64" height="64" rx="5" fill="#212529"/>
<g clip-path="url(#clip0_602_867)">
<path fill-rule="evenodd" clip-rule="evenodd" d="M24 21.6666C24 18.7211 26.3878 16.3333 29.3333 16.3333H50.6667C53.6121 16.3333 56 18.7211 56 21.6666V32.3333C56 35.2787 53.6121 37.6666 50.6667 37.6666H29.3333C26.3878 37.6666 24 35.2787 24 32.3333V21.6666ZM29.3333 18.9999C27.8606 18.9999 26.6667 20.1938 26.6667 21.6666V32.3333C26.6667 33.8061 27.8606 34.9999 29.3333 34.9999H50.6667C52.1395 34.9999 53.3333 33.8061 53.3333 32.3333V21.6666C53.3333 20.1938 52.1395 18.9999 50.6667 18.9999H29.3333ZM31.5784 21.735C32.1228 21.5535 32.7223 21.7408 33.0667 22.1999L36 26.111L38.9333 22.1999C39.2777 21.7408 39.8772 21.5535 40.4216 21.735C40.9661 21.9165 41.3333 22.426 41.3333 22.9999V30.9999C41.3333 31.7363 40.7364 32.3333 40 32.3333C39.2636 32.3333 38.6667 31.7363 38.6667 30.9999V26.9999L37.0667 29.1333C36.8149 29.469 36.4197 29.6666 36 29.6666C35.5803 29.6666 35.1851 29.469 34.9333 29.1333L33.3333 26.9999V30.9999C33.3333 31.7363 32.7364 32.3333 32 32.3333C31.2636 32.3333 30.6667 31.7363 30.6667 30.9999V22.9999C30.6667 22.426 31.0339 21.9165 31.5784 21.735ZM48 22.9999C48 22.2635 47.4031 21.6666 46.6667 21.6666C45.9303 21.6666 45.3333 22.2635 45.3333 22.9999V27.781L44.9428 27.3905C44.4221 26.8698 43.5779 26.8698 43.0572 27.3905C42.5365 27.9111 42.5365 28.7554 43.0572 29.2761L45.7239 31.9427C46.2445 32.4634 47.0888 32.4634 47.6095 31.9427L50.2761 29.2761C50.7968 28.7554 50.7968 27.9111 50.2761 27.3905C49.7555 26.8698 48.9112 26.8698 48.3905 27.3905L48 27.781V22.9999Z" fill="white"/>
</g>
<path d="M19.2781 60C19.2234 60 19.1743 59.9809 19.1306 59.9427C19.0924 59.9045 19.0733 59.8553 19.0733 59.7953V54.4718C19.0733 54.4117 19.0924 54.3625 19.1306 54.3243C19.1743 54.2861 19.2234 54.267 19.2781 54.267H20.1626C20.2499 54.267 20.3155 54.2916 20.3591 54.3407C20.4083 54.3844 20.4383 54.4199 20.4492 54.4472L21.8907 57.0352L23.3321 54.4472C23.3485 54.4199 23.3758 54.3844 23.414 54.3407C23.4577 54.2916 23.5259 54.267 23.6187 54.267H24.4951C24.5551 54.267 24.6043 54.2861 24.6425 54.3243C24.6862 54.3625 24.708 54.4117 24.708 54.4718V59.7953C24.708 59.8553 24.6862 59.9045 24.6425 59.9427C24.6043 59.9809 24.5551 60 24.4951 60H23.5205C23.4604 60 23.4085 59.9809 23.3649 59.9427C23.3266 59.9045 23.3075 59.8553 23.3075 59.7953V56.724L22.3821 58.4357C22.3602 58.4848 22.3275 58.5285 22.2838 58.5667C22.2401 58.605 22.18 58.6241 22.1036 58.6241H21.6777C21.6013 58.6241 21.5412 58.605 21.4975 58.5667C21.4539 58.5285 21.4184 58.4848 21.3911 58.4357L20.4656 56.724V59.7953C20.4656 59.8553 20.4465 59.9045 20.4083 59.9427C20.37 59.9809 20.3209 60 20.2608 60H19.2781ZM27.0352 60.0819C26.7404 60.0819 26.4755 60.0273 26.2408 59.9181C26.0114 59.8034 25.8285 59.6506 25.692 59.4595C25.5555 59.2684 25.4873 59.0527 25.4873 58.8124C25.4873 58.4248 25.6456 58.119 25.9623 57.8952C26.279 57.6658 26.6994 57.5102 27.2236 57.4283L28.2473 57.2727V57.1581C28.2473 56.9615 28.2064 56.8114 28.1245 56.7076C28.0426 56.6039 27.8924 56.552 27.674 56.552C27.5211 56.552 27.3956 56.582 27.2973 56.6421C27.2045 56.7022 27.1307 56.7841 27.0761 56.8878C27.027 56.9588 26.9588 56.9943 26.8714 56.9943H25.9541C25.8941 56.9943 25.8476 56.9779 25.8149 56.9451C25.7821 56.9069 25.7685 56.8632 25.7739 56.8141C25.7739 56.7158 25.8094 56.6039 25.8804 56.4783C25.9568 56.3473 26.0715 56.2189 26.2244 56.0934C26.3773 55.9678 26.5738 55.8641 26.8141 55.7821C27.0543 55.7002 27.3437 55.6593 27.6822 55.6593C28.0371 55.6593 28.3401 55.7002 28.5913 55.7821C28.8425 55.8641 29.0445 55.9787 29.1974 56.1261C29.3557 56.2736 29.4731 56.4483 29.5495 56.6503C29.626 56.8468 29.6642 57.0652 29.6642 57.3055V59.7953C29.6642 59.8553 29.6423 59.9045 29.5987 59.9427C29.5604 59.9809 29.514 60 29.4594 60H28.5094C28.4493 60 28.4002 59.9809 28.362 59.9427C28.3238 59.9045 28.3046 59.8553 28.3046 59.7953V59.5086C28.2337 59.6123 28.1381 59.7079 28.018 59.7953C27.8979 59.8826 27.7559 59.9509 27.5921 60C27.4338 60.0546 27.2481 60.0819 27.0352 60.0819ZM27.4201 59.1482C27.5785 59.1482 27.7204 59.1155 27.846 59.05C27.977 58.979 28.0781 58.8725 28.149 58.7306C28.2255 58.5831 28.2637 58.4002 28.2637 58.1818V58.0672L27.5675 58.19C27.3109 58.2337 27.1226 58.3019 27.0024 58.3948C26.8878 58.4821 26.8304 58.5859 26.8304 58.706C26.8304 58.7988 26.8577 58.878 26.9123 58.9435C26.9669 59.009 27.0379 59.0609 27.1253 59.0991C27.2126 59.1319 27.3109 59.1482 27.4201 59.1482ZM30.7931 60C30.7331 60 30.6839 59.9809 30.6457 59.9427C30.6075 59.9045 30.5884 59.8553 30.5884 59.7953V55.9459C30.5884 55.8914 30.6075 55.8449 30.6457 55.8067C30.6839 55.763 30.7331 55.7412 30.7931 55.7412H31.735C31.795 55.7412 31.8442 55.763 31.8824 55.8067C31.9206 55.8449 31.9397 55.8914 31.9397 55.9459V56.2736C32.0871 56.1043 32.2619 55.9732 32.4639 55.8804C32.6714 55.7876 32.9034 55.7412 33.16 55.7412H33.5204C33.575 55.7412 33.6214 55.7603 33.6596 55.7985C33.7033 55.8367 33.7251 55.8859 33.7251 55.9459V56.7895C33.7251 56.8441 33.7033 56.8933 33.6596 56.9369C33.6214 56.9752 33.575 56.9943 33.5204 56.9943H32.726C32.5021 56.9943 32.3274 57.0571 32.2018 57.1826C32.0817 57.3028 32.0216 57.4747 32.0216 57.6986V59.7953C32.0216 59.8553 31.9998 59.9045 31.9561 59.9427C31.9179 59.9809 31.8687 60 31.8087 60H30.7931ZM34.5122 60C34.4522 60 34.403 59.9809 34.3648 59.9427C34.3266 59.9045 34.3075 59.8553 34.3075 59.7953V54.3898C34.3075 54.3298 34.3266 54.2807 34.3648 54.2424C34.403 54.2042 34.4522 54.1851 34.5122 54.1851H35.4623C35.5169 54.1851 35.5633 54.2042 35.6015 54.2424C35.6452 54.2807 35.667 54.3298 35.667 54.3898V57.1335L36.8054 55.8804C36.8382 55.8422 36.8737 55.8094 36.9119 55.7821C36.9501 55.7548 37.0047 55.7412 37.0757 55.7412H38.1731C38.2223 55.7412 38.2632 55.7603 38.296 55.7985C38.3342 55.8313 38.3533 55.8722 38.3533 55.9214C38.3533 55.9432 38.3479 55.9678 38.3369 55.9951C38.326 56.0224 38.3096 56.0442 38.2878 56.0606L36.8136 57.6495L38.4926 59.6888C38.5362 59.7325 38.5581 59.7761 38.5581 59.8198C38.5581 59.869 38.539 59.9126 38.5007 59.9509C38.468 59.9836 38.4243 60 38.3697 60H37.2477C37.1658 60 37.1057 59.9863 37.0675 59.959C37.0293 59.9263 36.9938 59.8935 36.961 59.8608L35.667 58.3047V59.7953C35.667 59.8553 35.6452 59.9045 35.6015 59.9427C35.5633 59.9809 35.5169 60 35.4623 60H34.5122ZM40.5032 60.0819C40.2411 60.0819 40.0036 60.041 39.7907 59.959C39.5832 59.8717 39.403 59.7461 39.2501 59.5823C39.1027 59.4131 38.9881 59.211 38.9062 58.9763C38.8243 58.736 38.7778 58.463 38.7669 58.1573C38.7615 58.0481 38.7587 57.9525 38.7587 57.8706C38.7587 57.7832 38.7615 57.6877 38.7669 57.5839C38.7778 57.2891 38.8243 57.0243 38.9062 56.7895C38.9881 56.5547 39.1027 56.3527 39.2501 56.1835C39.3976 56.0142 39.5777 55.8859 39.7907 55.7985C40.0036 55.7057 40.2411 55.6593 40.5032 55.6593C40.7762 55.6593 41.011 55.7057 41.2075 55.7985C41.4041 55.8859 41.5706 56.0006 41.7071 56.1425V54.3898C41.7071 54.3298 41.7262 54.2807 41.7645 54.2424C41.8027 54.2042 41.8518 54.1851 41.9119 54.1851H42.9111C42.9657 54.1851 43.0121 54.2042 43.0503 54.2424C43.094 54.2807 43.1158 54.3298 43.1158 54.3898V59.7953C43.1158 59.8553 43.094 59.9045 43.0503 59.9427C43.0121 59.9809 42.9657 60 42.9111 60H41.9856C41.9255 60 41.8764 59.9809 41.8382 59.9427C41.8 59.9045 41.7808 59.8553 41.7808 59.7953V59.5332C41.6498 59.6915 41.4805 59.8226 41.2731 59.9263C41.0656 60.03 40.809 60.0819 40.5032 60.0819ZM40.9455 58.9844C41.1311 58.9844 41.2758 58.9462 41.3795 58.8698C41.4887 58.7879 41.5679 58.6841 41.617 58.5586C41.6716 58.433 41.7017 58.2965 41.7071 58.1491C41.7126 58.0399 41.7153 57.9361 41.7153 57.8378C41.7153 57.7396 41.7126 57.6386 41.7071 57.5348C41.7017 57.3983 41.6716 57.2727 41.617 57.1581C41.5624 57.038 41.4805 56.9424 41.3713 56.8714C41.2621 56.795 41.1202 56.7568 40.9455 56.7568C40.7653 56.7568 40.6206 56.795 40.5114 56.8714C40.4077 56.9479 40.3339 57.0516 40.2903 57.1826C40.2466 57.3137 40.2193 57.4584 40.2084 57.6167C40.192 57.786 40.192 57.9552 40.2084 58.1245C40.2193 58.2828 40.2466 58.4275 40.2903 58.5586C40.3339 58.6896 40.4077 58.7933 40.5114 58.8698C40.6206 58.9462 40.7653 58.9844 40.9455 58.9844ZM46.0958 60.0819C45.6372 60.0819 45.2495 60.0082 44.9328 59.8608C44.6216 59.7133 44.3814 59.5031 44.2121 59.2301C44.0483 58.9517 43.9555 58.6214 43.9337 58.2392C43.9282 58.13 43.9255 58.0071 43.9255 57.8706C43.9255 57.7286 43.9282 57.6058 43.9337 57.5021C43.9555 57.1144 44.0538 56.7841 44.2285 56.5111C44.4032 56.2381 44.6462 56.0279 44.9574 55.8804C45.2741 55.733 45.6536 55.6593 46.0958 55.6593C46.5435 55.6593 46.923 55.733 47.2342 55.8804C47.5509 56.0279 47.7966 56.2381 47.9713 56.5111C48.146 56.7841 48.2443 57.1144 48.2662 57.5021C48.2716 57.6058 48.2744 57.7286 48.2744 57.8706C48.2744 58.0071 48.2716 58.13 48.2662 58.2392C48.2443 58.6214 48.1488 58.9517 47.9795 59.2301C47.8157 59.5031 47.5755 59.7133 47.2588 59.8608C46.9476 60.0082 46.5599 60.0819 46.0958 60.0819ZM46.0958 59.0827C46.3415 59.0827 46.519 59.009 46.6282 58.8616C46.7428 58.7142 46.8083 58.493 46.8247 58.1982C46.8302 58.1163 46.8329 58.0071 46.8329 57.8706C46.8329 57.7341 46.8302 57.6249 46.8247 57.543C46.8083 57.2536 46.7428 57.0352 46.6282 56.8878C46.519 56.7349 46.3415 56.6585 46.0958 56.6585C45.8556 56.6585 45.6781 56.7349 45.5635 56.8878C45.4488 57.0352 45.386 57.2536 45.3751 57.543C45.3696 57.6249 45.3669 57.7341 45.3669 57.8706C45.3669 58.0071 45.3696 58.1163 45.3751 58.1982C45.386 58.493 45.4488 58.7142 45.5635 58.8616C45.6781 59.009 45.8556 59.0827 46.0958 59.0827ZM50.1394 60C50.0575 60 49.9975 59.9809 49.9593 59.9427C49.921 59.9045 49.891 59.8553 49.8692 59.7953L48.6898 56.0033C48.6789 55.976 48.6734 55.9487 48.6734 55.9214C48.6734 55.8722 48.6925 55.8313 48.7308 55.7985C48.769 55.7603 48.8127 55.7412 48.8618 55.7412H49.7054C49.7764 55.7412 49.831 55.7603 49.8692 55.7985C49.9129 55.8367 49.9402 55.875 49.9511 55.9132L50.639 58.2555L51.3761 55.9214C51.3871 55.8832 51.4116 55.8449 51.4498 55.8067C51.4935 55.763 51.5536 55.7412 51.63 55.7412H52.1706C52.247 55.7412 52.3043 55.763 52.3426 55.8067C52.3862 55.8449 52.4135 55.8832 52.4245 55.9214L53.1616 58.2555L53.8495 55.9132C53.8604 55.875 53.885 55.8367 53.9232 55.7985C53.9669 55.7603 54.0242 55.7412 54.0952 55.7412H54.9388C54.9879 55.7412 55.0289 55.7603 55.0616 55.7985C55.0999 55.8313 55.119 55.8722 55.119 55.9214C55.119 55.9487 55.1162 55.976 55.1108 56.0033L53.9314 59.7953C53.915 59.8553 53.885 59.9045 53.8413 59.9427C53.8031 59.9809 53.743 60 53.6611 60H52.924C52.8476 60 52.7875 59.9809 52.7439 59.9427C52.7002 59.9045 52.6702 59.8553 52.6538 59.7953L51.9003 57.5512L51.1468 59.7953C51.1304 59.8553 51.1004 59.9045 51.0567 59.9427C51.013 59.9809 50.953 60 50.8765 60H50.1394ZM56.019 60C55.9589 60 55.9098 59.9809 55.8715 59.9427C55.8333 59.9045 55.8142 59.8553 55.8142 59.7953V55.9459C55.8142 55.8859 55.8333 55.8367 55.8715 55.7985C55.9098 55.7603 55.9589 55.7412 56.019 55.7412H56.9608C57.0209 55.7412 57.07 55.7603 57.1082 55.7985C57.1465 55.8367 57.1656 55.8859 57.1656 55.9459V56.2572C57.3075 56.0879 57.4932 55.946 57.7225 55.8313C57.9518 55.7166 58.2221 55.6593 58.5333 55.6593C58.85 55.6593 59.1284 55.7303 59.3687 55.8722C59.6144 56.0142 59.8055 56.2244 59.942 56.5029C60.0839 56.7759 60.1549 57.1117 60.1549 57.5102V59.7953C60.1549 59.8553 60.1331 59.9045 60.0894 59.9427C60.0512 59.9809 60.0048 60 59.9502 60H58.9182C58.8636 60 58.8145 59.9809 58.7708 59.9427C58.7326 59.9045 58.7135 59.8553 58.7135 59.7953V57.5594C58.7135 57.3028 58.6507 57.1062 58.5251 56.9697C58.405 56.8277 58.2248 56.7568 57.9846 56.7568C57.7607 56.7568 57.5805 56.8277 57.444 56.9697C57.313 57.1062 57.2475 57.3028 57.2475 57.5594V59.7953C57.2475 59.8553 57.2256 59.9045 57.1819 59.9427C57.1437 59.9809 57.0973 60 57.0427 60H56.019Z" fill="#E5E5E5"/>
</g>
<defs>
<filter id="filter0_d_602_867" x="0" y="0" width="80" height="80" filterUnits="userSpaceOnUse" color-interpolation-filters="sRGB">
<feFlood flood-opacity="0" result="BackgroundImageFix"/>
<feColorMatrix in="SourceAlpha" type="matrix" values="0 0 0 0 0 0 0 0 0 0 0 0 0 0 0 0 0 0 127 0" result="hardAlpha"/>
<feOffset dy="2"/>
<feGaussianBlur stdDeviation="4"/>
<feColorMatrix type="matrix" values="0 0 0 0 0 0 0 0 0 0 0 0 0 0 0 0 0 0 0.75 0"/>
<feBlend mode="normal" in2="BackgroundImageFix" result="effect1_dropShadow_602_867"/>
<feBlend mode="normal" in="SourceGraphic" in2="effect1_dropShadow_602_867" result="shape"/>
</filter>
<clipPath id="clip0_602_867">
<rect width="32" height="32" fill="white" transform="translate(24 11)"/>
</clipPath>
</defs>
</svg>
