<svg width="80" height="80" viewBox="0 0 80 80" fill="none" xmlns="http://www.w3.org/2000/svg">
<g filter="url(#filter0_d_603_695)">
<rect x="8" y="6" width="64" height="64" rx="5" fill="#212529"/>
<path d="M52.0236 20.1895C51.8356 19.8621 51.5738 19.5831 51.2589 19.3748C50.9441 19.1664 50.5849 19.0345 50.2101 18.9895C49.8352 18.9445 49.4551 18.9877 49.0999 19.1156C48.7447 19.2435 48.4242 19.4525 48.1641 19.7262L42.5564 16.4865C42.6622 16.1246 42.6821 15.7431 42.6148 15.3722C42.5475 15.0013 42.3947 14.6511 42.1686 14.3495C41.9424 14.0478 41.6492 13.803 41.312 13.6344C40.9748 13.4657 40.603 13.3779 40.226 13.3779C39.849 13.3779 39.4772 13.4657 39.14 13.6344C38.8029 13.803 38.5096 14.0478 38.2835 14.3495C38.0573 14.6511 37.9045 15.0013 37.8372 15.3722C37.7699 15.7431 37.7899 16.1246 37.8956 16.4865L32.2851 19.7241C32.0245 19.4512 31.7039 19.2429 31.3487 19.1155C30.9936 18.9881 30.6136 18.9452 30.239 18.9901C29.8644 19.0351 29.5054 19.1668 29.1905 19.3746C28.8755 19.5824 28.6134 19.8608 28.4247 20.1876C28.2361 20.5144 28.1262 20.8806 28.1037 21.2572C28.0812 21.6339 28.1467 22.0106 28.2952 22.3575C28.4436 22.7044 28.6707 23.012 28.9587 23.2558C29.2466 23.4997 29.5874 23.6731 29.954 23.7623V32.9296L37.8942 37.514C37.7885 37.8759 37.7685 38.2574 37.8358 38.6283C37.9032 38.9992 38.0559 39.3494 38.2821 39.651C38.5082 39.9527 38.8015 40.1975 39.1386 40.3661C39.4758 40.5348 39.8476 40.6226 40.2246 40.6226C40.6016 40.6226 40.9734 40.5348 41.3106 40.3661C41.6478 40.1975 41.941 39.9527 42.1672 39.651C42.3933 39.3494 42.5461 38.9992 42.6134 38.6283C42.6807 38.2574 42.6608 37.8759 42.5551 37.514L50.4855 32.9303V23.7637C50.8528 23.6757 51.1946 23.503 51.4834 23.2596C51.7722 23.0161 52.0002 22.7086 52.1492 22.3614C52.2982 22.0143 52.364 21.6372 52.3415 21.2601C52.319 20.883 52.2087 20.5164 52.0194 20.1895H52.0236ZM38.4695 17.4862L38.5439 17.5606L36.0563 21.8702L36.9071 22.7049L39.5443 18.1373C39.9878 18.2661 40.4587 18.2661 40.9022 18.1373L45.9582 26.9025L46.809 26.0677L41.9046 17.5613C41.9297 17.5369 41.9547 17.5119 41.9791 17.4868L47.5881 20.7272C47.4964 21.041 47.4692 21.3702 47.508 21.6948C47.5469 22.0195 47.6511 22.3329 47.8143 22.6162C47.9775 22.8995 48.1963 23.1469 48.4577 23.3434C48.719 23.5399 49.0174 23.6814 49.3349 23.7595V32.019H31.1088V23.7616C31.4273 23.6842 31.7269 23.5429 31.9892 23.3464C32.2516 23.1498 32.4714 22.9021 32.6353 22.6182C32.7991 22.3342 32.9037 22.02 32.9427 21.6945C32.9816 21.369 32.9541 21.039 32.8618 20.7244L38.4695 17.4862ZM40.2253 35.7651C39.8972 35.7643 39.5723 35.8303 39.2705 35.959C38.9687 36.0876 38.6961 36.2764 38.4695 36.5136L32.6845 33.1745H47.7592L41.9791 36.5136C41.7526 36.2767 41.4804 36.0882 41.1789 35.9595C40.8775 35.8309 40.5531 35.7647 40.2253 35.7651Z" fill="#864F00"/>
<path d="M51.1262 30.4923C50.8424 30.3288 50.5285 30.2244 50.2033 30.1854C49.8781 30.1464 49.5484 30.1737 49.234 30.2655L46.8111 26.0651L43.5707 29.2498L36.0577 21.8704L31.2111 30.2648C30.6695 30.1094 30.0907 30.1473 29.574 30.3719C29.0572 30.5965 28.6348 30.9939 28.379 31.496C28.1232 31.998 28.0501 32.5734 28.1721 33.1235C28.2942 33.6735 28.6038 34.164 29.0479 34.5108C29.4919 34.8576 30.0428 35.039 30.6061 35.0241C31.1693 35.0091 31.7098 34.7986 32.1349 34.4288C32.5599 34.0589 32.8431 33.5527 32.9357 32.9969C33.0284 32.4412 32.9248 31.8705 32.6427 31.3827C32.5261 31.182 32.3816 30.9988 32.2135 30.8387L36.313 23.7389L43.5707 30.8686L46.5565 27.9351L48.233 30.8408C47.8644 31.1931 47.616 31.6525 47.5231 32.1539C47.4301 32.6553 47.4973 33.1732 47.7151 33.6342C47.9328 34.0953 48.2902 34.4761 48.7365 34.7228C49.1827 34.9695 49.6953 35.0695 50.2016 35.0086C50.7078 34.9477 51.1821 34.7291 51.5572 34.3837C51.9323 34.0383 52.1891 33.5836 52.2914 33.084C52.3937 32.5845 52.3362 32.0654 52.1271 31.6004C51.918 31.1354 51.5678 30.7479 51.1262 30.493V30.4923Z" fill="#FFA11A"/>
<path d="M14.9728 61C14.9045 61 14.8431 60.9761 14.7885 60.9283C14.7407 60.8805 14.7168 60.8191 14.7168 60.744V54.088C14.7168 54.0129 14.7407 53.9515 14.7885 53.9037C14.8431 53.8559 14.9045 53.832 14.9728 53.832H16.0787C16.1879 53.832 16.2699 53.8627 16.3245 53.9242C16.3859 53.9788 16.4235 54.0231 16.4371 54.0573L18.2394 57.2931L20.0416 54.0573C20.0621 54.0231 20.0962 53.9788 20.144 53.9242C20.1986 53.8627 20.2839 53.832 20.4 53.832H21.4957C21.5708 53.832 21.6322 53.8559 21.68 53.9037C21.7346 53.9515 21.7619 54.0129 21.7619 54.088V60.744C21.7619 60.8191 21.7346 60.8805 21.68 60.9283C21.6322 60.9761 21.5708 61 21.4957 61H20.2771C20.202 61 20.1372 60.9761 20.0826 60.9283C20.0348 60.8805 20.0109 60.8191 20.0109 60.744V56.904L18.8538 59.0442C18.8265 59.1056 18.7855 59.1602 18.7309 59.208C18.6763 59.2558 18.6012 59.2797 18.5056 59.2797H17.9731C17.8775 59.2797 17.8025 59.2558 17.7478 59.208C17.6932 59.1602 17.6489 59.1056 17.6147 59.0442L16.4576 56.904V60.744C16.4576 60.8191 16.4337 60.8805 16.3859 60.9283C16.3381 60.9761 16.2767 61 16.2016 61H14.9728ZM25.5318 61.1024C24.7262 61.1024 24.0845 60.8839 23.6066 60.447C23.1288 60.0101 22.8796 59.3616 22.8591 58.5014C22.8591 58.4537 22.8591 58.3922 22.8591 58.3171C22.8591 58.242 22.8591 58.184 22.8591 58.143C22.8796 57.6037 22.9991 57.1429 23.2175 56.7606C23.4428 56.3715 23.75 56.078 24.1391 55.88C24.5351 55.6752 24.9959 55.5728 25.5215 55.5728C26.1223 55.5728 26.6172 55.6923 27.0063 55.9312C27.4023 56.1701 27.6992 56.4944 27.8972 56.904C28.0952 57.3136 28.1942 57.7812 28.1942 58.3069V58.5526C28.1942 58.6277 28.1669 58.6892 28.1122 58.737C28.0645 58.7847 28.0064 58.8086 27.9382 58.8086H24.6614C24.6614 58.8155 24.6614 58.8257 24.6614 58.8394C24.6614 58.853 24.6614 58.8667 24.6614 58.8803C24.6682 59.0783 24.7023 59.2592 24.7638 59.423C24.8252 59.5869 24.9208 59.7166 25.0505 59.8122C25.1802 59.9077 25.3372 59.9555 25.5215 59.9555C25.6581 59.9555 25.7707 59.935 25.8594 59.8941C25.955 59.8463 26.0335 59.7951 26.095 59.7405C26.1564 59.679 26.2042 59.6278 26.2383 59.5869C26.2998 59.5186 26.3475 59.4777 26.3817 59.464C26.4226 59.4435 26.4841 59.4333 26.566 59.4333H27.8358C27.904 59.4333 27.9586 59.4538 27.9996 59.4947C28.0474 59.5289 28.0679 59.5801 28.061 59.6483C28.0542 59.7644 27.9962 59.9043 27.887 60.0682C27.7777 60.232 27.6173 60.3958 27.4057 60.5597C27.2009 60.7167 26.9415 60.8464 26.6274 60.9488C26.3134 61.0512 25.9482 61.1024 25.5318 61.1024ZM24.6614 57.7949H26.3919V57.7744C26.3919 57.5559 26.3578 57.3648 26.2895 57.201C26.2281 57.0371 26.1291 56.9108 25.9926 56.8221C25.8629 56.7333 25.7058 56.689 25.5215 56.689C25.3372 56.689 25.1802 56.7333 25.0505 56.8221C24.9276 56.9108 24.832 57.0371 24.7638 57.201C24.6955 57.3648 24.6614 57.5559 24.6614 57.7744V57.7949ZM29.4102 61C29.3351 61 29.2736 60.9761 29.2258 60.9283C29.1781 60.8805 29.1542 60.8191 29.1542 60.744V55.9312C29.1542 55.8629 29.1781 55.8049 29.2258 55.7571C29.2736 55.7025 29.3351 55.6752 29.4102 55.6752H30.5878C30.6629 55.6752 30.7243 55.7025 30.7721 55.7571C30.8199 55.8049 30.8438 55.8629 30.8438 55.9312V56.3408C31.0281 56.1292 31.2465 55.9653 31.4991 55.8493C31.7585 55.7332 32.0487 55.6752 32.3695 55.6752H32.8201C32.8883 55.6752 32.9464 55.6991 32.9942 55.7469C33.0488 55.7947 33.0761 55.8561 33.0761 55.9312V56.9859C33.0761 57.0542 33.0488 57.1156 32.9942 57.1702C32.9464 57.218 32.8883 57.2419 32.8201 57.2419H31.8268C31.5469 57.2419 31.3285 57.3204 31.1714 57.4774C31.0213 57.6276 30.9462 57.8427 30.9462 58.1226V60.744C30.9462 60.8191 30.9189 60.8805 30.8642 60.9283C30.8165 60.9761 30.755 61 30.6799 61H29.4102ZM36.2115 61.1024C35.7063 61.1024 35.2592 61.0102 34.8701 60.8259C34.481 60.6416 34.1703 60.3754 33.9382 60.0272C33.713 59.6722 33.5901 59.249 33.5696 58.7574C33.5628 58.6482 33.5594 58.5117 33.5594 58.3478C33.5594 58.1772 33.5628 58.0372 33.5696 57.928C33.5901 57.4297 33.713 57.0064 33.9382 56.6582C34.1635 56.3033 34.4707 56.0336 34.8598 55.8493C35.2558 55.665 35.7063 55.5728 36.2115 55.5728C36.6826 55.5728 37.0853 55.6411 37.4198 55.7776C37.7543 55.9073 38.0274 56.0711 38.239 56.2691C38.4507 56.4671 38.6077 56.6719 38.7101 56.8835C38.8193 57.0883 38.8773 57.2692 38.8842 57.4262C38.891 57.4945 38.8671 57.5559 38.8125 57.6106C38.7579 57.6583 38.6964 57.6822 38.6282 57.6822H37.3277C37.2526 57.6822 37.1946 57.6652 37.1536 57.631C37.1126 57.5969 37.0751 57.5457 37.041 57.4774C36.959 57.2658 36.8532 57.1156 36.7235 57.0269C36.6006 56.9381 36.4402 56.8938 36.2422 56.8938C35.9692 56.8938 35.7575 56.9825 35.6074 57.16C35.464 57.3375 35.3855 57.6106 35.3718 57.9792C35.365 58.2523 35.365 58.4946 35.3718 58.7062C35.3855 59.0817 35.464 59.3548 35.6074 59.5254C35.7575 59.6961 35.9692 59.7814 36.2422 59.7814C36.4539 59.7814 36.6211 59.7371 36.744 59.6483C36.8669 59.5596 36.9659 59.4094 37.041 59.1978C37.0751 59.1295 37.1126 59.0783 37.1536 59.0442C37.1946 59.01 37.2526 58.993 37.3277 58.993H38.6282C38.6964 58.993 38.7579 59.0203 38.8125 59.0749C38.8671 59.1227 38.891 59.1807 38.8842 59.249C38.8773 59.365 38.8432 59.5015 38.7818 59.6586C38.7203 59.8087 38.6247 59.9692 38.495 60.1398C38.3653 60.3105 38.1947 60.4709 37.983 60.6211C37.7782 60.7645 37.5291 60.8805 37.2355 60.9693C36.942 61.058 36.6006 61.1024 36.2115 61.1024ZM41.76 61.1024C41.3709 61.1024 41.0227 61.0137 40.7155 60.8362C40.4151 60.6587 40.1796 60.3993 40.009 60.0579C39.8383 59.7098 39.753 59.2865 39.753 58.7882V55.9312C39.753 55.8561 39.7769 55.7947 39.8246 55.7469C39.8724 55.6991 39.9339 55.6752 40.009 55.6752H41.289C41.3641 55.6752 41.4255 55.6991 41.4733 55.7469C41.5211 55.7947 41.545 55.8561 41.545 55.9312V58.7267C41.545 59.3957 41.8453 59.7302 42.4461 59.7302C42.726 59.7302 42.9478 59.6449 43.1117 59.4742C43.2823 59.2967 43.3677 59.0476 43.3677 58.7267V55.9312C43.3677 55.8561 43.3916 55.7947 43.4394 55.7469C43.4871 55.6991 43.5486 55.6752 43.6237 55.6752H44.9037C44.9788 55.6752 45.0402 55.6991 45.088 55.7469C45.1358 55.7947 45.1597 55.8561 45.1597 55.9312V60.744C45.1597 60.8191 45.1358 60.8805 45.088 60.9283C45.0402 60.9761 44.9788 61 44.9037 61H43.7158C43.6476 61 43.5861 60.9761 43.5315 60.9283C43.4837 60.8805 43.4598 60.8191 43.4598 60.744V60.3549C43.2823 60.6006 43.0502 60.7884 42.7635 60.9181C42.4836 61.041 42.1491 61.1024 41.76 61.1024ZM46.6202 61C46.5451 61 46.4836 60.9761 46.4358 60.9283C46.3881 60.8805 46.3642 60.8191 46.3642 60.744V55.9312C46.3642 55.8629 46.3881 55.8049 46.4358 55.7571C46.4836 55.7025 46.5451 55.6752 46.6202 55.6752H47.7978C47.8729 55.6752 47.9343 55.7025 47.9821 55.7571C48.0299 55.8049 48.0538 55.8629 48.0538 55.9312V56.3408C48.2381 56.1292 48.4565 55.9653 48.7091 55.8493C48.9685 55.7332 49.2587 55.6752 49.5795 55.6752H50.0301C50.0983 55.6752 50.1564 55.6991 50.2042 55.7469C50.2588 55.7947 50.2861 55.8561 50.2861 55.9312V56.9859C50.2861 57.0542 50.2588 57.1156 50.2042 57.1702C50.1564 57.218 50.0983 57.2419 50.0301 57.2419H49.0368C48.7569 57.2419 48.5385 57.3204 48.3814 57.4774C48.2313 57.6276 48.1562 57.8427 48.1562 58.1226V60.744C48.1562 60.8191 48.1289 60.8805 48.0742 60.9283C48.0265 60.9761 47.965 61 47.8899 61H46.6202ZM51.2702 61C51.1951 61 51.1336 60.9761 51.0858 60.9283C51.0381 60.8805 51.0142 60.8191 51.0142 60.744V55.9312C51.0142 55.8561 51.0381 55.7947 51.0858 55.7469C51.1336 55.6991 51.1951 55.6752 51.2702 55.6752H52.4785C52.5467 55.6752 52.6048 55.6991 52.6526 55.7469C52.7072 55.7947 52.7345 55.8561 52.7345 55.9312V60.744C52.7345 60.8191 52.7072 60.8805 52.6526 60.9283C52.6048 60.9761 52.5467 61 52.4785 61H51.2702ZM51.2599 54.9072C51.1848 54.9072 51.1234 54.8833 51.0756 54.8355C51.0278 54.7877 51.0039 54.7263 51.0039 54.6512V53.7398C51.0039 53.6647 51.0278 53.6033 51.0756 53.5555C51.1234 53.5009 51.1848 53.4736 51.2599 53.4736H52.4785C52.5536 53.4736 52.615 53.5009 52.6628 53.5555C52.7174 53.6033 52.7447 53.6647 52.7447 53.7398V54.6512C52.7447 54.7263 52.7174 54.7877 52.6628 54.8355C52.615 54.8833 52.5536 54.9072 52.4785 54.9072H51.2599ZM55.89 61.1024C55.5009 61.1024 55.1527 61.0137 54.8455 60.8362C54.5451 60.6587 54.3096 60.3993 54.139 60.0579C53.9683 59.7098 53.883 59.2865 53.883 58.7882V55.9312C53.883 55.8561 53.9069 55.7947 53.9546 55.7469C54.0024 55.6991 54.0639 55.6752 54.139 55.6752H55.419C55.4941 55.6752 55.5555 55.6991 55.6033 55.7469C55.6511 55.7947 55.675 55.8561 55.675 55.9312V58.7267C55.675 59.3957 55.9753 59.7302 56.5761 59.7302C56.856 59.7302 57.0778 59.6449 57.2417 59.4742C57.4123 59.2967 57.4977 59.0476 57.4977 58.7267V55.9312C57.4977 55.8561 57.5216 55.7947 57.5694 55.7469C57.6171 55.6991 57.6786 55.6752 57.7537 55.6752H59.0337C59.1088 55.6752 59.1702 55.6991 59.218 55.7469C59.2658 55.7947 59.2897 55.8561 59.2897 55.9312V60.744C59.2897 60.8191 59.2658 60.8805 59.218 60.9283C59.1702 60.9761 59.1088 61 59.0337 61H57.8458C57.7776 61 57.7161 60.9761 57.6615 60.9283C57.6137 60.8805 57.5898 60.8191 57.5898 60.744V60.3549C57.4123 60.6006 57.1802 60.7884 56.8935 60.9181C56.6136 61.041 56.2791 61.1024 55.89 61.1024ZM62.6855 61.1024C62.2418 61.1024 61.8629 61.0546 61.5489 60.959C61.2417 60.8566 60.9891 60.7338 60.7911 60.5904C60.6 60.447 60.4566 60.3003 60.361 60.1501C60.2655 59.9931 60.2143 59.8599 60.2074 59.7507C60.2006 59.6756 60.2245 59.6142 60.2791 59.5664C60.3337 59.5118 60.3918 59.4845 60.4532 59.4845H61.6206C61.641 59.4845 61.6581 59.4879 61.6718 59.4947C61.6854 59.5015 61.7059 59.5152 61.7332 59.5357C61.8219 59.5835 61.9107 59.6449 61.9994 59.72C62.0882 59.7883 62.1906 59.8497 62.3066 59.9043C62.4227 59.9589 62.5626 59.9862 62.7265 59.9862C62.9176 59.9862 63.0781 59.9487 63.2078 59.8736C63.3375 59.7985 63.4023 59.6859 63.4023 59.5357C63.4023 59.4265 63.3716 59.3377 63.3102 59.2694C63.2487 59.1943 63.1224 59.1227 62.9313 59.0544C62.747 58.9861 62.4671 58.9179 62.0916 58.8496C61.7366 58.7677 61.426 58.6619 61.1598 58.5322C60.8935 58.3956 60.6887 58.2215 60.5454 58.0099C60.402 57.7915 60.3303 57.5286 60.3303 57.2214C60.3303 56.9484 60.4191 56.6855 60.5966 56.433C60.7741 56.1804 61.0335 55.9756 61.3748 55.8186C61.7161 55.6547 62.136 55.5728 62.6343 55.5728C63.0303 55.5728 63.3716 55.6206 63.6583 55.7162C63.9519 55.8049 64.1976 55.921 64.3956 56.0643C64.6004 56.2077 64.754 56.3545 64.8564 56.5046C64.9588 56.6548 65.0134 56.7914 65.0202 56.9142C65.0271 56.9825 65.0066 57.0439 64.9588 57.0986C64.911 57.1463 64.8564 57.1702 64.795 57.1702H63.73C63.7027 57.1702 63.6754 57.1668 63.6481 57.16C63.6208 57.1463 63.5969 57.1327 63.5764 57.119C63.4945 57.0781 63.4126 57.0235 63.3306 56.9552C63.2487 56.8869 63.1531 56.8255 63.0439 56.7709C62.9347 56.7163 62.7982 56.689 62.6343 56.689C62.45 56.689 62.3066 56.7299 62.2042 56.8118C62.1018 56.8938 62.0506 56.9996 62.0506 57.1293C62.0506 57.218 62.0779 57.2999 62.1326 57.375C62.194 57.4501 62.3135 57.5184 62.491 57.5798C62.6753 57.6413 62.9586 57.7095 63.3409 57.7846C63.8119 57.8597 64.1874 57.9826 64.4673 58.1533C64.7472 58.3171 64.9451 58.5117 65.0612 58.737C65.1773 58.9554 65.2353 59.1875 65.2353 59.4333C65.2353 59.761 65.1363 60.0511 64.9383 60.3037C64.7472 60.5563 64.4605 60.7542 64.0782 60.8976C63.6959 61.0341 63.2317 61.1024 62.6855 61.1024Z" fill="#E5E5E5"/>
</g>
<defs>
<filter id="filter0_d_603_695" x="0" y="0" width="80" height="80" filterUnits="userSpaceOnUse" color-interpolation-filters="sRGB">
<feFlood flood-opacity="0" result="BackgroundImageFix"/>
<feColorMatrix in="SourceAlpha" type="matrix" values="0 0 0 0 0 0 0 0 0 0 0 0 0 0 0 0 0 0 127 0" result="hardAlpha"/>
<feOffset dy="2"/>
<feGaussianBlur stdDeviation="4"/>
<feColorMatrix type="matrix" values="0 0 0 0 0 0 0 0 0 0 0 0 0 0 0 0 0 0 0.75 0"/>
<feBlend mode="normal" in2="BackgroundImageFix" result="effect1_dropShadow_603_695"/>
<feBlend mode="normal" in="SourceGraphic" in2="effect1_dropShadow_603_695" result="shape"/>
</filter>
</defs>
</svg>
