<svg width="80" height="80" viewBox="0 0 80 80" fill="none" xmlns="http://www.w3.org/2000/svg">
<g filter="url(#filter0_d_603_792)">
<rect x="8" y="6" width="64" height="64" rx="5" fill="#212529"/>
<path d="M38.7268 15.1604L39.4203 16.4629C39.5762 16.7033 39.7451 16.9161 39.9441 17.1142C40.5274 17.6902 41.0711 18.305 41.5715 18.9543C42.7465 20.4972 43.5391 22.2107 44.1051 24.0638C44.4445 25.1958 44.6288 26.357 44.6426 27.5312C44.6995 31.0418 43.496 34.0561 41.0696 36.5613C40.6749 36.9586 40.2485 37.323 39.7947 37.6511C39.5543 37.6511 39.4406 37.4667 39.3415 37.297C39.1611 36.9823 39.0411 36.6367 38.9875 36.2779C38.9022 35.8532 38.8462 35.4285 38.8738 34.99V34.7918C38.8543 34.7496 38.6424 15.2603 38.7268 15.1604V15.1604Z" fill="#599636"/>
<path d="M38.7268 15.1173C38.6984 15.0604 38.6699 15.1035 38.6415 15.1311C38.6553 15.4153 38.5562 15.6687 38.4011 15.9107C38.2306 16.151 38.0049 16.3354 37.7783 16.5335C36.5196 17.6233 35.5289 18.9396 34.7355 20.4119C33.6799 22.3933 33.1358 24.5168 32.9815 26.7524C32.9108 27.5588 33.2365 30.4042 33.4906 31.2252C34.1841 33.4048 35.4298 35.2311 37.0434 36.8162C37.4397 37.1979 37.8636 37.5519 38.3021 37.8922C38.4296 37.8922 38.4434 37.7785 38.4726 37.694C38.5285 37.5133 38.5711 37.3288 38.6001 37.1418L38.8843 35.0191L38.7268 15.1173Z" fill="#6CAC48"/>
<path d="M39.4202 38.5134C39.4486 38.1886 39.6045 37.919 39.7743 37.6502C39.6037 37.5796 39.477 37.4391 39.378 37.2824C39.2925 37.134 39.2218 36.9776 39.1668 36.8154C38.9687 36.221 38.9265 35.5973 38.8696 34.9899V34.6221C38.799 34.6789 38.7844 35.1597 38.7844 35.2311C38.743 35.8731 38.6578 36.5115 38.5294 37.1419C38.4872 37.3969 38.4587 37.651 38.302 37.8776C38.302 37.906 38.302 37.9344 38.3158 37.9767C38.5708 38.727 38.6406 39.4912 38.6837 40.2699V40.5541C38.6837 40.8936 38.6699 40.8221 38.9516 40.9358C39.0653 40.978 39.192 40.9926 39.3057 41.0771C39.391 41.0771 39.4048 41.0064 39.4048 40.9496L39.3625 40.4827V39.1801C39.3487 38.9528 39.391 38.727 39.4194 38.5143L39.4202 38.5134Z" fill="#C2BFBF"/>
<path d="M16.4728 61C16.4045 61 16.3431 60.9761 16.2885 60.9283C16.2407 60.8805 16.2168 60.8191 16.2168 60.744V54.088C16.2168 54.0129 16.2407 53.9515 16.2885 53.9037C16.3431 53.8559 16.4045 53.832 16.4728 53.832H17.5787C17.6879 53.832 17.7699 53.8627 17.8245 53.9242C17.8859 53.9788 17.9235 54.0231 17.9371 54.0573L19.7394 57.2931L21.5416 54.0573C21.5621 54.0231 21.5962 53.9788 21.644 53.9242C21.6986 53.8627 21.7839 53.832 21.9 53.832H22.9957C23.0708 53.832 23.1322 53.8559 23.18 53.9037C23.2346 53.9515 23.2619 54.0129 23.2619 54.088V60.744C23.2619 60.8191 23.2346 60.8805 23.18 60.9283C23.1322 60.9761 23.0708 61 22.9957 61H21.7771C21.702 61 21.6372 60.9761 21.5826 60.9283C21.5348 60.8805 21.5109 60.8191 21.5109 60.744V56.904L20.3538 59.0442C20.3265 59.1056 20.2855 59.1602 20.2309 59.208C20.1763 59.2558 20.1012 59.2797 20.0056 59.2797H19.4731C19.3775 59.2797 19.3025 59.2558 19.2478 59.208C19.1932 59.1602 19.1489 59.1056 19.1147 59.0442L17.9576 56.904V60.744C17.9576 60.8191 17.9337 60.8805 17.8859 60.9283C17.8381 60.9761 17.7767 61 17.7016 61H16.4728ZM27.0932 61.1024C26.5198 61.1024 26.0351 61.0102 25.6391 60.8259C25.25 60.6416 24.9496 60.3788 24.738 60.0374C24.5332 59.6893 24.4171 59.2763 24.3898 58.7984C24.383 58.6619 24.3796 58.5083 24.3796 58.3376C24.3796 58.1601 24.383 58.0065 24.3898 57.8768C24.4171 57.3921 24.54 56.9791 24.7585 56.6378C24.9769 56.2964 25.2807 56.0336 25.6698 55.8493C26.0658 55.665 26.5402 55.5728 27.0932 55.5728C27.653 55.5728 28.1274 55.665 28.5166 55.8493C28.9125 56.0336 29.2197 56.2964 29.4382 56.6378C29.6566 56.9791 29.7795 57.3921 29.8068 57.8768C29.8136 58.0065 29.817 58.1601 29.817 58.3376C29.817 58.5083 29.8136 58.6619 29.8068 58.7984C29.7795 59.2763 29.66 59.6893 29.4484 60.0374C29.2436 60.3788 28.9432 60.6416 28.5473 60.8259C28.1582 61.0102 27.6735 61.1024 27.0932 61.1024ZM27.0932 59.8531C27.4004 59.8531 27.6223 59.761 27.7588 59.5766C27.9022 59.3923 27.9841 59.1158 28.0046 58.7472C28.0114 58.6448 28.0148 58.5083 28.0148 58.3376C28.0148 58.1669 28.0114 58.0304 28.0046 57.928C27.9841 57.5662 27.9022 57.2931 27.7588 57.1088C27.6223 56.9177 27.4004 56.8221 27.0932 56.8221C26.7928 56.8221 26.571 56.9177 26.4276 57.1088C26.2842 57.2931 26.2057 57.5662 26.1921 57.928C26.1853 58.0304 26.1818 58.1669 26.1818 58.3376C26.1818 58.5083 26.1853 58.6448 26.1921 58.7472C26.2057 59.1158 26.2842 59.3923 26.4276 59.5766C26.571 59.761 26.7928 59.8531 27.0932 59.8531ZM31.0802 61C31.0051 61 30.9436 60.9761 30.8958 60.9283C30.8481 60.8805 30.8242 60.8191 30.8242 60.744V55.9312C30.8242 55.8561 30.8481 55.7947 30.8958 55.7469C30.9436 55.6991 31.0051 55.6752 31.0802 55.6752H32.2578C32.3329 55.6752 32.3943 55.6991 32.4421 55.7469C32.4899 55.7947 32.5138 55.8561 32.5138 55.9312V56.3203C32.6913 56.1087 32.9234 55.9312 33.2101 55.7878C33.4968 55.6445 33.8347 55.5728 34.2238 55.5728C34.6198 55.5728 34.9679 55.6615 35.2683 55.839C35.5755 56.0165 35.8145 56.2794 35.9851 56.6275C36.1626 56.9689 36.2514 57.3887 36.2514 57.887V60.744C36.2514 60.8191 36.2241 60.8805 36.1694 60.9283C36.1217 60.9761 36.0636 61 35.9954 61H34.7051C34.6369 61 34.5754 60.9761 34.5208 60.9283C34.473 60.8805 34.4491 60.8191 34.4491 60.744V57.9485C34.4491 57.6276 34.3706 57.3819 34.2136 57.2112C34.0634 57.0337 33.8381 56.945 33.5378 56.945C33.2579 56.945 33.0326 57.0337 32.8619 57.2112C32.6981 57.3819 32.6162 57.6276 32.6162 57.9485V60.744C32.6162 60.8191 32.5889 60.8805 32.5342 60.9283C32.4865 60.9761 32.4284 61 32.3602 61H31.0802ZM40.0054 63.2528C39.4797 63.2528 39.0428 63.1845 38.6946 63.048C38.3533 62.9115 38.0802 62.7476 37.8754 62.5565C37.6775 62.3653 37.5341 62.1742 37.4454 61.983C37.3566 61.7987 37.3088 61.6519 37.302 61.5427C37.2952 61.4676 37.3191 61.4062 37.3737 61.3584C37.4283 61.3106 37.4931 61.2867 37.5682 61.2867H38.8687C38.9302 61.2867 38.9814 61.3004 39.0223 61.3277C39.0701 61.3618 39.1077 61.4164 39.135 61.4915C39.1691 61.5666 39.2135 61.6451 39.2681 61.727C39.3295 61.809 39.4114 61.8738 39.5138 61.9216C39.6231 61.9762 39.7698 62.0035 39.9542 62.0035C40.159 62.0035 40.3296 61.9694 40.4662 61.9011C40.6027 61.8397 40.7051 61.7339 40.7734 61.5837C40.8416 61.4403 40.8758 61.2458 40.8758 61V60.3139C40.7187 60.4846 40.5174 60.6245 40.2716 60.7338C40.0258 60.8362 39.7289 60.8874 39.3807 60.8874C39.0326 60.8874 38.7254 60.8362 38.4591 60.7338C38.1929 60.6314 37.971 60.4778 37.7935 60.273C37.616 60.0682 37.4761 59.819 37.3737 59.5254C37.2781 59.2319 37.2201 58.894 37.1996 58.5117C37.1928 58.3342 37.1928 58.1567 37.1996 57.9792C37.2201 57.6106 37.2781 57.2795 37.3737 56.9859C37.4693 56.6924 37.6058 56.4398 37.7833 56.2282C37.9676 56.0165 38.1929 55.8561 38.4591 55.7469C38.7254 55.6308 39.0326 55.5728 39.3807 55.5728C39.7494 55.5728 40.0634 55.6445 40.3228 55.7878C40.589 55.9244 40.8075 56.0985 40.9782 56.3101V55.9312C40.9782 55.8629 41.0021 55.8049 41.0498 55.7571C41.0976 55.7025 41.1591 55.6752 41.2342 55.6752H42.4118C42.4869 55.6752 42.5483 55.7025 42.5961 55.7571C42.6507 55.8049 42.678 55.8629 42.678 55.9312V60.8566C42.678 61.3755 42.5722 61.8124 42.3606 62.1674C42.1489 62.5223 41.8451 62.792 41.4492 62.9763C41.0533 63.1606 40.572 63.2528 40.0054 63.2528ZM39.9337 59.5562C40.1521 59.5562 40.3296 59.5084 40.4662 59.4128C40.6027 59.3172 40.7017 59.1943 40.7631 59.0442C40.8314 58.894 40.8689 58.7335 40.8758 58.5629C40.8826 58.4878 40.886 58.382 40.886 58.2454C40.886 58.1089 40.8826 58.0065 40.8758 57.9382C40.8689 57.7607 40.8314 57.5969 40.7631 57.4467C40.7017 57.2965 40.6027 57.1771 40.4662 57.0883C40.3296 56.9927 40.1521 56.945 39.9337 56.945C39.7084 56.945 39.5275 56.9927 39.391 57.0883C39.2613 57.1839 39.1657 57.3136 39.1042 57.4774C39.0496 57.6413 39.0155 57.8222 39.0018 58.0202C38.995 58.1703 38.995 58.3239 39.0018 58.481C39.0155 58.6789 39.0496 58.8598 39.1042 59.0237C39.1657 59.1875 39.2613 59.3172 39.391 59.4128C39.5275 59.5084 39.7084 59.5562 39.9337 59.5562ZM46.4032 61.1024C45.8298 61.1024 45.3451 61.0102 44.9491 60.8259C44.56 60.6416 44.2596 60.3788 44.048 60.0374C43.8432 59.6893 43.7271 59.2763 43.6998 58.7984C43.693 58.6619 43.6896 58.5083 43.6896 58.3376C43.6896 58.1601 43.693 58.0065 43.6998 57.8768C43.7271 57.3921 43.85 56.9791 44.0685 56.6378C44.2869 56.2964 44.5907 56.0336 44.9798 55.8493C45.3758 55.665 45.8502 55.5728 46.4032 55.5728C46.963 55.5728 47.4374 55.665 47.8266 55.8493C48.2225 56.0336 48.5297 56.2964 48.7482 56.6378C48.9666 56.9791 49.0895 57.3921 49.1168 57.8768C49.1236 58.0065 49.127 58.1601 49.127 58.3376C49.127 58.5083 49.1236 58.6619 49.1168 58.7984C49.0895 59.2763 48.97 59.6893 48.7584 60.0374C48.5536 60.3788 48.2532 60.6416 47.8573 60.8259C47.4682 61.0102 46.9835 61.1024 46.4032 61.1024ZM46.4032 59.8531C46.7104 59.8531 46.9323 59.761 47.0688 59.5766C47.2122 59.3923 47.2941 59.1158 47.3146 58.7472C47.3214 58.6448 47.3248 58.5083 47.3248 58.3376C47.3248 58.1669 47.3214 58.0304 47.3146 57.928C47.2941 57.5662 47.2122 57.2931 47.0688 57.1088C46.9323 56.9177 46.7104 56.8221 46.4032 56.8221C46.1028 56.8221 45.881 56.9177 45.7376 57.1088C45.5942 57.2931 45.5157 57.5662 45.5021 57.928C45.4953 58.0304 45.4918 58.1669 45.4918 58.3376C45.4918 58.5083 45.4953 58.6448 45.5021 58.7472C45.5157 59.1158 45.5942 59.3923 45.7376 59.5766C45.881 59.761 46.1028 59.8531 46.4032 59.8531ZM50.5028 61C50.4277 61 50.3663 60.9761 50.3185 60.9283C50.2707 60.8805 50.2468 60.8191 50.2468 60.744V54.088C50.2468 54.0129 50.2707 53.9515 50.3185 53.9037C50.3663 53.8559 50.4277 53.832 50.5028 53.832H53.1652C53.8342 53.832 54.4042 53.9412 54.8753 54.1597C55.3463 54.3713 55.7081 54.6853 55.9607 55.1018C56.2133 55.5114 56.3498 56.0199 56.3703 56.6275C56.3771 56.9279 56.3806 57.1907 56.3806 57.416C56.3806 57.6413 56.3771 57.9007 56.3703 58.1942C56.343 58.8291 56.2065 59.3548 55.9607 59.7712C55.7218 60.1876 55.3702 60.4982 54.906 60.703C54.4486 60.901 53.8854 61 53.2164 61H50.5028ZM52.0798 59.5254H53.1652C53.4587 59.5254 53.7011 59.4811 53.8922 59.3923C54.0902 59.2967 54.237 59.15 54.3326 58.952C54.435 58.754 54.4896 58.4946 54.4964 58.1738C54.5101 57.9758 54.5169 57.7983 54.5169 57.6413C54.5237 57.4843 54.5237 57.3273 54.5169 57.1702C54.5169 57.0132 54.5101 56.8391 54.4964 56.648C54.4827 56.1838 54.3599 55.8459 54.1278 55.6342C53.9025 55.4158 53.5646 55.3066 53.114 55.3066H52.0798V59.5254ZM57.8328 61C57.7577 61 57.6963 60.9761 57.6485 60.9283C57.6007 60.8805 57.5768 60.8191 57.5768 60.744V54.088C57.5768 54.0129 57.6007 53.9515 57.6485 53.9037C57.6963 53.8559 57.7577 53.832 57.8328 53.832H60.956C61.5431 53.832 62.0244 53.9139 62.3998 54.0778C62.7753 54.2416 63.0518 54.4771 63.2293 54.7843C63.4136 55.0847 63.5058 55.4431 63.5058 55.8595C63.5058 56.1053 63.458 56.3237 63.3624 56.5149C63.2737 56.6992 63.161 56.8528 63.0245 56.9757C62.8948 57.0986 62.7719 57.1873 62.6558 57.2419C62.9153 57.3648 63.1439 57.5662 63.3419 57.8461C63.5467 58.126 63.6491 58.4537 63.6491 58.8291C63.6491 59.2797 63.5467 59.6688 63.3419 59.9965C63.1439 60.3173 62.8504 60.5665 62.4613 60.744C62.079 60.9147 61.6079 61 61.0482 61H57.8328ZM59.4098 59.6688H60.8434C61.1369 59.6688 61.3588 59.5835 61.509 59.4128C61.6591 59.2421 61.7342 59.0476 61.7342 58.8291C61.7342 58.5902 61.6557 58.3888 61.4987 58.225C61.3485 58.0611 61.1301 57.9792 60.8434 57.9792H59.4098V59.6688ZM59.4098 56.6787H60.7512C61.0311 56.6787 61.2393 56.607 61.3758 56.4637C61.5192 56.3203 61.5909 56.136 61.5909 55.9107C61.5909 55.6923 61.5192 55.5148 61.3758 55.3782C61.2393 55.2349 61.0311 55.1632 60.7512 55.1632H59.4098V56.6787Z" fill="#E5E5E5"/>
</g>
<defs>
<filter id="filter0_d_603_792" x="0" y="0" width="80" height="80" filterUnits="userSpaceOnUse" color-interpolation-filters="sRGB">
<feFlood flood-opacity="0" result="BackgroundImageFix"/>
<feColorMatrix in="SourceAlpha" type="matrix" values="0 0 0 0 0 0 0 0 0 0 0 0 0 0 0 0 0 0 127 0" result="hardAlpha"/>
<feOffset dy="2"/>
<feGaussianBlur stdDeviation="4"/>
<feColorMatrix type="matrix" values="0 0 0 0 0 0 0 0 0 0 0 0 0 0 0 0 0 0 0.75 0"/>
<feBlend mode="normal" in2="BackgroundImageFix" result="effect1_dropShadow_603_792"/>
<feBlend mode="normal" in="SourceGraphic" in2="effect1_dropShadow_603_792" result="shape"/>
</filter>
</defs>
</svg>
