<svg width="80" height="80" viewBox="0 0 80 80" fill="none" xmlns="http://www.w3.org/2000/svg">
<g filter="url(#filter0_d_603_782)">
<rect x="8" y="6" width="64" height="64" rx="5" fill="#212529"/>
<path fill-rule="evenodd" clip-rule="evenodd" d="M32.785 17.865C32.5201 17.8642 32.2562 17.8978 32 17.965V18H32.038C32.2215 18.277 32.4261 18.5395 32.65 18.785C32.804 19.091 32.938 19.396 33.091 19.702C33.11 19.683 33.129 19.663 33.129 19.663C33.2711 19.5502 33.3822 19.4033 33.4522 19.236C33.5221 19.0687 33.5486 18.8863 33.529 18.706C33.4453 18.5769 33.3685 18.4433 33.299 18.306C33.184 18.115 32.935 18.019 32.782 17.866" fill="#5D87A1"/>
<path fill-rule="evenodd" clip-rule="evenodd" d="M51.78 34.553C50.5186 34.4644 49.2528 34.6471 48.068 35.089C47.781 35.204 47.323 35.204 47.283 35.567C47.437 35.72 47.455 35.967 47.59 36.18C47.8519 36.6234 48.1886 37.0182 48.585 37.347C48.985 37.653 49.385 37.958 49.81 38.226C50.555 38.687 51.398 38.954 52.124 39.413C52.546 39.681 52.966 40.025 53.388 40.313C53.598 40.466 53.731 40.713 53.999 40.813V40.755C53.9203 40.5425 53.8229 40.3373 53.708 40.142C53.517 39.952 53.325 39.779 53.133 39.588C52.5721 38.8463 51.901 38.1947 51.143 37.656C50.53 37.234 49.19 36.656 48.943 35.956L48.904 35.917C49.3526 35.8534 49.7946 35.7503 50.225 35.609C50.875 35.437 51.468 35.476 52.137 35.309C52.444 35.232 52.999 35.041 52.999 35.041V34.741C52.657 34.401 52.412 33.946 52.052 33.625C51.0726 32.77 50.0289 31.9917 48.93 31.297C48.343 30.918 47.586 30.674 46.961 30.351C46.735 30.237 46.361 30.181 46.224 29.991C45.9132 29.5349 45.653 29.0464 45.448 28.534C44.9 27.494 44.369 26.341 43.897 25.241C43.6176 24.5038 43.2954 23.7836 42.932 23.084C41.1784 20.1024 38.6471 17.6538 35.609 16C34.8425 15.6289 34.0275 15.3677 33.188 15.224C32.714 15.204 32.242 15.167 31.769 15.149C31.4637 14.9489 31.1733 14.727 30.9 14.485C29.818 13.8 27.038 12.328 26.242 14.277C25.732 15.508 27 16.718 27.435 17.343C27.8018 17.7837 28.125 18.2589 28.4 18.762C28.533 19.084 28.571 19.425 28.7 19.762C28.9776 20.6271 29.3072 21.4746 29.687 22.3C29.8902 22.7079 30.1242 23.0997 30.387 23.472C30.54 23.681 30.804 23.772 30.861 24.117C30.6513 24.5677 30.5046 25.0452 30.425 25.536C30.0945 26.5799 29.9728 27.6787 30.067 28.7696C30.1612 29.8605 30.4694 30.9222 30.974 31.894C31.274 32.367 31.996 33.408 32.961 33.01C33.812 32.67 33.623 31.591 33.869 30.646C33.925 30.417 33.888 30.267 34.001 30.116V30.3C34.001 30.3 34.484 31.361 34.724 31.9C35.3767 32.889 36.1875 33.764 37.124 34.49C37.4945 34.8134 37.7929 35.211 38 35.657V36H38.427C38.4181 35.8453 38.3753 35.6945 38.3015 35.5583C38.2277 35.4221 38.1247 35.3039 38 35.212C37.6499 34.8516 37.3292 34.4636 37.041 34.052C36.2583 32.9372 35.568 31.7603 34.977 30.533C34.677 29.933 34.424 29.275 34.184 28.676C34.074 28.445 34.074 28.096 33.889 27.976C33.5474 28.3801 33.251 28.8204 33.005 29.289C32.7064 30.236 32.5326 31.218 32.488 32.21C32.415 32.23 32.451 32.21 32.415 32.248C31.826 32.093 31.623 31.456 31.401 30.916C30.8275 29.2505 30.7697 27.4508 31.235 25.752C31.363 25.347 31.918 24.071 31.696 23.684C31.585 23.315 31.216 23.104 31.014 22.813C30.7561 22.4215 30.5342 22.0075 30.351 21.576C29.912 20.5 29.69 19.3 29.212 18.216C28.9474 17.6946 28.6393 17.1965 28.291 16.727C27.9057 16.2579 27.5659 15.7533 27.276 15.22C27.184 15.007 27.055 14.659 27.202 14.427C27.2119 14.3625 27.2426 14.3031 27.2893 14.2576C27.3361 14.2121 27.3963 14.1831 27.461 14.175C27.699 13.963 28.382 14.233 28.621 14.349C29.2634 14.6018 29.8752 14.9262 30.445 15.316C30.703 15.51 31.311 16.001 31.311 16.001H31.491C32.103 16.134 32.791 16.038 33.367 16.211C34.3369 16.5343 35.2624 16.9777 36.122 17.531C38.6557 19.1461 40.7155 21.4046 42.091 24.076C42.321 24.515 42.418 24.918 42.628 25.376C43.028 26.316 43.528 27.276 43.928 28.19C44.2809 29.0943 44.7373 29.9546 45.288 30.754C45.574 31.154 46.723 31.366 47.24 31.576C47.689 31.7313 48.1296 31.9099 48.56 32.111C49.211 32.511 49.86 32.972 50.473 33.411C50.778 33.641 51.735 34.119 51.793 34.502" fill="#00758F"/>
<path d="M23.4728 61C23.4045 61 23.3431 60.9761 23.2885 60.9283C23.2407 60.8805 23.2168 60.8191 23.2168 60.744V54.088C23.2168 54.0129 23.2407 53.9515 23.2885 53.9037C23.3431 53.8559 23.4045 53.832 23.4728 53.832H24.5787C24.6879 53.832 24.7699 53.8627 24.8245 53.9242C24.8859 53.9788 24.9235 54.0231 24.9371 54.0573L26.7394 57.2931L28.5416 54.0573C28.5621 54.0231 28.5962 53.9788 28.644 53.9242C28.6986 53.8627 28.7839 53.832 28.9 53.832H29.9957C30.0708 53.832 30.1322 53.8559 30.18 53.9037C30.2346 53.9515 30.2619 54.0129 30.2619 54.088V60.744C30.2619 60.8191 30.2346 60.8805 30.18 60.9283C30.1322 60.9761 30.0708 61 29.9957 61H28.7771C28.702 61 28.6372 60.9761 28.5826 60.9283C28.5348 60.8805 28.5109 60.8191 28.5109 60.744V56.904L27.3538 59.0442C27.3265 59.1056 27.2855 59.1602 27.2309 59.208C27.1763 59.2558 27.1012 59.2797 27.0056 59.2797H26.4731C26.3775 59.2797 26.3025 59.2558 26.2478 59.208C26.1932 59.1602 26.1489 59.1056 26.1147 59.0442L24.9576 56.904V60.744C24.9576 60.8191 24.9337 60.8805 24.8859 60.9283C24.8381 60.9761 24.7767 61 24.7016 61H23.4728ZM32.5674 62.9456C32.506 62.9456 32.4548 62.9251 32.4138 62.8842C32.3729 62.8432 32.3524 62.792 32.3524 62.7306C32.3524 62.7169 32.3524 62.6964 32.3524 62.6691C32.3592 62.6486 32.3695 62.6247 32.3831 62.5974L33.1818 60.6723L31.2158 56.0234C31.1953 55.9756 31.185 55.9346 31.185 55.9005C31.1987 55.839 31.226 55.7878 31.267 55.7469C31.3079 55.6991 31.3591 55.6752 31.4206 55.6752H32.5879C32.6767 55.6752 32.7415 55.6991 32.7825 55.7469C32.8303 55.7878 32.861 55.8356 32.8746 55.8902L34.0522 58.8701L35.2503 55.8902C35.2776 55.8356 35.3118 55.7878 35.3527 55.7469C35.4005 55.6991 35.4688 55.6752 35.5575 55.6752H36.7044C36.7658 55.6752 36.817 55.6991 36.858 55.7469C36.9058 55.7878 36.9297 55.8356 36.9297 55.8902C36.9297 55.9244 36.9194 55.9687 36.899 56.0234L34.001 62.7306C33.9806 62.7852 33.9464 62.833 33.8986 62.8739C33.8509 62.9217 33.7826 62.9456 33.6938 62.9456H32.5674ZM40.4694 61.1024C39.7868 61.1024 39.2202 61.0068 38.7696 60.8157C38.319 60.6177 37.9777 60.3617 37.7456 60.0477C37.5135 59.7337 37.3906 59.3991 37.377 59.0442C37.377 58.9895 37.3974 58.9418 37.4384 58.9008C37.4862 58.853 37.5408 58.8291 37.6022 58.8291H38.8925C38.9881 58.8291 39.0597 58.8462 39.1075 58.8803C39.1621 58.9145 39.2099 58.9588 39.2509 59.0134C39.3055 59.1158 39.3806 59.2148 39.4762 59.3104C39.5786 59.406 39.7083 59.4845 39.8653 59.5459C40.0291 59.6005 40.2305 59.6278 40.4694 59.6278C40.8654 59.6278 41.1623 59.5664 41.3603 59.4435C41.5651 59.3206 41.6675 59.1534 41.6675 58.9418C41.6675 58.7916 41.6129 58.6687 41.5037 58.5731C41.3945 58.4707 41.217 58.382 40.9712 58.3069C40.7323 58.225 40.4114 58.143 40.0086 58.0611C39.4898 57.9519 39.0461 57.8119 38.6774 57.6413C38.3156 57.4638 38.0391 57.2351 37.848 56.9552C37.6569 56.6685 37.5613 56.3135 37.5613 55.8902C37.5613 55.4738 37.6773 55.1018 37.9094 54.7741C38.1484 54.4464 38.4795 54.1904 38.9027 54.0061C39.326 53.8218 39.8277 53.7296 40.408 53.7296C40.879 53.7296 41.2921 53.791 41.647 53.9139C42.0089 54.0368 42.3126 54.2006 42.5584 54.4054C42.8042 54.6102 42.9885 54.8287 43.1114 55.0608C43.2411 55.2861 43.3093 55.5079 43.3162 55.7264C43.3162 55.781 43.2957 55.8322 43.2547 55.88C43.2138 55.921 43.1626 55.9414 43.1011 55.9414H41.7494C41.6743 55.9414 41.6095 55.9278 41.5549 55.9005C41.5003 55.8732 41.4525 55.8288 41.4115 55.7674C41.3706 55.6172 41.2613 55.4875 41.0838 55.3782C40.9132 55.2622 40.6879 55.2042 40.408 55.2042C40.1076 55.2042 39.8721 55.2588 39.7014 55.368C39.5376 55.4704 39.4557 55.6308 39.4557 55.8493C39.4557 55.9858 39.5001 56.1053 39.5888 56.2077C39.6844 56.3101 39.838 56.3988 40.0496 56.4739C40.2681 56.549 40.565 56.6275 40.9405 56.7094C41.5617 56.8255 42.0635 56.9723 42.4458 57.1498C42.8281 57.3204 43.1079 57.5457 43.2854 57.8256C43.4629 58.0987 43.5517 58.4434 43.5517 58.8598C43.5517 59.3241 43.4186 59.7268 43.1523 60.0682C42.8929 60.4027 42.5311 60.6587 42.0669 60.8362C41.6027 61.0137 41.0702 61.1024 40.4694 61.1024ZM49.1438 61.6656C49.0346 61.6656 48.9493 61.6349 48.8878 61.5734C48.8332 61.5188 48.7889 61.471 48.7547 61.4301L48.4066 60.9693C48.1403 61.058 47.8365 61.1024 47.4952 61.1024C46.8671 61.1024 46.321 61 45.8568 60.7952C45.3994 60.5904 45.0376 60.2832 44.7714 59.8736C44.5119 59.4572 44.372 58.9383 44.3515 58.3171C44.3447 58.0236 44.3413 57.73 44.3413 57.4365C44.3413 57.1429 44.3447 56.846 44.3515 56.5456C44.372 55.9312 44.5154 55.4158 44.7816 54.9994C45.0478 54.5761 45.4131 54.2587 45.8773 54.047C46.3415 53.8354 46.8808 53.7296 47.4952 53.7296C48.1164 53.7296 48.6591 53.8354 49.1234 54.047C49.5876 54.2587 49.9528 54.5761 50.219 54.9994C50.4853 55.4158 50.6286 55.9312 50.6491 56.5456C50.6628 56.846 50.6696 57.1429 50.6696 57.4365C50.6696 57.73 50.6628 58.0236 50.6491 58.3171C50.6082 59.1636 50.3624 59.819 49.9118 60.2832L50.6594 61.3482C50.6662 61.355 50.673 61.3686 50.6798 61.3891C50.6867 61.4096 50.6901 61.4301 50.6901 61.4506C50.6969 61.5052 50.6798 61.553 50.6389 61.5939C50.5979 61.6417 50.5467 61.6656 50.4853 61.6656H49.1438ZM47.4952 59.6278C47.857 59.6278 48.1506 59.5186 48.3758 59.3002C48.6079 59.0817 48.7308 58.7335 48.7445 58.2557C48.7581 57.9553 48.765 57.672 48.765 57.4058C48.765 57.1395 48.7581 56.863 48.7445 56.5763C48.7377 56.2555 48.6796 55.9961 48.5704 55.7981C48.4612 55.5933 48.3144 55.4431 48.1301 55.3475C47.9458 55.2519 47.7341 55.2042 47.4952 55.2042C47.2631 55.2042 47.0549 55.2519 46.8706 55.3475C46.6862 55.4431 46.5395 55.5933 46.4302 55.7981C46.321 55.9961 46.263 56.2555 46.2562 56.5763C46.2493 56.863 46.2459 57.1395 46.2459 57.4058C46.2459 57.672 46.2493 57.9553 46.2562 58.2557C46.2698 58.7335 46.3893 59.0817 46.6146 59.3002C46.8467 59.5186 47.1402 59.6278 47.4952 59.6278ZM52.1228 61C52.0477 61 51.9863 60.9761 51.9385 60.9283C51.8907 60.8805 51.8668 60.8191 51.8668 60.744V54.088C51.8668 54.0129 51.8907 53.9515 51.9385 53.9037C51.9863 53.8559 52.0477 53.832 52.1228 53.832H53.4745C53.5427 53.832 53.6008 53.8559 53.6486 53.9037C53.7032 53.9515 53.7305 54.0129 53.7305 54.088V59.4538H56.823C56.8981 59.4538 56.9595 59.4811 57.0073 59.5357C57.0619 59.5835 57.0892 59.6449 57.0892 59.72V60.744C57.0892 60.8191 57.0619 60.8805 57.0073 60.9283C56.9595 60.9761 56.8981 61 56.823 61H52.1228Z" fill="#E5E5E5"/>
</g>
<defs>
<filter id="filter0_d_603_782" x="0" y="0" width="80" height="80" filterUnits="userSpaceOnUse" color-interpolation-filters="sRGB">
<feFlood flood-opacity="0" result="BackgroundImageFix"/>
<feColorMatrix in="SourceAlpha" type="matrix" values="0 0 0 0 0 0 0 0 0 0 0 0 0 0 0 0 0 0 127 0" result="hardAlpha"/>
<feOffset dy="2"/>
<feGaussianBlur stdDeviation="4"/>
<feColorMatrix type="matrix" values="0 0 0 0 0 0 0 0 0 0 0 0 0 0 0 0 0 0 0.75 0"/>
<feBlend mode="normal" in2="BackgroundImageFix" result="effect1_dropShadow_603_782"/>
<feBlend mode="normal" in="SourceGraphic" in2="effect1_dropShadow_603_782" result="shape"/>
</filter>
</defs>
</svg>
