<svg width="80" height="80" viewBox="0 0 80 80" fill="none" xmlns="http://www.w3.org/2000/svg">
<g filter="url(#filter0_d_602_1852)">
<rect x="8" y="6" width="64" height="64" rx="5" fill="#212529"/>
<path d="M42.3873 13.6038C42.1961 13.6038 42.014 13.6493 41.8501 13.7039C42.2052 13.9406 42.3964 14.2502 42.4965 14.6052C42.5056 14.6507 42.5147 14.6872 42.5238 14.7327C42.5329 14.7782 42.542 14.8146 42.542 14.8601C42.5693 15.4701 42.3782 15.543 42.2507 15.9071C42.0504 16.3714 42.105 16.8722 42.3508 17.2728C42.3691 17.3183 42.3964 17.3729 42.4328 17.4275C42.1688 15.6704 43.6345 15.4064 43.9077 14.8601C43.9259 14.3776 43.5344 14.059 43.2249 13.8405C42.9062 13.6584 42.6331 13.6038 42.3873 13.6038ZM44.5905 13.9952C44.5632 14.1591 44.5814 14.1136 44.5723 14.1955C44.5632 14.2502 44.5632 14.323 44.5541 14.3776C44.5359 14.4322 44.5268 14.4869 44.5085 14.5415L44.4539 14.7054C44.4266 14.76 44.4084 14.8055 44.3811 14.8692L44.3265 14.9512C44.3083 14.9694 44.2991 14.9967 44.2809 15.0149C44.2445 15.0604 44.2081 15.1151 44.1808 15.1515C44.1353 15.197 44.108 15.2425 44.0533 15.2789V15.288C44.0078 15.3245 43.9714 15.3609 43.9259 15.3973C43.7802 15.5065 43.6163 15.5885 43.4616 15.6977C43.416 15.7341 43.3614 15.7615 43.325 15.7979C43.2795 15.8343 43.234 15.8707 43.1975 15.9071L43.0701 16.0346C43.0337 16.0801 42.9972 16.1256 42.9699 16.1711C42.9335 16.2167 42.8971 16.2713 42.8698 16.3168C42.8425 16.3714 42.8243 16.417 42.797 16.4807C42.7787 16.5353 42.7514 16.5808 42.7423 16.6446C42.7241 16.7083 42.7059 16.7629 42.6968 16.8175C42.6877 16.8449 42.6877 16.8813 42.6786 16.9086C42.6695 16.9359 42.6695 16.9632 42.6604 16.9905C42.6604 17.0452 42.6513 17.1089 42.6513 17.1635C42.6513 17.209 42.6513 17.2454 42.6604 17.291C42.6604 17.3456 42.6695 17.4002 42.6786 17.4639C42.6877 17.5186 42.6968 17.5732 42.715 17.6278L42.7696 17.7917C42.7878 17.8281 42.8061 17.8645 42.8152 17.8918L41.2219 17.2728C40.9488 17.1999 40.6848 17.1271 40.4208 17.0634C40.2751 17.0269 40.1294 16.9905 39.9837 16.9632C39.565 16.8813 39.1462 16.8175 38.7183 16.772C38.7001 16.772 38.7001 16.7629 38.6818 16.7629C38.2631 16.7174 37.8534 16.6992 37.4437 16.6992C37.1341 16.6992 36.8337 16.7174 36.5333 16.7356C36.1145 16.7629 35.6866 16.8175 35.2678 16.8904C35.1676 16.9086 35.0584 16.9268 34.9582 16.945C34.7397 16.9905 34.5394 17.036 34.33 17.0816C34.2299 17.1089 34.1206 17.1362 34.0205 17.1635C33.9203 17.209 33.8202 17.2545 33.7201 17.291C33.6472 17.3274 33.5653 17.3638 33.4924 17.3911C33.4742 17.4002 33.4651 17.4002 33.456 17.4093C33.3832 17.4457 33.3286 17.473 33.2648 17.5095C33.2466 17.5186 33.2284 17.5277 33.2193 17.5277C33.1465 17.5641 33.0645 17.6005 33.0008 17.6369C32.9553 17.6551 32.9007 17.6824 32.8643 17.7098C32.846 17.728 32.8187 17.7371 32.8005 17.7462C32.7368 17.7826 32.6731 17.819 32.6184 17.8463C32.5547 17.8827 32.5001 17.9192 32.4546 17.9465C32.409 17.9829 32.3544 18.0102 32.318 18.0466C32.3089 18.0557 32.2998 18.0557 32.2998 18.0648C32.2543 18.0921 32.2088 18.1286 32.1723 18.165L32.1541 18.1832C32.1177 18.2105 32.0813 18.2378 32.054 18.2651C32.0358 18.2742 32.0267 18.2833 32.0085 18.2924C31.972 18.3197 31.9356 18.3562 31.9083 18.3835C31.8992 18.4017 31.8901 18.4017 31.881 18.4108C31.8355 18.4563 31.7991 18.4836 31.7535 18.5291C31.7444 18.5291 31.7444 18.5382 31.7353 18.5473C31.6898 18.5838 31.6534 18.6202 31.6079 18.6657C31.5988 18.6748 31.5988 18.6839 31.5897 18.6839C31.5532 18.7203 31.5168 18.7567 31.4895 18.7932C31.4713 18.8114 31.4531 18.8205 31.444 18.8387C31.4076 18.8842 31.3712 18.9206 31.3256 18.9661C31.3165 18.9843 31.3074 18.9843 31.2983 19.0026C31.2437 19.0572 31.1982 19.1118 31.1345 19.1664L31.1162 19.1846C31.007 19.303 30.8886 19.4214 30.7612 19.5215C30.6337 19.6307 30.5063 19.74 30.3697 19.831C30.2331 19.9312 30.0966 20.0131 29.9509 20.0951C29.8143 20.1679 29.6687 20.2407 29.5139 20.3045C29.3682 20.3682 29.2135 20.4228 29.0587 20.4683C28.7674 20.5321 28.4669 20.6504 28.212 20.6686C28.1574 20.6686 28.0936 20.6868 28.039 20.6868C27.9753 20.705 27.9207 20.7141 27.866 20.7324C27.8114 20.7506 27.7568 20.7779 27.7022 20.7961C27.6475 20.8143 27.5929 20.8416 27.5383 20.8689C27.4928 20.9053 27.4381 20.9327 27.3835 20.9691C27.338 21.0055 27.2834 21.0419 27.247 21.0874C27.2014 21.1238 27.1468 21.1694 27.1104 21.2149C27.0649 21.2604 27.0285 21.3059 26.992 21.3514C26.9556 21.4061 26.9192 21.4516 26.8919 21.5153C26.8555 21.5608 26.8191 21.6155 26.7917 21.6792C26.7644 21.7429 26.7371 21.7975 26.7189 21.8613C26.7007 21.9159 26.6734 21.9796 26.6552 22.0434C26.637 22.098 26.6279 22.1526 26.6188 22.2072C26.6188 22.2163 26.6097 22.2254 26.6097 22.2254C26.5915 22.2892 26.5915 22.3711 26.5915 22.4166C26.5823 22.4622 26.5732 22.5077 26.5732 22.5532C26.5732 22.5805 26.5732 22.6169 26.5823 22.6442C26.5915 22.6898 26.6006 22.7353 26.6097 22.7717C26.6279 22.8172 26.637 22.8536 26.6552 22.8992V22.9083C26.6734 22.9538 26.7007 22.9902 26.728 23.0357C26.7553 23.0812 26.7826 23.1177 26.8191 23.1632C26.8555 23.1996 26.8919 23.236 26.9374 23.2724C26.9829 23.318 27.0193 23.3453 27.0649 23.3817C27.2287 23.5274 27.2743 23.5729 27.4837 23.6912L27.5929 23.7459C27.602 23.7459 27.6111 23.755 27.6111 23.755C27.6111 23.7732 27.6111 23.7732 27.6202 23.7914C27.6293 23.846 27.6384 23.9006 27.6566 23.9552C27.6749 24.019 27.6931 24.0736 27.7113 24.1191C27.7295 24.1646 27.7477 24.2011 27.7659 24.2466C27.775 24.2648 27.7841 24.2739 27.7841 24.283C27.8114 24.3376 27.8387 24.3831 27.866 24.4378C27.9025 24.4833 27.9389 24.5379 27.9662 24.5834C28.0026 24.629 28.039 24.6745 28.0845 24.7109C28.1301 24.7564 28.1665 24.7837 28.212 24.8293C28.212 24.8293 28.2211 24.8384 28.2302 24.8384C28.2757 24.8748 28.3121 24.9112 28.3577 24.9385C28.4032 24.9749 28.4578 25.0022 28.5124 25.0295C28.558 25.0569 28.6126 25.0842 28.6763 25.1024C28.7218 25.1206 28.7674 25.1388 28.8129 25.1479C28.822 25.157 28.8311 25.157 28.8402 25.1661C28.8675 25.1752 28.9039 25.1843 28.9312 25.1843C28.913 25.5576 28.9039 25.9127 28.9585 26.0401C29.0223 26.1767 29.3227 25.7579 29.6323 25.2663C29.5867 25.7488 29.5594 26.3041 29.6323 26.4771C29.7051 26.6501 30.1239 26.1129 30.4881 25.5121C35.4043 24.374 39.8927 27.7699 40.3661 32.5769C40.2751 31.8304 39.3556 31.4116 38.9277 31.5117C38.7183 32.0216 38.3632 32.6862 37.7987 33.0959C37.8443 32.6407 37.826 32.1672 37.7259 31.712C37.5711 32.3493 37.2707 32.9502 36.8701 33.46C36.2146 33.5056 35.55 33.1869 35.204 32.7135C35.1767 32.6953 35.1676 32.6498 35.1494 32.6225C35.1312 32.5769 35.1039 32.5223 35.0948 32.4768C35.0766 32.4313 35.0584 32.3766 35.0493 32.3311C35.0402 32.2856 35.0402 32.231 35.0402 32.1764V32.0762C35.0493 32.0307 35.0584 31.9761 35.0766 31.9305C35.0948 31.885 35.1039 31.8304 35.1221 31.7849C35.1494 31.7394 35.1676 31.6847 35.204 31.6392C35.3224 31.3024 35.3224 31.0383 35.1039 30.8745C35.0584 30.8471 35.022 30.8289 34.9764 30.8016C34.9491 30.7925 34.9127 30.7834 34.8854 30.7743C34.8672 30.7652 34.849 30.7561 34.8308 30.7561C34.7852 30.7379 34.7306 30.7288 34.6851 30.7197C34.6396 30.7015 34.585 30.7015 34.5394 30.7015C34.4939 30.6924 34.4393 30.6833 34.3847 30.6833C34.3482 30.6833 34.3118 30.6924 34.2845 30.6924C34.2299 30.6924 34.1844 30.7015 34.1297 30.7106C34.0842 30.7197 34.0296 30.7288 33.9841 30.7379C33.9386 30.7561 33.8839 30.7652 33.8384 30.7834C33.7929 30.8016 33.7474 30.8289 33.7018 30.8471C33.6563 30.8653 33.6199 30.8927 33.5744 30.92C31.9538 31.9761 32.9189 34.4433 34.0296 35.1534C33.6108 35.2263 33.192 35.3173 33.0737 35.4084L33.0554 35.4266C33.3559 35.6086 33.6654 35.7634 33.9932 35.8909C34.4393 36.0365 34.9127 36.164 35.113 36.2277V36.2368C35.6866 36.3552 36.2692 36.4007 36.861 36.3643C39.9291 36.1458 42.451 33.8151 42.9062 30.7288C42.9244 30.7925 42.9335 30.8471 42.9517 30.9109C42.9699 31.0383 42.9972 31.1658 43.0155 31.3023V31.3115C43.0337 31.3752 43.0337 31.4389 43.0428 31.4935V31.5209C43.0519 31.5846 43.061 31.6483 43.061 31.7029C43.0701 31.7758 43.0792 31.8577 43.0792 31.9305V32.0398C43.0792 32.0762 43.0883 32.1126 43.0883 32.149C43.0883 32.1946 43.0792 32.231 43.0792 32.2765V32.3766C43.0792 32.4222 43.0701 32.4677 43.0701 32.5132C43.0701 32.5405 43.0701 32.5678 43.061 32.6043C43.061 32.6498 43.0519 32.7044 43.0519 32.759C43.0428 32.7772 43.0428 32.8045 43.0428 32.8228C43.0337 32.8774 43.0246 32.9229 43.0246 32.9866C43.0246 33.0048 43.0246 33.0322 43.0155 33.0504C43.0063 33.1232 42.9972 33.1778 42.9881 33.2507V33.2689C42.9699 33.3326 42.9608 33.3963 42.9426 33.46V33.4783C42.9244 33.542 42.9153 33.6057 42.8971 33.6694C42.8971 33.6785 42.888 33.6877 42.888 33.6968C42.8698 33.7605 42.8607 33.8242 42.8425 33.8879V33.9062C42.8243 33.979 42.797 34.0336 42.7878 34.0973C42.7787 34.1064 42.7787 34.1156 42.7787 34.1156C42.7605 34.1884 42.7332 34.2521 42.715 34.3249C42.6877 34.3978 42.6695 34.4524 42.6422 34.5252C42.6149 34.5981 42.5967 34.6618 42.5693 34.7255C42.542 34.7984 42.5147 34.853 42.4874 34.9258H42.4783C42.451 34.9896 42.4237 35.0533 42.3873 35.117C42.3782 35.1352 42.3691 35.1534 42.3691 35.1625C42.3599 35.1716 42.3599 35.1807 42.3508 35.1807C41.8956 36.0912 41.231 36.8832 40.4025 37.5114C40.3479 37.5478 40.2933 37.5843 40.2387 37.6298C40.2205 37.648 40.2023 37.648 40.1931 37.6662C40.1476 37.7026 40.093 37.739 40.0384 37.7663L40.0566 37.8119H40.0657C40.1658 37.7937 40.2569 37.7845 40.357 37.7663H40.3661C40.5482 37.739 40.7303 37.7026 40.9033 37.6662C40.9488 37.6571 41.0034 37.648 41.058 37.6298C41.0945 37.6207 41.1218 37.6116 41.1582 37.6116C41.2037 37.6025 41.2583 37.5934 41.3039 37.5843C41.3494 37.566 41.3858 37.566 41.4313 37.5478C42.1232 37.384 42.797 37.1564 43.4434 36.8832C42.3417 38.3854 40.8669 39.6054 39.1371 40.3975C39.9382 40.3428 40.7303 40.2063 41.5042 39.9878C44.2991 39.1593 46.648 37.2838 48.0592 34.7528C47.777 36.3552 47.1397 37.8847 46.1928 39.2139C46.8665 38.7678 47.4856 38.258 48.041 37.6753C49.5978 36.0547 50.6175 33.9881 50.9634 31.7758C51.2001 32.8683 51.273 34.0063 51.1637 35.117C56.171 28.1341 51.5825 20.8871 49.6615 18.9844C49.6524 18.9661 49.6433 18.9661 49.6433 18.9479C49.6342 18.957 49.6342 18.957 49.6342 18.9661C49.6342 18.957 49.6342 18.957 49.6251 18.9479C49.6251 19.0299 49.616 19.1118 49.6069 19.1937C49.5887 19.3576 49.5614 19.5033 49.5341 19.6581C49.4977 19.8128 49.4612 19.9676 49.4157 20.1133C49.3702 20.2589 49.3156 20.4137 49.2518 20.5594C49.1881 20.6959 49.1244 20.8416 49.0424 20.9782C48.9696 21.1056 48.8786 21.2513 48.7966 21.3697C48.7056 21.4971 48.6054 21.6246 48.5144 21.7429C48.4143 21.8704 48.2959 21.9796 48.1866 22.0889C48.1138 22.1526 48.0592 22.2072 47.9864 22.2619C47.9317 22.3074 47.8862 22.3529 47.8225 22.3984C47.695 22.4986 47.5767 22.5896 47.431 22.6716C47.3035 22.7535 47.1579 22.8354 47.0213 22.9083C46.8756 22.9811 46.73 23.0357 46.5843 23.0995C46.4386 23.1541 46.2839 23.1996 46.1291 23.2451C45.9743 23.2906 45.8196 23.318 45.6648 23.3453C45.5009 23.3726 45.3461 23.3908 45.1914 23.3999C45.0821 23.409 44.9729 23.4181 44.8545 23.4181C44.6906 23.4181 44.5359 23.3999 44.3811 23.3908C44.2172 23.3726 44.0624 23.3544 43.9077 23.318C43.7438 23.2906 43.5981 23.2451 43.4434 23.1996H43.4342C43.589 23.1814 43.7438 23.1723 43.8895 23.145C44.0533 23.1177 44.199 23.0812 44.3538 23.0448C44.5085 22.9993 44.6633 22.9538 44.809 22.8992C44.9638 22.8445 45.1094 22.7717 45.246 22.708C45.3917 22.6351 45.5191 22.5623 45.6648 22.4804C45.7922 22.3893 45.9288 22.2983 46.0563 22.2072C46.1837 22.1071 46.3021 22.0069 46.4113 21.8977C46.5297 21.7976 46.6298 21.6792 46.7391 21.5608C46.8392 21.4334 46.9394 21.315 47.0304 21.1876C47.0486 21.1694 47.0577 21.142 47.0759 21.1147C47.1488 21.0055 47.2125 20.8962 47.2762 20.7779C47.3491 20.6413 47.4219 20.5048 47.4856 20.3591C47.5494 20.2134 47.604 20.0677 47.6495 19.913C47.695 19.7673 47.7314 19.6125 47.7679 19.4578C47.7952 19.2939 47.8225 19.1482 47.8407 18.9935C47.8589 18.8296 47.868 18.6748 47.868 18.52C47.868 18.4108 47.8589 18.3015 47.8498 18.1832C47.8316 18.0193 47.8134 17.8736 47.7952 17.7189C47.7679 17.555 47.7314 17.4093 47.695 17.2545C47.6495 17.1089 47.5949 16.9541 47.5402 16.8084C47.4856 16.6628 47.4128 16.5171 47.3491 16.3805C47.2762 16.244 47.1943 16.1074 47.1123 15.9709L46.8392 15.5885C46.7391 15.4701 46.6298 15.3518 46.5206 15.2334C46.466 15.1788 46.4022 15.1151 46.3385 15.0604C46.0289 14.8146 45.7012 14.587 45.3734 14.3776C45.3279 14.3503 45.2824 14.3321 45.2369 14.3048C45.0184 14.1409 44.809 14.0681 44.5905 13.9952Z" fill="#EA2845"/>
<path d="M28.9728 61C28.8977 61 28.8363 60.9761 28.7885 60.9283C28.7407 60.8805 28.7168 60.8191 28.7168 60.744V54.088C28.7168 54.0129 28.7407 53.9515 28.7885 53.9037C28.8363 53.8559 28.8977 53.832 28.9728 53.832H30.0582C30.1743 53.832 30.2562 53.8593 30.304 53.9139C30.3586 53.9617 30.3927 53.9993 30.4064 54.0266L32.905 57.969V54.088C32.905 54.0129 32.9289 53.9515 32.9766 53.9037C33.0244 53.8559 33.0859 53.832 33.161 53.832H34.3898C34.4649 53.832 34.5263 53.8559 34.5741 53.9037C34.6219 53.9515 34.6458 54.0129 34.6458 54.088V60.744C34.6458 60.8123 34.6219 60.8737 34.5741 60.9283C34.5263 60.9761 34.4649 61 34.3898 61H33.2941C33.1849 61 33.1029 60.9727 33.0483 60.9181C33.0005 60.8635 32.9698 60.8259 32.9562 60.8054L30.4576 57.0166V60.744C30.4576 60.8191 30.4337 60.8805 30.3859 60.9283C30.3381 60.9761 30.2767 61 30.2016 61H28.9728ZM38.4218 61.1024C37.6162 61.1024 36.9745 60.8839 36.4966 60.447C36.0188 60.0101 35.7696 59.3616 35.7491 58.5014C35.7491 58.4537 35.7491 58.3922 35.7491 58.3171C35.7491 58.242 35.7491 58.184 35.7491 58.143C35.7696 57.6037 35.8891 57.1429 36.1075 56.7606C36.3328 56.3715 36.64 56.078 37.0291 55.88C37.4251 55.6752 37.8859 55.5728 38.4115 55.5728C39.0123 55.5728 39.5072 55.6923 39.8963 55.9312C40.2923 56.1701 40.5892 56.4944 40.7872 56.904C40.9852 57.3136 41.0842 57.7812 41.0842 58.3069V58.5526C41.0842 58.6277 41.0569 58.6892 41.0022 58.737C40.9545 58.7847 40.8964 58.8086 40.8282 58.8086H37.5514C37.5514 58.8155 37.5514 58.8257 37.5514 58.8394C37.5514 58.853 37.5514 58.8667 37.5514 58.8803C37.5582 59.0783 37.5923 59.2592 37.6538 59.423C37.7152 59.5869 37.8108 59.7166 37.9405 59.8122C38.0702 59.9077 38.2272 59.9555 38.4115 59.9555C38.5481 59.9555 38.6607 59.935 38.7494 59.8941C38.845 59.8463 38.9235 59.7951 38.985 59.7405C39.0464 59.679 39.0942 59.6278 39.1283 59.5869C39.1898 59.5186 39.2375 59.4777 39.2717 59.464C39.3126 59.4435 39.3741 59.4333 39.456 59.4333H40.7258C40.794 59.4333 40.8486 59.4538 40.8896 59.4947C40.9374 59.5289 40.9579 59.5801 40.951 59.6483C40.9442 59.7644 40.8862 59.9043 40.777 60.0682C40.6677 60.232 40.5073 60.3958 40.2957 60.5597C40.0909 60.7167 39.8315 60.8464 39.5174 60.9488C39.2034 61.0512 38.8382 61.1024 38.4218 61.1024ZM37.5514 57.7949H39.2819V57.7744C39.2819 57.5559 39.2478 57.3648 39.1795 57.201C39.1181 57.0371 39.0191 56.9108 38.8826 56.8221C38.7529 56.7333 38.5958 56.689 38.4115 56.689C38.2272 56.689 38.0702 56.7333 37.9405 56.8221C37.8176 56.9108 37.722 57.0371 37.6538 57.201C37.5855 57.3648 37.5514 57.5559 37.5514 57.7744V57.7949ZM44.2355 61.1024C43.7918 61.1024 43.4129 61.0546 43.0989 60.959C42.7917 60.8566 42.5391 60.7338 42.3411 60.5904C42.15 60.447 42.0066 60.3003 41.911 60.1501C41.8155 59.9931 41.7643 59.8599 41.7574 59.7507C41.7506 59.6756 41.7745 59.6142 41.8291 59.5664C41.8837 59.5118 41.9418 59.4845 42.0032 59.4845H43.1706C43.191 59.4845 43.2081 59.4879 43.2218 59.4947C43.2354 59.5015 43.2559 59.5152 43.2832 59.5357C43.3719 59.5835 43.4607 59.6449 43.5494 59.72C43.6382 59.7883 43.7406 59.8497 43.8566 59.9043C43.9727 59.9589 44.1126 59.9862 44.2765 59.9862C44.4676 59.9862 44.6281 59.9487 44.7578 59.8736C44.8875 59.7985 44.9523 59.6859 44.9523 59.5357C44.9523 59.4265 44.9216 59.3377 44.8602 59.2694C44.7987 59.1943 44.6724 59.1227 44.4813 59.0544C44.297 58.9861 44.0171 58.9179 43.6416 58.8496C43.2866 58.7677 42.976 58.6619 42.7098 58.5322C42.4435 58.3956 42.2387 58.2215 42.0954 58.0099C41.952 57.7915 41.8803 57.5286 41.8803 57.2214C41.8803 56.9484 41.9691 56.6855 42.1466 56.433C42.3241 56.1804 42.5835 55.9756 42.9248 55.8186C43.2661 55.6547 43.686 55.5728 44.1843 55.5728C44.5803 55.5728 44.9216 55.6206 45.2083 55.7162C45.5019 55.8049 45.7476 55.921 45.9456 56.0643C46.1504 56.2077 46.304 56.3545 46.4064 56.5046C46.5088 56.6548 46.5634 56.7914 46.5702 56.9142C46.5771 56.9825 46.5566 57.0439 46.5088 57.0986C46.461 57.1463 46.4064 57.1702 46.345 57.1702H45.28C45.2527 57.1702 45.2254 57.1668 45.1981 57.16C45.1708 57.1463 45.1469 57.1327 45.1264 57.119C45.0445 57.0781 44.9626 57.0235 44.8806 56.9552C44.7987 56.8869 44.7031 56.8255 44.5939 56.7709C44.4847 56.7163 44.3482 56.689 44.1843 56.689C44 56.689 43.8566 56.7299 43.7542 56.8118C43.6518 56.8938 43.6006 56.9996 43.6006 57.1293C43.6006 57.218 43.6279 57.2999 43.6826 57.375C43.744 57.4501 43.8635 57.5184 44.041 57.5798C44.2253 57.6413 44.5086 57.7095 44.8909 57.7846C45.3619 57.8597 45.7374 57.9826 46.0173 58.1533C46.2972 58.3171 46.4951 58.5117 46.6112 58.737C46.7273 58.9554 46.7853 59.1875 46.7853 59.4333C46.7853 59.761 46.6863 60.0511 46.4883 60.3037C46.2972 60.5563 46.0105 60.7542 45.6282 60.8976C45.2459 61.0341 44.7817 61.1024 44.2355 61.1024ZM50.398 61C49.9611 61 49.5822 60.9317 49.2614 60.7952C48.9473 60.6518 48.705 60.4334 48.5343 60.1398C48.3637 59.8395 48.2783 59.4538 48.2783 58.9827V57.0166H47.4796C47.4045 57.0166 47.3397 56.9927 47.285 56.945C47.2373 56.8972 47.2134 56.8357 47.2134 56.7606V55.9312C47.2134 55.8561 47.2373 55.7947 47.285 55.7469C47.3397 55.6991 47.4045 55.6752 47.4796 55.6752H48.2783V53.9856C48.2783 53.9105 48.3022 53.8491 48.35 53.8013C48.4046 53.7535 48.4661 53.7296 48.5343 53.7296H49.7222C49.7973 53.7296 49.8587 53.7535 49.9065 53.8013C49.9543 53.8491 49.9782 53.9105 49.9782 53.9856V55.6752H51.2582C51.3333 55.6752 51.3947 55.6991 51.4425 55.7469C51.4903 55.7947 51.5142 55.8561 51.5142 55.9312V56.7606C51.5142 56.8357 51.4903 56.8972 51.4425 56.945C51.3947 56.9927 51.3333 57.0166 51.2582 57.0166H49.9782V58.8394C49.9782 59.0715 50.0225 59.2558 50.1113 59.3923C50.2 59.5289 50.3502 59.5971 50.5618 59.5971H51.3503C51.4254 59.5971 51.4869 59.621 51.5346 59.6688C51.5824 59.7166 51.6063 59.778 51.6063 59.8531V60.744C51.6063 60.8191 51.5824 60.8805 51.5346 60.9283C51.4869 60.9761 51.4254 61 51.3503 61H50.398Z" fill="#E5E5E5"/>
</g>
<defs>
<filter id="filter0_d_602_1852" x="0" y="0" width="80" height="80" filterUnits="userSpaceOnUse" color-interpolation-filters="sRGB">
<feFlood flood-opacity="0" result="BackgroundImageFix"/>
<feColorMatrix in="SourceAlpha" type="matrix" values="0 0 0 0 0 0 0 0 0 0 0 0 0 0 0 0 0 0 127 0" result="hardAlpha"/>
<feOffset dy="2"/>
<feGaussianBlur stdDeviation="4"/>
<feColorMatrix type="matrix" values="0 0 0 0 0 0 0 0 0 0 0 0 0 0 0 0 0 0 0.75 0"/>
<feBlend mode="normal" in2="BackgroundImageFix" result="effect1_dropShadow_602_1852"/>
<feBlend mode="normal" in="SourceGraphic" in2="effect1_dropShadow_602_1852" result="shape"/>
</filter>
</defs>
</svg>
