<svg width="80" height="80" viewBox="0 0 80 80" fill="none" xmlns="http://www.w3.org/2000/svg">
<g filter="url(#filter0_d_602_1783)">
<rect x="8" y="6" width="64" height="64" rx="5" fill="#212529"/>
<g clip-path="url(#clip0_602_1783)">
<mask id="mask0_602_1783" style="mask-type:luminance" maskUnits="userSpaceOnUse" x="24" y="11" width="32" height="32">
<path d="M56 11H24V43H56V11Z" fill="white"/>
</mask>
<g mask="url(#mask0_602_1783)">
<path d="M38.9521 11.0086C38.8833 11.0149 38.6643 11.0368 38.4672 11.0524C33.9222 11.4622 29.6649 13.9146 26.9685 17.6839C25.4671 19.7797 24.5067 22.157 24.1439 24.6751C24.0156 25.5541 24 25.8137 24 27.0055C24 28.1973 24.0156 28.4569 24.1439 29.3359C25.0135 35.3449 29.2895 40.3936 35.089 42.2641C36.1275 42.5988 37.2223 42.8272 38.4672 42.9648C38.9521 43.018 41.0479 43.018 41.5328 42.9648C43.6817 42.7271 45.5023 42.1953 47.2977 41.2788C47.5731 41.138 47.6261 41.1005 47.5887 41.0692C47.5636 41.0504 46.3907 39.4771 44.9829 37.5752L42.4243 34.1187L39.218 29.3735C37.4537 26.7647 36.0023 24.6313 35.9898 24.6313C35.9773 24.6281 35.9648 26.7365 35.9585 29.3108C35.9492 33.8184 35.946 33.9999 35.8897 34.1061C35.8084 34.2595 35.7458 34.322 35.6145 34.3908C35.5144 34.4409 35.4268 34.4503 34.9545 34.4503H34.4133L34.2694 34.3596C34.1756 34.3001 34.1067 34.2219 34.0598 34.1312L33.9941 33.9904L34.0004 27.7187L34.0098 21.4438L34.1067 21.3218C34.1568 21.2561 34.2631 21.1717 34.3382 21.131C34.4665 21.0684 34.5165 21.0622 35.0577 21.0622C35.6958 21.0622 35.8021 21.0872 35.9679 21.2686C36.0149 21.3187 37.7509 23.9337 39.828 27.0837C41.9049 30.2336 44.7452 34.5347 46.1404 36.6461L48.6741 40.4843L48.8024 40.3999C49.9379 39.6616 51.1391 38.6105 52.0899 37.5157C54.1137 35.1916 55.4181 32.3576 55.8561 29.3359C55.9844 28.4569 56 28.1973 56 27.0055C56 25.8137 55.9844 25.5541 55.8561 24.6751C54.9865 18.6661 50.7104 13.6174 44.9111 11.7468C43.8881 11.4153 42.7996 11.1869 41.5797 11.0493C41.2793 11.018 39.2117 10.9836 38.9521 11.0086ZM45.5023 20.6868C45.6524 20.7619 45.7744 20.9058 45.8181 21.0559C45.8432 21.1373 45.8495 22.8765 45.8432 26.7959L45.8339 32.4201L44.8423 30.8999L43.8475 29.3797V25.2913C43.8475 22.6481 43.86 21.1623 43.8788 21.0903C43.9288 20.9152 44.0383 20.7775 44.1884 20.6962C44.3167 20.6305 44.3636 20.6243 44.8548 20.6243C45.3177 20.6243 45.3991 20.6305 45.5023 20.6868Z" fill="white"/>
</g>
</g>
<path d="M28.4728 61C28.3977 61 28.3363 60.9761 28.2885 60.9283C28.2407 60.8805 28.2168 60.8191 28.2168 60.744V54.088C28.2168 54.0129 28.2407 53.9515 28.2885 53.9037C28.3363 53.8559 28.3977 53.832 28.4728 53.832H29.5582C29.6743 53.832 29.7562 53.8593 29.804 53.9139C29.8586 53.9617 29.8927 53.9993 29.9064 54.0266L32.405 57.969V54.088C32.405 54.0129 32.4289 53.9515 32.4766 53.9037C32.5244 53.8559 32.5859 53.832 32.661 53.832H33.8898C33.9649 53.832 34.0263 53.8559 34.0741 53.9037C34.1219 53.9515 34.1458 54.0129 34.1458 54.088V60.744C34.1458 60.8123 34.1219 60.8737 34.0741 60.9283C34.0263 60.9761 33.9649 61 33.8898 61H32.7941C32.6849 61 32.6029 60.9727 32.5483 60.9181C32.5005 60.8635 32.4698 60.8259 32.4562 60.8054L29.9576 57.0166V60.744C29.9576 60.8191 29.9337 60.8805 29.8859 60.9283C29.8381 60.9761 29.7767 61 29.7016 61H28.4728ZM37.9218 61.1024C37.1162 61.1024 36.4745 60.8839 35.9966 60.447C35.5188 60.0101 35.2696 59.3616 35.2491 58.5014C35.2491 58.4537 35.2491 58.3922 35.2491 58.3171C35.2491 58.242 35.2491 58.184 35.2491 58.143C35.2696 57.6037 35.3891 57.1429 35.6075 56.7606C35.8328 56.3715 36.14 56.078 36.5291 55.88C36.9251 55.6752 37.3859 55.5728 37.9115 55.5728C38.5123 55.5728 39.0072 55.6923 39.3963 55.9312C39.7923 56.1701 40.0892 56.4944 40.2872 56.904C40.4852 57.3136 40.5842 57.7812 40.5842 58.3069V58.5526C40.5842 58.6277 40.5569 58.6892 40.5022 58.737C40.4545 58.7847 40.3964 58.8086 40.3282 58.8086H37.0514C37.0514 58.8155 37.0514 58.8257 37.0514 58.8394C37.0514 58.853 37.0514 58.8667 37.0514 58.8803C37.0582 59.0783 37.0923 59.2592 37.1538 59.423C37.2152 59.5869 37.3108 59.7166 37.4405 59.8122C37.5702 59.9077 37.7272 59.9555 37.9115 59.9555C38.0481 59.9555 38.1607 59.935 38.2494 59.8941C38.345 59.8463 38.4235 59.7951 38.485 59.7405C38.5464 59.679 38.5942 59.6278 38.6283 59.5869C38.6898 59.5186 38.7375 59.4777 38.7717 59.464C38.8126 59.4435 38.8741 59.4333 38.956 59.4333H40.2258C40.294 59.4333 40.3486 59.4538 40.3896 59.4947C40.4374 59.5289 40.4579 59.5801 40.451 59.6483C40.4442 59.7644 40.3862 59.9043 40.277 60.0682C40.1677 60.232 40.0073 60.3958 39.7957 60.5597C39.5909 60.7167 39.3315 60.8464 39.0174 60.9488C38.7034 61.0512 38.3382 61.1024 37.9218 61.1024ZM37.0514 57.7949H38.7819V57.7744C38.7819 57.5559 38.7478 57.3648 38.6795 57.201C38.6181 57.0371 38.5191 56.9108 38.3826 56.8221C38.2529 56.7333 38.0958 56.689 37.9115 56.689C37.7272 56.689 37.5702 56.7333 37.4405 56.8221C37.3176 56.9108 37.222 57.0371 37.1538 57.201C37.0855 57.3648 37.0514 57.5559 37.0514 57.7744V57.7949ZM41.1491 61C41.0877 61 41.0331 60.9795 40.9853 60.9386C40.9443 60.8908 40.9238 60.8362 40.9238 60.7747C40.9238 60.7542 40.9273 60.7303 40.9341 60.703C40.9409 60.6689 40.9546 60.6382 40.975 60.6109L42.6851 58.2659L41.1286 56.0643C41.1082 56.037 41.0911 56.0097 41.0774 55.9824C41.0706 55.9551 41.0672 55.9278 41.0672 55.9005C41.0672 55.839 41.0911 55.7878 41.1389 55.7469C41.1867 55.6991 41.2413 55.6752 41.3027 55.6752H42.552C42.6407 55.6752 42.7056 55.6957 42.7466 55.7366C42.7943 55.7776 42.8285 55.8151 42.849 55.8493L43.8013 57.1702L44.7434 55.8595C44.7707 55.8254 44.8048 55.7878 44.8458 55.7469C44.8935 55.6991 44.9618 55.6752 45.0506 55.6752H46.2486C46.3101 55.6752 46.3613 55.6991 46.4022 55.7469C46.45 55.7878 46.4739 55.839 46.4739 55.9005C46.4739 55.9278 46.4705 55.9551 46.4637 55.9824C46.4569 56.0097 46.4432 56.037 46.4227 56.0643L44.8253 58.2659L46.5558 60.6109C46.5831 60.6382 46.6002 60.6655 46.607 60.6928C46.6139 60.7201 46.6173 60.7474 46.6173 60.7747C46.6173 60.8362 46.5934 60.8908 46.5456 60.9386C46.5046 60.9795 46.45 61 46.3818 61H45.0813C44.9994 61 44.9379 60.9829 44.897 60.9488C44.856 60.9078 44.8219 60.8703 44.7946 60.8362L43.7603 59.4333L42.7158 60.8362C42.6885 60.8635 42.6544 60.8976 42.6134 60.9386C42.5725 60.9795 42.5076 61 42.4189 61H41.1491ZM50.108 61C49.6711 61 49.2922 60.9317 48.9714 60.7952C48.6573 60.6518 48.415 60.4334 48.2443 60.1398C48.0737 59.8395 47.9883 59.4538 47.9883 58.9827V57.0166H47.1896C47.1145 57.0166 47.0497 56.9927 46.995 56.945C46.9473 56.8972 46.9234 56.8357 46.9234 56.7606V55.9312C46.9234 55.8561 46.9473 55.7947 46.995 55.7469C47.0497 55.6991 47.1145 55.6752 47.1896 55.6752H47.9883V53.9856C47.9883 53.9105 48.0122 53.8491 48.06 53.8013C48.1146 53.7535 48.1761 53.7296 48.2443 53.7296H49.4322C49.5073 53.7296 49.5687 53.7535 49.6165 53.8013C49.6643 53.8491 49.6882 53.9105 49.6882 53.9856V55.6752H50.9682C51.0433 55.6752 51.1047 55.6991 51.1525 55.7469C51.2003 55.7947 51.2242 55.8561 51.2242 55.9312V56.7606C51.2242 56.8357 51.2003 56.8972 51.1525 56.945C51.1047 56.9927 51.0433 57.0166 50.9682 57.0166H49.6882V58.8394C49.6882 59.0715 49.7325 59.2558 49.8213 59.3923C49.91 59.5289 50.0602 59.5971 50.2718 59.5971H51.0603C51.1354 59.5971 51.1969 59.621 51.2446 59.6688C51.2924 59.7166 51.3163 59.778 51.3163 59.8531V60.744C51.3163 60.8191 51.2924 60.8805 51.2446 60.9283C51.1969 60.9761 51.1354 61 51.0603 61H50.108Z" fill="#E5E5E5"/>
</g>
<defs>
<filter id="filter0_d_602_1783" x="0" y="0" width="80" height="80" filterUnits="userSpaceOnUse" color-interpolation-filters="sRGB">
<feFlood flood-opacity="0" result="BackgroundImageFix"/>
<feColorMatrix in="SourceAlpha" type="matrix" values="0 0 0 0 0 0 0 0 0 0 0 0 0 0 0 0 0 0 127 0" result="hardAlpha"/>
<feOffset dy="2"/>
<feGaussianBlur stdDeviation="4"/>
<feColorMatrix type="matrix" values="0 0 0 0 0 0 0 0 0 0 0 0 0 0 0 0 0 0 0.75 0"/>
<feBlend mode="normal" in2="BackgroundImageFix" result="effect1_dropShadow_602_1783"/>
<feBlend mode="normal" in="SourceGraphic" in2="effect1_dropShadow_602_1783" result="shape"/>
</filter>
<clipPath id="clip0_602_1783">
<rect width="32" height="32" fill="white" transform="translate(24 11)"/>
</clipPath>
</defs>
</svg>
