<svg width="80" height="80" viewBox="0 0 80 80" fill="none" xmlns="http://www.w3.org/2000/svg">
<g filter="url(#filter0_d_602_1610)">
<rect x="8" y="6" width="64" height="64" rx="5" fill="#212529"/>
<path d="M39.336 40.822C39.5373 40.9384 39.7658 40.9997 39.9985 40.9997C40.2311 40.9997 40.4596 40.9384 40.661 40.822L51.6369 34.489C51.8385 34.3727 52.006 34.2054 52.1223 34.0039C52.2387 33.8023 52.3 33.5737 52.2999 33.341V20.664C52.2999 20.4314 52.2387 20.2029 52.1225 20.0014C52.0063 19.7999 51.8392 19.6325 51.638 19.516L40.662 13.178C40.4603 13.0617 40.2317 13.0005 39.999 13.0005C39.7662 13.0005 39.5376 13.0617 39.336 13.178L28.363 19.516C28.1614 19.6323 27.9941 19.7997 27.8777 20.0012C27.7613 20.2027 27.7 20.4313 27.7 20.664V33.342C27.7001 33.5745 27.7614 33.803 27.8778 34.0043C27.9942 34.2056 28.1615 34.3728 28.363 34.489L39.336 40.822Z" fill="#76D04B"/>
<path d="M47.1061 23.9779L46.6171 23.6959C47.0896 22.9114 47.3907 22.0358 47.5007 21.1267C47.6106 20.2175 47.5269 19.2954 47.2551 18.4209C47.2551 18.4209 45.9851 21.9809 43.4321 21.8629L40.4421 20.1429C40.3305 20.0773 40.2044 20.0405 40.0751 20.0359H40.0061C39.8765 20.0409 39.7501 20.0776 39.6381 20.1429L36.6481 21.8629C34.0951 21.9809 32.8251 18.4209 32.8251 18.4209C32.5527 19.296 32.4689 20.219 32.579 21.1289C32.6891 22.0388 32.9908 22.915 33.4641 23.6999L32.9751 23.9819C32.8529 24.0533 32.7516 24.1555 32.6814 24.2784C32.6112 24.4012 32.5745 24.5404 32.5751 24.6819L32.5861 34.9999C32.5852 35.0705 32.6033 35.1401 32.6384 35.2013C32.6736 35.2625 32.7246 35.3131 32.7861 35.3479C32.8464 35.3845 32.9155 35.4039 32.9861 35.4039C33.0566 35.4039 33.1258 35.3845 33.1861 35.3479L37.1461 33.0799C37.268 33.0082 37.3691 32.9059 37.4392 32.7831C37.5094 32.6603 37.5462 32.5213 37.5461 32.3799V27.5619C37.5448 27.4203 37.5812 27.2808 37.6515 27.1578C37.7217 27.0348 37.8234 26.9327 37.9461 26.8619L39.6321 25.8909C39.7535 25.82 39.8915 25.7825 40.0321 25.7819C40.1728 25.7817 40.3109 25.8193 40.4321 25.8909L42.1181 26.8619C42.2408 26.9327 42.3424 27.0348 42.4127 27.1578C42.483 27.2808 42.5193 27.4203 42.5181 27.5619V32.3859C42.518 32.5273 42.5549 32.6663 42.6251 32.789C42.6952 32.9118 42.7962 33.0142 42.9181 33.0859L46.8771 35.3539C46.9376 35.3899 47.0067 35.4089 47.0771 35.4089C47.1475 35.4089 47.2166 35.3899 47.2771 35.3539C47.3433 35.3212 47.3992 35.2709 47.4386 35.2084C47.4779 35.1459 47.4992 35.0737 47.5001 34.9999L47.5131 24.6739C47.5143 24.5323 47.478 24.3928 47.4077 24.2698C47.3374 24.1468 47.2358 24.0447 47.1131 23.9739L47.1061 23.9779Z" fill="#4F4D3F"/>
<path d="M16.4728 61C16.3977 61 16.3363 60.9761 16.2885 60.9283C16.2407 60.8805 16.2168 60.8191 16.2168 60.744V54.088C16.2168 54.0129 16.2407 53.9515 16.2885 53.9037C16.3363 53.8559 16.3977 53.832 16.4728 53.832H17.5582C17.6743 53.832 17.7562 53.8593 17.804 53.9139C17.8586 53.9617 17.8927 53.9993 17.9064 54.0266L20.405 57.969V54.088C20.405 54.0129 20.4289 53.9515 20.4766 53.9037C20.5244 53.8559 20.5859 53.832 20.661 53.832H21.8898C21.9649 53.832 22.0263 53.8559 22.0741 53.9037C22.1219 53.9515 22.1458 54.0129 22.1458 54.088V60.744C22.1458 60.8123 22.1219 60.8737 22.0741 60.9283C22.0263 60.9761 21.9649 61 21.8898 61H20.7941C20.6849 61 20.6029 60.9727 20.5483 60.9181C20.5005 60.8635 20.4698 60.8259 20.4562 60.8054L17.9576 57.0166V60.744C17.9576 60.8191 17.9337 60.8805 17.8859 60.9283C17.8381 60.9761 17.7767 61 17.7016 61H16.4728ZM25.9832 61.1024C25.4098 61.1024 24.9251 61.0102 24.5291 60.8259C24.14 60.6416 23.8396 60.3788 23.628 60.0374C23.4232 59.6893 23.3071 59.2763 23.2798 58.7984C23.273 58.6619 23.2696 58.5083 23.2696 58.3376C23.2696 58.1601 23.273 58.0065 23.2798 57.8768C23.3071 57.3921 23.43 56.9791 23.6485 56.6378C23.8669 56.2964 24.1707 56.0336 24.5598 55.8493C24.9558 55.665 25.4302 55.5728 25.9832 55.5728C26.543 55.5728 27.0174 55.665 27.4066 55.8493C27.8025 56.0336 28.1097 56.2964 28.3282 56.6378C28.5466 56.9791 28.6695 57.3921 28.6968 57.8768C28.7036 58.0065 28.707 58.1601 28.707 58.3376C28.707 58.5083 28.7036 58.6619 28.6968 58.7984C28.6695 59.2763 28.55 59.6893 28.3384 60.0374C28.1336 60.3788 27.8332 60.6416 27.4373 60.8259C27.0482 61.0102 26.5635 61.1024 25.9832 61.1024ZM25.9832 59.8531C26.2904 59.8531 26.5123 59.761 26.6488 59.5766C26.7922 59.3923 26.8741 59.1158 26.8946 58.7472C26.9014 58.6448 26.9048 58.5083 26.9048 58.3376C26.9048 58.1669 26.9014 58.0304 26.8946 57.928C26.8741 57.5662 26.7922 57.2931 26.6488 57.1088C26.5123 56.9177 26.2904 56.8221 25.9832 56.8221C25.6828 56.8221 25.461 56.9177 25.3176 57.1088C25.1742 57.2931 25.0957 57.5662 25.0821 57.928C25.0753 58.0304 25.0718 58.1669 25.0718 58.3376C25.0718 58.5083 25.0753 58.6448 25.0821 58.7472C25.0957 59.1158 25.1742 59.3923 25.3176 59.5766C25.461 59.761 25.6828 59.8531 25.9832 59.8531ZM31.7007 61.1024C31.373 61.1024 31.0761 61.0512 30.8098 60.9488C30.5504 60.8396 30.3251 60.6826 30.134 60.4778C29.9497 60.2661 29.8063 60.0135 29.7039 59.72C29.6015 59.4196 29.5435 59.0783 29.5298 58.696C29.523 58.5595 29.5196 58.44 29.5196 58.3376C29.5196 58.2284 29.523 58.1089 29.5298 57.9792C29.5435 57.6106 29.6015 57.2795 29.7039 56.9859C29.8063 56.6924 29.9497 56.4398 30.134 56.2282C30.3183 56.0165 30.5436 55.8561 30.8098 55.7469C31.0761 55.6308 31.373 55.5728 31.7007 55.5728C32.0421 55.5728 32.3356 55.6308 32.5814 55.7469C32.8271 55.8561 33.0353 55.9995 33.206 56.177V53.9856C33.206 53.9105 33.2299 53.8491 33.2777 53.8013C33.3255 53.7535 33.3869 53.7296 33.462 53.7296H34.7113C34.7795 53.7296 34.8376 53.7535 34.8854 53.8013C34.94 53.8491 34.9673 53.9105 34.9673 53.9856V60.744C34.9673 60.8191 34.94 60.8805 34.8854 60.9283C34.8376 60.9761 34.7795 61 34.7113 61H33.5542C33.4791 61 33.4176 60.9761 33.3698 60.9283C33.3221 60.8805 33.2982 60.8191 33.2982 60.744V60.4163C33.1343 60.6143 32.9227 60.7781 32.6633 60.9078C32.4039 61.0375 32.083 61.1024 31.7007 61.1024ZM32.2537 59.7302C32.4858 59.7302 32.6667 59.6825 32.7964 59.5869C32.9329 59.4845 33.0319 59.3548 33.0934 59.1978C33.1616 59.0407 33.1992 58.8701 33.206 58.6858C33.2128 58.5492 33.2162 58.4195 33.2162 58.2966C33.2162 58.1738 33.2128 58.0475 33.206 57.9178C33.1992 57.7471 33.1616 57.5901 33.0934 57.4467C33.0251 57.2965 32.9227 57.1771 32.7862 57.0883C32.6496 56.9927 32.4721 56.945 32.2537 56.945C32.0284 56.945 31.8475 56.9927 31.711 57.0883C31.5813 57.1839 31.4891 57.3136 31.4345 57.4774C31.3799 57.6413 31.3457 57.8222 31.3321 58.0202C31.3116 58.2318 31.3116 58.4434 31.3321 58.655C31.3457 58.853 31.3799 59.0339 31.4345 59.1978C31.4891 59.3616 31.5813 59.4913 31.711 59.5869C31.8475 59.6825 32.0284 59.7302 32.2537 59.7302ZM38.6318 61.1024C37.8262 61.1024 37.1845 60.8839 36.7066 60.447C36.2288 60.0101 35.9796 59.3616 35.9591 58.5014C35.9591 58.4537 35.9591 58.3922 35.9591 58.3171C35.9591 58.242 35.9591 58.184 35.9591 58.143C35.9796 57.6037 36.0991 57.1429 36.3175 56.7606C36.5428 56.3715 36.85 56.078 37.2391 55.88C37.6351 55.6752 38.0959 55.5728 38.6215 55.5728C39.2223 55.5728 39.7172 55.6923 40.1063 55.9312C40.5023 56.1701 40.7992 56.4944 40.9972 56.904C41.1952 57.3136 41.2942 57.7812 41.2942 58.3069V58.5526C41.2942 58.6277 41.2669 58.6892 41.2122 58.737C41.1645 58.7847 41.1064 58.8086 41.0382 58.8086H37.7614C37.7614 58.8155 37.7614 58.8257 37.7614 58.8394C37.7614 58.853 37.7614 58.8667 37.7614 58.8803C37.7682 59.0783 37.8023 59.2592 37.8638 59.423C37.9252 59.5869 38.0208 59.7166 38.1505 59.8122C38.2802 59.9077 38.4372 59.9555 38.6215 59.9555C38.7581 59.9555 38.8707 59.935 38.9594 59.8941C39.055 59.8463 39.1335 59.7951 39.195 59.7405C39.2564 59.679 39.3042 59.6278 39.3383 59.5869C39.3998 59.5186 39.4475 59.4777 39.4817 59.464C39.5226 59.4435 39.5841 59.4333 39.666 59.4333H40.9358C41.004 59.4333 41.0586 59.4538 41.0996 59.4947C41.1474 59.5289 41.1679 59.5801 41.161 59.6483C41.1542 59.7644 41.0962 59.9043 40.987 60.0682C40.8777 60.232 40.7173 60.3958 40.5057 60.5597C40.3009 60.7167 40.0415 60.8464 39.7274 60.9488C39.4134 61.0512 39.0482 61.1024 38.6318 61.1024ZM37.7614 57.7949H39.4919V57.7744C39.4919 57.5559 39.4578 57.3648 39.3895 57.201C39.3281 57.0371 39.2291 56.9108 39.0926 56.8221C38.9629 56.7333 38.8058 56.689 38.6215 56.689C38.4372 56.689 38.2802 56.7333 38.1505 56.8221C38.0276 56.9108 37.932 57.0371 37.8638 57.201C37.7955 57.3648 37.7614 57.5559 37.7614 57.7744V57.7949ZM42.5102 61C42.4351 61 42.3736 60.9761 42.3258 60.9283C42.2781 60.8805 42.2542 60.8191 42.2542 60.744V55.9312C42.2542 55.8561 42.2781 55.7947 42.3258 55.7469C42.3736 55.6991 42.4351 55.6752 42.5102 55.6752H43.6263C43.7014 55.6752 43.7629 55.6991 43.8106 55.7469C43.8584 55.7947 43.8823 55.8561 43.8823 55.9312V56.2794C44.0189 56.095 44.21 55.9346 44.4558 55.7981C44.7015 55.6547 44.9917 55.5796 45.3262 55.5728C46.1112 55.5591 46.6505 55.8561 46.9441 56.4637C47.1011 56.2043 47.3264 55.9926 47.6199 55.8288C47.9135 55.6581 48.2343 55.5728 48.5825 55.5728C48.9375 55.5728 49.2549 55.6547 49.5348 55.8186C49.8215 55.9756 50.0502 56.2213 50.2209 56.5558C50.3915 56.8835 50.4769 57.3102 50.4769 57.8358V60.744C50.4769 60.8191 50.4496 60.8805 50.395 60.9283C50.3472 60.9761 50.2891 61 50.2209 61H49.033C48.9579 61 48.8931 60.9761 48.8385 60.9283C48.7907 60.8805 48.7668 60.8191 48.7668 60.744V57.9075C48.7668 57.6686 48.7327 57.4809 48.6644 57.3443C48.5961 57.201 48.504 57.0986 48.3879 57.0371C48.2719 56.9757 48.1387 56.945 47.9886 56.945C47.8657 56.945 47.7428 56.9757 47.6199 57.0371C47.5039 57.0986 47.4083 57.201 47.3332 57.3443C47.2649 57.4809 47.2308 57.6686 47.2308 57.9075V60.744C47.2308 60.8191 47.2069 60.8805 47.1591 60.9283C47.1113 60.9761 47.0499 61 46.9748 61H45.787C45.7119 61 45.6504 60.9761 45.6026 60.9283C45.5549 60.8805 45.531 60.8191 45.531 60.744V57.9075C45.531 57.6686 45.4934 57.4809 45.4183 57.3443C45.3432 57.201 45.2477 57.0986 45.1316 57.0371C45.0155 56.9757 44.8858 56.945 44.7425 56.945C44.6196 56.945 44.4967 56.9757 44.3738 57.0371C44.2578 57.0986 44.1622 57.201 44.0871 57.3443C44.0189 57.4809 43.9847 57.6652 43.9847 57.8973V60.744C43.9847 60.8191 43.9574 60.8805 43.9028 60.9283C43.855 60.9761 43.7936 61 43.7185 61H42.5102ZM54.1432 61.1024C53.5698 61.1024 53.0851 61.0102 52.6891 60.8259C52.3 60.6416 51.9996 60.3788 51.788 60.0374C51.5832 59.6893 51.4671 59.2763 51.4398 58.7984C51.433 58.6619 51.4296 58.5083 51.4296 58.3376C51.4296 58.1601 51.433 58.0065 51.4398 57.8768C51.4671 57.3921 51.59 56.9791 51.8085 56.6378C52.0269 56.2964 52.3307 56.0336 52.7198 55.8493C53.1158 55.665 53.5902 55.5728 54.1432 55.5728C54.703 55.5728 55.1774 55.665 55.5666 55.8493C55.9625 56.0336 56.2697 56.2964 56.4882 56.6378C56.7066 56.9791 56.8295 57.3921 56.8568 57.8768C56.8636 58.0065 56.867 58.1601 56.867 58.3376C56.867 58.5083 56.8636 58.6619 56.8568 58.7984C56.8295 59.2763 56.71 59.6893 56.4984 60.0374C56.2936 60.3788 55.9932 60.6416 55.5973 60.8259C55.2082 61.0102 54.7235 61.1024 54.1432 61.1024ZM54.1432 59.8531C54.4504 59.8531 54.6723 59.761 54.8088 59.5766C54.9522 59.3923 55.0341 59.1158 55.0546 58.7472C55.0614 58.6448 55.0648 58.5083 55.0648 58.3376C55.0648 58.1669 55.0614 58.0304 55.0546 57.928C55.0341 57.5662 54.9522 57.2931 54.8088 57.1088C54.6723 56.9177 54.4504 56.8221 54.1432 56.8221C53.8428 56.8221 53.621 56.9177 53.4776 57.1088C53.3342 57.2931 53.2557 57.5662 53.2421 57.928C53.2353 58.0304 53.2318 58.1669 53.2318 58.3376C53.2318 58.5083 53.2353 58.6448 53.2421 58.7472C53.2557 59.1158 53.3342 59.3923 53.4776 59.5766C53.621 59.761 53.8428 59.8531 54.1432 59.8531ZM58.1302 61C58.0551 61 57.9936 60.9761 57.9458 60.9283C57.8981 60.8805 57.8742 60.8191 57.8742 60.744V55.9312C57.8742 55.8561 57.8981 55.7947 57.9458 55.7469C57.9936 55.6991 58.0551 55.6752 58.1302 55.6752H59.3078C59.3829 55.6752 59.4443 55.6991 59.4921 55.7469C59.5399 55.7947 59.5638 55.8561 59.5638 55.9312V56.3203C59.7413 56.1087 59.9734 55.9312 60.2601 55.7878C60.5468 55.6445 60.8847 55.5728 61.2738 55.5728C61.6698 55.5728 62.0179 55.6615 62.3183 55.839C62.6255 56.0165 62.8645 56.2794 63.0351 56.6275C63.2126 56.9689 63.3014 57.3887 63.3014 57.887V60.744C63.3014 60.8191 63.2741 60.8805 63.2194 60.9283C63.1717 60.9761 63.1136 61 63.0454 61H61.7551C61.6869 61 61.6254 60.9761 61.5708 60.9283C61.523 60.8805 61.4991 60.8191 61.4991 60.744V57.9485C61.4991 57.6276 61.4206 57.3819 61.2636 57.2112C61.1134 57.0337 60.8881 56.945 60.5878 56.945C60.3079 56.945 60.0826 57.0337 59.9119 57.2112C59.7481 57.3819 59.6662 57.6276 59.6662 57.9485V60.744C59.6662 60.8191 59.6389 60.8805 59.5842 60.9283C59.5365 60.9761 59.4784 61 59.4102 61H58.1302Z" fill="#E5E5E5"/>
</g>
<defs>
<filter id="filter0_d_602_1610" x="0" y="0" width="80" height="80" filterUnits="userSpaceOnUse" color-interpolation-filters="sRGB">
<feFlood flood-opacity="0" result="BackgroundImageFix"/>
<feColorMatrix in="SourceAlpha" type="matrix" values="0 0 0 0 0 0 0 0 0 0 0 0 0 0 0 0 0 0 127 0" result="hardAlpha"/>
<feOffset dy="2"/>
<feGaussianBlur stdDeviation="4"/>
<feColorMatrix type="matrix" values="0 0 0 0 0 0 0 0 0 0 0 0 0 0 0 0 0 0 0.75 0"/>
<feBlend mode="normal" in2="BackgroundImageFix" result="effect1_dropShadow_602_1610"/>
<feBlend mode="normal" in="SourceGraphic" in2="effect1_dropShadow_602_1610" result="shape"/>
</filter>
</defs>
</svg>
