<svg width="80" height="80" viewBox="0 0 80 80" fill="none" xmlns="http://www.w3.org/2000/svg">
<g filter="url(#filter0_d_602_1575)">
<rect x="8" y="6" width="64" height="64" rx="5" fill="#212529"/>
<mask id="mask0_602_1575" style="mask-type:luminance" maskUnits="userSpaceOnUse" x="26" y="12" width="28" height="30">
<path d="M39.2965 12.3613L27.674 19.0697C27.4605 19.1928 27.2832 19.3699 27.1599 19.5833C27.0366 19.7967 26.9717 20.0388 26.9717 20.2852V33.7114C26.9717 34.2126 27.2387 34.6758 27.674 34.9269L39.2974 41.6405C39.5109 41.7635 39.753 41.8282 39.9995 41.8282C40.2459 41.8282 40.488 41.7635 40.7016 41.6405L52.3229 34.9269C52.5359 34.8034 52.7128 34.6261 52.8358 34.4128C52.9587 34.1995 53.0235 33.9576 53.0237 33.7114V20.2852C53.0237 19.7842 52.7561 19.3208 52.3202 19.0697L40.7005 12.3613C40.4864 12.2385 40.2438 12.1738 39.997 12.1738C39.7501 12.1738 39.5076 12.2385 39.2935 12.3613" fill="white"/>
</mask>
<g mask="url(#mask0_602_1575)">
<path d="M64.7686 17.9307L32.0184 1.87769L15.2261 36.1338L47.9754 52.1876L64.7686 17.9307Z" fill="url(#paint0_linear_602_1575)"/>
</g>
<mask id="mask1_602_1575" style="mask-type:luminance" maskUnits="userSpaceOnUse" x="27" y="12" width="26" height="30">
<path d="M27.2598 34.5637C27.3709 34.708 27.51 34.833 27.6736 34.9268L37.6436 40.6856L39.3043 41.6401C39.5526 41.7836 39.8357 41.8442 40.1137 41.8236C40.2064 41.8161 40.2991 41.7987 40.3896 41.7731L52.6477 19.3281C52.5539 19.226 52.4441 19.1405 52.3211 19.0688L44.7109 14.6742L40.6881 12.3596C40.5738 12.2948 40.4513 12.2456 40.324 12.2134L27.2598 34.5637Z" fill="white"/>
</mask>
<g mask="url(#mask1_602_1575)">
<path d="M13.0999 22.6785L36.2248 53.977L66.808 31.3814L43.6816 0.0837402L13.0999 22.6785Z" fill="url(#paint1_linear_602_1575)"/>
</g>
<mask id="mask2_602_1575" style="mask-type:luminance" maskUnits="userSpaceOnUse" x="27" y="12" width="27" height="30">
<path d="M39.8583 12.1813C39.6606 12.2012 39.4694 12.2625 39.2969 12.3611L27.7075 19.0502L40.2045 41.8124C40.3783 41.7876 40.5494 41.7296 40.7039 41.6403L52.3263 34.9266C52.5018 34.8251 52.6533 34.6868 52.7704 34.5213C52.8876 34.3558 52.9676 34.167 53.005 33.9677L40.2652 12.2042C40.1716 12.1855 40.0765 12.1761 39.9811 12.176L39.8652 12.1815" fill="white"/>
</mask>
<g mask="url(#mask2_602_1575)">
<path d="M27.7073 12.176V41.813H53.0001V12.176H27.7073Z" fill="url(#paint2_linear_602_1575)"/>
</g>
<path d="M27.4728 61C27.3977 61 27.3363 60.9761 27.2885 60.9283C27.2407 60.8805 27.2168 60.8191 27.2168 60.744V54.088C27.2168 54.0129 27.2407 53.9515 27.2885 53.9037C27.3363 53.8559 27.3977 53.832 27.4728 53.832H28.5582C28.6743 53.832 28.7562 53.8593 28.804 53.9139C28.8586 53.9617 28.8927 53.9993 28.9064 54.0266L31.405 57.969V54.088C31.405 54.0129 31.4289 53.9515 31.4766 53.9037C31.5244 53.8559 31.5859 53.832 31.661 53.832H32.8898C32.9649 53.832 33.0263 53.8559 33.0741 53.9037C33.1219 53.9515 33.1458 54.0129 33.1458 54.088V60.744C33.1458 60.8123 33.1219 60.8737 33.0741 60.9283C33.0263 60.9761 32.9649 61 32.8898 61H31.7941C31.6849 61 31.6029 60.9727 31.5483 60.9181C31.5005 60.8635 31.4698 60.8259 31.4562 60.8054L28.9576 57.0166V60.744C28.9576 60.8191 28.9337 60.8805 28.8859 60.9283C28.8381 60.9761 28.7767 61 28.7016 61H27.4728ZM36.9832 61.1024C36.4098 61.1024 35.9251 61.0102 35.5291 60.8259C35.14 60.6416 34.8396 60.3788 34.628 60.0374C34.4232 59.6893 34.3071 59.2763 34.2798 58.7984C34.273 58.6619 34.2696 58.5083 34.2696 58.3376C34.2696 58.1601 34.273 58.0065 34.2798 57.8768C34.3071 57.3921 34.43 56.9791 34.6485 56.6378C34.8669 56.2964 35.1707 56.0336 35.5598 55.8493C35.9558 55.665 36.4302 55.5728 36.9832 55.5728C37.543 55.5728 38.0174 55.665 38.4066 55.8493C38.8025 56.0336 39.1097 56.2964 39.3282 56.6378C39.5466 56.9791 39.6695 57.3921 39.6968 57.8768C39.7036 58.0065 39.707 58.1601 39.707 58.3376C39.707 58.5083 39.7036 58.6619 39.6968 58.7984C39.6695 59.2763 39.55 59.6893 39.3384 60.0374C39.1336 60.3788 38.8332 60.6416 38.4373 60.8259C38.0482 61.0102 37.5635 61.1024 36.9832 61.1024ZM36.9832 59.8531C37.2904 59.8531 37.5123 59.761 37.6488 59.5766C37.7922 59.3923 37.8741 59.1158 37.8946 58.7472C37.9014 58.6448 37.9048 58.5083 37.9048 58.3376C37.9048 58.1669 37.9014 58.0304 37.8946 57.928C37.8741 57.5662 37.7922 57.2931 37.6488 57.1088C37.5123 56.9177 37.2904 56.8221 36.9832 56.8221C36.6828 56.8221 36.461 56.9177 36.3176 57.1088C36.1742 57.2931 36.0957 57.5662 36.0821 57.928C36.0753 58.0304 36.0718 58.1669 36.0718 58.3376C36.0718 58.5083 36.0753 58.6448 36.0821 58.7472C36.0957 59.1158 36.1742 59.3923 36.3176 59.5766C36.461 59.761 36.6828 59.8531 36.9832 59.8531ZM42.7007 61.1024C42.373 61.1024 42.0761 61.0512 41.8098 60.9488C41.5504 60.8396 41.3251 60.6826 41.134 60.4778C40.9497 60.2661 40.8063 60.0135 40.7039 59.72C40.6015 59.4196 40.5435 59.0783 40.5298 58.696C40.523 58.5595 40.5196 58.44 40.5196 58.3376C40.5196 58.2284 40.523 58.1089 40.5298 57.9792C40.5435 57.6106 40.6015 57.2795 40.7039 56.9859C40.8063 56.6924 40.9497 56.4398 41.134 56.2282C41.3183 56.0165 41.5436 55.8561 41.8098 55.7469C42.0761 55.6308 42.373 55.5728 42.7007 55.5728C43.0421 55.5728 43.3356 55.6308 43.5814 55.7469C43.8271 55.8561 44.0353 55.9995 44.206 56.177V53.9856C44.206 53.9105 44.2299 53.8491 44.2777 53.8013C44.3255 53.7535 44.3869 53.7296 44.462 53.7296H45.7113C45.7795 53.7296 45.8376 53.7535 45.8854 53.8013C45.94 53.8491 45.9673 53.9105 45.9673 53.9856V60.744C45.9673 60.8191 45.94 60.8805 45.8854 60.9283C45.8376 60.9761 45.7795 61 45.7113 61H44.5542C44.4791 61 44.4176 60.9761 44.3698 60.9283C44.3221 60.8805 44.2982 60.8191 44.2982 60.744V60.4163C44.1343 60.6143 43.9227 60.7781 43.6633 60.9078C43.4039 61.0375 43.083 61.1024 42.7007 61.1024ZM43.2537 59.7302C43.4858 59.7302 43.6667 59.6825 43.7964 59.5869C43.9329 59.4845 44.0319 59.3548 44.0934 59.1978C44.1616 59.0407 44.1992 58.8701 44.206 58.6858C44.2128 58.5492 44.2162 58.4195 44.2162 58.2966C44.2162 58.1738 44.2128 58.0475 44.206 57.9178C44.1992 57.7471 44.1616 57.5901 44.0934 57.4467C44.0251 57.2965 43.9227 57.1771 43.7862 57.0883C43.6496 56.9927 43.4721 56.945 43.2537 56.945C43.0284 56.945 42.8475 56.9927 42.711 57.0883C42.5813 57.1839 42.4891 57.3136 42.4345 57.4774C42.3799 57.6413 42.3457 57.8222 42.3321 58.0202C42.3116 58.2318 42.3116 58.4434 42.3321 58.655C42.3457 58.853 42.3799 59.0339 42.4345 59.1978C42.4891 59.3616 42.5813 59.4913 42.711 59.5869C42.8475 59.6825 43.0284 59.7302 43.2537 59.7302ZM49.6318 61.1024C48.8262 61.1024 48.1845 60.8839 47.7066 60.447C47.2288 60.0101 46.9796 59.3616 46.9591 58.5014C46.9591 58.4537 46.9591 58.3922 46.9591 58.3171C46.9591 58.242 46.9591 58.184 46.9591 58.143C46.9796 57.6037 47.0991 57.1429 47.3175 56.7606C47.5428 56.3715 47.85 56.078 48.2391 55.88C48.6351 55.6752 49.0959 55.5728 49.6215 55.5728C50.2223 55.5728 50.7172 55.6923 51.1063 55.9312C51.5023 56.1701 51.7992 56.4944 51.9972 56.904C52.1952 57.3136 52.2942 57.7812 52.2942 58.3069V58.5526C52.2942 58.6277 52.2669 58.6892 52.2122 58.737C52.1645 58.7847 52.1064 58.8086 52.0382 58.8086H48.7614C48.7614 58.8155 48.7614 58.8257 48.7614 58.8394C48.7614 58.853 48.7614 58.8667 48.7614 58.8803C48.7682 59.0783 48.8023 59.2592 48.8638 59.423C48.9252 59.5869 49.0208 59.7166 49.1505 59.8122C49.2802 59.9077 49.4372 59.9555 49.6215 59.9555C49.7581 59.9555 49.8707 59.935 49.9594 59.8941C50.055 59.8463 50.1335 59.7951 50.195 59.7405C50.2564 59.679 50.3042 59.6278 50.3383 59.5869C50.3998 59.5186 50.4475 59.4777 50.4817 59.464C50.5226 59.4435 50.5841 59.4333 50.666 59.4333H51.9358C52.004 59.4333 52.0586 59.4538 52.0996 59.4947C52.1474 59.5289 52.1679 59.5801 52.161 59.6483C52.1542 59.7644 52.0962 59.9043 51.987 60.0682C51.8777 60.232 51.7173 60.3958 51.5057 60.5597C51.3009 60.7167 51.0415 60.8464 50.7274 60.9488C50.4134 61.0512 50.0482 61.1024 49.6318 61.1024ZM48.7614 57.7949H50.4919V57.7744C50.4919 57.5559 50.4578 57.3648 50.3895 57.201C50.3281 57.0371 50.2291 56.9108 50.0926 56.8221C49.9629 56.7333 49.8058 56.689 49.6215 56.689C49.4372 56.689 49.2802 56.7333 49.1505 56.8221C49.0276 56.9108 48.932 57.0371 48.8638 57.201C48.7955 57.3648 48.7614 57.5559 48.7614 57.7744V57.7949Z" fill="#E5E5E5"/>
</g>
<defs>
<filter id="filter0_d_602_1575" x="0" y="0" width="80" height="80" filterUnits="userSpaceOnUse" color-interpolation-filters="sRGB">
<feFlood flood-opacity="0" result="BackgroundImageFix"/>
<feColorMatrix in="SourceAlpha" type="matrix" values="0 0 0 0 0 0 0 0 0 0 0 0 0 0 0 0 0 0 127 0" result="hardAlpha"/>
<feOffset dy="2"/>
<feGaussianBlur stdDeviation="4"/>
<feColorMatrix type="matrix" values="0 0 0 0 0 0 0 0 0 0 0 0 0 0 0 0 0 0 0.75 0"/>
<feBlend mode="normal" in2="BackgroundImageFix" result="effect1_dropShadow_602_1575"/>
<feBlend mode="normal" in="SourceGraphic" in2="effect1_dropShadow_602_1575" result="shape"/>
</filter>
<linearGradient id="paint0_linear_602_1575" x1="48.3837" y1="9.8788" x2="31.5925" y2="44.1327" gradientUnits="userSpaceOnUse">
<stop offset="0.3" stop-color="#3E863D"/>
<stop offset="0.5" stop-color="#55934F"/>
<stop offset="0.8" stop-color="#5AAD45"/>
</linearGradient>
<linearGradient id="paint1_linear_602_1575" x1="24.8007" y1="38.5072" x2="55.3852" y2="15.9089" gradientUnits="userSpaceOnUse">
<stop offset="0.57" stop-color="#3E863D"/>
<stop offset="0.72" stop-color="#619857"/>
<stop offset="1" stop-color="#76AC64"/>
</linearGradient>
<linearGradient id="paint2_linear_602_1575" x1="27.7158" y1="26.9953" x2="53.0047" y2="26.9953" gradientUnits="userSpaceOnUse">
<stop offset="0.16" stop-color="#6BBF47"/>
<stop offset="0.38" stop-color="#79B461"/>
<stop offset="0.47" stop-color="#75AC64"/>
<stop offset="0.7" stop-color="#659E5A"/>
<stop offset="0.9" stop-color="#3E863D"/>
</linearGradient>
</defs>
</svg>
