<svg width="80" height="80" viewBox="0 0 80 80" fill="none" xmlns="http://www.w3.org/2000/svg">
<g filter="url(#filter0_d_602_270)">
<rect x="8" y="6" width="64" height="64" rx="5" fill="#212529"/>
<g clip-path="url(#clip0_602_270)">
<path d="M40 11L56 27L40 43L24 27L40 11Z" fill="#E3695F"/>
<path d="M35.2366 19.4814V26.2334L28.0613 27.1729L37.4725 28.4049V25.8526L44.7639 34.5182V27.7662L51.9397 26.8273L42.5285 25.5953V28.1461L35.2366 19.4814Z" fill="white"/>
</g>
<path d="M19.7781 60C19.718 60 19.6689 59.9809 19.6306 59.9427C19.5924 59.9045 19.5733 59.8553 19.5733 59.7953V54.4718C19.5733 54.4117 19.5924 54.3625 19.6306 54.3243C19.6689 54.2861 19.718 54.267 19.7781 54.267H20.6462C20.739 54.267 20.8045 54.2888 20.8427 54.3325C20.8864 54.3707 20.9137 54.4008 20.9247 54.4226L22.923 57.5758V54.4718C22.923 54.4117 22.9421 54.3625 22.9803 54.3243C23.0186 54.2861 23.0677 54.267 23.1278 54.267H24.1106C24.1706 54.267 24.2198 54.2861 24.258 54.3243C24.2962 54.3625 24.3153 54.4117 24.3153 54.4718V59.7953C24.3153 59.8499 24.2962 59.899 24.258 59.9427C24.2198 59.9809 24.1706 60 24.1106 60H23.2342C23.1469 60 23.0814 59.9782 23.0377 59.9345C22.9995 59.8908 22.9749 59.8608 22.964 59.8444L20.9656 56.8141V59.7953C20.9656 59.8553 20.9465 59.9045 20.9083 59.9427C20.87 59.9809 20.8209 60 20.7608 60H19.7781ZM27.3845 60.0819C26.9259 60.0819 26.5382 60.0082 26.2215 59.8608C25.9103 59.7133 25.6701 59.5031 25.5008 59.2301C25.337 58.9517 25.2442 58.6214 25.2224 58.2392C25.2169 58.13 25.2142 58.0071 25.2142 57.8706C25.2142 57.7286 25.2169 57.6058 25.2224 57.5021C25.2442 57.1144 25.3425 56.7841 25.5172 56.5111C25.6919 56.2381 25.9349 56.0279 26.2461 55.8804C26.5628 55.733 26.9423 55.6593 27.3845 55.6593C27.8322 55.6593 28.2117 55.733 28.5229 55.8804C28.8396 56.0279 29.0853 56.2381 29.26 56.5111C29.4347 56.7841 29.533 57.1144 29.5549 57.5021C29.5603 57.6058 29.5631 57.7286 29.5631 57.8706C29.5631 58.0071 29.5603 58.13 29.5549 58.2392C29.533 58.6214 29.4375 58.9517 29.2682 59.2301C29.1044 59.5031 28.8642 59.7133 28.5475 59.8608C28.2363 60.0082 27.8486 60.0819 27.3845 60.0819ZM27.3845 59.0827C27.6302 59.0827 27.8077 59.009 27.9169 58.8616C28.0315 58.7142 28.097 58.493 28.1134 58.1982C28.1189 58.1163 28.1216 58.0071 28.1216 57.8706C28.1216 57.7341 28.1189 57.6249 28.1134 57.543C28.097 57.2536 28.0315 57.0352 27.9169 56.8878C27.8077 56.7349 27.6302 56.6585 27.3845 56.6585C27.1443 56.6585 26.9668 56.7349 26.8522 56.8878C26.7375 57.0352 26.6747 57.2536 26.6638 57.543C26.6583 57.6249 26.6556 57.7341 26.6556 57.8706C26.6556 58.0071 26.6583 58.1163 26.6638 58.1982C26.6747 58.493 26.7375 58.7142 26.8522 58.8616C26.9668 59.009 27.1443 59.0827 27.3845 59.0827ZM30.5733 60C30.5132 60 30.4641 59.9809 30.4259 59.9427C30.3877 59.9045 30.3686 59.8553 30.3686 59.7953V55.9459C30.3686 55.8914 30.3877 55.8449 30.4259 55.8067C30.4641 55.763 30.5132 55.7412 30.5733 55.7412H31.5152C31.5752 55.7412 31.6244 55.763 31.6626 55.8067C31.7008 55.8449 31.7199 55.8914 31.7199 55.9459V56.2736C31.8673 56.1043 32.042 55.9732 32.2441 55.8804C32.4515 55.7876 32.6836 55.7412 32.9402 55.7412H33.3006C33.3552 55.7412 33.4016 55.7603 33.4398 55.7985C33.4835 55.8367 33.5053 55.8859 33.5053 55.9459V56.7895C33.5053 56.8441 33.4835 56.8933 33.4398 56.9369C33.4016 56.9752 33.3552 56.9943 33.3006 56.9943H32.5061C32.2823 56.9943 32.1076 57.0571 31.982 57.1826C31.8619 57.3028 31.8018 57.4747 31.8018 57.6986V59.7953C31.8018 59.8553 31.78 59.9045 31.7363 59.9427C31.6981 59.9809 31.6489 60 31.5889 60H30.5733ZM34.2924 60C34.2323 60 34.1832 59.9809 34.145 59.9427C34.1068 59.9045 34.0876 59.8553 34.0876 59.7953V55.9459C34.0876 55.8859 34.1068 55.8367 34.145 55.7985C34.1832 55.7603 34.2323 55.7412 34.2924 55.7412H35.1851C35.2452 55.7412 35.2943 55.7603 35.3325 55.7985C35.3707 55.8367 35.3899 55.8859 35.3899 55.9459V56.2244C35.4991 56.077 35.6519 55.9487 35.8485 55.8395C36.0451 55.7248 36.2771 55.6648 36.5446 55.6593C37.1725 55.6484 37.6039 55.8859 37.8387 56.3718C37.9642 56.1643 38.1444 55.9951 38.3792 55.8641C38.614 55.7276 38.8706 55.6593 39.1491 55.6593C39.433 55.6593 39.6869 55.7248 39.9107 55.8559C40.1401 55.9814 40.323 56.178 40.4595 56.4455C40.596 56.7076 40.6642 57.0489 40.6642 57.4693V59.7953C40.6642 59.8553 40.6424 59.9045 40.5987 59.9427C40.5605 59.9809 40.5141 60 40.4595 60H39.5094C39.4494 60 39.3975 59.9809 39.3538 59.9427C39.3156 59.9045 39.2965 59.8553 39.2965 59.7953V57.5266C39.2965 57.3355 39.2692 57.1854 39.2146 57.0762C39.16 56.9615 39.0863 56.8796 38.9935 56.8305C38.9006 56.7813 38.7942 56.7568 38.674 56.7568C38.5758 56.7568 38.4775 56.7813 38.3792 56.8305C38.2864 56.8796 38.2099 56.9615 38.1499 57.0762C38.0953 57.1854 38.068 57.3355 38.068 57.5266V59.7953C38.068 59.8553 38.0489 59.9045 38.0107 59.9427C37.9724 59.9809 37.9233 60 37.8632 60H36.9132C36.8531 60 36.804 59.9809 36.7658 59.9427C36.7276 59.9045 36.7084 59.8553 36.7084 59.7953V57.5266C36.7084 57.3355 36.6784 57.1854 36.6184 57.0762C36.5583 56.9615 36.4819 56.8796 36.389 56.8305C36.2962 56.7813 36.1925 56.7568 36.0778 56.7568C35.9795 56.7568 35.8813 56.7813 35.783 56.8305C35.6902 56.8796 35.6137 56.9615 35.5537 57.0762C35.4991 57.1854 35.4718 57.3328 35.4718 57.5184V59.7953C35.4718 59.8553 35.4499 59.9045 35.4062 59.9427C35.368 59.9809 35.3189 60 35.2588 60H34.2924ZM42.8595 60.0819C42.5646 60.0819 42.2998 60.0273 42.065 59.9181C41.8357 59.8034 41.6528 59.6506 41.5163 59.4595C41.3798 59.2684 41.3115 59.0527 41.3115 58.8124C41.3115 58.4248 41.4699 58.119 41.7866 57.8952C42.1032 57.6658 42.5237 57.5102 43.0478 57.4283L44.0716 57.2727V57.1581C44.0716 56.9615 44.0306 56.8114 43.9487 56.7076C43.8668 56.6039 43.7167 56.552 43.4983 56.552C43.3454 56.552 43.2198 56.582 43.1215 56.6421C43.0287 56.7022 42.955 56.7841 42.9004 56.8878C42.8513 56.9588 42.783 56.9943 42.6957 56.9943H41.7784C41.7183 56.9943 41.6719 56.9779 41.6391 56.9451C41.6064 56.9069 41.5927 56.8632 41.5982 56.8141C41.5982 56.7158 41.6337 56.6039 41.7047 56.4783C41.7811 56.3473 41.8958 56.2189 42.0486 56.0934C42.2015 55.9678 42.3981 55.8641 42.6383 55.7821C42.8786 55.7002 43.1679 55.6593 43.5065 55.6593C43.8614 55.6593 44.1644 55.7002 44.4156 55.7821C44.6667 55.8641 44.8687 55.9787 45.0216 56.1261C45.18 56.2736 45.2973 56.4483 45.3738 56.6503C45.4502 56.8468 45.4884 57.0652 45.4884 57.3055V59.7953C45.4884 59.8553 45.4666 59.9045 45.4229 59.9427C45.3847 59.9809 45.3383 60 45.2837 60H44.3337C44.2736 60 44.2245 59.9809 44.1862 59.9427C44.148 59.9045 44.1289 59.8553 44.1289 59.7953V59.5086C44.0579 59.6123 43.9624 59.7079 43.8423 59.7953C43.7221 59.8826 43.5802 59.9509 43.4164 60C43.258 60.0546 43.0724 60.0819 42.8595 60.0819ZM43.2444 59.1482C43.4027 59.1482 43.5447 59.1155 43.6703 59.05C43.8013 58.979 43.9023 58.8725 43.9733 58.7306C44.0497 58.5831 44.088 58.4002 44.088 58.1818V58.0672L43.3918 58.19C43.1352 58.2337 42.9468 58.3019 42.8267 58.3948C42.712 58.4821 42.6547 58.5859 42.6547 58.706C42.6547 58.7988 42.682 58.878 42.7366 58.9435C42.7912 59.009 42.8622 59.0609 42.9495 59.0991C43.0369 59.1319 43.1352 59.1482 43.2444 59.1482ZM46.6174 60C46.5573 60 46.5082 59.9809 46.47 59.9427C46.4317 59.9045 46.4126 59.8553 46.4126 59.7953V54.3898C46.4126 54.3298 46.4317 54.2807 46.47 54.2424C46.5082 54.2042 46.5573 54.1851 46.6174 54.1851H47.5838C47.6439 54.1851 47.693 54.2042 47.7312 54.2424C47.7694 54.2807 47.7886 54.3298 47.7886 54.3898V59.7953C47.7886 59.8553 47.7694 59.9045 47.7312 59.9427C47.693 59.9809 47.6439 60 47.5838 60H46.6174ZM49.2407 60C49.1807 60 49.1315 59.9809 49.0933 59.9427C49.0551 59.9045 49.036 59.8553 49.036 59.7953V55.9459C49.036 55.8859 49.0551 55.8367 49.0933 55.7985C49.1315 55.7603 49.1807 55.7412 49.2407 55.7412H50.2072C50.2618 55.7412 50.3082 55.7603 50.3464 55.7985C50.3901 55.8367 50.4119 55.8859 50.4119 55.9459V59.7953C50.4119 59.8553 50.3901 59.9045 50.3464 59.9427C50.3082 59.9809 50.2618 60 50.2072 60H49.2407ZM49.2326 55.127C49.1725 55.127 49.1234 55.1078 49.0851 55.0696C49.0469 55.0314 49.0278 54.9823 49.0278 54.9222V54.1933C49.0278 54.1332 49.0469 54.0841 49.0851 54.0459C49.1234 54.0022 49.1725 53.9804 49.2326 53.9804H50.2072C50.2672 53.9804 50.3164 54.0022 50.3546 54.0459C50.3983 54.0841 50.4201 54.1332 50.4201 54.1933V54.9222C50.4201 54.9823 50.3983 55.0314 50.3546 55.0696C50.3164 55.1078 50.2672 55.127 50.2072 55.127H49.2326ZM51.5401 60C51.4855 60 51.4364 59.9809 51.3927 59.9427C51.3545 59.9045 51.3354 59.8553 51.3354 59.7953V59.1564C51.3354 59.0964 51.3463 59.0445 51.3682 59.0008C51.3955 58.9571 51.4282 58.9162 51.4664 58.878L53.3829 56.7977H51.6139C51.5538 56.7977 51.5019 56.7786 51.4582 56.7404C51.42 56.7022 51.4009 56.653 51.4009 56.593V55.9459C51.4009 55.8859 51.42 55.8367 51.4582 55.7985C51.5019 55.7603 51.5538 55.7412 51.6139 55.7412H54.9062C54.9608 55.7412 55.0072 55.7603 55.0455 55.7985C55.0891 55.8367 55.111 55.8859 55.111 55.9459V56.6421C55.111 56.6912 55.1001 56.7349 55.0782 56.7731C55.0564 56.8114 55.0291 56.8496 54.9963 56.8878L53.129 58.9435H55.07C55.1301 58.9435 55.1792 58.9626 55.2175 59.0008C55.2557 59.039 55.2748 59.0882 55.2748 59.1482V59.7953C55.2748 59.8553 55.2557 59.9045 55.2175 59.9427C55.1792 59.9809 55.1301 60 55.07 60H51.5401ZM57.9519 60.0819C57.3076 60.0819 56.7944 59.9072 56.4122 59.5577C56.03 59.2083 55.8307 58.6896 55.8143 58.0016C55.8143 57.9634 55.8143 57.9143 55.8143 57.8542C55.8143 57.7942 55.8143 57.7478 55.8143 57.715C55.8307 57.2837 55.9262 56.9151 56.101 56.6093C56.2811 56.2981 56.5268 56.0633 56.8381 55.905C57.1547 55.7412 57.5233 55.6593 57.9437 55.6593C58.4242 55.6593 58.82 55.7548 59.1313 55.9459C59.4479 56.1371 59.6854 56.3964 59.8438 56.724C60.0021 57.0516 60.0813 57.4256 60.0813 57.846V58.0426C60.0813 58.1026 60.0595 58.1518 60.0158 58.19C59.9776 58.2282 59.9311 58.2473 59.8765 58.2473H57.2557C57.2557 58.2528 57.2557 58.261 57.2557 58.2719C57.2557 58.2828 57.2557 58.2938 57.2557 58.3047C57.2612 58.463 57.2885 58.6077 57.3376 58.7387C57.3868 58.8698 57.4632 58.9735 57.567 59.05C57.6707 59.1264 57.7963 59.1646 57.9437 59.1646C58.0529 59.1646 58.143 59.1482 58.214 59.1155C58.2904 59.0773 58.3532 59.0363 58.4023 58.9926C58.4515 58.9435 58.4897 58.9025 58.517 58.8698C58.5661 58.8152 58.6044 58.7824 58.6317 58.7715C58.6644 58.7551 58.7136 58.7469 58.7791 58.7469H59.7946C59.8492 58.7469 59.8929 58.7633 59.9257 58.7961C59.9639 58.8234 59.9803 58.8643 59.9748 58.9189C59.9694 59.0117 59.923 59.1237 59.8356 59.2547C59.7482 59.3858 59.6199 59.5168 59.4507 59.6478C59.2869 59.7734 59.0794 59.8771 58.8282 59.959C58.5771 60.041 58.285 60.0819 57.9519 60.0819ZM57.2557 57.4365H58.6399V57.4201C58.6399 57.2454 58.6126 57.0926 58.558 56.9615C58.5088 56.8305 58.4296 56.7295 58.3204 56.6585C58.2167 56.5875 58.0911 56.552 57.9437 56.552C57.7963 56.552 57.6707 56.5875 57.567 56.6585C57.4687 56.7295 57.3922 56.8305 57.3376 56.9615C57.283 57.0926 57.2557 57.2454 57.2557 57.4201V57.4365Z" fill="#E5E5E5"/>
</g>
<defs>
<filter id="filter0_d_602_270" x="0" y="0" width="80" height="80" filterUnits="userSpaceOnUse" color-interpolation-filters="sRGB">
<feFlood flood-opacity="0" result="BackgroundImageFix"/>
<feColorMatrix in="SourceAlpha" type="matrix" values="0 0 0 0 0 0 0 0 0 0 0 0 0 0 0 0 0 0 127 0" result="hardAlpha"/>
<feOffset dy="2"/>
<feGaussianBlur stdDeviation="4"/>
<feColorMatrix type="matrix" values="0 0 0 0 0 0 0 0 0 0 0 0 0 0 0 0 0 0 0.75 0"/>
<feBlend mode="normal" in2="BackgroundImageFix" result="effect1_dropShadow_602_270"/>
<feBlend mode="normal" in="SourceGraphic" in2="effect1_dropShadow_602_270" result="shape"/>
</filter>
<clipPath id="clip0_602_270">
<rect width="32" height="32" fill="white" transform="translate(24 11)"/>
</clipPath>
</defs>
</svg>
