<svg width="80" height="80" viewBox="0 0 80 80" fill="none" xmlns="http://www.w3.org/2000/svg">
<g filter="url(#filter0_d_602_915)">
<rect x="8" y="6" width="64" height="64" rx="5" fill="#212529"/>
<path fill-rule="evenodd" clip-rule="evenodd" d="M29.716 40.2178L26.2766 35.9331C25.4491 34.9023 25 33.6346 25 32.3299V16.815C25 14.8606 26.5636 13.239 28.5807 13.1013L44.5321 12.0122C45.691 11.9331 46.8428 12.2411 47.7948 12.8847L53.3992 16.6739C54.4025 17.3522 55 18.461 55 19.6443V37.2832C55 39.1958 53.4626 40.7793 51.4876 40.9009L33.7833 41.9907C32.2073 42.0877 30.684 41.4237 29.716 40.2178Z" fill="white"/>
<path d="M35.2481 24.5788V24.3757C35.2481 23.8608 35.6605 23.4338 36.192 23.3983L40.0633 23.1398L45.417 31.0236V24.1042L44.039 23.9205V23.8241C44.039 23.3031 44.4608 22.8733 44.9991 22.8457L48.5216 22.6653V23.1722C48.5216 23.4101 48.3446 23.6137 48.1021 23.6547L47.2544 23.7981V35.0038L46.1906 35.3696C45.3018 35.6753 44.3124 35.3481 43.8036 34.5804L38.6061 26.7373V34.2231L40.2058 34.5292L40.1836 34.6776C40.1137 35.1424 39.7124 35.494 39.227 35.5156L35.2481 35.6927C35.1955 35.1928 35.5701 34.7457 36.0869 34.6914L36.6103 34.6364V24.6553L35.2481 24.5788Z" fill="black"/>
<path fill-rule="evenodd" clip-rule="evenodd" d="M44.6749 13.9668L28.7235 15.0559C27.768 15.1211 27.0273 15.8893 27.0273 16.815V32.3299C27.0273 33.1997 27.3268 34.0448 27.8784 34.7321L31.3178 39.0167C31.8739 39.7094 32.749 40.0909 33.6544 40.0352L51.3586 38.9454C52.266 38.8895 52.9724 38.1619 52.9724 37.2832V19.6443C52.9724 19.1006 52.6979 18.5912 52.2369 18.2795L46.6325 14.4903C46.0613 14.1041 45.3702 13.9193 44.6749 13.9668ZM29.5145 17.057C29.2926 16.8927 29.3982 16.5506 29.6769 16.5306L44.7822 15.4471C45.2635 15.4126 45.7417 15.5451 46.1309 15.8209L49.1617 17.9681C49.2767 18.0497 49.2228 18.2256 49.0803 18.2334L33.0839 19.1034C32.5998 19.1297 32.1219 18.9875 31.737 18.7025L29.5145 17.057ZM32.3336 21.8307C32.3336 21.311 32.7534 20.8818 33.2903 20.8525L50.203 19.9315C50.7263 19.903 51.1667 20.3053 51.1667 20.8118V36.0853C51.1667 36.604 50.7484 37.0328 50.2126 37.0633L33.4069 38.0195C32.8246 38.0527 32.3336 37.6052 32.3336 37.0415V21.8307Z" fill="black"/>
<path d="M26.7781 60C26.718 60 26.6689 59.9809 26.6306 59.9427C26.5924 59.9045 26.5733 59.8553 26.5733 59.7953V54.4718C26.5733 54.4117 26.5924 54.3625 26.6306 54.3243C26.6689 54.2861 26.718 54.267 26.7781 54.267H27.6462C27.739 54.267 27.8045 54.2888 27.8427 54.3325C27.8864 54.3707 27.9137 54.4008 27.9247 54.4226L29.923 57.5758V54.4718C29.923 54.4117 29.9421 54.3625 29.9803 54.3243C30.0186 54.2861 30.0677 54.267 30.1278 54.267H31.1106C31.1706 54.267 31.2198 54.2861 31.258 54.3243C31.2962 54.3625 31.3153 54.4117 31.3153 54.4718V59.7953C31.3153 59.8499 31.2962 59.899 31.258 59.9427C31.2198 59.9809 31.1706 60 31.1106 60H30.2342C30.1469 60 30.0814 59.9782 30.0377 59.9345C29.9995 59.8908 29.9749 59.8608 29.964 59.8444L27.9656 56.8141V59.7953C27.9656 59.8553 27.9465 59.9045 27.9083 59.9427C27.87 59.9809 27.8209 60 27.7608 60H26.7781ZM34.3845 60.0819C33.9259 60.0819 33.5382 60.0082 33.2215 59.8608C32.9103 59.7133 32.6701 59.5031 32.5008 59.2301C32.337 58.9517 32.2442 58.6214 32.2224 58.2392C32.2169 58.13 32.2142 58.0071 32.2142 57.8706C32.2142 57.7286 32.2169 57.6058 32.2224 57.5021C32.2442 57.1144 32.3425 56.7841 32.5172 56.5111C32.6919 56.2381 32.9349 56.0279 33.2461 55.8804C33.5628 55.733 33.9423 55.6593 34.3845 55.6593C34.8322 55.6593 35.2117 55.733 35.5229 55.8804C35.8396 56.0279 36.0853 56.2381 36.26 56.5111C36.4347 56.7841 36.533 57.1144 36.5549 57.5021C36.5603 57.6058 36.5631 57.7286 36.5631 57.8706C36.5631 58.0071 36.5603 58.13 36.5549 58.2392C36.533 58.6214 36.4375 58.9517 36.2682 59.2301C36.1044 59.5031 35.8642 59.7133 35.5475 59.8608C35.2363 60.0082 34.8486 60.0819 34.3845 60.0819ZM34.3845 59.0827C34.6302 59.0827 34.8077 59.009 34.9169 58.8616C35.0315 58.7142 35.097 58.493 35.1134 58.1982C35.1189 58.1163 35.1216 58.0071 35.1216 57.8706C35.1216 57.7341 35.1189 57.6249 35.1134 57.543C35.097 57.2536 35.0315 57.0352 34.9169 56.8878C34.8077 56.7349 34.6302 56.6585 34.3845 56.6585C34.1443 56.6585 33.9668 56.7349 33.8522 56.8878C33.7375 57.0352 33.6747 57.2536 33.6638 57.543C33.6583 57.6249 33.6556 57.7341 33.6556 57.8706C33.6556 58.0071 33.6583 58.1163 33.6638 58.1982C33.6747 58.493 33.7375 58.7142 33.8522 58.8616C33.9668 59.009 34.1443 59.0827 34.3845 59.0827ZM39.5311 60C39.1817 60 38.8786 59.9454 38.622 59.8362C38.3708 59.7215 38.177 59.5468 38.0405 59.312C37.904 59.0718 37.8358 58.7633 37.8358 58.3866V56.8141H37.1969C37.1369 56.8141 37.085 56.795 37.0413 56.7568C37.0031 56.7185 36.984 56.6694 36.984 56.6093V55.9459C36.984 55.8859 37.0031 55.8367 37.0413 55.7985C37.085 55.7603 37.1369 55.7412 37.1969 55.7412H37.8358V54.3898C37.8358 54.3298 37.8549 54.2807 37.8931 54.2424C37.9368 54.2042 37.9859 54.1851 38.0405 54.1851H38.9906C39.0506 54.1851 39.0998 54.2042 39.138 54.2424C39.1762 54.2807 39.1953 54.3298 39.1953 54.3898V55.7412H40.2191C40.2791 55.7412 40.3283 55.7603 40.3665 55.7985C40.4047 55.8367 40.4238 55.8859 40.4238 55.9459V56.6093C40.4238 56.6694 40.4047 56.7185 40.3665 56.7568C40.3283 56.795 40.2791 56.8141 40.2191 56.8141H39.1953V58.2719C39.1953 58.4576 39.2308 58.605 39.3018 58.7142C39.3728 58.8234 39.4929 58.878 39.6621 58.878H40.2928C40.3528 58.878 40.402 58.8971 40.4402 58.9353C40.4784 58.9735 40.4975 59.0227 40.4975 59.0827V59.7953C40.4975 59.8553 40.4784 59.9045 40.4402 59.9427C40.402 59.9809 40.3528 60 40.2928 60H39.5311ZM41.3804 60C41.3203 60 41.2712 59.9809 41.233 59.9427C41.1947 59.9045 41.1756 59.8553 41.1756 59.7953V55.9459C41.1756 55.8859 41.1947 55.8367 41.233 55.7985C41.2712 55.7603 41.3203 55.7412 41.3804 55.7412H42.3468C42.4014 55.7412 42.4478 55.7603 42.486 55.7985C42.5297 55.8367 42.5515 55.8859 42.5515 55.9459V59.7953C42.5515 59.8553 42.5297 59.9045 42.486 59.9427C42.4478 59.9809 42.4014 60 42.3468 60H41.3804ZM41.3722 55.127C41.3121 55.127 41.263 55.1078 41.2248 55.0696C41.1865 55.0314 41.1674 54.9823 41.1674 54.9222V54.1933C41.1674 54.1332 41.1865 54.0841 41.2248 54.0459C41.263 54.0022 41.3121 53.9804 41.3722 53.9804H42.3468C42.4069 53.9804 42.456 54.0022 42.4942 54.0459C42.5379 54.0841 42.5597 54.1332 42.5597 54.1933V54.9222C42.5597 54.9823 42.5379 55.0314 42.4942 55.0696C42.456 55.1078 42.4069 55.127 42.3468 55.127H41.3722ZM45.5658 60.0819C45.1071 60.0819 44.7195 60.0082 44.4028 59.8608C44.0916 59.7133 43.8513 59.5031 43.6821 59.2301C43.5183 58.9517 43.4255 58.6214 43.4036 58.2392C43.3982 58.13 43.3954 58.0071 43.3954 57.8706C43.3954 57.7286 43.3982 57.6058 43.4036 57.5021C43.4255 57.1144 43.5237 56.7841 43.6985 56.5111C43.8732 56.2381 44.1162 56.0279 44.4274 55.8804C44.7441 55.733 45.1235 55.6593 45.5658 55.6593C46.0135 55.6593 46.393 55.733 46.7042 55.8804C47.0209 56.0279 47.2666 56.2381 47.4413 56.5111C47.616 56.7841 47.7143 57.1144 47.7361 57.5021C47.7416 57.6058 47.7443 57.7286 47.7443 57.8706C47.7443 58.0071 47.7416 58.13 47.7361 58.2392C47.7143 58.6214 47.6187 58.9517 47.4495 59.2301C47.2857 59.5031 47.0454 59.7133 46.7288 59.8608C46.4175 60.0082 46.0299 60.0819 45.5658 60.0819ZM45.5658 59.0827C45.8115 59.0827 45.9889 59.009 46.0981 58.8616C46.2128 58.7142 46.2783 58.493 46.2947 58.1982C46.3002 58.1163 46.3029 58.0071 46.3029 57.8706C46.3029 57.7341 46.3002 57.6249 46.2947 57.543C46.2783 57.2536 46.2128 57.0352 46.0981 56.8878C45.9889 56.7349 45.8115 56.6585 45.5658 56.6585C45.3255 56.6585 45.1481 56.7349 45.0334 56.8878C44.9188 57.0352 44.856 57.2536 44.8451 57.543C44.8396 57.6249 44.8369 57.7341 44.8369 57.8706C44.8369 58.0071 44.8396 58.1163 44.8451 58.1982C44.856 58.493 44.9188 58.7142 45.0334 58.8616C45.1481 59.009 45.3255 59.0827 45.5658 59.0827ZM48.7546 60C48.6945 60 48.6454 59.9809 48.6072 59.9427C48.5689 59.9045 48.5498 59.8553 48.5498 59.7953V55.9459C48.5498 55.8859 48.5689 55.8367 48.6072 55.7985C48.6454 55.7603 48.6945 55.7412 48.7546 55.7412H49.6964C49.7565 55.7412 49.8056 55.7603 49.8438 55.7985C49.8821 55.8367 49.9012 55.8859 49.9012 55.9459V56.2572C50.0431 56.0879 50.2288 55.946 50.4581 55.8313C50.6874 55.7166 50.9577 55.6593 51.2689 55.6593C51.5856 55.6593 51.864 55.7303 52.1043 55.8722C52.35 56.0142 52.5411 56.2244 52.6776 56.5029C52.8195 56.7759 52.8905 57.1117 52.8905 57.5102V59.7953C52.8905 59.8553 52.8687 59.9045 52.825 59.9427C52.7868 59.9809 52.7404 60 52.6858 60H51.6538C51.5992 60 51.5501 59.9809 51.5064 59.9427C51.4682 59.9045 51.4491 59.8553 51.4491 59.7953V57.5594C51.4491 57.3028 51.3863 57.1062 51.2607 56.9697C51.1406 56.8277 50.9604 56.7568 50.7202 56.7568C50.4963 56.7568 50.3161 56.8277 50.1796 56.9697C50.0486 57.1062 49.9831 57.3028 49.9831 57.5594V59.7953C49.9831 59.8553 49.9612 59.9045 49.9176 59.9427C49.8793 59.9809 49.8329 60 49.7783 60H48.7546Z" fill="#E5E5E5"/>
</g>
<defs>
<filter id="filter0_d_602_915" x="0" y="0" width="80" height="80" filterUnits="userSpaceOnUse" color-interpolation-filters="sRGB">
<feFlood flood-opacity="0" result="BackgroundImageFix"/>
<feColorMatrix in="SourceAlpha" type="matrix" values="0 0 0 0 0 0 0 0 0 0 0 0 0 0 0 0 0 0 127 0" result="hardAlpha"/>
<feOffset dy="2"/>
<feGaussianBlur stdDeviation="4"/>
<feColorMatrix type="matrix" values="0 0 0 0 0 0 0 0 0 0 0 0 0 0 0 0 0 0 0.75 0"/>
<feBlend mode="normal" in2="BackgroundImageFix" result="effect1_dropShadow_602_915"/>
<feBlend mode="normal" in="SourceGraphic" in2="effect1_dropShadow_602_915" result="shape"/>
</filter>
</defs>
</svg>
