<svg width="80" height="80" viewBox="0 0 80 80" fill="none" xmlns="http://www.w3.org/2000/svg">
<g filter="url(#filter0_d_602_323)">
<rect x="8" y="6" width="64" height="64" rx="5" fill="#212529"/>
<g clip-path="url(#clip0_602_323)">
<path d="M56 11H24V43H56V11Z" fill="#D40001"/>
<path fill-rule="evenodd" clip-rule="evenodd" d="M46.2905 21.5712H40.2734V37.9992H29.3333V15H40.2734H50.6666V21.5712V37.9992H46.2905V21.5712Z" fill="white"/>
</g>
<path d="M28.9728 61C28.8977 61 28.8363 60.9761 28.7885 60.9283C28.7407 60.8805 28.7168 60.8191 28.7168 60.744V54.088C28.7168 54.0129 28.7407 53.9515 28.7885 53.9037C28.8363 53.8559 28.8977 53.832 28.9728 53.832H30.0582C30.1743 53.832 30.2562 53.8593 30.304 53.9139C30.3586 53.9617 30.3927 53.9993 30.4064 54.0266L32.905 57.969V54.088C32.905 54.0129 32.9289 53.9515 32.9766 53.9037C33.0244 53.8559 33.0859 53.832 33.161 53.832H34.3898C34.4649 53.832 34.5263 53.8559 34.5741 53.9037C34.6219 53.9515 34.6458 54.0129 34.6458 54.088V60.744C34.6458 60.8123 34.6219 60.8737 34.5741 60.9283C34.5263 60.9761 34.4649 61 34.3898 61H33.2941C33.1849 61 33.1029 60.9727 33.0483 60.9181C33.0005 60.8635 32.9698 60.8259 32.9562 60.8054L30.4576 57.0166V60.744C30.4576 60.8191 30.4337 60.8805 30.3859 60.9283C30.3381 60.9761 30.2767 61 30.2016 61H28.9728ZM36.2202 62.9456C36.1451 62.9456 36.0836 62.9217 36.0358 62.8739C35.9881 62.8261 35.9642 62.7647 35.9642 62.6896V55.9312C35.9642 55.8561 35.9881 55.7947 36.0358 55.7469C36.0836 55.6991 36.1451 55.6752 36.2202 55.6752H37.3773C37.4455 55.6752 37.5036 55.6991 37.5514 55.7469C37.606 55.7947 37.6333 55.8561 37.6333 55.9312V56.3101C37.7903 56.0985 37.9985 55.9244 38.2579 55.7878C38.5173 55.6445 38.8382 55.5728 39.2205 55.5728C39.5618 55.5728 39.8622 55.6274 40.1216 55.7366C40.381 55.839 40.6029 55.9926 40.7872 56.1974C40.9715 56.4022 41.1149 56.6514 41.2173 56.945C41.3265 57.2385 41.3879 57.5764 41.4016 57.9587C41.4084 58.0953 41.4118 58.2215 41.4118 58.3376C41.4118 58.4537 41.4084 58.5799 41.4016 58.7165C41.3879 59.0851 41.3299 59.4162 41.2275 59.7098C41.1251 60.0033 40.9818 60.2525 40.7974 60.4573C40.6131 60.6621 40.3878 60.8225 40.1216 60.9386C39.8622 61.0478 39.5618 61.1024 39.2205 61.1024C38.886 61.1024 38.5924 61.0444 38.3398 60.9283C38.0941 60.8054 37.8893 60.6348 37.7254 60.4163V62.6896C37.7254 62.7647 37.7015 62.8261 37.6538 62.8739C37.606 62.9217 37.5445 62.9456 37.4694 62.9456H36.2202ZM38.6675 59.7302C38.8996 59.7302 39.0805 59.6825 39.2102 59.5869C39.3399 59.4913 39.4321 59.3616 39.4867 59.1978C39.5482 59.0339 39.5857 58.853 39.5994 58.655C39.613 58.4434 39.613 58.2318 39.5994 58.0202C39.5857 57.8222 39.5482 57.6413 39.4867 57.4774C39.4321 57.3136 39.3399 57.1839 39.2102 57.0883C39.0805 56.9927 38.8996 56.945 38.6675 56.945C38.4422 56.945 38.2613 56.9962 38.1248 57.0986C37.9883 57.1941 37.8893 57.3204 37.8278 57.4774C37.7664 57.6345 37.7323 57.8051 37.7254 57.9894C37.7186 58.1191 37.7152 58.2454 37.7152 58.3683C37.7152 58.4912 37.7186 58.6209 37.7254 58.7574C37.7323 58.9281 37.7698 59.0885 37.8381 59.2387C37.9063 59.3821 38.0087 59.5015 38.1453 59.5971C38.2818 59.6859 38.4559 59.7302 38.6675 59.7302ZM42.6802 61C42.6051 61 42.5436 60.9761 42.4958 60.9283C42.4481 60.8805 42.4242 60.8191 42.4242 60.744V55.9312C42.4242 55.8561 42.4481 55.7947 42.4958 55.7469C42.5436 55.6991 42.6051 55.6752 42.6802 55.6752H43.7963C43.8714 55.6752 43.9329 55.6991 43.9806 55.7469C44.0284 55.7947 44.0523 55.8561 44.0523 55.9312V56.2794C44.1889 56.095 44.38 55.9346 44.6258 55.7981C44.8715 55.6547 45.1617 55.5796 45.4962 55.5728C46.2812 55.5591 46.8205 55.8561 47.1141 56.4637C47.2711 56.2043 47.4964 55.9926 47.7899 55.8288C48.0835 55.6581 48.4043 55.5728 48.7525 55.5728C49.1075 55.5728 49.4249 55.6547 49.7048 55.8186C49.9915 55.9756 50.2202 56.2213 50.3909 56.5558C50.5615 56.8835 50.6469 57.3102 50.6469 57.8358V60.744C50.6469 60.8191 50.6196 60.8805 50.565 60.9283C50.5172 60.9761 50.4591 61 50.3909 61H49.203C49.1279 61 49.0631 60.9761 49.0085 60.9283C48.9607 60.8805 48.9368 60.8191 48.9368 60.744V57.9075C48.9368 57.6686 48.9027 57.4809 48.8344 57.3443C48.7661 57.201 48.674 57.0986 48.5579 57.0371C48.4419 56.9757 48.3087 56.945 48.1586 56.945C48.0357 56.945 47.9128 56.9757 47.7899 57.0371C47.6739 57.0986 47.5783 57.201 47.5032 57.3443C47.4349 57.4809 47.4008 57.6686 47.4008 57.9075V60.744C47.4008 60.8191 47.3769 60.8805 47.3291 60.9283C47.2813 60.9761 47.2199 61 47.1448 61H45.957C45.8819 61 45.8204 60.9761 45.7726 60.9283C45.7249 60.8805 45.701 60.8191 45.701 60.744V57.9075C45.701 57.6686 45.6634 57.4809 45.5883 57.3443C45.5132 57.201 45.4177 57.0986 45.3016 57.0371C45.1855 56.9757 45.0558 56.945 44.9125 56.945C44.7896 56.945 44.6667 56.9757 44.5438 57.0371C44.4278 57.0986 44.3322 57.201 44.2571 57.3443C44.1889 57.4809 44.1547 57.6652 44.1547 57.8973V60.744C44.1547 60.8191 44.1274 60.8805 44.0728 60.9283C44.025 60.9761 43.9636 61 43.8885 61H42.6802Z" fill="#E5E5E5"/>
</g>
<defs>
<filter id="filter0_d_602_323" x="0" y="0" width="80" height="80" filterUnits="userSpaceOnUse" color-interpolation-filters="sRGB">
<feFlood flood-opacity="0" result="BackgroundImageFix"/>
<feColorMatrix in="SourceAlpha" type="matrix" values="0 0 0 0 0 0 0 0 0 0 0 0 0 0 0 0 0 0 127 0" result="hardAlpha"/>
<feOffset dy="2"/>
<feGaussianBlur stdDeviation="4"/>
<feColorMatrix type="matrix" values="0 0 0 0 0 0 0 0 0 0 0 0 0 0 0 0 0 0 0.75 0"/>
<feBlend mode="normal" in2="BackgroundImageFix" result="effect1_dropShadow_602_323"/>
<feBlend mode="normal" in="SourceGraphic" in2="effect1_dropShadow_602_323" result="shape"/>
</filter>
<clipPath id="clip0_602_323">
<rect width="32" height="32" fill="white" transform="translate(24 11)"/>
</clipPath>
</defs>
</svg>
