<svg width="80" height="80" viewBox="0 0 80 80" fill="none" xmlns="http://www.w3.org/2000/svg">
<g filter="url(#filter0_d_603_1091)">
<rect x="8" y="6" width="64" height="64" rx="5" fill="#212529"/>
<g clip-path="url(#clip0_603_1091)">
<path d="M39.8 11C32.728 11 27 16.728 27 23.8H33.4C33.4 20.2672 36.2672 17.4 39.8 17.4V11Z" fill="#D6FF00"/>
<path d="M52.6 23.8C52.6 16.728 46.872 11 39.8 11V17.4C43.3328 17.4 46.2 20.2672 46.2 23.8H52.6Z" fill="#34E27A"/>
<path d="M39.8 36.6C46.872 36.6 52.6 30.872 52.6 23.8H46.2C46.2 27.3328 43.3328 30.2 39.8 30.2V36.6Z" fill="#00B9F1"/>
<path d="M33.4 36.6V23.8H27V43H39.8V36.6H33.4Z" fill="white"/>
</g>
<path d="M17.4728 61C17.3977 61 17.3363 60.9761 17.2885 60.9283C17.2407 60.8805 17.2168 60.8191 17.2168 60.744V54.088C17.2168 54.0129 17.2407 53.9515 17.2885 53.9037C17.3363 53.8559 17.3977 53.832 17.4728 53.832H20.34C20.9066 53.832 21.3981 53.9207 21.8146 54.0982C22.2378 54.2689 22.5655 54.5283 22.7976 54.8765C23.0365 55.2246 23.156 55.665 23.156 56.1974C23.156 56.7231 23.0365 57.1566 22.7976 57.4979C22.5655 57.8393 22.2378 58.0918 21.8146 58.2557C21.3981 58.4195 20.9066 58.5014 20.34 58.5014H19.1214V60.744C19.1214 60.8191 19.0941 60.8805 19.0395 60.9283C18.9917 60.9761 18.9303 61 18.8552 61H17.4728ZM19.0907 57.0883H20.2888C20.5823 57.0883 20.8145 57.0132 20.9851 56.863C21.1626 56.7129 21.2514 56.4842 21.2514 56.177C21.2514 55.9175 21.1763 55.6991 21.0261 55.5216C20.8759 55.3441 20.6301 55.2554 20.2888 55.2554H19.0907V57.0883ZM25.5016 61.1024C25.133 61.1024 24.8019 61.0341 24.5083 60.8976C24.2216 60.7542 23.9929 60.5631 23.8222 60.3242C23.6516 60.0852 23.5662 59.8156 23.5662 59.5152C23.5662 59.0305 23.7642 58.6482 24.1602 58.3683C24.5561 58.0816 25.0818 57.887 25.7371 57.7846L27.0171 57.5901V57.4467C27.0171 57.201 26.9659 57.0132 26.8635 56.8835C26.7611 56.7538 26.5734 56.689 26.3003 56.689C26.1092 56.689 25.9522 56.7265 25.8293 56.8016C25.7132 56.8767 25.6211 56.9791 25.5528 57.1088C25.4914 57.1975 25.406 57.2419 25.2968 57.2419H24.1499C24.0748 57.2419 24.0168 57.2214 23.9758 57.1805C23.9349 57.1327 23.9178 57.0781 23.9246 57.0166C23.9246 56.8938 23.969 56.7538 24.0578 56.5968C24.1533 56.433 24.2967 56.2725 24.4878 56.1155C24.679 55.9585 24.9247 55.8288 25.2251 55.7264C25.5255 55.624 25.8873 55.5728 26.3106 55.5728C26.7543 55.5728 27.1332 55.624 27.4472 55.7264C27.7612 55.8288 28.0138 55.9722 28.205 56.1565C28.4029 56.3408 28.5497 56.5593 28.6453 56.8118C28.7409 57.0576 28.7886 57.3307 28.7886 57.631V60.744C28.7886 60.8191 28.7613 60.8805 28.7067 60.9283C28.6589 60.9761 28.6009 61 28.5326 61H27.3448C27.2697 61 27.2083 60.9761 27.1605 60.9283C27.1127 60.8805 27.0888 60.8191 27.0888 60.744V60.3856C27.0001 60.5153 26.8806 60.6348 26.7304 60.744C26.5802 60.8532 26.4027 60.9386 26.1979 61C25.9999 61.0683 25.7678 61.1024 25.5016 61.1024ZM25.9829 59.935C26.1809 59.935 26.3583 59.8941 26.5154 59.8122C26.6792 59.7234 26.8055 59.5903 26.8942 59.4128C26.9898 59.2285 27.0376 58.9998 27.0376 58.7267V58.5834L26.1672 58.737C25.8463 58.7916 25.6108 58.8769 25.4606 58.993C25.3173 59.1022 25.2456 59.2319 25.2456 59.3821C25.2456 59.4981 25.2797 59.5971 25.348 59.679C25.4163 59.761 25.505 59.8258 25.6142 59.8736C25.7235 59.9146 25.8463 59.935 25.9829 59.935ZM32.1355 61.1024C31.6918 61.1024 31.3129 61.0546 30.9989 60.959C30.6917 60.8566 30.4391 60.7338 30.2411 60.5904C30.05 60.447 29.9066 60.3003 29.811 60.1501C29.7155 59.9931 29.6643 59.8599 29.6574 59.7507C29.6506 59.6756 29.6745 59.6142 29.7291 59.5664C29.7837 59.5118 29.8418 59.4845 29.9032 59.4845H31.0706C31.091 59.4845 31.1081 59.4879 31.1218 59.4947C31.1354 59.5015 31.1559 59.5152 31.1832 59.5357C31.2719 59.5835 31.3607 59.6449 31.4494 59.72C31.5382 59.7883 31.6406 59.8497 31.7566 59.9043C31.8727 59.9589 32.0126 59.9862 32.1765 59.9862C32.3676 59.9862 32.5281 59.9487 32.6578 59.8736C32.7875 59.7985 32.8523 59.6859 32.8523 59.5357C32.8523 59.4265 32.8216 59.3377 32.7602 59.2694C32.6987 59.1943 32.5724 59.1227 32.3813 59.0544C32.197 58.9861 31.9171 58.9179 31.5416 58.8496C31.1866 58.7677 30.876 58.6619 30.6098 58.5322C30.3435 58.3956 30.1387 58.2215 29.9954 58.0099C29.852 57.7915 29.7803 57.5286 29.7803 57.2214C29.7803 56.9484 29.8691 56.6855 30.0466 56.433C30.2241 56.1804 30.4835 55.9756 30.8248 55.8186C31.1661 55.6547 31.586 55.5728 32.0843 55.5728C32.4803 55.5728 32.8216 55.6206 33.1083 55.7162C33.4019 55.8049 33.6476 55.921 33.8456 56.0643C34.0504 56.2077 34.204 56.3545 34.3064 56.5046C34.4088 56.6548 34.4634 56.7914 34.4702 56.9142C34.4771 56.9825 34.4566 57.0439 34.4088 57.0986C34.361 57.1463 34.3064 57.1702 34.245 57.1702H33.18C33.1527 57.1702 33.1254 57.1668 33.0981 57.16C33.0708 57.1463 33.0469 57.1327 33.0264 57.119C32.9445 57.0781 32.8626 57.0235 32.7806 56.9552C32.6987 56.8869 32.6031 56.8255 32.4939 56.7709C32.3847 56.7163 32.2482 56.689 32.0843 56.689C31.9 56.689 31.7566 56.7299 31.6542 56.8118C31.5518 56.8938 31.5006 56.9996 31.5006 57.1293C31.5006 57.218 31.5279 57.2999 31.5826 57.375C31.644 57.4501 31.7635 57.5184 31.941 57.5798C32.1253 57.6413 32.4086 57.7095 32.7909 57.7846C33.2619 57.8597 33.6374 57.9826 33.9173 58.1533C34.1972 58.3171 34.3951 58.5117 34.5112 58.737C34.6273 58.9554 34.6853 59.1875 34.6853 59.4333C34.6853 59.761 34.5863 60.0511 34.3883 60.3037C34.1972 60.5563 33.9105 60.7542 33.5282 60.8976C33.1459 61.0341 32.6817 61.1024 32.1355 61.1024ZM37.7955 61.1024C37.3518 61.1024 36.9729 61.0546 36.6589 60.959C36.3517 60.8566 36.0991 60.7338 35.9011 60.5904C35.71 60.447 35.5666 60.3003 35.471 60.1501C35.3755 59.9931 35.3243 59.8599 35.3174 59.7507C35.3106 59.6756 35.3345 59.6142 35.3891 59.5664C35.4437 59.5118 35.5018 59.4845 35.5632 59.4845H36.7306C36.751 59.4845 36.7681 59.4879 36.7818 59.4947C36.7954 59.5015 36.8159 59.5152 36.8432 59.5357C36.9319 59.5835 37.0207 59.6449 37.1094 59.72C37.1982 59.7883 37.3006 59.8497 37.4166 59.9043C37.5327 59.9589 37.6726 59.9862 37.8365 59.9862C38.0276 59.9862 38.1881 59.9487 38.3178 59.8736C38.4475 59.7985 38.5123 59.6859 38.5123 59.5357C38.5123 59.4265 38.4816 59.3377 38.4202 59.2694C38.3587 59.1943 38.2324 59.1227 38.0413 59.0544C37.857 58.9861 37.5771 58.9179 37.2016 58.8496C36.8466 58.7677 36.536 58.6619 36.2698 58.5322C36.0035 58.3956 35.7987 58.2215 35.6554 58.0099C35.512 57.7915 35.4403 57.5286 35.4403 57.2214C35.4403 56.9484 35.5291 56.6855 35.7066 56.433C35.8841 56.1804 36.1435 55.9756 36.4848 55.8186C36.8261 55.6547 37.246 55.5728 37.7443 55.5728C38.1403 55.5728 38.4816 55.6206 38.7683 55.7162C39.0619 55.8049 39.3076 55.921 39.5056 56.0643C39.7104 56.2077 39.864 56.3545 39.9664 56.5046C40.0688 56.6548 40.1234 56.7914 40.1302 56.9142C40.1371 56.9825 40.1166 57.0439 40.0688 57.0986C40.021 57.1463 39.9664 57.1702 39.905 57.1702H38.84C38.8127 57.1702 38.7854 57.1668 38.7581 57.16C38.7308 57.1463 38.7069 57.1327 38.6864 57.119C38.6045 57.0781 38.5226 57.0235 38.4406 56.9552C38.3587 56.8869 38.2631 56.8255 38.1539 56.7709C38.0447 56.7163 37.9082 56.689 37.7443 56.689C37.56 56.689 37.4166 56.7299 37.3142 56.8118C37.2118 56.8938 37.1606 56.9996 37.1606 57.1293C37.1606 57.218 37.1879 57.2999 37.2426 57.375C37.304 57.4501 37.4235 57.5184 37.601 57.5798C37.7853 57.6413 38.0686 57.7095 38.4509 57.7846C38.9219 57.8597 39.2974 57.9826 39.5773 58.1533C39.8572 58.3171 40.0551 58.5117 40.1712 58.737C40.2873 58.9554 40.3453 59.1875 40.3453 59.4333C40.3453 59.761 40.2463 60.0511 40.0483 60.3037C39.8572 60.5563 39.5705 60.7542 39.1882 60.8976C38.8059 61.0341 38.3417 61.1024 37.7955 61.1024ZM41.5202 62.9456C41.4451 62.9456 41.3836 62.9217 41.3358 62.8739C41.2881 62.8261 41.2642 62.7647 41.2642 62.6896V55.9312C41.2642 55.8561 41.2881 55.7947 41.3358 55.7469C41.3836 55.6991 41.4451 55.6752 41.5202 55.6752H42.6773C42.7455 55.6752 42.8036 55.6991 42.8514 55.7469C42.906 55.7947 42.9333 55.8561 42.9333 55.9312V56.3101C43.0903 56.0985 43.2985 55.9244 43.5579 55.7878C43.8173 55.6445 44.1382 55.5728 44.5205 55.5728C44.8618 55.5728 45.1622 55.6274 45.4216 55.7366C45.681 55.839 45.9029 55.9926 46.0872 56.1974C46.2715 56.4022 46.4149 56.6514 46.5173 56.945C46.6265 57.2385 46.6879 57.5764 46.7016 57.9587C46.7084 58.0953 46.7118 58.2215 46.7118 58.3376C46.7118 58.4537 46.7084 58.5799 46.7016 58.7165C46.6879 59.0851 46.6299 59.4162 46.5275 59.7098C46.4251 60.0033 46.2818 60.2525 46.0974 60.4573C45.9131 60.6621 45.6878 60.8225 45.4216 60.9386C45.1622 61.0478 44.8618 61.1024 44.5205 61.1024C44.186 61.1024 43.8924 61.0444 43.6398 60.9283C43.3941 60.8054 43.1893 60.6348 43.0254 60.4163V62.6896C43.0254 62.7647 43.0015 62.8261 42.9538 62.8739C42.906 62.9217 42.8445 62.9456 42.7694 62.9456H41.5202ZM43.9675 59.7302C44.1996 59.7302 44.3805 59.6825 44.5102 59.5869C44.6399 59.4913 44.7321 59.3616 44.7867 59.1978C44.8482 59.0339 44.8857 58.853 44.8994 58.655C44.913 58.4434 44.913 58.2318 44.8994 58.0202C44.8857 57.8222 44.8482 57.6413 44.7867 57.4774C44.7321 57.3136 44.6399 57.1839 44.5102 57.0883C44.3805 56.9927 44.1996 56.945 43.9675 56.945C43.7422 56.945 43.5613 56.9962 43.4248 57.0986C43.2883 57.1941 43.1893 57.3204 43.1278 57.4774C43.0664 57.6345 43.0323 57.8051 43.0254 57.9894C43.0186 58.1191 43.0152 58.2454 43.0152 58.3683C43.0152 58.4912 43.0186 58.6209 43.0254 58.7574C43.0323 58.9281 43.0698 59.0885 43.1381 59.2387C43.2063 59.3821 43.3087 59.5015 43.4453 59.5971C43.5818 59.6859 43.7559 59.7302 43.9675 59.7302ZM50.2432 61.1024C49.6698 61.1024 49.1851 61.0102 48.7891 60.8259C48.4 60.6416 48.0996 60.3788 47.888 60.0374C47.6832 59.6893 47.5671 59.2763 47.5398 58.7984C47.533 58.6619 47.5296 58.5083 47.5296 58.3376C47.5296 58.1601 47.533 58.0065 47.5398 57.8768C47.5671 57.3921 47.69 56.9791 47.9085 56.6378C48.1269 56.2964 48.4307 56.0336 48.8198 55.8493C49.2158 55.665 49.6902 55.5728 50.2432 55.5728C50.803 55.5728 51.2774 55.665 51.6666 55.8493C52.0625 56.0336 52.3697 56.2964 52.5882 56.6378C52.8066 56.9791 52.9295 57.3921 52.9568 57.8768C52.9636 58.0065 52.967 58.1601 52.967 58.3376C52.967 58.5083 52.9636 58.6619 52.9568 58.7984C52.9295 59.2763 52.81 59.6893 52.5984 60.0374C52.3936 60.3788 52.0932 60.6416 51.6973 60.8259C51.3082 61.0102 50.8235 61.1024 50.2432 61.1024ZM50.2432 59.8531C50.5504 59.8531 50.7723 59.761 50.9088 59.5766C51.0522 59.3923 51.1341 59.1158 51.1546 58.7472C51.1614 58.6448 51.1648 58.5083 51.1648 58.3376C51.1648 58.1669 51.1614 58.0304 51.1546 57.928C51.1341 57.5662 51.0522 57.2931 50.9088 57.1088C50.7723 56.9177 50.5504 56.8221 50.2432 56.8221C49.9428 56.8221 49.721 56.9177 49.5776 57.1088C49.4342 57.2931 49.3557 57.5662 49.3421 57.928C49.3353 58.0304 49.3318 58.1669 49.3318 58.3376C49.3318 58.5083 49.3353 58.6448 49.3421 58.7472C49.3557 59.1158 49.4342 59.3923 49.5776 59.5766C49.721 59.761 49.9428 59.8531 50.2432 59.8531ZM54.2302 61C54.1551 61 54.0936 60.9761 54.0458 60.9283C53.9981 60.8805 53.9742 60.8191 53.9742 60.744V55.9312C53.9742 55.8629 53.9981 55.8049 54.0458 55.7571C54.0936 55.7025 54.1551 55.6752 54.2302 55.6752H55.4078C55.4829 55.6752 55.5443 55.7025 55.5921 55.7571C55.6399 55.8049 55.6638 55.8629 55.6638 55.9312V56.3408C55.8481 56.1292 56.0665 55.9653 56.3191 55.8493C56.5785 55.7332 56.8687 55.6752 57.1895 55.6752H57.6401C57.7083 55.6752 57.7664 55.6991 57.8142 55.7469C57.8688 55.7947 57.8961 55.8561 57.8961 55.9312V56.9859C57.8961 57.0542 57.8688 57.1156 57.8142 57.1702C57.7664 57.218 57.7083 57.2419 57.6401 57.2419H56.6468C56.3669 57.2419 56.1485 57.3204 55.9914 57.4774C55.8413 57.6276 55.7662 57.8427 55.7662 58.1226V60.744C55.7662 60.8191 55.7389 60.8805 55.6842 60.9283C55.6365 60.9761 55.575 61 55.4999 61H54.2302ZM61.348 61C60.9111 61 60.5322 60.9317 60.2114 60.7952C59.8973 60.6518 59.655 60.4334 59.4843 60.1398C59.3137 59.8395 59.2283 59.4538 59.2283 58.9827V57.0166H58.4296C58.3545 57.0166 58.2897 56.9927 58.235 56.945C58.1873 56.8972 58.1634 56.8357 58.1634 56.7606V55.9312C58.1634 55.8561 58.1873 55.7947 58.235 55.7469C58.2897 55.6991 58.3545 55.6752 58.4296 55.6752H59.2283V53.9856C59.2283 53.9105 59.2522 53.8491 59.3 53.8013C59.3546 53.7535 59.4161 53.7296 59.4843 53.7296H60.6722C60.7473 53.7296 60.8087 53.7535 60.8565 53.8013C60.9043 53.8491 60.9282 53.9105 60.9282 53.9856V55.6752H62.2082C62.2833 55.6752 62.3447 55.6991 62.3925 55.7469C62.4403 55.7947 62.4642 55.8561 62.4642 55.9312V56.7606C62.4642 56.8357 62.4403 56.8972 62.3925 56.945C62.3447 56.9927 62.2833 57.0166 62.2082 57.0166H60.9282V58.8394C60.9282 59.0715 60.9725 59.2558 61.0613 59.3923C61.15 59.5289 61.3002 59.5971 61.5118 59.5971H62.3003C62.3754 59.5971 62.4369 59.621 62.4846 59.6688C62.5324 59.7166 62.5563 59.778 62.5563 59.8531V60.744C62.5563 60.8191 62.5324 60.8805 62.4846 60.9283C62.4369 60.9761 62.3754 61 62.3003 61H61.348Z" fill="#E5E5E5"/>
</g>
<defs>
<filter id="filter0_d_603_1091" x="0" y="0" width="80" height="80" filterUnits="userSpaceOnUse" color-interpolation-filters="sRGB">
<feFlood flood-opacity="0" result="BackgroundImageFix"/>
<feColorMatrix in="SourceAlpha" type="matrix" values="0 0 0 0 0 0 0 0 0 0 0 0 0 0 0 0 0 0 127 0" result="hardAlpha"/>
<feOffset dy="2"/>
<feGaussianBlur stdDeviation="4"/>
<feColorMatrix type="matrix" values="0 0 0 0 0 0 0 0 0 0 0 0 0 0 0 0 0 0 0.75 0"/>
<feBlend mode="normal" in2="BackgroundImageFix" result="effect1_dropShadow_603_1091"/>
<feBlend mode="normal" in="SourceGraphic" in2="effect1_dropShadow_603_1091" result="shape"/>
</filter>
<clipPath id="clip0_603_1091">
<rect width="25.6" height="32" fill="white" transform="translate(27 11)"/>
</clipPath>
</defs>
</svg>
