<svg width="80" height="80" viewBox="0 0 80 80" fill="none" xmlns="http://www.w3.org/2000/svg">
<g filter="url(#filter0_d_601_5218)">
<rect x="8" y="6" width="64" height="64" rx="5" fill="#212529"/>
<path d="M26 23.1333C26 19.5863 26 17.8128 26.6903 16.4581C27.2975 15.2664 28.2664 14.2975 29.4581 13.6903C30.8128 13 32.5863 13 36.1333 13H43.8667C47.4137 13 49.1872 13 50.5419 13.6903C51.7336 14.2975 52.7025 15.2664 53.3097 16.4581C54 17.8128 54 19.5863 54 23.1333V30.8667C54 34.4137 54 36.1872 53.3097 37.5419C52.7025 38.7336 51.7336 39.7025 50.5419 40.3097C49.1872 41 47.4137 41 43.8667 41H36.1333C32.5863 41 30.8128 41 29.4581 40.3097C28.2664 39.7025 27.2975 38.7336 26.6903 37.5419C26 36.1872 26 34.4137 26 30.8667V23.1333Z" fill="#001E36"/>
<path d="M32 33.5162V21.2034C32 21.1197 32.035 21.0718 32.1167 21.0718C33.3223 21.0718 34.5274 21 35.7333 21C37.6902 21 39.809 21.6691 40.5517 23.7162C40.7267 24.2188 40.82 24.7333 40.82 25.2718C40.82 26.3009 40.5867 27.1504 40.12 27.8205C38.8164 29.6923 36.557 29.6632 34.5317 29.6632V33.5043C34.5475 33.618 34.4506 33.6718 34.3567 33.6718H32.14C32.0467 33.6718 32 33.6239 32 33.5162ZM34.5433 23.3812V27.4017C35.3464 27.4605 36.1867 27.4669 36.9583 27.2103C37.8102 26.9645 38.2767 26.2272 38.2767 25.3436C38.3003 24.5907 37.8901 23.8683 37.1917 23.5966C36.4294 23.2796 35.3662 23.2606 34.5433 23.3812Z" fill="#31A8FF"/>
<path d="M48.0968 26.6075C47.7438 26.4214 47.3678 26.2853 46.9791 26.2029C46.4797 26.0854 44.5099 25.6738 44.5091 26.7038C44.5266 27.2788 45.4394 27.5605 45.8427 27.7248C47.2586 28.2109 48.8608 29.0798 48.8293 30.8265C48.8726 33.0009 46.7658 33.8702 44.9599 33.8704C44.0198 33.8801 43.0404 33.7345 42.18 33.3309C42.0978 33.2874 42.045 33.1945 42.0485 33.0997V31.0191C42.0392 30.9357 42.1288 30.8628 42.1988 30.9228C43.0418 31.4326 44.041 31.6802 45.0163 31.6934C45.4468 31.6934 46.3 31.6517 46.2936 31.0191C46.2936 30.4121 45.2729 30.133 44.866 29.9788C44.2762 29.7683 43.717 29.4766 43.2037 29.1119C42.4863 28.6002 42.0363 27.7798 42.0485 26.8772C42.0443 24.8298 43.9836 23.9108 45.7301 23.9104C46.5465 23.9036 47.4233 23.9641 48.1833 24.2957C48.2926 24.3278 48.3152 24.443 48.3148 24.5461V26.4919C48.3217 26.6127 48.1876 26.6538 48.0968 26.6075Z" fill="#31A8FF"/>
<path d="M18.2781 60C18.218 60 18.1689 59.9809 18.1306 59.9427C18.0924 59.9045 18.0733 59.8553 18.0733 59.7953V54.4718C18.0733 54.4117 18.0924 54.3625 18.1306 54.3243C18.1689 54.2861 18.218 54.267 18.2781 54.267H20.5713C21.0244 54.267 21.4176 54.338 21.7506 54.4799C22.0891 54.6164 22.3512 54.8239 22.5368 55.1024C22.7279 55.3808 22.8235 55.733 22.8235 56.1589C22.8235 56.5793 22.7279 56.926 22.5368 57.199C22.3512 57.472 22.0891 57.674 21.7506 57.8051C21.4176 57.9361 21.0244 58.0016 20.5713 58.0016H19.5966V59.7953C19.5966 59.8553 19.5748 59.9045 19.5311 59.9427C19.4929 59.9809 19.4438 60 19.3837 60H18.2781ZM19.5721 56.8714H20.5303C20.7651 56.8714 20.9507 56.8114 21.0872 56.6912C21.2292 56.5711 21.3002 56.3882 21.3002 56.1425C21.3002 55.935 21.2401 55.7603 21.12 55.6184C20.9999 55.4764 20.8033 55.4054 20.5303 55.4054H19.5721V56.8714ZM23.7226 60C23.6625 60 23.6134 59.9809 23.5752 59.9427C23.537 59.9045 23.5179 59.8553 23.5179 59.7953V54.3898C23.5179 54.3298 23.537 54.2807 23.5752 54.2424C23.6134 54.2042 23.6625 54.1851 23.7226 54.1851H24.7709C24.831 54.1851 24.8801 54.2042 24.9183 54.2424C24.9566 54.2807 24.9757 54.3298 24.9757 54.3898V56.2162C25.1231 56.047 25.3033 55.9132 25.5162 55.8149C25.7346 55.7112 25.9858 55.6593 26.2697 55.6593C26.5864 55.6593 26.8676 55.7303 27.1133 55.8722C27.3644 56.0142 27.561 56.2244 27.7029 56.5029C27.8449 56.7759 27.9159 57.1117 27.9159 57.5102V59.7953C27.9159 59.8553 27.8968 59.9045 27.8586 59.9427C27.8203 59.9809 27.7712 60 27.7111 60H26.6546C26.6 60 26.5509 59.9809 26.5072 59.9427C26.469 59.9045 26.4499 59.8553 26.4499 59.7953V57.5594C26.4499 57.3028 26.3871 57.1062 26.2615 56.9697C26.1414 56.8277 25.9612 56.7568 25.721 56.7568C25.4971 56.7568 25.3169 56.8277 25.1804 56.9697C25.0439 57.1062 24.9757 57.3028 24.9757 57.5594V59.7953C24.9757 59.8553 24.9566 59.9045 24.9183 59.9427C24.8801 59.9809 24.831 60 24.7709 60H23.7226ZM30.8593 60.0819C30.4007 60.0819 30.013 60.0082 29.6963 59.8608C29.3851 59.7133 29.1449 59.5031 28.9756 59.2301C28.8118 58.9517 28.719 58.6214 28.6971 58.2392C28.6917 58.13 28.6889 58.0071 28.6889 57.8706C28.6889 57.7286 28.6917 57.6058 28.6971 57.5021C28.719 57.1144 28.8173 56.7841 28.992 56.5111C29.1667 56.2381 29.4097 56.0279 29.7209 55.8804C30.0376 55.733 30.417 55.6593 30.8593 55.6593C31.307 55.6593 31.6865 55.733 31.9977 55.8804C32.3144 56.0279 32.5601 56.2381 32.7348 56.5111C32.9095 56.7841 33.0078 57.1144 33.0296 57.5021C33.0351 57.6058 33.0378 57.7286 33.0378 57.8706C33.0378 58.0071 33.0351 58.13 33.0296 58.2392C33.0078 58.6214 32.9123 58.9517 32.743 59.2301C32.5792 59.5031 32.339 59.7133 32.0223 59.8608C31.7111 60.0082 31.3234 60.0819 30.8593 60.0819ZM30.8593 59.0827C31.105 59.0827 31.2824 59.009 31.3916 58.8616C31.5063 58.7142 31.5718 58.493 31.5882 58.1982C31.5937 58.1163 31.5964 58.0071 31.5964 57.8706C31.5964 57.7341 31.5937 57.6249 31.5882 57.543C31.5718 57.2536 31.5063 57.0352 31.3916 56.8878C31.2824 56.7349 31.105 56.6585 30.8593 56.6585C30.6191 56.6585 30.4416 56.7349 30.3269 56.8878C30.2123 57.0352 30.1495 57.2536 30.1386 57.543C30.1331 57.6249 30.1304 57.7341 30.1304 57.8706C30.1304 58.0071 30.1331 58.1163 30.1386 58.1982C30.1495 58.493 30.2123 58.7142 30.3269 58.8616C30.4416 59.009 30.6191 59.0827 30.8593 59.0827ZM36.0059 60C35.6564 60 35.3534 59.9454 35.0968 59.8362C34.8456 59.7215 34.6518 59.5468 34.5153 59.312C34.3788 59.0718 34.3105 58.7633 34.3105 58.3866V56.8141H33.6717C33.6117 56.8141 33.5598 56.795 33.5161 56.7568C33.4779 56.7185 33.4588 56.6694 33.4588 56.6093V55.9459C33.4588 55.8859 33.4779 55.8367 33.5161 55.7985C33.5598 55.7603 33.6117 55.7412 33.6717 55.7412H34.3105V54.3898C34.3105 54.3298 34.3297 54.2807 34.3679 54.2424C34.4116 54.2042 34.4607 54.1851 34.5153 54.1851H35.4653C35.5254 54.1851 35.5745 54.2042 35.6128 54.2424C35.651 54.2807 35.6701 54.3298 35.6701 54.3898V55.7412H36.6938C36.7539 55.7412 36.803 55.7603 36.8413 55.7985C36.8795 55.8367 36.8986 55.8859 36.8986 55.9459V56.6093C36.8986 56.6694 36.8795 56.7185 36.8413 56.7568C36.803 56.795 36.7539 56.8141 36.6938 56.8141H35.6701V58.2719C35.6701 58.4576 35.7056 58.605 35.7766 58.7142C35.8475 58.8234 35.9677 58.878 36.1369 58.878H36.7675C36.8276 58.878 36.8767 58.8971 36.915 58.9353C36.9532 58.9735 36.9723 59.0227 36.9723 59.0827V59.7953C36.9723 59.8553 36.9532 59.9045 36.915 59.9427C36.8767 59.9809 36.8276 60 36.7675 60H36.0059ZM39.6651 60.0819C39.2065 60.0819 38.8188 60.0082 38.5022 59.8608C38.1909 59.7133 37.9507 59.5031 37.7814 59.2301C37.6176 58.9517 37.5248 58.6214 37.503 58.2392C37.4975 58.13 37.4948 58.0071 37.4948 57.8706C37.4948 57.7286 37.4975 57.6058 37.503 57.5021C37.5248 57.1144 37.6231 56.7841 37.7978 56.5111C37.9725 56.2381 38.2155 56.0279 38.5267 55.8804C38.8434 55.733 39.2229 55.6593 39.6651 55.6593C40.1129 55.6593 40.4923 55.733 40.8036 55.8804C41.1202 56.0279 41.3659 56.2381 41.5407 56.5111C41.7154 56.7841 41.8137 57.1144 41.8355 57.5021C41.841 57.6058 41.8437 57.7286 41.8437 57.8706C41.8437 58.0071 41.841 58.13 41.8355 58.2392C41.8137 58.6214 41.7181 58.9517 41.5488 59.2301C41.385 59.5031 41.1448 59.7133 40.8281 59.8608C40.5169 60.0082 40.1292 60.0819 39.6651 60.0819ZM39.6651 59.0827C39.9108 59.0827 40.0883 59.009 40.1975 58.8616C40.3122 58.7142 40.3777 58.493 40.3941 58.1982C40.3995 58.1163 40.4022 58.0071 40.4022 57.8706C40.4022 57.7341 40.3995 57.6249 40.3941 57.543C40.3777 57.2536 40.3122 57.0352 40.1975 56.8878C40.0883 56.7349 39.9108 56.6585 39.6651 56.6585C39.4249 56.6585 39.2475 56.7349 39.1328 56.8878C39.0181 57.0352 38.9553 57.2536 38.9444 57.543C38.939 57.6249 38.9362 57.7341 38.9362 57.8706C38.9362 58.0071 38.939 58.1163 38.9444 58.1982C38.9553 58.493 39.0181 58.7142 39.1328 58.8616C39.2475 59.009 39.4249 59.0827 39.6651 59.0827ZM44.4018 60.0819C44.0469 60.0819 43.7439 60.0437 43.4928 59.9672C43.2471 59.8853 43.045 59.7871 42.8867 59.6724C42.7338 59.5577 42.6192 59.4403 42.5427 59.3202C42.4663 59.1946 42.4253 59.0882 42.4199 59.0008C42.4144 58.9408 42.4335 58.8916 42.4772 58.8534C42.5209 58.8097 42.5673 58.7879 42.6164 58.7879H43.5501C43.5665 58.7879 43.5801 58.7906 43.591 58.7961C43.602 58.8015 43.6183 58.8124 43.6402 58.8288C43.7112 58.867 43.7821 58.9162 43.8531 58.9763C43.9241 59.0309 44.006 59.08 44.0988 59.1237C44.1916 59.1673 44.3036 59.1892 44.4346 59.1892C44.5875 59.1892 44.7158 59.1592 44.8195 59.0991C44.9233 59.039 44.9751 58.9489 44.9751 58.8288C44.9751 58.7415 44.9506 58.6705 44.9014 58.6159C44.8523 58.5558 44.7513 58.4985 44.5984 58.4439C44.451 58.3893 44.2271 58.3347 43.9268 58.2801C43.6429 58.2146 43.3945 58.1299 43.1815 58.0262C42.9686 57.917 42.8048 57.7778 42.6901 57.6085C42.5755 57.4338 42.5181 57.2236 42.5181 56.9779C42.5181 56.7595 42.5891 56.5493 42.7311 56.3473C42.873 56.1452 43.0805 55.9814 43.3535 55.8559C43.6265 55.7248 43.9623 55.6593 44.3609 55.6593C44.6776 55.6593 44.9506 55.6975 45.1799 55.774C45.4147 55.8449 45.6112 55.9378 45.7696 56.0524C45.9334 56.1671 46.0562 56.2845 46.1381 56.4046C46.22 56.5247 46.2637 56.6339 46.2692 56.7322C46.2746 56.7868 46.2582 56.8359 46.22 56.8796C46.1818 56.9178 46.1381 56.9369 46.089 56.9369H45.2372C45.2154 56.9369 45.1935 56.9342 45.1717 56.9287C45.1499 56.9178 45.1308 56.9069 45.1144 56.896C45.0489 56.8632 44.9833 56.8196 44.9178 56.765C44.8523 56.7103 44.7759 56.6612 44.6885 56.6175C44.6011 56.5738 44.4919 56.552 44.3609 56.552C44.2135 56.552 44.0988 56.5848 44.0169 56.6503C43.935 56.7158 43.8941 56.8004 43.8941 56.9042C43.8941 56.9752 43.9159 57.0407 43.9596 57.1007C44.0087 57.1608 44.1043 57.2154 44.2462 57.2645C44.3937 57.3137 44.6202 57.3683 44.926 57.4283C45.3027 57.4884 45.603 57.5867 45.8269 57.7232C46.0508 57.8542 46.2091 58.0098 46.3019 58.19C46.3947 58.3647 46.4412 58.5504 46.4412 58.7469C46.4412 59.009 46.362 59.2411 46.2036 59.4431C46.0508 59.6451 45.8214 59.8034 45.5157 59.9181C45.2099 60.0273 44.8386 60.0819 44.4018 60.0819ZM47.3808 60C47.3208 60 47.2716 59.9809 47.2334 59.9427C47.1952 59.9045 47.1761 59.8553 47.1761 59.7953V54.3898C47.1761 54.3298 47.1952 54.2807 47.2334 54.2424C47.2716 54.2042 47.3208 54.1851 47.3808 54.1851H48.4291C48.4892 54.1851 48.5383 54.2042 48.5766 54.2424C48.6148 54.2807 48.6339 54.3298 48.6339 54.3898V56.2162C48.7813 56.047 48.9615 55.9132 49.1744 55.8149C49.3928 55.7112 49.644 55.6593 49.9279 55.6593C50.2446 55.6593 50.5258 55.7303 50.7715 55.8722C51.0226 56.0142 51.2192 56.2244 51.3612 56.5029C51.5031 56.7759 51.5741 57.1117 51.5741 57.5102V59.7953C51.5741 59.8553 51.555 59.9045 51.5168 59.9427C51.4786 59.9809 51.4294 60 51.3694 60H50.3128C50.2582 60 50.2091 59.9809 50.1654 59.9427C50.1272 59.9045 50.1081 59.8553 50.1081 59.7953V57.5594C50.1081 57.3028 50.0453 57.1062 49.9197 56.9697C49.7996 56.8277 49.6194 56.7568 49.3792 56.7568C49.1553 56.7568 48.9751 56.8277 48.8386 56.9697C48.7021 57.1062 48.6339 57.3028 48.6339 57.5594V59.7953C48.6339 59.8553 48.6148 59.9045 48.5766 59.9427C48.5383 59.9809 48.4892 60 48.4291 60H47.3808ZM54.5175 60.0819C54.0589 60.0819 53.6712 60.0082 53.3545 59.8608C53.0433 59.7133 52.8031 59.5031 52.6338 59.2301C52.47 58.9517 52.3772 58.6214 52.3554 58.2392C52.3499 58.13 52.3472 58.0071 52.3472 57.8706C52.3472 57.7286 52.3499 57.6058 52.3554 57.5021C52.3772 57.1144 52.4755 56.7841 52.6502 56.5111C52.8249 56.2381 53.0679 56.0279 53.3791 55.8804C53.6958 55.733 54.0753 55.6593 54.5175 55.6593C54.9652 55.6593 55.3447 55.733 55.6559 55.8804C55.9726 56.0279 56.2183 56.2381 56.393 56.5111C56.5677 56.7841 56.666 57.1144 56.6879 57.5021C56.6933 57.6058 56.6961 57.7286 56.6961 57.8706C56.6961 58.0071 56.6933 58.13 56.6879 58.2392C56.666 58.6214 56.5705 58.9517 56.4012 59.2301C56.2374 59.5031 55.9972 59.7133 55.6805 59.8608C55.3693 60.0082 54.9816 60.0819 54.5175 60.0819ZM54.5175 59.0827C54.7632 59.0827 54.9407 59.009 55.0499 58.8616C55.1645 58.7142 55.23 58.493 55.2464 58.1982C55.2519 58.1163 55.2546 58.0071 55.2546 57.8706C55.2546 57.7341 55.2519 57.6249 55.2464 57.543C55.23 57.2536 55.1645 57.0352 55.0499 56.8878C54.9407 56.7349 54.7632 56.6585 54.5175 56.6585C54.2773 56.6585 54.0998 56.7349 53.9852 56.8878C53.8705 57.0352 53.8077 57.2536 53.7968 57.543C53.7913 57.6249 53.7886 57.7341 53.7886 57.8706C53.7886 58.0071 53.7913 58.1163 53.7968 58.1982C53.8077 58.493 53.8705 58.7142 53.9852 58.8616C54.0998 59.009 54.2773 59.0827 54.5175 59.0827ZM57.7063 61.5561C57.6462 61.5561 57.5971 61.537 57.5589 61.4988C57.5207 61.4606 57.5016 61.4114 57.5016 61.3513V55.9459C57.5016 55.8859 57.5207 55.8367 57.5589 55.7985C57.5971 55.7603 57.6462 55.7412 57.7063 55.7412H58.6318C58.6864 55.7412 58.7328 55.7603 58.771 55.7985C58.8147 55.8367 58.8365 55.8859 58.8365 55.9459V56.249C58.9621 56.0797 59.1286 55.9405 59.3361 55.8313C59.5436 55.7166 59.8002 55.6593 60.106 55.6593C60.379 55.6593 60.6192 55.703 60.8267 55.7903C61.0342 55.8722 61.2116 55.9951 61.359 56.1589C61.5065 56.3227 61.6211 56.522 61.703 56.7568C61.7904 56.9915 61.8395 57.2618 61.8504 57.5676C61.8559 57.6768 61.8586 57.7778 61.8586 57.8706C61.8586 57.9634 61.8559 58.0644 61.8504 58.1736C61.8395 58.4685 61.7931 58.7333 61.7112 58.9681C61.6293 59.2028 61.5147 59.4021 61.3672 59.5659C61.2198 59.7297 61.0396 59.858 60.8267 59.9509C60.6192 60.0382 60.379 60.0819 60.106 60.0819C59.8384 60.0819 59.6037 60.0355 59.4016 59.9427C59.2051 59.8444 59.0413 59.7079 58.9102 59.5332V61.3513C58.9102 61.4114 58.8911 61.4606 58.8529 61.4988C58.8147 61.537 58.7655 61.5561 58.7055 61.5561H57.7063ZM59.6637 58.9844C59.8494 58.9844 59.994 58.9462 60.0978 58.8698C60.2015 58.7933 60.2752 58.6896 60.3189 58.5586C60.3681 58.4275 60.3981 58.2828 60.409 58.1245C60.4199 57.9552 60.4199 57.786 60.409 57.6167C60.3981 57.4584 60.3681 57.3137 60.3189 57.1826C60.2752 57.0516 60.2015 56.9479 60.0978 56.8714C59.994 56.795 59.8494 56.7568 59.6637 56.7568C59.4835 56.7568 59.3388 56.7977 59.2296 56.8796C59.1204 56.9561 59.0413 57.0571 58.9921 57.1826C58.943 57.3082 58.9157 57.4447 58.9102 57.5921C58.9048 57.6959 58.902 57.7969 58.902 57.8952C58.902 57.9935 58.9048 58.0972 58.9102 58.2064C58.9157 58.3429 58.9457 58.4712 59.0003 58.5913C59.0549 58.706 59.1368 58.8015 59.246 58.878C59.3552 58.9489 59.4945 58.9844 59.6637 58.9844Z" fill="#E5E5E5"/>
</g>
<defs>
<filter id="filter0_d_601_5218" x="0" y="0" width="80" height="80" filterUnits="userSpaceOnUse" color-interpolation-filters="sRGB">
<feFlood flood-opacity="0" result="BackgroundImageFix"/>
<feColorMatrix in="SourceAlpha" type="matrix" values="0 0 0 0 0 0 0 0 0 0 0 0 0 0 0 0 0 0 127 0" result="hardAlpha"/>
<feOffset dy="2"/>
<feGaussianBlur stdDeviation="4"/>
<feColorMatrix type="matrix" values="0 0 0 0 0 0 0 0 0 0 0 0 0 0 0 0 0 0 0.75 0"/>
<feBlend mode="normal" in2="BackgroundImageFix" result="effect1_dropShadow_601_5218"/>
<feBlend mode="normal" in="SourceGraphic" in2="effect1_dropShadow_601_5218" result="shape"/>
</filter>
</defs>
</svg>
