<svg width="80" height="80" viewBox="0 0 80 80" fill="none" xmlns="http://www.w3.org/2000/svg">
<g filter="url(#filter0_d_602_353)">
<rect x="8" y="6" width="64" height="64" rx="5" fill="#212529"/>
<path d="M54 21.75H45.251V13H54V21.75Z" fill="#F9AD00"/>
<path d="M44.374 21.75H35.624V13H44.374V21.75Z" fill="#F9AD00"/>
<path d="M34.749 21.75H26V13H34.749V21.75Z" fill="#F9AD00"/>
<path d="M54 31.375H45.251V22.625H54V31.375Z" fill="#F9AD00"/>
<path d="M44.374 31.375H35.624V22.625H44.374V31.375Z" fill="#4E4E4E"/>
<path d="M44.374 41H35.624V32.25H44.374V41Z" fill="#4E4E4E"/>
<path d="M54 41H45.251V32.25H54V41Z" fill="#4E4E4E"/>
<path d="M34.749 41H26V32.25H34.749V41Z" fill="#4E4E4E"/>
<path d="M25.9728 61C25.8977 61 25.8363 60.9761 25.7885 60.9283C25.7407 60.8805 25.7168 60.8191 25.7168 60.744V54.088C25.7168 54.0129 25.7407 53.9515 25.7885 53.9037C25.8363 53.8559 25.8977 53.832 25.9728 53.832H28.84C29.4066 53.832 29.8981 53.9207 30.3146 54.0982C30.7378 54.2689 31.0655 54.5283 31.2976 54.8765C31.5365 55.2246 31.656 55.665 31.656 56.1974C31.656 56.7231 31.5365 57.1566 31.2976 57.4979C31.0655 57.8393 30.7378 58.0918 30.3146 58.2557C29.8981 58.4195 29.4066 58.5014 28.84 58.5014H27.6214V60.744C27.6214 60.8191 27.5941 60.8805 27.5395 60.9283C27.4917 60.9761 27.4303 61 27.3552 61H25.9728ZM27.5907 57.0883H28.7888C29.0823 57.0883 29.3145 57.0132 29.4851 56.863C29.6626 56.7129 29.7514 56.4842 29.7514 56.177C29.7514 55.9175 29.6763 55.6991 29.5261 55.5216C29.3759 55.3441 29.1301 55.2554 28.7888 55.2554H27.5907V57.0883ZM32.7802 61C32.7051 61 32.6436 60.9761 32.5958 60.9283C32.5481 60.8805 32.5242 60.8191 32.5242 60.744V55.9312C32.5242 55.8561 32.5481 55.7947 32.5958 55.7469C32.6436 55.6991 32.7051 55.6752 32.7802 55.6752H33.9578C34.0329 55.6752 34.0943 55.6991 34.1421 55.7469C34.1899 55.7947 34.2138 55.8561 34.2138 55.9312V56.3203C34.3913 56.1087 34.6234 55.9312 34.9101 55.7878C35.1968 55.6445 35.5347 55.5728 35.9238 55.5728C36.3198 55.5728 36.6679 55.6615 36.9683 55.839C37.2755 56.0165 37.5145 56.2794 37.6851 56.6275C37.8626 56.9689 37.9514 57.3887 37.9514 57.887V60.744C37.9514 60.8191 37.9241 60.8805 37.8694 60.9283C37.8217 60.9761 37.7636 61 37.6954 61H36.4051C36.3369 61 36.2754 60.9761 36.2208 60.9283C36.173 60.8805 36.1491 60.8191 36.1491 60.744V57.9485C36.1491 57.6276 36.0706 57.3819 35.9136 57.2112C35.7634 57.0337 35.5381 56.945 35.2378 56.945C34.9579 56.945 34.7326 57.0337 34.5619 57.2112C34.3981 57.3819 34.3162 57.6276 34.3162 57.9485V60.744C34.3162 60.8191 34.2889 60.8805 34.2342 60.9283C34.1865 60.9761 34.1284 61 34.0602 61H32.7802ZM39.3502 62.9456C39.2751 62.9456 39.2136 62.9217 39.1658 62.8739C39.1181 62.8261 39.0942 62.7647 39.0942 62.6896V55.9312C39.0942 55.8561 39.1181 55.7947 39.1658 55.7469C39.2136 55.6991 39.2751 55.6752 39.3502 55.6752H40.5073C40.5755 55.6752 40.6336 55.6991 40.6814 55.7469C40.736 55.7947 40.7633 55.8561 40.7633 55.9312V56.3101C40.9203 56.0985 41.1285 55.9244 41.3879 55.7878C41.6473 55.6445 41.9682 55.5728 42.3505 55.5728C42.6918 55.5728 42.9922 55.6274 43.2516 55.7366C43.511 55.839 43.7329 55.9926 43.9172 56.1974C44.1015 56.4022 44.2449 56.6514 44.3473 56.945C44.4565 57.2385 44.5179 57.5764 44.5316 57.9587C44.5384 58.0953 44.5418 58.2215 44.5418 58.3376C44.5418 58.4537 44.5384 58.5799 44.5316 58.7165C44.5179 59.0851 44.4599 59.4162 44.3575 59.7098C44.2551 60.0033 44.1118 60.2525 43.9274 60.4573C43.7431 60.6621 43.5178 60.8225 43.2516 60.9386C42.9922 61.0478 42.6918 61.1024 42.3505 61.1024C42.016 61.1024 41.7224 61.0444 41.4698 60.9283C41.2241 60.8054 41.0193 60.6348 40.8554 60.4163V62.6896C40.8554 62.7647 40.8315 62.8261 40.7838 62.8739C40.736 62.9217 40.6745 62.9456 40.5994 62.9456H39.3502ZM41.7975 59.7302C42.0296 59.7302 42.2105 59.6825 42.3402 59.5869C42.4699 59.4913 42.5621 59.3616 42.6167 59.1978C42.6782 59.0339 42.7157 58.853 42.7294 58.655C42.743 58.4434 42.743 58.2318 42.7294 58.0202C42.7157 57.8222 42.6782 57.6413 42.6167 57.4774C42.5621 57.3136 42.4699 57.1839 42.3402 57.0883C42.2105 56.9927 42.0296 56.945 41.7975 56.945C41.5722 56.945 41.3913 56.9962 41.2548 57.0986C41.1183 57.1941 41.0193 57.3204 40.9578 57.4774C40.8964 57.6345 40.8623 57.8051 40.8554 57.9894C40.8486 58.1191 40.8452 58.2454 40.8452 58.3683C40.8452 58.4912 40.8486 58.6209 40.8554 58.7574C40.8623 58.9281 40.8998 59.0885 40.9681 59.2387C41.0363 59.3821 41.1387 59.5015 41.2753 59.5971C41.4118 59.6859 41.5859 59.7302 41.7975 59.7302ZM45.8102 61C45.7351 61 45.6736 60.9761 45.6258 60.9283C45.5781 60.8805 45.5542 60.8191 45.5542 60.744V55.9312C45.5542 55.8561 45.5781 55.7947 45.6258 55.7469C45.6736 55.6991 45.7351 55.6752 45.8102 55.6752H46.9263C47.0014 55.6752 47.0629 55.6991 47.1106 55.7469C47.1584 55.7947 47.1823 55.8561 47.1823 55.9312V56.2794C47.3189 56.095 47.51 55.9346 47.7558 55.7981C48.0015 55.6547 48.2917 55.5796 48.6262 55.5728C49.4112 55.5591 49.9505 55.8561 50.2441 56.4637C50.4011 56.2043 50.6264 55.9926 50.9199 55.8288C51.2135 55.6581 51.5343 55.5728 51.8825 55.5728C52.2375 55.5728 52.5549 55.6547 52.8348 55.8186C53.1215 55.9756 53.3502 56.2213 53.5209 56.5558C53.6915 56.8835 53.7769 57.3102 53.7769 57.8358V60.744C53.7769 60.8191 53.7496 60.8805 53.695 60.9283C53.6472 60.9761 53.5891 61 53.5209 61H52.333C52.2579 61 52.1931 60.9761 52.1385 60.9283C52.0907 60.8805 52.0668 60.8191 52.0668 60.744V57.9075C52.0668 57.6686 52.0327 57.4809 51.9644 57.3443C51.8961 57.201 51.804 57.0986 51.6879 57.0371C51.5719 56.9757 51.4387 56.945 51.2886 56.945C51.1657 56.945 51.0428 56.9757 50.9199 57.0371C50.8039 57.0986 50.7083 57.201 50.6332 57.3443C50.5649 57.4809 50.5308 57.6686 50.5308 57.9075V60.744C50.5308 60.8191 50.5069 60.8805 50.4591 60.9283C50.4113 60.9761 50.3499 61 50.2748 61H49.087C49.0119 61 48.9504 60.9761 48.9026 60.9283C48.8549 60.8805 48.831 60.8191 48.831 60.744V57.9075C48.831 57.6686 48.7934 57.4809 48.7183 57.3443C48.6432 57.201 48.5477 57.0986 48.4316 57.0371C48.3155 56.9757 48.1858 56.945 48.0425 56.945C47.9196 56.945 47.7967 56.9757 47.6738 57.0371C47.5578 57.0986 47.4622 57.201 47.3871 57.3443C47.3189 57.4809 47.2847 57.6652 47.2847 57.8973V60.744C47.2847 60.8191 47.2574 60.8805 47.2028 60.9283C47.155 60.9761 47.0936 61 47.0185 61H45.8102Z" fill="#E5E5E5"/>
</g>
<defs>
<filter id="filter0_d_602_353" x="0" y="0" width="80" height="80" filterUnits="userSpaceOnUse" color-interpolation-filters="sRGB">
<feFlood flood-opacity="0" result="BackgroundImageFix"/>
<feColorMatrix in="SourceAlpha" type="matrix" values="0 0 0 0 0 0 0 0 0 0 0 0 0 0 0 0 0 0 127 0" result="hardAlpha"/>
<feOffset dy="2"/>
<feGaussianBlur stdDeviation="4"/>
<feColorMatrix type="matrix" values="0 0 0 0 0 0 0 0 0 0 0 0 0 0 0 0 0 0 0.75 0"/>
<feBlend mode="normal" in2="BackgroundImageFix" result="effect1_dropShadow_602_353"/>
<feBlend mode="normal" in="SourceGraphic" in2="effect1_dropShadow_602_353" result="shape"/>
</filter>
</defs>
</svg>
