<svg width="80" height="80" viewBox="0 0 80 80" fill="none" xmlns="http://www.w3.org/2000/svg">
<g filter="url(#filter0_d_601_4662)">
<rect x="8" y="6" width="64" height="64" rx="5" fill="#212529"/>
<g clip-path="url(#clip0_601_4662)">
<path d="M55.8691 29.0316C56.9889 20.2652 50.7981 12.2507 42.0476 11.1309C33.2972 10.0111 25.2507 16.2019 24.1309 24.9524C23.0111 33.7028 29.2019 41.7333 37.9524 42.8691C46.7188 43.9889 54.7333 37.7981 55.8691 29.0316Z" fill="#FF6C37"/>
<path d="M45.775 21.2731L39.0243 28.0238L37.1206 26.1202C43.7594 19.4814 44.4153 20.0573 45.775 21.2731Z" fill="white"/>
<path d="M39.0242 28.1838C38.9762 28.1838 38.9442 28.1678 38.9122 28.1358L36.9926 26.2322C36.9286 26.1682 36.9286 26.0722 36.9926 26.0082C43.7434 19.2574 44.4472 19.8973 45.871 21.1771C45.903 21.2091 45.919 21.2411 45.919 21.2891C45.919 21.337 45.903 21.369 45.871 21.401L39.1202 28.1358C39.1042 28.1678 39.0562 28.1838 39.0242 28.1838ZM37.3445 26.1202L39.0242 27.7999L45.535 21.2891C44.3512 20.2332 43.5514 19.9133 37.3445 26.1202Z" fill="#FF6C37"/>
<path d="M40.9598 29.9596L39.1201 28.1199L45.8709 21.3691C47.6786 23.1928 44.9751 26.1523 40.9598 29.9596Z" fill="white"/>
<path d="M40.96 30.1194C40.912 30.1194 40.88 30.1034 40.848 30.0714L39.0083 28.2317C38.9763 28.1997 38.9763 28.1677 38.9763 28.1197C38.9763 28.0717 38.9923 28.0398 39.0243 28.0078L45.7751 21.257C45.8391 21.193 45.9351 21.193 45.9991 21.257C46.415 21.6409 46.6389 22.1848 46.6229 22.7447C46.5909 24.5204 44.5753 26.776 41.0879 30.0714C41.0399 30.1034 40.992 30.1194 40.96 30.1194ZM39.3443 28.1197C40.3681 29.1596 40.8 29.5755 40.96 29.7354C43.6475 27.1759 46.255 24.5524 46.271 22.7447C46.287 22.3288 46.127 21.9129 45.8551 21.5929L39.3443 28.1197Z" fill="#FF6C37"/>
<path d="M37.1525 26.1681L38.5123 27.5278C38.5443 27.5598 38.5443 27.5918 38.5123 27.6238C38.4963 27.6398 38.4963 27.6398 38.4803 27.6398L35.6648 28.2477C35.5208 28.2637 35.3928 28.1677 35.3609 28.0237C35.3449 27.9438 35.3768 27.8638 35.4248 27.8158L37.0565 26.1841C37.0885 26.1521 37.1365 26.1361 37.1525 26.1681Z" fill="white"/>
<path d="M35.6169 28.4078C35.3769 28.4078 35.2009 28.2158 35.2009 27.9759C35.2009 27.8639 35.2489 27.7519 35.3289 27.6719L36.9606 26.0402C37.0566 25.9602 37.1846 25.9602 37.2806 26.0402L38.6403 27.4C38.7363 27.48 38.7363 27.6239 38.6403 27.7199C38.6083 27.7519 38.5763 27.7679 38.5283 27.7839L35.7128 28.3918C35.6808 28.3918 35.6488 28.4078 35.6169 28.4078ZM37.1046 26.3442L35.5369 27.9119C35.5049 27.9439 35.4889 27.9919 35.5209 28.0399C35.5369 28.0878 35.5849 28.1038 35.6329 28.0878L38.2724 27.5119L37.1046 26.3442Z" fill="#FF6C37"/>
<path d="M49.3423 17.5298C48.3185 16.538 46.6708 16.57 45.679 17.6098C44.6872 18.6496 44.7192 20.2813 45.759 21.2731C46.6068 22.089 47.8866 22.233 48.8944 21.6251L47.0707 19.8014L49.3423 17.5298Z" fill="white"/>
<path d="M47.5506 22.1529C46.0309 22.1529 44.7991 20.9211 44.7991 19.4014C44.7991 17.8817 46.0309 16.6499 47.5506 16.6499C48.2545 16.6499 48.9423 16.9219 49.4542 17.4178C49.4862 17.4498 49.5022 17.4818 49.5022 17.5297C49.5022 17.5777 49.4862 17.6097 49.4542 17.6417L47.2946 19.8013L48.9903 21.497C49.0543 21.561 49.0543 21.657 48.9903 21.721C48.9743 21.737 48.9743 21.737 48.9583 21.753C48.5424 22.0089 48.0465 22.1529 47.5506 22.1529ZM47.5506 16.9858C46.2068 16.9858 45.119 18.0736 45.135 19.4174C45.135 20.7612 46.2228 21.849 47.5666 21.833C47.9345 21.833 48.3024 21.753 48.6384 21.577L46.9587 19.9133C46.9267 19.8813 46.9107 19.8493 46.9107 19.8013C46.9107 19.7533 46.9267 19.7213 46.9587 19.6894L49.1023 17.5457C48.6704 17.1778 48.1265 16.9858 47.5506 16.9858Z" fill="#FF6C37"/>
<path d="M49.3904 17.5776L49.3584 17.5457L47.0708 19.8012L48.8785 21.6089C49.0544 21.4969 49.2304 21.369 49.3744 21.225C50.3982 20.2172 50.3982 18.5855 49.3904 17.5776Z" fill="white"/>
<path d="M48.8945 21.7851C48.8465 21.7851 48.8145 21.7691 48.7826 21.7371L46.9589 19.9134C46.9269 19.8814 46.9109 19.8494 46.9109 19.8014C46.9109 19.7534 46.9269 19.7214 46.9589 19.6895L49.2305 17.4179C49.2945 17.3539 49.3904 17.3539 49.4544 17.4179L49.5024 17.4499C50.5742 18.5217 50.5742 20.2494 49.5184 21.3372C49.3584 21.4971 49.1825 21.6411 48.9905 21.7531C48.9425 21.7691 48.9105 21.7851 48.8945 21.7851ZM47.2948 19.8014L48.9105 21.4171C49.0385 21.3372 49.1665 21.2252 49.2625 21.1292C50.1743 20.2174 50.2223 18.7296 49.3424 17.7698L47.2948 19.8014Z" fill="#FF6C37"/>
<path d="M46.0469 21.5609C45.663 21.177 45.0391 21.177 44.6552 21.5609L38.6243 27.5918L39.6321 28.5996L46.0149 23.0006C46.4309 22.6487 46.4629 22.0248 46.1109 21.6089C46.0789 21.5929 46.0629 21.5769 46.0469 21.5609Z" fill="white"/>
<path d="M39.616 28.7597C39.568 28.7597 39.536 28.7437 39.5041 28.7117L38.4962 27.7038C38.4322 27.6399 38.4322 27.5439 38.4962 27.4799L44.5271 21.449C44.9751 21.0011 45.6949 21.0011 46.1429 21.449C46.5908 21.8969 46.5908 22.6168 46.1429 23.0647C46.1269 23.0807 46.1109 23.0967 46.0949 23.1127L39.712 28.7117C39.696 28.7437 39.664 28.7597 39.616 28.7597ZM38.8482 27.5919L39.632 28.3757L45.9029 22.8727C46.2548 22.5848 46.2868 22.0569 45.9989 21.7049C45.7109 21.353 45.183 21.321 44.8311 21.6089C44.8151 21.6249 44.7991 21.6409 44.7671 21.6569L38.8482 27.5919Z" fill="#FF6C37"/>
<path d="M34.0012 34.4547C33.9372 34.4867 33.9052 34.5507 33.9212 34.6147L34.1931 35.7664C34.2571 35.9264 34.1611 36.1184 33.9852 36.1664C33.8572 36.2144 33.7132 36.1664 33.6332 36.0704L31.8735 34.3267L37.6165 28.5837L39.6001 28.6157L40.9439 29.9595C40.624 30.2314 38.6883 32.1031 34.0012 34.4547Z" fill="white"/>
<path d="M33.8732 36.3264C33.7452 36.3264 33.6173 36.2784 33.5373 36.1824L31.7936 34.4387C31.7616 34.4067 31.7456 34.3748 31.7456 34.3268C31.7456 34.2788 31.7616 34.2468 31.7936 34.2148L37.5366 28.4718C37.5686 28.4398 37.6165 28.4238 37.6485 28.4238L39.6322 28.4558C39.6802 28.4558 39.7122 28.4718 39.7442 28.5038L41.0879 29.8476C41.1199 29.8796 41.1359 29.9276 41.1359 29.9755C41.1359 30.0235 41.1199 30.0555 41.0719 30.0875L40.9599 30.1835C39.2643 31.6712 36.9607 33.159 34.0972 34.5827L34.3691 35.7185C34.4171 35.9265 34.3211 36.1504 34.1292 36.2624C34.0332 36.3104 33.9532 36.3264 33.8732 36.3264ZM32.1135 34.3268L33.7612 35.9585C33.8092 36.0385 33.9052 36.0705 33.9852 36.0225C34.0652 35.9745 34.0972 35.8785 34.0492 35.7985L33.7772 34.6467C33.7452 34.5027 33.8092 34.3748 33.9372 34.3108C36.7687 32.887 39.0563 31.4153 40.736 29.9596L39.5522 28.7758L37.7125 28.7438L32.1135 34.3268Z" fill="#FF6C37"/>
<path d="M30.5137 35.7024L31.8895 34.3267L33.9371 36.3743L30.6737 36.1503C30.5297 36.1343 30.4337 36.0064 30.4497 35.8624C30.4497 35.7984 30.4657 35.7344 30.5137 35.7024Z" fill="white"/>
<path d="M33.9371 36.5182L30.6577 36.2942C30.4178 36.2782 30.2578 36.0703 30.2738 35.8303C30.2898 35.7343 30.3218 35.6384 30.4018 35.5744L31.7775 34.1986C31.8415 34.1346 31.9375 34.1346 32.0015 34.1986L34.0491 36.2463C34.0971 36.2942 34.1131 36.3582 34.0811 36.4222C34.0491 36.4862 34.0011 36.5182 33.9371 36.5182ZM31.8895 34.5506L30.6257 35.8143C30.5778 35.8463 30.5778 35.9263 30.6257 35.9583C30.6417 35.9743 30.6577 35.9903 30.6897 35.9903L33.5212 36.1823L31.8895 34.5506Z" fill="#FF6C37"/>
<path d="M37.0567 29.3197C36.9607 29.3197 36.8967 29.2397 36.8967 29.1597C36.8967 29.1117 36.9127 29.0797 36.9447 29.0477L38.4964 27.496C38.5604 27.432 38.6564 27.432 38.7204 27.496L39.7282 28.5038C39.7762 28.5518 39.7922 28.5998 39.7762 28.6638C39.7602 28.7118 39.7122 28.7598 39.6482 28.7758L37.0887 29.3197C37.0727 29.3197 37.0567 29.3197 37.0567 29.3197ZM38.6084 27.8319L37.5526 28.8877L39.2803 28.5198L38.6084 27.8319Z" fill="#FF6C37"/>
<path d="M39.6 28.6158L37.8403 28.9998C37.7124 29.0318 37.5844 28.9518 37.5524 28.8238C37.5364 28.7438 37.5524 28.6638 37.6164 28.5998L38.5922 27.624L39.6 28.6158Z" fill="white"/>
<path d="M37.8084 29.1597C37.5844 29.1597 37.4084 28.9837 37.4084 28.7598C37.4084 28.6478 37.4564 28.5518 37.5204 28.4718L38.4963 27.496C38.5602 27.432 38.6562 27.432 38.7202 27.496L39.728 28.5038C39.776 28.5518 39.792 28.5998 39.776 28.6638C39.76 28.7118 39.712 28.7598 39.648 28.7758L37.8884 29.1597C37.8564 29.1597 37.8244 29.1597 37.8084 29.1597ZM38.6082 27.8319L37.7444 28.6958C37.7124 28.7278 37.7124 28.7598 37.7284 28.7918C37.7444 28.8237 37.7764 28.8397 37.8244 28.8397L39.2961 28.5198L38.6082 27.8319Z" fill="#FF6C37"/>
<path d="M49.4062 19.1136C49.3742 19.0176 49.2623 18.9696 49.1663 19.0016C49.0703 19.0336 49.0223 19.1455 49.0543 19.2415C49.0543 19.2575 49.0703 19.2735 49.0703 19.2895C49.1663 19.4815 49.1343 19.7214 49.0063 19.8974C48.9423 19.9774 48.9583 20.0894 49.0223 20.1534C49.1023 20.2174 49.2143 20.2014 49.2783 20.1214C49.5182 19.8174 49.5662 19.4335 49.4062 19.1136Z" fill="#FF6C37"/>
</g>
<path d="M17.9728 61C17.8977 61 17.8363 60.9761 17.7885 60.9283C17.7407 60.8805 17.7168 60.8191 17.7168 60.744V54.088C17.7168 54.0129 17.7407 53.9515 17.7885 53.9037C17.8363 53.8559 17.8977 53.832 17.9728 53.832H20.84C21.4066 53.832 21.8981 53.9207 22.3146 54.0982C22.7378 54.2689 23.0655 54.5283 23.2976 54.8765C23.5365 55.2246 23.656 55.665 23.656 56.1974C23.656 56.7231 23.5365 57.1566 23.2976 57.4979C23.0655 57.8393 22.7378 58.0918 22.3146 58.2557C21.8981 58.4195 21.4066 58.5014 20.84 58.5014H19.6214V60.744C19.6214 60.8191 19.5941 60.8805 19.5395 60.9283C19.4917 60.9761 19.4303 61 19.3552 61H17.9728ZM19.5907 57.0883H20.7888C21.0823 57.0883 21.3145 57.0132 21.4851 56.863C21.6626 56.7129 21.7514 56.4842 21.7514 56.177C21.7514 55.9175 21.6763 55.6991 21.5261 55.5216C21.3759 55.3441 21.1301 55.2554 20.7888 55.2554H19.5907V57.0883ZM26.9832 61.1024C26.4098 61.1024 25.9251 61.0102 25.5291 60.8259C25.14 60.6416 24.8396 60.3788 24.628 60.0374C24.4232 59.6893 24.3071 59.2763 24.2798 58.7984C24.273 58.6619 24.2696 58.5083 24.2696 58.3376C24.2696 58.1601 24.273 58.0065 24.2798 57.8768C24.3071 57.3921 24.43 56.9791 24.6485 56.6378C24.8669 56.2964 25.1707 56.0336 25.5598 55.8493C25.9558 55.665 26.4302 55.5728 26.9832 55.5728C27.543 55.5728 28.0174 55.665 28.4066 55.8493C28.8025 56.0336 29.1097 56.2964 29.3282 56.6378C29.5466 56.9791 29.6695 57.3921 29.6968 57.8768C29.7036 58.0065 29.707 58.1601 29.707 58.3376C29.707 58.5083 29.7036 58.6619 29.6968 58.7984C29.6695 59.2763 29.55 59.6893 29.3384 60.0374C29.1336 60.3788 28.8332 60.6416 28.4373 60.8259C28.0482 61.0102 27.5635 61.1024 26.9832 61.1024ZM26.9832 59.8531C27.2904 59.8531 27.5123 59.761 27.6488 59.5766C27.7922 59.3923 27.8741 59.1158 27.8946 58.7472C27.9014 58.6448 27.9048 58.5083 27.9048 58.3376C27.9048 58.1669 27.9014 58.0304 27.8946 57.928C27.8741 57.5662 27.7922 57.2931 27.6488 57.1088C27.5123 56.9177 27.2904 56.8221 26.9832 56.8221C26.6828 56.8221 26.461 56.9177 26.3176 57.1088C26.1742 57.2931 26.0957 57.5662 26.0821 57.928C26.0753 58.0304 26.0718 58.1669 26.0718 58.3376C26.0718 58.5083 26.0753 58.6448 26.0821 58.7472C26.0957 59.1158 26.1742 59.3923 26.3176 59.5766C26.461 59.761 26.6828 59.8531 26.9832 59.8531ZM32.9055 61.1024C32.4618 61.1024 32.0829 61.0546 31.7689 60.959C31.4617 60.8566 31.2091 60.7338 31.0111 60.5904C30.82 60.447 30.6766 60.3003 30.581 60.1501C30.4855 59.9931 30.4343 59.8599 30.4274 59.7507C30.4206 59.6756 30.4445 59.6142 30.4991 59.5664C30.5537 59.5118 30.6118 59.4845 30.6732 59.4845H31.8406C31.861 59.4845 31.8781 59.4879 31.8918 59.4947C31.9054 59.5015 31.9259 59.5152 31.9532 59.5357C32.0419 59.5835 32.1307 59.6449 32.2194 59.72C32.3082 59.7883 32.4106 59.8497 32.5266 59.9043C32.6427 59.9589 32.7826 59.9862 32.9465 59.9862C33.1376 59.9862 33.2981 59.9487 33.4278 59.8736C33.5575 59.7985 33.6223 59.6859 33.6223 59.5357C33.6223 59.4265 33.5916 59.3377 33.5302 59.2694C33.4687 59.1943 33.3424 59.1227 33.1513 59.0544C32.967 58.9861 32.6871 58.9179 32.3116 58.8496C31.9566 58.7677 31.646 58.6619 31.3798 58.5322C31.1135 58.3956 30.9087 58.2215 30.7654 58.0099C30.622 57.7915 30.5503 57.5286 30.5503 57.2214C30.5503 56.9484 30.6391 56.6855 30.8166 56.433C30.9941 56.1804 31.2535 55.9756 31.5948 55.8186C31.9361 55.6547 32.356 55.5728 32.8543 55.5728C33.2503 55.5728 33.5916 55.6206 33.8783 55.7162C34.1719 55.8049 34.4176 55.921 34.6156 56.0643C34.8204 56.2077 34.974 56.3545 35.0764 56.5046C35.1788 56.6548 35.2334 56.7914 35.2402 56.9142C35.2471 56.9825 35.2266 57.0439 35.1788 57.0986C35.131 57.1463 35.0764 57.1702 35.015 57.1702H33.95C33.9227 57.1702 33.8954 57.1668 33.8681 57.16C33.8408 57.1463 33.8169 57.1327 33.7964 57.119C33.7145 57.0781 33.6326 57.0235 33.5506 56.9552C33.4687 56.8869 33.3731 56.8255 33.2639 56.7709C33.1547 56.7163 33.0182 56.689 32.8543 56.689C32.67 56.689 32.5266 56.7299 32.4242 56.8118C32.3218 56.8938 32.2706 56.9996 32.2706 57.1293C32.2706 57.218 32.2979 57.2999 32.3526 57.375C32.414 57.4501 32.5335 57.5184 32.711 57.5798C32.8953 57.6413 33.1786 57.7095 33.5609 57.7846C34.0319 57.8597 34.4074 57.9826 34.6873 58.1533C34.9672 58.3171 35.1651 58.5117 35.2812 58.737C35.3973 58.9554 35.4553 59.1875 35.4553 59.4333C35.4553 59.761 35.3563 60.0511 35.1583 60.3037C34.9672 60.5563 34.6805 60.7542 34.2982 60.8976C33.9159 61.0341 33.4517 61.1024 32.9055 61.1024ZM39.068 61C38.6311 61 38.2522 60.9317 37.9314 60.7952C37.6173 60.6518 37.375 60.4334 37.2043 60.1398C37.0337 59.8395 36.9483 59.4538 36.9483 58.9827V57.0166H36.1496C36.0745 57.0166 36.0097 56.9927 35.955 56.945C35.9073 56.8972 35.8834 56.8357 35.8834 56.7606V55.9312C35.8834 55.8561 35.9073 55.7947 35.955 55.7469C36.0097 55.6991 36.0745 55.6752 36.1496 55.6752H36.9483V53.9856C36.9483 53.9105 36.9722 53.8491 37.02 53.8013C37.0746 53.7535 37.1361 53.7296 37.2043 53.7296H38.3922C38.4673 53.7296 38.5287 53.7535 38.5765 53.8013C38.6243 53.8491 38.6482 53.9105 38.6482 53.9856V55.6752H39.9282C40.0033 55.6752 40.0647 55.6991 40.1125 55.7469C40.1603 55.7947 40.1842 55.8561 40.1842 55.9312V56.7606C40.1842 56.8357 40.1603 56.8972 40.1125 56.945C40.0647 56.9927 40.0033 57.0166 39.9282 57.0166H38.6482V58.8394C38.6482 59.0715 38.6925 59.2558 38.7813 59.3923C38.87 59.5289 39.0202 59.5971 39.2318 59.5971H40.0203C40.0954 59.5971 40.1569 59.621 40.2046 59.6688C40.2524 59.7166 40.2763 59.778 40.2763 59.8531V60.744C40.2763 60.8191 40.2524 60.8805 40.2046 60.9283C40.1569 60.9761 40.0954 61 40.0203 61H39.068ZM41.3802 61C41.3051 61 41.2436 60.9761 41.1958 60.9283C41.1481 60.8805 41.1242 60.8191 41.1242 60.744V55.9312C41.1242 55.8561 41.1481 55.7947 41.1958 55.7469C41.2436 55.6991 41.3051 55.6752 41.3802 55.6752H42.4963C42.5714 55.6752 42.6329 55.6991 42.6806 55.7469C42.7284 55.7947 42.7523 55.8561 42.7523 55.9312V56.2794C42.8889 56.095 43.08 55.9346 43.3258 55.7981C43.5715 55.6547 43.8617 55.5796 44.1962 55.5728C44.9812 55.5591 45.5205 55.8561 45.8141 56.4637C45.9711 56.2043 46.1964 55.9926 46.4899 55.8288C46.7835 55.6581 47.1043 55.5728 47.4525 55.5728C47.8075 55.5728 48.1249 55.6547 48.4048 55.8186C48.6915 55.9756 48.9202 56.2213 49.0909 56.5558C49.2615 56.8835 49.3469 57.3102 49.3469 57.8358V60.744C49.3469 60.8191 49.3196 60.8805 49.265 60.9283C49.2172 60.9761 49.1591 61 49.0909 61H47.903C47.8279 61 47.7631 60.9761 47.7085 60.9283C47.6607 60.8805 47.6368 60.8191 47.6368 60.744V57.9075C47.6368 57.6686 47.6027 57.4809 47.5344 57.3443C47.4661 57.201 47.374 57.0986 47.2579 57.0371C47.1419 56.9757 47.0087 56.945 46.8586 56.945C46.7357 56.945 46.6128 56.9757 46.4899 57.0371C46.3739 57.0986 46.2783 57.201 46.2032 57.3443C46.1349 57.4809 46.1008 57.6686 46.1008 57.9075V60.744C46.1008 60.8191 46.0769 60.8805 46.0291 60.9283C45.9813 60.9761 45.9199 61 45.8448 61H44.657C44.5819 61 44.5204 60.9761 44.4726 60.9283C44.4249 60.8805 44.401 60.8191 44.401 60.744V57.9075C44.401 57.6686 44.3634 57.4809 44.2883 57.3443C44.2132 57.201 44.1177 57.0986 44.0016 57.0371C43.8855 56.9757 43.7558 56.945 43.6125 56.945C43.4896 56.945 43.3667 56.9757 43.2438 57.0371C43.1278 57.0986 43.0322 57.201 42.9571 57.3443C42.8889 57.4809 42.8547 57.6652 42.8547 57.8973V60.744C42.8547 60.8191 42.8274 60.8805 42.7728 60.9283C42.725 60.9761 42.6636 61 42.5885 61H41.3802ZM52.0916 61.1024C51.723 61.1024 51.3919 61.0341 51.0983 60.8976C50.8116 60.7542 50.5829 60.5631 50.4122 60.3242C50.2416 60.0852 50.1562 59.8156 50.1562 59.5152C50.1562 59.0305 50.3542 58.6482 50.7502 58.3683C51.1461 58.0816 51.6718 57.887 52.3271 57.7846L53.6071 57.5901V57.4467C53.6071 57.201 53.5559 57.0132 53.4535 56.8835C53.3511 56.7538 53.1634 56.689 52.8903 56.689C52.6992 56.689 52.5422 56.7265 52.4193 56.8016C52.3032 56.8767 52.2111 56.9791 52.1428 57.1088C52.0814 57.1975 51.996 57.2419 51.8868 57.2419H50.7399C50.6648 57.2419 50.6068 57.2214 50.5658 57.1805C50.5249 57.1327 50.5078 57.0781 50.5146 57.0166C50.5146 56.8938 50.559 56.7538 50.6478 56.5968C50.7433 56.433 50.8867 56.2725 51.0778 56.1155C51.269 55.9585 51.5147 55.8288 51.8151 55.7264C52.1155 55.624 52.4773 55.5728 52.9006 55.5728C53.3443 55.5728 53.7232 55.624 54.0372 55.7264C54.3512 55.8288 54.6038 55.9722 54.795 56.1565C54.9929 56.3408 55.1397 56.5593 55.2353 56.8118C55.3309 57.0576 55.3786 57.3307 55.3786 57.631V60.744C55.3786 60.8191 55.3513 60.8805 55.2967 60.9283C55.2489 60.9761 55.1909 61 55.1226 61H53.9348C53.8597 61 53.7983 60.9761 53.7505 60.9283C53.7027 60.8805 53.6788 60.8191 53.6788 60.744V60.3856C53.5901 60.5153 53.4706 60.6348 53.3204 60.744C53.1702 60.8532 52.9927 60.9386 52.7879 61C52.5899 61.0683 52.3578 61.1024 52.0916 61.1024ZM52.5729 59.935C52.7709 59.935 52.9483 59.8941 53.1054 59.8122C53.2692 59.7234 53.3955 59.5903 53.4842 59.4128C53.5798 59.2285 53.6276 58.9998 53.6276 58.7267V58.5834L52.7572 58.737C52.4363 58.7916 52.2008 58.8769 52.0506 58.993C51.9073 59.1022 51.8356 59.2319 51.8356 59.3821C51.8356 59.4981 51.8697 59.5971 51.938 59.679C52.0063 59.761 52.095 59.8258 52.2042 59.8736C52.3135 59.9146 52.4363 59.935 52.5729 59.935ZM56.7902 61C56.7151 61 56.6536 60.9761 56.6058 60.9283C56.5581 60.8805 56.5342 60.8191 56.5342 60.744V55.9312C56.5342 55.8561 56.5581 55.7947 56.6058 55.7469C56.6536 55.6991 56.7151 55.6752 56.7902 55.6752H57.9678C58.0429 55.6752 58.1043 55.6991 58.1521 55.7469C58.1999 55.7947 58.2238 55.8561 58.2238 55.9312V56.3203C58.4013 56.1087 58.6334 55.9312 58.9201 55.7878C59.2068 55.6445 59.5447 55.5728 59.9338 55.5728C60.3298 55.5728 60.6779 55.6615 60.9783 55.839C61.2855 56.0165 61.5245 56.2794 61.6951 56.6275C61.8726 56.9689 61.9614 57.3887 61.9614 57.887V60.744C61.9614 60.8191 61.9341 60.8805 61.8794 60.9283C61.8317 60.9761 61.7736 61 61.7054 61H60.4151C60.3469 61 60.2854 60.9761 60.2308 60.9283C60.183 60.8805 60.1591 60.8191 60.1591 60.744V57.9485C60.1591 57.6276 60.0806 57.3819 59.9236 57.2112C59.7734 57.0337 59.5481 56.945 59.2478 56.945C58.9679 56.945 58.7426 57.0337 58.5719 57.2112C58.4081 57.3819 58.3262 57.6276 58.3262 57.9485V60.744C58.3262 60.8191 58.2989 60.8805 58.2442 60.9283C58.1965 60.9761 58.1384 61 58.0702 61H56.7902Z" fill="#E5E5E5"/>
</g>
<defs>
<filter id="filter0_d_601_4662" x="0" y="0" width="80" height="80" filterUnits="userSpaceOnUse" color-interpolation-filters="sRGB">
<feFlood flood-opacity="0" result="BackgroundImageFix"/>
<feColorMatrix in="SourceAlpha" type="matrix" values="0 0 0 0 0 0 0 0 0 0 0 0 0 0 0 0 0 0 127 0" result="hardAlpha"/>
<feOffset dy="2"/>
<feGaussianBlur stdDeviation="4"/>
<feColorMatrix type="matrix" values="0 0 0 0 0 0 0 0 0 0 0 0 0 0 0 0 0 0 0.75 0"/>
<feBlend mode="normal" in2="BackgroundImageFix" result="effect1_dropShadow_601_4662"/>
<feBlend mode="normal" in="SourceGraphic" in2="effect1_dropShadow_601_4662" result="shape"/>
</filter>
<clipPath id="clip0_601_4662">
<rect width="32" height="32" fill="white" transform="translate(24 11)"/>
</clipPath>
</defs>
</svg>
