<svg width="80" height="80" viewBox="0 0 80 80" fill="none" xmlns="http://www.w3.org/2000/svg">
<g filter="url(#filter0_d_601_5352)">
<rect x="8" y="6" width="64" height="64" rx="5" fill="#212529"/>
<path d="M53.9889 26.27C53.9799 25.911 53.9609 25.542 53.9419 25.183C53.9229 24.824 53.9139 24.446 53.8759 24.077C53.8099 23.577 53.7439 23.066 53.6299 22.577C53.5355 22.175 53.4122 21.7803 53.2609 21.396C53.0891 20.9355 52.8935 20.4843 52.6749 20.044C52.2792 19.3613 51.8452 18.7016 51.3749 18.068C51.0819 17.652 50.7039 17.312 50.4199 16.887C50.2435 16.6411 50.03 16.4242 49.7869 16.244C49.4089 15.944 49.0119 15.667 48.6149 15.403C48.3149 15.195 48.0149 14.997 47.6889 14.817C47.4339 14.675 47.1599 14.562 46.8949 14.439C46.5999 14.2744 46.2855 14.1474 45.9589 14.061C45.8756 14.04 45.7935 14.0146 45.7129 13.985C45.4959 13.909 45.2879 13.824 45.0699 13.758C44.7389 13.658 44.4179 13.531 44.0779 13.446C43.7447 13.3639 43.4072 13.3008 43.0669 13.257C42.6889 13.2 42.3009 13.181 41.9229 13.144C41.6769 13.116 41.4309 13.087 41.1949 13.078C40.8359 13.059 40.4669 13.059 40.1079 13.05C39.9257 13.0343 39.7428 13.028 39.5599 13.031C39.2848 13.0423 39.0104 13.0677 38.7379 13.107C38.4729 13.135 38.2089 13.183 37.9529 13.22C37.6409 13.258 37.3289 13.277 37.0169 13.315C36.7239 13.353 36.4169 13.41 36.1289 13.457C36.0289 13.476 35.9209 13.514 35.8169 13.533C35.5843 13.5668 35.3539 13.6142 35.1269 13.675C34.7209 13.798 34.3139 13.94 33.9169 14.091C33.5492 14.2384 33.1897 14.4053 32.8399 14.591C32.4809 14.791 32.1399 15.026 31.7999 15.253C31.4789 15.47 31.1569 15.697 30.8449 15.943C30.5451 16.1832 30.258 16.4389 29.9849 16.709C29.8339 16.86 29.7109 17.04 29.5689 17.209C29.3329 17.483 29.0959 17.748 28.8689 18.031C28.6799 18.267 28.5099 18.513 28.3299 18.759C28.0163 19.1933 27.732 19.648 27.4789 20.12C27.3789 20.309 27.2789 20.498 27.1859 20.687C27.0439 20.971 26.8929 21.245 26.7609 21.538C26.6656 21.7415 26.5896 21.9534 26.5339 22.171C26.4019 22.634 26.2689 23.107 26.1459 23.571C26.0459 23.9875 25.9969 24.4147 25.9999 24.843C25.9983 25.219 26.0203 25.5948 26.0659 25.968C26.0749 26.062 26.0189 26.176 26.1319 26.252C26.1409 26.252 26.1319 26.29 26.1219 26.299C26.1154 26.3112 26.1117 26.3247 26.1112 26.3385C26.1106 26.3523 26.1132 26.3661 26.1186 26.3787C26.1241 26.3914 26.1324 26.4027 26.1428 26.4117C26.1532 26.4208 26.1656 26.4274 26.1789 26.431C26.1839 26.4362 26.187 26.4429 26.1879 26.45H26.1429C26.1149 26.535 26.2089 26.601 26.1709 26.696C26.1619 26.715 26.1989 26.753 26.2179 26.781C26.2132 26.8122 26.2132 26.8439 26.2179 26.875C26.239 26.9623 26.2547 27.0508 26.2649 27.14C26.2649 27.206 26.3219 27.282 26.3409 27.348C26.345 27.3641 26.3455 27.3809 26.3422 27.3972C26.3389 27.4135 26.3319 27.4288 26.3219 27.442C26.2649 27.508 26.2749 27.565 26.3599 27.603C26.3835 27.6182 26.4003 27.6418 26.4069 27.669C26.4021 27.7263 26.3928 27.7832 26.3789 27.839C26.3979 27.858 26.4069 27.877 26.3979 27.896C26.3889 27.915 26.3699 27.953 26.3789 27.972C26.4495 28.1263 26.488 28.2934 26.4919 28.463C26.4971 28.506 26.51 28.5476 26.5299 28.586C26.5493 28.5851 26.5687 28.5881 26.5869 28.595L26.5299 28.765C26.5721 28.7421 26.6162 28.723 26.6619 28.708C26.6867 28.8232 26.7184 28.9367 26.7569 29.048C26.7708 29.0715 26.7904 29.0911 26.8139 29.105C26.8039 29.124 26.8039 29.162 26.7859 29.171C26.8123 29.3383 26.8534 29.503 26.9089 29.663C26.9189 29.663 26.9279 29.653 26.9369 29.653C26.9089 29.483 26.8899 29.303 26.8609 29.133V29.076C26.8697 29.0713 26.8791 29.0679 26.8889 29.066C26.9015 29.1028 26.9109 29.1406 26.9169 29.179C26.9929 29.179 27.1059 29.226 27.1819 29.226C27.1898 29.1972 27.1991 29.1689 27.2099 29.141C27.1529 29.084 27.1099 28.999 27.0489 28.941C27.059 28.9844 27.059 29.0296 27.0489 29.073C27.0109 29.054 26.9639 29.035 26.9169 29.016C26.9578 28.9631 27.0019 28.9127 27.0489 28.865C27.0489 28.78 27.0019 28.704 26.8689 28.714C26.9259 28.695 26.9829 28.667 27.0489 28.648C27.0566 28.6739 27.066 28.6993 27.0769 28.724C27.1529 28.592 27.0389 28.488 27.0389 28.355C27.0182 28.1876 26.9804 28.0227 26.9259 27.863C26.8789 27.598 26.8879 27.201 26.8599 26.937C26.8599 26.918 26.8319 26.899 26.8129 26.88C26.8029 26.89 26.7559 27.012 26.7469 27.022C26.7749 27.249 26.8039 27.476 26.8229 27.703C26.8139 27.703 26.8039 27.703 26.8039 27.712C26.7659 27.512 26.7279 27.306 26.6809 27.079C26.6719 27.1226 26.6655 27.1667 26.6619 27.211C26.6339 27.202 26.6239 27.192 26.5769 27.173C26.6149 27.258 26.6529 27.315 26.6769 27.381C26.6317 27.3636 26.5831 27.3571 26.5349 27.362V27.627C26.4694 27.5551 26.4124 27.4759 26.3649 27.391C26.3459 27.315 26.3369 27.24 26.3179 27.164L26.3459 27.154C26.3336 27.1237 26.3242 27.0922 26.3179 27.06C26.3086 26.9934 26.2992 26.9177 26.2899 26.833C26.2989 26.824 26.3369 26.814 26.3559 26.795L26.2799 26.682C26.3362 26.6915 26.3929 26.6978 26.4499 26.701C26.4499 26.682 26.4589 26.673 26.4499 26.663C26.3549 26.578 26.4219 26.502 26.4589 26.427C26.4779 26.389 26.5439 26.38 26.5589 26.342C26.6349 26.2 26.7589 26.087 26.7589 25.907C26.7669 25.8181 26.7796 25.7296 26.7969 25.642C26.8159 25.481 26.8349 25.321 26.8439 25.16C26.8482 24.9556 26.8669 24.7518 26.8999 24.55C26.9759 24.219 27.0699 23.888 27.1739 23.558C27.2499 23.322 27.3349 23.095 27.4289 22.858C27.5607 22.4878 27.7122 22.125 27.8829 21.771C28.1379 21.261 28.4309 20.771 28.7149 20.271C28.8949 19.959 29.0839 19.671 29.2819 19.364C29.4799 19.057 29.6599 18.764 29.8819 18.494C30.1804 18.107 30.5153 17.7493 30.8819 17.426C31.2599 17.086 31.6189 16.736 32.0259 16.426C32.5517 16.0179 33.1118 15.6558 33.6999 15.344C34.1821 15.0981 34.6794 14.883 35.1889 14.7C35.5099 14.577 35.8599 14.521 36.1889 14.416C36.5618 14.2967 36.9503 14.233 37.3419 14.227C37.5969 14.218 37.8419 14.189 38.0979 14.161C38.3249 14.142 38.5519 14.123 38.7979 14.095C38.7795 14.1186 38.7638 14.1441 38.7509 14.171C38.6509 14.322 38.5339 14.471 38.4299 14.625C38.3449 14.748 38.2499 14.88 38.1649 15.003C38.0139 15.203 37.8529 15.403 37.7109 15.603C37.4939 15.915 37.2949 16.236 37.0679 16.548C36.8409 16.86 36.5949 17.134 36.3589 17.427C36.0469 17.833 35.7589 18.249 35.4419 18.656C35.1579 19.044 34.8559 19.412 34.5819 19.8C34.3359 20.14 34.1189 20.5 33.8819 20.849C33.5319 21.369 33.1819 21.879 32.8329 22.399C32.5589 22.799 32.2849 23.184 32.0009 23.581C31.9799 23.6052 31.954 23.6246 31.9249 23.638C31.9059 23.657 31.8679 23.676 31.8679 23.695C31.8579 23.7593 31.8422 23.8226 31.8209 23.884C31.7449 24.026 31.6699 24.168 31.5849 24.3C31.5379 24.376 31.4719 24.442 31.4149 24.517C31.3959 24.508 31.3869 24.498 31.3679 24.498C31.4059 24.403 31.5679 24.347 31.4909 24.205C31.4439 24.281 31.3959 24.347 31.3489 24.422L31.2359 24.649C31.2739 24.677 31.3359 24.696 31.2739 24.749C31.2459 24.796 31.2169 24.849 31.1889 24.9C31.1989 24.9 31.1989 24.909 31.2079 24.909C31.2359 24.871 31.2649 24.843 31.2929 24.809C31.3019 24.809 31.3119 24.819 31.3209 24.819C31.2865 24.9118 31.2422 25.0007 31.1889 25.084C31.1343 25.1586 31.0665 25.2227 30.9889 25.273C30.9989 25.282 31.0649 25.311 31.0739 25.32C31.1019 25.282 31.1119 25.301 31.1399 25.263C31.1589 25.291 31.1869 25.244 31.1969 25.272C31.2229 25.2437 31.2451 25.2121 31.2629 25.178C31.2779 25.132 31.3025 25.0896 31.3351 25.0538C31.3677 25.0179 31.4075 24.9894 31.4519 24.97C31.4882 24.9522 31.5213 24.9285 31.5499 24.9C31.8339 24.607 32.1269 24.323 32.3819 24.012C32.7819 23.53 33.1379 23.029 33.5159 22.537C33.6769 22.329 33.8659 22.121 34.0359 21.923C34.0549 21.933 34.0739 21.933 34.0829 21.942C34.0639 22.142 34.0449 22.348 34.0359 22.542C34.0079 22.892 33.9889 23.242 33.9599 23.601C33.9509 23.743 33.9599 23.885 33.9509 24.026C33.9509 24.064 33.9229 24.092 33.9229 24.126C33.9229 24.22 33.9509 24.326 33.9509 24.419C33.9229 24.769 33.8849 25.109 33.8559 25.459C33.8569 25.5338 33.8729 25.6075 33.9029 25.676C33.8887 25.6616 33.873 25.6488 33.8559 25.638C33.9047 26.1787 33.9111 26.7224 33.8749 27.264C33.9129 27.254 33.9319 27.245 33.9319 27.226C33.9459 27.1601 33.9552 27.0933 33.9599 27.026C33.9647 26.9661 33.9647 26.9059 33.9599 26.846V26.752C33.9834 26.5797 33.9927 26.4058 33.9879 26.232C33.9658 26.0495 33.9722 25.8646 34.0069 25.684C34.0259 25.608 33.9979 25.514 34.0449 25.419V25.561C34.0559 26.1005 34.0338 26.6402 33.9789 27.177C33.9699 27.224 34.0069 27.309 33.9029 27.3C33.8929 27.3 33.8839 27.347 33.8649 27.376C33.8179 27.47 33.9219 27.593 33.8269 27.688C33.8079 27.707 33.8459 27.788 33.8549 27.849C33.8549 27.868 33.8649 27.887 33.8549 27.896C33.8169 27.962 33.8169 27.962 33.8739 27.972C33.8839 28.18 33.9019 28.372 33.9119 28.572H33.9399C34.0062 28.2089 34.044 27.8411 34.0529 27.472C34.0658 27.626 34.0691 27.7806 34.0629 27.935C34.0629 28.181 34.0529 28.417 34.0439 28.663C34.0422 28.7109 34.0358 28.7584 34.0249 28.805C34.0066 28.9364 33.9782 29.0661 33.9399 29.193C33.9142 29.3078 33.9078 29.4261 33.9209 29.543V29.902C33.9209 29.912 33.9489 29.94 33.9489 29.978C33.9579 30.063 33.9109 30.148 33.9389 30.243C33.9489 30.262 33.9299 30.29 33.9199 30.309C33.9077 30.3356 33.9045 30.3655 33.9109 30.394L33.9389 30.536C33.9389 30.545 33.9489 30.555 33.9579 30.574C33.9645 30.5492 33.9678 30.5237 33.9679 30.498C34.1289 30.517 34.0439 30.659 34.1189 30.734C34.0809 30.753 34.0529 30.762 34.0529 30.772C34.0663 30.8041 34.0757 30.8377 34.0809 30.872C34.0792 30.9543 34.0729 31.0364 34.0619 31.118C34.0619 31.335 34.0519 31.553 34.0519 31.761C34.0519 31.789 34.0619 31.818 34.0619 31.846C34.0619 31.874 34.0519 31.884 34.0519 31.912V32.112H34.0899C34.0709 32.1426 34.0488 32.171 34.0239 32.197C34.0149 32.197 33.9859 32.197 33.9859 32.188V31.006H33.8469C33.8649 31.5429 33.8395 32.0803 33.7709 32.613C33.6802 32.6275 33.5887 32.6369 33.4969 32.641C33.2039 32.641 32.9109 32.641 32.6179 32.65C32.2679 32.65 31.9279 32.66 31.5779 32.66C31.4079 32.66 31.2279 32.679 31.0579 32.679C30.8309 32.679 30.5949 32.651 30.3679 32.651C30.0179 32.651 29.6779 32.679 29.3279 32.689C29.0729 32.698 28.8179 32.698 28.5619 32.708C28.3919 32.717 28.2219 32.727 28.0519 32.746C27.9716 32.7617 27.8927 32.7838 27.8159 32.812C27.7657 32.8073 27.7151 32.8073 27.6649 32.812C27.5699 32.831 27.4849 32.888 27.3909 32.907C27.2489 32.935 27.2109 32.973 27.2299 33.115V33.209C27.2103 33.1903 27.188 33.1744 27.1639 33.162C27.1567 33.1629 27.1501 33.166 27.1449 33.171C27.1539 33.199 27.1729 33.218 27.1829 33.247C27.2209 33.228 27.2679 33.181 27.3059 33.181H27.4379C27.4189 33.181 27.4099 33.238 27.3809 33.281C27.4569 33.253 27.5039 33.234 27.5509 33.215C27.5575 33.2398 27.5605 33.2654 27.5599 33.291C27.6812 33.2663 27.8056 33.2599 27.9289 33.272C28.299 33.357 28.6751 33.4139 29.0539 33.442C29.2999 33.461 29.5359 33.47 29.7819 33.48C30.1319 33.499 30.4819 33.518 30.8309 33.518C31.1239 33.518 31.4079 33.49 31.7009 33.49C32.1069 33.49 32.5139 33.509 32.9199 33.518C33.0049 33.518 33.0999 33.508 33.1939 33.508H33.8839C34.4979 33.489 35.1129 33.48 35.7269 33.461C36.0769 33.452 36.4359 33.433 36.7859 33.423L37.8629 33.395C38.2789 33.386 38.6949 33.386 39.1009 33.376C39.4129 33.376 39.7149 33.367 40.0269 33.357C40.3769 33.347 40.7359 33.319 41.0859 33.3C41.2749 33.291 41.4639 33.272 41.6529 33.253C41.8799 33.234 42.1159 33.206 42.3429 33.196C42.6829 33.177 43.0329 33.168 43.3729 33.149C43.7979 33.121 44.2239 33.083 44.6579 33.073C45.0579 33.054 45.4579 33.064 45.8579 33.054C46.2079 33.045 46.5579 33.026 46.9169 33.016L47.5169 32.988C47.5169 32.988 47.9169 32.979 48.1169 32.96C48.4569 32.941 48.7979 32.903 49.1379 32.894C49.3549 32.885 49.5729 32.894 49.7899 32.885C50.1399 32.875 50.4989 32.857 50.8489 32.857C50.9809 32.857 51.1229 32.876 51.2929 32.885C51.2169 32.951 51.1699 32.985 51.1129 33.036C51.1521 33.0477 51.19 33.0635 51.2259 33.083C51.2259 33.093 51.2169 33.102 51.2169 33.121C51.1699 33.121 51.1229 33.131 51.0749 33.131C51.0483 33.1817 51.0291 33.2359 51.0179 33.292H51.1879C51.1219 33.292 51.0649 33.377 50.9989 33.434C51.0089 33.443 51.0179 33.443 51.0269 33.453C50.9269 33.415 50.8569 33.434 50.8189 33.538C50.8434 33.5457 50.8692 33.5487 50.8949 33.547C50.8859 33.575 50.8759 33.604 50.8669 33.641C50.8551 33.6611 50.8485 33.6838 50.8479 33.707L50.8199 33.679C50.8215 33.6596 50.8184 33.64 50.8109 33.622C50.7539 33.679 50.6689 33.717 50.7159 33.839C50.6779 33.858 50.6309 33.877 50.5839 33.905C50.5986 33.9258 50.6113 33.9479 50.6219 33.971C50.5369 33.98 50.4519 33.999 50.4709 34.103C50.5089 34.112 50.5469 34.131 50.5709 34.141C50.5239 34.16 50.4769 34.188 50.4289 34.207C50.4189 34.226 50.4099 34.273 50.3909 34.283C50.2589 34.311 50.3339 34.359 50.3719 34.406C50.3457 34.4253 50.3171 34.4411 50.2869 34.453C50.3117 34.4599 50.3344 34.473 50.3529 34.491C50.3318 34.5052 50.3097 34.5179 50.2869 34.529C50.3049 34.5403 50.324 34.5496 50.3439 34.557C50.3059 34.585 50.2586 34.6227 50.2019 34.67C50.2004 34.6862 50.2035 34.7025 50.2109 34.717C50.1687 34.7569 50.1308 34.8012 50.0979 34.849C50.0682 34.9139 50.0348 34.977 49.9979 35.038C49.8258 35.2768 49.6242 35.4929 49.3979 35.681C49.3029 35.7519 49.2143 35.8309 49.1329 35.917C48.9629 36.078 48.8119 36.257 48.6329 36.409C48.3969 36.609 48.1509 36.787 47.8959 36.967C47.5839 37.184 47.2719 37.402 46.9599 37.61C46.7899 37.723 46.6009 37.81 46.4209 37.91C46.2409 38.01 46.0709 38.11 45.8919 38.21C45.7847 38.2972 45.671 38.3761 45.5519 38.446C45.2399 38.578 44.9089 38.692 44.5879 38.815C44.5599 38.824 44.5409 38.834 44.5119 38.843C44.2759 38.943 44.0489 39.06 43.8119 39.143C43.5923 39.2174 43.3682 39.2775 43.1409 39.323C43.0591 39.331 42.977 39.334 42.8949 39.332C42.7339 39.36 42.5739 39.398 42.4129 39.417C41.9969 39.474 41.5809 39.511 41.1649 39.568C40.9189 39.596 40.6829 39.644 40.4369 39.668C40.2669 39.678 40.0869 39.659 39.9169 39.659C39.7913 39.6715 39.6649 39.6745 39.5389 39.668C39.3389 39.64 39.1389 39.592 38.9389 39.555C38.8903 39.5383 38.8381 39.5352 38.7879 39.546C38.7119 39.584 38.6459 39.527 38.5709 39.546C38.5239 39.555 38.4769 39.518 38.4289 39.518C38.3809 39.518 38.3439 39.527 38.2969 39.518C38.1973 39.48 38.0915 39.4607 37.9849 39.461C37.8651 39.453 37.7472 39.4274 37.6349 39.385L37.1349 39.272C37.0686 39.2517 37.0051 39.2231 36.9459 39.187C36.9204 39.2034 36.8911 39.213 36.8609 39.215C36.7007 39.1984 36.5423 39.1669 36.3879 39.121C36.2643 39.0573 36.1269 39.025 35.9879 39.027C35.9499 39.036 35.9219 39.017 35.8879 39.017C35.8599 38.979 35.8309 38.904 35.8029 38.904C35.6139 38.914 35.5029 38.753 35.3399 38.704C35.2549 38.676 35.1889 38.581 35.1039 38.553C34.8959 38.468 34.7259 38.288 34.4899 38.26C34.4091 38.242 34.3301 38.2165 34.2539 38.184C34.2769 38.2175 34.3023 38.2492 34.3299 38.279L34.3109 38.298C34.0559 38.147 33.8009 37.998 33.5449 37.854C33.5069 37.844 33.4789 37.807 33.4499 37.788L33.1949 37.618C33.1669 37.599 33.1099 37.571 33.1099 37.58C33.0529 37.646 32.9969 37.59 32.9589 37.571C32.7039 37.391 32.4109 37.278 32.1649 37.079C32.055 37.0098 31.9542 36.9272 31.8649 36.833C31.7339 36.6792 31.573 36.5537 31.3919 36.464C31.2499 36.388 31.1179 36.303 30.9859 36.218C30.9479 36.1976 30.9157 36.1678 30.8926 36.1313C30.8695 36.0949 30.8562 36.0531 30.8539 36.01C30.8539 35.944 30.8259 35.878 30.7409 35.916C30.7029 35.859 30.6649 35.793 30.6179 35.774C30.5152 35.721 30.4225 35.6507 30.3439 35.566C30.2589 35.49 30.1929 35.386 30.0889 35.349C29.9216 35.2626 29.7786 35.1358 29.6729 34.98C29.4079 34.668 29.1729 34.328 28.9259 33.997C28.8997 33.9694 28.8713 33.9439 28.8409 33.921L28.8309 33.931C28.8779 34.025 28.9259 34.111 28.9729 34.205C28.9629 34.214 28.9449 34.224 28.9349 34.233C28.8779 34.167 28.8119 34.101 28.7549 34.033C28.7449 34.043 28.7359 34.052 28.7269 34.052L29.3999 35.146C29.4569 35.231 29.4999 35.316 29.5609 35.401C29.5501 35.4126 29.5372 35.4221 29.5229 35.429C29.4715 35.4181 29.423 35.3964 29.3806 35.3654C29.3382 35.3343 29.3029 35.2947 29.2769 35.249C29.2496 35.1754 29.1985 35.113 29.1316 35.0718C29.0647 35.0306 28.9859 35.0131 28.9079 35.022C28.8877 34.9538 28.872 34.8843 28.8609 34.814C28.8167 34.8148 28.7725 34.8118 28.7289 34.805C28.8609 35.013 28.9749 35.193 29.0979 35.405C29.0509 35.377 29.0219 35.358 29.0039 35.348C29.1739 35.528 29.2969 35.754 29.5139 35.868C29.5609 36.085 29.8069 36.189 29.8639 36.397L29.7319 36.369C29.6559 36.275 29.5709 36.18 29.4859 36.076C29.5026 36.1378 29.5315 36.1956 29.5709 36.246C29.6773 36.3898 29.7943 36.5256 29.9209 36.652C29.9679 36.699 30.0339 36.718 30.0339 36.803C30.0564 36.7831 30.0821 36.7672 30.1099 36.756C30.095 36.7833 30.0823 36.8117 30.0719 36.841C30.1099 36.841 30.1379 36.85 30.1669 36.85C30.1859 36.907 30.1569 36.992 30.2669 36.973C30.2769 36.973 30.2859 36.982 30.2949 36.992C30.3419 37.115 30.4179 37.115 30.5219 37.068C30.535 37.0636 30.5492 37.0631 30.5627 37.0665C30.5761 37.0698 30.5883 37.077 30.5979 37.087C30.6449 37.187 30.7109 37.2 30.7979 37.125C30.7979 37.172 30.8069 37.219 30.8069 37.257H30.8499C30.8499 37.238 30.8409 37.21 30.8409 37.163C30.8879 37.201 30.9169 37.22 30.9359 37.239C31.0215 37.3735 31.1267 37.4945 31.2479 37.598C31.4279 37.749 31.5879 37.91 31.7579 38.052C32.0921 38.3196 32.4496 38.5568 32.8259 38.761C33.2799 39.016 33.7139 39.29 34.1779 39.536C34.7375 39.8223 35.3318 40.035 35.9459 40.169C36.1729 40.216 36.3899 40.263 36.6169 40.32C36.8169 40.377 37.0169 40.462 37.2169 40.509C37.5169 40.575 37.8309 40.632 38.1339 40.689L38.3419 40.717V40.736C38.4269 40.736 38.5309 40.698 38.5499 40.726C38.5969 40.802 38.6349 40.764 38.6919 40.754C38.763 40.7379 38.836 40.7316 38.9089 40.735C39.1695 40.7648 39.4316 40.7805 39.6939 40.782C39.7509 40.782 39.8359 40.735 39.8829 40.829C39.9019 40.819 39.9109 40.81 39.9299 40.801C39.9679 40.791 40.0149 40.791 40.0529 40.782V40.8C40.0282 40.8086 40.0027 40.815 39.9769 40.819C40.0108 40.826 40.0442 40.8354 40.0769 40.847C40.0635 40.8597 40.0474 40.8693 40.0299 40.875C39.9998 40.8873 39.9713 40.9031 39.9449 40.922C40.2559 40.9931 40.5789 40.9931 40.8899 40.922V40.865H40.9279C40.9299 40.8852 40.9364 40.9047 40.9469 40.922C41.3759 40.9592 41.8078 40.9043 42.2139 40.761C42.2519 40.808 42.2799 40.874 42.3369 40.78C42.3559 40.752 42.4029 40.742 42.4369 40.733C42.5202 40.6995 42.6108 40.6881 42.6999 40.7C42.7849 40.728 42.8129 40.653 42.8799 40.653C42.9875 40.6535 43.095 40.6441 43.2009 40.625C43.2579 40.616 43.3139 40.587 43.3809 40.568C43.3815 40.563 43.381 40.5579 43.3795 40.553C43.3779 40.5482 43.3753 40.5438 43.3719 40.54C43.3057 40.5294 43.2389 40.5231 43.1719 40.521C43.2849 40.464 43.3889 40.421 43.4929 40.37C43.4929 40.379 43.5029 40.379 43.5029 40.389C43.4749 40.398 43.4559 40.436 43.4179 40.436H43.5499C43.5219 40.436 43.4839 40.521 43.4369 40.578L44.3919 40.342V40.323C44.3539 40.332 44.3259 40.332 44.2969 40.342C44.2879 40.142 44.5049 40.21 44.5809 40.096C44.4859 40.124 44.3919 40.153 44.2969 40.172V40.153C44.6179 40.011 44.9489 39.869 45.2709 39.728C45.2709 39.738 45.2809 39.738 45.2809 39.747C45.2239 39.785 45.1679 39.813 45.0809 39.86C45.1222 39.8642 45.1632 39.8705 45.2039 39.879C45.2039 39.907 45.2039 39.926 45.1949 39.936C45.3559 39.926 45.3179 39.785 45.3649 39.7C45.3929 39.709 45.4309 39.728 45.4599 39.719C45.5432 39.698 45.6253 39.6726 45.7059 39.643C45.8009 39.615 45.8949 39.586 45.9899 39.548C46.1409 39.482 46.2829 39.397 46.4339 39.321C46.4714 39.3163 46.5094 39.3163 46.5469 39.321C46.573 39.3176 46.5968 39.3039 46.6129 39.283C46.6509 39.255 46.6889 39.198 46.7129 39.207C46.7402 39.2147 46.7688 39.2169 46.797 39.2135C46.8251 39.2101 46.8523 39.2011 46.877 39.187C46.9017 39.173 46.9233 39.1541 46.9406 39.1317C46.9579 39.1092 46.9706 39.0835 46.9779 39.056C46.9879 39.056 46.9879 39.046 46.9969 39.046C47.0421 39.0097 47.0895 38.9763 47.1389 38.946C47.3469 38.833 47.5449 38.719 47.7529 38.606C47.7619 38.597 47.7809 38.606 47.7999 38.606C47.8285 38.6082 47.8573 38.6052 47.8849 38.597C48.0079 38.54 48.1209 38.474 48.2349 38.408C48.2069 38.398 48.2349 38.389 48.1409 38.38V38.36C48.202 38.3492 48.2622 38.3335 48.3209 38.313L48.3019 38.294C48.5479 38.048 48.8599 37.869 49.0959 37.661C49.1269 37.6702 49.1587 37.6765 49.1909 37.68C49.1984 37.6554 49.2018 37.6297 49.2009 37.604C49.2367 37.5524 49.2779 37.5048 49.3239 37.462C49.5319 37.273 49.7589 37.112 49.9479 36.914C50.2219 36.64 50.4869 36.356 50.7329 36.063C50.9656 35.8039 51.1804 35.5293 51.3759 35.241C51.6409 34.835 51.8679 34.419 52.1039 33.993C52.2739 33.693 52.4249 33.393 52.5959 33.086C52.6149 33.058 52.6529 33.02 52.6809 33.02C52.9359 32.992 53.1909 32.973 53.4369 32.944C53.5 32.9269 53.5606 32.9013 53.6169 32.868C53.5889 32.821 53.5699 32.768 53.5409 32.717C53.5119 32.666 53.4469 32.617 53.4089 32.556C53.3718 32.5058 53.3399 32.4518 53.3139 32.395C53.2859 32.348 53.2569 32.31 53.2289 32.263C53.1696 32.1589 53.1159 32.0518 53.0679 31.942C53.053 31.9109 53.0465 31.8764 53.0489 31.842C53.2189 31.473 53.2849 31.076 53.4489 30.708C53.5867 30.3161 53.6819 29.9104 53.7329 29.498C53.7989 29.11 53.8329 28.723 53.8839 28.335C53.9119 28.061 53.9499 27.796 53.9599 27.522C54.0019 27.1074 54.0113 26.6901 53.9879 26.274L53.9889 26.27ZM30.2259 36.819C30.1599 36.743 30.1029 36.658 30.0369 36.583L30.0649 36.555C30.1649 36.669 30.2729 36.782 30.3769 36.905C30.3216 36.8866 30.2703 36.8568 30.2259 36.819ZM30.3769 36.904C30.4049 36.895 30.4339 36.895 30.4619 36.885C30.4899 36.932 30.5089 36.985 30.5379 37.046C30.4059 37.037 30.3379 36.98 30.3769 36.904ZM40.2069 40.804V40.78L40.7359 40.723V40.751C40.5607 40.7793 40.3841 40.7984 40.2069 40.808V40.804ZM42.5889 40.558C42.4569 40.586 42.3149 40.605 42.1829 40.624C42.1359 40.634 42.0829 40.681 42.0599 40.596C42.0409 40.605 42.0219 40.605 42.0029 40.615C42.0499 40.757 42.1639 40.643 42.2579 40.7C42.0499 40.728 41.8519 40.747 41.6579 40.776V40.757L41.8379 40.729V40.7C41.7436 40.6889 41.6488 40.6826 41.5539 40.681C41.5259 40.681 41.4879 40.719 41.4599 40.728C41.4199 40.7396 41.3785 40.746 41.3369 40.747C41.1759 40.756 41.0159 40.756 40.8639 40.766C40.8549 40.766 40.8359 40.756 40.8259 40.756V40.728L42.7159 40.473C42.7249 40.492 42.7249 40.511 42.7349 40.53C42.6866 40.5339 42.639 40.5433 42.5929 40.558H42.5889ZM42.7309 40.463C42.9479 40.435 43.1469 40.416 43.3549 40.387C42.9199 40.51 42.7779 40.529 42.7309 40.463ZM34.4999 21.384C34.7999 20.968 35.1139 20.552 35.4169 20.127C35.5109 20.004 35.5869 19.872 35.6819 19.749C35.7155 19.7128 35.7535 19.6809 35.7949 19.654L35.7849 19.635C35.8198 19.5969 35.8513 19.5557 35.8789 19.512C35.9222 19.4328 35.96 19.3506 35.9919 19.266C36.0018 19.2509 36.0148 19.238 36.0299 19.228C36.1619 19.294 36.1619 19.152 36.2099 19.105C36.2949 19.011 36.3799 18.905 36.4559 18.812C36.5149 18.7403 36.5687 18.6644 36.6169 18.585C36.6259 18.557 36.5979 18.509 36.5889 18.472H36.5609C36.5889 18.453 36.6179 18.425 36.6459 18.406C36.6559 18.406 36.6559 18.406 36.6649 18.397C36.7219 18.312 36.7779 18.227 36.8349 18.151C36.9476 17.9976 37.0709 17.8522 37.2039 17.716C37.1849 17.763 37.1659 17.811 37.1469 17.848C37.1559 17.848 37.1559 17.858 37.1659 17.858C37.2789 17.707 37.4019 17.565 37.5159 17.414C37.5059 17.405 37.4969 17.395 37.4879 17.395C37.4409 17.442 37.4029 17.489 37.3559 17.537C37.3459 17.528 37.3369 17.518 37.3279 17.518C37.4229 17.395 37.5169 17.272 37.6119 17.13C37.6398 17.1759 37.6652 17.2233 37.6879 17.272C37.7259 17.177 37.7639 17.111 37.7879 17.045C37.7599 17.073 37.7219 17.102 37.6939 17.13L37.6649 17.1L37.8349 16.845C38.0149 16.59 38.1939 16.325 38.3739 16.07C38.4399 15.975 38.5249 15.9 38.5819 15.805C38.7893 15.4671 39.0167 15.1419 39.2629 14.831C39.3146 14.7666 39.3715 14.7064 39.4329 14.651C39.4799 14.594 39.5179 14.613 39.5559 14.661C39.8109 14.982 40.0659 15.313 40.3219 15.635C40.5109 15.871 40.6999 16.098 40.8799 16.344C41.0969 16.644 41.3049 16.944 41.5229 17.251C41.7689 17.601 42.0149 17.951 42.2509 18.31C42.6099 18.839 42.9509 19.369 43.3099 19.898C43.5749 20.286 43.8389 20.664 44.0949 21.051H43.6129C43.1689 21.041 42.7129 21.004 42.2709 21.023C41.6709 21.051 41.0519 21.117 40.4469 21.165C39.6809 21.231 38.9059 21.241 38.1409 21.241C37.8669 21.241 37.5929 21.279 37.3189 21.298C36.9879 21.317 36.6669 21.336 36.3359 21.345C35.9479 21.364 35.5699 21.373 35.1829 21.383C34.9659 21.393 34.7389 21.383 34.5019 21.383L34.4999 21.384ZM45.3399 25.732V25.817C45.3309 25.817 45.3209 25.826 45.3019 25.826C45.2639 25.694 45.2259 25.552 45.1789 25.42C45.093 25.1396 44.9688 24.8725 44.8099 24.626C44.6209 24.361 44.4509 24.087 44.2619 23.813C44.2102 23.7485 44.1533 23.6883 44.0919 23.633C43.9025 23.4047 43.6832 23.2029 43.4399 23.033C43.0638 22.7996 42.6683 22.5988 42.2579 22.433C42.1438 22.3839 42.0332 22.3271 41.9269 22.263H42.1539L43.7699 22.235C44.1199 22.225 44.4599 22.225 44.8099 22.207C44.8464 22.2041 44.883 22.212 44.915 22.2298C44.947 22.2476 44.9731 22.2745 44.9899 22.307C45.0749 22.449 45.1599 22.59 45.2549 22.732C45.2699 22.7549 45.2795 22.7809 45.2829 22.808C45.2829 23.016 45.2829 23.233 45.2919 23.441C45.3009 23.649 45.3199 23.866 45.3299 24.084C45.3399 24.302 45.3109 24.528 45.3199 24.755C45.3299 25.076 45.3389 25.407 45.3389 25.738L45.3399 25.732ZM35.1699 22.565C35.6139 22.546 36.0399 22.518 36.4699 22.499C36.8099 22.48 37.1599 22.471 37.4999 22.452C37.6382 22.4378 37.7776 22.4378 37.9159 22.452C37.7647 22.5226 37.6193 22.6049 37.4809 22.698C37.3109 22.811 37.1499 22.963 36.9809 23.086C36.8109 23.2135 36.6557 23.3593 36.5179 23.521C36.3379 23.738 36.1399 23.927 35.9509 24.135C35.8099 24.2795 35.6764 24.431 35.5509 24.589C35.3899 24.797 35.2509 25.024 35.0969 25.26C35.1439 24.36 35.1969 23.474 35.1629 22.566L35.1699 22.565ZM41.3419 31.658C41.0376 31.7436 40.7284 31.8104 40.4159 31.858C40.1459 31.8864 39.8742 31.8958 39.6029 31.886C39.3569 31.886 39.1209 31.877 38.8749 31.858C38.5956 31.8445 38.3207 31.7837 38.0619 31.678C37.8349 31.578 37.5989 31.478 37.3719 31.366C37.1339 31.2608 36.9212 31.1061 36.7479 30.912C36.6113 30.7647 36.4628 30.6289 36.3039 30.506C36.3319 30.6201 36.4037 30.7186 36.5039 30.78C36.4569 30.837 36.3909 30.808 36.2959 30.657C36.2716 30.6716 36.2461 30.6843 36.2199 30.695C36.2479 30.629 36.2769 30.563 36.3049 30.506C36.2669 30.43 36.2199 30.345 36.1819 30.27C36.1059 30.147 36.0309 30.015 35.9649 29.892C35.9459 29.864 35.9459 29.835 35.9269 29.807C35.88 29.7527 35.8359 29.6959 35.7949 29.637C35.7227 29.5161 35.644 29.3992 35.5589 29.287C35.5589 29.315 35.5679 29.344 35.5679 29.381C35.5607 29.3819 35.5541 29.385 35.5489 29.39L35.3489 28.908C35.3389 28.908 35.3389 28.908 35.3299 28.918L35.4999 29.542C35.4899 29.542 35.4809 29.552 35.4719 29.552C35.4411 29.5146 35.4156 29.4732 35.3959 29.429C35.3769 29.353 35.3199 29.353 35.2729 29.382C35.258 29.3965 35.2468 29.4142 35.2402 29.4339C35.2336 29.4536 35.2317 29.4745 35.2349 29.495C35.3009 29.656 35.3769 29.816 35.4519 29.977C35.4698 30.0323 35.4919 30.0861 35.5179 30.138C35.5279 30.157 35.5559 30.176 35.5559 30.204C35.5879 30.2792 35.6257 30.3517 35.6689 30.421C35.7539 30.534 35.8489 30.648 35.9339 30.761C36.0189 30.874 36.0949 30.997 36.1699 31.111C36.1799 31.13 36.2079 31.13 36.2169 31.139C36.2639 31.281 36.4249 31.385 36.5379 31.328C36.5659 31.545 36.8029 31.621 36.8969 31.828C36.7839 31.781 36.6969 31.743 36.6229 31.705C36.6139 31.715 36.6139 31.724 36.6039 31.743C36.7172 31.7973 36.8277 31.8574 36.9349 31.923C37.0298 31.9775 37.1213 32.0376 37.2089 32.103C37.3244 32.2047 37.4649 32.2737 37.6159 32.303C37.6123 32.2891 37.6059 32.2762 37.5969 32.265C37.8619 32.388 38.1359 32.52 38.3439 32.624C37.3609 32.643 36.3119 32.662 35.2249 32.681C35.2249 32.501 35.2159 32.331 35.2159 32.152C35.2236 32.08 35.2266 32.0075 35.2249 31.935C35.1969 31.5 35.1969 31.065 35.1399 30.64C35.0911 30.1911 35.0754 29.7392 35.0929 29.288C35.1019 29.042 35.0829 28.788 35.0739 28.541C35.0739 28.21 35.0739 27.889 35.0829 27.558C35.0867 27.5119 35.0996 27.4671 35.1209 27.426H35.1489C35.1579 27.445 35.1489 27.473 35.1679 27.483C35.1959 27.511 35.2439 27.559 35.2629 27.549C35.3199 27.511 35.4049 27.473 35.4239 27.417C35.4685 27.3058 35.4909 27.1869 35.4899 27.067C35.493 26.9939 35.5197 26.9238 35.5659 26.867C35.5834 26.8367 35.5991 26.8053 35.6129 26.773C35.5749 26.745 35.5369 26.726 35.4899 26.688C35.5279 26.588 35.5179 26.461 35.6599 26.404C35.6789 26.394 35.6789 26.347 35.6879 26.319C35.6969 26.243 35.7069 26.158 35.7159 26.083C35.7291 26.1039 35.7449 26.123 35.7629 26.14C35.7678 26.1298 35.7742 26.1204 35.7819 26.112C35.7819 26.074 35.7729 25.999 35.7819 25.999C35.8949 25.98 35.8479 25.857 35.9049 25.799C35.9139 25.79 35.8949 25.761 35.8949 25.742C35.8949 25.723 35.8949 25.695 35.9049 25.695C36.0369 25.667 36.0179 25.525 36.1049 25.459C36.1329 25.44 36.1429 25.412 36.1809 25.365C36.2569 25.497 36.1239 25.565 36.1149 25.658C36.2759 25.563 36.3229 25.337 36.2279 25.27C36.2655 25.2412 36.2991 25.2076 36.3279 25.17C36.4279 25.057 36.5449 24.953 36.6399 24.839C36.7059 24.754 36.7399 24.65 36.8099 24.565C36.8588 24.5168 36.9165 24.4785 36.9799 24.452C37.1523 24.3701 37.3017 24.2468 37.4149 24.093C37.4384 24.0717 37.4639 24.0527 37.4909 24.036C37.5189 24.017 37.5759 24.017 37.5849 23.989C37.5939 23.961 37.5659 23.923 37.5469 23.895C37.5849 23.876 37.6229 23.838 37.6979 23.801C37.6699 23.858 37.6599 23.895 37.6409 23.933L37.6879 23.98C37.7729 23.914 37.9049 23.838 37.9879 23.78C37.9879 23.771 37.9409 23.733 37.9409 23.733C37.8839 23.761 37.7989 23.809 37.7139 23.846C37.7329 23.818 37.7329 23.799 37.7419 23.789C37.8718 23.7014 38.0074 23.6225 38.1479 23.553C38.4789 23.402 38.8099 23.253 39.1399 23.109C39.2051 23.0915 39.2734 23.0884 39.3399 23.1C39.3656 23.1017 39.3913 23.0986 39.4159 23.091C39.5669 23.044 39.7159 22.997 39.8699 22.959C39.9377 22.9404 40.0076 22.931 40.0779 22.931C40.3619 22.94 40.6449 22.94 40.9289 22.959C41.0483 22.9697 41.1658 22.9952 41.2789 23.035C41.4245 23.0852 41.5665 23.1454 41.7039 23.215C41.8636 23.3006 42.0182 23.3955 42.1669 23.499C42.4409 23.679 42.6959 23.877 42.9669 24.038C43.223 24.1981 43.4422 24.4108 43.6099 24.662C43.8446 24.9318 44.0273 25.2427 44.1489 25.579L44.2909 26.203C44.3416 26.3156 44.3643 26.4388 44.3569 26.562C44.3099 26.798 44.2719 27.044 44.2339 27.28C44.2106 27.3725 44.2012 27.4678 44.2059 27.563C44.2031 27.8468 44.1317 28.1257 43.9979 28.376C43.9599 28.461 43.9029 28.546 43.8559 28.641C43.8792 28.6574 43.9048 28.6702 43.9319 28.679L44.0169 28.509C44.0259 28.509 44.0259 28.509 44.0359 28.519C43.9889 28.651 43.9509 28.793 43.9039 28.925C43.7909 29.218 43.6769 29.525 43.5349 29.804C43.4436 29.9577 43.3434 30.106 43.2349 30.248C43.1399 30.38 43.0649 30.522 42.9699 30.648C42.8903 30.7563 42.7949 30.852 42.6869 30.932C42.4341 31.1256 42.1689 31.3023 41.8929 31.461C41.7184 31.558 41.5303 31.6281 41.3349 31.669L41.3419 31.658ZM36.3039 31.158L36.2949 31.167C36.271 31.158 36.2487 31.1451 36.2289 31.129L35.9999 30.789C35.9897 30.7757 35.9827 30.7602 35.9794 30.7437C35.9761 30.7273 35.9766 30.7103 35.9809 30.694C36.0809 30.855 36.1889 31.006 36.3019 31.157L36.3039 31.158ZM42.1829 32.453C42.5889 32.2759 42.9611 32.0296 43.2829 31.725C43.3287 31.6761 43.3793 31.6319 43.4339 31.593C43.8153 31.341 44.1404 31.0128 44.3889 30.629C44.6655 30.1814 44.915 29.7176 45.1359 29.24C45.153 29.2056 45.172 29.1723 45.1929 29.14C45.1948 30.2113 45.277 31.281 45.4389 32.34L42.1869 32.453H42.1829ZM51.7679 32.17C51.7579 32.189 51.7399 32.208 51.7299 32.227C51.7215 32.1992 51.7151 32.1708 51.7109 32.142C51.6539 32.293 51.5309 32.218 51.4459 32.218C50.9359 32.227 50.4159 32.227 49.9049 32.227C49.4129 32.227 48.9129 32.227 48.4209 32.237C48.2599 32.237 48.0899 32.275 47.9289 32.284C47.5409 32.303 47.1539 32.312 46.7659 32.322C46.7379 32.322 46.7089 32.275 46.6659 32.237C46.6492 32.2669 46.6302 32.2953 46.6089 32.322C46.5999 32.303 46.5809 32.284 46.5619 32.256C46.5541 32.2819 46.5448 32.3073 46.5339 32.332H46.4999C46.4716 32.2042 46.4526 32.0746 46.4429 31.944C46.4429 31.66 46.4709 31.377 46.4809 31.093C46.4899 30.961 46.4809 30.838 46.4809 30.715L46.5809 30.791C46.5977 30.7581 46.6168 30.7264 46.6379 30.696C46.6239 30.6886 46.6111 30.6792 46.5999 30.668C46.6189 30.659 46.6379 30.64 46.6379 30.63C46.6499 30.6057 46.6592 30.5803 46.6659 30.554C46.662 30.4933 46.6526 30.4331 46.6379 30.374C46.6429 30.3746 46.648 30.3742 46.6529 30.3726C46.6577 30.371 46.6622 30.3685 46.6659 30.365L46.7229 30.648H46.7509C46.7129 30.582 46.8359 30.525 46.7319 30.448C46.7229 30.439 46.7419 30.382 46.7419 30.354C46.7133 30.2924 46.688 30.2293 46.6659 30.165C46.6863 30.1523 46.7085 30.1428 46.7319 30.137C46.7015 30.1195 46.6701 30.1038 46.6379 30.09C46.7319 30.005 46.7319 29.958 46.6479 29.863C46.6669 29.854 46.6859 29.854 46.6859 29.844C46.689 29.7586 46.6826 29.6731 46.6669 29.589C46.6479 29.495 46.6949 29.381 46.5539 29.324C46.5627 29.3511 46.5755 29.3767 46.5919 29.4C46.5718 29.4071 46.5527 29.4165 46.5349 29.428C46.4119 29.315 46.4879 29.163 46.4589 28.993C46.5136 29.0091 46.5673 29.0281 46.6199 29.05C46.6009 28.984 46.5539 28.908 46.5259 28.823H46.4879V28.2C46.4879 28.209 46.5539 28.209 46.5879 28.219C46.5879 28.21 46.5969 28.2 46.5969 28.191C46.5689 28.153 46.5309 28.115 46.4969 28.068L46.5159 28.049C46.4699 27.9724 46.4563 27.8807 46.4779 27.794V27.132C46.5719 27.226 46.4309 27.349 46.5719 27.406V27.31H46.5629C46.5529 27.168 46.5529 27.026 46.5439 26.885H46.5249C46.5159 26.904 46.5159 26.913 46.5059 26.932H46.4869C46.5059 26.185 46.5249 25.439 46.5439 24.673C46.6412 24.7858 46.7298 24.9058 46.8089 25.032C47.039 25.4156 47.2949 25.7831 47.5749 26.132C47.8019 26.444 48.0099 26.784 48.2179 27.106C48.4729 27.494 48.7179 27.881 48.9739 28.269C49.1629 28.562 49.3619 28.855 49.5599 29.139C49.7399 29.394 49.9289 29.639 50.1179 29.886C50.2789 30.103 50.4489 30.321 50.6089 30.538C50.7979 30.803 50.9869 31.067 51.1759 31.323C51.2699 31.455 51.3759 31.588 51.4759 31.723C51.5352 31.7907 51.6023 31.8512 51.6759 31.903C51.6625 31.9033 51.6494 31.8999 51.6379 31.893C51.6582 31.9226 51.6802 31.951 51.7039 31.978C51.8039 32.035 51.8169 32.091 51.7609 32.178L51.7679 32.17ZM52.2499 29.807V29.741C52.2499 29.76 52.2589 29.788 52.2499 29.807ZM52.5709 25.639C52.5433 25.6198 52.5178 25.5976 52.4949 25.573C52.4849 25.601 52.4949 25.63 52.4759 25.667C52.4669 25.639 52.3999 25.648 52.3999 25.62C52.3899 25.752 52.4569 25.885 52.4469 26.02C52.4749 26.001 52.5889 25.992 52.6169 25.963C52.6273 25.9731 52.6406 25.9797 52.6549 25.982C52.4659 26.124 52.5129 26.266 52.5979 26.426C52.6169 26.464 52.6739 26.539 52.6169 26.615C52.5979 26.634 52.6269 26.691 52.6359 26.738H52.6639V26.757L52.5789 26.785C52.5599 26.757 52.4469 26.7 52.4469 26.653V27.135C52.5409 27.163 52.5409 27.296 52.5789 27.362C52.5953 27.3387 52.6081 27.3131 52.6169 27.286L52.6269 27.295C52.6187 27.3526 52.606 27.4094 52.5889 27.465C52.5686 27.5461 52.5529 27.6282 52.5419 27.711C52.5419 27.72 52.5609 27.739 52.5609 27.749C52.4995 27.9931 52.4709 28.2443 52.4759 28.496C52.4479 28.676 52.4759 28.865 52.4569 29.054C52.4347 29.2196 52.4033 29.3839 52.3629 29.546C52.3539 29.574 52.3349 29.584 52.2869 29.603C52.3026 29.5056 52.2992 29.4061 52.2769 29.31C52.2679 29.31 52.1449 29.244 52.1349 29.244C52.1567 29.4006 52.1901 29.5554 52.2349 29.707C52.2069 29.698 52.0929 29.631 52.0839 29.631C52.0649 29.744 52.0649 29.896 52.0559 30.019C52.0459 30.113 51.9609 30.199 51.9559 30.303C51.9559 30.36 52.0219 30.397 52.0129 30.492H52.0889C52.0889 30.303 52.1739 30.133 52.1739 29.934H52.1999C52.2089 29.953 52.2379 29.972 52.2279 29.981C52.1984 30.0855 52.1826 30.1934 52.1809 30.302C52.1809 30.359 52.2279 30.415 52.2089 30.482C52.1889 30.5471 52.1761 30.6142 52.1709 30.682C52.1618 30.6513 52.1554 30.6199 52.1519 30.588L52.0519 30.579C52.0429 30.636 52.1179 30.692 52.1089 30.74C52.0989 30.75 52.0899 30.75 52.0709 30.759L51.7589 30.305C51.5129 29.946 51.2669 29.587 51.0219 29.218C50.9583 29.1276 50.9015 29.0327 50.8519 28.934C50.5591 28.4313 50.2337 27.9483 49.8779 27.488C49.6039 27.138 49.3859 26.76 49.1309 26.388C48.8949 26.038 48.6579 25.698 48.4219 25.348C48.3369 25.235 48.2329 25.131 48.1569 25.008C47.9109 24.62 47.6939 24.223 47.4479 23.836C47.2399 23.515 47.0129 23.203 46.7959 22.891C46.7199 22.791 46.6449 22.674 46.5689 22.56C46.557 22.54 46.5505 22.5173 46.5499 22.494C46.5309 22.286 46.5119 22.078 46.5029 21.88C46.4939 21.682 46.5219 21.502 46.5219 21.303V21.133C46.5219 21.086 46.5309 21.048 46.5309 21.001C46.5399 20.991 46.5499 20.973 46.5589 20.963C46.2849 20.963 46.0009 20.954 45.7269 20.963C45.6487 20.9665 45.5709 20.9499 45.5009 20.9149C45.4309 20.8799 45.371 20.8276 45.3269 20.763C44.9929 20.3459 44.6805 19.912 44.3909 19.463C44.0979 19.047 43.7909 18.641 43.4909 18.234C43.2449 17.903 42.9999 17.582 42.7539 17.251C42.4799 16.873 42.2149 16.495 41.9319 16.117C41.5919 15.663 41.2419 15.21 40.8919 14.756C40.7309 14.548 40.5519 14.35 40.3719 14.132C40.4949 14.151 40.6079 14.17 40.7219 14.179L41.1759 14.207C41.5159 14.235 41.8569 14.254 42.1969 14.302C42.4809 14.34 42.7639 14.397 43.0569 14.444C43.6796 14.5536 44.2928 14.7118 44.8909 14.917C45.2409 15.03 45.5809 15.182 45.9209 15.323C46.6805 15.638 47.4208 15.9976 48.1379 16.4C48.3405 16.5365 48.5192 16.7054 48.6669 16.9C48.9129 17.155 49.1589 17.41 49.3949 17.675C49.6689 17.987 49.9239 18.308 50.1889 18.63C50.4249 18.914 50.6709 19.197 50.9069 19.481C50.9789 19.5718 51.0457 19.6666 51.1069 19.765C51.2579 19.992 51.4279 20.209 51.5609 20.455C51.6487 20.6443 51.7212 20.8402 51.7779 21.041C51.8719 21.334 51.9669 21.618 52.0619 21.911C52.1279 22.128 52.1849 22.355 52.2319 22.582C52.2699 22.733 52.2599 22.894 52.3079 23.045C52.3649 23.245 52.3079 23.461 52.3649 23.659C52.3739 23.678 52.3839 23.706 52.3929 23.725C52.4309 23.763 52.4589 23.801 52.4029 23.857C52.3929 23.8814 52.3929 23.9087 52.4029 23.933C52.4207 23.9127 52.4365 23.8906 52.4499 23.867C52.4499 23.886 52.4589 23.895 52.4589 23.905C52.4542 23.9425 52.4542 23.9805 52.4589 24.018C52.4642 24.0415 52.4737 24.0639 52.4869 24.084C52.511 24.0635 52.5364 24.0444 52.5629 24.027C52.6367 24.3462 52.6683 24.6736 52.6569 25.001C52.6978 25.3116 52.6719 25.6273 52.5809 25.927C52.6089 25.827 52.5429 25.727 52.5709 25.634V25.639Z" fill="#DD3735"/>
<path d="M46.5631 29.3441C46.5704 29.3452 46.5771 29.3487 46.5821 29.3541L46.5721 29.3441C46.5721 29.3351 46.5721 29.3351 46.5631 29.3441ZM48.0561 38.6831C47.9564 38.7636 47.8404 38.8216 47.7161 38.8531C47.7071 38.8441 47.7071 38.8341 47.6971 38.8251C47.7971 38.7591 47.9141 38.6931 48.0181 38.6251C48.0271 38.6441 48.0461 38.6631 48.0561 38.6821V38.6831ZM30.3331 25.8751C30.4331 25.7431 30.5411 25.6101 30.6541 25.4751C30.6631 25.4841 30.7391 25.5031 30.7491 25.5131C30.6491 25.6451 30.5031 25.8251 30.3991 25.9671C30.3801 25.9481 30.3521 25.8821 30.3331 25.8731V25.8751ZM27.6491 30.5071C27.5731 30.3461 27.4981 30.1761 27.4221 30.0151C27.4486 29.9986 27.4772 29.9858 27.5071 29.9771C27.5962 30.1346 27.6721 30.2991 27.7341 30.4691C27.7066 30.4835 27.6782 30.4962 27.6491 30.5071ZM30.0591 25.9701C30.0021 26.0551 29.9461 26.1501 29.8891 26.2351C29.8801 26.2261 29.7761 26.2731 29.7661 26.2631C29.8231 26.1781 29.9661 26.0271 30.0211 25.9421C30.0319 25.9537 30.0448 25.9632 30.0591 25.9701ZM47.0441 39.0701C47.0541 39.0701 47.0541 39.0601 47.0631 39.0601C47.1349 39.0715 47.2074 39.0779 47.2801 39.0791C47.1571 39.1641 47.0801 39.1551 47.0441 39.0701ZM30.0781 26.3661C30.0902 26.3359 30.106 26.3074 30.1251 26.2811C30.1411 26.28 30.1569 26.277 30.1721 26.2721C30.2101 26.2061 30.2101 26.1591 30.2481 26.1021C30.2391 26.0931 30.2291 26.0931 30.2201 26.0831C30.1631 26.1211 30.1071 26.1681 30.0501 26.2061C30.057 26.2117 30.0624 26.2189 30.0657 26.2271C30.0691 26.2354 30.0702 26.2443 30.0691 26.2531C29.9931 26.2441 29.9691 26.2811 29.9271 26.3851C29.9171 26.4131 29.8701 26.4231 29.8271 26.4611C29.8181 26.4801 29.8081 26.5271 29.7891 26.5741L29.7991 26.5841C29.7854 26.5964 29.7695 26.6059 29.7521 26.6121C29.6951 26.6691 29.6291 26.7121 29.5721 26.7731C29.5613 26.8002 29.5549 26.8289 29.5531 26.8581C29.6191 26.7921 29.7331 26.6691 29.8181 26.5931L29.8271 26.6021C29.8651 26.5451 29.8931 26.4891 29.9271 26.4321C29.9361 26.4411 29.9361 26.4511 29.9461 26.4601C29.9181 26.5361 29.8891 26.6211 29.8611 26.6961C29.8421 26.7051 29.8141 26.7241 29.8141 26.7151C29.7761 26.7431 29.7481 26.7811 29.7141 26.8101L29.5441 26.9231C29.4491 27.0081 29.3551 27.0841 29.2511 27.1691C29.1851 27.2691 29.1191 27.3691 29.0431 27.4901C29.1561 27.4621 29.1851 27.5091 29.1751 27.6031C29.3071 27.6221 29.3171 27.5181 29.3551 27.4421C29.3651 27.4231 29.3741 27.3851 29.3931 27.3761C29.4781 27.3001 29.5731 27.2341 29.6671 27.1591C29.6833 27.1339 29.69 27.1038 29.6861 27.0741C29.6861 27.0651 29.6391 27.0651 29.6101 27.0551C29.6951 26.9601 29.8181 26.8001 29.9031 26.6961C29.9501 26.6681 29.9971 26.6301 29.9971 26.6011C29.9871 26.5011 30.0541 26.4691 30.1291 26.4311C30.1171 26.424 30.1067 26.4144 30.0986 26.4031C30.0905 26.3917 30.0849 26.3788 30.0821 26.3651L30.0781 26.3661Z" fill="#DD3735"/>
<path d="M30.267 26.2619C30.229 26.3279 30.191 26.3849 30.154 26.4509L30.1 26.4229C30.091 26.5161 30.0588 26.6055 30.0064 26.683C29.954 26.7605 29.8831 26.8238 29.8 26.8669C29.8293 26.8873 29.8645 26.8971 29.9 26.8949C29.928 26.8859 29.947 26.8379 29.966 26.8099L30.221 26.4409L30.3 26.2999L30.262 26.2619H30.267ZM27.119 30.4119C27.166 30.4119 27.214 30.4219 27.27 30.4219C27.27 30.3839 27.317 30.3939 27.317 30.3559H27.345C27.345 30.4029 27.355 30.4409 27.355 30.4879H27.155C27.145 30.4779 27.108 30.4219 27.117 30.4119H27.119ZM27.043 29.9769C27.015 29.9489 26.967 29.9199 26.967 29.8919C26.967 29.8639 26.986 29.8069 27.014 29.7599C27.033 29.8259 27.042 29.8829 27.061 29.9489C27.051 29.9579 27.043 29.9679 27.043 29.9769ZM27.279 29.3769C27.317 29.4719 27.355 29.5769 27.392 29.6699C27.3649 29.6787 27.3393 29.6915 27.316 29.7079C27.278 29.6139 27.231 29.5079 27.193 29.4149C27.2185 29.3967 27.2484 29.3838 27.279 29.3769ZM48.319 38.4129C48.3781 38.3937 48.4382 38.378 48.499 38.3659C48.4264 38.4184 48.3569 38.4751 48.291 38.5359C48.281 38.5259 48.272 38.5169 48.263 38.5169C48.282 38.4789 48.301 38.4509 48.32 38.4169L48.319 38.4129ZM36.7 18.4359C36.757 18.3979 36.8 18.3699 36.861 18.3359L36.88 18.3549C36.823 18.4309 36.78 18.5059 36.71 18.6009C36.701 18.5349 36.701 18.5009 36.691 18.4499C36.682 18.4499 36.691 18.4499 36.701 18.4409L36.7 18.4359ZM39.469 23.2189L39.743 23.0959C39.7356 23.1395 39.7323 23.1837 39.733 23.2279C39.7025 23.217 39.6705 23.2106 39.638 23.2089C39.581 23.2179 39.477 23.2939 39.43 23.3029C39.42 23.3029 39.468 23.2269 39.468 23.2179L39.469 23.2189ZM46.558 31.2339C46.577 31.3279 46.758 31.3759 46.577 31.4699C46.605 31.4889 46.634 31.4979 46.662 31.5169C46.6597 31.5312 46.6531 31.5445 46.643 31.5549C46.624 31.5649 46.586 31.5829 46.567 31.5739C46.548 31.5649 46.539 31.5359 46.539 31.5169C46.539 31.4319 46.549 31.3479 46.558 31.2339Z" fill="#DD3735"/>
<path d="M20.4728 61C20.3977 61 20.3363 60.9761 20.2885 60.9283C20.2407 60.8805 20.2168 60.8191 20.2168 60.744V54.088C20.2168 54.0129 20.2407 53.9515 20.2885 53.9037C20.3363 53.8559 20.3977 53.832 20.4728 53.832H23.34C23.9066 53.832 24.3981 53.9207 24.8146 54.0982C25.2378 54.2689 25.5655 54.5283 25.7976 54.8765C26.0365 55.2246 26.156 55.665 26.156 56.1974C26.156 56.7231 26.0365 57.1566 25.7976 57.4979C25.5655 57.8393 25.2378 58.0918 24.8146 58.2557C24.3981 58.4195 23.9066 58.5014 23.34 58.5014H22.1214V60.744C22.1214 60.8191 22.0941 60.8805 22.0395 60.9283C21.9917 60.9761 21.9303 61 21.8552 61H20.4728ZM22.0907 57.0883H23.2888C23.5823 57.0883 23.8145 57.0132 23.9851 56.863C24.1626 56.7129 24.2514 56.4842 24.2514 56.177C24.2514 55.9175 24.1763 55.6991 24.0261 55.5216C23.8759 55.3441 23.6301 55.2554 23.2888 55.2554H22.0907V57.0883ZM29.4832 61.1024C28.9098 61.1024 28.4251 61.0102 28.0291 60.8259C27.64 60.6416 27.3396 60.3788 27.128 60.0374C26.9232 59.6893 26.8071 59.2763 26.7798 58.7984C26.773 58.6619 26.7696 58.5083 26.7696 58.3376C26.7696 58.1601 26.773 58.0065 26.7798 57.8768C26.8071 57.3921 26.93 56.9791 27.1485 56.6378C27.3669 56.2964 27.6707 56.0336 28.0598 55.8493C28.4558 55.665 28.9302 55.5728 29.4832 55.5728C30.043 55.5728 30.5174 55.665 30.9066 55.8493C31.3025 56.0336 31.6097 56.2964 31.8282 56.6378C32.0466 56.9791 32.1695 57.3921 32.1968 57.8768C32.2036 58.0065 32.207 58.1601 32.207 58.3376C32.207 58.5083 32.2036 58.6619 32.1968 58.7984C32.1695 59.2763 32.05 59.6893 31.8384 60.0374C31.6336 60.3788 31.3332 60.6416 30.9373 60.8259C30.5482 61.0102 30.0635 61.1024 29.4832 61.1024ZM29.4832 59.8531C29.7904 59.8531 30.0123 59.761 30.1488 59.5766C30.2922 59.3923 30.3741 59.1158 30.3946 58.7472C30.4014 58.6448 30.4048 58.5083 30.4048 58.3376C30.4048 58.1669 30.4014 58.0304 30.3946 57.928C30.3741 57.5662 30.2922 57.2931 30.1488 57.1088C30.0123 56.9177 29.7904 56.8221 29.4832 56.8221C29.1828 56.8221 28.961 56.9177 28.8176 57.1088C28.6742 57.2931 28.5957 57.5662 28.5821 57.928C28.5753 58.0304 28.5718 58.1669 28.5718 58.3376C28.5718 58.5083 28.5753 58.6448 28.5821 58.7472C28.5957 59.1158 28.6742 59.3923 28.8176 59.5766C28.961 59.761 29.1828 59.8531 29.4832 59.8531ZM35.4055 61.1024C34.9618 61.1024 34.5829 61.0546 34.2689 60.959C33.9617 60.8566 33.7091 60.7338 33.5111 60.5904C33.32 60.447 33.1766 60.3003 33.081 60.1501C32.9855 59.9931 32.9343 59.8599 32.9274 59.7507C32.9206 59.6756 32.9445 59.6142 32.9991 59.5664C33.0537 59.5118 33.1118 59.4845 33.1732 59.4845H34.3406C34.361 59.4845 34.3781 59.4879 34.3918 59.4947C34.4054 59.5015 34.4259 59.5152 34.4532 59.5357C34.5419 59.5835 34.6307 59.6449 34.7194 59.72C34.8082 59.7883 34.9106 59.8497 35.0266 59.9043C35.1427 59.9589 35.2826 59.9862 35.4465 59.9862C35.6376 59.9862 35.7981 59.9487 35.9278 59.8736C36.0575 59.7985 36.1223 59.6859 36.1223 59.5357C36.1223 59.4265 36.0916 59.3377 36.0302 59.2694C35.9687 59.1943 35.8424 59.1227 35.6513 59.0544C35.467 58.9861 35.1871 58.9179 34.8116 58.8496C34.4566 58.7677 34.146 58.6619 33.8798 58.5322C33.6135 58.3956 33.4087 58.2215 33.2654 58.0099C33.122 57.7915 33.0503 57.5286 33.0503 57.2214C33.0503 56.9484 33.1391 56.6855 33.3166 56.433C33.4941 56.1804 33.7535 55.9756 34.0948 55.8186C34.4361 55.6547 34.856 55.5728 35.3543 55.5728C35.7503 55.5728 36.0916 55.6206 36.3783 55.7162C36.6719 55.8049 36.9176 55.921 37.1156 56.0643C37.3204 56.2077 37.474 56.3545 37.5764 56.5046C37.6788 56.6548 37.7334 56.7914 37.7402 56.9142C37.7471 56.9825 37.7266 57.0439 37.6788 57.0986C37.631 57.1463 37.5764 57.1702 37.515 57.1702H36.45C36.4227 57.1702 36.3954 57.1668 36.3681 57.16C36.3408 57.1463 36.3169 57.1327 36.2964 57.119C36.2145 57.0781 36.1326 57.0235 36.0506 56.9552C35.9687 56.8869 35.8731 56.8255 35.7639 56.7709C35.6547 56.7163 35.5182 56.689 35.3543 56.689C35.17 56.689 35.0266 56.7299 34.9242 56.8118C34.8218 56.8938 34.7706 56.9996 34.7706 57.1293C34.7706 57.218 34.7979 57.2999 34.8526 57.375C34.914 57.4501 35.0335 57.5184 35.211 57.5798C35.3953 57.6413 35.6786 57.7095 36.0609 57.7846C36.5319 57.8597 36.9074 57.9826 37.1873 58.1533C37.4672 58.3171 37.6651 58.5117 37.7812 58.737C37.8973 58.9554 37.9553 59.1875 37.9553 59.4333C37.9553 59.761 37.8563 60.0511 37.6583 60.3037C37.4672 60.5563 37.1805 60.7542 36.7982 60.8976C36.4159 61.0341 35.9517 61.1024 35.4055 61.1024ZM41.568 61C41.1311 61 40.7522 60.9317 40.4314 60.7952C40.1173 60.6518 39.875 60.4334 39.7043 60.1398C39.5337 59.8395 39.4483 59.4538 39.4483 58.9827V57.0166H38.6496C38.5745 57.0166 38.5097 56.9927 38.455 56.945C38.4073 56.8972 38.3834 56.8357 38.3834 56.7606V55.9312C38.3834 55.8561 38.4073 55.7947 38.455 55.7469C38.5097 55.6991 38.5745 55.6752 38.6496 55.6752H39.4483V53.9856C39.4483 53.9105 39.4722 53.8491 39.52 53.8013C39.5746 53.7535 39.6361 53.7296 39.7043 53.7296H40.8922C40.9673 53.7296 41.0287 53.7535 41.0765 53.8013C41.1243 53.8491 41.1482 53.9105 41.1482 53.9856V55.6752H42.4282C42.5033 55.6752 42.5647 55.6991 42.6125 55.7469C42.6603 55.7947 42.6842 55.8561 42.6842 55.9312V56.7606C42.6842 56.8357 42.6603 56.8972 42.6125 56.945C42.5647 56.9927 42.5033 57.0166 42.4282 57.0166H41.1482V58.8394C41.1482 59.0715 41.1925 59.2558 41.2813 59.3923C41.37 59.5289 41.5202 59.5971 41.7318 59.5971H42.5203C42.5954 59.5971 42.6569 59.621 42.7046 59.6688C42.7524 59.7166 42.7763 59.778 42.7763 59.8531V60.744C42.7763 60.8191 42.7524 60.8805 42.7046 60.9283C42.6569 60.9761 42.5954 61 42.5203 61H41.568ZM46.0715 61.1024C45.5663 61.1024 45.1192 61.0102 44.7301 60.8259C44.341 60.6416 44.0303 60.3754 43.7982 60.0272C43.573 59.6722 43.4501 59.249 43.4296 58.7574C43.4228 58.6482 43.4194 58.5117 43.4194 58.3478C43.4194 58.1772 43.4228 58.0372 43.4296 57.928C43.4501 57.4297 43.573 57.0064 43.7982 56.6582C44.0235 56.3033 44.3307 56.0336 44.7198 55.8493C45.1158 55.665 45.5663 55.5728 46.0715 55.5728C46.5426 55.5728 46.9453 55.6411 47.2798 55.7776C47.6143 55.9073 47.8874 56.0711 48.099 56.2691C48.3107 56.4671 48.4677 56.6719 48.5701 56.8835C48.6793 57.0883 48.7373 57.2692 48.7442 57.4262C48.751 57.4945 48.7271 57.5559 48.6725 57.6106C48.6179 57.6583 48.5564 57.6822 48.4882 57.6822H47.1877C47.1126 57.6822 47.0546 57.6652 47.0136 57.631C46.9726 57.5969 46.9351 57.5457 46.901 57.4774C46.819 57.2658 46.7132 57.1156 46.5835 57.0269C46.4606 56.9381 46.3002 56.8938 46.1022 56.8938C45.8292 56.8938 45.6175 56.9825 45.4674 57.16C45.324 57.3375 45.2455 57.6106 45.2318 57.9792C45.225 58.2523 45.225 58.4946 45.2318 58.7062C45.2455 59.0817 45.324 59.3548 45.4674 59.5254C45.6175 59.6961 45.8292 59.7814 46.1022 59.7814C46.3139 59.7814 46.4811 59.7371 46.604 59.6483C46.7269 59.5596 46.8259 59.4094 46.901 59.1978C46.9351 59.1295 46.9726 59.0783 47.0136 59.0442C47.0546 59.01 47.1126 58.993 47.1877 58.993H48.4882C48.5564 58.993 48.6179 59.0203 48.6725 59.0749C48.7271 59.1227 48.751 59.1807 48.7442 59.249C48.7373 59.365 48.7032 59.5015 48.6418 59.6586C48.5803 59.8087 48.4847 59.9692 48.355 60.1398C48.2253 60.3105 48.0547 60.4709 47.843 60.6211C47.6382 60.7645 47.3891 60.8805 47.0955 60.9693C46.802 61.058 46.4606 61.1024 46.0715 61.1024ZM51.8555 61.1024C51.4118 61.1024 51.0329 61.0546 50.7189 60.959C50.4117 60.8566 50.1591 60.7338 49.9611 60.5904C49.77 60.447 49.6266 60.3003 49.531 60.1501C49.4355 59.9931 49.3843 59.8599 49.3774 59.7507C49.3706 59.6756 49.3945 59.6142 49.4491 59.5664C49.5037 59.5118 49.5618 59.4845 49.6232 59.4845H50.7906C50.811 59.4845 50.8281 59.4879 50.8418 59.4947C50.8554 59.5015 50.8759 59.5152 50.9032 59.5357C50.9919 59.5835 51.0807 59.6449 51.1694 59.72C51.2582 59.7883 51.3606 59.8497 51.4766 59.9043C51.5927 59.9589 51.7326 59.9862 51.8965 59.9862C52.0876 59.9862 52.2481 59.9487 52.3778 59.8736C52.5075 59.7985 52.5723 59.6859 52.5723 59.5357C52.5723 59.4265 52.5416 59.3377 52.4802 59.2694C52.4187 59.1943 52.2924 59.1227 52.1013 59.0544C51.917 58.9861 51.6371 58.9179 51.2616 58.8496C50.9066 58.7677 50.596 58.6619 50.3298 58.5322C50.0635 58.3956 49.8587 58.2215 49.7154 58.0099C49.572 57.7915 49.5003 57.5286 49.5003 57.2214C49.5003 56.9484 49.5891 56.6855 49.7666 56.433C49.9441 56.1804 50.2035 55.9756 50.5448 55.8186C50.8861 55.6547 51.306 55.5728 51.8043 55.5728C52.2003 55.5728 52.5416 55.6206 52.8283 55.7162C53.1219 55.8049 53.3676 55.921 53.5656 56.0643C53.7704 56.2077 53.924 56.3545 54.0264 56.5046C54.1288 56.6548 54.1834 56.7914 54.1902 56.9142C54.1971 56.9825 54.1766 57.0439 54.1288 57.0986C54.081 57.1463 54.0264 57.1702 53.965 57.1702H52.9C52.8727 57.1702 52.8454 57.1668 52.8181 57.16C52.7908 57.1463 52.7669 57.1327 52.7464 57.119C52.6645 57.0781 52.5826 57.0235 52.5006 56.9552C52.4187 56.8869 52.3231 56.8255 52.2139 56.7709C52.1047 56.7163 51.9682 56.689 51.8043 56.689C51.62 56.689 51.4766 56.7299 51.3742 56.8118C51.2718 56.8938 51.2206 56.9996 51.2206 57.1293C51.2206 57.218 51.2479 57.2999 51.3026 57.375C51.364 57.4501 51.4835 57.5184 51.661 57.5798C51.8453 57.6413 52.1286 57.7095 52.5109 57.7846C52.9819 57.8597 53.3574 57.9826 53.6373 58.1533C53.9172 58.3171 54.1151 58.5117 54.2312 58.737C54.3473 58.9554 54.4053 59.1875 54.4053 59.4333C54.4053 59.761 54.3063 60.0511 54.1083 60.3037C53.9172 60.5563 53.6305 60.7542 53.2482 60.8976C52.8659 61.0341 52.4017 61.1024 51.8555 61.1024ZM57.5155 61.1024C57.0718 61.1024 56.6929 61.0546 56.3789 60.959C56.0717 60.8566 55.8191 60.7338 55.6211 60.5904C55.43 60.447 55.2866 60.3003 55.191 60.1501C55.0955 59.9931 55.0443 59.8599 55.0374 59.7507C55.0306 59.6756 55.0545 59.6142 55.1091 59.5664C55.1637 59.5118 55.2218 59.4845 55.2832 59.4845H56.4506C56.471 59.4845 56.4881 59.4879 56.5018 59.4947C56.5154 59.5015 56.5359 59.5152 56.5632 59.5357C56.6519 59.5835 56.7407 59.6449 56.8294 59.72C56.9182 59.7883 57.0206 59.8497 57.1366 59.9043C57.2527 59.9589 57.3926 59.9862 57.5565 59.9862C57.7476 59.9862 57.9081 59.9487 58.0378 59.8736C58.1675 59.7985 58.2323 59.6859 58.2323 59.5357C58.2323 59.4265 58.2016 59.3377 58.1402 59.2694C58.0787 59.1943 57.9524 59.1227 57.7613 59.0544C57.577 58.9861 57.2971 58.9179 56.9216 58.8496C56.5666 58.7677 56.256 58.6619 55.9898 58.5322C55.7235 58.3956 55.5187 58.2215 55.3754 58.0099C55.232 57.7915 55.1603 57.5286 55.1603 57.2214C55.1603 56.9484 55.2491 56.6855 55.4266 56.433C55.6041 56.1804 55.8635 55.9756 56.2048 55.8186C56.5461 55.6547 56.966 55.5728 57.4643 55.5728C57.8603 55.5728 58.2016 55.6206 58.4883 55.7162C58.7819 55.8049 59.0276 55.921 59.2256 56.0643C59.4304 56.2077 59.584 56.3545 59.6864 56.5046C59.7888 56.6548 59.8434 56.7914 59.8502 56.9142C59.8571 56.9825 59.8366 57.0439 59.7888 57.0986C59.741 57.1463 59.6864 57.1702 59.625 57.1702H58.56C58.5327 57.1702 58.5054 57.1668 58.4781 57.16C58.4508 57.1463 58.4269 57.1327 58.4064 57.119C58.3245 57.0781 58.2426 57.0235 58.1606 56.9552C58.0787 56.8869 57.9831 56.8255 57.8739 56.7709C57.7647 56.7163 57.6282 56.689 57.4643 56.689C57.28 56.689 57.1366 56.7299 57.0342 56.8118C56.9318 56.8938 56.8806 56.9996 56.8806 57.1293C56.8806 57.218 56.9079 57.2999 56.9626 57.375C57.024 57.4501 57.1435 57.5184 57.321 57.5798C57.5053 57.6413 57.7886 57.7095 58.1709 57.7846C58.6419 57.8597 59.0174 57.9826 59.2973 58.1533C59.5772 58.3171 59.7751 58.5117 59.8912 58.737C60.0073 58.9554 60.0653 59.1875 60.0653 59.4333C60.0653 59.761 59.9663 60.0511 59.7683 60.3037C59.5772 60.5563 59.2905 60.7542 58.9082 60.8976C58.5259 61.0341 58.0617 61.1024 57.5155 61.1024Z" fill="#E5E5E5"/>
</g>
<defs>
<filter id="filter0_d_601_5352" x="0" y="0" width="80" height="80" filterUnits="userSpaceOnUse" color-interpolation-filters="sRGB">
<feFlood flood-opacity="0" result="BackgroundImageFix"/>
<feColorMatrix in="SourceAlpha" type="matrix" values="0 0 0 0 0 0 0 0 0 0 0 0 0 0 0 0 0 0 127 0" result="hardAlpha"/>
<feOffset dy="2"/>
<feGaussianBlur stdDeviation="4"/>
<feColorMatrix type="matrix" values="0 0 0 0 0 0 0 0 0 0 0 0 0 0 0 0 0 0 0.75 0"/>
<feBlend mode="normal" in2="BackgroundImageFix" result="effect1_dropShadow_601_5352"/>
<feBlend mode="normal" in="SourceGraphic" in2="effect1_dropShadow_601_5352" result="shape"/>
</filter>
</defs>
</svg>
