<svg width="80" height="80" viewBox="0 0 80 80" fill="none" xmlns="http://www.w3.org/2000/svg">
<g filter="url(#filter0_d_603_777)">
<rect x="8" y="6" width="64" height="64" rx="5" fill="#212529"/>
<g clip-path="url(#clip0_603_777)">
<path d="M55.395 30.1619C55.209 29.5985 54.7216 29.206 54.0912 29.1118C53.794 29.0674 53.4536 29.0863 53.0509 29.1694C52.3489 29.3142 51.828 29.3693 51.4479 29.3801C52.8826 26.9576 54.0493 24.1951 54.7209 21.5948C55.8069 17.3901 55.2266 15.4746 54.5484 14.6081C52.7537 12.3149 50.1352 11.0829 46.976 11.0451C45.2909 11.0245 43.8115 11.3573 43.0398 11.5965C42.3212 11.4698 41.5485 11.399 40.7378 11.3859C39.2183 11.3616 37.8756 11.6929 36.7284 12.3737C36.0931 12.159 35.0738 11.8562 33.8966 11.6629C31.1278 11.2083 28.8963 11.5626 27.2641 12.7156C25.2877 14.1118 24.3714 16.5375 24.5409 19.9254C24.5946 21.001 25.1964 24.2737 26.1437 27.3775C26.6882 29.1614 27.2689 30.6429 27.8695 31.7811C28.7212 33.395 29.6325 34.3455 30.6557 34.6867C31.2292 34.8779 32.2711 35.0116 33.3671 34.099C33.506 34.2672 33.6912 34.4344 33.9372 34.5896C34.2495 34.7866 34.6315 34.9475 35.0129 35.0429C36.3876 35.3866 37.6753 35.3006 38.7738 34.819C38.7805 35.0143 38.7858 35.201 38.7902 35.3622C38.7975 35.6237 38.8047 35.88 38.8143 36.1197C38.8794 37.7409 38.9896 39.0014 39.3164 39.8833C39.3343 39.9319 39.3585 40.0058 39.384 40.0841C39.547 40.5833 39.8197 41.4189 40.5131 42.0734C41.2314 42.7513 42.1001 42.9592 42.8957 42.9592C43.2948 42.9592 43.6755 42.9068 44.0094 42.8353C45.1998 42.5802 46.5517 42.1915 47.5296 40.7991C48.4541 39.4827 48.9036 37.5 48.9849 34.3759C48.9954 34.2877 49.0052 34.2033 49.0146 34.1229C49.0209 34.0687 49.0273 34.0132 49.0339 33.9579L49.2517 33.977L49.3078 33.9808C50.5202 34.036 52.0027 33.7789 52.9131 33.356C53.6325 33.0221 55.9378 31.8052 55.395 30.1619Z" fill="black"/>
<path d="M53.3221 30.4815C49.7172 31.2251 49.4694 30.0046 49.4694 30.0046C53.2755 24.3569 54.8666 17.1881 53.4935 15.4335C49.7477 10.6475 43.2634 12.911 43.1552 12.9697L43.1204 12.976C42.4082 12.8281 41.6112 12.74 40.7154 12.7254C39.0842 12.6987 37.847 13.153 36.9081 13.865C36.9081 13.865 25.3408 9.09976 25.8788 19.8582C25.9932 22.147 29.1593 37.1762 32.9356 32.6367C34.3158 30.9768 35.6494 29.5732 35.6494 29.5732C36.3118 30.0132 37.1047 30.2377 37.936 30.1571L38.0006 30.1023C37.9805 30.3084 37.9897 30.5099 38.0265 30.7486C37.0536 31.8355 37.3395 32.0263 35.3948 32.4267C33.427 32.8322 34.583 33.5542 35.3377 33.7429C36.2527 33.9717 38.3696 34.2959 39.7999 32.2936L39.7429 32.522C40.1241 32.8273 40.3917 34.5079 40.3469 36.0313C40.302 37.5548 40.2721 38.6008 40.5724 39.4177C40.8727 40.2347 41.1721 42.0729 43.7286 41.5251C45.8648 41.0673 46.9718 39.881 47.1258 37.9021C47.2351 36.4953 47.4824 36.7033 47.498 35.4455L47.6964 34.85C47.9251 32.943 47.7327 32.3278 49.0488 32.6139L49.3687 32.642C50.3373 32.6861 51.6051 32.4862 52.3492 32.1404C53.9515 31.3968 54.9017 30.1553 53.3219 30.4815H53.3221Z" fill="#336791"/>
<path d="M37.5851 20.8819C37.2604 20.8367 36.9661 20.8786 36.8173 20.9912C36.7335 21.0546 36.7076 21.1281 36.7007 21.1787C36.682 21.3126 36.7758 21.4607 36.8335 21.5371C36.9966 21.7533 37.2349 21.9019 37.4708 21.9347C37.505 21.9394 37.539 21.9417 37.5728 21.9417C37.9662 21.9417 38.3238 21.6354 38.3554 21.4093C38.3948 21.1262 37.9837 20.9374 37.5851 20.8819Z" fill="white"/>
<path d="M48.3469 20.8909C48.3159 20.669 47.9209 20.6057 47.5461 20.6578C47.1718 20.71 46.8089 20.8789 46.8392 21.1013C46.8635 21.2743 47.1758 21.5696 47.5456 21.5696C47.5767 21.5696 47.6083 21.5675 47.64 21.5631C47.8868 21.5289 48.0679 21.3721 48.1539 21.2818C48.285 21.1442 48.3607 20.9907 48.3469 20.8909Z" fill="white"/>
<path d="M54.5216 30.3972C54.3842 29.9815 53.9418 29.8477 53.2067 29.9996C51.0243 30.45 50.2427 30.1379 49.986 29.949C51.6824 27.3646 53.0779 24.2409 53.8308 21.3263C54.1874 19.9457 54.3844 18.6635 54.4005 17.6185C54.4183 16.4714 54.223 15.6285 53.82 15.1136C52.1955 13.0378 49.8113 11.9244 46.9252 11.8938C44.9411 11.8715 43.2648 12.3793 42.9398 12.5221C42.2554 12.3519 41.5093 12.2474 40.6971 12.234C39.2076 12.21 37.9202 12.5666 36.8542 13.2934C36.3912 13.1211 35.1945 12.7103 33.7312 12.4746C31.2012 12.0672 29.1908 12.3759 27.7561 13.3923C26.0442 14.6051 25.2539 16.7731 25.4071 19.8358C25.4586 20.8663 26.0457 24.0362 26.9723 27.072C28.1919 31.0676 29.5176 33.3296 30.9126 33.7949C31.0759 33.8493 31.2642 33.8875 31.4718 33.8875C31.9806 33.8875 32.6045 33.6581 33.2536 32.8777C34.3318 31.5806 35.3384 30.4937 35.7095 30.0987C36.2579 30.3931 36.8602 30.5575 37.4764 30.5739C37.4775 30.5901 37.4792 30.6062 37.4806 30.6222C37.357 30.7689 37.2556 30.8974 37.1691 31.0071C36.7422 31.549 36.6534 31.6618 35.2792 31.9448C34.8883 32.0254 33.85 32.2394 33.8349 32.9672C33.8183 33.7623 35.062 34.0962 35.2038 34.1316C35.6976 34.2552 36.1733 34.3162 36.627 34.3162C37.7305 34.3161 38.7015 33.9535 39.4775 33.2519C39.4536 36.0865 39.5718 38.8797 39.9121 39.7308C40.1908 40.4275 40.8719 42.1302 43.023 42.13C43.3385 42.13 43.686 42.0934 44.0682 42.0114C46.3131 41.5301 47.288 40.5379 47.6651 38.3504C47.8669 37.1814 48.2133 34.3897 48.3761 32.8923C48.7199 32.9995 49.1625 33.0486 49.6409 33.0485C50.6387 33.0485 51.7901 32.8365 52.5122 32.5013C53.3232 32.1247 54.787 31.2002 54.5216 30.3972ZM49.1754 20.2783C49.168 20.7204 49.1071 21.1217 49.0426 21.5406C48.9733 21.9912 48.9015 22.457 48.8834 23.0225C48.8656 23.5728 48.9343 24.1449 49.0008 24.6982C49.1351 25.8157 49.2729 26.9663 48.7394 28.1016C48.6564 27.9543 48.5764 27.7936 48.503 27.6157C48.4367 27.4549 48.2928 27.1967 48.0935 26.8393C47.3178 25.4484 45.5014 22.191 46.4312 20.8618C46.7081 20.466 47.411 20.0593 49.1754 20.2783ZM47.0368 12.789C49.6227 12.8461 51.6682 13.8135 53.1165 15.6641C54.2273 17.0836 53.0041 23.5427 49.4632 29.1149C49.4282 29.0704 49.3926 29.0256 49.3557 28.9796C49.341 28.9612 49.3261 28.9425 49.311 28.9235C50.226 27.4124 50.047 25.9173 49.8878 24.5916C49.8223 24.0476 49.7606 23.5338 49.7763 23.0512C49.7925 22.5395 49.8602 22.1009 49.9255 21.6766C50.006 21.1538 50.0878 20.6129 50.0652 19.9751C50.082 19.9083 50.0889 19.8292 50.08 19.7354C50.0224 19.1238 49.3243 17.2938 47.9012 15.6371C47.1228 14.7312 45.9876 13.7172 44.4377 13.0333C45.1044 12.8951 46.0161 12.7663 47.0368 12.789ZM32.5667 32.3066C31.8516 33.1664 31.3577 33.0016 31.1953 32.9475C30.137 32.5945 28.9092 30.358 27.8267 26.8113C26.8899 23.7424 26.3425 20.6565 26.2992 19.7912C26.1624 17.0545 26.8258 15.1472 28.271 14.1222C30.623 12.4543 34.49 13.4526 36.0438 13.959C36.0215 13.981 35.9982 14.0016 35.9761 14.024C33.4264 16.5991 33.4869 20.9986 33.4931 21.2675C33.4929 21.3713 33.5015 21.5182 33.5135 21.7203C33.5574 22.4602 33.639 23.8374 33.4209 25.3971C33.2182 26.8464 33.6649 28.265 34.6464 29.2891C34.7481 29.3951 34.8541 29.4946 34.9637 29.5883C34.5268 30.0562 33.5773 31.0908 32.5667 32.3066ZM35.2914 28.671C34.5003 27.8456 34.1411 26.6975 34.3056 25.5208C34.5359 23.8732 34.4509 22.4383 34.4052 21.6674C34.3988 21.5595 34.3932 21.465 34.3898 21.3904C34.7623 21.0602 36.4885 20.1352 37.7194 20.4173C38.2813 20.546 38.6235 20.9285 38.7658 21.5865C39.5024 24.9929 38.8633 26.4127 38.3499 27.5535C38.244 27.7886 38.1441 28.0108 38.0586 28.2407L37.9925 28.4183C37.8249 28.8676 37.6691 29.2852 37.5725 29.6819C36.7316 29.6793 35.9135 29.3201 35.2914 28.671ZM35.4205 33.265C35.175 33.2036 34.9541 33.0971 34.8245 33.0087C34.9327 32.9578 35.1254 32.8885 35.4594 32.8197C37.0761 32.4869 37.3257 32.252 37.8709 31.5598C37.9959 31.4011 38.1376 31.2211 38.3338 31.002L38.334 31.0017C38.6264 30.6745 38.76 30.73 39.0024 30.8305C39.1989 30.9118 39.3903 31.1581 39.4679 31.4291C39.5046 31.5571 39.5459 31.8001 39.4109 31.9891C38.272 33.5837 36.6124 33.5632 35.4205 33.265ZM43.8809 41.138C41.9032 41.5618 41.203 40.5527 40.7416 39.3991C40.4437 38.6543 40.2974 35.2959 40.4012 31.5873C40.4026 31.5379 40.3956 31.4902 40.382 31.4454C40.3701 31.3589 40.3519 31.2714 40.3267 31.1834C40.1722 30.6437 39.7959 30.1923 39.3444 30.0052C39.165 29.9309 38.8358 29.7945 38.4401 29.8957C38.5245 29.5481 38.6709 29.1556 38.8294 28.7305L38.896 28.5516C38.971 28.35 39.0649 28.1412 39.1644 27.9202C39.7017 26.7264 40.4376 25.0914 39.639 21.3977C39.3398 20.0142 38.3408 19.3386 36.8263 19.4955C35.9183 19.5894 35.0877 19.9558 34.6735 20.1658C34.5844 20.211 34.5029 20.2545 34.4268 20.297C34.5424 18.903 34.9793 16.298 36.6135 14.6498C37.6424 13.6121 39.0128 13.0997 40.6824 13.1273C43.9721 13.1811 46.0816 14.8694 47.2722 16.2762C48.2981 17.4885 48.8536 18.7097 49.0753 19.3683C47.4081 19.1988 46.2741 19.5279 45.6993 20.3497C44.4487 22.1373 46.3834 25.6069 47.3133 27.2744C47.4837 27.5801 47.6309 27.8441 47.6772 27.9564C47.98 28.6902 48.372 29.1801 48.6582 29.5378C48.746 29.6473 48.8311 29.7536 48.8958 29.8464C48.3909 29.992 47.4838 30.3284 47.5664 32.0097C47.4998 32.8533 47.0257 36.8032 46.7849 38.1987C46.467 40.0423 45.7885 40.729 43.8809 41.138ZM52.136 31.6911C51.6197 31.9308 50.7555 32.1106 49.9346 32.1492C49.028 32.1917 48.5664 32.0476 48.4579 31.9591C48.4068 30.9113 48.7969 30.8018 49.2096 30.686C49.2745 30.6677 49.3378 30.65 49.3988 30.6286C49.4368 30.6595 49.4784 30.6902 49.5239 30.7202C50.2526 31.2012 51.5524 31.2531 53.3874 30.8744C53.3941 30.8729 53.4009 30.8716 53.4075 30.8703C53.1601 31.1017 52.7365 31.4123 52.136 31.6911Z" fill="white"/>
</g>
<path d="M16.76 60C16.7013 60 16.6533 59.9813 16.616 59.944C16.5787 59.9067 16.56 59.8587 16.56 59.8V54.6C16.56 54.5413 16.5787 54.4933 16.616 54.456C16.6533 54.4187 16.7013 54.4 16.76 54.4H19C19.4427 54.4 19.8267 54.4693 20.152 54.608C20.4827 54.7413 20.7387 54.944 20.92 55.216C21.1067 55.488 21.2 55.832 21.2 56.248C21.2 56.6587 21.1067 56.9973 20.92 57.264C20.7387 57.5307 20.4827 57.728 20.152 57.856C19.8267 57.984 19.4427 58.048 19 58.048H18.048V59.8C18.048 59.8587 18.0267 59.9067 17.984 59.944C17.9467 59.9813 17.8987 60 17.84 60H16.76ZM18.024 56.944H18.96C19.1893 56.944 19.3707 56.8853 19.504 56.768C19.6427 56.6507 19.712 56.472 19.712 56.232C19.712 56.0293 19.6533 55.8587 19.536 55.72C19.4187 55.5813 19.2267 55.512 18.96 55.512H18.024V56.944ZM23.7994 60.08C23.3514 60.08 22.9727 60.008 22.6634 59.864C22.3594 59.72 22.1247 59.5147 21.9594 59.248C21.7994 58.976 21.7087 58.6533 21.6874 58.28C21.682 58.1733 21.6794 58.0533 21.6794 57.92C21.6794 57.7813 21.682 57.6613 21.6874 57.56C21.7087 57.1813 21.8047 56.8587 21.9754 56.592C22.146 56.3253 22.3834 56.12 22.6874 55.976C22.9967 55.832 23.3674 55.76 23.7994 55.76C24.2367 55.76 24.6074 55.832 24.9114 55.976C25.2207 56.12 25.4607 56.3253 25.6314 56.592C25.802 56.8587 25.898 57.1813 25.9194 57.56C25.9247 57.6613 25.9274 57.7813 25.9274 57.92C25.9274 58.0533 25.9247 58.1733 25.9194 58.28C25.898 58.6533 25.8047 58.976 25.6394 59.248C25.4794 59.5147 25.2447 59.72 24.9354 59.864C24.6314 60.008 24.2527 60.08 23.7994 60.08ZM23.7994 59.104C24.0394 59.104 24.2127 59.032 24.3194 58.888C24.4314 58.744 24.4954 58.528 24.5114 58.24C24.5167 58.16 24.5194 58.0533 24.5194 57.92C24.5194 57.7867 24.5167 57.68 24.5114 57.6C24.4954 57.3173 24.4314 57.104 24.3194 56.96C24.2127 56.8107 24.0394 56.736 23.7994 56.736C23.5647 56.736 23.3914 56.8107 23.2794 56.96C23.1674 57.104 23.106 57.3173 23.0954 57.6C23.09 57.68 23.0874 57.7867 23.0874 57.92C23.0874 58.0533 23.09 58.16 23.0954 58.24C23.106 58.528 23.1674 58.744 23.2794 58.888C23.3914 59.032 23.5647 59.104 23.7994 59.104ZM28.4262 60.08C28.0795 60.08 27.7835 60.0427 27.5382 59.968C27.2982 59.888 27.1009 59.792 26.9462 59.68C26.7969 59.568 26.6849 59.4533 26.6102 59.336C26.5355 59.2133 26.4955 59.1093 26.4902 59.024C26.4849 58.9653 26.5035 58.9173 26.5462 58.88C26.5889 58.8373 26.6342 58.816 26.6822 58.816H27.5942C27.6102 58.816 27.6235 58.8187 27.6342 58.824C27.6449 58.8293 27.6609 58.84 27.6822 58.856C27.7515 58.8933 27.8209 58.9413 27.8902 59C27.9595 59.0533 28.0395 59.1013 28.1302 59.144C28.2209 59.1867 28.3302 59.208 28.4582 59.208C28.6075 59.208 28.7329 59.1787 28.8342 59.12C28.9355 59.0613 28.9862 58.9733 28.9862 58.856C28.9862 58.7707 28.9622 58.7013 28.9142 58.648C28.8662 58.5893 28.7675 58.5333 28.6182 58.48C28.4742 58.4267 28.2555 58.3733 27.9622 58.32C27.6849 58.256 27.4422 58.1733 27.2342 58.072C27.0262 57.9653 26.8662 57.8293 26.7542 57.664C26.6422 57.4933 26.5862 57.288 26.5862 57.048C26.5862 56.8347 26.6555 56.6293 26.7942 56.432C26.9329 56.2347 27.1355 56.0747 27.4022 55.952C27.6689 55.824 27.9969 55.76 28.3862 55.76C28.6955 55.76 28.9622 55.7973 29.1862 55.872C29.4155 55.9413 29.6075 56.032 29.7622 56.144C29.9222 56.256 30.0422 56.3707 30.1222 56.488C30.2022 56.6053 30.2449 56.712 30.2502 56.808C30.2555 56.8613 30.2395 56.9093 30.2022 56.952C30.1649 56.9893 30.1222 57.008 30.0742 57.008H29.2422C29.2209 57.008 29.1995 57.0053 29.1782 57C29.1569 56.9893 29.1382 56.9787 29.1222 56.968C29.0582 56.936 28.9942 56.8933 28.9302 56.84C28.8662 56.7867 28.7915 56.7387 28.7062 56.696C28.6209 56.6533 28.5142 56.632 28.3862 56.632C28.2422 56.632 28.1302 56.664 28.0502 56.728C27.9702 56.792 27.9302 56.8747 27.9302 56.976C27.9302 57.0453 27.9515 57.1093 27.9942 57.168C28.0422 57.2267 28.1355 57.28 28.2742 57.328C28.4182 57.376 28.6395 57.4293 28.9382 57.488C29.3062 57.5467 29.5995 57.6427 29.8182 57.776C30.0369 57.904 30.1915 58.056 30.2822 58.232C30.3729 58.4027 30.4182 58.584 30.4182 58.776C30.4182 59.032 30.3409 59.2587 30.1862 59.456C30.0369 59.6533 29.8129 59.808 29.5142 59.92C29.2155 60.0267 28.8529 60.08 28.4262 60.08ZM33.2406 60C32.8993 60 32.6033 59.9467 32.3526 59.84C32.1073 59.728 31.918 59.5573 31.7846 59.328C31.6513 59.0933 31.5846 58.792 31.5846 58.424V56.888H30.9606C30.902 56.888 30.8513 56.8693 30.8086 56.832C30.7713 56.7947 30.7526 56.7467 30.7526 56.688V56.04C30.7526 55.9813 30.7713 55.9333 30.8086 55.896C30.8513 55.8587 30.902 55.84 30.9606 55.84H31.5846V54.52C31.5846 54.4613 31.6033 54.4133 31.6406 54.376C31.6833 54.3387 31.7313 54.32 31.7846 54.32H32.7126C32.7713 54.32 32.8193 54.3387 32.8566 54.376C32.894 54.4133 32.9126 54.4613 32.9126 54.52V55.84H33.9126C33.9713 55.84 34.0193 55.8587 34.0566 55.896C34.094 55.9333 34.1126 55.9813 34.1126 56.04V56.688C34.1126 56.7467 34.094 56.7947 34.0566 56.832C34.0193 56.8693 33.9713 56.888 33.9126 56.888H32.9126V58.312C32.9126 58.4933 32.9473 58.6373 33.0166 58.744C33.086 58.8507 33.2033 58.904 33.3686 58.904H33.9846C34.0433 58.904 34.0913 58.9227 34.1286 58.96C34.166 58.9973 34.1846 59.0453 34.1846 59.104V59.8C34.1846 59.8587 34.166 59.9067 34.1286 59.944C34.0913 59.9813 34.0433 60 33.9846 60H33.2406ZM36.887 61.76C36.4763 61.76 36.135 61.7067 35.863 61.6C35.5963 61.4933 35.383 61.3653 35.223 61.216C35.0683 61.0667 34.9563 60.9173 34.887 60.768C34.8177 60.624 34.7803 60.5093 34.775 60.424C34.7697 60.3653 34.7883 60.3173 34.831 60.28C34.8737 60.2427 34.9243 60.224 34.983 60.224H35.999C36.047 60.224 36.087 60.2347 36.119 60.256C36.1563 60.2827 36.1857 60.3253 36.207 60.384C36.2337 60.4427 36.2683 60.504 36.311 60.568C36.359 60.632 36.423 60.6827 36.503 60.72C36.5883 60.7627 36.703 60.784 36.847 60.784C37.007 60.784 37.1403 60.7573 37.247 60.704C37.3537 60.656 37.4337 60.5733 37.487 60.456C37.5403 60.344 37.567 60.192 37.567 60V59.464C37.4443 59.5973 37.287 59.7067 37.095 59.792C36.903 59.872 36.671 59.912 36.399 59.912C36.127 59.912 35.887 59.872 35.679 59.792C35.471 59.712 35.2977 59.592 35.159 59.432C35.0203 59.272 34.911 59.0773 34.831 58.848C34.7563 58.6187 34.711 58.3547 34.695 58.056C34.6897 57.9173 34.6897 57.7787 34.695 57.64C34.711 57.352 34.7563 57.0933 34.831 56.864C34.9057 56.6347 35.0123 56.4373 35.151 56.272C35.295 56.1067 35.471 55.9813 35.679 55.896C35.887 55.8053 36.127 55.76 36.399 55.76C36.687 55.76 36.9323 55.816 37.135 55.928C37.343 56.0347 37.5137 56.1707 37.647 56.336V56.04C37.647 55.9867 37.6657 55.9413 37.703 55.904C37.7403 55.8613 37.7883 55.84 37.847 55.84H38.767C38.8257 55.84 38.8737 55.8613 38.911 55.904C38.9537 55.9413 38.975 55.9867 38.975 56.04V59.888C38.975 60.2933 38.8923 60.6347 38.727 60.912C38.5617 61.1893 38.3243 61.4 38.015 61.544C37.7057 61.688 37.3297 61.76 36.887 61.76ZM36.831 58.872C37.0017 58.872 37.1403 58.8347 37.247 58.76C37.3537 58.6853 37.431 58.5893 37.479 58.472C37.5323 58.3547 37.5617 58.2293 37.567 58.096C37.5723 58.0373 37.575 57.9547 37.575 57.848C37.575 57.7413 37.5723 57.6613 37.567 57.608C37.5617 57.4693 37.5323 57.3413 37.479 57.224C37.431 57.1067 37.3537 57.0133 37.247 56.944C37.1403 56.8693 37.0017 56.832 36.831 56.832C36.655 56.832 36.5137 56.8693 36.407 56.944C36.3057 57.0187 36.231 57.12 36.183 57.248C36.1403 57.376 36.1137 57.5173 36.103 57.672C36.0977 57.7893 36.0977 57.9093 36.103 58.032C36.1137 58.1867 36.1403 58.328 36.183 58.456C36.231 58.584 36.3057 58.6853 36.407 58.76C36.5137 58.8347 36.655 58.872 36.831 58.872ZM40.1173 60C40.0586 60 40.0106 59.9813 39.9733 59.944C39.936 59.9067 39.9173 59.8587 39.9173 59.8V56.04C39.9173 55.9867 39.936 55.9413 39.9733 55.904C40.0106 55.8613 40.0586 55.84 40.1173 55.84H41.0373C41.096 55.84 41.144 55.8613 41.1813 55.904C41.2186 55.9413 41.2373 55.9867 41.2373 56.04V56.36C41.3813 56.1947 41.552 56.0667 41.7493 55.976C41.952 55.8853 42.1786 55.84 42.4293 55.84H42.7813C42.8346 55.84 42.88 55.8587 42.9173 55.896C42.96 55.9333 42.9813 55.9813 42.9813 56.04V56.864C42.9813 56.9173 42.96 56.9653 42.9173 57.008C42.88 57.0453 42.8346 57.064 42.7813 57.064H42.0053C41.7866 57.064 41.616 57.1253 41.4933 57.248C41.376 57.3653 41.3173 57.5333 41.3173 57.752V59.8C41.3173 59.8587 41.296 59.9067 41.2533 59.944C41.216 59.9813 41.168 60 41.1093 60H40.1173ZM45.4389 60.08C44.8095 60.08 44.3082 59.9093 43.9349 59.568C43.5615 59.2267 43.3669 58.72 43.3509 58.048C43.3509 58.0107 43.3509 57.9627 43.3509 57.904C43.3509 57.8453 43.3509 57.8 43.3509 57.768C43.3669 57.3467 43.4602 56.9867 43.6309 56.688C43.8069 56.384 44.0469 56.1547 44.3509 56C44.6602 55.84 45.0202 55.76 45.4309 55.76C45.9002 55.76 46.2869 55.8533 46.5909 56.04C46.9002 56.2267 47.1322 56.48 47.2869 56.8C47.4415 57.12 47.5189 57.4853 47.5189 57.896V58.088C47.5189 58.1467 47.4975 58.1947 47.4549 58.232C47.4175 58.2693 47.3722 58.288 47.3189 58.288H44.7589C44.7589 58.2933 44.7589 58.3013 44.7589 58.312C44.7589 58.3227 44.7589 58.3333 44.7589 58.344C44.7642 58.4987 44.7909 58.64 44.8389 58.768C44.8869 58.896 44.9615 58.9973 45.0629 59.072C45.1642 59.1467 45.2869 59.184 45.4309 59.184C45.5375 59.184 45.6255 59.168 45.6949 59.136C45.7695 59.0987 45.8309 59.0587 45.8789 59.016C45.9269 58.968 45.9642 58.928 45.9909 58.896C46.0389 58.8427 46.0762 58.8107 46.1029 58.8C46.1349 58.784 46.1829 58.776 46.2469 58.776H47.2389C47.2922 58.776 47.3349 58.792 47.3669 58.824C47.4042 58.8507 47.4202 58.8907 47.4149 58.944C47.4095 59.0347 47.3642 59.144 47.2789 59.272C47.1935 59.4 47.0682 59.528 46.9029 59.656C46.7429 59.7787 46.5402 59.88 46.2949 59.96C46.0495 60.04 45.7642 60.08 45.4389 60.08ZM44.7589 57.496H46.1109V57.48C46.1109 57.3093 46.0842 57.16 46.0309 57.032C45.9829 56.904 45.9055 56.8053 45.7989 56.736C45.6975 56.6667 45.5749 56.632 45.4309 56.632C45.2869 56.632 45.1642 56.6667 45.0629 56.736C44.9669 56.8053 44.8922 56.904 44.8389 57.032C44.7855 57.16 44.7589 57.3093 44.7589 57.48V57.496ZM50.4449 60.08C49.9115 60.08 49.4689 60.0053 49.1169 59.856C48.7649 59.7013 48.4982 59.5013 48.3169 59.256C48.1355 59.0107 48.0395 58.7493 48.0289 58.472C48.0289 58.4293 48.0449 58.392 48.0769 58.36C48.1142 58.3227 48.1569 58.304 48.2049 58.304H49.2129C49.2875 58.304 49.3435 58.3173 49.3809 58.344C49.4235 58.3707 49.4609 58.4053 49.4929 58.448C49.5355 58.528 49.5942 58.6053 49.6689 58.68C49.7489 58.7547 49.8502 58.816 49.9729 58.864C50.1009 58.9067 50.2582 58.928 50.4449 58.928C50.7542 58.928 50.9862 58.88 51.1409 58.784C51.3009 58.688 51.3809 58.5573 51.3809 58.392C51.3809 58.2747 51.3382 58.1787 51.2529 58.104C51.1675 58.024 51.0289 57.9547 50.8369 57.896C50.6502 57.832 50.3995 57.768 50.0849 57.704C49.6795 57.6187 49.3329 57.5093 49.0449 57.376C48.7622 57.2373 48.5462 57.0587 48.3969 56.84C48.2475 56.616 48.1729 56.3387 48.1729 56.008C48.1729 55.6827 48.2635 55.392 48.4449 55.136C48.6315 54.88 48.8902 54.68 49.2209 54.536C49.5515 54.392 49.9435 54.32 50.3969 54.32C50.7649 54.32 51.0875 54.368 51.3649 54.464C51.6475 54.56 51.8849 54.688 52.0769 54.848C52.2689 55.008 52.4129 55.1787 52.5089 55.36C52.6102 55.536 52.6635 55.7093 52.6689 55.88C52.6689 55.9227 52.6529 55.9627 52.6209 56C52.5889 56.032 52.5489 56.048 52.5009 56.048H51.4449C51.3862 56.048 51.3355 56.0373 51.2929 56.016C51.2502 55.9947 51.2129 55.96 51.1809 55.912C51.1489 55.7947 51.0635 55.6933 50.9249 55.608C50.7915 55.5173 50.6155 55.472 50.3969 55.472C50.1622 55.472 49.9782 55.5147 49.8449 55.6C49.7169 55.68 49.6529 55.8053 49.6529 55.976C49.6529 56.0827 49.6875 56.176 49.7569 56.256C49.8315 56.336 49.9515 56.4053 50.1169 56.464C50.2875 56.5227 50.5195 56.584 50.8129 56.648C51.2982 56.7387 51.6902 56.8533 51.9889 56.992C52.2875 57.1253 52.5062 57.3013 52.6449 57.52C52.7835 57.7333 52.8529 58.0027 52.8529 58.328C52.8529 58.6907 52.7489 59.0053 52.5409 59.272C52.3382 59.5333 52.0555 59.7333 51.6929 59.872C51.3302 60.0107 50.9142 60.08 50.4449 60.08ZM57.2218 60.52C57.1364 60.52 57.0698 60.496 57.0218 60.448C56.9791 60.4053 56.9444 60.368 56.9178 60.336L56.6458 59.976C56.4378 60.0453 56.2004 60.08 55.9338 60.08C55.4431 60.08 55.0164 60 54.6538 59.84C54.2964 59.68 54.0138 59.44 53.8058 59.12C53.6031 58.7947 53.4938 58.3893 53.4778 57.904C53.4724 57.6747 53.4698 57.4453 53.4698 57.216C53.4698 56.9867 53.4724 56.7547 53.4778 56.52C53.4938 56.04 53.6058 55.6373 53.8138 55.312C54.0218 54.9813 54.3071 54.7333 54.6698 54.568C55.0324 54.4027 55.4538 54.32 55.9338 54.32C56.4191 54.32 56.8431 54.4027 57.2057 54.568C57.5684 54.7333 57.8538 54.9813 58.0618 55.312C58.2698 55.6373 58.3818 56.04 58.3978 56.52C58.4084 56.7547 58.4138 56.9867 58.4138 57.216C58.4138 57.4453 58.4084 57.6747 58.3978 57.904C58.3658 58.5653 58.1738 59.0773 57.8218 59.44L58.4058 60.272C58.4111 60.2773 58.4164 60.288 58.4218 60.304C58.4271 60.32 58.4298 60.336 58.4298 60.352C58.4351 60.3947 58.4218 60.432 58.3898 60.464C58.3578 60.5013 58.3178 60.52 58.2698 60.52H57.2218ZM55.9338 58.928C56.2164 58.928 56.4458 58.8427 56.6218 58.672C56.8031 58.5013 56.8991 58.2293 56.9098 57.856C56.9204 57.6213 56.9258 57.4 56.9258 57.192C56.9258 56.984 56.9204 56.768 56.9098 56.544C56.9044 56.2933 56.8591 56.0907 56.7738 55.936C56.6884 55.776 56.5738 55.6587 56.4298 55.584C56.2858 55.5093 56.1204 55.472 55.9338 55.472C55.7524 55.472 55.5898 55.5093 55.4457 55.584C55.3018 55.6587 55.1871 55.776 55.1018 55.936C55.0164 56.0907 54.9711 56.2933 54.9658 56.544C54.9604 56.768 54.9578 56.984 54.9578 57.192C54.9578 57.4 54.9604 57.6213 54.9658 57.856C54.9764 58.2293 55.0698 58.5013 55.2458 58.672C55.4271 58.8427 55.6564 58.928 55.9338 58.928ZM59.5491 60C59.4904 60 59.4424 59.9813 59.4051 59.944C59.3677 59.9067 59.3491 59.8587 59.3491 59.8V54.6C59.3491 54.5413 59.3677 54.4933 59.4051 54.456C59.4424 54.4187 59.4904 54.4 59.5491 54.4H60.6051C60.6584 54.4 60.7037 54.4187 60.7411 54.456C60.7837 54.4933 60.8051 54.5413 60.8051 54.6V58.792H63.2211C63.2797 58.792 63.3277 58.8133 63.3651 58.856C63.4077 58.8933 63.4291 58.9413 63.4291 59V59.8C63.4291 59.8587 63.4077 59.9067 63.3651 59.944C63.3277 59.9813 63.2797 60 63.2211 60H59.5491Z" fill="#E5E5E5"/>
</g>
<defs>
<filter id="filter0_d_603_777" x="0" y="0" width="80" height="80" filterUnits="userSpaceOnUse" color-interpolation-filters="sRGB">
<feFlood flood-opacity="0" result="BackgroundImageFix"/>
<feColorMatrix in="SourceAlpha" type="matrix" values="0 0 0 0 0 0 0 0 0 0 0 0 0 0 0 0 0 0 127 0" result="hardAlpha"/>
<feOffset dy="2"/>
<feGaussianBlur stdDeviation="4"/>
<feColorMatrix type="matrix" values="0 0 0 0 0 0 0 0 0 0 0 0 0 0 0 0 0 0 0.75 0"/>
<feBlend mode="normal" in2="BackgroundImageFix" result="effect1_dropShadow_603_777"/>
<feBlend mode="normal" in="SourceGraphic" in2="effect1_dropShadow_603_777" result="shape"/>
</filter>
<clipPath id="clip0_603_777">
<rect width="32" height="32" fill="white" transform="translate(24 11)"/>
</clipPath>
</defs>
</svg>
