<svg width="80" height="80" viewBox="0 0 80 80" fill="none" xmlns="http://www.w3.org/2000/svg">
<g filter="url(#filter0_d_603_552)">
<rect x="8" y="6" width="64" height="64" rx="5" fill="#212529"/>
<path fill-rule="evenodd" clip-rule="evenodd" d="M27.174 37.5889C26.9972 37.5942 26.8216 37.5588 26.6607 37.4855C26.4998 37.4121 26.3579 37.3028 26.246 37.1659C26.1341 37.0177 26.0571 36.8461 26.0207 36.6639C25.9843 36.4818 25.9896 36.2938 26.036 36.1139L30.233 17.7799C30.3262 17.3999 30.5407 17.0605 30.844 16.8133C31.1474 16.5661 31.523 16.4245 31.914 16.4099H52.826C53.0027 16.4048 53.1783 16.4403 53.3391 16.5136C53.5 16.587 53.6419 16.6962 53.754 16.8329C53.8659 16.9812 53.9428 17.1528 53.9792 17.3349C54.0155 17.5171 54.0104 17.705 53.964 17.8849L49.764 36.2199C49.6708 36.5999 49.4563 36.9393 49.153 37.1865C48.8496 37.4337 48.474 37.5753 48.083 37.5899H27.174V37.5889Z" fill="url(#paint0_linear_603_552)"/>
<path fill-rule="evenodd" clip-rule="evenodd" d="M31.914 16.646H52.826C52.9724 16.64 53.1182 16.6694 53.2509 16.7316C53.3836 16.7939 53.4994 16.8871 53.5884 17.0035C53.6775 17.12 53.7372 17.2561 53.7626 17.4005C53.7879 17.5449 53.7781 17.6932 53.734 17.833L49.534 36.167C49.4512 36.4942 49.2655 36.7862 49.0043 36.9999C48.7431 37.2136 48.4201 37.3378 48.083 37.354H27.174C27.0275 37.36 26.8817 37.3307 26.749 37.2684C26.6163 37.2062 26.5005 37.1129 26.4115 36.9965C26.3224 36.8801 26.2627 36.7439 26.2374 36.5995C26.212 36.4552 26.2218 36.3068 26.266 36.167L30.466 17.833C30.5484 17.5062 30.7336 17.2145 30.9943 17.0008C31.2549 16.7871 31.5773 16.6628 31.914 16.646V16.646Z" fill="url(#paint1_linear_603_552)"/>
<path fill-rule="evenodd" clip-rule="evenodd" d="M40.04 32.5439H45.126C45.414 32.5561 45.6863 32.6792 45.8858 32.8873C46.0853 33.0954 46.1967 33.3726 46.1967 33.6609C46.1967 33.9493 46.0853 34.2265 45.8858 34.4346C45.6863 34.6427 45.414 34.7658 45.126 34.7779H40.04C39.7519 34.7658 39.4797 34.6427 39.2802 34.4346C39.0806 34.2265 38.9692 33.9493 38.9692 33.6609C38.9692 33.3726 39.0806 33.0954 39.2802 32.8873C39.4797 32.6792 39.7519 32.5561 40.04 32.5439V32.5439Z" fill="#2C5591"/>
<path fill-rule="evenodd" clip-rule="evenodd" d="M43.3391 27.5781C43.1935 27.8229 42.9907 28.0288 42.7481 28.1781L33.3091 34.9531C33.0462 35.124 32.7277 35.1876 32.4194 35.1306C32.1111 35.0737 31.8363 34.9005 31.6519 34.647C31.4674 34.3934 31.3873 34.0787 31.4281 33.7678C31.4689 33.4569 31.6275 33.1735 31.8711 32.9761L40.3831 26.8121V26.6861L35.0351 21.0001C34.8357 20.7602 34.7354 20.4533 34.7547 20.142C34.774 19.8307 34.9114 19.5385 35.1388 19.325C35.3663 19.1116 35.6666 18.9931 35.9785 18.9937C36.2904 18.9942 36.5904 19.1138 36.8171 19.3281L43.2351 26.1551C43.4075 26.3473 43.5113 26.5913 43.5301 26.8488C43.5489 27.1063 43.4817 27.3628 43.3391 27.5781Z" fill="#2C5591"/>
<path fill-rule="evenodd" clip-rule="evenodd" d="M43.1 27.342C42.9551 27.5871 42.7526 27.793 42.51 27.942L33.074 34.718C32.8111 34.8854 32.4942 34.9463 32.188 34.8882C31.8818 34.8302 31.6092 34.6576 31.4257 34.4056C31.2423 34.1536 31.1619 33.8411 31.2007 33.5318C31.2396 33.2226 31.3949 32.9398 31.635 32.741L40.148 26.577V26.45L34.8 20.761C34.5988 20.5213 34.497 20.2136 34.5156 19.9011C34.5343 19.5887 34.6719 19.2953 34.9002 19.0812C35.1285 18.8671 35.4302 18.7485 35.7432 18.75C36.0562 18.7515 36.3567 18.8728 36.583 19.089L43 25.916C43.1732 26.1086 43.2771 26.3535 43.2952 26.6118C43.3134 26.8702 43.2447 27.1272 43.1 27.342V27.342Z" fill="white"/>
<path fill-rule="evenodd" clip-rule="evenodd" d="M39.9001 32.4121H44.9861C45.2669 32.4121 45.5363 32.5237 45.7349 32.7223C45.9335 32.9209 46.0451 33.1902 46.0451 33.4711C46.0451 33.752 45.9335 34.0213 45.7349 34.2199C45.5363 34.4185 45.2669 34.5301 44.9861 34.5301H39.9001C39.6192 34.5301 39.3498 34.4185 39.1512 34.2199C38.9526 34.0213 38.8411 33.752 38.8411 33.4711C38.8411 33.1902 38.9526 32.9209 39.1512 32.7223C39.3498 32.5237 39.6192 32.4121 39.9001 32.4121V32.4121Z" fill="white"/>
<path d="M18.2396 60C18.1795 60 18.1304 59.9809 18.0921 59.9427C18.0539 59.9045 18.0348 59.8553 18.0348 59.7953V54.4718C18.0348 54.4117 18.0539 54.3625 18.0921 54.3243C18.1304 54.2861 18.1795 54.267 18.2396 54.267H20.5328C20.9859 54.267 21.3791 54.338 21.7121 54.4799C22.0506 54.6164 22.3127 54.8239 22.4984 55.1024C22.6895 55.3808 22.785 55.733 22.785 56.1589C22.785 56.5793 22.6895 56.926 22.4984 57.199C22.3127 57.472 22.0506 57.674 21.7121 57.8051C21.3791 57.9361 20.9859 58.0016 20.5328 58.0016H19.5581V59.7953C19.5581 59.8553 19.5363 59.9045 19.4926 59.9427C19.4544 59.9809 19.4053 60 19.3452 60H18.2396ZM19.5336 56.8714H20.4918C20.7266 56.8714 20.9122 56.8114 21.0487 56.6912C21.1907 56.5711 21.2617 56.3882 21.2617 56.1425C21.2617 55.935 21.2016 55.7603 21.0815 55.6184C20.9614 55.4764 20.7648 55.4054 20.4918 55.4054H19.5336V56.8714ZM25.4461 60.0819C24.9875 60.0819 24.5998 60.0082 24.2831 59.8608C23.9719 59.7133 23.7317 59.5031 23.5624 59.2301C23.3986 58.9517 23.3058 58.6214 23.284 58.2392C23.2785 58.13 23.2758 58.0071 23.2758 57.8706C23.2758 57.7286 23.2785 57.6058 23.284 57.5021C23.3058 57.1144 23.4041 56.7841 23.5788 56.5111C23.7535 56.2381 23.9965 56.0279 24.3077 55.8804C24.6244 55.733 25.0039 55.6593 25.4461 55.6593C25.8938 55.6593 26.2733 55.733 26.5845 55.8804C26.9012 56.0279 27.1469 56.2381 27.3216 56.5111C27.4963 56.7841 27.5946 57.1144 27.6165 57.5021C27.6219 57.6058 27.6247 57.7286 27.6247 57.8706C27.6247 58.0071 27.6219 58.13 27.6165 58.2392C27.5946 58.6214 27.4991 58.9517 27.3298 59.2301C27.166 59.5031 26.9258 59.7133 26.6091 59.8608C26.2979 60.0082 25.9102 60.0819 25.4461 60.0819ZM25.4461 59.0827C25.6918 59.0827 25.8693 59.009 25.9785 58.8616C26.0931 58.7142 26.1586 58.493 26.175 58.1982C26.1805 58.1163 26.1832 58.0071 26.1832 57.8706C26.1832 57.7341 26.1805 57.6249 26.175 57.543C26.1586 57.2536 26.0931 57.0352 25.9785 56.8878C25.8693 56.7349 25.6918 56.6585 25.4461 56.6585C25.2059 56.6585 25.0284 56.7349 24.9138 56.8878C24.7991 57.0352 24.7363 57.2536 24.7254 57.543C24.7199 57.6249 24.7172 57.7341 24.7172 57.8706C24.7172 58.0071 24.7199 58.1163 24.7254 58.1982C24.7363 58.493 24.7991 58.7142 24.9138 58.8616C25.0284 59.009 25.2059 59.0827 25.4461 59.0827ZM29.4897 60C29.4078 60 29.3478 59.9809 29.3096 59.9427C29.2713 59.9045 29.2413 59.8553 29.2195 59.7953L28.0401 56.0033C28.0292 55.976 28.0237 55.9487 28.0237 55.9214C28.0237 55.8722 28.0428 55.8313 28.0811 55.7985C28.1193 55.7603 28.163 55.7412 28.2121 55.7412H29.0557C29.1266 55.7412 29.1812 55.7603 29.2195 55.7985C29.2631 55.8367 29.2904 55.875 29.3014 55.9132L29.9893 58.2555L30.7264 55.9214C30.7373 55.8832 30.7619 55.8449 30.8001 55.8067C30.8438 55.763 30.9039 55.7412 30.9803 55.7412H31.5209C31.5973 55.7412 31.6546 55.763 31.6928 55.8067C31.7365 55.8449 31.7638 55.8832 31.7747 55.9214L32.5118 58.2555L33.1998 55.9132C33.2107 55.875 33.2353 55.8367 33.2735 55.7985C33.3172 55.7603 33.3745 55.7412 33.4455 55.7412H34.2891C34.3382 55.7412 34.3792 55.7603 34.4119 55.7985C34.4501 55.8313 34.4693 55.8722 34.4693 55.9214C34.4693 55.9487 34.4665 55.976 34.4611 56.0033L33.2817 59.7953C33.2653 59.8553 33.2353 59.9045 33.1916 59.9427C33.1534 59.9809 33.0933 60 33.0114 60H32.2743C32.1979 60 32.1378 59.9809 32.0942 59.9427C32.0505 59.9045 32.0204 59.8553 32.0041 59.7953L31.2506 57.5512L30.4971 59.7953C30.4807 59.8553 30.4507 59.9045 30.407 59.9427C30.3633 59.9809 30.3033 60 30.2268 60H29.4897ZM37.0021 60.0819C36.3579 60.0819 35.8446 59.9072 35.4624 59.5577C35.0802 59.2083 34.8809 58.6896 34.8646 58.0016C34.8646 57.9634 34.8646 57.9143 34.8646 57.8542C34.8646 57.7942 34.8646 57.7478 34.8646 57.715C34.8809 57.2837 34.9765 56.9151 35.1512 56.6093C35.3314 56.2981 35.5771 56.0633 35.8883 55.905C36.205 55.7412 36.5735 55.6593 36.994 55.6593C37.4744 55.6593 37.8703 55.7548 38.1815 55.9459C38.4982 56.1371 38.7357 56.3964 38.894 56.724C39.0524 57.0516 39.1315 57.4256 39.1315 57.846V58.0426C39.1315 58.1026 39.1097 58.1518 39.066 58.19C39.0278 58.2282 38.9814 58.2473 38.9268 58.2473H36.306C36.306 58.2528 36.306 58.261 36.306 58.2719C36.306 58.2828 36.306 58.2938 36.306 58.3047C36.3115 58.463 36.3388 58.6077 36.3879 58.7387C36.437 58.8698 36.5135 58.9735 36.6172 59.05C36.721 59.1264 36.8465 59.1646 36.994 59.1646C37.1032 59.1646 37.1932 59.1482 37.2642 59.1155C37.3407 59.0773 37.4035 59.0363 37.4526 58.9926C37.5017 58.9435 37.54 58.9025 37.5673 58.8698C37.6164 58.8152 37.6546 58.7824 37.6819 58.7715C37.7147 58.7551 37.7638 58.7469 37.8293 58.7469H38.8449C38.8995 58.7469 38.9432 58.7633 38.9759 58.7961C39.0142 58.8234 39.0305 58.8643 39.0251 58.9189C39.0196 59.0117 38.9732 59.1237 38.8858 59.2547C38.7985 59.3858 38.6702 59.5168 38.5009 59.6478C38.3371 59.7734 38.1296 59.8771 37.8785 59.959C37.6273 60.041 37.3352 60.0819 37.0021 60.0819ZM36.306 57.4365H37.6901V57.4201C37.6901 57.2454 37.6628 57.0926 37.6082 56.9615C37.5591 56.8305 37.4799 56.7295 37.3707 56.6585C37.267 56.5875 37.1414 56.552 36.994 56.552C36.8465 56.552 36.721 56.5875 36.6172 56.6585C36.5189 56.7295 36.4425 56.8305 36.3879 56.9615C36.3333 57.0926 36.306 57.2454 36.306 57.4201V57.4365ZM40.1041 60C40.044 60 39.9949 59.9809 39.9567 59.9427C39.9185 59.9045 39.8994 59.8553 39.8994 59.7953V55.9459C39.8994 55.8914 39.9185 55.8449 39.9567 55.8067C39.9949 55.763 40.044 55.7412 40.1041 55.7412H41.046C41.106 55.7412 41.1552 55.763 41.1934 55.8067C41.2316 55.8449 41.2507 55.8914 41.2507 55.9459V56.2736C41.3981 56.1043 41.5728 55.9732 41.7749 55.8804C41.9823 55.7876 42.2144 55.7412 42.471 55.7412H42.8314C42.886 55.7412 42.9324 55.7603 42.9706 55.7985C43.0143 55.8367 43.0361 55.8859 43.0361 55.9459V56.7895C43.0361 56.8441 43.0143 56.8933 42.9706 56.9369C42.9324 56.9752 42.886 56.9943 42.8314 56.9943H42.0369C41.8131 56.9943 41.6384 57.0571 41.5128 57.1826C41.3927 57.3028 41.3326 57.4747 41.3326 57.6986V59.7953C41.3326 59.8553 41.3108 59.9045 41.2671 59.9427C41.2289 59.9809 41.1797 60 41.1197 60H40.1041ZM45.3711 60.0819C45.0162 60.0819 44.7132 60.0437 44.462 59.9672C44.2163 59.8853 44.0143 59.7871 43.856 59.6724C43.7031 59.5577 43.5884 59.4403 43.512 59.3202C43.4355 59.1946 43.3946 59.0882 43.3891 59.0008C43.3837 58.9408 43.4028 58.8916 43.4465 58.8534C43.4901 58.8097 43.5365 58.7879 43.5857 58.7879H44.5193C44.5357 58.7879 44.5494 58.7906 44.5603 58.7961C44.5712 58.8015 44.5876 58.8124 44.6094 58.8288C44.6804 58.867 44.7514 58.9162 44.8224 58.9763C44.8934 59.0309 44.9753 59.08 45.0681 59.1237C45.1609 59.1673 45.2728 59.1892 45.4039 59.1892C45.5567 59.1892 45.6851 59.1592 45.7888 59.0991C45.8925 59.039 45.9444 58.9489 45.9444 58.8288C45.9444 58.7415 45.9198 58.6705 45.8707 58.6159C45.8216 58.5558 45.7205 58.4985 45.5677 58.4439C45.4202 58.3893 45.1964 58.3347 44.8961 58.2801C44.6122 58.2146 44.3637 58.1299 44.1508 58.0262C43.9379 57.917 43.7741 57.7778 43.6594 57.6085C43.5447 57.4338 43.4874 57.2236 43.4874 56.9779C43.4874 56.7595 43.5584 56.5493 43.7003 56.3473C43.8423 56.1452 44.0498 55.9814 44.3228 55.8559C44.5958 55.7248 44.9316 55.6593 45.3302 55.6593C45.6468 55.6593 45.9198 55.6975 46.1492 55.774C46.3839 55.8449 46.5805 55.9378 46.7388 56.0524C46.9026 56.1671 47.0255 56.2845 47.1074 56.4046C47.1893 56.5247 47.233 56.6339 47.2384 56.7322C47.2439 56.7868 47.2275 56.8359 47.1893 56.8796C47.1511 56.9178 47.1074 56.9369 47.0582 56.9369H46.2065C46.1846 56.9369 46.1628 56.9342 46.141 56.9287C46.1191 56.9178 46.1 56.9069 46.0836 56.896C46.0181 56.8632 45.9526 56.8196 45.8871 56.765C45.8216 56.7103 45.7451 56.6612 45.6578 56.6175C45.5704 56.5738 45.4612 56.552 45.3302 56.552C45.1827 56.552 45.0681 56.5848 44.9862 56.6503C44.9043 56.7158 44.8633 56.8004 44.8633 56.9042C44.8633 56.9752 44.8852 57.0407 44.9288 57.1007C44.978 57.1608 45.0735 57.2154 45.2155 57.2645C45.3629 57.3137 45.5895 57.3683 45.8953 57.4283C46.272 57.4884 46.5723 57.5867 46.7962 57.7232C47.02 57.8542 47.1784 58.0098 47.2712 58.19C47.364 58.3647 47.4104 58.5504 47.4104 58.7469C47.4104 59.009 47.3312 59.2411 47.1729 59.4431C47.02 59.6451 46.7907 59.8034 46.4849 59.9181C46.1792 60.0273 45.8079 60.0819 45.3711 60.0819ZM48.3501 60C48.29 60 48.2409 59.9809 48.2027 59.9427C48.1644 59.9045 48.1453 59.8553 48.1453 59.7953V54.3898C48.1453 54.3298 48.1644 54.2807 48.2027 54.2424C48.2409 54.2042 48.29 54.1851 48.3501 54.1851H49.3984C49.4585 54.1851 49.5076 54.2042 49.5458 54.2424C49.584 54.2807 49.6032 54.3298 49.6032 54.3898V56.2162C49.7506 56.047 49.9308 55.9132 50.1437 55.8149C50.3621 55.7112 50.6133 55.6593 50.8972 55.6593C51.2139 55.6593 51.495 55.7303 51.7407 55.8722C51.9919 56.0142 52.1885 56.2244 52.3304 56.5029C52.4724 56.7759 52.5434 57.1117 52.5434 57.5102V59.7953C52.5434 59.8553 52.5243 59.9045 52.486 59.9427C52.4478 59.9809 52.3987 60 52.3386 60H51.2821C51.2275 60 51.1784 59.9809 51.1347 59.9427C51.0965 59.9045 51.0774 59.8553 51.0774 59.7953V57.5594C51.0774 57.3028 51.0146 57.1062 50.889 56.9697C50.7689 56.8277 50.5887 56.7568 50.3484 56.7568C50.1246 56.7568 49.9444 56.8277 49.8079 56.9697C49.6714 57.1062 49.6032 57.3028 49.6032 57.5594V59.7953C49.6032 59.8553 49.584 59.9045 49.5458 59.9427C49.5076 59.9809 49.4585 60 49.3984 60H48.3501ZM55.4376 60.0819C54.7934 60.0819 54.2801 59.9072 53.8979 59.5577C53.5157 59.2083 53.3164 58.6896 53.3 58.0016C53.3 57.9634 53.3 57.9143 53.3 57.8542C53.3 57.7942 53.3 57.7478 53.3 57.715C53.3164 57.2837 53.412 56.9151 53.5867 56.6093C53.7669 56.2981 54.0126 56.0633 54.3238 55.905C54.6405 55.7412 55.009 55.6593 55.4294 55.6593C55.9099 55.6593 56.3058 55.7548 56.617 55.9459C56.9337 56.1371 57.1712 56.3964 57.3295 56.724C57.4879 57.0516 57.567 57.4256 57.567 57.846V58.0426C57.567 58.1026 57.5452 58.1518 57.5015 58.19C57.4633 58.2282 57.4169 58.2473 57.3623 58.2473H54.7415C54.7415 58.2528 54.7415 58.261 54.7415 58.2719C54.7415 58.2828 54.7415 58.2938 54.7415 58.3047C54.7469 58.463 54.7742 58.6077 54.8234 58.7387C54.8725 58.8698 54.949 58.9735 55.0527 59.05C55.1564 59.1264 55.282 59.1646 55.4294 59.1646C55.5386 59.1646 55.6287 59.1482 55.6997 59.1155C55.7762 59.0773 55.8389 59.0363 55.8881 58.9926C55.9372 58.9435 55.9754 58.9025 56.0027 58.8698C56.0519 58.8152 56.0901 58.7824 56.1174 58.7715C56.1502 58.7551 56.1993 58.7469 56.2648 58.7469H57.2804C57.335 58.7469 57.3787 58.7633 57.4114 58.7961C57.4496 58.8234 57.466 58.8643 57.4606 58.9189C57.4551 59.0117 57.4087 59.1237 57.3213 59.2547C57.234 59.3858 57.1057 59.5168 56.9364 59.6478C56.7726 59.7734 56.5651 59.8771 56.314 59.959C56.0628 60.041 55.7707 60.0819 55.4376 60.0819ZM54.7415 57.4365H56.1256V57.4201C56.1256 57.2454 56.0983 57.0926 56.0437 56.9615C55.9946 56.8305 55.9154 56.7295 55.8062 56.6585C55.7024 56.5875 55.5769 56.552 55.4294 56.552C55.282 56.552 55.1564 56.5875 55.0527 56.6585C54.9544 56.7295 54.878 56.8305 54.8234 56.9615C54.7688 57.0926 54.7415 57.2454 54.7415 57.4201V57.4365ZM58.5396 60C58.4795 60 58.4304 59.9809 58.3922 59.9427C58.354 59.9045 58.3348 59.8553 58.3348 59.7953V54.3898C58.3348 54.3298 58.354 54.2807 58.3922 54.2424C58.4304 54.2042 58.4795 54.1851 58.5396 54.1851H59.506C59.5661 54.1851 59.6152 54.2042 59.6534 54.2424C59.6917 54.2807 59.7108 54.3298 59.7108 54.3898V59.7953C59.7108 59.8553 59.6917 59.9045 59.6534 59.9427C59.6152 59.9809 59.5661 60 59.506 60H58.5396ZM60.883 60C60.823 60 60.7738 59.9809 60.7356 59.9427C60.6974 59.9045 60.6783 59.8553 60.6783 59.7953V54.3898C60.6783 54.3298 60.6974 54.2807 60.7356 54.2424C60.7738 54.2042 60.823 54.1851 60.883 54.1851H61.8494C61.9095 54.1851 61.9586 54.2042 61.9969 54.2424C62.0351 54.2807 62.0542 54.3298 62.0542 54.3898V59.7953C62.0542 59.8553 62.0351 59.9045 61.9969 59.9427C61.9586 59.9809 61.9095 60 61.8494 60H60.883Z" fill="#E5E5E5"/>
</g>
<defs>
<filter id="filter0_d_603_552" x="0" y="0" width="80" height="80" filterUnits="userSpaceOnUse" color-interpolation-filters="sRGB">
<feFlood flood-opacity="0" result="BackgroundImageFix"/>
<feColorMatrix in="SourceAlpha" type="matrix" values="0 0 0 0 0 0 0 0 0 0 0 0 0 0 0 0 0 0 127 0" result="hardAlpha"/>
<feOffset dy="2"/>
<feGaussianBlur stdDeviation="4"/>
<feColorMatrix type="matrix" values="0 0 0 0 0 0 0 0 0 0 0 0 0 0 0 0 0 0 0.75 0"/>
<feBlend mode="normal" in2="BackgroundImageFix" result="effect1_dropShadow_603_552"/>
<feBlend mode="normal" in="SourceGraphic" in2="effect1_dropShadow_603_552" result="shape"/>
</filter>
<linearGradient id="paint0_linear_603_552" x1="47.325" y1="33.5429" x2="31.26" y2="19.1929" gradientUnits="userSpaceOnUse">
<stop stop-color="#5391FE"/>
<stop offset="1" stop-color="#3E6DBF"/>
</linearGradient>
<linearGradient id="paint1_linear_603_552" x1="31.1" y1="19.002" x2="47.001" y2="33.292" gradientUnits="userSpaceOnUse">
<stop stop-color="#5391FE"/>
<stop offset="1" stop-color="#3E6DBF"/>
</linearGradient>
</defs>
</svg>
