<svg width="80" height="80" viewBox="0 0 80 80" fill="none" xmlns="http://www.w3.org/2000/svg">
<g filter="url(#filter0_d_602_491)">
<rect x="8" y="6" width="64" height="64" rx="5" fill="#212529"/>
<path d="M45.7141 19.571H46.8571C47.0085 19.571 47.1537 19.6312 47.2608 19.7383C47.3679 19.8454 47.4281 19.9906 47.4281 20.142C47.4281 20.2935 47.3679 20.4387 47.2608 20.5458C47.1537 20.6529 47.0085 20.713 46.8571 20.713H45.7141C45.5626 20.713 45.4174 20.6529 45.3103 20.5458C45.2032 20.4387 45.1431 20.2935 45.1431 20.142C45.1431 19.9906 45.2032 19.8454 45.3103 19.7383C45.4174 19.6312 45.5626 19.571 45.7141 19.571Z" fill="#56B3B4"/>
<path d="M28.571 37.8569H34.285C34.4364 37.8569 34.5817 37.9171 34.6888 38.0242C34.7958 38.1313 34.856 38.2765 34.856 38.4279C34.856 38.5029 34.8412 38.5772 34.8125 38.6464C34.7838 38.7157 34.7418 38.7787 34.6888 38.8317C34.6357 38.8847 34.5728 38.9268 34.5035 38.9555C34.4342 38.9842 34.36 38.9989 34.285 38.9989H28.571C28.4197 38.9989 28.2747 38.9389 28.1676 38.832C28.0605 38.7252 28.0003 38.5802 28 38.4289C27.9999 38.3539 28.0145 38.2795 28.0432 38.2101C28.0718 38.1407 28.1139 38.0777 28.1669 38.0245C28.2199 37.9714 28.2829 37.9293 28.3523 37.9005C28.4216 37.8717 28.4959 37.8569 28.571 37.8569Z" fill="#EA5E5E"/>
<path d="M42.2861 28.7141H45.7151C45.8665 28.7141 46.0118 28.7743 46.1188 28.8814C46.2259 28.9884 46.2861 29.1337 46.2861 29.2851C46.2861 29.4365 46.2259 29.5818 46.1188 29.6889C46.0118 29.796 45.8665 29.8561 45.7151 29.8561H42.2861C42.1346 29.8561 41.9894 29.796 41.8823 29.6889C41.7752 29.5818 41.7151 29.4365 41.7151 29.2851C41.7151 29.1337 41.7752 28.9884 41.8823 28.8814C41.9894 28.7743 42.1346 28.7141 42.2861 28.7141Z" fill="#BF85BF"/>
<path d="M35.4289 28.7141H39.9999C40.1513 28.7141 40.2966 28.7743 40.4037 28.8814C40.5108 28.9884 40.5709 29.1337 40.5709 29.2851C40.5709 29.4365 40.5108 29.5818 40.4037 29.6889C40.2966 29.796 40.1513 29.8561 39.9999 29.8561H35.4289C35.2775 29.8561 35.1322 29.796 35.0252 29.6889C34.9181 29.5818 34.8579 29.4365 34.8579 29.2851C34.8579 29.1337 34.9181 28.9884 35.0252 28.8814C35.1322 28.7743 35.2775 28.7141 35.4289 28.7141Z" fill="#EA5E5E"/>
<path d="M28.571 28.7141H33.143C33.2944 28.7141 33.4397 28.7743 33.5468 28.8814C33.6538 28.9884 33.714 29.1337 33.714 29.2851C33.714 29.4365 33.6538 29.5818 33.5468 29.6889C33.4397 29.796 33.2944 29.8561 33.143 29.8561H28.571C28.4197 29.8561 28.2747 29.7961 28.1676 29.6892C28.0605 29.5824 28.0003 29.4374 28 29.2861C27.9999 29.211 28.0145 29.1367 28.0432 29.0673C28.0718 28.9979 28.1139 28.9348 28.1669 28.8817C28.2199 28.8286 28.2829 28.7864 28.3523 28.7577C28.4216 28.7289 28.4959 28.7141 28.571 28.7141Z" fill="#56B3B4"/>
<path d="M28.571 33.2859H34.285C34.4364 33.2859 34.5817 33.346 34.6888 33.4531C34.7958 33.5602 34.856 33.7055 34.856 33.8569C34.856 34.0083 34.7958 34.1536 34.6888 34.2606C34.5817 34.3677 34.4364 34.4279 34.285 34.4279H28.571C28.4196 34.4279 28.2743 34.3677 28.1672 34.2606C28.0602 34.1536 28 34.0083 28 33.8569C28 33.7055 28.0602 33.5602 28.1672 33.4531C28.2743 33.346 28.4196 33.2859 28.571 33.2859Z" fill="#BF85BF"/>
<path d="M28.571 24.1431H34.285C34.4364 24.1431 34.5817 24.2032 34.6888 24.3103C34.7958 24.4174 34.856 24.5626 34.856 24.7141C34.856 24.8655 34.7958 25.0107 34.6888 25.1178C34.5817 25.2249 34.4364 25.2851 34.285 25.2851H28.571C28.4196 25.2851 28.2743 25.2249 28.1672 25.1178C28.0602 25.0107 28 24.8655 28 24.7141C28 24.5626 28.0602 24.4174 28.1672 24.3103C28.2743 24.2032 28.4196 24.1431 28.571 24.1431Z" fill="#BF85BF"/>
<path d="M34.2861 17.2859H45.7141C45.8655 17.2859 46.0108 17.346 46.1178 17.4531C46.2249 17.5602 46.2851 17.7055 46.2851 17.8569C46.2851 18.0083 46.2249 18.1536 46.1178 18.2606C46.0108 18.3677 45.8655 18.4279 45.7141 18.4279H34.2861C34.1346 18.4279 33.9894 18.3677 33.8823 18.2606C33.7752 18.1536 33.7151 18.0083 33.7151 17.8569C33.7151 17.7055 33.7752 17.5602 33.8823 17.4531C33.9894 17.346 34.1346 17.2859 34.2861 17.2859Z" fill="#F7BA3E"/>
<path d="M28.571 17.2859H32C32.1514 17.2859 32.2967 17.346 32.4038 17.4531C32.5108 17.5602 32.571 17.7055 32.571 17.8569C32.5711 17.932 32.5565 18.0063 32.5278 18.0757C32.4992 18.1451 32.4571 18.2082 32.4041 18.2613C32.3511 18.3144 32.2881 18.3566 32.2187 18.3853C32.1494 18.4141 32.0751 18.4289 32 18.4289H28.571C28.4959 18.4289 28.4216 18.4141 28.3523 18.3853C28.2829 18.3566 28.2199 18.3144 28.1669 18.2613C28.1139 18.2082 28.0718 18.1451 28.0432 18.0757C28.0145 18.0063 27.9999 17.932 28 17.8569C28 17.7055 28.0602 17.5602 28.1672 17.4531C28.2743 17.346 28.4196 17.2859 28.571 17.2859Z" fill="#EA5E5E"/>
<path d="M33.143 35.571H34.286C34.4375 35.571 34.5827 35.6312 34.6898 35.7383C34.7969 35.8454 34.857 35.9906 34.857 36.142C34.857 36.2935 34.7969 36.4387 34.6898 36.5458C34.5827 36.6529 34.4375 36.713 34.286 36.713H33.143C32.9916 36.713 32.8463 36.6529 32.7393 36.5458C32.6322 36.4387 32.572 36.2935 32.572 36.142C32.572 35.9906 32.6322 35.8454 32.7393 35.7383C32.8463 35.6312 32.9916 35.571 33.143 35.571Z" fill="#F7BA3E"/>
<path d="M33.143 21.8569H34.286C34.4375 21.8569 34.5827 21.9171 34.6898 22.0242C34.7969 22.1313 34.857 22.2765 34.857 22.4279C34.857 22.5794 34.7969 22.7246 34.6898 22.8317C34.5827 22.9388 34.4375 22.9989 34.286 22.9989H33.143C32.9916 22.9989 32.8463 22.9388 32.7393 22.8317C32.6322 22.7246 32.572 22.5794 32.572 22.4279C32.572 22.2765 32.6322 22.1313 32.7393 22.0242C32.8463 21.9171 32.9916 21.8569 33.143 21.8569Z" fill="#56B3B4"/>
<path d="M28.571 35.571H30.857C31.0084 35.571 31.1537 35.6312 31.2608 35.7383C31.3678 35.8454 31.428 35.9906 31.428 36.142C31.428 36.2935 31.3678 36.4387 31.2608 36.5458C31.1537 36.6529 31.0084 36.713 30.857 36.713H28.571C28.4197 36.713 28.2747 36.653 28.1676 36.5462C28.0605 36.4393 28.0003 36.2943 28 36.143C27.9999 36.068 28.0145 35.9936 28.0432 35.9242C28.0718 35.8548 28.1139 35.7918 28.1669 35.7386C28.2199 35.6855 28.2829 35.6434 28.3523 35.6146C28.4216 35.5858 28.4959 35.571 28.571 35.571Z" fill="#56B3B4"/>
<path d="M28.571 21.8569H30.857C31.0084 21.8569 31.1537 21.9171 31.2608 22.0242C31.3678 22.1313 31.428 22.2765 31.428 22.4279C31.4281 22.503 31.4135 22.5774 31.3848 22.6468C31.3562 22.7161 31.3141 22.7792 31.2611 22.8323C31.2081 22.8855 31.1451 22.9276 31.0757 22.9564C31.0064 22.9851 30.9321 22.9999 30.857 22.9999H28.571C28.4196 22.9999 28.2743 22.9398 28.1672 22.8327C28.0602 22.7256 28 22.5804 28 22.4289C27.9999 22.3539 28.0145 22.2795 28.0432 22.2101C28.0718 22.1407 28.1139 22.0777 28.1669 22.0245C28.2199 21.9714 28.2829 21.9293 28.3523 21.9005C28.4216 21.8717 28.4959 21.8569 28.571 21.8569Z" fill="#F7BA3E"/>
<path opacity="0.5" d="M43.4289 35.571H44.5719C44.7233 35.571 44.8686 35.6312 44.9757 35.7383C45.0828 35.8454 45.1429 35.9906 45.1429 36.142C45.1429 36.2935 45.0828 36.4387 44.9757 36.5458C44.8686 36.6529 44.7233 36.713 44.5719 36.713H43.4289C43.2775 36.713 43.1322 36.6529 43.0252 36.5458C42.9181 36.4387 42.8579 36.2935 42.8579 36.142C42.8579 35.9906 42.9181 35.8454 43.0252 35.7383C43.1322 35.6312 43.2775 35.571 43.4289 35.571Z" fill="#4D616E"/>
<path opacity="0.5" d="M36.571 35.571H41.142C41.2934 35.571 41.4387 35.6312 41.5458 35.7383C41.6528 35.8454 41.713 35.9906 41.713 36.142C41.713 36.2935 41.6528 36.4387 41.5458 36.5458C41.4387 36.6529 41.2934 36.713 41.142 36.713H36.571C36.4197 36.713 36.2747 36.653 36.1676 36.5462C36.0605 36.4393 36.0003 36.2943 36 36.143C35.9999 36.068 36.0145 35.9936 36.0432 35.9242C36.0718 35.8548 36.1139 35.7918 36.1669 35.7386C36.2199 35.6855 36.2829 35.6434 36.3523 35.6146C36.4216 35.5858 36.4959 35.571 36.571 35.571Z" fill="#4D616E"/>
<path opacity="0.5" d="M46.8569 35.571H51.4279C51.5793 35.571 51.7246 35.6312 51.8316 35.7383C51.9387 35.8454 51.9989 35.9906 51.9989 36.142C51.9989 36.2935 51.9387 36.4387 51.8316 36.5458C51.7246 36.6529 51.5793 36.713 51.4279 36.713H46.8569C46.7055 36.713 46.5602 36.6529 46.4531 36.5458C46.346 36.4387 46.2859 36.2935 46.2859 36.142C46.2859 35.9906 46.346 35.8454 46.4531 35.7383C46.5602 35.6312 46.7055 35.571 46.8569 35.571Z" fill="#4D616E"/>
<path d="M37.7141 26.429H46.8571C47.0085 26.429 47.1537 26.4891 47.2608 26.5962C47.3679 26.7033 47.4281 26.8485 47.4281 27C47.4281 27.1514 47.3679 27.2966 47.2608 27.4037C47.1537 27.5108 47.0085 27.571 46.8571 27.571H37.7141C37.5626 27.571 37.4174 27.5108 37.3103 27.4037C37.2032 27.2966 37.1431 27.1514 37.1431 27C37.1431 26.8485 37.2032 26.7033 37.3103 26.5962C37.4174 26.4891 37.5626 26.429 37.7141 26.429Z" fill="#56B3B4"/>
<path d="M32 26.429H35.429C35.5804 26.429 35.7256 26.4891 35.8327 26.5962C35.9398 26.7033 36 26.8485 36 27C36 27.1514 35.9398 27.2966 35.8327 27.4037C35.7256 27.5108 35.5804 27.571 35.429 27.571H32C31.8485 27.571 31.7033 27.5108 31.5962 27.4037C31.4891 27.2966 31.429 27.1514 31.429 27C31.429 26.8485 31.4891 26.7033 31.5962 26.5962C31.7033 26.4891 31.8485 26.429 32 26.429Z" fill="#F7BA3E"/>
<path d="M28.571 26.429H29.714C29.7891 26.4288 29.8634 26.4435 29.9328 26.4721C30.0022 26.5008 30.0653 26.5428 30.1184 26.5958C30.1715 26.6489 30.2137 26.7119 30.2424 26.7812C30.2712 26.8506 30.286 26.9249 30.286 27C30.286 27.1514 30.2258 27.2966 30.1188 27.4037C30.0117 27.5108 29.8664 27.571 29.715 27.571H28.571C28.4196 27.571 28.2743 27.5108 28.1672 27.4037C28.0602 27.2966 28 27.1514 28 27C28 26.8485 28.0602 26.7033 28.1672 26.5962C28.2743 26.4891 28.4196 26.429 28.571 26.429Z" fill="#EA5E5E"/>
<path d="M38.8569 19.571H43.4279C43.503 19.5709 43.5775 19.5856 43.6469 19.6143C43.7164 19.643 43.7795 19.6851 43.8326 19.7383C43.8858 19.7914 43.9279 19.8545 43.9566 19.924C43.9853 19.9935 44 20.0679 43.9999 20.143C43.9999 20.2945 43.9397 20.4397 43.8326 20.5468C43.7256 20.6539 43.5803 20.714 43.4289 20.714H38.8569C38.7055 20.714 38.5602 20.6539 38.4531 20.5468C38.346 20.4397 38.2859 20.2945 38.2859 20.143C38.2858 20.068 38.3004 19.9936 38.3291 19.9242C38.3577 19.8548 38.3997 19.7918 38.4528 19.7386C38.5058 19.6855 38.5688 19.6434 38.6381 19.6146C38.7075 19.5858 38.7818 19.571 38.8569 19.571Z" fill="#BF85BF"/>
<path d="M28.571 19.571H36.571C36.7224 19.571 36.8677 19.6312 36.9748 19.7383C37.0818 19.8454 37.142 19.9906 37.142 20.142C37.142 20.2935 37.0818 20.4387 36.9748 20.5458C36.8677 20.6529 36.7224 20.713 36.571 20.713H28.571C28.4197 20.713 28.2747 20.653 28.1676 20.5462C28.0605 20.4393 28.0003 20.2943 28 20.143C27.9999 20.068 28.0145 19.9936 28.0432 19.9242C28.0718 19.8548 28.1139 19.7918 28.1669 19.7386C28.2199 19.6855 28.2829 19.6434 28.3523 19.6146C28.4216 19.5858 28.4959 19.571 28.571 19.571Z" fill="#56B3B4"/>
<path d="M32 31H42.286C42.3609 31 42.4352 31.0148 42.5045 31.0435C42.5737 31.0722 42.6367 31.1142 42.6897 31.1672C42.7427 31.2203 42.7848 31.2832 42.8135 31.3525C42.8422 31.4218 42.857 31.496 42.857 31.571C42.857 31.7224 42.7968 31.8677 42.6897 31.9748C42.5826 32.0818 42.4374 32.142 42.286 32.142H32C31.8485 32.142 31.7033 32.0818 31.5962 31.9748C31.4891 31.8677 31.429 31.7224 31.429 31.571C31.429 31.496 31.4437 31.4218 31.4724 31.3525C31.5011 31.2832 31.5432 31.2203 31.5962 31.1672C31.6492 31.1142 31.7122 31.0722 31.7814 31.0435C31.8507 31.0148 31.925 31 32 31Z" fill="#F7BA3E"/>
<path d="M28.571 31H29.714C29.789 31 29.8632 31.0148 29.9325 31.0435C30.0018 31.0722 30.0647 31.1142 30.1178 31.1672C30.1708 31.2203 30.2128 31.2832 30.2415 31.3525C30.2702 31.4218 30.285 31.496 30.285 31.571C30.285 31.7224 30.2248 31.8677 30.1178 31.9748C30.0107 32.0818 29.8654 32.142 29.714 32.142H28.571C28.4196 32.142 28.2743 32.0818 28.1672 31.9748C28.0602 31.8677 28 31.7224 28 31.571C28 31.496 28.0148 31.4218 28.0435 31.3525C28.0722 31.2832 28.1142 31.2203 28.1672 31.1672C28.2203 31.1142 28.2832 31.0722 28.3525 31.0435C28.4218 31.0148 28.496 31 28.571 31Z" fill="#BF85BF"/>
<path d="M42.2861 21.8569H48.0001C48.1515 21.8569 48.2968 21.9171 48.4038 22.0242C48.5109 22.1313 48.5711 22.2765 48.5711 22.4279C48.5712 22.503 48.5565 22.5774 48.5279 22.6468C48.4993 22.7161 48.4572 22.7792 48.4042 22.8323C48.3512 22.8855 48.2882 22.9276 48.2188 22.9564C48.1495 22.9851 48.0752 22.9999 48.0001 22.9999H42.2861C42.1346 22.9999 41.9894 22.9398 41.8823 22.8327C41.7752 22.7256 41.7151 22.5804 41.7151 22.4289C41.715 22.3539 41.7296 22.2795 41.7583 22.2101C41.7869 22.1407 41.8289 22.0777 41.882 22.0245C41.935 21.9714 41.998 21.9293 42.0673 21.9005C42.1367 21.8717 42.211 21.8569 42.2861 21.8569Z" fill="#EA5E5E"/>
<path d="M42.2861 24.1431H48.0001C48.1515 24.1431 48.2968 24.2032 48.4038 24.3103C48.5109 24.4174 48.5711 24.5626 48.5711 24.7141C48.5711 24.8655 48.5109 25.0107 48.4038 25.1178C48.2968 25.2249 48.1515 25.2851 48.0001 25.2851H42.2861C42.1346 25.2851 41.9894 25.2249 41.8823 25.1178C41.7752 25.0107 41.7151 24.8655 41.7151 24.7141C41.7151 24.5626 41.7752 24.4174 41.8823 24.3103C41.9894 24.2032 42.1346 24.1431 42.2861 24.1431Z" fill="#F7BA3E"/>
<path d="M28.571 15H42.286C42.4374 15 42.5827 15.0602 42.6898 15.1672C42.7968 15.2743 42.857 15.4196 42.857 15.571C42.857 15.7224 42.7968 15.8677 42.6898 15.9748C42.5827 16.0818 42.4374 16.142 42.286 16.142H28.571C28.4196 16.142 28.2743 16.0818 28.1672 15.9748C28.0602 15.8677 28 15.7224 28 15.571C28 15.4196 28.0602 15.2743 28.1672 15.1672C28.2743 15.0602 28.4196 15 28.571 15Z" fill="#56B3B4"/>
<path opacity="0.5" d="M44.571 15H51.428C51.5031 14.9999 51.5774 15.0145 51.6468 15.0432C51.7162 15.0718 51.7793 15.1139 51.8324 15.1669C51.8855 15.2199 51.9277 15.2829 51.9564 15.3523C51.9852 15.4216 52 15.4959 52 15.571C52 15.7224 51.9398 15.8677 51.8328 15.9748C51.7257 16.0818 51.5804 16.142 51.429 16.142H44.571C44.496 16.142 44.4218 16.1272 44.3525 16.0985C44.2832 16.0698 44.2203 16.0278 44.1672 15.9748C44.1142 15.9217 44.0722 15.8588 44.0435 15.7895C44.0148 15.7202 44 15.646 44 15.571C44 15.496 44.0148 15.4218 44.0435 15.3525C44.0722 15.2832 44.1142 15.2203 44.1672 15.1672C44.2203 15.1142 44.2832 15.0722 44.3525 15.0435C44.4218 15.0148 44.496 15 44.571 15Z" fill="#4D616E"/>
<path opacity="0.5" d="M44.571 31H46.857C46.932 31 47.0062 31.0148 47.0755 31.0435C47.1448 31.0722 47.2077 31.1142 47.2608 31.1672C47.3138 31.2203 47.3558 31.2832 47.3845 31.3525C47.4132 31.4218 47.428 31.496 47.428 31.571C47.428 31.7224 47.3678 31.8677 47.2608 31.9748C47.1537 32.0818 47.0084 32.142 46.857 32.142H44.571C44.496 32.142 44.4218 32.1272 44.3525 32.0985C44.2832 32.0698 44.2203 32.0278 44.1672 31.9748C44.1142 31.9217 44.0722 31.8588 44.0435 31.7895C44.0148 31.7202 44 31.646 44 31.571C44 31.496 44.0148 31.4218 44.0435 31.3525C44.0722 31.2832 44.1142 31.2203 44.1672 31.1672C44.2203 31.1142 44.2832 31.0722 44.3525 31.0435C44.4218 31.0148 44.496 31 44.571 31Z" fill="#4D616E"/>
<path opacity="0.5" d="M49.143 31H51.429C51.504 31 51.5783 31.0148 51.6475 31.0435C51.7168 31.0722 51.7798 31.1142 51.8328 31.1672C51.8858 31.2203 51.9279 31.2832 51.9566 31.3525C51.9853 31.4218 52 31.496 52 31.571C52 31.646 51.9853 31.7202 51.9566 31.7895C51.9279 31.8588 51.8858 31.9217 51.8328 31.9748C51.7798 32.0278 51.7168 32.0698 51.6475 32.0985C51.5783 32.1272 51.504 32.142 51.429 32.142H49.143C48.9916 32.142 48.8463 32.0818 48.7393 31.9748C48.6322 31.8677 48.572 31.7224 48.572 31.571C48.572 31.496 48.5868 31.4218 48.6155 31.3525C48.6442 31.2832 48.6862 31.2203 48.7393 31.1672C48.7923 31.1142 48.8552 31.0722 48.9245 31.0435C48.9938 31.0148 49.068 31 49.143 31Z" fill="#4D616E"/>
<path opacity="0.5" d="M48 28.7141H51.429C51.5804 28.7141 51.7256 28.7743 51.8327 28.8814C51.9398 28.9884 52 29.1337 52 29.2851C52 29.4365 51.9398 29.5818 51.8327 29.6889C51.7256 29.796 51.5804 29.8561 51.429 29.8561H48C47.8485 29.8561 47.7033 29.796 47.5962 29.6889C47.4891 29.5818 47.429 29.4365 47.429 29.2851C47.429 29.1337 47.4891 28.9884 47.5962 28.8814C47.7033 28.7743 47.8485 28.7141 48 28.7141Z" fill="#4D616E"/>
<path opacity="0.5" d="M48 17.2859H51.429C51.5804 17.2859 51.7256 17.346 51.8327 17.4531C51.9398 17.5602 52 17.7055 52 17.8569C52 18.0083 51.9398 18.1536 51.8327 18.2606C51.7256 18.3677 51.5804 18.4279 51.429 18.4279H48C47.8485 18.4279 47.7033 18.3677 47.5962 18.2606C47.4891 18.1536 47.429 18.0083 47.429 17.8569C47.429 17.7055 47.4891 17.5602 47.5962 17.4531C47.7033 17.346 47.8485 17.2859 48 17.2859Z" fill="#4D616E"/>
<path opacity="0.5" d="M49.143 26.429H51.429C51.5805 26.429 51.7257 26.4891 51.8328 26.5962C51.9399 26.7033 52 26.8485 52 27C52 27.1514 51.9399 27.2966 51.8328 27.4037C51.7257 27.5108 51.5805 27.571 51.429 27.571H49.143C49.068 27.5711 48.9936 27.5564 48.9242 27.5278C48.8548 27.4991 48.7918 27.4571 48.7386 27.4041C48.6855 27.351 48.6434 27.288 48.6146 27.2187C48.5858 27.1494 48.571 27.075 48.571 27C48.571 26.9249 48.5858 26.8506 48.6146 26.7812C48.6434 26.7119 48.6855 26.6489 48.7386 26.5958C48.7918 26.5428 48.8548 26.5008 48.9242 26.4721C48.9936 26.4435 49.068 26.4288 49.143 26.429Z" fill="#4D616E"/>
<path opacity="0.5" d="M49.143 19.571H51.429C51.5041 19.571 51.5784 19.5858 51.6478 19.6146C51.7171 19.6434 51.7801 19.6855 51.8331 19.7386C51.8862 19.7918 51.9282 19.8548 51.9568 19.9242C51.9855 19.9936 52.0002 20.068 52 20.143C52 20.2945 51.9399 20.4397 51.8328 20.5468C51.7257 20.6539 51.5805 20.714 51.429 20.714H49.143C48.9916 20.714 48.8463 20.6539 48.7393 20.5468C48.6322 20.4397 48.572 20.2945 48.572 20.143C48.5719 20.068 48.5866 19.9936 48.6152 19.9242C48.6438 19.8548 48.6859 19.7918 48.7389 19.7386C48.7919 19.6855 48.8549 19.6434 48.9243 19.6146C48.9936 19.5858 49.068 19.571 49.143 19.571Z" fill="#4D616E"/>
<path opacity="0.5" d="M50.2861 21.8569H51.4291C51.5041 21.8569 51.5783 21.8717 51.6476 21.9004C51.7169 21.9291 51.7798 21.9712 51.8328 22.0242C51.8859 22.0772 51.9279 22.1401 51.9566 22.2094C51.9853 22.2787 52.0001 22.3529 52.0001 22.4279C52.0001 22.5029 51.9853 22.5772 51.9566 22.6464C51.9279 22.7157 51.8859 22.7787 51.8328 22.8317C51.7798 22.8847 51.7169 22.9268 51.6476 22.9555C51.5783 22.9842 51.5041 22.9989 51.4291 22.9989H50.2861C50.1346 22.9989 49.9894 22.9388 49.8823 22.8317C49.7752 22.7246 49.7151 22.5794 49.7151 22.4279C49.7151 22.2765 49.7752 22.1313 49.8823 22.0242C49.9894 21.9171 50.1346 21.8569 50.2861 21.8569Z" fill="#4D616E"/>
<path opacity="0.5" d="M50.2861 24.1431H51.4291C51.5041 24.1431 51.5783 24.1578 51.6476 24.1865C51.7169 24.2152 51.7798 24.2573 51.8328 24.3103C51.8859 24.3633 51.9279 24.4263 51.9566 24.4956C51.9853 24.5648 52.0001 24.6391 52.0001 24.7141C52.0001 24.7891 51.9853 24.8633 51.9566 24.9326C51.9279 25.0019 51.8859 25.0648 51.8328 25.1178C51.7798 25.1708 51.7169 25.2129 51.6476 25.2416C51.5783 25.2703 51.5041 25.2851 51.4291 25.2851H50.2861C50.1346 25.2851 49.9894 25.2249 49.8823 25.1178C49.7752 25.0107 49.7151 24.8655 49.7151 24.7141C49.7151 24.5626 49.7752 24.4174 49.8823 24.3103C49.9894 24.2032 50.1346 24.1431 50.2861 24.1431Z" fill="#4D616E"/>
<path opacity="0.5" d="M41.143 33.2859H51.429C51.5805 33.2859 51.7257 33.346 51.8328 33.4531C51.9399 33.5602 52 33.7055 52 33.8569C52 34.0083 51.9399 34.1536 51.8328 34.2606C51.7257 34.3677 51.5805 34.4279 51.429 34.4279H41.143C40.9916 34.4279 40.8463 34.3677 40.7393 34.2606C40.6322 34.1536 40.572 34.0083 40.572 33.8569C40.572 33.7055 40.6322 33.5602 40.7393 33.4531C40.8463 33.346 40.9916 33.2859 41.143 33.2859Z" fill="#4D616E"/>
<path opacity="0.5" d="M36.571 33.2859H38.857C39.0084 33.2859 39.1537 33.346 39.2608 33.4531C39.3678 33.5602 39.428 33.7055 39.428 33.8569C39.428 34.0083 39.3678 34.1536 39.2608 34.2606C39.1537 34.3677 39.0084 34.4279 38.857 34.4279H36.571C36.4196 34.4279 36.2743 34.3677 36.1672 34.2606C36.0602 34.1536 36 34.0083 36 33.8569C36 33.7055 36.0602 33.5602 36.1672 33.4531C36.2743 33.346 36.4196 33.2859 36.571 33.2859Z" fill="#4D616E"/>
<path opacity="0.5" d="M45.7141 37.8569H51.4281C51.5795 37.8569 51.7247 37.9171 51.8318 38.0242C51.9389 38.1313 51.9991 38.2765 51.9991 38.4279C51.9991 38.5029 51.9843 38.5772 51.9556 38.6464C51.9269 38.7157 51.8848 38.7787 51.8318 38.8317C51.7788 38.8847 51.7159 38.9268 51.6466 38.9555C51.5773 38.9842 51.5031 38.9989 51.4281 38.9989H45.7141C45.6391 38.9989 45.5648 38.9842 45.4956 38.9555C45.4263 38.9268 45.3633 38.8847 45.3103 38.8317C45.2573 38.7787 45.2152 38.7157 45.1865 38.6464C45.1578 38.5772 45.1431 38.5029 45.1431 38.4279C45.1431 38.2765 45.2032 38.1313 45.3103 38.0242C45.4174 37.9171 45.5626 37.8569 45.7141 37.8569Z" fill="#4D616E"/>
<path opacity="0.5" d="M36.571 37.8569H43.428C43.5794 37.8569 43.7247 37.9171 43.8318 38.0242C43.9388 38.1313 43.999 38.2765 43.999 38.4279C43.999 38.5029 43.9842 38.5772 43.9555 38.6464C43.9268 38.7157 43.8848 38.7787 43.8318 38.8317C43.7787 38.8847 43.7158 38.9268 43.6465 38.9555C43.5772 38.9842 43.503 38.9989 43.428 38.9989H36.571C36.4197 38.9989 36.2747 38.9389 36.1676 38.832C36.0605 38.7252 36.0003 38.5802 36 38.4289C35.9999 38.3539 36.0145 38.2795 36.0432 38.2101C36.0718 38.1407 36.1139 38.0777 36.1669 38.0245C36.2199 37.9714 36.2829 37.9293 36.3523 37.9005C36.4216 37.8717 36.4959 37.8569 36.571 37.8569Z" fill="#4D616E"/>
<path opacity="0.5" d="M36.571 21.8569H40C40.1514 21.8569 40.2967 21.9171 40.4038 22.0242C40.5108 22.1313 40.571 22.2765 40.571 22.4279C40.5711 22.503 40.5565 22.5774 40.5278 22.6468C40.4992 22.7161 40.4571 22.7792 40.4041 22.8323C40.3511 22.8855 40.2881 22.9276 40.2187 22.9564C40.1494 22.9851 40.0751 22.9999 40 22.9999H36.571C36.4196 22.9999 36.2743 22.9398 36.1672 22.8327C36.0602 22.7256 36 22.5804 36 22.4289C35.9999 22.3539 36.0145 22.2795 36.0432 22.2101C36.0718 22.1407 36.1139 22.0777 36.1669 22.0245C36.2199 21.9714 36.2829 21.9293 36.3523 21.9005C36.4216 21.8717 36.4959 21.8569 36.571 21.8569Z" fill="#4D616E"/>
<path opacity="0.5" d="M36.571 24.1431H40C40.1514 24.1431 40.2967 24.2032 40.4038 24.3103C40.5108 24.4174 40.571 24.5626 40.571 24.7141C40.571 24.8655 40.5108 25.0107 40.4038 25.1178C40.2967 25.2249 40.1514 25.2851 40 25.2851H36.571C36.4196 25.2851 36.2743 25.2249 36.1672 25.1178C36.0602 25.0107 36 24.8655 36 24.7141C36 24.5626 36.0602 24.4174 36.1672 24.3103C36.2743 24.2032 36.4196 24.1431 36.571 24.1431Z" fill="#4D616E"/>
<path d="M20.4728 61C20.3977 61 20.3363 60.9761 20.2885 60.9283C20.2407 60.8805 20.2168 60.8191 20.2168 60.744V54.088C20.2168 54.0129 20.2407 53.9515 20.2885 53.9037C20.3363 53.8559 20.3977 53.832 20.4728 53.832H23.34C23.9066 53.832 24.3981 53.9207 24.8146 54.0982C25.2378 54.2689 25.5655 54.5283 25.7976 54.8765C26.0365 55.2246 26.156 55.665 26.156 56.1974C26.156 56.7231 26.0365 57.1566 25.7976 57.4979C25.5655 57.8393 25.2378 58.0918 24.8146 58.2557C24.3981 58.4195 23.9066 58.5014 23.34 58.5014H22.1214V60.744C22.1214 60.8191 22.0941 60.8805 22.0395 60.9283C21.9917 60.9761 21.9303 61 21.8552 61H20.4728ZM22.0907 57.0883H23.2888C23.5823 57.0883 23.8145 57.0132 23.9851 56.863C24.1626 56.7129 24.2514 56.4842 24.2514 56.177C24.2514 55.9175 24.1763 55.6991 24.0261 55.5216C23.8759 55.3441 23.6301 55.2554 23.2888 55.2554H22.0907V57.0883ZM27.2802 61C27.2051 61 27.1436 60.9761 27.0958 60.9283C27.0481 60.8805 27.0242 60.8191 27.0242 60.744V55.9312C27.0242 55.8629 27.0481 55.8049 27.0958 55.7571C27.1436 55.7025 27.2051 55.6752 27.2802 55.6752H28.4578C28.5329 55.6752 28.5943 55.7025 28.6421 55.7571C28.6899 55.8049 28.7138 55.8629 28.7138 55.9312V56.3408C28.8981 56.1292 29.1165 55.9653 29.3691 55.8493C29.6285 55.7332 29.9187 55.6752 30.2395 55.6752H30.6901C30.7583 55.6752 30.8164 55.6991 30.8642 55.7469C30.9188 55.7947 30.9461 55.8561 30.9461 55.9312V56.9859C30.9461 57.0542 30.9188 57.1156 30.8642 57.1702C30.8164 57.218 30.7583 57.2419 30.6901 57.2419H29.6968C29.4169 57.2419 29.1985 57.3204 29.0414 57.4774C28.8913 57.6276 28.8162 57.8427 28.8162 58.1226V60.744C28.8162 60.8191 28.7889 60.8805 28.7342 60.9283C28.6865 60.9761 28.625 61 28.5499 61H27.2802ZM34.0918 61.1024C33.2862 61.1024 32.6445 60.8839 32.1666 60.447C31.6888 60.0101 31.4396 59.3616 31.4191 58.5014C31.4191 58.4537 31.4191 58.3922 31.4191 58.3171C31.4191 58.242 31.4191 58.184 31.4191 58.143C31.4396 57.6037 31.5591 57.1429 31.7775 56.7606C32.0028 56.3715 32.31 56.078 32.6991 55.88C33.0951 55.6752 33.5559 55.5728 34.0815 55.5728C34.6823 55.5728 35.1772 55.6923 35.5663 55.9312C35.9623 56.1701 36.2592 56.4944 36.4572 56.904C36.6552 57.3136 36.7542 57.7812 36.7542 58.3069V58.5526C36.7542 58.6277 36.7269 58.6892 36.6722 58.737C36.6245 58.7847 36.5664 58.8086 36.4982 58.8086H33.2214C33.2214 58.8155 33.2214 58.8257 33.2214 58.8394C33.2214 58.853 33.2214 58.8667 33.2214 58.8803C33.2282 59.0783 33.2623 59.2592 33.3238 59.423C33.3852 59.5869 33.4808 59.7166 33.6105 59.8122C33.7402 59.9077 33.8972 59.9555 34.0815 59.9555C34.2181 59.9555 34.3307 59.935 34.4194 59.8941C34.515 59.8463 34.5935 59.7951 34.655 59.7405C34.7164 59.679 34.7642 59.6278 34.7983 59.5869C34.8598 59.5186 34.9075 59.4777 34.9417 59.464C34.9826 59.4435 35.0441 59.4333 35.126 59.4333H36.3958C36.464 59.4333 36.5186 59.4538 36.5596 59.4947C36.6074 59.5289 36.6279 59.5801 36.621 59.6483C36.6142 59.7644 36.5562 59.9043 36.447 60.0682C36.3377 60.232 36.1773 60.3958 35.9657 60.5597C35.7609 60.7167 35.5015 60.8464 35.1874 60.9488C34.8734 61.0512 34.5082 61.1024 34.0918 61.1024ZM33.2214 57.7949H34.9519V57.7744C34.9519 57.5559 34.9178 57.3648 34.8495 57.201C34.7881 57.0371 34.6891 56.9108 34.5526 56.8221C34.4229 56.7333 34.2658 56.689 34.0815 56.689C33.8972 56.689 33.7402 56.7333 33.6105 56.8221C33.4876 56.9108 33.392 57.0371 33.3238 57.201C33.2555 57.3648 33.2214 57.5559 33.2214 57.7744V57.7949ZM40.428 61C39.9911 61 39.6122 60.9317 39.2914 60.7952C38.9773 60.6518 38.735 60.4334 38.5643 60.1398C38.3937 59.8395 38.3083 59.4538 38.3083 58.9827V57.0166H37.5096C37.4345 57.0166 37.3697 56.9927 37.315 56.945C37.2673 56.8972 37.2434 56.8357 37.2434 56.7606V55.9312C37.2434 55.8561 37.2673 55.7947 37.315 55.7469C37.3697 55.6991 37.4345 55.6752 37.5096 55.6752H38.3083V53.9856C38.3083 53.9105 38.3322 53.8491 38.38 53.8013C38.4346 53.7535 38.4961 53.7296 38.5643 53.7296H39.7522C39.8273 53.7296 39.8887 53.7535 39.9365 53.8013C39.9843 53.8491 40.0082 53.9105 40.0082 53.9856V55.6752H41.2882C41.3633 55.6752 41.4247 55.6991 41.4725 55.7469C41.5203 55.7947 41.5442 55.8561 41.5442 55.9312V56.7606C41.5442 56.8357 41.5203 56.8972 41.4725 56.945C41.4247 56.9927 41.3633 57.0166 41.2882 57.0166H40.0082V58.8394C40.0082 59.0715 40.0525 59.2558 40.1413 59.3923C40.23 59.5289 40.3802 59.5971 40.5918 59.5971H41.3803C41.4554 59.5971 41.5169 59.621 41.5646 59.6688C41.6124 59.7166 41.6363 59.778 41.6363 59.8531V60.744C41.6363 60.8191 41.6124 60.8805 41.5646 60.9283C41.5169 60.9761 41.4554 61 41.3803 61H40.428ZM45.208 61C44.7711 61 44.3922 60.9317 44.0714 60.7952C43.7573 60.6518 43.515 60.4334 43.3443 60.1398C43.1737 59.8395 43.0883 59.4538 43.0883 58.9827V57.0166H42.2896C42.2145 57.0166 42.1497 56.9927 42.095 56.945C42.0473 56.8972 42.0234 56.8357 42.0234 56.7606V55.9312C42.0234 55.8561 42.0473 55.7947 42.095 55.7469C42.1497 55.6991 42.2145 55.6752 42.2896 55.6752H43.0883V53.9856C43.0883 53.9105 43.1122 53.8491 43.16 53.8013C43.2146 53.7535 43.2761 53.7296 43.3443 53.7296H44.5322C44.6073 53.7296 44.6687 53.7535 44.7165 53.8013C44.7643 53.8491 44.7882 53.9105 44.7882 53.9856V55.6752H46.0682C46.1433 55.6752 46.2047 55.6991 46.2525 55.7469C46.3003 55.7947 46.3242 55.8561 46.3242 55.9312V56.7606C46.3242 56.8357 46.3003 56.8972 46.2525 56.945C46.2047 56.9927 46.1433 57.0166 46.0682 57.0166H44.7882V58.8394C44.7882 59.0715 44.8325 59.2558 44.9213 59.3923C45.01 59.5289 45.1602 59.5971 45.3718 59.5971H46.1603C46.2354 59.5971 46.2969 59.621 46.3446 59.6688C46.3924 59.7166 46.4163 59.778 46.4163 59.8531V60.744C46.4163 60.8191 46.3924 60.8805 46.3446 60.9283C46.2969 60.9761 46.2354 61 46.1603 61H45.208ZM47.5202 61C47.4451 61 47.3836 60.9761 47.3358 60.9283C47.2881 60.8805 47.2642 60.8191 47.2642 60.744V55.9312C47.2642 55.8561 47.2881 55.7947 47.3358 55.7469C47.3836 55.6991 47.4451 55.6752 47.5202 55.6752H48.7285C48.7967 55.6752 48.8548 55.6991 48.9026 55.7469C48.9572 55.7947 48.9845 55.8561 48.9845 55.9312V60.744C48.9845 60.8191 48.9572 60.8805 48.9026 60.9283C48.8548 60.9761 48.7967 61 48.7285 61H47.5202ZM47.5099 54.9072C47.4348 54.9072 47.3734 54.8833 47.3256 54.8355C47.2778 54.7877 47.2539 54.7263 47.2539 54.6512V53.7398C47.2539 53.6647 47.2778 53.6033 47.3256 53.5555C47.3734 53.5009 47.4348 53.4736 47.5099 53.4736H48.7285C48.8036 53.4736 48.865 53.5009 48.9128 53.5555C48.9674 53.6033 48.9947 53.6647 48.9947 53.7398V54.6512C48.9947 54.7263 48.9674 54.7877 48.9128 54.8355C48.865 54.8833 48.8036 54.9072 48.7285 54.9072H47.5099ZM52.6918 61.1024C51.8862 61.1024 51.2445 60.8839 50.7666 60.447C50.2888 60.0101 50.0396 59.3616 50.0191 58.5014C50.0191 58.4537 50.0191 58.3922 50.0191 58.3171C50.0191 58.242 50.0191 58.184 50.0191 58.143C50.0396 57.6037 50.1591 57.1429 50.3775 56.7606C50.6028 56.3715 50.91 56.078 51.2991 55.88C51.6951 55.6752 52.1559 55.5728 52.6815 55.5728C53.2823 55.5728 53.7772 55.6923 54.1663 55.9312C54.5623 56.1701 54.8592 56.4944 55.0572 56.904C55.2552 57.3136 55.3542 57.7812 55.3542 58.3069V58.5526C55.3542 58.6277 55.3269 58.6892 55.2722 58.737C55.2245 58.7847 55.1664 58.8086 55.0982 58.8086H51.8214C51.8214 58.8155 51.8214 58.8257 51.8214 58.8394C51.8214 58.853 51.8214 58.8667 51.8214 58.8803C51.8282 59.0783 51.8623 59.2592 51.9238 59.423C51.9852 59.5869 52.0808 59.7166 52.2105 59.8122C52.3402 59.9077 52.4972 59.9555 52.6815 59.9555C52.8181 59.9555 52.9307 59.935 53.0194 59.8941C53.115 59.8463 53.1935 59.7951 53.255 59.7405C53.3164 59.679 53.3642 59.6278 53.3983 59.5869C53.4598 59.5186 53.5075 59.4777 53.5417 59.464C53.5826 59.4435 53.6441 59.4333 53.726 59.4333H54.9958C55.064 59.4333 55.1186 59.4538 55.1596 59.4947C55.2074 59.5289 55.2279 59.5801 55.221 59.6483C55.2142 59.7644 55.1562 59.9043 55.047 60.0682C54.9377 60.232 54.7773 60.3958 54.5657 60.5597C54.3609 60.7167 54.1015 60.8464 53.7874 60.9488C53.4734 61.0512 53.1082 61.1024 52.6918 61.1024ZM51.8214 57.7949H53.5519V57.7744C53.5519 57.5559 53.5178 57.3648 53.4495 57.201C53.3881 57.0371 53.2891 56.9108 53.1526 56.8221C53.0229 56.7333 52.8658 56.689 52.6815 56.689C52.4972 56.689 52.3402 56.7333 52.2105 56.8221C52.0876 56.9108 51.992 57.0371 51.9238 57.201C51.8555 57.3648 51.8214 57.5559 51.8214 57.7744V57.7949ZM56.5702 61C56.4951 61 56.4336 60.9761 56.3858 60.9283C56.3381 60.8805 56.3142 60.8191 56.3142 60.744V55.9312C56.3142 55.8629 56.3381 55.8049 56.3858 55.7571C56.4336 55.7025 56.4951 55.6752 56.5702 55.6752H57.7478C57.8229 55.6752 57.8843 55.7025 57.9321 55.7571C57.9799 55.8049 58.0038 55.8629 58.0038 55.9312V56.3408C58.1881 56.1292 58.4065 55.9653 58.6591 55.8493C58.9185 55.7332 59.2087 55.6752 59.5295 55.6752H59.9801C60.0483 55.6752 60.1064 55.6991 60.1542 55.7469C60.2088 55.7947 60.2361 55.8561 60.2361 55.9312V56.9859C60.2361 57.0542 60.2088 57.1156 60.1542 57.1702C60.1064 57.218 60.0483 57.2419 59.9801 57.2419H58.9868C58.7069 57.2419 58.4885 57.3204 58.3314 57.4774C58.1813 57.6276 58.1062 57.8427 58.1062 58.1226V60.744C58.1062 60.8191 58.0789 60.8805 58.0242 60.9283C57.9765 60.9761 57.915 61 57.8399 61H56.5702Z" fill="#E5E5E5"/>
</g>
<defs>
<filter id="filter0_d_602_491" x="0" y="0" width="80" height="80" filterUnits="userSpaceOnUse" color-interpolation-filters="sRGB">
<feFlood flood-opacity="0" result="BackgroundImageFix"/>
<feColorMatrix in="SourceAlpha" type="matrix" values="0 0 0 0 0 0 0 0 0 0 0 0 0 0 0 0 0 0 127 0" result="hardAlpha"/>
<feOffset dy="2"/>
<feGaussianBlur stdDeviation="4"/>
<feColorMatrix type="matrix" values="0 0 0 0 0 0 0 0 0 0 0 0 0 0 0 0 0 0 0.75 0"/>
<feBlend mode="normal" in2="BackgroundImageFix" result="effect1_dropShadow_602_491"/>
<feBlend mode="normal" in="SourceGraphic" in2="effect1_dropShadow_602_491" result="shape"/>
</filter>
</defs>
</svg>
