<svg width="80" height="80" viewBox="0 0 80 80" fill="none" xmlns="http://www.w3.org/2000/svg">
<g filter="url(#filter0_d_603_811)">
<rect x="8" y="6" width="64" height="64" rx="5" fill="#212529"/>
<g clip-path="url(#clip0_603_811)">
<path d="M53.0388 35.3116L42.0647 12.0064C41.7869 11.4221 41.2111 11.0371 40.565 11.0037C39.9174 10.9603 39.2994 11.2806 38.9616 11.8349L27.0589 31.1132C26.6894 31.7075 26.6972 32.4619 27.0789 33.0485L32.8982 42.0602C33.3503 42.755 34.2056 43.0695 35.0002 42.8332L51.8877 37.8379C52.4022 37.6875 52.8262 37.3214 53.05 36.8344C53.2708 36.3497 53.267 35.7924 53.0396 35.3108L53.0388 35.3116ZM50.5819 36.3111L36.2518 40.5485C35.8146 40.6786 35.395 40.2997 35.486 39.8585L40.6057 15.344C40.7014 14.8853 41.3348 14.8127 41.535 15.2371L51.0126 35.3634C51.0975 35.5449 51.0985 35.7545 51.0154 35.9368C50.9324 36.1191 50.7737 36.2559 50.5811 36.3111H50.5819Z" fill="white"/>
</g>
<path d="M22.9728 61C22.8977 61 22.8363 60.9761 22.7885 60.9283C22.7407 60.8805 22.7168 60.8191 22.7168 60.744V54.088C22.7168 54.0129 22.7407 53.9515 22.7885 53.9037C22.8363 53.8559 22.8977 53.832 22.9728 53.832H25.84C26.4066 53.832 26.8981 53.9207 27.3146 54.0982C27.7378 54.2689 28.0655 54.5283 28.2976 54.8765C28.5365 55.2246 28.656 55.665 28.656 56.1974C28.656 56.7231 28.5365 57.1566 28.2976 57.4979C28.0655 57.8393 27.7378 58.0918 27.3146 58.2557C26.8981 58.4195 26.4066 58.5014 25.84 58.5014H24.6214V60.744C24.6214 60.8191 24.5941 60.8805 24.5395 60.9283C24.4917 60.9761 24.4303 61 24.3552 61H22.9728ZM24.5907 57.0883H25.7888C26.0823 57.0883 26.3145 57.0132 26.4851 56.863C26.6626 56.7129 26.7514 56.4842 26.7514 56.177C26.7514 55.9175 26.6763 55.6991 26.5261 55.5216C26.3759 55.3441 26.1301 55.2554 25.7888 55.2554H24.5907V57.0883ZM29.7802 61C29.7051 61 29.6436 60.9761 29.5958 60.9283C29.5481 60.8805 29.5242 60.8191 29.5242 60.744V55.9312C29.5242 55.8629 29.5481 55.8049 29.5958 55.7571C29.6436 55.7025 29.7051 55.6752 29.7802 55.6752H30.9578C31.0329 55.6752 31.0943 55.7025 31.1421 55.7571C31.1899 55.8049 31.2138 55.8629 31.2138 55.9312V56.3408C31.3981 56.1292 31.6165 55.9653 31.8691 55.8493C32.1285 55.7332 32.4187 55.6752 32.7395 55.6752H33.1901C33.2583 55.6752 33.3164 55.6991 33.3642 55.7469C33.4188 55.7947 33.4461 55.8561 33.4461 55.9312V56.9859C33.4461 57.0542 33.4188 57.1156 33.3642 57.1702C33.3164 57.218 33.2583 57.2419 33.1901 57.2419H32.1968C31.9169 57.2419 31.6985 57.3204 31.5414 57.4774C31.3913 57.6276 31.3162 57.8427 31.3162 58.1226V60.744C31.3162 60.8191 31.2889 60.8805 31.2342 60.9283C31.1865 60.9761 31.125 61 31.0499 61H29.7802ZM34.4302 61C34.3551 61 34.2936 60.9761 34.2458 60.9283C34.1981 60.8805 34.1742 60.8191 34.1742 60.744V55.9312C34.1742 55.8561 34.1981 55.7947 34.2458 55.7469C34.2936 55.6991 34.3551 55.6752 34.4302 55.6752H35.6385C35.7067 55.6752 35.7648 55.6991 35.8126 55.7469C35.8672 55.7947 35.8945 55.8561 35.8945 55.9312V60.744C35.8945 60.8191 35.8672 60.8805 35.8126 60.9283C35.7648 60.9761 35.7067 61 35.6385 61H34.4302ZM34.4199 54.9072C34.3448 54.9072 34.2834 54.8833 34.2356 54.8355C34.1878 54.7877 34.1639 54.7263 34.1639 54.6512V53.7398C34.1639 53.6647 34.1878 53.6033 34.2356 53.5555C34.2834 53.5009 34.3448 53.4736 34.4199 53.4736H35.6385C35.7136 53.4736 35.775 53.5009 35.8228 53.5555C35.8774 53.6033 35.9047 53.6647 35.9047 53.7398V54.6512C35.9047 54.7263 35.8774 54.7877 35.8228 54.8355C35.775 54.8833 35.7136 54.9072 35.6385 54.9072H34.4199ZM39.4755 61.1024C39.0318 61.1024 38.6529 61.0546 38.3389 60.959C38.0317 60.8566 37.7791 60.7338 37.5811 60.5904C37.39 60.447 37.2466 60.3003 37.151 60.1501C37.0555 59.9931 37.0043 59.8599 36.9974 59.7507C36.9906 59.6756 37.0145 59.6142 37.0691 59.5664C37.1237 59.5118 37.1818 59.4845 37.2432 59.4845H38.4106C38.431 59.4845 38.4481 59.4879 38.4618 59.4947C38.4754 59.5015 38.4959 59.5152 38.5232 59.5357C38.6119 59.5835 38.7007 59.6449 38.7894 59.72C38.8782 59.7883 38.9806 59.8497 39.0966 59.9043C39.2127 59.9589 39.3526 59.9862 39.5165 59.9862C39.7076 59.9862 39.8681 59.9487 39.9978 59.8736C40.1275 59.7985 40.1923 59.6859 40.1923 59.5357C40.1923 59.4265 40.1616 59.3377 40.1002 59.2694C40.0387 59.1943 39.9124 59.1227 39.7213 59.0544C39.537 58.9861 39.2571 58.9179 38.8816 58.8496C38.5266 58.7677 38.216 58.6619 37.9498 58.5322C37.6835 58.3956 37.4787 58.2215 37.3354 58.0099C37.192 57.7915 37.1203 57.5286 37.1203 57.2214C37.1203 56.9484 37.2091 56.6855 37.3866 56.433C37.5641 56.1804 37.8235 55.9756 38.1648 55.8186C38.5061 55.6547 38.926 55.5728 39.4243 55.5728C39.8203 55.5728 40.1616 55.6206 40.4483 55.7162C40.7419 55.8049 40.9876 55.921 41.1856 56.0643C41.3904 56.2077 41.544 56.3545 41.6464 56.5046C41.7488 56.6548 41.8034 56.7914 41.8102 56.9142C41.8171 56.9825 41.7966 57.0439 41.7488 57.0986C41.701 57.1463 41.6464 57.1702 41.585 57.1702H40.52C40.4927 57.1702 40.4654 57.1668 40.4381 57.16C40.4108 57.1463 40.3869 57.1327 40.3664 57.119C40.2845 57.0781 40.2026 57.0235 40.1206 56.9552C40.0387 56.8869 39.9431 56.8255 39.8339 56.7709C39.7247 56.7163 39.5882 56.689 39.4243 56.689C39.24 56.689 39.0966 56.7299 38.9942 56.8118C38.8918 56.8938 38.8406 56.9996 38.8406 57.1293C38.8406 57.218 38.8679 57.2999 38.9226 57.375C38.984 57.4501 39.1035 57.5184 39.281 57.5798C39.4653 57.6413 39.7486 57.7095 40.1309 57.7846C40.6019 57.8597 40.9774 57.9826 41.2573 58.1533C41.5372 58.3171 41.7351 58.5117 41.8512 58.737C41.9673 58.9554 42.0253 59.1875 42.0253 59.4333C42.0253 59.761 41.9263 60.0511 41.7283 60.3037C41.5372 60.5563 41.2505 60.7542 40.8682 60.8976C40.4859 61.0341 40.0217 61.1024 39.4755 61.1024ZM43.2002 61C43.1251 61 43.0636 60.9761 43.0158 60.9283C42.9681 60.8805 42.9442 60.8191 42.9442 60.744V55.9312C42.9442 55.8561 42.9681 55.7947 43.0158 55.7469C43.0636 55.6991 43.1251 55.6752 43.2002 55.6752H44.3163C44.3914 55.6752 44.4529 55.6991 44.5006 55.7469C44.5484 55.7947 44.5723 55.8561 44.5723 55.9312V56.2794C44.7089 56.095 44.9 55.9346 45.1458 55.7981C45.3915 55.6547 45.6817 55.5796 46.0162 55.5728C46.8012 55.5591 47.3405 55.8561 47.6341 56.4637C47.7911 56.2043 48.0164 55.9926 48.3099 55.8288C48.6035 55.6581 48.9243 55.5728 49.2725 55.5728C49.6275 55.5728 49.9449 55.6547 50.2248 55.8186C50.5115 55.9756 50.7402 56.2213 50.9109 56.5558C51.0815 56.8835 51.1669 57.3102 51.1669 57.8358V60.744C51.1669 60.8191 51.1396 60.8805 51.085 60.9283C51.0372 60.9761 50.9791 61 50.9109 61H49.723C49.6479 61 49.5831 60.9761 49.5285 60.9283C49.4807 60.8805 49.4568 60.8191 49.4568 60.744V57.9075C49.4568 57.6686 49.4227 57.4809 49.3544 57.3443C49.2861 57.201 49.194 57.0986 49.0779 57.0371C48.9619 56.9757 48.8287 56.945 48.6786 56.945C48.5557 56.945 48.4328 56.9757 48.3099 57.0371C48.1939 57.0986 48.0983 57.201 48.0232 57.3443C47.9549 57.4809 47.9208 57.6686 47.9208 57.9075V60.744C47.9208 60.8191 47.8969 60.8805 47.8491 60.9283C47.8013 60.9761 47.7399 61 47.6648 61H46.477C46.4019 61 46.3404 60.9761 46.2926 60.9283C46.2449 60.8805 46.221 60.8191 46.221 60.744V57.9075C46.221 57.6686 46.1834 57.4809 46.1083 57.3443C46.0332 57.201 45.9377 57.0986 45.8216 57.0371C45.7055 56.9757 45.5758 56.945 45.4325 56.945C45.3096 56.945 45.1867 56.9757 45.0638 57.0371C44.9478 57.0986 44.8522 57.201 44.7771 57.3443C44.7089 57.4809 44.6747 57.6652 44.6747 57.8973V60.744C44.6747 60.8191 44.6474 60.8805 44.5928 60.9283C44.545 60.9761 44.4836 61 44.4085 61H43.2002ZM53.9116 61.1024C53.543 61.1024 53.2119 61.0341 52.9183 60.8976C52.6316 60.7542 52.4029 60.5631 52.2322 60.3242C52.0616 60.0852 51.9762 59.8156 51.9762 59.5152C51.9762 59.0305 52.1742 58.6482 52.5702 58.3683C52.9661 58.0816 53.4918 57.887 54.1471 57.7846L55.4271 57.5901V57.4467C55.4271 57.201 55.3759 57.0132 55.2735 56.8835C55.1711 56.7538 54.9834 56.689 54.7103 56.689C54.5192 56.689 54.3622 56.7265 54.2393 56.8016C54.1232 56.8767 54.0311 56.9791 53.9628 57.1088C53.9014 57.1975 53.816 57.2419 53.7068 57.2419H52.5599C52.4848 57.2419 52.4268 57.2214 52.3858 57.1805C52.3449 57.1327 52.3278 57.0781 52.3346 57.0166C52.3346 56.8938 52.379 56.7538 52.4678 56.5968C52.5633 56.433 52.7067 56.2725 52.8978 56.1155C53.089 55.9585 53.3347 55.8288 53.6351 55.7264C53.9355 55.624 54.2973 55.5728 54.7206 55.5728C55.1643 55.5728 55.5432 55.624 55.8572 55.7264C56.1712 55.8288 56.4238 55.9722 56.615 56.1565C56.8129 56.3408 56.9597 56.5593 57.0553 56.8118C57.1509 57.0576 57.1986 57.3307 57.1986 57.631V60.744C57.1986 60.8191 57.1713 60.8805 57.1167 60.9283C57.0689 60.9761 57.0109 61 56.9426 61H55.7548C55.6797 61 55.6183 60.9761 55.5705 60.9283C55.5227 60.8805 55.4988 60.8191 55.4988 60.744V60.3856C55.4101 60.5153 55.2906 60.6348 55.1404 60.744C54.9902 60.8532 54.8127 60.9386 54.6079 61C54.4099 61.0683 54.1778 61.1024 53.9116 61.1024ZM54.3929 59.935C54.5909 59.935 54.7683 59.8941 54.9254 59.8122C55.0892 59.7234 55.2155 59.5903 55.3042 59.4128C55.3998 59.2285 55.4476 58.9998 55.4476 58.7267V58.5834L54.5772 58.737C54.2563 58.7916 54.0208 58.8769 53.8706 58.993C53.7273 59.1022 53.6556 59.2319 53.6556 59.3821C53.6556 59.4981 53.6897 59.5971 53.758 59.679C53.8263 59.761 53.915 59.8258 54.0242 59.8736C54.1335 59.9146 54.2563 59.935 54.3929 59.935Z" fill="#E5E5E5"/>
</g>
<defs>
<filter id="filter0_d_603_811" x="0" y="0" width="80" height="80" filterUnits="userSpaceOnUse" color-interpolation-filters="sRGB">
<feFlood flood-opacity="0" result="BackgroundImageFix"/>
<feColorMatrix in="SourceAlpha" type="matrix" values="0 0 0 0 0 0 0 0 0 0 0 0 0 0 0 0 0 0 127 0" result="hardAlpha"/>
<feOffset dy="2"/>
<feGaussianBlur stdDeviation="4"/>
<feColorMatrix type="matrix" values="0 0 0 0 0 0 0 0 0 0 0 0 0 0 0 0 0 0 0.75 0"/>
<feBlend mode="normal" in2="BackgroundImageFix" result="effect1_dropShadow_603_811"/>
<feBlend mode="normal" in="SourceGraphic" in2="effect1_dropShadow_603_811" result="shape"/>
</filter>
<clipPath id="clip0_603_811">
<rect width="32" height="32" fill="white" transform="translate(24 11)"/>
</clipPath>
</defs>
</svg>
