<svg width="80" height="80" viewBox="0 0 80 80" fill="none" xmlns="http://www.w3.org/2000/svg">
<g filter="url(#filter0_d_602_412)">
<rect x="8" y="6" width="64" height="64" rx="5" fill="#212529"/>
<path d="M49.514 23.8461C49.462 22.9081 49.723 22.0211 49.305 21.2921C48.262 19.4671 45.656 18.4251 40.442 18.4251V18.3721V18.4241C34.707 18.4241 32.257 19.4671 31.215 21.2911C30.8607 22.0939 30.7001 22.9687 30.746 23.8451C30.5535 24.647 30.4658 25.4706 30.485 26.2951C30.641 27.4421 30.746 28.5891 30.902 29.6311C31.058 30.5171 32.31 31.1951 32.466 32.0311C32.779 34.2731 34.76 35.3151 40.494 35.3151V35.5761H40.394V35.3151C45.607 35.3151 47.794 34.2721 48.11 32.0311C48.21 31.1971 49.257 30.5191 49.41 29.6311C49.566 28.5881 49.619 27.4411 49.775 26.2951C49.7739 25.4719 49.6864 24.651 49.514 23.8461Z" fill="#EFCCA3"/>
<path d="M40.182 24.6799C41.0349 24.7579 41.8222 25.1703 42.372 25.8269C43.102 26.4529 44.301 26.8699 44.822 27.4429C45.4564 27.9689 45.9418 28.6519 46.23 29.4239C46.4293 30.1549 46.5345 30.9083 46.543 31.6659C46.543 31.9269 46.699 31.8749 47.116 31.6659C47.9419 31.1618 48.6814 30.528 49.306 29.7889C49.15 30.6749 48.055 31.4569 47.951 32.2889C47.638 34.5309 45.451 35.6249 40.079 35.6249H40.392" fill="#CCAC8D"/>
<path d="M43.519 22.9081C43.728 23.5861 44.405 25.9321 43.05 25.1501C43.5443 25.5384 43.8782 26.0952 43.9881 26.7141C44.0535 27.046 44.2097 27.3532 44.4391 27.6018C44.6686 27.8503 44.9624 28.0304 45.288 28.1221C46.1885 28.2556 47.1054 28.0309 47.842 27.4961C48.2744 27.0818 48.5707 26.546 48.6918 25.9595C48.8128 25.3731 48.753 24.7637 48.52 24.2121C48.3614 23.7629 48.0743 23.3703 47.6944 23.083C47.3144 22.7957 46.8584 22.6264 46.383 22.5961C45.4 22.3341 43.31 22.1261 43.519 22.9081Z" fill="#CCAC8D"/>
<path d="M46.178 27.339C47.2434 27.339 48.107 26.4753 48.107 25.41C48.107 24.3446 47.2434 23.481 46.178 23.481C45.1127 23.481 44.249 24.3446 44.249 25.41C44.249 26.4753 45.1127 27.339 46.178 27.339Z" fill="black"/>
<path d="M45.656 25.0449C45.9438 25.0449 46.177 24.8117 46.177 24.5239C46.177 24.2362 45.9438 24.0029 45.656 24.0029C45.3683 24.0029 45.135 24.2362 45.135 24.5239C45.135 24.8117 45.3683 25.0449 45.656 25.0449Z" fill="white"/>
<path d="M43.2061 25.3059C44.1869 25.994 45.0952 26.7801 45.9171 27.6519C46.8551 28.8519 46.8551 29.0599 46.8551 29.0599L46.1771 29.3729C45.6702 28.3838 44.9382 27.5275 44.0401 26.8729C42.8401 26.1949 42.6851 25.6219 42.6851 25.6219L43.2061 25.3059Z" fill="#EFCCA3"/>
<path d="M40.235 24.6799C39.3372 24.7556 38.5002 25.1648 37.889 25.8269C37.159 26.4529 35.856 26.8699 35.389 27.4429C34.7387 27.9654 34.2355 28.6481 33.929 29.4239C33.7297 30.1549 33.6245 30.9083 33.616 31.6659C33.616 31.9269 33.668 31.9789 32.99 31.6659C32.152 31.1786 31.4099 30.5426 30.8 29.7889C30.956 30.6749 32.051 31.4569 32.155 32.2889C32.468 34.4789 34.655 35.5729 40.027 35.5729H40.392" fill="#CCAC8D"/>
<path d="M45.2389 28.2769C44.6408 27.4834 43.87 26.8363 42.9849 26.3847C42.0997 25.933 41.1235 25.6886 40.1299 25.6699C39.1376 25.6948 38.1635 25.942 37.2793 26.3931C36.3952 26.8443 35.6234 27.488 35.0209 28.2769C34.6197 28.6948 34.3175 29.1976 34.137 29.748C33.9564 30.2985 33.9021 30.8826 33.9779 31.4569C33.9779 36.0969 35.5939 34.6889 36.6889 35.2629C37.7795 35.6268 38.9392 35.7339 40.0779 35.5759C41.2166 35.7363 42.3769 35.6291 43.4669 35.2629C44.5619 34.6899 46.1779 36.0969 46.1779 31.4569C46.3072 30.8908 46.2888 30.301 46.1243 29.7441C45.9599 29.1872 45.655 28.682 45.2389 28.2769Z" fill="#56332B"/>
<path d="M40.026 26.9741C39.9867 27.8428 39.8289 28.7021 39.557 29.5281L40.13 29.3721L40.026 26.9741Z" fill="#442823"/>
<path d="M40.182 26.9741C40.2213 27.8428 40.3791 28.7021 40.651 29.5281L40.078 29.3721L40.182 26.9741Z" fill="#442823"/>
<path d="M38.358 26.4529C38.149 25.9319 38.931 25.0979 40.183 25.0979C41.435 25.0979 42.216 25.9319 42.008 26.4529C41.8 26.9739 40.965 27.1309 40.183 27.1309C39.348 27.1299 38.566 26.9739 38.358 26.4529Z" fill="#56332B"/>
<path d="M40.182 26.9739C40.182 26.8739 40.912 26.8739 41.329 26.6089C41.329 26.6089 40.495 26.8699 40.338 26.7649C40.2301 26.6695 40.1567 26.5412 40.129 26.3999C40.1012 26.5412 40.0278 26.6695 39.92 26.7649C39.764 26.8649 38.825 26.6089 38.825 26.6089C39.2338 26.6992 39.635 26.8212 40.025 26.9739V27.3909C39.9923 28.0702 40.0258 28.7511 40.125 29.4239C40.281 29.6329 40.225 27.9639 40.225 27.3909C40.1882 27.2551 40.1736 27.1143 40.182 26.9739Z" fill="black"/>
<path d="M40.1821 29.9451C40.7713 30.0237 41.3291 30.2577 41.7981 30.6231C41.3903 30.0947 40.8239 29.7109 40.1821 29.5281C39.4459 29.6878 38.7955 30.1155 38.3571 30.7281C38.871 30.2865 39.508 30.0133 40.1821 29.9451Z" fill="#7F4A41"/>
<path d="M40.0781 33.8001C39.2603 33.7549 38.4527 33.5971 37.6781 33.3311C37.5221 33.2791 37.3651 33.3831 37.2091 33.3311C35.9492 32.9741 34.8355 32.2257 34.0291 31.1941V31.4031C34.0291 36.0431 35.6451 34.6351 36.7401 35.2091C37.8306 35.5729 38.9904 35.6801 40.1291 35.5221C41.2677 35.6825 42.428 35.5753 43.5181 35.2091C44.6131 34.6361 46.2291 36.0431 46.2291 31.4031V30.9341C45.4574 32.0674 44.316 32.8974 43.0001 33.2821C42.8441 33.3341 42.5831 33.2301 42.4271 33.2301C41.6827 33.554 40.888 33.7468 40.0781 33.8001Z" fill="#442823"/>
<path d="M37.941 31.3C37.941 31.3 37.368 32.9681 37.785 33.7001L37.264 33.491C37.4351 32.7449 37.6613 32.0126 37.941 31.3Z" fill="#442823"/>
<path d="M42.3199 31.3C42.3199 31.3 42.8929 32.9681 42.4759 33.7001L42.9999 33.491C42.853 32.7383 42.625 32.0037 42.3199 31.3Z" fill="#442823"/>
<path d="M36.5849 22.908C36.3759 23.586 35.6989 25.932 37.0539 25.15C36.5597 25.5383 36.2257 26.0951 36.1159 26.714C36.0505 27.0459 35.8943 27.3531 35.6649 27.6017C35.4354 27.8502 35.1415 28.0303 34.8159 28.122C33.9147 28.2577 32.9962 28.0344 32.2579 27.5C31.8256 27.0857 31.5293 26.5499 31.4082 25.9635C31.2872 25.377 31.347 24.7677 31.5799 24.216C31.7385 23.7668 32.0257 23.3742 32.4056 23.0869C32.7855 22.7996 33.2416 22.6303 33.7169 22.6C34.7089 22.334 36.7939 22.126 36.5849 22.908Z" fill="#CCAC8D"/>
<path d="M40.1301 29.528C40.7762 29.7099 41.3539 30.0794 41.7901 30.5897C42.2262 31.1001 42.5011 31.7283 42.5801 32.395V32.295C42.5636 31.6026 42.3121 30.9364 41.8668 30.4059C41.4216 29.8754 40.8091 29.5122 40.1301 29.376C39.4467 29.5034 38.8289 29.8641 38.382 30.3965C37.9352 30.9289 37.687 31.5999 37.6801 32.295V32.395C37.7677 31.7315 38.0457 31.1075 38.4806 30.5987C38.9154 30.0899 39.4883 29.718 40.1301 29.528Z" fill="black"/>
<path d="M40.624 26.441C40.7075 26.4195 40.7401 26.2663 40.6969 26.099C40.6538 25.9316 40.5511 25.8133 40.4677 25.8348C40.3843 25.8563 40.3516 26.0095 40.3948 26.1769C40.438 26.3443 40.5406 26.4625 40.624 26.441Z" fill="#331712"/>
<path d="M39.7577 26.1927C39.8089 26.0276 39.7837 25.873 39.7014 25.8475C39.6191 25.822 39.5109 25.9351 39.4597 26.1002C39.4085 26.2653 39.4337 26.4199 39.5159 26.4454C39.5982 26.4709 39.7065 26.3578 39.7577 26.1927Z" fill="#331712"/>
<path d="M34.0311 27.339C35.0964 27.339 35.9601 26.4753 35.9601 25.41C35.9601 24.3446 35.0964 23.481 34.0311 23.481C32.9657 23.481 32.1021 24.3446 32.1021 25.41C32.1021 26.4753 32.9657 27.339 34.0311 27.339Z" fill="black"/>
<path d="M34.552 25.0449C34.8397 25.0449 35.073 24.8117 35.073 24.5239C35.073 24.2362 34.8397 24.0029 34.552 24.0029C34.2643 24.0029 34.031 24.2362 34.031 24.5239C34.031 24.8117 34.2643 25.0449 34.552 25.0449Z" fill="white"/>
<path d="M40.7 25.4099C40.7 25.4099 40.179 25.6189 40.074 25.6709C39.8544 25.6128 39.6438 25.525 39.448 25.4099H40.7Z" fill="#7F4A41"/>
<path d="M36.9 25.3059C35.9192 25.994 35.0108 26.7801 34.189 27.6519C33.251 28.8519 33.251 29.0599 33.251 29.0599L33.929 29.3729C34.4358 28.3838 35.1678 27.5275 36.066 26.8729C37.266 26.1949 37.421 25.6219 37.421 25.6219L36.9 25.3059Z" fill="#EFCCA3"/>
<path d="M33.092 21.813C32.7287 22.7748 32.0482 23.584 31.163 24.107C31.7159 24.0415 32.223 23.7678 32.5814 23.3417C32.9397 22.9155 33.1223 22.3689 33.092 21.813Z" fill="#CCAC8D"/>
<path d="M46.908 21.813C47.2713 22.7748 47.9518 23.584 48.837 24.107C48.2841 24.0415 47.777 23.7678 47.4186 23.3417C47.0603 22.9155 46.8777 22.3689 46.908 21.813Z" fill="#CCAC8D"/>
<path d="M43.31 24.836C42.472 24.0344 41.3884 23.5384 40.234 23.428H40.39C39.8126 23.4211 39.2411 23.544 38.7177 23.7877C38.1942 24.0314 37.7323 24.3897 37.366 24.836C38.2263 24.1551 39.2928 23.7873 40.39 23.793C41.4401 23.8685 42.4497 24.2291 43.31 24.836Z" fill="#CCAC8D"/>
<path d="M41.746 21.969C41.3645 21.4671 40.8045 21.1313 40.182 21.031H40.338C40.026 21.0416 39.7222 21.1337 39.4569 21.2983C39.1916 21.4629 38.9741 21.6941 38.826 21.969C39.2216 21.5534 39.7646 21.3099 40.338 21.291C40.6075 21.2973 40.8724 21.3611 41.1152 21.478C41.358 21.5949 41.5731 21.7623 41.746 21.969Z" fill="#CCAC8D"/>
<path d="M34.0309 28.7461C33.4846 29.0276 32.8548 29.1018 32.2579 28.9551H32.0499C31.6372 28.5298 31.3332 28.0111 31.1639 27.4431C31.3805 27.989 31.8001 28.4297 32.3347 28.6726C32.8694 28.9156 33.4773 28.9419 34.0309 28.7461Z" fill="#CCAC8D"/>
<path d="M46.126 28.7461C46.6724 29.0276 47.3021 29.1018 47.899 28.9551H47.69C47.9967 28.8322 48.2623 28.625 48.4561 28.3574C48.6499 28.0898 48.7639 27.7728 48.785 27.4431C48.7048 27.7092 48.5706 27.956 48.3908 28.1679C48.2109 28.3797 47.9892 28.5522 47.7397 28.6745C47.4901 28.7968 47.2179 28.8663 46.9403 28.8786C46.6626 28.891 46.3854 28.8458 46.126 28.7461Z" fill="#CCAC8D"/>
<path d="M35.23 21.709C35.9746 21.5628 36.7434 21.5971 37.472 21.809C38.41 22.122 37.681 23.373 37.837 23.425C38.1375 23.1513 38.4928 22.9446 38.8794 22.8187C39.266 22.6929 39.6749 22.6507 40.079 22.695C41.852 22.795 42.06 23.581 42.321 23.425C42.582 23.325 42.06 21.235 44.771 21.705C44.771 21.705 42.008 20.975 42.112 22.956C41.5414 22.5833 40.8785 22.3765 40.1972 22.3589C39.5159 22.3412 38.8431 22.5133 38.254 22.856C38.254 22.856 38.827 20.927 35.23 21.709Z" fill="#CCAC8D"/>
<path d="M34.5 19C34.5 19 32.1 21.972 31.789 23.118C31.424 24.265 31.163 29.061 30.851 29.739L29.756 25.045L31.789 20.145L34.5 19Z" fill="#CCAC8D"/>
<path d="M45.656 19C45.656 19 48.056 21.972 48.367 23.118C48.732 24.265 48.993 29.061 49.305 29.739L50.4 25.045L48.367 20.145L45.656 19Z" fill="#CCAC8D"/>
<path d="M45.5 19C46.9551 20.2362 48.083 21.812 48.784 23.588C49.514 26.038 49.201 29.062 49.775 29.427C50.609 29.948 51.495 26.82 51.808 26.508C52.277 25.987 53.893 24.631 53.998 24.371C54.103 24.111 50.766 20.461 49.254 19.731C47.585 18.893 45.4 18.789 45.5 19Z" fill="#56332B"/>
<path d="M47.6899 20.3C49.5357 22.8164 50.5722 25.8347 50.6619 28.954L51.8619 26.504C50.9623 24.1451 49.5352 22.0231 47.6899 20.3Z" fill="#442823"/>
<path d="M34.5001 19C33.045 20.2362 31.9171 21.812 31.2161 23.588C30.4861 26.038 30.7991 29.062 30.2251 29.427C29.3911 29.948 28.5051 26.82 28.1921 26.508C27.7231 25.987 26.1071 24.631 26.0021 24.371C25.8971 24.111 29.2341 20.461 30.7461 19.731C32.4151 18.893 34.6001 18.789 34.5001 19Z" fill="#56332B"/>
<path d="M32.31 20.3C30.4643 22.8164 29.4277 25.8347 29.338 28.954L28.14 26.5C29.0397 24.1428 30.4659 22.0221 32.31 20.3Z" fill="#442823"/>
<path d="M30.642 29.0071C30.7244 29.562 30.9194 30.0942 31.215 30.5711C31.58 30.9361 31.315 30.2581 31.315 30.2581C31.315 30.2581 30.95 30.0491 31.002 28.5381C31.054 27.0271 30.642 29.0071 30.642 29.0071Z" fill="#CCAC8D"/>
<path d="M49.41 29.0069C49.3275 29.5618 49.1325 30.0941 48.837 30.5709C48.472 30.9359 48.737 30.2579 48.737 30.2579C48.737 30.2579 49.102 30.0489 49.05 28.5379C48.993 27.0779 49.41 29.0069 49.41 29.0069Z" fill="#CCAC8D"/>
<path d="M37.889 28.2771C37.9752 28.2771 38.045 28.2072 38.045 28.1211C38.045 28.0349 37.9752 27.9651 37.889 27.9651C37.8029 27.9651 37.733 28.0349 37.733 28.1211C37.733 28.2072 37.8029 28.2771 37.889 28.2771Z" fill="#442823"/>
<path d="M36.8459 29.3721C36.9321 29.3721 37.0019 29.3022 37.0019 29.2161C37.0019 29.1299 36.9321 29.0601 36.8459 29.0601C36.7598 29.0601 36.6899 29.1299 36.6899 29.2161C36.6899 29.3022 36.7598 29.3721 36.8459 29.3721Z" fill="#442823"/>
<path d="M36.533 28.2771C36.6191 28.2771 36.689 28.2072 36.689 28.1211C36.689 28.0349 36.6191 27.9651 36.533 27.9651C36.4468 27.9651 36.377 28.0349 36.377 28.1211C36.377 28.2072 36.4468 28.2771 36.533 28.2771Z" fill="#442823"/>
<path d="M42.1641 28.2771C42.2502 28.2771 42.3201 28.2072 42.3201 28.1211C42.3201 28.0349 42.2502 27.9651 42.1641 27.9651C42.0779 27.9651 42.0081 28.0349 42.0081 28.1211C42.0081 28.2072 42.0779 28.2771 42.1641 28.2771Z" fill="#442823"/>
<path d="M43.154 29.3721C43.2402 29.3721 43.31 29.3022 43.31 29.2161C43.31 29.1299 43.2402 29.0601 43.154 29.0601C43.0679 29.0601 42.998 29.1299 42.998 29.2161C42.998 29.3022 43.0679 29.3721 43.154 29.3721Z" fill="#442823"/>
<path d="M43.467 28.2771C43.5532 28.2771 43.623 28.2072 43.623 28.1211C43.623 28.0349 43.5532 27.9651 43.467 27.9651C43.3809 27.9651 43.311 28.0349 43.311 28.1211C43.311 28.2072 43.3809 28.2771 43.467 28.2771Z" fill="#442823"/>
<path d="M30.9728 61C30.8977 61 30.8363 60.9761 30.7885 60.9283C30.7407 60.8805 30.7168 60.8191 30.7168 60.744V54.088C30.7168 54.0129 30.7407 53.9515 30.7885 53.9037C30.8363 53.8559 30.8977 53.832 30.9728 53.832H33.84C34.4066 53.832 34.8981 53.9207 35.3146 54.0982C35.7378 54.2689 36.0655 54.5283 36.2976 54.8765C36.5365 55.2246 36.656 55.665 36.656 56.1974C36.656 56.7231 36.5365 57.1566 36.2976 57.4979C36.0655 57.8393 35.7378 58.0918 35.3146 58.2557C34.8981 58.4195 34.4066 58.5014 33.84 58.5014H32.6214V60.744C32.6214 60.8191 32.5941 60.8805 32.5395 60.9283C32.4917 60.9761 32.4303 61 32.3552 61H30.9728ZM32.5907 57.0883H33.7888C34.0823 57.0883 34.3145 57.0132 34.4851 56.863C34.6626 56.7129 34.7514 56.4842 34.7514 56.177C34.7514 55.9175 34.6763 55.6991 34.5261 55.5216C34.3759 55.3441 34.1301 55.2554 33.7888 55.2554H32.5907V57.0883ZM39.48 61.1024C39.0909 61.1024 38.7427 61.0137 38.4355 60.8362C38.1351 60.6587 37.8996 60.3993 37.729 60.0579C37.5583 59.7098 37.473 59.2865 37.473 58.7882V55.9312C37.473 55.8561 37.4969 55.7947 37.5446 55.7469C37.5924 55.6991 37.6539 55.6752 37.729 55.6752H39.009C39.0841 55.6752 39.1455 55.6991 39.1933 55.7469C39.2411 55.7947 39.265 55.8561 39.265 55.9312V58.7267C39.265 59.3957 39.5653 59.7302 40.1661 59.7302C40.446 59.7302 40.6678 59.6449 40.8317 59.4742C41.0023 59.2967 41.0877 59.0476 41.0877 58.7267V55.9312C41.0877 55.8561 41.1116 55.7947 41.1594 55.7469C41.2071 55.6991 41.2686 55.6752 41.3437 55.6752H42.6237C42.6988 55.6752 42.7602 55.6991 42.808 55.7469C42.8558 55.7947 42.8797 55.8561 42.8797 55.9312V60.744C42.8797 60.8191 42.8558 60.8805 42.808 60.9283C42.7602 60.9761 42.6988 61 42.6237 61H41.4358C41.3676 61 41.3061 60.9761 41.2515 60.9283C41.2037 60.8805 41.1798 60.8191 41.1798 60.744V60.3549C41.0023 60.6006 40.7702 60.7884 40.4835 60.9181C40.2036 61.041 39.8691 61.1024 39.48 61.1024ZM46.6954 63.2528C46.1697 63.2528 45.7328 63.1845 45.3846 63.048C45.0433 62.9115 44.7702 62.7476 44.5654 62.5565C44.3675 62.3653 44.2241 62.1742 44.1354 61.983C44.0466 61.7987 43.9988 61.6519 43.992 61.5427C43.9852 61.4676 44.0091 61.4062 44.0637 61.3584C44.1183 61.3106 44.1831 61.2867 44.2582 61.2867H45.5587C45.6202 61.2867 45.6714 61.3004 45.7123 61.3277C45.7601 61.3618 45.7977 61.4164 45.825 61.4915C45.8591 61.5666 45.9035 61.6451 45.9581 61.727C46.0195 61.809 46.1014 61.8738 46.2038 61.9216C46.3131 61.9762 46.4598 62.0035 46.6442 62.0035C46.849 62.0035 47.0196 61.9694 47.1562 61.9011C47.2927 61.8397 47.3951 61.7339 47.4634 61.5837C47.5316 61.4403 47.5658 61.2458 47.5658 61V60.3139C47.4087 60.4846 47.2074 60.6245 46.9616 60.7338C46.7158 60.8362 46.4189 60.8874 46.0707 60.8874C45.7226 60.8874 45.4154 60.8362 45.1491 60.7338C44.8829 60.6314 44.661 60.4778 44.4835 60.273C44.306 60.0682 44.1661 59.819 44.0637 59.5254C43.9681 59.2319 43.9101 58.894 43.8896 58.5117C43.8828 58.3342 43.8828 58.1567 43.8896 57.9792C43.9101 57.6106 43.9681 57.2795 44.0637 56.9859C44.1593 56.6924 44.2958 56.4398 44.4733 56.2282C44.6576 56.0165 44.8829 55.8561 45.1491 55.7469C45.4154 55.6308 45.7226 55.5728 46.0707 55.5728C46.4394 55.5728 46.7534 55.6445 47.0128 55.7878C47.279 55.9244 47.4975 56.0985 47.6682 56.3101V55.9312C47.6682 55.8629 47.6921 55.8049 47.7398 55.7571C47.7876 55.7025 47.8491 55.6752 47.9242 55.6752H49.1018C49.1769 55.6752 49.2383 55.7025 49.2861 55.7571C49.3407 55.8049 49.368 55.8629 49.368 55.9312V60.8566C49.368 61.3755 49.2622 61.8124 49.0506 62.1674C48.8389 62.5223 48.5351 62.792 48.1392 62.9763C47.7433 63.1606 47.262 63.2528 46.6954 63.2528ZM46.6237 59.5562C46.8421 59.5562 47.0196 59.5084 47.1562 59.4128C47.2927 59.3172 47.3917 59.1943 47.4531 59.0442C47.5214 58.894 47.5589 58.7335 47.5658 58.5629C47.5726 58.4878 47.576 58.382 47.576 58.2454C47.576 58.1089 47.5726 58.0065 47.5658 57.9382C47.5589 57.7607 47.5214 57.5969 47.4531 57.4467C47.3917 57.2965 47.2927 57.1771 47.1562 57.0883C47.0196 56.9927 46.8421 56.945 46.6237 56.945C46.3984 56.945 46.2175 56.9927 46.081 57.0883C45.9513 57.1839 45.8557 57.3136 45.7942 57.4774C45.7396 57.6413 45.7055 57.8222 45.6918 58.0202C45.685 58.1703 45.685 58.3239 45.6918 58.481C45.7055 58.6789 45.7396 58.8598 45.7942 59.0237C45.8557 59.1875 45.9513 59.3172 46.081 59.4128C46.2175 59.5084 46.3984 59.5562 46.6237 59.5562Z" fill="#E5E5E5"/>
</g>
<defs>
<filter id="filter0_d_602_412" x="0" y="0" width="80" height="80" filterUnits="userSpaceOnUse" color-interpolation-filters="sRGB">
<feFlood flood-opacity="0" result="BackgroundImageFix"/>
<feColorMatrix in="SourceAlpha" type="matrix" values="0 0 0 0 0 0 0 0 0 0 0 0 0 0 0 0 0 0 127 0" result="hardAlpha"/>
<feOffset dy="2"/>
<feGaussianBlur stdDeviation="4"/>
<feColorMatrix type="matrix" values="0 0 0 0 0 0 0 0 0 0 0 0 0 0 0 0 0 0 0.75 0"/>
<feBlend mode="normal" in2="BackgroundImageFix" result="effect1_dropShadow_602_412"/>
<feBlend mode="normal" in="SourceGraphic" in2="effect1_dropShadow_602_412" result="shape"/>
</filter>
</defs>
</svg>
