<svg width="80" height="80" viewBox="0 0 80 80" fill="none" xmlns="http://www.w3.org/2000/svg">
<g filter="url(#filter0_d_602_1534)">
<rect x="8" y="6" width="64" height="64" rx="5" fill="#212529"/>
<path d="M47.5511 30.859L48.4756 28.5213H51.1448L49.878 24.9751L51.4623 20.9688L56 33.0168H52.6536L51.8782 30.859H47.5511Z" fill="white"/>
<path d="M44.6962 33.0168L49.5539 20.9688L46.3335 20.9688L43.0105 28.7545L40.6476 20.9688H38.1721L35.6349 28.7545L33.8457 25.2067L32.2264 30.1953L33.8704 33.0168H37.0398L39.3325 26.0347L41.5185 33.0168H44.6962Z" fill="#5A0FC8"/>
<path d="M27.057 28.8809H29.0406C29.6415 28.8809 30.1766 28.8139 30.6458 28.6797L31.1588 27.0993L32.5926 22.6821C32.4833 22.509 32.3586 22.3452 32.2184 22.191C31.4823 21.3762 30.4052 20.9688 28.9872 20.9688H24V33.0168H27.057V28.8809ZM29.6827 23.7405C29.9702 24.0299 30.114 24.4172 30.114 24.9024C30.114 25.3912 29.9875 25.779 29.7346 26.0656C29.4574 26.384 28.947 26.5432 28.2033 26.5432H27.057V23.3064H28.2118C28.9048 23.3064 29.3951 23.4511 29.6827 23.7405Z" fill="white"/>
<path d="M29.9728 61C29.8977 61 29.8363 60.9761 29.7885 60.9283C29.7407 60.8805 29.7168 60.8191 29.7168 60.744V54.088C29.7168 54.0129 29.7407 53.9515 29.7885 53.9037C29.8363 53.8559 29.8977 53.832 29.9728 53.832H32.84C33.4066 53.832 33.8981 53.9207 34.3146 54.0982C34.7378 54.2689 35.0655 54.5283 35.2976 54.8765C35.5365 55.2246 35.656 55.665 35.656 56.1974C35.656 56.7231 35.5365 57.1566 35.2976 57.4979C35.0655 57.8393 34.7378 58.0918 34.3146 58.2557C33.8981 58.4195 33.4066 58.5014 32.84 58.5014H31.6214V60.744C31.6214 60.8191 31.5941 60.8805 31.5395 60.9283C31.4917 60.9761 31.4303 61 31.3552 61H29.9728ZM31.5907 57.0883H32.7888C33.0823 57.0883 33.3145 57.0132 33.4851 56.863C33.6626 56.7129 33.7514 56.4842 33.7514 56.177C33.7514 55.9175 33.6763 55.6991 33.5261 55.5216C33.3759 55.3441 33.1301 55.2554 32.7888 55.2554H31.5907V57.0883ZM38.009 61C37.9066 61 37.8315 60.9761 37.7837 60.9283C37.7359 60.8805 37.6983 60.8191 37.671 60.744L36.1965 56.0029C36.1828 55.9687 36.176 55.9346 36.176 55.9005C36.176 55.839 36.1999 55.7878 36.2477 55.7469C36.2955 55.6991 36.3501 55.6752 36.4115 55.6752H37.4662C37.555 55.6752 37.6233 55.6991 37.671 55.7469C37.7257 55.7947 37.7598 55.8425 37.7734 55.8902L38.6336 58.8189L39.5552 55.9005C39.5689 55.8527 39.5996 55.8049 39.6474 55.7571C39.702 55.7025 39.7771 55.6752 39.8726 55.6752H40.5485C40.6441 55.6752 40.7157 55.7025 40.7635 55.7571C40.8181 55.8049 40.8523 55.8527 40.8659 55.9005L41.7875 58.8189L42.6477 55.8902C42.6613 55.8425 42.6921 55.7947 42.7398 55.7469C42.7945 55.6991 42.8661 55.6752 42.9549 55.6752H44.0096C44.071 55.6752 44.1222 55.6991 44.1632 55.7469C44.211 55.7878 44.2349 55.839 44.2349 55.9005C44.2349 55.9346 44.2315 55.9687 44.2246 56.0029L42.7501 60.744C42.7296 60.8191 42.6921 60.8805 42.6374 60.9283C42.5897 60.9761 42.5146 61 42.4122 61H41.4906C41.395 61 41.3199 60.9761 41.2653 60.9283C41.2107 60.8805 41.1731 60.8191 41.1526 60.744L40.2106 57.9382L39.2685 60.744C39.248 60.8191 39.2105 60.8805 39.1558 60.9283C39.1012 60.9761 39.0261 61 38.9306 61H38.009ZM46.5216 61.1024C46.153 61.1024 45.8219 61.0341 45.5283 60.8976C45.2416 60.7542 45.0129 60.5631 44.8422 60.3242C44.6716 60.0852 44.5862 59.8156 44.5862 59.5152C44.5862 59.0305 44.7842 58.6482 45.1802 58.3683C45.5761 58.0816 46.1018 57.887 46.7571 57.7846L48.0371 57.5901V57.4467C48.0371 57.201 47.9859 57.0132 47.8835 56.8835C47.7811 56.7538 47.5934 56.689 47.3203 56.689C47.1292 56.689 46.9722 56.7265 46.8493 56.8016C46.7332 56.8767 46.6411 56.9791 46.5728 57.1088C46.5114 57.1975 46.426 57.2419 46.3168 57.2419H45.1699C45.0948 57.2419 45.0368 57.2214 44.9958 57.1805C44.9549 57.1327 44.9378 57.0781 44.9446 57.0166C44.9446 56.8938 44.989 56.7538 45.0778 56.5968C45.1733 56.433 45.3167 56.2725 45.5078 56.1155C45.699 55.9585 45.9447 55.8288 46.2451 55.7264C46.5455 55.624 46.9073 55.5728 47.3306 55.5728C47.7743 55.5728 48.1532 55.624 48.4672 55.7264C48.7812 55.8288 49.0338 55.9722 49.225 56.1565C49.4229 56.3408 49.5697 56.5593 49.6653 56.8118C49.7609 57.0576 49.8086 57.3307 49.8086 57.631V60.744C49.8086 60.8191 49.7813 60.8805 49.7267 60.9283C49.6789 60.9761 49.6209 61 49.5526 61H48.3648C48.2897 61 48.2283 60.9761 48.1805 60.9283C48.1327 60.8805 48.1088 60.8191 48.1088 60.744V60.3856C48.0201 60.5153 47.9006 60.6348 47.7504 60.744C47.6002 60.8532 47.4227 60.9386 47.2179 61C47.0199 61.0683 46.7878 61.1024 46.5216 61.1024ZM47.0029 59.935C47.2009 59.935 47.3783 59.8941 47.5354 59.8122C47.6992 59.7234 47.8255 59.5903 47.9142 59.4128C48.0098 59.2285 48.0576 58.9998 48.0576 58.7267V58.5834L47.1872 58.737C46.8663 58.7916 46.6308 58.8769 46.4806 58.993C46.3373 59.1022 46.2656 59.2319 46.2656 59.3821C46.2656 59.4981 46.2997 59.5971 46.368 59.679C46.4363 59.761 46.525 59.8258 46.6342 59.8736C46.7435 59.9146 46.8663 59.935 47.0029 59.935Z" fill="#E5E5E5"/>
</g>
<defs>
<filter id="filter0_d_602_1534" x="0" y="0" width="80" height="80" filterUnits="userSpaceOnUse" color-interpolation-filters="sRGB">
<feFlood flood-opacity="0" result="BackgroundImageFix"/>
<feColorMatrix in="SourceAlpha" type="matrix" values="0 0 0 0 0 0 0 0 0 0 0 0 0 0 0 0 0 0 127 0" result="hardAlpha"/>
<feOffset dy="2"/>
<feGaussianBlur stdDeviation="4"/>
<feColorMatrix type="matrix" values="0 0 0 0 0 0 0 0 0 0 0 0 0 0 0 0 0 0 0.75 0"/>
<feBlend mode="normal" in2="BackgroundImageFix" result="effect1_dropShadow_602_1534"/>
<feBlend mode="normal" in="SourceGraphic" in2="effect1_dropShadow_602_1534" result="shape"/>
</filter>
</defs>
</svg>
