<svg width="80" height="80" viewBox="0 0 80 80" fill="none" xmlns="http://www.w3.org/2000/svg">
<g filter="url(#filter0_d_602_1879)">
<rect x="8" y="6" width="64" height="64" rx="5" fill="#212529"/>
<path d="M53.4666 21.7559C53.4666 20.0073 51.2769 18.3502 47.9196 17.3226C48.6944 13.9007 48.35 11.1783 46.8327 10.3067C46.483 10.1022 46.0742 10.0054 45.6276 10.0054V11.2052C45.8751 11.2052 46.0742 11.2536 46.2409 11.3451C46.9726 11.7647 47.2901 13.3627 47.0425 15.4179C46.9835 15.9237 46.8866 16.4563 46.7682 16.9997C45.7136 16.7415 44.5623 16.5424 43.3517 16.4133C42.6254 15.4179 41.8722 14.5141 41.1135 13.7232C42.8675 12.0929 44.5139 11.1998 45.633 11.1998V10C44.1533 10 42.2165 11.0545 40.2581 12.8838C38.2996 11.0653 36.3628 10.0215 34.8832 10.0215V11.2213C35.9969 11.2213 37.6486 12.1091 39.4026 13.7285C38.6494 14.5194 37.8961 15.4179 37.1805 16.4133C35.9646 16.5424 34.8132 16.7415 33.7587 17.0051C33.6349 16.4671 33.5435 15.9452 33.4789 15.4448C33.2261 13.3896 33.5381 11.7916 34.2645 11.3666C34.4258 11.2697 34.6357 11.2267 34.8832 11.2267V10.0269C34.4312 10.0269 34.0223 10.1237 33.6673 10.3282C32.1554 11.1998 31.8165 13.9168 32.5966 17.3279C29.2501 18.361 27.071 20.0127 27.071 21.7559C27.071 23.5045 29.2608 25.1617 32.6181 26.1892C31.8433 29.6112 32.1876 32.3335 33.7049 33.2051C34.0547 33.4095 34.4635 33.5064 34.9155 33.5064C36.395 33.5064 38.332 32.4519 40.2904 30.6226C42.2487 32.4412 44.1857 33.485 45.6652 33.485C46.1171 33.485 46.5261 33.3881 46.8812 33.1836C48.393 32.312 48.732 29.5949 47.9518 26.1839C51.2876 25.1563 53.4666 23.4991 53.4666 21.7559V21.7559ZM46.4616 18.1673C46.2625 18.8614 46.015 19.5768 45.7351 20.2924C45.5146 19.8621 45.2833 19.4316 45.0304 19.0012C44.7829 18.5708 44.5192 18.1511 44.2556 17.7422C45.0196 17.8552 45.7567 17.9951 46.4616 18.1673V18.1673ZM43.9973 23.8972C43.5777 24.6237 43.1473 25.3123 42.7007 25.9526C41.899 26.0225 41.0867 26.0601 40.2688 26.0601C39.4564 26.0601 38.644 26.0225 37.8478 25.9579C37.4012 25.3176 36.9653 24.6344 36.5457 23.9134C36.1367 23.2086 35.7656 22.493 35.4266 21.7721C35.7602 21.0511 36.1367 20.3301 36.5404 19.6253C36.96 18.899 37.3903 18.2103 37.8369 17.5701C38.6387 17.5001 39.451 17.4624 40.2688 17.4624C41.0813 17.4624 41.8937 17.5001 42.6899 17.5647C43.1365 18.2049 43.5724 18.8882 43.992 19.6092C44.4009 20.314 44.7721 21.0296 45.1111 21.7506C44.7721 22.4715 44.4009 23.1925 43.9973 23.8972V23.8972ZM45.7351 23.1979C46.0176 23.899 46.2654 24.6137 46.4777 25.3391C45.7728 25.5113 45.0304 25.6566 44.261 25.7696C44.5246 25.3554 44.7882 24.9303 45.0358 24.4944C45.2833 24.0641 45.5146 23.6282 45.7351 23.1979ZM40.2795 28.9386C39.7792 28.422 39.2788 27.8464 38.7839 27.2169C39.2681 27.2384 39.7631 27.2546 40.2634 27.2546C40.7692 27.2546 41.2696 27.2439 41.7592 27.2169C41.2974 27.8171 40.8034 28.3918 40.2795 28.9386V28.9386ZM36.2767 25.7696C35.5127 25.6566 34.7756 25.5167 34.0708 25.3445C34.2698 24.6505 34.5174 23.9349 34.7971 23.2193C35.0177 23.6498 35.2491 24.0802 35.5019 24.5106C35.7548 24.941 36.0131 25.3607 36.2767 25.7696ZM40.2527 14.5732C40.7531 15.0897 41.2534 15.6654 41.7484 16.2949C41.2641 16.2734 40.7692 16.2573 40.2688 16.2573C39.7631 16.2573 39.2627 16.268 38.7732 16.2949C39.235 15.6948 39.7289 15.1201 40.2527 14.5732V14.5732ZM36.2712 17.7422C36.0076 18.1565 35.744 18.5815 35.4966 19.0173C35.2491 19.4478 35.0177 19.8782 34.7971 20.3086C34.5146 19.6074 34.2669 18.8928 34.0547 18.1673C34.7594 18.0005 35.5019 17.8552 36.2712 17.7422V17.7422ZM31.4021 24.4783C29.4975 23.6659 28.2655 22.6007 28.2655 21.7559C28.2655 20.9112 29.4975 19.8406 31.4021 19.0335C31.8648 18.8344 32.3706 18.6569 32.8925 18.4901C33.1992 19.5446 33.6027 20.6422 34.103 21.7667C33.6081 22.8858 33.2099 23.978 32.9086 25.0272C32.376 24.8603 31.8703 24.6774 31.4021 24.4783ZM34.2967 32.1668C33.565 31.7471 33.2475 30.1492 33.4951 28.0938C33.5543 27.5882 33.6511 27.0555 33.7694 26.512C34.8241 26.7703 35.9754 26.9694 37.1859 27.0985C37.9122 28.0938 38.6655 28.9977 39.4242 29.7886C37.6702 31.4189 36.0238 32.312 34.9047 32.312C34.6626 32.3067 34.4582 32.2582 34.2967 32.1668V32.1668ZM47.0588 28.067C47.3115 30.1222 46.9996 31.7202 46.2732 32.1452C46.1118 32.2421 45.902 32.2851 45.6544 32.2851C44.5407 32.2851 42.889 31.3974 41.1351 29.7779C41.8883 28.987 42.6415 28.0885 43.3571 27.0931C44.5731 26.964 45.7244 26.7649 46.7789 26.5013C46.9027 27.0447 46.9996 27.5666 47.0588 28.067ZM49.1301 24.4783C48.6674 24.6774 48.1616 24.855 47.6397 25.0218C47.3331 23.9673 46.9296 22.8697 46.4292 21.7452C46.9243 20.6261 47.3224 19.5339 47.6236 18.4847C48.1563 18.6515 48.662 18.8344 49.1355 19.0335C51.0401 19.8459 52.2722 20.9112 52.2722 21.7559C52.2668 22.6007 51.0347 23.6713 49.1301 24.4783V24.4783Z" fill="#61DAFB"/>
<path d="M40.2635 24.2147C41.6215 24.2147 42.7223 23.1139 42.7223 21.7559C42.7223 20.3979 41.6215 19.2971 40.2635 19.2971C38.9056 19.2971 37.8048 20.3979 37.8048 21.7559C37.8048 23.1139 38.9056 24.2147 40.2635 24.2147V24.2147ZM28.2697 37.7399H27.458V39.1377H27V35.6822H28.1439C28.5331 35.6822 28.8322 35.7709 29.041 35.9481C29.2514 36.1252 29.3567 36.3831 29.3567 36.7217C29.3567 36.9369 29.2981 37.1244 29.181 37.2843C29.0655 37.444 28.9041 37.5635 28.6969 37.6425L29.5085 39.1092V39.1377H29.0196L28.2697 37.7399ZM27.458 37.3673H28.1582C28.3844 37.3673 28.564 37.3087 28.6969 37.1916C28.8314 37.0746 28.8986 36.9179 28.8986 36.7217C28.8986 36.5081 28.8345 36.3444 28.7064 36.2305C28.5798 36.1165 28.3963 36.0588 28.1558 36.0572H27.458V37.3673ZM30.9942 39.1852C30.6461 39.1852 30.3629 39.0713 30.1446 38.8435C29.9262 38.614 29.8171 38.3078 29.8171 37.925V37.8443C29.8171 37.5896 29.8653 37.3626 29.9618 37.1632C30.0599 36.9622 30.196 36.8056 30.37 36.6933C30.5457 36.5794 30.7355 36.5223 30.9396 36.5223C31.2735 36.5223 31.533 36.6323 31.718 36.8522C31.9032 37.0722 31.9957 37.387 31.9957 37.7968V37.9795H30.2561C30.2624 38.2328 30.336 38.4377 30.4768 38.5943C30.6192 38.7492 30.7996 38.8268 31.0179 38.8268C31.173 38.8268 31.3043 38.7952 31.4118 38.7319C31.5195 38.6686 31.6136 38.5848 31.6943 38.4804L31.9625 38.6892C31.7473 39.0198 31.4246 39.1852 30.9942 39.1852V39.1852ZM30.9396 36.8832C30.7624 36.8832 30.6137 36.948 30.4934 37.0777C30.3732 37.2059 30.2988 37.3863 30.2704 37.6188H31.5567V37.5856C31.5441 37.3626 31.4839 37.1901 31.3763 37.0682C31.2687 36.9449 31.1231 36.8832 30.9396 36.8832V36.8832ZM34.0913 39.1377C34.0659 39.0871 34.0454 38.997 34.0296 38.8672C33.8255 39.0791 33.5818 39.1852 33.2986 39.1852C33.0455 39.1852 32.8375 39.114 32.6745 38.9716C32.5131 38.8276 32.4324 38.6457 32.4324 38.4257C32.4324 38.1584 32.5337 37.9511 32.7362 37.804C32.9402 37.6552 33.2267 37.5808 33.5953 37.5808H34.0225V37.3792C34.0225 37.2257 33.9766 37.1038 33.8849 37.0137C33.7931 36.9219 33.6577 36.8761 33.479 36.8761C33.3223 36.8761 33.1911 36.9155 33.0851 36.9947C32.9791 37.0737 32.926 37.1695 32.926 37.2819H32.4846C32.4846 37.1537 32.5297 37.0303 32.6198 36.9115C32.7116 36.7914 32.8351 36.6964 32.9902 36.6268C33.1468 36.5572 33.3184 36.5223 33.5051 36.5223C33.801 36.5223 34.0327 36.5967 34.2004 36.7455C34.3682 36.8927 34.4551 37.096 34.4615 37.3554V38.5373C34.4615 38.7731 34.4916 38.9605 34.5517 39.0997V39.1377H34.0913ZM33.3627 38.8031C33.5004 38.8031 33.6309 38.7675 33.7543 38.6963C33.8777 38.6251 33.9671 38.5326 34.0225 38.4186V37.8918H33.6783C33.1404 37.8918 32.8714 38.0492 32.8714 38.364C32.8714 38.5017 32.9174 38.6093 33.009 38.6868C33.1008 38.7643 33.2187 38.8031 33.3627 38.8031V38.8031ZM36.1798 38.8268C36.3364 38.8268 36.4733 38.7793 36.5904 38.6844C36.7074 38.5895 36.7723 38.4709 36.7849 38.3284H37.2003C37.1924 38.4755 37.1417 38.6156 37.0484 38.7485C36.955 38.8815 36.83 38.9875 36.6734 39.0665C36.5183 39.1457 36.3538 39.1852 36.1798 39.1852C35.8301 39.1852 35.5516 39.0689 35.3443 38.8364C35.1387 38.6021 35.0359 38.2826 35.0359 37.8775V37.804C35.0359 37.554 35.0817 37.3317 35.1735 37.1371C35.2653 36.9425 35.3966 36.7914 35.5675 36.6838C35.7399 36.5761 35.9432 36.5223 36.1773 36.5223C36.4654 36.5223 36.7043 36.6086 36.8941 36.7811C37.0856 36.9535 37.1876 37.1774 37.2003 37.4527H36.7849C36.7723 37.2865 36.709 37.1505 36.5951 37.0445C36.4828 36.9369 36.3435 36.8832 36.1773 36.8832C35.9543 36.8832 35.7811 36.9638 35.6576 37.1252C35.5359 37.285 35.4749 37.5168 35.4749 37.8206V37.9036C35.4749 38.1994 35.5359 38.4273 35.6576 38.5871C35.7795 38.747 35.9536 38.8268 36.1798 38.8268V38.8268ZM38.2896 35.9481V36.5699H38.769V36.9093H38.2896V38.5017C38.2896 38.6045 38.311 38.682 38.3537 38.7342C38.3964 38.7849 38.4692 38.8102 38.5721 38.8102C38.6226 38.8102 38.6923 38.8007 38.7808 38.7817V39.1377C38.6653 39.1694 38.5531 39.1852 38.4438 39.1852C38.2477 39.1852 38.0997 39.1258 38 39.0072C37.9004 38.8886 37.8506 38.72 37.8506 38.5017V36.9093H37.383V36.5699H37.8506V35.9481H38.2896ZM43.2142 39.1377H42.756L41.0165 36.4749V39.1377H40.5585V35.6822H41.0165L42.7608 38.3569V35.6822H43.2142V39.1377ZM45.5399 39.1377C45.5146 39.0871 45.494 38.997 45.4782 38.8672C45.2741 39.0791 45.0304 39.1852 44.7472 39.1852C44.4941 39.1852 44.286 39.114 44.1231 38.9716C43.9618 38.8276 43.881 38.6457 43.881 38.4257C43.881 38.1584 43.9822 37.9511 44.1848 37.804C44.3888 37.6552 44.6753 37.5808 45.0439 37.5808H45.4711V37.3792C45.4711 37.2257 45.4252 37.1038 45.3334 37.0137C45.2417 36.9219 45.1064 36.8761 44.9276 36.8761C44.7709 36.8761 44.6397 36.9155 44.5337 36.9947C44.4277 37.0737 44.3746 37.1695 44.3746 37.2819H43.9332C43.9332 37.1537 43.9784 37.0303 44.0685 36.9115C44.1603 36.7914 44.2837 36.6964 44.4388 36.6268C44.5954 36.5572 44.767 36.5223 44.9537 36.5223C45.2495 36.5223 45.4814 36.5967 45.6491 36.7455C45.8168 36.8927 45.9038 37.096 45.9101 37.3554V38.5373C45.9101 38.7731 45.9402 38.9605 46.0004 39.0997V39.1377H45.5399ZM44.8114 38.8031C44.949 38.8031 45.0795 38.7675 45.203 38.6963C45.3263 38.6251 45.4157 38.5326 45.4711 38.4186V37.8918H45.1269C44.589 37.8918 44.32 38.0492 44.32 38.364C44.32 38.5017 44.366 38.6093 44.4577 38.6868C44.5495 38.7643 44.6674 38.8031 44.8114 38.8031ZM47.1941 35.9481V36.5699H47.6735V36.9093H47.1941V38.5017C47.1941 38.6045 47.2155 38.682 47.2582 38.7342C47.3009 38.7849 47.3737 38.8102 47.4765 38.8102C47.5271 38.8102 47.5967 38.8007 47.6854 38.7817V39.1377C47.5698 39.1694 47.4575 39.1852 47.3483 39.1852C47.1522 39.1852 47.0042 39.1258 46.9045 39.0072C46.8049 38.8886 46.7551 38.72 46.7551 38.5017V36.9093H46.2875V36.5699H46.7551V35.9481H47.1941ZM48.6655 39.1377H48.2264V36.5699H48.6655V39.1377ZM48.1908 35.8887C48.1908 35.8176 48.2122 35.7574 48.2549 35.7083C48.2992 35.6593 48.3641 35.6348 48.4495 35.6348C48.535 35.6348 48.5999 35.6593 48.6441 35.7083C48.6884 35.7574 48.7105 35.8176 48.7105 35.8887C48.7105 35.9599 48.6884 36.0192 48.6441 36.0667C48.5999 36.1141 48.535 36.138 48.4495 36.138C48.3641 36.138 48.2992 36.1141 48.2549 36.0667C48.2122 36.0192 48.1908 35.9599 48.1908 35.8887ZM50.2176 38.5421L50.8536 36.5699H51.3022L50.3814 39.1377H50.0467L49.1165 36.5699H49.565L50.2176 38.5421ZM52.757 39.1852C52.4089 39.1852 52.1257 39.0713 51.9074 38.8435C51.689 38.614 51.5799 38.3078 51.5799 37.925V37.8443C51.5799 37.5896 51.6281 37.3626 51.7246 37.1632C51.8227 36.9622 51.9587 36.8056 52.1328 36.6933C52.3085 36.5794 52.4983 36.5223 52.7024 36.5223C53.0362 36.5223 53.2957 36.6323 53.4809 36.8522C53.6659 37.0722 53.7585 37.387 53.7585 37.7968V37.9795H52.0189C52.0253 38.2328 52.0988 38.4377 52.2397 38.5943C52.382 38.7492 52.5624 38.8268 52.7807 38.8268C52.9358 38.8268 53.0671 38.7952 53.1747 38.7319C53.2822 38.6686 53.3764 38.5848 53.4572 38.4804L53.7253 38.6892C53.5101 39.0198 53.1873 39.1852 52.757 39.1852V39.1852ZM52.7024 36.8832C52.5253 36.8832 52.3764 36.948 52.2563 37.0777C52.1359 37.2059 52.0616 37.3863 52.0332 37.6188H53.3194V37.5856C53.3068 37.3626 53.2466 37.1901 53.1391 37.0682C53.0315 36.9449 52.8859 36.8832 52.7024 36.8832V36.8832Z" fill="#61DAFB"/>
<path d="M28.801 55C28.7409 55 28.6918 54.9809 28.6536 54.9427C28.6153 54.9045 28.5962 54.8553 28.5962 54.7953V49.4718C28.5962 49.4117 28.6153 49.3625 28.6536 49.3243C28.6918 49.2861 28.7409 49.267 28.801 49.267H31.0287C31.733 49.267 32.2872 49.4308 32.6912 49.7584C33.1007 50.0805 33.3055 50.5392 33.3055 51.1343C33.3055 51.522 33.2099 51.8496 33.0188 52.1171C32.8332 52.3847 32.5875 52.5867 32.2817 52.7232L33.4119 54.7379C33.4283 54.7707 33.4365 54.8007 33.4365 54.828C33.4365 54.8717 33.4174 54.9126 33.3792 54.9509C33.3464 54.9836 33.3055 55 33.2563 55H32.1753C32.0715 55 31.9951 54.9754 31.9459 54.9263C31.8968 54.8717 31.8613 54.8226 31.8395 54.7789L30.9058 52.9771H30.0622V54.7953C30.0622 54.8553 30.0431 54.9045 30.0049 54.9427C29.9667 54.9809 29.9175 55 29.8575 55H28.801ZM30.0622 51.8223H31.0123C31.2689 51.8223 31.46 51.7595 31.5856 51.6339C31.7166 51.5083 31.7821 51.3363 31.7821 51.1179C31.7821 50.905 31.7193 50.733 31.5938 50.602C31.4736 50.4709 31.2798 50.4054 31.0123 50.4054H30.0622V51.8223ZM36.0784 55.0819C35.4341 55.0819 34.9208 54.9072 34.5386 54.5577C34.1564 54.2083 33.9572 53.6896 33.9408 53.0016C33.9408 52.9634 33.9408 52.9143 33.9408 52.8542C33.9408 52.7942 33.9408 52.7478 33.9408 52.715C33.9572 52.2837 34.0527 51.9151 34.2274 51.6093C34.4076 51.2981 34.6533 51.0633 34.9645 50.905C35.2812 50.7412 35.6498 50.6593 36.0702 50.6593C36.5507 50.6593 36.9465 50.7548 37.2577 50.9459C37.5744 51.1371 37.8119 51.3964 37.9703 51.724C38.1286 52.0516 38.2078 52.4256 38.2078 52.846V53.0426C38.2078 53.1026 38.1859 53.1518 38.1422 53.19C38.104 53.2282 38.0576 53.2473 38.003 53.2473H35.3822C35.3822 53.2528 35.3822 53.261 35.3822 53.2719C35.3822 53.2828 35.3822 53.2938 35.3822 53.3047C35.3877 53.463 35.415 53.6077 35.4641 53.7387C35.5133 53.8698 35.5897 53.9735 35.6934 54.05C35.7972 54.1264 35.9228 54.1646 36.0702 54.1646C36.1794 54.1646 36.2695 54.1482 36.3404 54.1155C36.4169 54.0773 36.4797 54.0363 36.5288 53.9926C36.578 53.9435 36.6162 53.9025 36.6435 53.8698C36.6926 53.8152 36.7308 53.7824 36.7581 53.7715C36.7909 53.7551 36.84 53.7469 36.9056 53.7469H37.9211C37.9757 53.7469 38.0194 53.7633 38.0522 53.7961C38.0904 53.8234 38.1068 53.8643 38.1013 53.9189C38.0958 54.0117 38.0494 54.1237 37.9621 54.2547C37.8747 54.3858 37.7464 54.5168 37.5771 54.6478C37.4133 54.7734 37.2059 54.8771 36.9547 54.959C36.7035 55.041 36.4114 55.0819 36.0784 55.0819ZM35.3822 52.4365H36.7663V52.4201C36.7663 52.2454 36.739 52.0926 36.6844 51.9615C36.6353 51.8305 36.5561 51.7295 36.4469 51.6585C36.3432 51.5875 36.2176 51.552 36.0702 51.552C35.9228 51.552 35.7972 51.5875 35.6934 51.6585C35.5952 51.7295 35.5187 51.8305 35.4641 51.9615C35.4095 52.0926 35.3822 52.2454 35.3822 52.4201V52.4365ZM40.2532 55.0819C39.9584 55.0819 39.6936 55.0273 39.4588 54.9181C39.2295 54.8034 39.0466 54.6506 38.9101 54.4595C38.7736 54.2684 38.7053 54.0527 38.7053 53.8124C38.7053 53.4248 38.8636 53.119 39.1803 52.8952C39.497 52.6658 39.9174 52.5102 40.4416 52.4283L41.4653 52.2727V52.1581C41.4653 51.9615 41.4244 51.8114 41.3425 51.7076C41.2606 51.6039 41.1104 51.552 40.892 51.552C40.7392 51.552 40.6136 51.582 40.5153 51.6421C40.4225 51.7022 40.3488 51.7841 40.2942 51.8878C40.245 51.9588 40.1768 51.9943 40.0894 51.9943H39.1721C39.1121 51.9943 39.0657 51.9779 39.0329 51.9451C39.0001 51.9069 38.9865 51.8632 38.992 51.8141C38.992 51.7158 39.0274 51.6039 39.0984 51.4783C39.1749 51.3473 39.2895 51.2189 39.4424 51.0934C39.5953 50.9678 39.7918 50.8641 40.0321 50.7821C40.2723 50.7002 40.5617 50.6593 40.9002 50.6593C41.2551 50.6593 41.5582 50.7002 41.8093 50.7821C42.0605 50.8641 42.2625 50.9787 42.4154 51.1261C42.5737 51.2736 42.6911 51.4483 42.7675 51.6503C42.844 51.8468 42.8822 52.0652 42.8822 52.3055V54.7953C42.8822 54.8553 42.8604 54.9045 42.8167 54.9427C42.7785 54.9809 42.7321 55 42.6775 55H41.7274C41.6674 55 41.6182 54.9809 41.58 54.9427C41.5418 54.9045 41.5227 54.8553 41.5227 54.7953V54.5086C41.4517 54.6123 41.3561 54.7079 41.236 54.7953C41.1159 54.8826 40.9739 54.9509 40.8101 55C40.6518 55.0546 40.4662 55.0819 40.2532 55.0819ZM40.6381 54.1482C40.7965 54.1482 40.9384 54.1155 41.064 54.05C41.1951 53.979 41.2961 53.8725 41.3671 53.7306C41.4435 53.5831 41.4817 53.4002 41.4817 53.1818V53.0672L40.7856 53.19C40.5289 53.2337 40.3406 53.3019 40.2205 53.3948C40.1058 53.4821 40.0485 53.5859 40.0485 53.706C40.0485 53.7988 40.0758 53.878 40.1304 53.9435C40.185 54.009 40.2559 54.0609 40.3433 54.0991C40.4307 54.1319 40.5289 54.1482 40.6381 54.1482ZM45.7638 55.0819C45.3598 55.0819 45.0021 55.0082 44.6909 54.8608C44.3797 54.7133 44.1313 54.5004 43.9456 54.2219C43.7654 53.938 43.6672 53.5995 43.6508 53.2064C43.6453 53.119 43.6426 53.0098 43.6426 52.8788C43.6426 52.7423 43.6453 52.6304 43.6508 52.543C43.6672 52.1444 43.7654 51.8059 43.9456 51.5274C44.1258 51.2435 44.3715 51.0279 44.6827 50.8804C44.9994 50.733 45.3598 50.6593 45.7638 50.6593C46.1405 50.6593 46.4627 50.7139 46.7302 50.8231C46.9978 50.9268 47.2162 51.0579 47.3854 51.2162C47.5547 51.3746 47.6803 51.5384 47.7622 51.7076C47.8495 51.8714 47.8959 52.0161 47.9014 52.1417C47.9069 52.1963 47.8877 52.2454 47.8441 52.2891C47.8004 52.3273 47.7512 52.3464 47.6966 52.3464H46.6565C46.5965 52.3464 46.55 52.3328 46.5173 52.3055C46.4845 52.2782 46.4545 52.2372 46.4272 52.1826C46.3617 52.0134 46.277 51.8933 46.1733 51.8223C46.075 51.7513 45.9467 51.7158 45.7884 51.7158C45.57 51.7158 45.4007 51.7868 45.2806 51.9287C45.1659 52.0707 45.1031 52.2891 45.0922 52.5839C45.0868 52.8023 45.0868 52.9962 45.0922 53.1654C45.1031 53.4657 45.1659 53.6841 45.2806 53.8206C45.4007 53.9571 45.57 54.0254 45.7884 54.0254C45.9576 54.0254 46.0914 53.9899 46.1897 53.9189C46.288 53.8479 46.3671 53.7278 46.4272 53.5586C46.4545 53.504 46.4845 53.463 46.5173 53.4357C46.55 53.4084 46.5965 53.3948 46.6565 53.3948H47.6966C47.7512 53.3948 47.8004 53.4166 47.8441 53.4603C47.8877 53.4985 47.9069 53.5449 47.9014 53.5995C47.8959 53.6923 47.8686 53.8015 47.8195 53.9271C47.7704 54.0472 47.6939 54.1755 47.5902 54.312C47.4864 54.4485 47.3499 54.5768 47.1807 54.697C47.0169 54.8116 46.8176 54.9045 46.5828 54.9754C46.348 55.0464 46.075 55.0819 45.7638 55.0819ZM50.8158 55C50.4663 55 50.1633 54.9454 49.9067 54.8362C49.6555 54.7215 49.4617 54.5468 49.3252 54.312C49.1887 54.0718 49.1204 53.7633 49.1204 53.3866V51.8141H48.4816C48.4215 51.8141 48.3697 51.795 48.326 51.7568C48.2878 51.7185 48.2687 51.6694 48.2687 51.6093V50.9459C48.2687 50.8859 48.2878 50.8367 48.326 50.7985C48.3697 50.7603 48.4215 50.7412 48.4816 50.7412H49.1204V49.3898C49.1204 49.3298 49.1395 49.2807 49.1778 49.2424C49.2214 49.2042 49.2706 49.1851 49.3252 49.1851H50.2752C50.3353 49.1851 50.3844 49.2042 50.4226 49.2424C50.4609 49.2807 50.48 49.3298 50.48 49.3898V50.7412H51.5037C51.5638 50.7412 51.6129 50.7603 51.6511 50.7985C51.6894 50.8367 51.7085 50.8859 51.7085 50.9459V51.6093C51.7085 51.6694 51.6894 51.7185 51.6511 51.7568C51.6129 51.795 51.5638 51.8141 51.5037 51.8141H50.48V53.2719C50.48 53.4576 50.5155 53.605 50.5864 53.7142C50.6574 53.8234 50.7775 53.878 50.9468 53.878H51.5774C51.6375 53.878 51.6866 53.8971 51.7248 53.9353C51.7631 53.9735 51.7822 54.0227 51.7822 54.0827V54.7953C51.7822 54.8553 51.7631 54.9045 51.7248 54.9427C51.6866 54.9809 51.6375 55 51.5774 55H50.8158ZM27.5693 65C27.5092 65 27.4601 64.9809 27.4219 64.9427C27.3836 64.9045 27.3645 64.8553 27.3645 64.7953V59.4718C27.3645 59.4117 27.3836 59.3625 27.4219 59.3243C27.4601 59.2861 27.5092 59.267 27.5693 59.267H28.4374C28.5302 59.267 28.5958 59.2888 28.634 59.3325C28.6777 59.3707 28.705 59.4008 28.7159 59.4226L30.7142 62.5758V59.4718C30.7142 59.4117 30.7333 59.3625 30.7716 59.3243C30.8098 59.2861 30.8589 59.267 30.919 59.267H31.9018C31.9618 59.267 32.011 59.2861 32.0492 59.3243C32.0874 59.3625 32.1065 59.4117 32.1065 59.4718V64.7953C32.1065 64.8499 32.0874 64.899 32.0492 64.9427C32.011 64.9809 31.9618 65 31.9018 65H31.0255C30.9381 65 30.8726 64.9782 30.8289 64.9345C30.7907 64.8908 30.7661 64.8608 30.7552 64.8444L28.7568 61.8141V64.7953C28.7568 64.8553 28.7377 64.9045 28.6995 64.9427C28.6613 64.9809 28.6121 65 28.5521 65H27.5693ZM34.4386 65.0819C34.1438 65.0819 33.879 65.0273 33.6442 64.9181C33.4149 64.8034 33.232 64.6506 33.0955 64.4595C32.959 64.2684 32.8907 64.0527 32.8907 63.8124C32.8907 63.4248 33.0491 63.119 33.3657 62.8952C33.6824 62.6658 34.1028 62.5102 34.627 62.4283L35.6508 62.2727V62.1581C35.6508 61.9615 35.6098 61.8114 35.5279 61.7076C35.446 61.6039 35.2959 61.552 35.0775 61.552C34.9246 61.552 34.799 61.582 34.7007 61.6421C34.6079 61.7022 34.5342 61.7841 34.4796 61.8878C34.4304 61.9588 34.3622 61.9943 34.2748 61.9943H33.3576C33.2975 61.9943 33.2511 61.9779 33.2183 61.9451C33.1856 61.9069 33.1719 61.8632 33.1774 61.8141C33.1774 61.7158 33.2129 61.6039 33.2838 61.4783C33.3603 61.3473 33.4749 61.2189 33.6278 61.0934C33.7807 60.9678 33.9773 60.8641 34.2175 60.7821C34.4577 60.7002 34.7471 60.6593 35.0856 60.6593C35.4405 60.6593 35.7436 60.7002 35.9947 60.7821C36.2459 60.8641 36.4479 60.9787 36.6008 61.1261C36.7591 61.2736 36.8765 61.4483 36.953 61.6503C37.0294 61.8468 37.0676 62.0652 37.0676 62.3055V64.7953C37.0676 64.8553 37.0458 64.9045 37.0021 64.9427C36.9639 64.9809 36.9175 65 36.8629 65H35.9128C35.8528 65 35.8036 64.9809 35.7654 64.9427C35.7272 64.9045 35.7081 64.8553 35.7081 64.7953V64.5086C35.6371 64.6123 35.5416 64.7079 35.4214 64.7953C35.3013 64.8826 35.1594 64.9509 34.9956 65C34.8372 65.0546 34.6516 65.0819 34.4386 65.0819ZM34.8236 64.1482C34.9819 64.1482 35.1239 64.1155 35.2494 64.05C35.3805 63.979 35.4815 63.8725 35.5525 63.7306C35.6289 63.5831 35.6671 63.4002 35.6671 63.1818V63.0672L34.971 63.19C34.7144 63.2337 34.526 63.3019 34.4059 63.3948C34.2912 63.4821 34.2339 63.5859 34.2339 63.706C34.2339 63.7988 34.2612 63.878 34.3158 63.9435C34.3704 64.009 34.4414 64.0609 34.5287 64.0991C34.6161 64.1319 34.7144 64.1482 34.8236 64.1482ZM40.1384 65C39.7889 65 39.4859 64.9454 39.2293 64.8362C38.9781 64.7215 38.7843 64.5468 38.6478 64.312C38.5113 64.0718 38.443 63.7633 38.443 63.3866V61.8141H37.8042C37.7442 61.8141 37.6923 61.795 37.6486 61.7568C37.6104 61.7185 37.5913 61.6694 37.5913 61.6093V60.9459C37.5913 60.8859 37.6104 60.8367 37.6486 60.7985C37.6923 60.7603 37.7442 60.7412 37.8042 60.7412H38.443V59.3898C38.443 59.3298 38.4621 59.2807 38.5004 59.2424C38.544 59.2042 38.5932 59.1851 38.6478 59.1851H39.5978C39.6579 59.1851 39.707 59.2042 39.7452 59.2424C39.7835 59.2807 39.8026 59.3298 39.8026 59.3898V60.7412H40.8263C40.8864 60.7412 40.9355 60.7603 40.9737 60.7985C41.012 60.8367 41.0311 60.8859 41.0311 60.9459V61.6093C41.0311 61.6694 41.012 61.7185 40.9737 61.7568C40.9355 61.795 40.8864 61.8141 40.8263 61.8141H39.8026V63.2719C39.8026 63.4576 39.8381 63.605 39.909 63.7142C39.98 63.8234 40.1001 63.878 40.2694 63.878H40.9C40.9601 63.878 41.0092 63.8971 41.0475 63.9353C41.0857 63.9735 41.1048 64.0227 41.1048 64.0827V64.7953C41.1048 64.8553 41.0857 64.9045 41.0475 64.9427C41.0092 64.9809 40.9601 65 40.9 65H40.1384ZM41.9876 65C41.9276 65 41.8784 64.9809 41.8402 64.9427C41.802 64.9045 41.7829 64.8553 41.7829 64.7953V60.9459C41.7829 60.8859 41.802 60.8367 41.8402 60.7985C41.8784 60.7603 41.9276 60.7412 41.9876 60.7412H42.9541C43.0087 60.7412 43.0551 60.7603 43.0933 60.7985C43.137 60.8367 43.1588 60.8859 43.1588 60.9459V64.7953C43.1588 64.8553 43.137 64.9045 43.0933 64.9427C43.0551 64.9809 43.0087 65 42.9541 65H41.9876ZM41.9795 60.127C41.9194 60.127 41.8703 60.1078 41.832 60.0696C41.7938 60.0314 41.7747 59.9823 41.7747 59.9222V59.1933C41.7747 59.1332 41.7938 59.0841 41.832 59.0459C41.8703 59.0022 41.9194 58.9804 41.9795 58.9804H42.9541C43.0141 58.9804 43.0633 59.0022 43.1015 59.0459C43.1452 59.0841 43.167 59.1332 43.167 59.1933V59.9222C43.167 59.9823 43.1452 60.0314 43.1015 60.0696C43.0633 60.1078 43.0141 60.127 42.9541 60.127H41.9795ZM45.6335 65C45.5516 65 45.4915 64.9809 45.4533 64.9427C45.4151 64.899 45.3823 64.8499 45.355 64.7953L43.8071 60.9951C43.7962 60.9732 43.7907 60.9487 43.7907 60.9214C43.7907 60.8722 43.8071 60.8313 43.8399 60.7985C43.8781 60.7603 43.9245 60.7412 43.9791 60.7412H44.9046C44.9755 60.7412 45.0301 60.7603 45.0684 60.7985C45.1066 60.8367 45.1312 60.875 45.1421 60.9132L46.0675 63.4275L47.0012 60.9132C47.0121 60.875 47.0367 60.8367 47.0749 60.7985C47.1131 60.7603 47.1677 60.7412 47.2387 60.7412H48.1642C48.2133 60.7412 48.257 60.7603 48.2952 60.7985C48.3334 60.8313 48.3526 60.8722 48.3526 60.9214C48.3526 60.9487 48.3471 60.9732 48.3362 60.9951L46.7883 64.7953C46.7664 64.8499 46.7337 64.899 46.69 64.9427C46.6518 64.9809 46.589 65 46.5016 65H45.6335ZM50.7948 65.0819C50.1505 65.0819 49.6373 64.9072 49.2551 64.5577C48.8729 64.2083 48.6736 63.6896 48.6572 63.0016C48.6572 62.9634 48.6572 62.9143 48.6572 62.8542C48.6572 62.7942 48.6572 62.7478 48.6572 62.715C48.6736 62.2837 48.7691 61.9151 48.9438 61.6093C49.124 61.2981 49.3697 61.0633 49.6809 60.905C49.9976 60.7412 50.3662 60.6593 50.7866 60.6593C51.2671 60.6593 51.6629 60.7548 51.9741 60.9459C52.2908 61.1371 52.5283 61.3964 52.6867 61.724C52.845 62.0516 52.9242 62.4256 52.9242 62.846V63.0426C52.9242 63.1026 52.9023 63.1518 52.8587 63.19C52.8204 63.2282 52.774 63.2473 52.7194 63.2473H50.0986C50.0986 63.2528 50.0986 63.261 50.0986 63.2719C50.0986 63.2828 50.0986 63.2938 50.0986 63.3047C50.1041 63.463 50.1314 63.6077 50.1805 63.7387C50.2297 63.8698 50.3061 63.9735 50.4098 64.05C50.5136 64.1264 50.6392 64.1646 50.7866 64.1646C50.8958 64.1646 50.9859 64.1482 51.0569 64.1155C51.1333 64.0773 51.1961 64.0363 51.2452 63.9926C51.2944 63.9435 51.3326 63.9025 51.3599 63.8698C51.409 63.8152 51.4472 63.7824 51.4745 63.7715C51.5073 63.7551 51.5564 63.7469 51.622 63.7469H52.6375C52.6921 63.7469 52.7358 63.7633 52.7686 63.7961C52.8068 63.8234 52.8232 63.8643 52.8177 63.9189C52.8122 64.0117 52.7658 64.1237 52.6785 64.2547C52.5911 64.3858 52.4628 64.5168 52.2935 64.6478C52.1297 64.7734 51.9223 64.8771 51.6711 64.959C51.4199 65.041 51.1278 65.0819 50.7948 65.0819ZM50.0986 62.4365H51.4827V62.4201C51.4827 62.2454 51.4554 62.0926 51.4008 61.9615C51.3517 61.8305 51.2725 61.7295 51.1633 61.6585C51.0596 61.5875 50.934 61.552 50.7866 61.552C50.6392 61.552 50.5136 61.5875 50.4098 61.6585C50.3116 61.7295 50.2351 61.8305 50.1805 61.9615C50.1259 62.0926 50.0986 62.2454 50.0986 62.4201V62.4365Z" fill="#E5E5E5"/>
</g>
<defs>
<filter id="filter0_d_602_1879" x="0" y="0" width="80" height="80" filterUnits="userSpaceOnUse" color-interpolation-filters="sRGB">
<feFlood flood-opacity="0" result="BackgroundImageFix"/>
<feColorMatrix in="SourceAlpha" type="matrix" values="0 0 0 0 0 0 0 0 0 0 0 0 0 0 0 0 0 0 127 0" result="hardAlpha"/>
<feOffset dy="2"/>
<feGaussianBlur stdDeviation="4"/>
<feColorMatrix type="matrix" values="0 0 0 0 0 0 0 0 0 0 0 0 0 0 0 0 0 0 0.75 0"/>
<feBlend mode="normal" in2="BackgroundImageFix" result="effect1_dropShadow_602_1879"/>
<feBlend mode="normal" in="SourceGraphic" in2="effect1_dropShadow_602_1879" result="shape"/>
</filter>
</defs>
</svg>
