<svg width="80" height="80" viewBox="0 0 80 80" fill="none" xmlns="http://www.w3.org/2000/svg">
<g filter="url(#filter0_d_602_1630)">
<rect x="8" y="6" width="64" height="64" rx="5" fill="#212529"/>
<path d="M42.6788 26.9758C42.6788 25.5414 41.4795 24.3784 39.9999 24.3784C38.5205 24.3784 37.321 25.5414 37.321 26.9758C37.321 28.4104 38.5205 29.5733 39.9999 29.5733C41.4795 29.5733 42.6788 28.4104 42.6788 26.9758Z" fill="#53C1DE"/>
<path fill-rule="evenodd" clip-rule="evenodd" d="M48.7004 22.1537C49.2661 19.9248 49.9772 15.7915 47.4704 14.3902C44.9753 12.9949 41.7284 15.6684 40.0139 17.2732C38.3044 15.6844 34.9663 13.0224 32.4616 14.4281C29.9675 15.828 30.7366 19.8928 31.3149 22.1357C28.9883 22.7764 25 24.1564 25 26.9759C25 29.7874 28.9842 31.2888 31.297 31.9289C30.7166 34.1842 29.986 38.1909 32.4833 39.5877C34.9973 40.9932 38.325 38.3945 40.0554 36.7722C41.7809 38.3864 44.9966 41.0021 47.4922 39.6014C49.9956 38.1963 49.3436 34.1184 48.7653 31.8625C51.0073 31.221 55 29.7523 55 26.9759C55 24.1835 50.9903 22.7923 48.7004 22.1537ZM48.4162 30.667C48.0365 29.5016 47.524 28.2623 46.8971 26.9821C47.4955 25.7321 47.9881 24.5088 48.3572 23.3509C50.0359 23.8228 53.7185 24.9013 53.7185 26.9759C53.7185 29.07 50.1846 30.1587 48.4162 30.667ZM46.85 38.526C44.988 39.571 42.2221 37.0696 40.9478 35.8809C41.7932 34.9844 42.638 33.9422 43.4625 32.7849C44.9129 32.6602 46.283 32.4562 47.5256 32.1777C47.9326 33.7734 48.7202 37.4763 46.85 38.526ZM33.1236 38.5111C31.2614 37.47 32.1126 33.8946 32.5396 32.2333C33.7683 32.4969 35.1286 32.6865 36.5824 32.8008C37.4123 33.9332 38.2816 34.9741 39.1576 35.8857C38.0753 36.9008 34.9945 39.557 33.1236 38.5111ZM26.2815 26.9759C26.2815 24.874 29.9421 23.8033 31.659 23.3326C32.0345 24.5165 32.527 25.7544 33.1212 27.0062C32.5193 28.2766 32.0198 29.5341 31.6409 30.732C30.0037 30.2776 26.2815 29.0791 26.2815 26.9759ZM33.1037 15.5035C34.9735 14.4542 37.8747 17.0098 39.1159 18.1601C38.2444 19.0675 37.3831 20.1006 36.5603 21.2265C35.1494 21.3533 33.7987 21.5569 32.5571 21.8297C32.0912 20.0207 31.2359 16.5518 33.1037 15.5035ZM44.3793 22.5771C45.3365 22.6942 46.2536 22.85 47.1147 23.0406C46.8562 23.844 46.534 24.6841 46.1545 25.5453C45.6044 24.5333 45.0139 23.5416 44.3793 22.5771ZM40.0143 19.0481C40.6054 19.669 41.1974 20.3623 41.7798 21.1145C40.5985 21.0603 39.4153 21.0601 38.234 21.1137C38.8169 20.3685 39.414 19.6762 40.0143 19.0481ZM33.8565 25.5444C33.4833 24.6862 33.164 23.8424 32.9032 23.0275C33.7592 22.8418 34.672 22.69 35.623 22.5748C34.9866 23.5372 34.3971 24.5285 33.8565 25.5444ZM35.6503 31.4657C34.6679 31.3594 33.7413 31.2153 32.8856 31.0347C33.1504 30.2055 33.4768 29.3435 33.858 28.4668C34.406 29.4933 35.0045 30.4942 35.6503 31.4657ZM40.0498 34.9915C39.4424 34.356 38.8365 33.6531 38.2448 32.8971C39.4328 32.9423 40.6231 32.9424 41.811 32.891C41.2268 33.6608 40.6369 34.3647 40.0498 34.9915ZM46.1667 28.4222C46.5677 29.3084 46.9057 30.1657 47.1742 30.9809C46.3043 31.1734 45.3652 31.3284 44.3757 31.4435C45.015 30.4607 45.6149 29.4536 46.1667 28.4222ZM42.7473 31.5941C40.9301 31.72 39.1016 31.7186 37.2838 31.6044C36.2509 30.1415 35.3314 28.603 34.5377 27.0058C35.3276 25.4119 36.2404 23.8764 37.2684 22.4158C39.0875 22.2825 40.9178 22.2821 42.7369 22.4166C43.7561 23.8771 44.6675 25.4086 45.4757 26.9881C44.6771 28.5812 43.7595 30.1198 42.7473 31.5941ZM46.8303 15.4666C48.7006 16.5125 47.8681 20.2273 47.4595 21.8426C46.2149 21.5641 44.8633 21.3569 43.4483 21.2281C42.6239 20.09 41.7698 19.0552 40.9124 18.1595C42.1695 16.9844 44.9781 14.4309 46.8303 15.4666Z" fill="#53C1DE"/>
<path d="M25.9728 61C25.8977 61 25.8363 60.9761 25.7885 60.9283C25.7407 60.8805 25.7168 60.8191 25.7168 60.744V54.088C25.7168 54.0129 25.7407 53.9515 25.7885 53.9037C25.8363 53.8559 25.8977 53.832 25.9728 53.832H28.7581C29.6387 53.832 30.3316 54.0368 30.8368 54.4464C31.3488 54.8492 31.6048 55.4226 31.6048 56.1667C31.6048 56.6514 31.4853 57.061 31.2464 57.3955C31.0143 57.73 30.7071 57.9826 30.3248 58.1533L31.7379 60.6723C31.7584 60.7133 31.7686 60.7508 31.7686 60.785C31.7686 60.8396 31.7447 60.8908 31.697 60.9386C31.656 60.9795 31.6048 61 31.5434 61H30.1917C30.062 61 29.9664 60.9693 29.905 60.9078C29.8435 60.8396 29.7991 60.7781 29.7718 60.7235L28.6045 58.4707H27.5498V60.744C27.5498 60.8191 27.5259 60.8805 27.4781 60.9283C27.4303 60.9761 27.3689 61 27.2938 61H25.9728ZM27.5498 57.0269H28.7376C29.0585 57.0269 29.2974 56.9484 29.4544 56.7914C29.6182 56.6343 29.7002 56.4193 29.7002 56.1462C29.7002 55.88 29.6217 55.665 29.4646 55.5011C29.3145 55.3373 29.0721 55.2554 28.7376 55.2554H27.5498V57.0269ZM35.0718 61.1024C34.2662 61.1024 33.6245 60.8839 33.1466 60.447C32.6688 60.0101 32.4196 59.3616 32.3991 58.5014C32.3991 58.4537 32.3991 58.3922 32.3991 58.3171C32.3991 58.242 32.3991 58.184 32.3991 58.143C32.4196 57.6037 32.5391 57.1429 32.7575 56.7606C32.9828 56.3715 33.29 56.078 33.6791 55.88C34.0751 55.6752 34.5359 55.5728 35.0615 55.5728C35.6623 55.5728 36.1572 55.6923 36.5463 55.9312C36.9423 56.1701 37.2392 56.4944 37.4372 56.904C37.6352 57.3136 37.7342 57.7812 37.7342 58.3069V58.5526C37.7342 58.6277 37.7069 58.6892 37.6522 58.737C37.6045 58.7847 37.5464 58.8086 37.4782 58.8086H34.2014C34.2014 58.8155 34.2014 58.8257 34.2014 58.8394C34.2014 58.853 34.2014 58.8667 34.2014 58.8803C34.2082 59.0783 34.2423 59.2592 34.3038 59.423C34.3652 59.5869 34.4608 59.7166 34.5905 59.8122C34.7202 59.9077 34.8772 59.9555 35.0615 59.9555C35.1981 59.9555 35.3107 59.935 35.3994 59.8941C35.495 59.8463 35.5735 59.7951 35.635 59.7405C35.6964 59.679 35.7442 59.6278 35.7783 59.5869C35.8398 59.5186 35.8875 59.4777 35.9217 59.464C35.9626 59.4435 36.0241 59.4333 36.106 59.4333H37.3758C37.444 59.4333 37.4986 59.4538 37.5396 59.4947C37.5874 59.5289 37.6079 59.5801 37.601 59.6483C37.5942 59.7644 37.5362 59.9043 37.427 60.0682C37.3177 60.232 37.1573 60.3958 36.9457 60.5597C36.7409 60.7167 36.4815 60.8464 36.1674 60.9488C35.8534 61.0512 35.4882 61.1024 35.0718 61.1024ZM34.2014 57.7949H35.9319V57.7744C35.9319 57.5559 35.8978 57.3648 35.8295 57.201C35.7681 57.0371 35.6691 56.9108 35.5326 56.8221C35.4029 56.7333 35.2458 56.689 35.0615 56.689C34.8772 56.689 34.7202 56.7333 34.5905 56.8221C34.4676 56.9108 34.372 57.0371 34.3038 57.201C34.2355 57.3648 34.2014 57.5559 34.2014 57.7744V57.7949ZM40.2916 61.1024C39.923 61.1024 39.5919 61.0341 39.2983 60.8976C39.0116 60.7542 38.7829 60.5631 38.6122 60.3242C38.4416 60.0852 38.3562 59.8156 38.3562 59.5152C38.3562 59.0305 38.5542 58.6482 38.9502 58.3683C39.3461 58.0816 39.8718 57.887 40.5271 57.7846L41.8071 57.5901V57.4467C41.8071 57.201 41.7559 57.0132 41.6535 56.8835C41.5511 56.7538 41.3634 56.689 41.0903 56.689C40.8992 56.689 40.7422 56.7265 40.6193 56.8016C40.5032 56.8767 40.4111 56.9791 40.3428 57.1088C40.2814 57.1975 40.196 57.2419 40.0868 57.2419H38.9399C38.8648 57.2419 38.8068 57.2214 38.7658 57.1805C38.7249 57.1327 38.7078 57.0781 38.7146 57.0166C38.7146 56.8938 38.759 56.7538 38.8478 56.5968C38.9433 56.433 39.0867 56.2725 39.2778 56.1155C39.469 55.9585 39.7147 55.8288 40.0151 55.7264C40.3155 55.624 40.6773 55.5728 41.1006 55.5728C41.5443 55.5728 41.9232 55.624 42.2372 55.7264C42.5512 55.8288 42.8038 55.9722 42.995 56.1565C43.1929 56.3408 43.3397 56.5593 43.4353 56.8118C43.5309 57.0576 43.5786 57.3307 43.5786 57.631V60.744C43.5786 60.8191 43.5513 60.8805 43.4967 60.9283C43.4489 60.9761 43.3909 61 43.3226 61H42.1348C42.0597 61 41.9983 60.9761 41.9505 60.9283C41.9027 60.8805 41.8788 60.8191 41.8788 60.744V60.3856C41.7901 60.5153 41.6706 60.6348 41.5204 60.744C41.3702 60.8532 41.1927 60.9386 40.9879 61C40.7899 61.0683 40.5578 61.1024 40.2916 61.1024ZM40.7729 59.935C40.9709 59.935 41.1483 59.8941 41.3054 59.8122C41.4692 59.7234 41.5955 59.5903 41.6842 59.4128C41.7798 59.2285 41.8276 58.9998 41.8276 58.7267V58.5834L40.9572 58.737C40.6363 58.7916 40.4008 58.8769 40.2506 58.993C40.1073 59.1022 40.0356 59.2319 40.0356 59.3821C40.0356 59.4981 40.0697 59.5971 40.138 59.679C40.2063 59.761 40.295 59.8258 40.4042 59.8736C40.5135 59.9146 40.6363 59.935 40.7729 59.935ZM47.1815 61.1024C46.6763 61.1024 46.2292 61.0102 45.8401 60.8259C45.451 60.6416 45.1403 60.3754 44.9082 60.0272C44.683 59.6722 44.5601 59.249 44.5396 58.7574C44.5328 58.6482 44.5294 58.5117 44.5294 58.3478C44.5294 58.1772 44.5328 58.0372 44.5396 57.928C44.5601 57.4297 44.683 57.0064 44.9082 56.6582C45.1335 56.3033 45.4407 56.0336 45.8298 55.8493C46.2258 55.665 46.6763 55.5728 47.1815 55.5728C47.6526 55.5728 48.0553 55.6411 48.3898 55.7776C48.7243 55.9073 48.9974 56.0711 49.209 56.2691C49.4207 56.4671 49.5777 56.6719 49.6801 56.8835C49.7893 57.0883 49.8473 57.2692 49.8542 57.4262C49.861 57.4945 49.8371 57.5559 49.7825 57.6106C49.7279 57.6583 49.6664 57.6822 49.5982 57.6822H48.2977C48.2226 57.6822 48.1646 57.6652 48.1236 57.631C48.0826 57.5969 48.0451 57.5457 48.011 57.4774C47.929 57.2658 47.8232 57.1156 47.6935 57.0269C47.5706 56.9381 47.4102 56.8938 47.2122 56.8938C46.9392 56.8938 46.7275 56.9825 46.5774 57.16C46.434 57.3375 46.3555 57.6106 46.3418 57.9792C46.335 58.2523 46.335 58.4946 46.3418 58.7062C46.3555 59.0817 46.434 59.3548 46.5774 59.5254C46.7275 59.6961 46.9392 59.7814 47.2122 59.7814C47.4239 59.7814 47.5911 59.7371 47.714 59.6483C47.8369 59.5596 47.9359 59.4094 48.011 59.1978C48.0451 59.1295 48.0826 59.0783 48.1236 59.0442C48.1646 59.01 48.2226 58.993 48.2977 58.993H49.5982C49.6664 58.993 49.7279 59.0203 49.7825 59.0749C49.8371 59.1227 49.861 59.1807 49.8542 59.249C49.8473 59.365 49.8132 59.5015 49.7518 59.6586C49.6903 59.8087 49.5947 59.9692 49.465 60.1398C49.3353 60.3105 49.1647 60.4709 48.953 60.6211C48.7482 60.7645 48.4991 60.8805 48.2055 60.9693C47.912 61.058 47.5706 61.1024 47.1815 61.1024ZM53.498 61C53.0611 61 52.6822 60.9317 52.3614 60.7952C52.0473 60.6518 51.805 60.4334 51.6343 60.1398C51.4637 59.8395 51.3783 59.4538 51.3783 58.9827V57.0166H50.5796C50.5045 57.0166 50.4397 56.9927 50.385 56.945C50.3373 56.8972 50.3134 56.8357 50.3134 56.7606V55.9312C50.3134 55.8561 50.3373 55.7947 50.385 55.7469C50.4397 55.6991 50.5045 55.6752 50.5796 55.6752H51.3783V53.9856C51.3783 53.9105 51.4022 53.8491 51.45 53.8013C51.5046 53.7535 51.5661 53.7296 51.6343 53.7296H52.8222C52.8973 53.7296 52.9587 53.7535 53.0065 53.8013C53.0543 53.8491 53.0782 53.9105 53.0782 53.9856V55.6752H54.3582C54.4333 55.6752 54.4947 55.6991 54.5425 55.7469C54.5903 55.7947 54.6142 55.8561 54.6142 55.9312V56.7606C54.6142 56.8357 54.5903 56.8972 54.5425 56.945C54.4947 56.9927 54.4333 57.0166 54.3582 57.0166H53.0782V58.8394C53.0782 59.0715 53.1225 59.2558 53.2113 59.3923C53.3 59.5289 53.4502 59.5971 53.6618 59.5971H54.4503C54.5254 59.5971 54.5869 59.621 54.6346 59.6688C54.6824 59.7166 54.7063 59.778 54.7063 59.8531V60.744C54.7063 60.8191 54.6824 60.8805 54.6346 60.9283C54.5869 60.9761 54.5254 61 54.4503 61H53.498Z" fill="#E5E5E5"/>
</g>
<defs>
<filter id="filter0_d_602_1630" x="0" y="0" width="80" height="80" filterUnits="userSpaceOnUse" color-interpolation-filters="sRGB">
<feFlood flood-opacity="0" result="BackgroundImageFix"/>
<feColorMatrix in="SourceAlpha" type="matrix" values="0 0 0 0 0 0 0 0 0 0 0 0 0 0 0 0 0 0 127 0" result="hardAlpha"/>
<feOffset dy="2"/>
<feGaussianBlur stdDeviation="4"/>
<feColorMatrix type="matrix" values="0 0 0 0 0 0 0 0 0 0 0 0 0 0 0 0 0 0 0.75 0"/>
<feBlend mode="normal" in2="BackgroundImageFix" result="effect1_dropShadow_602_1630"/>
<feBlend mode="normal" in="SourceGraphic" in2="effect1_dropShadow_602_1630" result="shape"/>
</filter>
</defs>
</svg>
