<svg width="80" height="80" viewBox="0 0 80 80" fill="none" xmlns="http://www.w3.org/2000/svg">
<g filter="url(#filter0_d_603_616)">
<rect x="8" y="6" width="64" height="64" rx="5" fill="#212529"/>
<path d="M45.7868 32.556C46.8939 32.4433 47.7338 31.505 47.6956 30.3789C47.6575 29.253 46.703 28.3522 45.5577 28.3522H45.4814C44.2978 28.3897 43.3817 29.3656 43.4199 30.5291C43.4581 31.0921 43.6871 31.58 44.0307 31.9178C42.7327 34.4326 40.7475 36.2717 37.7698 37.8106C35.7464 38.8615 33.6468 39.2369 31.5471 38.9742C29.8292 38.749 28.493 37.9984 27.653 36.7596C26.4314 34.9205 26.3169 32.9312 27.3477 30.942C28.0731 29.5157 29.2183 28.4647 29.9437 27.9392C29.791 27.4513 29.5619 26.6256 29.4474 26.0251C23.9118 29.9661 24.4845 35.2959 26.1643 37.8106C27.424 39.6873 29.9819 40.8509 32.8069 40.8509C33.5704 40.8509 34.3339 40.7757 35.0975 40.5882C39.9841 39.6498 43.6872 36.7972 45.7868 32.556ZM52.5059 27.9018C49.6045 24.5613 45.3287 22.7222 40.4421 22.7222H39.8314C39.4878 22.0466 38.7624 21.5961 37.9607 21.5961H37.8843C36.7009 21.6337 35.7848 22.6095 35.8229 23.7731C35.8611 24.8991 36.8154 25.7999 37.9607 25.7999H38.037C38.8769 25.7624 39.6023 25.2369 39.9077 24.5237H40.5948C43.4963 24.5237 46.2449 25.3494 48.7265 26.9634C50.6352 28.202 52.0096 29.816 52.7731 31.7677C53.4221 33.3441 53.3839 34.883 52.6967 36.1967C51.6278 38.1859 49.8336 39.2744 47.4666 39.2744C45.9395 39.2744 44.4889 38.824 43.7253 38.4862C43.3054 38.8615 42.5418 39.462 42.0073 39.8375C43.649 40.5881 45.3287 41.001 46.9321 41.001C50.597 41.001 53.3076 39.0116 54.3384 37.0224C55.4454 34.8454 55.369 31.0921 52.5059 27.9018ZM33.1123 33.1939C33.1505 34.3199 34.1049 35.2206 35.2502 35.2206H35.3266C36.51 35.1832 37.4262 34.2073 37.388 33.0438C37.3499 31.9177 36.3954 31.017 35.2502 31.017H35.1739C35.0975 31.017 34.9829 31.017 34.9067 31.0544C33.3414 28.5022 32.6924 25.7248 32.9215 22.7221C33.0741 20.4701 33.8377 18.5183 35.1739 16.9043C36.2809 15.5155 38.4188 14.84 39.8696 14.8025C43.9162 14.7274 45.634 19.6818 45.7486 21.6711C46.2449 21.7837 47.0848 22.0465 47.6575 22.2342C47.1993 16.1538 43.3817 13.001 39.7169 13.001C36.2809 13.001 33.1123 15.4407 31.8524 19.0439C30.0964 23.8481 31.2416 28.4647 33.3795 32.1055C33.1887 32.3682 33.0741 32.781 33.1123 33.1939Z" fill="#764ABC"/>
<path d="M24.4728 61C24.3977 61 24.3363 60.9761 24.2885 60.9283C24.2407 60.8805 24.2168 60.8191 24.2168 60.744V54.088C24.2168 54.0129 24.2407 53.9515 24.2885 53.9037C24.3363 53.8559 24.3977 53.832 24.4728 53.832H27.2581C28.1387 53.832 28.8316 54.0368 29.3368 54.4464C29.8488 54.8492 30.1048 55.4226 30.1048 56.1667C30.1048 56.6514 29.9853 57.061 29.7464 57.3955C29.5143 57.73 29.2071 57.9826 28.8248 58.1533L30.2379 60.6723C30.2584 60.7133 30.2686 60.7508 30.2686 60.785C30.2686 60.8396 30.2447 60.8908 30.197 60.9386C30.156 60.9795 30.1048 61 30.0434 61H28.6917C28.562 61 28.4664 60.9693 28.405 60.9078C28.3435 60.8396 28.2991 60.7781 28.2718 60.7235L27.1045 58.4707H26.0498V60.744C26.0498 60.8191 26.0259 60.8805 25.9781 60.9283C25.9303 60.9761 25.8689 61 25.7938 61H24.4728ZM26.0498 57.0269H27.2376C27.5585 57.0269 27.7974 56.9484 27.9544 56.7914C28.1182 56.6343 28.2002 56.4193 28.2002 56.1462C28.2002 55.88 28.1217 55.665 27.9646 55.5011C27.8145 55.3373 27.5721 55.2554 27.2376 55.2554H26.0498V57.0269ZM33.5718 61.1024C32.7662 61.1024 32.1245 60.8839 31.6466 60.447C31.1688 60.0101 30.9196 59.3616 30.8991 58.5014C30.8991 58.4537 30.8991 58.3922 30.8991 58.3171C30.8991 58.242 30.8991 58.184 30.8991 58.143C30.9196 57.6037 31.0391 57.1429 31.2575 56.7606C31.4828 56.3715 31.79 56.078 32.1791 55.88C32.5751 55.6752 33.0359 55.5728 33.5615 55.5728C34.1623 55.5728 34.6572 55.6923 35.0463 55.9312C35.4423 56.1701 35.7392 56.4944 35.9372 56.904C36.1352 57.3136 36.2342 57.7812 36.2342 58.3069V58.5526C36.2342 58.6277 36.2069 58.6892 36.1522 58.737C36.1045 58.7847 36.0464 58.8086 35.9782 58.8086H32.7014C32.7014 58.8155 32.7014 58.8257 32.7014 58.8394C32.7014 58.853 32.7014 58.8667 32.7014 58.8803C32.7082 59.0783 32.7423 59.2592 32.8038 59.423C32.8652 59.5869 32.9608 59.7166 33.0905 59.8122C33.2202 59.9077 33.3772 59.9555 33.5615 59.9555C33.6981 59.9555 33.8107 59.935 33.8994 59.8941C33.995 59.8463 34.0735 59.7951 34.135 59.7405C34.1964 59.679 34.2442 59.6278 34.2783 59.5869C34.3398 59.5186 34.3875 59.4777 34.4217 59.464C34.4626 59.4435 34.5241 59.4333 34.606 59.4333H35.8758C35.944 59.4333 35.9986 59.4538 36.0396 59.4947C36.0874 59.5289 36.1079 59.5801 36.101 59.6483C36.0942 59.7644 36.0362 59.9043 35.927 60.0682C35.8177 60.232 35.6573 60.3958 35.4457 60.5597C35.2409 60.7167 34.9815 60.8464 34.6674 60.9488C34.3534 61.0512 33.9882 61.1024 33.5718 61.1024ZM32.7014 57.7949H34.4319V57.7744C34.4319 57.5559 34.3978 57.3648 34.3295 57.201C34.2681 57.0371 34.1691 56.9108 34.0326 56.8221C33.9029 56.7333 33.7458 56.689 33.5615 56.689C33.3772 56.689 33.2202 56.7333 33.0905 56.8221C32.9676 56.9108 32.872 57.0371 32.8038 57.201C32.7355 57.3648 32.7014 57.5559 32.7014 57.7744V57.7949ZM39.1807 61.1024C38.853 61.1024 38.5561 61.0512 38.2898 60.9488C38.0304 60.8396 37.8051 60.6826 37.614 60.4778C37.4297 60.2661 37.2863 60.0135 37.1839 59.72C37.0815 59.4196 37.0235 59.0783 37.0098 58.696C37.003 58.5595 36.9996 58.44 36.9996 58.3376C36.9996 58.2284 37.003 58.1089 37.0098 57.9792C37.0235 57.6106 37.0815 57.2795 37.1839 56.9859C37.2863 56.6924 37.4297 56.4398 37.614 56.2282C37.7983 56.0165 38.0236 55.8561 38.2898 55.7469C38.5561 55.6308 38.853 55.5728 39.1807 55.5728C39.5221 55.5728 39.8156 55.6308 40.0614 55.7469C40.3071 55.8561 40.5153 55.9995 40.686 56.177V53.9856C40.686 53.9105 40.7099 53.8491 40.7577 53.8013C40.8055 53.7535 40.8669 53.7296 40.942 53.7296H42.1913C42.2595 53.7296 42.3176 53.7535 42.3654 53.8013C42.42 53.8491 42.4473 53.9105 42.4473 53.9856V60.744C42.4473 60.8191 42.42 60.8805 42.3654 60.9283C42.3176 60.9761 42.2595 61 42.1913 61H41.0342C40.9591 61 40.8976 60.9761 40.8498 60.9283C40.8021 60.8805 40.7782 60.8191 40.7782 60.744V60.4163C40.6143 60.6143 40.4027 60.7781 40.1433 60.9078C39.8839 61.0375 39.563 61.1024 39.1807 61.1024ZM39.7337 59.7302C39.9658 59.7302 40.1467 59.6825 40.2764 59.5869C40.4129 59.4845 40.5119 59.3548 40.5734 59.1978C40.6416 59.0407 40.6792 58.8701 40.686 58.6858C40.6928 58.5492 40.6962 58.4195 40.6962 58.2966C40.6962 58.1738 40.6928 58.0475 40.686 57.9178C40.6792 57.7471 40.6416 57.5901 40.5734 57.4467C40.5051 57.2965 40.4027 57.1771 40.2662 57.0883C40.1296 56.9927 39.9521 56.945 39.7337 56.945C39.5084 56.945 39.3275 56.9927 39.191 57.0883C39.0613 57.1839 38.9691 57.3136 38.9145 57.4774C38.8599 57.6413 38.8257 57.8222 38.8121 58.0202C38.7916 58.2318 38.7916 58.4434 38.8121 58.655C38.8257 58.853 38.8599 59.0339 38.9145 59.1978C38.9691 59.3616 39.0613 59.4913 39.191 59.5869C39.3275 59.6825 39.5084 59.7302 39.7337 59.7302ZM45.61 61.1024C45.2209 61.1024 44.8727 61.0137 44.5655 60.8362C44.2651 60.6587 44.0296 60.3993 43.859 60.0579C43.6883 59.7098 43.603 59.2865 43.603 58.7882V55.9312C43.603 55.8561 43.6269 55.7947 43.6746 55.7469C43.7224 55.6991 43.7839 55.6752 43.859 55.6752H45.139C45.2141 55.6752 45.2755 55.6991 45.3233 55.7469C45.3711 55.7947 45.395 55.8561 45.395 55.9312V58.7267C45.395 59.3957 45.6953 59.7302 46.2961 59.7302C46.576 59.7302 46.7978 59.6449 46.9617 59.4742C47.1323 59.2967 47.2177 59.0476 47.2177 58.7267V55.9312C47.2177 55.8561 47.2416 55.7947 47.2894 55.7469C47.3371 55.6991 47.3986 55.6752 47.4737 55.6752H48.7537C48.8288 55.6752 48.8902 55.6991 48.938 55.7469C48.9858 55.7947 49.0097 55.8561 49.0097 55.9312V60.744C49.0097 60.8191 48.9858 60.8805 48.938 60.9283C48.8902 60.9761 48.8288 61 48.7537 61H47.5658C47.4976 61 47.4361 60.9761 47.3815 60.9283C47.3337 60.8805 47.3098 60.8191 47.3098 60.744V60.3549C47.1323 60.6006 46.9002 60.7884 46.6135 60.9181C46.3336 61.041 45.9991 61.1024 45.61 61.1024ZM49.9991 61C49.9377 61 49.8831 60.9795 49.8353 60.9386C49.7943 60.8908 49.7738 60.8362 49.7738 60.7747C49.7738 60.7542 49.7773 60.7303 49.7841 60.703C49.7909 60.6689 49.8046 60.6382 49.825 60.6109L51.5351 58.2659L49.9786 56.0643C49.9582 56.037 49.9411 56.0097 49.9274 55.9824C49.9206 55.9551 49.9172 55.9278 49.9172 55.9005C49.9172 55.839 49.9411 55.7878 49.9889 55.7469C50.0367 55.6991 50.0913 55.6752 50.1527 55.6752H51.402C51.4907 55.6752 51.5556 55.6957 51.5966 55.7366C51.6443 55.7776 51.6785 55.8151 51.699 55.8493L52.6513 57.1702L53.5934 55.8595C53.6207 55.8254 53.6548 55.7878 53.6958 55.7469C53.7435 55.6991 53.8118 55.6752 53.9006 55.6752H55.0986C55.1601 55.6752 55.2113 55.6991 55.2522 55.7469C55.3 55.7878 55.3239 55.839 55.3239 55.9005C55.3239 55.9278 55.3205 55.9551 55.3137 55.9824C55.3069 56.0097 55.2932 56.037 55.2727 56.0643L53.6753 58.2659L55.4058 60.6109C55.4331 60.6382 55.4502 60.6655 55.457 60.6928C55.4639 60.7201 55.4673 60.7474 55.4673 60.7747C55.4673 60.8362 55.4434 60.8908 55.3956 60.9386C55.3546 60.9795 55.3 61 55.2318 61H53.9313C53.8494 61 53.7879 60.9829 53.747 60.9488C53.706 60.9078 53.6719 60.8703 53.6446 60.8362L52.6103 59.4333L51.5658 60.8362C51.5385 60.8635 51.5044 60.8976 51.4634 60.9386C51.4225 60.9795 51.3576 61 51.2689 61H49.9991Z" fill="#E5E5E5"/>
</g>
<defs>
<filter id="filter0_d_603_616" x="0" y="0" width="80" height="80" filterUnits="userSpaceOnUse" color-interpolation-filters="sRGB">
<feFlood flood-opacity="0" result="BackgroundImageFix"/>
<feColorMatrix in="SourceAlpha" type="matrix" values="0 0 0 0 0 0 0 0 0 0 0 0 0 0 0 0 0 0 127 0" result="hardAlpha"/>
<feOffset dy="2"/>
<feGaussianBlur stdDeviation="4"/>
<feColorMatrix type="matrix" values="0 0 0 0 0 0 0 0 0 0 0 0 0 0 0 0 0 0 0.75 0"/>
<feBlend mode="normal" in2="BackgroundImageFix" result="effect1_dropShadow_603_616"/>
<feBlend mode="normal" in="SourceGraphic" in2="effect1_dropShadow_603_616" result="shape"/>
</filter>
</defs>
</svg>
