<svg width="80" height="80" viewBox="0 0 80 80" fill="none" xmlns="http://www.w3.org/2000/svg">
<g filter="url(#filter0_d_602_1072)">
<rect x="8" y="6" width="64" height="64" rx="5" fill="#212529"/>
<path d="M50.7131 22.2191C50.7161 20.6298 50.3049 19.0671 49.5201 17.6851C47.5041 15.6101 43.1201 15.1291 42.0281 17.6751C40.9091 20.2851 43.9071 23.1891 45.2171 22.9591C46.8851 22.6651 44.9231 18.8381 44.9231 18.8381C47.4741 23.6461 46.8851 22.1741 42.2741 26.5901C37.6631 31.0061 32.9531 40.3221 32.2661 40.7151C32.2367 40.7343 32.2056 40.7507 32.1731 40.7641H50.2611C50.3344 40.7639 50.4063 40.745 50.4702 40.7091C50.5341 40.6733 50.5878 40.6217 50.6262 40.5593C50.6645 40.4969 50.6863 40.4257 50.6894 40.3526C50.6926 40.2794 50.677 40.2066 50.6441 40.1411L45.9151 30.7801C45.8656 30.6826 45.8553 30.5698 45.8864 30.4649C45.9174 30.36 45.9875 30.271 46.0821 30.2161C47.4902 29.4094 48.6601 28.2449 49.4733 26.8406C50.2865 25.4362 50.7142 23.8419 50.7131 22.2191Z" fill="url(#paint0_linear_602_1072)"/>
<path d="M50.7131 22.2191C50.7161 20.6298 50.3049 19.0671 49.5201 17.6851C47.5041 15.6101 43.1201 15.1291 42.0281 17.6751C40.9091 20.2851 43.9071 23.1891 45.2171 22.9591C46.8851 22.6651 44.9231 18.8381 44.9231 18.8381C47.4741 23.6461 46.8851 22.1741 42.2741 26.5901C37.6631 31.0061 32.9531 40.3221 32.2661 40.7151C32.2367 40.7343 32.2056 40.7507 32.1731 40.7641H50.2611C50.3344 40.7639 50.4063 40.745 50.4702 40.7091C50.5341 40.6733 50.5878 40.6217 50.6262 40.5593C50.6645 40.4969 50.6863 40.4257 50.6894 40.3526C50.6926 40.2794 50.677 40.2066 50.6441 40.1411L45.9151 30.7801C45.8656 30.6826 45.8553 30.5698 45.8864 30.4649C45.9174 30.36 45.9875 30.271 46.0821 30.2161C47.4902 29.4094 48.6601 28.2449 49.4733 26.8406C50.2865 25.4362 50.7142 23.8419 50.7131 22.2191Z" fill="url(#paint1_linear_602_1072)"/>
<path d="M32.266 40.715C32.953 40.323 37.666 31.001 42.274 26.585C46.882 22.169 47.474 23.641 44.923 18.833C44.923 18.833 35.16 32.521 31.623 39.291" fill="url(#paint2_linear_602_1072)"/>
<path d="M33.639 28.449C40.233 16.326 41.1 15.1 44.531 15.1C45.448 15.102 46.3534 15.3057 47.1829 15.6966C48.0124 16.0875 48.7458 16.6561 49.331 17.362C48.5175 16.0476 47.3862 14.9591 46.0415 14.1968C44.6967 13.4345 43.1817 13.0229 41.636 13H30.436C30.3228 13 30.2142 13.045 30.1341 13.1251C30.054 13.2051 30.009 13.3138 30.009 13.427V36C31.0626 33.4107 32.2749 30.8889 33.639 28.449Z" fill="url(#paint3_linear_602_1072)"/>
<path d="M42.2739 26.5851C37.6619 31.0001 32.9529 40.3221 32.2659 40.7151C31.8845 40.9417 31.4406 41.0402 30.9991 40.9961C30.5577 40.952 30.1419 40.7677 29.8129 40.4701C29.1599 39.7391 28.1449 38.5571 33.6399 28.4501C40.2329 16.3261 41.0999 15.1001 44.5309 15.1001C45.4479 15.1021 46.3532 15.3058 47.1827 15.6967C48.0123 16.0876 48.7456 16.6562 49.3309 17.3621C49.3949 17.4621 49.4589 17.5731 49.5219 17.6811C47.5059 15.6061 43.1219 15.1251 42.0299 17.6711C40.9109 20.2811 43.9089 23.1851 45.2189 22.9551C46.8869 22.6611 44.9249 18.8341 44.9249 18.8341C47.4749 23.6411 46.8859 22.1691 42.2739 26.5851Z" fill="url(#paint4_linear_602_1072)"/>
<path opacity="0.3" d="M34.179 28.9891C40.773 16.8661 41.636 15.6441 45.071 15.6441C46.5871 15.65 48.0503 16.2024 49.192 17.2001C48.6068 16.5415 47.8891 16.0139 47.0859 15.652C46.2826 15.2901 45.412 15.102 44.531 15.1001C41.097 15.1001 40.231 16.3221 33.639 28.4451C28.145 38.5561 29.16 39.7381 29.813 40.4691C29.9059 40.5705 30.0114 40.6596 30.127 40.7341C29.553 39.9001 29.3 37.9621 34.179 28.9891Z" fill="url(#paint5_linear_602_1072)"/>
<path d="M24.4728 61C24.3977 61 24.3363 60.9761 24.2885 60.9283C24.2407 60.8805 24.2168 60.8191 24.2168 60.744V54.088C24.2168 54.0129 24.2407 53.9515 24.2885 53.9037C24.3363 53.8559 24.3977 53.832 24.4728 53.832H27.2581C28.1387 53.832 28.8316 54.0368 29.3368 54.4464C29.8488 54.8492 30.1048 55.4226 30.1048 56.1667C30.1048 56.6514 29.9853 57.061 29.7464 57.3955C29.5143 57.73 29.2071 57.9826 28.8248 58.1533L30.2379 60.6723C30.2584 60.7133 30.2686 60.7508 30.2686 60.785C30.2686 60.8396 30.2447 60.8908 30.197 60.9386C30.156 60.9795 30.1048 61 30.0434 61H28.6917C28.562 61 28.4664 60.9693 28.405 60.9078C28.3435 60.8396 28.2991 60.7781 28.2718 60.7235L27.1045 58.4707H26.0498V60.744C26.0498 60.8191 26.0259 60.8805 25.9781 60.9283C25.9303 60.9761 25.8689 61 25.7938 61H24.4728ZM26.0498 57.0269H27.2376C27.5585 57.0269 27.7974 56.9484 27.9544 56.7914C28.1182 56.6343 28.2002 56.4193 28.2002 56.1462C28.2002 55.88 28.1217 55.665 27.9646 55.5011C27.8145 55.3373 27.5721 55.2554 27.2376 55.2554H26.0498V57.0269ZM33.6332 61.1024C33.0598 61.1024 32.5751 61.0102 32.1791 60.8259C31.79 60.6416 31.4896 60.3788 31.278 60.0374C31.0732 59.6893 30.9571 59.2763 30.9298 58.7984C30.923 58.6619 30.9196 58.5083 30.9196 58.3376C30.9196 58.1601 30.923 58.0065 30.9298 57.8768C30.9571 57.3921 31.08 56.9791 31.2985 56.6378C31.5169 56.2964 31.8207 56.0336 32.2098 55.8493C32.6058 55.665 33.0802 55.5728 33.6332 55.5728C34.193 55.5728 34.6674 55.665 35.0566 55.8493C35.4525 56.0336 35.7597 56.2964 35.9782 56.6378C36.1966 56.9791 36.3195 57.3921 36.3468 57.8768C36.3536 58.0065 36.357 58.1601 36.357 58.3376C36.357 58.5083 36.3536 58.6619 36.3468 58.7984C36.3195 59.2763 36.2 59.6893 35.9884 60.0374C35.7836 60.3788 35.4832 60.6416 35.0873 60.8259C34.6982 61.0102 34.2135 61.1024 33.6332 61.1024ZM33.6332 59.8531C33.9404 59.8531 34.1623 59.761 34.2988 59.5766C34.4422 59.3923 34.5241 59.1158 34.5446 58.7472C34.5514 58.6448 34.5548 58.5083 34.5548 58.3376C34.5548 58.1669 34.5514 58.0304 34.5446 57.928C34.5241 57.5662 34.4422 57.2931 34.2988 57.1088C34.1623 56.9177 33.9404 56.8221 33.6332 56.8221C33.3328 56.8221 33.111 56.9177 32.9676 57.1088C32.8242 57.2931 32.7457 57.5662 32.7321 57.928C32.7253 58.0304 32.7218 58.1669 32.7218 58.3376C32.7218 58.5083 32.7253 58.6448 32.7321 58.7472C32.7457 59.1158 32.8242 59.3923 32.9676 59.5766C33.111 59.761 33.3328 59.8531 33.6332 59.8531ZM37.6202 61C37.5451 61 37.4836 60.9761 37.4358 60.9283C37.3881 60.8805 37.3642 60.8191 37.3642 60.744V53.9856C37.3642 53.9105 37.3881 53.8491 37.4358 53.8013C37.4836 53.7535 37.5451 53.7296 37.6202 53.7296H38.8285C38.9036 53.7296 38.965 53.7535 39.0128 53.8013C39.0606 53.8491 39.0845 53.9105 39.0845 53.9856V60.744C39.0845 60.8191 39.0606 60.8805 39.0128 60.9283C38.965 60.9761 38.9036 61 38.8285 61H37.6202ZM40.5502 61C40.4751 61 40.4136 60.9761 40.3658 60.9283C40.3181 60.8805 40.2942 60.8191 40.2942 60.744V53.9856C40.2942 53.9105 40.3181 53.8491 40.3658 53.8013C40.4136 53.7535 40.4751 53.7296 40.5502 53.7296H41.7585C41.8336 53.7296 41.895 53.7535 41.9428 53.8013C41.9906 53.8491 42.0145 53.9105 42.0145 53.9856V60.744C42.0145 60.8191 41.9906 60.8805 41.9428 60.9283C41.895 60.9761 41.8336 61 41.7585 61H40.5502ZM45.18 61.1024C44.7909 61.1024 44.4427 61.0137 44.1355 60.8362C43.8351 60.6587 43.5996 60.3993 43.429 60.0579C43.2583 59.7098 43.173 59.2865 43.173 58.7882V55.9312C43.173 55.8561 43.1969 55.7947 43.2446 55.7469C43.2924 55.6991 43.3539 55.6752 43.429 55.6752H44.709C44.7841 55.6752 44.8455 55.6991 44.8933 55.7469C44.9411 55.7947 44.965 55.8561 44.965 55.9312V58.7267C44.965 59.3957 45.2653 59.7302 45.8661 59.7302C46.146 59.7302 46.3678 59.6449 46.5317 59.4742C46.7023 59.2967 46.7877 59.0476 46.7877 58.7267V55.9312C46.7877 55.8561 46.8116 55.7947 46.8594 55.7469C46.9071 55.6991 46.9686 55.6752 47.0437 55.6752H48.3237C48.3988 55.6752 48.4602 55.6991 48.508 55.7469C48.5558 55.7947 48.5797 55.8561 48.5797 55.9312V60.744C48.5797 60.8191 48.5558 60.8805 48.508 60.9283C48.4602 60.9761 48.3988 61 48.3237 61H47.1358C47.0676 61 47.0061 60.9761 46.9515 60.9283C46.9037 60.8805 46.8798 60.8191 46.8798 60.744V60.3549C46.7023 60.6006 46.4702 60.7884 46.1835 60.9181C45.9036 61.041 45.5691 61.1024 45.18 61.1024ZM50.0402 62.9456C49.9651 62.9456 49.9036 62.9217 49.8558 62.8739C49.8081 62.8261 49.7842 62.7647 49.7842 62.6896V55.9312C49.7842 55.8561 49.8081 55.7947 49.8558 55.7469C49.9036 55.6991 49.9651 55.6752 50.0402 55.6752H51.1973C51.2655 55.6752 51.3236 55.6991 51.3714 55.7469C51.426 55.7947 51.4533 55.8561 51.4533 55.9312V56.3101C51.6103 56.0985 51.8185 55.9244 52.0779 55.7878C52.3373 55.6445 52.6582 55.5728 53.0405 55.5728C53.3818 55.5728 53.6822 55.6274 53.9416 55.7366C54.201 55.839 54.4229 55.9926 54.6072 56.1974C54.7915 56.4022 54.9349 56.6514 55.0373 56.945C55.1465 57.2385 55.2079 57.5764 55.2216 57.9587C55.2284 58.0953 55.2318 58.2215 55.2318 58.3376C55.2318 58.4537 55.2284 58.5799 55.2216 58.7165C55.2079 59.0851 55.1499 59.4162 55.0475 59.7098C54.9451 60.0033 54.8018 60.2525 54.6174 60.4573C54.4331 60.6621 54.2078 60.8225 53.9416 60.9386C53.6822 61.0478 53.3818 61.1024 53.0405 61.1024C52.706 61.1024 52.4124 61.0444 52.1598 60.9283C51.9141 60.8054 51.7093 60.6348 51.5454 60.4163V62.6896C51.5454 62.7647 51.5215 62.8261 51.4738 62.8739C51.426 62.9217 51.3645 62.9456 51.2894 62.9456H50.0402ZM52.4875 59.7302C52.7196 59.7302 52.9005 59.6825 53.0302 59.5869C53.1599 59.4913 53.2521 59.3616 53.3067 59.1978C53.3682 59.0339 53.4057 58.853 53.4194 58.655C53.433 58.4434 53.433 58.2318 53.4194 58.0202C53.4057 57.8222 53.3682 57.6413 53.3067 57.4774C53.2521 57.3136 53.1599 57.1839 53.0302 57.0883C52.9005 56.9927 52.7196 56.945 52.4875 56.945C52.2622 56.945 52.0813 56.9962 51.9448 57.0986C51.8083 57.1941 51.7093 57.3204 51.6478 57.4774C51.5864 57.6345 51.5523 57.8051 51.5454 57.9894C51.5386 58.1191 51.5352 58.2454 51.5352 58.3683C51.5352 58.4912 51.5386 58.6209 51.5454 58.7574C51.5523 58.9281 51.5898 59.0885 51.6581 59.2387C51.7263 59.3821 51.8287 59.5015 51.9653 59.5971C52.1018 59.6859 52.2759 59.7302 52.4875 59.7302Z" fill="#E5E5E5"/>
</g>
<defs>
<filter id="filter0_d_602_1072" x="0" y="0" width="80" height="80" filterUnits="userSpaceOnUse" color-interpolation-filters="sRGB">
<feFlood flood-opacity="0" result="BackgroundImageFix"/>
<feColorMatrix in="SourceAlpha" type="matrix" values="0 0 0 0 0 0 0 0 0 0 0 0 0 0 0 0 0 0 127 0" result="hardAlpha"/>
<feOffset dy="2"/>
<feGaussianBlur stdDeviation="4"/>
<feColorMatrix type="matrix" values="0 0 0 0 0 0 0 0 0 0 0 0 0 0 0 0 0 0 0.75 0"/>
<feBlend mode="normal" in2="BackgroundImageFix" result="effect1_dropShadow_602_1072"/>
<feBlend mode="normal" in="SourceGraphic" in2="effect1_dropShadow_602_1072" result="shape"/>
</filter>
<linearGradient id="paint0_linear_602_1072" x1="37.1461" y1="27.9131" x2="44.7011" y2="29.6791" gradientUnits="userSpaceOnUse">
<stop stop-color="#FF6533"/>
<stop offset="0.157" stop-color="#FF5633"/>
<stop offset="0.434" stop-color="#FF4333"/>
<stop offset="0.714" stop-color="#FF3733"/>
<stop offset="1" stop-color="#FF3333"/>
</linearGradient>
<linearGradient id="paint1_linear_602_1072" x1="35.9631" y1="25.4091" x2="49.5041" y2="35.9081" gradientUnits="userSpaceOnUse">
<stop stop-color="#BF3338"/>
<stop offset="1" stop-color="#FF3333"/>
</linearGradient>
<linearGradient id="paint2_linear_602_1072" x1="36.406" y1="27.476" x2="38.368" y2="29.536" gradientUnits="userSpaceOnUse">
<stop stop-color="#FF6533"/>
<stop offset="0.157" stop-color="#FF5633"/>
<stop offset="0.434" stop-color="#FF4333"/>
<stop offset="0.714" stop-color="#FF3733"/>
<stop offset="1" stop-color="#FF3333"/>
</linearGradient>
<linearGradient id="paint3_linear_602_1072" x1="39.974" y1="31.023" x2="39.385" y2="22.584" gradientUnits="userSpaceOnUse">
<stop stop-color="#FF6533"/>
<stop offset="0.157" stop-color="#FF5633"/>
<stop offset="0.434" stop-color="#FF4333"/>
<stop offset="0.714" stop-color="#FF3733"/>
<stop offset="1" stop-color="#FF3333"/>
</linearGradient>
<linearGradient id="paint4_linear_602_1072" x1="37.4229" y1="27.3311" x2="40.2109" y2="29.2271" gradientUnits="userSpaceOnUse">
<stop stop-color="#FBB040"/>
<stop offset="1" stop-color="#FB8840"/>
</linearGradient>
<linearGradient id="paint5_linear_602_1072" x1="40.279" y1="16.6141" x2="37.434" y2="47.9151" gradientUnits="userSpaceOnUse">
<stop stop-color="white"/>
<stop offset="1" stop-color="white" stop-opacity="0"/>
</linearGradient>
</defs>
</svg>
