<svg width="80" height="80" viewBox="0 0 80 80" fill="none" xmlns="http://www.w3.org/2000/svg">
<g filter="url(#filter0_d_603_1553)">
<rect x="8" y="6" width="64" height="64" rx="5" fill="#212529"/>
<path d="M28.916 16.542L26.7871 17.6067V36.2926L28.916 37.3511L28.9288 37.3357V16.5567L28.916 16.542Z" fill="#8C3123"/>
<path d="M40.3097 34.6389L28.916 37.3511V16.542L40.3097 19.195V34.6389Z" fill="#E05243"/>
<path d="M35.1667 30.3925L39.9996 31.0077L40.0299 30.9378L40.0571 23.0131L39.9996 22.9512L35.1667 23.5575V30.3925Z" fill="#8C3123"/>
<path d="M39.9995 34.6694L51.083 37.3569L51.1004 37.3291L51.1001 16.5606L51.0826 16.542L39.9995 19.2255V34.6694Z" fill="#8C3123"/>
<path d="M44.8337 30.3925L39.9995 31.0077V22.9512L44.8337 23.5575V30.3925Z" fill="#E05243"/>
<path d="M44.8337 20.2524L39.9996 21.1335L35.1667 20.2524L39.9935 18.9873L44.8337 20.2524Z" fill="#5E1F18"/>
<path d="M44.8337 33.6891L39.9996 32.8022L35.1667 33.6891L39.9937 35.0365L44.8337 33.6891Z" fill="#F2B0A9"/>
<path d="M35.1667 20.2522L39.9996 19.0563L40.0387 19.0442V11.0323L39.9996 11L35.1667 13.4168V20.2522Z" fill="#8C3123"/>
<path d="M44.8337 20.2522L39.9995 19.0563V11L44.8337 13.4168V20.2522Z" fill="#E05243"/>
<path d="M39.9996 42.9408L35.1663 40.5248V33.6895L39.9996 34.885L40.0707 34.9658L40.0514 42.8013L39.9996 42.9408Z" fill="#8C3123"/>
<path d="M39.9995 42.9408L44.8333 40.5248V33.6895L39.9995 34.885V42.9408Z" fill="#E05243"/>
<path d="M51.083 16.542L53.2129 17.6067V36.2926L51.083 37.3569V16.542Z" fill="#E05243"/>
<path d="M36.3894 61.1024C35.7068 61.1024 35.1402 61.0068 34.6896 60.8157C34.239 60.6177 33.8977 60.3617 33.6656 60.0477C33.4335 59.7337 33.3106 59.3991 33.297 59.0442C33.297 58.9895 33.3174 58.9418 33.3584 58.9008C33.4062 58.853 33.4608 58.8291 33.5222 58.8291H34.8125C34.9081 58.8291 34.9797 58.8462 35.0275 58.8803C35.0821 58.9145 35.1299 58.9588 35.1709 59.0134C35.2255 59.1158 35.3006 59.2148 35.3962 59.3104C35.4986 59.406 35.6283 59.4845 35.7853 59.5459C35.9491 59.6005 36.1505 59.6278 36.3894 59.6278C36.7854 59.6278 37.0823 59.5664 37.2803 59.4435C37.4851 59.3206 37.5875 59.1534 37.5875 58.9418C37.5875 58.7916 37.5329 58.6687 37.4237 58.5731C37.3145 58.4707 37.137 58.382 36.8912 58.3069C36.6523 58.225 36.3314 58.143 35.9286 58.0611C35.4098 57.9519 34.9661 57.8119 34.5974 57.6413C34.2356 57.4638 33.9591 57.2351 33.768 56.9552C33.5769 56.6685 33.4813 56.3135 33.4813 55.8902C33.4813 55.4738 33.5973 55.1018 33.8294 54.7741C34.0684 54.4464 34.3995 54.1904 34.8227 54.0061C35.246 53.8218 35.7477 53.7296 36.328 53.7296C36.799 53.7296 37.2121 53.791 37.567 53.9139C37.9289 54.0368 38.2326 54.2006 38.4784 54.4054C38.7242 54.6102 38.9085 54.8287 39.0314 55.0608C39.1611 55.2861 39.2293 55.5079 39.2362 55.7264C39.2362 55.781 39.2157 55.8322 39.1747 55.88C39.1338 55.921 39.0826 55.9414 39.0211 55.9414H37.6694C37.5943 55.9414 37.5295 55.9278 37.4749 55.9005C37.4203 55.8732 37.3725 55.8288 37.3315 55.7674C37.2906 55.6172 37.1813 55.4875 37.0038 55.3782C36.8332 55.2622 36.6079 55.2042 36.328 55.2042C36.0276 55.2042 35.7921 55.2588 35.6214 55.368C35.4576 55.4704 35.3757 55.6308 35.3757 55.8493C35.3757 55.9858 35.4201 56.1053 35.5088 56.2077C35.6044 56.3101 35.758 56.3988 35.9696 56.4739C36.1881 56.549 36.485 56.6275 36.8605 56.7094C37.4817 56.8255 37.9835 56.9723 38.3658 57.1498C38.7481 57.3204 39.0279 57.5457 39.2054 57.8256C39.3829 58.0987 39.4717 58.4434 39.4717 58.8598C39.4717 59.3241 39.3386 59.7268 39.0723 60.0682C38.8129 60.4027 38.4511 60.6587 37.9869 60.8362C37.5227 61.0137 36.9902 61.1024 36.3894 61.1024ZM43.108 61.1024C42.5755 61.1024 42.1215 61.041 41.7461 60.9181C41.3706 60.7884 41.0634 60.6245 40.8245 60.4266C40.5855 60.2218 40.4081 60.0067 40.292 59.7814C40.1759 59.5493 40.1145 59.3275 40.1077 59.1158C40.1077 59.0544 40.1282 59.0032 40.1691 58.9622C40.2169 58.9213 40.2715 58.9008 40.333 58.9008H41.6642C41.7461 58.9008 41.8109 58.9179 41.8587 58.952C41.9065 58.9793 41.9509 59.0271 41.9918 59.0954C42.0465 59.2251 42.125 59.3309 42.2274 59.4128C42.3366 59.4947 42.4663 59.5527 42.6165 59.5869C42.7667 59.6142 42.9305 59.6278 43.108 59.6278C43.4562 59.6278 43.7258 59.5493 43.917 59.3923C44.1149 59.2285 44.2139 59.0066 44.2139 58.7267C44.2139 58.4332 44.1218 58.225 43.9374 58.1021C43.7531 57.9724 43.4903 57.9075 43.149 57.9075H42.0123C41.9372 57.9075 41.8758 57.8836 41.828 57.8358C41.7802 57.7881 41.7563 57.7266 41.7563 57.6515V57.0781C41.7563 56.9962 41.7734 56.9245 41.8075 56.863C41.8417 56.8016 41.8792 56.7572 41.9202 56.7299L43.5995 55.3066H40.7528C40.6845 55.3066 40.6231 55.2827 40.5685 55.2349C40.5207 55.1871 40.4968 55.1257 40.4968 55.0506V54.088C40.4968 54.0129 40.5207 53.9515 40.5685 53.9037C40.6231 53.8559 40.6845 53.832 40.7528 53.832H45.4632C45.5383 53.832 45.5997 53.8559 45.6475 53.9037C45.7021 53.9515 45.7294 54.0129 45.7294 54.088V54.9584C45.7294 55.0335 45.7124 55.1018 45.6782 55.1632C45.6441 55.2178 45.6066 55.2622 45.5656 55.2963L44.0091 56.7402L44.0808 56.7606C44.4699 56.8084 44.8181 56.9142 45.1253 57.0781C45.4325 57.2351 45.6748 57.457 45.8523 57.7437C46.0298 58.0304 46.1186 58.3956 46.1186 58.8394C46.1186 59.3036 45.9854 59.7063 45.7192 60.0477C45.4598 60.3822 45.1048 60.6416 44.6542 60.8259C44.2037 61.0102 43.6883 61.1024 43.108 61.1024Z" fill="#E5E5E5"/>
</g>
<defs>
<filter id="filter0_d_603_1553" x="0" y="0" width="80" height="80" filterUnits="userSpaceOnUse" color-interpolation-filters="sRGB">
<feFlood flood-opacity="0" result="BackgroundImageFix"/>
<feColorMatrix in="SourceAlpha" type="matrix" values="0 0 0 0 0 0 0 0 0 0 0 0 0 0 0 0 0 0 127 0" result="hardAlpha"/>
<feOffset dy="2"/>
<feGaussianBlur stdDeviation="4"/>
<feColorMatrix type="matrix" values="0 0 0 0 0 0 0 0 0 0 0 0 0 0 0 0 0 0 0.75 0"/>
<feBlend mode="normal" in2="BackgroundImageFix" result="effect1_dropShadow_603_1553"/>
<feBlend mode="normal" in="SourceGraphic" in2="effect1_dropShadow_603_1553" result="shape"/>
</filter>
</defs>
</svg>
