<svg width="80" height="80" viewBox="0 0 80 80" fill="none" xmlns="http://www.w3.org/2000/svg">
<g filter="url(#filter0_d_601_5333)">
<rect x="8" y="6" width="64" height="64" rx="5" fill="#212529"/>
<path d="M50.1099 28.572C49.2306 28.5732 48.3631 28.7743 47.5729 29.16C47.3255 28.7495 47.1345 28.3075 47.0049 27.846C46.9305 27.4843 46.9133 27.1131 46.9539 26.746C47.0394 26.3421 47.1503 25.944 47.2859 25.554C47.2809 25.503 47.2249 25.262 46.6619 25.254C46.0989 25.246 45.6139 25.361 45.5619 25.51C45.4641 25.7822 45.3856 26.0609 45.3269 26.344C44.861 27.4936 44.2874 28.5965 43.6139 29.638C43.2366 29.0194 43.0814 28.2907 43.1739 27.572C43.2594 27.1681 43.3703 26.77 43.5059 26.38C43.5009 26.329 43.4449 26.088 42.8819 26.08C42.3189 26.072 41.8339 26.187 41.7819 26.336C41.7299 26.485 41.6639 26.836 41.5469 27.17C41.4299 27.504 40.0639 30.556 39.7059 31.343C39.5219 31.743 39.3629 32.069 39.2509 32.289C39.2456 32.3033 39.2389 32.3171 39.2309 32.33C39.1309 32.519 39.0779 32.622 39.0779 32.622V32.627C39.0009 32.765 38.9189 32.893 38.8779 32.893C38.8064 32.6073 38.8098 32.308 38.8879 32.024C39.0879 30.965 39.5779 29.319 39.5729 29.262C39.5729 29.231 39.6649 28.945 39.2559 28.797C39.161 28.7519 39.0545 28.7373 38.951 28.7552C38.8475 28.7731 38.7521 28.8227 38.6779 28.897C38.6419 28.897 38.6169 28.984 38.6169 28.984C38.6169 28.984 39.0619 27.133 37.7679 27.133C37.264 27.2344 36.7854 27.4355 36.3604 27.7245C35.9354 28.0136 35.5724 28.3847 35.2929 28.816C34.9449 29.005 34.2039 29.409 33.4109 29.844C33.1109 30.013 32.7969 30.182 32.5059 30.344C32.4859 30.324 32.4649 30.298 32.4449 30.278C30.8699 28.6 27.9749 27.416 28.0999 25.171C28.1459 24.353 28.4269 22.205 33.6589 19.596C37.9649 17.474 41.3919 18.062 41.9849 19.366C42.8339 21.228 40.1489 24.685 35.6999 25.186C35.2077 25.2859 34.6994 25.2738 34.2125 25.1508C33.7256 25.0277 33.2725 24.7968 32.8869 24.475C32.6519 24.219 32.6159 24.204 32.5289 24.255C32.3859 24.332 32.4779 24.562 32.5289 24.695C32.6986 25.0022 32.9282 25.2722 33.204 25.4891C33.4799 25.7061 33.7964 25.8655 34.1349 25.958C35.8851 26.3363 37.7099 26.1554 39.3519 25.441C42.0519 24.398 44.1519 21.498 43.5359 19.069C42.9169 16.604 38.8259 15.791 34.9539 17.169C32.5287 17.9851 30.2877 19.2705 28.3589 20.952C26.2259 22.947 25.8889 24.68 26.0269 25.407C26.5269 27.985 30.0779 29.662 31.4989 30.907C31.4269 30.948 31.3609 30.984 31.3049 31.014C30.5939 31.367 27.8839 32.784 27.2049 34.282C26.4379 35.982 27.3279 37.197 27.9159 37.361C28.8019 37.5731 29.732 37.5033 30.5764 37.1612C31.4208 36.8192 32.1373 36.222 32.6259 35.453C33.042 34.8153 33.2977 34.0864 33.3714 33.3284C33.445 32.5705 33.3344 31.806 33.0489 31.1C33.0441 31.0886 33.0373 31.0781 33.0289 31.069L33.5859 30.742C33.9489 30.527 34.3069 30.328 34.6139 30.164C34.4057 30.7645 34.2835 31.3914 34.2509 32.026C34.1802 32.9988 34.4779 33.9626 35.0849 34.726C35.1773 34.8055 35.2845 34.8659 35.4004 34.9037C35.5162 34.9415 35.6384 34.9559 35.7599 34.946C36.3599 34.946 36.6349 34.446 36.9359 33.852C37.3039 33.126 37.6359 32.282 37.6359 32.282C37.6359 32.282 37.2219 34.563 38.3469 34.563C38.7559 34.563 39.1699 34.031 39.3549 33.763V33.768C39.3549 33.768 39.3649 33.753 39.3859 33.717L39.4519 33.61V33.6C39.6159 33.314 39.9839 32.664 40.5309 31.585C41.2369 30.194 41.9169 28.455 41.9169 28.455C41.9825 28.8372 42.073 29.2147 42.1879 29.585C42.3526 30.034 42.5474 30.4713 42.7709 30.894C42.6069 31.124 42.5049 31.252 42.5049 31.252L42.5099 31.257C42.3769 31.431 42.2339 31.62 42.0749 31.804C41.6018 32.3241 41.1629 32.8743 40.7609 33.451C40.7012 33.5479 40.6806 33.6639 40.7035 33.7754C40.7264 33.8869 40.7909 33.9855 40.8839 34.051C41.0944 34.1606 41.3344 34.2002 41.5689 34.164C41.9224 34.1441 42.2699 34.0646 42.5969 33.929C42.9129 33.8178 43.211 33.6612 43.4819 33.464C43.7611 33.2706 43.9859 33.0086 44.1346 32.7031C44.2833 32.3977 44.3509 32.0592 44.3309 31.72C44.2995 31.2929 44.1903 30.875 44.0089 30.487C44.0599 30.415 44.1089 30.344 44.1569 30.272C44.7254 29.4234 45.2379 28.5385 45.6909 27.623C45.7565 28.0052 45.847 28.3827 45.9619 28.753C46.0978 29.141 46.265 29.5172 46.4619 29.878C45.8079 30.3813 45.2927 31.0427 44.9649 31.8C44.6429 32.731 44.8929 33.15 45.3649 33.247C45.6232 33.2648 45.8814 33.212 46.1119 33.094C46.4508 32.9827 46.77 32.8187 47.0579 32.608C47.3615 32.4289 47.6157 32.1771 47.7978 31.8753C47.9798 31.5735 48.084 31.2311 48.1009 30.879C48.0782 30.5276 47.9988 30.1822 47.8659 29.856C48.729 29.5189 49.6648 29.4113 50.5819 29.544C53.0159 29.83 53.4969 31.349 53.4049 31.989C53.3618 32.2159 53.2705 32.4309 53.1374 32.6196C53.0042 32.8083 52.8322 32.9664 52.6329 33.083C52.4639 33.19 52.4079 33.226 52.4229 33.303C52.4429 33.416 52.5229 33.41 52.6679 33.39C53.0347 33.276 53.3584 33.0535 53.5962 32.7518C53.834 32.4501 53.9748 32.0834 53.9999 31.7C54.0769 30.2 52.6449 28.555 50.1129 28.57L50.1099 28.572ZM31.3299 34.9C30.5219 35.78 29.3969 36.112 28.9109 35.831C28.3889 35.531 28.5939 34.231 29.5859 33.299C30.1744 32.7693 30.8104 32.295 31.4859 31.882C31.6039 31.81 31.7779 31.708 31.9859 31.582L32.0419 31.551L32.1649 31.474C32.3421 32.0678 32.3582 32.6981 32.2115 33.3001C32.0647 33.9022 31.7605 34.4544 31.3299 34.9ZM37.2109 30.9C36.9299 31.585 36.3419 33.34 35.9839 33.242C35.6769 33.16 35.4839 31.83 35.9229 30.516C36.1446 29.8835 36.4674 29.2911 36.8789 28.762C37.3189 28.271 37.8049 28.107 37.9219 28.307C37.8152 29.2019 37.5755 30.0759 37.2109 30.9ZM42.0639 33.222C41.9459 33.283 41.8339 33.322 41.7829 33.294C41.7469 33.274 41.8339 33.194 41.8339 33.194C41.8339 33.194 42.4429 32.539 42.6829 32.243C42.8209 32.069 42.9829 31.865 43.1589 31.634V31.7C43.1589 32.482 42.4019 33.009 42.0649 33.224L42.0639 33.222ZM45.8079 32.368C45.7209 32.307 45.7359 32.102 46.0279 31.463C46.2309 31.0527 46.5146 30.6874 46.8619 30.389C46.9151 30.5404 46.9429 30.6996 46.9439 30.86C46.9478 31.2016 46.8386 31.5348 46.6333 31.8078C46.428 32.0808 46.1381 32.2781 45.8089 32.369L45.8079 32.368Z" fill="#CD6799"/>
<path d="M30.8894 61.1024C30.2068 61.1024 29.6402 61.0068 29.1896 60.8157C28.739 60.6177 28.3977 60.3617 28.1656 60.0477C27.9335 59.7337 27.8106 59.3991 27.797 59.0442C27.797 58.9895 27.8174 58.9418 27.8584 58.9008C27.9062 58.853 27.9608 58.8291 28.0222 58.8291H29.3125C29.4081 58.8291 29.4797 58.8462 29.5275 58.8803C29.5821 58.9145 29.6299 58.9588 29.6709 59.0134C29.7255 59.1158 29.8006 59.2148 29.8962 59.3104C29.9986 59.406 30.1283 59.4845 30.2853 59.5459C30.4491 59.6005 30.6505 59.6278 30.8894 59.6278C31.2854 59.6278 31.5823 59.5664 31.7803 59.4435C31.9851 59.3206 32.0875 59.1534 32.0875 58.9418C32.0875 58.7916 32.0329 58.6687 31.9237 58.5731C31.8145 58.4707 31.637 58.382 31.3912 58.3069C31.1523 58.225 30.8314 58.143 30.4286 58.0611C29.9098 57.9519 29.4661 57.8119 29.0974 57.6413C28.7356 57.4638 28.4591 57.2351 28.268 56.9552C28.0769 56.6685 27.9813 56.3135 27.9813 55.8902C27.9813 55.4738 28.0973 55.1018 28.3294 54.7741C28.5684 54.4464 28.8995 54.1904 29.3227 54.0061C29.746 53.8218 30.2477 53.7296 30.828 53.7296C31.299 53.7296 31.7121 53.791 32.067 53.9139C32.4289 54.0368 32.7326 54.2006 32.9784 54.4054C33.2242 54.6102 33.4085 54.8287 33.5314 55.0608C33.6611 55.2861 33.7293 55.5079 33.7362 55.7264C33.7362 55.781 33.7157 55.8322 33.6747 55.88C33.6338 55.921 33.5826 55.9414 33.5211 55.9414H32.1694C32.0943 55.9414 32.0295 55.9278 31.9749 55.9005C31.9203 55.8732 31.8725 55.8288 31.8315 55.7674C31.7906 55.6172 31.6813 55.4875 31.5038 55.3782C31.3332 55.2622 31.1079 55.2042 30.828 55.2042C30.5276 55.2042 30.2921 55.2588 30.1214 55.368C29.9576 55.4704 29.8757 55.6308 29.8757 55.8493C29.8757 55.9858 29.9201 56.1053 30.0088 56.2077C30.1044 56.3101 30.258 56.3988 30.4696 56.4739C30.6881 56.549 30.985 56.6275 31.3605 56.7094C31.9817 56.8255 32.4835 56.9723 32.8658 57.1498C33.2481 57.3204 33.5279 57.5457 33.7054 57.8256C33.8829 58.0987 33.9717 58.4434 33.9717 58.8598C33.9717 59.3241 33.8386 59.7268 33.5723 60.0682C33.3129 60.4027 32.9511 60.6587 32.4869 60.8362C32.0227 61.0137 31.4902 61.1024 30.8894 61.1024ZM36.4816 61.1024C36.113 61.1024 35.7819 61.0341 35.4883 60.8976C35.2016 60.7542 34.9729 60.5631 34.8022 60.3242C34.6316 60.0852 34.5462 59.8156 34.5462 59.5152C34.5462 59.0305 34.7442 58.6482 35.1402 58.3683C35.5361 58.0816 36.0618 57.887 36.7171 57.7846L37.9971 57.5901V57.4467C37.9971 57.201 37.9459 57.0132 37.8435 56.8835C37.7411 56.7538 37.5534 56.689 37.2803 56.689C37.0892 56.689 36.9322 56.7265 36.8093 56.8016C36.6932 56.8767 36.6011 56.9791 36.5328 57.1088C36.4714 57.1975 36.386 57.2419 36.2768 57.2419H35.1299C35.0548 57.2419 34.9968 57.2214 34.9558 57.1805C34.9149 57.1327 34.8978 57.0781 34.9046 57.0166C34.9046 56.8938 34.949 56.7538 35.0378 56.5968C35.1333 56.433 35.2767 56.2725 35.4678 56.1155C35.659 55.9585 35.9047 55.8288 36.2051 55.7264C36.5055 55.624 36.8673 55.5728 37.2906 55.5728C37.7343 55.5728 38.1132 55.624 38.4272 55.7264C38.7412 55.8288 38.9938 55.9722 39.185 56.1565C39.3829 56.3408 39.5297 56.5593 39.6253 56.8118C39.7209 57.0576 39.7686 57.3307 39.7686 57.631V60.744C39.7686 60.8191 39.7413 60.8805 39.6867 60.9283C39.6389 60.9761 39.5809 61 39.5126 61H38.3248C38.2497 61 38.1883 60.9761 38.1405 60.9283C38.0927 60.8805 38.0688 60.8191 38.0688 60.744V60.3856C37.9801 60.5153 37.8606 60.6348 37.7104 60.744C37.5602 60.8532 37.3827 60.9386 37.1779 61C36.9799 61.0683 36.7478 61.1024 36.4816 61.1024ZM36.9629 59.935C37.1609 59.935 37.3383 59.8941 37.4954 59.8122C37.6592 59.7234 37.7855 59.5903 37.8742 59.4128C37.9698 59.2285 38.0176 58.9998 38.0176 58.7267V58.5834L37.1472 58.737C36.8263 58.7916 36.5908 58.8769 36.4406 58.993C36.2973 59.1022 36.2256 59.2319 36.2256 59.3821C36.2256 59.4981 36.2597 59.5971 36.328 59.679C36.3963 59.761 36.485 59.8258 36.5942 59.8736C36.7035 59.9146 36.8263 59.935 36.9629 59.935ZM43.1155 61.1024C42.6718 61.1024 42.2929 61.0546 41.9789 60.959C41.6717 60.8566 41.4191 60.7338 41.2211 60.5904C41.03 60.447 40.8866 60.3003 40.791 60.1501C40.6955 59.9931 40.6443 59.8599 40.6374 59.7507C40.6306 59.6756 40.6545 59.6142 40.7091 59.5664C40.7637 59.5118 40.8218 59.4845 40.8832 59.4845H42.0506C42.071 59.4845 42.0881 59.4879 42.1018 59.4947C42.1154 59.5015 42.1359 59.5152 42.1632 59.5357C42.2519 59.5835 42.3407 59.6449 42.4294 59.72C42.5182 59.7883 42.6206 59.8497 42.7366 59.9043C42.8527 59.9589 42.9926 59.9862 43.1565 59.9862C43.3476 59.9862 43.5081 59.9487 43.6378 59.8736C43.7675 59.7985 43.8323 59.6859 43.8323 59.5357C43.8323 59.4265 43.8016 59.3377 43.7402 59.2694C43.6787 59.1943 43.5524 59.1227 43.3613 59.0544C43.177 58.9861 42.8971 58.9179 42.5216 58.8496C42.1666 58.7677 41.856 58.6619 41.5898 58.5322C41.3235 58.3956 41.1187 58.2215 40.9754 58.0099C40.832 57.7915 40.7603 57.5286 40.7603 57.2214C40.7603 56.9484 40.8491 56.6855 41.0266 56.433C41.2041 56.1804 41.4635 55.9756 41.8048 55.8186C42.1461 55.6547 42.566 55.5728 43.0643 55.5728C43.4603 55.5728 43.8016 55.6206 44.0883 55.7162C44.3819 55.8049 44.6276 55.921 44.8256 56.0643C45.0304 56.2077 45.184 56.3545 45.2864 56.5046C45.3888 56.6548 45.4434 56.7914 45.4502 56.9142C45.4571 56.9825 45.4366 57.0439 45.3888 57.0986C45.341 57.1463 45.2864 57.1702 45.225 57.1702H44.16C44.1327 57.1702 44.1054 57.1668 44.0781 57.16C44.0508 57.1463 44.0269 57.1327 44.0064 57.119C43.9245 57.0781 43.8426 57.0235 43.7606 56.9552C43.6787 56.8869 43.5831 56.8255 43.4739 56.7709C43.3647 56.7163 43.2282 56.689 43.0643 56.689C42.88 56.689 42.7366 56.7299 42.6342 56.8118C42.5318 56.8938 42.4806 56.9996 42.4806 57.1293C42.4806 57.218 42.5079 57.2999 42.5626 57.375C42.624 57.4501 42.7435 57.5184 42.921 57.5798C43.1053 57.6413 43.3886 57.7095 43.7709 57.7846C44.2419 57.8597 44.6174 57.9826 44.8973 58.1533C45.1772 58.3171 45.3751 58.5117 45.4912 58.737C45.6073 58.9554 45.6653 59.1875 45.6653 59.4333C45.6653 59.761 45.5663 60.0511 45.3683 60.3037C45.1772 60.5563 44.8905 60.7542 44.5082 60.8976C44.1259 61.0341 43.6617 61.1024 43.1155 61.1024ZM48.7755 61.1024C48.3318 61.1024 47.9529 61.0546 47.6389 60.959C47.3317 60.8566 47.0791 60.7338 46.8811 60.5904C46.69 60.447 46.5466 60.3003 46.451 60.1501C46.3555 59.9931 46.3043 59.8599 46.2974 59.7507C46.2906 59.6756 46.3145 59.6142 46.3691 59.5664C46.4237 59.5118 46.4818 59.4845 46.5432 59.4845H47.7106C47.731 59.4845 47.7481 59.4879 47.7618 59.4947C47.7754 59.5015 47.7959 59.5152 47.8232 59.5357C47.9119 59.5835 48.0007 59.6449 48.0894 59.72C48.1782 59.7883 48.2806 59.8497 48.3966 59.9043C48.5127 59.9589 48.6526 59.9862 48.8165 59.9862C49.0076 59.9862 49.1681 59.9487 49.2978 59.8736C49.4275 59.7985 49.4923 59.6859 49.4923 59.5357C49.4923 59.4265 49.4616 59.3377 49.4002 59.2694C49.3387 59.1943 49.2124 59.1227 49.0213 59.0544C48.837 58.9861 48.5571 58.9179 48.1816 58.8496C47.8266 58.7677 47.516 58.6619 47.2498 58.5322C46.9835 58.3956 46.7787 58.2215 46.6354 58.0099C46.492 57.7915 46.4203 57.5286 46.4203 57.2214C46.4203 56.9484 46.5091 56.6855 46.6866 56.433C46.8641 56.1804 47.1235 55.9756 47.4648 55.8186C47.8061 55.6547 48.226 55.5728 48.7243 55.5728C49.1203 55.5728 49.4616 55.6206 49.7483 55.7162C50.0419 55.8049 50.2876 55.921 50.4856 56.0643C50.6904 56.2077 50.844 56.3545 50.9464 56.5046C51.0488 56.6548 51.1034 56.7914 51.1102 56.9142C51.1171 56.9825 51.0966 57.0439 51.0488 57.0986C51.001 57.1463 50.9464 57.1702 50.885 57.1702H49.82C49.7927 57.1702 49.7654 57.1668 49.7381 57.16C49.7108 57.1463 49.6869 57.1327 49.6664 57.119C49.5845 57.0781 49.5026 57.0235 49.4206 56.9552C49.3387 56.8869 49.2431 56.8255 49.1339 56.7709C49.0247 56.7163 48.8882 56.689 48.7243 56.689C48.54 56.689 48.3966 56.7299 48.2942 56.8118C48.1918 56.8938 48.1406 56.9996 48.1406 57.1293C48.1406 57.218 48.1679 57.2999 48.2226 57.375C48.284 57.4501 48.4035 57.5184 48.581 57.5798C48.7653 57.6413 49.0486 57.7095 49.4309 57.7846C49.9019 57.8597 50.2774 57.9826 50.5573 58.1533C50.8372 58.3171 51.0351 58.5117 51.1512 58.737C51.2673 58.9554 51.3253 59.1875 51.3253 59.4333C51.3253 59.761 51.2263 60.0511 51.0283 60.3037C50.8372 60.5563 50.5505 60.7542 50.1682 60.8976C49.7859 61.0341 49.3217 61.1024 48.7755 61.1024Z" fill="#E5E5E5"/>
</g>
<defs>
<filter id="filter0_d_601_5333" x="0" y="0" width="80" height="80" filterUnits="userSpaceOnUse" color-interpolation-filters="sRGB">
<feFlood flood-opacity="0" result="BackgroundImageFix"/>
<feColorMatrix in="SourceAlpha" type="matrix" values="0 0 0 0 0 0 0 0 0 0 0 0 0 0 0 0 0 0 127 0" result="hardAlpha"/>
<feOffset dy="2"/>
<feGaussianBlur stdDeviation="4"/>
<feColorMatrix type="matrix" values="0 0 0 0 0 0 0 0 0 0 0 0 0 0 0 0 0 0 0.75 0"/>
<feBlend mode="normal" in2="BackgroundImageFix" result="effect1_dropShadow_601_5333"/>
<feBlend mode="normal" in="SourceGraphic" in2="effect1_dropShadow_601_5333" result="shape"/>
</filter>
</defs>
</svg>
