<svg width="80" height="80" viewBox="0 0 80 80" fill="none" xmlns="http://www.w3.org/2000/svg">
<g filter="url(#filter0_d_602_1771)">
<rect x="8" y="6" width="64" height="64" rx="5" fill="#212529"/>
<g clip-path="url(#clip0_602_1771)">
<path d="M55.4218 18.7469C55.4218 18.7469 45.2049 11.2288 37.3013 12.9638L36.723 13.1566C35.5663 13.5421 34.6025 14.1204 34.0242 14.8915L33.6386 15.4698L30.7471 20.4819L35.7591 21.4457C37.8796 22.7951 40.5784 23.3734 43.0844 22.7951L51.9519 24.5301L55.4218 18.7469Z" fill="#76B3E1"/>
<path opacity="0.3" d="M55.4218 18.7469C55.4218 18.7469 45.2049 11.2288 37.3013 12.9638L36.723 13.1566C35.5663 13.5421 34.6025 14.1204 34.0242 14.8915L33.6386 15.4698L30.7471 20.4819L35.7591 21.4457C37.8796 22.7951 40.5784 23.3734 43.0844 22.7951L51.9519 24.5301L55.4218 18.7469Z" fill="url(#paint0_linear_602_1771)"/>
<path d="M34.0241 18.747L33.253 18.9398C29.9759 19.9036 29.012 22.988 30.747 25.6868C32.6747 28.1928 36.7229 29.5422 40 28.5783L51.9518 24.5301C51.9518 24.5301 41.7349 17.0121 34.0241 18.747Z" fill="#518AC8"/>
<path opacity="0.3" d="M34.0241 18.747L33.253 18.9398C29.9759 19.9036 29.012 22.988 30.747 25.6868C32.6747 28.1928 36.7229 29.5422 40 28.5783L51.9518 24.5301C51.9518 24.5301 41.7349 17.0121 34.0241 18.747Z" fill="url(#paint1_linear_602_1771)"/>
<path d="M49.8312 27.4218C48.752 26.0735 47.2948 25.078 45.6463 24.5628C43.9979 24.0477 42.2332 24.0363 40.5782 24.5302L28.6264 28.3857L24.771 35.1326L46.3614 38.7953L50.2168 31.8555C50.9879 30.5061 50.7951 28.964 49.8312 27.4218Z" fill="url(#paint2_linear_602_1771)"/>
<path d="M45.9758 34.1686C44.8966 32.8203 43.4394 31.8248 41.7909 31.3097C40.1425 30.7945 38.3778 30.7832 36.7228 31.2771L24.771 35.1325C24.771 35.1325 34.9879 42.8433 42.8915 40.9156L43.4698 40.7228C46.7469 39.759 47.9035 36.6746 45.9758 34.1686Z" fill="url(#paint3_linear_602_1771)"/>
</g>
<path d="M30.3894 61.1024C29.7068 61.1024 29.1402 61.0068 28.6896 60.8157C28.239 60.6177 27.8977 60.3617 27.6656 60.0477C27.4335 59.7337 27.3106 59.3991 27.297 59.0442C27.297 58.9895 27.3174 58.9418 27.3584 58.9008C27.4062 58.853 27.4608 58.8291 27.5222 58.8291H28.8125C28.9081 58.8291 28.9797 58.8462 29.0275 58.8803C29.0821 58.9145 29.1299 58.9588 29.1709 59.0134C29.2255 59.1158 29.3006 59.2148 29.3962 59.3104C29.4986 59.406 29.6283 59.4845 29.7853 59.5459C29.9491 59.6005 30.1505 59.6278 30.3894 59.6278C30.7854 59.6278 31.0823 59.5664 31.2803 59.4435C31.4851 59.3206 31.5875 59.1534 31.5875 58.9418C31.5875 58.7916 31.5329 58.6687 31.4237 58.5731C31.3145 58.4707 31.137 58.382 30.8912 58.3069C30.6523 58.225 30.3314 58.143 29.9286 58.0611C29.4098 57.9519 28.9661 57.8119 28.5974 57.6413C28.2356 57.4638 27.9591 57.2351 27.768 56.9552C27.5769 56.6685 27.4813 56.3135 27.4813 55.8902C27.4813 55.4738 27.5973 55.1018 27.8294 54.7741C28.0684 54.4464 28.3995 54.1904 28.8227 54.0061C29.246 53.8218 29.7477 53.7296 30.328 53.7296C30.799 53.7296 31.2121 53.791 31.567 53.9139C31.9289 54.0368 32.2326 54.2006 32.4784 54.4054C32.7242 54.6102 32.9085 54.8287 33.0314 55.0608C33.1611 55.2861 33.2293 55.5079 33.2362 55.7264C33.2362 55.781 33.2157 55.8322 33.1747 55.88C33.1338 55.921 33.0826 55.9414 33.0211 55.9414H31.6694C31.5943 55.9414 31.5295 55.9278 31.4749 55.9005C31.4203 55.8732 31.3725 55.8288 31.3315 55.7674C31.2906 55.6172 31.1813 55.4875 31.0038 55.3782C30.8332 55.2622 30.6079 55.2042 30.328 55.2042C30.0276 55.2042 29.7921 55.2588 29.6214 55.368C29.4576 55.4704 29.3757 55.6308 29.3757 55.8493C29.3757 55.9858 29.4201 56.1053 29.5088 56.2077C29.6044 56.3101 29.758 56.3988 29.9696 56.4739C30.1881 56.549 30.485 56.6275 30.8605 56.7094C31.4817 56.8255 31.9835 56.9723 32.3658 57.1498C32.7481 57.3204 33.0279 57.5457 33.2054 57.8256C33.3829 58.0987 33.4717 58.4434 33.4717 58.8598C33.4717 59.3241 33.3386 59.7268 33.0723 60.0682C32.8129 60.4027 32.4511 60.6587 31.9869 60.8362C31.5227 61.0137 30.9902 61.1024 30.3894 61.1024ZM36.9032 61.1024C36.3298 61.1024 35.8451 61.0102 35.4491 60.8259C35.06 60.6416 34.7596 60.3788 34.548 60.0374C34.3432 59.6893 34.2271 59.2763 34.1998 58.7984C34.193 58.6619 34.1896 58.5083 34.1896 58.3376C34.1896 58.1601 34.193 58.0065 34.1998 57.8768C34.2271 57.3921 34.35 56.9791 34.5685 56.6378C34.7869 56.2964 35.0907 56.0336 35.4798 55.8493C35.8758 55.665 36.3502 55.5728 36.9032 55.5728C37.463 55.5728 37.9374 55.665 38.3266 55.8493C38.7225 56.0336 39.0297 56.2964 39.2482 56.6378C39.4666 56.9791 39.5895 57.3921 39.6168 57.8768C39.6236 58.0065 39.627 58.1601 39.627 58.3376C39.627 58.5083 39.6236 58.6619 39.6168 58.7984C39.5895 59.2763 39.47 59.6893 39.2584 60.0374C39.0536 60.3788 38.7532 60.6416 38.3573 60.8259C37.9682 61.0102 37.4835 61.1024 36.9032 61.1024ZM36.9032 59.8531C37.2104 59.8531 37.4323 59.761 37.5688 59.5766C37.7122 59.3923 37.7941 59.1158 37.8146 58.7472C37.8214 58.6448 37.8248 58.5083 37.8248 58.3376C37.8248 58.1669 37.8214 58.0304 37.8146 57.928C37.7941 57.5662 37.7122 57.2931 37.5688 57.1088C37.4323 56.9177 37.2104 56.8221 36.9032 56.8221C36.6028 56.8221 36.381 56.9177 36.2376 57.1088C36.0942 57.2931 36.0157 57.5662 36.0021 57.928C35.9953 58.0304 35.9918 58.1669 35.9918 58.3376C35.9918 58.5083 35.9953 58.6448 36.0021 58.7472C36.0157 59.1158 36.0942 59.3923 36.2376 59.5766C36.381 59.761 36.6028 59.8531 36.9032 59.8531ZM40.8902 61C40.8151 61 40.7536 60.9761 40.7058 60.9283C40.6581 60.8805 40.6342 60.8191 40.6342 60.744V53.9856C40.6342 53.9105 40.6581 53.8491 40.7058 53.8013C40.7536 53.7535 40.8151 53.7296 40.8902 53.7296H42.0985C42.1736 53.7296 42.235 53.7535 42.2828 53.8013C42.3306 53.8491 42.3545 53.9105 42.3545 53.9856V60.744C42.3545 60.8191 42.3306 60.8805 42.2828 60.9283C42.235 60.9761 42.1736 61 42.0985 61H40.8902ZM44.1702 61C44.0951 61 44.0336 60.9761 43.9858 60.9283C43.9381 60.8805 43.9142 60.8191 43.9142 60.744V55.9312C43.9142 55.8561 43.9381 55.7947 43.9858 55.7469C44.0336 55.6991 44.0951 55.6752 44.1702 55.6752H45.3785C45.4467 55.6752 45.5048 55.6991 45.5526 55.7469C45.6072 55.7947 45.6345 55.8561 45.6345 55.9312V60.744C45.6345 60.8191 45.6072 60.8805 45.5526 60.9283C45.5048 60.9761 45.4467 61 45.3785 61H44.1702ZM44.1599 54.9072C44.0848 54.9072 44.0234 54.8833 43.9756 54.8355C43.9278 54.7877 43.9039 54.7263 43.9039 54.6512V53.7398C43.9039 53.6647 43.9278 53.6033 43.9756 53.5555C44.0234 53.5009 44.0848 53.4736 44.1599 53.4736H45.3785C45.4536 53.4736 45.515 53.5009 45.5628 53.5555C45.6174 53.6033 45.6447 53.6647 45.6447 53.7398V54.6512C45.6447 54.7263 45.6174 54.7877 45.5628 54.8355C45.515 54.8833 45.4536 54.9072 45.3785 54.9072H44.1599ZM48.8207 61.1024C48.493 61.1024 48.1961 61.0512 47.9298 60.9488C47.6704 60.8396 47.4451 60.6826 47.254 60.4778C47.0697 60.2661 46.9263 60.0135 46.8239 59.72C46.7215 59.4196 46.6635 59.0783 46.6498 58.696C46.643 58.5595 46.6396 58.44 46.6396 58.3376C46.6396 58.2284 46.643 58.1089 46.6498 57.9792C46.6635 57.6106 46.7215 57.2795 46.8239 56.9859C46.9263 56.6924 47.0697 56.4398 47.254 56.2282C47.4383 56.0165 47.6636 55.8561 47.9298 55.7469C48.1961 55.6308 48.493 55.5728 48.8207 55.5728C49.1621 55.5728 49.4556 55.6308 49.7014 55.7469C49.9471 55.8561 50.1553 55.9995 50.326 56.177V53.9856C50.326 53.9105 50.3499 53.8491 50.3977 53.8013C50.4455 53.7535 50.5069 53.7296 50.582 53.7296H51.8313C51.8995 53.7296 51.9576 53.7535 52.0054 53.8013C52.06 53.8491 52.0873 53.9105 52.0873 53.9856V60.744C52.0873 60.8191 52.06 60.8805 52.0054 60.9283C51.9576 60.9761 51.8995 61 51.8313 61H50.6742C50.5991 61 50.5376 60.9761 50.4898 60.9283C50.4421 60.8805 50.4182 60.8191 50.4182 60.744V60.4163C50.2543 60.6143 50.0427 60.7781 49.7833 60.9078C49.5239 61.0375 49.203 61.1024 48.8207 61.1024ZM49.3737 59.7302C49.6058 59.7302 49.7867 59.6825 49.9164 59.5869C50.0529 59.4845 50.1519 59.3548 50.2134 59.1978C50.2816 59.0407 50.3192 58.8701 50.326 58.6858C50.3328 58.5492 50.3362 58.4195 50.3362 58.2966C50.3362 58.1738 50.3328 58.0475 50.326 57.9178C50.3192 57.7471 50.2816 57.5901 50.2134 57.4467C50.1451 57.2965 50.0427 57.1771 49.9062 57.0883C49.7696 56.9927 49.5921 56.945 49.3737 56.945C49.1484 56.945 48.9675 56.9927 48.831 57.0883C48.7013 57.1839 48.6091 57.3136 48.5545 57.4774C48.4999 57.6413 48.4657 57.8222 48.4521 58.0202C48.4316 58.2318 48.4316 58.4434 48.4521 58.655C48.4657 58.853 48.4999 59.0339 48.5545 59.1978C48.6091 59.3616 48.7013 59.4913 48.831 59.5869C48.9675 59.6825 49.1484 59.7302 49.3737 59.7302Z" fill="#E5E5E5"/>
</g>
<defs>
<filter id="filter0_d_602_1771" x="0" y="0" width="80" height="80" filterUnits="userSpaceOnUse" color-interpolation-filters="sRGB">
<feFlood flood-opacity="0" result="BackgroundImageFix"/>
<feColorMatrix in="SourceAlpha" type="matrix" values="0 0 0 0 0 0 0 0 0 0 0 0 0 0 0 0 0 0 127 0" result="hardAlpha"/>
<feOffset dy="2"/>
<feGaussianBlur stdDeviation="4"/>
<feColorMatrix type="matrix" values="0 0 0 0 0 0 0 0 0 0 0 0 0 0 0 0 0 0 0.75 0"/>
<feBlend mode="normal" in2="BackgroundImageFix" result="effect1_dropShadow_602_1771"/>
<feBlend mode="normal" in="SourceGraphic" in2="effect1_dropShadow_602_1771" result="shape"/>
</filter>
<linearGradient id="paint0_linear_602_1771" x1="29.3013" y1="12.5782" x2="53.3013" y2="24.2409" gradientUnits="userSpaceOnUse">
<stop offset="0.1" stop-color="#76B3E1"/>
<stop offset="0.3" stop-color="#DCF2FD"/>
<stop offset="1" stop-color="#76B3E1"/>
</linearGradient>
<linearGradient id="paint1_linear_602_1771" x1="42.4675" y1="18.2843" x2="38.265" y2="32.2795" gradientUnits="userSpaceOnUse">
<stop stop-color="#76B3E1"/>
<stop offset="0.5" stop-color="#4377BB"/>
<stop offset="1" stop-color="#1F3B77"/>
</linearGradient>
<linearGradient id="paint2_linear_602_1771" x1="27.5469" y1="24.376" x2="51.8168" y2="40.8772" gradientUnits="userSpaceOnUse">
<stop stop-color="#315AA9"/>
<stop offset="0.5" stop-color="#518AC8"/>
<stop offset="1" stop-color="#315AA9"/>
</linearGradient>
<linearGradient id="paint3_linear_602_1771" x1="38.4963" y1="26.3614" x2="28.7035" y2="62.2746" gradientUnits="userSpaceOnUse">
<stop stop-color="#4377BB"/>
<stop offset="0.5" stop-color="#1A336B"/>
<stop offset="1" stop-color="#1A336B"/>
</linearGradient>
<clipPath id="clip0_602_1771">
<rect width="32" height="29.9373" fill="white" transform="translate(24 12)"/>
</clipPath>
</defs>
</svg>
