<svg width="80" height="80" viewBox="0 0 80 80" fill="none" xmlns="http://www.w3.org/2000/svg">
<g filter="url(#filter0_d_603_787)">
<rect x="8" y="6" width="64" height="64" rx="5" fill="#212529"/>
<path d="M47.1919 14.2419H29.6229C29.0556 14.2435 28.5119 14.4696 28.1108 14.8708C27.7096 15.2719 27.4835 15.8156 27.4819 16.3829V35.7589C27.4835 36.3263 27.7096 36.8699 28.1108 37.2711C28.5119 37.6723 29.0556 37.8984 29.6229 37.8999H41.1949C41.0629 32.1419 43.0299 20.9679 47.1919 14.2419Z" fill="#0F80CC"/>
<path d="M46.5539 14.8669H29.6229C29.221 14.8675 28.8357 15.0274 28.5515 15.3116C28.2674 15.5957 28.1075 15.981 28.1069 16.3829V34.3449C32.4506 32.7067 37.0357 31.7997 41.6759 31.6609C42.9032 25.9548 44.5333 20.3427 46.5539 14.8669Z" fill="url(#paint0_linear_603_787)"/>
<path d="M51.29 13.608C50.09 12.535 48.63 12.966 47.19 14.242C46.977 14.432 46.764 14.642 46.552 14.867C43.8431 18.0708 41.97 21.8957 41.1 26C41.3686 26.5859 41.5809 27.1959 41.734 27.822C41.77 27.962 41.803 28.094 41.834 28.206C41.896 28.471 41.934 28.643 41.934 28.643C41.934 28.643 41.912 28.56 41.821 28.297L41.762 28.127C41.752 28.1 41.739 28.068 41.724 28.033C41.564 27.66 41.124 26.873 40.924 26.533C40.757 27.026 40.609 27.487 40.486 27.904C40.9012 28.797 41.2061 29.7373 41.394 30.704C41.394 30.704 41.364 30.589 41.223 30.189C40.9521 29.6048 40.6517 29.0347 40.323 28.481C40.1105 29.0295 40.0204 29.6179 40.059 30.205C40.2793 30.6441 40.4448 31.1086 40.552 31.588C40.886 32.871 41.118 34.434 41.118 34.434C41.118 34.434 41.126 34.534 41.138 34.697C41.0941 35.7656 41.1158 36.836 41.203 37.902C41.2526 38.9574 41.4492 40.0008 41.787 41.002L41.967 40.902C41.548 39.3973 41.3864 37.8326 41.489 36.274C41.6773 32.9697 42.3297 29.7084 43.427 26.586C45.437 21.278 48.227 17.018 50.777 14.986C48.451 17.086 45.303 23.886 44.36 26.404C43.367 28.9966 42.6126 31.6743 42.106 34.404C42.7089 32.8806 43.8892 31.6571 45.39 31C45.39 31 46.623 29.479 48.064 27.307C47.1331 27.5011 46.2134 27.7458 45.309 28.04C44.609 28.334 44.42 28.434 44.42 28.434C45.7563 27.6293 47.168 26.9571 48.635 26.427C51.311 22.212 54.227 16.227 51.291 13.603" fill="#003B57"/>
<path d="M26.3894 61.1024C25.7068 61.1024 25.1402 61.0068 24.6896 60.8157C24.239 60.6177 23.8977 60.3617 23.6656 60.0477C23.4335 59.7337 23.3106 59.3991 23.297 59.0442C23.297 58.9895 23.3174 58.9418 23.3584 58.9008C23.4062 58.853 23.4608 58.8291 23.5222 58.8291H24.8125C24.9081 58.8291 24.9797 58.8462 25.0275 58.8803C25.0821 58.9145 25.1299 58.9588 25.1709 59.0134C25.2255 59.1158 25.3006 59.2148 25.3962 59.3104C25.4986 59.406 25.6283 59.4845 25.7853 59.5459C25.9491 59.6005 26.1505 59.6278 26.3894 59.6278C26.7854 59.6278 27.0823 59.5664 27.2803 59.4435C27.4851 59.3206 27.5875 59.1534 27.5875 58.9418C27.5875 58.7916 27.5329 58.6687 27.4237 58.5731C27.3145 58.4707 27.137 58.382 26.8912 58.3069C26.6523 58.225 26.3314 58.143 25.9286 58.0611C25.4098 57.9519 24.9661 57.8119 24.5974 57.6413C24.2356 57.4638 23.9591 57.2351 23.768 56.9552C23.5769 56.6685 23.4813 56.3135 23.4813 55.8902C23.4813 55.4738 23.5973 55.1018 23.8294 54.7741C24.0684 54.4464 24.3995 54.1904 24.8227 54.0061C25.246 53.8218 25.7477 53.7296 26.328 53.7296C26.799 53.7296 27.2121 53.791 27.567 53.9139C27.9289 54.0368 28.2326 54.2006 28.4784 54.4054C28.7242 54.6102 28.9085 54.8287 29.0314 55.0608C29.1611 55.2861 29.2293 55.5079 29.2362 55.7264C29.2362 55.781 29.2157 55.8322 29.1747 55.88C29.1338 55.921 29.0826 55.9414 29.0211 55.9414H27.6694C27.5943 55.9414 27.5295 55.9278 27.4749 55.9005C27.4203 55.8732 27.3725 55.8288 27.3315 55.7674C27.2906 55.6172 27.1813 55.4875 27.0038 55.3782C26.8332 55.2622 26.6079 55.2042 26.328 55.2042C26.0276 55.2042 25.7921 55.2588 25.6214 55.368C25.4576 55.4704 25.3757 55.6308 25.3757 55.8493C25.3757 55.9858 25.4201 56.1053 25.5088 56.2077C25.6044 56.3101 25.758 56.3988 25.9696 56.4739C26.1881 56.549 26.485 56.6275 26.8605 56.7094C27.4817 56.8255 27.9835 56.9723 28.3658 57.1498C28.7481 57.3204 29.0279 57.5457 29.2054 57.8256C29.3829 58.0987 29.4717 58.4434 29.4717 58.8598C29.4717 59.3241 29.3386 59.7268 29.0723 60.0682C28.8129 60.4027 28.4511 60.6587 27.9869 60.8362C27.5227 61.0137 26.9902 61.1024 26.3894 61.1024ZM35.0638 61.6656C34.9546 61.6656 34.8693 61.6349 34.8078 61.5734C34.7532 61.5188 34.7089 61.471 34.6747 61.4301L34.3266 60.9693C34.0603 61.058 33.7565 61.1024 33.4152 61.1024C32.7871 61.1024 32.241 61 31.7768 60.7952C31.3194 60.5904 30.9576 60.2832 30.6914 59.8736C30.4319 59.4572 30.292 58.9383 30.2715 58.3171C30.2647 58.0236 30.2613 57.73 30.2613 57.4365C30.2613 57.1429 30.2647 56.846 30.2715 56.5456C30.292 55.9312 30.4354 55.4158 30.7016 54.9994C30.9678 54.5761 31.3331 54.2587 31.7973 54.047C32.2615 53.8354 32.8008 53.7296 33.4152 53.7296C34.0364 53.7296 34.5791 53.8354 35.0434 54.047C35.5076 54.2587 35.8728 54.5761 36.139 54.9994C36.4053 55.4158 36.5486 55.9312 36.5691 56.5456C36.5828 56.846 36.5896 57.1429 36.5896 57.4365C36.5896 57.73 36.5828 58.0236 36.5691 58.3171C36.5282 59.1636 36.2824 59.819 35.8318 60.2832L36.5794 61.3482C36.5862 61.355 36.593 61.3686 36.5998 61.3891C36.6067 61.4096 36.6101 61.4301 36.6101 61.4506C36.6169 61.5052 36.5998 61.553 36.5589 61.5939C36.5179 61.6417 36.4667 61.6656 36.4053 61.6656H35.0638ZM33.4152 59.6278C33.777 59.6278 34.0706 59.5186 34.2958 59.3002C34.5279 59.0817 34.6508 58.7335 34.6645 58.2557C34.6781 57.9553 34.685 57.672 34.685 57.4058C34.685 57.1395 34.6781 56.863 34.6645 56.5763C34.6577 56.2555 34.5996 55.9961 34.4904 55.7981C34.3812 55.5933 34.2344 55.4431 34.0501 55.3475C33.8658 55.2519 33.6541 55.2042 33.4152 55.2042C33.1831 55.2042 32.9749 55.2519 32.7906 55.3475C32.6062 55.4431 32.4595 55.5933 32.3502 55.7981C32.241 55.9961 32.183 56.2555 32.1762 56.5763C32.1693 56.863 32.1659 57.1395 32.1659 57.4058C32.1659 57.672 32.1693 57.9553 32.1762 58.2557C32.1898 58.7335 32.3093 59.0817 32.5346 59.3002C32.7667 59.5186 33.0602 59.6278 33.4152 59.6278ZM38.0428 61C37.9677 61 37.9063 60.9761 37.8585 60.9283C37.8107 60.8805 37.7868 60.8191 37.7868 60.744V54.088C37.7868 54.0129 37.8107 53.9515 37.8585 53.9037C37.9063 53.8559 37.9677 53.832 38.0428 53.832H39.3945C39.4627 53.832 39.5208 53.8559 39.5686 53.9037C39.6232 53.9515 39.6505 54.0129 39.6505 54.088V59.4538H42.743C42.8181 59.4538 42.8795 59.4811 42.9273 59.5357C42.9819 59.5835 43.0092 59.6449 43.0092 59.72V60.744C43.0092 60.8191 42.9819 60.8805 42.9273 60.9283C42.8795 60.9761 42.8181 61 42.743 61H38.0428ZM44.0402 61C43.9651 61 43.9036 60.9761 43.8558 60.9283C43.8081 60.8805 43.7842 60.8191 43.7842 60.744V55.9312C43.7842 55.8561 43.8081 55.7947 43.8558 55.7469C43.9036 55.6991 43.9651 55.6752 44.0402 55.6752H45.2485C45.3167 55.6752 45.3748 55.6991 45.4226 55.7469C45.4772 55.7947 45.5045 55.8561 45.5045 55.9312V60.744C45.5045 60.8191 45.4772 60.8805 45.4226 60.9283C45.3748 60.9761 45.3167 61 45.2485 61H44.0402ZM44.0299 54.9072C43.9548 54.9072 43.8934 54.8833 43.8456 54.8355C43.7978 54.7877 43.7739 54.7263 43.7739 54.6512V53.7398C43.7739 53.6647 43.7978 53.6033 43.8456 53.5555C43.8934 53.5009 43.9548 53.4736 44.0299 53.4736H45.2485C45.3236 53.4736 45.385 53.5009 45.4328 53.5555C45.4874 53.6033 45.5147 53.6647 45.5147 53.7398V54.6512C45.5147 54.7263 45.4874 54.7877 45.4328 54.8355C45.385 54.8833 45.3236 54.9072 45.2485 54.9072H44.0299ZM49.428 61C48.9911 61 48.6122 60.9317 48.2914 60.7952C47.9773 60.6518 47.735 60.4334 47.5643 60.1398C47.3937 59.8395 47.3083 59.4538 47.3083 58.9827V57.0166H46.5096C46.4345 57.0166 46.3697 56.9927 46.315 56.945C46.2673 56.8972 46.2434 56.8357 46.2434 56.7606V55.9312C46.2434 55.8561 46.2673 55.7947 46.315 55.7469C46.3697 55.6991 46.4345 55.6752 46.5096 55.6752H47.3083V53.9856C47.3083 53.9105 47.3322 53.8491 47.38 53.8013C47.4346 53.7535 47.4961 53.7296 47.5643 53.7296H48.7522C48.8273 53.7296 48.8887 53.7535 48.9365 53.8013C48.9843 53.8491 49.0082 53.9105 49.0082 53.9856V55.6752H50.2882C50.3633 55.6752 50.4247 55.6991 50.4725 55.7469C50.5203 55.7947 50.5442 55.8561 50.5442 55.9312V56.7606C50.5442 56.8357 50.5203 56.8972 50.4725 56.945C50.4247 56.9927 50.3633 57.0166 50.2882 57.0166H49.0082V58.8394C49.0082 59.0715 49.0525 59.2558 49.1413 59.3923C49.23 59.5289 49.3802 59.5971 49.5918 59.5971H50.3803C50.4554 59.5971 50.5169 59.621 50.5646 59.6688C50.6124 59.7166 50.6363 59.778 50.6363 59.8531V60.744C50.6363 60.8191 50.6124 60.8805 50.5646 60.9283C50.5169 60.9761 50.4554 61 50.3803 61H49.428ZM53.9418 61.1024C53.1362 61.1024 52.4945 60.8839 52.0166 60.447C51.5388 60.0101 51.2896 59.3616 51.2691 58.5014C51.2691 58.4537 51.2691 58.3922 51.2691 58.3171C51.2691 58.242 51.2691 58.184 51.2691 58.143C51.2896 57.6037 51.4091 57.1429 51.6275 56.7606C51.8528 56.3715 52.16 56.078 52.5491 55.88C52.9451 55.6752 53.4059 55.5728 53.9315 55.5728C54.5323 55.5728 55.0272 55.6923 55.4163 55.9312C55.8123 56.1701 56.1092 56.4944 56.3072 56.904C56.5052 57.3136 56.6042 57.7812 56.6042 58.3069V58.5526C56.6042 58.6277 56.5769 58.6892 56.5222 58.737C56.4745 58.7847 56.4164 58.8086 56.3482 58.8086H53.0714C53.0714 58.8155 53.0714 58.8257 53.0714 58.8394C53.0714 58.853 53.0714 58.8667 53.0714 58.8803C53.0782 59.0783 53.1123 59.2592 53.1738 59.423C53.2352 59.5869 53.3308 59.7166 53.4605 59.8122C53.5902 59.9077 53.7472 59.9555 53.9315 59.9555C54.0681 59.9555 54.1807 59.935 54.2694 59.8941C54.365 59.8463 54.4435 59.7951 54.505 59.7405C54.5664 59.679 54.6142 59.6278 54.6483 59.5869C54.7098 59.5186 54.7575 59.4777 54.7917 59.464C54.8326 59.4435 54.8941 59.4333 54.976 59.4333H56.2458C56.314 59.4333 56.3686 59.4538 56.4096 59.4947C56.4574 59.5289 56.4779 59.5801 56.471 59.6483C56.4642 59.7644 56.4062 59.9043 56.297 60.0682C56.1877 60.232 56.0273 60.3958 55.8157 60.5597C55.6109 60.7167 55.3515 60.8464 55.0374 60.9488C54.7234 61.0512 54.3582 61.1024 53.9418 61.1024ZM53.0714 57.7949H54.8019V57.7744C54.8019 57.5559 54.7678 57.3648 54.6995 57.201C54.6381 57.0371 54.5391 56.9108 54.4026 56.8221C54.2729 56.7333 54.1158 56.689 53.9315 56.689C53.7472 56.689 53.5902 56.7333 53.4605 56.8221C53.3376 56.9108 53.242 57.0371 53.1738 57.201C53.1055 57.3648 53.0714 57.5559 53.0714 57.7744V57.7949Z" fill="#E5E5E5"/>
</g>
<defs>
<filter id="filter0_d_603_787" x="0" y="0" width="80" height="80" filterUnits="userSpaceOnUse" color-interpolation-filters="sRGB">
<feFlood flood-opacity="0" result="BackgroundImageFix"/>
<feColorMatrix in="SourceAlpha" type="matrix" values="0 0 0 0 0 0 0 0 0 0 0 0 0 0 0 0 0 0 127 0" result="hardAlpha"/>
<feOffset dy="2"/>
<feGaussianBlur stdDeviation="4"/>
<feColorMatrix type="matrix" values="0 0 0 0 0 0 0 0 0 0 0 0 0 0 0 0 0 0 0.75 0"/>
<feBlend mode="normal" in2="BackgroundImageFix" result="effect1_dropShadow_603_787"/>
<feBlend mode="normal" in="SourceGraphic" in2="effect1_dropShadow_603_787" result="shape"/>
</filter>
<linearGradient id="paint0_linear_603_787" x1="37.309" y1="15.3064" x2="37.309" y2="33.305" gradientUnits="userSpaceOnUse">
<stop stop-color="#97D9F6"/>
<stop offset="0.92" stop-color="#0F80CC"/>
<stop offset="1" stop-color="#0F80CC"/>
</linearGradient>
</defs>
</svg>
