<svg width="80" height="80" viewBox="0 0 80 80" fill="none" xmlns="http://www.w3.org/2000/svg">
<g filter="url(#filter0_d_602_707)">
<rect x="8" y="6" width="64" height="64" rx="5" fill="#212529"/>
<g clip-path="url(#clip0_602_707)">
<path d="M40.2176 42.1435C43.7176 29.6299 43.616 29.5731 46.1456 20.6507L46.7536 21.0027C47.0848 21.1923 47.3552 21.0363 47.3552 20.6555V16.3995C48.0272 14.0491 48.552 12.2315 48.7072 11.6875H51.4472L56 15.9035L53.0096 18.4875L55.2712 20.9331L40.368 42.1435C40.296 42.2635 40.1944 42.2363 40.2176 42.1435ZM41.8456 15.1707C41.9816 15.1707 42.0904 15.2451 42.0904 15.3387V17.5187C42.0904 17.6099 41.9808 17.6843 41.8456 17.6843H38.1656C38.0296 17.6843 37.92 17.6099 37.92 17.5179V15.3371C37.92 15.2451 38.0296 15.1691 38.1648 15.1691H41.8448L41.8456 15.1707ZM46.3896 12.7563L42.34 15.0939C42.3864 15.1659 42.4152 15.2483 42.4152 15.3379V17.5195C42.4152 17.6315 42.3704 17.7339 42.2984 17.8155L46.3888 20.1771C46.6672 20.3387 46.896 20.2067 46.896 19.8851V13.0491C46.896 12.7267 46.6688 12.5955 46.3896 12.7563ZM37.5944 17.5195V15.3371C37.5944 15.2475 37.6232 15.1651 37.6696 15.0939L33.62 12.7547C33.3416 12.5947 33.1128 12.7259 33.1128 13.0475V19.8835C33.1128 20.2051 33.3416 20.3371 33.6208 20.1755L37.7104 17.8139C37.6384 17.7315 37.5952 17.6299 37.5952 17.5179L37.5944 17.5195ZM39.632 42.1435H39.7824C36.2832 29.6299 36.384 29.5731 33.8544 20.6507L33.2464 21.0027C32.916 21.1923 32.6448 21.0363 32.6448 20.6555V16.3995C31.9728 14.0499 31.448 12.2315 31.2928 11.6875H28.5536L24 15.9035L26.9896 18.4875L24.728 20.9339L39.632 42.1435ZM39.8888 22.2387C40.4994 22.2387 40.9944 21.7437 40.9944 21.1331C40.9944 20.5225 40.4994 20.0275 39.8888 20.0275C39.2782 20.0275 38.7832 20.5225 38.7832 21.1331C38.7832 21.7437 39.2782 22.2387 39.8888 22.2387ZM39.8888 28.8107C40.4994 28.8107 40.9944 28.3157 40.9944 27.7051C40.9944 27.0945 40.4994 26.5995 39.8888 26.5995C39.2782 26.5995 38.7832 27.0945 38.7832 27.7051C38.7832 28.3157 39.2782 28.8107 39.8888 28.8107ZM39.8888 35.3843C40.4994 35.3843 40.9944 34.8893 40.9944 34.2787C40.9944 33.6681 40.4994 33.1731 39.8888 33.1731C39.2782 33.1731 38.7832 33.6681 38.7832 34.2787C38.7832 34.8893 39.2782 35.3843 39.8888 35.3843Z" fill="white"/>
</g>
<path d="M20.8894 61.1024C20.2068 61.1024 19.6402 61.0068 19.1896 60.8157C18.739 60.6177 18.3977 60.3617 18.1656 60.0477C17.9335 59.7337 17.8106 59.3991 17.797 59.0442C17.797 58.9895 17.8174 58.9418 17.8584 58.9008C17.9062 58.853 17.9608 58.8291 18.0222 58.8291H19.3125C19.4081 58.8291 19.4797 58.8462 19.5275 58.8803C19.5821 58.9145 19.6299 58.9588 19.6709 59.0134C19.7255 59.1158 19.8006 59.2148 19.8962 59.3104C19.9986 59.406 20.1283 59.4845 20.2853 59.5459C20.4491 59.6005 20.6505 59.6278 20.8894 59.6278C21.2854 59.6278 21.5823 59.5664 21.7803 59.4435C21.9851 59.3206 22.0875 59.1534 22.0875 58.9418C22.0875 58.7916 22.0329 58.6687 21.9237 58.5731C21.8145 58.4707 21.637 58.382 21.3912 58.3069C21.1523 58.225 20.8314 58.143 20.4286 58.0611C19.9098 57.9519 19.4661 57.8119 19.0974 57.6413C18.7356 57.4638 18.4591 57.2351 18.268 56.9552C18.0769 56.6685 17.9813 56.3135 17.9813 55.8902C17.9813 55.4738 18.0973 55.1018 18.3294 54.7741C18.5684 54.4464 18.8995 54.1904 19.3227 54.0061C19.746 53.8218 20.2477 53.7296 20.828 53.7296C21.299 53.7296 21.7121 53.791 22.067 53.9139C22.4289 54.0368 22.7326 54.2006 22.9784 54.4054C23.2242 54.6102 23.4085 54.8287 23.5314 55.0608C23.6611 55.2861 23.7293 55.5079 23.7362 55.7264C23.7362 55.781 23.7157 55.8322 23.6747 55.88C23.6338 55.921 23.5826 55.9414 23.5211 55.9414H22.1694C22.0943 55.9414 22.0295 55.9278 21.9749 55.9005C21.9203 55.8732 21.8725 55.8288 21.8315 55.7674C21.7906 55.6172 21.6813 55.4875 21.5038 55.3782C21.3332 55.2622 21.1079 55.2042 20.828 55.2042C20.5276 55.2042 20.2921 55.2588 20.1214 55.368C19.9576 55.4704 19.8757 55.6308 19.8757 55.8493C19.8757 55.9858 19.9201 56.1053 20.0088 56.2077C20.1044 56.3101 20.258 56.3988 20.4696 56.4739C20.6881 56.549 20.985 56.6275 21.3605 56.7094C21.9817 56.8255 22.4835 56.9723 22.8658 57.1498C23.2481 57.3204 23.5279 57.5457 23.7054 57.8256C23.8829 58.0987 23.9717 58.4434 23.9717 58.8598C23.9717 59.3241 23.8386 59.7268 23.5723 60.0682C23.3129 60.4027 22.9511 60.6587 22.4869 60.8362C22.0227 61.0137 21.4902 61.1024 20.8894 61.1024ZM27.608 61C27.1711 61 26.7922 60.9317 26.4714 60.7952C26.1573 60.6518 25.915 60.4334 25.7443 60.1398C25.5737 59.8395 25.4883 59.4538 25.4883 58.9827V57.0166H24.6896C24.6145 57.0166 24.5497 56.9927 24.495 56.945C24.4473 56.8972 24.4234 56.8357 24.4234 56.7606V55.9312C24.4234 55.8561 24.4473 55.7947 24.495 55.7469C24.5497 55.6991 24.6145 55.6752 24.6896 55.6752H25.4883V53.9856C25.4883 53.9105 25.5122 53.8491 25.56 53.8013C25.6146 53.7535 25.6761 53.7296 25.7443 53.7296H26.9322C27.0073 53.7296 27.0687 53.7535 27.1165 53.8013C27.1643 53.8491 27.1882 53.9105 27.1882 53.9856V55.6752H28.4682C28.5433 55.6752 28.6047 55.6991 28.6525 55.7469C28.7003 55.7947 28.7242 55.8561 28.7242 55.9312V56.7606C28.7242 56.8357 28.7003 56.8972 28.6525 56.945C28.6047 56.9927 28.5433 57.0166 28.4682 57.0166H27.1882V58.8394C27.1882 59.0715 27.2325 59.2558 27.3213 59.3923C27.41 59.5289 27.5602 59.5971 27.7718 59.5971H28.5603C28.6354 59.5971 28.6969 59.621 28.7446 59.6688C28.7924 59.7166 28.8163 59.778 28.8163 59.8531V60.744C28.8163 60.8191 28.7924 60.8805 28.7446 60.9283C28.6969 60.9761 28.6354 61 28.5603 61H27.608ZM30.6574 62.9456C30.596 62.9456 30.5448 62.9251 30.5038 62.8842C30.4629 62.8432 30.4424 62.792 30.4424 62.7306C30.4424 62.7169 30.4424 62.6964 30.4424 62.6691C30.4492 62.6486 30.4595 62.6247 30.4731 62.5974L31.2718 60.6723L29.3058 56.0234C29.2853 55.9756 29.275 55.9346 29.275 55.9005C29.2887 55.839 29.316 55.7878 29.357 55.7469C29.3979 55.6991 29.4491 55.6752 29.5106 55.6752H30.6779C30.7667 55.6752 30.8315 55.6991 30.8725 55.7469C30.9203 55.7878 30.951 55.8356 30.9646 55.8902L32.1422 58.8701L33.3403 55.8902C33.3676 55.8356 33.4018 55.7878 33.4427 55.7469C33.4905 55.6991 33.5588 55.6752 33.6475 55.6752H34.7944C34.8558 55.6752 34.907 55.6991 34.948 55.7469C34.9958 55.7878 35.0197 55.8356 35.0197 55.8902C35.0197 55.9244 35.0094 55.9687 34.989 56.0234L32.091 62.7306C32.0706 62.7852 32.0364 62.833 31.9886 62.8739C31.9409 62.9217 31.8726 62.9456 31.7838 62.9456H30.6574ZM36.0302 61C35.9551 61 35.8936 60.9761 35.8458 60.9283C35.7981 60.8805 35.7742 60.8191 35.7742 60.744V53.9856C35.7742 53.9105 35.7981 53.8491 35.8458 53.8013C35.8936 53.7535 35.9551 53.7296 36.0302 53.7296H37.2385C37.3136 53.7296 37.375 53.7535 37.4228 53.8013C37.4706 53.8491 37.4945 53.9105 37.4945 53.9856V60.744C37.4945 60.8191 37.4706 60.8805 37.4228 60.9283C37.375 60.9761 37.3136 61 37.2385 61H36.0302ZM41.1618 61.1024C40.3562 61.1024 39.7145 60.8839 39.2366 60.447C38.7588 60.0101 38.5096 59.3616 38.4891 58.5014C38.4891 58.4537 38.4891 58.3922 38.4891 58.3171C38.4891 58.242 38.4891 58.184 38.4891 58.143C38.5096 57.6037 38.6291 57.1429 38.8475 56.7606C39.0728 56.3715 39.38 56.078 39.7691 55.88C40.1651 55.6752 40.6259 55.5728 41.1515 55.5728C41.7523 55.5728 42.2472 55.6923 42.6363 55.9312C43.0323 56.1701 43.3292 56.4944 43.5272 56.904C43.7252 57.3136 43.8242 57.7812 43.8242 58.3069V58.5526C43.8242 58.6277 43.7969 58.6892 43.7422 58.737C43.6945 58.7847 43.6364 58.8086 43.5682 58.8086H40.2914C40.2914 58.8155 40.2914 58.8257 40.2914 58.8394C40.2914 58.853 40.2914 58.8667 40.2914 58.8803C40.2982 59.0783 40.3323 59.2592 40.3938 59.423C40.4552 59.5869 40.5508 59.7166 40.6805 59.8122C40.8102 59.9077 40.9672 59.9555 41.1515 59.9555C41.2881 59.9555 41.4007 59.935 41.4894 59.8941C41.585 59.8463 41.6635 59.7951 41.725 59.7405C41.7864 59.679 41.8342 59.6278 41.8683 59.5869C41.9298 59.5186 41.9775 59.4777 42.0117 59.464C42.0526 59.4435 42.1141 59.4333 42.196 59.4333H43.4658C43.534 59.4333 43.5886 59.4538 43.6296 59.4947C43.6774 59.5289 43.6979 59.5801 43.691 59.6483C43.6842 59.7644 43.6262 59.9043 43.517 60.0682C43.4077 60.232 43.2473 60.3958 43.0357 60.5597C42.8309 60.7167 42.5715 60.8464 42.2574 60.9488C41.9434 61.0512 41.5782 61.1024 41.1618 61.1024ZM40.2914 57.7949H42.0219V57.7744C42.0219 57.5559 41.9878 57.3648 41.9195 57.201C41.8581 57.0371 41.7591 56.9108 41.6226 56.8221C41.4929 56.7333 41.3358 56.689 41.1515 56.689C40.9672 56.689 40.8102 56.7333 40.6805 56.8221C40.5576 56.9108 40.462 57.0371 40.3938 57.201C40.3255 57.3648 40.2914 57.5559 40.2914 57.7744V57.7949ZM45.0402 61C44.9651 61 44.9036 60.9761 44.8558 60.9283C44.8081 60.8805 44.7842 60.8191 44.7842 60.744V53.9856C44.7842 53.9105 44.8081 53.8491 44.8558 53.8013C44.9036 53.7535 44.9651 53.7296 45.0402 53.7296H46.2485C46.3236 53.7296 46.385 53.7535 46.4328 53.8013C46.4806 53.8491 46.5045 53.9105 46.5045 53.9856V60.744C46.5045 60.8191 46.4806 60.8805 46.4328 60.9283C46.385 60.9761 46.3236 61 46.2485 61H45.0402ZM48.3202 61C48.2451 61 48.1836 60.9761 48.1358 60.9283C48.0881 60.8805 48.0642 60.8191 48.0642 60.744V55.9312C48.0642 55.8561 48.0881 55.7947 48.1358 55.7469C48.1836 55.6991 48.2451 55.6752 48.3202 55.6752H49.5285C49.5967 55.6752 49.6548 55.6991 49.7026 55.7469C49.7572 55.7947 49.7845 55.8561 49.7845 55.9312V60.744C49.7845 60.8191 49.7572 60.8805 49.7026 60.9283C49.6548 60.9761 49.5967 61 49.5285 61H48.3202ZM48.3099 54.9072C48.2348 54.9072 48.1734 54.8833 48.1256 54.8355C48.0778 54.7877 48.0539 54.7263 48.0539 54.6512V53.7398C48.0539 53.6647 48.0778 53.6033 48.1256 53.5555C48.1734 53.5009 48.2348 53.4736 48.3099 53.4736H49.5285C49.6036 53.4736 49.665 53.5009 49.7128 53.5555C49.7674 53.6033 49.7947 53.6647 49.7947 53.7398V54.6512C49.7947 54.7263 49.7674 54.7877 49.7128 54.8355C49.665 54.8833 49.6036 54.9072 49.5285 54.9072H48.3099ZM51.5602 61C51.4851 61 51.4236 60.9761 51.3758 60.9283C51.3281 60.8805 51.3042 60.8191 51.3042 60.744V55.9312C51.3042 55.8561 51.3281 55.7947 51.3758 55.7469C51.4236 55.6991 51.4851 55.6752 51.5602 55.6752H52.7378C52.8129 55.6752 52.8743 55.6991 52.9221 55.7469C52.9699 55.7947 52.9938 55.8561 52.9938 55.9312V56.3203C53.1713 56.1087 53.4034 55.9312 53.6901 55.7878C53.9768 55.6445 54.3147 55.5728 54.7038 55.5728C55.0998 55.5728 55.4479 55.6615 55.7483 55.839C56.0555 56.0165 56.2945 56.2794 56.4651 56.6275C56.6426 56.9689 56.7314 57.3887 56.7314 57.887V60.744C56.7314 60.8191 56.7041 60.8805 56.6494 60.9283C56.6017 60.9761 56.5436 61 56.4754 61H55.1851C55.1169 61 55.0554 60.9761 55.0008 60.9283C54.953 60.8805 54.9291 60.8191 54.9291 60.744V57.9485C54.9291 57.6276 54.8506 57.3819 54.6936 57.2112C54.5434 57.0337 54.3181 56.945 54.0178 56.945C53.7379 56.945 53.5126 57.0337 53.3419 57.2112C53.1781 57.3819 53.0962 57.6276 53.0962 57.9485V60.744C53.0962 60.8191 53.0689 60.8805 53.0142 60.9283C52.9665 60.9761 52.9084 61 52.8402 61H51.5602ZM60.548 61C60.1111 61 59.7322 60.9317 59.4114 60.7952C59.0973 60.6518 58.855 60.4334 58.6843 60.1398C58.5137 59.8395 58.4283 59.4538 58.4283 58.9827V57.0166H57.6296C57.5545 57.0166 57.4897 56.9927 57.435 56.945C57.3873 56.8972 57.3634 56.8357 57.3634 56.7606V55.9312C57.3634 55.8561 57.3873 55.7947 57.435 55.7469C57.4897 55.6991 57.5545 55.6752 57.6296 55.6752H58.4283V53.9856C58.4283 53.9105 58.4522 53.8491 58.5 53.8013C58.5546 53.7535 58.6161 53.7296 58.6843 53.7296H59.8722C59.9473 53.7296 60.0087 53.7535 60.0565 53.8013C60.1043 53.8491 60.1282 53.9105 60.1282 53.9856V55.6752H61.4082C61.4833 55.6752 61.5447 55.6991 61.5925 55.7469C61.6403 55.7947 61.6642 55.8561 61.6642 55.9312V56.7606C61.6642 56.8357 61.6403 56.8972 61.5925 56.945C61.5447 56.9927 61.4833 57.0166 61.4082 57.0166H60.1282V58.8394C60.1282 59.0715 60.1725 59.2558 60.2613 59.3923C60.35 59.5289 60.5002 59.5971 60.7118 59.5971H61.5003C61.5754 59.5971 61.6369 59.621 61.6846 59.6688C61.7324 59.7166 61.7563 59.778 61.7563 59.8531V60.744C61.7563 60.8191 61.7324 60.8805 61.6846 60.9283C61.6369 60.9761 61.5754 61 61.5003 61H60.548Z" fill="#E5E5E5"/>
</g>
<defs>
<filter id="filter0_d_602_707" x="0" y="0" width="80" height="80" filterUnits="userSpaceOnUse" color-interpolation-filters="sRGB">
<feFlood flood-opacity="0" result="BackgroundImageFix"/>
<feColorMatrix in="SourceAlpha" type="matrix" values="0 0 0 0 0 0 0 0 0 0 0 0 0 0 0 0 0 0 127 0" result="hardAlpha"/>
<feOffset dy="2"/>
<feGaussianBlur stdDeviation="4"/>
<feColorMatrix type="matrix" values="0 0 0 0 0 0 0 0 0 0 0 0 0 0 0 0 0 0 0.75 0"/>
<feBlend mode="normal" in2="BackgroundImageFix" result="effect1_dropShadow_602_707"/>
<feBlend mode="normal" in="SourceGraphic" in2="effect1_dropShadow_602_707" result="shape"/>
</filter>
<clipPath id="clip0_602_707">
<rect width="32" height="32" fill="white" transform="translate(24 11)"/>
</clipPath>
</defs>
</svg>
