<svg width="80" height="80" viewBox="0 0 80 80" fill="none" xmlns="http://www.w3.org/2000/svg">
<g filter="url(#filter0_d_602_985)">
<rect x="8" y="6" width="64" height="64" rx="5" fill="#212529"/>
<path d="M37.7443 13.447C37.5334 14.2598 37.374 15.0521 37.2384 15.8534C36.1099 16.1155 35.0269 16.5448 34.0252 17.127C33.3779 16.6694 32.7184 16.2265 32.0195 15.8201L28.8214 18.9971C29.2039 19.6467 29.6139 20.2797 30.0502 20.8944C29.376 21.9352 28.8718 23.0768 28.5564 24.2761C27.8518 24.4025 27.1532 24.5472 26.4486 24.7337V29.248C27.1049 29.4227 27.7555 29.5584 28.4118 29.6755C28.6813 30.9758 29.1712 32.2204 29.8604 33.3555C29.4919 33.8834 29.1463 34.427 28.8246 34.9846L32.0198 38.1798C32.5616 37.8669 33.0768 37.5296 33.5795 37.183C34.7342 37.9265 36.0119 38.4589 37.3529 38.7552C37.4611 39.3593 37.5927 39.959 37.7475 40.5529H42.2828C42.4425 39.9385 42.5721 39.3241 42.6864 38.7129C43.9896 38.3952 45.2283 37.8552 46.3481 37.1168C46.8902 37.4841 47.4323 37.8397 47.9923 38.1737L51.1846 34.9757C50.8296 34.3757 50.4509 33.79 50.0492 33.2201C50.6889 32.1268 51.1466 30.9368 51.4044 29.6966C52.1212 29.5641 52.8348 29.4224 53.5516 29.2326V24.7305C52.7958 24.5289 52.0396 24.3753 51.2659 24.2457C50.9648 23.1081 50.4948 22.022 49.8716 21.0237C50.3427 20.3669 50.7847 19.6897 51.1964 18.9942L47.9923 15.8051C47.2665 16.2326 46.5769 16.6934 45.9027 17.175C44.9306 16.5943 43.8782 16.16 42.7795 15.8864C42.6441 15.0733 42.4816 14.2601 42.2646 13.447H37.7443ZM39.8883 18.7411C39.8964 18.7411 39.9045 18.7411 39.9126 18.7411C40.9102 18.7396 41.9001 18.915 42.8364 19.2592C43.0505 19.3373 43.2582 19.4217 43.4659 19.5299C45.2579 20.3553 46.7106 21.773 47.5795 23.5443C47.6608 23.7101 47.7363 23.8787 47.8086 24.0473C48.6025 25.9782 48.6592 28.1334 47.968 30.1033C47.935 30.1997 47.9017 30.2931 47.8656 30.3744C47.0461 32.4595 45.4446 34.142 43.4025 35.0633L43.3456 35.1024C42.2884 35.5655 41.1484 35.8099 39.9943 35.8208C38.8402 35.8317 37.6958 35.6089 36.63 35.1657C36.6311 35.1608 36.6311 35.1557 36.63 35.1507C35.5726 34.7051 34.6152 34.052 33.8145 33.2301C33.0137 32.4082 32.3858 31.4341 31.968 30.3654L31.9257 30.2509C31.1565 28.1848 31.217 25.9012 32.0944 23.8787C32.1424 23.7645 32.1936 23.6499 32.2512 23.5385C33.1518 21.6997 34.6785 20.2423 36.5571 19.4278C36.7441 19.3476 36.934 19.2743 37.1264 19.208C38.0149 18.9014 38.9483 18.7437 39.8883 18.7411ZM42.6678 20.8128C42.4785 20.8104 42.2915 20.8537 42.1225 20.939C41.9535 21.0243 41.8076 21.149 41.697 21.3027C41.5865 21.4564 41.5147 21.6344 41.4876 21.8217C41.4605 22.0091 41.4789 22.2002 41.5414 22.3789C41.6025 22.5492 41.7026 22.7029 41.8339 22.8275L40.7497 24.7069C40.4132 24.5601 40.0473 24.493 39.6806 24.511C39.2738 24.5338 38.8799 24.6621 38.5377 24.8833C38.1956 25.1046 37.9169 25.4111 37.7292 25.7728L35.4044 24.8605V24.8361C35.4315 24.5748 35.3628 24.3126 35.2111 24.0981C35.0594 23.8837 34.835 23.7316 34.5795 23.6702C34.3241 23.6088 34.0551 23.6422 33.8224 23.7642C33.5898 23.8863 33.4094 24.0886 33.3147 24.3337C33.2201 24.5787 33.2176 24.8498 33.3078 25.0966C33.398 25.3433 33.5748 25.5489 33.8051 25.6751C34.0355 25.8013 34.3039 25.8396 34.5604 25.7828C34.8169 25.726 35.0441 25.5781 35.1996 25.3664L37.5244 26.2787C37.4146 26.7122 37.4307 27.1681 37.571 27.5927C37.7113 28.0174 37.9699 28.3931 38.3164 28.6758L37.2323 30.3683C37.0376 30.2891 36.8277 30.2541 36.6179 30.2659C36.2863 30.2863 35.9719 30.4203 35.7275 30.6454C35.4832 30.8704 35.3238 31.1727 35.2762 31.5015C35.2286 31.8303 35.2957 32.1654 35.4662 32.4505C35.6367 32.7356 35.9002 32.9533 36.2124 33.0669C36.5246 33.1805 36.8663 33.1831 37.1802 33.0743C37.4941 32.9655 37.7609 32.7519 37.9357 32.4694C38.1106 32.187 38.1828 31.8529 38.1402 31.5234C38.0977 31.194 37.9429 30.8892 37.702 30.6605L38.7862 28.9741C39.2346 29.1919 39.7406 29.2614 40.2311 29.1726C40.7215 29.0837 41.171 28.8412 41.5145 28.48L42.8697 29.4918C42.742 29.7355 42.6748 30.0063 42.6737 30.2814C42.6726 30.5566 42.7376 30.8279 42.8633 31.0726C42.989 31.3174 43.1717 31.5283 43.3959 31.6876C43.6202 31.847 43.8795 31.9501 44.1519 31.9883C44.4244 32.0265 44.702 31.9986 44.9615 31.907C45.2209 31.8155 45.4545 31.6629 45.6426 31.4621C45.8308 31.2614 45.9679 31.0184 46.0424 30.7536C46.117 30.4887 46.1268 30.2099 46.071 29.9405C46.0091 29.6384 45.8669 29.3585 45.6594 29.1303C45.4519 28.9022 45.1868 28.7341 44.8919 28.6438C44.5971 28.5536 44.2833 28.5444 43.9836 28.6173C43.684 28.6903 43.4095 28.8426 43.1891 29.0582L41.8368 28.0528C42.1292 27.5559 42.228 26.9686 42.1141 26.4035C42.0001 25.8383 41.6816 25.3351 41.2195 24.9904L42.3036 23.111C42.4654 23.1636 42.6366 23.1804 42.8055 23.1605C42.9744 23.1406 43.137 23.0843 43.282 22.9955C43.4271 22.9067 43.5512 22.7876 43.6459 22.6463C43.7405 22.505 43.8034 22.3449 43.8302 22.1769C43.8571 22.009 43.8473 21.8372 43.8014 21.6735C43.7555 21.5097 43.6748 21.3578 43.5646 21.2283C43.4544 21.0987 43.3175 20.9945 43.1633 20.9229C43.009 20.8513 42.8411 20.8139 42.671 20.8134L42.6678 20.8128Z" fill="#0288D1"/>
<path d="M30.3894 61.1024C29.7068 61.1024 29.1402 61.0068 28.6896 60.8157C28.239 60.6177 27.8977 60.3617 27.6656 60.0477C27.4335 59.7337 27.3106 59.3991 27.297 59.0442C27.297 58.9895 27.3174 58.9418 27.3584 58.9008C27.4062 58.853 27.4608 58.8291 27.5222 58.8291H28.8125C28.9081 58.8291 28.9797 58.8462 29.0275 58.8803C29.0821 58.9145 29.1299 58.9588 29.1709 59.0134C29.2255 59.1158 29.3006 59.2148 29.3962 59.3104C29.4986 59.406 29.6283 59.4845 29.7853 59.5459C29.9491 59.6005 30.1505 59.6278 30.3894 59.6278C30.7854 59.6278 31.0823 59.5664 31.2803 59.4435C31.4851 59.3206 31.5875 59.1534 31.5875 58.9418C31.5875 58.7916 31.5329 58.6687 31.4237 58.5731C31.3145 58.4707 31.137 58.382 30.8912 58.3069C30.6523 58.225 30.3314 58.143 29.9286 58.0611C29.4098 57.9519 28.9661 57.8119 28.5974 57.6413C28.2356 57.4638 27.9591 57.2351 27.768 56.9552C27.5769 56.6685 27.4813 56.3135 27.4813 55.8902C27.4813 55.4738 27.5973 55.1018 27.8294 54.7741C28.0684 54.4464 28.3995 54.1904 28.8227 54.0061C29.246 53.8218 29.7477 53.7296 30.328 53.7296C30.799 53.7296 31.2121 53.791 31.567 53.9139C31.9289 54.0368 32.2326 54.2006 32.4784 54.4054C32.7242 54.6102 32.9085 54.8287 33.0314 55.0608C33.1611 55.2861 33.2293 55.5079 33.2362 55.7264C33.2362 55.781 33.2157 55.8322 33.1747 55.88C33.1338 55.921 33.0826 55.9414 33.0211 55.9414H31.6694C31.5943 55.9414 31.5295 55.9278 31.4749 55.9005C31.4203 55.8732 31.3725 55.8288 31.3315 55.7674C31.2906 55.6172 31.1813 55.4875 31.0038 55.3782C30.8332 55.2622 30.6079 55.2042 30.328 55.2042C30.0276 55.2042 29.7921 55.2588 29.6214 55.368C29.4576 55.4704 29.3757 55.6308 29.3757 55.8493C29.3757 55.9858 29.4201 56.1053 29.5088 56.2077C29.6044 56.3101 29.758 56.3988 29.9696 56.4739C30.1881 56.549 30.485 56.6275 30.8605 56.7094C31.4817 56.8255 31.9835 56.9723 32.3658 57.1498C32.7481 57.3204 33.0279 57.5457 33.2054 57.8256C33.3829 58.0987 33.4717 58.4434 33.4717 58.8598C33.4717 59.3241 33.3386 59.7268 33.0723 60.0682C32.8129 60.4027 32.4511 60.6587 31.9869 60.8362C31.5227 61.0137 30.9902 61.1024 30.3894 61.1024ZM36.2586 61C36.1562 61 36.0811 60.9761 36.0333 60.9283C35.9855 60.8737 35.9445 60.8123 35.9104 60.744L33.975 55.9926C33.9614 55.9653 33.9546 55.9346 33.9546 55.9005C33.9546 55.839 33.975 55.7878 34.016 55.7469C34.0638 55.6991 34.1218 55.6752 34.1901 55.6752H35.3472C35.4359 55.6752 35.5042 55.6991 35.552 55.7469C35.5998 55.7947 35.6305 55.8425 35.6442 55.8902L36.8013 59.0339L37.9686 55.8902C37.9823 55.8425 38.013 55.7947 38.0608 55.7469C38.1086 55.6991 38.1769 55.6752 38.2656 55.6752H39.4227C39.4842 55.6752 39.5388 55.6991 39.5866 55.7469C39.6343 55.7878 39.6582 55.839 39.6582 55.9005C39.6582 55.9346 39.6514 55.9653 39.6378 55.9926L37.7024 60.744C37.6751 60.8123 37.6341 60.8737 37.5795 60.9283C37.5317 60.9761 37.4532 61 37.344 61H36.2586ZM42.8754 63.2528C42.3497 63.2528 41.9128 63.1845 41.5646 63.048C41.2233 62.9115 40.9502 62.7476 40.7454 62.5565C40.5475 62.3653 40.4041 62.1742 40.3154 61.983C40.2266 61.7987 40.1788 61.6519 40.172 61.5427C40.1652 61.4676 40.1891 61.4062 40.2437 61.3584C40.2983 61.3106 40.3631 61.2867 40.4382 61.2867H41.7387C41.8002 61.2867 41.8514 61.3004 41.8923 61.3277C41.9401 61.3618 41.9777 61.4164 42.005 61.4915C42.0391 61.5666 42.0835 61.6451 42.1381 61.727C42.1995 61.809 42.2814 61.8738 42.3838 61.9216C42.4931 61.9762 42.6398 62.0035 42.8242 62.0035C43.029 62.0035 43.1996 61.9694 43.3362 61.9011C43.4727 61.8397 43.5751 61.7339 43.6434 61.5837C43.7116 61.4403 43.7458 61.2458 43.7458 61V60.3139C43.5887 60.4846 43.3874 60.6245 43.1416 60.7338C42.8958 60.8362 42.5989 60.8874 42.2507 60.8874C41.9026 60.8874 41.5954 60.8362 41.3291 60.7338C41.0629 60.6314 40.841 60.4778 40.6635 60.273C40.486 60.0682 40.3461 59.819 40.2437 59.5254C40.1481 59.2319 40.0901 58.894 40.0696 58.5117C40.0628 58.3342 40.0628 58.1567 40.0696 57.9792C40.0901 57.6106 40.1481 57.2795 40.2437 56.9859C40.3393 56.6924 40.4758 56.4398 40.6533 56.2282C40.8376 56.0165 41.0629 55.8561 41.3291 55.7469C41.5954 55.6308 41.9026 55.5728 42.2507 55.5728C42.6194 55.5728 42.9334 55.6445 43.1928 55.7878C43.459 55.9244 43.6775 56.0985 43.8482 56.3101V55.9312C43.8482 55.8629 43.8721 55.8049 43.9198 55.7571C43.9676 55.7025 44.0291 55.6752 44.1042 55.6752H45.2818C45.3569 55.6752 45.4183 55.7025 45.4661 55.7571C45.5207 55.8049 45.548 55.8629 45.548 55.9312V60.8566C45.548 61.3755 45.4422 61.8124 45.2306 62.1674C45.0189 62.5223 44.7151 62.792 44.3192 62.9763C43.9233 63.1606 43.442 63.2528 42.8754 63.2528ZM42.8037 59.5562C43.0221 59.5562 43.1996 59.5084 43.3362 59.4128C43.4727 59.3172 43.5717 59.1943 43.6331 59.0442C43.7014 58.894 43.7389 58.7335 43.7458 58.5629C43.7526 58.4878 43.756 58.382 43.756 58.2454C43.756 58.1089 43.7526 58.0065 43.7458 57.9382C43.7389 57.7607 43.7014 57.5969 43.6331 57.4467C43.5717 57.2965 43.4727 57.1771 43.3362 57.0883C43.1996 56.9927 43.0221 56.945 42.8037 56.945C42.5784 56.945 42.3975 56.9927 42.261 57.0883C42.1313 57.1839 42.0357 57.3136 41.9742 57.4774C41.9196 57.6413 41.8855 57.8222 41.8718 58.0202C41.865 58.1703 41.865 58.3239 41.8718 58.481C41.8855 58.6789 41.9196 58.8598 41.9742 59.0237C42.0357 59.1875 42.1313 59.3172 42.261 59.4128C42.3975 59.5084 42.5784 59.5562 42.8037 59.5562ZM49.2732 61.1024C48.6998 61.1024 48.2151 61.0102 47.8191 60.8259C47.43 60.6416 47.1296 60.3788 46.918 60.0374C46.7132 59.6893 46.5971 59.2763 46.5698 58.7984C46.563 58.6619 46.5596 58.5083 46.5596 58.3376C46.5596 58.1601 46.563 58.0065 46.5698 57.8768C46.5971 57.3921 46.72 56.9791 46.9385 56.6378C47.1569 56.2964 47.4607 56.0336 47.8498 55.8493C48.2458 55.665 48.7202 55.5728 49.2732 55.5728C49.833 55.5728 50.3074 55.665 50.6966 55.8493C51.0925 56.0336 51.3997 56.2964 51.6182 56.6378C51.8366 56.9791 51.9595 57.3921 51.9868 57.8768C51.9936 58.0065 51.997 58.1601 51.997 58.3376C51.997 58.5083 51.9936 58.6619 51.9868 58.7984C51.9595 59.2763 51.84 59.6893 51.6284 60.0374C51.4236 60.3788 51.1232 60.6416 50.7273 60.8259C50.3382 61.0102 49.8535 61.1024 49.2732 61.1024ZM49.2732 59.8531C49.5804 59.8531 49.8023 59.761 49.9388 59.5766C50.0822 59.3923 50.1641 59.1158 50.1846 58.7472C50.1914 58.6448 50.1948 58.5083 50.1948 58.3376C50.1948 58.1669 50.1914 58.0304 50.1846 57.928C50.1641 57.5662 50.0822 57.2931 49.9388 57.1088C49.8023 56.9177 49.5804 56.8221 49.2732 56.8221C48.9728 56.8221 48.751 56.9177 48.6076 57.1088C48.4642 57.2931 48.3857 57.5662 48.3721 57.928C48.3653 58.0304 48.3618 58.1669 48.3618 58.3376C48.3618 58.5083 48.3653 58.6448 48.3721 58.7472C48.3857 59.1158 48.4642 59.3923 48.6076 59.5766C48.751 59.761 48.9728 59.8531 49.2732 59.8531Z" fill="#E5E5E5"/>
</g>
<defs>
<filter id="filter0_d_602_985" x="0" y="0" width="80" height="80" filterUnits="userSpaceOnUse" color-interpolation-filters="sRGB">
<feFlood flood-opacity="0" result="BackgroundImageFix"/>
<feColorMatrix in="SourceAlpha" type="matrix" values="0 0 0 0 0 0 0 0 0 0 0 0 0 0 0 0 0 0 127 0" result="hardAlpha"/>
<feOffset dy="2"/>
<feGaussianBlur stdDeviation="4"/>
<feColorMatrix type="matrix" values="0 0 0 0 0 0 0 0 0 0 0 0 0 0 0 0 0 0 0.75 0"/>
<feBlend mode="normal" in2="BackgroundImageFix" result="effect1_dropShadow_602_985"/>
<feBlend mode="normal" in="SourceGraphic" in2="effect1_dropShadow_602_985" result="shape"/>
</filter>
</defs>
</svg>
