<svg width="80" height="80" viewBox="0 0 80 80" fill="none" xmlns="http://www.w3.org/2000/svg">
<g filter="url(#filter0_d_603_897)">
<rect x="8" y="6" width="64" height="64" rx="5" fill="#212529"/>
<g clip-path="url(#clip0_603_897)">
<path d="M35.5036 19.8765H35.0173V20.3621H35.5036V19.8765Z" fill="#8F8F8F"/>
<path d="M35.5036 24.0081H35.0173V24.4937H35.5036V24.0081Z" fill="#8F8F8F"/>
<path d="M35.5036 21.9019H35.0173V22.3875H35.5036V21.9019Z" fill="#8F8F8F"/>
<path d="M40.9317 18.0129H35.0173V18.4992H40.9317V18.0129Z" fill="#8F8F8F"/>
<path d="M40.9317 19.8765H35.7471V20.3621H40.9317V19.8765Z" fill="#8F8F8F"/>
<path d="M40.9317 21.9019H35.7471V22.3875H40.9317V21.9019Z" fill="#8F8F8F"/>
<path d="M40.9317 24.0081H35.7471V24.4937H40.9317V24.0081Z" fill="#8F8F8F"/>
<path d="M41.3365 16.5546C41.4439 16.5546 41.5469 16.5972 41.6229 16.6731C41.6989 16.749 41.7417 16.8519 41.7419 16.9593V25.3044C41.7417 25.4119 41.6989 25.5149 41.623 25.5909C41.547 25.6668 41.444 25.7096 41.3365 25.7098H34.5318C34.4244 25.7096 34.3214 25.6668 34.2454 25.5909C34.1694 25.5149 34.1267 25.4119 34.1265 25.3044V16.9593C34.1267 16.8519 34.1694 16.749 34.2454 16.6731C34.3214 16.5972 34.4244 16.5546 34.5318 16.5546H41.3365V16.5546ZM41.3365 16.2302H34.5318C34.3385 16.2302 34.153 16.307 34.0163 16.4438C33.8796 16.5805 33.8027 16.766 33.8027 16.9593V25.3044C33.8027 25.4978 33.8796 25.6832 34.0163 25.82C34.153 25.9567 34.3385 26.0335 34.5318 26.0335H41.3365C41.5299 26.0335 41.7154 25.9567 41.8521 25.82C41.9888 25.6832 42.0656 25.4978 42.0656 25.3044V16.9593C42.0656 16.766 41.9888 16.5805 41.8521 16.4438C41.7154 16.307 41.5299 16.2302 41.3365 16.2302V16.2302Z" fill="#8F8F8F"/>
<path d="M35.5036 31.2183H35.0173V31.7039H35.5036V31.2183Z" fill="#8F8F8F"/>
<path d="M35.5036 33.2432H35.0173V33.7294H35.5036V33.2432Z" fill="#8F8F8F"/>
<path d="M35.5036 35.3491H35.0173V35.8354H35.5036V35.3491Z" fill="#8F8F8F"/>
<path d="M40.9317 29.3547H35.0173V29.841H40.9317V29.3547Z" fill="#8F8F8F"/>
<path d="M40.9317 31.2219H35.7471V31.7H40.9317V31.2219Z" fill="#8F8F8F"/>
<path d="M40.9317 35.353H35.7471V35.8318H40.9317V35.353Z" fill="#8F8F8F"/>
<path d="M40.9317 33.2466H35.7471V33.7253H40.9317V33.2466Z" fill="#8F8F8F"/>
<path d="M41.3365 27.8965C41.4439 27.8965 41.5469 27.9391 41.6229 28.015C41.6989 28.0909 41.7417 28.1938 41.7419 28.3012V36.6463C41.741 36.7533 41.698 36.8557 41.6221 36.9311C41.5462 37.0065 41.4436 37.0489 41.3365 37.0491H34.5318C34.4244 37.0489 34.3214 37.0062 34.2454 36.9302C34.1694 36.8542 34.1267 36.7512 34.1265 36.6438V28.2987C34.1267 28.1913 34.1694 28.0883 34.2454 28.0125C34.3214 27.9366 34.4244 27.894 34.5318 27.894H41.3365V27.8965ZM41.3365 27.5696H34.5318C34.3385 27.5696 34.153 27.6464 34.0163 27.7831C33.8796 27.9199 33.8027 28.1053 33.8027 28.2987V36.6438C33.8027 36.8371 33.8796 37.0226 34.0163 37.1593C34.153 37.2961 34.3385 37.3729 34.5318 37.3729H41.3365C41.5299 37.3729 41.7154 37.2961 41.8521 37.1593C41.9888 37.0226 42.0656 36.8371 42.0656 36.6438V28.2987C42.0643 28.1062 41.9869 27.922 41.8503 27.7864C41.7137 27.6507 41.529 27.5746 41.3365 27.5746V27.5696Z" fill="#8F8F8F"/>
<path d="M45.6301 21.1726H43.2V21.5773H45.6301V32.271H43.2V32.6763H45.6301H46.0354V32.271V21.5773V21.1726H45.6301Z" fill="#8F8F8F"/>
<path d="M27.9304 36.8257C27.9956 36.7793 28.0621 36.7354 28.1299 36.6939C28.1249 34.9195 28.1092 31.6273 28.054 29.9727C28.054 28.8866 28.054 27.4259 25.7663 26.9509C28.0515 26.4759 28.054 25.0158 28.054 23.9297C28.1167 22.1101 28.128 18.3059 28.1311 16.7234C28.091 16.6977 28.0502 16.6726 28.0113 16.6444C27.1485 16.0295 26.6428 15.0513 26.4885 13.9043C26.2136 14.3548 26.0398 14.9126 26.0254 15.6034C25.9514 19.1554 25.8096 23.2452 25.7857 23.9297C25.7286 25.4676 24.7875 25.7606 24.2949 25.8083C24.202 25.8133 24.1067 25.8152 24 25.8114V28.091C24.1048 28.0872 24.202 28.091 24.2949 28.091C24.7875 28.1387 25.7286 28.4317 25.7857 29.9696C25.8096 30.6522 25.9514 34.7438 26.0254 38.2952C26.0272 38.8177 26.1487 39.3329 26.3805 39.8011C26.4935 38.555 27.008 37.4883 27.9304 36.8257Z" fill="#EF312D"/>
<path d="M28.0112 16.6444C28.0501 16.6726 28.0909 16.6977 28.1311 16.7235C28.1311 16.2786 28.1311 16.0088 28.1311 16.0088C28.1311 16.0088 27.8067 13.6596 31.2094 13.9834V12.0383C31.2094 12.0383 27.7584 11.8199 26.4878 13.9037C26.6428 15.0513 27.1485 16.0295 28.0112 16.6444Z" fill="#F6AD53"/>
<path d="M31.2101 41.8631V39.918C27.8074 40.2417 28.1318 37.8926 28.1318 37.8926C28.1318 37.8926 28.1318 37.4201 28.1318 36.6929C28.0641 36.7347 27.9976 36.7786 27.9323 36.8246C27.0081 37.4885 26.4936 38.5551 26.3806 39.8063C27.5521 42.0952 31.2101 41.8631 31.2101 41.8631Z" fill="#F6AD53"/>
<path d="M55.7051 25.7757C55.2125 25.7274 54.2714 25.435 54.2143 23.8971C54.1904 23.2144 54.0486 19.1228 53.9746 15.5708C53.9715 15.11 53.8772 14.6543 53.6973 14.23C53.5266 15.3286 53.0259 16.2629 52.1914 16.8609C52.088 16.9335 51.9807 17.0006 51.8701 17.0617C51.8745 18.8054 51.8896 22.2068 51.946 23.8971C51.946 24.9832 51.946 26.4433 54.2337 26.9183C51.9485 27.3933 51.946 28.854 51.946 29.9401C51.8896 31.6374 51.8739 35.0576 51.8701 36.795C52.0096 36.8679 52.144 36.9503 52.2723 37.0416C53.0598 37.6063 53.5498 38.469 53.7468 39.4886C53.8938 39.0977 53.9709 38.684 53.9746 38.2664C54.0486 34.715 54.1904 30.6234 54.2143 29.9407C54.2714 28.4028 55.2125 28.1098 55.7051 28.0621C55.798 28.0571 55.8933 28.0552 56 28.059V25.7788C55.8952 25.7826 55.798 25.7807 55.7051 25.7757Z" fill="#EF312D"/>
<path d="M53.6973 14.2301C52.6225 11.7629 48.79 12.0064 48.79 12.0064V13.9515C52.1927 13.6277 51.8683 15.9769 51.8683 15.9769C51.8683 15.9769 51.8683 16.4004 51.8683 17.0624C51.9789 17.0013 52.0862 16.9342 52.1896 16.8616C53.026 16.263 53.5267 15.3287 53.6973 14.2301Z" fill="#F6AD53"/>
<path d="M52.2722 37.0415C52.1439 36.9502 52.0095 36.8679 51.87 36.7949C51.87 37.4456 51.87 37.8616 51.87 37.8616C51.87 37.8616 52.1944 40.2108 48.7917 39.887V41.8321C48.7917 41.8321 52.7447 42.0831 53.7486 39.4898C53.5528 38.469 53.0597 37.6056 52.2722 37.0415Z" fill="#F6AD53"/>
</g>
<path d="M18.5498 61C18.4747 61 18.4132 60.9761 18.3654 60.9283C18.3177 60.8805 18.2938 60.8191 18.2938 60.744V55.4397H16.471C16.3959 55.4397 16.3345 55.4158 16.2867 55.368C16.2389 55.3134 16.215 55.2519 16.215 55.1837V54.088C16.215 54.0129 16.2389 53.9515 16.2867 53.9037C16.3345 53.8559 16.3959 53.832 16.471 53.832H21.9802C22.0553 53.832 22.1167 53.8559 22.1645 53.9037C22.2123 53.9515 22.2362 54.0129 22.2362 54.088V55.1837C22.2362 55.2519 22.2123 55.3134 22.1645 55.368C22.1167 55.4158 22.0553 55.4397 21.9802 55.4397H20.1574V60.744C20.1574 60.8191 20.1335 60.8805 20.0858 60.9283C20.038 60.9761 19.9765 61 19.9014 61H18.5498ZM23.6174 62.9456C23.556 62.9456 23.5048 62.9251 23.4638 62.8842C23.4229 62.8432 23.4024 62.792 23.4024 62.7306C23.4024 62.7169 23.4024 62.6964 23.4024 62.6691C23.4092 62.6486 23.4195 62.6247 23.4331 62.5974L24.2318 60.6723L22.2658 56.0234C22.2453 55.9756 22.235 55.9346 22.235 55.9005C22.2487 55.839 22.276 55.7878 22.317 55.7469C22.3579 55.6991 22.4091 55.6752 22.4706 55.6752H23.6379C23.7267 55.6752 23.7915 55.6991 23.8325 55.7469C23.8803 55.7878 23.911 55.8356 23.9246 55.8902L25.1022 58.8701L26.3003 55.8902C26.3276 55.8356 26.3618 55.7878 26.4027 55.7469C26.4505 55.6991 26.5188 55.6752 26.6075 55.6752H27.7544C27.8158 55.6752 27.867 55.6991 27.908 55.7469C27.9558 55.7878 27.9797 55.8356 27.9797 55.8902C27.9797 55.9244 27.9694 55.9687 27.949 56.0234L25.051 62.7306C25.0306 62.7852 24.9964 62.833 24.9486 62.8739C24.9009 62.9217 24.8326 62.9456 24.7438 62.9456H23.6174ZM28.9902 62.9456C28.9151 62.9456 28.8536 62.9217 28.8058 62.8739C28.7581 62.8261 28.7342 62.7647 28.7342 62.6896V55.9312C28.7342 55.8561 28.7581 55.7947 28.8058 55.7469C28.8536 55.6991 28.9151 55.6752 28.9902 55.6752H30.1473C30.2155 55.6752 30.2736 55.6991 30.3214 55.7469C30.376 55.7947 30.4033 55.8561 30.4033 55.9312V56.3101C30.5603 56.0985 30.7685 55.9244 31.0279 55.7878C31.2873 55.6445 31.6082 55.5728 31.9905 55.5728C32.3318 55.5728 32.6322 55.6274 32.8916 55.7366C33.151 55.839 33.3729 55.9926 33.5572 56.1974C33.7415 56.4022 33.8849 56.6514 33.9873 56.945C34.0965 57.2385 34.1579 57.5764 34.1716 57.9587C34.1784 58.0953 34.1818 58.2215 34.1818 58.3376C34.1818 58.4537 34.1784 58.5799 34.1716 58.7165C34.1579 59.0851 34.0999 59.4162 33.9975 59.7098C33.8951 60.0033 33.7518 60.2525 33.5674 60.4573C33.3831 60.6621 33.1578 60.8225 32.8916 60.9386C32.6322 61.0478 32.3318 61.1024 31.9905 61.1024C31.656 61.1024 31.3624 61.0444 31.1098 60.9283C30.8641 60.8054 30.6593 60.6348 30.4954 60.4163V62.6896C30.4954 62.7647 30.4715 62.8261 30.4238 62.8739C30.376 62.9217 30.3145 62.9456 30.2394 62.9456H28.9902ZM31.4375 59.7302C31.6696 59.7302 31.8505 59.6825 31.9802 59.5869C32.1099 59.4913 32.2021 59.3616 32.2567 59.1978C32.3182 59.0339 32.3557 58.853 32.3694 58.655C32.383 58.4434 32.383 58.2318 32.3694 58.0202C32.3557 57.8222 32.3182 57.6413 32.2567 57.4774C32.2021 57.3136 32.1099 57.1839 31.9802 57.0883C31.8505 56.9927 31.6696 56.945 31.4375 56.945C31.2122 56.945 31.0313 56.9962 30.8948 57.0986C30.7583 57.1941 30.6593 57.3204 30.5978 57.4774C30.5364 57.6345 30.5023 57.8051 30.4954 57.9894C30.4886 58.1191 30.4852 58.2454 30.4852 58.3683C30.4852 58.4912 30.4886 58.6209 30.4954 58.7574C30.5023 58.9281 30.5398 59.0885 30.6081 59.2387C30.6763 59.3821 30.7787 59.5015 30.9153 59.5971C31.0518 59.6859 31.2259 59.7302 31.4375 59.7302ZM37.6518 61.1024C36.8462 61.1024 36.2045 60.8839 35.7266 60.447C35.2488 60.0101 34.9996 59.3616 34.9791 58.5014C34.9791 58.4537 34.9791 58.3922 34.9791 58.3171C34.9791 58.242 34.9791 58.184 34.9791 58.143C34.9996 57.6037 35.1191 57.1429 35.3375 56.7606C35.5628 56.3715 35.87 56.078 36.2591 55.88C36.6551 55.6752 37.1159 55.5728 37.6415 55.5728C38.2423 55.5728 38.7372 55.6923 39.1263 55.9312C39.5223 56.1701 39.8192 56.4944 40.0172 56.904C40.2152 57.3136 40.3142 57.7812 40.3142 58.3069V58.5526C40.3142 58.6277 40.2869 58.6892 40.2322 58.737C40.1845 58.7847 40.1264 58.8086 40.0582 58.8086H36.7814C36.7814 58.8155 36.7814 58.8257 36.7814 58.8394C36.7814 58.853 36.7814 58.8667 36.7814 58.8803C36.7882 59.0783 36.8223 59.2592 36.8838 59.423C36.9452 59.5869 37.0408 59.7166 37.1705 59.8122C37.3002 59.9077 37.4572 59.9555 37.6415 59.9555C37.7781 59.9555 37.8907 59.935 37.9794 59.8941C38.075 59.8463 38.1535 59.7951 38.215 59.7405C38.2764 59.679 38.3242 59.6278 38.3583 59.5869C38.4198 59.5186 38.4675 59.4777 38.5017 59.464C38.5426 59.4435 38.6041 59.4333 38.686 59.4333H39.9558C40.024 59.4333 40.0786 59.4538 40.1196 59.4947C40.1674 59.5289 40.1879 59.5801 40.181 59.6483C40.1742 59.7644 40.1162 59.9043 40.007 60.0682C39.8977 60.232 39.7373 60.3958 39.5257 60.5597C39.3209 60.7167 39.0615 60.8464 38.7474 60.9488C38.4334 61.0512 38.0682 61.1024 37.6518 61.1024ZM36.7814 57.7949H38.5119V57.7744C38.5119 57.5559 38.4778 57.3648 38.4095 57.201C38.3481 57.0371 38.2491 56.9108 38.1126 56.8221C37.9829 56.7333 37.8258 56.689 37.6415 56.689C37.4572 56.689 37.3002 56.7333 37.1705 56.8221C37.0476 56.9108 36.952 57.0371 36.8838 57.201C36.8155 57.3648 36.7814 57.5559 36.7814 57.7744V57.7949ZM44.3154 61.1024C43.6874 61.1024 43.1413 61 42.677 60.7952C42.2128 60.5904 41.851 60.2832 41.5916 59.8736C41.3322 59.4572 41.1888 58.9383 41.1615 58.3171C41.1547 58.0236 41.1513 57.73 41.1513 57.4365C41.1513 57.1429 41.1547 56.846 41.1615 56.5456C41.1888 55.9312 41.3322 55.4158 41.5916 54.9994C41.8578 54.5761 42.2231 54.2587 42.6873 54.047C43.1515 53.8354 43.6942 53.7296 44.3154 53.7296C44.9298 53.7296 45.4691 53.8354 45.9334 54.047C46.4044 54.2587 46.773 54.5761 47.0393 54.9994C47.3055 55.4158 47.4489 55.9312 47.4694 56.5456C47.483 56.846 47.4898 57.1429 47.4898 57.4365C47.4898 57.73 47.483 58.0236 47.4694 58.3171C47.4421 58.9383 47.2987 59.4572 47.0393 59.8736C46.7799 60.2832 46.4181 60.5904 45.9538 60.7952C45.4896 61 44.9435 61.1024 44.3154 61.1024ZM44.3154 59.6278C44.6773 59.6278 44.9708 59.5186 45.1961 59.3002C45.4282 59.0817 45.5511 58.7335 45.5647 58.2557C45.5784 57.9553 45.5852 57.672 45.5852 57.4058C45.5852 57.1395 45.5784 56.863 45.5647 56.5763C45.5511 56.2555 45.4896 55.9961 45.3804 55.7981C45.278 55.5933 45.1346 55.4431 44.9503 55.3475C44.766 55.2519 44.5544 55.2042 44.3154 55.2042C44.0833 55.2042 43.8751 55.2519 43.6908 55.3475C43.5065 55.4431 43.3597 55.5933 43.2505 55.7981C43.1413 55.9961 43.0798 56.2555 43.0662 56.5763C43.0593 56.863 43.0559 57.1395 43.0559 57.4058C43.0559 57.672 43.0593 57.9553 43.0662 58.2557C43.0866 58.7335 43.2095 59.0817 43.4348 59.3002C43.6601 59.5186 43.9536 59.6278 44.3154 59.6278ZM48.9328 61C48.8577 61 48.7963 60.9761 48.7485 60.9283C48.7007 60.8805 48.6768 60.8191 48.6768 60.744V54.088C48.6768 54.0129 48.7007 53.9515 48.7485 53.9037C48.7963 53.8559 48.8577 53.832 48.9328 53.832H51.7181C52.5987 53.832 53.2916 54.0368 53.7968 54.4464C54.3088 54.8492 54.5648 55.4226 54.5648 56.1667C54.5648 56.6514 54.4453 57.061 54.2064 57.3955C53.9743 57.73 53.6671 57.9826 53.2848 58.1533L54.6979 60.6723C54.7184 60.7133 54.7286 60.7508 54.7286 60.785C54.7286 60.8396 54.7047 60.8908 54.657 60.9386C54.616 60.9795 54.5648 61 54.5034 61H53.1517C53.022 61 52.9264 60.9693 52.865 60.9078C52.8035 60.8396 52.7591 60.7781 52.7318 60.7235L51.5645 58.4707H50.5098V60.744C50.5098 60.8191 50.4859 60.8805 50.4381 60.9283C50.3903 60.9761 50.3289 61 50.2538 61H48.9328ZM50.5098 57.0269H51.6976C52.0185 57.0269 52.2574 56.9484 52.4144 56.7914C52.5782 56.6343 52.6602 56.4193 52.6602 56.1462C52.6602 55.88 52.5817 55.665 52.4246 55.5011C52.2745 55.3373 52.0321 55.2554 51.6976 55.2554H50.5098V57.0269ZM56.0128 61C55.9445 61 55.8831 60.9761 55.8285 60.9283C55.7807 60.8805 55.7568 60.8191 55.7568 60.744V54.088C55.7568 54.0129 55.7807 53.9515 55.8285 53.9037C55.8831 53.8559 55.9445 53.832 56.0128 53.832H57.1187C57.2279 53.832 57.3099 53.8627 57.3645 53.9242C57.4259 53.9788 57.4635 54.0231 57.4771 54.0573L59.2794 57.2931L61.0816 54.0573C61.1021 54.0231 61.1362 53.9788 61.184 53.9242C61.2386 53.8627 61.3239 53.832 61.44 53.832H62.5357C62.6108 53.832 62.6722 53.8559 62.72 53.9037C62.7746 53.9515 62.8019 54.0129 62.8019 54.088V60.744C62.8019 60.8191 62.7746 60.8805 62.72 60.9283C62.6722 60.9761 62.6108 61 62.5357 61H61.3171C61.242 61 61.1772 60.9761 61.1226 60.9283C61.0748 60.8805 61.0509 60.8191 61.0509 60.744V56.904L59.8938 59.0442C59.8665 59.1056 59.8255 59.1602 59.7709 59.208C59.7163 59.2558 59.6412 59.2797 59.5456 59.2797H59.0131C58.9175 59.2797 58.8425 59.2558 58.7878 59.208C58.7332 59.1602 58.6889 59.1056 58.6547 59.0442L57.4976 56.904V60.744C57.4976 60.8191 57.4737 60.8805 57.4259 60.9283C57.3781 60.9761 57.3167 61 57.2416 61H56.0128Z" fill="#E5E5E5"/>
</g>
<defs>
<filter id="filter0_d_603_897" x="0" y="0" width="80" height="80" filterUnits="userSpaceOnUse" color-interpolation-filters="sRGB">
<feFlood flood-opacity="0" result="BackgroundImageFix"/>
<feColorMatrix in="SourceAlpha" type="matrix" values="0 0 0 0 0 0 0 0 0 0 0 0 0 0 0 0 0 0 127 0" result="hardAlpha"/>
<feOffset dy="2"/>
<feGaussianBlur stdDeviation="4"/>
<feColorMatrix type="matrix" values="0 0 0 0 0 0 0 0 0 0 0 0 0 0 0 0 0 0 0.75 0"/>
<feBlend mode="normal" in2="BackgroundImageFix" result="effect1_dropShadow_603_897"/>
<feBlend mode="normal" in="SourceGraphic" in2="effect1_dropShadow_603_897" result="shape"/>
</filter>
<clipPath id="clip0_603_897">
<rect width="32" height="29.8698" fill="white" transform="translate(24 12)"/>
</clipPath>
</defs>
</svg>
