<svg width="80" height="80" viewBox="0 0 80 80" fill="none" xmlns="http://www.w3.org/2000/svg">
<g filter="url(#filter0_d_601_4887)">
<rect x="8" y="6" width="64" height="64" rx="5" fill="#212529"/>
<g clip-path="url(#clip0_601_4887)">
<path d="M51.2 11H28.8C26.149 11 24 13.149 24 15.8V38.2C24 40.851 26.149 43 28.8 43H51.2C53.851 43 56 40.851 56 38.2V15.8C56 13.149 53.851 11 51.2 11Z" fill="#3178C6"/>
<path d="M38.5625 28.7501H42.5625V26.1876H31.375V28.7501H35.375V40.1876H38.5625V28.7501ZM43.8125 39.5626C44.3188 39.8251 44.9375 40.0188 45.625 40.1501C46.3125 40.2813 47.0625 40.3438 47.8125 40.3438C48.5625 40.3438 49.25 40.2751 49.9375 40.1313C50.625 39.9876 51.1875 39.7501 51.6875 39.4438C52.1938 39.1126 52.625 38.6938 52.875 38.1313C53.125 37.5688 53.3188 36.9438 53.3188 36.1313C53.3188 35.5626 53.2313 35.0688 53.0625 34.6313C52.8937 34.1938 52.65 33.8188 52.3125 33.5063C51.9938 33.1751 51.625 32.8813 51.1875 32.6313C50.75 32.3813 50.25 32.1188 49.6875 31.8813C49.275 31.7126 48.9375 31.5501 48.5625 31.3876C48.2375 31.2251 47.9562 31.0626 47.75 30.9001C47.5187 30.7313 47.3438 30.5563 47.2188 30.3751C47.0938 30.1876 47.0312 29.9813 47.0312 29.7501C47.0312 29.5376 47.0869 29.3438 47.2 29.1688C47.3131 28.9938 47.4688 28.8501 47.6688 28.7251C47.8688 28.6001 48.1188 28.5063 48.4188 28.4376C48.7125 28.3688 49.0375 28.3376 49.4188 28.3376C49.6813 28.3376 49.9563 28.357 50.2313 28.3963C50.5188 28.4357 50.8125 28.4963 51.1063 28.5776C51.4 28.6588 51.6875 28.7588 51.9813 28.8838C52.2563 29.0088 52.5125 29.1526 52.7313 29.3151V26.3776C52.2563 26.1963 51.7313 26.0588 51.1688 25.9713C50.6063 25.8838 49.9813 25.8401 49.2313 25.8401C48.4813 25.8401 47.7938 25.9213 47.1063 26.0776C46.4188 26.2338 45.8563 26.4838 45.3563 26.8276C44.85 27.1651 44.4813 27.5776 44.1688 28.1401C43.875 28.6651 43.7313 29.2651 43.7313 30.0151C43.7313 30.9526 44 31.7651 44.5438 32.3901C45.0813 33.0776 45.9188 33.5776 46.9813 34.0776C47.4125 34.2526 47.7938 34.4276 48.1688 34.5963C48.5438 34.7651 48.8563 34.9401 49.1063 35.1213C49.375 35.3026 49.5875 35.5026 49.7313 35.7151C49.8875 35.9276 49.9688 36.1776 49.9688 36.4651C49.9688 36.6651 49.92 36.8526 49.825 37.0276C49.73 37.2026 49.5813 37.3526 49.3813 37.4776C49.1813 37.6026 48.9375 37.7026 48.6313 37.7776C48.3375 37.8463 48.0063 37.8838 47.5688 37.8838C46.8813 37.8838 46.1938 37.7651 45.5688 37.5276C44.8813 37.2901 44.2562 36.9338 43.8125 36.5626V39.5626Z" fill="white"/>
</g>
<path d="M19.5393 60C19.4792 60 19.4301 59.9809 19.3919 59.9427C19.3537 59.9045 19.3346 59.8553 19.3346 59.7953V55.5528H17.8767C17.8167 55.5528 17.7675 55.5337 17.7293 55.4955C17.6911 55.4518 17.672 55.4027 17.672 55.3481V54.4718C17.672 54.4117 17.6911 54.3625 17.7293 54.3243C17.7675 54.2861 17.8167 54.267 17.8767 54.267H22.283C22.343 54.267 22.3922 54.2861 22.4304 54.3243C22.4686 54.3625 22.4877 54.4117 22.4877 54.4718V55.3481C22.4877 55.4027 22.4686 55.4518 22.4304 55.4955C22.3922 55.5337 22.343 55.5528 22.283 55.5528H20.8251V59.7953C20.8251 59.8553 20.806 59.9045 20.7678 59.9427C20.7296 59.9809 20.6804 60 20.6204 60H19.5393ZM23.5925 61.5561C23.5433 61.5561 23.5024 61.5397 23.4696 61.507C23.4369 61.4742 23.4205 61.4332 23.4205 61.3841C23.4205 61.3732 23.4205 61.3568 23.4205 61.335C23.4259 61.3186 23.4341 61.2995 23.445 61.2776L24.0839 59.7379L22.5114 56.0197C22.495 55.9814 22.4868 55.9487 22.4868 55.9214C22.4977 55.8722 22.5196 55.8313 22.5523 55.7985C22.5851 55.7603 22.626 55.7412 22.6752 55.7412H23.6088C23.6798 55.7412 23.7317 55.7603 23.7645 55.7985C23.8027 55.8313 23.8272 55.8695 23.8382 55.9132L24.78 58.2965L25.7382 55.9132C25.7601 55.8695 25.7874 55.8313 25.8201 55.7985C25.8584 55.7603 25.913 55.7412 25.9839 55.7412H26.9012C26.9504 55.7412 26.9913 55.7603 27.0241 55.7985C27.0623 55.8313 27.0814 55.8695 27.0814 55.9132C27.0814 55.9405 27.0732 55.976 27.0568 56.0197L24.7391 61.3841C24.7227 61.4278 24.6954 61.466 24.6572 61.4988C24.6189 61.537 24.5643 61.5561 24.4934 61.5561H23.5925ZM27.8896 61.5561C27.8295 61.5561 27.7804 61.537 27.7422 61.4988C27.704 61.4606 27.6848 61.4114 27.6848 61.3513V55.9459C27.6848 55.8859 27.704 55.8367 27.7422 55.7985C27.7804 55.7603 27.8295 55.7412 27.8896 55.7412H28.8151C28.8697 55.7412 28.9161 55.7603 28.9543 55.7985C28.998 55.8367 29.0198 55.8859 29.0198 55.9459V56.249C29.1454 56.0797 29.3119 55.9405 29.5194 55.8313C29.7269 55.7166 29.9835 55.6593 30.2893 55.6593C30.5623 55.6593 30.8025 55.703 31.01 55.7903C31.2175 55.8722 31.3949 55.9951 31.5423 56.1589C31.6898 56.3227 31.8044 56.522 31.8863 56.7568C31.9737 56.9915 32.0228 57.2618 32.0337 57.5676C32.0392 57.6768 32.0419 57.7778 32.0419 57.8706C32.0419 57.9634 32.0392 58.0644 32.0337 58.1736C32.0228 58.4685 31.9764 58.7333 31.8945 58.9681C31.8126 59.2028 31.6979 59.4021 31.5505 59.5659C31.4031 59.7297 31.2229 59.858 31.01 59.9509C30.8025 60.0382 30.5623 60.0819 30.2893 60.0819C30.0217 60.0819 29.7869 60.0355 29.5849 59.9427C29.3884 59.8444 29.2246 59.7079 29.0935 59.5332V61.3513C29.0935 61.4114 29.0744 61.4606 29.0362 61.4988C28.998 61.537 28.9488 61.5561 28.8888 61.5561H27.8896ZM29.847 58.9844C30.0326 58.9844 30.1773 58.9462 30.2811 58.8698C30.3848 58.7933 30.4585 58.6896 30.5022 58.5586C30.5513 58.4275 30.5814 58.2828 30.5923 58.1245C30.6032 57.9552 30.6032 57.786 30.5923 57.6167C30.5814 57.4584 30.5513 57.3137 30.5022 57.1826C30.4585 57.0516 30.3848 56.9479 30.2811 56.8714C30.1773 56.795 30.0326 56.7568 29.847 56.7568C29.6668 56.7568 29.5221 56.7977 29.4129 56.8796C29.3037 56.9561 29.2246 57.0571 29.1754 57.1826C29.1263 57.3082 29.099 57.4447 29.0935 57.5921C29.0881 57.6959 29.0853 57.7969 29.0853 57.8952C29.0853 57.9935 29.0881 58.0972 29.0935 58.2064C29.099 58.3429 29.129 58.4712 29.1836 58.5913C29.2382 58.706 29.3201 58.8015 29.4293 58.878C29.5385 58.9489 29.6777 58.9844 29.847 58.9844ZM34.8172 60.0819C34.1729 60.0819 33.6597 59.9072 33.2775 59.5577C32.8953 59.2083 32.696 58.6896 32.6796 58.0016C32.6796 57.9634 32.6796 57.9143 32.6796 57.8542C32.6796 57.7942 32.6796 57.7478 32.6796 57.715C32.696 57.2837 32.7915 56.9151 32.9662 56.6093C33.1464 56.2981 33.3921 56.0633 33.7033 55.905C34.02 55.7412 34.3886 55.6593 34.809 55.6593C35.2895 55.6593 35.6853 55.7548 35.9965 55.9459C36.3132 56.1371 36.5507 56.3964 36.7091 56.724C36.8674 57.0516 36.9466 57.4256 36.9466 57.846V58.0426C36.9466 58.1026 36.9247 58.1518 36.8811 58.19C36.8428 58.2282 36.7964 58.2473 36.7418 58.2473H34.121C34.121 58.2528 34.121 58.261 34.121 58.2719C34.121 58.2828 34.121 58.2938 34.121 58.3047C34.1265 58.463 34.1538 58.6077 34.2029 58.7387C34.2521 58.8698 34.3285 58.9735 34.4322 59.05C34.536 59.1264 34.6616 59.1646 34.809 59.1646C34.9182 59.1646 35.0083 59.1482 35.0793 59.1155C35.1557 59.0773 35.2185 59.0363 35.2676 58.9926C35.3168 58.9435 35.355 58.9025 35.3823 58.8698C35.4314 58.8152 35.4696 58.7824 35.4969 58.7715C35.5297 58.7551 35.5788 58.7469 35.6444 58.7469H36.6599C36.7145 58.7469 36.7582 58.7633 36.791 58.7961C36.8292 58.8234 36.8456 58.8643 36.8401 58.9189C36.8346 59.0117 36.7882 59.1237 36.7009 59.2547C36.6135 59.3858 36.4852 59.5168 36.3159 59.6478C36.1521 59.7734 35.9447 59.8771 35.6935 59.959C35.4423 60.041 35.1502 60.0819 34.8172 60.0819ZM34.121 57.4365H35.5051V57.4201C35.5051 57.2454 35.4778 57.0926 35.4232 56.9615C35.3741 56.8305 35.2949 56.7295 35.1857 56.6585C35.082 56.5875 34.9564 56.552 34.809 56.552C34.6616 56.552 34.536 56.5875 34.4322 56.6585C34.334 56.7295 34.2575 56.8305 34.2029 56.9615C34.1483 57.0926 34.121 57.2454 34.121 57.4201V57.4365ZM39.4671 60.0819C39.1122 60.0819 38.8091 60.0437 38.558 59.9672C38.3123 59.8853 38.1102 59.7871 37.9519 59.6724C37.799 59.5577 37.6844 59.4403 37.6079 59.3202C37.5315 59.1946 37.4905 59.0882 37.4851 59.0008C37.4796 58.9408 37.4987 58.8916 37.5424 58.8534C37.5861 58.8097 37.6325 58.7879 37.6816 58.7879H38.6153C38.6317 58.7879 38.6453 58.7906 38.6562 58.7961C38.6672 58.8015 38.6835 58.8124 38.7054 58.8288C38.7764 58.867 38.8473 58.9162 38.9183 58.9763C38.9893 59.0309 39.0712 59.08 39.164 59.1237C39.2568 59.1673 39.3688 59.1892 39.4998 59.1892C39.6527 59.1892 39.781 59.1592 39.8847 59.0991C39.9885 59.039 40.0404 58.9489 40.0404 58.8288C40.0404 58.7415 40.0158 58.6705 39.9666 58.6159C39.9175 58.5558 39.8165 58.4985 39.6636 58.4439C39.5162 58.3893 39.2923 58.3347 38.992 58.2801C38.7081 58.2146 38.4597 58.1299 38.2467 58.0262C38.0338 57.917 37.87 57.7778 37.7553 57.6085C37.6407 57.4338 37.5834 57.2236 37.5834 56.9779C37.5834 56.7595 37.6543 56.5493 37.7963 56.3473C37.9383 56.1452 38.1457 55.9814 38.4187 55.8559C38.6917 55.7248 39.0275 55.6593 39.4261 55.6593C39.7428 55.6593 40.0158 55.6975 40.2451 55.774C40.4799 55.8449 40.6764 55.9378 40.8348 56.0524C40.9986 56.1671 41.1214 56.2845 41.2033 56.4046C41.2852 56.5247 41.3289 56.6339 41.3344 56.7322C41.3398 56.7868 41.3235 56.8359 41.2852 56.8796C41.247 56.9178 41.2033 56.9369 41.1542 56.9369H40.3024C40.2806 56.9369 40.2588 56.9342 40.2369 56.9287C40.2151 56.9178 40.196 56.9069 40.1796 56.896C40.1141 56.8632 40.0485 56.8196 39.983 56.765C39.9175 56.7103 39.8411 56.6612 39.7537 56.6175C39.6663 56.5738 39.5571 56.552 39.4261 56.552C39.2787 56.552 39.164 56.5848 39.0821 56.6503C39.0002 56.7158 38.9593 56.8004 38.9593 56.9042C38.9593 56.9752 38.9811 57.0407 39.0248 57.1007C39.0739 57.1608 39.1695 57.2154 39.3114 57.2645C39.4589 57.3137 39.6855 57.3683 39.9912 57.4283C40.368 57.4884 40.6683 57.5867 40.8921 57.7232C41.116 57.8542 41.2743 58.0098 41.3671 58.19C41.46 58.3647 41.5064 58.5504 41.5064 58.7469C41.5064 59.009 41.4272 59.2411 41.2689 59.4431C41.116 59.6451 40.8867 59.8034 40.5809 59.9181C40.2751 60.0273 39.9039 60.0819 39.4671 60.0819ZM44.1987 60.0819C43.7947 60.0819 43.437 60.0082 43.1258 59.8608C42.8146 59.7133 42.5662 59.5004 42.3805 59.2219C42.2003 58.938 42.1021 58.5995 42.0857 58.2064C42.0802 58.119 42.0775 58.0098 42.0775 57.8788C42.0775 57.7423 42.0802 57.6304 42.0857 57.543C42.1021 57.1444 42.2003 56.8059 42.3805 56.5274C42.5607 56.2435 42.8064 56.0279 43.1176 55.8804C43.4343 55.733 43.7947 55.6593 44.1987 55.6593C44.5754 55.6593 44.8976 55.7139 45.1651 55.8231C45.4327 55.9268 45.6511 56.0579 45.8203 56.2162C45.9896 56.3746 46.1152 56.5384 46.1971 56.7076C46.2844 56.8714 46.3308 57.0161 46.3363 57.1417C46.3417 57.1963 46.3226 57.2454 46.279 57.2891C46.2353 57.3273 46.1861 57.3464 46.1315 57.3464H45.0914C45.0313 57.3464 44.9849 57.3328 44.9522 57.3055C44.9194 57.2782 44.8894 57.2372 44.8621 57.1826C44.7966 57.0134 44.7119 56.8933 44.6082 56.8223C44.5099 56.7513 44.3816 56.7158 44.2233 56.7158C44.0049 56.7158 43.8356 56.7868 43.7155 56.9287C43.6008 57.0707 43.538 57.2891 43.5271 57.5839C43.5217 57.8023 43.5217 57.9962 43.5271 58.1654C43.538 58.4657 43.6008 58.6841 43.7155 58.8206C43.8356 58.9571 44.0049 59.0254 44.2233 59.0254C44.3925 59.0254 44.5263 58.9899 44.6246 58.9189C44.7229 58.8479 44.802 58.7278 44.8621 58.5586C44.8894 58.504 44.9194 58.463 44.9522 58.4357C44.9849 58.4084 45.0313 58.3948 45.0914 58.3948H46.1315C46.1861 58.3948 46.2353 58.4166 46.279 58.4603C46.3226 58.4985 46.3417 58.5449 46.3363 58.5995C46.3308 58.6923 46.3035 58.8015 46.2544 58.9271C46.2052 59.0472 46.1288 59.1755 46.0251 59.312C45.9213 59.4485 45.7848 59.5768 45.6156 59.697C45.4518 59.8116 45.2525 59.9045 45.0177 59.9754C44.7829 60.0464 44.5099 60.0819 44.1987 60.0819ZM47.2769 60C47.2168 60 47.1677 59.9809 47.1294 59.9427C47.0912 59.9045 47.0721 59.8553 47.0721 59.7953V55.9459C47.0721 55.8914 47.0912 55.8449 47.1294 55.8067C47.1677 55.763 47.2168 55.7412 47.2769 55.7412H48.2187C48.2788 55.7412 48.3279 55.763 48.3661 55.8067C48.4043 55.8449 48.4235 55.8914 48.4235 55.9459V56.2736C48.5709 56.1043 48.7456 55.9732 48.9476 55.8804C49.1551 55.7876 49.3871 55.7412 49.6438 55.7412H50.0041C50.0587 55.7412 50.1051 55.7603 50.1434 55.7985C50.187 55.8367 50.2089 55.8859 50.2089 55.9459V56.7895C50.2089 56.8441 50.187 56.8933 50.1434 56.9369C50.1051 56.9752 50.0587 56.9943 50.0041 56.9943H49.2097C48.9858 56.9943 48.8111 57.0571 48.6855 57.1826C48.5654 57.3028 48.5054 57.4747 48.5054 57.6986V59.7953C48.5054 59.8553 48.4835 59.9045 48.4398 59.9427C48.4016 59.9809 48.3525 60 48.2924 60H47.2769ZM50.9959 60C50.9359 60 50.8867 59.9809 50.8485 59.9427C50.8103 59.9045 50.7912 59.8553 50.7912 59.7953V55.9459C50.7912 55.8859 50.8103 55.8367 50.8485 55.7985C50.8867 55.7603 50.9359 55.7412 50.9959 55.7412H51.9624C52.017 55.7412 52.0634 55.7603 52.1016 55.7985C52.1453 55.8367 52.1671 55.8859 52.1671 55.9459V59.7953C52.1671 59.8553 52.1453 59.9045 52.1016 59.9427C52.0634 59.9809 52.017 60 51.9624 60H50.9959ZM50.9878 55.127C50.9277 55.127 50.8786 55.1078 50.8403 55.0696C50.8021 55.0314 50.783 54.9823 50.783 54.9222V54.1933C50.783 54.1332 50.8021 54.0841 50.8403 54.0459C50.8786 54.0022 50.9277 53.9804 50.9878 53.9804H51.9624C52.0224 53.9804 52.0716 54.0022 52.1098 54.0459C52.1535 54.0841 52.1753 54.1332 52.1753 54.1933V54.9222C52.1753 54.9823 52.1535 55.0314 52.1098 55.0696C52.0716 55.1078 52.0224 55.127 51.9624 55.127H50.9878ZM53.5873 61.5561C53.5273 61.5561 53.4781 61.537 53.4399 61.4988C53.4017 61.4606 53.3826 61.4114 53.3826 61.3513V55.9459C53.3826 55.8859 53.4017 55.8367 53.4399 55.7985C53.4781 55.7603 53.5273 55.7412 53.5873 55.7412H54.5128C54.5674 55.7412 54.6138 55.7603 54.652 55.7985C54.6957 55.8367 54.7175 55.8859 54.7175 55.9459V56.249C54.8431 56.0797 55.0096 55.9405 55.2171 55.8313C55.4246 55.7166 55.6812 55.6593 55.987 55.6593C56.26 55.6593 56.5002 55.703 56.7077 55.7903C56.9152 55.8722 57.0926 55.9951 57.2401 56.1589C57.3875 56.3227 57.5021 56.522 57.584 56.7568C57.6714 56.9915 57.7205 57.2618 57.7315 57.5676C57.7369 57.6768 57.7396 57.7778 57.7396 57.8706C57.7396 57.9634 57.7369 58.0644 57.7315 58.1736C57.7205 58.4685 57.6741 58.7333 57.5922 58.9681C57.5103 59.2028 57.3957 59.4021 57.2482 59.5659C57.1008 59.7297 56.9206 59.858 56.7077 59.9509C56.5002 60.0382 56.26 60.0819 55.987 60.0819C55.7194 60.0819 55.4847 60.0355 55.2826 59.9427C55.0861 59.8444 54.9223 59.7079 54.7912 59.5332V61.3513C54.7912 61.4114 54.7721 61.4606 54.7339 61.4988C54.6957 61.537 54.6466 61.5561 54.5865 61.5561H53.5873ZM55.5447 58.9844C55.7304 58.9844 55.8751 58.9462 55.9788 58.8698C56.0825 58.7933 56.1562 58.6896 56.1999 58.5586C56.2491 58.4275 56.2791 58.2828 56.29 58.1245C56.3009 57.9552 56.3009 57.786 56.29 57.6167C56.2791 57.4584 56.2491 57.3137 56.1999 57.1826C56.1562 57.0516 56.0825 56.9479 55.9788 56.8714C55.8751 56.795 55.7304 56.7568 55.5447 56.7568C55.3645 56.7568 55.2199 56.7977 55.1107 56.8796C55.0015 56.9561 54.9223 57.0571 54.8731 57.1826C54.824 57.3082 54.7967 57.4447 54.7912 57.5921C54.7858 57.6959 54.7831 57.7969 54.7831 57.8952C54.7831 57.9935 54.7858 58.0972 54.7912 58.2064C54.7967 58.3429 54.8267 58.4712 54.8813 58.5913C54.9359 58.706 55.0178 58.8015 55.127 58.878C55.2362 58.9489 55.3755 58.9844 55.5447 58.9844ZM60.7038 60C60.3544 60 60.0514 59.9454 59.7948 59.8362C59.5436 59.7215 59.3498 59.5468 59.2133 59.312C59.0768 59.0718 59.0085 58.7633 59.0085 58.3866V56.8141H58.3697C58.3096 56.8141 58.2578 56.795 58.2141 56.7568C58.1759 56.7185 58.1568 56.6694 58.1568 56.6093V55.9459C58.1568 55.8859 58.1759 55.8367 58.2141 55.7985C58.2578 55.7603 58.3096 55.7412 58.3697 55.7412H59.0085V54.3898C59.0085 54.3298 59.0276 54.2807 59.0658 54.2424C59.1095 54.2042 59.1587 54.1851 59.2133 54.1851H60.1633C60.2234 54.1851 60.2725 54.2042 60.3107 54.2424C60.3489 54.2807 60.3681 54.3298 60.3681 54.3898V55.7412H61.3918C61.4519 55.7412 61.501 55.7603 61.5392 55.7985C61.5774 55.8367 61.5966 55.8859 61.5966 55.9459V56.6093C61.5966 56.6694 61.5774 56.7185 61.5392 56.7568C61.501 56.795 61.4519 56.8141 61.3918 56.8141H60.3681V58.2719C60.3681 58.4576 60.4035 58.605 60.4745 58.7142C60.5455 58.8234 60.6656 58.878 60.8349 58.878H61.4655C61.5256 58.878 61.5747 58.8971 61.6129 58.9353C61.6512 58.9735 61.6703 59.0227 61.6703 59.0827V59.7953C61.6703 59.8553 61.6512 59.9045 61.6129 59.9427C61.5747 59.9809 61.5256 60 61.4655 60H60.7038Z" fill="#E5E5E5"/>
</g>
<defs>
<filter id="filter0_d_601_4887" x="0" y="0" width="80" height="80" filterUnits="userSpaceOnUse" color-interpolation-filters="sRGB">
<feFlood flood-opacity="0" result="BackgroundImageFix"/>
<feColorMatrix in="SourceAlpha" type="matrix" values="0 0 0 0 0 0 0 0 0 0 0 0 0 0 0 0 0 0 127 0" result="hardAlpha"/>
<feOffset dy="2"/>
<feGaussianBlur stdDeviation="4"/>
<feColorMatrix type="matrix" values="0 0 0 0 0 0 0 0 0 0 0 0 0 0 0 0 0 0 0.75 0"/>
<feBlend mode="normal" in2="BackgroundImageFix" result="effect1_dropShadow_601_4887"/>
<feBlend mode="normal" in="SourceGraphic" in2="effect1_dropShadow_601_4887" result="shape"/>
</filter>
<clipPath id="clip0_601_4887">
<rect width="32" height="32" fill="white" transform="translate(24 11)"/>
</clipPath>
</defs>
</svg>
