<svg width="80" height="80" viewBox="0 0 80 80" fill="none" xmlns="http://www.w3.org/2000/svg">
<g filter="url(#filter0_d_601_5057)">
<rect x="8" y="6" width="64" height="64" rx="5" fill="#212529"/>
<g clip-path="url(#clip0_601_5057)">
<path d="M28.6233 36.0509C28.241 36.3776 27.7074 36.4613 27.2433 36.2675L24.82 35.2509C24.3258 35.0447 24.0029 34.563 24 34.0275V19.8075C24.0029 19.2721 24.3258 18.7903 24.82 18.5842L27.2433 17.5842C27.7074 17.3904 28.241 17.4742 28.6233 17.8009L29.1667 18.2509C28.942 18.0894 28.6458 18.0674 28.3998 18.1939C28.1537 18.3205 27.9993 18.5742 28 18.8509V34.9842C27.9993 35.2609 28.1537 35.5146 28.3998 35.6412C28.6458 35.7677 28.942 35.7457 29.1667 35.5842L28.6233 36.0509Z" fill="#52218A"/>
<path d="M24.82 35.2507C24.3258 35.0446 24.0029 34.5628 24 34.0274V33.9174C24.0034 34.2322 24.1981 34.5133 24.4917 34.6271C24.7854 34.7409 25.1187 34.6644 25.3333 34.434L46 11.584C46.5997 10.9873 47.51 10.8325 48.2733 11.1974L54.8667 14.3707C55.5597 14.7039 56.0003 15.405 56 16.174V16.2507C55.9996 15.7628 55.7182 15.3187 55.2772 15.1099C54.8361 14.9012 54.3143 14.965 53.9367 15.274L29.1667 35.584L28.6233 36.0507C28.241 36.3774 27.7074 36.4612 27.2433 36.2674L24.82 35.2507Z" fill="#6C33AF"/>
<path d="M24.82 18.5842C24.3258 18.7903 24.0029 19.2721 24 19.8075V19.9175C24.0034 19.6026 24.1981 19.3215 24.4917 19.2077C24.7854 19.094 25.1187 19.1704 25.3333 19.4008L46 42.2508C46.5997 42.8476 47.51 43.0024 48.2733 42.6375L54.8667 39.4642C55.5597 39.1309 56.0003 38.4298 56 37.6608V37.5842C55.9996 38.0721 55.7182 38.5162 55.2772 38.7249C54.8361 38.9337 54.3143 38.8698 53.9367 38.5608L29.1667 18.2508L28.6233 17.7842C28.2376 17.4631 27.7043 17.3858 27.2433 17.5842L24.82 18.5842Z" fill="#854CC7"/>
<path d="M48.2733 42.6374C47.51 43.0023 46.5997 42.8474 46 42.2507C46.3359 42.5842 46.8393 42.6832 47.2764 42.5018C47.7136 42.3203 47.9989 41.894 48 41.4207V12.4207C48.0016 11.9462 47.7173 11.5174 47.2795 11.3343C46.8417 11.1511 46.3368 11.2497 46 11.584C46.5997 10.9873 47.51 10.8325 48.2733 11.1974L54.8667 14.3674C55.5597 14.7006 56.0003 15.4017 56 16.1707V37.664C56.0003 38.433 55.5597 39.1341 54.8667 39.4674L48.2733 42.6374Z" fill="#B179F1"/>
</g>
<path d="M15.7469 60C15.6541 60 15.5804 59.9754 15.5258 59.9263C15.4712 59.8771 15.433 59.8198 15.4111 59.7543L13.7404 54.5127C13.7295 54.4854 13.724 54.4608 13.724 54.439C13.724 54.3953 13.7404 54.3571 13.7731 54.3243C13.8114 54.2861 13.855 54.267 13.9042 54.267H14.9197C15.0071 54.267 15.0753 54.2916 15.1245 54.3407C15.1736 54.3898 15.2037 54.4363 15.2146 54.4799L16.3694 58.2637L17.5323 54.4799C17.5487 54.4363 17.5788 54.3898 17.6224 54.3407C17.6716 54.2916 17.7398 54.267 17.8272 54.267H18.8427C18.8919 54.267 18.9328 54.2861 18.9656 54.3243C19.0038 54.3571 19.0229 54.3953 19.0229 54.439C19.0229 54.4608 19.0175 54.4854 19.0065 54.5127L17.3358 59.7543C17.3139 59.8198 17.2757 59.8771 17.2211 59.9263C17.172 59.9754 17.0983 60 17 60H15.7469ZM19.7822 60C19.7222 60 19.673 59.9809 19.6348 59.9427C19.5966 59.9045 19.5775 59.8553 19.5775 59.7953V55.9459C19.5775 55.8859 19.5966 55.8367 19.6348 55.7985C19.673 55.7603 19.7222 55.7412 19.7822 55.7412H20.7486C20.8032 55.7412 20.8497 55.7603 20.8879 55.7985C20.9316 55.8367 20.9534 55.8859 20.9534 55.9459V59.7953C20.9534 59.8553 20.9316 59.9045 20.8879 59.9427C20.8497 59.9809 20.8032 60 20.7486 60H19.7822ZM19.774 55.127C19.714 55.127 19.6648 55.1078 19.6266 55.0696C19.5884 55.0314 19.5693 54.9823 19.5693 54.9222V54.1933C19.5693 54.1332 19.5884 54.0841 19.6266 54.0459C19.6648 54.0022 19.714 53.9804 19.774 53.9804H20.7486C20.8087 53.9804 20.8578 54.0022 20.8961 54.0459C20.9397 54.0841 20.9616 54.1332 20.9616 54.1933V54.9222C20.9616 54.9823 20.9397 55.0314 20.8961 55.0696C20.8578 55.1078 20.8087 55.127 20.7486 55.127H19.774ZM23.8175 60.0819C23.4626 60.0819 23.1596 60.0437 22.9084 59.9672C22.6627 59.8853 22.4607 59.7871 22.3024 59.6724C22.1495 59.5577 22.0348 59.4403 21.9584 59.3202C21.882 59.1946 21.841 59.0882 21.8355 59.0008C21.8301 58.9408 21.8492 58.8916 21.8929 58.8534C21.9366 58.8097 21.983 58.7879 22.0321 58.7879H22.9658C22.9821 58.7879 22.9958 58.7906 23.0067 58.7961C23.0176 58.8015 23.034 58.8124 23.0559 58.8288C23.1268 58.867 23.1978 58.9162 23.2688 58.9763C23.3398 59.0309 23.4217 59.08 23.5145 59.1237C23.6073 59.1673 23.7192 59.1892 23.8503 59.1892C24.0032 59.1892 24.1315 59.1592 24.2352 59.0991C24.339 59.039 24.3908 58.9489 24.3908 58.8288C24.3908 58.7415 24.3663 58.6705 24.3171 58.6159C24.268 58.5558 24.167 58.4985 24.0141 58.4439C23.8667 58.3893 23.6428 58.3347 23.3425 58.2801C23.0586 58.2146 22.8102 58.1299 22.5972 58.0262C22.3843 57.917 22.2205 57.7778 22.1058 57.6085C21.9912 57.4338 21.9338 57.2236 21.9338 56.9779C21.9338 56.7595 22.0048 56.5493 22.1468 56.3473C22.2887 56.1452 22.4962 55.9814 22.7692 55.8559C23.0422 55.7248 23.378 55.6593 23.7766 55.6593C24.0933 55.6593 24.3663 55.6975 24.5956 55.774C24.8304 55.8449 25.0269 55.9378 25.1853 56.0524C25.3491 56.1671 25.4719 56.2845 25.5538 56.4046C25.6357 56.5247 25.6794 56.6339 25.6848 56.7322C25.6903 56.7868 25.6739 56.8359 25.6357 56.8796C25.5975 56.9178 25.5538 56.9369 25.5047 56.9369H24.6529C24.6311 56.9369 24.6092 56.9342 24.5874 56.9287C24.5655 56.9178 24.5464 56.9069 24.5301 56.896C24.4645 56.8632 24.399 56.8196 24.3335 56.765C24.268 56.7103 24.1915 56.6612 24.1042 56.6175C24.0168 56.5738 23.9076 56.552 23.7766 56.552C23.6292 56.552 23.5145 56.5848 23.4326 56.6503C23.3507 56.7158 23.3097 56.8004 23.3097 56.9042C23.3097 56.9752 23.3316 57.0407 23.3753 57.1007C23.4244 57.1608 23.52 57.2154 23.6619 57.2645C23.8093 57.3137 24.0359 57.3683 24.3417 57.4283C24.7184 57.4884 25.0187 57.5867 25.2426 57.7232C25.4664 57.8542 25.6248 58.0098 25.7176 58.19C25.8104 58.3647 25.8568 58.5504 25.8568 58.7469C25.8568 59.009 25.7777 59.2411 25.6193 59.4431C25.4664 59.6451 25.2371 59.8034 24.9314 59.9181C24.6256 60.0273 24.2543 60.0819 23.8175 60.0819ZM28.1561 60.0819C27.8448 60.0819 27.5664 60.0109 27.3207 59.869C27.0804 59.727 26.8921 59.5195 26.7556 59.2465C26.6191 58.9681 26.5508 58.6295 26.5508 58.231V55.9459C26.5508 55.8859 26.5699 55.8367 26.6081 55.7985C26.6464 55.7603 26.6955 55.7412 26.7556 55.7412H27.7793C27.8394 55.7412 27.8885 55.7603 27.9267 55.7985C27.965 55.8367 27.9841 55.8859 27.9841 55.9459V58.1818C27.9841 58.7169 28.2243 58.9844 28.7048 58.9844C28.9286 58.9844 29.1061 58.9162 29.2371 58.7797C29.3736 58.6377 29.4419 58.4384 29.4419 58.1818V55.9459C29.4419 55.8859 29.461 55.8367 29.4992 55.7985C29.5374 55.7603 29.5866 55.7412 29.6466 55.7412H30.6704C30.7304 55.7412 30.7796 55.7603 30.8178 55.7985C30.856 55.8367 30.8751 55.8859 30.8751 55.9459V59.7953C30.8751 59.8553 30.856 59.9045 30.8178 59.9427C30.7796 59.9809 30.7304 60 30.6704 60H29.7203C29.6657 60 29.6166 59.9809 29.5729 59.9427C29.5347 59.9045 29.5156 59.8553 29.5156 59.7953V59.484C29.3736 59.6806 29.188 59.8307 28.9587 59.9345C28.7348 60.0328 28.4673 60.0819 28.1561 60.0819ZM33.1161 60.0819C32.8213 60.0819 32.5565 60.0273 32.3217 59.9181C32.0924 59.8034 31.9095 59.6506 31.773 59.4595C31.6365 59.2684 31.5682 59.0527 31.5682 58.8124C31.5682 58.4248 31.7266 58.119 32.0432 57.8952C32.3599 57.6658 32.7803 57.5102 33.3045 57.4283L34.3282 57.2727V57.1581C34.3282 56.9615 34.2873 56.8114 34.2054 56.7076C34.1235 56.6039 33.9733 56.552 33.7549 56.552C33.6021 56.552 33.4765 56.582 33.3782 56.6421C33.2854 56.7022 33.2117 56.7841 33.1571 56.8878C33.1079 56.9588 33.0397 56.9943 32.9523 56.9943H32.035C31.975 56.9943 31.9286 56.9779 31.8958 56.9451C31.8631 56.9069 31.8494 56.8632 31.8549 56.8141C31.8549 56.7158 31.8904 56.6039 31.9613 56.4783C32.0378 56.3473 32.1524 56.2189 32.3053 56.0934C32.4582 55.9678 32.6548 55.8641 32.895 55.7821C33.1352 55.7002 33.4246 55.6593 33.7631 55.6593C34.118 55.6593 34.4211 55.7002 34.6722 55.7821C34.9234 55.8641 35.1254 55.9787 35.2783 56.1261C35.4366 56.2736 35.554 56.4483 35.6305 56.6503C35.7069 56.8468 35.7451 57.0652 35.7451 57.3055V59.7953C35.7451 59.8553 35.7233 59.9045 35.6796 59.9427C35.6414 59.9809 35.595 60 35.5404 60H34.5903C34.5303 60 34.4811 59.9809 34.4429 59.9427C34.4047 59.9045 34.3856 59.8553 34.3856 59.7953V59.5086C34.3146 59.6123 34.219 59.7079 34.0989 59.7953C33.9788 59.8826 33.8368 59.9509 33.673 60C33.5147 60.0546 33.3291 60.0819 33.1161 60.0819ZM33.5011 59.1482C33.6594 59.1482 33.8014 59.1155 33.9269 59.05C34.058 58.979 34.159 58.8725 34.23 58.7306C34.3064 58.5831 34.3446 58.4002 34.3446 58.1818V58.0672L33.6485 58.19C33.3919 58.2337 33.2035 58.3019 33.0834 58.3948C32.9687 58.4821 32.9114 58.5859 32.9114 58.706C32.9114 58.7988 32.9387 58.878 32.9933 58.9435C33.0479 59.009 33.1189 59.0609 33.2062 59.0991C33.2936 59.1319 33.3919 59.1482 33.5011 59.1482ZM36.8741 60C36.814 60 36.7649 59.9809 36.7266 59.9427C36.6884 59.9045 36.6693 59.8553 36.6693 59.7953V54.3898C36.6693 54.3298 36.6884 54.2807 36.7266 54.2424C36.7649 54.2042 36.814 54.1851 36.8741 54.1851H37.8405C37.9005 54.1851 37.9497 54.2042 37.9879 54.2424C38.0261 54.2807 38.0452 54.3298 38.0452 54.3898V59.7953C38.0452 59.8553 38.0261 59.9045 37.9879 59.9427C37.9497 59.9809 37.9005 60 37.8405 60H36.8741ZM42.984 60.0819C42.438 60.0819 41.9848 60.0055 41.6244 59.8526C41.2641 59.6942 40.9911 59.4895 40.8054 59.2383C40.6198 58.9872 40.5215 58.7196 40.5106 58.4357C40.5106 58.392 40.527 58.3538 40.5597 58.321C40.598 58.2828 40.6416 58.2637 40.6908 58.2637H41.7227C41.7992 58.2637 41.8565 58.2774 41.8947 58.3047C41.9384 58.332 41.9766 58.3675 42.0094 58.4111C42.0531 58.493 42.1131 58.5722 42.1896 58.6487C42.2715 58.7251 42.3752 58.7879 42.5008 58.837C42.6318 58.8807 42.7929 58.9025 42.984 58.9025C43.3007 58.9025 43.5382 58.8534 43.6965 58.7551C43.8603 58.6568 43.9422 58.5231 43.9422 58.3538C43.9422 58.2337 43.8985 58.1354 43.8112 58.059C43.7238 57.9771 43.5819 57.9061 43.3853 57.846C43.1942 57.7805 42.9376 57.715 42.6154 57.6495C42.2005 57.5621 41.8456 57.4502 41.5507 57.3137C41.2614 57.1717 41.0402 56.9888 40.8873 56.765C40.7345 56.5356 40.658 56.2517 40.658 55.9132C40.658 55.5801 40.7508 55.2826 40.9365 55.0205C41.1276 54.7584 41.3924 54.5537 41.7309 54.4062C42.0694 54.2588 42.4707 54.1851 42.9348 54.1851C43.3116 54.1851 43.6419 54.2342 43.9258 54.3325C44.2152 54.4308 44.4582 54.5618 44.6547 54.7256C44.8513 54.8894 44.9987 55.0642 45.097 55.2498C45.2007 55.43 45.2553 55.6074 45.2608 55.7821C45.2608 55.8258 45.2444 55.8668 45.2117 55.905C45.1789 55.9378 45.138 55.9541 45.0888 55.9541H44.0077C43.9477 55.9541 43.8958 55.9432 43.8521 55.9214C43.8084 55.8995 43.7702 55.864 43.7375 55.8149C43.7047 55.6948 43.6173 55.591 43.4754 55.5037C43.3389 55.4109 43.1587 55.3645 42.9348 55.3645C42.6946 55.3645 42.5062 55.4081 42.3697 55.4955C42.2387 55.5774 42.1732 55.7057 42.1732 55.8804C42.1732 55.9896 42.2087 56.0852 42.2796 56.1671C42.3561 56.249 42.4789 56.32 42.6482 56.38C42.8229 56.4401 43.0604 56.5029 43.3607 56.5684C43.8576 56.6612 44.2589 56.7786 44.5647 56.9206C44.8704 57.0571 45.0943 57.2372 45.2362 57.4611C45.3782 57.6795 45.4492 57.9552 45.4492 58.2883C45.4492 58.6596 45.3427 58.9817 45.1298 59.2547C44.9223 59.5222 44.6329 59.727 44.2616 59.869C43.8903 60.0109 43.4645 60.0819 42.984 60.0819ZM48.3575 60C48.0081 60 47.7051 59.9454 47.4484 59.8362C47.1973 59.7215 47.0034 59.5468 46.8669 59.312C46.7304 59.0718 46.6622 58.7633 46.6622 58.3866V56.8141H46.0234C45.9633 56.8141 45.9114 56.795 45.8678 56.7568C45.8295 56.7185 45.8104 56.6694 45.8104 56.6093V55.9459C45.8104 55.8859 45.8295 55.8367 45.8678 55.7985C45.9114 55.7603 45.9633 55.7412 46.0234 55.7412H46.6622V54.3898C46.6622 54.3298 46.6813 54.2807 46.7195 54.2424C46.7632 54.2042 46.8123 54.1851 46.8669 54.1851H47.817C47.877 54.1851 47.9262 54.2042 47.9644 54.2424C48.0026 54.2807 48.0217 54.3298 48.0217 54.3898V55.7412H49.0455C49.1055 55.7412 49.1547 55.7603 49.1929 55.7985C49.2311 55.8367 49.2502 55.8859 49.2502 55.9459V56.6093C49.2502 56.6694 49.2311 56.7185 49.1929 56.7568C49.1547 56.795 49.1055 56.8141 49.0455 56.8141H48.0217V58.2719C48.0217 58.4576 48.0572 58.605 48.1282 58.7142C48.1992 58.8234 48.3193 58.878 48.4886 58.878H49.1192C49.1793 58.878 49.2284 58.8971 49.2666 58.9353C49.3048 58.9735 49.3239 59.0227 49.3239 59.0827V59.7953C49.3239 59.8553 49.3048 59.9045 49.2666 59.9427C49.2284 59.9809 49.1793 60 49.1192 60H48.3575ZM51.5663 60.0819C51.2551 60.0819 50.9767 60.0109 50.731 59.869C50.4907 59.727 50.3023 59.5195 50.1658 59.2465C50.0293 58.9681 49.9611 58.6295 49.9611 58.231V55.9459C49.9611 55.8859 49.9802 55.8367 50.0184 55.7985C50.0566 55.7603 50.1058 55.7412 50.1658 55.7412H51.1896C51.2497 55.7412 51.2988 55.7603 51.337 55.7985C51.3752 55.8367 51.3943 55.8859 51.3943 55.9459V58.1818C51.3943 58.7169 51.6346 58.9844 52.1151 58.9844C52.3389 58.9844 52.5164 58.9162 52.6474 58.7797C52.7839 58.6377 52.8522 58.4384 52.8522 58.1818V55.9459C52.8522 55.8859 52.8713 55.8367 52.9095 55.7985C52.9477 55.7603 52.9969 55.7412 53.0569 55.7412H54.0807C54.1407 55.7412 54.1899 55.7603 54.2281 55.7985C54.2663 55.8367 54.2854 55.8859 54.2854 55.9459V59.7953C54.2854 59.8553 54.2663 59.9045 54.2281 59.9427C54.1899 59.9809 54.1407 60 54.0807 60H53.1306C53.076 60 53.0269 59.9809 52.9832 59.9427C52.945 59.9045 52.9259 59.8553 52.9259 59.7953V59.484C52.7839 59.6806 52.5983 59.8307 52.369 59.9345C52.1451 60.0328 51.8776 60.0819 51.5663 60.0819ZM56.8376 60.0819C56.5755 60.0819 56.338 60.041 56.1251 59.959C55.9176 59.8717 55.7374 59.7461 55.5846 59.5823C55.4371 59.4131 55.3225 59.211 55.2406 58.9763C55.1587 58.736 55.1123 58.463 55.1013 58.1573C55.0959 58.0481 55.0932 57.9525 55.0932 57.8706C55.0932 57.7832 55.0959 57.6877 55.1013 57.5839C55.1123 57.2891 55.1587 57.0243 55.2406 56.7895C55.3225 56.5547 55.4371 56.3527 55.5846 56.1835C55.732 56.0142 55.9122 55.8859 56.1251 55.7985C56.338 55.7057 56.5755 55.6593 56.8376 55.6593C57.1106 55.6593 57.3454 55.7057 57.542 55.7985C57.7385 55.8859 57.9051 56.0006 58.0416 56.1425V54.3898C58.0416 54.3298 58.0607 54.2807 58.0989 54.2424C58.1371 54.2042 58.1862 54.1851 58.2463 54.1851H59.2455C59.3001 54.1851 59.3465 54.2042 59.3847 54.2424C59.4284 54.2807 59.4502 54.3298 59.4502 54.3898V59.7953C59.4502 59.8553 59.4284 59.9045 59.3847 59.9427C59.3465 59.9809 59.3001 60 59.2455 60H58.32C58.26 60 58.2108 59.9809 58.1726 59.9427C58.1344 59.9045 58.1153 59.8553 58.1153 59.7953V59.5332C57.9842 59.6915 57.815 59.8226 57.6075 59.9263C57.4 60.03 57.1434 60.0819 56.8376 60.0819ZM57.2799 58.9844C57.4655 58.9844 57.6102 58.9462 57.714 58.8698C57.8232 58.7879 57.9023 58.6841 57.9515 58.5586C58.0061 58.433 58.0361 58.2965 58.0416 58.1491C58.047 58.0399 58.0497 57.9361 58.0497 57.8378C58.0497 57.7396 58.047 57.6386 58.0416 57.5348C58.0361 57.3983 58.0061 57.2727 57.9515 57.1581C57.8969 57.038 57.815 56.9424 57.7058 56.8714C57.5966 56.795 57.4546 56.7568 57.2799 56.7568C57.0997 56.7568 56.955 56.795 56.8458 56.8714C56.7421 56.9479 56.6684 57.0516 56.6247 57.1826C56.581 57.3137 56.5537 57.4584 56.5428 57.6167C56.5264 57.786 56.5264 57.9552 56.5428 58.1245C56.5537 58.2828 56.581 58.4275 56.6247 58.5586C56.6684 58.6896 56.7421 58.7933 56.8458 58.8698C56.955 58.9462 57.0997 58.9844 57.2799 58.9844ZM60.6203 60C60.5602 60 60.5111 59.9809 60.4728 59.9427C60.4346 59.9045 60.4155 59.8553 60.4155 59.7953V55.9459C60.4155 55.8859 60.4346 55.8367 60.4728 55.7985C60.5111 55.7603 60.5602 55.7412 60.6203 55.7412H61.5867C61.6413 55.7412 61.6877 55.7603 61.7259 55.7985C61.7696 55.8367 61.7914 55.8859 61.7914 55.9459V59.7953C61.7914 59.8553 61.7696 59.9045 61.7259 59.9427C61.6877 59.9809 61.6413 60 61.5867 60H60.6203ZM60.6121 55.127C60.552 55.127 60.5029 55.1078 60.4646 55.0696C60.4264 55.0314 60.4073 54.9823 60.4073 54.9222V54.1933C60.4073 54.1332 60.4264 54.0841 60.4646 54.0459C60.5029 54.0022 60.552 53.9804 60.6121 53.9804H61.5867C61.6467 53.9804 61.6959 54.0022 61.7341 54.0459C61.7778 54.0841 61.7996 54.1332 61.7996 54.1933V54.9222C61.7996 54.9823 61.7778 55.0314 61.7341 55.0696C61.6959 55.1078 61.6467 55.127 61.5867 55.127H60.6121ZM64.8057 60.0819C64.347 60.0819 63.9594 60.0082 63.6427 59.8608C63.3315 59.7133 63.0912 59.5031 62.922 59.2301C62.7582 58.9517 62.6653 58.6214 62.6435 58.2392C62.638 58.13 62.6353 58.0071 62.6353 57.8706C62.6353 57.7286 62.638 57.6058 62.6435 57.5021C62.6653 57.1144 62.7636 56.7841 62.9383 56.5111C63.1131 56.2381 63.356 56.0279 63.6673 55.8804C63.9839 55.733 64.3634 55.6593 64.8057 55.6593C65.2534 55.6593 65.6329 55.733 65.9441 55.8804C66.2608 56.0279 66.5065 56.2381 66.6812 56.5111C66.8559 56.7841 66.9542 57.1144 66.976 57.5021C66.9815 57.6058 66.9842 57.7286 66.9842 57.8706C66.9842 58.0071 66.9815 58.13 66.976 58.2392C66.9542 58.6214 66.8586 58.9517 66.6894 59.2301C66.5256 59.5031 66.2853 59.7133 65.9686 59.8608C65.6574 60.0082 65.2698 60.0819 64.8057 60.0819ZM64.8057 59.0827C65.0514 59.0827 65.2288 59.009 65.338 58.8616C65.4527 58.7142 65.5182 58.493 65.5346 58.1982C65.54 58.1163 65.5428 58.0071 65.5428 57.8706C65.5428 57.7341 65.54 57.6249 65.5346 57.543C65.5182 57.2536 65.4527 57.0352 65.338 56.8878C65.2288 56.7349 65.0514 56.6585 64.8057 56.6585C64.5654 56.6585 64.388 56.7349 64.2733 56.8878C64.1587 57.0352 64.0959 57.2536 64.0849 57.543C64.0795 57.6249 64.0768 57.7341 64.0768 57.8706C64.0768 58.0071 64.0795 58.1163 64.0849 58.1982C64.0959 58.493 64.1587 58.7142 64.2733 58.8616C64.388 59.009 64.5654 59.0827 64.8057 59.0827Z" fill="#E5E5E5"/>
</g>
<defs>
<filter id="filter0_d_601_5057" x="0" y="0" width="80" height="80" filterUnits="userSpaceOnUse" color-interpolation-filters="sRGB">
<feFlood flood-opacity="0" result="BackgroundImageFix"/>
<feColorMatrix in="SourceAlpha" type="matrix" values="0 0 0 0 0 0 0 0 0 0 0 0 0 0 0 0 0 0 127 0" result="hardAlpha"/>
<feOffset dy="2"/>
<feGaussianBlur stdDeviation="4"/>
<feColorMatrix type="matrix" values="0 0 0 0 0 0 0 0 0 0 0 0 0 0 0 0 0 0 0.75 0"/>
<feBlend mode="normal" in2="BackgroundImageFix" result="effect1_dropShadow_601_5057"/>
<feBlend mode="normal" in="SourceGraphic" in2="effect1_dropShadow_601_5057" result="shape"/>
</filter>
<clipPath id="clip0_601_5057">
<rect width="32" height="32" fill="white" transform="translate(24 11)"/>
</clipPath>
</defs>
</svg>
