<svg width="80" height="80" viewBox="0 0 80 80" fill="none" xmlns="http://www.w3.org/2000/svg">
<g filter="url(#filter0_d_602_998)">
<rect x="8" y="6" width="64" height="64" rx="5" fill="#212529"/>
<path d="M53.8836 17.1459L40.7418 40.6456C40.4704 41.1307 39.7734 41.1336 39.4979 40.6508L26.0956 17.1481C25.7956 16.6219 26.2454 15.9846 26.8416 16.0911L39.9976 18.4427C40.0815 18.4577 40.1674 18.4576 40.2513 18.4423L53.1321 16.0945C53.7263 15.9862 54.1784 16.6187 53.8836 17.1459Z" fill="url(#paint0_linear_602_998)"/>
<path d="M46.2644 13.0069L36.5391 14.9125C36.4614 14.9277 36.3909 14.9683 36.3388 15.028C36.2867 15.0876 36.2559 15.1628 36.2512 15.2419L35.653 25.3457C35.639 25.5837 35.8575 25.7684 36.0897 25.7148L38.7974 25.09C39.0508 25.0315 39.2797 25.2547 39.2276 25.5094L38.4232 29.4487C38.369 29.7137 38.6179 29.9405 38.8768 29.8619L40.5492 29.3537C40.8085 29.275 41.0576 29.5024 41.0028 29.7677L39.7244 35.9554C39.6444 36.3424 40.1592 36.5534 40.3739 36.2216L40.5173 36L48.442 20.1848C48.5747 19.92 48.346 19.6181 48.055 19.6742L45.268 20.2121C45.006 20.2626 44.7832 20.0187 44.8571 19.7624L46.6762 13.4564C46.7502 13.1996 46.5266 12.9555 46.2644 13.0069Z" fill="url(#paint1_linear_602_998)"/>
<path d="M32.2648 61C32.1487 61 32.0566 60.9693 31.9883 60.9078C31.9201 60.8464 31.8723 60.7747 31.845 60.6928L29.756 54.1392C29.7423 54.1051 29.7355 54.0743 29.7355 54.047C29.7355 53.9924 29.756 53.9446 29.797 53.9037C29.8447 53.8559 29.8994 53.832 29.9608 53.832H31.2306C31.3398 53.832 31.4251 53.8627 31.4866 53.9242C31.548 53.9856 31.5855 54.0436 31.5992 54.0982L33.043 58.8291L34.4971 54.0982C34.5176 54.0436 34.5551 53.9856 34.6098 53.9242C34.6712 53.8627 34.7565 53.832 34.8658 53.832H36.1355C36.197 53.832 36.2482 53.8559 36.2891 53.9037C36.3369 53.9446 36.3608 53.9924 36.3608 54.047C36.3608 54.0743 36.354 54.1051 36.3403 54.1392L34.2514 60.6928C34.2241 60.7747 34.1763 60.8464 34.108 60.9078C34.0466 60.9693 33.9544 61 33.8315 61H32.2648ZM37.3102 61C37.2351 61 37.1736 60.9761 37.1258 60.9283C37.0781 60.8805 37.0542 60.8191 37.0542 60.744V55.9312C37.0542 55.8561 37.0781 55.7947 37.1258 55.7469C37.1736 55.6991 37.2351 55.6752 37.3102 55.6752H38.5185C38.5867 55.6752 38.6448 55.6991 38.6926 55.7469C38.7472 55.7947 38.7745 55.8561 38.7745 55.9312V60.744C38.7745 60.8191 38.7472 60.8805 38.6926 60.9283C38.6448 60.9761 38.5867 61 38.5185 61H37.3102ZM37.2999 54.9072C37.2248 54.9072 37.1634 54.8833 37.1156 54.8355C37.0678 54.7877 37.0439 54.7263 37.0439 54.6512V53.7398C37.0439 53.6647 37.0678 53.6033 37.1156 53.5555C37.1634 53.5009 37.2248 53.4736 37.2999 53.4736H38.5185C38.5936 53.4736 38.655 53.5009 38.7028 53.5555C38.7574 53.6033 38.7847 53.6647 38.7847 53.7398V54.6512C38.7847 54.7263 38.7574 54.7877 38.7028 54.8355C38.655 54.8833 38.5936 54.9072 38.5185 54.9072H37.2999ZM42.698 61C42.2611 61 41.8822 60.9317 41.5614 60.7952C41.2473 60.6518 41.005 60.4334 40.8343 60.1398C40.6637 59.8395 40.5783 59.4538 40.5783 58.9827V57.0166H39.7796C39.7045 57.0166 39.6397 56.9927 39.585 56.945C39.5373 56.8972 39.5134 56.8357 39.5134 56.7606V55.9312C39.5134 55.8561 39.5373 55.7947 39.585 55.7469C39.6397 55.6991 39.7045 55.6752 39.7796 55.6752H40.5783V53.9856C40.5783 53.9105 40.6022 53.8491 40.65 53.8013C40.7046 53.7535 40.7661 53.7296 40.8343 53.7296H42.0222C42.0973 53.7296 42.1587 53.7535 42.2065 53.8013C42.2543 53.8491 42.2782 53.9105 42.2782 53.9856V55.6752H43.5582C43.6333 55.6752 43.6947 55.6991 43.7425 55.7469C43.7903 55.7947 43.8142 55.8561 43.8142 55.9312V56.7606C43.8142 56.8357 43.7903 56.8972 43.7425 56.945C43.6947 56.9927 43.6333 57.0166 43.5582 57.0166H42.2782V58.8394C42.2782 59.0715 42.3225 59.2558 42.4113 59.3923C42.5 59.5289 42.6502 59.5971 42.8618 59.5971H43.6503C43.7254 59.5971 43.7869 59.621 43.8346 59.6688C43.8824 59.7166 43.9063 59.778 43.9063 59.8531V60.744C43.9063 60.8191 43.8824 60.8805 43.8346 60.9283C43.7869 60.9761 43.7254 61 43.6503 61H42.698ZM47.2118 61.1024C46.4062 61.1024 45.7645 60.8839 45.2866 60.447C44.8088 60.0101 44.5596 59.3616 44.5391 58.5014C44.5391 58.4537 44.5391 58.3922 44.5391 58.3171C44.5391 58.242 44.5391 58.184 44.5391 58.143C44.5596 57.6037 44.6791 57.1429 44.8975 56.7606C45.1228 56.3715 45.43 56.078 45.8191 55.88C46.2151 55.6752 46.6759 55.5728 47.2015 55.5728C47.8023 55.5728 48.2972 55.6923 48.6863 55.9312C49.0823 56.1701 49.3792 56.4944 49.5772 56.904C49.7752 57.3136 49.8742 57.7812 49.8742 58.3069V58.5526C49.8742 58.6277 49.8469 58.6892 49.7922 58.737C49.7445 58.7847 49.6864 58.8086 49.6182 58.8086H46.3414C46.3414 58.8155 46.3414 58.8257 46.3414 58.8394C46.3414 58.853 46.3414 58.8667 46.3414 58.8803C46.3482 59.0783 46.3823 59.2592 46.4438 59.423C46.5052 59.5869 46.6008 59.7166 46.7305 59.8122C46.8602 59.9077 47.0172 59.9555 47.2015 59.9555C47.3381 59.9555 47.4507 59.935 47.5394 59.8941C47.635 59.8463 47.7135 59.7951 47.775 59.7405C47.8364 59.679 47.8842 59.6278 47.9183 59.5869C47.9798 59.5186 48.0275 59.4777 48.0617 59.464C48.1026 59.4435 48.1641 59.4333 48.246 59.4333H49.5158C49.584 59.4333 49.6386 59.4538 49.6796 59.4947C49.7274 59.5289 49.7479 59.5801 49.741 59.6483C49.7342 59.7644 49.6762 59.9043 49.567 60.0682C49.4577 60.232 49.2973 60.3958 49.0857 60.5597C48.8809 60.7167 48.6215 60.8464 48.3074 60.9488C47.9934 61.0512 47.6282 61.1024 47.2118 61.1024ZM46.3414 57.7949H48.0719V57.7744C48.0719 57.5559 48.0378 57.3648 47.9695 57.201C47.9081 57.0371 47.8091 56.9108 47.6726 56.8221C47.5429 56.7333 47.3858 56.689 47.2015 56.689C47.0172 56.689 46.8602 56.7333 46.7305 56.8221C46.6076 56.9108 46.512 57.0371 46.4438 57.201C46.3755 57.3648 46.3414 57.5559 46.3414 57.7744V57.7949Z" fill="#E5E5E5"/>
</g>
<defs>
<filter id="filter0_d_602_998" x="0" y="0" width="80" height="80" filterUnits="userSpaceOnUse" color-interpolation-filters="sRGB">
<feFlood flood-opacity="0" result="BackgroundImageFix"/>
<feColorMatrix in="SourceAlpha" type="matrix" values="0 0 0 0 0 0 0 0 0 0 0 0 0 0 0 0 0 0 127 0" result="hardAlpha"/>
<feOffset dy="2"/>
<feGaussianBlur stdDeviation="4"/>
<feColorMatrix type="matrix" values="0 0 0 0 0 0 0 0 0 0 0 0 0 0 0 0 0 0 0.75 0"/>
<feBlend mode="normal" in2="BackgroundImageFix" result="effect1_dropShadow_602_998"/>
<feBlend mode="normal" in="SourceGraphic" in2="effect1_dropShadow_602_998" result="shape"/>
</filter>
<linearGradient id="paint0_linear_602_998" x1="25.7683" y1="15.2512" x2="42.1235" y2="37.4628" gradientUnits="userSpaceOnUse">
<stop stop-color="#41D1FF"/>
<stop offset="1" stop-color="#BD34FE"/>
</linearGradient>
<linearGradient id="paint1_linear_602_998" x1="39.2418" y1="13.5242" x2="42.2003" y2="33.8197" gradientUnits="userSpaceOnUse">
<stop stop-color="#FFEA83"/>
<stop offset="0.0833" stop-color="#FFDD35"/>
<stop offset="1" stop-color="#FFA800"/>
</linearGradient>
</defs>
</svg>
