<svg width="80" height="80" viewBox="0 0 80 80" fill="none" xmlns="http://www.w3.org/2000/svg">
<g filter="url(#filter0_d_601_4623)">
<rect x="8" y="6" width="64" height="64" rx="5" fill="#212529"/>
<path d="M53.01 16.0299L47.244 13.2539C46.9184 13.0969 46.552 13.0451 46.1956 13.1057C45.8392 13.1662 45.5105 13.3362 45.255 13.5919L26.38 30.7999C26.151 31.0077 26.0139 31.298 25.9989 31.6069C25.9839 31.9157 26.0922 32.2179 26.3 32.4469C26.325 32.4739 26.35 32.4999 26.377 32.5239L27.918 33.9239C28.1194 34.1072 28.3786 34.2141 28.6506 34.2262C28.9226 34.2383 29.1902 34.1547 29.407 33.9899L52.142 16.7499C52.3138 16.6196 52.5184 16.5398 52.7331 16.5195C52.9477 16.4993 53.1637 16.5393 53.3568 16.6351C53.5499 16.7309 53.7124 16.8787 53.826 17.0619C53.9397 17.2451 53.9999 17.4564 54 17.6719V17.6049C54 17.2758 53.9071 16.9534 53.7319 16.6748C53.5568 16.3962 53.3066 16.1726 53.01 16.0299Z" fill="#0065A9"/>
<path d="M53.01 37.9699L47.244 40.7469C46.9183 40.9035 46.552 40.955 46.1957 40.8945C45.8394 40.8339 45.5107 40.6643 45.255 40.4089L26.38 23.1999C26.151 22.9921 26.0139 22.7018 25.9989 22.393C25.9839 22.0841 26.0922 21.7819 26.3 21.5529C26.325 21.5259 26.35 21.4999 26.377 21.4759L27.918 20.0759C28.1196 19.8919 28.3794 19.7844 28.6521 19.7724C28.9247 19.7603 29.193 19.8444 29.41 20.0099L52.142 37.2499C52.3138 37.3802 52.5184 37.46 52.7331 37.4803C52.9477 37.5006 53.1637 37.4606 53.3568 37.3647C53.5499 37.2689 53.7124 37.1211 53.826 36.9379C53.9397 36.7547 53.9999 36.5435 54 36.3279V36.3999C53.999 36.7281 53.9055 37.0494 53.7305 37.3271C53.5554 37.6047 53.3057 37.8275 53.01 37.9699Z" fill="#007ACC"/>
<path d="M47.244 40.7469C46.9183 40.9035 46.552 40.9551 46.1957 40.8945C45.8394 40.834 45.5107 40.6643 45.255 40.4089C45.3986 40.5507 45.5808 40.6469 45.7789 40.6855C45.9769 40.7241 46.1819 40.7034 46.3683 40.626C46.5546 40.5486 46.7139 40.4179 46.8263 40.2503C46.9387 40.0827 46.9991 39.8857 47 39.6839V14.3159C47.0001 14.1132 46.9401 13.915 46.8276 13.7464C46.715 13.5779 46.5549 13.4465 46.3676 13.369C46.1803 13.2914 45.9742 13.2712 45.7755 13.3109C45.5767 13.3506 45.3941 13.4484 45.251 13.5919C45.5065 13.3363 45.8352 13.1663 46.1915 13.1056C46.5478 13.0449 46.9142 13.0964 47.24 13.2529L53.005 16.0249C53.3025 16.1669 53.5537 16.3902 53.7298 16.6688C53.9058 16.9475 53.9995 17.2703 54 17.5999V36.3999C54.0001 36.7293 53.9071 37.052 53.7317 37.3308C53.5564 37.6097 53.3059 37.8333 53.009 37.9759L47.244 40.7469Z" fill="#1F9CF0"/>
<path d="M24.1848 61C24.0687 61 23.9766 60.9693 23.9083 60.9078C23.8401 60.8464 23.7923 60.7747 23.765 60.6928L21.676 54.1392C21.6623 54.1051 21.6555 54.0743 21.6555 54.047C21.6555 53.9924 21.676 53.9446 21.717 53.9037C21.7647 53.8559 21.8194 53.832 21.8808 53.832H23.1506C23.2598 53.832 23.3451 53.8627 23.4066 53.9242C23.468 53.9856 23.5055 54.0436 23.5192 54.0982L24.963 58.8291L26.4171 54.0982C26.4376 54.0436 26.4751 53.9856 26.5298 53.9242C26.5912 53.8627 26.6765 53.832 26.7858 53.832H28.0555C28.117 53.832 28.1682 53.8559 28.2091 53.9037C28.2569 53.9446 28.2808 53.9924 28.2808 54.047C28.2808 54.0743 28.274 54.1051 28.2603 54.1392L26.1714 60.6928C26.1441 60.7747 26.0963 60.8464 26.028 60.9078C25.9666 60.9693 25.8744 61 25.7515 61H24.1848ZM31.6694 61.1024C30.9868 61.1024 30.4202 61.0068 29.9696 60.8157C29.519 60.6177 29.1777 60.3617 28.9456 60.0477C28.7135 59.7337 28.5906 59.3991 28.577 59.0442C28.577 58.9895 28.5974 58.9418 28.6384 58.9008C28.6862 58.853 28.7408 58.8291 28.8022 58.8291H30.0925C30.1881 58.8291 30.2597 58.8462 30.3075 58.8803C30.3621 58.9145 30.4099 58.9588 30.4509 59.0134C30.5055 59.1158 30.5806 59.2148 30.6762 59.3104C30.7786 59.406 30.9083 59.4845 31.0653 59.5459C31.2291 59.6005 31.4305 59.6278 31.6694 59.6278C32.0654 59.6278 32.3623 59.5664 32.5603 59.4435C32.7651 59.3206 32.8675 59.1534 32.8675 58.9418C32.8675 58.7916 32.8129 58.6687 32.7037 58.5731C32.5945 58.4707 32.417 58.382 32.1712 58.3069C31.9323 58.225 31.6114 58.143 31.2086 58.0611C30.6898 57.9519 30.2461 57.8119 29.8774 57.6413C29.5156 57.4638 29.2391 57.2351 29.048 56.9552C28.8569 56.6685 28.7613 56.3135 28.7613 55.8902C28.7613 55.4738 28.8773 55.1018 29.1094 54.7741C29.3484 54.4464 29.6795 54.1904 30.1027 54.0061C30.526 53.8218 31.0277 53.7296 31.608 53.7296C32.079 53.7296 32.4921 53.791 32.847 53.9139C33.2089 54.0368 33.5126 54.2006 33.7584 54.4054C34.0042 54.6102 34.1885 54.8287 34.3114 55.0608C34.4411 55.2861 34.5093 55.5079 34.5162 55.7264C34.5162 55.781 34.4957 55.8322 34.4547 55.88C34.4138 55.921 34.3626 55.9414 34.3011 55.9414H32.9494C32.8743 55.9414 32.8095 55.9278 32.7549 55.9005C32.7003 55.8732 32.6525 55.8288 32.6115 55.7674C32.5706 55.6172 32.4613 55.4875 32.2838 55.3782C32.1132 55.2622 31.8879 55.2042 31.608 55.2042C31.3076 55.2042 31.0721 55.2588 30.9014 55.368C30.7376 55.4704 30.6557 55.6308 30.6557 55.8493C30.6557 55.9858 30.7001 56.1053 30.7888 56.2077C30.8844 56.3101 31.038 56.3988 31.2496 56.4739C31.4681 56.549 31.765 56.6275 32.1405 56.7094C32.7617 56.8255 33.2635 56.9723 33.6458 57.1498C34.0281 57.3204 34.3079 57.5457 34.4854 57.8256C34.6629 58.0987 34.7517 58.4434 34.7517 58.8598C34.7517 59.3241 34.6186 59.7268 34.3523 60.0682C34.0929 60.4027 33.7311 60.6587 33.2669 60.8362C32.8027 61.0137 32.2702 61.1024 31.6694 61.1024ZM38.1115 61.1024C37.6063 61.1024 37.1592 61.0102 36.7701 60.8259C36.381 60.6416 36.0703 60.3754 35.8382 60.0272C35.613 59.6722 35.4901 59.249 35.4696 58.7574C35.4628 58.6482 35.4594 58.5117 35.4594 58.3478C35.4594 58.1772 35.4628 58.0372 35.4696 57.928C35.4901 57.4297 35.613 57.0064 35.8382 56.6582C36.0635 56.3033 36.3707 56.0336 36.7598 55.8493C37.1558 55.665 37.6063 55.5728 38.1115 55.5728C38.5826 55.5728 38.9853 55.6411 39.3198 55.7776C39.6543 55.9073 39.9274 56.0711 40.139 56.2691C40.3507 56.4671 40.5077 56.6719 40.6101 56.8835C40.7193 57.0883 40.7773 57.2692 40.7842 57.4262C40.791 57.4945 40.7671 57.5559 40.7125 57.6106C40.6579 57.6583 40.5964 57.6822 40.5282 57.6822H39.2277C39.1526 57.6822 39.0946 57.6652 39.0536 57.631C39.0126 57.5969 38.9751 57.5457 38.941 57.4774C38.859 57.2658 38.7532 57.1156 38.6235 57.0269C38.5006 56.9381 38.3402 56.8938 38.1422 56.8938C37.8692 56.8938 37.6575 56.9825 37.5074 57.16C37.364 57.3375 37.2855 57.6106 37.2718 57.9792C37.265 58.2523 37.265 58.4946 37.2718 58.7062C37.2855 59.0817 37.364 59.3548 37.5074 59.5254C37.6575 59.6961 37.8692 59.7814 38.1422 59.7814C38.3539 59.7814 38.5211 59.7371 38.644 59.6483C38.7669 59.5596 38.8659 59.4094 38.941 59.1978C38.9751 59.1295 39.0126 59.0783 39.0536 59.0442C39.0946 59.01 39.1526 58.993 39.2277 58.993H40.5282C40.5964 58.993 40.6579 59.0203 40.7125 59.0749C40.7671 59.1227 40.791 59.1807 40.7842 59.249C40.7773 59.365 40.7432 59.5015 40.6818 59.6586C40.6203 59.8087 40.5247 59.9692 40.395 60.1398C40.2653 60.3105 40.0947 60.4709 39.883 60.6211C39.6782 60.7645 39.4291 60.8805 39.1355 60.9693C38.842 61.058 38.5006 61.1024 38.1115 61.1024ZM44.2232 61.1024C43.6498 61.1024 43.1651 61.0102 42.7691 60.8259C42.38 60.6416 42.0796 60.3788 41.868 60.0374C41.6632 59.6893 41.5471 59.2763 41.5198 58.7984C41.513 58.6619 41.5096 58.5083 41.5096 58.3376C41.5096 58.1601 41.513 58.0065 41.5198 57.8768C41.5471 57.3921 41.67 56.9791 41.8885 56.6378C42.1069 56.2964 42.4107 56.0336 42.7998 55.8493C43.1958 55.665 43.6702 55.5728 44.2232 55.5728C44.783 55.5728 45.2574 55.665 45.6466 55.8493C46.0425 56.0336 46.3497 56.2964 46.5682 56.6378C46.7866 56.9791 46.9095 57.3921 46.9368 57.8768C46.9436 58.0065 46.947 58.1601 46.947 58.3376C46.947 58.5083 46.9436 58.6619 46.9368 58.7984C46.9095 59.2763 46.79 59.6893 46.5784 60.0374C46.3736 60.3788 46.0732 60.6416 45.6773 60.8259C45.2882 61.0102 44.8035 61.1024 44.2232 61.1024ZM44.2232 59.8531C44.5304 59.8531 44.7523 59.761 44.8888 59.5766C45.0322 59.3923 45.1141 59.1158 45.1346 58.7472C45.1414 58.6448 45.1448 58.5083 45.1448 58.3376C45.1448 58.1669 45.1414 58.0304 45.1346 57.928C45.1141 57.5662 45.0322 57.2931 44.8888 57.1088C44.7523 56.9177 44.5304 56.8221 44.2232 56.8221C43.9228 56.8221 43.701 56.9177 43.5576 57.1088C43.4142 57.2931 43.3357 57.5662 43.3221 57.928C43.3153 58.0304 43.3118 58.1669 43.3118 58.3376C43.3118 58.5083 43.3153 58.6448 43.3221 58.7472C43.3357 59.1158 43.4142 59.3923 43.5576 59.5766C43.701 59.761 43.9228 59.8531 44.2232 59.8531ZM49.9407 61.1024C49.613 61.1024 49.3161 61.0512 49.0498 60.9488C48.7904 60.8396 48.5651 60.6826 48.374 60.4778C48.1897 60.2661 48.0463 60.0135 47.9439 59.72C47.8415 59.4196 47.7835 59.0783 47.7698 58.696C47.763 58.5595 47.7596 58.44 47.7596 58.3376C47.7596 58.2284 47.763 58.1089 47.7698 57.9792C47.7835 57.6106 47.8415 57.2795 47.9439 56.9859C48.0463 56.6924 48.1897 56.4398 48.374 56.2282C48.5583 56.0165 48.7836 55.8561 49.0498 55.7469C49.3161 55.6308 49.613 55.5728 49.9407 55.5728C50.2821 55.5728 50.5756 55.6308 50.8214 55.7469C51.0671 55.8561 51.2753 55.9995 51.446 56.177V53.9856C51.446 53.9105 51.4699 53.8491 51.5177 53.8013C51.5655 53.7535 51.6269 53.7296 51.702 53.7296H52.9513C53.0195 53.7296 53.0776 53.7535 53.1254 53.8013C53.18 53.8491 53.2073 53.9105 53.2073 53.9856V60.744C53.2073 60.8191 53.18 60.8805 53.1254 60.9283C53.0776 60.9761 53.0195 61 52.9513 61H51.7942C51.7191 61 51.6576 60.9761 51.6098 60.9283C51.5621 60.8805 51.5382 60.8191 51.5382 60.744V60.4163C51.3743 60.6143 51.1627 60.7781 50.9033 60.9078C50.6439 61.0375 50.323 61.1024 49.9407 61.1024ZM50.4937 59.7302C50.7258 59.7302 50.9067 59.6825 51.0364 59.5869C51.1729 59.4845 51.2719 59.3548 51.3334 59.1978C51.4016 59.0407 51.4392 58.8701 51.446 58.6858C51.4528 58.5492 51.4562 58.4195 51.4562 58.2966C51.4562 58.1738 51.4528 58.0475 51.446 57.9178C51.4392 57.7471 51.4016 57.5901 51.3334 57.4467C51.2651 57.2965 51.1627 57.1771 51.0262 57.0883C50.8896 56.9927 50.7121 56.945 50.4937 56.945C50.2684 56.945 50.0875 56.9927 49.951 57.0883C49.8213 57.1839 49.7291 57.3136 49.6745 57.4774C49.6199 57.6413 49.5857 57.8222 49.5721 58.0202C49.5516 58.2318 49.5516 58.4434 49.5721 58.655C49.5857 58.853 49.6199 59.0339 49.6745 59.1978C49.7291 59.3616 49.8213 59.4913 49.951 59.5869C50.0875 59.6825 50.2684 59.7302 50.4937 59.7302ZM56.8718 61.1024C56.0662 61.1024 55.4245 60.8839 54.9466 60.447C54.4688 60.0101 54.2196 59.3616 54.1991 58.5014C54.1991 58.4537 54.1991 58.3922 54.1991 58.3171C54.1991 58.242 54.1991 58.184 54.1991 58.143C54.2196 57.6037 54.3391 57.1429 54.5575 56.7606C54.7828 56.3715 55.09 56.078 55.4791 55.88C55.8751 55.6752 56.3359 55.5728 56.8615 55.5728C57.4623 55.5728 57.9572 55.6923 58.3463 55.9312C58.7423 56.1701 59.0392 56.4944 59.2372 56.904C59.4352 57.3136 59.5342 57.7812 59.5342 58.3069V58.5526C59.5342 58.6277 59.5069 58.6892 59.4522 58.737C59.4045 58.7847 59.3464 58.8086 59.2782 58.8086H56.0014C56.0014 58.8155 56.0014 58.8257 56.0014 58.8394C56.0014 58.853 56.0014 58.8667 56.0014 58.8803C56.0082 59.0783 56.0423 59.2592 56.1038 59.423C56.1652 59.5869 56.2608 59.7166 56.3905 59.8122C56.5202 59.9077 56.6772 59.9555 56.8615 59.9555C56.9981 59.9555 57.1107 59.935 57.1994 59.8941C57.295 59.8463 57.3735 59.7951 57.435 59.7405C57.4964 59.679 57.5442 59.6278 57.5783 59.5869C57.6398 59.5186 57.6875 59.4777 57.7217 59.464C57.7626 59.4435 57.8241 59.4333 57.906 59.4333H59.1758C59.244 59.4333 59.2986 59.4538 59.3396 59.4947C59.3874 59.5289 59.4079 59.5801 59.401 59.6483C59.3942 59.7644 59.3362 59.9043 59.227 60.0682C59.1177 60.232 58.9573 60.3958 58.7457 60.5597C58.5409 60.7167 58.2815 60.8464 57.9674 60.9488C57.6534 61.0512 57.2882 61.1024 56.8718 61.1024ZM56.0014 57.7949H57.7319V57.7744C57.7319 57.5559 57.6978 57.3648 57.6295 57.201C57.5681 57.0371 57.4691 56.9108 57.3326 56.8221C57.2029 56.7333 57.0458 56.689 56.8615 56.689C56.6772 56.689 56.5202 56.7333 56.3905 56.8221C56.2676 56.9108 56.172 57.0371 56.1038 57.201C56.0355 57.3648 56.0014 57.5559 56.0014 57.7744V57.7949Z" fill="#E5E5E5"/>
</g>
<defs>
<filter id="filter0_d_601_4623" x="0" y="0" width="80" height="80" filterUnits="userSpaceOnUse" color-interpolation-filters="sRGB">
<feFlood flood-opacity="0" result="BackgroundImageFix"/>
<feColorMatrix in="SourceAlpha" type="matrix" values="0 0 0 0 0 0 0 0 0 0 0 0 0 0 0 0 0 0 127 0" result="hardAlpha"/>
<feOffset dy="2"/>
<feGaussianBlur stdDeviation="4"/>
<feColorMatrix type="matrix" values="0 0 0 0 0 0 0 0 0 0 0 0 0 0 0 0 0 0 0.75 0"/>
<feBlend mode="normal" in2="BackgroundImageFix" result="effect1_dropShadow_601_4623"/>
<feBlend mode="normal" in="SourceGraphic" in2="effect1_dropShadow_601_4623" result="shape"/>
</filter>
</defs>
</svg>
