<svg width="80" height="80" viewBox="0 0 80 80" fill="none" xmlns="http://www.w3.org/2000/svg">
<g filter="url(#filter0_d_602_1018)">
<rect x="8" y="6" width="64" height="64" rx="5" fill="#212529"/>
<path d="M39.9999 13.043L27.8999 20.032V34.011L39.9999 41L52.1059 34.011V20.032L39.9999 13.043Z" fill="url(#paint0_radial_602_1018)"/>
<path d="M40 20.1331L34 23.6001V30.5321L40 34.0001L46 30.5341V23.6001L40 20.1331Z" fill="#6F95DB"/>
<path d="M39.9999 13L27.8689 20.037L39.9999 26.642L52.1309 20.08L39.9999 13ZM39.9999 27.548L27.8689 33.981L39.9999 40.974L52.0879 33.937L39.9999 27.548Z" fill="white" fill-opacity="0.1"/>
<path d="M18.8637 61C18.7476 61 18.6555 60.9659 18.5872 60.8976C18.5189 60.8293 18.478 60.7508 18.4643 60.6621L17.3482 54.1187C17.3413 54.1051 17.3379 54.0914 17.3379 54.0778C17.3379 54.0641 17.3379 54.0539 17.3379 54.047C17.3379 53.9924 17.3584 53.9446 17.3994 53.9037C17.4471 53.8559 17.4983 53.832 17.553 53.832H18.8227C19.0139 53.832 19.1197 53.9071 19.1402 54.0573L19.8058 58.0611L20.543 55.6957C20.5635 55.6411 20.5977 55.583 20.6454 55.5216C20.6932 55.4533 20.7717 55.4192 20.881 55.4192H21.6182C21.7343 55.4192 21.8162 55.4533 21.864 55.5216C21.9118 55.583 21.9425 55.6411 21.9562 55.6957L22.6934 58.0509L23.359 54.0573C23.3795 53.9071 23.4853 53.832 23.6765 53.832H24.9462C25.0077 53.832 25.0589 53.8559 25.0998 53.9037C25.1408 53.9446 25.1613 53.9924 25.1613 54.047C25.1613 54.0539 25.1613 54.0641 25.1613 54.0778C25.1613 54.0914 25.1613 54.1051 25.1613 54.1187L24.0451 60.6621C24.0315 60.7508 23.9905 60.8293 23.9222 60.8976C23.854 60.9659 23.7618 61 23.6458 61H22.673C22.5569 61 22.4682 60.9693 22.4067 60.9078C22.3453 60.8464 22.3043 60.7884 22.2838 60.7338L21.2496 57.8051L20.2154 60.7338C20.1949 60.7884 20.1539 60.8464 20.0925 60.9078C20.0379 60.9693 19.9525 61 19.8365 61H18.8637ZM28.3718 61.1024C27.5662 61.1024 26.9245 60.8839 26.4466 60.447C25.9688 60.0101 25.7196 59.3616 25.6991 58.5014C25.6991 58.4537 25.6991 58.3922 25.6991 58.3171C25.6991 58.242 25.6991 58.184 25.6991 58.143C25.7196 57.6037 25.8391 57.1429 26.0575 56.7606C26.2828 56.3715 26.59 56.078 26.9791 55.88C27.3751 55.6752 27.8359 55.5728 28.3615 55.5728C28.9623 55.5728 29.4572 55.6923 29.8463 55.9312C30.2423 56.1701 30.5392 56.4944 30.7372 56.904C30.9352 57.3136 31.0342 57.7812 31.0342 58.3069V58.5526C31.0342 58.6277 31.0069 58.6892 30.9522 58.737C30.9045 58.7847 30.8464 58.8086 30.7782 58.8086H27.5014C27.5014 58.8155 27.5014 58.8257 27.5014 58.8394C27.5014 58.853 27.5014 58.8667 27.5014 58.8803C27.5082 59.0783 27.5423 59.2592 27.6038 59.423C27.6652 59.5869 27.7608 59.7166 27.8905 59.8122C28.0202 59.9077 28.1772 59.9555 28.3615 59.9555C28.4981 59.9555 28.6107 59.935 28.6994 59.8941C28.795 59.8463 28.8735 59.7951 28.935 59.7405C28.9964 59.679 29.0442 59.6278 29.0783 59.5869C29.1398 59.5186 29.1875 59.4777 29.2217 59.464C29.2626 59.4435 29.3241 59.4333 29.406 59.4333H30.6758C30.744 59.4333 30.7986 59.4538 30.8396 59.4947C30.8874 59.5289 30.9079 59.5801 30.901 59.6483C30.8942 59.7644 30.8362 59.9043 30.727 60.0682C30.6177 60.232 30.4573 60.3958 30.2457 60.5597C30.0409 60.7167 29.7815 60.8464 29.4674 60.9488C29.1534 61.0512 28.7882 61.1024 28.3718 61.1024ZM27.5014 57.7949H29.2319V57.7744C29.2319 57.5559 29.1978 57.3648 29.1295 57.201C29.0681 57.0371 28.9691 56.9108 28.8326 56.8221C28.7029 56.7333 28.5458 56.689 28.3615 56.689C28.1772 56.689 28.0202 56.7333 27.8905 56.8221C27.7676 56.9108 27.672 57.0371 27.6038 57.201C27.5355 57.3648 27.5014 57.5559 27.5014 57.7744V57.7949ZM35.2505 61.1024C34.8682 61.1024 34.5473 61.0375 34.2879 60.9078C34.0353 60.7781 33.8271 60.6143 33.6633 60.4163V60.744C33.6633 60.8191 33.636 60.8805 33.5814 60.9283C33.5336 60.9761 33.4755 61 33.4073 61H32.2502C32.1751 61 32.1136 60.9761 32.0658 60.9283C32.0181 60.8805 31.9942 60.8191 31.9942 60.744V53.9856C31.9942 53.9105 32.0181 53.8491 32.0658 53.8013C32.1136 53.7535 32.1751 53.7296 32.2502 53.7296H33.4994C33.5745 53.7296 33.636 53.7535 33.6838 53.8013C33.7315 53.8491 33.7554 53.9105 33.7554 53.9856V56.177C33.9193 55.9995 34.1241 55.8561 34.3698 55.7469C34.6224 55.6308 34.916 55.5728 35.2505 55.5728C35.5918 55.5728 35.8922 55.6308 36.1516 55.7469C36.4178 55.8561 36.6431 56.0165 36.8274 56.2282C37.0118 56.4398 37.1551 56.6924 37.2575 56.9859C37.3599 57.2795 37.4179 57.6106 37.4316 57.9792C37.4384 58.1089 37.4418 58.2284 37.4418 58.3376C37.4418 58.44 37.4384 58.5595 37.4316 58.696C37.4179 59.0783 37.3565 59.4196 37.2473 59.72C37.1449 60.0135 37.0015 60.2661 36.8172 60.4778C36.6329 60.6826 36.411 60.8396 36.1516 60.9488C35.8922 61.0512 35.5918 61.1024 35.2505 61.1024ZM34.6975 59.7302C34.9296 59.7302 35.1105 59.6825 35.2402 59.5869C35.3699 59.4913 35.4621 59.3616 35.5167 59.1978C35.5782 59.0339 35.6157 58.853 35.6294 58.655C35.643 58.4434 35.643 58.2318 35.6294 58.0202C35.6157 57.8222 35.5782 57.6413 35.5167 57.4774C35.4621 57.3136 35.3699 57.1839 35.2402 57.0883C35.1105 56.9927 34.9296 56.945 34.6975 56.945C34.4859 56.945 34.3118 56.9927 34.1753 57.0883C34.0387 57.1771 33.9363 57.2965 33.8681 57.4467C33.7998 57.5901 33.7623 57.7471 33.7554 57.9178C33.7486 58.0475 33.7452 58.1738 33.7452 58.2966C33.7452 58.4195 33.7486 58.5492 33.7554 58.6858C33.7623 58.8701 33.7964 59.0407 33.8578 59.1978C33.9193 59.3548 34.0183 59.4845 34.1548 59.5869C34.2913 59.6825 34.4722 59.7302 34.6975 59.7302ZM38.7102 62.9456C38.6351 62.9456 38.5736 62.9217 38.5258 62.8739C38.4781 62.8261 38.4542 62.7647 38.4542 62.6896V55.9312C38.4542 55.8561 38.4781 55.7947 38.5258 55.7469C38.5736 55.6991 38.6351 55.6752 38.7102 55.6752H39.8673C39.9355 55.6752 39.9936 55.6991 40.0414 55.7469C40.096 55.7947 40.1233 55.8561 40.1233 55.9312V56.3101C40.2803 56.0985 40.4885 55.9244 40.7479 55.7878C41.0073 55.6445 41.3282 55.5728 41.7105 55.5728C42.0518 55.5728 42.3522 55.6274 42.6116 55.7366C42.871 55.839 43.0929 55.9926 43.2772 56.1974C43.4615 56.4022 43.6049 56.6514 43.7073 56.945C43.8165 57.2385 43.8779 57.5764 43.8916 57.9587C43.8984 58.0953 43.9018 58.2215 43.9018 58.3376C43.9018 58.4537 43.8984 58.5799 43.8916 58.7165C43.8779 59.0851 43.8199 59.4162 43.7175 59.7098C43.6151 60.0033 43.4718 60.2525 43.2874 60.4573C43.1031 60.6621 42.8778 60.8225 42.6116 60.9386C42.3522 61.0478 42.0518 61.1024 41.7105 61.1024C41.376 61.1024 41.0824 61.0444 40.8298 60.9283C40.5841 60.8054 40.3793 60.6348 40.2154 60.4163V62.6896C40.2154 62.7647 40.1915 62.8261 40.1438 62.8739C40.096 62.9217 40.0345 62.9456 39.9594 62.9456H38.7102ZM41.1575 59.7302C41.3896 59.7302 41.5705 59.6825 41.7002 59.5869C41.8299 59.4913 41.9221 59.3616 41.9767 59.1978C42.0382 59.0339 42.0757 58.853 42.0894 58.655C42.103 58.4434 42.103 58.2318 42.0894 58.0202C42.0757 57.8222 42.0382 57.6413 41.9767 57.4774C41.9221 57.3136 41.8299 57.1839 41.7002 57.0883C41.5705 56.9927 41.3896 56.945 41.1575 56.945C40.9322 56.945 40.7513 56.9962 40.6148 57.0986C40.4783 57.1941 40.3793 57.3204 40.3178 57.4774C40.2564 57.6345 40.2223 57.8051 40.2154 57.9894C40.2086 58.1191 40.2052 58.2454 40.2052 58.3683C40.2052 58.4912 40.2086 58.6209 40.2154 58.7574C40.2223 58.9281 40.2598 59.0885 40.3281 59.2387C40.3963 59.3821 40.4987 59.5015 40.6353 59.5971C40.7718 59.6859 40.9459 59.7302 41.1575 59.7302ZM46.5116 61.1024C46.143 61.1024 45.8119 61.0341 45.5183 60.8976C45.2316 60.7542 45.0029 60.5631 44.8322 60.3242C44.6616 60.0852 44.5762 59.8156 44.5762 59.5152C44.5762 59.0305 44.7742 58.6482 45.1702 58.3683C45.5661 58.0816 46.0918 57.887 46.7471 57.7846L48.0271 57.5901V57.4467C48.0271 57.201 47.9759 57.0132 47.8735 56.8835C47.7711 56.7538 47.5834 56.689 47.3103 56.689C47.1192 56.689 46.9622 56.7265 46.8393 56.8016C46.7232 56.8767 46.6311 56.9791 46.5628 57.1088C46.5014 57.1975 46.416 57.2419 46.3068 57.2419H45.1599C45.0848 57.2419 45.0268 57.2214 44.9858 57.1805C44.9449 57.1327 44.9278 57.0781 44.9346 57.0166C44.9346 56.8938 44.979 56.7538 45.0678 56.5968C45.1633 56.433 45.3067 56.2725 45.4978 56.1155C45.689 55.9585 45.9347 55.8288 46.2351 55.7264C46.5355 55.624 46.8973 55.5728 47.3206 55.5728C47.7643 55.5728 48.1432 55.624 48.4572 55.7264C48.7712 55.8288 49.0238 55.9722 49.215 56.1565C49.4129 56.3408 49.5597 56.5593 49.6553 56.8118C49.7509 57.0576 49.7986 57.3307 49.7986 57.631V60.744C49.7986 60.8191 49.7713 60.8805 49.7167 60.9283C49.6689 60.9761 49.6109 61 49.5426 61H48.3548C48.2797 61 48.2183 60.9761 48.1705 60.9283C48.1227 60.8805 48.0988 60.8191 48.0988 60.744V60.3856C48.0101 60.5153 47.8906 60.6348 47.7404 60.744C47.5902 60.8532 47.4127 60.9386 47.2079 61C47.0099 61.0683 46.7778 61.1024 46.5116 61.1024ZM46.9929 59.935C47.1909 59.935 47.3683 59.8941 47.5254 59.8122C47.6892 59.7234 47.8155 59.5903 47.9042 59.4128C47.9998 59.2285 48.0476 58.9998 48.0476 58.7267V58.5834L47.1772 58.737C46.8563 58.7916 46.6208 58.8769 46.4706 58.993C46.3273 59.1022 46.2556 59.2319 46.2556 59.3821C46.2556 59.4981 46.2897 59.5971 46.358 59.679C46.4263 59.761 46.515 59.8258 46.6242 59.8736C46.7335 59.9146 46.8563 59.935 46.9929 59.935ZM53.4015 61.1024C52.8963 61.1024 52.4492 61.0102 52.0601 60.8259C51.671 60.6416 51.3603 60.3754 51.1282 60.0272C50.903 59.6722 50.7801 59.249 50.7596 58.7574C50.7528 58.6482 50.7494 58.5117 50.7494 58.3478C50.7494 58.1772 50.7528 58.0372 50.7596 57.928C50.7801 57.4297 50.903 57.0064 51.1282 56.6582C51.3535 56.3033 51.6607 56.0336 52.0498 55.8493C52.4458 55.665 52.8963 55.5728 53.4015 55.5728C53.8726 55.5728 54.2753 55.6411 54.6098 55.7776C54.9443 55.9073 55.2174 56.0711 55.429 56.2691C55.6407 56.4671 55.7977 56.6719 55.9001 56.8835C56.0093 57.0883 56.0673 57.2692 56.0742 57.4262C56.081 57.4945 56.0571 57.5559 56.0025 57.6106C55.9479 57.6583 55.8864 57.6822 55.8182 57.6822H54.5177C54.4426 57.6822 54.3846 57.6652 54.3436 57.631C54.3026 57.5969 54.2651 57.5457 54.231 57.4774C54.149 57.2658 54.0432 57.1156 53.9135 57.0269C53.7906 56.9381 53.6302 56.8938 53.4322 56.8938C53.1592 56.8938 52.9475 56.9825 52.7974 57.16C52.654 57.3375 52.5755 57.6106 52.5618 57.9792C52.555 58.2523 52.555 58.4946 52.5618 58.7062C52.5755 59.0817 52.654 59.3548 52.7974 59.5254C52.9475 59.6961 53.1592 59.7814 53.4322 59.7814C53.6439 59.7814 53.8111 59.7371 53.934 59.6483C54.0569 59.5596 54.1559 59.4094 54.231 59.1978C54.2651 59.1295 54.3026 59.0783 54.3436 59.0442C54.3846 59.01 54.4426 58.993 54.5177 58.993H55.8182C55.8864 58.993 55.9479 59.0203 56.0025 59.0749C56.0571 59.1227 56.081 59.1807 56.0742 59.249C56.0673 59.365 56.0332 59.5015 55.9718 59.6586C55.9103 59.8087 55.8147 59.9692 55.685 60.1398C55.5553 60.3105 55.3847 60.4709 55.173 60.6211C54.9682 60.7645 54.7191 60.8805 54.4255 60.9693C54.132 61.058 53.7906 61.1024 53.4015 61.1024ZM57.2502 61C57.1751 61 57.1136 60.9761 57.0658 60.9283C57.0181 60.8805 56.9942 60.8191 56.9942 60.744V53.9856C56.9942 53.9105 57.0181 53.8491 57.0658 53.8013C57.1136 53.7535 57.1751 53.7296 57.2502 53.7296H58.438C58.5063 53.7296 58.5643 53.7535 58.6121 53.8013C58.6667 53.8491 58.694 53.9105 58.694 53.9856V57.416L60.1174 55.8493C60.1583 55.8015 60.2027 55.7605 60.2505 55.7264C60.2983 55.6923 60.3665 55.6752 60.4553 55.6752H61.8274C61.8889 55.6752 61.9401 55.6991 61.981 55.7469C62.0288 55.7878 62.0527 55.839 62.0527 55.9005C62.0527 55.9278 62.0459 55.9585 62.0322 55.9926C62.0186 56.0268 61.9981 56.0541 61.9708 56.0746L60.1276 58.0611L62.2268 60.6109C62.2814 60.6655 62.3087 60.7201 62.3087 60.7747C62.3087 60.8362 62.2848 60.8908 62.237 60.9386C62.1961 60.9795 62.1415 61 62.0732 61H60.6703C60.5679 61 60.4928 60.9829 60.445 60.9488C60.3973 60.9078 60.3529 60.8669 60.3119 60.8259L58.694 58.8803V60.744C58.694 60.8191 58.6667 60.8805 58.6121 60.9283C58.5643 60.9761 58.5063 61 58.438 61H57.2502Z" fill="#E5E5E5"/>
</g>
<defs>
<filter id="filter0_d_602_1018" x="0" y="0" width="80" height="80" filterUnits="userSpaceOnUse" color-interpolation-filters="sRGB">
<feFlood flood-opacity="0" result="BackgroundImageFix"/>
<feColorMatrix in="SourceAlpha" type="matrix" values="0 0 0 0 0 0 0 0 0 0 0 0 0 0 0 0 0 0 127 0" result="hardAlpha"/>
<feOffset dy="2"/>
<feGaussianBlur stdDeviation="4"/>
<feColorMatrix type="matrix" values="0 0 0 0 0 0 0 0 0 0 0 0 0 0 0 0 0 0 0.75 0"/>
<feBlend mode="normal" in2="BackgroundImageFix" result="effect1_dropShadow_602_1018"/>
<feBlend mode="normal" in="SourceGraphic" in2="effect1_dropShadow_602_1018" result="shape"/>
</filter>
<radialGradient id="paint0_radial_602_1018" cx="0" cy="0" r="1" gradientUnits="userSpaceOnUse" gradientTransform="translate(39.9046 26.1613) scale(12.9451 14.9477)">
<stop stop-color="#93B4E7"/>
<stop offset="0.593" stop-color="#B9D1F8"/>
<stop offset="1" stop-color="#9CB6E0"/>
</radialGradient>
</defs>
</svg>
