<svg width="80" height="80" viewBox="0 0 80 80" fill="none" xmlns="http://www.w3.org/2000/svg">
<g filter="url(#filter0_d_603_533)">
<rect x="8" y="6" width="64" height="64" rx="5" fill="#212529"/>
<g clip-path="url(#clip0_603_533)">
<path d="M24 17.6667H34.6667V13H25.3333C24.6 13 24 13.6 24 14.3333V17.6667Z" fill="#CCCCCC"/>
<path d="M45.3334 13H34.6667V17.6667H45.3334V13Z" fill="#999999"/>
<path d="M55.9999 17.6667H45.3333V13H54.6666C55.3999 13 55.9999 13.6 55.9999 14.3333V17.6667Z" fill="#666666"/>
<path d="M54.6667 37H25.3333C24.6 37 24 36.4 24 35.6667V17H56V35.6667C56 36.4 55.4 37 54.6667 37Z" fill="url(#paint0_linear_603_533)"/>
<g filter="url(#filter1_dd_603_533)">
<path d="M34.1333 25.2L28.2666 31.0667C27.9333 31.4 27.9333 31.8667 28.2666 32.1333L29.4666 33.3333C29.7999 33.6667 30.2666 33.6667 30.5333 33.3333L36.3999 27.4667C36.7333 27.1333 36.7333 26.6667 36.3999 26.4L35.1999 25.2C34.9333 24.9333 34.3999 24.9333 34.1333 25.2V25.2Z" fill="url(#paint1_linear_603_533)"/>
<mask id="mask0_603_533" style="mask-type:alpha" maskUnits="userSpaceOnUse" x="28" y="25" width="9" height="9">
<path d="M34.1333 25.2L28.2666 31.0667C27.9333 31.4 27.9333 31.8667 28.2666 32.1333L29.4666 33.3333C29.7999 33.6667 30.2666 33.6667 30.5333 33.3333L36.3999 27.4667C36.7333 27.1333 36.7333 26.6667 36.3999 26.4L35.1999 25.2C34.9333 24.9333 34.3999 24.9333 34.1333 25.2V25.2Z" fill="url(#paint2_linear_603_533)"/>
</mask>
<g mask="url(#mask0_603_533)">
<g filter="url(#filter2_dd_603_533)">
<path d="M30.5333 20.5333L36.3999 26.3999C36.7333 26.7333 36.7333 27.1999 36.3999 27.4666L35.1999 28.6666C34.8666 28.9999 34.3999 28.9999 34.1333 28.6666L28.2666 22.7999C27.9333 22.4666 27.9333 21.9999 28.2666 21.7333L29.4666 20.5333C29.7333 20.2666 30.2666 20.2666 30.5333 20.5333Z" fill="url(#paint3_linear_603_533)"/>
</g>
<path d="M30.5333 20.5333L36.3999 26.3999C36.7333 26.7333 36.7333 27.1999 36.3999 27.4666L35.1999 28.6666C34.8666 28.9999 34.3999 28.9999 34.1333 28.6666L28.2666 22.7999C27.9333 22.4666 27.9333 21.9999 28.2666 21.7333L29.4666 20.5333C29.7333 20.2666 30.2666 20.2666 30.5333 20.5333Z" fill="url(#paint4_linear_603_533)"/>
</g>
</g>
<g filter="url(#filter3_dd_603_533)">
<path d="M50.6666 30.3333H39.9999C39.5999 30.3333 39.3333 30.5999 39.3333 30.9999V32.9999C39.3333 33.3999 39.5999 33.6666 39.9999 33.6666H50.6666C51.0666 33.6666 51.3333 33.3999 51.3333 32.9999V30.9999C51.3333 30.5999 51.0666 30.3333 50.6666 30.3333Z" fill="url(#paint5_linear_603_533)"/>
</g>
</g>
<path d="M22.6392 55C22.5464 55 22.4727 54.9727 22.4181 54.9181C22.3635 54.8635 22.3307 54.8007 22.3198 54.7297L21.4271 49.4963C21.4216 49.4854 21.4189 49.4745 21.4189 49.4636C21.4189 49.4526 21.4189 49.4445 21.4189 49.439C21.4189 49.3953 21.4353 49.3571 21.468 49.3243C21.5062 49.2861 21.5472 49.267 21.5909 49.267H22.6064C22.7593 49.267 22.8439 49.3271 22.8603 49.4472L23.3927 52.6495L23.9823 50.7576C23.9987 50.7139 24.026 50.6675 24.0642 50.6184C24.1025 50.5638 24.1653 50.5365 24.2526 50.5365H24.8423C24.9351 50.5365 25.0006 50.5638 25.0389 50.6184C25.0771 50.6675 25.1016 50.7139 25.1126 50.7576L25.7022 52.6413L26.2346 49.4472C26.251 49.3271 26.3356 49.267 26.4885 49.267H27.504C27.5532 49.267 27.5941 49.2861 27.6269 49.3243C27.6597 49.3571 27.676 49.3953 27.676 49.439C27.676 49.4445 27.676 49.4526 27.676 49.4636C27.676 49.4745 27.676 49.4854 27.676 49.4963L26.7833 54.7297C26.7724 54.8007 26.7396 54.8635 26.685 54.9181C26.6304 54.9727 26.5567 55 26.4639 55H25.6859C25.593 55 25.5221 54.9754 25.4729 54.9263C25.4238 54.8771 25.391 54.8307 25.3746 54.7871L24.5475 52.4447L23.7203 54.7871C23.7039 54.8307 23.6711 54.8771 23.622 54.9263C23.5783 54.9754 23.5101 55 23.4172 55H22.6392ZM28.6349 55C28.5748 55 28.5257 54.9809 28.4875 54.9427C28.4493 54.9045 28.4302 54.8553 28.4302 54.7953V50.9459C28.4302 50.8859 28.4493 50.8367 28.4875 50.7985C28.5257 50.7603 28.5748 50.7412 28.6349 50.7412H29.6013C29.6559 50.7412 29.7023 50.7603 29.7406 50.7985C29.7842 50.8367 29.8061 50.8859 29.8061 50.9459V54.7953C29.8061 54.8553 29.7842 54.9045 29.7406 54.9427C29.7023 54.9809 29.6559 55 29.6013 55H28.6349ZM28.6267 50.127C28.5667 50.127 28.5175 50.1078 28.4793 50.0696C28.4411 50.0314 28.422 49.9823 28.422 49.9222V49.1933C28.422 49.1332 28.4411 49.0841 28.4793 49.0459C28.5175 49.0022 28.5667 48.9804 28.6267 48.9804H29.6013C29.6614 48.9804 29.7105 49.0022 29.7487 49.0459C29.7924 49.0841 29.8143 49.1332 29.8143 49.1933V49.9222C29.8143 49.9823 29.7924 50.0314 29.7487 50.0696C29.7105 50.1078 29.6614 50.127 29.6013 50.127H28.6267ZM31.2263 55C31.1662 55 31.1171 54.9809 31.0789 54.9427C31.0406 54.9045 31.0215 54.8553 31.0215 54.7953V50.9459C31.0215 50.8859 31.0406 50.8367 31.0789 50.7985C31.1171 50.7603 31.1662 50.7412 31.2263 50.7412H32.1681C32.2282 50.7412 32.2773 50.7603 32.3155 50.7985C32.3538 50.8367 32.3729 50.8859 32.3729 50.9459V51.2572C32.5148 51.0879 32.7005 50.946 32.9298 50.8313C33.1591 50.7166 33.4294 50.6593 33.7406 50.6593C34.0573 50.6593 34.3357 50.7303 34.576 50.8722C34.8217 51.0142 35.0128 51.2244 35.1493 51.5029C35.2912 51.7759 35.3622 52.1117 35.3622 52.5102V54.7953C35.3622 54.8553 35.3404 54.9045 35.2967 54.9427C35.2585 54.9809 35.2121 55 35.1575 55H34.1255C34.0709 55 34.0218 54.9809 33.9781 54.9427C33.9399 54.9045 33.9208 54.8553 33.9208 54.7953V52.5594C33.9208 52.3028 33.858 52.1062 33.7324 51.9697C33.6123 51.8277 33.4321 51.7568 33.1919 51.7568C32.968 51.7568 32.7878 51.8277 32.6513 51.9697C32.5203 52.1062 32.4548 52.3028 32.4548 52.5594V54.7953C32.4548 54.8553 32.4329 54.9045 32.3893 54.9427C32.351 54.9809 32.3046 55 32.25 55H31.2263ZM37.8651 55.0819C37.603 55.0819 37.3655 55.041 37.1526 54.959C36.9451 54.8717 36.7649 54.7461 36.612 54.5823C36.4646 54.4131 36.3499 54.211 36.268 53.9763C36.1861 53.736 36.1397 53.463 36.1288 53.1573C36.1234 53.0481 36.1206 52.9525 36.1206 52.8706C36.1206 52.7832 36.1234 52.6877 36.1288 52.5839C36.1397 52.2891 36.1861 52.0243 36.268 51.7895C36.3499 51.5547 36.4646 51.3527 36.612 51.1835C36.7594 51.0142 36.9396 50.8859 37.1526 50.7985C37.3655 50.7057 37.603 50.6593 37.8651 50.6593C38.1381 50.6593 38.3729 50.7057 38.5694 50.7985C38.766 50.8859 38.9325 51.0006 39.069 51.1425V49.3898C39.069 49.3298 39.0881 49.2807 39.1264 49.2424C39.1646 49.2042 39.2137 49.1851 39.2738 49.1851H40.273C40.3276 49.1851 40.374 49.2042 40.4122 49.2424C40.4559 49.2807 40.4777 49.3298 40.4777 49.3898V54.7953C40.4777 54.8553 40.4559 54.9045 40.4122 54.9427C40.374 54.9809 40.3276 55 40.273 55H39.3475C39.2874 55 39.2383 54.9809 39.2001 54.9427C39.1618 54.9045 39.1427 54.8553 39.1427 54.7953V54.5332C39.0117 54.6915 38.8424 54.8226 38.635 54.9263C38.4275 55.03 38.1709 55.0819 37.8651 55.0819ZM38.3074 53.9844C38.493 53.9844 38.6377 53.9462 38.7414 53.8698C38.8506 53.7879 38.9298 53.6841 38.9789 53.5586C39.0335 53.433 39.0636 53.2965 39.069 53.1491C39.0745 53.0399 39.0772 52.9361 39.0772 52.8378C39.0772 52.7396 39.0745 52.6386 39.069 52.5348C39.0636 52.3983 39.0335 52.2727 38.9789 52.1581C38.9243 52.038 38.8424 51.9424 38.7332 51.8714C38.624 51.795 38.4821 51.7568 38.3074 51.7568C38.1272 51.7568 37.9825 51.795 37.8733 51.8714C37.7695 51.9479 37.6958 52.0516 37.6522 52.1826C37.6085 52.3137 37.5812 52.4584 37.5703 52.6167C37.5539 52.786 37.5539 52.9552 37.5703 53.1245C37.5812 53.2828 37.6085 53.4275 37.6522 53.5586C37.6958 53.6896 37.7695 53.7933 37.8733 53.8698C37.9825 53.9462 38.1272 53.9844 38.3074 53.9844ZM43.4577 55.0819C42.9991 55.0819 42.6114 55.0082 42.2947 54.8608C41.9835 54.7133 41.7433 54.5031 41.574 54.2301C41.4102 53.9517 41.3174 53.6214 41.2956 53.2392C41.2901 53.13 41.2874 53.0071 41.2874 52.8706C41.2874 52.7286 41.2901 52.6058 41.2956 52.5021C41.3174 52.1144 41.4157 51.7841 41.5904 51.5111C41.7651 51.2381 42.0081 51.0279 42.3193 50.8804C42.636 50.733 43.0155 50.6593 43.4577 50.6593C43.9054 50.6593 44.2849 50.733 44.5961 50.8804C44.9128 51.0279 45.1585 51.2381 45.3332 51.5111C45.5079 51.7841 45.6062 52.1144 45.6281 52.5021C45.6335 52.6058 45.6363 52.7286 45.6363 52.8706C45.6363 53.0071 45.6335 53.13 45.6281 53.2392C45.6062 53.6214 45.5107 53.9517 45.3414 54.2301C45.1776 54.5031 44.9374 54.7133 44.6207 54.8608C44.3095 55.0082 43.9218 55.0819 43.4577 55.0819ZM43.4577 54.0827C43.7034 54.0827 43.8809 54.009 43.9901 53.8616C44.1047 53.7142 44.1702 53.493 44.1866 53.1982C44.1921 53.1163 44.1948 53.0071 44.1948 52.8706C44.1948 52.7341 44.1921 52.6249 44.1866 52.543C44.1702 52.2536 44.1047 52.0352 43.9901 51.8878C43.8809 51.7349 43.7034 51.6585 43.4577 51.6585C43.2175 51.6585 43.04 51.7349 42.9254 51.8878C42.8107 52.0352 42.7479 52.2536 42.737 52.543C42.7315 52.6249 42.7288 52.7341 42.7288 52.8706C42.7288 53.0071 42.7315 53.1163 42.737 53.1982C42.7479 53.493 42.8107 53.7142 42.9254 53.8616C43.04 54.009 43.2175 54.0827 43.4577 54.0827ZM47.5013 55C47.4194 55 47.3594 54.9809 47.3212 54.9427C47.2829 54.9045 47.2529 54.8553 47.2311 54.7953L46.0517 51.0033C46.0408 50.976 46.0353 50.9487 46.0353 50.9214C46.0353 50.8722 46.0544 50.8313 46.0927 50.7985C46.1309 50.7603 46.1746 50.7412 46.2237 50.7412H47.0673C47.1382 50.7412 47.1928 50.7603 47.2311 50.7985C47.2747 50.8367 47.302 50.875 47.313 50.9132L48.0009 53.2555L48.738 50.9214C48.7489 50.8832 48.7735 50.8449 48.8117 50.8067C48.8554 50.763 48.9155 50.7412 48.9919 50.7412H49.5325C49.6089 50.7412 49.6662 50.763 49.7044 50.8067C49.7481 50.8449 49.7754 50.8832 49.7863 50.9214L50.5234 53.2555L51.2114 50.9132C51.2223 50.875 51.2469 50.8367 51.2851 50.7985C51.3288 50.7603 51.3861 50.7412 51.4571 50.7412H52.3007C52.3498 50.7412 52.3908 50.7603 52.4235 50.7985C52.4617 50.8313 52.4809 50.8722 52.4809 50.9214C52.4809 50.9487 52.4781 50.976 52.4727 51.0033L51.2933 54.7953C51.2769 54.8553 51.2469 54.9045 51.2032 54.9427C51.165 54.9809 51.1049 55 51.023 55H50.2859C50.2095 55 50.1494 54.9809 50.1058 54.9427C50.0621 54.9045 50.032 54.8553 50.0157 54.7953L49.2622 52.5512L48.5087 54.7953C48.4923 54.8553 48.4623 54.9045 48.4186 54.9427C48.3749 54.9809 48.3149 55 48.2384 55H47.5013ZM54.8168 55.0819C54.4619 55.0819 54.1589 55.0437 53.9077 54.9672C53.662 54.8853 53.46 54.7871 53.3016 54.6724C53.1488 54.5577 53.0341 54.4403 52.9577 54.3202C52.8812 54.1946 52.8403 54.0882 52.8348 54.0008C52.8294 53.9408 52.8485 53.8916 52.8921 53.8534C52.9358 53.8097 52.9822 53.7879 53.0314 53.7879H53.965C53.9814 53.7879 53.9951 53.7906 54.006 53.7961C54.0169 53.8015 54.0333 53.8124 54.0551 53.8288C54.1261 53.867 54.1971 53.9162 54.2681 53.9763C54.339 54.0309 54.4209 54.08 54.5138 54.1237C54.6066 54.1673 54.7185 54.1892 54.8496 54.1892C55.0024 54.1892 55.1307 54.1592 55.2345 54.0991C55.3382 54.039 55.3901 53.9489 55.3901 53.8288C55.3901 53.7415 55.3655 53.6705 55.3164 53.6159C55.2672 53.5558 55.1662 53.4985 55.0134 53.4439C54.8659 53.3893 54.6421 53.3347 54.3418 53.2801C54.0579 53.2146 53.8094 53.1299 53.5965 53.0262C53.3835 52.917 53.2197 52.7778 53.1051 52.6085C52.9904 52.4338 52.9331 52.2236 52.9331 51.9779C52.9331 51.7595 53.0041 51.5493 53.146 51.3473C53.288 51.1452 53.4955 50.9814 53.7685 50.8559C54.0415 50.7248 54.3773 50.6593 54.7758 50.6593C55.0925 50.6593 55.3655 50.6975 55.5948 50.774C55.8296 50.8449 56.0262 50.9378 56.1845 51.0524C56.3483 51.1671 56.4712 51.2845 56.5531 51.4046C56.635 51.5247 56.6787 51.6339 56.6841 51.7322C56.6896 51.7868 56.6732 51.8359 56.635 51.8796C56.5968 51.9178 56.5531 51.9369 56.5039 51.9369H55.6522C55.6303 51.9369 55.6085 51.9342 55.5867 51.9287C55.5648 51.9178 55.5457 51.9069 55.5293 51.896C55.4638 51.8632 55.3983 51.8196 55.3328 51.765C55.2672 51.7103 55.1908 51.6612 55.1034 51.6175C55.0161 51.5738 54.9069 51.552 54.7758 51.552C54.6284 51.552 54.5138 51.5848 54.4319 51.6503C54.35 51.7158 54.309 51.8004 54.309 51.9042C54.309 51.9752 54.3309 52.0407 54.3745 52.1007C54.4237 52.1608 54.5192 52.2154 54.6612 52.2645C54.8086 52.3137 55.0352 52.3683 55.341 52.4283C55.7177 52.4884 56.018 52.5867 56.2419 52.7232C56.4657 52.8542 56.6241 53.0098 56.7169 53.19C56.8097 53.3647 56.8561 53.5504 56.8561 53.7469C56.8561 54.009 56.7769 54.2411 56.6186 54.4431C56.4657 54.6451 56.2364 54.8034 55.9306 54.9181C55.6249 55.0273 55.2536 55.0819 54.8168 55.0819ZM25.202 65C24.8526 65 24.5495 64.9454 24.2929 64.8362C24.0418 64.7215 23.8479 64.5468 23.7114 64.312C23.5749 64.0718 23.5067 63.7633 23.5067 63.3866V61.8141H22.8679C22.8078 61.8141 22.7559 61.795 22.7123 61.7568C22.674 61.7185 22.6549 61.6694 22.6549 61.6093V60.9459C22.6549 60.8859 22.674 60.8367 22.7123 60.7985C22.7559 60.7603 22.8078 60.7412 22.8679 60.7412H23.5067V59.3898C23.5067 59.3298 23.5258 59.2807 23.564 59.2424C23.6077 59.2042 23.6568 59.1851 23.7114 59.1851H24.6615C24.7215 59.1851 24.7707 59.2042 24.8089 59.2424C24.8471 59.2807 24.8662 59.3298 24.8662 59.3898V60.7412H25.89C25.95 60.7412 25.9992 60.7603 26.0374 60.7985C26.0756 60.8367 26.0947 60.8859 26.0947 60.9459V61.6093C26.0947 61.6694 26.0756 61.7185 26.0374 61.7568C25.9992 61.795 25.95 61.8141 25.89 61.8141H24.8662V63.2719C24.8662 63.4576 24.9017 63.605 24.9727 63.7142C25.0437 63.8234 25.1638 63.878 25.3331 63.878H25.9637C26.0237 63.878 26.0729 63.8971 26.1111 63.9353C26.1493 63.9735 26.1684 64.0227 26.1684 64.0827V64.7953C26.1684 64.8553 26.1493 64.9045 26.1111 64.9427C26.0729 64.9809 26.0237 65 25.9637 65H25.202ZM28.8121 65.0819C28.1679 65.0819 27.6546 64.9072 27.2724 64.5577C26.8902 64.2083 26.6909 63.6896 26.6746 63.0016C26.6746 62.9634 26.6746 62.9143 26.6746 62.8542C26.6746 62.7942 26.6746 62.7478 26.6746 62.715C26.6909 62.2837 26.7865 61.9151 26.9612 61.6093C27.1414 61.2981 27.3871 61.0633 27.6983 60.905C28.015 60.7412 28.3835 60.6593 28.804 60.6593C29.2844 60.6593 29.6803 60.7548 29.9915 60.9459C30.3082 61.1371 30.5457 61.3964 30.704 61.724C30.8624 62.0516 30.9415 62.4256 30.9415 62.846V63.0426C30.9415 63.1026 30.9197 63.1518 30.876 63.19C30.8378 63.2282 30.7914 63.2473 30.7368 63.2473H28.116C28.116 63.2528 28.116 63.261 28.116 63.2719C28.116 63.2828 28.116 63.2938 28.116 63.3047C28.1215 63.463 28.1488 63.6077 28.1979 63.7387C28.247 63.8698 28.3235 63.9735 28.4272 64.05C28.531 64.1264 28.6565 64.1646 28.804 64.1646C28.9132 64.1646 29.0032 64.1482 29.0742 64.1155C29.1507 64.0773 29.2135 64.0363 29.2626 63.9926C29.3117 63.9435 29.35 63.9025 29.3773 63.8698C29.4264 63.8152 29.4646 63.7824 29.4919 63.7715C29.5247 63.7551 29.5738 63.7469 29.6393 63.7469H30.6549C30.7095 63.7469 30.7532 63.7633 30.7859 63.7961C30.8242 63.8234 30.8405 63.8643 30.8351 63.9189C30.8296 64.0117 30.7832 64.1237 30.6958 64.2547C30.6085 64.3858 30.4802 64.5168 30.3109 64.6478C30.1471 64.7734 29.9396 64.8771 29.6885 64.959C29.4373 65.041 29.1452 65.0819 28.8121 65.0819ZM28.116 62.4365H29.5001V62.4201C29.5001 62.2454 29.4728 62.0926 29.4182 61.9615C29.3691 61.8305 29.2899 61.7295 29.1807 61.6585C29.077 61.5875 28.9514 61.552 28.804 61.552C28.6565 61.552 28.531 61.5875 28.4272 61.6585C28.3289 61.7295 28.2525 61.8305 28.1979 61.9615C28.1433 62.0926 28.116 62.2454 28.116 62.4201V62.4365ZM31.9141 65C31.854 65 31.8049 64.9809 31.7667 64.9427C31.7285 64.9045 31.7094 64.8553 31.7094 64.7953V60.9459C31.7094 60.8914 31.7285 60.8449 31.7667 60.8067C31.8049 60.763 31.854 60.7412 31.9141 60.7412H32.856C32.916 60.7412 32.9652 60.763 33.0034 60.8067C33.0416 60.8449 33.0607 60.8914 33.0607 60.9459V61.2736C33.2081 61.1043 33.3828 60.9732 33.5849 60.8804C33.7923 60.7876 34.0244 60.7412 34.281 60.7412H34.6414C34.696 60.7412 34.7424 60.7603 34.7806 60.7985C34.8243 60.8367 34.8461 60.8859 34.8461 60.9459V61.7895C34.8461 61.8441 34.8243 61.8933 34.7806 61.9369C34.7424 61.9752 34.696 61.9943 34.6414 61.9943H33.8469C33.6231 61.9943 33.4484 62.0571 33.3228 62.1826C33.2027 62.3028 33.1426 62.4747 33.1426 62.6986V64.7953C33.1426 64.8553 33.1208 64.9045 33.0771 64.9427C33.0389 64.9809 32.9897 65 32.9297 65H31.9141ZM35.6332 65C35.5731 65 35.524 64.9809 35.4858 64.9427C35.4476 64.9045 35.4284 64.8553 35.4284 64.7953V60.9459C35.4284 60.8859 35.4476 60.8367 35.4858 60.7985C35.524 60.7603 35.5731 60.7412 35.6332 60.7412H36.5259C36.586 60.7412 36.6351 60.7603 36.6733 60.7985C36.7115 60.8367 36.7307 60.8859 36.7307 60.9459V61.2244C36.8399 61.077 36.9927 60.9487 37.1893 60.8395C37.3859 60.7248 37.6179 60.6648 37.8854 60.6593C38.5133 60.6484 38.9447 60.8859 39.1795 61.3718C39.305 61.1643 39.4852 60.9951 39.72 60.8641C39.9548 60.7276 40.2114 60.6593 40.4899 60.6593C40.7738 60.6593 41.0277 60.7248 41.2515 60.8559C41.4809 60.9814 41.6638 61.178 41.8003 61.4455C41.9368 61.7076 42.005 62.0489 42.005 62.4693V64.7953C42.005 64.8553 41.9832 64.9045 41.9395 64.9427C41.9013 64.9809 41.8549 65 41.8003 65H40.8502C40.7902 65 40.7383 64.9809 40.6946 64.9427C40.6564 64.9045 40.6373 64.8553 40.6373 64.7953V62.5266C40.6373 62.3355 40.61 62.1854 40.5554 62.0762C40.5008 61.9615 40.4271 61.8796 40.3343 61.8305C40.2414 61.7813 40.135 61.7568 40.0148 61.7568C39.9166 61.7568 39.8183 61.7813 39.72 61.8305C39.6272 61.8796 39.5507 61.9615 39.4907 62.0762C39.4361 62.1854 39.4088 62.3355 39.4088 62.5266V64.7953C39.4088 64.8553 39.3897 64.9045 39.3515 64.9427C39.3132 64.9809 39.2641 65 39.204 65H38.254C38.1939 65 38.1448 64.9809 38.1066 64.9427C38.0684 64.9045 38.0492 64.8553 38.0492 64.7953V62.5266C38.0492 62.3355 38.0192 62.1854 37.9592 62.0762C37.8991 61.9615 37.8227 61.8796 37.7298 61.8305C37.637 61.7813 37.5333 61.7568 37.4186 61.7568C37.3203 61.7568 37.2221 61.7813 37.1238 61.8305C37.031 61.8796 36.9545 61.9615 36.8945 62.0762C36.8399 62.1854 36.8126 62.3328 36.8126 62.5184V64.7953C36.8126 64.8553 36.7907 64.9045 36.747 64.9427C36.7088 64.9809 36.6597 65 36.5996 65H35.6332ZM43.1274 65C43.0673 65 43.0182 64.9809 42.9799 64.9427C42.9417 64.9045 42.9226 64.8553 42.9226 64.7953V60.9459C42.9226 60.8859 42.9417 60.8367 42.9799 60.7985C43.0182 60.7603 43.0673 60.7412 43.1274 60.7412H44.0938C44.1484 60.7412 44.1948 60.7603 44.233 60.7985C44.2767 60.8367 44.2985 60.8859 44.2985 60.9459V64.7953C44.2985 64.8553 44.2767 64.9045 44.233 64.9427C44.1948 64.9809 44.1484 65 44.0938 65H43.1274ZM43.1192 60.127C43.0591 60.127 43.01 60.1078 42.9718 60.0696C42.9335 60.0314 42.9144 59.9823 42.9144 59.9222V59.1933C42.9144 59.1332 42.9335 59.0841 42.9718 59.0459C43.01 59.0022 43.0591 58.9804 43.1192 58.9804H44.0938C44.1538 58.9804 44.203 59.0022 44.2412 59.0459C44.2849 59.0841 44.3067 59.1332 44.3067 59.1933V59.9222C44.3067 59.9823 44.2849 60.0314 44.2412 60.0696C44.203 60.1078 44.1538 60.127 44.0938 60.127H43.1192ZM45.7187 65C45.6587 65 45.6095 64.9809 45.5713 64.9427C45.5331 64.9045 45.514 64.8553 45.514 64.7953V60.9459C45.514 60.8859 45.5331 60.8367 45.5713 60.7985C45.6095 60.7603 45.6587 60.7412 45.7187 60.7412H46.6606C46.7206 60.7412 46.7698 60.7603 46.808 60.7985C46.8462 60.8367 46.8653 60.8859 46.8653 60.9459V61.2572C47.0073 61.0879 47.1929 60.946 47.4223 60.8313C47.6516 60.7166 47.9218 60.6593 48.2331 60.6593C48.5497 60.6593 48.8282 60.7303 49.0684 60.8722C49.3141 61.0142 49.5052 61.2244 49.6417 61.5029C49.7837 61.7759 49.8547 62.1117 49.8547 62.5102V64.7953C49.8547 64.8553 49.8328 64.9045 49.7892 64.9427C49.7509 64.9809 49.7045 65 49.6499 65H48.618C48.5634 65 48.5143 64.9809 48.4706 64.9427C48.4324 64.9045 48.4132 64.8553 48.4132 64.7953V62.5594C48.4132 62.3028 48.3505 62.1062 48.2249 61.9697C48.1048 61.8277 47.9246 61.7568 47.6843 61.7568C47.4605 61.7568 47.2803 61.8277 47.1438 61.9697C47.0128 62.1062 46.9472 62.3028 46.9472 62.5594V64.7953C46.9472 64.8553 46.9254 64.9045 46.8817 64.9427C46.8435 64.9809 46.7971 65 46.7425 65H45.7187ZM52.0463 65.0819C51.7515 65.0819 51.4867 65.0273 51.2519 64.9181C51.0226 64.8034 50.8397 64.6506 50.7032 64.4595C50.5667 64.2684 50.4984 64.0527 50.4984 63.8124C50.4984 63.4248 50.6568 63.119 50.9734 62.8952C51.2901 62.6658 51.7105 62.5102 52.2347 62.4283L53.2585 62.2727V62.1581C53.2585 61.9615 53.2175 61.8114 53.1356 61.7076C53.0537 61.6039 52.9036 61.552 52.6852 61.552C52.5323 61.552 52.4067 61.582 52.3084 61.6421C52.2156 61.7022 52.1419 61.7841 52.0873 61.8878C52.0381 61.9588 51.9699 61.9943 51.8825 61.9943H50.9653C50.9052 61.9943 50.8588 61.9779 50.826 61.9451C50.7933 61.9069 50.7796 61.8632 50.7851 61.8141C50.7851 61.7158 50.8206 61.6039 50.8915 61.4783C50.968 61.3473 51.0826 61.2189 51.2355 61.0934C51.3884 60.9678 51.585 60.8641 51.8252 60.7821C52.0654 60.7002 52.3548 60.6593 52.6933 60.6593C53.0482 60.6593 53.3513 60.7002 53.6024 60.7821C53.8536 60.8641 54.0556 60.9787 54.2085 61.1261C54.3668 61.2736 54.4842 61.4483 54.5607 61.6503C54.6371 61.8468 54.6753 62.0652 54.6753 62.3055V64.7953C54.6753 64.8553 54.6535 64.9045 54.6098 64.9427C54.5716 64.9809 54.5252 65 54.4706 65H53.5205C53.4605 65 53.4113 64.9809 53.3731 64.9427C53.3349 64.9045 53.3158 64.8553 53.3158 64.7953V64.5086C53.2448 64.6123 53.1493 64.7079 53.0291 64.7953C52.909 64.8826 52.7671 64.9509 52.6033 65C52.4449 65.0546 52.2593 65.0819 52.0463 65.0819ZM52.4313 64.1482C52.5896 64.1482 52.7316 64.1155 52.8571 64.05C52.9882 63.979 53.0892 63.8725 53.1602 63.7306C53.2366 63.5831 53.2748 63.4002 53.2748 63.1818V63.0672L52.5787 63.19C52.3221 63.2337 52.1337 63.3019 52.0136 63.3948C51.8989 63.4821 51.8416 63.5859 51.8416 63.706C51.8416 63.7988 51.8689 63.878 51.9235 63.9435C51.9781 64.009 52.0491 64.0609 52.1364 64.0991C52.2238 64.1319 52.3221 64.1482 52.4313 64.1482ZM55.8043 65C55.7442 65 55.6951 64.9809 55.6568 64.9427C55.6186 64.9045 55.5995 64.8553 55.5995 64.7953V59.3898C55.5995 59.3298 55.6186 59.2807 55.6568 59.2424C55.6951 59.2042 55.7442 59.1851 55.8043 59.1851H56.7707C56.8307 59.1851 56.8799 59.2042 56.9181 59.2424C56.9563 59.2807 56.9754 59.3298 56.9754 59.3898V64.7953C56.9754 64.8553 56.9563 64.9045 56.9181 64.9427C56.8799 64.9809 56.8307 65 56.7707 65H55.8043Z" fill="#E5E5E5"/>
</g>
<defs>
<filter id="filter0_d_603_533" x="0" y="0" width="80" height="80" filterUnits="userSpaceOnUse" color-interpolation-filters="sRGB">
<feFlood flood-opacity="0" result="BackgroundImageFix"/>
<feColorMatrix in="SourceAlpha" type="matrix" values="0 0 0 0 0 0 0 0 0 0 0 0 0 0 0 0 0 0 127 0" result="hardAlpha"/>
<feOffset dy="2"/>
<feGaussianBlur stdDeviation="4"/>
<feColorMatrix type="matrix" values="0 0 0 0 0 0 0 0 0 0 0 0 0 0 0 0 0 0 0.75 0"/>
<feBlend mode="normal" in2="BackgroundImageFix" result="effect1_dropShadow_603_533"/>
<feBlend mode="normal" in="SourceGraphic" in2="effect1_dropShadow_603_533" result="shape"/>
</filter>
<filter id="filter1_dd_603_533" x="25.0166" y="23" width="14.6333" height="14.5833" filterUnits="userSpaceOnUse" color-interpolation-filters="sRGB">
<feFlood flood-opacity="0" result="BackgroundImageFix"/>
<feColorMatrix in="SourceAlpha" type="matrix" values="0 0 0 0 0 0 0 0 0 0 0 0 0 0 0 0 0 0 127 0" result="hardAlpha"/>
<feOffset dy="0.5"/>
<feGaussianBlur stdDeviation="0.5"/>
<feColorMatrix type="matrix" values="0 0 0 0 0 0 0 0 0 0 0 0 0 0 0 0 0 0 0.1 0"/>
<feBlend mode="normal" in2="BackgroundImageFix" result="effect1_dropShadow_603_533"/>
<feColorMatrix in="SourceAlpha" type="matrix" values="0 0 0 0 0 0 0 0 0 0 0 0 0 0 0 0 0 0 127 0" result="hardAlpha"/>
<feOffset dy="1"/>
<feGaussianBlur stdDeviation="1.5"/>
<feColorMatrix type="matrix" values="0 0 0 0 0 0 0 0 0 0 0 0 0 0 0 0 0 0 0.2 0"/>
<feBlend mode="normal" in2="effect1_dropShadow_603_533" result="effect2_dropShadow_603_533"/>
<feBlend mode="normal" in="SourceGraphic" in2="effect2_dropShadow_603_533" result="shape"/>
</filter>
<filter id="filter2_dd_603_533" x="25.0166" y="18.3333" width="14.6333" height="14.5833" filterUnits="userSpaceOnUse" color-interpolation-filters="sRGB">
<feFlood flood-opacity="0" result="BackgroundImageFix"/>
<feColorMatrix in="SourceAlpha" type="matrix" values="0 0 0 0 0 0 0 0 0 0 0 0 0 0 0 0 0 0 127 0" result="hardAlpha"/>
<feOffset dy="0.5"/>
<feGaussianBlur stdDeviation="0.5"/>
<feColorMatrix type="matrix" values="0 0 0 0 0 0 0 0 0 0 0 0 0 0 0 0 0 0 0.1 0"/>
<feBlend mode="normal" in2="BackgroundImageFix" result="effect1_dropShadow_603_533"/>
<feColorMatrix in="SourceAlpha" type="matrix" values="0 0 0 0 0 0 0 0 0 0 0 0 0 0 0 0 0 0 127 0" result="hardAlpha"/>
<feOffset dy="1"/>
<feGaussianBlur stdDeviation="1.5"/>
<feColorMatrix type="matrix" values="0 0 0 0 0 0 0 0 0 0 0 0 0 0 0 0 0 0 0.2 0"/>
<feBlend mode="normal" in2="effect1_dropShadow_603_533" result="effect2_dropShadow_603_533"/>
<feBlend mode="normal" in="SourceGraphic" in2="effect2_dropShadow_603_533" result="shape"/>
</filter>
<filter id="filter3_dd_603_533" x="36.3333" y="28.3333" width="18" height="9.33325" filterUnits="userSpaceOnUse" color-interpolation-filters="sRGB">
<feFlood flood-opacity="0" result="BackgroundImageFix"/>
<feColorMatrix in="SourceAlpha" type="matrix" values="0 0 0 0 0 0 0 0 0 0 0 0 0 0 0 0 0 0 127 0" result="hardAlpha"/>
<feOffset dy="0.5"/>
<feGaussianBlur stdDeviation="0.5"/>
<feColorMatrix type="matrix" values="0 0 0 0 0 0 0 0 0 0 0 0 0 0 0 0 0 0 0.1 0"/>
<feBlend mode="normal" in2="BackgroundImageFix" result="effect1_dropShadow_603_533"/>
<feColorMatrix in="SourceAlpha" type="matrix" values="0 0 0 0 0 0 0 0 0 0 0 0 0 0 0 0 0 0 127 0" result="hardAlpha"/>
<feOffset dy="1"/>
<feGaussianBlur stdDeviation="1.5"/>
<feColorMatrix type="matrix" values="0 0 0 0 0 0 0 0 0 0 0 0 0 0 0 0 0 0 0.2 0"/>
<feBlend mode="normal" in2="effect1_dropShadow_603_533" result="effect2_dropShadow_603_533"/>
<feBlend mode="normal" in="SourceGraphic" in2="effect2_dropShadow_603_533" result="shape"/>
</filter>
<linearGradient id="paint0_linear_603_533" x1="48.2975" y1="40.8838" x2="31.8811" y2="12.4499" gradientUnits="userSpaceOnUse">
<stop stop-color="#333333"/>
<stop offset="1" stop-color="#4D4D4D"/>
</linearGradient>
<linearGradient id="paint1_linear_603_533" x1="33.685" y1="31.6639" x2="30.9893" y2="26.9949" gradientUnits="userSpaceOnUse">
<stop stop-color="#999999"/>
<stop offset="1" stop-color="#B3B3B3"/>
</linearGradient>
<linearGradient id="paint2_linear_603_533" x1="33.685" y1="31.6639" x2="30.9893" y2="26.9949" gradientUnits="userSpaceOnUse">
<stop stop-color="#999999"/>
<stop offset="1" stop-color="#B3B3B3"/>
</linearGradient>
<linearGradient id="paint3_linear_603_533" x1="34.8497" y1="29.0223" x2="29.8246" y2="20.3187" gradientUnits="userSpaceOnUse">
<stop stop-color="#CCCCCC"/>
<stop offset="1" stop-color="#E6E6E6"/>
</linearGradient>
<linearGradient id="paint4_linear_603_533" x1="34.8497" y1="29.0223" x2="29.8246" y2="20.3187" gradientUnits="userSpaceOnUse">
<stop stop-color="#CCCCCC"/>
<stop offset="1" stop-color="#E6E6E6"/>
</linearGradient>
<linearGradient id="paint5_linear_603_533" x1="47.433" y1="35.6368" x2="43.2335" y2="28.3631" gradientUnits="userSpaceOnUse">
<stop stop-color="#CCCCCC"/>
<stop offset="1" stop-color="#E6E6E6"/>
</linearGradient>
<clipPath id="clip0_603_533">
<rect width="32" height="24" fill="white" transform="translate(24 13)"/>
</clipPath>
</defs>
</svg>
