<svg width="80" height="80" viewBox="0 0 80 80" fill="none" xmlns="http://www.w3.org/2000/svg">
<g filter="url(#filter0_d_602_1938)">
<rect x="8" y="6" width="64" height="64" rx="5" fill="#212529"/>
<g clip-path="url(#clip0_602_1938)">
<path fill-rule="evenodd" clip-rule="evenodd" d="M55.0589 27.9406C55.5784 27.9406 56 28.3623 56 28.8818V42.0583C56 42.3312 55.8814 42.5891 55.6781 42.766C55.505 42.9185 55.2847 42.9994 55.0589 42.9994C55.0175 42.9994 54.9742 42.9976 54.9327 42.9919L39.8739 40.9364C39.4071 40.8724 39.0589 40.4733 39.0589 40.0027V28.8818C39.0589 28.3623 39.4805 27.9406 40 27.9406H55.0589ZM36.2353 27.9406C36.7549 27.9406 37.1765 28.3623 37.1765 28.8818V39.4569C37.1765 39.7298 37.0579 39.9877 36.8527 40.1665C36.6796 40.3171 36.4612 40.398 36.2353 40.398C36.1939 40.398 36.1487 40.3961 36.1073 40.3886L24.8132 38.8225C24.3464 38.7585 24 38.3613 24 37.8907V28.8818C24 28.3623 24.4217 27.9406 24.9412 27.9406H36.2353ZM36.1066 13.6097C36.3758 13.5702 36.6468 13.653 36.852 13.8318C37.0591 14.0107 37.1758 14.2704 37.1758 14.5415V25.1165C37.1758 25.6379 36.756 26.0577 36.2346 26.0577H24.9404C24.4209 26.0577 23.9993 25.6379 23.9993 25.1165V16.1076C23.9993 15.6389 24.3456 15.2398 24.8124 15.1758L36.1066 13.6097ZM54.9329 11.0079C55.2021 10.974 55.4732 11.0531 55.6783 11.2319C55.8816 11.4107 56.0002 11.6686 56.0002 11.9397V25.1161C56.0002 25.6376 55.5786 26.0573 55.059 26.0573H40.0002C39.4807 26.0573 39.059 25.6376 39.059 25.1162V13.9952C39.059 13.5246 39.4054 13.1274 39.8741 13.0634L54.9329 11.0079Z" fill="#00ADEF"/>
</g>
<path d="M19.3637 61C19.2476 61 19.1555 60.9659 19.0872 60.8976C19.0189 60.8293 18.978 60.7508 18.9643 60.6621L17.8482 54.1187C17.8413 54.1051 17.8379 54.0914 17.8379 54.0778C17.8379 54.0641 17.8379 54.0539 17.8379 54.047C17.8379 53.9924 17.8584 53.9446 17.8994 53.9037C17.9471 53.8559 17.9983 53.832 18.053 53.832H19.3227C19.5139 53.832 19.6197 53.9071 19.6402 54.0573L20.3058 58.0611L21.043 55.6957C21.0635 55.6411 21.0977 55.583 21.1454 55.5216C21.1932 55.4533 21.2717 55.4192 21.381 55.4192H22.1182C22.2343 55.4192 22.3162 55.4533 22.364 55.5216C22.4118 55.583 22.4425 55.6411 22.4562 55.6957L23.1934 58.0509L23.859 54.0573C23.8795 53.9071 23.9853 53.832 24.1765 53.832H25.4462C25.5077 53.832 25.5589 53.8559 25.5998 53.9037C25.6408 53.9446 25.6613 53.9924 25.6613 54.047C25.6613 54.0539 25.6613 54.0641 25.6613 54.0778C25.6613 54.0914 25.6613 54.1051 25.6613 54.1187L24.5451 60.6621C24.5315 60.7508 24.4905 60.8293 24.4222 60.8976C24.354 60.9659 24.2618 61 24.1458 61H23.173C23.0569 61 22.9682 60.9693 22.9067 60.9078C22.8453 60.8464 22.8043 60.7884 22.7838 60.7338L21.7496 57.8051L20.7154 60.7338C20.6949 60.7884 20.6539 60.8464 20.5925 60.9078C20.5379 60.9693 20.4525 61 20.3365 61H19.3637ZM26.8602 61C26.7851 61 26.7236 60.9761 26.6758 60.9283C26.6281 60.8805 26.6042 60.8191 26.6042 60.744V55.9312C26.6042 55.8561 26.6281 55.7947 26.6758 55.7469C26.7236 55.6991 26.7851 55.6752 26.8602 55.6752H28.0685C28.1367 55.6752 28.1948 55.6991 28.2426 55.7469C28.2972 55.7947 28.3245 55.8561 28.3245 55.9312V60.744C28.3245 60.8191 28.2972 60.8805 28.2426 60.9283C28.1948 60.9761 28.1367 61 28.0685 61H26.8602ZM26.8499 54.9072C26.7748 54.9072 26.7134 54.8833 26.6656 54.8355C26.6178 54.7877 26.5939 54.7263 26.5939 54.6512V53.7398C26.5939 53.6647 26.6178 53.6033 26.6656 53.5555C26.7134 53.5009 26.7748 53.4736 26.8499 53.4736H28.0685C28.1436 53.4736 28.205 53.5009 28.2528 53.5555C28.3074 53.6033 28.3347 53.6647 28.3347 53.7398V54.6512C28.3347 54.7263 28.3074 54.7877 28.2528 54.8355C28.205 54.8833 28.1436 54.9072 28.0685 54.9072H26.8499ZM30.1002 61C30.0251 61 29.9636 60.9761 29.9158 60.9283C29.8681 60.8805 29.8442 60.8191 29.8442 60.744V55.9312C29.8442 55.8561 29.8681 55.7947 29.9158 55.7469C29.9636 55.6991 30.0251 55.6752 30.1002 55.6752H31.2778C31.3529 55.6752 31.4143 55.6991 31.4621 55.7469C31.5099 55.7947 31.5338 55.8561 31.5338 55.9312V56.3203C31.7113 56.1087 31.9434 55.9312 32.2301 55.7878C32.5168 55.6445 32.8547 55.5728 33.2438 55.5728C33.6398 55.5728 33.9879 55.6615 34.2883 55.839C34.5955 56.0165 34.8345 56.2794 35.0051 56.6275C35.1826 56.9689 35.2714 57.3887 35.2714 57.887V60.744C35.2714 60.8191 35.2441 60.8805 35.1894 60.9283C35.1417 60.9761 35.0836 61 35.0154 61H33.7251C33.6569 61 33.5954 60.9761 33.5408 60.9283C33.493 60.8805 33.4691 60.8191 33.4691 60.744V57.9485C33.4691 57.6276 33.3906 57.3819 33.2336 57.2112C33.0834 57.0337 32.8581 56.945 32.5578 56.945C32.2779 56.945 32.0526 57.0337 31.8819 57.2112C31.7181 57.3819 31.6362 57.6276 31.6362 57.9485V60.744C31.6362 60.8191 31.6089 60.8805 31.5542 60.9283C31.5065 60.9761 31.4484 61 31.3802 61H30.1002ZM38.4007 61.1024C38.073 61.1024 37.7761 61.0512 37.5098 60.9488C37.2504 60.8396 37.0251 60.6826 36.834 60.4778C36.6497 60.2661 36.5063 60.0135 36.4039 59.72C36.3015 59.4196 36.2435 59.0783 36.2298 58.696C36.223 58.5595 36.2196 58.44 36.2196 58.3376C36.2196 58.2284 36.223 58.1089 36.2298 57.9792C36.2435 57.6106 36.3015 57.2795 36.4039 56.9859C36.5063 56.6924 36.6497 56.4398 36.834 56.2282C37.0183 56.0165 37.2436 55.8561 37.5098 55.7469C37.7761 55.6308 38.073 55.5728 38.4007 55.5728C38.7421 55.5728 39.0356 55.6308 39.2814 55.7469C39.5271 55.8561 39.7353 55.9995 39.906 56.177V53.9856C39.906 53.9105 39.9299 53.8491 39.9777 53.8013C40.0255 53.7535 40.0869 53.7296 40.162 53.7296H41.4113C41.4795 53.7296 41.5376 53.7535 41.5854 53.8013C41.64 53.8491 41.6673 53.9105 41.6673 53.9856V60.744C41.6673 60.8191 41.64 60.8805 41.5854 60.9283C41.5376 60.9761 41.4795 61 41.4113 61H40.2542C40.1791 61 40.1176 60.9761 40.0698 60.9283C40.0221 60.8805 39.9982 60.8191 39.9982 60.744V60.4163C39.8343 60.6143 39.6227 60.7781 39.3633 60.9078C39.1039 61.0375 38.783 61.1024 38.4007 61.1024ZM38.9537 59.7302C39.1858 59.7302 39.3667 59.6825 39.4964 59.5869C39.6329 59.4845 39.7319 59.3548 39.7934 59.1978C39.8616 59.0407 39.8992 58.8701 39.906 58.6858C39.9128 58.5492 39.9162 58.4195 39.9162 58.2966C39.9162 58.1738 39.9128 58.0475 39.906 57.9178C39.8992 57.7471 39.8616 57.5901 39.7934 57.4467C39.7251 57.2965 39.6227 57.1771 39.4862 57.0883C39.3496 56.9927 39.1721 56.945 38.9537 56.945C38.7284 56.945 38.5475 56.9927 38.411 57.0883C38.2813 57.1839 38.1891 57.3136 38.1345 57.4774C38.0799 57.6413 38.0457 57.8222 38.0321 58.0202C38.0116 58.2318 38.0116 58.4434 38.0321 58.655C38.0457 58.853 38.0799 59.0339 38.1345 59.1978C38.1891 59.3616 38.2813 59.4913 38.411 59.5869C38.5475 59.6825 38.7284 59.7302 38.9537 59.7302ZM45.3932 61.1024C44.8198 61.1024 44.3351 61.0102 43.9391 60.8259C43.55 60.6416 43.2496 60.3788 43.038 60.0374C42.8332 59.6893 42.7171 59.2763 42.6898 58.7984C42.683 58.6619 42.6796 58.5083 42.6796 58.3376C42.6796 58.1601 42.683 58.0065 42.6898 57.8768C42.7171 57.3921 42.84 56.9791 43.0585 56.6378C43.2769 56.2964 43.5807 56.0336 43.9698 55.8493C44.3658 55.665 44.8402 55.5728 45.3932 55.5728C45.953 55.5728 46.4274 55.665 46.8166 55.8493C47.2125 56.0336 47.5197 56.2964 47.7382 56.6378C47.9566 56.9791 48.0795 57.3921 48.1068 57.8768C48.1136 58.0065 48.117 58.1601 48.117 58.3376C48.117 58.5083 48.1136 58.6619 48.1068 58.7984C48.0795 59.2763 47.96 59.6893 47.7484 60.0374C47.5436 60.3788 47.2432 60.6416 46.8473 60.8259C46.4582 61.0102 45.9735 61.1024 45.3932 61.1024ZM45.3932 59.8531C45.7004 59.8531 45.9223 59.761 46.0588 59.5766C46.2022 59.3923 46.2841 59.1158 46.3046 58.7472C46.3114 58.6448 46.3148 58.5083 46.3148 58.3376C46.3148 58.1669 46.3114 58.0304 46.3046 57.928C46.2841 57.5662 46.2022 57.2931 46.0588 57.1088C45.9223 56.9177 45.7004 56.8221 45.3932 56.8221C45.0928 56.8221 44.871 56.9177 44.7276 57.1088C44.5842 57.2931 44.5057 57.5662 44.4921 57.928C44.4853 58.0304 44.4818 58.1669 44.4818 58.3376C44.4818 58.5083 44.4853 58.6448 44.4921 58.7472C44.5057 59.1158 44.5842 59.3923 44.7276 59.5766C44.871 59.761 45.0928 59.8531 45.3932 59.8531ZM50.449 61C50.3466 61 50.2715 60.9761 50.2237 60.9283C50.1759 60.8805 50.1383 60.8191 50.111 60.744L48.6365 56.0029C48.6228 55.9687 48.616 55.9346 48.616 55.9005C48.616 55.839 48.6399 55.7878 48.6877 55.7469C48.7355 55.6991 48.7901 55.6752 48.8515 55.6752H49.9062C49.995 55.6752 50.0633 55.6991 50.111 55.7469C50.1657 55.7947 50.1998 55.8425 50.2134 55.8902L51.0736 58.8189L51.9952 55.9005C52.0089 55.8527 52.0396 55.8049 52.0874 55.7571C52.142 55.7025 52.2171 55.6752 52.3126 55.6752H52.9885C53.0841 55.6752 53.1557 55.7025 53.2035 55.7571C53.2581 55.8049 53.2923 55.8527 53.3059 55.9005L54.2275 58.8189L55.0877 55.8902C55.1013 55.8425 55.1321 55.7947 55.1798 55.7469C55.2345 55.6991 55.3061 55.6752 55.3949 55.6752H56.4496C56.511 55.6752 56.5622 55.6991 56.6032 55.7469C56.651 55.7878 56.6749 55.839 56.6749 55.9005C56.6749 55.9346 56.6715 55.9687 56.6646 56.0029L55.1901 60.744C55.1696 60.8191 55.1321 60.8805 55.0774 60.9283C55.0297 60.9761 54.9546 61 54.8522 61H53.9306C53.835 61 53.7599 60.9761 53.7053 60.9283C53.6507 60.8805 53.6131 60.8191 53.5926 60.744L52.6506 57.9382L51.7085 60.744C51.688 60.8191 51.6505 60.8805 51.5958 60.9283C51.5412 60.9761 51.4661 61 51.3706 61H50.449ZM59.5955 61.1024C59.1518 61.1024 58.7729 61.0546 58.4589 60.959C58.1517 60.8566 57.8991 60.7338 57.7011 60.5904C57.51 60.447 57.3666 60.3003 57.271 60.1501C57.1755 59.9931 57.1243 59.8599 57.1174 59.7507C57.1106 59.6756 57.1345 59.6142 57.1891 59.5664C57.2437 59.5118 57.3018 59.4845 57.3632 59.4845H58.5306C58.551 59.4845 58.5681 59.4879 58.5818 59.4947C58.5954 59.5015 58.6159 59.5152 58.6432 59.5357C58.7319 59.5835 58.8207 59.6449 58.9094 59.72C58.9982 59.7883 59.1006 59.8497 59.2166 59.9043C59.3327 59.9589 59.4726 59.9862 59.6365 59.9862C59.8276 59.9862 59.9881 59.9487 60.1178 59.8736C60.2475 59.7985 60.3123 59.6859 60.3123 59.5357C60.3123 59.4265 60.2816 59.3377 60.2202 59.2694C60.1587 59.1943 60.0324 59.1227 59.8413 59.0544C59.657 58.9861 59.3771 58.9179 59.0016 58.8496C58.6466 58.7677 58.336 58.6619 58.0698 58.5322C57.8035 58.3956 57.5987 58.2215 57.4554 58.0099C57.312 57.7915 57.2403 57.5286 57.2403 57.2214C57.2403 56.9484 57.3291 56.6855 57.5066 56.433C57.6841 56.1804 57.9435 55.9756 58.2848 55.8186C58.6261 55.6547 59.046 55.5728 59.5443 55.5728C59.9403 55.5728 60.2816 55.6206 60.5683 55.7162C60.8619 55.8049 61.1076 55.921 61.3056 56.0643C61.5104 56.2077 61.664 56.3545 61.7664 56.5046C61.8688 56.6548 61.9234 56.7914 61.9302 56.9142C61.9371 56.9825 61.9166 57.0439 61.8688 57.0986C61.821 57.1463 61.7664 57.1702 61.705 57.1702H60.64C60.6127 57.1702 60.5854 57.1668 60.5581 57.16C60.5308 57.1463 60.5069 57.1327 60.4864 57.119C60.4045 57.0781 60.3226 57.0235 60.2406 56.9552C60.1587 56.8869 60.0631 56.8255 59.9539 56.7709C59.8447 56.7163 59.7082 56.689 59.5443 56.689C59.36 56.689 59.2166 56.7299 59.1142 56.8118C59.0118 56.8938 58.9606 56.9996 58.9606 57.1293C58.9606 57.218 58.9879 57.2999 59.0426 57.375C59.104 57.4501 59.2235 57.5184 59.401 57.5798C59.5853 57.6413 59.8686 57.7095 60.2509 57.7846C60.7219 57.8597 61.0974 57.9826 61.3773 58.1533C61.6572 58.3171 61.8551 58.5117 61.9712 58.737C62.0873 58.9554 62.1453 59.1875 62.1453 59.4333C62.1453 59.761 62.0463 60.0511 61.8483 60.3037C61.6572 60.5563 61.3705 60.7542 60.9882 60.8976C60.6059 61.0341 60.1417 61.1024 59.5955 61.1024Z" fill="#E5E5E5"/>
</g>
<defs>
<filter id="filter0_d_602_1938" x="0" y="0" width="80" height="80" filterUnits="userSpaceOnUse" color-interpolation-filters="sRGB">
<feFlood flood-opacity="0" result="BackgroundImageFix"/>
<feColorMatrix in="SourceAlpha" type="matrix" values="0 0 0 0 0 0 0 0 0 0 0 0 0 0 0 0 0 0 127 0" result="hardAlpha"/>
<feOffset dy="2"/>
<feGaussianBlur stdDeviation="4"/>
<feColorMatrix type="matrix" values="0 0 0 0 0 0 0 0 0 0 0 0 0 0 0 0 0 0 0.75 0"/>
<feBlend mode="normal" in2="BackgroundImageFix" result="effect1_dropShadow_602_1938"/>
<feBlend mode="normal" in="SourceGraphic" in2="effect1_dropShadow_602_1938" result="shape"/>
</filter>
<clipPath id="clip0_602_1938">
<rect width="32" height="32" fill="white" transform="translate(24 11)"/>
</clipPath>
</defs>
</svg>
