<svg width="80" height="80" viewBox="0 0 80 80" fill="none" xmlns="http://www.w3.org/2000/svg">
<g filter="url(#filter0_d_602_279)">
<rect x="8" y="6" width="64" height="64" rx="5" fill="#212529"/>
<path d="M52.2079 35.4089C50.7753 35.7325 49.4265 36.3532 48.2489 37.2309C46.4322 38.3711 44.4693 39.2598 42.4139 39.8729C42.1619 40.1671 41.8135 40.362 41.4309 40.4229C39.2934 40.7269 37.1415 40.9195 34.9839 40.9999C33.8209 41.0089 33.1079 40.6999 32.9099 40.2239C32.8284 40.0311 32.7861 39.824 32.7856 39.6147C32.7851 39.4054 32.8264 39.1981 32.9071 39.0049C32.9877 38.8118 33.1061 38.6366 33.2553 38.4898C33.4045 38.343 33.5815 38.2274 33.7759 38.1499C33.5941 38.0384 33.4222 37.9116 33.2619 37.7709C33.0909 37.5999 32.9099 37.2569 32.8559 37.3829C32.6309 37.9329 32.5129 39.2769 31.9089 39.8829C31.0789 40.7219 29.5089 40.4419 28.5809 39.9549C27.5619 39.4139 28.6529 38.1419 28.6529 38.1419C28.5656 38.1862 28.4702 38.2125 28.3725 38.2191C28.2748 38.2258 28.1767 38.2128 28.0842 38.1808C27.9916 38.1488 27.9064 38.0985 27.8337 38.0329C27.761 37.9673 27.7022 37.8877 27.6609 37.7989C27.1298 36.9122 26.8961 35.8789 26.9939 34.8499C27.2501 33.7218 27.8635 32.7065 28.7429 31.9549C28.6044 30.4566 28.8301 28.9471 29.4009 27.5549C30.1548 26.1036 31.2389 24.8496 32.5659 23.8939C32.5659 23.8939 30.6279 21.7469 31.3499 19.8169C31.8189 18.5549 32.0079 18.5639 32.1619 18.5089C32.7064 18.3411 33.2038 18.0475 33.6139 17.6519C34.1657 17.0445 34.8517 16.5744 35.6174 16.2792C36.3831 15.9841 37.2072 15.872 38.0239 15.9519C38.0239 15.9519 39.1999 12.3999 40.2769 13.0899C40.8727 14.0044 41.3858 14.9702 41.8099 15.9759C41.8099 15.9759 43.0909 15.2279 43.2349 15.5069C43.9715 17.4635 44.1525 19.5858 43.7579 21.6389C43.2924 23.6092 42.4054 25.4553 41.1579 27.0499C41.0229 27.2749 42.7089 27.9879 43.7729 30.9369C44.7559 33.6369 43.8809 35.8969 44.0349 36.1489C44.0619 36.1939 44.0709 36.2119 44.0709 36.2119C44.0709 36.2119 45.1979 36.3019 47.4619 34.9039C48.7145 33.989 50.1936 33.4343 51.7389 33.2999C52.0161 33.2445 52.3039 33.3 52.5407 33.4543C52.7776 33.6086 52.9445 33.8495 53.0059 34.1254C53.0672 34.4013 53.018 34.6903 52.8689 34.9304C52.7197 35.1705 52.4824 35.3416 52.2079 35.4089Z" fill="#2188B6"/>
<path d="M30.816 61C30.7477 61 30.6863 60.9761 30.6317 60.9283C30.5839 60.8805 30.56 60.8191 30.56 60.744V58.5424L28.1843 54.1597C28.1775 54.1392 28.1707 54.1221 28.1638 54.1085C28.157 54.088 28.1536 54.0675 28.1536 54.047C28.1536 53.9924 28.1741 53.9446 28.215 53.9037C28.2628 53.8559 28.3174 53.832 28.3789 53.832H29.6589C29.7613 53.832 29.8398 53.8593 29.8944 53.9139C29.9558 53.9617 29.9934 54.0061 30.007 54.047L31.4816 56.689L32.9562 54.047C32.9766 54.0061 33.0142 53.9617 33.0688 53.9139C33.1302 53.8593 33.2122 53.832 33.3146 53.832H34.5946C34.656 53.832 34.7072 53.8559 34.7482 53.9037C34.7891 53.9446 34.8096 53.9924 34.8096 54.047C34.8096 54.0675 34.8062 54.088 34.7994 54.1085C34.7994 54.1221 34.7959 54.1392 34.7891 54.1597L32.4032 58.5424V60.744C32.4032 60.8191 32.3793 60.8805 32.3315 60.9283C32.2837 60.9761 32.2223 61 32.1472 61H30.816ZM36.1616 61.1024C35.793 61.1024 35.4619 61.0341 35.1683 60.8976C34.8816 60.7542 34.6529 60.5631 34.4822 60.3242C34.3116 60.0852 34.2262 59.8156 34.2262 59.5152C34.2262 59.0305 34.4242 58.6482 34.8202 58.3683C35.2161 58.0816 35.7418 57.887 36.3971 57.7846L37.6771 57.5901V57.4467C37.6771 57.201 37.6259 57.0132 37.5235 56.8835C37.4211 56.7538 37.2334 56.689 36.9603 56.689C36.7692 56.689 36.6122 56.7265 36.4893 56.8016C36.3732 56.8767 36.2811 56.9791 36.2128 57.1088C36.1514 57.1975 36.066 57.2419 35.9568 57.2419H34.8099C34.7348 57.2419 34.6768 57.2214 34.6358 57.1805C34.5949 57.1327 34.5778 57.0781 34.5846 57.0166C34.5846 56.8938 34.629 56.7538 34.7178 56.5968C34.8133 56.433 34.9567 56.2725 35.1478 56.1155C35.339 55.9585 35.5847 55.8288 35.8851 55.7264C36.1855 55.624 36.5473 55.5728 36.9706 55.5728C37.4143 55.5728 37.7932 55.624 38.1072 55.7264C38.4212 55.8288 38.6738 55.9722 38.865 56.1565C39.0629 56.3408 39.2097 56.5593 39.3053 56.8118C39.4009 57.0576 39.4486 57.3307 39.4486 57.631V60.744C39.4486 60.8191 39.4213 60.8805 39.3667 60.9283C39.3189 60.9761 39.2609 61 39.1926 61H38.0048C37.9297 61 37.8683 60.9761 37.8205 60.9283C37.7727 60.8805 37.7488 60.8191 37.7488 60.744V60.3856C37.6601 60.5153 37.5406 60.6348 37.3904 60.744C37.2402 60.8532 37.0627 60.9386 36.8579 61C36.6599 61.0683 36.4278 61.1024 36.1616 61.1024ZM36.6429 59.935C36.8409 59.935 37.0183 59.8941 37.1754 59.8122C37.3392 59.7234 37.4655 59.5903 37.5542 59.4128C37.6498 59.2285 37.6976 58.9998 37.6976 58.7267V58.5834L36.8272 58.737C36.5063 58.7916 36.2708 58.8769 36.1206 58.993C35.9773 59.1022 35.9056 59.2319 35.9056 59.3821C35.9056 59.4981 35.9397 59.5971 36.008 59.679C36.0763 59.761 36.165 59.8258 36.2742 59.8736C36.3835 59.9146 36.5063 59.935 36.6429 59.935ZM40.8602 61C40.7851 61 40.7236 60.9761 40.6758 60.9283C40.6281 60.8805 40.6042 60.8191 40.6042 60.744V55.9312C40.6042 55.8629 40.6281 55.8049 40.6758 55.7571C40.7236 55.7025 40.7851 55.6752 40.8602 55.6752H42.0378C42.1129 55.6752 42.1743 55.7025 42.2221 55.7571C42.2699 55.8049 42.2938 55.8629 42.2938 55.9312V56.3408C42.4781 56.1292 42.6965 55.9653 42.9491 55.8493C43.2085 55.7332 43.4987 55.6752 43.8195 55.6752H44.2701C44.3383 55.6752 44.3964 55.6991 44.4442 55.7469C44.4988 55.7947 44.5261 55.8561 44.5261 55.9312V56.9859C44.5261 57.0542 44.4988 57.1156 44.4442 57.1702C44.3964 57.218 44.3383 57.2419 44.2701 57.2419H43.2768C42.9969 57.2419 42.7785 57.3204 42.6214 57.4774C42.4713 57.6276 42.3962 57.8427 42.3962 58.1226V60.744C42.3962 60.8191 42.3689 60.8805 42.3142 60.9283C42.2665 60.9761 42.205 61 42.1299 61H40.8602ZM45.5102 61C45.4351 61 45.3736 60.9761 45.3258 60.9283C45.2781 60.8805 45.2542 60.8191 45.2542 60.744V55.9312C45.2542 55.8561 45.2781 55.7947 45.3258 55.7469C45.3736 55.6991 45.4351 55.6752 45.5102 55.6752H46.6878C46.7629 55.6752 46.8243 55.6991 46.8721 55.7469C46.9199 55.7947 46.9438 55.8561 46.9438 55.9312V56.3203C47.1213 56.1087 47.3534 55.9312 47.6401 55.7878C47.9268 55.6445 48.2647 55.5728 48.6538 55.5728C49.0498 55.5728 49.3979 55.6615 49.6983 55.839C50.0055 56.0165 50.2445 56.2794 50.4151 56.6275C50.5926 56.9689 50.6814 57.3887 50.6814 57.887V60.744C50.6814 60.8191 50.6541 60.8805 50.5994 60.9283C50.5517 60.9761 50.4936 61 50.4254 61H49.1351C49.0669 61 49.0054 60.9761 48.9508 60.9283C48.903 60.8805 48.8791 60.8191 48.8791 60.744V57.9485C48.8791 57.6276 48.8006 57.3819 48.6436 57.2112C48.4934 57.0337 48.2681 56.945 47.9678 56.945C47.6879 56.945 47.4626 57.0337 47.2919 57.2112C47.1281 57.3819 47.0462 57.6276 47.0462 57.9485V60.744C47.0462 60.8191 47.0189 60.8805 46.9642 60.9283C46.9165 60.9761 46.8584 61 46.7902 61H45.5102Z" fill="#E5E5E5"/>
</g>
<defs>
<filter id="filter0_d_602_279" x="0" y="0" width="80" height="80" filterUnits="userSpaceOnUse" color-interpolation-filters="sRGB">
<feFlood flood-opacity="0" result="BackgroundImageFix"/>
<feColorMatrix in="SourceAlpha" type="matrix" values="0 0 0 0 0 0 0 0 0 0 0 0 0 0 0 0 0 0 127 0" result="hardAlpha"/>
<feOffset dy="2"/>
<feGaussianBlur stdDeviation="4"/>
<feColorMatrix type="matrix" values="0 0 0 0 0 0 0 0 0 0 0 0 0 0 0 0 0 0 0.75 0"/>
<feBlend mode="normal" in2="BackgroundImageFix" result="effect1_dropShadow_602_279"/>
<feBlend mode="normal" in="SourceGraphic" in2="effect1_dropShadow_602_279" result="shape"/>
</filter>
</defs>
</svg>
